v 0.024487 -0.034089 -0.051005
v 0.027356 -0.024441 -0.050605
v 0.036879 -0.037094 -0.048679
v 0.036513 -0.029112 -0.053625
v 0.035561 -0.023493 -0.047017
v 0.026003 -0.035138 -0.026191
v 0.028385 -0.039309 -0.034263
v 0.021495 -0.028546 -0.032370
v 0.024982 -0.023480 -0.036225
v 0.034019 -0.039414 -0.033643
v 0.038950 -0.029442 -0.031731
v 0.033357 -0.026725 -0.027036
v 0.029944 -0.025196 -0.028206
v 0.030102 -0.021149 -0.037561
v 0.035887 -0.024508 -0.033570
v -0.012389 -0.038181 0.037227
v -0.019259 -0.032772 0.039116
v -0.017735 -0.025934 0.029608
v -0.014027 -0.033630 0.029791
v -0.004683 -0.034212 0.031034
v -0.011128 -0.028735 0.024342
v -0.011358 -0.034275 0.051842
v -0.014143 -0.026622 0.053257
v -0.004947 -0.035212 0.047396
v -0.001874 -0.032800 0.038676
v -0.006647 -0.029048 0.053245
v -0.019539 -0.025958 0.038885
v -0.013009 -0.019500 0.035399
v -0.004619 -0.024364 0.028853
v -0.009604 -0.020951 0.030450
v -0.014891 -0.020829 0.043979
v -0.016393 -0.024512 0.048138
v -0.007832 -0.021346 0.050009
v -0.010199 -0.028340 0.054065
v -0.005423 -0.025421 0.051605
v -0.005467 -0.020684 0.039686
v -0.006055 -0.020083 0.039686
v -0.001958 -0.028340 0.046165
v -0.001114 -0.025588 0.037694
v -0.002543 -0.023608 0.039686
v 0.024133 0.030006 -0.053135
v 0.037682 0.028765 -0.051578
v 0.025934 0.035249 -0.051047
v 0.034585 0.036324 -0.051089
v 0.027896 0.040035 -0.041012
v 0.023863 0.032693 -0.026915
v 0.029181 0.038296 -0.031979
v 0.025414 0.021140 -0.037526
v 0.038036 0.025612 -0.031994
v 0.033077 0.026649 -0.026912
v 0.037271 0.035256 -0.031127
v 0.035068 0.038916 -0.037236
v 0.030597 0.032228 -0.025129
v 0.030597 0.033161 -0.025854
v -0.009326 0.018732 0.035601
v -0.013937 0.026113 0.025993
v -0.017200 0.021357 0.040375
v -0.020173 0.030687 0.037971
v -0.005050 0.023171 0.029440
v -0.001822 0.023085 0.042337
v -0.007611 0.031578 0.025837
v -0.009302 0.019499 0.046068
v -0.006178 0.024413 0.052475
v -0.003758 0.021924 0.042139
v -0.010698 0.027511 0.054563
v -0.012899 0.031159 0.025924
v -0.016049 0.033504 0.050894
v -0.011957 0.037917 0.038854
v -0.003263 0.030876 0.031092
v -0.015291 0.035784 0.041812
v -0.016786 0.028062 0.050500
v -0.004948 0.034960 0.047058
v -0.005699 0.031121 0.051319
v -0.006294 0.036104 0.043423
v -0.010199 0.035996 0.047246
v -0.001203 0.029170 0.037503
v -0.002935 0.034399 0.038129
v 0.069497 -0.024450 -0.061760
v 0.049091 -0.019046 -0.034537
v 0.073663 -0.013006 -0.075084
v 0.058154 -0.028555 -0.032046
v 0.064452 -0.025938 -0.005353
v 0.071645 -0.030422 -0.017035
v 0.065288 -0.028974 -0.042774
v 0.067833 -0.028475 -0.042743
v 0.073489 -0.029888 -0.039696
v 0.058548 -0.025701 -0.029318
v 0.063670 -0.027441 -0.017517
v 0.055055 -0.009444 -0.063833
v 0.048467 -0.002444 -0.052713
v 0.049706 -0.015475 -0.042362
v 0.059057 0.001336 -0.073766
v 0.088661 -0.012347 -0.063306
v 0.085684 -0.026838 -0.036860
v 0.092230 -0.016295 -0.011769
v 0.087459 -0.002810 -0.069300
v 0.101461 -0.010149 -0.061167
v 0.103989 -0.010112 -0.056541
v 0.103989 -0.014930 -0.051645
v 0.101871 -0.003701 -0.053780
v 0.103989 -0.004094 -0.049099
v 0.102340 -0.004616 -0.041640
v 0.090038 -0.017757 -0.050239
v 0.103989 -0.012044 -0.039890
v 0.101461 -0.015064 -0.039886
v 0.101145 -0.010744 -0.031700
v 0.095142 -0.013797 -0.033596
v 0.096750 -0.007188 -0.036334
v 0.098702 -0.002311 -0.039329
v 0.106128 -0.008107 -0.022031
v 0.105753 -0.007024 -0.009156
v 0.077126 -0.019183 0.007795
v 0.056328 -0.016261 -0.001589
v 0.053197 -0.007692 0.002420
v 0.063715 -0.008030 0.015947
v 0.074990 -0.016000 0.020602
v 0.072791 -0.005800 0.018589
v 0.087755 -0.030544 0.004547
v 0.085027 -0.025628 -0.016127
v 0.089775 -0.023549 0.004719
v 0.101504 -0.039353 -0.002074
v 0.096994 -0.029353 -0.013386
v 0.098005 -0.030614 0.018171
v 0.106778 -0.033605 0.004504
v 0.092981 -0.022390 -0.009603
v 0.092443 -0.021612 0.009173
v 0.105670 -0.022199 -0.003860
v 0.106281 -0.024895 -0.002693
v 0.099036 -0.024505 0.015780
v 0.099374 -0.020281 0.008476
v 0.104430 -0.026207 0.012862
v 0.080625 -0.016008 0.007752
v 0.095479 -0.019300 0.000065
v 0.104990 -0.016000 0.020602
v 0.105804 -0.002440 -0.003757
v 0.105150 -0.002661 0.015865
v 0.105337 -0.003193 0.008626
v 0.054345 0.020546 -0.047490
v 0.070712 0.007528 -0.077022
v 0.059348 0.020937 -0.058660
v 0.073938 0.012217 -0.075792
v 0.044683 0.000737 -0.028409
v 0.051439 0.009478 -0.001600
v 0.049786 0.009325 -0.009679
v 0.051712 0.021011 -0.022385
v 0.078558 0.025039 -0.056444
v 0.058417 0.025537 -0.029765
v 0.059483 0.025965 -0.023472
v 0.060234 0.024487 -0.010553
v 0.071469 0.029119 -0.018146
v 0.060687 0.028130 -0.037678
v 0.067112 0.030364 -0.042990
v 0.072019 0.029869 -0.040834
v 0.061878 0.028619 -0.019326
v 0.069685 0.029528 -0.016603
v 0.091925 0.005938 -0.060212
v 0.089134 0.015859 -0.056008
v 0.089270 0.022889 -0.036346
v 0.096858 0.002253 -0.042857
v 0.103989 0.004924 -0.054950
v 0.101461 0.005654 -0.058001
v 0.101742 0.016370 -0.053888
v 0.103989 0.011140 -0.056102
v 0.102353 0.015130 -0.046987
v 0.097057 0.009652 -0.033448
v 0.096647 -0.009356 -0.033243
v 0.101461 0.004849 -0.038165
v 0.105388 -0.013857 -0.027247
v 0.103989 0.006223 -0.040794
v 0.103989 0.009480 -0.039357
v 0.105658 0.007738 -0.025079
v 0.096282 0.010174 -0.033636
v 0.101461 0.014182 -0.038170
v 0.103989 0.011697 -0.040030
v 0.103989 0.013826 -0.042895
v 0.101461 0.011295 -0.036175
v 0.104990 0.016000 -0.030523
v 0.095076 0.015465 -0.031411
v 0.082739 0.024286 -0.050411
v 0.079668 0.029073 -0.024396
v 0.075837 0.030301 -0.028666
v 0.098189 0.032409 -0.012640
v 0.068391 0.016685 0.011197
v 0.071974 0.007771 0.018499
v 0.074990 0.016000 0.020602
v 0.073799 0.025294 -0.001509
v 0.071990 0.027599 -0.010509
v 0.089612 0.016843 -0.003749
v 0.078965 0.016013 0.008807
v 0.105695 0.003467 -0.004509
v 0.106008 0.007308 -0.010240
v 0.105470 0.000000 0.006474
v 0.105470 0.002404 0.008065
v 0.105470 0.003141 0.009827
v 0.105050 0.002231 0.007094
v 0.105470 0.002404 0.015747
v 0.105077 0.001992 0.016755
v 0.105470 0.000000 0.017338
v 0.105470 0.003361 0.013221
v 0.100409 0.021073 0.013432
v 0.104990 0.016000 0.020602
v 0.081672 0.025334 -0.011366
v 0.089171 0.024176 0.009370
v 0.090690 0.034757 -0.002380
v 0.100623 0.020179 -0.007445
v 0.090009 0.025868 -0.006546
v 0.105629 0.022243 0.002102
v 0.106905 0.028322 -0.003200
v 0.106734 0.032540 -0.003427
v 0.099177 0.026062 0.016463
v 0.101171 0.031140 0.016221
v 0.106482 0.031192 0.005399
v 0.099509 0.037876 0.002125
v 0.094845 0.034524 0.012366
v 0.095129 0.035621 0.009174
g camera
f 84 83 81
f 84 86 83
f 81 83 88
f 84 85 86
f 81 88 87
f 151 154 152
f 153 152 181
f 152 154 155
f 152 155 181
f 155 150 181
f 78 84 79
f 79 88 82
f 79 84 81
f 78 85 84
f 79 81 87
f 78 86 85
f 78 94 86
f 79 87 88
f 82 88 83
f 79 89 78
f 91 89 79
f 91 90 89
f 78 92 80
f 78 89 92
f 92 139 80
f 90 91 142
f 91 79 142
f 79 114 142
f 78 80 93
f 78 93 94
f 86 94 83
f 94 119 83
f 83 119 82
f 94 95 119
f 94 93 103
f 93 80 96
f 96 109 93
f 94 103 107
f 94 107 95
f 166 108 109
f 166 109 165
f 159 165 109
f 82 113 79
f 113 82 114
f 113 114 79
f 82 115 114
f 112 115 82
f 115 112 117
f 82 119 112
f 95 112 119
f 112 95 132
f 89 90 92
f 90 138 92
f 92 138 140
f 141 139 92
f 80 139 141
f 92 140 141
f 143 144 142
f 138 90 142
f 138 142 145
f 142 144 145
f 141 140 146
f 140 153 146
f 145 147 151
f 147 154 151
f 147 145 148
f 147 148 154
f 145 149 148
f 138 151 140
f 145 151 138
f 153 140 152
f 140 151 152
f 148 149 154
f 149 155 154
f 150 155 187
f 150 187 181
f 96 80 141
f 141 156 96
f 141 146 156
f 146 157 156
f 158 178 157
f 96 156 109
f 109 156 159
f 146 179 157
f 157 179 158
f 146 153 180
f 146 180 158
f 180 153 181
f 179 146 158
f 181 187 180
f 178 158 188
f 180 188 158
f 180 202 188
f 142 114 143
f 115 143 114
f 143 115 184
f 143 145 144
f 145 183 149
f 145 143 183
f 117 184 115
f 184 183 143
f 183 186 149
f 186 155 149
f 155 186 187
f 183 189 186
f 188 186 189
f 187 186 180
f 186 202 180
f 188 202 186
f 106 166 165
f 165 172 178
f 111 110 135
f 168 171 110
f 110 171 191
f 110 190 135
f 110 191 190
f 97 105 103
f 97 103 93
f 97 93 109
f 97 109 100
f 105 107 103
f 105 166 107
f 105 109 166
f 109 108 166
f 109 105 102
f 102 100 109
f 98 97 100
f 99 97 98
f 99 105 97
f 98 100 99
f 99 100 101
f 99 101 102
f 101 100 102
f 99 104 105
f 99 102 104
f 104 102 105
f 167 159 156
f 167 156 161
f 162 156 157
f 161 156 162
f 162 157 178
f 167 165 159
f 173 172 165
f 162 178 173
f 173 178 172
f 173 176 167
f 173 167 164
f 167 176 165
f 173 165 176
f 162 173 164
f 160 167 161
f 163 161 162
f 160 161 163
f 160 163 162
f 160 162 164
f 160 164 175
f 160 169 167
f 160 170 169
f 169 170 167
f 175 164 167
f 160 174 170
f 160 175 174
f 170 174 167
f 174 175 167
f 106 107 166
f 168 107 106
f 168 95 107
f 168 106 165
f 116 117 112
f 116 185 117
f 168 116 95
f 116 132 95
f 116 112 132
f 168 134 116
f 168 110 134
f 134 110 111
f 134 111 135
f 116 134 201
f 134 135 137
f 134 137 136
f 134 136 197
f 168 165 177
f 177 171 168
f 165 178 177
f 177 191 171
f 185 184 117
f 185 183 184
f 116 201 185
f 201 189 183
f 201 188 189
f 185 201 183
f 137 135 190
f 137 190 195
f 195 190 191
f 177 195 191
f 134 197 201
f 195 201 197
f 201 178 188
f 177 201 195
f 177 178 201
f 118 120 125
f 118 123 120
f 122 121 118
f 125 122 118
f 121 128 124
f 118 121 123
f 124 123 121
f 120 126 125
f 125 126 133
f 122 127 121
f 121 127 128
f 127 122 125
f 128 127 124
f 123 129 126
f 123 126 120
f 126 130 133
f 129 130 126
f 124 131 123
f 123 131 129
f 129 127 130
f 124 127 131
f 129 131 127
f 133 127 125
f 133 130 127
f 206 203 204
f 203 214 204
f 206 205 203
f 205 200 203
f 205 206 182
f 206 204 182
f 205 208 207
f 205 182 209
f 209 208 205
f 200 210 203
f 203 210 211
f 205 207 200
f 207 212 200
f 200 211 210
f 200 212 211
f 182 204 213
f 207 208 212
f 209 212 208
f 182 213 209
f 203 211 214
f 214 215 204
f 204 215 213
f 213 215 214
f 209 211 212
f 214 211 213
f 209 213 211
f 1 3 10
f 3 1 4
f 4 1 2
f 2 5 4
f 1 7 6
f 1 10 7
f 1 6 8
f 2 1 8
f 2 8 9
f 2 9 14
f 8 13 9
f 7 10 6
f 3 11 10
f 6 11 12
f 10 11 6
f 12 11 15
f 5 2 14
f 9 13 14
f 13 12 14
f 15 11 5
f 14 15 5
f 12 15 14
f 3 4 11
f 5 11 4
f 6 13 8
f 6 12 13
f 48 41 42
f 43 44 41
f 42 41 44
f 45 44 43
f 41 48 46
f 41 46 45
f 43 41 45
f 46 47 45
f 42 49 48
f 48 49 50
f 48 50 46
f 46 50 53
f 45 52 44
f 45 47 52
f 47 46 52
f 46 51 52
f 42 51 49
f 42 52 51
f 44 52 42
f 53 54 46
f 54 51 46
f 50 49 53
f 53 49 51
f 54 53 51
f 21 16 19
f 21 17 18
f 16 17 19
f 21 19 17
f 16 20 24
f 21 20 16
f 18 17 27
f 17 16 22
f 17 22 23
f 20 25 24
f 24 22 16
f 22 24 26
f 18 28 30
f 21 29 20
f 18 30 21
f 21 30 29
f 30 37 29
f 17 23 27
f 27 23 32
f 18 27 31
f 18 31 28
f 27 32 31
f 31 32 23
f 23 33 31
f 31 33 28
f 23 22 34
f 22 26 34
f 34 26 23
f 23 26 35
f 24 35 26
f 29 33 40
f 37 36 29
f 29 36 33
f 36 37 33
f 23 35 33
f 33 35 39
f 24 25 38
f 20 39 25
f 20 29 39
f 29 40 39
f 25 39 38
f 24 38 35
f 33 39 40
f 35 38 39
f 30 28 37
f 28 33 37
f 57 56 55
f 55 62 57
f 57 58 56
f 55 56 59
f 55 59 60
f 66 61 56
f 59 56 61
f 61 69 59
f 57 71 58
f 62 63 57
f 57 65 71
f 63 65 57
f 55 60 64
f 55 63 62
f 55 64 63
f 63 73 65
f 66 56 58
f 58 68 66
f 69 61 77
f 66 68 61
f 61 68 77
f 58 71 67
f 58 67 70
f 71 65 67
f 58 70 68
f 67 68 70
f 67 75 68
f 63 72 73
f 65 73 67
f 67 73 72
f 68 75 72
f 68 72 74
f 68 74 77
f 72 77 74
f 67 72 75
f 59 76 60
f 59 69 76
f 63 64 60
f 76 77 60
f 63 60 72
f 69 77 76
f 60 77 72
f 137 195 192
f 136 137 198
f 136 198 197
f 192 195 137
f 195 193 137
f 137 193 194
f 137 194 199
f 193 195 194
f 194 195 199
f 195 197 199
f 137 196 197
f 137 197 198
f 137 199 196
f 199 197 196
