v 0.097048 0.049860 0.044435
v 0.095140 0.047730 0.044303
v 0.094757 0.048134 0.044292
v 0.092169 0.046799 0.044001
v 0.091986 0.046890 0.043996
v 0.091803 0.046982 0.043987
v 0.091620 0.047074 0.043974
v 0.090686 0.047541 0.043894
v 0.089809 0.047980 0.043658
v 0.090774 0.047497 0.043877
v 0.091981 0.048758 0.044011
v 0.092298 0.046734 0.044018
v 0.091237 0.047355 0.044271
v 0.089319 0.048215 0.043862
v 0.099321 0.064608 0.044085
v 0.098150 0.057867 0.045015
v 0.108390 0.079832 0.044895
v 0.123279 0.088166 0.048272
v 0.114762 0.079044 0.046664
v 0.121089 0.085303 0.048307
v 0.109883 0.078925 0.045464
v 0.110276 0.088663 0.046276
v 0.111053 0.065438 0.046179
v 0.130639 0.104917 0.049310
v 0.121089 0.098926 0.047076
v 0.118126 0.093032 0.047986
v 0.106452 0.098473 0.041650
v 0.089917 0.051434 0.043774
v 0.089093 0.050196 0.043354
v 0.092491 0.061325 0.043109
v 0.098560 0.076104 0.043433
v 0.105845 0.089217 0.042824
v 0.115828 0.104385 0.044405
v 0.104126 0.096296 0.041522
v 0.109967 0.108802 0.041414
v 0.117710 0.133059 0.041844
v 0.101312 0.070713 0.045200
v 0.129922 0.128065 0.046887
v 0.131380 0.130619 0.048075
v 0.135353 0.131286 0.048382
v 0.135790 0.129070 0.048680
v 0.119110 0.132648 0.041618
v 0.127119 0.154466 0.042504
v 0.123665 0.130849 0.045990
v 0.122746 0.139368 0.043958
v 0.141842 0.161196 0.045452
v 0.130241 0.155171 0.043466
v 0.133358 0.161941 0.044535
v 0.134615 0.161381 0.044149
v 0.131444 0.152422 0.044220
v 0.131311 0.157822 0.043568
v 0.131775 0.157590 0.043744
v 0.133512 0.161829 0.043887
v 0.133366 0.161875 0.043835
v 0.132943 0.162010 0.043683
v 0.133008 0.162225 0.043683
v 0.133079 0.161967 0.043733
v 0.133539 0.163963 0.043683
v 0.135596 0.161317 0.045128
v 0.122601 0.132144 0.045262
v 0.126987 0.130960 0.045358
v 0.131496 0.152177 0.045273
v 0.127483 0.146564 0.044861
v 0.133904 0.143281 0.046116
v 0.134612 0.148803 0.046012
v 0.137110 0.152967 0.045531
v 0.134819 0.155472 0.044828
v 0.123584 0.106318 0.048384
v 0.131966 0.110807 0.049145
v 0.136203 0.162164 0.054901
v 0.131229 0.165121 0.043033
v 0.132875 0.164296 0.043433
v 0.132484 0.164492 0.043289
v 0.131128 0.163252 0.043597
v 0.133266 0.164100 0.043580
v 0.130846 0.171152 0.055715
v 0.143716 0.181581 0.043856
v 0.142255 0.180355 0.043433
v 0.146799 0.180087 0.048825
v 0.146671 0.173028 0.054008
v 0.143230 0.174946 0.055698
v 0.141592 0.180687 0.043683
v 0.145201 0.188737 0.043281
v 0.142188 0.182640 0.043683
v 0.140927 0.183118 0.044086
v 0.144385 0.191508 0.044920
v 0.139973 0.183583 0.044352
v 0.143725 0.179621 0.043278
v 0.154756 0.204504 0.041374
v 0.163687 0.228844 0.041000
v 0.164564 0.234057 0.042924
v 0.144081 0.214446 0.047058
v 0.150736 0.210994 0.043786
v 0.129048 0.183585 0.046146
v 0.138333 0.191767 0.045479
v 0.140953 0.191877 0.045564
v 0.144674 0.210054 0.047479
v 0.153688 0.216911 0.045607
v 0.151457 0.238275 0.048483
v 0.167746 0.238691 0.041251
v 0.168667 0.245422 0.041564
v 0.173863 0.256974 0.041971
v 0.174069 0.260112 0.043000
v 0.168494 0.259496 0.043660
v 0.178759 0.271652 0.042551
v 0.179973 0.275979 0.042646
v 0.184223 0.289399 0.043211
v 0.181473 0.281729 0.043594
v 0.178583 0.282862 0.044696
v 0.182549 0.284748 0.043562
v 0.186381 0.296105 0.043556
v 0.184792 0.296936 0.043785
v 0.183159 0.291087 0.044151
v 0.163733 0.251405 0.046253
v 0.166710 0.250229 0.044920
v 0.172389 0.276701 0.044561
v 0.164780 0.264266 0.045469
v 0.178730 0.287631 0.044129
v 0.184229 0.297213 0.043883
v 0.184445 0.297109 0.043894
v 0.183511 0.297577 0.043974
v 0.183328 0.297668 0.043987
v 0.183145 0.297760 0.043996
v 0.182962 0.297852 0.044001
v 0.181328 0.295139 0.044480
v 0.180799 0.291947 0.044605
v 0.185089 0.296777 0.044043
v 0.181141 0.296195 0.044246
v 0.181925 0.298308 0.044141
v 0.174253 0.289553 0.044752
v 0.168783 0.271161 0.046178
v 0.158035 0.256582 0.047943
v 0.163073 0.269736 0.046257
v 0.153194 0.253428 0.048600
v 0.167952 0.277962 0.046182
v 0.151681 0.257888 0.048437
v 0.162795 0.276722 0.046488
v 0.140936 0.181471 0.054605
v 0.133289 0.176918 0.055699
v 0.142681 0.231077 0.049128
v 0.139431 0.215740 0.048732
v 0.147217 0.240865 0.049058
v -0.056681 0.079141 0.044797
v -0.045581 0.075546 0.044091
v -0.047960 0.076270 0.044293
v -0.045038 0.076115 0.044001
v -0.044907 0.076274 0.043996
v -0.044777 0.076432 0.043987
v -0.044647 0.076590 0.043974
v -0.044092 0.077267 0.043894
v -0.043985 0.077397 0.043894
v -0.043928 0.077467 0.043846
v -0.043617 0.077845 0.043743
v -0.043362 0.078155 0.043658
v -0.043489 0.078000 0.043701
v -0.044456 0.079526 0.043605
v -0.049173 0.076205 0.044394
v -0.044690 0.076567 0.044158
v -0.045478 0.078983 0.044303
v -0.062080 0.082991 0.045191
v -0.054722 0.083667 0.044339
v -0.052653 0.084632 0.044705
v -0.057265 0.086464 0.044304
v -0.067001 0.096166 0.044275
v -0.076610 0.103283 0.044907
v -0.070569 0.085876 0.046277
v -0.094164 0.102986 0.048888
v -0.066856 0.089901 0.046191
v -0.074412 0.093379 0.046977
v -0.048726 0.077974 0.044552
v -0.056050 0.085792 0.045045
v -0.063580 0.089892 0.045802
v -0.058508 0.084608 0.044701
v -0.083442 0.104902 0.047702
v -0.100597 0.110378 0.049141
v -0.099505 0.114776 0.048092
v -0.076815 0.099611 0.045763
v -0.071285 0.099930 0.045982
v -0.097825 0.118864 0.048181
v -0.096030 0.121212 0.047407
v -0.075550 0.113740 0.041832
v -0.042933 0.078646 0.043710
v -0.043235 0.078310 0.043614
v -0.043491 0.080421 0.043386
v -0.044642 0.080912 0.043778
v -0.066492 0.099842 0.043332
v -0.057523 0.093003 0.044159
v -0.050144 0.088028 0.043061
v -0.074586 0.114810 0.041568
v -0.087381 0.122277 0.042606
v -0.092586 0.121734 0.044407
v -0.082602 0.118401 0.044268
v -0.085861 0.126589 0.041130
v -0.072158 0.111143 0.042747
v -0.073181 0.106958 0.044767
v -0.087111 0.117230 0.046112
v -0.089655 0.120367 0.046037
v -0.114342 0.133219 0.047765
v -0.119214 0.136092 0.048263
v -0.115657 0.137351 0.047116
v -0.116124 0.136586 0.048238
v -0.123355 0.144150 0.047010
v -0.111281 0.150060 0.042001
v -0.103363 0.142476 0.041549
v -0.109024 0.149884 0.042126
v -0.116576 0.155353 0.043548
v -0.145191 0.161096 0.043790
v -0.127374 0.158193 0.044639
v -0.125748 0.158202 0.044284
v -0.120301 0.157883 0.043937
v -0.123786 0.158087 0.043820
v -0.125953 0.161620 0.043568
v -0.126282 0.161219 0.043744
v -0.129593 0.164385 0.043887
v -0.129479 0.164487 0.043835
v -0.129147 0.164782 0.043683
v -0.129294 0.164952 0.043683
v -0.129254 0.164687 0.043733
v -0.130486 0.166324 0.043683
v -0.130388 0.163543 0.044099
v -0.132787 0.162213 0.044950
v -0.128005 0.167502 0.043316
v -0.126217 0.161262 0.044666
v -0.128937 0.165106 0.044431
v -0.111077 0.138839 0.045358
v -0.113729 0.139009 0.046147
v -0.112652 0.140805 0.046908
v -0.129978 0.156720 0.045273
v -0.128909 0.157298 0.045058
v -0.129555 0.155648 0.045428
v -0.115970 0.149814 0.045270
v -0.124326 0.153299 0.045818
v -0.123900 0.156717 0.045183
v -0.146202 0.163133 0.052616
v -0.127684 0.156840 0.045458
v -0.127055 0.160278 0.044987
v -0.099403 0.113668 0.048943
v -0.112104 0.124814 0.048983
v -0.111342 0.126535 0.048842
v -0.132561 0.162171 0.045340
v -0.114900 0.155234 0.042205
v -0.123103 0.161270 0.042905
v -0.130015 0.166897 0.043433
v -0.129737 0.167236 0.043289
v -0.130292 0.166560 0.043580
v -0.146355 0.176244 0.043074
v -0.154942 0.184702 0.042477
v -0.145394 0.177415 0.043289
v -0.145116 0.177753 0.043433
v -0.150395 0.183872 0.043434
v -0.144839 0.178090 0.043580
v -0.154227 0.186651 0.044255
v -0.170854 0.199052 0.041054
v -0.137565 0.172325 0.043683
v -0.144645 0.178327 0.043683
v -0.145740 0.180193 0.043788
v -0.142841 0.182257 0.044714
v -0.159250 0.196994 0.044261
v -0.144349 0.181349 0.044307
v -0.147353 0.188774 0.045126
v -0.127973 0.180864 0.044265
v -0.186051 0.226358 0.044348
v -0.146290 0.179490 0.044334
v -0.144172 0.182036 0.045750
v -0.145119 0.188585 0.045403
v -0.155306 0.207441 0.048160
v -0.182125 0.217903 0.045252
v -0.159602 0.206570 0.046904
v -0.195177 0.239491 0.045330
v -0.163989 0.213827 0.048670
v -0.157233 0.211988 0.048745
v -0.158002 0.211483 0.048433
v -0.199909 0.230351 0.042794
v -0.189980 0.218539 0.040919
v -0.217223 0.249270 0.043488
v -0.211029 0.241551 0.042205
v -0.231330 0.263811 0.043530
v -0.232335 0.265810 0.043521
v -0.231727 0.266554 0.044046
v -0.231241 0.267138 0.043832
v -0.208466 0.243899 0.044710
v -0.223583 0.257518 0.043285
v -0.228848 0.265333 0.043896
v -0.231146 0.267253 0.043894
v -0.230799 0.267674 0.043955
v -0.230224 0.268377 0.043996
v -0.230093 0.268535 0.044001
v -0.229008 0.269475 0.044191
v -0.229115 0.265026 0.044293
v -0.228421 0.266321 0.044440
v -0.219003 0.261566 0.044567
v -0.227500 0.267880 0.044268
v -0.226309 0.266761 0.044488
v -0.218191 0.265206 0.044767
v -0.205082 0.245620 0.045837
v -0.202991 0.245316 0.044790
v -0.179698 0.230020 0.048435
v -0.199898 0.248952 0.047009
v -0.202010 0.251085 0.046006
v -0.199255 0.253765 0.046750
v -0.192719 0.242575 0.047776
v -0.180809 0.240727 0.048852
v -0.184297 0.241993 0.048640
v -0.214644 0.254613 0.045343
v -0.223438 0.262646 0.044740
v -0.214299 0.258347 0.045578
v -0.199685 0.255604 0.046855
v -0.208467 0.260835 0.045833
v -0.137363 0.183596 0.050076
v -0.131163 0.167497 0.057127
v -0.171077 0.230425 0.049237
v -0.176542 0.232192 0.048329
v -0.096936 -0.048866 0.044329
v -0.099847 -0.056563 0.044641
v -0.095140 -0.047730 0.044303
v -0.094757 -0.048134 0.044292
v -0.092928 -0.049225 0.044110
v -0.092169 -0.046799 0.044001
v -0.091986 -0.046890 0.043996
v -0.091803 -0.046982 0.043987
v -0.091620 -0.047074 0.043974
v -0.090686 -0.047541 0.043894
v -0.090802 -0.047483 0.043881
v -0.089809 -0.047980 0.043658
v -0.089988 -0.047891 0.043701
v -0.088959 -0.048404 0.043530
v -0.090298 -0.049270 0.043652
v -0.092298 -0.046734 0.044018
v -0.091237 -0.047355 0.044271
v -0.089888 -0.047959 0.044040
v -0.100296 -0.062591 0.044413
v -0.096648 -0.055827 0.044851
v -0.106332 -0.076040 0.044733
v -0.111616 -0.092988 0.044402
v -0.123279 -0.088166 0.048272
v -0.108634 -0.069893 0.045747
v -0.111293 -0.069119 0.046579
v -0.121609 -0.088911 0.048470
v -0.109883 -0.078925 0.045464
v -0.106397 -0.070965 0.046210
v -0.110814 -0.089608 0.046357
v -0.111053 -0.065438 0.046179
v -0.122631 -0.088736 0.048161
v -0.130639 -0.104917 0.049310
v -0.123662 -0.100051 0.047731
v -0.118324 -0.095625 0.046473
v -0.119893 -0.091482 0.048275
v -0.116623 -0.095236 0.047511
v -0.106452 -0.098473 0.041650
v -0.089735 -0.050706 0.043775
v -0.089960 -0.052965 0.043354
v -0.091726 -0.056014 0.043291
v -0.092491 -0.061325 0.043109
v -0.093026 -0.059496 0.043871
v -0.099460 -0.068359 0.043732
v -0.100291 -0.082512 0.042973
v -0.103549 -0.085489 0.044160
v -0.105845 -0.089217 0.042824
v -0.116427 -0.113694 0.043266
v -0.104126 -0.096296 0.041522
v -0.109967 -0.108802 0.041414
v -0.111843 -0.115079 0.042605
v -0.115481 -0.127252 0.041340
v -0.101312 -0.070713 0.045200
v -0.107420 -0.085053 0.045688
v -0.129922 -0.128065 0.046887
v -0.124401 -0.115438 0.046316
v -0.134048 -0.129086 0.048125
v -0.130025 -0.130911 0.047757
v -0.132942 -0.130581 0.048277
v -0.135353 -0.131286 0.048382
v -0.135931 -0.129291 0.048690
v -0.119110 -0.132648 0.041618
v -0.127119 -0.154466 0.042504
v -0.110503 -0.099085 0.045196
v -0.122746 -0.139368 0.043958
v -0.142829 -0.161654 0.045159
v -0.130241 -0.155171 0.043466
v -0.133358 -0.161941 0.044535
v -0.134615 -0.161381 0.044149
v -0.135875 -0.161291 0.044614
v -0.131406 -0.155126 0.043880
v -0.131311 -0.157822 0.043568
v -0.131775 -0.157590 0.043744
v -0.133512 -0.161829 0.043887
v -0.133366 -0.161875 0.043835
v -0.132943 -0.162010 0.043683
v -0.133008 -0.162225 0.043683
v -0.133079 -0.161967 0.043733
v -0.133539 -0.163963 0.043683
v -0.135596 -0.161317 0.045128
v -0.122601 -0.132144 0.045262
v -0.126987 -0.130960 0.045358
v -0.125835 -0.131880 0.046550
v -0.130090 -0.137040 0.047031
v -0.127483 -0.146564 0.044861
v -0.133904 -0.143281 0.046116
v -0.131117 -0.148355 0.044650
v -0.132801 -0.152948 0.045354
v -0.134612 -0.148803 0.046012
v -0.137003 -0.153117 0.045470
v -0.135433 -0.155723 0.045373
v -0.134819 -0.155472 0.044828
v -0.123584 -0.106318 0.048384
v -0.131966 -0.110807 0.049145
v -0.141116 -0.162874 0.053804
v -0.131229 -0.165121 0.043033
v -0.128087 -0.155094 0.043539
v -0.132875 -0.164296 0.043433
v -0.132484 -0.164492 0.043289
v -0.130932 -0.163388 0.043580
v -0.133266 -0.164100 0.043580
v -0.130987 -0.164658 0.053909
v -0.131165 -0.170445 0.055707
v -0.143682 -0.179652 0.043157
v -0.143716 -0.181581 0.043856
v -0.148944 -0.176563 0.043695
v -0.142255 -0.180355 0.043433
v -0.142035 -0.180881 0.053859
v -0.146671 -0.173028 0.054008
v -0.143230 -0.174946 0.055698
v -0.137565 -0.172325 0.043683
v -0.145201 -0.188737 0.043281
v -0.141592 -0.180687 0.043683
v -0.142188 -0.182640 0.043683
v -0.141616 -0.182909 0.043838
v -0.140122 -0.183293 0.044369
v -0.144385 -0.191508 0.044920
v -0.144089 -0.195386 0.044500
v -0.146614 -0.189081 0.043716
v -0.138397 -0.183570 0.044606
v -0.154756 -0.204504 0.041374
v -0.163687 -0.228844 0.041000
v -0.166966 -0.239779 0.042717
v -0.154067 -0.232071 0.045421
v -0.150736 -0.210994 0.043786
v -0.139971 -0.183241 0.045094
v -0.142088 -0.191070 0.045332
v -0.138329 -0.191546 0.045452
v -0.140238 -0.191986 0.045591
v -0.139867 -0.196090 0.046047
v -0.144674 -0.210054 0.047479
v -0.150434 -0.204873 0.044953
v -0.141363 -0.215069 0.048488
v -0.141872 -0.215581 0.047883
v -0.154061 -0.235397 0.047566
v -0.147357 -0.235018 0.048955
v -0.150166 -0.240476 0.047762
v -0.167746 -0.238691 0.041251
v -0.168667 -0.245422 0.041564
v -0.173863 -0.256974 0.041971
v -0.174069 -0.260112 0.043000
v -0.162491 -0.231745 0.043657
v -0.167653 -0.258784 0.043863
v -0.178759 -0.271652 0.042551
v -0.179973 -0.275979 0.042646
v -0.172992 -0.269400 0.043598
v -0.184047 -0.288743 0.043172
v -0.181473 -0.281729 0.043594
v -0.178877 -0.281408 0.044489
v -0.182549 -0.284748 0.043562
v -0.185357 -0.293731 0.043399
v -0.186381 -0.296105 0.043556
v -0.185501 -0.296580 0.043614
v -0.183159 -0.291087 0.044151
v -0.176499 -0.280922 0.045052
v -0.163733 -0.251405 0.046253
v -0.166710 -0.250229 0.044920
v -0.156650 -0.232631 0.046487
v -0.172389 -0.276701 0.044561
v -0.166574 -0.263830 0.044874
v -0.174371 -0.286125 0.044698
v -0.178730 -0.287631 0.044129
v -0.184763 -0.296950 0.043791
v -0.184375 -0.297144 0.043878
v -0.184445 -0.297109 0.043894
v -0.183511 -0.297577 0.043974
v -0.183328 -0.297668 0.043987
v -0.183145 -0.297760 0.043996
v -0.182962 -0.297852 0.044001
v -0.183488 -0.294858 0.044321
v -0.182029 -0.295604 0.044486
v -0.180799 -0.291947 0.044605
v -0.185203 -0.296726 0.043996
v -0.180888 -0.296336 0.044262
v -0.177847 -0.288247 0.044322
v -0.181651 -0.295692 0.044182
v -0.181925 -0.298308 0.044141
v -0.172884 -0.289695 0.044783
v -0.168391 -0.265000 0.045935
v -0.162841 -0.263295 0.045933
v -0.158035 -0.256582 0.047943
v -0.163073 -0.269736 0.046257
v -0.155655 -0.252855 0.048206
v -0.152433 -0.253213 0.048693
v -0.168387 -0.271469 0.046245
v -0.177278 -0.290556 0.044839
v -0.168447 -0.277728 0.046149
v -0.166704 -0.277134 0.046319
v -0.155245 -0.260340 0.047693
v -0.162795 -0.276722 0.046488
v -0.150940 -0.257131 0.048603
v -0.126880 -0.180903 0.045747
v -0.140936 -0.181471 0.054605
v -0.133289 -0.176918 0.055699
v -0.131985 -0.175120 0.055698
v -0.143462 -0.235292 0.049226
v -0.139343 -0.215263 0.048634
v -0.147217 -0.240865 0.049058
v 0.056681 -0.079141 0.044797
v 0.045581 -0.075546 0.044091
v 0.047960 -0.076270 0.044293
v 0.045038 -0.076115 0.044001
v 0.044907 -0.076274 0.043996
v 0.044777 -0.076432 0.043987
v 0.044647 -0.076590 0.043974
v 0.044092 -0.077267 0.043894
v 0.043985 -0.077397 0.043894
v 0.043928 -0.077467 0.043846
v 0.043617 -0.077845 0.043743
v 0.043362 -0.078155 0.043658
v 0.043489 -0.078000 0.043701
v 0.044456 -0.079526 0.043605
v 0.049173 -0.076205 0.044394
v 0.044690 -0.076567 0.044158
v 0.045478 -0.078983 0.044303
v 0.062080 -0.082991 0.045191
v 0.054722 -0.083667 0.044339
v 0.052653 -0.084632 0.044705
v 0.057265 -0.086464 0.044304
v 0.067001 -0.096166 0.044275
v 0.076610 -0.103283 0.044907
v 0.070569 -0.085876 0.046277
v 0.094164 -0.102986 0.048888
v 0.066856 -0.089901 0.046191
v 0.074412 -0.093379 0.046977
v 0.048726 -0.077974 0.044552
v 0.056050 -0.085792 0.045045
v 0.063580 -0.089892 0.045802
v 0.058508 -0.084608 0.044701
v 0.083442 -0.104902 0.047702
v 0.100597 -0.110378 0.049141
v 0.099505 -0.114776 0.048092
v 0.076815 -0.099611 0.045763
v 0.071285 -0.099930 0.045982
v 0.097825 -0.118864 0.048181
v 0.096030 -0.121212 0.047407
v 0.075550 -0.113740 0.041832
v 0.042933 -0.078646 0.043710
v 0.043235 -0.078310 0.043614
v 0.043491 -0.080421 0.043386
v 0.044642 -0.080912 0.043778
v 0.066492 -0.099842 0.043332
v 0.057523 -0.093003 0.044159
v 0.050144 -0.088028 0.043061
v 0.074586 -0.114810 0.041568
v 0.087381 -0.122277 0.042606
v 0.092586 -0.121734 0.044407
v 0.082602 -0.118401 0.044268
v 0.085861 -0.126589 0.041130
v 0.072158 -0.111143 0.042747
v 0.073181 -0.106958 0.044767
v 0.087111 -0.117230 0.046112
v 0.089655 -0.120367 0.046037
v 0.114342 -0.133219 0.047765
v 0.119214 -0.136092 0.048263
v 0.115657 -0.137351 0.047116
v 0.116124 -0.136586 0.048238
v 0.123355 -0.144150 0.047010
v 0.111281 -0.150060 0.042001
v 0.103363 -0.142476 0.041549
v 0.109024 -0.149884 0.042126
v 0.116576 -0.155353 0.043548
v 0.145191 -0.161096 0.043790
v 0.127374 -0.158193 0.044639
v 0.125748 -0.158202 0.044284
v 0.120301 -0.157883 0.043937
v 0.123786 -0.158087 0.043820
v 0.125953 -0.161620 0.043568
v 0.126282 -0.161219 0.043744
v 0.129593 -0.164385 0.043887
v 0.129479 -0.164487 0.043835
v 0.129147 -0.164782 0.043683
v 0.129294 -0.164952 0.043683
v 0.129254 -0.164687 0.043733
v 0.130486 -0.166324 0.043683
v 0.130388 -0.163543 0.044099
v 0.132787 -0.162213 0.044950
v 0.128005 -0.167502 0.043316
v 0.126217 -0.161262 0.044666
v 0.128937 -0.165106 0.044431
v 0.111077 -0.138839 0.045358
v 0.113729 -0.139009 0.046147
v 0.112652 -0.140805 0.046908
v 0.129978 -0.156720 0.045273
v 0.128909 -0.157298 0.045058
v 0.129555 -0.155648 0.045428
v 0.115970 -0.149814 0.045270
v 0.124326 -0.153299 0.045818
v 0.123900 -0.156717 0.045183
v 0.138415 -0.161422 0.052141
v 0.127684 -0.156840 0.045458
v 0.127055 -0.160278 0.044987
v 0.130710 -0.163491 0.044996
v 0.099403 -0.113668 0.048943
v 0.112104 -0.124814 0.048983
v 0.111342 -0.126535 0.048842
v 0.133773 -0.161560 0.045342
v 0.114900 -0.155234 0.042205
v 0.123103 -0.161270 0.042905
v 0.130015 -0.166897 0.043433
v 0.129737 -0.167236 0.043289
v 0.130292 -0.166560 0.043580
v 0.146299 -0.176312 0.043029
v 0.154942 -0.184702 0.042477
v 0.145394 -0.177415 0.043289
v 0.145116 -0.177753 0.043433
v 0.150395 -0.183872 0.043434
v 0.144839 -0.178090 0.043580
v 0.150358 -0.181594 0.043701
v 0.157045 -0.192275 0.045093
v 0.182760 -0.211026 0.041146
v 0.149294 -0.171334 0.049632
v 0.143885 -0.168236 0.055786
v 0.137565 -0.172325 0.043683
v 0.144645 -0.178327 0.043683
v 0.145740 -0.180193 0.043788
v 0.142997 -0.182172 0.044627
v 0.159570 -0.197330 0.044249
v 0.144349 -0.181349 0.044307
v 0.147353 -0.188774 0.045126
v 0.173579 -0.204201 0.041539
v 0.127973 -0.180864 0.044265
v 0.158580 -0.189360 0.043493
v 0.183108 -0.219775 0.043295
v 0.146265 -0.179485 0.044437
v 0.148097 -0.188353 0.045491
v 0.135543 -0.184704 0.046345
v 0.144582 -0.181345 0.047001
v 0.142104 -0.182539 0.044933
v 0.150807 -0.187542 0.045154
v 0.145119 -0.188585 0.045403
v 0.159437 -0.208020 0.047306
v 0.155306 -0.207441 0.048160
v 0.161807 -0.202450 0.045091
v 0.184018 -0.219739 0.045236
v 0.168788 -0.213649 0.046083
v 0.189442 -0.226388 0.045408
v 0.186496 -0.227743 0.044604
v 0.195177 -0.239491 0.045330
v 0.172888 -0.217480 0.047545
v 0.156938 -0.209947 0.048277
v 0.157233 -0.211988 0.048745
v 0.158243 -0.210933 0.048263
v 0.199909 -0.230351 0.042794
v 0.214421 -0.248096 0.044006
v 0.189195 -0.217675 0.040885
v 0.205230 -0.240219 0.042959
v 0.203920 -0.244123 0.044284
v 0.217223 -0.249270 0.043488
v 0.211029 -0.241551 0.042205
v 0.230424 -0.264600 0.043506
v 0.221237 -0.255780 0.044272
v 0.230363 -0.262685 0.043433
v 0.232335 -0.265810 0.043521
v 0.230841 -0.264428 0.043869
v 0.231896 -0.266341 0.043614
v 0.190155 -0.230902 0.046451
v 0.215963 -0.256990 0.044436
v 0.228848 -0.265333 0.043896
v 0.231146 -0.267253 0.043894
v 0.231225 -0.267158 0.043836
v 0.230354 -0.268219 0.043987
v 0.230224 -0.268377 0.043996
v 0.230093 -0.268535 0.044001
v 0.229657 -0.268770 0.044253
v 0.231104 -0.267304 0.044123
v 0.229132 -0.265804 0.044368
v 0.230787 -0.267687 0.043957
v 0.228421 -0.266321 0.044440
v 0.226661 -0.262691 0.044373
v 0.219003 -0.261566 0.044567
v 0.226418 -0.266195 0.044248
v 0.226309 -0.266761 0.044488
v 0.227289 -0.268059 0.044284
v 0.226290 -0.268699 0.044347
v 0.218191 -0.265206 0.044767
v 0.205082 -0.245620 0.045837
v 0.199251 -0.246266 0.045778
v 0.178258 -0.228149 0.048395
v 0.199898 -0.248952 0.047009
v 0.202010 -0.251085 0.046006
v 0.181720 -0.235942 0.048632
v 0.199255 -0.253765 0.046750
v 0.192719 -0.242575 0.047776
v 0.180809 -0.240727 0.048852
v 0.184297 -0.241993 0.048640
v 0.214644 -0.254613 0.045343
v 0.223438 -0.262646 0.044740
v 0.214299 -0.258347 0.045578
v 0.199685 -0.255604 0.046855
v 0.208467 -0.260835 0.045833
v 0.138399 -0.178694 0.055705
v 0.127741 -0.169959 0.054657
v 0.171077 -0.230425 0.049237
v 0.176542 -0.232192 0.048329
v 0.165430 -0.214727 0.048654
g prop
f 46 49 82
f 49 53 55
f 49 55 56
f 49 56 58
f 54 55 53
f 57 55 54
f 49 58 82
f 70 59 46
f 70 48 59
f 82 58 74
f 74 94 82
f 70 74 48
f 74 70 94
f 70 76 94
f 46 82 79
f 79 82 77
f 46 79 80
f 46 80 70
f 81 80 79
f 70 80 76
f 80 81 76
f 81 79 76
f 82 87 85
f 85 84 82
f 82 94 87
f 79 77 94
f 79 94 138
f 76 79 138
f 139 138 94
f 76 138 139
f 94 76 139
f 89 88 83
f 88 77 82
f 88 78 83
f 88 82 78
f 78 82 83
f 88 89 98
f 89 83 93
f 82 84 83
f 83 84 85
f 88 86 77
f 86 94 77
f 85 93 83
f 85 87 93
f 90 91 89
f 90 100 91
f 89 93 90
f 89 91 98
f 98 91 115
f 93 92 90
f 86 96 94
f 95 87 94
f 88 98 86
f 86 98 97
f 96 95 94
f 96 86 97
f 97 141 96
f 115 114 98
f 93 87 92
f 98 99 97
f 97 99 141
f 95 141 92
f 95 96 141
f 87 95 92
f 100 90 101
f 100 103 91
f 100 102 103
f 100 101 102
f 102 108 103
f 104 106 101
f 90 92 104
f 90 104 101
f 103 109 91
f 103 108 109
f 91 109 115
f 102 101 105
f 102 105 108
f 101 106 105
f 105 110 108
f 105 106 110
f 104 107 106
f 108 113 109
f 106 107 110
f 108 110 113
f 110 111 113
f 107 111 110
f 107 112 111
f 113 111 127
f 115 109 114
f 104 117 107
f 107 117 116
f 107 118 112
f 111 120 127
f 111 112 120
f 118 119 112
f 112 119 120
f 120 119 121
f 120 121 122
f 120 122 123
f 120 123 124
f 120 124 129
f 116 130 118
f 107 116 118
f 113 127 109
f 120 129 127
f 109 127 126
f 127 125 126
f 127 129 125
f 119 128 121
f 121 128 122
f 122 128 123
f 130 119 118
f 128 119 130
f 123 128 124
f 124 128 129
f 128 130 129
f 129 130 125
f 92 140 104
f 109 131 114
f 98 132 99
f 98 114 132
f 104 140 117
f 131 132 114
f 99 132 134
f 140 136 117
f 133 117 136
f 136 134 132
f 116 117 130
f 130 117 133
f 109 125 131
f 135 132 131
f 125 135 131
f 126 125 109
f 125 137 135
f 125 130 137
f 130 133 136
f 137 136 132
f 135 137 132
f 130 136 137
f 92 141 140
f 99 142 141
f 141 142 140
f 99 136 142
f 142 136 140
f 134 136 99
f 2 3 1
f 4 3 2
f 12 2 1
f 12 4 2
f 4 5 3
f 12 1 13
f 3 11 1
f 13 1 16
f 12 8 4
f 4 8 5
f 5 8 6
f 6 8 7
f 12 13 8
f 7 8 10
f 9 10 8
f 9 8 14
f 9 11 10
f 3 5 6
f 3 6 7
f 11 3 10
f 3 7 10
f 15 1 11
f 13 16 14
f 14 8 13
f 1 18 23
f 19 18 1
f 23 20 1
f 1 20 16
f 1 15 19
f 17 21 15
f 16 37 14
f 16 22 37
f 16 20 26
f 23 18 20
f 19 25 24
f 15 21 19
f 21 17 19
f 33 25 17
f 16 26 22
f 25 19 17
f 27 30 34
f 34 30 31
f 14 29 11
f 9 14 11
f 15 11 29
f 14 28 29
f 30 29 28
f 29 30 27
f 32 15 29
f 29 27 32
f 15 32 17
f 31 30 28
f 32 33 17
f 32 27 33
f 34 35 27
f 33 27 35
f 34 31 36
f 35 34 36
f 14 37 28
f 37 31 28
f 37 22 31
f 31 22 44
f 40 41 65
f 35 42 33
f 35 36 42
f 42 36 43
f 36 45 43
f 31 44 36
f 36 44 60
f 42 43 33
f 43 50 33
f 45 36 60
f 43 47 50
f 47 52 50
f 47 51 52
f 49 46 67
f 47 75 51
f 51 57 52
f 52 57 54
f 52 53 50
f 50 53 49
f 52 54 53
f 51 56 55
f 51 55 57
f 51 75 56
f 75 58 56
f 63 48 74
f 38 25 33
f 41 25 38
f 33 61 38
f 33 50 61
f 38 61 50
f 26 44 22
f 26 68 44
f 68 39 44
f 62 44 39
f 45 60 44
f 45 44 63
f 41 38 64
f 66 65 41
f 49 67 50
f 66 64 50
f 67 66 50
f 38 50 64
f 44 62 48
f 41 64 66
f 40 65 39
f 39 65 62
f 65 66 62
f 44 48 63
f 45 63 74
f 66 67 46
f 66 46 59
f 62 66 59
f 48 62 59
f 18 24 20
f 19 24 18
f 20 68 26
f 20 24 68
f 24 25 69
f 25 41 69
f 69 39 24
f 69 41 39
f 68 24 39
f 40 39 41
f 45 74 43
f 74 71 43
f 43 73 47
f 47 73 72
f 47 72 75
f 72 58 75
f 71 58 73
f 73 58 72
f 43 71 73
f 71 74 58
f 207 254 220
f 207 220 221
f 207 221 234
f 220 216 214
f 220 217 216
f 220 219 217
f 215 214 216
f 218 215 216
f 220 254 219
f 310 240 224
f 240 310 234
f 254 222 219
f 222 254 261
f 310 224 222
f 222 261 310
f 207 234 254
f 234 263 254
f 254 263 255
f 234 264 263
f 234 310 264
f 254 255 256
f 254 256 257
f 256 259 257
f 254 257 261
f 261 257 309
f 310 309 264
f 261 309 310
f 246 247 248
f 248 250 249
f 246 248 255
f 248 249 255
f 249 251 255
f 249 250 251
f 248 247 250
f 246 255 263
f 246 263 252
f 246 252 247
f 247 253 250
f 251 256 255
f 251 250 256
f 256 258 259
f 259 260 257
f 250 258 256
f 253 258 250
f 247 252 253
f 253 267 273
f 252 267 253
f 253 262 258
f 265 264 309
f 265 309 257
f 260 265 257
f 263 270 252
f 264 265 266
f 259 268 260
f 264 266 263
f 260 268 272
f 265 260 266
f 263 266 270
f 252 270 267
f 258 268 259
f 258 262 268
f 267 270 297
f 267 297 281
f 260 272 266
f 262 269 268
f 266 271 270
f 268 269 272
f 272 312 271
f 253 273 274
f 274 273 276
f 253 274 262
f 276 273 275
f 281 275 273
f 274 296 262
f 276 275 277
f 274 276 296
f 276 282 296
f 276 277 282
f 275 281 277
f 282 277 278
f 277 279 278
f 282 278 280
f 277 289 279
f 273 267 281
f 281 304 277
f 296 269 262
f 278 284 280
f 278 279 284
f 280 283 282
f 284 285 280
f 280 285 283
f 284 286 285
f 284 287 286
f 284 288 287
f 284 279 288
f 282 283 291
f 283 285 291
f 285 292 291
f 279 289 290
f 279 290 293
f 285 286 292
f 279 293 288
f 289 305 290
f 286 287 292
f 287 288 292
f 292 294 291
f 292 288 294
f 288 293 294
f 281 295 304
f 269 312 272
f 281 297 301
f 281 301 295
f 301 298 295
f 269 296 302
f 269 302 312
f 299 302 296
f 299 300 302
f 300 307 302
f 307 301 303
f 303 302 307
f 277 304 289
f 282 299 296
f 291 308 282
f 306 295 298
f 304 295 306
f 304 305 289
f 290 305 306
f 305 304 306
f 290 306 293
f 306 298 308
f 282 300 299
f 282 308 300
f 308 307 300
f 308 298 301
f 293 306 308
f 308 301 307
f 291 294 308
f 293 308 294
f 272 271 266
f 271 311 270
f 271 302 311
f 312 302 271
f 297 303 301
f 270 311 302
f 303 297 302
f 302 297 270
f 144 157 145
f 157 170 143
f 146 144 145
f 157 144 158
f 146 145 147
f 157 158 170
f 143 160 157
f 160 173 161
f 144 146 151
f 144 151 158
f 146 147 151
f 147 148 151
f 148 149 151
f 149 150 151
f 152 151 150
f 153 155 151
f 154 151 155
f 153 156 155
f 154 183 151
f 151 183 182
f 154 155 156
f 152 153 151
f 153 152 156
f 145 148 147
f 145 149 148
f 157 150 145
f 145 150 149
f 160 150 157
f 182 170 158
f 182 159 170
f 160 161 150
f 161 152 150
f 159 162 170
f 182 158 151
f 152 161 163
f 162 171 170
f 152 163 156
f 161 173 163
f 143 166 160
f 143 169 166
f 143 168 169
f 160 166 167
f 170 172 143
f 173 160 177
f 173 177 163
f 177 164 163
f 143 172 168
f 170 171 172
f 171 162 172
f 172 162 178
f 166 169 167
f 160 175 177
f 169 174 167
f 168 172 178
f 177 165 164
f 168 178 169
f 169 178 174
f 175 165 177
f 175 176 165
f 174 179 237
f 174 197 180
f 188 181 189
f 189 194 188
f 156 184 182
f 154 156 183
f 182 183 156
f 182 184 185
f 184 156 188
f 163 164 156
f 156 164 188
f 188 185 184
f 188 187 185
f 159 182 185
f 185 187 159
f 162 159 187
f 188 164 186
f 164 165 186
f 181 188 186
f 194 187 188
f 165 181 186
f 187 192 195
f 165 191 181
f 181 191 190
f 187 194 192
f 181 193 189
f 190 193 181
f 189 193 194
f 162 187 195
f 162 195 178
f 195 192 178
f 165 198 191
f 178 196 174
f 192 196 178
f 174 196 197
f 165 176 198
f 174 180 179
f 198 199 200
f 200 199 202
f 193 190 204
f 190 191 204
f 194 193 205
f 193 204 205
f 204 203 205
f 205 203 241
f 205 241 206
f 194 205 192
f 204 191 203
f 205 206 192
f 203 242 241
f 203 209 211
f 211 212 203
f 203 212 242
f 211 213 212
f 231 210 222
f 231 222 223
f 229 221 208
f 209 208 221
f 242 212 245
f 212 213 218
f 213 215 218
f 213 211 214
f 211 220 214
f 213 214 215
f 212 216 217
f 212 218 216
f 212 217 245
f 245 217 219
f 211 209 220
f 209 221 220
f 236 233 224
f 236 224 240
f 222 224 223
f 223 224 233
f 192 197 196
f 191 198 226
f 200 226 198
f 191 226 225
f 191 225 203
f 203 225 226
f 197 231 227
f 197 227 180
f 179 180 227
f 179 227 201
f 192 206 197
f 197 206 231
f 203 226 208
f 203 208 209
f 208 226 200
f 208 200 229
f 229 230 228
f 229 200 230
f 202 235 230
f 201 233 232
f 228 230 234
f 200 202 230
f 202 199 235
f 201 232 199
f 201 227 233
f 199 232 235
f 235 232 233
f 227 231 233
f 210 231 206
f 233 231 223
f 229 228 221
f 230 235 240
f 228 234 221
f 230 240 234
f 235 233 240
f 236 240 233
f 160 167 175
f 175 167 237
f 174 237 167
f 176 175 238
f 175 237 239
f 175 239 238
f 176 238 198
f 179 201 237
f 237 201 239
f 198 238 199
f 238 239 199
f 201 199 239
f 242 222 241
f 206 241 210
f 241 222 210
f 242 243 244
f 242 245 243
f 243 245 219
f 222 244 219
f 244 243 219
f 242 244 222
f 377 380 422
f 380 377 381
f 380 385 387
f 380 387 388
f 380 388 390
f 386 387 385
f 389 387 386
f 380 390 422
f 406 391 377
f 413 379 391
f 406 413 391
f 413 406 414
f 422 390 411
f 411 503 422
f 413 411 379
f 411 413 503
f 413 414 503
f 414 506 503
f 377 422 417
f 417 422 416
f 422 424 416
f 377 417 420
f 377 420 406
f 417 416 419
f 417 419 420
f 421 420 419
f 406 420 414
f 420 421 414
f 421 419 414
f 422 426 424
f 422 431 426
f 426 425 424
f 422 503 431
f 426 431 427
f 419 416 437
f 504 437 503
f 419 437 504
f 414 419 504
f 505 504 503
f 414 504 505
f 414 505 506
f 503 506 505
f 432 415 423
f 415 432 430
f 415 416 424
f 415 418 423
f 415 424 418
f 418 424 423
f 416 415 430
f 430 432 443
f 432 423 436
f 424 425 423
f 423 425 426
f 430 428 416
f 428 437 416
f 429 427 431
f 426 427 423
f 427 436 423
f 427 429 436
f 433 434 432
f 433 449 434
f 432 434 453
f 432 436 433
f 432 453 443
f 443 453 468
f 436 435 433
f 428 438 437
f 438 440 437
f 439 431 503
f 440 503 437
f 430 443 428
f 428 443 442
f 440 439 503
f 431 439 429
f 438 442 440
f 440 441 439
f 438 428 442
f 442 444 440
f 439 441 508
f 468 467 443
f 436 429 435
f 443 469 446
f 443 467 469
f 443 446 442
f 442 447 444
f 439 508 445
f 441 440 508
f 429 445 435
f 429 439 445
f 444 508 440
f 444 507 508
f 442 446 447
f 445 507 448
f 449 433 450
f 449 452 434
f 449 451 452
f 449 450 451
f 451 459 452
f 454 456 450
f 433 435 454
f 433 454 450
f 435 445 454
f 452 460 434
f 452 459 460
f 453 434 468
f 434 460 468
f 451 450 455
f 451 455 459
f 450 456 455
f 455 461 459
f 455 456 461
f 456 454 457
f 457 458 456
f 459 465 460
f 456 458 461
f 459 461 465
f 461 463 465
f 458 463 461
f 462 463 458
f 462 464 463
f 462 474 464
f 465 463 484
f 468 466 467
f 460 466 468
f 457 454 471
f 457 471 458
f 458 471 470
f 462 473 474
f 463 476 484
f 463 464 476
f 464 474 476
f 473 475 474
f 474 475 476
f 475 486 487
f 476 475 477
f 476 477 478
f 476 478 479
f 476 479 480
f 476 480 488
f 458 473 462
f 470 472 473
f 458 470 473
f 465 481 460
f 484 481 465
f 476 488 484
f 484 482 481
f 460 481 483
f 481 482 483
f 475 473 486
f 475 487 485
f 484 488 482
f 475 485 477
f 477 485 478
f 478 485 479
f 472 486 473
f 487 486 472
f 479 485 480
f 485 487 472
f 480 485 488
f 482 497 483
f 482 488 497
f 485 472 489
f 485 489 488
f 488 489 497
f 445 448 454
f 466 490 467
f 490 496 467
f 470 471 491
f 469 492 446
f 469 467 492
f 454 448 471
f 496 492 467
f 446 494 447
f 446 492 494
f 447 494 495
f 448 500 471
f 491 471 500
f 493 491 500
f 492 495 494
f 502 495 492
f 460 483 466
f 490 466 496
f 470 491 472
f 472 491 493
f 466 497 496
f 498 492 496
f 497 498 496
f 483 497 466
f 497 499 498
f 497 501 499
f 472 500 489
f 497 489 501
f 498 499 492
f 472 493 500
f 501 502 492
f 499 501 492
f 500 502 501
f 489 500 501
f 445 508 507
f 447 509 444
f 444 509 507
f 448 507 500
f 447 502 509
f 509 502 507
f 495 502 447
f 500 507 502
f 315 316 313
f 313 316 314
f 318 316 315
f 328 315 313
f 328 318 315
f 318 319 316
f 328 313 329
f 316 317 314
f 329 313 332
f 328 322 318
f 318 322 319
f 319 322 320
f 320 322 321
f 328 329 322
f 321 322 323
f 323 327 317
f 323 322 325
f 324 325 322
f 323 325 327
f 324 322 326
f 324 327 325
f 322 330 326
f 316 319 320
f 316 320 321
f 317 316 323
f 316 321 323
f 331 314 317
f 331 317 327
f 329 332 330
f 330 322 329
f 326 330 350
f 331 355 333
f 313 314 342
f 314 335 342
f 336 335 314
f 342 337 313
f 337 338 313
f 313 338 340
f 314 331 336
f 333 339 331
f 313 340 332
f 332 340 341
f 332 364 330
f 332 341 364
f 342 338 337
f 336 343 335
f 340 338 347
f 342 335 338
f 343 345 344
f 331 343 336
f 331 339 343
f 339 346 343
f 333 346 339
f 333 334 346
f 334 367 346
f 347 348 340
f 340 348 341
f 345 343 346
f 348 347 404
f 349 353 360
f 360 353 356
f 326 352 327
f 324 326 327
f 331 327 352
f 326 351 352
f 326 350 351
f 352 355 331
f 352 351 353
f 353 351 350
f 353 350 354
f 352 353 349
f 350 330 354
f 358 355 352
f 352 349 358
f 355 358 333
f 356 353 354
f 356 354 357
f 358 334 333
f 358 359 334
f 358 349 359
f 356 357 362
f 360 361 349
f 359 349 361
f 360 356 362
f 360 362 363
f 361 360 363
f 330 364 354
f 364 357 354
f 364 365 357
f 364 341 365
f 357 365 341
f 357 341 375
f 346 367 345
f 345 367 368
f 370 369 404
f 368 401 372
f 371 372 400
f 359 366 334
f 361 373 359
f 361 363 373
f 373 363 374
f 362 376 374
f 357 375 362
f 362 375 392
f 373 374 359
f 374 398 359
f 376 362 392
f 374 378 398
f 382 398 378
f 378 384 382
f 378 383 384
f 398 382 380
f 408 396 411
f 403 381 377
f 380 381 403
f 378 412 383
f 383 389 384
f 384 389 386
f 384 385 382
f 382 385 380
f 384 386 385
f 383 388 387
f 383 387 389
f 383 412 388
f 412 390 388
f 396 379 411
f 366 367 334
f 368 367 366
f 359 393 366
f 359 398 393
f 366 393 398
f 341 394 375
f 348 394 341
f 348 404 394
f 375 394 392
f 404 369 394
f 395 394 369
f 376 392 394
f 376 394 396
f 368 366 397
f 401 400 372
f 380 403 398
f 401 397 398
f 403 401 398
f 366 398 397
f 394 395 379
f 401 402 400
f 368 397 401
f 371 400 370
f 370 400 399
f 399 395 370
f 369 370 395
f 379 395 399
f 400 402 399
f 394 379 396
f 376 396 408
f 401 403 377
f 401 391 402
f 401 377 391
f 399 402 391
f 379 399 391
f 335 344 338
f 343 344 335
f 338 404 347
f 338 344 404
f 344 345 405
f 405 368 372
f 345 368 405
f 405 370 344
f 405 372 370
f 404 344 370
f 371 370 372
f 362 374 363
f 376 408 374
f 408 407 374
f 408 411 407
f 374 410 378
f 378 410 409
f 378 409 412
f 409 390 412
f 407 390 410
f 410 390 409
f 374 407 410
f 407 411 390
f 574 625 587
f 574 587 588
f 574 588 601
f 587 583 581
f 587 584 583
f 587 586 584
f 582 581 583
f 585 582 583
f 587 625 586
f 704 604 591
f 608 604 704
f 608 704 601
f 625 589 586
f 589 625 633
f 704 591 589
f 589 633 704
f 601 704 624
f 574 623 625
f 623 636 625
f 625 636 626
f 574 601 623
f 623 639 636
f 601 624 623
f 623 624 639
f 625 626 627
f 625 627 628
f 627 630 628
f 625 628 633
f 628 640 638
f 633 628 638
f 703 638 639
f 624 703 639
f 624 704 703
f 633 638 704
f 703 704 638
f 614 615 616
f 616 618 617
f 614 616 626
f 616 617 626
f 617 619 626
f 617 618 619
f 614 620 615
f 616 615 618
f 614 626 636
f 614 636 620
f 620 636 621
f 620 621 615
f 615 632 618
f 619 627 626
f 619 618 627
f 627 629 630
f 621 636 641
f 630 631 628
f 615 621 634
f 618 629 627
f 632 629 618
f 622 632 615
f 615 634 622
f 622 646 655
f 634 646 622
f 646 648 655
f 629 635 649
f 632 635 629
f 637 636 639
f 641 636 637
f 642 639 638
f 642 638 640
f 631 640 628
f 637 639 642
f 631 642 640
f 641 707 621
f 637 642 644
f 630 643 631
f 629 645 630
f 637 644 641
f 631 643 654
f 642 631 644
f 641 644 707
f 634 621 646
f 629 647 645
f 621 651 646
f 645 647 630
f 630 647 643
f 629 649 647
f 621 707 651
f 646 651 690
f 646 690 668
f 631 654 644
f 644 654 652
f 649 650 647
f 644 653 707
f 654 653 652
f 647 650 643
f 643 650 654
f 651 707 690
f 654 706 653
f 622 657 632
f 622 655 657
f 657 655 661
f 632 657 635
f 661 655 660
f 657 661 658
f 657 649 635
f 655 668 656
f 656 660 655
f 657 658 649
f 658 659 649
f 661 660 664
f 660 663 664
f 658 661 659
f 661 662 659
f 661 664 662
f 660 656 663
f 662 664 665
f 664 666 665
f 662 665 667
f 662 667 672
f 665 666 677
f 663 681 664
f 664 681 666
f 655 648 668
f 648 646 668
f 668 688 656
f 656 698 663
f 659 650 649
f 669 689 659
f 659 662 669
f 662 670 669
f 665 671 667
f 667 671 672
f 665 677 671
f 672 670 662
f 671 679 672
f 672 679 670
f 671 673 679
f 671 674 673
f 671 675 674
f 671 676 675
f 671 677 676
f 669 670 682
f 666 681 677
f 681 678 677
f 670 679 682
f 679 683 682
f 677 678 680
f 677 680 684
f 679 673 685
f 673 674 685
f 677 684 676
f 678 681 680
f 681 699 680
f 683 685 682
f 679 685 683
f 674 675 685
f 675 676 686
f 675 686 685
f 685 687 682
f 685 686 687
f 676 684 686
f 686 684 687
f 656 688 698
f 659 689 650
f 650 706 654
f 668 690 695
f 690 693 695
f 668 695 688
f 695 691 688
f 650 689 696
f 650 696 706
f 692 696 689
f 692 694 696
f 694 701 696
f 701 695 697
f 697 696 701
f 663 698 681
f 669 692 689
f 682 702 669
f 700 688 691
f 698 688 700
f 698 699 681
f 680 699 700
f 699 698 700
f 680 700 684
f 700 691 702
f 669 694 692
f 669 702 694
f 702 701 694
f 702 691 695
f 684 700 702
f 702 695 701
f 682 687 702
f 684 702 687
f 652 653 644
f 653 705 707
f 653 696 705
f 706 696 653
f 693 697 695
f 690 707 693
f 707 705 696
f 697 693 696
f 696 693 707
f 511 524 512
f 524 537 510
f 513 511 512
f 524 511 525
f 513 512 514
f 524 525 537
f 510 527 524
f 527 540 528
f 511 513 518
f 511 518 525
f 513 514 518
f 514 515 518
f 515 516 518
f 516 517 518
f 519 518 517
f 520 522 518
f 521 518 522
f 520 523 522
f 521 550 518
f 518 550 549
f 521 522 523
f 519 520 518
f 520 519 523
f 512 515 514
f 512 516 515
f 524 517 512
f 512 517 516
f 527 517 524
f 549 537 525
f 549 526 537
f 527 528 517
f 528 519 517
f 526 529 537
f 549 525 518
f 519 528 530
f 529 538 537
f 519 530 523
f 528 540 530
f 510 533 527
f 510 536 533
f 510 535 536
f 527 533 534
f 537 539 510
f 540 527 544
f 540 544 530
f 544 531 530
f 510 539 535
f 537 538 539
f 538 529 539
f 539 529 545
f 533 536 534
f 527 542 544
f 536 541 534
f 535 539 545
f 544 532 531
f 535 545 536
f 536 545 541
f 542 532 544
f 542 543 532
f 541 546 605
f 541 564 547
f 555 548 556
f 556 561 555
f 523 551 549
f 521 523 550
f 549 550 523
f 549 551 552
f 551 523 555
f 530 531 523
f 523 531 555
f 555 552 551
f 555 554 552
f 526 549 552
f 552 554 526
f 529 526 554
f 555 531 553
f 531 532 553
f 548 555 553
f 561 554 555
f 532 548 553
f 554 559 562
f 532 558 548
f 548 558 557
f 554 561 559
f 548 560 556
f 557 560 548
f 556 560 561
f 529 554 562
f 529 562 545
f 562 559 545
f 532 565 558
f 545 563 541
f 559 563 545
f 541 563 564
f 532 543 565
f 541 547 546
f 565 566 567
f 567 566 569
f 560 557 571
f 557 558 571
f 561 560 572
f 560 571 572
f 571 570 572
f 572 570 609
f 572 609 573
f 561 572 559
f 571 558 570
f 572 573 559
f 570 610 609
f 570 576 578
f 578 579 570
f 570 579 610
f 578 580 579
f 598 577 589
f 598 589 590
f 596 588 575
f 576 575 588
f 610 579 613
f 579 580 585
f 580 582 585
f 580 578 581
f 578 587 581
f 580 581 582
f 579 583 584
f 579 585 583
f 579 584 613
f 613 584 586
f 578 576 587
f 576 588 587
f 603 600 591
f 603 591 604
f 589 591 590
f 590 591 600
f 559 564 563
f 558 565 593
f 567 593 565
f 558 593 592
f 558 592 570
f 570 592 593
f 564 598 594
f 564 594 547
f 546 547 594
f 546 594 568
f 559 573 564
f 564 573 598
f 570 593 575
f 570 575 576
f 575 593 567
f 575 567 596
f 596 597 595
f 596 567 597
f 569 602 597
f 568 600 599
f 595 597 601
f 567 569 597
f 569 566 602
f 568 599 566
f 568 594 600
f 566 599 602
f 602 599 600
f 594 598 600
f 577 598 573
f 600 598 590
f 596 595 588
f 597 602 608
f 595 601 588
f 597 608 601
f 602 600 604
f 602 604 608
f 603 604 600
f 527 534 542
f 542 534 605
f 541 605 534
f 543 542 606
f 542 605 607
f 542 607 606
f 543 606 565
f 546 568 605
f 605 568 607
f 565 606 566
f 606 607 566
f 568 566 607
f 610 589 609
f 573 609 577
f 609 589 577
f 610 611 612
f 610 613 611
f 611 613 586
f 589 612 586
f 612 611 586
f 610 612 589
