v -0.077886 0.001690 0.023727
v -0.077388 -0.017814 0.011087
v -0.077456 0.004852 0.010942
v -0.076623 0.023661 0.023944
v -0.077624 -0.029924 0.013824
v -0.077196 0.027111 0.013241
v -0.075947 0.031682 0.021291
v -0.063427 0.013147 0.028053
v -0.064301 -0.015018 0.027831
v -0.077438 -0.022563 0.023698
v -0.066183 -0.041068 0.020544
v -0.063423 0.005755 0.007174
v -0.054422 0.014539 0.005247
v -0.066551 0.021108 0.008412
v -0.067764 0.034990 0.010724
v -0.044068 0.042808 0.028519
v -0.043762 0.022801 0.031238
v -0.053482 -0.006233 0.029991
v -0.049310 -0.009127 0.030650
v -0.051405 -0.023938 0.029949
v -0.048799 -0.035390 0.029042
v -0.053415 -0.042856 0.009734
v -0.060218 -0.033482 0.007792
v -0.050719 -0.020000 0.004999
v -0.053477 -0.003583 0.005272
v -0.050322 -0.000173 0.004743
v -0.052512 0.030166 0.005941
v -0.045464 0.047094 0.009260
v -0.050318 0.011506 0.030480
v -0.051592 -0.042748 0.026330
v -0.024988 -0.056528 0.015393
v -0.035631 -0.017630 0.031890
v -0.039559 -0.042822 0.029280
v -0.035247 -0.046354 0.007012
v -0.024939 -0.038368 0.004238
v -0.037924 -0.018060 0.003557
v -0.033338 0.022171 0.003257
v -0.034804 0.048980 0.007364
v -0.020972 0.048021 0.029297
v -0.017800 -0.007664 0.032167
v -0.027420 -0.025712 0.031757
v -0.019181 -0.031269 0.031425
v -0.022349 -0.050229 0.027481
v -0.022135 -0.011930 0.003054
v -0.021183 0.032904 0.004017
v -0.035590 0.053965 0.022266
v -0.022755 0.018675 0.032128
v -0.020883 -0.000003 0.003117
v -0.018179 0.037789 0.030641
v -0.010798 0.021848 0.031445
v -0.012091 -0.026038 0.031393
v -0.016642 -0.048015 0.007770
v -0.011267 -0.028124 0.004110
v -0.017308 0.022971 0.003297
v -0.007620 0.037130 0.005036
v 0.002604 -0.026605 0.029947
v -0.002389 -0.046211 0.008997
v -0.002462 -0.015620 0.004376
v -0.004808 0.050822 0.024235
v 0.009315 0.032852 0.028231
v 0.000188 0.021507 0.030657
v 0.002005 -0.006917 0.030451
v -0.001327 -0.011685 0.030780
v 0.002337 -0.042800 0.027123
v 0.007186 -0.033959 0.006591
v -0.009398 -0.003422 0.003643
v 0.010470 -0.004969 0.005924
v 0.004873 0.006263 0.005161
v 0.000268 0.018627 0.004770
v -0.001141 0.046822 0.008679
v 0.010674 0.041616 0.025204
v 0.018539 0.003384 0.028037
v 0.018180 -0.040046 0.023217
v 0.019470 0.041629 0.017988
v 0.015013 -0.005957 0.028533
v 0.018213 -0.013155 0.027922
v 0.018040 -0.031409 0.026777
v 0.006038 -0.045311 0.010272
v 0.011399 -0.034565 0.007684
v 0.016097 0.007109 0.006938
v 0.011989 0.028734 0.007158
v 0.015869 0.037509 0.009613
v 0.036849 0.029309 0.021013
v 0.018363 0.024656 0.027284
v 0.024140 0.010436 0.026820
v 0.016677 -0.021301 0.007356
v 0.024140 -0.010436 0.008454
v 0.017651 0.019899 0.007395
v 0.036160 0.017924 0.024041
v 0.037229 0.004227 0.024100
v 0.037035 -0.014706 0.023960
v 0.031184 -0.025714 0.024275
v 0.024748 -0.031966 0.024514
v 0.025236 -0.037330 0.013364
v 0.029220 -0.025669 0.010562
v 0.028132 -0.018995 0.009567
v 0.037229 -0.004227 0.011173
v 0.025347 0.035724 0.012619
v 0.037676 -0.028911 0.016315
v 0.035278 0.012140 0.010745
v 0.042359 0.024970 0.017045
v 0.042077 0.018523 0.022222
v 0.042726 -0.002973 0.022389
v 0.042556 -0.018248 0.021730
v 0.042034 -0.022675 0.013901
v 0.042726 0.002973 0.012884
v 0.037870 0.018946 0.011876
v 0.042262 0.019543 0.013143
v 0.044271 0.007392 0.021003
v 0.042626 -0.024636 0.018343
v 0.042761 -0.011082 0.013094
v 0.042839 0.020695 0.015054
v -0.079683 0.000000 0.017637
g canopy
f 1 8 4
f 9 8 1
f 10 9 1
f 5 11 10
f 2 23 5
f 13 12 3
f 14 13 3
f 15 14 3
f 6 15 3
f 7 15 6
f 5 22 11
f 15 27 13
f 14 15 13
f 16 46 7
f 4 16 7
f 17 16 4
f 8 17 4
f 29 17 8
f 19 29 8
f 18 19 8
f 9 18 8
f 19 18 9
f 20 19 9
f 10 20 9
f 21 20 10
f 30 21 10
f 11 30 10
f 22 31 11
f 23 22 5
f 2 24 23
f 3 24 2
f 25 24 3
f 26 25 3
f 12 26 3
f 13 26 12
f 28 27 15
f 46 28 15
f 7 46 15
f 24 35 23
f 25 26 24
f 27 37 13
f 19 17 29
f 32 17 19
f 20 32 19
f 33 32 20
f 21 33 20
f 30 33 21
f 11 33 30
f 23 31 22
f 34 31 23
f 35 34 23
f 36 35 24
f 26 36 24
f 13 36 26
f 38 37 27
f 28 38 27
f 16 39 46
f 17 39 16
f 11 43 33
f 31 43 11
f 13 37 36
f 46 38 28
f 47 49 39
f 17 47 39
f 40 47 17
f 32 40 17
f 33 41 32
f 42 41 33
f 43 42 33
f 44 35 36
f 37 44 36
f 45 54 37
f 38 45 37
f 42 40 32
f 41 42 32
f 34 52 31
f 35 52 34
f 37 48 44
f 46 70 38
f 39 59 46
f 47 50 49
f 40 61 47
f 42 51 40
f 44 53 35
f 48 66 44
f 37 66 48
f 54 66 37
f 45 55 54
f 38 55 45
f 70 55 38
f 49 59 39
f 61 50 47
f 43 56 51
f 42 43 51
f 52 57 31
f 35 57 52
f 44 58 53
f 66 58 44
f 59 70 46
f 60 59 49
f 61 60 49
f 50 61 49
f 40 62 61
f 63 62 40
f 56 63 40
f 51 56 40
f 64 56 43
f 31 64 43
f 57 78 31
f 53 65 35
f 58 65 53
f 68 67 66
f 54 68 66
f 69 68 54
f 55 69 54
f 60 71 59
f 56 62 63
f 31 73 64
f 35 65 57
f 66 67 58
f 55 88 69
f 71 74 59
f 75 72 61
f 62 75 61
f 76 75 62
f 56 76 62
f 64 77 56
f 73 77 64
f 94 73 31
f 78 94 31
f 65 78 57
f 79 78 65
f 65 86 79
f 67 86 65
f 58 67 65
f 69 88 68
f 81 88 55
f 70 81 55
f 82 81 70
f 74 82 70
f 59 74 70
f 60 83 71
f 61 84 60
f 77 76 56
f 79 94 78
f 87 86 67
f 68 80 67
f 88 80 68
f 82 88 81
f 74 98 82
f 71 83 74
f 89 102 60
f 84 89 60
f 61 89 84
f 85 89 61
f 72 85 61
f 76 72 75
f 77 91 76
f 92 91 77
f 93 92 77
f 73 93 77
f 95 94 79
f 96 95 79
f 86 96 79
f 87 96 86
f 100 97 67
f 80 100 67
f 88 100 80
f 82 108 88
f 98 108 82
f 74 83 98
f 60 102 83
f 72 90 85
f 76 91 72
f 73 92 93
f 99 110 73
f 94 99 73
f 105 99 94
f 95 105 94
f 67 97 87
f 108 107 88
f 83 101 98
f 90 109 89
f 85 90 89
f 72 103 90
f 91 103 72
f 92 104 91
f 110 104 92
f 73 110 92
f 96 105 95
f 111 105 96
f 97 111 96
f 87 97 96
f 100 106 97
f 88 107 100
f 98 101 108
f 102 101 83
f 89 109 102
f 103 109 90
f 104 103 91
f 105 110 99
f 106 111 97
f 107 106 100
f 108 106 107
f 101 112 108
f 4 7 113
f 1 4 113
f 10 1 113
f 5 10 113
f 2 5 113
f 3 2 113
f 6 3 113
f 7 6 113
f 109 101 102
f 109 103 104
f 109 104 110
f 109 110 105
f 109 105 111
f 109 111 106
f 109 106 108
f 109 108 112
f 109 112 101
