v -0.063234 -0.036605 0.009378
v -0.063234 0.036605 -0.006019
v 0.038756 -0.036605 -0.021416
v 0.038756 -0.036605 0.024775
v 0.038756 0.036605 -0.021416
v 0.038756 0.036605 0.024775
v -0.063234 -0.040148 -0.002240
v -0.063234 0.040148 -0.004479
v 0.055075 -0.040148 -0.004479
v 0.055075 0.040148 -0.002240
v -0.141391 -0.168268 -0.001305
v -0.133691 -0.174711 -0.002300
v -0.081460 -0.091698 -0.002745
v -0.088469 -0.103820 -0.001916
v -0.099104 -0.021758 -0.036962
v -0.086829 -0.017895 -0.038771
v -0.095161 0.009635 -0.038779
v -0.083145 -0.028931 -0.036890
v -0.099692 -0.044259 -0.013780
v -0.099496 -0.041496 -0.024551
v -0.079033 -0.041943 -0.029454
v -0.052719 -0.046094 -0.030453
v -0.056362 -0.032205 -0.038657
v -0.064643 -0.012388 -0.040969
v -0.050159 -0.018257 -0.041449
v 0.013412 -0.052403 -0.028084
v -0.037781 -0.022709 -0.040806
v -0.026777 -0.036798 -0.037737
v -0.034378 -0.015770 -0.041621
v 0.010547 -0.016623 -0.042322
v -0.020634 -0.030551 -0.039830
v 0.000235 -0.005825 -0.042279
v -0.057307 -0.075787 -0.007286
v -0.056994 -0.052165 -0.003051
v -0.027934 -0.056452 -0.003401
v -0.046103 -0.058893 -0.011056
v -0.059214 -0.061352 -0.007844
v -0.054320 -0.051483 -0.017845
v -0.051139 -0.052670 -0.010529
v -0.055187 -0.052320 -0.006656
v -0.043995 -0.060575 -0.011056
v -0.031363 -0.054735 -0.010669
v -0.030647 -0.055314 -0.010068
v -0.040110 -0.053621 -0.013078
v -0.021074 -0.054259 -0.019592
v -0.014526 -0.056309 -0.001350
v -0.144207 -0.166743 0.003369
v -0.130188 -0.178086 0.005446
v -0.092439 -0.131901 0.005732
v -0.121905 -0.143359 0.000172
v -0.145043 -0.166644 0.010749
v -0.131733 -0.177450 0.013582
v -0.139706 -0.171341 0.017039
v -0.134555 -0.175371 0.017017
v -0.093697 -0.131315 0.019188
v -0.129562 -0.149743 0.017781
v -0.100867 -0.135442 0.020995
v -0.099450 -0.136652 0.001388
v -0.084468 -0.123402 0.012986
v -0.076228 -0.104376 -0.002407
v -0.133360 -0.152865 0.003736
v -0.097400 -0.126294 -0.000714
v -0.095420 -0.127625 -0.000235
v -0.098180 -0.109890 0.001292
v -0.075350 -0.109158 0.000991
v -0.106150 -0.116118 0.006510
v -0.109943 -0.122883 0.018339
v -0.076319 -0.080425 0.017595
v -0.058495 -0.092539 0.009982
v -0.086788 -0.102016 0.022216
v -0.113105 -0.141191 0.021186
v -0.097327 -0.118739 0.022045
v -0.095633 -0.044841 0.015167
v -0.076101 -0.087982 0.020622
v -0.083760 -0.044514 0.025469
v -0.101478 -0.036301 0.032376
v -0.095611 -0.038141 0.032390
v -0.047613 -0.042494 0.035635
v -0.095679 -0.025053 0.039312
v -0.066439 -0.026968 0.041195
v -0.100006 -0.015355 0.040570
v -0.061818 -0.011951 0.042793
v -0.053797 -0.083486 0.015288
v -0.071471 -0.102527 0.019795
v -0.089350 -0.093100 0.008411
v -0.058038 -0.052058 0.002331
v -0.048489 -0.079840 0.000500
v -0.062990 -0.085216 0.020114
v -0.069280 -0.068380 0.012139
v -0.056071 -0.052162 0.011872
v -0.057418 -0.062447 0.016987
v -0.033810 -0.054284 0.013655
v -0.054845 -0.061003 0.017180
v -0.051957 -0.064736 0.017747
v -0.047829 -0.075790 0.015522
v -0.027977 -0.055276 0.005043
v -0.047819 -0.053322 0.016998
v -0.046380 -0.015374 0.043000
v -0.028143 -0.040893 0.036673
v -0.021175 -0.035321 0.039219
v -0.031500 -0.026166 0.041672
v -0.018461 -0.054838 0.019220
v 0.005153 -0.052092 0.025852
v -0.024827 -0.018824 0.042249
v -0.011500 -0.014733 0.041983
v -0.004461 -0.014299 0.041425
v 0.002393 -0.004287 0.041058
v -0.100009 0.029468 -0.034410
v -0.073855 0.003795 -0.040377
v -0.072360 0.023607 -0.039731
v -0.071960 0.033306 -0.037010
v -0.085496 0.037640 -0.033554
v -0.064763 0.046848 -0.027100
v -0.095824 0.041020 -0.025691
v -0.139876 0.169690 -0.002150
v -0.132501 0.175583 -0.000872
v -0.025358 0.032345 -0.039219
v -0.050052 0.043742 -0.033015
v -0.012215 0.054718 -0.021966
v -0.053881 0.016607 -0.041259
v -0.028015 0.018461 -0.041430
v -0.002152 0.025256 -0.041227
v -0.049591 0.041468 -0.034626
v -0.011350 0.016054 -0.041737
v -0.005781 0.051867 -0.027139
v -0.043328 0.053500 -0.012123
v -0.056351 0.052396 -0.004412
v -0.072225 0.049819 -0.007079
v -0.062230 0.091092 -0.003333
v -0.061871 0.067814 -0.007300
v -0.051353 0.054619 -0.010407
v -0.051499 0.052665 -0.010129
v -0.033556 0.054172 -0.012782
v -0.041166 0.065452 -0.008688
v -0.028081 0.056450 -0.004104
v -0.028139 0.055131 0.006850
v -0.029903 0.055055 -0.004588
v 0.009147 0.056471 -0.006456
v -0.102340 0.041314 -0.015640
v -0.095809 0.044765 0.020878
v -0.057447 0.052139 -0.000895
v -0.063298 0.058951 0.006366
v -0.100066 0.040581 0.026945
v -0.085508 0.092277 0.019112
v -0.077553 0.084217 0.019139
v -0.095480 0.035903 0.034689
v -0.097880 0.014292 0.041149
v -0.095364 0.020626 0.040510
v -0.087783 0.006324 0.041605
v -0.059796 0.041252 0.035114
v -0.095619 0.029057 0.037866
v -0.112253 0.136332 -0.000539
v -0.112957 0.126350 0.003922
v -0.096238 0.107294 0.020892
v -0.130605 0.177596 0.003271
v -0.145209 0.166081 0.005115
v -0.142068 0.169385 0.016678
v -0.131627 0.177634 0.014536
v -0.108253 0.118252 0.012391
v -0.113451 0.147488 0.020854
v -0.115921 0.154371 0.019136
v -0.112944 0.156713 0.013724
v -0.093802 0.102924 0.001519
v -0.077151 0.077331 0.006533
v -0.089479 0.107453 -0.001610
v -0.088247 0.117679 -0.000736
v -0.098005 0.133558 0.000693
v -0.084883 0.121072 0.002806
v -0.106613 0.147939 0.017783
v -0.074187 0.087575 0.020652
v -0.073649 0.097202 0.021128
v -0.116204 0.161052 0.006585
v -0.104709 0.125644 0.021832
v -0.082092 0.112122 0.021298
v -0.083325 0.105385 0.021674
v -0.093478 0.122037 0.021932
v -0.057745 0.052104 0.000337
v -0.057446 0.052040 0.007419
v -0.053237 0.052780 0.014270
v -0.055954 0.076753 0.019000
v -0.051779 0.079794 0.015982
v -0.038057 0.059524 0.014368
v -0.050163 0.052503 0.015545
v -0.042323 0.058481 0.015831
v -0.046277 0.078093 0.008230
v 0.001442 0.056136 0.014513
v -0.036881 0.054693 0.015509
v -0.056223 0.004068 0.042930
v -0.031550 0.013168 0.043108
v -0.042419 0.028280 0.041460
v -0.035091 0.016445 0.042687
v -0.019999 0.000114 0.042698
v -0.032780 0.032776 0.040098
v -0.052930 0.048710 0.026708
v -0.047750 0.049268 0.030492
v -0.021124 0.024797 0.041406
v 0.000529 0.017117 0.040998
v 0.009799 0.041830 0.034547
v -0.004484 0.044881 0.035314
v -0.012135 0.049568 0.029221
v -0.055514 0.088285 0.002699
v -0.091101 0.131379 0.008520
v -0.081018 0.117789 0.017186
v -0.059806 0.092851 0.013417
v -0.057113 0.087439 0.015709
v 0.072567 -0.103742 -0.001086
v 0.037061 -0.042543 -0.037154
v 0.046850 -0.050304 -0.031015
v 0.063572 -0.050089 -0.032020
v 0.018247 -0.022025 -0.042134
v 0.023533 -0.034639 -0.039967
v 0.034601 -0.037465 -0.039518
v 0.056359 -0.035916 -0.041270
v 0.054416 -0.011868 -0.044602
v 0.060291 -0.029920 -0.043431
v 0.069430 -0.013344 -0.044324
v 0.008992 -0.055674 -0.016910
v 0.048978 -0.055219 -0.018754
v 0.034731 -0.055879 -0.012009
v 0.065649 -0.053917 -0.013933
v 0.028316 -0.056230 -0.004842
v 0.048155 -0.055728 -0.011682
v 0.053907 -0.072929 -0.008111
v 0.068930 -0.077923 -0.005649
v 0.071760 -0.077132 -0.003636
v 0.054867 -0.055293 -0.008961
v 0.060477 -0.054771 -0.000311
v 0.082160 -0.092684 -0.002686
v 0.102501 -0.118202 0.000268
v 0.105759 -0.130229 -0.000498
v 0.133449 -0.174926 -0.002119
v 0.142269 -0.167931 -0.001540
v 0.092583 -0.037903 -0.031391
v 0.075611 -0.025302 -0.043582
v 0.094580 -0.028092 -0.038022
v 0.100628 -0.026091 -0.033710
v 0.100642 -0.030947 -0.025105
v 0.087607 -0.044623 -0.013309
v 0.081188 -0.118603 0.005535
v 0.067738 -0.102863 0.004775
v 0.076575 -0.104579 0.021257
v 0.072324 -0.104668 0.018566
v 0.013281 -0.056335 0.001768
v 0.048680 -0.080906 0.008891
v 0.029804 -0.055811 0.009144
v 0.035739 -0.065116 0.005015
v 0.039710 -0.054136 0.015499
v 0.039810 -0.069559 -0.001102
v 0.060341 -0.093590 0.002404
v 0.075277 -0.074777 0.006989
v 0.068473 -0.069869 0.016321
v 0.060124 -0.055002 0.011095
v 0.051535 -0.084395 0.008988
v 0.064116 -0.089056 0.020400
v 0.045839 -0.070285 0.016445
v 0.060194 -0.060489 0.014640
v 0.057253 -0.065530 0.018000
v 0.012276 -0.045752 0.031625
v 0.002520 -0.031623 0.038815
v 0.060142 -0.042980 0.026310
v 0.028829 -0.033106 0.035604
v 0.015212 -0.018820 0.039428
v 0.023281 -0.000915 0.038949
v 0.043117 -0.024707 0.035014
v 0.045471 -0.020524 0.035021
v 0.035844 -0.012263 0.036966
v 0.050928 -0.053253 0.016280
v 0.071529 -0.036426 0.024666
v 0.054339 -0.019237 0.033639
v 0.064882 -0.010557 0.031360
v 0.047364 -0.035082 0.031978
v 0.069553 -0.028426 0.028499
v 0.049187 0.002677 0.034911
v 0.097979 -0.139587 0.010008
v 0.130862 -0.178003 0.012572
v 0.078195 -0.107030 -0.001877
v 0.106657 -0.145224 0.001535
v 0.090153 -0.120600 -0.000887
v 0.102343 -0.114834 0.001856
v 0.101820 -0.143051 0.005720
v 0.097181 -0.104639 0.005576
v 0.092989 -0.132554 0.016043
v 0.079691 -0.116110 0.016559
v 0.096492 -0.132720 0.019973
v 0.092493 -0.105696 0.020950
v 0.091462 -0.102427 0.020645
v 0.106766 -0.117108 0.014404
v 0.118752 -0.147007 -0.001204
v 0.130348 -0.177798 0.002366
v 0.124462 -0.141042 0.004492
v 0.144893 -0.166661 0.009688
v 0.127122 -0.148891 0.000709
v 0.129344 -0.147307 0.004732
v 0.131916 -0.177359 0.014302
v 0.123757 -0.163907 0.017940
v 0.115909 -0.151412 0.020259
v 0.118763 -0.140010 0.020563
v 0.129083 -0.156090 0.018965
v 0.143004 -0.168587 0.015553
v 0.136515 -0.173873 0.017192
v 0.110615 -0.126909 0.001274
v 0.121575 -0.135866 0.010652
v 0.121224 -0.137642 0.016327
v 0.101009 -0.131024 0.021718
v 0.083325 -0.105385 0.021674
v 0.105716 -0.122882 0.021375
v 0.091398 -0.109713 0.021855
v 0.085915 -0.089025 0.005888
v 0.083956 -0.086553 0.012623
v 0.083771 -0.041892 0.012112
v 0.080882 -0.040619 0.016384
v 0.097323 -0.033197 0.009133
v 0.094635 -0.021980 0.017271
v 0.102796 -0.015478 0.009469
v 0.095334 0.004830 0.018504
v 0.074244 -0.030468 0.025853
v 0.082769 -0.010672 0.024543
v 0.019394 0.028204 -0.041221
v 0.051503 0.035769 -0.041348
v 0.025987 0.015834 -0.042874
v 0.074324 0.028213 -0.043229
v 0.060038 0.018645 -0.044381
v 0.031201 0.042985 -0.036953
v 0.038686 0.044304 -0.036067
v 0.092826 0.037880 -0.036324
v 0.039425 0.050974 -0.029887
v 0.051499 0.052896 -0.027457
v 0.015518 0.053982 -0.023245
v 0.035003 0.055932 -0.011719
v 0.050539 0.055703 -0.011654
v 0.029296 0.056154 -0.007255
v 0.050821 0.075594 -0.007015
v 0.065983 0.069485 -0.005960
v 0.058756 0.054835 -0.003190
v 0.098461 0.022292 -0.038266
v 0.099447 0.010909 -0.038544
v 0.101313 0.016331 -0.034776
v 0.063527 0.053986 -0.022246
v 0.100997 0.028344 -0.033963
v 0.077452 0.049175 -0.018178
v 0.089578 0.042371 -0.000085
v 0.104718 0.124379 -0.000325
v 0.143969 0.165865 0.005074
v 0.128890 0.178949 0.002786
v 0.070832 0.102384 -0.001515
v 0.027930 0.056129 0.002660
v 0.041498 0.072263 0.006570
v 0.033510 0.055277 0.013681
v 0.059248 0.087685 0.018791
v 0.054685 0.088121 0.006669
v 0.059571 0.053810 0.010580
v 0.123165 0.138479 0.014667
v 0.080371 0.083354 0.002050
v 0.107513 0.118912 0.018092
v 0.045395 0.053513 0.016002
v 0.055245 0.087301 0.013587
v 0.080146 0.087948 0.020636
v 0.036406 0.044376 0.029240
v 0.028367 0.013540 0.038059
v 0.004365 0.028748 0.039328
v 0.041821 0.025798 0.035248
v 0.040629 0.005315 0.036352
v 0.035568 0.029768 0.035380
v 0.003517 0.048437 0.030240
v 0.045294 0.051529 0.021083
v 0.057714 0.034901 0.029954
v 0.054571 0.043683 0.026616
v 0.076286 0.008999 0.027429
v 0.061599 0.015981 0.032076
v 0.061763 0.028905 0.030348
v 0.050751 0.013048 0.034439
v 0.038686 0.036638 0.032786
v 0.100057 0.027971 0.008998
v 0.087675 0.044877 0.005189
v 0.100025 -0.014754 0.014726
v 0.100434 0.022030 0.013045
v 0.088427 0.013418 0.023102
v 0.071284 0.050386 0.012263
v 0.088014 0.010041 0.022012
v 0.068612 0.015036 0.029920
v 0.072614 0.037924 0.024473
v 0.077527 0.115434 0.011660
v 0.099567 0.110549 0.002171
v 0.118479 0.132011 0.008413
v 0.102055 0.135399 -0.000300
v 0.082952 0.097555 0.021890
v 0.110754 0.150892 0.019174
v 0.085643 0.123619 0.004393
v 0.101352 0.143657 0.010336
v 0.131257 0.176630 -0.000363
v 0.145100 0.166418 0.008466
v 0.141048 0.168849 -0.002049
v 0.128297 0.151093 0.019050
v 0.142585 0.168921 0.015607
v 0.133874 0.175930 0.016221
v 0.136021 0.174264 0.016902
v 0.139816 0.171239 0.016823
v 0.100658 0.121568 0.021947
v 0.093722 0.122949 0.021807
v 0.110800 0.134900 0.021652
v 0.045312 -0.036222 -0.043667
v 0.031749 -0.041300 -0.033545
v 0.030757 -0.037887 -0.024152
v 0.020442 -0.033472 -0.034456
v 0.026377 -0.026640 -0.045298
v 0.031186 -0.035794 -0.044461
v 0.022468 -0.029685 -0.024883
v 0.033109 -0.026782 -0.021574
v 0.037287 -0.027457 -0.026066
v 0.037167 -0.029319 -0.042361
v 0.053087 -0.041911 -0.036400
v 0.040778 -0.030866 -0.035634
v 0.039183 -0.032312 -0.028910
v 0.038416 -0.026993 -0.012843
v 0.039631 -0.010496 -0.063930
v 0.033885 -0.025407 -0.044560
v 0.029864 -0.004948 -0.031942
v 0.030359 -0.020882 -0.030895
v 0.038942 -0.023750 -0.045046
v -0.014427 -0.033897 0.024143
v -0.009340 -0.036312 0.025004
v -0.018857 -0.024081 0.033617
v -0.015040 -0.027409 0.021819
v -0.010985 -0.021754 0.024275
v -0.002331 -0.033254 0.027808
v -0.005417 -0.026986 0.022730
v -0.017667 -0.034022 0.034578
v -0.016085 -0.033506 0.041465
v -0.002717 -0.034724 0.040495
v -0.019341 -0.029512 0.034341
v -0.009068 -0.032334 0.046051
v -0.015742 -0.024934 0.042733
v -0.007098 -0.033549 0.043596
v -0.008785 -0.024124 0.045319
v -0.004244 -0.027529 0.043864
v -0.007638 -0.020947 0.026816
v -0.003590 -0.028545 0.022891
v -0.014235 -0.019331 0.032087
v -0.012980 -0.021059 0.039680
v -0.007417 -0.020242 0.037905
v -0.004017 -0.021507 0.032331
v -0.003176 -0.023477 0.038474
v 0.030597 -0.030701 -0.021422
v 0.051557 -0.040260 -0.012513
v 0.042936 -0.027194 0.007394
v 0.071508 -0.021505 0.035365
v 0.053116 0.028289 -0.072249
v 0.035198 0.006159 -0.052810
v 0.044011 0.031118 -0.052056
v 0.030466 0.019946 -0.036801
v 0.037742 0.023663 -0.034146
v 0.023737 0.032200 -0.043590
v 0.029280 0.040892 -0.035628
v 0.031289 0.030377 -0.046614
v 0.035832 0.029288 -0.044121
v 0.035418 0.037316 -0.040700
v 0.021806 0.028100 -0.026242
v 0.025116 0.038409 -0.031843
v 0.031631 0.034021 -0.020685
v 0.026769 0.025411 -0.025217
v 0.032949 0.026560 -0.022283
v 0.032190 0.036815 -0.023996
v 0.027973 0.039359 -0.030037
v 0.035691 0.038144 -0.031801
v 0.039694 0.030701 -0.031642
v 0.037996 0.029392 -0.026613
v 0.039783 0.033510 -0.033127
v 0.050975 0.041610 -0.019820
v 0.039030 0.031116 -0.032107
v -0.012670 0.022925 0.021649
v -0.008049 0.026846 0.020608
v -0.000859 0.028712 0.027345
v -0.015789 0.021467 0.039510
v -0.009778 0.018772 0.032560
v -0.014425 0.026336 0.045041
v -0.007636 0.022597 0.043807
v -0.001828 0.024767 0.030417
v -0.003475 0.022559 0.038493
v -0.018433 0.027532 0.028419
v -0.013940 0.033947 0.023598
v -0.014807 0.037272 0.029493
v -0.007491 0.034251 0.024986
v -0.019565 0.028688 0.035004
v -0.017286 0.029106 0.041189
v -0.009843 0.032263 0.046173
v -0.009196 0.036349 0.040766
v -0.002596 0.031032 0.039684
v -0.006895 0.037006 0.033015
v -0.003724 0.034798 0.035752
v 0.033969 0.010173 0.000760
v 0.043571 0.019850 0.016537
v 0.044017 -0.005448 0.023177
v 0.059561 -0.001101 0.038262
v 0.030597 0.030701 -0.021422
v 0.050186 0.037073 0.000152
v 0.071403 -0.032820 -0.074842
v 0.097799 -0.027228 -0.061101
v 0.062240 -0.042323 -0.050004
v 0.065157 -0.047801 -0.043614
v 0.049240 -0.050000 -0.021241
v 0.074608 -0.047208 -0.038189
v 0.095349 -0.040089 -0.040300
v 0.050351 -0.007617 -0.082414
v 0.080553 -0.010623 -0.088359
v 0.103075 -0.027325 -0.044906
v 0.095360 -0.040064 -0.021241
v 0.118621 -0.024784 -0.059811
v 0.102707 -0.011354 -0.066431
v 0.118621 -0.010000 -0.065005
v 0.122621 -0.010004 -0.058839
v 0.122621 -0.008123 -0.056295
v 0.118826 -0.021189 -0.036914
v 0.122621 -0.023521 -0.048003
v 0.121938 -0.022304 -0.058151
v 0.110609 -0.015511 -0.031308
v 0.118621 -0.015000 -0.033310
v 0.122621 -0.016544 -0.038117
v 0.118121 -0.017000 -0.028576
v 0.113290 -0.003314 -0.039935
v 0.118929 -0.004760 -0.044969
v 0.122621 -0.006479 -0.051075
v 0.122621 -0.009187 -0.040986
v 0.122621 -0.012373 -0.038606
v 0.060689 -0.045161 -0.006814
v 0.071036 -0.038294 0.016250
v 0.075695 -0.047467 -0.014577
v 0.082674 -0.043277 0.000548
v 0.064163 -0.036019 0.016037
v 0.094091 -0.036166 -0.002431
v 0.091430 -0.034685 0.006969
v 0.098598 -0.035390 -0.007827
v 0.102792 -0.034899 0.009357
v 0.094472 -0.027511 0.013420
v 0.107928 -0.030802 -0.002802
v 0.104980 -0.024523 -0.005022
v 0.097707 -0.031211 0.014399
v 0.104023 -0.024615 0.010135
v 0.105743 -0.020200 -0.001547
v 0.118121 -0.005272 0.010138
v 0.126621 -0.014464 0.002019
v 0.097773 -0.017682 0.019997
v 0.099697 -0.022385 0.010764
v 0.101975 -0.016566 0.013154
v 0.104990 -0.016000 0.017439
v 0.105470 -0.000765 0.014627
v 0.118121 -0.017000 0.013348
v 0.063882 0.018732 -0.084072
v 0.078410 0.010788 -0.088552
v 0.078128 0.042338 -0.057834
v 0.059684 0.043522 -0.042160
v 0.057395 0.047368 -0.039670
v 0.070626 0.047164 -0.041633
v 0.078187 0.047988 -0.023783
v 0.084221 0.046085 -0.022194
v 0.084466 0.020938 -0.081959
v 0.100395 0.020568 -0.064727
v 0.103933 0.008118 -0.064087
v 0.118621 0.004737 -0.063396
v 0.119901 0.024242 -0.058571
v 0.106903 0.023910 -0.037696
v 0.109642 0.002874 -0.049806
v 0.120764 0.009889 -0.060868
v 0.119106 0.009507 -0.037177
v 0.122621 0.010982 -0.039269
v 0.112107 0.010113 -0.031834
v 0.118121 -0.009523 -0.024405
v 0.122621 0.023084 -0.053091
v 0.119421 0.024603 -0.045531
v 0.118621 0.013150 -0.033415
v 0.122621 0.015000 -0.038043
v 0.122621 0.019675 -0.039536
v 0.118121 0.017000 -0.028576
v 0.118621 0.019420 -0.034780
v 0.103063 0.029215 -0.044404
v 0.102427 0.031803 -0.027754
v 0.072764 0.022035 0.034048
v 0.068482 0.024991 0.029917
v 0.061345 0.045400 -0.007488
v 0.070951 0.047345 -0.009262
v 0.087638 0.043622 -0.012185
v 0.088216 0.037780 0.005783
v 0.059832 0.031068 0.020130
v 0.070966 0.038595 0.013807
v 0.104809 0.024101 -0.004900
v 0.101213 0.021202 0.009965
v 0.126621 0.003451 -0.026965
v 0.118121 0.012319 0.008500
v 0.126621 0.011763 0.004260
v 0.111701 0.017394 -0.028824
v 0.118121 0.011964 -0.016501
v 0.102747 -0.009332 0.018803
v 0.105118 0.000132 0.014321
v 0.105470 0.001301 0.014326
v 0.101097 0.011351 0.017496
v 0.090067 0.015416 0.031088
v 0.102294 0.016206 0.014880
v 0.102911 0.028833 -0.009256
v 0.101230 0.034732 -0.005863
v 0.097247 0.035122 -0.007235
v 0.093460 0.036859 0.001158
v 0.092242 0.032208 0.010162
v 0.107999 0.028983 -0.000593
v 0.106826 0.032901 0.006888
v 0.099168 0.034490 0.010976
v 0.100692 0.035621 0.007766
v 0.096743 0.024840 0.013900
v 0.099114 0.030320 0.013575
v -0.077886 0.001690 0.023727
v -0.077388 -0.017814 0.011087
v -0.077456 0.004852 0.010942
v -0.076623 0.023661 0.023944
v -0.077624 -0.029924 0.013824
v -0.077196 0.027111 0.013241
v -0.075947 0.031682 0.021291
v -0.063427 0.013147 0.028053
v -0.064301 -0.015018 0.027831
v -0.077438 -0.022563 0.023698
v -0.066183 -0.041068 0.020544
v -0.063423 0.005755 0.007174
v -0.054422 0.014539 0.005247
v -0.066551 0.021108 0.008412
v -0.067764 0.034990 0.010724
v -0.044068 0.042808 0.028519
v -0.043762 0.022801 0.031238
v -0.053482 -0.006233 0.029991
v -0.049310 -0.009127 0.030650
v -0.051405 -0.023938 0.029949
v -0.048799 -0.035390 0.029042
v -0.053415 -0.042856 0.009734
v -0.060218 -0.033482 0.007792
v -0.050719 -0.020000 0.004999
v -0.053477 -0.003583 0.005272
v -0.050322 -0.000173 0.004743
v -0.052512 0.030166 0.005941
v -0.045464 0.047094 0.009260
v -0.050318 0.011506 0.030480
v -0.051592 -0.042748 0.026330
v -0.024988 -0.056528 0.015393
v -0.035631 -0.017630 0.031890
v -0.039559 -0.042822 0.029280
v -0.035247 -0.046354 0.007012
v -0.024939 -0.038368 0.004238
v -0.037924 -0.018060 0.003557
v -0.033338 0.022171 0.003257
v -0.034804 0.048980 0.007364
v -0.020972 0.048021 0.029297
v -0.017800 -0.007664 0.032167
v -0.027420 -0.025712 0.031757
v -0.019181 -0.031269 0.031425
v -0.022349 -0.050229 0.027481
v -0.022135 -0.011930 0.003054
v -0.021183 0.032904 0.004017
v -0.035590 0.053965 0.022266
v -0.022755 0.018675 0.032128
v -0.020883 -0.000003 0.003117
v -0.018179 0.037789 0.030641
v -0.010798 0.021848 0.031445
v -0.012091 -0.026038 0.031393
v -0.016642 -0.048015 0.007770
v -0.011267 -0.028124 0.004110
v -0.017308 0.022971 0.003297
v -0.007620 0.037130 0.005036
v 0.002604 -0.026605 0.029947
v -0.002389 -0.046211 0.008997
v -0.002462 -0.015620 0.004376
v -0.004808 0.050822 0.024235
v 0.009315 0.032852 0.028231
v 0.000188 0.021507 0.030657
v 0.002005 -0.006917 0.030451
v -0.001327 -0.011685 0.030780
v 0.002337 -0.042800 0.027123
v 0.007186 -0.033959 0.006591
v -0.009398 -0.003422 0.003643
v 0.010470 -0.004969 0.005924
v 0.004873 0.006263 0.005161
v 0.000268 0.018627 0.004770
v -0.001141 0.046822 0.008679
v 0.010674 0.041616 0.025204
v 0.018539 0.003384 0.028037
v 0.018180 -0.040046 0.023217
v 0.019470 0.041629 0.017988
v 0.015013 -0.005957 0.028533
v 0.018213 -0.013155 0.027922
v 0.018040 -0.031409 0.026777
v 0.006038 -0.045311 0.010272
v 0.011399 -0.034565 0.007684
v 0.016097 0.007109 0.006938
v 0.011989 0.028734 0.007158
v 0.015869 0.037509 0.009613
v 0.036849 0.029309 0.021013
v 0.018363 0.024656 0.027284
v 0.024140 0.010436 0.026820
v 0.016677 -0.021301 0.007356
v 0.024140 -0.010436 0.008454
v 0.017651 0.019899 0.007395
v 0.036160 0.017924 0.024041
v 0.037229 0.004227 0.024100
v 0.037035 -0.014706 0.023960
v 0.031184 -0.025714 0.024275
v 0.024748 -0.031966 0.024514
v 0.025236 -0.037330 0.013364
v 0.029220 -0.025669 0.010562
v 0.028132 -0.018995 0.009567
v 0.037229 -0.004227 0.011173
v 0.025347 0.035724 0.012619
v 0.037676 -0.028911 0.016315
v 0.035278 0.012140 0.010745
v 0.042359 0.024970 0.017045
v 0.042077 0.018523 0.022222
v 0.042726 -0.002973 0.022389
v 0.042556 -0.018248 0.021730
v 0.042034 -0.022675 0.013901
v 0.042726 0.002973 0.012884
v 0.037870 0.018946 0.011876
v 0.042262 0.019543 0.013143
v 0.044271 0.007392 0.021003
v 0.042626 -0.024636 0.018343
v 0.042761 -0.011082 0.013094
v 0.042839 0.020695 0.015054
v -0.079683 0.000000 0.017637
v 0.121328 -0.155322 -0.066746
v 0.129848 -0.158377 -0.039412
v 0.128722 -0.162922 -0.050561
v 0.136692 -0.169876 -0.022352
v 0.126901 -0.155217 -0.068556
v 0.130032 -0.157351 -0.045552
v 0.126955 -0.162852 -0.052956
v 0.131490 -0.174749 -0.002137
v 0.138870 -0.166013 -0.000019
v 0.134060 -0.170622 -0.023733
v 0.138064 -0.164824 -0.010435
v 0.134436 -0.177598 -0.003442
v 0.135404 -0.174257 -0.017267
v 0.122691 0.158049 -0.068357
v 0.121455 0.154865 -0.066281
v 0.126531 0.154032 -0.068138
v 0.126454 0.157836 -0.047252
v 0.129261 0.162492 -0.050561
v 0.128214 0.159967 -0.037764
v 0.130709 0.160409 -0.031171
v 0.131696 0.162202 -0.049107
v 0.128135 0.160851 -0.038168
v 0.129974 0.162098 -0.028277
v 0.130486 0.171604 -0.015658
v 0.133002 0.162410 -0.043859
v 0.134011 0.177799 -0.003813
v 0.131632 0.173719 -0.004142
v 0.133143 0.175856 -0.004429
v 0.131243 0.172529 -0.000234
v 0.131639 0.173697 -0.004153
v 0.132613 0.175250 -0.003032
v 0.132751 0.175487 -0.002865
v 0.132773 0.175472 -0.002864
v 0.133083 0.175903 -0.002538
v 0.139715 0.166267 -0.001687
v 0.153099 -0.186785 -0.068056
v 0.148349 -0.189566 -0.068435
v 0.150304 -0.185403 -0.047595
v 0.150722 -0.192170 -0.066271
v 0.147545 -0.184183 -0.037764
v 0.142426 -0.169379 -0.008670
v 0.141176 -0.174680 -0.028133
v 0.144649 -0.183180 -0.030210
v 0.136464 -0.178356 -0.000082
v 0.140216 -0.166850 -0.004153
v 0.141515 -0.168144 -0.003032
v 0.140239 -0.166848 -0.004142
v 0.143978 -0.171713 -0.001543
v 0.141530 -0.168162 -0.003127
v 0.141696 -0.168349 -0.002864
v 0.141715 -0.168331 -0.002865
v 0.142047 -0.168747 -0.002538
v 0.145857 -0.181994 -0.028277
v 0.143722 0.172822 0.000043
v 0.136398 0.173311 -0.017032
v 0.141814 0.169198 -0.013373
v 0.141784 0.168268 -0.002720
v 0.143493 0.170978 -0.004162
v 0.143499 0.170932 -0.004142
v 0.142047 0.168747 -0.002538
v 0.142358 0.169178 -0.002864
v 0.142380 0.169164 -0.002865
v 0.142518 0.169401 -0.003032
v 0.151049 0.189759 -0.068009
v -0.151305 -0.171238 0.008203
v -0.145430 -0.152866 0.012748
v -0.124955 -0.184299 0.010587
v -0.122020 -0.156437 0.013736
v -0.118205 -0.169877 0.012033
v -0.126585 -0.166276 0.008360
v -0.160510 -0.178863 0.014135
v -0.144435 -0.193728 0.013786
v -0.127601 -0.188676 0.010669
v -0.126200 -0.155706 0.012166
v -0.156463 -0.156290 0.031750
v -0.128275 -0.193564 0.033608
v -0.116052 -0.185287 0.023433
v -0.155846 -0.187972 0.031436
v -0.123356 -0.156587 0.034140
v -0.157431 -0.177070 0.036217
v -0.144986 -0.157587 0.036575
v -0.133032 -0.150300 0.033180
v -0.135893 -0.181810 0.036977
v -0.144652 -0.180179 0.036985
v -0.134271 -0.181376 0.036977
v -0.118718 -0.180409 0.034893
v -0.130153 -0.178888 0.036980
v -0.134710 -0.162725 0.036982
v -0.120876 -0.167938 0.036234
v -0.130187 -0.166134 0.036977
v -0.116246 -0.166044 0.033845
v -0.115551 -0.172325 0.031824
v -0.139943 0.185166 0.007244
v -0.140705 0.151656 0.012365
v -0.119220 0.165420 0.011843
v -0.143668 0.161266 0.008350
v -0.119430 0.176189 0.011357
v -0.153850 0.158348 0.012052
v -0.161363 0.174029 0.014135
v -0.128034 0.152559 0.014619
v -0.137903 0.195090 0.014511
v -0.159234 0.166995 0.034249
v -0.156355 0.186477 0.032596
v -0.138308 0.195639 0.030734
v -0.127848 0.151007 0.033293
v -0.120276 0.189793 0.020978
v -0.119199 0.157952 0.030720
v -0.114460 0.170778 0.030416
v -0.117287 0.181848 0.033632
v -0.147213 0.152688 0.033903
v -0.142611 0.164016 0.036978
v -0.149590 0.187981 0.036004
v -0.136955 0.162543 0.036979
v -0.122287 0.162880 0.036150
v -0.145619 0.184794 0.037104
v -0.126068 0.188176 0.035846
v -0.125773 0.186379 0.035546
v -0.123690 0.182812 0.036212
v -0.118500 0.183333 0.031824
v 0.120076 -0.170154 0.009711
v 0.121970 -0.188188 0.013760
v 0.142103 -0.193171 0.012791
v 0.130833 -0.153469 0.011656
v 0.142820 -0.183753 0.008359
v 0.153736 -0.182148 0.011380
v 0.150174 -0.156270 0.012666
v 0.158752 -0.168566 0.013270
v 0.118410 -0.183578 0.033745
v 0.115603 -0.161881 0.031743
v 0.127745 -0.192556 0.034345
v 0.137738 -0.148810 0.030431
v 0.155836 -0.186255 0.033637
v 0.159586 -0.178736 0.032187
v 0.157237 -0.159607 0.032907
v 0.142396 -0.195142 0.030720
v 0.125765 -0.183673 0.036726
v 0.124982 -0.159033 0.035847
v 0.134683 -0.155283 0.036330
v 0.141484 -0.181309 0.036979
v 0.154377 -0.173745 0.036368
v 0.143386 -0.164440 0.036979
v 0.146772 -0.169203 0.036978
v 0.140751 -0.154258 0.035546
v 0.151390 -0.159174 0.035591
v 0.123542 0.155699 0.012686
v 0.117853 0.168692 0.010251
v 0.123717 0.190771 0.012550
v 0.147465 0.154973 0.012307
v 0.146411 0.163384 0.008359
v 0.149953 0.174254 0.008360
v 0.157863 0.177975 0.013400
v 0.147643 0.189574 0.012307
v 0.148546 0.178374 0.008360
v 0.134037 0.185091 0.008188
v 0.130270 0.151384 0.014599
v 0.155270 0.164007 0.011927
v 0.135985 0.194942 0.033058
v 0.130363 0.150534 0.033799
v 0.146026 0.150919 0.030423
v 0.157782 0.161536 0.030716
v 0.147375 0.192242 0.033404
v 0.160383 0.180579 0.030539
v 0.116875 0.167696 0.034237
v 0.131186 0.163748 0.036991
v 0.128165 0.175098 0.036979
v 0.118695 0.185948 0.032876
v 0.142185 0.181522 0.037208
v 0.152885 0.157203 0.035144
v 0.154805 0.178600 0.035546
v 0.155911 0.172325 0.035546
v 0.155632 0.175511 0.035546
v 0.156321 0.180562 0.034641
v -0.034677 -0.031882 0.019316
v -0.034677 -0.031882 0.024355
v -0.034677 0.031882 0.019316
v -0.034677 0.031882 0.024355
v 0.042836 -0.031882 0.019316
v 0.042836 -0.031882 0.024355
v 0.042836 0.031882 0.019316
v 0.042836 0.031882 0.024355
v 0.092085 0.046811 0.048677
v 0.091969 0.046869 0.048661
v 0.091802 0.046953 0.048656
v 0.091636 0.047036 0.048648
v 0.091469 0.047120 0.048636
v 0.089808 0.047999 0.048912
v 0.090620 0.047545 0.048564
v 0.090661 0.047524 0.048541
v 0.099955 0.050129 0.049478
v 0.099559 0.050327 0.049437
v 0.098981 0.050616 0.049413
v 0.111877 0.068660 0.051015
v 0.098403 0.050906 0.049378
v 0.097551 0.051333 0.049305
v 0.097612 0.051077 0.049640
v 0.104062 0.064428 0.049698
v 0.100390 0.050409 0.049484
v 0.100316 0.062814 0.050024
v 0.110189 0.080314 0.050077
v 0.110176 0.084390 0.049639
v 0.106337 0.069830 0.050763
v 0.130882 0.130338 0.051700
v 0.108870 0.080875 0.050928
v 0.089715 0.052097 0.048009
v 0.089108 0.048300 0.048244
v 0.105667 0.088509 0.047517
v 0.104653 0.078628 0.048603
v 0.108280 0.108465 0.045788
v 0.118085 0.127205 0.049333
v 0.089836 0.053565 0.048435
v 0.091604 0.059002 0.047997
v 0.103753 0.080508 0.049507
v 0.106956 0.089155 0.049583
v 0.122236 0.118181 0.052170
v 0.121207 0.125515 0.048280
v 0.131566 0.150372 0.049152
v 0.117776 0.136871 0.045094
v 0.133808 0.161525 0.048679
v 0.133646 0.163908 0.048372
v 0.132078 0.153132 0.051226
v 0.137525 0.154016 0.050460
v 0.142103 0.159673 0.050914
v 0.140382 0.160535 0.051005
v 0.126518 0.147804 0.050320
v 0.138837 0.161209 0.050202
v 0.125824 0.112026 0.053592
v 0.123970 0.089718 0.053143
v 0.131144 0.108156 0.053981
v 0.144754 0.127891 0.056782
v 0.140096 0.128759 0.055261
v 0.134971 0.131306 0.055280
v 0.142756 0.137571 0.054383
v 0.144844 0.141384 0.054105
v 0.140507 0.148287 0.052532
v 0.135305 0.141333 0.053809
v 0.138282 0.165184 0.060472
v 0.120333 0.152370 0.045432
v 0.128767 0.165493 0.047327
v 0.132429 0.164517 0.047913
v 0.127107 0.141828 0.051655
v 0.131143 0.161736 0.050597
v 0.131331 0.171188 0.060390
v 0.145277 0.162314 0.050310
v 0.153880 0.189687 0.045670
v 0.157396 0.208934 0.045247
v 0.145745 0.178610 0.047235
v 0.143420 0.179774 0.047649
v 0.143986 0.181778 0.049285
v 0.142702 0.180133 0.047913
v 0.141986 0.180492 0.048183
v 0.149279 0.176006 0.052504
v 0.143823 0.172806 0.060388
v 0.142689 0.176055 0.060390
v 0.137565 0.172325 0.048372
v 0.141485 0.180743 0.048372
v 0.126284 0.179944 0.051402
v 0.167144 0.236227 0.045831
v 0.146403 0.205146 0.052666
v 0.140166 0.183403 0.048984
v 0.136904 0.183921 0.050462
v 0.137796 0.214399 0.055725
v 0.135153 0.183975 0.050845
v 0.149229 0.215004 0.052622
v 0.132490 0.185296 0.050813
v 0.138890 0.204333 0.052251
v 0.174261 0.260024 0.046920
v 0.148698 0.224243 0.051262
v 0.174369 0.269648 0.047826
v 0.181187 0.281871 0.048510
v 0.186211 0.291520 0.047861
v 0.186340 0.296180 0.048203
v 0.184411 0.297150 0.048569
v 0.165708 0.254776 0.050403
v 0.156592 0.247983 0.051141
v 0.172009 0.263397 0.049205
v 0.184511 0.297106 0.048564
v 0.183994 0.297365 0.048602
v 0.183828 0.297448 0.048621
v 0.183662 0.297531 0.048636
v 0.183495 0.297614 0.048648
v 0.183329 0.297698 0.048656
v 0.183162 0.297781 0.048661
v 0.183046 0.297839 0.048672
v 0.161824 0.265469 0.051761
v 0.167362 0.275807 0.050880
v 0.161456 0.261463 0.050874
v 0.174739 0.283081 0.049233
v 0.182012 0.291226 0.049301
v 0.174078 0.287047 0.049526
v 0.177881 0.293168 0.049271
v 0.183302 0.297671 0.048940
v 0.177305 0.293456 0.049330
v 0.176728 0.293745 0.049378
v 0.179384 0.292368 0.049608
v 0.174141 0.286444 0.050045
v 0.166537 0.277073 0.050463
v 0.174983 0.294365 0.049412
v 0.176150 0.294034 0.049413
v 0.175572 0.294324 0.049437
v 0.175176 0.294522 0.049478
v 0.142724 0.211178 0.054413
v 0.135446 0.181286 0.058809
v 0.139246 0.178436 0.060390
v 0.130438 0.216453 0.056741
v 0.129824 0.213119 0.056077
v 0.145427 0.234734 0.054374
v 0.136124 0.222175 0.055467
v 0.147666 0.248502 0.053728
v 0.153127 0.247496 0.053081
v 0.163918 0.277889 0.050886
v -0.044883 0.076261 0.048661
v -0.044765 0.076405 0.048656
v -0.044647 0.076549 0.048648
v -0.044966 0.076161 0.048677
v -0.044529 0.076693 0.048636
v -0.043955 0.077392 0.048541
v -0.043926 0.077427 0.048564
v -0.066999 0.094623 0.049306
v -0.053505 0.075991 0.049478
v -0.053224 0.076333 0.049437
v -0.052813 0.076832 0.049413
v -0.053863 0.079070 0.049522
v -0.075315 0.095644 0.051541
v -0.052403 0.077332 0.049378
v -0.051994 0.077830 0.049330
v -0.048929 0.081326 0.049432
v -0.054704 0.080893 0.049369
v -0.069663 0.086269 0.050746
v -0.060291 0.089279 0.049044
v -0.100170 0.116628 0.052642
v -0.085406 0.102905 0.051711
v -0.083231 0.109878 0.049694
v -0.085921 0.118353 0.050118
v -0.068586 0.097253 0.050424
v -0.043244 0.078257 0.048309
v -0.049432 0.086731 0.047830
v -0.044378 0.076934 0.049098
v -0.042074 0.079783 0.048117
v -0.048198 0.085989 0.048017
v -0.067864 0.104917 0.047065
v -0.046881 0.084298 0.048440
v -0.083274 0.120557 0.046586
v -0.081044 0.118898 0.047956
v -0.073490 0.112760 0.046548
v -0.083377 0.124297 0.045755
v -0.089273 0.117155 0.049446
v -0.082275 0.109079 0.051237
v -0.118009 0.134145 0.053532
v -0.134850 0.152186 0.051741
v -0.111877 0.134648 0.051572
v -0.105997 0.147207 0.045607
v -0.103903 0.146425 0.045200
v -0.107494 0.149488 0.048244
v -0.136111 0.160370 0.049505
v -0.130561 0.166230 0.048372
v -0.101444 0.127694 0.050190
v -0.125860 0.156727 0.049337
v -0.100101 0.127737 0.052119
v -0.113842 0.144716 0.052289
v -0.113015 0.154848 0.048529
v -0.108436 0.142041 0.051193
v -0.136649 0.158819 0.050946
v -0.118938 0.153700 0.051027
v -0.129879 0.163945 0.048687
v -0.131521 0.162700 0.050919
v -0.095055 0.105121 0.053498
v -0.100252 0.117749 0.053703
v -0.125627 0.128874 0.056634
v -0.122919 0.128059 0.056144
v -0.121306 0.133327 0.054571
v -0.108086 0.120451 0.054704
v -0.117827 0.130752 0.055643
v -0.118042 0.137568 0.054826
v -0.127437 0.153561 0.050454
v -0.130893 0.139276 0.054480
v -0.135235 0.160401 0.050728
v -0.128798 0.154724 0.052074
v -0.115558 0.140990 0.053606
v -0.120741 0.146968 0.053132
v -0.108053 0.155276 0.044890
v -0.121125 0.161863 0.046691
v -0.129188 0.167902 0.047649
v -0.130205 0.166663 0.048183
v -0.129697 0.167282 0.047913
v -0.127601 0.169837 0.047181
v -0.126375 0.167554 0.049813
v -0.124080 0.165951 0.048298
v -0.134268 0.163823 0.060555
v -0.150319 0.174158 0.047945
v -0.160567 0.190956 0.049822
v -0.145943 0.176749 0.047649
v -0.151149 0.186371 0.048450
v -0.145434 0.177369 0.047913
v -0.144926 0.177988 0.048183
v -0.194417 0.224107 0.046763
v -0.159282 0.204435 0.054048
v -0.142805 0.167958 0.060404
v -0.140604 0.180668 0.059690
v -0.144570 0.178421 0.048372
v -0.145461 0.180526 0.048563
v -0.129935 0.184324 0.048794
v -0.168594 0.199125 0.046317
v -0.172879 0.194257 0.044312
v -0.190236 0.221096 0.046190
v -0.178586 0.218681 0.049115
v -0.140870 0.183042 0.049840
v -0.145688 0.187944 0.051687
v -0.144122 0.181754 0.050942
v -0.151909 0.191388 0.049619
v -0.139169 0.185284 0.050791
v -0.177589 0.217160 0.051422
v -0.157086 0.208113 0.052947
v -0.173758 0.221182 0.051335
v -0.174945 0.227462 0.052499
v -0.209597 0.241756 0.048012
v -0.209978 0.242214 0.047140
v -0.207148 0.243416 0.049399
v -0.232252 0.265950 0.048218
v -0.231448 0.266928 0.048467
v -0.231103 0.267332 0.048861
v -0.212661 0.252110 0.049966
v -0.231205 0.267223 0.048564
v -0.230838 0.267670 0.048602
v -0.230720 0.267814 0.048621
v -0.230602 0.267957 0.048636
v -0.230484 0.268101 0.048648
v -0.230366 0.268245 0.048656
v -0.230247 0.268389 0.048661
v -0.230165 0.268489 0.048672
v -0.194494 0.240556 0.050461
v -0.203767 0.246491 0.049533
v -0.196493 0.242983 0.051572
v -0.174053 0.235026 0.054112
v -0.202056 0.252097 0.050755
v -0.197344 0.252695 0.051636
v -0.205975 0.244071 0.048422
v -0.216767 0.257352 0.049050
v -0.230691 0.261871 0.047984
v -0.216281 0.260165 0.049469
v -0.225497 0.264110 0.049587
v -0.223546 0.266323 0.049271
v -0.223137 0.266820 0.049330
v -0.222728 0.267319 0.049378
v -0.223496 0.266734 0.049654
v -0.214967 0.264606 0.049814
v -0.222318 0.267818 0.049413
v -0.221907 0.268318 0.049437
v -0.221626 0.268660 0.049478
v -0.208385 0.256576 0.050718
v -0.175212 0.226425 0.053590
v -0.133684 0.177335 0.060390
v -0.147106 0.212044 0.056005
v -0.149659 0.216383 0.056795
v -0.158271 0.212814 0.055355
v -0.164061 0.223230 0.054401
v -0.187505 0.245699 0.052735
v -0.092085 -0.046811 0.048677
v -0.091969 -0.046869 0.048661
v -0.091802 -0.046953 0.048656
v -0.091636 -0.047036 0.048648
v -0.091469 -0.047120 0.048636
v -0.090659 -0.047525 0.048746
v -0.090620 -0.047545 0.048564
v -0.090661 -0.047524 0.048541
v -0.099955 -0.050129 0.049478
v -0.099559 -0.050327 0.049437
v -0.098981 -0.050616 0.049413
v -0.110828 -0.067222 0.050798
v -0.098403 -0.050906 0.049378
v -0.097551 -0.051333 0.049305
v -0.098949 -0.050673 0.049621
v -0.104058 -0.064666 0.049681
v -0.100390 -0.050409 0.049484
v -0.093936 -0.053022 0.048727
v -0.093281 -0.052687 0.049434
v -0.103902 -0.062669 0.049778
v -0.100316 -0.062814 0.050024
v -0.110189 -0.080314 0.050077
v -0.097437 -0.051287 0.049645
v -0.106240 -0.074666 0.049526
v -0.102529 -0.071239 0.048862
v -0.106337 -0.069830 0.050763
v -0.108553 -0.068460 0.050929
v -0.120151 -0.099517 0.051333
v -0.122453 -0.110331 0.050928
v -0.107711 -0.080643 0.050664
v -0.115963 -0.088906 0.052136
v -0.090835 -0.055674 0.047869
v -0.089108 -0.048300 0.048244
v -0.105667 -0.088509 0.047517
v -0.094574 -0.067435 0.047563
v -0.107185 -0.088081 0.048166
v -0.099499 -0.080526 0.047050
v -0.112092 -0.115846 0.045853
v -0.111679 -0.108088 0.048882
v -0.089836 -0.053565 0.048435
v -0.098934 -0.073150 0.048737
v -0.103753 -0.080508 0.049507
v -0.106956 -0.089155 0.049583
v -0.118694 -0.107554 0.051842
v -0.121207 -0.125515 0.048280
v -0.131566 -0.150372 0.049152
v -0.117776 -0.136871 0.045094
v -0.129082 -0.152644 0.047918
v -0.121431 -0.138137 0.049619
v -0.134062 -0.161471 0.048693
v -0.133646 -0.163908 0.048372
v -0.131801 -0.134119 0.051610
v -0.126733 -0.139752 0.051738
v -0.132078 -0.153132 0.051226
v -0.137525 -0.154016 0.050460
v -0.142103 -0.159673 0.050914
v -0.140382 -0.160535 0.051005
v -0.126518 -0.147804 0.050320
v -0.136498 -0.161236 0.049505
v -0.138856 -0.161277 0.050179
v -0.122430 -0.087171 0.052891
v -0.125824 -0.112026 0.053592
v -0.127242 -0.106716 0.052933
v -0.127398 -0.095343 0.053729
v -0.134242 -0.110663 0.054702
v -0.143239 -0.125009 0.056577
v -0.144515 -0.129421 0.056552
v -0.137483 -0.128012 0.054473
v -0.136421 -0.130931 0.055563
v -0.142756 -0.137571 0.054383
v -0.144844 -0.141384 0.054105
v -0.140627 -0.132190 0.054840
v -0.136100 -0.131143 0.053691
v -0.143933 -0.152067 0.051935
v -0.136946 -0.161280 0.050726
v -0.127081 -0.131113 0.052892
v -0.130502 -0.133095 0.053871
v -0.135305 -0.141333 0.053809
v -0.138282 -0.165184 0.060472
v -0.117109 -0.142577 0.044855
v -0.128754 -0.165424 0.047355
v -0.122507 -0.151883 0.047522
v -0.131711 -0.164877 0.047649
v -0.133145 -0.164159 0.048183
v -0.132429 -0.164517 0.047913
v -0.130098 -0.157863 0.049852
v -0.131147 -0.162091 0.051427
v -0.129057 -0.175643 0.058697
v -0.131901 -0.169705 0.060387
v -0.131308 -0.171845 0.060388
v -0.145277 -0.162314 0.050310
v -0.157678 -0.199625 0.044881
v -0.152274 -0.187844 0.046533
v -0.157396 -0.208934 0.045247
v -0.145745 -0.178610 0.047235
v -0.143420 -0.179774 0.047649
v -0.143986 -0.181778 0.049285
v -0.142702 -0.180133 0.047913
v -0.141986 -0.180492 0.048183
v -0.162967 -0.223019 0.045139
v -0.149279 -0.176006 0.052504
v -0.143806 -0.172229 0.060387
v -0.143671 -0.173620 0.060387
v -0.143230 -0.174946 0.060387
v -0.142158 -0.176602 0.060388
v -0.137565 -0.172325 0.048372
v -0.141485 -0.180743 0.048372
v -0.141666 -0.182919 0.048459
v -0.125581 -0.180502 0.048612
v -0.146016 -0.211681 0.050698
v -0.164432 -0.232836 0.047591
v -0.146515 -0.196121 0.050999
v -0.138755 -0.183522 0.049501
v -0.138236 -0.189711 0.050191
v -0.146460 -0.204509 0.052571
v -0.138888 -0.198396 0.051305
v -0.142268 -0.198415 0.052688
v -0.135155 -0.183913 0.050985
v -0.135265 -0.184043 0.050817
v -0.149925 -0.210339 0.051853
v -0.157804 -0.246055 0.052064
v -0.132490 -0.185296 0.050813
v -0.138677 -0.210864 0.053347
v -0.141188 -0.217669 0.053340
v -0.175475 -0.263554 0.046978
v -0.159568 -0.237636 0.048621
v -0.172180 -0.253354 0.046735
v -0.173497 -0.265335 0.047510
v -0.181187 -0.281871 0.048510
v -0.176261 -0.278351 0.048498
v -0.186070 -0.291322 0.047923
v -0.183545 -0.290512 0.048156
v -0.186340 -0.296180 0.048203
v -0.184662 -0.297030 0.048501
v -0.163873 -0.253529 0.050879
v -0.157681 -0.245910 0.050487
v -0.172009 -0.263397 0.049205
v -0.164384 -0.249117 0.050230
v -0.181977 -0.290881 0.049279
v -0.184511 -0.297106 0.048564
v -0.183994 -0.297365 0.048602
v -0.183828 -0.297448 0.048621
v -0.183662 -0.297531 0.048636
v -0.183495 -0.297614 0.048648
v -0.183329 -0.297698 0.048656
v -0.183162 -0.297781 0.048661
v -0.183046 -0.297839 0.048672
v -0.168842 -0.268328 0.049401
v -0.162380 -0.261986 0.051619
v -0.157402 -0.254167 0.051411
v -0.167362 -0.275807 0.050880
v -0.172197 -0.276478 0.050311
v -0.163347 -0.261057 0.050288
v -0.174739 -0.283081 0.049233
v -0.181709 -0.291323 0.049376
v -0.174078 -0.287047 0.049526
v -0.177881 -0.293168 0.049271
v -0.183302 -0.297671 0.048940
v -0.177305 -0.293456 0.049330
v -0.176728 -0.293745 0.049378
v -0.179630 -0.292461 0.049640
v -0.174141 -0.286444 0.050045
v -0.160715 -0.265687 0.051227
v -0.166537 -0.277073 0.050463
v -0.167173 -0.282562 0.050334
v -0.174983 -0.294365 0.049412
v -0.176150 -0.294034 0.049413
v -0.175572 -0.294324 0.049437
v -0.175176 -0.294522 0.049478
v -0.137208 -0.183842 0.050592
v -0.143133 -0.210977 0.054287
v -0.135446 -0.181286 0.058809
v -0.139848 -0.178171 0.060388
v -0.137662 -0.178566 0.060387
v -0.132711 -0.215003 0.056433
v -0.129824 -0.213119 0.056077
v -0.149049 -0.233118 0.053641
v -0.145427 -0.234734 0.054374
v -0.135594 -0.215151 0.056151
v -0.132452 -0.220093 0.056438
v -0.135444 -0.224755 0.055760
v -0.147666 -0.248502 0.053728
v -0.153127 -0.247496 0.053081
v -0.152874 -0.258672 0.052808
v -0.159535 -0.266697 0.051854
v 0.044883 -0.076261 0.048661
v 0.044765 -0.076405 0.048656
v 0.044647 -0.076549 0.048648
v 0.044966 -0.076161 0.048677
v 0.044529 -0.076693 0.048636
v 0.043986 -0.077353 0.048548
v 0.043926 -0.077427 0.048564
v 0.043360 -0.078116 0.048349
v 0.052102 -0.084946 0.048539
v 0.068884 -0.098807 0.048816
v 0.053505 -0.075991 0.049478
v 0.053224 -0.076333 0.049437
v 0.052607 -0.076863 0.049590
v 0.052813 -0.076832 0.049413
v 0.054206 -0.079324 0.049553
v 0.073107 -0.093876 0.051367
v 0.051585 -0.078328 0.049271
v 0.052403 -0.077332 0.049378
v 0.051994 -0.077830 0.049330
v 0.049086 -0.080630 0.049474
v 0.054704 -0.080893 0.049369
v 0.057893 -0.090081 0.049568
v 0.067097 -0.093956 0.049443
v 0.069663 -0.086269 0.050746
v 0.063058 -0.089282 0.049490
v 0.081084 -0.099226 0.052054
v 0.100170 -0.116628 0.052642
v 0.085406 -0.102905 0.051711
v 0.083231 -0.109878 0.049694
v 0.085921 -0.118353 0.050118
v 0.068586 -0.097253 0.050424
v 0.043244 -0.078257 0.048309
v 0.047946 -0.082758 0.048275
v 0.049711 -0.087026 0.047821
v 0.043486 -0.077957 0.048688
v 0.042074 -0.079783 0.048117
v 0.048198 -0.085989 0.048017
v 0.067864 -0.104917 0.047065
v 0.046881 -0.084298 0.048440
v 0.083274 -0.120557 0.046586
v 0.081044 -0.118898 0.047956
v 0.073490 -0.112760 0.046548
v 0.083377 -0.124297 0.045755
v 0.089273 -0.117155 0.049446
v 0.082275 -0.109079 0.051237
v 0.118009 -0.134145 0.053532
v 0.134850 -0.152186 0.051741
v 0.111877 -0.134648 0.051572
v 0.105997 -0.147207 0.045607
v 0.103903 -0.146425 0.045200
v 0.107494 -0.149488 0.048244
v 0.136111 -0.160370 0.049505
v 0.130561 -0.166230 0.048372
v 0.101444 -0.127694 0.050190
v 0.125860 -0.156727 0.049337
v 0.100101 -0.127737 0.052119
v 0.113842 -0.144716 0.052289
v 0.113015 -0.154848 0.048529
v 0.108436 -0.142041 0.051193
v 0.136649 -0.158819 0.050946
v 0.118938 -0.153700 0.051027
v 0.131847 -0.162760 0.049432
v 0.129815 -0.164266 0.050231
v 0.129594 -0.164277 0.048532
v 0.132214 -0.162310 0.051177
v 0.095055 -0.105121 0.053498
v 0.100252 -0.117749 0.053703
v 0.125627 -0.128874 0.056634
v 0.122919 -0.128059 0.056144
v 0.121306 -0.133327 0.054571
v 0.108086 -0.120451 0.054704
v 0.117827 -0.130752 0.055643
v 0.118042 -0.137568 0.054826
v 0.127437 -0.153561 0.050454
v 0.130893 -0.139276 0.054480
v 0.135235 -0.160401 0.050728
v 0.128798 -0.154724 0.052074
v 0.115558 -0.140990 0.053606
v 0.120741 -0.146968 0.053132
v 0.138115 -0.162861 0.059175
v 0.108053 -0.155276 0.044890
v 0.121125 -0.161863 0.046691
v 0.129188 -0.167902 0.047649
v 0.130205 -0.166663 0.048183
v 0.129697 -0.167282 0.047913
v 0.127601 -0.169837 0.047181
v 0.126375 -0.167554 0.049813
v 0.124080 -0.165951 0.048298
v 0.131037 -0.172455 0.060401
v 0.150192 -0.171378 0.050981
v 0.166341 -0.188284 0.045274
v 0.160567 -0.190956 0.049822
v 0.145943 -0.176749 0.047649
v 0.153201 -0.187175 0.048034
v 0.145434 -0.177369 0.047913
v 0.144926 -0.177988 0.048183
v 0.193466 -0.222787 0.046379
v 0.159221 -0.204627 0.054105
v 0.141540 -0.167133 0.060391
v 0.143797 -0.171587 0.060388
v 0.142750 -0.176294 0.060401
v 0.126287 -0.179117 0.048831
v 0.144570 -0.178421 0.048372
v 0.145461 -0.180526 0.048563
v 0.139172 -0.183994 0.048378
v 0.148970 -0.186188 0.048984
v 0.168594 -0.199125 0.046317
v 0.173341 -0.200792 0.045275
v 0.190236 -0.221096 0.046190
v 0.170243 -0.208564 0.048782
v 0.180926 -0.221183 0.049125
v 0.148270 -0.176307 0.048229
v 0.140831 -0.183020 0.050015
v 0.145688 -0.187944 0.051687
v 0.144122 -0.181754 0.050942
v 0.151909 -0.191388 0.049619
v 0.138259 -0.186103 0.051021
v 0.166536 -0.205346 0.052079
v 0.188252 -0.228836 0.051050
v 0.160263 -0.198983 0.052285
v 0.157086 -0.208113 0.052947
v 0.142206 -0.191243 0.051247
v 0.173758 -0.221182 0.051335
v 0.173756 -0.225425 0.052378
v 0.199062 -0.230834 0.047898
v 0.209597 -0.241756 0.048012
v 0.198328 -0.232017 0.047096
v 0.209978 -0.242214 0.047140
v 0.205820 -0.242257 0.049475
v 0.232252 -0.265950 0.048218
v 0.227185 -0.261892 0.048275
v 0.231312 -0.267093 0.048501
v 0.231103 -0.267332 0.048861
v 0.191863 -0.234646 0.049675
v 0.213217 -0.249111 0.049261
v 0.229723 -0.261213 0.048222
v 0.218014 -0.256172 0.049685
v 0.231205 -0.267223 0.048564
v 0.230838 -0.267670 0.048602
v 0.230720 -0.267814 0.048621
v 0.230602 -0.267957 0.048636
v 0.230484 -0.268101 0.048648
v 0.230366 -0.268245 0.048656
v 0.230247 -0.268389 0.048661
v 0.230165 -0.268489 0.048672
v 0.195179 -0.242664 0.050674
v 0.203767 -0.246491 0.049533
v 0.196493 -0.242983 0.051572
v 0.174424 -0.228510 0.052836
v 0.180300 -0.238886 0.053278
v 0.202056 -0.252097 0.050755
v 0.199890 -0.254547 0.051361
v 0.208865 -0.247719 0.048664
v 0.217909 -0.258130 0.049006
v 0.213195 -0.255135 0.049303
v 0.208274 -0.248628 0.050266
v 0.224264 -0.257020 0.047849
v 0.216238 -0.259841 0.049437
v 0.223954 -0.265826 0.049200
v 0.225497 -0.264110 0.049587
v 0.223546 -0.266323 0.049271
v 0.223137 -0.266820 0.049330
v 0.222728 -0.267319 0.049378
v 0.223051 -0.266010 0.049679
v 0.214967 -0.264606 0.049814
v 0.222318 -0.267818 0.049413
v 0.221907 -0.268318 0.049437
v 0.221626 -0.268660 0.049478
v 0.222229 -0.267928 0.049589
v 0.211991 -0.259807 0.050365
v 0.194939 -0.244800 0.051913
v 0.139274 -0.181373 0.058809
v 0.171781 -0.219116 0.053300
v 0.133684 -0.177335 0.060390
v 0.146341 -0.206359 0.054737
v 0.147106 -0.212044 0.056005
v 0.170443 -0.224277 0.054185
v 0.152030 -0.212880 0.056301
v 0.158271 -0.212814 0.055355
v 0.164061 -0.223230 0.054401
v 0.150700 -0.216987 0.056625
v 0.169214 -0.231210 0.054619
v 0.187505 -0.245699 0.052735
v 0.186110 -0.241700 0.052881
g target
f 2 3 1
f 1 6 2
f 4 1 3
f 4 6 1
f 5 3 2
f 2 6 5
f 5 4 3
f 6 4 5
f 8 9 7
f 7 10 8
f 9 10 7
f 10 9 8
f 15 16 18
f 15 17 16
f 15 18 20
f 18 21 20
f 15 20 139
f 20 19 139
f 21 18 23
f 23 18 24
f 18 16 24
f 16 17 24
f 22 23 28
f 25 28 23
f 24 25 23
f 22 21 23
f 22 26 45
f 25 27 28
f 28 27 29
f 28 29 31
f 22 28 26
f 27 25 29
f 29 32 31
f 31 32 30
f 22 38 21
f 21 38 20
f 38 19 20
f 38 45 44
f 38 44 39
f 38 40 19
f 19 40 34
f 19 86 90
f 19 34 86
f 38 39 40
f 22 45 38
f 45 42 44
f 26 46 45
f 45 96 42
f 45 46 96
f 19 76 139
f 19 73 76
f 73 77 76
f 73 75 77
f 76 81 139
f 77 75 78
f 77 79 76
f 79 81 76
f 77 78 79
f 79 80 81
f 147 81 149
f 81 82 149
f 81 80 82
f 19 90 73
f 90 75 73
f 90 97 75
f 102 97 92
f 96 46 102
f 102 92 96
f 75 97 78
f 79 78 80
f 78 99 80
f 80 100 101
f 99 100 80
f 80 98 82
f 80 101 98
f 97 102 78
f 78 102 103
f 103 258 78
f 98 105 192
f 98 104 105
f 101 104 98
f 78 258 99
f 258 100 99
f 100 259 101
f 101 259 105
f 104 101 105
f 105 262 106
f 105 106 107
f 15 108 17
f 17 110 109
f 108 112 17
f 17 112 111
f 15 139 108
f 108 114 112
f 108 139 114
f 114 128 112
f 139 128 114
f 139 140 128
f 17 109 24
f 109 110 24
f 24 110 120
f 17 111 110
f 112 113 111
f 24 120 25
f 120 110 117
f 110 111 118
f 110 118 123
f 111 113 118
f 118 113 119
f 25 120 121
f 117 122 120
f 120 122 121
f 110 123 117
f 29 25 124
f 25 121 124
f 29 124 32
f 124 122 32
f 124 121 122
f 117 123 122
f 122 123 323
f 123 125 323
f 118 119 123
f 123 119 125
f 112 128 113
f 113 132 126
f 113 126 119
f 119 126 133
f 113 128 132
f 128 127 132
f 128 141 127
f 128 177 141
f 125 138 328
f 125 119 138
f 133 137 119
f 137 136 119
f 119 186 138
f 139 143 140
f 140 179 128
f 139 147 143
f 139 81 147
f 147 148 143
f 143 151 146
f 143 148 151
f 151 148 146
f 143 146 140
f 128 178 177
f 128 179 178
f 195 187 183
f 136 186 119
f 136 187 186
f 150 140 146
f 82 98 149
f 149 189 147
f 149 98 188
f 149 188 189
f 147 189 148
f 146 190 150
f 146 148 190
f 188 98 189
f 189 191 148
f 148 191 190
f 98 192 189
f 150 190 195
f 190 193 195
f 179 140 194
f 194 183 179
f 140 150 194
f 183 194 195
f 194 150 195
f 191 189 190
f 190 197 196
f 190 189 197
f 195 193 199
f 190 196 193
f 196 199 193
f 105 107 192
f 196 197 199
f 199 360 198
f 197 360 199
f 195 200 187
f 195 199 200
f 200 364 187
f 200 199 198
f 217 26 208
f 31 30 211
f 31 211 28
f 26 28 211
f 26 211 208
f 208 211 207
f 211 30 210
f 211 210 212
f 207 211 212
f 207 212 213
f 207 209 208
f 213 210 215
f 212 210 213
f 207 213 209
f 209 213 215
f 210 214 215
f 210 30 214
f 209 215 234
f 215 214 216
f 26 217 46
f 208 209 217
f 217 218 219
f 46 217 243
f 217 219 221
f 217 221 243
f 209 218 217
f 218 222 219
f 218 209 222
f 209 220 222
f 220 226 222
f 220 227 226
f 220 238 227
f 209 234 235
f 215 216 234
f 234 336 235
f 233 235 236
f 235 336 236
f 235 233 209
f 233 236 237
f 237 236 314
f 236 336 314
f 209 233 220
f 233 238 220
f 233 237 238
f 238 237 312
f 237 314 312
f 243 102 46
f 243 245 102
f 243 221 245
f 245 103 102
f 245 247 103
f 238 252 227
f 100 258 259
f 259 258 261
f 258 260 261
f 261 262 259
f 105 259 262
f 106 262 107
f 107 262 263
f 261 264 262
f 262 264 265
f 262 266 263
f 262 265 269
f 262 269 266
f 247 267 103
f 103 267 258
f 267 260 258
f 267 252 260
f 271 260 272
f 272 260 316
f 268 316 260
f 269 272 270
f 369 270 368
f 260 271 261
f 271 272 261
f 261 272 264
f 266 269 263
f 263 269 270
f 270 273 263
f 272 265 264
f 272 269 265
f 273 270 369
f 238 312 252
f 252 312 310
f 310 312 311
f 252 310 260
f 260 310 311
f 311 312 260
f 312 313 316
f 314 313 312
f 314 375 313
f 375 315 317
f 312 268 260
f 312 316 268
f 316 313 272
f 270 272 317
f 270 317 368
f 272 313 375
f 272 375 317
f 32 320 30
f 32 122 320
f 122 323 318
f 122 318 320
f 320 318 319
f 318 323 319
f 125 328 323
f 323 328 326
f 30 320 214
f 320 322 214
f 320 319 322
f 323 324 319
f 214 322 321
f 214 321 216
f 216 321 234
f 322 319 321
f 319 325 321
f 323 326 324
f 324 326 319
f 319 326 327
f 319 327 325
f 327 338 325
f 326 328 327
f 328 329 327
f 328 138 329
f 327 329 330
f 329 138 331
f 327 330 338
f 338 330 334
f 234 321 335
f 234 335 336
f 321 325 339
f 321 339 335
f 336 335 337
f 336 337 314
f 337 335 314
f 335 339 314
f 314 339 373
f 325 341 373
f 339 325 373
f 338 340 325
f 340 338 341
f 340 341 325
f 338 374 341
f 186 348 138
f 331 138 346
f 138 348 346
f 338 334 351
f 338 351 378
f 374 338 378
f 365 355 348
f 365 351 355
f 365 381 351
f 351 381 378
f 107 263 192
f 192 263 189
f 189 263 197
f 197 359 360
f 360 363 198
f 263 359 197
f 360 359 361
f 263 362 359
f 363 360 361
f 187 364 186
f 186 364 348
f 200 198 364
f 364 365 348
f 198 358 364
f 364 358 365
f 198 372 366
f 198 367 358
f 198 366 367
f 369 368 380
f 370 377 381
f 381 366 370
f 367 366 381
f 359 362 273
f 263 273 362
f 359 273 371
f 371 369 359
f 359 369 361
f 198 363 372
f 363 366 372
f 363 370 366
f 363 361 370
f 273 369 371
f 369 380 361
f 377 361 380
f 377 370 361
f 365 358 367
f 365 367 381
f 314 376 375
f 314 373 376
f 373 341 374
f 315 379 317
f 374 378 381
f 373 374 381
f 375 376 315
f 376 377 315
f 315 377 379
f 373 381 376
f 317 379 368
f 376 381 377
f 368 379 377
f 380 368 377
f 330 329 332
f 330 332 345
f 345 333 330
f 329 331 332
f 331 345 332
f 333 353 330
f 353 334 330
f 345 342 333
f 333 343 383
f 333 342 343
f 342 345 385
f 345 331 346
f 345 346 347
f 347 346 348
f 347 348 349
f 345 347 350
f 350 347 356
f 334 353 351
f 351 353 352
f 352 354 351
f 354 357 351
f 345 350 388
f 349 348 355
f 347 349 356
f 357 355 351
f 355 357 349
f 350 356 388
f 356 349 382
f 349 357 386
f 353 333 352
f 383 384 333
f 333 384 352
f 345 388 385
f 356 382 388
f 357 354 386
f 349 387 382
f 382 389 388
f 388 389 390
f 389 382 387
f 352 393 354
f 388 390 385
f 390 392 385
f 385 392 342
f 383 343 384
f 343 391 384
f 342 392 343
f 390 344 392
f 392 344 343
f 343 344 391
f 389 387 390
f 354 393 400
f 400 393 387
f 390 387 344
f 387 393 396
f 387 396 395
f 384 391 352
f 393 352 394
f 344 395 396
f 352 391 394
f 344 394 391
f 344 397 394
f 344 396 397
f 387 395 344
f 396 393 397
f 397 393 394
f 386 399 349
f 349 399 387
f 386 398 399
f 386 354 398
f 399 398 400
f 354 400 398
f 399 400 387
f 166 168 126
f 165 166 130
f 165 130 127
f 130 166 126
f 131 126 132
f 131 132 130
f 130 132 127
f 131 130 126
f 129 133 126
f 129 134 133
f 135 137 133
f 134 135 133
f 135 136 137
f 129 126 168
f 141 142 164
f 115 156 155
f 115 155 116
f 116 155 166
f 155 156 157
f 153 156 115
f 115 116 152
f 163 153 115
f 163 115 152
f 156 153 159
f 155 158 172
f 159 154 156
f 154 157 156
f 155 157 158
f 158 157 160
f 157 173 160
f 154 173 157
f 158 162 172
f 160 161 158
f 165 127 152
f 163 164 153
f 166 152 116
f 165 152 166
f 127 163 152
f 166 167 168
f 163 127 141
f 141 164 163
f 164 144 159
f 153 164 159
f 144 154 159
f 142 144 164
f 144 145 170
f 169 174 203
f 155 167 166
f 167 172 168
f 155 172 167
f 168 172 202
f 202 172 162
f 202 162 169
f 161 160 169
f 162 158 169
f 161 169 158
f 160 173 176
f 174 169 160
f 160 176 174
f 144 170 154
f 173 175 174
f 154 170 171
f 154 171 175
f 175 171 174
f 154 175 173
f 173 174 176
f 142 177 178
f 141 177 142
f 135 134 201
f 135 201 185
f 179 145 144
f 144 178 179
f 142 178 144
f 179 183 145
f 183 180 145
f 180 170 145
f 184 183 187
f 182 184 187
f 183 184 180
f 182 180 184
f 185 205 181
f 182 181 180
f 135 185 136
f 181 136 185
f 181 182 136
f 182 187 136
f 202 129 168
f 134 129 201
f 129 202 201
f 202 203 185
f 201 202 185
f 169 203 202
f 185 203 204
f 204 203 205
f 185 204 205
f 205 174 181
f 203 174 205
f 171 170 180
f 171 180 174
f 180 181 174
f 12 11 58
f 13 33 14
f 60 14 43
f 13 37 33
f 14 33 43
f 60 43 35
f 60 35 87
f 37 34 40
f 36 33 37
f 44 36 37
f 36 41 33
f 43 33 41
f 37 39 44
f 37 40 39
f 36 44 41
f 43 41 44
f 43 44 42
f 43 42 96
f 11 12 47
f 11 47 50
f 12 48 47
f 47 48 52
f 51 56 61
f 12 49 48
f 50 47 61
f 47 51 61
f 47 53 51
f 47 52 54
f 47 54 53
f 51 53 56
f 48 55 52
f 48 59 55
f 52 55 54
f 53 54 56
f 56 54 71
f 55 57 54
f 54 57 71
f 56 67 61
f 11 62 58
f 12 58 49
f 48 49 59
f 59 84 55
f 50 60 11
f 50 61 60
f 62 63 58
f 11 60 62
f 60 61 14
f 14 61 64
f 61 66 64
f 62 60 63
f 63 65 58
f 13 64 66
f 14 64 13
f 58 65 49
f 60 65 63
f 61 67 66
f 66 67 85
f 85 67 68
f 68 67 70
f 49 69 59
f 55 84 70
f 59 83 84
f 56 71 67
f 71 72 67
f 57 72 71
f 72 70 67
f 57 55 70
f 57 70 72
f 70 84 88
f 70 88 74
f 66 85 37
f 66 37 13
f 85 68 89
f 60 87 65
f 65 87 49
f 59 69 83
f 37 85 34
f 85 86 34
f 86 85 90
f 90 85 89
f 87 35 69
f 87 69 49
f 35 95 69
f 70 74 68
f 68 74 88
f 91 68 88
f 88 94 93
f 89 68 90
f 68 91 90
f 91 88 93
f 69 95 83
f 83 95 84
f 94 88 84
f 95 94 84
f 93 94 97
f 93 97 90
f 94 92 97
f 91 93 90
f 95 92 94
f 43 96 35
f 35 96 95
f 95 96 92
f 244 221 248
f 223 206 219
f 219 249 221
f 222 223 219
f 224 223 226
f 206 249 219
f 206 223 276
f 223 224 276
f 224 225 228
f 223 222 226
f 224 226 227
f 224 227 225
f 224 228 276
f 276 228 278
f 228 229 278
f 229 230 278
f 231 288 232
f 228 225 227
f 206 240 249
f 206 239 240
f 249 240 253
f 253 283 242
f 221 244 246
f 246 245 221
f 246 244 245
f 244 255 245
f 255 247 245
f 248 253 244
f 248 249 253
f 221 249 248
f 227 250 308
f 251 227 252
f 250 227 251
f 244 253 255
f 255 257 247
f 255 254 257
f 247 251 267
f 242 255 253
f 241 254 255
f 242 241 255
f 256 267 251
f 252 267 256
f 252 256 251
f 247 257 251
f 288 277 278
f 288 289 277
f 282 275 284
f 276 277 206
f 206 277 280
f 239 274 253
f 206 280 239
f 239 280 274
f 228 281 229
f 240 239 253
f 276 278 277
f 230 288 278
f 230 229 288
f 229 281 279
f 253 274 282
f 274 275 282
f 283 282 284
f 284 242 283
f 284 241 242
f 253 282 283
f 306 286 285
f 287 309 286
f 280 289 274
f 280 277 289
f 288 229 301
f 288 290 292
f 288 301 290
f 288 231 289
f 231 291 289
f 231 232 291
f 232 302 291
f 288 292 232
f 232 292 290
f 290 293 232
f 232 293 302
f 290 302 293
f 274 289 275
f 302 287 291
f 275 295 284
f 275 294 295
f 295 296 284
f 296 300 297
f 298 299 297
f 303 306 297
f 291 275 289
f 291 294 275
f 291 300 294
f 291 299 300
f 300 296 295
f 294 300 295
f 297 300 298
f 299 298 300
f 291 303 299
f 299 303 297
f 279 301 229
f 301 281 290
f 279 281 301
f 281 309 290
f 309 302 290
f 291 287 303
f 309 287 302
f 286 303 287
f 286 306 303
f 304 296 297
f 254 305 307
f 241 305 254
f 241 307 305
f 254 307 286
f 241 284 304
f 241 304 306
f 241 306 307
f 307 306 285
f 296 304 284
f 297 306 304
f 286 307 285
f 228 227 308
f 228 308 281
f 308 251 309
f 250 251 308
f 281 308 309
f 309 251 286
f 254 286 257
f 257 286 251
f 500 524 411
f 500 411 499
f 499 501 526
f 499 524 500
f 499 526 524
f 551 553 552
f 468 578 551
f 551 578 579
f 551 579 553
f 411 524 401
f 415 503 401
f 415 417 448
f 415 419 417
f 401 419 415
f 419 401 417
f 417 401 414
f 417 414 445
f 401 524 444
f 401 445 414
f 444 445 401
f 417 492 490
f 417 445 492
f 445 493 492
f 415 448 503
f 447 503 449
f 503 448 449
f 417 469 448
f 449 448 469
f 449 469 551
f 551 469 468
f 417 490 469
f 492 493 490
f 493 491 490
f 490 495 469
f 490 491 495
f 468 469 495
f 491 582 495
f 401 503 496
f 401 498 499
f 496 498 401
f 401 499 411
f 496 501 498
f 498 501 499
f 496 502 501
f 496 497 502
f 502 506 501
f 501 527 526
f 501 506 527
f 503 504 496
f 503 548 504
f 497 496 508
f 496 504 508
f 497 505 502
f 502 505 515
f 502 515 538
f 519 565 515
f 444 524 445
f 524 526 527
f 524 527 525
f 524 525 445
f 445 525 528
f 528 446 445
f 446 528 525
f 525 527 446
f 527 533 541
f 527 541 446
f 445 446 493
f 446 541 591
f 446 591 595
f 527 506 529
f 506 531 529
f 502 535 506
f 506 535 531
f 529 530 527
f 527 530 533
f 502 538 535
f 538 541 542
f 538 543 541
f 533 542 541
f 447 547 503
f 503 547 548
f 547 447 555
f 547 555 548
f 447 549 555
f 555 549 556
f 447 449 550
f 449 551 550
f 447 550 552
f 550 551 552
f 447 552 549
f 549 552 553
f 549 553 554
f 548 555 504
f 504 555 556
f 508 504 556
f 508 556 557
f 508 557 519
f 519 557 561
f 519 561 565
f 560 574 575
f 549 574 556
f 549 554 574
f 574 554 580
f 493 576 491
f 491 576 577
f 446 595 493
f 493 595 576
f 468 495 578
f 578 583 579
f 495 583 578
f 553 579 554
f 554 579 580
f 579 581 580
f 491 577 582
f 582 583 495
f 577 583 582
f 577 576 583
f 595 601 576
f 576 601 581
f 583 576 581
f 579 583 581
f 589 585 596
f 589 584 585
f 591 594 595
f 596 585 595
f 560 599 589
f 589 599 597
f 584 589 597
f 575 599 560
f 575 574 599
f 581 600 599
f 600 581 601
f 574 580 599
f 580 581 599
f 601 595 606
f 595 585 606
f 515 518 538
f 518 515 565
f 518 565 572
f 518 572 566
f 518 546 538
f 518 566 546
f 538 546 543
f 566 539 546
f 592 543 587
f 546 587 543
f 565 589 572
f 566 572 590
f 572 589 587
f 572 587 590
f 589 596 587
f 587 596 592
f 546 539 587
f 566 586 540
f 566 540 539
f 566 590 586
f 540 586 588
f 586 590 588
f 539 588 587
f 539 540 588
f 590 587 588
f 497 507 505
f 505 507 512
f 497 508 509
f 497 509 507
f 508 519 509
f 507 514 512
f 505 512 515
f 515 512 516
f 515 516 519
f 512 519 516
f 519 520 509
f 520 519 512
f 507 509 514
f 509 510 514
f 509 511 510
f 514 513 512
f 512 514 517
f 513 514 512
f 514 523 517
f 512 517 523
f 511 509 521
f 509 520 521
f 510 511 514
f 511 521 514
f 514 521 520
f 522 512 523
f 520 512 522
f 514 520 522
f 514 522 523
f 557 556 558
f 556 574 559
f 556 559 558
f 558 559 562
f 557 558 561
f 561 558 565
f 565 558 563
f 558 562 563
f 565 563 569
f 565 573 589
f 565 569 573
f 560 589 573
f 563 573 569
f 574 560 568
f 574 568 559
f 560 573 568
f 563 562 564
f 564 562 570
f 562 571 570
f 559 568 567
f 559 567 562
f 562 567 568
f 573 563 571
f 573 571 568
f 562 568 571
f 563 564 570
f 563 570 571
f 544 541 543
f 544 591 541
f 544 543 592
f 544 592 596
f 544 596 591
f 596 594 591
f 596 595 594
f 531 535 534
f 530 529 531
f 530 531 532
f 532 536 530
f 531 534 532
f 532 534 537
f 530 536 533
f 532 537 536
f 537 542 536
f 535 538 534
f 537 538 542
f 534 538 537
f 536 542 533
f 584 602 585
f 606 585 603
f 597 602 584
f 597 599 598
f 598 603 597
f 601 604 600
f 602 603 585
f 598 599 603
f 599 600 603
f 597 603 602
f 604 605 600
f 600 605 603
f 604 603 605
f 606 607 601
f 607 604 601
f 606 603 607
f 603 604 607
f 402 404 406
f 404 405 406
f 405 416 406
f 416 410 406
f 404 407 405
f 402 407 404
f 402 403 407
f 406 412 402
f 406 410 412
f 402 412 413
f 402 413 403
f 408 403 413
f 410 416 412
f 412 409 413
f 408 413 409
f 409 412 408
f 405 418 416
f 407 418 405
f 407 408 418
f 418 412 416
f 418 408 412
f 403 408 443
f 403 443 407
f 407 443 408
f 450 461 460
f 451 461 450
f 452 454 450
f 455 451 450
f 450 454 455
f 452 456 454
f 450 457 452
f 450 460 457
f 457 458 452
f 453 452 458
f 457 460 461
f 459 462 457
f 457 462 458
f 452 453 456
f 458 463 453
f 462 463 458
f 462 453 463
f 464 453 462
f 454 456 455
f 451 455 467
f 451 467 465
f 461 451 466
f 465 466 451
f 461 466 459
f 455 456 467
f 456 464 467
f 465 467 466
f 466 467 459
f 459 467 462
f 464 462 467
f 453 464 456
f 457 461 494
f 457 494 459
f 461 459 494
f 421 437 425
f 420 423 421
f 421 423 437
f 424 426 423
f 423 426 437
f 423 420 430
f 420 427 430
f 427 420 421
f 427 421 428
f 421 429 428
f 428 429 433
f 427 428 430
f 423 430 422
f 428 431 432
f 430 428 422
f 428 432 422
f 432 431 434
f 428 433 431
f 421 425 429
f 433 429 435
f 425 441 429
f 433 435 431
f 431 435 434
f 429 442 435
f 422 438 423
f 438 424 423
f 424 436 426
f 436 441 437
f 426 436 437
f 422 432 438
f 424 438 436
f 432 434 439
f 438 432 439
f 438 439 434
f 438 434 440
f 436 438 441
f 440 441 438
f 425 437 441
f 429 441 442
f 440 442 441
f 434 442 440
f 435 442 434
f 471 472 470
f 470 472 477
f 470 474 473
f 470 473 483
f 473 474 476
f 473 476 475
f 470 477 474
f 474 477 478
f 476 474 478
f 479 480 470
f 470 480 471
f 481 482 480
f 471 480 482
f 482 481 472
f 481 488 472
f 482 472 471
f 470 483 479
f 473 475 483
f 480 479 483
f 483 475 484
f 483 484 485
f 475 485 484
f 483 481 480
f 481 486 488
f 483 485 481
f 481 485 486
f 477 472 478
f 475 476 485
f 472 487 478
f 478 487 476
f 476 487 485
f 472 489 487
f 488 489 472
f 488 486 489
f 486 487 489
f 485 487 486
f 545 593 592
f 545 592 593
f 608 615 611
f 616 615 608
f 617 616 608
f 612 618 617
f 609 630 612
f 620 619 610
f 621 620 610
f 622 621 610
f 613 622 610
f 614 622 613
f 612 629 618
f 622 634 620
f 621 622 620
f 623 653 614
f 611 623 614
f 624 623 611
f 615 624 611
f 636 624 615
f 626 636 615
f 625 626 615
f 616 625 615
f 626 625 616
f 627 626 616
f 617 627 616
f 628 627 617
f 637 628 617
f 618 637 617
f 629 638 618
f 630 629 612
f 609 631 630
f 610 631 609
f 632 631 610
f 633 632 610
f 619 633 610
f 620 633 619
f 635 634 622
f 653 635 622
f 614 653 622
f 631 642 630
f 632 633 631
f 634 644 620
f 626 624 636
f 639 624 626
f 627 639 626
f 640 639 627
f 628 640 627
f 637 640 628
f 618 640 637
f 630 638 629
f 641 638 630
f 642 641 630
f 643 642 631
f 633 643 631
f 620 643 633
f 645 644 634
f 635 645 634
f 623 646 653
f 624 646 623
f 618 650 640
f 638 650 618
f 620 644 643
f 653 645 635
f 654 656 646
f 624 654 646
f 647 654 624
f 639 647 624
f 640 648 639
f 649 648 640
f 650 649 640
f 651 642 643
f 644 651 643
f 652 661 644
f 645 652 644
f 649 647 639
f 648 649 639
f 641 659 638
f 642 659 641
f 644 655 651
f 653 677 645
f 646 666 653
f 654 657 656
f 647 668 654
f 649 658 647
f 651 660 642
f 655 673 651
f 644 673 655
f 661 673 644
f 652 662 661
f 645 662 652
f 677 662 645
f 656 666 646
f 668 657 654
f 650 663 658
f 649 650 658
f 659 664 638
f 642 664 659
f 651 665 660
f 673 665 651
f 666 677 653
f 667 666 656
f 668 667 656
f 657 668 656
f 647 669 668
f 670 669 647
f 663 670 647
f 658 663 647
f 671 663 650
f 638 671 650
f 664 685 638
f 660 672 642
f 665 672 660
f 675 674 673
f 661 675 673
f 676 675 661
f 662 676 661
f 667 678 666
f 663 669 670
f 638 680 671
f 642 672 664
f 673 674 665
f 662 695 676
f 678 681 666
f 682 679 668
f 669 682 668
f 683 682 669
f 663 683 669
f 671 684 663
f 680 684 671
f 701 680 638
f 685 701 638
f 672 685 664
f 686 685 672
f 672 693 686
f 674 693 672
f 665 674 672
f 676 695 675
f 688 695 662
f 677 688 662
f 689 688 677
f 681 689 677
f 666 681 677
f 667 690 678
f 668 691 667
f 684 683 663
f 686 701 685
f 694 693 674
f 675 687 674
f 695 687 675
f 689 695 688
f 681 705 689
f 678 690 681
f 696 709 667
f 691 696 667
f 668 696 691
f 692 696 668
f 679 692 668
f 683 679 682
f 684 698 683
f 699 698 684
f 700 699 684
f 680 700 684
f 702 701 686
f 703 702 686
f 693 703 686
f 694 703 693
f 707 704 674
f 687 707 674
f 695 707 687
f 689 715 695
f 705 715 689
f 681 690 705
f 667 709 690
f 679 697 692
f 683 698 679
f 680 699 700
f 706 717 680
f 701 706 680
f 712 706 701
f 702 712 701
f 674 704 694
f 715 714 695
f 690 708 705
f 697 716 696
f 692 697 696
f 679 710 697
f 698 710 679
f 699 711 698
f 717 711 699
f 680 717 699
f 703 712 702
f 718 712 703
f 704 718 703
f 694 704 703
f 707 713 704
f 695 714 707
f 705 708 715
f 709 708 690
f 696 716 709
f 710 716 697
f 711 710 698
f 712 717 706
f 713 718 704
f 714 713 707
f 715 713 714
f 708 719 715
f 611 614 720
f 608 611 720
f 617 608 720
f 612 617 720
f 609 612 720
f 610 609 720
f 613 610 720
f 614 613 720
f 716 708 709
f 716 710 711
f 716 711 717
f 716 717 712
f 716 712 718
f 716 718 713
f 716 713 715
f 716 715 719
f 716 719 708
f 784 775 746
f 747 750 751
f 747 752 750
f 747 751 752
f 752 748 750
f 752 751 753
f 752 753 754
f 752 754 748
f 746 754 755
f 775 784 776
f 784 746 774
f 774 776 784
f 746 755 774
f 774 755 780
f 774 780 781
f 774 781 783
f 774 783 778
f 776 778 777
f 776 774 778
f 734 736 735
f 734 735 749
f 736 740 737
f 736 734 738
f 736 738 741
f 749 744 734
f 736 737 735
f 735 737 742
f 737 740 739
f 734 744 746
f 737 739 742
f 739 740 743
f 736 741 745
f 734 775 738
f 738 775 741
f 741 775 745
f 739 743 742
f 742 749 735
f 742 743 749
f 743 740 755
f 743 755 749
f 775 776 745
f 746 775 734
f 749 750 744
f 744 750 748
f 744 748 746
f 749 751 750
f 749 753 751
f 749 754 753
f 746 748 754
f 736 755 740
f 749 755 754
f 745 776 736
f 736 776 755
f 755 776 777
f 777 780 755
f 779 777 778
f 782 780 777
f 782 781 780
f 782 783 781
f 779 783 782
f 779 782 777
f 779 778 783
f 764 768 732
f 757 733 756
f 756 733 762
f 728 757 759
f 759 764 732
f 757 756 759
f 759 756 758
f 759 732 728
f 764 759 763
f 760 759 758
f 763 759 760
f 760 758 773
f 758 756 768
f 761 768 756
f 733 757 728
f 762 733 761
f 762 761 756
f 763 773 764
f 767 765 766
f 767 771 765
f 767 766 771
f 771 769 765
f 771 772 769
f 771 766 770
f 771 770 772
f 768 761 772
f 760 773 763
f 758 768 773
f 764 773 768
f 721 725 727
f 725 723 727
f 725 724 723
f 721 729 722
f 721 722 726
f 721 726 725
f 723 724 730
f 723 730 727
f 726 769 725
f 721 728 729
f 721 727 728
f 727 730 728
f 725 769 761
f 722 731 726
f 725 761 724
f 728 730 733
f 730 724 733
f 724 761 733
f 726 731 769
f 722 729 731
f 728 732 768
f 728 768 729
f 731 765 769
f 731 729 765
f 729 768 772
f 729 766 765
f 729 770 766
f 729 772 770
f 761 769 772
f 866 868 865
f 866 869 868
f 866 876 869
f 866 873 871
f 866 874 872
f 866 872 873
f 866 870 876
f 866 871 870
f 868 875 865
f 866 867 874
f 876 868 869
f 867 872 874
f 870 871 876
f 872 871 873
f 866 886 867
f 868 878 875
f 876 888 868
f 867 877 872
f 871 882 876
f 872 882 871
f 878 865 875
f 886 877 867
f 879 878 868
f 888 879 868
f 880 888 876
f 882 880 876
f 877 881 872
f 881 882 872
f 865 883 866
f 878 883 865
f 866 883 886
f 882 888 880
f 878 884 883
f 888 884 878
f 883 885 886
f 884 885 883
f 885 887 886
f 884 887 885
f 886 887 877
f 888 878 879
f 890 888 882
f 884 888 887
f 891 890 882
f 889 891 882
f 892 889 882
f 881 892 882
f 877 887 881
f 881 887 892
f 890 887 888
f 891 887 890
f 889 887 891
f 892 887 889
f 816 818 813
f 816 815 814
f 816 817 815
f 816 813 817
f 814 818 816
f 818 819 813
f 819 821 813
f 815 820 814
f 813 826 817
f 821 826 813
f 819 823 821
f 820 825 814
f 815 825 820
f 818 822 819
f 822 823 819
f 823 824 821
f 824 826 821
f 817 828 815
f 826 829 817
f 827 825 815
f 828 827 815
f 829 828 817
f 818 830 822
f 814 830 818
f 825 830 814
f 824 836 826
f 826 839 829
f 826 838 839
f 825 833 830
f 831 822 830
f 833 831 830
f 835 822 831
f 822 832 823
f 823 832 824
f 822 835 832
f 834 825 827
f 835 831 833
f 834 833 825
f 835 833 834
f 832 836 824
f 836 837 826
f 837 838 826
f 835 836 832
f 835 834 838
f 838 834 829
f 836 835 837
f 837 835 838
f 828 834 827
f 839 838 829
f 829 834 828
f 785 793 792
f 785 787 793
f 785 789 787
f 785 786 794
f 785 788 790
f 785 794 788
f 785 790 789
f 792 791 785
f 791 786 785
f 790 788 789
f 789 797 787
f 791 795 786
f 793 796 792
f 787 796 793
f 786 802 794
f 792 798 791
f 798 795 791
f 795 802 786
f 802 788 794
f 797 796 787
f 811 797 789
f 788 811 789
f 796 798 792
f 802 799 788
f 812 806 797
f 811 812 797
f 799 811 788
f 798 800 795
f 797 806 796
f 796 800 798
f 796 804 800
f 804 801 800
f 801 802 795
f 800 801 795
f 803 804 796
f 805 803 796
f 807 805 796
f 804 803 805
f 804 805 807
f 804 807 809
f 806 807 796
f 809 807 806
f 804 808 801
f 801 808 802
f 804 810 808
f 804 809 810
f 802 808 799
f 799 808 811
f 810 809 811
f 808 810 811
f 811 809 812
f 809 806 812
f 840 842 841
f 840 844 842
f 840 845 844
f 840 847 845
f 840 846 847
f 840 843 846
f 845 842 844
f 840 849 843
f 841 849 840
f 845 852 842
f 847 853 845
f 843 851 846
f 846 854 847
f 850 848 841
f 842 850 841
f 849 851 843
f 852 855 842
f 853 852 845
f 851 854 846
f 841 848 849
f 842 855 850
f 847 854 853
f 849 857 851
f 851 864 854
f 850 856 848
f 848 856 849
f 859 856 850
f 857 858 851
f 858 863 851
f 856 857 849
f 856 858 857
f 856 861 858
f 852 850 855
f 854 860 853
f 852 859 850
f 856 859 860
f 856 860 862
f 860 859 852
f 862 860 854
f 853 860 852
f 863 864 851
f 856 862 861
f 858 861 864
f 861 862 864
f 863 858 864
f 864 862 854
f 894 896 893
f 897 894 893
f 893 896 895
f 895 897 893
f 894 900 896
f 898 894 897
f 898 900 894
f 896 900 895
f 899 897 895
f 895 900 899
f 899 898 897
f 900 898 899
f 963 938 974
f 938 939 974
f 963 945 938
f 963 961 945
f 963 956 961
f 974 939 958
f 976 974 958
f 976 958 961
f 961 956 962
f 962 956 976
f 961 962 976
f 963 974 971
f 971 974 968
f 974 975 968
f 971 968 980
f 963 971 956
f 971 980 1023
f 972 971 973
f 971 972 956
f 971 1023 973
f 972 973 956
f 973 1023 956
f 974 979 975
f 974 976 979
f 976 980 979
f 976 1022 980
f 956 1023 1022
f 1023 980 1022
f 956 1022 976
f 966 964 968
f 964 966 967
f 966 975 967
f 967 969 964
f 966 968 975
f 967 975 969
f 964 969 970
f 969 975 970
f 977 964 965
f 964 978 968
f 970 975 979
f 970 979 964
f 965 987 977
f 964 979 980
f 964 987 965
f 964 980 985
f 964 985 987
f 981 980 968
f 978 981 968
f 981 982 980
f 982 984 980
f 964 983 978
f 964 993 983
f 964 977 993
f 980 1025 985
f 980 984 1025
f 982 1025 984
f 994 987 1027
f 986 977 987
f 977 986 995
f 986 987 988
f 986 990 989
f 988 992 986
f 986 992 990
f 990 992 991
f 987 994 988
f 977 995 993
f 986 1008 995
f 986 989 1008
f 989 990 991
f 989 991 1008
f 991 992 996
f 1008 991 1011
f 991 996 1011
f 996 992 997
f 996 997 998
f 996 998 999
f 996 999 1000
f 992 1007 1009
f 992 1009 997
f 996 1000 1001
f 996 1001 1002
f 996 1002 1003
f 996 1003 1011
f 994 1006 988
f 993 1014 1004
f 993 1004 983
f 994 1027 1006
f 992 988 1007
f 995 1008 993
f 993 1008 1014
f 1007 988 1006
f 1014 1015 1005
f 1011 1014 1008
f 997 1010 998
f 998 1012 999
f 1009 1012 1010
f 1012 1009 1013
f 997 1009 1010
f 998 1010 1012
f 999 1012 1013
f 999 1013 1000
f 1000 1018 1001
f 1001 1019 1002
f 1011 1003 1017
f 1002 1020 1003
f 1000 1013 1018
f 1001 1018 1019
f 1002 1019 1020
f 1003 1020 1017
f 1014 1011 1015
f 1014 1005 1004
f 1016 1006 1030
f 1007 1006 1016
f 1007 1016 1030
f 1009 1007 1030
f 1005 1015 1017
f 1017 1030 1004
f 1017 1004 1005
f 1013 1009 1018
f 1009 1019 1018
f 1009 1017 1019
f 1017 1020 1019
f 1015 1011 1017
f 1030 1017 1009
f 978 983 1021
f 978 1021 981
f 982 981 1024
f 982 1024 1025
f 987 985 1027
f 1021 1026 981
f 985 1025 1027
f 1027 1025 1024
f 1024 981 1027
f 981 1026 1028
f 1028 1027 981
f 983 1004 1021
f 1004 1029 1021
f 1021 1029 1026
f 1029 1030 1026
f 1004 1030 1029
f 1006 1027 1028
f 1030 1006 1028
f 1030 1028 1026
f 901 907 902
f 902 907 903
f 903 907 904
f 901 906 907
f 904 907 905
f 905 907 908
f 908 907 925
f 907 906 925
f 909 910 917
f 910 911 917
f 911 913 917
f 909 902 910
f 909 917 901
f 910 903 911
f 911 904 913
f 917 915 901
f 910 902 903
f 909 901 902
f 911 903 904
f 904 905 913
f 901 915 906
f 905 914 913
f 916 914 908
f 917 913 914
f 916 917 914
f 905 908 914
f 916 908 924
f 912 917 916
f 917 921 915
f 917 912 921
f 906 915 918
f 915 923 918
f 916 927 920
f 918 923 906
f 915 921 923
f 912 916 947
f 916 948 947
f 916 920 919
f 919 948 916
f 912 923 921
f 947 923 912
f 919 920 948
f 908 925 924
f 906 930 925
f 925 930 924
f 916 924 927
f 924 930 931
f 924 926 927
f 924 931 926
f 931 928 926
f 928 929 957
f 930 906 931
f 906 932 931
f 923 932 906
f 923 933 932
f 931 932 928
f 932 933 928
f 927 922 920
f 927 926 922
f 926 928 922
f 933 923 929
f 933 929 928
f 923 960 929
f 960 923 934
f 948 920 950
f 922 950 920
f 928 937 935
f 937 938 935
f 928 935 922
f 935 936 922
f 941 945 942
f 954 922 941
f 936 941 922
f 942 954 941
f 954 942 943
f 942 945 943
f 954 943 961
f 935 938 936
f 936 938 945
f 929 944 957
f 941 936 945
f 940 961 960
f 929 960 944
f 943 945 961
f 947 946 923
f 947 948 949
f 947 951 946
f 948 950 949
f 947 949 951
f 923 946 934
f 922 954 950
f 954 953 952
f 949 953 954
f 950 952 949
f 949 952 953
f 954 952 950
f 954 961 949
f 946 951 934
f 951 960 934
f 949 961 955
f 951 949 955
f 940 951 955
f 951 940 960
f 961 940 955
f 928 957 937
f 957 938 937
f 957 958 938
f 938 958 959
f 938 959 939
f 958 939 959
f 958 944 960
f 957 944 958
f 960 961 958
f 1074 1075 1084
f 1074 1121 1075
f 1108 1074 1085
f 1085 1106 1108
f 1121 1106 1075
f 1108 1171 1117
f 1106 1121 1108
f 1108 1121 1171
f 1074 1109 1121
f 1121 1109 1119
f 1074 1108 1109
f 1108 1117 1109
f 1109 1118 1128
f 1117 1118 1109
f 1121 1119 1120
f 1121 1120 1126
f 1118 1126 1128
f 1121 1126 1118
f 1117 1171 1118
f 1121 1118 1171
f 1123 1111 1109
f 1123 1112 1111
f 1109 1111 1119
f 1111 1112 1113
f 1111 1113 1119
f 1112 1114 1113
f 1113 1114 1119
f 1109 1110 1123
f 1123 1122 1112
f 1110 1109 1116
f 1114 1120 1119
f 1114 1112 1120
f 1112 1122 1125
f 1122 1123 1125
f 1116 1109 1128
f 1112 1126 1120
f 1112 1125 1129
f 1112 1129 1126
f 1116 1128 1127
f 1130 1128 1126
f 1129 1132 1126
f 1110 1131 1123
f 1123 1131 1115
f 1129 1125 1132
f 1125 1133 1132
f 1116 1131 1110
f 1128 1130 1127
f 1133 1134 1132
f 1115 1124 1123
f 1123 1124 1125
f 1124 1156 1125
f 1115 1136 1124
f 1115 1158 1136
f 1115 1135 1158
f 1124 1136 1156
f 1115 1137 1135
f 1136 1158 1156
f 1158 1138 1139
f 1158 1139 1157
f 1158 1140 1138
f 1138 1140 1142
f 1115 1131 1137
f 1125 1150 1133
f 1156 1150 1125
f 1135 1137 1158
f 1137 1141 1158
f 1138 1142 1139
f 1142 1143 1139
f 1142 1144 1143
f 1142 1145 1144
f 1142 1146 1145
f 1139 1159 1157
f 1139 1143 1159
f 1142 1147 1146
f 1142 1148 1147
f 1142 1149 1148
f 1142 1140 1149
f 1156 1151 1150
f 1133 1150 1134
f 1137 1131 1141
f 1141 1131 1152
f 1176 1153 1150
f 1154 1176 1150
f 1154 1155 1176
f 1156 1157 1151
f 1156 1158 1157
f 1157 1150 1151
f 1157 1159 1150
f 1159 1154 1150
f 1164 1152 1169
f 1158 1141 1160
f 1158 1160 1140
f 1143 1144 1161
f 1144 1145 1162
f 1141 1164 1160
f 1159 1161 1165
f 1165 1161 1162
f 1162 1163 1165
f 1143 1161 1159
f 1144 1162 1161
f 1145 1163 1162
f 1145 1146 1163
f 1146 1147 1166
f 1147 1148 1167
f 1140 1164 1149
f 1148 1149 1168
f 1146 1166 1163
f 1147 1167 1166
f 1148 1168 1167
f 1149 1164 1168
f 1160 1164 1140
f 1141 1152 1164
f 1159 1165 1154
f 1165 1169 1155
f 1163 1166 1165
f 1165 1166 1167
f 1169 1168 1164
f 1169 1165 1168
f 1165 1167 1168
f 1165 1155 1154
f 1126 1132 1130
f 1127 1130 1173
f 1127 1173 1116
f 1130 1173 1172
f 1130 1172 1173
f 1175 1130 1132
f 1131 1116 1170
f 1131 1170 1152
f 1175 1132 1134
f 1116 1173 1174
f 1170 1153 1176
f 1175 1173 1130
f 1174 1170 1116
f 1174 1173 1170
f 1170 1173 1153
f 1175 1153 1173
f 1152 1170 1169
f 1150 1175 1134
f 1150 1153 1175
f 1169 1170 1155
f 1170 1176 1155
f 1034 1031 1037
f 1031 1032 1037
f 1032 1033 1037
f 1034 1037 1057
f 1033 1035 1037
f 1035 1036 1037
f 1036 1055 1037
f 1037 1055 1058
f 1039 1042 1040
f 1040 1042 1041
f 1039 1057 1042
f 1041 1042 1044
f 1042 1043 1048
f 1039 1040 1031
f 1039 1034 1057
f 1040 1041 1032
f 1041 1044 1033
f 1040 1032 1031
f 1039 1031 1034
f 1041 1033 1032
f 1033 1044 1035
f 1035 1044 1045
f 1036 1045 1042
f 1047 1036 1042
f 1042 1045 1044
f 1042 1048 1047
f 1035 1045 1036
f 1047 1049 1036
f 1047 1048 1049
f 1057 1046 1042
f 1054 1042 1046
f 1051 1049 1048
f 1049 1051 1038
f 1048 1043 1086
f 1038 1051 1052
f 1043 1042 1067
f 1052 1051 1050
f 1042 1054 1067
f 1043 1067 1078
f 1036 1056 1055
f 1056 1058 1055
f 1037 1058 1057
f 1036 1049 1056
f 1057 1061 1046
f 1057 1058 1061
f 1056 1059 1058
f 1056 1060 1059
f 1060 1056 1049
f 1038 1060 1049
f 1059 1061 1058
f 1060 1052 1062
f 1060 1064 1059
f 1060 1062 1064
f 1062 1065 1064
f 1063 1059 1064
f 1063 1064 1065
f 1046 1061 1059
f 1059 1063 1046
f 1038 1052 1060
f 1046 1063 1054
f 1063 1053 1054
f 1052 1066 1062
f 1053 1067 1054
f 1052 1068 1066
f 1052 1050 1068
f 1065 1062 1070
f 1065 1071 1072
f 1065 1070 1071
f 1063 1073 1053
f 1101 1084 1103
f 1103 1084 1075
f 1062 1066 1076
f 1068 1076 1066
f 1062 1076 1070
f 1070 1077 1071
f 1068 1070 1076
f 1053 1078 1067
f 1068 1094 1070
f 1053 1073 1078
f 1078 1081 1079
f 1073 1081 1078
f 1079 1081 1073
f 1094 1074 1077
f 1094 1082 1074
f 1077 1070 1094
f 1082 1094 1069
f 1069 1096 1082
f 1096 1097 1085
f 1082 1096 1074
f 1077 1101 1071
f 1101 1077 1084
f 1080 1083 1073
f 1077 1074 1084
f 1099 1083 1085
f 1083 1099 1079
f 1097 1099 1085
f 1083 1079 1073
f 1096 1085 1074
f 1048 1086 1051
f 1051 1086 1050
f 1043 1087 1086
f 1086 1087 1091
f 1086 1088 1050
f 1088 1089 1050
f 1086 1091 1088
f 1091 1092 1088
f 1050 1089 1068
f 1043 1078 1087
f 1068 1089 1090
f 1091 1087 1092
f 1087 1093 1092
f 1092 1093 1088
f 1088 1095 1089
f 1090 1089 1095
f 1095 1088 1096
f 1094 1095 1069
f 1069 1095 1096
f 1094 1090 1095
f 1096 1088 1097
f 1068 1090 1094
f 1088 1093 1097
f 1087 1078 1098
f 1087 1098 1093
f 1078 1079 1098
f 1093 1099 1097
f 1099 1093 1098
f 1079 1099 1098
f 1072 1100 1065
f 1063 1065 1100
f 1063 1100 1073
f 1100 1072 1071
f 1100 1071 1101
f 1101 1105 1100
f 1100 1080 1073
f 1100 1107 1080
f 1101 1104 1102
f 1105 1102 1075
f 1105 1101 1102
f 1101 1103 1104
f 1104 1103 1075
f 1102 1104 1075
f 1105 1075 1106
f 1100 1105 1107
f 1105 1106 1107
f 1080 1107 1083
f 1107 1106 1085
f 1107 1085 1083
f 1267 1226 1282
f 1226 1227 1282
f 1267 1236 1226
f 1226 1236 1235
f 1267 1251 1236
f 1267 1263 1251
f 1267 1255 1263
f 1282 1227 1257
f 1285 1282 1257
f 1285 1257 1263
f 1285 1263 1264
f 1265 1255 1266
f 1263 1255 1265
f 1263 1265 1266
f 1266 1255 1264
f 1263 1266 1264
f 1267 1282 1277
f 1277 1282 1273
f 1282 1283 1273
f 1277 1273 1346
f 1267 1277 1255
f 1277 1279 1278
f 1277 1346 1349
f 1279 1277 1280
f 1280 1277 1281
f 1277 1278 1255
f 1278 1279 1255
f 1277 1349 1281
f 1279 1280 1255
f 1280 1281 1255
f 1281 1349 1255
f 1282 1284 1283
f 1282 1285 1284
f 1284 1285 1289
f 1285 1346 1289
f 1285 1348 1346
f 1285 1264 1348
f 1350 1349 1346
f 1255 1349 1350
f 1255 1350 1348
f 1350 1346 1348
f 1255 1348 1264
f 1271 1269 1273
f 1269 1271 1272
f 1271 1283 1272
f 1272 1274 1269
f 1271 1273 1283
f 1272 1283 1274
f 1269 1274 1275
f 1274 1283 1275
f 1269 1275 1268
f 1276 1268 1270
f 1276 1287 1268
f 1269 1288 1273
f 1275 1283 1284
f 1275 1284 1268
f 1268 1284 1289
f 1276 1303 1287
f 1270 1286 1276
f 1286 1302 1276
f 1288 1291 1273
f 1268 1289 1290
f 1269 1291 1288
f 1268 1286 1270
f 1268 1290 1292
f 1268 1292 1286
f 1293 1346 1273
f 1291 1293 1273
f 1346 1290 1289
f 1294 1295 1346
f 1294 1346 1295
f 1293 1295 1346
f 1295 1298 1346
f 1290 1346 1292
f 1269 1296 1291
f 1268 1314 1269
f 1269 1314 1296
f 1268 1287 1314
f 1302 1286 1312
f 1292 1299 1286
f 1346 1352 1292
f 1346 1298 1352
f 1295 1352 1298
f 1312 1286 1300
f 1303 1276 1302
f 1287 1303 1313
f 1303 1302 1304
f 1303 1304 1301
f 1301 1305 1303
f 1301 1307 1305
f 1304 1306 1301
f 1301 1306 1307
f 1307 1308 1309
f 1307 1306 1308
f 1308 1310 1309
f 1308 1306 1310
f 1302 1312 1304
f 1287 1313 1314
f 1311 1314 1328
f 1314 1311 1296
f 1303 1315 1313
f 1303 1305 1315
f 1305 1307 1309
f 1305 1309 1315
f 1304 1324 1306
f 1310 1306 1330
f 1309 1310 1316
f 1315 1309 1334
f 1309 1316 1334
f 1316 1310 1317
f 1316 1317 1318
f 1316 1318 1319
f 1316 1319 1320
f 1310 1330 1332
f 1310 1332 1317
f 1316 1320 1321
f 1316 1321 1322
f 1316 1322 1323
f 1316 1323 1334
f 1312 1329 1304
f 1304 1329 1324
f 1296 1311 1297
f 1312 1326 1329
f 1312 1300 1326
f 1311 1328 1325
f 1311 1325 1297
f 1326 1300 1339
f 1326 1339 1329
f 1360 1325 1361
f 1327 1361 1325
f 1360 1341 1339
f 1361 1341 1360
f 1306 1324 1330
f 1313 1315 1314
f 1314 1315 1328
f 1315 1337 1328
f 1330 1324 1329
f 1329 1339 1330
f 1328 1337 1338
f 1328 1338 1327
f 1315 1331 1337
f 1334 1331 1315
f 1334 1337 1331
f 1317 1333 1318
f 1318 1335 1319
f 1332 1335 1333
f 1335 1332 1336
f 1317 1332 1333
f 1318 1333 1335
f 1319 1335 1336
f 1319 1336 1320
f 1320 1343 1321
f 1321 1344 1322
f 1334 1323 1342
f 1322 1345 1323
f 1320 1336 1343
f 1321 1343 1344
f 1322 1344 1345
f 1323 1345 1342
f 1337 1334 1338
f 1328 1327 1325
f 1340 1339 1341
f 1330 1339 1340
f 1330 1340 1341
f 1332 1330 1341
f 1327 1338 1342
f 1342 1341 1361
f 1342 1361 1327
f 1336 1332 1343
f 1332 1344 1343
f 1332 1342 1344
f 1342 1345 1344
f 1338 1334 1342
f 1341 1342 1332
f 1291 1296 1347
f 1291 1347 1293
f 1295 1293 1351
f 1293 1355 1351
f 1296 1297 1347
f 1295 1351 1352
f 1292 1352 1299
f 1286 1299 1300
f 1347 1297 1353
f 1347 1353 1354
f 1293 1347 1355
f 1347 1354 1355
f 1299 1352 1300
f 1352 1357 1300
f 1357 1352 1356
f 1351 1356 1352
f 1351 1355 1357
f 1351 1357 1356
f 1355 1354 1358
f 1358 1357 1355
f 1297 1325 1353
f 1325 1359 1353
f 1353 1359 1354
f 1339 1300 1357
f 1359 1360 1354
f 1325 1360 1359
f 1339 1357 1358
f 1360 1339 1358
f 1360 1358 1354
f 1177 1183 1178
f 1178 1183 1179
f 1179 1183 1180
f 1177 1182 1183
f 1180 1183 1181
f 1181 1183 1184
f 1184 1183 1209
f 1183 1182 1209
f 1185 1186 1193
f 1186 1187 1193
f 1187 1189 1193
f 1193 1188 1203
f 1185 1178 1186
f 1185 1193 1177
f 1186 1179 1187
f 1187 1180 1189
f 1193 1191 1177
f 1186 1178 1179
f 1185 1177 1178
f 1187 1179 1180
f 1180 1181 1189
f 1177 1191 1182
f 1181 1190 1189
f 1192 1190 1184
f 1182 1191 1199
f 1182 1199 1195
f 1193 1189 1190
f 1192 1193 1190
f 1193 1192 1196
f 1181 1184 1190
f 1192 1184 1194
f 1182 1195 1216
f 1188 1193 1196
f 1188 1196 1192
f 1193 1202 1191
f 1193 1203 1202
f 1191 1202 1199
f 1195 1199 1197
f 1199 1206 1197
f 1192 1201 1200
f 1197 1206 1195
f 1199 1202 1206
f 1188 1237 1203
f 1188 1192 1237
f 1192 1239 1237
f 1192 1200 1198
f 1200 1204 1198
f 1200 1205 1204
f 1198 1239 1192
f 1203 1206 1202
f 1237 1207 1203
f 1203 1207 1206
f 1198 1204 1239
f 1206 1207 1220
f 1184 1209 1208
f 1182 1216 1209
f 1184 1208 1194
f 1209 1216 1208
f 1208 1192 1194
f 1192 1208 1201
f 1208 1216 1211
f 1217 1211 1216
f 1208 1210 1201
f 1208 1211 1210
f 1211 1213 1210
f 1210 1212 1201
f 1213 1211 1217
f 1213 1214 1210
f 1213 1215 1256
f 1216 1195 1217
f 1195 1218 1217
f 1206 1218 1195
f 1206 1219 1218
f 1217 1218 1213
f 1218 1219 1213
f 1200 1201 1212
f 1212 1205 1200
f 1212 1210 1205
f 1210 1214 1205
f 1219 1206 1215
f 1219 1215 1213
f 1206 1229 1215
f 1229 1206 1220
f 1239 1204 1244
f 1205 1244 1204
f 1213 1256 1214
f 1214 1223 1221
f 1256 1215 1225
f 1223 1224 1221
f 1224 1226 1221
f 1260 1227 1226
f 1214 1228 1205
f 1205 1228 1249
f 1214 1221 1228
f 1221 1222 1228
f 1220 1252 1229
f 1225 1215 1229
f 1231 1236 1232
f 1249 1228 1231
f 1250 1249 1231
f 1222 1231 1228
f 1232 1250 1231
f 1250 1232 1233
f 1232 1236 1233
f 1250 1233 1251
f 1221 1226 1222
f 1222 1226 1235
f 1225 1234 1258
f 1222 1235 1236
f 1231 1222 1236
f 1230 1251 1263
f 1230 1263 1262
f 1225 1229 1234
f 1262 1229 1230
f 1229 1262 1234
f 1233 1236 1251
f 1240 1237 1241
f 1237 1240 1245
f 1237 1238 1207
f 1240 1241 1242
f 1237 1239 1241
f 1237 1245 1238
f 1241 1239 1242
f 1239 1244 1242
f 1240 1242 1245
f 1244 1248 1242
f 1207 1238 1220
f 1205 1249 1244
f 1242 1243 1245
f 1250 1247 1246
f 1243 1247 1250
f 1242 1247 1243
f 1248 1246 1242
f 1242 1246 1247
f 1248 1244 1249
f 1250 1246 1248
f 1248 1249 1250
f 1250 1251 1243
f 1220 1238 1252
f 1238 1253 1252
f 1245 1253 1238
f 1253 1229 1252
f 1243 1251 1254
f 1245 1243 1254
f 1230 1245 1254
f 1253 1245 1230
f 1253 1230 1229
f 1251 1230 1254
f 1214 1256 1223
f 1225 1258 1256
f 1256 1224 1223
f 1256 1257 1224
f 1256 1258 1257
f 1224 1259 1261
f 1257 1227 1259
f 1257 1259 1224
f 1226 1224 1260
f 1224 1261 1260
f 1261 1227 1260
f 1259 1227 1261
f 1257 1234 1262
f 1258 1234 1257
f 1262 1263 1257
f 1413 1414 1425
f 1413 1463 1414
f 1413 1425 1423
f 1441 1413 1426
f 1426 1424 1448
f 1426 1448 1441
f 1463 1448 1414
f 1448 1450 1441
f 1441 1450 1460
f 1450 1535 1460
f 1448 1463 1450
f 1450 1463 1535
f 1413 1451 1463
f 1451 1473 1463
f 1463 1473 1464
f 1413 1441 1451
f 1451 1476 1473
f 1441 1460 1451
f 1451 1460 1461
f 1451 1462 1476
f 1461 1462 1451
f 1461 1460 1462
f 1463 1464 1465
f 1463 1465 1466
f 1466 1465 1474
f 1533 1474 1476
f 1466 1474 1533
f 1466 1533 1463
f 1460 1533 1462
f 1462 1533 1476
f 1460 1535 1533
f 1463 1533 1535
f 1452 1454 1473
f 1452 1455 1454
f 1473 1454 1464
f 1454 1455 1456
f 1454 1456 1464
f 1455 1457 1456
f 1456 1457 1464
f 1473 1453 1452
f 1458 1469 1452
f 1452 1469 1455
f 1469 1468 1455
f 1453 1473 1459
f 1457 1465 1464
f 1457 1455 1465
f 1455 1467 1465
f 1455 1468 1471
f 1468 1469 1471
f 1469 1472 1471
f 1459 1473 1476
f 1467 1474 1465
f 1453 1459 1481
f 1455 1471 1477
f 1467 1455 1477
f 1467 1477 1474
f 1459 1476 1475
f 1478 1476 1474
f 1474 1483 1478
f 1478 1536 1476
f 1478 1483 1536
f 1477 1482 1474
f 1453 1479 1452
f 1452 1479 1458
f 1479 1480 1458
f 1458 1480 1486
f 1471 1472 1477
f 1477 1472 1482
f 1472 1484 1482
f 1481 1479 1453
f 1479 1509 1480
f 1476 1536 1475
f 1474 1482 1483
f 1482 1485 1510
f 1484 1485 1482
f 1458 1470 1469
f 1458 1486 1487
f 1469 1470 1472
f 1470 1488 1472
f 1458 1489 1470
f 1458 1497 1489
f 1458 1487 1497
f 1470 1489 1488
f 1486 1490 1487
f 1489 1497 1518
f 1489 1518 1488
f 1488 1518 1514
f 1518 1497 1491
f 1518 1491 1492
f 1518 1492 1515
f 1491 1493 1492
f 1492 1493 1515
f 1497 1494 1491
f 1491 1494 1499
f 1486 1480 1490
f 1472 1495 1484
f 1488 1495 1472
f 1488 1514 1495
f 1490 1496 1487
f 1487 1496 1497
f 1496 1498 1497
f 1496 1490 1498
f 1491 1499 1493
f 1499 1500 1493
f 1499 1501 1500
f 1499 1502 1501
f 1499 1503 1502
f 1493 1519 1515
f 1493 1500 1520
f 1499 1504 1503
f 1499 1505 1504
f 1499 1506 1505
f 1499 1494 1506
f 1514 1508 1495
f 1495 1508 1507
f 1484 1495 1485
f 1495 1510 1485
f 1507 1510 1495
f 1490 1480 1517
f 1517 1480 1509
f 1544 1511 1507
f 1512 1544 1507
f 1531 1532 1513
f 1513 1545 1544
f 1512 1513 1544
f 1514 1515 1508
f 1515 1516 1508
f 1514 1518 1515
f 1490 1517 1498
f 1516 1507 1508
f 1516 1519 1507
f 1519 1512 1507
f 1525 1509 1532
f 1497 1498 1521
f 1497 1521 1494
f 1493 1520 1519
f 1500 1501 1522
f 1501 1502 1523
f 1517 1525 1498
f 1498 1525 1521
f 1515 1519 1516
f 1520 1522 1519
f 1519 1522 1526
f 1526 1522 1523
f 1523 1524 1526
f 1500 1522 1520
f 1501 1523 1522
f 1502 1524 1523
f 1502 1503 1524
f 1503 1504 1527
f 1504 1505 1528
f 1494 1530 1506
f 1505 1506 1529
f 1503 1527 1524
f 1504 1528 1527
f 1505 1529 1528
f 1506 1530 1529
f 1494 1525 1530
f 1521 1525 1494
f 1517 1509 1525
f 1519 1526 1512
f 1525 1532 1531
f 1526 1531 1513
f 1524 1527 1526
f 1526 1527 1528
f 1531 1529 1530
f 1531 1526 1529
f 1526 1528 1529
f 1525 1531 1530
f 1526 1513 1512
f 1481 1459 1479
f 1483 1482 1536
f 1475 1536 1539
f 1475 1539 1459
f 1536 1542 1537
f 1536 1542 1539
f 1536 1537 1542
f 1541 1536 1482
f 1479 1459 1534
f 1479 1534 1509
f 1534 1538 1509
f 1541 1482 1510
f 1459 1538 1534
f 1459 1539 1540
f 1538 1543 1544
f 1541 1542 1536
f 1540 1538 1459
f 1540 1539 1538
f 1538 1539 1543
f 1539 1542 1543
f 1541 1543 1542
f 1509 1538 1532
f 1507 1541 1510
f 1507 1511 1541
f 1532 1538 1545
f 1532 1545 1513
f 1538 1544 1545
f 1511 1543 1541
f 1511 1544 1543
f 1365 1362 1368
f 1362 1363 1368
f 1363 1364 1368
f 1365 1368 1396
f 1364 1366 1368
f 1366 1367 1368
f 1369 1368 1367
f 1369 1393 1368
f 1368 1393 1397
f 1369 1367 1370
f 1372 1376 1373
f 1373 1376 1375
f 1372 1374 1376
f 1375 1376 1379
f 1376 1377 1385
f 1372 1373 1362
f 1372 1365 1374
f 1373 1375 1363
f 1375 1379 1364
f 1373 1363 1362
f 1372 1362 1365
f 1375 1364 1363
f 1364 1379 1366
f 1365 1396 1374
f 1366 1379 1380
f 1367 1380 1378
f 1382 1367 1378
f 1396 1381 1374
f 1376 1380 1379
f 1380 1376 1378
f 1382 1378 1376
f 1376 1385 1382
f 1366 1380 1367
f 1382 1370 1367
f 1386 1370 1382
f 1382 1385 1386
f 1374 1381 1376
f 1370 1386 1384
f 1381 1383 1392
f 1392 1376 1381
f 1377 1387 1385
f 1389 1386 1385
f 1386 1389 1384
f 1385 1387 1427
f 1371 1384 1390
f 1384 1389 1390
f 1377 1376 1406
f 1390 1389 1388
f 1376 1392 1406
f 1377 1406 1417
f 1369 1394 1393
f 1395 1397 1393
f 1395 1393 1394
f 1368 1397 1396
f 1369 1370 1394
f 1396 1400 1381
f 1396 1397 1400
f 1395 1394 1370
f 1395 1398 1397
f 1395 1399 1398
f 1399 1395 1370
f 1384 1399 1370
f 1371 1399 1384
f 1398 1400 1397
f 1399 1390 1401
f 1399 1403 1398
f 1399 1401 1403
f 1401 1404 1403
f 1402 1398 1403
f 1402 1403 1404
f 1381 1400 1383
f 1383 1400 1398
f 1398 1402 1383
f 1371 1390 1399
f 1383 1402 1392
f 1402 1391 1392
f 1390 1405 1401
f 1391 1406 1392
f 1390 1407 1405
f 1390 1388 1407
f 1404 1401 1409
f 1404 1410 1411
f 1404 1409 1410
f 1402 1412 1391
f 1443 1425 1445
f 1445 1425 1414
f 1401 1405 1415
f 1407 1415 1405
f 1401 1415 1409
f 1409 1416 1410
f 1407 1409 1415
f 1391 1417 1406
f 1407 1435 1409
f 1391 1412 1417
f 1417 1420 1418
f 1412 1420 1417
f 1418 1420 1412
f 1435 1413 1416
f 1435 1421 1413
f 1416 1409 1435
f 1421 1435 1408
f 1408 1437 1421
f 1437 1438 1426
f 1421 1437 1413
f 1416 1443 1410
f 1443 1416 1425
f 1419 1422 1412
f 1416 1413 1423
f 1425 1416 1423
f 1440 1422 1424
f 1422 1440 1418
f 1438 1440 1424
f 1422 1418 1412
f 1437 1426 1413
f 1438 1424 1426
f 1385 1427 1389
f 1389 1427 1388
f 1387 1428 1427
f 1387 1377 1428
f 1427 1428 1432
f 1427 1429 1388
f 1429 1430 1388
f 1427 1432 1429
f 1432 1433 1429
f 1388 1430 1407
f 1377 1417 1428
f 1407 1430 1431
f 1432 1428 1433
f 1428 1434 1433
f 1433 1434 1429
f 1429 1436 1430
f 1431 1430 1436
f 1436 1429 1437
f 1435 1436 1408
f 1408 1436 1437
f 1435 1431 1436
f 1437 1429 1438
f 1407 1431 1435
f 1429 1434 1438
f 1428 1417 1439
f 1428 1439 1434
f 1417 1418 1439
f 1434 1440 1438
f 1440 1434 1439
f 1418 1440 1439
f 1411 1442 1404
f 1402 1404 1442
f 1402 1442 1412
f 1442 1411 1410
f 1442 1410 1443
f 1443 1447 1442
f 1442 1419 1412
f 1442 1449 1419
f 1443 1446 1444
f 1447 1444 1414
f 1447 1443 1444
f 1443 1445 1446
f 1446 1445 1414
f 1444 1446 1414
f 1447 1414 1448
f 1442 1447 1449
f 1447 1448 1449
f 1419 1449 1422
f 1449 1448 1424
f 1449 1424 1422
