v -0.151330 -0.171237 0.009711
v -0.145308 -0.153324 0.014634
v -0.137549 -0.184974 0.009869
v -0.126872 -0.179181 0.009864
v -0.116356 -0.184661 0.016978
v -0.120500 -0.158190 0.015843
v -0.119046 -0.177241 0.013318
v -0.126586 -0.166278 0.009875
v -0.160493 -0.178804 0.016695
v -0.144231 -0.193543 0.015940
v -0.126178 -0.156187 0.013975
v -0.156425 -0.156346 0.037775
v -0.128294 -0.193438 0.039995
v -0.155794 -0.188037 0.037173
v -0.122007 -0.188010 0.037607
v -0.125255 -0.157452 0.042593
v -0.157475 -0.177093 0.042720
v -0.144993 -0.157776 0.043222
v -0.132961 -0.150428 0.039488
v -0.135893 -0.181810 0.043683
v -0.144652 -0.180179 0.043692
v -0.134271 -0.181376 0.043683
v -0.130152 -0.178888 0.043686
v -0.130187 -0.166134 0.043683
v -0.121392 -0.160123 0.041571
v -0.115197 -0.173798 0.040542
v -0.120993 -0.166796 0.042765
v -0.150099 0.168873 0.009814
v -0.116757 0.169780 0.014922
v -0.140901 0.159535 0.009853
v -0.122309 0.183608 0.013605
v -0.125034 0.172072 0.009875
v -0.125686 0.176667 0.009869
v -0.158212 0.160446 0.017770
v -0.142456 0.150272 0.018280
v -0.153535 0.182561 0.013752
v -0.129660 0.155012 0.013639
v -0.138103 0.192199 0.013965
v -0.154112 0.190625 0.036842
v -0.140584 0.149628 0.041251
v -0.119455 0.157584 0.036017
v -0.133038 0.195013 0.035552
v -0.118659 0.185596 0.039399
v -0.114462 0.170748 0.036010
v -0.159419 0.163850 0.036791
v -0.140211 0.163031 0.043684
v -0.145967 0.166798 0.043685
v -0.155349 0.179350 0.042254
v -0.141255 0.188933 0.043197
v -0.145113 0.189112 0.041997
v -0.136873 0.162686 0.043684
v -0.122269 0.162943 0.042710
v -0.132520 0.180635 0.043684
v -0.127765 0.188758 0.042297
v -0.127846 0.172111 0.043684
v -0.123330 0.182399 0.042697
v 0.120619 -0.170277 0.011180
v 0.122206 -0.187896 0.015879
v 0.142274 -0.192781 0.014712
v 0.131056 -0.154007 0.013321
v 0.142819 -0.183751 0.009873
v 0.153237 -0.181833 0.012987
v 0.149858 -0.156600 0.014543
v 0.158489 -0.168829 0.015305
v 0.118521 -0.183517 0.040095
v 0.115664 -0.161915 0.037783
v 0.127750 -0.192409 0.040802
v 0.137722 -0.148811 0.036038
v 0.155810 -0.186119 0.039982
v 0.159528 -0.178611 0.038299
v 0.157167 -0.159649 0.039111
v 0.142351 -0.195153 0.036332
v 0.125854 -0.183549 0.043397
v 0.125001 -0.159041 0.042352
v 0.134672 -0.155380 0.042931
v 0.141484 -0.181309 0.043685
v 0.146776 -0.175957 0.043686
v 0.155632 -0.175511 0.041992
v 0.144504 -0.165599 0.043684
v 0.141785 -0.163632 0.043684
v 0.146772 -0.169203 0.043684
v 0.140751 -0.154258 0.041992
v 0.151387 -0.159165 0.042041
v 0.144992 0.155037 0.012810
v 0.124475 0.152951 0.017805
v 0.114521 0.172235 0.018093
v 0.124201 0.167289 0.009796
v 0.130166 0.191185 0.013901
v 0.136537 0.184859 0.009873
v 0.144723 0.161985 0.009873
v 0.155070 0.165018 0.013752
v 0.159141 0.177027 0.016538
v 0.149445 0.176666 0.009869
v 0.147778 0.187876 0.013364
v 0.118928 0.183394 0.042470
v 0.125407 0.191219 0.038663
v 0.137666 0.194691 0.040597
v 0.139495 0.148475 0.034350
v 0.151683 0.153828 0.040921
v 0.143772 0.194745 0.036018
v 0.156910 0.184512 0.038548
v 0.118316 0.165792 0.042094
v 0.124590 0.154054 0.037642
v 0.130047 0.165219 0.043689
v 0.139865 0.162798 0.043685
v 0.157793 0.164847 0.040794
v 0.153660 0.171781 0.043120
v 0.155407 0.176843 0.041997
g motor
f 85 86 87
f 87 88 89
f 87 89 94
f 87 90 84
f 87 91 90
f 87 94 93
f 87 92 91
f 87 93 92
f 84 85 87
f 87 86 88
f 89 88 94
f 91 84 90
f 94 92 93
f 86 95 88
f 84 98 85
f 91 99 84
f 88 100 94
f 94 101 92
f 95 96 88
f 96 97 88
f 97 100 88
f 99 98 84
f 106 99 91
f 92 106 91
f 100 101 94
f 85 102 86
f 103 102 85
f 86 102 95
f 98 103 85
f 101 106 92
f 98 99 103
f 100 97 101
f 101 108 106
f 99 102 103
f 99 104 102
f 105 104 99
f 104 95 102
f 96 95 97
f 106 105 99
f 104 105 106
f 104 106 107
f 108 107 106
f 104 107 95
f 95 107 101
f 97 95 101
f 101 107 108
f 30 28 36
f 30 36 38
f 30 29 37
f 30 38 31
f 30 31 33
f 30 32 29
f 30 33 32
f 35 34 30
f 30 34 28
f 28 34 36
f 37 35 30
f 33 29 32
f 31 29 33
f 34 39 36
f 36 39 38
f 37 40 35
f 29 41 37
f 38 43 31
f 45 39 34
f 41 40 37
f 39 42 38
f 42 43 38
f 31 43 29
f 44 41 29
f 43 44 29
f 35 40 34
f 40 45 34
f 42 54 43
f 45 48 39
f 39 49 42
f 40 48 45
f 40 47 48
f 46 47 40
f 48 50 39
f 50 49 39
f 47 49 48
f 48 49 50
f 52 40 41
f 51 46 40
f 47 46 51
f 47 51 52
f 52 51 40
f 47 52 55
f 49 54 42
f 54 56 43
f 47 54 49
f 47 53 54
f 47 56 53
f 47 55 56
f 43 55 52
f 56 55 43
f 54 53 56
f 44 52 41
f 43 52 44
f 1 3 10
f 1 5 3
f 1 4 5
f 1 7 4
f 1 2 11
f 1 6 8
f 1 11 6
f 1 8 7
f 10 9 1
f 9 2 1
f 5 10 3
f 7 5 4
f 8 6 7
f 9 12 2
f 5 13 10
f 2 19 11
f 10 14 9
f 14 12 9
f 12 19 2
f 19 6 11
f 6 26 7
f 26 5 7
f 13 14 10
f 19 16 6
f 16 25 6
f 5 15 13
f 6 25 26
f 14 17 12
f 15 26 13
f 13 17 14
f 13 21 17
f 21 18 17
f 18 19 12
f 17 18 12
f 20 21 13
f 22 20 13
f 23 22 13
f 21 20 22
f 21 22 23
f 21 23 27
f 26 23 13
f 27 23 26
f 21 16 18
f 18 16 19
f 21 24 16
f 21 25 24
f 21 27 25
f 16 24 25
f 5 26 15
f 25 27 26
f 57 59 58
f 57 61 59
f 57 62 61
f 57 64 62
f 57 63 64
f 57 60 63
f 62 59 61
f 57 66 60
f 58 66 57
f 62 69 59
f 64 70 62
f 60 68 63
f 63 71 64
f 67 65 58
f 59 67 58
f 66 68 60
f 69 72 59
f 70 69 62
f 68 71 63
f 58 65 66
f 59 72 67
f 64 71 70
f 66 74 68
f 68 83 71
f 67 73 65
f 65 73 66
f 76 73 67
f 74 75 68
f 75 82 68
f 73 74 66
f 73 75 74
f 73 80 75
f 69 67 72
f 71 78 70
f 69 76 67
f 73 76 77
f 73 77 81
f 77 76 69
f 81 77 71
f 70 77 69
f 78 77 70
f 71 77 78
f 82 83 68
f 73 81 79
f 73 79 80
f 75 80 83
f 80 79 83
f 79 81 83
f 82 75 83
f 83 81 71
