v 0.121328 -0.155322 -0.066746
v 0.129848 -0.158377 -0.039412
v 0.128722 -0.162922 -0.050561
v 0.136692 -0.169876 -0.022352
v 0.126901 -0.155217 -0.068556
v 0.130032 -0.157351 -0.045552
v 0.126955 -0.162852 -0.052956
v 0.131490 -0.174749 -0.002137
v 0.138870 -0.166013 -0.000019
v 0.134060 -0.170622 -0.023733
v 0.138064 -0.164824 -0.010435
v 0.134436 -0.177598 -0.003442
v 0.135404 -0.174257 -0.017267
v 0.122691 0.158049 -0.068357
v 0.121455 0.154865 -0.066281
v 0.126531 0.154032 -0.068138
v 0.126454 0.157836 -0.047252
v 0.129261 0.162492 -0.050561
v 0.128214 0.159967 -0.037764
v 0.130709 0.160409 -0.031171
v 0.131696 0.162202 -0.049107
v 0.128135 0.160851 -0.038168
v 0.129974 0.162098 -0.028277
v 0.130486 0.171604 -0.015658
v 0.133002 0.162410 -0.043859
v 0.134011 0.177799 -0.003813
v 0.131632 0.173719 -0.004142
v 0.133143 0.175856 -0.004429
v 0.131243 0.172529 -0.000234
v 0.131639 0.173697 -0.004153
v 0.132613 0.175250 -0.003032
v 0.132751 0.175487 -0.002865
v 0.132773 0.175472 -0.002864
v 0.133083 0.175903 -0.002538
v 0.139715 0.166267 -0.001687
v 0.153099 -0.186785 -0.068056
v 0.148349 -0.189566 -0.068435
v 0.150304 -0.185403 -0.047595
v 0.150722 -0.192170 -0.066271
v 0.147545 -0.184183 -0.037764
v 0.142426 -0.169379 -0.008670
v 0.141176 -0.174680 -0.028133
v 0.144649 -0.183180 -0.030210
v 0.136464 -0.178356 -0.000082
v 0.140216 -0.166850 -0.004153
v 0.141515 -0.168144 -0.003032
v 0.140239 -0.166848 -0.004142
v 0.143978 -0.171713 -0.001543
v 0.141530 -0.168162 -0.003127
v 0.141696 -0.168349 -0.002864
v 0.141715 -0.168331 -0.002865
v 0.142047 -0.168747 -0.002538
v 0.145857 -0.181994 -0.028277
v 0.143722 0.172822 0.000043
v 0.136398 0.173311 -0.017032
v 0.141814 0.169198 -0.013373
v 0.141784 0.168268 -0.002720
v 0.143493 0.170978 -0.004162
v 0.143499 0.170932 -0.004142
v 0.142047 0.168747 -0.002538
v 0.142358 0.169178 -0.002864
v 0.142380 0.169164 -0.002865
v 0.142518 0.169401 -0.003032
v 0.151049 0.189759 -0.068009
g gear
f 64 55 26
f 27 30 31
f 27 32 30
f 27 31 32
f 32 28 30
f 32 31 33
f 32 33 34
f 32 34 28
f 26 34 35
f 55 64 56
f 64 26 54
f 54 56 64
f 26 35 54
f 54 35 60
f 54 60 61
f 54 61 63
f 54 63 58
f 56 58 57
f 56 54 58
f 14 16 15
f 14 15 29
f 16 20 17
f 16 14 18
f 16 18 21
f 29 24 14
f 16 17 15
f 15 17 22
f 17 20 19
f 14 24 26
f 17 19 22
f 19 20 23
f 16 21 25
f 14 55 18
f 18 55 21
f 21 55 25
f 19 23 22
f 22 29 15
f 22 23 29
f 23 20 35
f 23 35 29
f 55 56 25
f 26 55 14
f 29 30 24
f 24 30 28
f 24 28 26
f 29 31 30
f 29 33 31
f 29 34 33
f 26 28 34
f 16 35 20
f 29 35 34
f 25 56 16
f 16 56 35
f 35 56 57
f 57 60 35
f 59 57 58
f 62 60 57
f 62 61 60
f 62 63 61
f 59 63 62
f 59 62 57
f 59 58 63
f 44 48 12
f 37 13 36
f 36 13 42
f 8 37 39
f 39 44 12
f 37 36 39
f 39 36 38
f 39 12 8
f 44 39 43
f 40 39 38
f 43 39 40
f 40 38 53
f 38 36 48
f 41 48 36
f 13 37 8
f 42 13 41
f 42 41 36
f 43 53 44
f 47 45 46
f 47 51 45
f 47 46 51
f 51 49 45
f 51 52 49
f 51 46 50
f 51 50 52
f 48 41 52
f 40 53 43
f 38 48 53
f 44 53 48
f 1 5 7
f 5 3 7
f 5 4 3
f 1 9 2
f 1 2 6
f 1 6 5
f 3 4 10
f 3 10 7
f 6 49 5
f 1 8 9
f 1 7 8
f 7 10 8
f 5 49 41
f 2 11 6
f 5 41 4
f 8 10 13
f 10 4 13
f 4 41 13
f 6 11 49
f 2 9 11
f 8 12 48
f 8 48 9
f 11 45 49
f 11 9 45
f 9 48 52
f 9 46 45
f 9 50 46
f 9 52 50
f 41 49 52
