v -0.136921 -0.171472 -0.002359
v -0.133765 -0.174648 -0.002754
v -0.080144 -0.090727 -0.003666
v -0.090967 -0.107001 -0.001761
v -0.074899 -0.026908 -0.045722
v -0.080285 -0.010538 -0.047098
v -0.083789 0.002489 -0.046813
v -0.102087 -0.022547 -0.042838
v -0.075658 -0.039357 -0.038282
v -0.101924 -0.039307 -0.030473
v -0.085526 -0.046695 -0.013367
v -0.055591 -0.047469 -0.032695
v -0.061196 -0.020405 -0.048250
v -0.058931 -0.034597 -0.044469
v -0.049803 -0.028473 -0.046955
v -0.061618 -0.045658 -0.033678
v -0.011236 -0.049837 -0.034693
v -0.038912 -0.011161 -0.049239
v -0.020044 -0.018106 -0.049129
v -0.000586 -0.024723 -0.048655
v -0.009375 -0.036050 -0.045348
v -0.013232 -0.008867 -0.049569
v 0.013301 0.014895 -0.050335
v -0.045888 -0.053131 -0.014137
v -0.068388 -0.049450 -0.022835
v -0.057804 -0.052119 0.009775
v -0.039278 -0.053719 -0.015108
v -0.065056 -0.067421 -0.006997
v -0.051882 -0.052632 -0.011702
v -0.050800 -0.052678 -0.012583
v -0.053727 -0.052448 -0.009740
v -0.055764 -0.052265 -0.006971
v -0.057945 -0.085757 -0.004677
v -0.019625 -0.052734 -0.030165
v -0.033469 -0.054150 -0.015259
v -0.030886 -0.054831 -0.010275
v -0.144356 -0.166626 0.003962
v -0.129906 -0.178735 0.012739
v -0.144868 -0.166456 0.008436
v -0.096668 -0.137112 0.006910
v -0.081592 -0.118546 0.004789
v -0.140463 -0.170790 0.021051
v -0.123318 -0.142330 0.022699
v -0.111895 -0.154138 0.019186
v -0.105787 -0.138744 0.025258
v -0.120094 -0.141088 0.000307
v -0.123257 -0.139412 0.019441
v -0.067736 -0.103079 0.017279
v -0.104115 -0.120683 0.000111
v -0.091409 -0.120999 -0.000993
v -0.080609 -0.114518 0.001099
v -0.103027 -0.114029 0.004415
v -0.045463 -0.077032 0.009022
v -0.088622 -0.122115 0.024554
v -0.082288 -0.087747 0.021080
v -0.083779 -0.095963 0.024996
v -0.097323 -0.118745 0.026042
v -0.070370 -0.096368 0.024710
v -0.074035 -0.074606 0.015246
v -0.071313 -0.082486 0.023914
v -0.083751 -0.047214 0.016938
v -0.101990 -0.041528 0.023897
v -0.079643 -0.047016 0.028395
v -0.101943 -0.034439 0.041564
v -0.083396 -0.037379 0.040391
v -0.101995 0.003491 0.047865
v -0.054235 -0.040934 0.042918
v -0.076060 -0.013099 0.049829
v -0.073098 -0.032906 0.046043
v -0.050793 -0.081145 0.016115
v -0.060790 -0.089934 0.021437
v -0.092986 -0.098063 0.010394
v -0.066347 -0.063056 0.005119
v -0.070449 -0.068870 0.010345
v -0.029634 -0.055815 -0.009821
v -0.062844 -0.067511 0.020645
v -0.042202 -0.063895 0.018856
v -0.052513 -0.052269 0.016473
v -0.053841 -0.060093 0.020105
v -0.045543 -0.055910 0.018702
v -0.044657 -0.053025 0.018520
v -0.027620 -0.056091 0.001401
v -0.000804 -0.056582 -0.001838
v -0.017137 -0.054694 0.024037
v -0.028174 -0.055147 0.007668
v -0.033835 -0.054305 0.015705
v -0.047876 -0.048617 0.033333
v -0.045111 -0.007853 0.051006
v -0.024338 -0.048770 0.036323
v -0.026435 -0.033294 0.047169
v -0.023061 -0.027552 0.048754
v -0.046285 -0.024188 0.049780
v -0.026135 -0.052647 0.028116
v -0.002044 -0.045532 0.038839
v -0.006592 -0.020405 0.048802
v 0.000920 -0.036263 0.044576
v -0.102034 0.011460 -0.044504
v -0.101846 0.026199 -0.041332
v -0.079150 0.028704 -0.044050
v -0.072308 0.034714 -0.044732
v -0.091870 0.039353 -0.033051
v -0.084169 0.047164 0.014044
v -0.140808 0.169032 -0.002850
v -0.127614 0.153358 -0.001108
v -0.132895 0.175324 -0.001532
v -0.101980 0.122996 -0.000755
v -0.077971 0.104897 -0.002866
v -0.075028 0.011930 -0.047822
v -0.045963 0.023278 -0.048377
v -0.054844 0.041911 -0.040147
v -0.069795 0.047535 -0.029107
v -0.028706 0.052472 -0.027836
v -0.008221 0.019861 -0.049110
v -0.032025 0.043718 -0.040037
v 0.002983 0.038376 -0.044548
v 0.009543 0.044219 -0.041553
v -0.016807 0.048122 -0.036349
v -0.048638 0.052379 -0.018392
v -0.067777 0.050601 0.006293
v -0.069490 0.071489 -0.004884
v -0.082480 0.120712 0.007939
v -0.050866 0.052725 -0.012367
v -0.059909 0.063394 -0.009175
v -0.046839 0.053038 -0.014063
v -0.038992 0.053751 -0.015110
v -0.032562 0.054389 -0.014302
v -0.029972 0.055223 -0.010282
v -0.028144 0.055101 0.008135
v -0.098876 0.042114 0.026751
v -0.101997 0.041794 -0.024622
v -0.072868 0.071363 0.004310
v -0.078896 0.087846 0.024422
v -0.101994 0.024536 0.045438
v -0.077838 0.011608 0.049705
v -0.068593 -0.007573 0.050335
v -0.082181 0.026659 0.047310
v -0.061906 0.041831 0.040592
v -0.101870 0.035465 0.039078
v -0.107313 0.125168 0.000300
v -0.144493 0.166516 0.004505
v -0.130617 0.177583 0.003818
v -0.130071 0.178508 0.010585
v -0.112854 0.126357 0.020027
v -0.143430 0.168235 0.018103
v -0.135040 0.175061 0.020095
v -0.121071 0.143240 0.023973
v -0.108309 0.142652 0.024859
v -0.104866 0.145489 0.021228
v -0.111790 0.122807 0.006955
v -0.099154 0.132561 0.000052
v -0.105954 0.146867 0.004052
v -0.058961 0.085124 -0.005815
v -0.072179 0.071731 0.014974
v -0.094951 0.135801 0.016588
v -0.077196 0.112248 0.020898
v -0.096319 0.118897 0.026560
v -0.093491 0.122056 0.025909
v -0.082223 0.112190 0.025192
v -0.057868 0.052121 -0.003265
v -0.044666 0.076093 0.003128
v -0.027396 0.055750 0.006648
v -0.061363 0.065264 0.020488
v -0.052992 0.052607 0.018079
v -0.055489 0.076550 0.022235
v -0.061112 0.087821 0.022256
v -0.042917 0.064590 0.019433
v -0.043471 0.051195 0.030148
v -0.016069 0.055710 -0.013580
v 0.028312 0.056503 0.005631
v -0.041947 0.053300 0.018372
v -0.013343 0.054438 0.026015
v -0.033054 0.054512 0.014852
v -0.046178 0.020658 0.050195
v -0.035351 -0.000616 0.050854
v -0.052576 0.019064 0.050486
v -0.031650 0.038954 0.045082
v -0.055053 0.033134 0.046901
v -0.073552 0.045707 0.031575
v -0.059787 0.047871 0.031236
v -0.021228 -0.007842 0.050400
v -0.030324 0.018851 0.050291
v -0.021603 0.039824 0.044282
v -0.005286 0.026388 0.047929
v -0.003652 0.020864 0.048393
v -0.002830 0.014202 0.048890
v 0.020102 0.041063 0.040440
v -0.017922 0.050341 0.033274
v -0.012298 0.044329 0.040732
v 0.027976 -0.048258 -0.038678
v 0.061952 -0.052916 -0.030572
v 0.031885 -0.035930 -0.047158
v 0.020578 -0.040127 -0.044535
v 0.012137 -0.000815 -0.050256
v 0.021214 -0.013077 -0.050567
v 0.061210 -0.047385 -0.040910
v 0.038686 -0.040535 -0.045179
v 0.053531 -0.031365 -0.050302
v 0.044493 -0.005044 -0.052370
v 0.057545 -0.019663 -0.052428
v 0.076628 -0.012105 -0.051876
v 0.023491 -0.055973 -0.014462
v 0.032877 -0.055918 -0.013865
v 0.011301 -0.055523 -0.021067
v 0.019954 -0.056222 0.006968
v 0.040149 -0.056226 -0.014940
v 0.068043 -0.053705 -0.008454
v 0.056097 -0.075925 -0.008557
v 0.039093 -0.056322 -0.013575
v 0.048065 -0.073291 -0.008050
v 0.059573 -0.067958 -0.009313
v 0.052127 -0.055604 -0.011964
v 0.060528 -0.062564 -0.007833
v 0.056320 -0.055182 -0.008661
v 0.085612 -0.105424 -0.002571
v 0.078246 -0.085577 -0.002727
v 0.101046 -0.119410 -0.000649
v 0.133500 -0.174883 -0.002516
v 0.142137 -0.168028 -0.001943
v 0.067609 -0.032779 -0.049772
v 0.101780 -0.021283 -0.042155
v 0.082975 -0.042314 -0.038589
v 0.087986 -0.021046 -0.048478
v 0.092344 -0.001715 -0.047987
v 0.100455 -0.032546 -0.029289
v 0.088013 -0.043394 -0.012700
v 0.101638 -0.030377 0.007435
v 0.064960 -0.097502 0.000606
v 0.081149 -0.118545 0.006504
v 0.070168 -0.100708 0.022763
v 0.027781 -0.056171 -0.000103
v 0.033565 -0.055354 0.016075
v 0.039808 -0.069556 -0.001302
v 0.055509 -0.088280 0.003187
v 0.047738 -0.078346 0.014547
v 0.072352 -0.073035 -0.000355
v 0.059880 -0.054446 0.004483
v 0.058625 -0.054879 -0.004511
v 0.068318 -0.070037 0.019637
v 0.060819 -0.054061 0.013123
v 0.051525 -0.084384 0.010668
v 0.066681 -0.092597 0.024467
v 0.038496 -0.061804 0.016221
v 0.049661 -0.053181 0.019186
v 0.053378 -0.061635 0.020395
v 0.049449 -0.069461 0.020928
v 0.060401 -0.059353 0.016011
v 0.058800 -0.054046 0.009462
v 0.063393 -0.048917 0.024149
v 0.063999 -0.073046 0.022371
v 0.013696 -0.047338 0.035661
v 0.035287 -0.042539 0.036307
v 0.002701 -0.015016 0.048440
v 0.036336 -0.012925 0.043917
v 0.040348 -0.023733 0.042225
v 0.027943 -0.036817 0.040476
v 0.052761 -0.042292 0.032701
v 0.062914 -0.032146 0.035345
v 0.071482 -0.036388 0.029177
v 0.070833 -0.010592 0.034839
v 0.111941 -0.151657 0.001644
v 0.110733 -0.147248 0.000096
v 0.097978 -0.139586 0.011823
v 0.130871 -0.177995 0.014912
v 0.082091 -0.117050 0.002083
v 0.078076 -0.106803 -0.002260
v 0.094925 -0.129725 0.000581
v 0.102372 -0.114933 0.002143
v 0.101766 -0.142973 0.006725
v 0.100119 -0.108813 0.005794
v 0.092997 -0.132544 0.019011
v 0.079756 -0.116159 0.019619
v 0.092453 -0.105643 0.024747
v 0.091113 -0.102090 0.024437
v 0.084038 -0.086670 0.014976
v 0.103233 -0.112459 0.016897
v 0.106767 -0.123427 0.024667
v 0.130848 -0.177263 -0.000453
v 0.122051 -0.145480 -0.000341
v 0.115631 -0.129706 0.005056
v 0.130230 -0.149115 0.004137
v 0.144819 -0.166999 0.015997
v 0.132315 -0.177078 0.017737
v 0.116012 -0.151508 0.023924
v 0.118526 -0.139799 0.024332
v 0.129072 -0.156073 0.022407
v 0.142304 -0.169182 0.018738
v 0.136505 -0.173872 0.020310
v 0.110935 -0.127467 0.001420
v 0.129909 -0.147110 0.014662
v 0.117590 -0.132883 0.019569
v 0.104893 -0.135822 0.025339
v 0.092180 -0.126049 0.024831
v 0.081757 -0.106852 0.026069
v 0.097090 -0.126177 0.025794
v 0.104032 -0.125085 0.025665
v 0.077076 -0.078750 0.016030
v 0.082149 -0.036225 0.024419
v 0.089033 -0.024978 0.023150
v 0.101920 -0.014385 0.015754
v 0.084595 -0.013595 0.027829
v 0.091296 -0.007713 0.024022
v 0.070978 -0.019632 0.034287
v 0.043445 0.024471 -0.051100
v 0.002438 0.031147 -0.047354
v 0.021260 0.043332 -0.042354
v 0.031831 0.041350 -0.044430
v 0.045057 0.049958 -0.037391
v -0.004595 0.053464 -0.027661
v 0.054603 0.020416 -0.052247
v 0.051449 0.031504 -0.049975
v 0.067380 0.020019 -0.052287
v 0.062806 0.053817 -0.029311
v 0.056435 0.050728 -0.041410
v 0.011119 0.055872 -0.017571
v 0.031644 0.055990 -0.011419
v 0.037079 0.055843 -0.014772
v 0.029171 0.056148 -0.008143
v 0.053757 0.055420 -0.012239
v 0.073720 0.079206 -0.004147
v 0.081354 0.092354 -0.003460
v 0.058790 0.087196 -0.004905
v 0.097509 0.006913 -0.047414
v 0.081926 0.036100 -0.046928
v 0.101917 0.018145 -0.041994
v 0.101990 0.012646 -0.042981
v 0.100229 0.025959 -0.040450
v 0.101336 0.030606 -0.028964
v 0.101990 0.029097 -0.006370
v 0.085747 0.044193 -0.027479
v 0.084673 0.046466 -0.024030
v 0.119622 0.133331 0.011805
v 0.083899 0.119093 0.000607
v 0.028465 0.056001 0.005615
v 0.032437 0.055403 0.014568
v 0.032502 0.051577 0.027056
v 0.053340 0.080003 0.021039
v 0.054667 0.088101 0.007872
v 0.073637 0.050916 0.004059
v 0.057782 0.053946 0.015587
v 0.041712 0.053993 0.018256
v 0.055331 0.087344 0.016195
v 0.069271 0.047105 0.022599
v 0.058512 0.054005 0.010919
v 0.067658 0.077883 0.023586
v 0.024501 0.000926 0.045773
v 0.042560 0.005371 0.042819
v 0.028588 0.015755 0.044777
v 0.027978 0.041318 0.038465
v 0.036290 0.028436 0.042093
v 0.036589 0.041681 0.036661
v 0.057647 0.034909 0.035403
v 0.051979 0.045066 0.031246
v 0.060803 0.015211 0.038021
v 0.067377 0.030044 0.033974
v 0.052823 0.022746 0.039352
v 0.047609 0.011753 0.041471
v 0.043547 0.026981 0.040762
v 0.092185 0.131210 0.021596
v 0.100154 0.032606 0.002704
v 0.085929 0.023757 0.025952
v 0.086973 0.034116 0.020498
v 0.101920 0.016329 0.015195
v 0.094956 0.002771 0.021371
v 0.094956 0.005543 0.021340
v 0.088257 0.013637 0.025789
v 0.077024 0.079425 0.000879
v 0.059936 0.054595 0.000789
v 0.074118 0.013157 0.033389
v 0.080889 0.027758 0.027426
v 0.094643 0.101929 0.019873
v 0.101368 0.143677 0.012208
v 0.129346 0.146413 0.008190
v 0.115695 0.142427 -0.000662
v 0.145332 0.165974 0.004452
v 0.132348 0.175842 -0.001525
v 0.136436 0.172213 -0.002628
v 0.109621 0.126217 0.000589
v 0.129622 0.178669 0.008280
v 0.122458 0.137407 0.014390
v 0.115305 0.129425 0.019786
v 0.114680 0.154651 0.023293
v 0.124405 0.146567 0.023036
v 0.142051 0.169388 0.018794
v 0.133873 0.175929 0.019164
v 0.136024 0.174258 0.019968
v 0.139816 0.171239 0.019874
v 0.080778 0.092082 0.025874
v 0.096666 0.126247 0.025690
v 0.101531 0.122631 0.025794
v 0.109054 0.128739 0.025282
g body
f 6 108 5
f 8 6 5
f 6 8 7
f 5 10 8
f 8 62 97
f 9 25 10
f 8 10 62
f 25 11 10
f 10 5 13
f 10 13 9
f 9 13 14
f 5 108 13
f 13 18 14
f 25 9 14
f 16 25 14
f 12 16 14
f 12 14 34
f 14 15 21
f 15 20 21
f 15 19 20
f 34 14 17
f 14 18 15
f 15 18 19
f 18 22 19
f 17 14 21
f 17 21 192
f 19 22 20
f 20 22 23
f 16 12 25
f 12 34 25
f 25 34 35
f 25 24 30
f 25 35 27
f 25 27 24
f 25 61 11
f 25 32 26
f 25 29 31
f 25 30 29
f 25 31 32
f 34 17 203
f 203 83 34
f 34 36 35
f 34 85 36
f 34 83 85
f 11 61 10
f 10 61 62
f 64 66 62
f 61 64 62
f 63 65 64
f 64 68 66
f 65 69 64
f 64 69 68
f 25 26 61
f 26 63 61
f 63 64 61
f 63 26 78
f 63 78 81
f 63 81 84
f 85 83 84
f 84 86 85
f 81 86 84
f 63 84 87
f 63 87 69
f 87 67 69
f 63 69 65
f 67 92 69
f 69 92 68
f 67 90 92
f 92 90 91
f 68 92 135
f 135 92 88
f 84 93 87
f 87 93 67
f 67 93 89
f 93 84 89
f 89 94 67
f 94 96 67
f 67 96 90
f 92 95 88
f 91 95 92
f 88 95 174
f 174 95 180
f 90 96 91
f 95 252 180
f 8 97 7
f 97 98 7
f 7 98 108
f 98 99 108
f 98 100 99
f 97 62 98
f 98 130 101
f 101 111 98
f 98 111 100
f 98 62 130
f 130 111 101
f 130 119 111
f 6 7 108
f 108 100 13
f 108 99 100
f 13 100 109
f 13 109 18
f 100 110 109
f 109 110 114
f 100 111 110
f 111 112 110
f 109 113 18
f 18 113 22
f 113 109 304
f 109 115 304
f 109 114 115
f 114 117 115
f 22 113 23
f 304 115 116
f 115 117 116
f 110 112 114
f 114 112 117
f 117 112 116
f 116 112 308
f 111 122 118
f 111 118 112
f 118 122 124
f 118 124 112
f 112 124 125
f 112 125 126
f 111 159 122
f 111 119 159
f 112 126 168
f 112 314 308
f 112 168 314
f 126 127 168
f 127 128 168
f 62 138 130
f 138 129 130
f 130 129 102
f 130 102 119
f 102 129 178
f 62 66 133
f 62 133 138
f 138 137 129
f 66 134 133
f 133 136 138
f 68 135 66
f 66 135 134
f 133 134 136
f 138 136 177
f 136 175 177
f 129 137 178
f 119 163 159
f 102 163 119
f 102 178 163
f 167 170 163
f 128 171 168
f 168 171 169
f 171 128 172
f 167 172 170
f 172 167 171
f 135 88 134
f 134 175 136
f 134 88 175
f 175 173 177
f 138 177 137
f 88 174 175
f 175 180 173
f 177 176 137
f 173 181 177
f 181 183 177
f 163 178 179
f 178 137 179
f 179 137 163
f 163 137 167
f 137 176 167
f 167 176 182
f 175 174 180
f 173 180 181
f 181 184 183
f 181 185 184
f 183 176 177
f 183 182 176
f 181 180 252
f 181 252 185
f 182 183 188
f 183 186 188
f 167 187 171
f 167 182 187
f 188 171 187
f 187 182 188
f 192 189 17
f 17 189 203
f 189 190 203
f 189 195 190
f 192 20 191
f 21 20 192
f 23 193 20
f 20 193 194
f 191 20 197
f 192 191 189
f 189 191 196
f 20 194 197
f 197 194 198
f 190 195 221
f 191 197 196
f 189 196 197
f 189 197 195
f 195 197 219
f 197 198 199
f 197 199 200
f 197 200 219
f 190 205 203
f 203 205 201
f 201 205 202
f 83 203 204
f 203 201 204
f 201 202 204
f 204 202 230
f 205 208 202
f 205 190 211
f 190 206 211
f 206 213 211
f 206 237 213
f 206 236 237
f 190 221 224
f 195 219 220
f 219 222 220
f 195 220 221
f 219 200 222
f 200 223 222
f 222 223 220
f 221 220 224
f 224 220 226
f 190 224 206
f 206 224 225
f 225 226 206
f 224 226 225
f 204 230 231
f 204 84 83
f 204 231 84
f 206 247 236
f 206 239 247
f 239 248 243
f 231 250 84
f 89 84 94
f 84 250 94
f 231 243 250
f 94 250 96
f 250 251 96
f 91 96 95
f 96 252 95
f 254 253 252
f 253 345 252
f 96 251 255
f 96 257 254
f 96 255 257
f 254 252 96
f 243 248 250
f 250 248 251
f 248 256 251
f 251 256 257
f 256 248 257
f 248 258 257
f 258 297 257
f 251 257 255
f 345 253 346
f 257 253 254
f 257 302 253
f 253 302 346
f 346 302 259
f 206 226 239
f 239 226 248
f 248 226 297
f 226 299 298
f 299 301 300
f 297 258 248
f 297 298 257
f 226 298 297
f 298 302 257
f 302 300 259
f 298 299 302
f 302 299 300
f 259 300 301
f 259 301 368
f 113 304 23
f 23 303 193
f 116 305 304
f 193 303 194
f 194 303 309
f 23 304 303
f 303 304 306
f 304 305 306
f 305 307 306
f 116 307 305
f 116 308 307
f 194 309 198
f 198 309 199
f 303 310 309
f 303 306 310
f 310 313 309
f 310 306 313
f 306 307 313
f 199 309 311
f 309 323 311
f 199 311 200
f 200 311 322
f 309 313 323
f 313 312 323
f 308 314 307
f 168 169 314
f 314 317 315
f 314 315 316
f 314 169 317
f 307 314 313
f 314 316 313
f 313 316 318
f 313 318 312
f 312 318 367
f 312 338 330
f 200 322 223
f 311 323 322
f 323 326 322
f 322 326 324
f 322 324 325
f 223 322 220
f 323 329 327
f 323 327 326
f 220 322 226
f 322 325 226
f 325 324 226
f 324 326 226
f 323 312 329
f 312 330 329
f 326 327 226
f 226 327 328
f 226 328 359
f 327 329 330
f 328 327 330
f 328 330 359
f 169 334 333
f 334 169 171
f 312 367 338
f 343 338 367
f 343 339 338
f 335 340 334
f 340 335 339
f 345 185 252
f 185 345 346
f 185 347 184
f 346 347 185
f 184 347 183
f 186 349 348
f 183 347 349
f 349 186 183
f 171 335 334
f 186 335 171
f 188 186 171
f 186 348 335
f 348 350 335
f 350 352 335
f 350 351 352
f 259 368 353
f 354 342 352
f 352 351 354
f 346 356 347
f 347 356 349
f 356 353 349
f 349 355 357
f 349 353 355
f 349 357 351
f 348 349 350
f 349 351 350
f 357 354 351
f 357 355 354
f 356 259 353
f 346 259 356
f 353 368 355
f 354 355 368
f 335 352 339
f 339 352 342
f 330 338 359
f 226 359 362
f 226 362 299
f 364 365 301
f 342 361 339
f 361 359 339
f 299 362 364
f 299 363 301
f 299 364 363
f 362 365 364
f 363 364 301
f 362 360 365
f 362 359 361
f 338 339 359
f 354 368 365
f 354 365 360
f 368 301 365
f 369 361 354
f 360 369 354
f 354 361 342
f 360 362 369
f 362 361 369
f 316 315 317
f 316 321 318
f 316 317 321
f 169 321 317
f 319 366 318
f 366 367 318
f 318 320 319
f 318 321 320
f 319 331 366
f 320 321 377
f 321 332 377
f 169 333 334
f 169 334 336
f 169 337 321
f 337 169 341
f 367 370 343
f 336 334 340
f 344 340 339
f 169 336 341
f 343 387 339
f 387 344 339
f 340 344 336
f 344 387 336
f 337 341 321
f 321 341 332
f 341 336 358
f 343 370 387
f 366 331 367
f 367 331 370
f 320 372 319
f 341 358 332
f 336 387 358
f 370 390 387
f 370 382 390
f 370 380 382
f 358 371 332
f 332 371 378
f 371 358 381
f 320 377 372
f 319 372 331
f 331 380 370
f 377 332 373
f 332 375 376
f 332 376 373
f 332 378 375
f 373 376 377
f 376 374 377
f 377 374 372
f 375 378 376
f 376 378 374
f 371 381 378
f 331 372 379
f 372 374 379
f 331 379 380
f 390 382 381
f 381 385 384
f 379 374 380
f 380 374 382
f 378 384 385
f 378 383 374
f 378 385 386
f 378 386 383
f 381 382 385
f 381 384 378
f 374 383 382
f 385 382 386
f 386 382 383
f 387 389 388
f 387 388 358
f 387 390 389
f 388 389 381
f 389 390 381
f 388 381 358
f 103 105 104
f 106 150 120
f 120 150 107
f 123 159 120
f 123 152 124
f 123 120 107
f 123 107 152
f 123 122 159
f 122 123 124
f 125 152 126
f 152 125 124
f 152 127 126
f 161 128 127
f 104 140 103
f 103 141 105
f 103 140 141
f 105 141 150
f 140 144 141
f 149 140 104
f 104 105 106
f 139 149 104
f 139 104 106
f 143 144 140
f 141 144 145
f 141 145 142
f 144 146 145
f 140 149 143
f 146 144 143
f 142 145 148
f 145 146 147
f 145 147 148
f 131 153 149
f 106 149 139
f 149 106 131
f 120 131 106
f 150 151 107
f 107 151 152
f 152 151 121
f 153 132 149
f 132 143 149
f 146 143 132
f 146 132 156
f 154 148 155
f 148 158 155
f 105 150 106
f 141 151 150
f 141 142 151
f 142 148 151
f 121 151 148
f 121 148 154
f 157 147 156
f 158 148 147
f 147 157 158
f 156 158 157
f 146 156 147
f 120 159 131
f 131 159 163
f 127 152 160
f 161 127 160
f 160 154 161
f 131 163 153
f 153 163 162
f 132 153 162
f 166 170 172
f 162 163 170
f 162 166 132
f 162 170 166
f 166 164 132
f 165 166 161
f 165 164 166
f 166 128 161
f 166 172 128
f 152 121 160
f 160 121 154
f 161 154 155
f 161 158 165
f 155 158 161
f 156 132 164
f 156 165 158
f 156 164 165
f 2 1 41
f 33 50 4
f 4 3 33
f 28 26 32
f 3 27 33
f 27 3 28
f 24 27 28
f 28 31 29
f 28 29 30
f 28 30 24
f 28 32 31
f 33 27 35
f 33 35 75
f 35 36 75
f 75 36 85
f 1 2 37
f 1 37 46
f 2 38 37
f 37 42 39
f 37 39 46
f 2 40 38
f 46 39 52
f 37 38 42
f 39 42 43
f 38 48 44
f 38 44 42
f 44 45 42
f 42 45 43
f 43 47 39
f 2 41 40
f 38 40 48
f 44 54 45
f 46 4 1
f 46 49 4
f 46 52 49
f 1 4 50
f 4 49 52
f 50 51 1
f 4 52 3
f 52 39 72
f 1 51 41
f 50 33 51
f 40 41 53
f 39 47 72
f 44 48 54
f 43 56 55
f 47 43 55
f 40 53 48
f 47 55 72
f 53 70 48
f 48 70 71
f 48 58 54
f 48 71 58
f 45 57 43
f 57 56 43
f 45 54 58
f 45 58 57
f 57 58 56
f 56 58 60
f 52 72 28
f 52 28 3
f 72 74 73
f 72 55 59
f 72 59 74
f 51 33 41
f 33 75 41
f 72 73 28
f 28 73 26
f 73 74 26
f 26 74 59
f 75 82 53
f 75 53 41
f 56 60 55
f 60 76 55
f 58 77 79
f 60 58 79
f 59 55 26
f 55 76 26
f 76 78 26
f 76 60 79
f 70 77 71
f 77 58 71
f 79 81 78
f 77 86 81
f 80 77 81
f 80 79 77
f 76 79 78
f 80 81 79
f 75 85 82
f 82 85 53
f 70 53 85
f 70 85 77
f 77 85 86
f 232 230 202
f 209 227 202
f 208 209 202
f 210 208 205
f 210 207 208
f 210 205 211
f 227 209 208
f 208 207 265
f 207 210 265
f 210 212 215
f 210 215 214
f 211 213 212
f 210 211 212
f 212 213 237
f 212 237 215
f 208 265 264
f 208 264 227
f 210 214 265
f 214 215 216
f 277 278 217
f 217 278 218
f 237 235 215
f 233 227 240
f 240 271 229
f 234 231 230
f 234 242 231
f 202 227 233
f 232 240 230
f 232 233 240
f 202 233 232
f 230 240 234
f 237 236 235
f 236 247 238
f 234 241 242
f 242 245 231
f 245 243 231
f 241 245 242
f 245 244 243
f 244 238 243
f 229 234 240
f 229 241 234
f 229 293 241
f 245 241 244
f 244 241 249
f 246 247 239
f 238 247 246
f 246 243 238
f 246 239 243
f 244 249 238
f 261 260 214
f 270 263 292
f 227 264 228
f 265 266 264
f 264 266 268
f 214 266 265
f 228 262 240
f 264 268 228
f 228 268 262
f 227 228 240
f 260 266 214
f 266 260 268
f 216 261 214
f 215 269 216
f 216 269 267
f 240 262 270
f 262 263 270
f 271 270 292
f 292 229 271
f 240 270 271
f 229 292 293
f 276 273 272
f 275 274 273
f 260 261 277
f 268 277 262
f 216 277 261
f 268 260 277
f 278 216 288
f 216 278 277
f 278 288 279
f 279 289 281
f 217 281 277
f 217 218 281
f 278 279 218
f 218 279 280
f 218 280 281
f 279 281 280
f 262 277 263
f 263 282 292
f 282 283 292
f 283 287 284
f 285 281 284
f 290 276 284
f 290 284 289
f 281 263 277
f 281 282 263
f 281 287 282
f 281 286 287
f 287 283 282
f 284 287 285
f 286 285 287
f 286 281 285
f 281 289 284
f 267 288 216
f 288 269 279
f 267 269 288
f 269 274 279
f 274 289 279
f 274 275 289
f 275 273 289
f 273 290 289
f 273 276 290
f 291 283 284
f 241 293 273
f 291 294 292
f 292 294 295
f 292 295 293
f 293 295 276
f 293 276 272
f 283 291 292
f 284 295 294
f 291 284 294
f 276 295 284
f 273 293 272
f 269 235 236
f 215 235 269
f 236 296 274
f 269 236 274
f 238 296 236
f 274 296 273
f 241 273 249
f 249 273 238
f 238 273 296
