# sionna2 mesh — typhoonh480__gear_cf.obj
# group=gear_cf  verts=386  tris=764
v -0.001846 0.139355 -0.261560
v -0.003281 0.139968 -0.261170
v -0.001611 0.139968 -0.261170
v 0.000000 0.139084 -0.261733
v 0.000000 0.139968 -0.261170
v -0.001846 0.148989 -0.255426
v -0.003281 0.148376 -0.255816
v -0.003221 0.148217 -0.255498
v -0.001611 0.148376 -0.255816
v 0.000000 0.149260 -0.255253
v 0.000000 0.148376 -0.255816
v -0.004840 0.120196 -0.226157
v -0.004840 0.139345 -0.257381
v -0.004115 0.139172 -0.258493
v -0.003515 0.119073 -0.226872
v -0.001846 0.118361 -0.227326
v -0.003492 0.139417 -0.260067
v -0.003515 0.139412 -0.260037
v -0.005680 0.121612 -0.225256
v -0.005666 0.140127 -0.255498
v -0.004991 0.139417 -0.256919
v -0.005680 0.140146 -0.255478
v -0.006000 0.123177 -0.224259
v -0.005940 0.141233 -0.254371
v -0.006000 0.141545 -0.254209
v -0.005680 0.124743 -0.223262
v -0.005790 0.142627 -0.253648
v -0.005680 0.143309 -0.253537
v -0.004840 0.126159 -0.222361
v -0.005275 0.144172 -0.253398
v -0.004840 0.145305 -0.253581
v -0.003515 0.127282 -0.221646
v -0.004525 0.145717 -0.253648
v -0.001846 0.127994 -0.221192
v -0.003515 0.147751 -0.255024
v -0.003719 0.147111 -0.254371
v 0.000000 0.128266 -0.221019
v 0.000000 0.118089 -0.227499
v -0.001846 0.097366 -0.193092
v -0.003515 0.098079 -0.192638
v -0.004840 0.099202 -0.191923
v -0.005680 0.100618 -0.191021
v -0.006000 0.102183 -0.190025
v 0.000000 0.097095 -0.193264
v -0.005680 0.103748 -0.189028
v -0.004840 0.105164 -0.188127
v -0.005680 0.079623 -0.156787
v -0.004840 0.078208 -0.157689
v -0.003515 0.077085 -0.158404
v -0.001846 0.076372 -0.158858
v -0.006000 0.081189 -0.155791
v -0.005680 0.082754 -0.154794
v -0.004840 0.084170 -0.153893
v -0.003515 0.085293 -0.153178
v -0.003515 0.106287 -0.187412
v -0.001846 0.086006 -0.152724
v -0.001846 0.107000 -0.186958
v 0.000000 0.086277 -0.152551
v 0.000000 0.107271 -0.186785
v -0.004840 0.057213 -0.123455
v -0.003515 0.056090 -0.124170
v -0.001846 0.055378 -0.124623
v 0.000000 0.076100 -0.159030
v -0.005680 0.058629 -0.122553
v -0.006000 0.060194 -0.121557
v 0.000000 0.055106 -0.124796
v -0.005680 0.061760 -0.120560
v -0.004840 0.063175 -0.119659
v -0.003515 0.064299 -0.118943
v -0.001846 0.065011 -0.118490
v 0.000000 0.065283 -0.118317
v -0.004840 0.036219 -0.089221
v -0.003515 0.035096 -0.089936
v 0.000000 0.039200 -0.087323
v -0.001846 0.034383 -0.090389
v 0.000000 0.034112 -0.090562
v -0.005680 0.037635 -0.088319
v -0.006000 0.039200 -0.087323
v -0.005680 0.040765 -0.086326
v -0.004840 0.042181 -0.085424
v -0.003515 0.043304 -0.084709
v -0.001846 0.044017 -0.084256
v 0.000000 0.044288 -0.084083
v 0.001611 0.139968 -0.261170
v 0.001846 0.139355 -0.261560
v 0.003281 0.139968 -0.261170
v 0.001611 0.148376 -0.255816
v 0.001846 0.148989 -0.255426
v 0.003281 0.148376 -0.255816
v 0.003221 0.148217 -0.255498
v 0.001846 0.118361 -0.227326
v 0.003492 0.139417 -0.260067
v 0.003515 0.139412 -0.260037
v 0.003515 0.119073 -0.226872
v 0.004115 0.139172 -0.258493
v 0.004840 0.139345 -0.257381
v 0.004840 0.120196 -0.226157
v 0.004991 0.139417 -0.256919
v 0.005666 0.140127 -0.255498
v 0.005680 0.140146 -0.255478
v 0.005680 0.121612 -0.225256
v 0.005940 0.141233 -0.254371
v 0.006000 0.141545 -0.254209
v 0.006000 0.123177 -0.224259
v 0.005790 0.142627 -0.253648
v 0.005680 0.143309 -0.253537
v 0.005680 0.124743 -0.223262
v 0.005275 0.144172 -0.253398
v 0.004840 0.145305 -0.253581
v 0.004840 0.126159 -0.222361
v 0.004525 0.145717 -0.253648
v 0.003719 0.147111 -0.254371
v 0.001846 0.127994 -0.221192
v 0.003515 0.127282 -0.221646
v 0.003515 0.147751 -0.255024
v 0.001846 0.097366 -0.193092
v 0.003515 0.098079 -0.192638
v 0.004840 0.099202 -0.191923
v 0.005680 0.100618 -0.191021
v 0.006000 0.102183 -0.190025
v 0.005680 0.103748 -0.189028
v 0.004840 0.105164 -0.188127
v 0.001846 0.076372 -0.158858
v 0.003515 0.077085 -0.158404
v 0.004840 0.078208 -0.157689
v 0.001846 0.086006 -0.152724
v 0.001846 0.107000 -0.186958
v 0.003515 0.085293 -0.153178
v 0.003515 0.106287 -0.187412
v 0.005680 0.079623 -0.156787
v 0.006000 0.081189 -0.155791
v 0.005680 0.082754 -0.154794
v 0.004840 0.084170 -0.153893
v 0.001846 0.055378 -0.124623
v 0.003515 0.056090 -0.124170
v 0.004840 0.057213 -0.123455
v 0.005680 0.058629 -0.122553
v 0.001846 0.065011 -0.118490
v 0.003515 0.064299 -0.118943
v 0.004840 0.063175 -0.119659
v 0.006000 0.060194 -0.121557
v 0.005680 0.061760 -0.120560
v 0.001846 0.034383 -0.090389
v 0.003515 0.035096 -0.089936
v 0.004840 0.036219 -0.089221
v 0.005680 0.037635 -0.088319
v 0.006000 0.039200 -0.087323
v 0.005680 0.040765 -0.086326
v 0.001846 0.044017 -0.084256
v 0.003515 0.043304 -0.084709
v 0.004840 0.042181 -0.085424
v -0.137500 0.141233 -0.262615
v -0.137500 0.140127 -0.261488
v -0.137500 0.144172 -0.258493
v -0.137500 0.142627 -0.263338
v -0.137500 0.144172 -0.263588
v -0.137500 0.139417 -0.260067
v -0.137500 0.139172 -0.258493
v -0.137500 0.145717 -0.263338
v -0.137500 0.147111 -0.262615
v -0.137500 0.148217 -0.261488
v -0.137500 0.148927 -0.260067
v -0.137500 0.149172 -0.258493
v -0.137500 0.139417 -0.256919
v -0.137500 0.140127 -0.255498
v -0.137500 0.141233 -0.254371
v -0.137500 0.142627 -0.253648
v -0.137500 0.144172 -0.253398
v -0.137500 0.145717 -0.253648
v -0.137500 0.147111 -0.254371
v -0.137500 0.148217 -0.255498
v -0.137500 0.148927 -0.256919
v 0.137500 0.141233 -0.262615
v 0.137500 0.140127 -0.261488
v 0.137500 0.142627 -0.263338
v 0.137500 0.144172 -0.263588
v 0.137500 0.145717 -0.263338
v 0.137500 0.147111 -0.262615
v 0.137500 0.148217 -0.261488
v 0.137500 0.148927 -0.260067
v 0.137500 0.149172 -0.258493
v 0.137500 0.148927 -0.256919
v 0.137500 0.139417 -0.260067
v 0.137500 0.139172 -0.258493
v 0.137500 0.139417 -0.256919
v 0.137500 0.140127 -0.255498
v 0.137500 0.141233 -0.254371
v 0.137500 0.142627 -0.253648
v 0.137500 0.144172 -0.253398
v 0.137500 0.148217 -0.255498
v 0.137500 0.147111 -0.254371
v 0.137500 0.145717 -0.253648
v 0.137500 0.144172 -0.258493
v -0.001846 -0.148989 -0.255426
v -0.003221 -0.148217 -0.255498
v -0.003281 -0.148376 -0.255816
v -0.001611 -0.148376 -0.255816
v -0.000000 -0.149260 -0.255253
v -0.000000 -0.148376 -0.255816
v -0.001846 -0.139355 -0.261560
v -0.001611 -0.139968 -0.261170
v -0.003281 -0.139968 -0.261170
v 0.000000 -0.139084 -0.261733
v -0.000000 -0.139968 -0.261170
v -0.003515 -0.127282 -0.221646
v -0.003515 -0.147751 -0.255024
v -0.001846 -0.127994 -0.221192
v -0.004840 -0.126159 -0.222361
v -0.003719 -0.147111 -0.254371
v -0.004840 -0.120196 -0.226157
v -0.004840 -0.139345 -0.257381
v -0.004991 -0.139417 -0.256919
v -0.001846 -0.118361 -0.227326
v 0.000000 -0.118089 -0.227499
v -0.003515 -0.119073 -0.226872
v -0.003515 -0.139412 -0.260037
v -0.004115 -0.139172 -0.258493
v -0.003492 -0.139417 -0.260067
v -0.006000 -0.123177 -0.224259
v -0.006000 -0.141545 -0.254209
v -0.005790 -0.142627 -0.253648
v -0.004525 -0.145717 -0.253648
v -0.004840 -0.145305 -0.253581
v -0.005680 -0.124743 -0.223262
v -0.005275 -0.144172 -0.253398
v -0.005680 -0.143309 -0.253537
v -0.005666 -0.140127 -0.255498
v -0.005680 -0.140146 -0.255478
v -0.005680 -0.121612 -0.225256
v -0.005940 -0.141233 -0.254371
v -0.000000 -0.128266 -0.221019
v -0.005680 -0.100618 -0.191021
v -0.004840 -0.099202 -0.191923
v -0.003515 -0.098079 -0.192638
v -0.004840 -0.105164 -0.188127
v -0.006000 -0.102183 -0.190025
v -0.005680 -0.103748 -0.189028
v -0.003515 -0.106287 -0.187412
v -0.001846 -0.107000 -0.186958
v -0.000000 -0.107271 -0.186785
v 0.000000 -0.097095 -0.193264
v -0.001846 -0.097366 -0.193092
v -0.004840 -0.084170 -0.153893
v -0.006000 -0.081189 -0.155791
v -0.005680 -0.082754 -0.154794
v -0.005680 -0.079623 -0.156787
v -0.003515 -0.085293 -0.153178
v -0.001846 -0.086006 -0.152724
v -0.004840 -0.078208 -0.157689
v -0.003515 -0.077085 -0.158404
v -0.001846 -0.076372 -0.158858
v 0.000000 -0.076100 -0.159030
v -0.000000 -0.086277 -0.152551
v -0.005680 -0.061760 -0.120560
v -0.006000 -0.060194 -0.121557
v -0.004840 -0.063175 -0.119659
v -0.003515 -0.064299 -0.118943
v -0.001846 -0.065011 -0.118490
v -0.004840 -0.057213 -0.123455
v -0.003515 -0.056090 -0.124170
v -0.001846 -0.055378 -0.124623
v 0.000000 -0.055106 -0.124796
v -0.005680 -0.058629 -0.122553
v -0.000000 -0.065283 -0.118317
v -0.004840 -0.042181 -0.085424
v -0.003515 -0.043304 -0.084709
v -0.001846 -0.044017 -0.084256
v -0.003515 -0.035096 -0.089936
v -0.001846 -0.034383 -0.090389
v 0.000000 -0.034112 -0.090562
v -0.006000 -0.039200 -0.087323
v -0.005680 -0.037635 -0.088319
v -0.005680 -0.040765 -0.086326
v -0.004840 -0.036219 -0.089221
v -0.000000 -0.044288 -0.084083
v -0.000000 -0.039200 -0.087323
v 0.001611 -0.148376 -0.255816
v 0.001846 -0.148989 -0.255426
v 0.003281 -0.148376 -0.255816
v 0.003221 -0.148217 -0.255498
v 0.001611 -0.139968 -0.261170
v 0.001846 -0.139355 -0.261560
v 0.003281 -0.139968 -0.261170
v 0.001846 -0.127994 -0.221192
v 0.003515 -0.147751 -0.255024
v 0.003515 -0.127282 -0.221646
v 0.003719 -0.147111 -0.254371
v 0.004525 -0.145717 -0.253648
v 0.001846 -0.118361 -0.227326
v 0.003515 -0.119073 -0.226872
v 0.003492 -0.139417 -0.260067
v 0.003515 -0.139412 -0.260037
v 0.004840 -0.120196 -0.226157
v 0.004115 -0.139172 -0.258493
v 0.004840 -0.139345 -0.257381
v 0.004840 -0.145305 -0.253581
v 0.006000 -0.123177 -0.224259
v 0.006000 -0.141545 -0.254209
v 0.005940 -0.141233 -0.254371
v 0.004840 -0.126159 -0.222361
v 0.005275 -0.144172 -0.253398
v 0.005680 -0.143309 -0.253537
v 0.005680 -0.124743 -0.223262
v 0.005790 -0.142627 -0.253648
v 0.005680 -0.121612 -0.225256
v 0.004991 -0.139417 -0.256919
v 0.005666 -0.140127 -0.255498
v 0.005680 -0.140146 -0.255478
v 0.006000 -0.102183 -0.190025
v 0.004840 -0.099202 -0.191923
v 0.005680 -0.100618 -0.191021
v 0.003515 -0.106287 -0.187412
v 0.001846 -0.107000 -0.186958
v 0.005680 -0.103748 -0.189028
v 0.004840 -0.105164 -0.188127
v 0.001846 -0.097366 -0.193092
v 0.003515 -0.098079 -0.192638
v 0.001846 -0.086006 -0.152724
v 0.003515 -0.085293 -0.153178
v 0.004840 -0.084170 -0.153893
v 0.005680 -0.082754 -0.154794
v 0.006000 -0.081189 -0.155791
v 0.001846 -0.076372 -0.158858
v 0.003515 -0.077085 -0.158404
v 0.004840 -0.078208 -0.157689
v 0.005680 -0.079623 -0.156787
v 0.003515 -0.064299 -0.118943
v 0.001846 -0.065011 -0.118490
v 0.005680 -0.061760 -0.120560
v 0.004840 -0.063175 -0.119659
v 0.001846 -0.055378 -0.124623
v 0.003515 -0.056090 -0.124170
v 0.004840 -0.057213 -0.123455
v 0.006000 -0.060194 -0.121557
v 0.005680 -0.058629 -0.122553
v 0.001846 -0.044017 -0.084256
v 0.003515 -0.043304 -0.084709
v 0.001846 -0.034383 -0.090389
v 0.003515 -0.035096 -0.089936
v 0.004840 -0.036219 -0.089221
v 0.005680 -0.040765 -0.086326
v 0.006000 -0.039200 -0.087323
v 0.004840 -0.042181 -0.085424
v 0.005680 -0.037635 -0.088319
v -0.137500 -0.147111 -0.262615
v -0.137500 -0.148217 -0.261488
v -0.137500 -0.144172 -0.258493
v -0.137500 -0.145717 -0.263338
v -0.137500 -0.144172 -0.263588
v -0.137500 -0.148927 -0.260067
v -0.137500 -0.149172 -0.258493
v -0.137500 -0.142627 -0.263338
v -0.137500 -0.141233 -0.262615
v -0.137500 -0.140127 -0.261488
v -0.137500 -0.139417 -0.260067
v -0.137500 -0.139172 -0.258493
v -0.137500 -0.148927 -0.256919
v -0.137500 -0.148217 -0.255498
v -0.137500 -0.147111 -0.254371
v -0.137500 -0.145717 -0.253648
v -0.137500 -0.144172 -0.253398
v -0.137500 -0.142627 -0.253648
v -0.137500 -0.141233 -0.254371
v -0.137500 -0.140127 -0.255498
v -0.137500 -0.139417 -0.256919
v 0.137500 -0.148217 -0.261488
v 0.137500 -0.147111 -0.262615
v 0.137500 -0.145717 -0.263338
v 0.137500 -0.148927 -0.260067
v 0.137500 -0.149172 -0.258493
v 0.137500 -0.144172 -0.263588
v 0.137500 -0.142627 -0.263338
v 0.137500 -0.141233 -0.262615
v 0.137500 -0.148927 -0.256919
v 0.137500 -0.140127 -0.261488
v 0.137500 -0.148217 -0.255498
v 0.137500 -0.147111 -0.254371
v 0.137500 -0.145717 -0.253648
v 0.137500 -0.140127 -0.255498
v 0.137500 -0.142627 -0.253648
v 0.137500 -0.144172 -0.253398
v 0.137500 -0.141233 -0.254371
v 0.137500 -0.139417 -0.260067
v 0.137500 -0.139172 -0.258493
v 0.137500 -0.139417 -0.256919
v 0.137500 -0.144172 -0.258493
f 1 2 3
f 1 3 4
f 4 3 5
f 6 7 8
f 6 9 7
f 6 10 9
f 10 11 9
f 12 13 14
f 15 2 1
f 1 4 16
f 15 17 2
f 15 18 17
f 12 14 18
f 19 20 21
f 19 22 20
f 19 21 13
f 23 24 22
f 23 25 24
f 26 27 25
f 26 28 27
f 29 30 28
f 29 31 30
f 32 33 31
f 6 8 34
f 32 35 36
f 32 36 33
f 34 8 35
f 6 37 10
f 19 13 12
f 15 1 16
f 16 4 38
f 12 18 15
f 23 22 19
f 23 26 25
f 26 29 28
f 29 32 31
f 32 34 35
f 6 34 37
f 16 38 39
f 15 16 40
f 12 41 42
f 19 42 43
f 40 16 39
f 15 40 41
f 39 38 44
f 23 43 45
f 26 45 46
f 42 41 47
f 41 40 48
f 40 39 49
f 39 44 50
f 43 42 51
f 43 52 45
f 45 53 46
f 46 54 55
f 55 56 57
f 57 58 59
f 12 15 41
f 19 12 42
f 23 19 43
f 23 45 26
f 26 46 29
f 29 55 32
f 32 57 34
f 34 59 37
f 29 46 55
f 32 55 57
f 34 57 59
f 60 48 49
f 61 49 50
f 62 50 63
f 64 47 48
f 65 51 47
f 61 50 62
f 60 49 61
f 62 63 66
f 64 48 60
f 65 47 64
f 65 67 51
f 67 68 52
f 68 69 53
f 69 70 54
f 70 71 56
f 72 73 74
f 73 75 74
f 75 76 74
f 72 60 61
f 73 61 62
f 75 62 66
f 64 60 77
f 65 64 78
f 65 79 67
f 67 80 68
f 68 81 69
f 69 82 70
f 70 83 71
f 73 62 75
f 75 66 76
f 72 61 73
f 72 77 60
f 64 77 78
f 65 78 79
f 67 79 80
f 68 80 81
f 69 81 82
f 70 82 83
f 72 74 77
f 78 77 74
f 78 74 79
f 79 74 80
f 80 74 81
f 81 74 82
f 82 74 83
f 39 50 49
f 50 44 63
f 41 48 47
f 40 49 48
f 42 47 51
f 43 51 52
f 45 52 53
f 46 53 54
f 55 54 56
f 57 56 58
f 67 52 51
f 68 53 52
f 69 54 53
f 54 70 56
f 56 71 58
f 4 5 84
f 4 84 85
f 85 84 86
f 10 87 11
f 10 88 87
f 88 89 87
f 88 90 89
f 4 85 38
f 85 86 91
f 91 86 92
f 91 92 93
f 94 93 95
f 94 95 96
f 97 96 98
f 97 98 99
f 97 99 100
f 101 100 102
f 101 102 103
f 104 103 105
f 104 105 106
f 107 106 108
f 107 108 109
f 110 111 112
f 110 109 111
f 10 113 88
f 88 114 90
f 114 115 90
f 110 112 115
f 38 85 91
f 91 93 94
f 94 96 97
f 97 100 101
f 101 103 104
f 107 104 106
f 88 113 114
f 114 110 115
f 10 37 113
f 110 107 109
f 38 91 44
f 91 94 116
f 91 116 44
f 116 94 117
f 97 118 117
f 101 119 118
f 104 120 119
f 107 121 120
f 110 122 121
f 44 116 63
f 116 117 123
f 117 118 124
f 118 119 125
f 59 126 127
f 127 128 129
f 119 120 130
f 120 121 131
f 122 132 121
f 129 133 122
f 94 97 117
f 97 101 118
f 101 104 119
f 37 127 113
f 113 129 114
f 107 120 104
f 110 121 107
f 114 122 110
f 37 59 127
f 113 127 129
f 114 129 122
f 66 63 123
f 134 123 124
f 135 124 125
f 136 125 130
f 137 130 131
f 66 123 134
f 134 124 135
f 135 125 136
f 136 130 137
f 71 138 58
f 139 140 128
f 138 139 126
f 137 131 141
f 142 141 132
f 140 142 133
f 76 143 74
f 74 143 144
f 74 144 145
f 76 66 134
f 143 134 135
f 144 135 136
f 145 136 137
f 137 141 146
f 142 147 141
f 140 148 142
f 71 149 138
f 138 150 139
f 139 151 140
f 76 134 143
f 143 135 144
f 144 136 145
f 145 137 146
f 141 147 146
f 71 83 149
f 138 149 150
f 139 150 151
f 140 151 148
f 142 148 147
f 74 145 146
f 74 146 147
f 74 147 148
f 74 151 150
f 74 148 151
f 74 149 83
f 74 150 149
f 116 123 63
f 117 124 123
f 118 125 124
f 119 130 125
f 59 58 126
f 127 126 128
f 129 128 133
f 120 131 130
f 122 133 132
f 121 132 131
f 138 126 58
f 126 139 128
f 141 131 132
f 142 132 133
f 140 133 128
f 152 153 154
f 155 152 154
f 156 155 154
f 153 157 154
f 157 158 154
f 156 154 159
f 159 154 160
f 160 154 161
f 161 154 162
f 162 154 163
f 158 164 154
f 154 164 165
f 154 165 166
f 154 166 167
f 154 167 168
f 154 168 169
f 154 169 170
f 154 170 171
f 154 172 163
f 154 171 172
f 153 17 157
f 157 14 158
f 158 21 164
f 164 20 165
f 165 24 166
f 166 25 167
f 167 28 168
f 170 169 33
f 168 30 169
f 171 170 36
f 153 2 17
f 157 18 14
f 157 17 18
f 158 14 13
f 158 13 21
f 164 21 20
f 153 3 2
f 155 173 152
f 153 5 3
f 152 174 153
f 153 84 5
f 156 175 155
f 153 86 84
f 156 159 176
f 159 160 177
f 160 161 178
f 161 162 179
f 162 163 180
f 165 20 22
f 165 22 24
f 166 24 25
f 167 25 27
f 167 27 28
f 168 28 30
f 171 35 8
f 171 8 7
f 170 33 36
f 169 30 31
f 169 31 33
f 171 36 35
f 163 172 181
f 172 171 182
f 171 7 182
f 153 174 86
f 174 92 86
f 183 93 92
f 183 95 93
f 184 96 95
f 185 98 96
f 185 99 98
f 152 173 174
f 155 175 173
f 156 176 175
f 159 177 176
f 160 178 177
f 161 179 178
f 162 180 179
f 163 181 180
f 182 7 9
f 172 182 181
f 182 9 11
f 182 11 87
f 186 100 99
f 186 102 100
f 187 103 102
f 188 105 103
f 189 106 105
f 189 108 106
f 190 90 115
f 182 87 89
f 190 89 90
f 191 112 111
f 192 109 108
f 192 111 109
f 190 115 112
f 174 183 92
f 183 184 95
f 184 185 96
f 185 186 99
f 186 187 102
f 187 188 103
f 188 189 105
f 182 89 190
f 191 111 192
f 189 192 108
f 190 112 191
f 173 193 174
f 175 193 173
f 176 193 175
f 174 193 183
f 183 193 184
f 176 177 193
f 177 178 193
f 178 179 193
f 179 180 193
f 180 181 193
f 184 193 185
f 193 186 185
f 193 187 186
f 193 188 187
f 193 189 188
f 193 192 189
f 193 191 192
f 193 190 191
f 193 181 182
f 193 182 190
f 194 195 196
f 194 196 197
f 194 197 198
f 198 197 199
f 200 201 202
f 200 203 201
f 203 204 201
f 205 206 195
f 205 195 194
f 194 198 207
f 208 209 206
f 210 211 212
f 200 202 213
f 200 214 203
f 215 216 217
f 213 202 218
f 213 218 216
f 215 217 211
f 219 220 221
f 208 222 209
f 208 223 222
f 224 225 223
f 224 226 225
f 219 221 226
f 210 227 228
f 210 212 227
f 229 228 230
f 229 230 220
f 224 223 208
f 208 206 205
f 205 194 207
f 207 198 231
f 229 210 228
f 210 215 211
f 200 213 214
f 215 213 216
f 219 229 220
f 219 226 224
f 219 232 229
f 229 233 210
f 210 234 215
f 208 205 235
f 219 224 236
f 224 208 237
f 205 207 238
f 207 231 239
f 205 238 235
f 238 207 239
f 231 240 239
f 213 241 214
f 215 242 213
f 210 233 234
f 229 232 233
f 215 234 242
f 213 242 241
f 224 237 236
f 208 235 237
f 219 236 232
f 235 238 243
f 237 244 236
f 237 235 245
f 236 246 232
f 238 239 247
f 239 240 248
f 232 249 233
f 233 250 234
f 234 251 242
f 242 252 241
f 232 246 249
f 233 249 250
f 237 245 244
f 235 243 245
f 236 244 246
f 238 247 243
f 239 248 247
f 240 253 248
f 234 250 251
f 242 251 252
f 245 243 254
f 244 245 255
f 243 247 256
f 247 248 257
f 248 253 258
f 246 259 249
f 249 260 250
f 250 261 251
f 251 262 252
f 246 244 263
f 245 254 255
f 244 255 263
f 243 256 254
f 247 257 256
f 257 248 258
f 253 264 258
f 249 259 260
f 250 260 261
f 251 261 262
f 246 263 259
f 256 257 265
f 257 258 266
f 258 264 267
f 259 268 260
f 260 269 261
f 261 270 262
f 255 254 271
f 255 272 263
f 254 256 273
f 263 274 259
f 254 273 271
f 256 265 273
f 265 257 266
f 266 258 267
f 267 264 275
f 260 268 269
f 261 269 270
f 255 271 272
f 263 272 274
f 259 274 268
f 266 267 276
f 267 275 276
f 271 273 276
f 271 276 272
f 272 276 274
f 273 265 276
f 265 266 276
f 274 276 268
f 268 276 269
f 269 276 270
f 198 199 277
f 198 277 278
f 278 277 279
f 278 279 280
f 203 281 204
f 203 282 281
f 282 283 281
f 278 280 284
f 198 278 231
f 284 280 285
f 286 285 287
f 286 287 288
f 203 289 282
f 282 290 283
f 290 291 283
f 290 292 291
f 293 294 292
f 293 295 294
f 286 288 296
f 297 298 299
f 300 296 301
f 300 301 302
f 303 302 304
f 303 304 298
f 305 306 295
f 305 307 306
f 305 308 307
f 297 299 308
f 231 278 284
f 284 285 286
f 300 302 303
f 286 296 300
f 290 293 292
f 203 214 289
f 282 289 290
f 293 305 295
f 305 297 308
f 303 298 297
f 305 309 297
f 290 310 293
f 293 311 305
f 286 300 312
f 231 284 240
f 284 286 313
f 303 297 314
f 300 303 315
f 240 284 313
f 313 286 312
f 300 315 312
f 214 316 289
f 289 317 290
f 214 241 316
f 290 317 310
f 289 316 317
f 305 311 309
f 293 310 311
f 297 309 314
f 303 314 315
f 240 313 253
f 313 312 318
f 312 315 319
f 315 314 320
f 314 309 321
f 311 322 309
f 241 323 316
f 316 324 317
f 317 325 310
f 310 326 311
f 317 324 325
f 310 325 326
f 253 313 318
f 312 319 318
f 309 322 321
f 314 321 320
f 315 320 319
f 311 326 322
f 241 252 323
f 316 323 324
f 253 318 264
f 319 320 327
f 318 319 328
f 321 322 329
f 320 321 330
f 252 331 323
f 323 332 324
f 324 333 325
f 326 334 322
f 325 335 326
f 264 318 328
f 328 319 327
f 320 330 327
f 322 334 329
f 326 335 334
f 321 329 330
f 252 262 331
f 324 332 333
f 323 331 332
f 325 333 335
f 264 328 275
f 328 327 336
f 327 330 337
f 262 338 331
f 331 339 332
f 332 340 333
f 329 334 341
f 335 342 334
f 330 329 343
f 333 344 335
f 275 328 336
f 336 327 337
f 334 342 341
f 337 330 343
f 329 341 343
f 332 339 340
f 262 270 338
f 331 338 339
f 335 344 342
f 333 340 344
f 275 336 276
f 276 336 337
f 276 341 342
f 276 342 344
f 276 344 340
f 276 337 343
f 276 343 341
f 276 338 270
f 276 339 338
f 276 340 339
f 345 346 347
f 348 347 349
f 348 345 347
f 346 350 347
f 350 351 347
f 349 347 352
f 352 347 353
f 353 347 354
f 354 347 355
f 355 347 356
f 351 357 347
f 347 357 358
f 347 358 359
f 347 359 360
f 347 360 361
f 347 361 362
f 347 362 363
f 347 364 365
f 347 365 356
f 347 363 364
f 357 196 358
f 358 209 359
f 359 222 360
f 360 225 361
f 362 361 221
f 363 362 220
f 364 363 230
f 354 355 218
f 355 356 217
f 356 365 211
f 365 364 227
f 345 366 346
f 348 367 345
f 348 349 368
f 346 369 350
f 350 370 351
f 349 352 371
f 352 353 372
f 353 354 373
f 357 197 196
f 358 196 195
f 358 195 206
f 358 206 209
f 359 209 222
f 360 222 223
f 360 223 225
f 364 228 227
f 362 221 220
f 361 225 226
f 361 226 221
f 363 220 230
f 364 230 228
f 351 374 357
f 357 199 197
f 357 277 199
f 357 279 277
f 354 218 202
f 355 217 216
f 355 216 218
f 356 211 217
f 365 212 211
f 365 227 212
f 354 202 375
f 357 376 279
f 345 367 366
f 346 366 369
f 348 368 367
f 349 371 368
f 350 369 370
f 375 202 201
f 352 372 371
f 353 373 372
f 354 375 373
f 375 201 204
f 375 204 281
f 375 281 283
f 351 370 374
f 357 374 376
f 376 280 279
f 376 285 280
f 376 287 285
f 377 288 287
f 378 296 288
f 378 301 296
f 379 307 308
f 380 298 304
f 381 302 301
f 380 304 302
f 382 299 298
f 379 308 299
f 375 283 291
f 383 291 292
f 383 292 294
f 384 294 295
f 384 295 306
f 385 306 307
f 376 377 287
f 377 378 288
f 378 381 301
f 380 302 381
f 382 298 380
f 379 299 382
f 375 291 383
f 383 294 384
f 384 306 385
f 385 307 379
f 367 386 366
f 368 371 386
f 368 386 367
f 366 386 369
f 369 386 370
f 371 372 386
f 372 373 386
f 373 375 386
f 375 383 386
f 383 384 386
f 370 386 374
f 386 376 374
f 386 377 376
f 386 378 377
f 386 381 378
f 386 380 381
f 386 382 380
f 386 385 379
f 386 384 385
f 386 379 382
