# sionna2 mesh — typhoonh480__canopy.obj
# group=canopy  verts=674  tris=1344
v 0.062359 0.003488 -0.019977
v 0.062631 -0.000086 -0.019977
v 0.060147 0.000109 -0.021978
v 0.059862 0.003538 -0.021978
v 0.061841 0.007040 -0.019977
v 0.059359 0.006946 -0.021978
v 0.061144 0.010561 -0.019977
v 0.058682 0.010325 -0.021978
v 0.060209 0.014023 -0.019977
v 0.057765 0.013641 -0.021978
v 0.058813 0.017302 -0.019977
v 0.056392 0.016774 -0.021978
v 0.056926 0.020349 -0.019977
v 0.054563 0.019688 -0.021978
v 0.054814 0.023251 -0.019977
v 0.052529 0.022468 -0.021978
v 0.052542 0.026031 -0.019977
v 0.050343 0.025132 -0.021978
v 0.050077 0.028633 -0.019977
v 0.047955 0.027606 -0.021978
v 0.047206 0.030772 -0.019977
v 0.045182 0.029638 -0.021978
v 0.044155 0.032664 -0.019977
v 0.042250 0.031446 -0.021978
v 0.040988 0.034347 -0.019977
v 0.039203 0.033046 -0.021978
v 0.037711 0.035806 -0.019977
v 0.036056 0.034444 -0.021978
v 0.034436 0.037270 -0.019977
v 0.032914 0.035851 -0.021978
v 0.031123 0.038646 -0.019977
v 0.029729 0.037162 -0.021978
v 0.027713 0.039765 -0.019977
v 0.026447 0.038208 -0.021978
v 0.024266 0.040715 -0.019977
v 0.023152 0.039149 -0.021978
v 0.021099 0.042327 -0.019977
v 0.020125 0.040729 -0.021978
v 0.017938 0.044021 -0.019977
v 0.017081 0.042337 -0.021978
v 0.014657 0.045473 -0.019977
v 0.013926 0.043715 -0.021978
v 0.011277 0.046676 -0.019977
v 0.010677 0.044857 -0.021978
v 0.007824 0.047648 -0.019977
v 0.007359 0.045778 -0.021978
v 0.004309 0.048374 -0.019977
v 0.003982 0.046462 -0.021978
v 0.000749 0.048802 -0.019977
v 0.000563 0.046850 -0.021978
v -0.002834 0.048793 -0.019977
v -0.002876 0.046818 -0.021978
v -0.006407 0.048463 -0.019977
v -0.006304 0.046490 -0.021978
v -0.009944 0.047858 -0.019977
v -0.009696 0.045894 -0.021978
v -0.013389 0.046892 -0.019977
v -0.012994 0.044939 -0.021978
v -0.016665 0.045437 -0.019977
v -0.016129 0.043521 -0.021978
v -0.019794 0.043676 -0.019977
v -0.019121 0.041811 -0.021978
v -0.022829 0.041783 -0.019977
v -0.022043 0.040019 -0.021978
v -0.026123 0.040496 -0.019977
v -0.025223 0.038819 -0.021978
v -0.029533 0.039390 -0.019977
v -0.028492 0.037745 -0.021978
v -0.032860 0.038050 -0.019977
v -0.031677 0.036439 -0.021978
v -0.036090 0.036487 -0.019977
v -0.034775 0.034935 -0.021978
v -0.039287 0.034858 -0.019977
v -0.037841 0.033367 -0.021978
v -0.042385 0.033049 -0.019977
v -0.040807 0.031617 -0.021978
v -0.045346 0.031023 -0.019977
v -0.043643 0.029662 -0.021978
v -0.048150 0.028786 -0.019977
v -0.046320 0.027500 -0.021978
v -0.050673 0.026243 -0.019977
v -0.048726 0.025043 -0.021978
v -0.052959 0.023479 -0.019977
v -0.050911 0.022382 -0.021978
v -0.055080 0.020581 -0.019977
v -0.052941 0.019596 -0.021978
v -0.056993 0.017548 -0.019977
v -0.054758 0.016675 -0.021978
v -0.058411 0.014289 -0.019977
v -0.056079 0.013531 -0.021978
v -0.059207 0.010798 -0.019977
v -0.056819 0.010173 -0.021978
v -0.059730 0.007246 -0.019977
v -0.057315 0.006764 -0.021978
v -0.060055 0.003672 -0.019977
v -0.057617 0.003333 -0.021978
v -0.060176 0.000086 -0.019977
v -0.057721 -0.000109 -0.021978
v -0.060065 -0.003500 -0.019977
v -0.057603 -0.003551 -0.021978
v -0.059751 -0.007074 -0.019977
v -0.057290 -0.006981 -0.021978
v -0.059239 -0.010629 -0.019977
v -0.056792 -0.010393 -0.021978
v -0.058465 -0.014127 -0.019977
v -0.056021 -0.013741 -0.021978
v -0.057071 -0.017396 -0.019977
v -0.054645 -0.016863 -0.021978
v -0.055176 -0.020438 -0.019977
v -0.052810 -0.019773 -0.021978
v -0.053065 -0.023342 -0.019977
v -0.050779 -0.022556 -0.021978
v -0.050789 -0.026116 -0.019977
v -0.048584 -0.025210 -0.021978
v -0.048278 -0.028670 -0.019977
v -0.046157 -0.027644 -0.021978
v -0.045485 -0.030919 -0.019977
v -0.043464 -0.029789 -0.021978
v -0.042530 -0.032956 -0.019977
v -0.040622 -0.031734 -0.021978
v -0.039438 -0.034774 -0.019977
v -0.037647 -0.033466 -0.021978
v -0.036244 -0.036410 -0.019977
v -0.034580 -0.035033 -0.021978
v -0.033018 -0.037981 -0.019977
v -0.031481 -0.036534 -0.021978
v -0.029694 -0.039330 -0.019977
v -0.028282 -0.037810 -0.021978
v -0.026284 -0.040436 -0.019977
v -0.025008 -0.038863 -0.021978
v -0.022982 -0.041707 -0.019977
v -0.021858 -0.040125 -0.021978
v -0.019944 -0.043592 -0.019977
v -0.018947 -0.041949 -0.021978
v -0.016820 -0.045361 -0.019977
v -0.015936 -0.043626 -0.021978
v -0.013551 -0.046834 -0.019977
v -0.012789 -0.045015 -0.021978
v -0.010112 -0.047819 -0.019977
v -0.009480 -0.045935 -0.021978
v -0.006578 -0.048440 -0.019977
v -0.006087 -0.046517 -0.021978
v -0.003006 -0.048785 -0.019977
v -0.002657 -0.046835 -0.021978
v 0.000577 -0.048812 -0.019977
v 0.000781 -0.046837 -0.021978
v 0.004139 -0.048401 -0.019977
v 0.004198 -0.046422 -0.021978
v 0.007656 -0.047688 -0.019977
v 0.007571 -0.045725 -0.021978
v 0.011112 -0.046728 -0.019977
v 0.010885 -0.044791 -0.021978
v 0.014497 -0.045537 -0.019977
v 0.014129 -0.043636 -0.021978
v 0.017782 -0.044095 -0.019977
v 0.017275 -0.042236 -0.021978
v 0.020945 -0.042404 -0.019977
v 0.020303 -0.040598 -0.021978
v 0.024106 -0.040778 -0.019977
v 0.023353 -0.039079 -0.021978
v 0.027550 -0.039818 -0.019977
v 0.026668 -0.038175 -0.021978
v 0.030961 -0.038706 -0.019977
v 0.029932 -0.037081 -0.021978
v 0.034277 -0.037337 -0.019977
v 0.033110 -0.035758 -0.021978
v 0.037553 -0.035877 -0.019977
v 0.036257 -0.034360 -0.021978
v 0.040833 -0.034423 -0.019977
v 0.039402 -0.032958 -0.021978
v 0.044005 -0.032750 -0.019977
v 0.042439 -0.031336 -0.021978
v 0.047064 -0.030870 -0.019977
v 0.045371 -0.029525 -0.021978
v 0.049948 -0.028746 -0.019977
v 0.048118 -0.027461 -0.021978
v 0.052426 -0.026159 -0.019977
v 0.050479 -0.024959 -0.021978
v 0.054708 -0.023388 -0.019977
v 0.052664 -0.022296 -0.021978
v 0.056831 -0.020492 -0.019977
v 0.054694 -0.019511 -0.021978
v 0.058735 -0.017455 -0.019977
v 0.056500 -0.016584 -0.021978
v 0.060152 -0.014185 -0.019977
v 0.057828 -0.013432 -0.021978
v 0.061103 -0.010729 -0.019977
v 0.058724 -0.010109 -0.021978
v 0.061811 -0.007210 -0.019977
v 0.059395 -0.006731 -0.021978
v 0.062341 -0.003659 -0.019977
v 0.059899 -0.003321 -0.021978
v 0.059822 0.003430 -0.017695
v 0.060093 0.000002 -0.017695
v 0.059317 0.006837 -0.017695
v 0.058644 0.010214 -0.017695
v 0.057741 0.013533 -0.017695
v 0.056392 0.016674 -0.017695
v 0.054572 0.019591 -0.017695
v 0.052539 0.022371 -0.017695
v 0.050355 0.025034 -0.017695
v 0.047986 0.027525 -0.017695
v 0.045225 0.029568 -0.017695
v 0.042293 0.031375 -0.017695
v 0.039252 0.032985 -0.017695
v 0.036106 0.034380 -0.017695
v 0.032965 0.035783 -0.017695
v 0.029786 0.037101 -0.017695
v 0.026514 0.038170 -0.017695
v 0.023207 0.039079 -0.017695
v 0.020174 0.040634 -0.017695
v 0.017143 0.042263 -0.017695
v 0.013994 0.043652 -0.017695
v 0.010749 0.044799 -0.017695
v 0.007435 0.045726 -0.017695
v 0.004063 0.046417 -0.017695
v 0.000646 0.046820 -0.017695
v -0.002791 0.046801 -0.017695
v -0.006218 0.046478 -0.017695
v -0.009609 0.045890 -0.017695
v -0.012912 0.044955 -0.017695
v -0.016050 0.043549 -0.017695
v -0.019049 0.041853 -0.017695
v -0.021958 0.040035 -0.017695
v -0.025122 0.038810 -0.017695
v -0.028395 0.037754 -0.017695
v -0.031585 0.036466 -0.017695
v -0.034681 0.034961 -0.017695
v -0.037746 0.033396 -0.017695
v -0.040715 0.031657 -0.017695
v -0.043553 0.029708 -0.017695
v -0.046238 0.027557 -0.017695
v -0.048652 0.025112 -0.017695
v -0.050840 0.022455 -0.017695
v -0.052869 0.019672 -0.017695
v -0.054698 0.016760 -0.017695
v -0.056048 0.013629 -0.017695
v -0.056798 0.010275 -0.017695
v -0.057292 0.006866 -0.017695
v -0.057599 0.003438 -0.017695
v -0.057710 -0.000002 -0.017695
v -0.057598 -0.003442 -0.017695
v -0.057292 -0.006870 -0.017695
v -0.056796 -0.010279 -0.017695
v -0.056046 -0.013633 -0.017695
v -0.054697 -0.016764 -0.017695
v -0.052867 -0.019676 -0.017695
v -0.050837 -0.022458 -0.017695
v -0.048649 -0.025115 -0.017695
v -0.046235 -0.027561 -0.017695
v -0.043550 -0.029711 -0.017695
v -0.040712 -0.031659 -0.017695
v -0.037743 -0.033398 -0.017695
v -0.034677 -0.034963 -0.017695
v -0.031581 -0.036467 -0.017695
v -0.028391 -0.037757 -0.017695
v -0.025118 -0.038814 -0.017695
v -0.021953 -0.040036 -0.017695
v -0.019044 -0.041853 -0.017695
v -0.016046 -0.043550 -0.017695
v -0.012908 -0.044956 -0.017695
v -0.009605 -0.045891 -0.017695
v -0.006214 -0.046478 -0.017695
v -0.002786 -0.046801 -0.017695
v 0.000651 -0.046820 -0.017695
v 0.004067 -0.046416 -0.017695
v 0.007439 -0.045725 -0.017695
v 0.010753 -0.044798 -0.017695
v 0.013998 -0.043650 -0.017695
v 0.017147 -0.042262 -0.017695
v 0.020179 -0.040634 -0.017695
v 0.023211 -0.039076 -0.017695
v 0.026518 -0.038166 -0.017695
v 0.029790 -0.037100 -0.017695
v 0.032969 -0.035782 -0.017695
v 0.036110 -0.034378 -0.017695
v 0.039256 -0.032982 -0.017695
v 0.042297 -0.031373 -0.017695
v 0.045228 -0.029565 -0.017695
v 0.047989 -0.027522 -0.017695
v 0.050359 -0.025031 -0.017695
v 0.052542 -0.022368 -0.017695
v 0.054574 -0.019587 -0.017695
v 0.056394 -0.016670 -0.017695
v 0.057743 -0.013529 -0.017695
v 0.058645 -0.010210 -0.017695
v 0.059318 -0.006832 -0.017695
v 0.059821 -0.003425 -0.017695
v 0.056558 0.003245 -0.015488
v 0.056814 0.000005 -0.015488
v 0.056080 0.006466 -0.015488
v 0.055443 0.009659 -0.015488
v 0.054589 0.012796 -0.015488
v 0.053314 0.015766 -0.015488
v 0.051593 0.018524 -0.015488
v 0.049671 0.021152 -0.015488
v 0.047606 0.023669 -0.015488
v 0.045366 0.026024 -0.015488
v 0.042755 0.027957 -0.015488
v 0.039984 0.029665 -0.015488
v 0.037108 0.031187 -0.015488
v 0.034134 0.032506 -0.015488
v 0.031164 0.033831 -0.015488
v 0.028159 0.035077 -0.015488
v 0.025066 0.036089 -0.015488
v 0.021939 0.036948 -0.015488
v 0.019071 0.038417 -0.015488
v 0.016205 0.039958 -0.015488
v 0.013228 0.041271 -0.015488
v 0.010160 0.042356 -0.015488
v 0.007027 0.043232 -0.015488
v 0.003838 0.043884 -0.015488
v 0.000608 0.044265 -0.015488
v -0.002641 0.044248 -0.015488
v -0.005881 0.043941 -0.015488
v -0.009087 0.043385 -0.015488
v -0.012210 0.042501 -0.015488
v -0.015177 0.041172 -0.015488
v -0.018012 0.039570 -0.015488
v -0.020762 0.037850 -0.015488
v -0.023753 0.036691 -0.015488
v -0.026848 0.035693 -0.015488
v -0.029864 0.034475 -0.015488
v -0.032791 0.033053 -0.015488
v -0.035689 0.031572 -0.015488
v -0.038496 0.029928 -0.015488
v -0.041178 0.028086 -0.015488
v -0.043717 0.026052 -0.015488
v -0.045999 0.023740 -0.015488
v -0.048067 0.021228 -0.015488
v -0.049986 0.018597 -0.015488
v -0.051714 0.015843 -0.015488
v -0.052991 0.012883 -0.015488
v -0.053700 0.009712 -0.015488
v -0.054167 0.006489 -0.015488
v -0.054456 0.003248 -0.015488
v -0.054562 -0.000005 -0.015488
v -0.054456 -0.003257 -0.015488
v -0.054165 -0.006498 -0.015488
v -0.053696 -0.009720 -0.015488
v -0.052987 -0.012891 -0.015488
v -0.051712 -0.015851 -0.015488
v -0.049982 -0.018605 -0.015488
v -0.048062 -0.021235 -0.015488
v -0.045993 -0.023746 -0.015488
v -0.043710 -0.026058 -0.015488
v -0.041172 -0.028092 -0.015488
v -0.038488 -0.029933 -0.015488
v -0.035681 -0.031578 -0.015488
v -0.032783 -0.033057 -0.015488
v -0.029855 -0.034478 -0.015488
v -0.026840 -0.035698 -0.015488
v -0.023746 -0.036698 -0.015488
v -0.020753 -0.037853 -0.015488
v -0.018002 -0.039570 -0.015488
v -0.015168 -0.041175 -0.015488
v -0.012201 -0.042504 -0.015488
v -0.009079 -0.043388 -0.015488
v -0.005872 -0.043943 -0.015488
v -0.002632 -0.044247 -0.015488
v 0.000618 -0.044265 -0.015488
v 0.003847 -0.043884 -0.015488
v 0.007036 -0.043230 -0.015488
v 0.010169 -0.042353 -0.015488
v 0.013237 -0.041267 -0.015488
v 0.016214 -0.039955 -0.015488
v 0.019081 -0.038418 -0.015488
v 0.021947 -0.036944 -0.015488
v 0.025073 -0.036082 -0.015488
v 0.028167 -0.035075 -0.015488
v 0.031173 -0.033829 -0.015488
v 0.034143 -0.032501 -0.015488
v 0.037116 -0.031181 -0.015488
v 0.039992 -0.029660 -0.015488
v 0.042762 -0.027950 -0.015488
v 0.045373 -0.026018 -0.015488
v 0.047613 -0.023664 -0.015488
v 0.049677 -0.021145 -0.015488
v 0.051597 -0.018516 -0.015488
v 0.053317 -0.015758 -0.015488
v 0.054594 -0.012788 -0.015488
v 0.055447 -0.009650 -0.015488
v 0.056082 -0.006457 -0.015488
v 0.056557 -0.003236 -0.015488
v 0.050314 0.002871 -0.013280
v 0.050540 -0.000011 -0.013280
v 0.049890 0.005737 -0.013280
v 0.049324 0.008577 -0.013280
v 0.048566 0.011369 -0.013280
v 0.047435 0.014012 -0.013280
v 0.045905 0.016466 -0.013280
v 0.044196 0.018804 -0.013280
v 0.042358 0.021043 -0.013280
v 0.040368 0.023140 -0.013280
v 0.038047 0.024861 -0.013280
v 0.035582 0.026381 -0.013280
v 0.033025 0.027736 -0.013280
v 0.030379 0.028910 -0.013280
v 0.027736 0.030089 -0.013280
v 0.025063 0.031198 -0.013280
v 0.022313 0.032101 -0.013280
v 0.019530 0.032862 -0.013280
v 0.016977 0.034166 -0.013280
v 0.014429 0.035538 -0.013280
v 0.011782 0.036708 -0.013280
v 0.009053 0.037674 -0.013280
v 0.006266 0.038454 -0.013280
v 0.003430 0.039035 -0.013280
v 0.000557 0.039376 -0.013280
v -0.002334 0.039363 -0.013280
v -0.005216 0.039091 -0.013280
v -0.008069 0.038597 -0.013280
v -0.010847 0.037813 -0.013280
v -0.013487 0.036633 -0.013280
v -0.016010 0.035209 -0.013280
v -0.018456 0.033677 -0.013280
v -0.021115 0.032643 -0.013280
v -0.023868 0.031757 -0.013280
v -0.026552 0.030675 -0.013280
v -0.029156 0.029409 -0.013280
v -0.031734 0.028093 -0.013280
v -0.034232 0.026631 -0.013280
v -0.036618 0.024993 -0.013280
v -0.038878 0.023186 -0.013280
v -0.040910 0.021130 -0.013280
v -0.042750 0.018896 -0.013280
v -0.044457 0.016556 -0.013280
v -0.045996 0.014107 -0.013280
v -0.047135 0.011475 -0.013280
v -0.047768 0.008655 -0.013280
v -0.048183 0.005788 -0.013280
v -0.048442 0.002904 -0.013280
v -0.048536 0.000011 -0.013280
v -0.048443 -0.002882 -0.013280
v -0.048186 -0.005765 -0.013280
v -0.047769 -0.008632 -0.013280
v -0.047140 -0.011453 -0.013280
v -0.046009 -0.014088 -0.013280
v -0.044472 -0.016538 -0.013280
v -0.042763 -0.018878 -0.013280
v -0.040924 -0.021112 -0.013280
v -0.038895 -0.023171 -0.013280
v -0.036638 -0.024981 -0.013280
v -0.034251 -0.026619 -0.013280
v -0.031755 -0.028083 -0.013280
v -0.029176 -0.029399 -0.013280
v -0.026572 -0.030664 -0.013280
v -0.023891 -0.031751 -0.013280
v -0.021139 -0.032642 -0.013280
v -0.018474 -0.033665 -0.013280
v -0.016027 -0.035191 -0.013280
v -0.013507 -0.036621 -0.013280
v -0.010868 -0.037805 -0.013280
v -0.008092 -0.038594 -0.013280
v -0.005239 -0.039088 -0.013280
v -0.002357 -0.039360 -0.013280
v 0.000534 -0.039378 -0.013280
v 0.003407 -0.039040 -0.013280
v 0.006244 -0.038460 -0.013280
v 0.009031 -0.037681 -0.013280
v 0.011760 -0.036716 -0.013280
v 0.014410 -0.035550 -0.013280
v 0.016961 -0.034184 -0.013280
v 0.019509 -0.032868 -0.013280
v 0.022289 -0.032100 -0.013280
v 0.025042 -0.031207 -0.013280
v 0.027716 -0.030099 -0.013280
v 0.030358 -0.028918 -0.013280
v 0.033003 -0.027745 -0.013280
v 0.035562 -0.026393 -0.013280
v 0.038026 -0.024872 -0.013280
v 0.040351 -0.023156 -0.013280
v 0.042345 -0.021063 -0.013280
v 0.044182 -0.018822 -0.013280
v 0.045890 -0.016484 -0.013280
v 0.047422 -0.014031 -0.013280
v 0.048561 -0.011391 -0.013280
v 0.049320 -0.008600 -0.013280
v 0.049886 -0.005759 -0.013280
v 0.050309 -0.002894 -0.013280
v 0.040774 0.002368 -0.010999
v 0.040960 0.000031 -0.010999
v 0.040427 0.004690 -0.010999
v 0.039965 0.006992 -0.010999
v 0.039346 0.009253 -0.010999
v 0.038424 0.011393 -0.010999
v 0.037181 0.013381 -0.010999
v 0.035793 0.015275 -0.010999
v 0.034301 0.017087 -0.010999
v 0.032684 0.018783 -0.010999
v 0.030801 0.020176 -0.010999
v 0.028800 0.021405 -0.010999
v 0.026726 0.022501 -0.010999
v 0.024581 0.023452 -0.010999
v 0.022439 0.024406 -0.010999
v 0.020271 0.025303 -0.010999
v 0.018042 0.026034 -0.010999
v 0.015787 0.026656 -0.010999
v 0.013718 0.027713 -0.010999
v 0.011652 0.028825 -0.010999
v 0.009505 0.029770 -0.010999
v 0.007292 0.030550 -0.010999
v 0.005032 0.031180 -0.010999
v 0.002733 0.031648 -0.010999
v 0.000404 0.031920 -0.010999
v -0.001939 0.031905 -0.010999
v -0.004276 0.031681 -0.010999
v -0.006587 0.031277 -0.010999
v -0.008837 0.030637 -0.010999
v -0.010976 0.029677 -0.010999
v -0.013021 0.028522 -0.010999
v -0.015005 0.027284 -0.010999
v -0.017161 0.026446 -0.010999
v -0.019393 0.025727 -0.010999
v -0.021568 0.024849 -0.010999
v -0.023678 0.023822 -0.010999
v -0.025767 0.022752 -0.010999
v -0.027790 0.021565 -0.010999
v -0.029723 0.020235 -0.010999
v -0.031551 0.018766 -0.010999
v -0.033196 0.017098 -0.010999
v -0.034685 0.015285 -0.010999
v -0.036066 0.013386 -0.010999
v -0.037309 0.011399 -0.010999
v -0.038227 0.009263 -0.010999
v -0.038736 0.006976 -0.010999
v -0.039070 0.004651 -0.010999
v -0.039277 0.002314 -0.010999
v -0.039351 -0.000031 -0.010999
v -0.039273 -0.002376 -0.010999
v -0.039062 -0.004713 -0.010999
v -0.038720 -0.007036 -0.010999
v -0.038205 -0.009321 -0.010999
v -0.037284 -0.011455 -0.010999
v -0.036034 -0.013439 -0.010999
v -0.034646 -0.015334 -0.010999
v -0.033153 -0.017143 -0.010999
v -0.031505 -0.018809 -0.010999
v -0.029673 -0.020273 -0.010999
v -0.027737 -0.021599 -0.010999
v -0.025712 -0.022784 -0.010999
v -0.023621 -0.023849 -0.010999
v -0.021510 -0.024872 -0.010999
v -0.019335 -0.025752 -0.010999
v -0.017105 -0.026475 -0.010999
v -0.014947 -0.027308 -0.010999
v -0.012963 -0.028545 -0.010999
v -0.010919 -0.029702 -0.010999
v -0.008779 -0.030658 -0.010999
v -0.006527 -0.031293 -0.010999
v -0.004214 -0.031690 -0.010999
v -0.001877 -0.031907 -0.010999
v 0.000466 -0.031917 -0.010999
v 0.002795 -0.031640 -0.010999
v 0.005093 -0.031166 -0.010999
v 0.007352 -0.030532 -0.010999
v 0.009563 -0.029747 -0.010999
v 0.011710 -0.028799 -0.010999
v 0.013778 -0.027693 -0.010999
v 0.015845 -0.026631 -0.010999
v 0.018098 -0.026007 -0.010999
v 0.020330 -0.025282 -0.010999
v 0.022497 -0.024383 -0.010999
v 0.024638 -0.023425 -0.010999
v 0.026782 -0.022471 -0.010999
v 0.028855 -0.021373 -0.010999
v 0.030850 -0.020137 -0.010999
v 0.032731 -0.018742 -0.010999
v 0.034345 -0.017044 -0.010999
v 0.035831 -0.015225 -0.010999
v 0.037213 -0.013328 -0.010999
v 0.038451 -0.011337 -0.010999
v 0.039369 -0.009195 -0.010999
v 0.039982 -0.006932 -0.010999
v 0.040438 -0.004628 -0.010999
v 0.040777 -0.002306 -0.010999
v 0.033154 0.001850 -0.008997
v 0.033293 -0.000049 -0.008997
v 0.032873 0.003737 -0.008997
v 0.032501 0.005607 -0.008997
v 0.032005 0.007446 -0.008997
v 0.031269 0.009190 -0.008997
v 0.030268 0.010809 -0.008997
v 0.029142 0.012350 -0.008997
v 0.027932 0.013823 -0.008997
v 0.026626 0.015209 -0.008997
v 0.025105 0.016351 -0.008997
v 0.023480 0.017351 -0.008997
v 0.021798 0.018248 -0.008997
v 0.020057 0.019023 -0.008997
v 0.018315 0.019795 -0.008997
v 0.016556 0.020528 -0.008997
v 0.014749 0.021134 -0.008997
v 0.012914 0.021631 -0.008997
v 0.011226 0.022472 -0.008997
v 0.009552 0.023382 -0.008997
v 0.007810 0.024157 -0.008997
v 0.006014 0.024796 -0.008997
v 0.004180 0.025312 -0.008997
v 0.002313 0.025697 -0.008997
v 0.000421 0.025926 -0.008997
v -0.001482 0.025924 -0.008997
v -0.003380 0.025747 -0.008997
v -0.005259 0.025423 -0.008997
v -0.007090 0.024914 -0.008997
v -0.008832 0.024144 -0.008997
v -0.010497 0.023213 -0.008997
v -0.012107 0.022201 -0.008997
v -0.013850 0.021502 -0.008997
v -0.015664 0.020923 -0.008997
v -0.017435 0.020218 -0.008997
v -0.019150 0.019386 -0.008997
v -0.020847 0.018518 -0.008997
v -0.022494 0.017559 -0.008997
v -0.024066 0.016482 -0.008997
v -0.025557 0.015295 -0.008997
v -0.026900 0.013946 -0.008997
v -0.028113 0.012476 -0.008997
v -0.029237 0.010936 -0.008997
v -0.030252 0.009324 -0.008997
v -0.031014 0.007596 -0.008997
v -0.031439 0.005742 -0.008997
v -0.031711 0.003852 -0.008997
v -0.031884 0.001954 -0.008997
v -0.031949 0.000049 -0.008997
v -0.031890 -0.001856 -0.008997
v -0.031722 -0.003755 -0.008997
v -0.031447 -0.005642 -0.008997
v -0.031038 -0.007501 -0.008997
v -0.030306 -0.009241 -0.008997
v -0.029298 -0.010857 -0.008997
v -0.028172 -0.012398 -0.008997
v -0.026962 -0.013870 -0.008997
v -0.025631 -0.015230 -0.008997
v -0.024148 -0.016426 -0.008997
v -0.022577 -0.017507 -0.008997
v -0.020935 -0.018474 -0.008997
v -0.019237 -0.019341 -0.008997
v -0.017522 -0.020174 -0.008997
v -0.015760 -0.020896 -0.008997
v -0.013949 -0.021489 -0.008997
v -0.012189 -0.022151 -0.008997
v -0.010573 -0.023145 -0.008997
v -0.008918 -0.024094 -0.008997
v -0.007182 -0.024879 -0.008997
v -0.005356 -0.025407 -0.008997
v -0.003478 -0.025735 -0.008997
v -0.001581 -0.025915 -0.008997
v 0.000323 -0.025932 -0.008997
v 0.002216 -0.025716 -0.008997
v 0.004084 -0.025336 -0.008997
v 0.005920 -0.024825 -0.008997
v 0.007719 -0.024193 -0.008997
v 0.009465 -0.023429 -0.008997
v 0.011149 -0.022538 -0.008997
v 0.012823 -0.021661 -0.008997
v 0.014647 -0.021141 -0.008997
v 0.016465 -0.020566 -0.008997
v 0.018228 -0.019839 -0.008997
v 0.019966 -0.019059 -0.008997
v 0.021708 -0.018286 -0.008997
v 0.023395 -0.017401 -0.008997
v 0.025017 -0.016399 -0.008997
v 0.026553 -0.015275 -0.008997
v 0.027873 -0.013904 -0.008997
v 0.029082 -0.012427 -0.008997
v 0.030207 -0.010888 -0.008997
v 0.031219 -0.009275 -0.008997
v 0.031978 -0.007541 -0.008997
v 0.032484 -0.005704 -0.008997
v 0.032857 -0.003833 -0.008997
v 0.033134 -0.001947 -0.008997
v 0.000790 0.000000 -0.022332
v 0.000427 0.000000 -0.008644
f 1 2 3
f 4 1 3
f 5 1 4
f 6 5 4
f 7 5 6
f 8 7 6
f 9 7 8
f 10 9 8
f 11 9 10
f 12 11 10
f 13 11 12
f 14 13 12
f 15 13 14
f 16 15 14
f 17 15 16
f 18 17 16
f 19 17 18
f 20 19 18
f 21 19 20
f 22 21 20
f 23 21 22
f 24 23 22
f 25 23 24
f 26 25 24
f 27 25 26
f 28 27 26
f 29 27 28
f 30 29 28
f 31 29 30
f 32 31 30
f 33 31 32
f 34 33 32
f 35 33 34
f 36 35 34
f 37 35 36
f 38 37 36
f 39 37 38
f 40 39 38
f 41 39 40
f 42 41 40
f 43 41 42
f 44 43 42
f 45 43 44
f 46 45 44
f 47 45 46
f 48 47 46
f 49 47 48
f 50 49 48
f 51 49 50
f 52 51 50
f 53 51 52
f 54 53 52
f 55 53 54
f 56 55 54
f 57 55 56
f 58 57 56
f 59 57 58
f 60 59 58
f 61 59 60
f 62 61 60
f 63 61 62
f 64 63 62
f 65 63 64
f 66 65 64
f 67 65 66
f 68 67 66
f 69 67 68
f 70 69 68
f 71 69 70
f 72 71 70
f 73 71 72
f 74 73 72
f 75 73 74
f 76 75 74
f 77 75 76
f 78 77 76
f 79 77 78
f 80 79 78
f 81 79 80
f 82 81 80
f 83 81 82
f 84 83 82
f 85 83 84
f 86 85 84
f 87 85 86
f 88 87 86
f 89 87 88
f 90 89 88
f 91 89 90
f 92 91 90
f 93 91 92
f 94 93 92
f 95 93 94
f 96 95 94
f 97 95 96
f 98 97 96
f 99 97 98
f 100 99 98
f 101 99 100
f 102 101 100
f 103 101 102
f 104 103 102
f 105 103 104
f 106 105 104
f 107 105 106
f 108 107 106
f 109 107 108
f 110 109 108
f 111 109 110
f 112 111 110
f 113 111 112
f 114 113 112
f 115 113 114
f 116 115 114
f 117 115 116
f 118 117 116
f 119 117 118
f 120 119 118
f 121 119 120
f 122 121 120
f 123 121 122
f 124 123 122
f 125 123 124
f 126 125 124
f 127 125 126
f 128 127 126
f 129 127 128
f 130 129 128
f 131 129 130
f 132 131 130
f 133 131 132
f 134 133 132
f 135 133 134
f 136 135 134
f 137 135 136
f 138 137 136
f 139 137 138
f 140 139 138
f 141 139 140
f 142 141 140
f 143 141 142
f 144 143 142
f 145 143 144
f 146 145 144
f 147 145 146
f 148 147 146
f 149 147 148
f 150 149 148
f 151 149 150
f 152 151 150
f 153 151 152
f 154 153 152
f 155 153 154
f 156 155 154
f 157 155 156
f 158 157 156
f 159 157 158
f 160 159 158
f 161 159 160
f 162 161 160
f 163 161 162
f 164 163 162
f 165 163 164
f 166 165 164
f 167 165 166
f 168 167 166
f 169 167 168
f 170 169 168
f 171 169 170
f 172 171 170
f 173 171 172
f 174 173 172
f 175 173 174
f 176 175 174
f 177 175 176
f 178 177 176
f 179 177 178
f 180 179 178
f 181 179 180
f 182 181 180
f 183 181 182
f 184 183 182
f 185 183 184
f 186 185 184
f 187 185 186
f 188 187 186
f 189 187 188
f 190 189 188
f 191 189 190
f 192 191 190
f 2 191 192
f 3 2 192
f 193 194 2
f 1 193 2
f 195 193 1
f 5 195 1
f 196 195 5
f 7 196 5
f 197 196 7
f 9 197 7
f 198 197 9
f 11 198 9
f 199 198 11
f 13 199 11
f 200 199 13
f 15 200 13
f 201 200 15
f 17 201 15
f 202 201 17
f 19 202 17
f 203 202 19
f 21 203 19
f 204 203 21
f 23 204 21
f 205 204 23
f 25 205 23
f 206 205 25
f 27 206 25
f 207 206 27
f 29 207 27
f 208 207 29
f 31 208 29
f 209 208 31
f 33 209 31
f 210 209 33
f 35 210 33
f 211 210 35
f 37 211 35
f 212 211 37
f 39 212 37
f 213 212 39
f 41 213 39
f 214 213 41
f 43 214 41
f 215 214 43
f 45 215 43
f 216 215 45
f 47 216 45
f 217 216 47
f 49 217 47
f 218 217 49
f 51 218 49
f 219 218 51
f 53 219 51
f 220 219 53
f 55 220 53
f 221 220 55
f 57 221 55
f 222 221 57
f 59 222 57
f 223 222 59
f 61 223 59
f 224 223 61
f 63 224 61
f 225 224 63
f 65 225 63
f 226 225 65
f 67 226 65
f 227 226 67
f 69 227 67
f 228 227 69
f 71 228 69
f 229 228 71
f 73 229 71
f 230 229 73
f 75 230 73
f 231 230 75
f 77 231 75
f 232 231 77
f 79 232 77
f 233 232 79
f 81 233 79
f 234 233 81
f 83 234 81
f 235 234 83
f 85 235 83
f 236 235 85
f 87 236 85
f 237 236 87
f 89 237 87
f 238 237 89
f 91 238 89
f 239 238 91
f 93 239 91
f 240 239 93
f 95 240 93
f 241 240 95
f 97 241 95
f 242 241 97
f 99 242 97
f 243 242 99
f 101 243 99
f 244 243 101
f 103 244 101
f 245 244 103
f 105 245 103
f 246 245 105
f 107 246 105
f 247 246 107
f 109 247 107
f 248 247 109
f 111 248 109
f 249 248 111
f 113 249 111
f 250 249 113
f 115 250 113
f 251 250 115
f 117 251 115
f 252 251 117
f 119 252 117
f 253 252 119
f 121 253 119
f 254 253 121
f 123 254 121
f 255 254 123
f 125 255 123
f 256 255 125
f 127 256 125
f 257 256 127
f 129 257 127
f 258 257 129
f 131 258 129
f 259 258 131
f 133 259 131
f 260 259 133
f 135 260 133
f 261 260 135
f 137 261 135
f 262 261 137
f 139 262 137
f 263 262 139
f 141 263 139
f 264 263 141
f 143 264 141
f 265 264 143
f 145 265 143
f 266 265 145
f 147 266 145
f 267 266 147
f 149 267 147
f 268 267 149
f 151 268 149
f 269 268 151
f 153 269 151
f 270 269 153
f 155 270 153
f 271 270 155
f 157 271 155
f 272 271 157
f 159 272 157
f 273 272 159
f 161 273 159
f 274 273 161
f 163 274 161
f 275 274 163
f 165 275 163
f 276 275 165
f 167 276 165
f 277 276 167
f 169 277 167
f 278 277 169
f 171 278 169
f 279 278 171
f 173 279 171
f 280 279 173
f 175 280 173
f 281 280 175
f 177 281 175
f 282 281 177
f 179 282 177
f 283 282 179
f 181 283 179
f 284 283 181
f 183 284 181
f 285 284 183
f 185 285 183
f 286 285 185
f 187 286 185
f 287 286 187
f 189 287 187
f 288 287 189
f 191 288 189
f 194 288 191
f 2 194 191
f 289 290 194
f 193 289 194
f 291 289 193
f 195 291 193
f 292 291 195
f 196 292 195
f 293 292 196
f 197 293 196
f 294 293 197
f 198 294 197
f 295 294 198
f 199 295 198
f 296 295 199
f 200 296 199
f 297 296 200
f 201 297 200
f 298 297 201
f 202 298 201
f 299 298 202
f 203 299 202
f 300 299 203
f 204 300 203
f 301 300 204
f 205 301 204
f 302 301 205
f 206 302 205
f 303 302 206
f 207 303 206
f 304 303 207
f 208 304 207
f 305 304 208
f 209 305 208
f 306 305 209
f 210 306 209
f 307 306 210
f 211 307 210
f 308 307 211
f 212 308 211
f 309 308 212
f 213 309 212
f 310 309 213
f 214 310 213
f 311 310 214
f 215 311 214
f 312 311 215
f 216 312 215
f 313 312 216
f 217 313 216
f 314 313 217
f 218 314 217
f 315 314 218
f 219 315 218
f 316 315 219
f 220 316 219
f 317 316 220
f 221 317 220
f 318 317 221
f 222 318 221
f 319 318 222
f 223 319 222
f 320 319 223
f 224 320 223
f 321 320 224
f 225 321 224
f 322 321 225
f 226 322 225
f 323 322 226
f 227 323 226
f 324 323 227
f 228 324 227
f 325 324 228
f 229 325 228
f 326 325 229
f 230 326 229
f 327 326 230
f 231 327 230
f 328 327 231
f 232 328 231
f 329 328 232
f 233 329 232
f 330 329 233
f 234 330 233
f 331 330 234
f 235 331 234
f 332 331 235
f 236 332 235
f 333 332 236
f 237 333 236
f 334 333 237
f 238 334 237
f 335 334 238
f 239 335 238
f 336 335 239
f 240 336 239
f 337 336 240
f 241 337 240
f 338 337 241
f 242 338 241
f 339 338 242
f 243 339 242
f 340 339 243
f 244 340 243
f 341 340 244
f 245 341 244
f 342 341 245
f 246 342 245
f 343 342 246
f 247 343 246
f 344 343 247
f 248 344 247
f 345 344 248
f 249 345 248
f 346 345 249
f 250 346 249
f 347 346 250
f 251 347 250
f 348 347 251
f 252 348 251
f 349 348 252
f 253 349 252
f 350 349 253
f 254 350 253
f 351 350 254
f 255 351 254
f 352 351 255
f 256 352 255
f 353 352 256
f 257 353 256
f 354 353 257
f 258 354 257
f 355 354 258
f 259 355 258
f 356 355 259
f 260 356 259
f 357 356 260
f 261 357 260
f 358 357 261
f 262 358 261
f 359 358 262
f 263 359 262
f 360 359 263
f 264 360 263
f 361 360 264
f 265 361 264
f 362 361 265
f 266 362 265
f 363 362 266
f 267 363 266
f 364 363 267
f 268 364 267
f 365 364 268
f 269 365 268
f 366 365 269
f 270 366 269
f 367 366 270
f 271 367 270
f 368 367 271
f 272 368 271
f 369 368 272
f 273 369 272
f 370 369 273
f 274 370 273
f 371 370 274
f 275 371 274
f 372 371 275
f 276 372 275
f 373 372 276
f 277 373 276
f 374 373 277
f 278 374 277
f 375 374 278
f 279 375 278
f 376 375 279
f 280 376 279
f 377 376 280
f 281 377 280
f 378 377 281
f 282 378 281
f 379 378 282
f 283 379 282
f 380 379 283
f 284 380 283
f 381 380 284
f 285 381 284
f 382 381 285
f 286 382 285
f 383 382 286
f 287 383 286
f 384 383 287
f 288 384 287
f 290 384 288
f 194 290 288
f 385 386 290
f 289 385 290
f 387 385 289
f 291 387 289
f 388 387 291
f 292 388 291
f 389 388 292
f 293 389 292
f 390 389 293
f 294 390 293
f 391 390 294
f 295 391 294
f 392 391 295
f 296 392 295
f 393 392 296
f 297 393 296
f 394 393 297
f 298 394 297
f 395 394 298
f 299 395 298
f 396 395 299
f 300 396 299
f 397 396 300
f 301 397 300
f 398 397 301
f 302 398 301
f 399 398 302
f 303 399 302
f 400 399 303
f 304 400 303
f 401 400 304
f 305 401 304
f 402 401 305
f 306 402 305
f 403 402 306
f 307 403 306
f 404 403 307
f 308 404 307
f 405 404 308
f 309 405 308
f 406 405 309
f 310 406 309
f 407 406 310
f 311 407 310
f 408 407 311
f 312 408 311
f 409 408 312
f 313 409 312
f 410 409 313
f 314 410 313
f 411 410 314
f 315 411 314
f 412 411 315
f 316 412 315
f 413 412 316
f 317 413 316
f 414 413 317
f 318 414 317
f 415 414 318
f 319 415 318
f 416 415 319
f 320 416 319
f 417 416 320
f 321 417 320
f 418 417 321
f 322 418 321
f 419 418 322
f 323 419 322
f 420 419 323
f 324 420 323
f 421 420 324
f 325 421 324
f 422 421 325
f 326 422 325
f 423 422 326
f 327 423 326
f 424 423 327
f 328 424 327
f 425 424 328
f 329 425 328
f 426 425 329
f 330 426 329
f 427 426 330
f 331 427 330
f 428 427 331
f 332 428 331
f 429 428 332
f 333 429 332
f 430 429 333
f 334 430 333
f 431 430 334
f 335 431 334
f 432 431 335
f 336 432 335
f 433 432 336
f 337 433 336
f 434 433 337
f 338 434 337
f 435 434 338
f 339 435 338
f 436 435 339
f 340 436 339
f 437 436 340
f 341 437 340
f 438 437 341
f 342 438 341
f 439 438 342
f 343 439 342
f 440 439 343
f 344 440 343
f 441 440 344
f 345 441 344
f 442 441 345
f 346 442 345
f 443 442 346
f 347 443 346
f 444 443 347
f 348 444 347
f 445 444 348
f 349 445 348
f 446 445 349
f 350 446 349
f 447 446 350
f 351 447 350
f 448 447 351
f 352 448 351
f 449 448 352
f 353 449 352
f 450 449 353
f 354 450 353
f 451 450 354
f 355 451 354
f 452 451 355
f 356 452 355
f 453 452 356
f 357 453 356
f 454 453 357
f 358 454 357
f 455 454 358
f 359 455 358
f 456 455 359
f 360 456 359
f 457 456 360
f 361 457 360
f 458 457 361
f 362 458 361
f 459 458 362
f 363 459 362
f 460 459 363
f 364 460 363
f 461 460 364
f 365 461 364
f 462 461 365
f 366 462 365
f 463 462 366
f 367 463 366
f 464 463 367
f 368 464 367
f 465 464 368
f 369 465 368
f 466 465 369
f 370 466 369
f 467 466 370
f 371 467 370
f 468 467 371
f 372 468 371
f 469 468 372
f 373 469 372
f 470 469 373
f 374 470 373
f 471 470 374
f 375 471 374
f 472 471 375
f 376 472 375
f 473 472 376
f 377 473 376
f 474 473 377
f 378 474 377
f 475 474 378
f 379 475 378
f 476 475 379
f 380 476 379
f 477 476 380
f 381 477 380
f 478 477 381
f 382 478 381
f 479 478 382
f 383 479 382
f 480 479 383
f 384 480 383
f 386 480 384
f 290 386 384
f 481 482 386
f 385 481 386
f 483 481 385
f 387 483 385
f 484 483 387
f 388 484 387
f 485 484 388
f 389 485 388
f 486 485 389
f 390 486 389
f 487 486 390
f 391 487 390
f 488 487 391
f 392 488 391
f 489 488 392
f 393 489 392
f 490 489 393
f 394 490 393
f 491 490 394
f 395 491 394
f 492 491 395
f 396 492 395
f 493 492 396
f 397 493 396
f 494 493 397
f 398 494 397
f 495 494 398
f 399 495 398
f 496 495 399
f 400 496 399
f 497 496 400
f 401 497 400
f 498 497 401
f 402 498 401
f 499 498 402
f 403 499 402
f 500 499 403
f 404 500 403
f 501 500 404
f 405 501 404
f 502 501 405
f 406 502 405
f 503 502 406
f 407 503 406
f 504 503 407
f 408 504 407
f 505 504 408
f 409 505 408
f 506 505 409
f 410 506 409
f 507 506 410
f 411 507 410
f 508 507 411
f 412 508 411
f 509 508 412
f 413 509 412
f 510 509 413
f 414 510 413
f 511 510 414
f 415 511 414
f 512 511 415
f 416 512 415
f 513 512 416
f 417 513 416
f 514 513 417
f 418 514 417
f 515 514 418
f 419 515 418
f 516 515 419
f 420 516 419
f 517 516 420
f 421 517 420
f 518 517 421
f 422 518 421
f 519 518 422
f 423 519 422
f 520 519 423
f 424 520 423
f 521 520 424
f 425 521 424
f 522 521 425
f 426 522 425
f 523 522 426
f 427 523 426
f 524 523 427
f 428 524 427
f 525 524 428
f 429 525 428
f 526 525 429
f 430 526 429
f 527 526 430
f 431 527 430
f 528 527 431
f 432 528 431
f 529 528 432
f 433 529 432
f 530 529 433
f 434 530 433
f 531 530 434
f 435 531 434
f 532 531 435
f 436 532 435
f 533 532 436
f 437 533 436
f 534 533 437
f 438 534 437
f 535 534 438
f 439 535 438
f 536 535 439
f 440 536 439
f 537 536 440
f 441 537 440
f 538 537 441
f 442 538 441
f 539 538 442
f 443 539 442
f 540 539 443
f 444 540 443
f 541 540 444
f 445 541 444
f 542 541 445
f 446 542 445
f 543 542 446
f 447 543 446
f 544 543 447
f 448 544 447
f 545 544 448
f 449 545 448
f 546 545 449
f 450 546 449
f 547 546 450
f 451 547 450
f 548 547 451
f 452 548 451
f 549 548 452
f 453 549 452
f 550 549 453
f 454 550 453
f 551 550 454
f 455 551 454
f 552 551 455
f 456 552 455
f 553 552 456
f 457 553 456
f 554 553 457
f 458 554 457
f 555 554 458
f 459 555 458
f 556 555 459
f 460 556 459
f 557 556 460
f 461 557 460
f 558 557 461
f 462 558 461
f 559 558 462
f 463 559 462
f 560 559 463
f 464 560 463
f 561 560 464
f 465 561 464
f 562 561 465
f 466 562 465
f 563 562 466
f 467 563 466
f 564 563 467
f 468 564 467
f 565 564 468
f 469 565 468
f 566 565 469
f 470 566 469
f 567 566 470
f 471 567 470
f 568 567 471
f 472 568 471
f 569 568 472
f 473 569 472
f 570 569 473
f 474 570 473
f 571 570 474
f 475 571 474
f 572 571 475
f 476 572 475
f 573 572 476
f 477 573 476
f 574 573 477
f 478 574 477
f 575 574 478
f 479 575 478
f 576 575 479
f 480 576 479
f 482 576 480
f 386 482 480
f 577 578 482
f 481 577 482
f 579 577 481
f 483 579 481
f 580 579 483
f 484 580 483
f 581 580 484
f 485 581 484
f 582 581 485
f 486 582 485
f 583 582 486
f 487 583 486
f 584 583 487
f 488 584 487
f 585 584 488
f 489 585 488
f 586 585 489
f 490 586 489
f 587 586 490
f 491 587 490
f 588 587 491
f 492 588 491
f 589 588 492
f 493 589 492
f 590 589 493
f 494 590 493
f 591 590 494
f 495 591 494
f 592 591 495
f 496 592 495
f 593 592 496
f 497 593 496
f 594 593 497
f 498 594 497
f 595 594 498
f 499 595 498
f 596 595 499
f 500 596 499
f 597 596 500
f 501 597 500
f 598 597 501
f 502 598 501
f 599 598 502
f 503 599 502
f 600 599 503
f 504 600 503
f 601 600 504
f 505 601 504
f 602 601 505
f 506 602 505
f 603 602 506
f 507 603 506
f 604 603 507
f 508 604 507
f 605 604 508
f 509 605 508
f 606 605 509
f 510 606 509
f 607 606 510
f 511 607 510
f 608 607 511
f 512 608 511
f 609 608 512
f 513 609 512
f 610 609 513
f 514 610 513
f 611 610 514
f 515 611 514
f 612 611 515
f 516 612 515
f 613 612 516
f 517 613 516
f 614 613 517
f 518 614 517
f 615 614 518
f 519 615 518
f 616 615 519
f 520 616 519
f 617 616 520
f 521 617 520
f 618 617 521
f 522 618 521
f 619 618 522
f 523 619 522
f 620 619 523
f 524 620 523
f 621 620 524
f 525 621 524
f 622 621 525
f 526 622 525
f 623 622 526
f 527 623 526
f 624 623 527
f 528 624 527
f 625 624 528
f 529 625 528
f 626 625 529
f 530 626 529
f 627 626 530
f 531 627 530
f 628 627 531
f 532 628 531
f 629 628 532
f 533 629 532
f 630 629 533
f 534 630 533
f 631 630 534
f 535 631 534
f 632 631 535
f 536 632 535
f 633 632 536
f 537 633 536
f 634 633 537
f 538 634 537
f 635 634 538
f 539 635 538
f 636 635 539
f 540 636 539
f 637 636 540
f 541 637 540
f 638 637 541
f 542 638 541
f 639 638 542
f 543 639 542
f 640 639 543
f 544 640 543
f 641 640 544
f 545 641 544
f 642 641 545
f 546 642 545
f 643 642 546
f 547 643 546
f 644 643 547
f 548 644 547
f 645 644 548
f 549 645 548
f 646 645 549
f 550 646 549
f 647 646 550
f 551 647 550
f 648 647 551
f 552 648 551
f 649 648 552
f 553 649 552
f 650 649 553
f 554 650 553
f 651 650 554
f 555 651 554
f 652 651 555
f 556 652 555
f 653 652 556
f 557 653 556
f 654 653 557
f 558 654 557
f 655 654 558
f 559 655 558
f 656 655 559
f 560 656 559
f 657 656 560
f 561 657 560
f 658 657 561
f 562 658 561
f 659 658 562
f 563 659 562
f 660 659 563
f 564 660 563
f 661 660 564
f 565 661 564
f 662 661 565
f 566 662 565
f 663 662 566
f 567 663 566
f 664 663 567
f 568 664 567
f 665 664 568
f 569 665 568
f 666 665 569
f 570 666 569
f 667 666 570
f 571 667 570
f 668 667 571
f 572 668 571
f 669 668 572
f 573 669 572
f 670 669 573
f 574 670 573
f 671 670 574
f 575 671 574
f 672 671 575
f 576 672 575
f 578 672 576
f 482 578 576
f 4 3 673
f 6 4 673
f 8 6 673
f 10 8 673
f 12 10 673
f 14 12 673
f 16 14 673
f 18 16 673
f 20 18 673
f 22 20 673
f 24 22 673
f 26 24 673
f 28 26 673
f 30 28 673
f 32 30 673
f 34 32 673
f 36 34 673
f 38 36 673
f 40 38 673
f 42 40 673
f 44 42 673
f 46 44 673
f 48 46 673
f 50 48 673
f 52 50 673
f 54 52 673
f 56 54 673
f 58 56 673
f 60 58 673
f 62 60 673
f 64 62 673
f 66 64 673
f 68 66 673
f 70 68 673
f 72 70 673
f 74 72 673
f 76 74 673
f 78 76 673
f 80 78 673
f 82 80 673
f 84 82 673
f 86 84 673
f 88 86 673
f 90 88 673
f 92 90 673
f 94 92 673
f 96 94 673
f 98 96 673
f 100 98 673
f 102 100 673
f 104 102 673
f 106 104 673
f 108 106 673
f 110 108 673
f 112 110 673
f 114 112 673
f 116 114 673
f 118 116 673
f 120 118 673
f 122 120 673
f 124 122 673
f 126 124 673
f 128 126 673
f 130 128 673
f 132 130 673
f 134 132 673
f 136 134 673
f 138 136 673
f 140 138 673
f 142 140 673
f 144 142 673
f 146 144 673
f 148 146 673
f 150 148 673
f 152 150 673
f 154 152 673
f 156 154 673
f 158 156 673
f 160 158 673
f 162 160 673
f 164 162 673
f 166 164 673
f 168 166 673
f 170 168 673
f 172 170 673
f 174 172 673
f 176 174 673
f 178 176 673
f 180 178 673
f 182 180 673
f 184 182 673
f 186 184 673
f 188 186 673
f 190 188 673
f 192 190 673
f 3 192 673
f 674 578 577
f 674 577 579
f 674 579 580
f 674 580 581
f 674 581 582
f 674 582 583
f 674 583 584
f 674 584 585
f 674 585 586
f 674 586 587
f 674 587 588
f 674 588 589
f 674 589 590
f 674 590 591
f 674 591 592
f 674 592 593
f 674 593 594
f 674 594 595
f 674 595 596
f 674 596 597
f 674 597 598
f 674 598 599
f 674 599 600
f 674 600 601
f 674 601 602
f 674 602 603
f 674 603 604
f 674 604 605
f 674 605 606
f 674 606 607
f 674 607 608
f 674 608 609
f 674 609 610
f 674 610 611
f 674 611 612
f 674 612 613
f 674 613 614
f 674 614 615
f 674 615 616
f 674 616 617
f 674 617 618
f 674 618 619
f 674 619 620
f 674 620 621
f 674 621 622
f 674 622 623
f 674 623 624
f 674 624 625
f 674 625 626
f 674 626 627
f 674 627 628
f 674 628 629
f 674 629 630
f 674 630 631
f 674 631 632
f 674 632 633
f 674 633 634
f 674 634 635
f 674 635 636
f 674 636 637
f 674 637 638
f 674 638 639
f 674 639 640
f 674 640 641
f 674 641 642
f 674 642 643
f 674 643 644
f 674 644 645
f 674 645 646
f 674 646 647
f 674 647 648
f 674 648 649
f 674 649 650
f 674 650 651
f 674 651 652
f 674 652 653
f 674 653 654
f 674 654 655
f 674 655 656
f 674 656 657
f 674 657 658
f 674 658 659
f 674 659 660
f 674 660 661
f 674 661 662
f 674 662 663
f 674 663 664
f 674 664 665
f 674 665 666
f 674 666 667
f 674 667 668
f 674 668 669
f 674 669 670
f 674 670 671
f 674 671 672
f 674 672 578
