# sionna2 mesh — typhoonh480__gear.obj
# group=gear  verts=184  tris=344
v 0.085000 0.140386 -0.270364
v 0.085000 0.144172 -0.270975
v 0.137500 0.140386 -0.270364
v 0.085000 0.147957 -0.270364
v 0.137500 0.144172 -0.270975
v 0.085000 0.151372 -0.268591
v 0.137500 0.147957 -0.270364
v 0.085000 0.136971 -0.268591
v 0.137500 0.136971 -0.268591
v 0.085000 0.144172 -0.258493
v 0.085000 0.134261 -0.265830
v 0.137500 0.134261 -0.265830
v 0.085000 0.154082 -0.265830
v 0.137500 0.151372 -0.268591
v 0.137500 0.154082 -0.265830
v 0.137500 0.144172 -0.258493
v 0.085000 0.132521 -0.262350
v 0.085000 0.155822 -0.262350
v 0.137500 0.132521 -0.262350
v 0.085000 0.131922 -0.258493
v 0.085000 0.156422 -0.258493
v 0.137500 0.131922 -0.258493
v 0.137500 0.155822 -0.262350
v 0.137500 0.156422 -0.258493
v 0.085000 0.132521 -0.254636
v 0.085000 0.155822 -0.254636
v 0.137500 0.132521 -0.254636
v 0.085000 0.134261 -0.251156
v 0.085000 0.154082 -0.251156
v 0.085000 0.136971 -0.248395
v 0.085000 0.151372 -0.248395
v 0.137500 0.134261 -0.251156
v 0.137500 0.155822 -0.254636
v 0.137500 0.154082 -0.251156
v 0.137500 0.136971 -0.248395
v 0.137500 0.151372 -0.248395
v 0.085000 0.140386 -0.246622
v 0.085000 0.147957 -0.246622
v 0.085000 0.144172 -0.246011
v 0.137500 0.140386 -0.246622
v 0.137500 0.144172 -0.246011
v 0.137500 0.147957 -0.246622
v -0.137500 0.140386 -0.270364
v -0.137500 0.144172 -0.270975
v -0.085000 0.140386 -0.270364
v -0.137500 0.147957 -0.270364
v -0.085000 0.144172 -0.270975
v -0.137500 0.151372 -0.268591
v -0.085000 0.147957 -0.270364
v -0.137500 0.136971 -0.268591
v -0.085000 0.136971 -0.268591
v -0.137500 0.144172 -0.258493
v -0.137500 0.134261 -0.265830
v -0.085000 0.134261 -0.265830
v -0.137500 0.154082 -0.265830
v -0.085000 0.151372 -0.268591
v -0.085000 0.154082 -0.265830
v -0.085000 0.144172 -0.258493
v -0.137500 0.132521 -0.262350
v -0.137500 0.155822 -0.262350
v -0.085000 0.132521 -0.262350
v -0.137500 0.131922 -0.258493
v -0.137500 0.156422 -0.258493
v -0.085000 0.131922 -0.258493
v -0.085000 0.155822 -0.262350
v -0.085000 0.156422 -0.258493
v -0.137500 0.132521 -0.254636
v -0.137500 0.155822 -0.254636
v -0.085000 0.132521 -0.254636
v -0.137500 0.134261 -0.251156
v -0.137500 0.154082 -0.251156
v -0.137500 0.136971 -0.248395
v -0.137500 0.151372 -0.248395
v -0.085000 0.134261 -0.251156
v -0.085000 0.155822 -0.254636
v -0.085000 0.154082 -0.251156
v -0.085000 0.136971 -0.248395
v -0.085000 0.151372 -0.248395
v -0.137500 0.140386 -0.246622
v -0.137500 0.147957 -0.246622
v -0.137500 0.144172 -0.246011
v -0.085000 0.140386 -0.246622
v -0.085000 0.144172 -0.246011
v -0.085000 0.147957 -0.246622
v -0.024000 0.156172 -0.270720
v 0.024000 0.132172 -0.270720
v -0.024000 0.132172 -0.270720
v -0.024000 0.156172 -0.246266
v -0.024000 0.132172 -0.246266
v 0.024000 0.156172 -0.246266
v 0.024000 0.156172 -0.270720
v 0.024000 0.132172 -0.246266
v 0.085000 -0.147957 -0.270364
v 0.085000 -0.144172 -0.270975
v 0.137500 -0.147957 -0.270364
v 0.085000 -0.140386 -0.270364
v 0.137500 -0.144172 -0.270975
v 0.085000 -0.136971 -0.268591
v 0.137500 -0.140386 -0.270364
v 0.085000 -0.151372 -0.268591
v 0.137500 -0.151372 -0.268591
v 0.085000 -0.144172 -0.258493
v 0.085000 -0.154082 -0.265830
v 0.137500 -0.154082 -0.265830
v 0.085000 -0.134261 -0.265830
v 0.137500 -0.136971 -0.268591
v 0.137500 -0.134261 -0.265830
v 0.137500 -0.144172 -0.258493
v 0.085000 -0.155822 -0.262350
v 0.085000 -0.132521 -0.262350
v 0.137500 -0.155822 -0.262350
v 0.085000 -0.156422 -0.258493
v 0.085000 -0.131922 -0.258493
v 0.137500 -0.156422 -0.258493
v 0.137500 -0.132521 -0.262350
v 0.137500 -0.131922 -0.258493
v 0.085000 -0.155822 -0.254636
v 0.085000 -0.132521 -0.254636
v 0.137500 -0.155822 -0.254636
v 0.085000 -0.154082 -0.251156
v 0.085000 -0.134261 -0.251156
v 0.085000 -0.151372 -0.248395
v 0.085000 -0.136971 -0.248395
v 0.137500 -0.154082 -0.251156
v 0.137500 -0.132521 -0.254636
v 0.137500 -0.134261 -0.251156
v 0.137500 -0.151372 -0.248395
v 0.137500 -0.136971 -0.248395
v 0.085000 -0.147957 -0.246622
v 0.085000 -0.140386 -0.246622
v 0.085000 -0.144172 -0.246011
v 0.137500 -0.147957 -0.246622
v 0.137500 -0.144172 -0.246011
v 0.137500 -0.140386 -0.246622
v -0.137500 -0.147957 -0.270364
v -0.137500 -0.144172 -0.270975
v -0.085000 -0.147957 -0.270364
v -0.137500 -0.140386 -0.270364
v -0.085000 -0.144172 -0.270975
v -0.137500 -0.136971 -0.268591
v -0.085000 -0.140386 -0.270364
v -0.137500 -0.151372 -0.268591
v -0.085000 -0.151372 -0.268591
v -0.137500 -0.144172 -0.258493
v -0.137500 -0.154082 -0.265830
v -0.085000 -0.154082 -0.265830
v -0.137500 -0.134261 -0.265830
v -0.085000 -0.136971 -0.268591
v -0.085000 -0.134261 -0.265830
v -0.085000 -0.144172 -0.258493
v -0.137500 -0.155822 -0.262350
v -0.137500 -0.132521 -0.262350
v -0.085000 -0.155822 -0.262350
v -0.137500 -0.156422 -0.258493
v -0.137500 -0.131922 -0.258493
v -0.085000 -0.156422 -0.258493
v -0.085000 -0.132521 -0.262350
v -0.085000 -0.131922 -0.258493
v -0.137500 -0.155822 -0.254636
v -0.137500 -0.132521 -0.254636
v -0.085000 -0.155822 -0.254636
v -0.137500 -0.154082 -0.251156
v -0.137500 -0.134261 -0.251156
v -0.137500 -0.151372 -0.248395
v -0.137500 -0.136971 -0.248395
v -0.085000 -0.154082 -0.251156
v -0.085000 -0.132521 -0.254636
v -0.085000 -0.134261 -0.251156
v -0.085000 -0.151372 -0.248395
v -0.085000 -0.136971 -0.248395
v -0.137500 -0.147957 -0.246622
v -0.137500 -0.140386 -0.246622
v -0.137500 -0.144172 -0.246011
v -0.085000 -0.147957 -0.246622
v -0.085000 -0.144172 -0.246011
v -0.085000 -0.140386 -0.246622
v -0.024000 -0.132172 -0.270720
v 0.024000 -0.156172 -0.270720
v -0.024000 -0.156172 -0.270720
v -0.024000 -0.132172 -0.246266
v -0.024000 -0.156172 -0.246266
v 0.024000 -0.132172 -0.246266
v 0.024000 -0.132172 -0.270720
v 0.024000 -0.156172 -0.246266
f 1 2 3
f 2 4 5
f 4 6 7
f 8 1 9
f 1 10 2
f 2 10 4
f 8 10 1
f 4 10 6
f 11 8 12
f 6 13 14
f 3 2 5
f 9 1 3
f 5 4 7
f 7 6 14
f 12 8 9
f 14 13 15
f 3 5 16
f 5 7 16
f 9 3 16
f 7 14 16
f 11 10 8
f 6 10 13
f 17 10 11
f 13 10 18
f 17 11 19
f 13 18 15
f 20 10 17
f 18 10 21
f 20 17 22
f 18 21 23
f 19 11 12
f 15 18 23
f 12 9 16
f 14 15 16
f 19 12 16
f 15 23 16
f 22 17 19
f 23 21 24
f 22 19 16
f 23 24 16
f 25 10 20
f 21 10 26
f 25 20 27
f 21 26 24
f 28 10 25
f 26 10 29
f 30 10 28
f 29 10 31
f 28 25 32
f 26 29 33
f 27 20 22
f 24 26 33
f 27 22 16
f 24 33 16
f 32 25 27
f 33 29 34
f 32 27 16
f 33 34 16
f 35 32 16
f 34 36 16
f 37 10 30
f 31 10 38
f 39 10 37
f 38 10 39
f 30 28 35
f 29 31 34
f 31 38 36
f 37 30 40
f 39 37 41
f 38 39 42
f 35 28 32
f 34 31 36
f 40 35 16
f 36 42 16
f 41 40 16
f 42 41 16
f 40 30 35
f 41 37 40
f 42 39 41
f 36 38 42
f 43 44 45
f 44 46 47
f 46 48 49
f 50 43 51
f 43 52 44
f 44 52 46
f 50 52 43
f 46 52 48
f 53 50 54
f 48 55 56
f 45 44 47
f 51 43 45
f 47 46 49
f 49 48 56
f 54 50 51
f 56 55 57
f 45 47 58
f 47 49 58
f 51 45 58
f 49 56 58
f 53 52 50
f 48 52 55
f 59 52 53
f 55 52 60
f 59 53 61
f 55 60 57
f 62 52 59
f 60 52 63
f 62 59 64
f 60 63 65
f 61 53 54
f 57 60 65
f 54 51 58
f 56 57 58
f 61 54 58
f 57 65 58
f 64 59 61
f 65 63 66
f 64 61 58
f 65 66 58
f 67 52 62
f 63 52 68
f 67 62 69
f 63 68 66
f 70 52 67
f 68 52 71
f 72 52 70
f 71 52 73
f 70 67 74
f 68 71 75
f 69 62 64
f 66 68 75
f 69 64 58
f 66 75 58
f 74 67 69
f 75 71 76
f 74 69 58
f 75 76 58
f 77 74 58
f 76 78 58
f 79 52 72
f 73 52 80
f 81 52 79
f 80 52 81
f 72 70 77
f 71 73 76
f 73 80 78
f 79 72 82
f 81 79 83
f 80 81 84
f 77 70 74
f 76 73 78
f 82 77 58
f 78 84 58
f 83 82 58
f 84 83 58
f 82 72 77
f 83 79 82
f 84 81 83
f 78 80 84
f 85 86 87
f 87 88 85
f 86 89 87
f 89 88 87
f 88 90 85
f 89 90 88
f 91 86 85
f 85 90 91
f 91 92 86
f 92 89 86
f 90 92 91
f 92 90 89
f 93 94 95
f 94 96 97
f 96 98 99
f 100 93 101
f 93 102 94
f 94 102 96
f 100 102 93
f 96 102 98
f 103 100 104
f 98 105 106
f 101 93 95
f 95 94 97
f 97 96 99
f 99 98 106
f 104 100 101
f 106 105 107
f 95 97 108
f 97 99 108
f 101 95 108
f 99 106 108
f 103 102 100
f 98 102 105
f 109 102 103
f 105 102 110
f 109 103 111
f 105 110 107
f 112 102 109
f 110 102 113
f 112 109 114
f 110 113 115
f 111 103 104
f 107 110 115
f 104 101 108
f 106 107 108
f 111 104 108
f 107 115 108
f 114 109 111
f 115 113 116
f 114 111 108
f 115 116 108
f 117 102 112
f 113 102 118
f 117 112 119
f 113 118 116
f 120 102 117
f 118 102 121
f 122 102 120
f 121 102 123
f 120 117 124
f 118 121 125
f 119 112 114
f 116 118 125
f 119 114 108
f 116 125 108
f 124 117 119
f 125 121 126
f 124 119 108
f 125 126 108
f 127 124 108
f 126 128 108
f 129 102 122
f 123 102 130
f 131 102 129
f 130 102 131
f 122 120 127
f 121 123 126
f 123 130 128
f 129 122 132
f 131 129 133
f 130 131 134
f 127 120 124
f 126 123 128
f 132 127 108
f 128 134 108
f 133 132 108
f 134 133 108
f 132 122 127
f 133 129 132
f 128 130 134
f 134 131 133
f 135 136 137
f 136 138 139
f 138 140 141
f 142 135 143
f 135 144 136
f 136 144 138
f 142 144 135
f 138 144 140
f 145 142 146
f 140 147 148
f 143 135 137
f 137 136 139
f 139 138 141
f 141 140 148
f 146 142 143
f 148 147 149
f 137 139 150
f 139 141 150
f 143 137 150
f 141 148 150
f 145 144 142
f 140 144 147
f 151 144 145
f 147 144 152
f 151 145 153
f 147 152 149
f 154 144 151
f 152 144 155
f 154 151 156
f 152 155 157
f 153 145 146
f 149 152 157
f 146 143 150
f 148 149 150
f 153 146 150
f 149 157 150
f 156 151 153
f 157 155 158
f 156 153 150
f 157 158 150
f 159 144 154
f 155 144 160
f 159 154 161
f 155 160 158
f 162 144 159
f 160 144 163
f 164 144 162
f 163 144 165
f 162 159 166
f 160 163 167
f 161 154 156
f 158 160 167
f 161 156 150
f 158 167 150
f 166 159 161
f 167 163 168
f 166 161 150
f 167 168 150
f 169 166 150
f 168 170 150
f 171 144 164
f 165 144 172
f 173 144 171
f 172 144 173
f 164 162 169
f 163 165 168
f 165 172 170
f 171 164 174
f 173 171 175
f 172 173 176
f 169 162 166
f 168 165 170
f 174 169 150
f 170 176 150
f 175 174 150
f 176 175 150
f 174 164 169
f 175 171 174
f 170 172 176
f 176 173 175
f 177 178 179
f 179 180 177
f 178 181 179
f 181 180 179
f 180 182 177
f 181 182 180
f 183 178 177
f 177 182 183
f 183 184 178
f 184 181 178
f 182 184 183
f 184 182 181
