# sionna2 mesh — typhoonh480__motor.obj
# group=motor  verts=540  tris=1056
v 0.202556 0.112719 0.020175
v 0.200565 0.114710 0.020175
v 0.207846 0.120000 0.020175
v 0.199287 0.117219 0.020175
v 0.205065 0.111440 0.020175
v 0.207846 0.111000 0.020175
v 0.198846 0.120000 0.020175
v 0.199287 0.122781 0.020175
v 0.200565 0.125290 0.020175
v 0.202556 0.127281 0.020175
v 0.205065 0.128560 0.020175
v 0.207846 0.129000 0.020175
v 0.210627 0.111440 0.020175
v 0.213136 0.112719 0.020175
v 0.215127 0.114710 0.020175
v 0.216406 0.117219 0.020175
v 0.210627 0.128560 0.020175
v 0.213136 0.127281 0.020175
v 0.216846 0.120000 0.020175
v 0.215127 0.125290 0.020175
v 0.216406 0.122781 0.020175
v 0.199287 0.117219 0.026798
v 0.198846 0.120000 0.026798
v 0.199287 0.122781 0.026798
v 0.200565 0.125290 0.026798
v 0.200565 0.114710 0.026798
v 0.202556 0.112719 0.026798
v 0.205065 0.111440 0.026798
v 0.202556 0.127281 0.026798
v 0.207846 0.111000 0.026798
v 0.210627 0.111440 0.026798
v 0.213136 0.112719 0.026798
v 0.215127 0.114710 0.026798
v 0.216406 0.117219 0.026798
v 0.216846 0.120000 0.026798
v 0.216406 0.122781 0.026798
v 0.215127 0.125290 0.026798
v 0.213136 0.127281 0.026798
v 0.205065 0.128560 0.026798
v 0.207846 0.129000 0.026798
v 0.210627 0.128560 0.026798
v 0.198300 0.110454 0.026798
v 0.201096 0.108309 0.026798
v 0.204352 0.106960 0.026798
v 0.207846 0.106500 0.026798
v 0.196155 0.113250 0.026798
v 0.194806 0.116506 0.026798
v 0.194346 0.120000 0.026798
v 0.194806 0.123494 0.026798
v 0.196155 0.126750 0.026798
v 0.211340 0.106960 0.026798
v 0.214596 0.108309 0.026798
v 0.217392 0.110454 0.026798
v 0.219537 0.113250 0.026798
v 0.220886 0.116506 0.026798
v 0.221346 0.120000 0.026798
v 0.219537 0.126750 0.026798
v 0.220886 0.123494 0.026798
v 0.198300 0.129546 0.026798
v 0.201096 0.131691 0.026798
v 0.204352 0.133040 0.026798
v 0.207846 0.133500 0.026798
v 0.211340 0.133040 0.026798
v 0.214596 0.131691 0.026798
v 0.217392 0.129546 0.026798
v 0.198300 0.110454 0.039025
v 0.201096 0.108309 0.039025
v 0.204352 0.106960 0.039025
v 0.196155 0.113250 0.039025
v 0.194806 0.116506 0.039025
v 0.194346 0.120000 0.039025
v 0.194806 0.123494 0.039025
v 0.196155 0.126750 0.039025
v 0.207846 0.106500 0.039025
v 0.211340 0.106960 0.039025
v 0.214596 0.108309 0.039025
v 0.217392 0.110454 0.039025
v 0.219537 0.113250 0.039025
v 0.220886 0.116506 0.039025
v 0.221346 0.120000 0.039025
v 0.220886 0.123494 0.039025
v 0.219537 0.126750 0.039025
v 0.207846 0.120000 0.039025
v 0.198300 0.129546 0.039025
v 0.217392 0.129546 0.039025
v 0.201096 0.131691 0.039025
v 0.204352 0.133040 0.039025
v 0.207846 0.133500 0.039025
v 0.211340 0.133040 0.039025
v 0.214596 0.131691 0.039025
v -0.008560 0.237219 0.020175
v 0.000000 0.240000 0.020175
v -0.007281 0.234710 0.020175
v -0.005290 0.232719 0.020175
v -0.002781 0.231440 0.020175
v 0.000000 0.231000 0.020175
v -0.009000 0.240000 0.020175
v -0.008560 0.242781 0.020175
v -0.007281 0.245290 0.020175
v -0.005290 0.247281 0.020175
v -0.002781 0.248560 0.020175
v 0.000000 0.249000 0.020175
v -0.008560 0.237219 0.026798
v -0.005290 0.232719 0.026798
v -0.007281 0.234710 0.026798
v -0.002781 0.231440 0.026798
v -0.009000 0.240000 0.026798
v -0.008560 0.242781 0.026798
v -0.007281 0.245290 0.026798
v -0.005290 0.247281 0.026798
v -0.002781 0.248560 0.026798
v 0.000000 0.249000 0.026798
v 0.000000 0.231000 0.026798
v 0.002781 0.231440 0.020175
v 0.005290 0.232719 0.020175
v 0.007281 0.234710 0.020175
v 0.008560 0.237219 0.020175
v 0.002781 0.248560 0.020175
v 0.005290 0.247281 0.020175
v 0.009000 0.240000 0.020175
v 0.008560 0.242781 0.020175
v 0.007281 0.245290 0.020175
v 0.002781 0.231440 0.026798
v 0.005290 0.232719 0.026798
v 0.007281 0.234710 0.026798
v 0.002781 0.248560 0.026798
v 0.005290 0.247281 0.026798
v 0.007281 0.245290 0.026798
v 0.008560 0.237219 0.026798
v 0.009000 0.240000 0.026798
v 0.008560 0.242781 0.026798
v -0.011691 0.233250 0.026798
v -0.013040 0.236506 0.026798
v -0.009546 0.230454 0.026798
v -0.006750 0.228309 0.026798
v -0.003494 0.226960 0.026798
v 0.000000 0.226500 0.026798
v -0.013500 0.240000 0.026798
v -0.013040 0.243494 0.026798
v -0.011691 0.246750 0.026798
v -0.009546 0.249546 0.026798
v -0.006750 0.251691 0.026798
v -0.003494 0.253040 0.026798
v 0.000000 0.253500 0.026798
v -0.011691 0.233250 0.039025
v -0.013040 0.236506 0.039025
v -0.009546 0.230454 0.039025
v -0.006750 0.228309 0.039025
v -0.003494 0.226960 0.039025
v -0.013500 0.240000 0.039025
v -0.013040 0.243494 0.039025
v -0.011691 0.246750 0.039025
v -0.009546 0.249546 0.039025
v -0.006750 0.251691 0.039025
v -0.003494 0.253040 0.039025
v 0.000000 0.253500 0.039025
v 0.000000 0.226500 0.039025
v 0.000000 0.240000 0.039025
v 0.003494 0.226960 0.026798
v 0.006750 0.228309 0.026798
v 0.009546 0.230454 0.026798
v 0.011691 0.233250 0.026798
v 0.013040 0.236506 0.026798
v 0.003494 0.253040 0.026798
v 0.006750 0.251691 0.026798
v 0.013500 0.240000 0.026798
v 0.013040 0.243494 0.026798
v 0.011691 0.246750 0.026798
v 0.009546 0.249546 0.026798
v 0.003494 0.226960 0.039025
v 0.006750 0.228309 0.039025
v 0.009546 0.230454 0.039025
v 0.011691 0.233250 0.039025
v 0.003494 0.253040 0.039025
v 0.006750 0.251691 0.039025
v 0.013040 0.236506 0.039025
v 0.013500 0.240000 0.039025
v 0.013040 0.243494 0.039025
v 0.009546 0.249546 0.039025
v 0.011691 0.246750 0.039025
v -0.215127 0.114710 0.020175
v -0.216406 0.117219 0.020175
v -0.207846 0.120000 0.020175
v -0.213136 0.112719 0.020175
v -0.210627 0.111440 0.020175
v -0.207846 0.111000 0.020175
v -0.216846 0.120000 0.020175
v -0.216406 0.122781 0.020175
v -0.215127 0.125290 0.020175
v -0.213136 0.127281 0.020175
v -0.210627 0.128560 0.020175
v -0.207846 0.129000 0.020175
v -0.205065 0.111440 0.020175
v -0.202556 0.112719 0.020175
v -0.200565 0.114710 0.020175
v -0.199287 0.117219 0.020175
v -0.205065 0.128560 0.020175
v -0.202556 0.127281 0.020175
v -0.200565 0.125290 0.020175
v -0.199287 0.122781 0.020175
v -0.198846 0.120000 0.020175
v -0.215127 0.114710 0.026798
v -0.216406 0.117219 0.026798
v -0.216846 0.120000 0.026798
v -0.216406 0.122781 0.026798
v -0.215127 0.125290 0.026798
v -0.213136 0.112719 0.026798
v -0.210627 0.111440 0.026798
v -0.213136 0.127281 0.026798
v -0.207846 0.111000 0.026798
v -0.205065 0.111440 0.026798
v -0.202556 0.112719 0.026798
v -0.200565 0.125290 0.026798
v -0.200565 0.114710 0.026798
v -0.199287 0.117219 0.026798
v -0.198846 0.120000 0.026798
v -0.199287 0.122781 0.026798
v -0.202556 0.127281 0.026798
v -0.210627 0.128560 0.026798
v -0.207846 0.129000 0.026798
v -0.205065 0.128560 0.026798
v -0.217392 0.110454 0.026798
v -0.214596 0.108309 0.026798
v -0.211340 0.106960 0.026798
v -0.207846 0.106500 0.026798
v -0.219537 0.113250 0.026798
v -0.220886 0.116506 0.026798
v -0.221346 0.120000 0.026798
v -0.220886 0.123494 0.026798
v -0.219537 0.126750 0.026798
v -0.204352 0.106960 0.026798
v -0.201096 0.108309 0.026798
v -0.198300 0.110454 0.026798
v -0.196155 0.113250 0.026798
v -0.194806 0.116506 0.026798
v -0.194346 0.120000 0.026798
v -0.194806 0.123494 0.026798
v -0.196155 0.126750 0.026798
v -0.217392 0.129546 0.026798
v -0.214596 0.131691 0.026798
v -0.211340 0.133040 0.026798
v -0.207846 0.133500 0.026798
v -0.204352 0.133040 0.026798
v -0.201096 0.131691 0.026798
v -0.198300 0.129546 0.026798
v -0.217392 0.110454 0.039025
v -0.214596 0.108309 0.039025
v -0.211340 0.106960 0.039025
v -0.219537 0.113250 0.039025
v -0.220886 0.116506 0.039025
v -0.221346 0.120000 0.039025
v -0.220886 0.123494 0.039025
v -0.219537 0.126750 0.039025
v -0.207846 0.106500 0.039025
v -0.204352 0.106960 0.039025
v -0.201096 0.108309 0.039025
v -0.198300 0.110454 0.039025
v -0.196155 0.113250 0.039025
v -0.194806 0.116506 0.039025
v -0.194346 0.120000 0.039025
v -0.194806 0.123494 0.039025
v -0.196155 0.126750 0.039025
v -0.207846 0.120000 0.039025
v -0.217392 0.129546 0.039025
v -0.198300 0.129546 0.039025
v -0.214596 0.131691 0.039025
v -0.211340 0.133040 0.039025
v -0.207846 0.133500 0.039025
v -0.204352 0.133040 0.039025
v -0.201096 0.131691 0.039025
v -0.210627 -0.128560 0.020175
v -0.213136 -0.127281 0.026798
v -0.213136 -0.127281 0.020175
v -0.207846 -0.129000 0.020175
v -0.210627 -0.128560 0.026798
v -0.205065 -0.128560 0.020175
v -0.207846 -0.129000 0.026798
v -0.202556 -0.127281 0.020175
v -0.205065 -0.128560 0.026798
v -0.202556 -0.127281 0.026798
v -0.215127 -0.125290 0.020175
v -0.207846 -0.120000 0.020175
v -0.216406 -0.122781 0.020175
v -0.216846 -0.120000 0.020175
v -0.216406 -0.117219 0.020175
v -0.215127 -0.114710 0.020175
v -0.213136 -0.112719 0.020175
v -0.210627 -0.111440 0.020175
v -0.207846 -0.111000 0.020175
v -0.200565 -0.125290 0.020175
v -0.199287 -0.122781 0.020175
v -0.198846 -0.120000 0.020175
v -0.199287 -0.117219 0.020175
v -0.205065 -0.111440 0.020175
v -0.202556 -0.112719 0.020175
v -0.200565 -0.114710 0.020175
v -0.215127 -0.125290 0.026798
v -0.216406 -0.122781 0.026798
v -0.216846 -0.120000 0.026798
v -0.216406 -0.117219 0.026798
v -0.215127 -0.114710 0.026798
v -0.213136 -0.112719 0.026798
v -0.210627 -0.111440 0.026798
v -0.207846 -0.111000 0.026798
v -0.205065 -0.111440 0.026798
v -0.202556 -0.112719 0.026798
v -0.200565 -0.114710 0.026798
v -0.200565 -0.125290 0.026798
v -0.199287 -0.122781 0.026798
v -0.198846 -0.120000 0.026798
v -0.199287 -0.117219 0.026798
v -0.217392 -0.129546 0.026798
v -0.219537 -0.126750 0.026798
v -0.214596 -0.131691 0.026798
v -0.211340 -0.133040 0.026798
v -0.207846 -0.133500 0.026798
v -0.204352 -0.133040 0.026798
v -0.201096 -0.131691 0.026798
v -0.198300 -0.129546 0.026798
v -0.196155 -0.126750 0.026798
v -0.220886 -0.123494 0.026798
v -0.221346 -0.120000 0.026798
v -0.220886 -0.116506 0.026798
v -0.219537 -0.113250 0.026798
v -0.217392 -0.110454 0.026798
v -0.214596 -0.108309 0.026798
v -0.211340 -0.106960 0.026798
v -0.207846 -0.106500 0.026798
v -0.194346 -0.120000 0.026798
v -0.194806 -0.123494 0.026798
v -0.194806 -0.116506 0.026798
v -0.196155 -0.113250 0.026798
v -0.198300 -0.110454 0.026798
v -0.204352 -0.106960 0.026798
v -0.201096 -0.108309 0.026798
v -0.219537 -0.126750 0.039025
v -0.217392 -0.129546 0.039025
v -0.214596 -0.131691 0.039025
v -0.211340 -0.133040 0.039025
v -0.207846 -0.133500 0.039025
v -0.204352 -0.133040 0.039025
v -0.201096 -0.131691 0.039025
v -0.198300 -0.129546 0.039025
v -0.196155 -0.126750 0.039025
v -0.207846 -0.120000 0.039025
v -0.220886 -0.123494 0.039025
v -0.221346 -0.120000 0.039025
v -0.220886 -0.116506 0.039025
v -0.219537 -0.113250 0.039025
v -0.217392 -0.110454 0.039025
v -0.214596 -0.108309 0.039025
v -0.211340 -0.106960 0.039025
v -0.207846 -0.106500 0.039025
v -0.194806 -0.123494 0.039025
v -0.194346 -0.120000 0.039025
v -0.194806 -0.116506 0.039025
v -0.196155 -0.113250 0.039025
v -0.204352 -0.106960 0.039025
v -0.201096 -0.108309 0.039025
v -0.198300 -0.110454 0.039025
v -0.002781 -0.248560 0.020175
v -0.000000 -0.240000 0.020175
v -0.000000 -0.249000 0.020175
v -0.007281 -0.245290 0.020175
v -0.008560 -0.242781 0.020175
v -0.005290 -0.247281 0.020175
v -0.009000 -0.240000 0.020175
v -0.008560 -0.237219 0.020175
v -0.007281 -0.234710 0.020175
v -0.005290 -0.232719 0.020175
v -0.002781 -0.231440 0.020175
v -0.000000 -0.231000 0.020175
v -0.008560 -0.242781 0.026798
v -0.009000 -0.240000 0.026798
v -0.008560 -0.237219 0.026798
v -0.007281 -0.245290 0.026798
v -0.005290 -0.247281 0.026798
v -0.002781 -0.248560 0.026798
v -0.007281 -0.234710 0.026798
v -0.005290 -0.232719 0.026798
v -0.002781 -0.231440 0.026798
v -0.000000 -0.231000 0.026798
v -0.000000 -0.249000 0.026798
v 0.002781 -0.248560 0.020175
v 0.005290 -0.247281 0.020175
v 0.007281 -0.245290 0.020175
v 0.008560 -0.242781 0.020175
v 0.009000 -0.240000 0.020175
v 0.008560 -0.237219 0.020175
v 0.002781 -0.231440 0.020175
v 0.005290 -0.232719 0.020175
v 0.007281 -0.234710 0.020175
v 0.002781 -0.248560 0.026798
v 0.005290 -0.247281 0.026798
v 0.007281 -0.245290 0.026798
v 0.008560 -0.242781 0.026798
v 0.009000 -0.240000 0.026798
v 0.002781 -0.231440 0.026798
v 0.007281 -0.234710 0.026798
v 0.005290 -0.232719 0.026798
v 0.008560 -0.237219 0.026798
v -0.011691 -0.246750 0.026798
v -0.009546 -0.249546 0.026798
v -0.006750 -0.251691 0.026798
v -0.013040 -0.243494 0.026798
v -0.013500 -0.240000 0.026798
v -0.013040 -0.236506 0.026798
v -0.003494 -0.253040 0.026798
v -0.000000 -0.253500 0.026798
v -0.011691 -0.233250 0.026798
v -0.009546 -0.230454 0.026798
v -0.006750 -0.228309 0.026798
v -0.003494 -0.226960 0.026798
v -0.000000 -0.226500 0.026798
v -0.011691 -0.246750 0.039025
v -0.009546 -0.249546 0.039025
v -0.013040 -0.243494 0.039025
v -0.013500 -0.240000 0.039025
v -0.013040 -0.236506 0.039025
v -0.006750 -0.251691 0.039025
v -0.003494 -0.253040 0.039025
v -0.011691 -0.233250 0.039025
v -0.009546 -0.230454 0.039025
v -0.006750 -0.228309 0.039025
v -0.003494 -0.226960 0.039025
v -0.000000 -0.226500 0.039025
v -0.000000 -0.253500 0.039025
v -0.000000 -0.240000 0.039025
v 0.003494 -0.253040 0.026798
v 0.006750 -0.251691 0.026798
v 0.009546 -0.249546 0.026798
v 0.011691 -0.246750 0.026798
v 0.013500 -0.240000 0.026798
v 0.013040 -0.236506 0.026798
v 0.013040 -0.243494 0.026798
v 0.006750 -0.228309 0.026798
v 0.003494 -0.226960 0.026798
v 0.011691 -0.233250 0.026798
v 0.009546 -0.230454 0.026798
v 0.003494 -0.253040 0.039025
v 0.006750 -0.251691 0.039025
v 0.009546 -0.249546 0.039025
v 0.011691 -0.246750 0.039025
v 0.013040 -0.243494 0.039025
v 0.013500 -0.240000 0.039025
v 0.003494 -0.226960 0.039025
v 0.006750 -0.228309 0.039025
v 0.009546 -0.230454 0.039025
v 0.013040 -0.236506 0.039025
v 0.011691 -0.233250 0.039025
v 0.202556 -0.127281 0.020175
v 0.205065 -0.128560 0.020175
v 0.202556 -0.127281 0.026798
v 0.207846 -0.129000 0.020175
v 0.205065 -0.128560 0.026798
v 0.210627 -0.128560 0.020175
v 0.207846 -0.129000 0.026798
v 0.213136 -0.127281 0.020175
v 0.210627 -0.128560 0.026798
v 0.213136 -0.127281 0.026798
v 0.200565 -0.125290 0.020175
v 0.207846 -0.120000 0.020175
v 0.199287 -0.122781 0.020175
v 0.198846 -0.120000 0.020175
v 0.199287 -0.117219 0.020175
v 0.200565 -0.114710 0.020175
v 0.202556 -0.112719 0.020175
v 0.205065 -0.111440 0.020175
v 0.207846 -0.111000 0.020175
v 0.215127 -0.125290 0.020175
v 0.216406 -0.122781 0.020175
v 0.216846 -0.120000 0.020175
v 0.216406 -0.117219 0.020175
v 0.210627 -0.111440 0.020175
v 0.213136 -0.112719 0.020175
v 0.215127 -0.114710 0.020175
v 0.199287 -0.122781 0.026798
v 0.198846 -0.120000 0.026798
v 0.199287 -0.117219 0.026798
v 0.200565 -0.114710 0.026798
v 0.200565 -0.125290 0.026798
v 0.202556 -0.112719 0.026798
v 0.205065 -0.111440 0.026798
v 0.207846 -0.111000 0.026798
v 0.210627 -0.111440 0.026798
v 0.213136 -0.112719 0.026798
v 0.215127 -0.125290 0.026798
v 0.216406 -0.122781 0.026798
v 0.216846 -0.120000 0.026798
v 0.216406 -0.117219 0.026798
v 0.215127 -0.114710 0.026798
v 0.198300 -0.129546 0.026798
v 0.196155 -0.126750 0.026798
v 0.201096 -0.131691 0.026798
v 0.204352 -0.133040 0.026798
v 0.207846 -0.133500 0.026798
v 0.211340 -0.133040 0.026798
v 0.214596 -0.131691 0.026798
v 0.217392 -0.129546 0.026798
v 0.219537 -0.126750 0.026798
v 0.194806 -0.123494 0.026798
v 0.194346 -0.120000 0.026798
v 0.194806 -0.116506 0.026798
v 0.196155 -0.113250 0.026798
v 0.198300 -0.110454 0.026798
v 0.201096 -0.108309 0.026798
v 0.204352 -0.106960 0.026798
v 0.207846 -0.106500 0.026798
v 0.220886 -0.123494 0.026798
v 0.221346 -0.120000 0.026798
v 0.220886 -0.116506 0.026798
v 0.219537 -0.113250 0.026798
v 0.217392 -0.110454 0.026798
v 0.211340 -0.106960 0.026798
v 0.214596 -0.108309 0.026798
v 0.196155 -0.126750 0.039025
v 0.198300 -0.129546 0.039025
v 0.201096 -0.131691 0.039025
v 0.204352 -0.133040 0.039025
v 0.207846 -0.133500 0.039025
v 0.211340 -0.133040 0.039025
v 0.214596 -0.131691 0.039025
v 0.217392 -0.129546 0.039025
v 0.219537 -0.126750 0.039025
v 0.207846 -0.120000 0.039025
v 0.194806 -0.123494 0.039025
v 0.194346 -0.120000 0.039025
v 0.194806 -0.116506 0.039025
v 0.196155 -0.113250 0.039025
v 0.198300 -0.110454 0.039025
v 0.201096 -0.108309 0.039025
v 0.204352 -0.106960 0.039025
v 0.207846 -0.106500 0.039025
v 0.220886 -0.123494 0.039025
v 0.221346 -0.120000 0.039025
v 0.220886 -0.116506 0.039025
v 0.219537 -0.113250 0.039025
v 0.211340 -0.106960 0.039025
v 0.214596 -0.108309 0.039025
v 0.217392 -0.110454 0.039025
f 1 2 3
f 2 4 3
f 1 3 5
f 5 3 6
f 4 7 3
f 7 8 3
f 8 9 3
f 3 9 10
f 3 10 11
f 3 11 12
f 6 3 13
f 3 14 13
f 3 15 14
f 3 16 15
f 3 12 17
f 3 17 18
f 3 19 16
f 3 20 21
f 3 21 19
f 3 18 20
f 2 22 4
f 4 23 7
f 7 24 8
f 8 25 9
f 1 26 2
f 1 5 27
f 5 6 28
f 9 29 10
f 6 13 30
f 13 14 31
f 14 15 32
f 15 16 33
f 16 19 34
f 19 21 35
f 21 20 36
f 18 37 20
f 2 26 22
f 4 22 23
f 7 23 24
f 8 24 25
f 1 27 26
f 5 28 27
f 6 30 28
f 9 25 29
f 13 31 30
f 14 32 31
f 18 38 37
f 15 33 32
f 16 34 33
f 19 35 34
f 21 36 35
f 20 37 36
f 10 39 11
f 11 40 12
f 12 41 17
f 18 17 38
f 10 29 39
f 11 39 40
f 12 40 41
f 17 41 38
f 42 27 43
f 43 28 44
f 43 27 28
f 44 28 45
f 45 28 30
f 46 47 22
f 42 46 26
f 42 26 27
f 46 22 26
f 47 23 22
f 47 48 23
f 48 49 24
f 49 50 24
f 48 24 23
f 50 25 24
f 45 30 51
f 51 30 31
f 51 31 52
f 52 31 32
f 52 32 53
f 53 32 33
f 53 33 54
f 54 33 34
f 54 34 55
f 55 34 56
f 57 36 37
f 56 34 35
f 58 35 36
f 56 35 58
f 58 36 57
f 50 59 25
f 59 29 25
f 59 60 29
f 60 39 29
f 60 61 39
f 61 40 39
f 61 62 40
f 62 41 40
f 62 63 41
f 64 38 41
f 63 64 41
f 65 37 38
f 65 38 64
f 65 57 37
f 42 43 66
f 43 44 67
f 44 45 68
f 42 69 46
f 46 70 47
f 47 71 48
f 48 72 49
f 49 73 50
f 45 51 74
f 51 52 75
f 52 53 76
f 53 54 77
f 54 55 78
f 55 56 79
f 56 58 80
f 58 57 81
f 43 67 66
f 44 68 67
f 45 74 68
f 46 69 70
f 47 70 71
f 42 66 69
f 48 71 72
f 49 72 73
f 51 75 74
f 52 76 75
f 53 77 76
f 54 78 77
f 55 79 78
f 56 80 79
f 58 81 80
f 57 82 81
f 69 83 70
f 70 83 71
f 71 83 72
f 72 83 73
f 66 83 69
f 66 67 83
f 67 68 83
f 68 74 83
f 83 84 73
f 74 75 83
f 75 76 83
f 76 77 83
f 77 78 83
f 83 78 79
f 83 79 80
f 83 80 81
f 83 81 82
f 83 82 85
f 50 84 59
f 59 86 60
f 60 87 61
f 61 88 62
f 62 89 63
f 63 90 64
f 65 64 85
f 65 82 57
f 50 73 84
f 59 84 86
f 60 86 87
f 61 87 88
f 62 88 89
f 63 89 90
f 64 90 85
f 65 85 82
f 83 86 84
f 83 87 86
f 83 88 87
f 83 89 88
f 83 90 89
f 83 85 90
f 91 92 93
f 94 93 92
f 94 92 95
f 95 92 96
f 91 97 92
f 97 98 92
f 98 99 92
f 99 100 92
f 100 101 92
f 101 102 92
f 91 93 103
f 94 95 104
f 94 105 93
f 95 96 106
f 91 107 97
f 97 108 98
f 98 109 99
f 99 110 100
f 100 111 101
f 101 112 102
f 93 105 103
f 94 104 105
f 95 106 104
f 96 113 106
f 91 103 107
f 97 107 108
f 98 108 109
f 99 109 110
f 100 110 111
f 101 111 112
f 96 92 114
f 114 92 115
f 115 92 116
f 92 117 116
f 92 118 119
f 92 120 117
f 92 121 120
f 92 119 122
f 92 122 121
f 92 102 118
f 96 114 113
f 114 115 123
f 115 116 124
f 116 117 125
f 102 126 118
f 118 127 119
f 119 128 122
f 117 120 129
f 120 121 130
f 121 122 131
f 114 123 113
f 115 124 123
f 116 125 124
f 117 129 125
f 102 112 126
f 118 126 127
f 119 127 128
f 120 130 129
f 122 128 131
f 121 131 130
f 132 133 103
f 132 105 134
f 134 104 135
f 134 105 104
f 132 103 105
f 135 106 136
f 136 106 137
f 137 106 113
f 135 104 106
f 133 138 107
f 138 139 108
f 139 140 108
f 133 107 103
f 138 108 107
f 140 109 108
f 140 141 109
f 141 110 109
f 141 142 110
f 142 111 110
f 142 143 111
f 143 112 111
f 143 144 112
f 132 134 145
f 132 146 133
f 134 135 147
f 135 136 148
f 136 137 149
f 133 150 138
f 138 151 139
f 139 152 140
f 140 153 141
f 141 154 142
f 142 155 143
f 143 156 144
f 135 148 147
f 132 145 146
f 134 147 145
f 136 149 148
f 149 137 157
f 133 146 150
f 138 150 151
f 139 151 152
f 140 152 153
f 141 153 154
f 142 154 155
f 143 155 156
f 145 147 158
f 145 158 146
f 147 148 158
f 148 149 158
f 149 157 158
f 146 158 150
f 150 158 151
f 151 158 152
f 152 158 153
f 153 158 154
f 154 158 155
f 155 158 156
f 137 113 159
f 159 123 160
f 159 113 123
f 160 123 124
f 160 124 161
f 161 124 125
f 161 125 162
f 162 125 129
f 162 129 163
f 144 126 112
f 144 164 126
f 165 127 126
f 164 165 126
f 166 129 130
f 167 130 131
f 168 131 128
f 163 129 166
f 166 130 167
f 167 131 168
f 169 128 127
f 165 169 127
f 169 168 128
f 137 159 157
f 159 160 170
f 160 161 171
f 161 162 172
f 162 163 173
f 144 174 164
f 164 175 165
f 163 166 176
f 166 167 177
f 167 168 178
f 165 179 169
f 169 180 168
f 159 170 157
f 160 171 170
f 161 172 171
f 162 173 172
f 163 176 173
f 144 156 174
f 164 174 175
f 166 177 176
f 167 178 177
f 169 179 180
f 165 175 179
f 168 180 178
f 157 170 158
f 170 171 158
f 171 172 158
f 172 173 158
f 173 176 158
f 158 174 156
f 158 175 174
f 158 179 175
f 176 177 158
f 158 177 178
f 158 178 180
f 158 180 179
f 181 182 183
f 181 183 184
f 184 183 185
f 185 183 186
f 182 187 183
f 187 188 183
f 188 189 183
f 183 189 190
f 183 190 191
f 183 191 192
f 186 183 193
f 193 183 194
f 183 195 194
f 183 196 195
f 183 192 197
f 183 197 198
f 183 199 200
f 183 201 196
f 183 200 201
f 183 198 199
f 181 184 202
f 181 203 182
f 182 204 187
f 187 205 188
f 188 206 189
f 184 185 207
f 185 186 208
f 189 209 190
f 186 193 210
f 193 194 211
f 194 195 212
f 198 213 199
f 195 196 214
f 196 201 215
f 201 200 216
f 200 199 217
f 182 203 204
f 181 202 203
f 187 204 205
f 188 205 206
f 189 206 209
f 184 207 202
f 185 208 207
f 186 210 208
f 193 211 210
f 194 212 211
f 195 214 212
f 198 218 213
f 196 215 214
f 201 216 215
f 200 217 216
f 199 213 217
f 190 219 191
f 191 220 192
f 192 221 197
f 197 218 198
f 190 209 219
f 191 219 220
f 192 220 221
f 197 221 218
f 222 207 223
f 223 207 208
f 223 208 224
f 224 208 225
f 225 208 210
f 226 227 203
f 227 204 203
f 222 226 202
f 222 202 207
f 226 203 202
f 227 228 204
f 228 229 205
f 228 205 204
f 229 230 205
f 230 206 205
f 225 210 231
f 231 210 211
f 231 211 232
f 232 211 212
f 232 212 233
f 233 212 214
f 233 214 234
f 234 214 215
f 234 215 235
f 235 215 236
f 236 215 216
f 237 216 217
f 238 217 213
f 236 216 237
f 237 217 238
f 230 239 206
f 239 209 206
f 239 240 209
f 240 219 209
f 240 241 219
f 241 220 219
f 241 242 220
f 242 221 220
f 242 243 221
f 244 218 221
f 244 245 218
f 243 244 221
f 245 213 218
f 245 238 213
f 222 223 246
f 223 224 247
f 224 225 248
f 222 249 226
f 226 250 227
f 227 251 228
f 228 252 229
f 229 253 230
f 225 231 254
f 231 232 255
f 232 233 256
f 233 234 257
f 234 235 258
f 235 236 259
f 236 237 260
f 237 238 261
f 223 247 246
f 224 248 247
f 225 254 248
f 226 249 250
f 222 246 249
f 227 250 251
f 228 251 252
f 229 252 253
f 231 255 254
f 232 256 255
f 233 257 256
f 234 258 257
f 235 259 258
f 236 260 259
f 237 261 260
f 238 262 261
f 246 263 249
f 249 263 250
f 250 263 251
f 251 263 252
f 252 263 253
f 263 264 253
f 246 247 263
f 247 248 263
f 248 254 263
f 254 255 263
f 263 255 256
f 263 256 257
f 263 257 258
f 263 262 265
f 263 258 259
f 263 259 260
f 263 260 261
f 263 261 262
f 230 264 239
f 239 266 240
f 240 267 241
f 241 268 242
f 242 269 243
f 243 270 244
f 244 265 245
f 245 262 238
f 230 253 264
f 239 264 266
f 240 266 267
f 241 267 268
f 242 268 269
f 243 269 270
f 245 265 262
f 244 270 265
f 263 266 264
f 263 267 266
f 263 268 267
f 263 269 268
f 263 270 269
f 263 265 270
f 271 272 273
f 271 274 275
f 274 276 277
f 276 278 279
f 271 275 272
f 274 277 275
f 276 279 277
f 278 280 279
f 281 282 273
f 283 284 282
f 281 283 282
f 284 285 282
f 271 273 282
f 271 282 274
f 285 286 282
f 286 287 282
f 287 288 282
f 288 289 282
f 274 282 276
f 276 282 278
f 278 282 290
f 290 282 291
f 282 292 291
f 282 293 292
f 282 289 294
f 282 294 295
f 282 296 293
f 282 295 296
f 281 273 297
f 281 298 283
f 283 299 284
f 284 300 285
f 285 301 286
f 286 302 287
f 287 303 288
f 288 304 289
f 278 290 280
f 289 305 294
f 294 306 295
f 296 295 307
f 290 291 308
f 291 292 309
f 292 293 310
f 293 296 311
f 281 297 298
f 283 298 299
f 284 299 300
f 285 300 301
f 286 301 302
f 273 272 297
f 287 302 303
f 288 303 304
f 290 308 280
f 289 304 305
f 294 305 306
f 295 306 307
f 291 309 308
f 292 310 309
f 293 311 310
f 296 307 311
f 312 313 297
f 314 312 272
f 312 297 272
f 314 275 315
f 314 272 275
f 315 275 316
f 316 275 277
f 316 277 317
f 317 277 279
f 317 279 318
f 318 279 280
f 318 280 319
f 319 280 308
f 319 308 320
f 321 298 313
f 321 322 299
f 321 299 298
f 322 300 299
f 313 298 297
f 322 323 300
f 323 324 300
f 324 301 300
f 324 325 301
f 325 302 301
f 325 326 302
f 326 303 302
f 326 327 303
f 327 304 303
f 327 328 304
f 320 308 309
f 329 309 310
f 320 309 330
f 330 309 329
f 329 310 331
f 331 310 311
f 332 311 307
f 333 307 306
f 332 307 333
f 331 311 332
f 328 305 304
f 328 334 305
f 335 306 305
f 334 335 305
f 335 333 306
f 312 336 313
f 314 337 312
f 314 315 338
f 315 316 339
f 316 317 340
f 317 318 341
f 318 319 342
f 319 320 343
f 312 337 336
f 314 338 337
f 315 339 338
f 316 340 339
f 317 341 340
f 318 342 341
f 319 343 342
f 320 344 343
f 338 345 337
f 338 339 345
f 339 340 345
f 340 341 345
f 341 342 345
f 342 343 345
f 321 313 346
f 321 347 322
f 322 348 323
f 323 349 324
f 324 350 325
f 325 351 326
f 326 352 327
f 327 353 328
f 320 330 344
f 330 329 354
f 329 331 355
f 331 332 356
f 332 333 357
f 328 358 334
f 334 359 335
f 335 360 333
f 313 336 346
f 321 346 347
f 322 347 348
f 323 348 349
f 324 349 350
f 325 350 351
f 326 351 352
f 327 352 353
f 330 354 344
f 329 355 354
f 333 360 357
f 331 356 355
f 332 357 356
f 328 353 358
f 334 358 359
f 335 359 360
f 337 345 336
f 346 336 345
f 346 345 347
f 347 345 348
f 348 345 349
f 349 345 350
f 345 351 350
f 345 352 351
f 345 353 352
f 343 344 345
f 345 358 353
f 345 359 358
f 345 360 359
f 345 357 360
f 345 344 354
f 345 354 355
f 345 355 356
f 345 356 357
f 361 362 363
f 364 365 362
f 364 362 366
f 365 367 362
f 367 368 362
f 366 362 361
f 368 369 362
f 369 370 362
f 362 370 371
f 362 371 372
f 364 373 365
f 365 374 367
f 367 375 368
f 364 366 376
f 366 361 377
f 361 363 378
f 368 379 369
f 369 380 370
f 370 381 371
f 371 382 372
f 365 373 374
f 364 376 373
f 367 374 375
f 366 377 376
f 361 378 377
f 363 383 378
f 368 375 379
f 369 379 380
f 370 380 381
f 371 381 382
f 363 362 384
f 362 385 384
f 362 386 385
f 362 387 386
f 362 388 387
f 362 389 388
f 362 372 390
f 362 390 391
f 362 391 392
f 362 392 389
f 363 384 383
f 384 385 393
f 385 386 394
f 386 387 395
f 387 388 396
f 388 389 397
f 372 398 390
f 392 391 399
f 390 400 391
f 392 401 389
f 384 393 383
f 385 394 393
f 386 395 394
f 387 396 395
f 388 397 396
f 389 401 397
f 372 382 398
f 390 398 400
f 391 400 399
f 392 399 401
f 402 376 403
f 403 377 404
f 403 376 377
f 402 405 373
f 405 406 374
f 406 407 375
f 402 373 376
f 405 374 373
f 406 375 374
f 404 378 408
f 404 377 378
f 408 378 409
f 409 378 383
f 407 410 375
f 410 379 375
f 410 411 379
f 411 380 379
f 411 412 380
f 412 381 380
f 413 382 381
f 412 413 381
f 413 414 382
f 402 403 415
f 403 404 416
f 402 417 405
f 405 418 406
f 406 419 407
f 404 408 420
f 408 409 421
f 407 422 410
f 410 423 411
f 411 424 412
f 412 425 413
f 413 426 414
f 402 415 417
f 404 420 416
f 403 416 415
f 405 417 418
f 406 418 419
f 408 421 420
f 409 427 421
f 407 419 422
f 410 422 423
f 411 423 424
f 412 424 425
f 413 425 426
f 415 416 428
f 415 428 417
f 417 428 418
f 418 428 419
f 416 420 428
f 420 421 428
f 421 427 428
f 428 422 419
f 428 423 422
f 428 424 423
f 428 425 424
f 428 426 425
f 409 383 429
f 429 383 393
f 429 393 430
f 430 393 394
f 430 394 431
f 431 394 395
f 431 395 432
f 432 395 396
f 433 396 397
f 434 397 401
f 432 396 435
f 435 396 433
f 433 397 434
f 436 400 398
f 414 398 382
f 414 437 398
f 437 436 398
f 438 401 399
f 439 399 400
f 436 439 400
f 439 438 399
f 434 401 438
f 409 429 427
f 429 430 440
f 430 431 441
f 431 432 442
f 432 435 443
f 435 433 444
f 433 434 445
f 414 446 437
f 437 447 436
f 436 448 439
f 434 438 449
f 439 450 438
f 427 429 440
f 430 441 440
f 431 442 441
f 432 443 442
f 435 444 443
f 433 445 444
f 434 449 445
f 414 426 446
f 437 446 447
f 439 448 450
f 438 450 449
f 436 447 448
f 427 440 428
f 428 440 441
f 428 441 442
f 428 442 443
f 428 443 444
f 428 444 445
f 428 445 449
f 428 446 426
f 428 447 446
f 428 448 447
f 428 449 450
f 428 450 448
f 451 452 453
f 452 454 455
f 454 456 457
f 456 458 459
f 452 455 453
f 454 457 455
f 456 459 457
f 458 460 459
f 461 462 451
f 463 464 462
f 464 465 462
f 461 463 462
f 451 462 452
f 452 462 454
f 465 466 462
f 466 467 462
f 467 468 462
f 462 468 469
f 454 462 456
f 456 462 458
f 458 462 470
f 470 462 471
f 462 472 471
f 462 473 472
f 462 469 474
f 462 474 475
f 462 475 476
f 462 476 473
f 461 477 463
f 463 478 464
f 464 479 465
f 465 480 466
f 461 451 481
f 466 482 467
f 467 483 468
f 468 484 469
f 458 470 460
f 469 485 474
f 474 486 475
f 470 471 487
f 471 472 488
f 472 473 489
f 473 476 490
f 475 491 476
f 461 481 477
f 463 477 478
f 464 478 479
f 465 479 480
f 451 453 481
f 466 480 482
f 467 482 483
f 468 483 484
f 469 484 485
f 474 485 486
f 475 486 491
f 470 487 460
f 471 488 487
f 472 489 488
f 476 491 490
f 473 490 489
f 492 493 481
f 492 481 453
f 494 455 495
f 492 453 494
f 494 453 455
f 495 455 496
f 496 455 457
f 496 457 497
f 497 457 459
f 497 459 498
f 498 459 460
f 498 460 499
f 499 460 487
f 499 487 500
f 501 477 493
f 501 502 478
f 493 477 481
f 501 478 477
f 502 479 478
f 502 503 479
f 503 504 479
f 504 480 479
f 504 505 480
f 505 482 480
f 505 506 482
f 506 483 482
f 506 507 483
f 507 484 483
f 507 508 484
f 500 487 488
f 500 488 509
f 510 488 489
f 509 488 510
f 510 489 511
f 512 490 491
f 513 491 486
f 512 491 513
f 511 489 490
f 511 490 512
f 508 485 484
f 508 514 485
f 514 515 485
f 515 486 485
f 515 513 486
f 492 516 493
f 492 494 517
f 494 495 518
f 495 496 519
f 496 497 520
f 497 498 521
f 498 499 522
f 499 500 523
f 494 518 517
f 492 517 516
f 495 519 518
f 496 520 519
f 497 521 520
f 498 522 521
f 499 523 522
f 500 524 523
f 517 518 525
f 518 519 525
f 519 520 525
f 520 521 525
f 521 522 525
f 522 523 525
f 501 493 526
f 501 527 502
f 502 528 503
f 503 529 504
f 504 530 505
f 505 531 506
f 506 532 507
f 507 533 508
f 500 509 524
f 509 510 534
f 510 511 535
f 511 512 536
f 512 513 537
f 508 538 514
f 514 539 515
f 515 540 513
f 493 516 526
f 501 526 527
f 502 527 528
f 503 528 529
f 504 529 530
f 505 530 531
f 506 531 532
f 507 532 533
f 509 534 524
f 510 535 534
f 511 536 535
f 513 540 537
f 512 537 536
f 508 533 538
f 514 538 539
f 515 539 540
f 526 516 525
f 526 525 527
f 527 525 528
f 528 525 529
f 517 525 516
f 529 525 530
f 530 525 531
f 531 525 532
f 532 525 533
f 525 538 533
f 525 539 538
f 525 540 539
f 523 524 525
f 525 524 534
f 525 534 535
f 525 535 536
f 525 536 537
f 525 537 540
