# sionna2 mesh — typhoonh480__camera.obj
# group=camera  verts=676  tris=1340
v 0.091500 0.012916 -0.088980
v 0.091500 0.021000 -0.086304
v 0.091500 0.014123 -0.091394
v 0.091500 0.016004 -0.093310
v 0.091500 0.018373 -0.094541
v 0.091500 0.012500 -0.086304
v 0.091500 0.012916 -0.083627
v 0.091500 0.014123 -0.081213
v 0.091500 0.016004 -0.079297
v 0.091500 0.018373 -0.078067
v 0.099500 0.012916 -0.088980
v 0.099500 0.014123 -0.091394
v 0.099500 0.016131 -0.088358
v 0.099500 0.012500 -0.086304
v 0.099500 0.012916 -0.083627
v 0.099500 0.014123 -0.081213
v 0.099500 0.016004 -0.079297
v 0.099500 0.015730 -0.086304
v 0.099500 0.016131 -0.084249
v 0.099500 0.018373 -0.094541
v 0.099500 0.016004 -0.093310
v 0.091500 0.021000 -0.094964
v 0.099500 0.017274 -0.090101
v 0.099500 0.018983 -0.091265
v 0.099500 0.021000 -0.094964
v 0.099500 0.018373 -0.078067
v 0.099500 0.021000 -0.077643
v 0.099500 0.017274 -0.082507
v 0.099500 0.018983 -0.081343
v 0.099500 0.021000 -0.080934
v 0.091500 0.023627 -0.094541
v 0.091500 0.025996 -0.093310
v 0.091500 0.027877 -0.091394
v 0.091500 0.021000 -0.077643
v 0.091500 0.023627 -0.078067
v 0.091500 0.025996 -0.079297
v 0.091500 0.027877 -0.081213
v 0.091500 0.029084 -0.088980
v 0.091500 0.029084 -0.083627
v 0.091500 0.029500 -0.086304
v 0.099500 0.023627 -0.094541
v 0.099500 0.021000 -0.091673
v 0.099500 0.023017 -0.091265
v 0.099500 0.025996 -0.093310
v 0.099500 0.024726 -0.090101
v 0.099500 0.023627 -0.078067
v 0.099500 0.025996 -0.079297
v 0.099500 0.023017 -0.081343
v 0.099500 0.024726 -0.082507
v 0.099500 0.027877 -0.091394
v 0.099500 0.029084 -0.088980
v 0.099500 0.025869 -0.088358
v 0.099500 0.027877 -0.081213
v 0.099500 0.029500 -0.086304
v 0.099500 0.029084 -0.083627
v 0.099500 0.026270 -0.086304
v 0.099500 0.025869 -0.084249
v 0.101700 0.017274 -0.090101
v 0.101700 0.016131 -0.088358
v 0.101700 0.018983 -0.091265
v 0.101700 0.021000 -0.091673
v 0.101700 0.021000 -0.086304
v 0.101700 0.015730 -0.086304
v 0.101700 0.016131 -0.084249
v 0.101700 0.017274 -0.082507
v 0.101700 0.018983 -0.081343
v 0.101700 0.023017 -0.091265
v 0.101700 0.024726 -0.090101
v 0.101700 0.025869 -0.088358
v 0.101700 0.021000 -0.080934
v 0.101700 0.023017 -0.081343
v 0.101700 0.024726 -0.082507
v 0.101700 0.025869 -0.084249
v 0.101700 0.026270 -0.086304
v 0.091500 -0.029084 -0.088980
v 0.091500 -0.021000 -0.086304
v 0.091500 -0.027877 -0.091394
v 0.091500 -0.029500 -0.086304
v 0.091500 -0.029084 -0.083627
v 0.091500 -0.027877 -0.081213
v 0.091500 -0.025996 -0.093310
v 0.091500 -0.023627 -0.094541
v 0.091500 -0.021000 -0.094964
v 0.091500 -0.018373 -0.094541
v 0.091500 -0.025996 -0.079297
v 0.091500 -0.023627 -0.078067
v 0.091500 -0.021000 -0.077643
v 0.091500 -0.018373 -0.078067
v 0.099500 -0.029084 -0.088980
v 0.099500 -0.027877 -0.091394
v 0.099500 -0.025996 -0.093310
v 0.099500 -0.025869 -0.088358
v 0.099500 -0.024726 -0.090101
v 0.099500 -0.029500 -0.086304
v 0.099500 -0.029084 -0.083627
v 0.099500 -0.027877 -0.081213
v 0.099500 -0.025996 -0.079297
v 0.099500 -0.023627 -0.078067
v 0.099500 -0.026270 -0.086304
v 0.099500 -0.025869 -0.084249
v 0.099500 -0.024726 -0.082507
v 0.099500 -0.023627 -0.094541
v 0.099500 -0.021000 -0.094964
v 0.099500 -0.023017 -0.091265
v 0.099500 -0.021000 -0.091673
v 0.099500 -0.018373 -0.094541
v 0.099500 -0.021000 -0.077643
v 0.099500 -0.018373 -0.078067
v 0.099500 -0.023017 -0.081343
v 0.099500 -0.021000 -0.080934
v 0.099500 -0.018983 -0.081343
v 0.091500 -0.016004 -0.093310
v 0.091500 -0.014123 -0.091394
v 0.091500 -0.012916 -0.088980
v 0.091500 -0.016004 -0.079297
v 0.091500 -0.012500 -0.086304
v 0.091500 -0.014123 -0.081213
v 0.091500 -0.012916 -0.083627
v 0.099500 -0.016004 -0.093310
v 0.099500 -0.018983 -0.091265
v 0.099500 -0.017274 -0.090101
v 0.099500 -0.014123 -0.091394
v 0.099500 -0.016131 -0.088358
v 0.099500 -0.016004 -0.079297
v 0.099500 -0.014123 -0.081213
v 0.099500 -0.017274 -0.082507
v 0.099500 -0.016131 -0.084249
v 0.099500 -0.012916 -0.088980
v 0.099500 -0.012500 -0.086304
v 0.099500 -0.012916 -0.083627
v 0.099500 -0.015730 -0.086304
v 0.101700 -0.025869 -0.088358
v 0.101700 -0.024726 -0.090101
v 0.101700 -0.026270 -0.086304
v 0.101700 -0.025869 -0.084249
v 0.101700 -0.023017 -0.091265
v 0.101700 -0.021000 -0.086304
v 0.101700 -0.021000 -0.091673
v 0.101700 -0.018983 -0.091265
v 0.101700 -0.024726 -0.082507
v 0.101700 -0.023017 -0.081343
v 0.101700 -0.021000 -0.080934
v 0.101700 -0.018983 -0.081343
v 0.101700 -0.017274 -0.090101
v 0.101700 -0.016131 -0.088358
v 0.101700 -0.017274 -0.082507
v 0.101700 -0.015730 -0.086304
v 0.101700 -0.016131 -0.084249
v -0.011975 -0.038470 -0.174523
v -0.011975 -0.021900 -0.174523
v 0.047400 -0.021900 -0.174523
v -0.011975 -0.038470 -0.102382
v -0.011975 -0.021900 -0.148229
v -0.011975 0.038470 -0.102382
v 0.070575 -0.038470 -0.174523
v -0.011975 0.038470 -0.174523
v -0.011975 0.021900 -0.174523
v -0.011975 0.021900 -0.148229
v 0.070575 0.038470 -0.174523
v 0.070575 0.038470 -0.102382
v 0.047400 -0.005657 -0.174523
v 0.070575 -0.038470 -0.102382
v 0.047400 0.021900 -0.174523
v -0.031800 -0.021900 -0.224924
v -0.020155 -0.021900 -0.224924
v -0.020155 -0.021900 -0.190021
v -0.031800 -0.021900 -0.148229
v -0.020155 0.021900 -0.224924
v -0.031800 0.021900 -0.148229
v 0.047400 -0.021900 -0.190021
v -0.031800 0.021900 -0.224924
v -0.020155 0.021900 -0.190021
v 0.047400 0.021900 -0.190021
v 0.047400 -0.020402 -0.190021
v 0.047400 -0.019102 -0.187975
v 0.047400 -0.019070 -0.187929
v 0.047400 -0.019015 -0.187866
v 0.047400 -0.016185 -0.184718
v 0.047400 -0.014210 -0.182919
v 0.047400 -0.012994 -0.181949
v 0.047400 -0.010337 -0.180272
v 0.047400 -0.009497 -0.179809
v 0.047400 -0.006543 -0.178597
v 0.047400 -0.005702 -0.178316
v 0.047400 -0.002747 -0.177703
v 0.047400 -0.001777 -0.177594
v 0.047400 0.001777 -0.177594
v 0.047400 0.002747 -0.177703
v 0.047400 0.005702 -0.178316
v 0.047400 0.006543 -0.178597
v 0.047400 0.009497 -0.179809
v 0.047400 0.010337 -0.180272
v 0.047400 0.012994 -0.181949
v 0.047400 0.016185 -0.184718
v 0.047400 0.014210 -0.182919
v 0.047400 0.019102 -0.187975
v 0.047400 0.019070 -0.187929
v 0.047400 0.019015 -0.187866
v 0.047400 0.020402 -0.190021
v -0.020155 -0.040240 -0.233183
v -0.020155 -0.040240 -0.190021
v 0.012341 0.000015 -0.233183
v 0.012341 -0.000015 -0.233183
v 0.062355 -0.040240 -0.233183
v 0.023308 -0.018093 -0.233183
v 0.024826 -0.018992 -0.233183
v 0.016844 -0.012241 -0.233183
v 0.019145 -0.014851 -0.233183
v 0.015124 -0.009830 -0.233183
v 0.019674 -0.015381 -0.233183
v 0.020573 -0.016094 -0.233183
v 0.030528 -0.021521 -0.233183
v 0.031707 -0.021906 -0.233183
v 0.027309 -0.020235 -0.233183
v 0.036153 -0.022923 -0.233183
v 0.036563 -0.022989 -0.233183
v 0.041818 -0.023380 -0.233183
v 0.041782 -0.023380 -0.233183
v 0.062355 -0.040240 -0.190021
v 0.014594 -0.008840 -0.233183
v 0.014872 -0.009412 -0.233183
v 0.013542 -0.006279 -0.233183
v 0.013039 -0.004694 -0.233183
v 0.012728 -0.003168 -0.233183
v 0.012728 0.003168 -0.233183
v 0.013039 0.004694 -0.233183
v -0.020155 0.040240 -0.233183
v -0.020155 0.040240 -0.190021
v 0.013542 0.006279 -0.233183
v 0.014594 0.008840 -0.233183
v 0.014872 0.009412 -0.233183
v 0.015124 0.009830 -0.233183
v 0.016844 0.012241 -0.233183
v 0.019145 0.014851 -0.233183
v 0.019674 0.015381 -0.233183
v 0.020573 0.016094 -0.233183
v 0.023308 0.018093 -0.233183
v 0.024826 0.018992 -0.233183
v 0.027309 0.020235 -0.233183
v 0.030528 0.021521 -0.233183
v 0.031707 0.021906 -0.233183
v 0.036153 0.022923 -0.233183
v 0.036563 0.022989 -0.233183
v 0.041782 0.023380 -0.233183
v 0.041818 0.023380 -0.233183
v 0.062355 0.040240 -0.233183
v 0.062355 0.040240 -0.190021
v 0.047037 -0.022989 -0.233183
v 0.062355 -0.022014 -0.216035
v 0.047447 -0.022923 -0.233183
v 0.051893 -0.021906 -0.233183
v 0.053072 -0.021521 -0.233183
v 0.056291 -0.020235 -0.233183
v 0.058774 -0.018992 -0.233183
v 0.060292 -0.018093 -0.233183
v 0.062355 -0.018961 -0.229027
v 0.062355 -0.020235 -0.225460
v 0.062355 -0.018817 -0.229371
v 0.062355 -0.018610 -0.229761
v 0.062355 -0.016585 -0.233183
v 0.062355 -0.021351 -0.221294
v 0.062355 -0.021678 -0.219235
v 0.062355 -0.021937 -0.217095
v 0.062355 -0.021081 -0.222522
v 0.048945 -0.020143 -0.190021
v 0.050837 -0.019631 -0.190021
v 0.053541 -0.018733 -0.190021
v 0.055619 -0.017788 -0.190021
v 0.057594 -0.016724 -0.190021
v 0.062355 -0.022014 -0.211550
v 0.062355 -0.021937 -0.210490
v 0.062355 -0.021678 -0.208350
v 0.062355 -0.021351 -0.206291
v 0.062355 -0.021081 -0.205063
v 0.062355 -0.020235 -0.202125
v 0.062355 -0.018961 -0.198558
v 0.062355 -0.018817 -0.198213
v 0.062355 -0.018610 -0.197824
v 0.062355 -0.016424 -0.194129
v 0.062355 -0.014610 -0.191699
v 0.061324 -0.014176 -0.190021
v 0.061446 -0.014064 -0.190021
v 0.061379 -0.014131 -0.190021
v 0.062355 -0.013552 -0.190479
v 0.062355 -0.013048 -0.190021
v 0.047037 0.022989 -0.233183
v 0.047447 0.022923 -0.233183
v 0.051893 0.021906 -0.233183
v 0.053072 0.021521 -0.233183
v 0.056291 0.020235 -0.233183
v 0.058774 0.018992 -0.233183
v 0.062355 0.016585 -0.233183
v 0.060292 0.018093 -0.233183
v 0.062355 0.018610 -0.229761
v 0.062355 0.018817 -0.229371
v 0.062355 0.018961 -0.229027
v 0.062355 0.020235 -0.225460
v 0.062355 0.021081 -0.222522
v 0.062355 0.021351 -0.221294
v 0.062355 0.021678 -0.219235
v 0.062355 0.021937 -0.217095
v 0.062355 0.022014 -0.216035
v 0.048945 0.020143 -0.190021
v 0.055619 0.017788 -0.190021
v 0.057594 0.016724 -0.190021
v 0.050837 0.019631 -0.190021
v 0.053541 0.018733 -0.190021
v 0.061446 0.014064 -0.190021
v 0.062355 0.013048 -0.190021
v 0.062355 0.013552 -0.190479
v 0.062355 0.014610 -0.191699
v 0.062355 0.016424 -0.194129
v 0.062355 0.018610 -0.197824
v 0.061324 0.014176 -0.190021
v 0.061379 0.014131 -0.190021
v 0.062355 0.021081 -0.205063
v 0.062355 0.021351 -0.206291
v 0.062355 0.018961 -0.198558
v 0.062355 0.020235 -0.202125
v 0.062355 0.022014 -0.211550
v 0.062355 0.021937 -0.210490
v 0.062355 0.021678 -0.208350
v 0.062355 0.018817 -0.198213
v 0.028919 -0.019445 -0.235951
v 0.033585 -0.020863 -0.236148
v 0.017954 -0.011696 -0.235446
v 0.014335 -0.005858 -0.234837
v 0.017465 -0.008140 -0.237643
v 0.017474 -0.004417 -0.239351
v 0.014640 -0.002230 -0.236472
v 0.017154 0.000000 -0.239687
v 0.022249 -0.014118 -0.237612
v 0.024012 -0.017781 -0.234579
v 0.027062 -0.016164 -0.239145
v 0.020958 -0.010223 -0.239842
v 0.024475 -0.008498 -0.243596
v 0.025569 -0.012485 -0.241714
v 0.028508 -0.010314 -0.244882
v 0.029806 -0.014193 -0.242654
v 0.031543 -0.017804 -0.239665
v 0.034419 -0.015709 -0.242993
v 0.036234 -0.019079 -0.239655
v 0.032795 -0.011932 -0.245573
v 0.037254 -0.013322 -0.245656
v 0.032650 -0.008285 -0.247546
v 0.020774 -0.006520 -0.241741
v 0.023808 -0.004302 -0.244744
v 0.028419 -0.006564 -0.246617
v 0.020309 -0.002231 -0.242535
v 0.023583 0.000000 -0.245130
v 0.027954 -0.002264 -0.247426
v 0.037238 -0.009851 -0.247843
v 0.032692 -0.004468 -0.248829
v 0.037199 -0.006053 -0.249394
v 0.032569 0.000000 -0.249301
v 0.037189 -0.002262 -0.250178
v 0.014640 0.002230 -0.236472
v 0.014335 0.005858 -0.234837
v 0.017474 0.004417 -0.239351
v 0.017465 0.008140 -0.237643
v 0.017954 0.011696 -0.235446
v 0.020309 0.002231 -0.242535
v 0.020774 0.006520 -0.241741
v 0.023808 0.004302 -0.244744
v 0.027954 0.002264 -0.247426
v 0.020958 0.010223 -0.239842
v 0.024475 0.008498 -0.243596
v 0.028419 0.006564 -0.246617
v 0.032692 0.004468 -0.248829
v 0.037189 0.002262 -0.250178
v 0.028508 0.010314 -0.244882
v 0.032650 0.008285 -0.247546
v 0.037199 0.006053 -0.249394
v 0.032795 0.011932 -0.245573
v 0.037238 0.009851 -0.247843
v 0.025569 0.012485 -0.241714
v 0.022249 0.014118 -0.237612
v 0.027062 0.016164 -0.239145
v 0.024012 0.017781 -0.234579
v 0.029806 0.014193 -0.242654
v 0.034419 0.015709 -0.242993
v 0.037254 0.013322 -0.245656
v 0.031543 0.017804 -0.239665
v 0.036234 0.019079 -0.239655
v 0.028919 0.019445 -0.235951
v 0.033585 0.020863 -0.236148
v 0.038988 -0.021456 -0.236642
v 0.044612 -0.021456 -0.236642
v 0.041800 -0.019330 -0.239996
v 0.050015 -0.020863 -0.236148
v 0.047366 -0.019079 -0.239655
v 0.054681 -0.019445 -0.235951
v 0.064233 -0.019314 -0.224697
v 0.065839 -0.019306 -0.219710
v 0.063132 -0.021556 -0.216780
v 0.063132 -0.021556 -0.210805
v 0.066156 -0.019560 -0.213792
v 0.065839 -0.019306 -0.207875
v 0.064233 -0.019314 -0.202888
v 0.038990 -0.016930 -0.242669
v 0.044610 -0.016930 -0.242669
v 0.041800 -0.014458 -0.245130
v 0.041800 -0.011092 -0.247502
v 0.049181 -0.015709 -0.242993
v 0.046346 -0.013322 -0.245656
v 0.052057 -0.017804 -0.239665
v 0.046362 -0.009851 -0.247843
v 0.050805 -0.011932 -0.245573
v 0.053794 -0.014193 -0.242654
v 0.041800 -0.007515 -0.249230
v 0.041800 -0.003794 -0.250280
v 0.041800 0.000000 -0.250632
v 0.046401 -0.006053 -0.249394
v 0.050950 -0.008285 -0.247546
v 0.050908 -0.004468 -0.248829
v 0.046411 -0.002262 -0.250178
v 0.051031 0.000000 -0.249301
v 0.056538 -0.016164 -0.239145
v 0.059588 -0.017781 -0.234579
v 0.061351 -0.014118 -0.237612
v 0.055092 -0.010314 -0.244882
v 0.058031 -0.012485 -0.241714
v 0.059125 -0.008498 -0.243596
v 0.062642 -0.010223 -0.239842
v 0.064204 -0.015517 -0.232705
v 0.066301 -0.016541 -0.227487
v 0.065646 -0.011696 -0.235446
v 0.068062 -0.012882 -0.230517
v 0.068947 -0.009519 -0.232806
v 0.068087 -0.016688 -0.222527
v 0.068834 -0.017057 -0.216782
v 0.069832 -0.013750 -0.225176
v 0.068834 -0.017057 -0.216486
v 0.068515 -0.017354 -0.213792
v 0.068834 -0.017057 -0.211099
v 0.068834 -0.017057 -0.210803
v 0.068087 -0.016688 -0.205058
v 0.055181 -0.006564 -0.246617
v 0.059792 -0.004302 -0.244744
v 0.055646 -0.002264 -0.247426
v 0.060017 0.000000 -0.245130
v 0.062826 -0.006520 -0.241741
v 0.066135 -0.008140 -0.237643
v 0.069265 -0.005858 -0.234837
v 0.066126 -0.004417 -0.239351
v 0.063291 -0.002231 -0.242535
v 0.066446 0.000000 -0.239687
v 0.068960 -0.002230 -0.236472
v 0.052057 -0.017804 -0.187920
v 0.049181 -0.015709 -0.184592
v 0.050805 -0.011932 -0.182012
v 0.053794 -0.014193 -0.184930
v 0.050950 -0.008285 -0.180038
v 0.050908 -0.004468 -0.178756
v 0.051031 0.000000 -0.178284
v 0.056538 -0.016164 -0.188440
v 0.061351 -0.014118 -0.189973
v 0.058031 -0.012485 -0.185870
v 0.062642 -0.010223 -0.187743
v 0.059125 -0.008498 -0.183989
v 0.066301 -0.016541 -0.200097
v 0.069832 -0.013750 -0.202408
v 0.064204 -0.015517 -0.194880
v 0.068062 -0.012882 -0.197068
v 0.065646 -0.011696 -0.192139
v 0.068947 -0.009519 -0.194779
v 0.055092 -0.010314 -0.182703
v 0.062826 -0.006520 -0.185844
v 0.066135 -0.008140 -0.189942
v 0.069265 -0.005858 -0.192748
v 0.066126 -0.004417 -0.188234
v 0.063291 -0.002231 -0.185050
v 0.068960 -0.002230 -0.191112
v 0.066446 0.000000 -0.187898
v 0.055181 -0.006564 -0.180968
v 0.059792 -0.004302 -0.182841
v 0.055646 -0.002264 -0.180159
v 0.060017 0.000000 -0.182455
v 0.070957 -0.010508 -0.227817
v 0.069254 -0.015693 -0.221299
v 0.068783 -0.016919 -0.217727
v 0.069257 -0.015636 -0.221465
v 0.069981 -0.013823 -0.224405
v 0.068862 -0.017020 -0.216818
v 0.068861 -0.017028 -0.216748
v 0.068861 -0.017028 -0.210837
v 0.068862 -0.017020 -0.210766
v 0.068783 -0.016919 -0.209858
v 0.070626 -0.011649 -0.226773
v 0.070100 -0.013455 -0.224933
v 0.070051 -0.013568 -0.224818
v 0.070843 -0.010820 -0.227617
v 0.070918 -0.010646 -0.227729
v 0.071522 -0.007530 -0.229724
v 0.071632 -0.007198 -0.229842
v 0.071647 -0.007123 -0.229869
v 0.071770 -0.003608 -0.231639
v 0.071702 -0.006652 -0.230037
v 0.071974 -0.003862 -0.231032
v 0.072026 -0.003610 -0.231061
v 0.072065 -0.002995 -0.231131
v 0.071275 0.000000 -0.233160
v 0.072109 0.000000 -0.231475
v 0.069254 -0.015693 -0.206286
v 0.069257 -0.015636 -0.206120
v 0.069981 -0.013823 -0.203180
v 0.070051 -0.013568 -0.202767
v 0.070100 -0.013455 -0.202652
v 0.070626 -0.011649 -0.200812
v 0.070843 -0.010820 -0.199967
v 0.070918 -0.010646 -0.199856
v 0.070957 -0.010508 -0.199767
v 0.071522 -0.007530 -0.197861
v 0.071632 -0.007198 -0.197742
v 0.071647 -0.007123 -0.197716
v 0.071702 -0.006652 -0.197548
v 0.071770 -0.003608 -0.195946
v 0.071974 -0.003862 -0.196553
v 0.072026 -0.003610 -0.196524
v 0.072065 -0.002995 -0.196453
v 0.072109 0.000000 -0.196109
v 0.071275 0.000000 -0.194425
v 0.041800 0.003794 -0.250280
v 0.041800 0.007515 -0.249230
v 0.041800 0.011092 -0.247502
v 0.046411 0.002262 -0.250178
v 0.046401 0.006053 -0.249394
v 0.050908 0.004468 -0.248829
v 0.046362 0.009851 -0.247843
v 0.050950 0.008285 -0.247546
v 0.050805 0.011932 -0.245573
v 0.041800 0.014458 -0.245130
v 0.038990 0.016930 -0.242669
v 0.041800 0.019330 -0.239996
v 0.044610 0.016930 -0.242669
v 0.038988 0.021456 -0.236642
v 0.046346 0.013322 -0.245656
v 0.049181 0.015709 -0.242993
v 0.053794 0.014193 -0.242654
v 0.047366 0.019079 -0.239655
v 0.052057 0.017804 -0.239665
v 0.044612 0.021456 -0.236642
v 0.050015 0.020863 -0.236148
v 0.055646 0.002264 -0.247426
v 0.055181 0.006564 -0.246617
v 0.059792 0.004302 -0.244744
v 0.055092 0.010314 -0.244882
v 0.059125 0.008498 -0.243596
v 0.063291 0.002231 -0.242535
v 0.062826 0.006520 -0.241741
v 0.066126 0.004417 -0.239351
v 0.068960 0.002230 -0.236472
v 0.069265 0.005858 -0.234837
v 0.062642 0.010223 -0.239842
v 0.066135 0.008140 -0.237643
v 0.065646 0.011696 -0.235446
v 0.068947 0.009519 -0.232806
v 0.058031 0.012485 -0.241714
v 0.056538 0.016164 -0.239145
v 0.061351 0.014118 -0.237612
v 0.054681 0.019445 -0.235951
v 0.059588 0.017781 -0.234579
v 0.064204 0.015517 -0.232705
v 0.068062 0.012882 -0.230517
v 0.066301 0.016541 -0.227487
v 0.069832 0.013750 -0.225176
v 0.064233 0.019314 -0.224697
v 0.065839 0.019306 -0.219710
v 0.068087 0.016688 -0.222527
v 0.068834 0.017057 -0.216782
v 0.066156 0.019560 -0.213792
v 0.068834 0.017057 -0.216486
v 0.068515 0.017354 -0.213792
v 0.068834 0.017057 -0.211099
v 0.068834 0.017057 -0.210803
v 0.065839 0.019306 -0.207875
v 0.068087 0.016688 -0.205058
v 0.050908 0.004468 -0.178756
v 0.050950 0.008285 -0.180038
v 0.052057 0.017804 -0.187920
v 0.049181 0.015709 -0.184592
v 0.050805 0.011932 -0.182012
v 0.053794 0.014193 -0.184930
v 0.062826 0.006520 -0.185844
v 0.063291 0.002231 -0.185050
v 0.066126 0.004417 -0.188234
v 0.068960 0.002230 -0.191112
v 0.069265 0.005858 -0.192748
v 0.062642 0.010223 -0.187743
v 0.059125 0.008498 -0.183989
v 0.066135 0.008140 -0.189942
v 0.068947 0.009519 -0.194779
v 0.065646 0.011696 -0.192139
v 0.055646 0.002264 -0.180159
v 0.055181 0.006564 -0.180968
v 0.059792 0.004302 -0.182841
v 0.055092 0.010314 -0.182703
v 0.058031 0.012485 -0.185870
v 0.056538 0.016164 -0.188440
v 0.061351 0.014118 -0.189973
v 0.064204 0.015517 -0.194880
v 0.068062 0.012882 -0.197068
v 0.066301 0.016541 -0.200097
v 0.069832 0.013750 -0.202408
v 0.064233 0.019314 -0.202888
v 0.063132 0.021556 -0.216780
v 0.063132 0.021556 -0.210805
v 0.071770 0.003608 -0.231639
v 0.072065 0.002995 -0.231131
v 0.072026 0.003610 -0.231061
v 0.071974 0.003862 -0.231032
v 0.071702 0.006652 -0.230037
v 0.071647 0.007123 -0.229869
v 0.071632 0.007198 -0.229842
v 0.071522 0.007530 -0.229724
v 0.070957 0.010508 -0.227817
v 0.070626 0.011649 -0.226773
v 0.070843 0.010820 -0.227617
v 0.070918 0.010646 -0.227729
v 0.070100 0.013455 -0.224933
v 0.070051 0.013568 -0.224818
v 0.069981 0.013823 -0.224405
v 0.069257 0.015636 -0.221465
v 0.069254 0.015693 -0.221299
v 0.068783 0.016919 -0.217727
v 0.068862 0.017020 -0.216818
v 0.068861 0.017028 -0.216748
v 0.068861 0.017028 -0.210837
v 0.068862 0.017020 -0.210766
v 0.068783 0.016919 -0.209858
v 0.071770 0.003608 -0.195946
v 0.071974 0.003862 -0.196553
v 0.071702 0.006652 -0.197548
v 0.072065 0.002995 -0.196453
v 0.072026 0.003610 -0.196524
v 0.071647 0.007123 -0.197716
v 0.071632 0.007198 -0.197742
v 0.071522 0.007530 -0.197861
v 0.070957 0.010508 -0.199767
v 0.070843 0.010820 -0.199967
v 0.070626 0.011649 -0.200812
v 0.070918 0.010646 -0.199856
v 0.070051 0.013568 -0.202767
v 0.069981 0.013823 -0.203180
v 0.070100 0.013455 -0.202652
v 0.069257 0.015636 -0.206120
v 0.069254 0.015693 -0.206286
v 0.081301 -0.016919 -0.217727
v 0.081301 -0.015636 -0.221465
v 0.081301 -0.017354 -0.213792
v 0.081301 -0.016919 -0.209858
v 0.081301 -0.013568 -0.224818
v 0.081301 -0.010820 -0.227617
v 0.081301 -0.015636 -0.206120
v 0.081301 0.000000 -0.213792
v 0.081301 -0.007530 -0.229724
v 0.081301 -0.003862 -0.231032
v 0.081301 0.000000 -0.231475
v 0.081301 -0.013568 -0.202767
v 0.081301 -0.010820 -0.199967
v 0.081301 -0.007530 -0.197861
v 0.081301 -0.003862 -0.196553
v 0.081301 0.000000 -0.196109
v 0.081301 0.003862 -0.231032
v 0.081301 0.007530 -0.229724
v 0.081301 0.010820 -0.227617
v 0.081301 0.013568 -0.224818
v 0.081301 0.015636 -0.221465
v 0.081301 0.015636 -0.206120
v 0.081301 0.013568 -0.202767
v 0.081301 0.016919 -0.217727
v 0.081301 0.017354 -0.213792
v 0.081301 0.016919 -0.209858
v 0.081301 0.003862 -0.196553
v 0.081301 0.007530 -0.197861
v 0.081301 0.010820 -0.199967
f 1 2 3
f 3 2 4
f 4 2 5
f 1 6 2
f 6 7 2
f 7 8 2
f 8 9 2
f 9 10 2
f 1 3 11
f 3 4 12
f 3 12 11
f 11 12 13
f 1 14 6
f 6 15 7
f 1 11 14
f 6 14 15
f 7 16 8
f 7 15 16
f 8 16 17
f 11 18 14
f 11 13 18
f 14 19 15
f 14 18 19
f 15 19 16
f 5 20 21
f 4 5 21
f 4 21 12
f 5 22 20
f 12 21 23
f 12 23 13
f 21 24 23
f 21 20 24
f 20 25 24
f 8 17 9
f 9 26 10
f 9 17 26
f 10 26 27
f 16 19 28
f 16 28 17
f 17 28 29
f 17 29 26
f 26 29 30
f 5 2 22
f 22 2 31
f 31 2 32
f 2 33 32
f 10 34 2
f 2 34 35
f 2 35 36
f 2 36 37
f 2 38 33
f 2 37 39
f 2 40 38
f 2 39 40
f 22 31 25
f 20 22 25
f 31 32 41
f 31 41 25
f 25 42 24
f 25 41 42
f 41 43 42
f 41 44 43
f 44 45 43
f 10 27 34
f 34 27 46
f 34 46 35
f 35 46 47
f 26 30 27
f 27 30 48
f 27 48 46
f 47 48 49
f 46 48 47
f 32 33 44
f 32 44 41
f 33 50 44
f 33 38 50
f 50 38 51
f 44 50 45
f 50 52 45
f 50 51 52
f 35 47 36
f 36 53 37
f 36 47 53
f 38 40 51
f 40 39 54
f 40 54 51
f 39 55 54
f 37 55 39
f 37 53 55
f 54 56 52
f 55 57 56
f 53 49 57
f 47 49 53
f 53 57 55
f 51 54 52
f 54 55 56
f 58 13 23
f 59 13 58
f 60 23 24
f 60 58 23
f 60 24 61
f 60 62 58
f 59 18 13
f 59 63 18
f 63 19 18
f 63 64 19
f 64 28 19
f 64 65 28
f 59 58 62
f 59 62 63
f 63 62 64
f 64 62 65
f 65 62 66
f 65 29 28
f 65 66 29
f 66 30 29
f 61 24 42
f 60 61 62
f 67 42 43
f 61 42 67
f 61 67 62
f 67 68 62
f 67 43 68
f 68 43 45
f 68 45 69
f 66 62 70
f 66 70 30
f 70 48 30
f 62 71 70
f 70 71 48
f 62 68 69
f 62 72 71
f 62 73 72
f 62 69 74
f 72 57 49
f 62 74 73
f 71 49 48
f 71 72 49
f 69 45 52
f 74 52 56
f 69 52 74
f 73 56 57
f 72 73 57
f 74 56 73
f 75 76 77
f 75 78 76
f 78 79 76
f 79 80 76
f 77 76 81
f 81 76 82
f 82 76 83
f 83 76 84
f 80 85 76
f 85 86 76
f 86 87 76
f 76 87 88
f 75 77 89
f 89 77 90
f 77 81 90
f 81 82 91
f 81 91 90
f 89 90 92
f 90 91 93
f 90 93 92
f 75 94 78
f 78 95 79
f 75 89 94
f 78 94 95
f 79 96 80
f 79 95 96
f 80 97 85
f 80 96 97
f 85 97 98
f 89 99 94
f 94 100 95
f 89 92 99
f 94 99 100
f 95 100 96
f 96 100 101
f 96 101 97
f 82 83 102
f 82 102 91
f 83 84 103
f 83 103 102
f 91 104 93
f 91 102 104
f 102 103 104
f 103 105 104
f 103 106 105
f 85 98 86
f 86 98 107
f 86 107 87
f 87 107 108
f 97 101 109
f 97 109 98
f 98 109 110
f 98 110 107
f 107 110 111
f 76 112 84
f 76 113 112
f 76 114 113
f 76 88 115
f 76 116 114
f 76 117 118
f 76 118 116
f 76 115 117
f 103 84 106
f 84 112 106
f 112 113 119
f 112 119 106
f 106 120 105
f 106 119 120
f 119 121 120
f 119 122 121
f 122 123 121
f 87 108 88
f 88 124 115
f 88 108 124
f 115 124 125
f 107 111 108
f 108 111 124
f 124 111 126
f 125 126 127
f 124 126 125
f 113 114 122
f 113 122 119
f 114 128 122
f 122 128 123
f 114 116 128
f 116 118 129
f 116 129 128
f 118 130 129
f 115 125 117
f 118 117 130
f 117 125 130
f 129 131 123
f 128 129 123
f 130 127 131
f 129 130 131
f 130 125 127
f 132 92 133
f 132 99 92
f 132 134 99
f 134 100 99
f 135 101 100
f 134 135 100
f 133 92 93
f 136 133 93
f 136 93 104
f 136 137 133
f 138 104 105
f 136 104 138
f 136 138 137
f 138 105 139
f 138 139 137
f 132 137 134
f 135 140 101
f 134 137 135
f 132 133 137
f 135 137 140
f 140 137 141
f 140 109 101
f 140 141 109
f 141 110 109
f 141 137 142
f 141 142 110
f 142 111 110
f 137 143 142
f 139 105 120
f 137 139 144
f 144 120 121
f 139 120 144
f 145 121 123
f 144 121 145
f 137 146 143
f 137 144 145
f 137 145 147
f 137 147 148
f 137 148 146
f 142 143 111
f 143 126 111
f 143 146 126
f 146 127 126
f 146 148 127
f 147 123 131
f 145 123 147
f 148 131 127
f 147 131 148
f 149 150 151
f 149 152 150
f 152 153 150
f 152 154 153
f 149 155 152
f 156 157 158
f 156 159 157
f 154 158 153
f 156 158 154
f 152 160 154
f 156 154 160
f 149 151 155
f 155 151 161
f 155 161 159
f 152 155 162
f 152 162 160
f 155 159 162
f 159 161 163
f 159 163 157
f 156 160 159
f 162 159 160
f 164 165 166
f 164 166 167
f 166 150 167
f 164 168 165
f 164 167 169
f 166 151 150
f 166 170 151
f 167 150 153
f 167 153 169
f 164 171 168
f 164 169 171
f 171 172 168
f 171 169 172
f 172 169 157
f 172 157 173
f 173 157 163
f 169 153 158
f 169 158 157
f 170 174 175
f 170 175 176
f 170 176 177
f 170 177 178
f 170 161 151
f 170 178 161
f 178 179 161
f 179 180 161
f 180 181 161
f 181 182 161
f 182 183 161
f 183 184 161
f 184 185 161
f 185 186 161
f 186 187 161
f 187 188 161
f 188 189 161
f 189 163 161
f 189 190 163
f 190 191 163
f 191 192 163
f 192 193 163
f 194 163 195
f 193 195 163
f 196 163 197
f 198 197 163
f 194 198 163
f 196 199 163
f 173 163 199
f 200 201 165
f 165 201 166
f 200 165 168
f 200 202 203
f 200 204 201
f 200 205 206
f 200 207 208
f 200 209 207
f 200 210 211
f 200 208 210
f 200 211 205
f 200 212 213
f 200 206 214
f 200 214 212
f 200 213 215
f 200 215 216
f 200 217 204
f 200 216 218
f 200 218 217
f 201 219 166
f 201 204 219
f 166 219 170
f 200 220 221
f 200 221 209
f 200 222 220
f 200 223 222
f 200 224 223
f 200 203 224
f 200 225 202
f 200 226 225
f 200 168 227
f 200 227 226
f 168 172 227
f 227 172 228
f 227 229 226
f 227 230 229
f 227 231 230
f 227 232 231
f 227 233 232
f 227 234 233
f 227 235 234
f 227 236 235
f 227 237 236
f 227 238 237
f 227 239 238
f 227 240 239
f 227 241 240
f 227 242 241
f 227 243 242
f 227 244 243
f 227 245 244
f 227 246 245
f 227 247 246
f 172 173 228
f 227 228 247
f 228 173 247
f 204 217 248
f 204 249 219
f 204 248 250
f 204 250 251
f 204 251 252
f 204 252 253
f 204 253 254
f 204 254 255
f 204 256 257
f 204 258 256
f 204 259 258
f 204 255 260
f 204 260 259
f 204 261 262
f 204 262 263
f 204 263 249
f 204 257 264
f 204 264 261
f 170 265 174
f 170 219 265
f 219 266 265
f 219 267 266
f 219 268 267
f 219 269 268
f 219 249 270
f 219 270 271
f 219 271 272
f 219 272 273
f 219 273 274
f 219 274 275
f 219 275 276
f 219 276 277
f 219 277 278
f 219 278 279
f 219 279 280
f 219 281 269
f 219 282 283
f 219 283 281
f 219 280 284
f 219 285 282
f 219 284 285
f 246 286 245
f 246 287 286
f 246 288 287
f 246 289 288
f 246 290 289
f 246 291 290
f 246 292 293
f 246 294 292
f 246 293 291
f 246 295 294
f 246 296 295
f 246 297 296
f 246 298 297
f 246 299 298
f 246 300 299
f 246 301 300
f 246 302 301
f 246 247 302
f 173 199 303
f 247 304 305
f 173 303 247
f 247 306 307
f 247 303 306
f 247 307 304
f 247 308 309
f 247 309 310
f 247 311 312
f 247 312 313
f 247 305 314
f 247 315 308
f 247 314 315
f 247 310 311
f 247 316 317
f 247 318 319
f 247 319 316
f 247 320 302
f 247 321 320
f 247 322 321
f 247 317 322
f 247 313 323
f 247 323 318
f 324 212 214
f 324 325 212
f 325 213 212
f 325 215 213
f 326 208 207
f 326 209 221
f 326 207 209
f 327 222 223
f 327 328 221
f 326 221 328
f 327 221 220
f 327 329 328
f 327 220 222
f 327 224 330
f 327 223 224
f 330 224 203
f 330 203 202
f 327 330 329
f 330 331 329
f 332 211 210
f 332 333 211
f 333 206 205
f 333 214 206
f 332 334 333
f 333 205 211
f 335 336 337
f 337 336 338
f 326 332 210
f 326 210 208
f 335 332 326
f 332 337 334
f 335 337 332
f 334 339 340
f 339 341 340
f 341 342 340
f 324 214 333
f 324 333 334
f 324 334 340
f 324 340 325
f 325 340 342
f 334 337 339
f 337 338 339
f 339 338 343
f 339 343 341
f 341 343 344
f 338 345 343
f 335 346 336
f 346 347 336
f 336 347 348
f 335 326 328
f 335 328 346
f 346 328 329
f 346 329 349
f 346 349 347
f 349 329 331
f 347 350 351
f 349 350 347
f 338 348 345
f 338 336 348
f 343 345 352
f 348 353 345
f 345 353 354
f 348 347 351
f 348 351 353
f 351 355 353
f 353 355 356
f 330 202 357
f 357 202 225
f 357 225 358
f 358 225 226
f 330 357 331
f 357 359 331
f 357 358 359
f 358 226 229
f 358 360 359
f 358 229 230
f 358 231 360
f 360 231 361
f 358 230 231
f 361 231 232
f 361 232 233
f 361 233 234
f 349 331 362
f 362 331 359
f 349 362 350
f 362 359 363
f 362 363 364
f 351 350 365
f 350 364 365
f 362 364 350
f 363 366 367
f 363 367 364
f 364 367 368
f 359 360 363
f 363 360 366
f 360 361 366
f 351 365 355
f 364 368 365
f 365 368 369
f 365 369 355
f 355 369 370
f 368 371 372
f 367 371 368
f 368 372 369
f 369 372 373
f 372 374 375
f 367 366 376
f 367 376 371
f 366 361 377
f 361 235 377
f 361 234 235
f 366 377 376
f 377 378 376
f 377 235 236
f 377 236 379
f 377 379 378
f 379 236 237
f 379 237 238
f 379 238 239
f 376 380 371
f 371 380 374
f 376 378 380
f 371 374 372
f 380 381 374
f 374 381 382
f 380 378 383
f 380 383 381
f 381 383 384
f 379 385 378
f 379 239 385
f 378 385 383
f 383 385 386
f 383 386 384
f 385 239 240
f 385 240 386
f 386 240 241
f 386 241 242
f 325 387 215
f 325 342 387
f 387 216 215
f 387 218 216
f 387 217 218
f 387 388 217
f 389 388 387
f 388 390 250
f 388 391 390
f 388 248 217
f 388 250 248
f 390 251 250
f 390 392 252
f 390 252 251
f 392 253 252
f 393 264 257
f 393 261 264
f 394 262 261
f 395 262 394
f 395 263 262
f 395 249 263
f 395 270 249
f 395 396 270
f 395 397 396
f 396 271 270
f 396 272 271
f 396 398 272
f 398 273 272
f 395 394 397
f 396 397 398
f 399 274 273
f 399 275 274
f 389 342 400
f 341 400 342
f 341 344 400
f 389 400 401
f 400 402 401
f 389 387 342
f 343 352 344
f 344 352 403
f 402 344 403
f 400 344 402
f 389 401 391
f 401 404 391
f 401 405 404
f 404 406 391
f 389 391 388
f 390 391 406
f 402 403 405
f 402 405 401
f 403 407 405
f 404 405 408
f 404 408 409
f 405 407 408
f 352 345 354
f 352 354 410
f 352 410 403
f 354 411 410
f 353 356 354
f 354 356 411
f 356 412 411
f 403 410 407
f 410 413 407
f 410 411 413
f 407 414 408
f 407 413 414
f 413 415 414
f 411 416 413
f 411 412 416
f 413 416 415
f 416 417 415
f 404 409 406
f 406 409 418
f 390 406 392
f 392 406 418
f 392 419 253
f 392 418 419
f 419 254 253
f 419 255 254
f 418 420 419
f 408 414 421
f 409 408 421
f 409 421 422
f 418 409 422
f 421 423 422
f 422 423 424
f 418 422 420
f 419 420 425
f 419 260 255
f 419 425 260
f 425 259 260
f 425 426 259
f 425 420 427
f 422 424 420
f 424 427 420
f 425 428 426
f 425 427 428
f 428 427 429
f 393 257 256
f 426 256 258
f 426 258 259
f 393 394 261
f 393 256 426
f 393 430 394
f 394 430 431
f 393 426 430
f 426 432 430
f 394 431 397
f 397 431 433
f 397 433 434
f 397 434 435
f 397 436 398
f 397 435 436
f 398 436 437
f 428 432 426
f 421 414 438
f 414 415 438
f 421 438 423
f 438 439 423
f 438 415 440
f 415 417 440
f 438 440 439
f 440 441 439
f 424 423 442
f 423 439 442
f 424 442 443
f 424 443 427
f 427 443 429
f 443 444 429
f 442 445 443
f 443 445 444
f 442 439 446
f 442 446 445
f 439 441 446
f 446 447 445
f 444 445 448
f 445 447 448
f 265 175 174
f 449 175 265
f 449 176 175
f 449 177 176
f 449 265 266
f 449 450 177
f 450 178 177
f 450 179 178
f 450 180 179
f 450 451 180
f 450 452 451
f 451 181 180
f 451 453 181
f 453 182 181
f 453 183 182
f 454 184 183
f 453 454 183
f 454 185 184
f 454 186 185
f 454 455 186
f 449 266 267
f 449 267 268
f 449 452 450
f 449 268 456
f 449 456 452
f 456 268 269
f 456 269 457
f 456 458 452
f 456 457 458
f 458 459 460
f 398 399 273
f 399 276 275
f 461 277 276
f 461 278 277
f 398 437 399
f 399 461 276
f 399 437 461
f 437 462 461
f 463 278 461
f 463 279 278
f 463 280 279
f 463 461 464
f 461 462 464
f 463 465 280
f 465 284 280
f 457 269 281
f 457 281 283
f 457 283 282
f 457 282 285
f 465 285 284
f 458 457 459
f 457 285 459
f 459 285 465
f 463 464 465
f 464 466 465
f 452 467 451
f 451 467 453
f 452 458 467
f 467 458 460
f 459 468 460
f 459 469 468
f 465 466 469
f 469 466 470
f 459 465 469
f 468 469 471
f 469 470 471
f 468 471 472
f 470 473 471
f 471 474 472
f 471 473 474
f 467 475 453
f 453 475 454
f 467 460 475
f 475 460 476
f 475 477 454
f 454 477 455
f 475 476 477
f 477 476 478
f 468 476 460
f 468 472 476
f 476 472 478
f 428 429 479
f 430 480 481
f 430 481 431
f 430 482 480
f 430 483 482
f 481 484 431
f 431 485 433
f 431 484 485
f 435 486 436
f 436 487 488
f 436 486 487
f 436 488 437
f 430 432 483
f 428 489 432
f 432 490 491
f 432 491 483
f 432 489 490
f 428 492 489
f 428 479 493
f 428 493 492
f 479 429 494
f 429 495 494
f 429 496 495
f 429 444 496
f 444 497 496
f 496 497 498
f 444 448 497
f 498 497 499
f 497 500 499
f 497 501 500
f 448 502 497
f 497 502 501
f 501 502 503
f 488 504 437
f 437 504 505
f 437 505 506
f 437 506 462
f 462 506 507
f 462 507 508
f 462 508 509
f 464 462 509
f 464 509 510
f 464 510 511
f 464 511 512
f 464 512 466
f 512 513 466
f 513 514 466
f 466 514 515
f 515 516 517
f 466 515 470
f 470 515 517
f 516 518 517
f 470 517 473
f 517 518 519
f 517 519 520
f 517 520 521
f 473 517 522
f 517 521 522
f 356 355 370
f 356 370 412
f 369 373 370
f 370 373 523
f 370 523 412
f 372 375 373
f 373 375 524
f 523 373 524
f 524 375 525
f 412 526 416
f 412 523 526
f 523 527 526
f 416 526 417
f 526 528 417
f 526 527 528
f 523 524 527
f 524 529 527
f 524 525 529
f 527 530 528
f 527 529 530
f 530 529 531
f 374 382 375
f 375 382 525
f 382 532 525
f 382 533 532
f 381 533 382
f 381 384 533
f 384 534 533
f 533 535 532
f 533 534 535
f 384 536 534
f 525 537 529
f 525 532 537
f 532 535 537
f 529 537 531
f 537 538 531
f 538 539 531
f 537 535 538
f 535 540 538
f 534 540 535
f 538 540 541
f 534 542 540
f 540 543 541
f 417 528 544
f 440 417 544
f 528 545 544
f 440 544 441
f 544 546 441
f 544 545 546
f 528 530 545
f 530 547 545
f 545 548 546
f 545 547 548
f 441 546 549
f 446 441 549
f 546 550 549
f 549 550 551
f 446 549 447
f 549 551 447
f 448 447 552
f 447 551 552
f 551 553 552
f 546 548 550
f 548 554 550
f 550 554 555
f 550 555 551
f 551 555 553
f 555 554 556
f 555 557 553
f 555 556 557
f 530 531 547
f 531 539 547
f 539 558 547
f 547 558 548
f 548 558 554
f 539 559 558
f 559 560 558
f 538 541 539
f 539 541 559
f 541 543 561
f 541 561 559
f 559 562 560
f 559 561 562
f 562 561 290
f 562 291 293
f 562 290 291
f 558 560 554
f 554 560 556
f 560 563 556
f 557 556 564
f 563 564 556
f 563 565 564
f 560 562 563
f 562 293 292
f 562 292 563
f 563 292 294
f 563 294 565
f 564 565 566
f 565 294 295
f 565 295 296
f 567 296 297
f 567 299 568
f 565 567 569
f 566 565 569
f 565 296 567
f 569 567 568
f 569 568 570
f 570 568 571
f 570 571 572
f 572 571 573
f 573 571 574
f 575 571 576
f 574 571 575
f 575 576 577
f 455 187 186
f 455 578 187
f 578 188 187
f 578 189 188
f 578 190 189
f 578 579 190
f 579 191 190
f 579 192 191
f 580 198 581
f 580 197 198
f 580 196 197
f 196 303 199
f 580 303 196
f 580 306 303
f 582 193 192
f 579 582 192
f 581 193 582
f 581 195 193
f 581 582 583
f 581 194 195
f 581 198 194
f 584 585 586
f 472 474 585
f 474 586 585
f 473 587 474
f 474 587 586
f 586 587 588
f 584 589 590
f 584 591 589
f 584 586 591
f 586 588 591
f 591 588 592
f 591 592 593
f 591 593 589
f 455 594 578
f 477 594 455
f 578 594 595
f 477 478 594
f 594 478 596
f 594 596 595
f 578 595 579
f 579 595 597
f 595 596 590
f 595 590 597
f 478 585 596
f 472 585 478
f 584 596 585
f 584 590 596
f 590 589 598
f 599 583 598
f 599 598 600
f 580 581 583
f 580 583 599
f 580 599 304
f 580 307 306
f 580 304 307
f 599 305 304
f 599 600 305
f 601 602 603
f 602 604 603
f 598 589 600
f 589 309 600
f 589 593 309
f 593 311 310
f 601 311 593
f 600 309 308
f 600 314 305
f 600 308 315
f 600 315 314
f 593 310 309
f 592 602 593
f 601 593 602
f 576 317 605
f 603 323 313
f 603 318 323
f 605 319 318
f 577 605 603
f 604 577 603
f 601 603 313
f 577 576 605
f 603 605 318
f 601 312 311
f 601 313 312
f 579 597 582
f 582 597 583
f 583 597 598
f 597 590 598
f 384 386 536
f 386 242 536
f 536 242 243
f 536 243 244
f 534 536 542
f 536 245 542
f 536 244 245
f 540 542 543
f 542 287 543
f 542 245 286
f 542 286 287
f 543 287 288
f 543 289 561
f 543 288 289
f 561 289 290
f 567 297 298
f 567 298 299
f 568 299 300
f 606 568 300
f 606 607 571
f 606 300 301
f 606 301 302
f 606 302 320
f 606 320 607
f 607 322 576
f 576 322 317
f 607 320 321
f 607 321 322
f 606 571 568
f 607 576 571
f 605 317 316
f 605 316 319
f 448 552 502
f 502 608 503
f 552 608 502
f 503 608 609
f 552 553 608
f 609 608 610
f 608 611 610
f 608 612 611
f 553 557 613
f 553 613 608
f 608 613 612
f 557 614 613
f 557 615 614
f 557 616 615
f 557 564 616
f 564 617 618
f 564 619 616
f 564 618 619
f 564 566 617
f 617 566 620
f 566 621 620
f 566 622 621
f 566 569 622
f 622 569 623
f 569 624 623
f 569 625 624
f 569 570 625
f 625 570 626
f 627 570 572
f 626 570 627
f 628 574 575
f 629 575 630
f 628 575 629
f 575 577 630
f 631 632 633
f 473 522 587
f 522 521 634
f 522 634 631
f 522 631 587
f 587 631 588
f 634 635 631
f 631 635 632
f 631 633 636
f 592 636 637
f 638 592 637
f 638 639 592
f 588 636 592
f 588 631 636
f 592 639 602
f 602 640 641
f 602 642 640
f 602 639 642
f 604 643 644
f 604 645 643
f 604 644 577
f 641 645 604
f 602 641 604
f 644 646 577
f 577 646 647
f 630 577 647
f 480 648 481
f 482 649 480
f 484 650 485
f 485 650 433
f 481 648 484
f 433 650 434
f 434 650 435
f 435 651 486
f 486 651 487
f 487 651 488
f 488 651 504
f 491 490 652
f 490 489 652
f 482 483 649
f 483 491 649
f 489 492 652
f 492 493 653
f 493 479 653
f 480 649 648
f 484 648 650
f 435 650 651
f 504 651 654
f 491 652 649
f 492 653 652
f 648 655 650
f 649 655 648
f 650 655 651
f 651 655 654
f 479 494 656
f 494 495 656
f 495 496 656
f 496 498 656
f 498 499 657
f 500 657 499
f 500 501 657
f 501 503 658
f 498 657 656
f 501 658 657
f 479 656 653
f 649 652 655
f 652 653 655
f 653 656 655
f 654 655 659
f 656 657 655
f 657 658 655
f 504 654 505
f 505 654 506
f 506 659 507
f 507 659 508
f 508 659 509
f 509 660 510
f 510 660 511
f 511 660 512
f 506 654 659
f 509 659 660
f 512 660 513
f 513 661 514
f 514 661 515
f 515 661 516
f 516 661 518
f 518 662 519
f 519 662 520
f 520 662 521
f 513 660 661
f 518 661 662
f 659 655 660
f 660 655 661
f 661 655 662
f 662 655 663
f 662 663 521
f 503 609 664
f 609 610 664
f 610 611 664
f 611 612 665
f 612 613 665
f 615 665 614
f 613 614 665
f 503 664 658
f 611 665 664
f 615 666 665
f 615 616 666
f 658 664 655
f 664 665 655
f 665 666 655
f 655 666 667
f 655 667 668
f 655 669 670
f 616 619 666
f 619 618 666
f 617 666 618
f 617 620 667
f 621 622 667
f 620 621 667
f 622 623 668
f 623 624 668
f 624 625 671
f 625 626 671
f 626 627 671
f 627 572 671
f 572 573 672
f 573 574 672
f 629 630 673
f 628 629 672
f 628 672 574
f 630 647 673
f 617 667 666
f 622 668 667
f 655 668 671
f 655 671 672
f 655 673 669
f 655 672 673
f 624 671 668
f 572 672 671
f 647 669 673
f 629 673 672
f 632 674 633
f 521 663 634
f 634 674 635
f 635 674 632
f 633 675 636
f 638 637 675
f 636 675 637
f 638 675 639
f 655 674 663
f 655 675 674
f 634 663 674
f 633 674 675
f 639 675 676
f 655 676 675
f 655 670 676
f 639 676 642
f 642 676 640
f 641 640 670
f 641 670 645
f 645 670 643
f 644 669 646
f 643 669 644
f 647 646 669
f 640 676 670
f 643 670 669
