# sionna2 mesh — mavic4pro__motor.obj
# group=motor  verts=1016  tris=2016
v 0.122050 0.166678 0.011213
v 0.117309 0.164953 0.014648
v 0.121305 0.169458 0.011213
v 0.116337 0.168582 0.014648
v 0.121054 0.172325 0.011213
v 0.118897 0.161547 0.014648
v 0.116009 0.172325 0.014648
v 0.121305 0.175192 0.011213
v 0.116337 0.176068 0.014648
v 0.122050 0.177972 0.011213
v 0.117309 0.179698 0.014648
v 0.118897 0.183103 0.014648
v 0.123266 0.180581 0.011213
v 0.137565 0.172325 0.008350
v 0.126643 0.166019 0.008350
v 0.125713 0.168012 0.008350
v 0.125144 0.170135 0.008350
v 0.123266 0.164070 0.011213
v 0.124953 0.172325 0.008350
v 0.127904 0.164218 0.008350
v 0.124917 0.161712 0.011213
v 0.131259 0.161402 0.008350
v 0.129310 0.158026 0.011213
v 0.129458 0.162663 0.008350
v 0.126952 0.159677 0.011213
v 0.137565 0.159713 0.008350
v 0.137565 0.155814 0.011213
v 0.135375 0.159904 0.008350
v 0.139756 0.159904 0.008350
v 0.140433 0.156065 0.011213
v 0.133252 0.160473 0.008350
v 0.141879 0.160473 0.008350
v 0.131918 0.156810 0.011213
v 0.134698 0.156065 0.011213
v 0.125144 0.174515 0.008350
v 0.125713 0.176639 0.008350
v 0.126643 0.178632 0.008350
v 0.127904 0.180432 0.008350
v 0.124917 0.182938 0.011213
v 0.129458 0.181987 0.008350
v 0.126952 0.184973 0.011213
v 0.131259 0.183248 0.008350
v 0.133252 0.184177 0.008350
v 0.135375 0.184746 0.008350
v 0.137565 0.184938 0.008350
v 0.139756 0.184746 0.008350
v 0.141879 0.184177 0.008350
v 0.129310 0.186624 0.011213
v 0.131918 0.187841 0.011213
v 0.134698 0.188585 0.011213
v 0.137565 0.188836 0.011213
v 0.140433 0.188585 0.011213
v 0.143872 0.161402 0.008350
v 0.145673 0.162663 0.008350
v 0.147227 0.164218 0.008350
v 0.148488 0.166019 0.008350
v 0.149417 0.168012 0.008350
v 0.149986 0.170135 0.008350
v 0.143213 0.156810 0.011213
v 0.145821 0.158026 0.011213
v 0.148179 0.159677 0.011213
v 0.150214 0.161712 0.011213
v 0.151864 0.164070 0.011213
v 0.153081 0.166678 0.011213
v 0.153826 0.169458 0.011213
v 0.154076 0.172325 0.011213
v 0.148488 0.178632 0.008350
v 0.149417 0.176639 0.008350
v 0.143872 0.183248 0.008350
v 0.145673 0.181987 0.008350
v 0.147227 0.180432 0.008350
v 0.150178 0.172325 0.008350
v 0.149986 0.174515 0.008350
v 0.148179 0.184973 0.011213
v 0.151864 0.180581 0.011213
v 0.150214 0.182938 0.011213
v 0.143213 0.187841 0.011213
v 0.145821 0.186624 0.011213
v 0.153826 0.175192 0.011213
v 0.153081 0.177972 0.011213
v 0.126787 0.153657 0.014648
v 0.123709 0.155812 0.014648
v 0.130193 0.152069 0.014648
v 0.121053 0.158469 0.014648
v 0.133822 0.151097 0.014648
v 0.137565 0.150769 0.014648
v 0.141309 0.151097 0.014648
v 0.121053 0.186181 0.014648
v 0.123709 0.188838 0.014648
v 0.126787 0.190993 0.014648
v 0.130193 0.192581 0.014648
v 0.133822 0.193554 0.014648
v 0.137565 0.193881 0.014648
v 0.141309 0.193554 0.014648
v 0.144938 0.152069 0.014648
v 0.148343 0.153657 0.014648
v 0.151421 0.155812 0.014648
v 0.154078 0.158469 0.014648
v 0.156234 0.161547 0.014648
v 0.157822 0.164953 0.014648
v 0.158794 0.168582 0.014648
v 0.159122 0.172325 0.014648
v 0.144938 0.192581 0.014648
v 0.148343 0.190993 0.014648
v 0.151421 0.188838 0.014648
v 0.157822 0.179698 0.014648
v 0.156234 0.183103 0.014648
v 0.158794 0.176068 0.014648
v 0.154078 0.186181 0.014648
v 0.119999 0.157585 0.024095
v 0.117706 0.160859 0.024095
v 0.116016 0.164482 0.024095
v 0.114982 0.168343 0.024095
v 0.114633 0.172325 0.024095
v 0.114982 0.176307 0.024095
v 0.116016 0.180168 0.024095
v 0.117706 0.183791 0.024095
v 0.119999 0.187066 0.024095
v 0.122825 0.154758 0.024095
v 0.129722 0.150776 0.024095
v 0.126099 0.152466 0.024095
v 0.133583 0.149742 0.024095
v 0.137565 0.149393 0.024095
v 0.141548 0.149742 0.024095
v 0.122825 0.189892 0.024095
v 0.126099 0.192185 0.024095
v 0.129722 0.193874 0.024095
v 0.133583 0.194909 0.024095
v 0.137565 0.195257 0.024095
v 0.145409 0.150776 0.024095
v 0.149031 0.152466 0.024095
v 0.152306 0.154758 0.024095
v 0.155132 0.157585 0.024095
v 0.157425 0.160859 0.024095
v 0.159114 0.164482 0.024095
v 0.160149 0.168343 0.024095
v 0.141548 0.194909 0.024095
v 0.145409 0.193874 0.024095
v 0.149031 0.192185 0.024095
v 0.160497 0.172325 0.024095
v 0.160149 0.176307 0.024095
v 0.157425 0.183791 0.024095
v 0.159114 0.180168 0.024095
v 0.152306 0.189892 0.024095
v 0.155132 0.187066 0.024095
v 0.115885 0.168502 0.031824
v 0.118500 0.161318 0.031824
v 0.120701 0.158174 0.031824
v 0.116878 0.164796 0.031824
v 0.115551 0.172325 0.031824
v 0.115885 0.176148 0.031824
v 0.116878 0.179855 0.031824
v 0.118500 0.183333 0.031824
v 0.120701 0.186476 0.031824
v 0.123415 0.155461 0.031824
v 0.126558 0.153260 0.031824
v 0.130036 0.151638 0.031824
v 0.133743 0.150645 0.031824
v 0.137565 0.150311 0.031824
v 0.141388 0.150645 0.031824
v 0.123415 0.189190 0.031824
v 0.126558 0.191391 0.031824
v 0.130036 0.193012 0.031824
v 0.133743 0.194006 0.031824
v 0.137565 0.194340 0.031824
v 0.141388 0.194006 0.031824
v 0.145095 0.151638 0.031824
v 0.148573 0.153260 0.031824
v 0.151716 0.155461 0.031824
v 0.154430 0.158174 0.031824
v 0.156631 0.161318 0.031824
v 0.158253 0.164796 0.031824
v 0.159246 0.168502 0.031824
v 0.159580 0.172325 0.031824
v 0.145095 0.193012 0.031824
v 0.148573 0.191391 0.031824
v 0.159246 0.176148 0.031824
v 0.156631 0.183333 0.031824
v 0.158253 0.179855 0.031824
v 0.151716 0.189190 0.031824
v 0.154430 0.186476 0.031824
v 0.121678 0.163152 0.035546
v 0.120326 0.166051 0.035546
v 0.119499 0.169140 0.035546
v 0.119220 0.172325 0.035546
v 0.119499 0.175511 0.035546
v 0.120326 0.178600 0.035546
v 0.121678 0.181498 0.035546
v 0.125773 0.158272 0.035546
v 0.128393 0.156438 0.035546
v 0.131291 0.155086 0.035546
v 0.123512 0.160533 0.035546
v 0.134380 0.154258 0.035546
v 0.137565 0.153980 0.035546
v 0.140751 0.154258 0.035546
v 0.123512 0.184118 0.035546
v 0.125773 0.186379 0.035546
v 0.128393 0.188213 0.035546
v 0.131291 0.189564 0.035546
v 0.134380 0.190392 0.035546
v 0.137565 0.190671 0.035546
v 0.143840 0.155086 0.035546
v 0.146738 0.156438 0.035546
v 0.149358 0.158272 0.035546
v 0.151619 0.160533 0.035546
v 0.153453 0.163152 0.035546
v 0.154805 0.166051 0.035546
v 0.155632 0.169140 0.035546
v 0.140751 0.190392 0.035546
v 0.143840 0.189564 0.035546
v 0.146738 0.188213 0.035546
v 0.155911 0.172325 0.035546
v 0.155632 0.175511 0.035546
v 0.154805 0.178600 0.035546
v 0.153453 0.181498 0.035546
v 0.149358 0.186379 0.035546
v 0.151619 0.184118 0.035546
v 0.130187 0.166134 0.036977
v 0.128515 0.169031 0.036977
v 0.128080 0.170653 0.036977
v 0.129224 0.167510 0.036977
v 0.131374 0.164947 0.036977
v 0.132750 0.163984 0.036977
v 0.134271 0.163275 0.036977
v 0.135893 0.162840 0.036977
v 0.137565 0.162694 0.036977
v 0.139238 0.162840 0.036977
v 0.137565 0.172325 0.036977
v 0.140860 0.163275 0.036977
v 0.142381 0.163984 0.036977
v 0.127934 0.172325 0.036977
v 0.128080 0.173998 0.036977
v 0.128515 0.175619 0.036977
v 0.129224 0.177141 0.036977
v 0.130187 0.178516 0.036977
v 0.131374 0.179703 0.036977
v 0.132750 0.180666 0.036977
v 0.134271 0.181376 0.036977
v 0.135893 0.181810 0.036977
v 0.137565 0.181957 0.036977
v 0.139238 0.181810 0.036977
v 0.142381 0.180666 0.036977
v 0.140860 0.181376 0.036977
v 0.143756 0.164947 0.036977
v 0.144944 0.166134 0.036977
v 0.145907 0.167510 0.036977
v 0.146616 0.169031 0.036977
v 0.147051 0.170653 0.036977
v 0.147197 0.172325 0.036977
v 0.144944 0.178516 0.036977
v 0.143756 0.179703 0.036977
v 0.145907 0.177141 0.036977
v 0.147051 0.173998 0.036977
v 0.146616 0.175619 0.036977
v -0.149417 0.168012 0.008350
v -0.153081 0.166678 0.011213
v -0.149986 0.170135 0.008350
v -0.153826 0.169458 0.011213
v -0.150178 0.172325 0.008350
v -0.137565 0.172325 0.008350
v -0.141879 0.160473 0.008350
v -0.143872 0.161402 0.008350
v -0.147227 0.164218 0.008350
v -0.148488 0.166019 0.008350
v -0.145673 0.162663 0.008350
v -0.150214 0.161712 0.011213
v -0.148179 0.159677 0.011213
v -0.151864 0.164070 0.011213
v -0.145821 0.158026 0.011213
v -0.143213 0.156810 0.011213
v -0.139756 0.159904 0.008350
v -0.140433 0.156065 0.011213
v -0.154076 0.172325 0.011213
v -0.149986 0.174515 0.008350
v -0.153826 0.175192 0.011213
v -0.149417 0.176639 0.008350
v -0.148488 0.178632 0.008350
v -0.147227 0.180432 0.008350
v -0.145673 0.181987 0.008350
v -0.143872 0.183248 0.008350
v -0.141879 0.184177 0.008350
v -0.153081 0.177972 0.011213
v -0.151864 0.180581 0.011213
v -0.150214 0.182938 0.011213
v -0.148179 0.184973 0.011213
v -0.145821 0.186624 0.011213
v -0.143213 0.187841 0.011213
v -0.139756 0.184746 0.008350
v -0.140433 0.188585 0.011213
v -0.137565 0.159713 0.008350
v -0.137565 0.155814 0.011213
v -0.135375 0.159904 0.008350
v -0.134698 0.156065 0.011213
v -0.133252 0.160473 0.008350
v -0.131259 0.161402 0.008350
v -0.129458 0.162663 0.008350
v -0.127904 0.164218 0.008350
v -0.126643 0.166019 0.008350
v -0.131918 0.156810 0.011213
v -0.129310 0.158026 0.011213
v -0.125713 0.168012 0.008350
v -0.125144 0.170135 0.008350
v -0.126952 0.159677 0.011213
v -0.124917 0.161712 0.011213
v -0.123266 0.164070 0.011213
v -0.122050 0.166678 0.011213
v -0.121305 0.169458 0.011213
v -0.121054 0.172325 0.011213
v -0.137565 0.184938 0.008350
v -0.135375 0.184746 0.008350
v -0.133252 0.184177 0.008350
v -0.131259 0.183248 0.008350
v -0.129458 0.181987 0.008350
v -0.127904 0.180432 0.008350
v -0.126643 0.178632 0.008350
v -0.137565 0.188836 0.011213
v -0.134698 0.188585 0.011213
v -0.131918 0.187841 0.011213
v -0.124953 0.172325 0.008350
v -0.125144 0.174515 0.008350
v -0.125713 0.176639 0.008350
v -0.126952 0.184973 0.011213
v -0.124917 0.182938 0.011213
v -0.122050 0.177972 0.011213
v -0.121305 0.175192 0.011213
v -0.123266 0.180581 0.011213
v -0.129310 0.186624 0.011213
v -0.158794 0.168582 0.014648
v -0.156234 0.161547 0.014648
v -0.154078 0.158469 0.014648
v -0.157822 0.164953 0.014648
v -0.151421 0.155812 0.014648
v -0.148343 0.153657 0.014648
v -0.144938 0.152069 0.014648
v -0.141309 0.151097 0.014648
v -0.159122 0.172325 0.014648
v -0.158794 0.176068 0.014648
v -0.157822 0.179698 0.014648
v -0.156234 0.183103 0.014648
v -0.154078 0.186181 0.014648
v -0.151421 0.188838 0.014648
v -0.148343 0.190993 0.014648
v -0.144938 0.192581 0.014648
v -0.141309 0.193554 0.014648
v -0.137565 0.150769 0.014648
v -0.133822 0.151097 0.014648
v -0.130193 0.152069 0.014648
v -0.126787 0.153657 0.014648
v -0.123709 0.155812 0.014648
v -0.121053 0.158469 0.014648
v -0.118897 0.161547 0.014648
v -0.117309 0.164953 0.014648
v -0.137565 0.193881 0.014648
v -0.130193 0.192581 0.014648
v -0.133822 0.193554 0.014648
v -0.118897 0.183103 0.014648
v -0.126787 0.190993 0.014648
v -0.123709 0.188838 0.014648
v -0.121053 0.186181 0.014648
v -0.116337 0.168582 0.014648
v -0.116009 0.172325 0.014648
v -0.116337 0.176068 0.014648
v -0.117309 0.179698 0.014648
v -0.152306 0.154758 0.024095
v -0.157425 0.160859 0.024095
v -0.159114 0.164482 0.024095
v -0.160149 0.168343 0.024095
v -0.155132 0.157585 0.024095
v -0.145409 0.150776 0.024095
v -0.149031 0.152466 0.024095
v -0.141548 0.149742 0.024095
v -0.160497 0.172325 0.024095
v -0.160149 0.176307 0.024095
v -0.159114 0.180168 0.024095
v -0.157425 0.183791 0.024095
v -0.155132 0.187066 0.024095
v -0.152306 0.189892 0.024095
v -0.149031 0.192185 0.024095
v -0.145409 0.193874 0.024095
v -0.137565 0.149393 0.024095
v -0.133583 0.149742 0.024095
v -0.129722 0.150776 0.024095
v -0.126099 0.152466 0.024095
v -0.122825 0.154758 0.024095
v -0.119999 0.157585 0.024095
v -0.141548 0.194909 0.024095
v -0.137565 0.195257 0.024095
v -0.133583 0.194909 0.024095
v -0.129722 0.193874 0.024095
v -0.126099 0.192185 0.024095
v -0.122825 0.189892 0.024095
v -0.119999 0.187066 0.024095
v -0.117706 0.160859 0.024095
v -0.116016 0.164482 0.024095
v -0.114982 0.168343 0.024095
v -0.114633 0.172325 0.024095
v -0.114982 0.176307 0.024095
v -0.117706 0.183791 0.024095
v -0.116016 0.180168 0.024095
v -0.151716 0.155461 0.031824
v -0.154430 0.158174 0.031824
v -0.156631 0.161318 0.031824
v -0.158253 0.164796 0.031824
v -0.159246 0.168502 0.031824
v -0.145095 0.151638 0.031824
v -0.148573 0.153260 0.031824
v -0.141388 0.150645 0.031824
v -0.159580 0.172325 0.031824
v -0.159246 0.176148 0.031824
v -0.158253 0.179855 0.031824
v -0.156631 0.183333 0.031824
v -0.154430 0.186476 0.031824
v -0.151716 0.189190 0.031824
v -0.148573 0.191391 0.031824
v -0.145095 0.193012 0.031824
v -0.141388 0.194006 0.031824
v -0.137565 0.150311 0.031824
v -0.133743 0.150645 0.031824
v -0.130036 0.151638 0.031824
v -0.126558 0.153260 0.031824
v -0.123415 0.155461 0.031824
v -0.120701 0.158174 0.031824
v -0.137565 0.194340 0.031824
v -0.133743 0.194006 0.031824
v -0.130036 0.193012 0.031824
v -0.123415 0.189190 0.031824
v -0.126558 0.191391 0.031824
v -0.120701 0.186476 0.031824
v -0.118500 0.161318 0.031824
v -0.116878 0.164796 0.031824
v -0.115885 0.168502 0.031824
v -0.115551 0.172325 0.031824
v -0.116878 0.179855 0.031824
v -0.118500 0.183333 0.031824
v -0.115885 0.176148 0.031824
v -0.149358 0.158272 0.035546
v -0.153453 0.163152 0.035546
v -0.155632 0.169140 0.035546
v -0.154805 0.166051 0.035546
v -0.151619 0.160533 0.035546
v -0.146738 0.156438 0.035546
v -0.143840 0.155086 0.035546
v -0.140751 0.154258 0.035546
v -0.155911 0.172325 0.035546
v -0.155632 0.175511 0.035546
v -0.154805 0.178600 0.035546
v -0.153453 0.181498 0.035546
v -0.151619 0.184118 0.035546
v -0.149358 0.186379 0.035546
v -0.146738 0.188213 0.035546
v -0.143840 0.189564 0.035546
v -0.137565 0.153980 0.035546
v -0.134380 0.154258 0.035546
v -0.131291 0.155086 0.035546
v -0.128393 0.156438 0.035546
v -0.125773 0.158272 0.035546
v -0.123512 0.160533 0.035546
v -0.140751 0.190392 0.035546
v -0.137565 0.190671 0.035546
v -0.134380 0.190392 0.035546
v -0.131291 0.189564 0.035546
v -0.128393 0.188213 0.035546
v -0.125773 0.186379 0.035546
v -0.123512 0.184118 0.035546
v -0.145907 0.167510 0.036977
v -0.146616 0.169031 0.036977
v -0.147051 0.170653 0.036977
v -0.140860 0.163275 0.036977
v -0.139238 0.162840 0.036977
v -0.143756 0.164947 0.036977
v -0.144944 0.166134 0.036977
v -0.142381 0.163984 0.036977
v -0.137565 0.172325 0.036977
v -0.147197 0.172325 0.036977
v -0.147051 0.173998 0.036977
v -0.146616 0.175619 0.036977
v -0.145907 0.177141 0.036977
v -0.144944 0.178516 0.036977
v -0.143756 0.179703 0.036977
v -0.142381 0.180666 0.036977
v -0.140860 0.181376 0.036977
v -0.121678 0.163152 0.035546
v -0.137565 0.162694 0.036977
v -0.135893 0.162840 0.036977
v -0.134271 0.163275 0.036977
v -0.132750 0.163984 0.036977
v -0.131374 0.164947 0.036977
v -0.130187 0.166134 0.036977
v -0.129224 0.167510 0.036977
v -0.128515 0.169031 0.036977
v -0.128080 0.170653 0.036977
v -0.120326 0.166051 0.035546
v -0.119499 0.169140 0.035546
v -0.127934 0.172325 0.036977
v -0.121678 0.181498 0.035546
v -0.139238 0.181810 0.036977
v -0.137565 0.181957 0.036977
v -0.135893 0.181810 0.036977
v -0.134271 0.181376 0.036977
v -0.130187 0.178516 0.036977
v -0.131374 0.179703 0.036977
v -0.128080 0.173998 0.036977
v -0.128515 0.175619 0.036977
v -0.129224 0.177141 0.036977
v -0.132750 0.180666 0.036977
v -0.119220 0.172325 0.035546
v -0.119499 0.175511 0.035546
v -0.120326 0.178600 0.035546
v -0.149417 -0.176639 0.008350
v -0.153081 -0.177972 0.011213
v -0.149986 -0.174515 0.008350
v -0.153826 -0.175192 0.011213
v -0.150178 -0.172325 0.008350
v -0.154076 -0.172325 0.011213
v -0.149986 -0.170135 0.008350
v -0.143872 -0.183248 0.008350
v -0.145821 -0.186624 0.011213
v -0.145673 -0.181987 0.008350
v -0.141879 -0.184177 0.008350
v -0.143213 -0.187841 0.011213
v -0.139756 -0.184746 0.008350
v -0.140433 -0.188585 0.011213
v -0.137565 -0.172325 0.008350
v -0.147227 -0.180432 0.008350
v -0.148488 -0.178632 0.008350
v -0.150214 -0.182938 0.011213
v -0.151864 -0.180581 0.011213
v -0.148179 -0.184973 0.011213
v -0.153826 -0.169458 0.011213
v -0.149417 -0.168012 0.008350
v -0.148488 -0.166019 0.008350
v -0.147227 -0.164218 0.008350
v -0.145673 -0.162663 0.008350
v -0.143872 -0.161402 0.008350
v -0.141879 -0.160473 0.008350
v -0.153081 -0.166678 0.011213
v -0.151864 -0.164070 0.011213
v -0.150214 -0.161712 0.011213
v -0.148179 -0.159677 0.011213
v -0.145821 -0.158026 0.011213
v -0.143213 -0.156810 0.011213
v -0.139756 -0.159904 0.008350
v -0.140433 -0.156065 0.011213
v -0.137565 -0.184938 0.008350
v -0.137565 -0.188836 0.011213
v -0.135375 -0.184746 0.008350
v -0.134698 -0.188585 0.011213
v -0.133252 -0.184177 0.008350
v -0.131918 -0.187841 0.011213
v -0.131259 -0.183248 0.008350
v -0.129310 -0.186624 0.011213
v -0.129458 -0.181987 0.008350
v -0.127904 -0.180432 0.008350
v -0.126643 -0.178632 0.008350
v -0.126952 -0.184973 0.011213
v -0.125713 -0.176639 0.008350
v -0.125144 -0.174515 0.008350
v -0.124953 -0.172325 0.008350
v -0.125144 -0.170135 0.008350
v -0.124917 -0.182938 0.011213
v -0.123266 -0.180581 0.011213
v -0.122050 -0.177972 0.011213
v -0.121305 -0.175192 0.011213
v -0.121054 -0.172325 0.011213
v -0.121305 -0.169458 0.011213
v -0.137565 -0.159713 0.008350
v -0.135375 -0.159904 0.008350
v -0.131259 -0.161402 0.008350
v -0.129458 -0.162663 0.008350
v -0.127904 -0.164218 0.008350
v -0.126643 -0.166019 0.008350
v -0.133252 -0.160473 0.008350
v -0.134698 -0.156065 0.011213
v -0.131918 -0.156810 0.011213
v -0.137565 -0.155814 0.011213
v -0.125713 -0.168012 0.008350
v -0.126952 -0.159677 0.011213
v -0.129310 -0.158026 0.011213
v -0.124917 -0.161712 0.011213
v -0.122050 -0.166678 0.011213
v -0.123266 -0.164070 0.011213
v -0.154078 -0.186181 0.014648
v -0.156234 -0.183103 0.014648
v -0.151421 -0.188838 0.014648
v -0.158794 -0.176068 0.014648
v -0.159122 -0.172325 0.014648
v -0.157822 -0.179698 0.014648
v -0.148343 -0.190993 0.014648
v -0.141309 -0.193554 0.014648
v -0.144938 -0.192581 0.014648
v -0.158794 -0.168582 0.014648
v -0.157822 -0.164953 0.014648
v -0.156234 -0.161547 0.014648
v -0.154078 -0.158469 0.014648
v -0.151421 -0.155812 0.014648
v -0.148343 -0.153657 0.014648
v -0.144938 -0.152069 0.014648
v -0.141309 -0.151097 0.014648
v -0.137565 -0.193881 0.014648
v -0.133822 -0.193554 0.014648
v -0.130193 -0.192581 0.014648
v -0.126787 -0.190993 0.014648
v -0.123709 -0.188838 0.014648
v -0.121053 -0.186181 0.014648
v -0.118897 -0.183103 0.014648
v -0.117309 -0.179698 0.014648
v -0.137565 -0.150769 0.014648
v -0.133822 -0.151097 0.014648
v -0.130193 -0.152069 0.014648
v -0.123709 -0.155812 0.014648
v -0.121053 -0.158469 0.014648
v -0.118897 -0.161547 0.014648
v -0.126787 -0.153657 0.014648
v -0.116337 -0.176068 0.014648
v -0.116009 -0.172325 0.014648
v -0.116337 -0.168582 0.014648
v -0.117309 -0.164953 0.014648
v -0.155132 -0.187066 0.024095
v -0.152306 -0.189892 0.024095
v -0.159114 -0.180168 0.024095
v -0.157425 -0.183791 0.024095
v -0.160149 -0.176307 0.024095
v -0.160497 -0.172325 0.024095
v -0.149031 -0.192185 0.024095
v -0.145409 -0.193874 0.024095
v -0.141548 -0.194909 0.024095
v -0.160149 -0.168343 0.024095
v -0.159114 -0.164482 0.024095
v -0.157425 -0.160859 0.024095
v -0.155132 -0.157585 0.024095
v -0.152306 -0.154758 0.024095
v -0.149031 -0.152466 0.024095
v -0.145409 -0.150776 0.024095
v -0.137565 -0.195257 0.024095
v -0.133583 -0.194909 0.024095
v -0.129722 -0.193874 0.024095
v -0.126099 -0.192185 0.024095
v -0.122825 -0.189892 0.024095
v -0.119999 -0.187066 0.024095
v -0.141548 -0.149742 0.024095
v -0.137565 -0.149393 0.024095
v -0.133583 -0.149742 0.024095
v -0.126099 -0.152466 0.024095
v -0.129722 -0.150776 0.024095
v -0.122825 -0.154758 0.024095
v -0.119999 -0.157585 0.024095
v -0.117706 -0.183791 0.024095
v -0.116016 -0.180168 0.024095
v -0.114982 -0.176307 0.024095
v -0.114633 -0.172325 0.024095
v -0.114982 -0.168343 0.024095
v -0.116016 -0.164482 0.024095
v -0.117706 -0.160859 0.024095
v -0.154430 -0.186476 0.031824
v -0.151716 -0.189190 0.031824
v -0.158253 -0.179855 0.031824
v -0.156631 -0.183333 0.031824
v -0.159246 -0.176148 0.031824
v -0.159580 -0.172325 0.031824
v -0.148573 -0.191391 0.031824
v -0.145095 -0.193012 0.031824
v -0.141388 -0.194006 0.031824
v -0.159246 -0.168502 0.031824
v -0.158253 -0.164796 0.031824
v -0.156631 -0.161318 0.031824
v -0.154430 -0.158174 0.031824
v -0.151716 -0.155461 0.031824
v -0.148573 -0.153260 0.031824
v -0.145095 -0.151638 0.031824
v -0.141388 -0.150645 0.031824
v -0.137565 -0.194340 0.031824
v -0.133743 -0.194006 0.031824
v -0.130036 -0.193012 0.031824
v -0.126558 -0.191391 0.031824
v -0.123415 -0.189190 0.031824
v -0.120701 -0.186476 0.031824
v -0.137565 -0.150311 0.031824
v -0.133743 -0.150645 0.031824
v -0.130036 -0.151638 0.031824
v -0.126558 -0.153260 0.031824
v -0.123415 -0.155461 0.031824
v -0.120701 -0.158174 0.031824
v -0.118500 -0.183333 0.031824
v -0.116878 -0.179855 0.031824
v -0.115885 -0.176148 0.031824
v -0.115551 -0.172325 0.031824
v -0.115885 -0.168502 0.031824
v -0.116878 -0.164796 0.031824
v -0.118500 -0.161318 0.031824
v -0.151619 -0.184118 0.035546
v -0.149358 -0.186379 0.035546
v -0.153453 -0.181498 0.035546
v -0.154805 -0.178600 0.035546
v -0.155632 -0.175511 0.035546
v -0.155911 -0.172325 0.035546
v -0.146738 -0.188213 0.035546
v -0.143840 -0.189564 0.035546
v -0.140751 -0.190392 0.035546
v -0.155632 -0.169140 0.035546
v -0.154805 -0.166051 0.035546
v -0.153453 -0.163152 0.035546
v -0.151619 -0.160533 0.035546
v -0.149358 -0.158272 0.035546
v -0.146738 -0.156438 0.035546
v -0.143840 -0.155086 0.035546
v -0.137565 -0.190671 0.035546
v -0.134380 -0.190392 0.035546
v -0.131291 -0.189564 0.035546
v -0.128393 -0.188213 0.035546
v -0.125773 -0.186379 0.035546
v -0.123512 -0.184118 0.035546
v -0.140751 -0.154258 0.035546
v -0.137565 -0.153980 0.035546
v -0.134380 -0.154258 0.035546
v -0.123512 -0.160533 0.035546
v -0.131291 -0.155086 0.035546
v -0.128393 -0.156438 0.035546
v -0.125773 -0.158272 0.035546
v -0.145907 -0.177141 0.036977
v -0.146616 -0.175619 0.036977
v -0.147051 -0.173998 0.036977
v -0.147197 -0.172325 0.036977
v -0.143756 -0.179703 0.036977
v -0.142381 -0.180666 0.036977
v -0.140860 -0.181376 0.036977
v -0.139238 -0.181810 0.036977
v -0.144944 -0.178516 0.036977
v -0.137565 -0.172325 0.036977
v -0.147051 -0.170653 0.036977
v -0.146616 -0.169031 0.036977
v -0.145907 -0.167510 0.036977
v -0.144944 -0.166134 0.036977
v -0.143756 -0.164947 0.036977
v -0.142381 -0.163984 0.036977
v -0.140860 -0.163275 0.036977
v -0.121678 -0.181498 0.035546
v -0.137565 -0.181957 0.036977
v -0.135893 -0.181810 0.036977
v -0.134271 -0.181376 0.036977
v -0.132750 -0.180666 0.036977
v -0.131374 -0.179703 0.036977
v -0.130187 -0.178516 0.036977
v -0.129224 -0.177141 0.036977
v -0.128515 -0.175619 0.036977
v -0.128080 -0.173998 0.036977
v -0.127934 -0.172325 0.036977
v -0.128080 -0.170653 0.036977
v -0.120326 -0.178600 0.035546
v -0.119499 -0.175511 0.035546
v -0.119220 -0.172325 0.035546
v -0.121678 -0.163152 0.035546
v -0.139238 -0.162840 0.036977
v -0.137565 -0.162694 0.036977
v -0.135893 -0.162840 0.036977
v -0.134271 -0.163275 0.036977
v -0.130187 -0.166134 0.036977
v -0.131374 -0.164947 0.036977
v -0.132750 -0.163984 0.036977
v -0.128515 -0.169031 0.036977
v -0.129224 -0.167510 0.036977
v -0.120326 -0.166051 0.035546
v -0.119499 -0.169140 0.035546
v 0.122050 -0.177972 0.011213
v 0.117309 -0.179698 0.014648
v 0.121305 -0.175192 0.011213
v 0.116337 -0.176068 0.014648
v 0.121054 -0.172325 0.011213
v 0.116009 -0.172325 0.014648
v 0.121305 -0.169458 0.011213
v 0.118897 -0.183103 0.014648
v 0.116337 -0.168582 0.014648
v 0.122050 -0.166678 0.011213
v 0.117309 -0.164953 0.014648
v 0.118897 -0.161547 0.014648
v 0.123266 -0.164070 0.011213
v 0.131259 -0.183248 0.008350
v 0.129310 -0.186624 0.011213
v 0.129458 -0.181987 0.008350
v 0.137565 -0.172325 0.008350
v 0.126643 -0.178632 0.008350
v 0.125713 -0.176639 0.008350
v 0.125144 -0.174515 0.008350
v 0.124953 -0.172325 0.008350
v 0.125144 -0.170135 0.008350
v 0.123266 -0.180581 0.011213
v 0.127904 -0.180432 0.008350
v 0.124917 -0.182938 0.011213
v 0.126952 -0.184973 0.011213
v 0.133252 -0.184177 0.008350
v 0.131918 -0.187841 0.011213
v 0.135375 -0.184746 0.008350
v 0.134698 -0.188585 0.011213
v 0.137565 -0.184938 0.008350
v 0.137565 -0.188836 0.011213
v 0.139756 -0.184746 0.008350
v 0.140433 -0.188585 0.011213
v 0.141879 -0.184177 0.008350
v 0.125713 -0.168012 0.008350
v 0.126643 -0.166019 0.008350
v 0.127904 -0.164218 0.008350
v 0.124917 -0.161712 0.011213
v 0.129458 -0.162663 0.008350
v 0.126952 -0.159677 0.011213
v 0.131259 -0.161402 0.008350
v 0.133252 -0.160473 0.008350
v 0.135375 -0.159904 0.008350
v 0.137565 -0.159713 0.008350
v 0.139756 -0.159904 0.008350
v 0.141879 -0.160473 0.008350
v 0.129310 -0.158026 0.011213
v 0.131918 -0.156810 0.011213
v 0.134698 -0.156065 0.011213
v 0.137565 -0.155814 0.011213
v 0.140433 -0.156065 0.011213
v 0.143213 -0.187841 0.011213
v 0.143872 -0.183248 0.008350
v 0.145821 -0.186624 0.011213
v 0.145673 -0.181987 0.008350
v 0.148179 -0.184973 0.011213
v 0.147227 -0.180432 0.008350
v 0.148488 -0.178632 0.008350
v 0.149417 -0.176639 0.008350
v 0.149986 -0.174515 0.008350
v 0.150178 -0.172325 0.008350
v 0.149986 -0.170135 0.008350
v 0.150214 -0.182938 0.011213
v 0.151864 -0.180581 0.011213
v 0.153081 -0.177972 0.011213
v 0.153826 -0.175192 0.011213
v 0.154076 -0.172325 0.011213
v 0.153826 -0.169458 0.011213
v 0.143872 -0.161402 0.008350
v 0.145673 -0.162663 0.008350
v 0.148488 -0.166019 0.008350
v 0.149417 -0.168012 0.008350
v 0.147227 -0.164218 0.008350
v 0.143213 -0.156810 0.011213
v 0.145821 -0.158026 0.011213
v 0.151864 -0.164070 0.011213
v 0.148179 -0.159677 0.011213
v 0.150214 -0.161712 0.011213
v 0.153081 -0.166678 0.011213
v 0.121053 -0.186181 0.014648
v 0.123709 -0.188838 0.014648
v 0.126787 -0.190993 0.014648
v 0.130193 -0.192581 0.014648
v 0.133822 -0.193554 0.014648
v 0.137565 -0.193881 0.014648
v 0.141309 -0.193554 0.014648
v 0.121053 -0.158469 0.014648
v 0.123709 -0.155812 0.014648
v 0.126787 -0.153657 0.014648
v 0.130193 -0.152069 0.014648
v 0.133822 -0.151097 0.014648
v 0.137565 -0.150769 0.014648
v 0.141309 -0.151097 0.014648
v 0.144938 -0.192581 0.014648
v 0.148343 -0.190993 0.014648
v 0.151421 -0.188838 0.014648
v 0.154078 -0.186181 0.014648
v 0.156234 -0.183103 0.014648
v 0.157822 -0.179698 0.014648
v 0.158794 -0.176068 0.014648
v 0.159122 -0.172325 0.014648
v 0.158794 -0.168582 0.014648
v 0.151421 -0.155812 0.014648
v 0.144938 -0.152069 0.014648
v 0.148343 -0.153657 0.014648
v 0.157822 -0.164953 0.014648
v 0.154078 -0.158469 0.014648
v 0.156234 -0.161547 0.014648
v 0.119999 -0.187066 0.024095
v 0.116016 -0.180168 0.024095
v 0.117706 -0.183791 0.024095
v 0.114982 -0.176307 0.024095
v 0.114633 -0.172325 0.024095
v 0.114982 -0.168343 0.024095
v 0.116016 -0.164482 0.024095
v 0.117706 -0.160859 0.024095
v 0.119999 -0.157585 0.024095
v 0.122825 -0.189892 0.024095
v 0.126099 -0.192185 0.024095
v 0.129722 -0.193874 0.024095
v 0.133583 -0.194909 0.024095
v 0.137565 -0.195257 0.024095
v 0.141548 -0.194909 0.024095
v 0.122825 -0.154758 0.024095
v 0.126099 -0.152466 0.024095
v 0.129722 -0.150776 0.024095
v 0.133583 -0.149742 0.024095
v 0.137565 -0.149393 0.024095
v 0.145409 -0.193874 0.024095
v 0.149031 -0.192185 0.024095
v 0.152306 -0.189892 0.024095
v 0.155132 -0.187066 0.024095
v 0.157425 -0.183791 0.024095
v 0.159114 -0.180168 0.024095
v 0.160149 -0.176307 0.024095
v 0.160497 -0.172325 0.024095
v 0.141548 -0.149742 0.024095
v 0.149031 -0.152466 0.024095
v 0.145409 -0.150776 0.024095
v 0.155132 -0.157585 0.024095
v 0.160149 -0.168343 0.024095
v 0.159114 -0.164482 0.024095
v 0.157425 -0.160859 0.024095
v 0.152306 -0.154758 0.024095
v 0.120701 -0.186476 0.031824
v 0.115885 -0.176148 0.031824
v 0.115551 -0.172325 0.031824
v 0.118500 -0.183333 0.031824
v 0.116878 -0.179855 0.031824
v 0.115885 -0.168502 0.031824
v 0.116878 -0.164796 0.031824
v 0.118500 -0.161318 0.031824
v 0.120701 -0.158174 0.031824
v 0.126558 -0.191391 0.031824
v 0.123415 -0.189190 0.031824
v 0.130036 -0.193012 0.031824
v 0.133743 -0.194006 0.031824
v 0.137565 -0.194340 0.031824
v 0.141388 -0.194006 0.031824
v 0.123415 -0.155461 0.031824
v 0.126558 -0.153260 0.031824
v 0.130036 -0.151638 0.031824
v 0.133743 -0.150645 0.031824
v 0.137565 -0.150311 0.031824
v 0.141388 -0.150645 0.031824
v 0.145095 -0.193012 0.031824
v 0.148573 -0.191391 0.031824
v 0.151716 -0.189190 0.031824
v 0.154430 -0.186476 0.031824
v 0.156631 -0.183333 0.031824
v 0.158253 -0.179855 0.031824
v 0.159246 -0.176148 0.031824
v 0.159580 -0.172325 0.031824
v 0.159246 -0.168502 0.031824
v 0.148573 -0.153260 0.031824
v 0.145095 -0.151638 0.031824
v 0.158253 -0.164796 0.031824
v 0.156631 -0.161318 0.031824
v 0.154430 -0.158174 0.031824
v 0.151716 -0.155461 0.031824
v 0.120326 -0.178600 0.035546
v 0.121678 -0.181498 0.035546
v 0.119499 -0.175511 0.035546
v 0.119220 -0.172325 0.035546
v 0.119499 -0.169140 0.035546
v 0.120326 -0.166051 0.035546
v 0.121678 -0.163152 0.035546
v 0.123512 -0.184118 0.035546
v 0.125773 -0.186379 0.035546
v 0.128393 -0.188213 0.035546
v 0.131291 -0.189564 0.035546
v 0.134380 -0.190392 0.035546
v 0.137565 -0.190671 0.035546
v 0.140751 -0.190392 0.035546
v 0.123512 -0.160533 0.035546
v 0.125773 -0.158272 0.035546
v 0.128393 -0.156438 0.035546
v 0.131291 -0.155086 0.035546
v 0.134380 -0.154258 0.035546
v 0.137565 -0.153980 0.035546
v 0.143840 -0.189564 0.035546
v 0.146738 -0.188213 0.035546
v 0.149358 -0.186379 0.035546
v 0.151619 -0.184118 0.035546
v 0.153453 -0.181498 0.035546
v 0.154805 -0.178600 0.035546
v 0.155632 -0.175511 0.035546
v 0.155911 -0.172325 0.035546
v 0.140751 -0.154258 0.035546
v 0.143840 -0.155086 0.035546
v 0.146738 -0.156438 0.035546
v 0.151619 -0.160533 0.035546
v 0.154805 -0.166051 0.035546
v 0.155632 -0.169140 0.035546
v 0.153453 -0.163152 0.035546
v 0.149358 -0.158272 0.035546
v 0.131374 -0.179703 0.036977
v 0.132750 -0.180666 0.036977
v 0.130187 -0.178516 0.036977
v 0.129224 -0.177141 0.036977
v 0.128515 -0.175619 0.036977
v 0.128080 -0.173998 0.036977
v 0.127934 -0.172325 0.036977
v 0.134271 -0.181376 0.036977
v 0.135893 -0.181810 0.036977
v 0.137565 -0.181957 0.036977
v 0.139238 -0.181810 0.036977
v 0.140860 -0.181376 0.036977
v 0.137565 -0.172325 0.036977
v 0.128080 -0.170653 0.036977
v 0.142381 -0.180666 0.036977
v 0.128515 -0.169031 0.036977
v 0.129224 -0.167510 0.036977
v 0.130187 -0.166134 0.036977
v 0.131374 -0.164947 0.036977
v 0.132750 -0.163984 0.036977
v 0.134271 -0.163275 0.036977
v 0.135893 -0.162840 0.036977
v 0.137565 -0.162694 0.036977
v 0.139238 -0.162840 0.036977
v 0.142381 -0.163984 0.036977
v 0.140860 -0.163275 0.036977
v 0.143756 -0.179703 0.036977
v 0.144944 -0.178516 0.036977
v 0.145907 -0.177141 0.036977
v 0.146616 -0.175619 0.036977
v 0.147051 -0.173998 0.036977
v 0.147197 -0.172325 0.036977
v 0.147051 -0.170653 0.036977
v 0.144944 -0.166134 0.036977
v 0.143756 -0.164947 0.036977
v 0.145907 -0.167510 0.036977
v 0.146616 -0.169031 0.036977
f 1 2 3
f 3 4 5
f 6 2 1
f 2 4 3
f 5 7 8
f 8 9 10
f 4 7 5
f 7 9 8
f 9 11 10
f 11 12 13
f 14 15 16
f 14 16 17
f 15 18 16
f 17 3 19
f 16 1 17
f 20 21 15
f 22 23 24
f 24 25 20
f 26 27 28
f 29 30 26
f 14 31 22
f 14 28 31
f 14 20 15
f 14 24 20
f 14 22 24
f 14 26 28
f 14 29 26
f 14 32 29
f 31 33 22
f 28 34 31
f 21 18 15
f 1 3 17
f 18 1 16
f 25 21 20
f 23 25 24
f 34 33 31
f 27 34 28
f 30 27 26
f 33 23 22
f 14 17 19
f 14 19 35
f 14 35 36
f 14 36 37
f 19 5 35
f 35 8 36
f 36 10 37
f 37 13 38
f 38 39 40
f 40 41 42
f 14 37 38
f 14 38 40
f 14 40 42
f 14 42 43
f 14 43 44
f 14 44 45
f 14 45 46
f 14 46 47
f 42 48 43
f 43 49 44
f 44 50 45
f 45 51 46
f 3 5 19
f 5 8 35
f 8 10 36
f 10 13 37
f 13 39 38
f 39 41 40
f 41 48 42
f 48 49 43
f 49 50 44
f 50 51 45
f 51 52 46
f 14 53 32
f 14 54 53
f 14 55 54
f 14 56 55
f 14 57 56
f 14 58 57
f 32 59 29
f 53 60 32
f 54 61 53
f 55 62 54
f 56 63 55
f 57 64 56
f 58 65 57
f 59 30 29
f 60 59 32
f 61 60 53
f 62 61 54
f 63 62 55
f 64 63 56
f 65 64 57
f 66 65 58
f 14 67 68
f 14 47 69
f 14 69 70
f 14 70 71
f 14 71 67
f 14 72 58
f 14 73 72
f 14 68 73
f 70 74 71
f 67 75 68
f 71 76 67
f 46 52 47
f 47 77 69
f 69 78 70
f 72 66 58
f 73 79 72
f 68 80 73
f 74 76 71
f 76 75 67
f 52 77 47
f 77 78 69
f 78 74 70
f 79 66 72
f 80 79 73
f 75 80 68
f 23 81 25
f 81 82 25
f 83 81 23
f 18 6 1
f 21 84 18
f 25 82 21
f 84 6 18
f 82 84 21
f 33 83 23
f 34 85 33
f 27 86 34
f 30 87 27
f 85 83 33
f 86 85 34
f 87 86 27
f 10 11 13
f 13 12 39
f 39 88 41
f 41 89 48
f 48 90 49
f 12 88 39
f 88 89 41
f 89 90 48
f 90 91 49
f 49 91 50
f 50 92 51
f 51 93 52
f 91 92 50
f 92 93 51
f 93 94 52
f 59 95 30
f 60 96 59
f 61 97 60
f 95 87 30
f 96 95 59
f 97 96 60
f 98 97 61
f 62 98 61
f 63 99 62
f 64 100 63
f 65 101 64
f 99 98 62
f 100 99 63
f 101 100 64
f 102 101 65
f 77 103 78
f 52 94 77
f 78 104 74
f 74 105 76
f 94 103 77
f 104 105 74
f 103 104 78
f 80 106 79
f 75 107 80
f 66 102 65
f 79 108 66
f 108 102 66
f 106 108 79
f 107 106 80
f 76 109 75
f 105 109 76
f 109 107 75
f 84 110 6
f 6 111 2
f 2 112 4
f 4 113 7
f 7 114 9
f 9 115 11
f 11 116 12
f 12 117 88
f 111 112 2
f 110 111 6
f 112 113 4
f 113 114 7
f 114 115 9
f 115 116 11
f 116 117 12
f 117 118 88
f 82 119 84
f 83 120 81
f 81 121 82
f 85 122 83
f 86 123 85
f 87 124 86
f 88 118 89
f 89 125 90
f 90 126 91
f 91 127 92
f 92 128 93
f 93 129 94
f 95 130 87
f 96 131 95
f 97 132 96
f 98 133 97
f 99 134 98
f 100 135 99
f 101 136 100
f 94 137 103
f 103 138 104
f 104 139 105
f 102 140 101
f 108 141 102
f 107 142 106
f 106 143 108
f 105 144 109
f 109 145 107
f 119 110 84
f 121 119 82
f 120 121 81
f 122 120 83
f 123 122 85
f 124 123 86
f 118 125 89
f 125 126 90
f 126 127 91
f 127 128 92
f 128 129 93
f 129 137 94
f 130 124 87
f 131 130 95
f 132 131 96
f 133 132 97
f 134 133 98
f 135 134 99
f 136 135 100
f 140 136 101
f 137 138 103
f 138 139 104
f 141 140 102
f 143 141 108
f 142 143 106
f 144 145 109
f 139 144 105
f 145 142 107
f 113 146 114
f 111 147 112
f 110 148 111
f 112 149 113
f 147 149 112
f 148 147 111
f 149 146 113
f 114 150 115
f 115 151 116
f 116 152 117
f 117 153 118
f 146 150 114
f 150 151 115
f 151 152 116
f 152 153 117
f 153 154 118
f 119 155 110
f 121 156 119
f 120 157 121
f 122 158 120
f 123 159 122
f 124 160 123
f 155 148 110
f 156 155 119
f 157 156 121
f 158 157 120
f 159 158 122
f 160 159 123
f 118 154 125
f 125 161 126
f 126 162 127
f 127 163 128
f 128 164 129
f 129 165 137
f 154 161 125
f 161 162 126
f 162 163 127
f 163 164 128
f 164 165 129
f 165 166 137
f 130 167 124
f 131 168 130
f 132 169 131
f 133 170 132
f 134 171 133
f 135 172 134
f 136 173 135
f 167 160 124
f 168 167 130
f 169 168 131
f 170 169 132
f 171 170 133
f 172 171 134
f 173 172 135
f 174 173 136
f 137 166 138
f 138 175 139
f 139 176 144
f 140 174 136
f 141 177 140
f 142 178 143
f 143 179 141
f 144 180 145
f 145 181 142
f 166 175 138
f 175 176 139
f 177 174 140
f 179 177 141
f 178 179 143
f 180 181 145
f 176 180 144
f 181 178 142
f 147 182 149
f 149 183 146
f 146 184 150
f 150 185 151
f 151 186 152
f 152 187 153
f 153 188 154
f 182 183 149
f 183 184 146
f 184 185 150
f 185 186 151
f 186 187 152
f 187 188 153
f 155 189 148
f 156 190 155
f 157 191 156
f 148 192 147
f 158 193 157
f 159 194 158
f 160 195 159
f 154 196 161
f 161 197 162
f 162 198 163
f 163 199 164
f 164 200 165
f 165 201 166
f 167 202 160
f 168 203 167
f 169 204 168
f 170 205 169
f 171 206 170
f 172 207 171
f 173 208 172
f 166 209 175
f 175 210 176
f 176 211 180
f 174 212 173
f 177 213 174
f 179 214 177
f 178 215 179
f 180 216 181
f 181 217 178
f 190 189 155
f 191 190 156
f 192 182 147
f 189 192 148
f 193 191 157
f 194 193 158
f 195 194 159
f 192 218 182
f 183 219 184
f 184 220 185
f 182 221 183
f 189 222 192
f 190 223 189
f 219 220 184
f 222 218 192
f 223 222 189
f 221 219 183
f 218 221 182
f 191 224 190
f 193 225 191
f 194 226 193
f 195 227 194
f 224 223 190
f 225 224 191
f 228 220 219
f 228 221 218
f 228 219 221
f 228 222 223
f 228 223 224
f 228 218 222
f 226 225 193
f 227 226 194
f 229 227 195
f 228 224 225
f 228 225 226
f 228 226 227
f 228 227 229
f 228 229 230
f 188 196 154
f 196 197 161
f 197 198 162
f 198 199 163
f 199 200 164
f 200 201 165
f 201 209 166
f 185 231 186
f 186 232 187
f 187 233 188
f 188 234 196
f 196 235 197
f 220 231 185
f 231 232 186
f 232 233 187
f 233 234 188
f 234 235 196
f 235 236 197
f 197 236 198
f 228 231 220
f 228 232 231
f 228 233 232
f 228 234 233
f 228 235 234
f 228 236 235
f 236 237 198
f 228 237 236
f 228 238 237
f 228 239 238
f 228 240 239
f 228 241 240
f 228 242 243
f 228 243 241
f 198 237 199
f 199 238 200
f 200 239 201
f 201 240 209
f 237 238 199
f 238 239 200
f 239 240 201
f 240 241 209
f 202 195 160
f 203 202 167
f 204 203 168
f 205 204 169
f 206 205 170
f 207 206 171
f 208 207 172
f 212 208 173
f 202 229 195
f 203 230 202
f 204 244 203
f 205 245 204
f 206 246 205
f 230 229 202
f 244 230 203
f 228 230 244
f 228 244 245
f 228 245 246
f 228 246 247
f 228 247 248
f 245 244 204
f 246 245 205
f 247 246 206
f 248 247 207
f 249 248 208
f 207 247 206
f 208 248 207
f 209 210 175
f 211 216 180
f 210 211 176
f 217 215 178
f 213 212 174
f 214 213 177
f 215 214 179
f 216 217 181
f 217 250 215
f 228 250 251
f 228 252 250
f 228 248 249
f 228 249 253
f 228 254 252
f 228 253 254
f 242 251 216
f 228 251 242
f 253 249 212
f 254 253 213
f 251 250 217
f 252 254 214
f 250 252 215
f 209 241 210
f 210 243 211
f 211 242 216
f 216 251 217
f 241 243 210
f 243 242 211
f 212 249 208
f 213 253 212
f 214 254 213
f 215 252 214
f 255 256 257
f 257 258 259
f 260 255 257
f 260 261 262
f 260 263 264
f 260 265 263
f 260 264 255
f 260 262 265
f 263 266 264
f 265 267 263
f 264 268 255
f 262 269 265
f 261 270 262
f 271 272 261
f 268 256 255
f 256 258 257
f 272 270 261
f 266 268 264
f 267 266 263
f 269 267 265
f 270 269 262
f 259 273 274
f 274 275 276
f 260 257 259
f 260 259 274
f 260 274 276
f 260 276 277
f 260 277 278
f 260 278 279
f 260 279 280
f 260 280 281
f 276 282 277
f 277 283 278
f 278 284 279
f 279 285 280
f 280 286 281
f 281 287 288
f 258 273 259
f 273 275 274
f 275 282 276
f 282 283 277
f 283 284 278
f 284 285 279
f 285 286 280
f 286 287 281
f 287 289 288
f 290 291 271
f 292 293 290
f 260 271 261
f 260 290 271
f 260 292 290
f 260 294 292
f 260 295 294
f 260 296 295
f 260 297 296
f 260 298 297
f 294 299 292
f 295 300 294
f 260 301 298
f 260 302 301
f 296 303 295
f 297 304 296
f 298 305 297
f 301 306 298
f 302 307 301
f 291 272 271
f 293 291 290
f 299 293 292
f 300 299 294
f 303 300 295
f 304 303 296
f 305 304 297
f 306 305 298
f 307 306 301
f 308 307 302
f 260 281 288
f 260 288 309
f 260 309 310
f 260 311 312
f 260 310 311
f 260 312 313
f 260 313 314
f 260 314 315
f 288 289 309
f 309 316 310
f 310 317 311
f 311 318 312
f 260 319 302
f 260 320 319
f 260 321 320
f 260 315 321
f 313 322 314
f 314 323 315
f 319 308 302
f 321 324 320
f 320 325 319
f 315 326 321
f 312 327 313
f 289 316 309
f 316 317 310
f 317 318 311
f 318 327 312
f 322 323 314
f 325 308 319
f 324 325 320
f 326 324 321
f 323 326 315
f 327 322 313
f 258 328 273
f 268 329 256
f 266 330 268
f 256 331 258
f 329 331 256
f 331 328 258
f 330 329 268
f 332 330 266
f 269 333 267
f 270 334 269
f 272 335 270
f 333 332 267
f 334 333 269
f 335 334 270
f 267 332 266
f 273 336 275
f 275 337 282
f 282 338 283
f 283 339 284
f 328 336 273
f 336 337 275
f 337 338 282
f 338 339 283
f 284 340 285
f 339 340 284
f 340 341 285
f 285 341 286
f 286 342 287
f 287 343 289
f 341 342 286
f 342 343 287
f 343 344 289
f 291 345 272
f 293 346 291
f 299 347 293
f 345 335 272
f 346 345 291
f 347 346 293
f 300 348 299
f 303 349 300
f 348 347 299
f 349 348 300
f 350 349 303
f 304 350 303
f 305 351 304
f 306 352 305
f 351 350 304
f 289 344 316
f 316 353 317
f 318 354 327
f 317 355 318
f 344 353 316
f 353 355 317
f 355 354 318
f 326 356 324
f 327 357 322
f 322 358 323
f 323 359 326
f 357 358 322
f 354 357 327
f 358 359 323
f 359 356 326
f 307 360 306
f 352 351 305
f 360 352 306
f 361 360 307
f 308 361 307
f 325 362 308
f 324 363 325
f 362 361 308
f 363 362 325
f 356 363 324
f 332 364 330
f 329 365 331
f 331 366 328
f 328 367 336
f 330 368 329
f 334 369 333
f 333 370 332
f 335 371 334
f 336 372 337
f 337 373 338
f 338 374 339
f 339 375 340
f 340 376 341
f 341 377 342
f 342 378 343
f 343 379 344
f 345 380 335
f 346 381 345
f 347 382 346
f 348 383 347
f 349 384 348
f 350 385 349
f 344 386 353
f 353 387 355
f 355 388 354
f 354 389 357
f 357 390 358
f 358 391 359
f 364 368 330
f 370 364 332
f 365 366 331
f 368 365 329
f 366 367 328
f 369 370 333
f 371 369 334
f 367 372 336
f 372 373 337
f 373 374 338
f 374 375 339
f 375 376 340
f 376 377 341
f 377 378 342
f 378 379 343
f 379 386 344
f 380 371 335
f 381 380 345
f 382 381 346
f 383 382 347
f 384 383 348
f 385 384 349
f 386 387 353
f 387 388 355
f 388 389 354
f 389 390 357
f 391 392 359
f 390 391 358
f 351 393 350
f 352 394 351
f 360 395 352
f 361 396 360
f 362 397 361
f 356 398 363
f 363 399 362
f 359 392 356
f 393 385 350
f 394 393 351
f 395 394 352
f 396 395 360
f 399 397 362
f 398 399 363
f 397 396 361
f 392 398 356
f 364 400 368
f 368 401 365
f 365 402 366
f 366 403 367
f 367 404 372
f 369 405 370
f 370 406 364
f 371 407 369
f 400 401 368
f 406 400 364
f 402 403 366
f 401 402 365
f 403 404 367
f 405 406 370
f 407 405 369
f 372 408 373
f 373 409 374
f 374 410 375
f 375 411 376
f 376 412 377
f 377 413 378
f 378 414 379
f 379 415 386
f 404 408 372
f 408 409 373
f 409 410 374
f 410 411 375
f 411 412 376
f 412 413 377
f 413 414 378
f 414 415 379
f 415 416 386
f 380 417 371
f 381 418 380
f 382 419 381
f 383 420 382
f 384 421 383
f 385 422 384
f 417 407 371
f 418 417 380
f 419 418 381
f 420 419 382
f 421 420 383
f 422 421 384
f 386 416 387
f 387 423 388
f 388 424 389
f 389 425 390
f 391 426 392
f 390 427 391
f 416 423 387
f 423 424 388
f 424 425 389
f 425 427 390
f 426 428 392
f 427 426 391
f 393 429 385
f 394 430 393
f 395 431 394
f 429 422 385
f 430 429 393
f 431 430 394
f 432 431 395
f 399 433 397
f 398 434 399
f 396 432 395
f 397 435 396
f 392 428 398
f 433 435 397
f 434 433 399
f 435 432 396
f 428 434 398
f 400 436 401
f 402 437 403
f 404 438 408
f 403 439 404
f 401 440 402
f 406 441 400
f 405 442 406
f 407 443 405
f 408 444 409
f 409 445 410
f 410 446 411
f 411 447 412
f 412 448 413
f 413 449 414
f 414 450 415
f 415 451 416
f 417 452 407
f 418 453 417
f 419 454 418
f 420 455 419
f 421 456 420
f 422 457 421
f 416 458 423
f 423 459 424
f 424 460 425
f 425 461 427
f 427 462 426
f 426 463 428
f 428 464 434
f 437 439 403
f 439 438 404
f 440 437 402
f 436 440 401
f 441 436 400
f 442 441 406
f 443 442 405
f 437 465 439
f 439 466 438
f 438 467 444
f 442 468 441
f 443 469 442
f 436 470 440
f 440 471 437
f 441 472 436
f 470 471 440
f 471 465 437
f 465 466 439
f 466 467 438
f 468 472 441
f 472 470 436
f 469 468 442
f 473 467 466
f 473 466 465
f 473 470 472
f 473 465 471
f 473 471 470
f 438 444 408
f 444 445 409
f 445 446 410
f 446 447 411
f 447 448 412
f 448 449 413
f 449 450 414
f 450 451 415
f 451 458 416
f 444 474 445
f 445 475 446
f 446 476 447
f 447 477 448
f 448 478 449
f 467 474 444
f 474 475 445
f 475 476 446
f 476 477 447
f 477 478 448
f 478 479 449
f 473 474 467
f 473 475 474
f 473 476 475
f 473 477 476
f 473 478 477
f 473 479 478
f 479 480 450
f 473 480 479
f 449 479 450
f 450 480 451
f 451 481 458
f 480 481 451
f 452 443 407
f 453 452 417
f 454 453 418
f 455 454 419
f 456 455 420
f 457 456 421
f 482 457 422
f 452 483 443
f 453 484 452
f 454 485 453
f 455 486 454
f 483 469 443
f 484 483 452
f 473 468 469
f 473 472 468
f 473 469 483
f 473 483 484
f 473 484 485
f 485 484 453
f 486 485 454
f 487 486 455
f 473 485 486
f 473 486 487
f 473 487 488
f 473 488 489
f 473 489 490
f 473 490 491
f 456 487 455
f 457 488 456
f 482 489 457
f 492 490 482
f 493 491 492
f 488 487 456
f 489 488 457
f 490 489 482
f 491 490 492
f 494 491 493
f 458 459 423
f 459 460 424
f 460 461 425
f 464 495 434
f 462 463 426
f 461 462 427
f 463 464 428
f 473 481 480
f 473 496 481
f 473 497 496
f 473 498 497
f 473 499 498
f 473 500 501
f 473 491 494
f 473 494 502
f 473 503 504
f 473 504 500
f 473 502 503
f 473 505 499
f 473 501 505
f 458 496 459
f 459 497 460
f 460 498 461
f 461 499 462
f 481 496 458
f 496 497 459
f 497 498 460
f 498 499 461
f 499 505 462
f 506 494 493
f 507 502 506
f 508 503 507
f 495 504 508
f 464 500 495
f 505 501 463
f 501 500 464
f 500 504 495
f 504 503 508
f 502 494 506
f 503 502 507
f 462 505 463
f 463 501 464
f 429 482 422
f 430 492 429
f 431 493 430
f 432 506 431
f 435 507 432
f 434 495 433
f 433 508 435
f 492 482 429
f 493 492 430
f 506 493 431
f 507 506 432
f 508 507 435
f 495 508 433
f 509 510 511
f 511 512 513
f 513 514 515
f 516 517 518
f 519 520 516
f 521 522 519
f 523 509 511
f 523 511 513
f 523 513 515
f 523 524 525
f 523 518 524
f 523 516 518
f 523 519 516
f 523 525 509
f 524 526 525
f 525 527 509
f 518 528 524
f 527 510 509
f 510 512 511
f 512 514 513
f 517 528 518
f 520 517 516
f 522 520 519
f 526 527 525
f 528 526 524
f 515 529 530
f 523 515 530
f 523 530 531
f 523 531 532
f 523 532 533
f 523 533 534
f 523 534 535
f 530 536 531
f 531 537 532
f 532 538 533
f 533 539 534
f 534 540 535
f 535 541 542
f 514 529 515
f 529 536 530
f 536 537 531
f 537 538 532
f 538 539 533
f 539 540 534
f 540 541 535
f 541 543 542
f 544 545 521
f 546 547 544
f 548 549 546
f 550 551 548
f 523 521 519
f 523 544 521
f 523 546 544
f 523 548 546
f 523 550 548
f 523 552 550
f 523 553 552
f 523 554 553
f 552 555 550
f 523 556 554
f 523 557 556
f 523 558 557
f 523 559 558
f 553 560 552
f 554 561 553
f 556 562 554
f 557 563 556
f 558 564 557
f 545 522 521
f 547 545 544
f 549 547 546
f 551 549 548
f 555 551 550
f 560 555 552
f 561 560 553
f 562 561 554
f 563 562 556
f 564 563 557
f 565 564 558
f 523 535 542
f 523 542 566
f 523 566 567
f 523 568 569
f 523 569 570
f 523 570 571
f 523 567 572
f 523 572 568
f 567 573 572
f 572 574 568
f 542 543 566
f 566 575 567
f 523 576 559
f 523 571 576
f 569 577 570
f 568 578 569
f 570 579 571
f 576 580 559
f 559 565 558
f 571 581 576
f 574 578 568
f 543 575 566
f 575 573 567
f 573 574 572
f 578 577 569
f 577 579 570
f 581 580 576
f 580 565 559
f 579 581 571
f 526 582 527
f 582 583 527
f 584 582 526
f 512 585 514
f 514 586 529
f 527 583 510
f 510 587 512
f 583 587 510
f 587 585 512
f 585 586 514
f 528 584 526
f 517 588 528
f 522 589 520
f 520 590 517
f 590 588 517
f 588 584 528
f 589 590 520
f 529 591 536
f 536 592 537
f 537 593 538
f 538 594 539
f 586 591 529
f 591 592 536
f 592 593 537
f 593 594 538
f 594 595 539
f 539 595 540
f 540 596 541
f 541 597 543
f 595 596 540
f 596 597 541
f 597 598 543
f 545 599 522
f 547 600 545
f 549 601 547
f 599 589 522
f 600 599 545
f 601 600 547
f 551 602 549
f 555 603 551
f 560 604 555
f 602 601 549
f 603 602 551
f 604 603 555
f 605 604 560
f 561 605 560
f 562 606 561
f 543 598 575
f 575 607 573
f 573 608 574
f 574 609 578
f 598 607 575
f 607 608 573
f 608 609 574
f 577 610 579
f 579 611 581
f 581 612 580
f 610 611 579
f 611 612 581
f 578 613 577
f 609 613 578
f 613 610 577
f 563 614 562
f 564 615 563
f 606 605 561
f 614 606 562
f 615 614 563
f 616 615 564
f 565 616 564
f 580 617 565
f 617 616 565
f 612 617 580
f 582 618 583
f 584 619 582
f 587 620 585
f 583 621 587
f 585 622 586
f 586 623 591
f 588 624 584
f 590 625 588
f 589 626 590
f 591 627 592
f 592 628 593
f 593 629 594
f 594 630 595
f 595 631 596
f 596 632 597
f 597 633 598
f 599 634 589
f 600 635 599
f 601 636 600
f 602 637 601
f 603 638 602
f 604 639 603
f 598 640 607
f 607 641 608
f 608 642 609
f 613 643 610
f 609 644 613
f 610 645 611
f 618 621 583
f 624 619 584
f 619 618 582
f 621 620 587
f 620 622 585
f 622 623 586
f 625 624 588
f 626 625 590
f 623 627 591
f 627 628 592
f 628 629 593
f 629 630 594
f 630 631 595
f 631 632 596
f 632 633 597
f 633 640 598
f 634 626 589
f 635 634 599
f 636 635 600
f 637 636 601
f 638 637 602
f 639 638 603
f 640 641 607
f 641 642 608
f 642 644 609
f 644 643 613
f 643 645 610
f 645 646 611
f 605 647 604
f 606 648 605
f 614 649 606
f 615 650 614
f 616 651 615
f 617 652 616
f 612 653 617
f 611 646 612
f 647 639 604
f 648 647 605
f 649 648 606
f 650 649 614
f 651 650 615
f 652 651 616
f 646 653 612
f 653 652 617
f 618 654 621
f 619 655 618
f 620 656 622
f 621 657 620
f 622 658 623
f 623 659 627
f 624 660 619
f 625 661 624
f 626 662 625
f 654 657 621
f 660 655 619
f 655 654 618
f 657 656 620
f 656 658 622
f 658 659 623
f 661 660 624
f 662 661 625
f 627 663 628
f 628 664 629
f 629 665 630
f 630 666 631
f 631 667 632
f 632 668 633
f 633 669 640
f 659 663 627
f 663 664 628
f 664 665 629
f 665 666 630
f 666 667 631
f 667 668 632
f 668 669 633
f 669 670 640
f 634 671 626
f 635 672 634
f 636 673 635
f 637 674 636
f 638 675 637
f 639 676 638
f 671 662 626
f 672 671 634
f 673 672 635
f 674 673 636
f 675 674 637
f 676 675 638
f 640 670 641
f 641 677 642
f 642 678 644
f 644 679 643
f 643 680 645
f 645 681 646
f 670 677 641
f 677 678 642
f 678 679 644
f 679 680 643
f 680 681 645
f 681 682 646
f 647 683 639
f 648 684 647
f 649 685 648
f 650 686 649
f 683 676 639
f 684 683 647
f 685 684 648
f 686 685 649
f 687 686 650
f 652 688 651
f 646 682 653
f 653 689 652
f 651 687 650
f 688 687 651
f 682 689 653
f 689 688 652
f 654 690 657
f 655 691 654
f 657 692 656
f 656 693 658
f 658 694 659
f 659 695 663
f 660 696 655
f 661 697 660
f 662 698 661
f 663 699 664
f 664 700 665
f 665 701 666
f 666 702 667
f 667 703 668
f 668 704 669
f 669 705 670
f 671 706 662
f 672 707 671
f 673 708 672
f 674 709 673
f 675 710 674
f 676 711 675
f 670 712 677
f 677 713 678
f 678 714 679
f 682 715 689
f 679 716 680
f 680 717 681
f 681 718 682
f 691 690 654
f 692 693 656
f 693 694 658
f 694 695 659
f 690 692 657
f 697 696 660
f 696 691 655
f 698 697 661
f 692 719 693
f 693 720 694
f 694 721 695
f 695 722 699
f 691 723 690
f 696 724 691
f 697 725 696
f 698 726 697
f 725 724 696
f 726 725 697
f 690 727 692
f 727 719 692
f 719 720 693
f 723 727 690
f 720 721 694
f 721 722 695
f 724 723 691
f 728 723 724
f 728 721 720
f 728 720 719
f 728 722 721
f 728 729 722
f 728 719 727
f 728 727 723
f 695 699 663
f 699 700 664
f 700 701 665
f 701 702 666
f 702 703 667
f 703 704 668
f 704 705 669
f 705 712 670
f 699 729 700
f 700 730 701
f 701 731 702
f 702 732 703
f 703 733 704
f 722 729 699
f 729 730 700
f 730 731 701
f 731 732 702
f 732 733 703
f 728 730 729
f 728 731 730
f 728 732 731
f 728 733 732
f 728 734 733
f 733 734 704
f 734 735 705
f 704 734 705
f 705 735 712
f 706 698 662
f 707 706 671
f 708 707 672
f 709 708 673
f 710 709 674
f 711 710 675
f 736 711 676
f 706 737 698
f 707 738 706
f 708 739 707
f 709 740 708
f 737 726 698
f 738 737 706
f 739 738 707
f 740 739 708
f 728 725 726
f 728 724 725
f 728 726 737
f 728 737 738
f 728 738 739
f 741 740 709
f 728 739 740
f 728 740 741
f 728 741 742
f 728 742 743
f 728 743 744
f 728 744 745
f 728 745 746
f 728 746 747
f 710 741 709
f 711 742 710
f 736 743 711
f 748 744 736
f 749 745 748
f 750 746 749
f 742 741 710
f 743 742 711
f 744 743 736
f 745 744 748
f 746 745 749
f 747 746 750
f 712 713 677
f 713 714 678
f 714 716 679
f 718 715 682
f 715 751 689
f 716 717 680
f 717 718 681
f 728 735 734
f 728 752 735
f 728 753 752
f 728 754 753
f 728 755 754
f 735 752 712
f 752 753 713
f 753 754 714
f 728 756 757
f 728 758 755
f 728 757 758
f 728 759 760
f 728 760 756
f 728 747 759
f 754 755 716
f 755 758 717
f 712 752 713
f 713 753 714
f 714 754 716
f 716 755 717
f 717 758 718
f 718 757 715
f 751 760 761
f 762 747 750
f 761 759 762
f 715 756 751
f 756 760 751
f 760 759 761
f 758 757 718
f 757 756 715
f 759 747 762
f 683 736 676
f 684 748 683
f 685 749 684
f 686 750 685
f 687 762 686
f 688 761 687
f 689 751 688
f 748 736 683
f 749 748 684
f 750 749 685
f 762 750 686
f 761 762 687
f 751 761 688
f 763 764 765
f 765 766 767
f 767 768 769
f 770 764 763
f 764 766 765
f 766 768 767
f 769 771 772
f 768 771 769
f 771 773 772
f 773 774 775
f 776 777 778
f 779 780 781
f 779 781 782
f 779 782 783
f 779 783 784
f 780 785 781
f 782 765 783
f 781 763 782
f 783 767 784
f 786 787 780
f 778 788 786
f 789 790 776
f 791 792 789
f 793 794 791
f 795 796 793
f 779 786 780
f 779 778 786
f 779 776 778
f 779 791 789
f 779 789 776
f 779 793 791
f 779 795 793
f 779 797 795
f 777 788 778
f 787 785 780
f 785 763 781
f 763 765 782
f 765 767 783
f 788 787 786
f 790 777 776
f 792 790 789
f 794 792 791
f 796 794 793
f 779 784 798
f 779 798 799
f 784 769 798
f 798 772 799
f 799 775 800
f 800 801 802
f 802 803 804
f 779 799 800
f 779 800 802
f 779 802 804
f 779 804 805
f 779 805 806
f 779 806 807
f 779 807 808
f 779 808 809
f 804 810 805
f 805 811 806
f 806 812 807
f 807 813 808
f 767 769 784
f 769 772 798
f 772 775 799
f 775 801 800
f 801 803 802
f 803 810 804
f 810 811 805
f 811 812 806
f 812 813 807
f 813 814 808
f 797 815 795
f 816 817 797
f 818 819 816
f 779 816 797
f 779 818 816
f 779 820 818
f 779 821 820
f 779 822 821
f 779 823 822
f 779 824 823
f 779 825 824
f 820 826 818
f 821 827 820
f 822 828 821
f 823 829 822
f 824 830 823
f 815 796 795
f 817 815 797
f 819 817 816
f 826 819 818
f 827 826 820
f 828 827 821
f 829 828 822
f 830 829 823
f 831 830 824
f 779 832 833
f 779 834 835
f 779 833 836
f 779 836 834
f 779 809 832
f 779 835 825
f 808 814 809
f 809 837 832
f 832 838 833
f 834 839 835
f 833 840 836
f 836 841 834
f 825 831 824
f 835 842 825
f 837 838 832
f 838 840 833
f 840 841 836
f 841 839 834
f 814 837 809
f 842 831 825
f 839 842 835
f 787 843 785
f 788 844 787
f 777 845 788
f 843 770 785
f 844 843 787
f 846 845 777
f 845 844 788
f 785 770 763
f 792 847 790
f 790 846 777
f 794 848 792
f 796 849 794
f 847 846 790
f 848 847 792
f 849 848 794
f 772 773 775
f 775 774 801
f 801 850 803
f 774 850 801
f 803 851 810
f 810 852 811
f 850 851 803
f 851 852 810
f 852 853 811
f 811 853 812
f 812 854 813
f 813 855 814
f 853 854 812
f 854 855 813
f 855 856 814
f 815 857 796
f 817 858 815
f 819 859 817
f 857 849 796
f 858 857 815
f 859 858 817
f 826 860 819
f 860 859 819
f 861 860 826
f 827 861 826
f 828 862 827
f 829 863 828
f 830 864 829
f 862 861 827
f 863 862 828
f 864 863 829
f 865 864 830
f 840 866 841
f 814 856 837
f 837 867 838
f 838 868 840
f 856 867 837
f 867 868 838
f 868 866 840
f 842 869 831
f 841 870 839
f 839 871 842
f 831 865 830
f 866 870 841
f 870 871 839
f 869 865 831
f 871 869 842
f 843 872 770
f 764 873 766
f 770 874 764
f 766 875 768
f 768 876 771
f 771 877 773
f 773 878 774
f 774 879 850
f 872 874 770
f 875 876 768
f 874 873 764
f 873 875 766
f 876 877 771
f 877 878 773
f 878 879 774
f 879 880 850
f 844 881 843
f 845 882 844
f 846 883 845
f 847 884 846
f 848 885 847
f 849 886 848
f 850 880 851
f 851 887 852
f 852 888 853
f 853 889 854
f 854 890 855
f 855 891 856
f 857 892 849
f 858 893 857
f 859 894 858
f 860 895 859
f 861 896 860
f 862 897 861
f 863 898 862
f 864 899 863
f 856 900 867
f 868 901 866
f 867 902 868
f 870 903 871
f 865 904 864
f 869 905 865
f 871 906 869
f 866 907 870
f 882 881 844
f 881 872 843
f 883 882 845
f 884 883 846
f 885 884 847
f 886 885 848
f 880 887 851
f 887 888 852
f 888 889 853
f 889 890 854
f 890 891 855
f 891 900 856
f 892 886 849
f 893 892 857
f 894 893 858
f 895 894 859
f 896 895 860
f 897 896 861
f 898 897 862
f 899 898 863
f 904 899 864
f 900 902 867
f 902 901 868
f 905 904 865
f 903 906 871
f 906 905 869
f 901 907 866
f 907 903 870
f 872 908 874
f 875 909 876
f 876 910 877
f 874 911 873
f 873 912 875
f 908 911 874
f 909 910 876
f 911 912 873
f 912 909 875
f 877 913 878
f 878 914 879
f 879 915 880
f 910 913 877
f 913 914 878
f 914 915 879
f 915 916 880
f 882 917 881
f 881 918 872
f 883 919 882
f 884 920 883
f 885 921 884
f 886 922 885
f 917 918 881
f 918 908 872
f 919 917 882
f 920 919 883
f 921 920 884
f 922 921 885
f 880 916 887
f 887 923 888
f 888 924 889
f 889 925 890
f 890 926 891
f 891 927 900
f 916 923 887
f 923 924 888
f 924 925 889
f 925 926 890
f 926 927 891
f 927 928 900
f 892 929 886
f 893 930 892
f 894 931 893
f 895 932 894
f 896 933 895
f 897 934 896
f 898 935 897
f 899 936 898
f 929 922 886
f 930 929 892
f 931 930 893
f 932 931 894
f 933 932 895
f 934 933 896
f 935 934 897
f 936 935 898
f 937 936 899
f 900 928 902
f 901 938 907
f 902 939 901
f 904 937 899
f 905 940 904
f 906 941 905
f 903 942 906
f 907 943 903
f 928 939 902
f 939 938 901
f 940 937 904
f 942 941 906
f 941 940 905
f 938 943 907
f 943 942 903
f 912 944 909
f 911 945 912
f 909 946 910
f 910 947 913
f 913 948 914
f 914 949 915
f 915 950 916
f 945 944 912
f 944 946 909
f 946 947 910
f 947 948 913
f 948 949 914
f 949 950 915
f 908 951 911
f 918 952 908
f 917 953 918
f 919 954 917
f 920 955 919
f 921 956 920
f 922 957 921
f 916 958 923
f 923 959 924
f 924 960 925
f 925 961 926
f 926 962 927
f 927 963 928
f 929 964 922
f 930 965 929
f 931 966 930
f 932 967 931
f 933 968 932
f 934 969 933
f 935 970 934
f 936 971 935
f 928 972 939
f 939 973 938
f 938 974 943
f 942 975 941
f 940 976 937
f 937 977 936
f 941 978 940
f 943 979 942
f 952 951 908
f 954 953 917
f 953 952 918
f 951 945 911
f 955 954 919
f 956 955 920
f 957 956 921
f 952 980 951
f 953 981 952
f 951 982 945
f 945 983 944
f 944 984 946
f 946 985 947
f 947 986 948
f 984 985 946
f 985 986 947
f 983 984 944
f 982 983 945
f 980 982 951
f 981 980 952
f 954 987 953
f 955 988 954
f 956 989 955
f 957 990 956
f 987 981 953
f 988 987 954
f 989 988 955
f 990 989 956
f 991 990 957
f 992 980 981
f 992 981 987
f 992 985 984
f 992 983 982
f 992 984 983
f 992 986 985
f 992 993 986
f 992 982 980
f 992 987 988
f 992 988 989
f 992 989 990
f 992 990 991
f 992 991 994
f 950 958 916
f 958 959 923
f 959 960 924
f 960 961 925
f 961 962 926
f 962 963 927
f 963 972 928
f 948 993 949
f 949 995 950
f 950 996 958
f 958 997 959
f 959 998 960
f 986 993 948
f 993 995 949
f 995 996 950
f 996 997 958
f 997 998 959
f 992 995 993
f 992 996 995
f 992 997 996
f 992 998 997
f 992 999 998
f 992 1000 999
f 998 999 960
f 999 1000 961
f 1000 1001 962
f 992 1001 1000
f 992 1002 1001
f 992 1003 1002
f 992 1004 1005
f 992 1005 1003
f 1001 1002 963
f 1002 1003 972
f 960 999 961
f 961 1000 962
f 962 1001 963
f 963 1002 972
f 964 957 922
f 965 964 929
f 966 965 930
f 967 966 931
f 968 967 932
f 969 968 933
f 970 969 934
f 971 970 935
f 977 971 936
f 964 991 957
f 965 994 964
f 966 1006 965
f 994 991 964
f 967 1007 966
f 968 1008 967
f 1006 994 965
f 992 994 1006
f 992 1006 1007
f 992 1007 1008
f 992 1008 1009
f 992 1009 1010
f 992 1010 1011
f 992 1011 1012
f 1007 1006 966
f 1008 1007 967
f 1009 1008 968
f 1010 1009 969
f 1011 1010 970
f 1012 1011 971
f 969 1009 968
f 970 1010 969
f 971 1011 970
f 972 973 939
f 973 974 938
f 974 979 943
f 979 975 942
f 975 978 941
f 976 977 937
f 978 976 940
f 974 1004 979
f 975 1013 978
f 979 1014 975
f 992 1013 1014
f 992 1015 1013
f 992 1014 1004
f 992 1016 1015
f 992 1012 1016
f 1003 1005 973
f 1004 1014 979
f 1005 1004 974
f 1016 1012 977
f 1015 1016 976
f 1013 1015 978
f 1014 1013 975
f 972 1003 973
f 973 1005 974
f 977 1012 971
f 976 1016 977
f 978 1015 976
