# sionna2 mesh — matrice4e__battery.obj
# group=battery  verts=16  tris=24
v -0.075635 -0.030300 0.040145
v -0.075635 0.030300 0.040145
v -0.075635 -0.030300 -0.006149
v 0.069835 -0.030300 -0.006149
v -0.075635 0.030300 -0.006149
v 0.069835 0.030300 0.040145
v 0.069835 -0.030300 0.040145
v 0.069835 0.030300 -0.006149
v -0.073900 -0.033800 -0.018448
v -0.073900 0.033800 -0.018448
v -0.073900 -0.033800 -0.025547
v 0.068100 -0.033800 -0.025547
v -0.073900 0.033800 -0.025547
v 0.068100 0.033800 -0.018448
v 0.068100 -0.033800 -0.018448
v 0.068100 0.033800 -0.025547
f 1 2 3
f 4 1 3
f 3 2 5
f 5 4 3
f 1 6 2
f 7 1 4
f 7 6 1
f 2 6 5
f 8 4 5
f 5 6 8
f 8 7 4
f 6 7 8
f 9 10 11
f 12 9 11
f 11 10 13
f 13 12 11
f 9 14 10
f 15 9 12
f 15 14 9
f 10 14 13
f 16 12 13
f 13 14 16
f 16 15 12
f 14 15 16
