# sionna2 mesh — phantom3__battery.obj
# group=battery  verts=16  tris=24
v -0.009600 -0.038000 -0.046909
v -0.089600 -0.038000 -0.001996
v -0.089600 -0.038000 -0.046909
v -0.089600 0.038000 -0.046909
v -0.089600 0.038000 -0.001996
v -0.009600 -0.038000 -0.001996
v -0.009600 0.038000 -0.001996
v -0.009600 0.038000 -0.046909
v -0.009000 -0.016500 0.021958
v -0.009000 0.016500 0.021958
v -0.009000 -0.016500 0.001996
v -0.009000 0.016500 0.001996
v 0.035000 -0.016500 0.001996
v 0.035000 -0.016500 0.021958
v 0.035000 0.016500 0.001996
v 0.035000 0.016500 0.021958
f 1 2 3
f 4 1 3
f 2 5 3
f 6 2 1
f 6 7 2
f 3 5 4
f 5 7 4
f 8 1 4
f 4 7 8
f 2 7 5
f 8 6 1
f 7 6 8
f 9 10 11
f 12 13 11
f 13 9 11
f 14 9 13
f 15 14 13
f 14 16 9
f 11 10 12
f 15 13 12
f 9 16 10
f 10 16 12
f 16 14 15
f 12 16 15
