# sionna2 mesh — phantom3__motor.obj
# group=motor  verts=1016  tris=2016
v 0.123744 0.123744 0.010979
v 0.118741 0.117782 0.010979
v 0.117782 0.118741 0.010979
v 0.117004 0.119852 0.010979
v 0.114921 0.118650 0.012346
v 0.116431 0.121082 0.010979
v 0.121082 0.116431 0.010979
v 0.120259 0.114170 0.012346
v 0.119852 0.117004 0.010979
v 0.117195 0.115939 0.012346
v 0.115939 0.117195 0.012346
v 0.118650 0.114921 0.012346
v 0.114170 0.120259 0.012346
v 0.116079 0.122392 0.010979
v 0.115961 0.123744 0.010979
v 0.116079 0.125095 0.010979
v 0.116431 0.126405 0.010979
v 0.117004 0.127635 0.010979
v 0.117782 0.128746 0.010979
v 0.118741 0.129705 0.010979
v 0.113710 0.121975 0.012346
v 0.113556 0.123744 0.012346
v 0.113710 0.125513 0.012346
v 0.114170 0.127228 0.012346
v 0.114921 0.128838 0.012346
v 0.115939 0.130292 0.012346
v 0.117195 0.131548 0.012346
v 0.119852 0.130484 0.010979
v 0.118650 0.132567 0.012346
v 0.121082 0.131057 0.010979
v 0.120259 0.133317 0.012346
v 0.122392 0.116079 0.010979
v 0.123744 0.115961 0.010979
v 0.125095 0.116079 0.010979
v 0.126405 0.116431 0.010979
v 0.127635 0.117004 0.010979
v 0.128746 0.117782 0.010979
v 0.129705 0.118741 0.010979
v 0.121975 0.113710 0.012346
v 0.123744 0.113556 0.012346
v 0.125513 0.113710 0.012346
v 0.127228 0.114170 0.012346
v 0.128838 0.114921 0.012346
v 0.130292 0.115939 0.012346
v 0.131548 0.117195 0.012346
v 0.130484 0.119852 0.010979
v 0.132567 0.118650 0.012346
v 0.131057 0.121082 0.010979
v 0.133317 0.120259 0.012346
v 0.122392 0.131408 0.010979
v 0.123744 0.131526 0.010979
v 0.125095 0.131408 0.010979
v 0.131408 0.122392 0.010979
v 0.131526 0.123744 0.010979
v 0.131408 0.125095 0.010979
v 0.126405 0.131057 0.010979
v 0.127635 0.130484 0.010979
v 0.128746 0.129705 0.010979
v 0.129705 0.128746 0.010979
v 0.130484 0.127635 0.010979
v 0.131057 0.126405 0.010979
v 0.121975 0.133777 0.012346
v 0.123744 0.133932 0.012346
v 0.125513 0.133777 0.012346
v 0.127228 0.133317 0.012346
v 0.128838 0.132567 0.012346
v 0.133777 0.121975 0.012346
v 0.133932 0.123744 0.012346
v 0.133777 0.125513 0.012346
v 0.132567 0.128838 0.012346
v 0.131548 0.130292 0.012346
v 0.133317 0.127228 0.012346
v 0.130292 0.131548 0.012346
v 0.121434 0.110645 0.013987
v 0.119194 0.111245 0.013987
v 0.115194 0.113555 0.013987
v 0.111245 0.119194 0.013987
v 0.112225 0.117093 0.013987
v 0.113555 0.115194 0.013987
v 0.117093 0.112225 0.013987
v 0.110645 0.121434 0.013987
v 0.110443 0.123744 0.013987
v 0.110645 0.126053 0.013987
v 0.111245 0.128293 0.013987
v 0.112225 0.130394 0.013987
v 0.113555 0.132293 0.013987
v 0.115194 0.133933 0.013987
v 0.117093 0.135263 0.013987
v 0.119194 0.136243 0.013987
v 0.123744 0.110443 0.013987
v 0.126053 0.110645 0.013987
v 0.128293 0.111245 0.013987
v 0.130394 0.112225 0.013987
v 0.132293 0.113555 0.013987
v 0.133933 0.115194 0.013987
v 0.135263 0.117093 0.013987
v 0.136243 0.119194 0.013987
v 0.136843 0.121434 0.013987
v 0.121434 0.136843 0.013987
v 0.123744 0.137045 0.013987
v 0.126053 0.136843 0.013987
v 0.128293 0.136243 0.013987
v 0.130394 0.135263 0.013987
v 0.137045 0.123744 0.013987
v 0.136243 0.128293 0.013987
v 0.136843 0.126053 0.013987
v 0.135263 0.130394 0.013987
v 0.132293 0.133933 0.013987
v 0.133933 0.132293 0.013987
v 0.111489 0.116669 0.018499
v 0.110447 0.118904 0.018499
v 0.118904 0.110447 0.018499
v 0.121287 0.109809 0.018499
v 0.112904 0.114648 0.018499
v 0.114648 0.112904 0.018499
v 0.116669 0.111489 0.018499
v 0.109809 0.121287 0.018499
v 0.109594 0.123744 0.018499
v 0.109809 0.126201 0.018499
v 0.110447 0.128583 0.018499
v 0.111489 0.130819 0.018499
v 0.112904 0.132839 0.018499
v 0.114648 0.134583 0.018499
v 0.116669 0.135998 0.018499
v 0.118904 0.137040 0.018499
v 0.123744 0.109594 0.018499
v 0.126201 0.109809 0.018499
v 0.128583 0.110447 0.018499
v 0.130819 0.111489 0.018499
v 0.132839 0.112904 0.018499
v 0.134583 0.114648 0.018499
v 0.135998 0.116669 0.018499
v 0.137040 0.118904 0.018499
v 0.137679 0.121287 0.018499
v 0.121287 0.137679 0.018499
v 0.123744 0.137894 0.018499
v 0.126201 0.137679 0.018499
v 0.128583 0.137040 0.018499
v 0.137894 0.123744 0.018499
v 0.137679 0.126201 0.018499
v 0.137040 0.128583 0.018499
v 0.130819 0.135998 0.018499
v 0.132839 0.134583 0.018499
v 0.134583 0.132839 0.018499
v 0.135998 0.130819 0.018499
v 0.111980 0.116952 0.022191
v 0.110979 0.119098 0.022191
v 0.119098 0.110979 0.022191
v 0.121385 0.110366 0.022191
v 0.115012 0.113338 0.022191
v 0.113338 0.115012 0.022191
v 0.116952 0.111980 0.022191
v 0.110366 0.121385 0.022191
v 0.110160 0.123744 0.022191
v 0.110366 0.126103 0.022191
v 0.110979 0.128390 0.022191
v 0.111980 0.130536 0.022191
v 0.113338 0.132475 0.022191
v 0.115012 0.134150 0.022191
v 0.116952 0.135508 0.022191
v 0.119098 0.136508 0.022191
v 0.121385 0.137121 0.022191
v 0.123744 0.110160 0.022191
v 0.126103 0.110366 0.022191
v 0.128390 0.110979 0.022191
v 0.130536 0.111980 0.022191
v 0.132475 0.113338 0.022191
v 0.134150 0.115012 0.022191
v 0.135508 0.116952 0.022191
v 0.136508 0.119098 0.022191
v 0.137121 0.121385 0.022191
v 0.123744 0.137328 0.022191
v 0.126103 0.137121 0.022191
v 0.128390 0.136508 0.022191
v 0.137328 0.123744 0.022191
v 0.137121 0.126103 0.022191
v 0.136508 0.128390 0.022191
v 0.130536 0.135508 0.022191
v 0.132475 0.134150 0.022191
v 0.134150 0.132475 0.022191
v 0.135508 0.130536 0.022191
v 0.113106 0.119872 0.023969
v 0.119872 0.113106 0.023969
v 0.115072 0.116467 0.023969
v 0.116467 0.115072 0.023969
v 0.113940 0.118084 0.023969
v 0.118084 0.113940 0.023969
v 0.112596 0.121778 0.023969
v 0.112424 0.123744 0.023969
v 0.112596 0.125709 0.023969
v 0.113106 0.127615 0.023969
v 0.113940 0.129404 0.023969
v 0.115072 0.131020 0.023969
v 0.116467 0.132415 0.023969
v 0.118084 0.133547 0.023969
v 0.119872 0.134381 0.023969
v 0.121778 0.112596 0.023969
v 0.123744 0.112424 0.023969
v 0.125709 0.112596 0.023969
v 0.127615 0.113106 0.023969
v 0.129404 0.113940 0.023969
v 0.131020 0.115072 0.023969
v 0.132415 0.116467 0.023969
v 0.133547 0.118084 0.023969
v 0.134381 0.119872 0.023969
v 0.121778 0.134892 0.023969
v 0.123744 0.135064 0.023969
v 0.125709 0.134892 0.023969
v 0.127615 0.134381 0.023969
v 0.134892 0.121778 0.023969
v 0.135064 0.123744 0.023969
v 0.134892 0.125709 0.023969
v 0.134381 0.127615 0.023969
v 0.131020 0.132415 0.023969
v 0.129404 0.133547 0.023969
v 0.132415 0.131020 0.023969
v 0.133547 0.129404 0.023969
v 0.119191 0.119924 0.024652
v 0.118597 0.120772 0.024652
v 0.120772 0.118597 0.024652
v 0.121711 0.118159 0.024652
v 0.119924 0.119191 0.024652
v 0.118159 0.121711 0.024652
v 0.117891 0.122712 0.024652
v 0.117801 0.123744 0.024652
v 0.117891 0.124776 0.024652
v 0.118159 0.125776 0.024652
v 0.118597 0.126715 0.024652
v 0.123744 0.123744 0.024652
v 0.119191 0.127564 0.024652
v 0.119924 0.128296 0.024652
v 0.120772 0.128890 0.024652
v 0.122712 0.117891 0.024652
v 0.123744 0.117801 0.024652
v 0.124776 0.117891 0.024652
v 0.125776 0.118159 0.024652
v 0.126715 0.118597 0.024652
v 0.127564 0.119191 0.024652
v 0.128296 0.119924 0.024652
v 0.128890 0.120772 0.024652
v 0.129328 0.121711 0.024652
v 0.121711 0.129328 0.024652
v 0.122712 0.129596 0.024652
v 0.123744 0.129687 0.024652
v 0.124776 0.129596 0.024652
v 0.125776 0.129328 0.024652
v 0.129596 0.122712 0.024652
v 0.129687 0.123744 0.024652
v 0.129596 0.124776 0.024652
v 0.129328 0.125776 0.024652
v 0.127564 0.128296 0.024652
v 0.126715 0.128890 0.024652
v 0.128890 0.126715 0.024652
v 0.128296 0.127564 0.024652
v -0.128746 0.117782 0.010979
v -0.130292 0.115939 0.012346
v -0.129705 0.118741 0.010979
v -0.131548 0.117195 0.012346
v -0.130484 0.119852 0.010979
v -0.132567 0.118650 0.012346
v -0.131057 0.121082 0.010979
v -0.123744 0.123744 0.010979
v -0.127635 0.117004 0.010979
v -0.126405 0.116431 0.010979
v -0.125095 0.116079 0.010979
v -0.123744 0.115961 0.010979
v -0.122392 0.116079 0.010979
v -0.121082 0.116431 0.010979
v -0.119852 0.117004 0.010979
v -0.118741 0.117782 0.010979
v -0.127228 0.114170 0.012346
v -0.125513 0.113710 0.012346
v -0.128838 0.114921 0.012346
v -0.123744 0.113556 0.012346
v -0.121975 0.113710 0.012346
v -0.120259 0.114170 0.012346
v -0.133317 0.120259 0.012346
v -0.131408 0.122392 0.010979
v -0.133777 0.121975 0.012346
v -0.131526 0.123744 0.010979
v -0.133932 0.123744 0.012346
v -0.131408 0.125095 0.010979
v -0.133777 0.125513 0.012346
v -0.131057 0.126405 0.010979
v -0.133317 0.127228 0.012346
v -0.130484 0.127635 0.010979
v -0.132567 0.128838 0.012346
v -0.129705 0.128746 0.010979
v -0.131548 0.130292 0.012346
v -0.128746 0.129705 0.010979
v -0.127635 0.130484 0.010979
v -0.126405 0.131057 0.010979
v -0.125095 0.131408 0.010979
v -0.123744 0.131526 0.010979
v -0.122392 0.131408 0.010979
v -0.121082 0.131057 0.010979
v -0.119852 0.130484 0.010979
v -0.118741 0.129705 0.010979
v -0.130292 0.131548 0.012346
v -0.128838 0.132567 0.012346
v -0.127228 0.133317 0.012346
v -0.125513 0.133777 0.012346
v -0.123744 0.133932 0.012346
v -0.121975 0.133777 0.012346
v -0.120259 0.133317 0.012346
v -0.117782 0.118741 0.010979
v -0.118650 0.114921 0.012346
v -0.117195 0.115939 0.012346
v -0.115939 0.117195 0.012346
v -0.117004 0.119852 0.010979
v -0.114921 0.118650 0.012346
v -0.116431 0.121082 0.010979
v -0.114170 0.120259 0.012346
v -0.116079 0.122392 0.010979
v -0.115961 0.123744 0.010979
v -0.116079 0.125095 0.010979
v -0.117004 0.127635 0.010979
v -0.116431 0.126405 0.010979
v -0.117782 0.128746 0.010979
v -0.115939 0.130292 0.012346
v -0.113710 0.121975 0.012346
v -0.113556 0.123744 0.012346
v -0.113710 0.125513 0.012346
v -0.114170 0.127228 0.012346
v -0.114921 0.128838 0.012346
v -0.118650 0.132567 0.012346
v -0.117195 0.131548 0.012346
v -0.135263 0.117093 0.013987
v -0.136243 0.119194 0.013987
v -0.132293 0.113555 0.013987
v -0.130394 0.112225 0.013987
v -0.133933 0.115194 0.013987
v -0.126053 0.110645 0.013987
v -0.128293 0.111245 0.013987
v -0.123744 0.110443 0.013987
v -0.121434 0.110645 0.013987
v -0.119194 0.111245 0.013987
v -0.136843 0.121434 0.013987
v -0.137045 0.123744 0.013987
v -0.136843 0.126053 0.013987
v -0.136243 0.128293 0.013987
v -0.135263 0.130394 0.013987
v -0.133933 0.132293 0.013987
v -0.132293 0.133933 0.013987
v -0.130394 0.135263 0.013987
v -0.128293 0.136243 0.013987
v -0.126053 0.136843 0.013987
v -0.123744 0.137045 0.013987
v -0.121434 0.136843 0.013987
v -0.117093 0.112225 0.013987
v -0.115194 0.113555 0.013987
v -0.113555 0.115194 0.013987
v -0.112225 0.117093 0.013987
v -0.111245 0.119194 0.013987
v -0.110645 0.121434 0.013987
v -0.110443 0.123744 0.013987
v -0.110645 0.126053 0.013987
v -0.111245 0.128293 0.013987
v -0.112225 0.130394 0.013987
v -0.117093 0.135263 0.013987
v -0.119194 0.136243 0.013987
v -0.113555 0.132293 0.013987
v -0.115194 0.133933 0.013987
v -0.134583 0.114648 0.018499
v -0.135998 0.116669 0.018499
v -0.137040 0.118904 0.018499
v -0.132839 0.112904 0.018499
v -0.130819 0.111489 0.018499
v -0.128583 0.110447 0.018499
v -0.126201 0.109809 0.018499
v -0.123744 0.109594 0.018499
v -0.121287 0.109809 0.018499
v -0.137679 0.121287 0.018499
v -0.137894 0.123744 0.018499
v -0.137679 0.126201 0.018499
v -0.137040 0.128583 0.018499
v -0.135998 0.130819 0.018499
v -0.134583 0.132839 0.018499
v -0.132839 0.134583 0.018499
v -0.130819 0.135998 0.018499
v -0.128583 0.137040 0.018499
v -0.126201 0.137679 0.018499
v -0.123744 0.137894 0.018499
v -0.118904 0.110447 0.018499
v -0.116669 0.111489 0.018499
v -0.114648 0.112904 0.018499
v -0.112904 0.114648 0.018499
v -0.111489 0.116669 0.018499
v -0.110447 0.118904 0.018499
v -0.109809 0.121287 0.018499
v -0.121287 0.137679 0.018499
v -0.118904 0.137040 0.018499
v -0.112904 0.132839 0.018499
v -0.116669 0.135998 0.018499
v -0.114648 0.134583 0.018499
v -0.109594 0.123744 0.018499
v -0.109809 0.126201 0.018499
v -0.110447 0.128583 0.018499
v -0.111489 0.130819 0.018499
v -0.134150 0.115012 0.022191
v -0.135508 0.116952 0.022191
v -0.136508 0.119098 0.022191
v -0.132475 0.113338 0.022191
v -0.130536 0.111980 0.022191
v -0.128390 0.110979 0.022191
v -0.126103 0.110366 0.022191
v -0.123744 0.110160 0.022191
v -0.121385 0.110366 0.022191
v -0.137121 0.121385 0.022191
v -0.137328 0.123744 0.022191
v -0.137121 0.126103 0.022191
v -0.136508 0.128390 0.022191
v -0.135508 0.130536 0.022191
v -0.134150 0.132475 0.022191
v -0.132475 0.134150 0.022191
v -0.130536 0.135508 0.022191
v -0.128390 0.136508 0.022191
v -0.126103 0.137121 0.022191
v -0.123744 0.137328 0.022191
v -0.121385 0.137121 0.022191
v -0.119098 0.110979 0.022191
v -0.116952 0.111980 0.022191
v -0.115012 0.113338 0.022191
v -0.113338 0.115012 0.022191
v -0.111980 0.116952 0.022191
v -0.110979 0.119098 0.022191
v -0.110366 0.121385 0.022191
v -0.119098 0.136508 0.022191
v -0.113338 0.132475 0.022191
v -0.116952 0.135508 0.022191
v -0.115012 0.134150 0.022191
v -0.110160 0.123744 0.022191
v -0.110366 0.126103 0.022191
v -0.110979 0.128390 0.022191
v -0.111980 0.130536 0.022191
v -0.132415 0.116467 0.023969
v -0.134381 0.119872 0.023969
v -0.133547 0.118084 0.023969
v -0.131020 0.115072 0.023969
v -0.129404 0.113940 0.023969
v -0.127615 0.113106 0.023969
v -0.125709 0.112596 0.023969
v -0.123744 0.112424 0.023969
v -0.121778 0.112596 0.023969
v -0.134892 0.121778 0.023969
v -0.135064 0.123744 0.023969
v -0.134892 0.125709 0.023969
v -0.134381 0.127615 0.023969
v -0.133547 0.129404 0.023969
v -0.132415 0.131020 0.023969
v -0.131020 0.132415 0.023969
v -0.129404 0.133547 0.023969
v -0.127615 0.134381 0.023969
v -0.125709 0.134892 0.023969
v -0.123744 0.135064 0.023969
v -0.121778 0.134892 0.023969
v -0.119872 0.113106 0.023969
v -0.118084 0.113940 0.023969
v -0.116467 0.115072 0.023969
v -0.115072 0.116467 0.023969
v -0.113940 0.118084 0.023969
v -0.113106 0.119872 0.023969
v -0.119872 0.134381 0.023969
v -0.118084 0.133547 0.023969
v -0.116467 0.132415 0.023969
v -0.115072 0.131020 0.023969
v -0.113940 0.129404 0.023969
v -0.112596 0.121778 0.023969
v -0.112424 0.123744 0.023969
v -0.112596 0.125709 0.023969
v -0.113106 0.127615 0.023969
v -0.128890 0.120772 0.024652
v -0.128296 0.119924 0.024652
v -0.127564 0.119191 0.024652
v -0.126715 0.118597 0.024652
v -0.125776 0.118159 0.024652
v -0.124776 0.117891 0.024652
v -0.123744 0.117801 0.024652
v -0.122712 0.117891 0.024652
v -0.121711 0.118159 0.024652
v -0.123744 0.123744 0.024652
v -0.120772 0.118597 0.024652
v -0.119924 0.119191 0.024652
v -0.129328 0.121711 0.024652
v -0.129596 0.122712 0.024652
v -0.129687 0.123744 0.024652
v -0.129596 0.124776 0.024652
v -0.129328 0.125776 0.024652
v -0.128890 0.126715 0.024652
v -0.128296 0.127564 0.024652
v -0.127564 0.128296 0.024652
v -0.126715 0.128890 0.024652
v -0.125776 0.129328 0.024652
v -0.119191 0.119924 0.024652
v -0.124776 0.129596 0.024652
v -0.123744 0.129687 0.024652
v -0.122712 0.129596 0.024652
v -0.119924 0.128296 0.024652
v -0.120772 0.128890 0.024652
v -0.119191 0.127564 0.024652
v -0.121711 0.129328 0.024652
v -0.118597 0.120772 0.024652
v -0.118159 0.121711 0.024652
v -0.117891 0.122712 0.024652
v -0.117801 0.123744 0.024652
v -0.117891 0.124776 0.024652
v -0.118159 0.125776 0.024652
v -0.118597 0.126715 0.024652
v -0.128746 -0.129705 0.010979
v -0.130292 -0.131548 0.012346
v -0.129705 -0.128746 0.010979
v -0.131057 -0.126405 0.010979
v -0.133317 -0.127228 0.012346
v -0.131408 -0.125095 0.010979
v -0.131548 -0.130292 0.012346
v -0.130484 -0.127635 0.010979
v -0.132567 -0.128838 0.012346
v -0.133777 -0.125513 0.012346
v -0.131526 -0.123744 0.010979
v -0.133932 -0.123744 0.012346
v -0.131408 -0.122392 0.010979
v -0.133777 -0.121975 0.012346
v -0.131057 -0.121082 0.010979
v -0.127635 -0.130484 0.010979
v -0.128838 -0.132567 0.012346
v -0.126405 -0.131057 0.010979
v -0.127228 -0.133317 0.012346
v -0.125095 -0.131408 0.010979
v -0.125513 -0.133777 0.012346
v -0.123744 -0.131526 0.010979
v -0.123744 -0.133932 0.012346
v -0.122392 -0.131408 0.010979
v -0.121975 -0.133777 0.012346
v -0.121082 -0.131057 0.010979
v -0.120259 -0.133317 0.012346
v -0.123744 -0.123744 0.010979
v -0.130484 -0.119852 0.010979
v -0.129705 -0.118741 0.010979
v -0.119852 -0.130484 0.010979
v -0.118741 -0.129705 0.010979
v -0.133317 -0.120259 0.012346
v -0.132567 -0.118650 0.012346
v -0.131548 -0.117195 0.012346
v -0.128746 -0.117782 0.010979
v -0.127635 -0.117004 0.010979
v -0.126405 -0.116431 0.010979
v -0.125095 -0.116079 0.010979
v -0.123744 -0.115961 0.010979
v -0.122392 -0.116079 0.010979
v -0.121082 -0.116431 0.010979
v -0.119852 -0.117004 0.010979
v -0.118741 -0.117782 0.010979
v -0.130292 -0.115939 0.012346
v -0.128838 -0.114921 0.012346
v -0.127228 -0.114170 0.012346
v -0.125513 -0.113710 0.012346
v -0.123744 -0.113556 0.012346
v -0.121975 -0.113710 0.012346
v -0.120259 -0.114170 0.012346
v -0.118650 -0.132567 0.012346
v -0.117195 -0.131548 0.012346
v -0.117782 -0.128746 0.010979
v -0.115939 -0.130292 0.012346
v -0.117004 -0.127635 0.010979
v -0.116431 -0.126405 0.010979
v -0.116079 -0.125095 0.010979
v -0.115961 -0.123744 0.010979
v -0.116079 -0.122392 0.010979
v -0.116431 -0.121082 0.010979
v -0.117004 -0.119852 0.010979
v -0.117782 -0.118741 0.010979
v -0.114921 -0.128838 0.012346
v -0.114170 -0.127228 0.012346
v -0.113710 -0.125513 0.012346
v -0.113556 -0.123744 0.012346
v -0.114170 -0.120259 0.012346
v -0.113710 -0.121975 0.012346
v -0.118650 -0.114921 0.012346
v -0.115939 -0.117195 0.012346
v -0.117195 -0.115939 0.012346
v -0.114921 -0.118650 0.012346
v -0.133933 -0.132293 0.013987
v -0.132293 -0.133933 0.013987
v -0.130394 -0.135263 0.013987
v -0.135263 -0.130394 0.013987
v -0.136843 -0.126053 0.013987
v -0.136243 -0.128293 0.013987
v -0.137045 -0.123744 0.013987
v -0.136843 -0.121434 0.013987
v -0.128293 -0.136243 0.013987
v -0.126053 -0.136843 0.013987
v -0.123744 -0.137045 0.013987
v -0.121434 -0.136843 0.013987
v -0.119194 -0.136243 0.013987
v -0.136243 -0.119194 0.013987
v -0.135263 -0.117093 0.013987
v -0.133933 -0.115194 0.013987
v -0.132293 -0.113555 0.013987
v -0.130394 -0.112225 0.013987
v -0.128293 -0.111245 0.013987
v -0.126053 -0.110645 0.013987
v -0.123744 -0.110443 0.013987
v -0.121434 -0.110645 0.013987
v -0.117093 -0.135263 0.013987
v -0.115194 -0.133933 0.013987
v -0.113555 -0.132293 0.013987
v -0.112225 -0.130394 0.013987
v -0.111245 -0.128293 0.013987
v -0.110645 -0.126053 0.013987
v -0.110443 -0.123744 0.013987
v -0.110645 -0.121434 0.013987
v -0.111245 -0.119194 0.013987
v -0.119194 -0.111245 0.013987
v -0.117093 -0.112225 0.013987
v -0.113555 -0.115194 0.013987
v -0.112225 -0.117093 0.013987
v -0.115194 -0.113555 0.013987
v -0.135998 -0.130819 0.018499
v -0.134583 -0.132839 0.018499
v -0.132839 -0.134583 0.018499
v -0.130819 -0.135998 0.018499
v -0.137040 -0.128583 0.018499
v -0.137679 -0.126201 0.018499
v -0.137894 -0.123744 0.018499
v -0.128583 -0.137040 0.018499
v -0.126201 -0.137679 0.018499
v -0.123744 -0.137894 0.018499
v -0.121287 -0.137679 0.018499
v -0.137679 -0.121287 0.018499
v -0.137040 -0.118904 0.018499
v -0.135998 -0.116669 0.018499
v -0.134583 -0.114648 0.018499
v -0.132839 -0.112904 0.018499
v -0.130819 -0.111489 0.018499
v -0.128583 -0.110447 0.018499
v -0.126201 -0.109809 0.018499
v -0.123744 -0.109594 0.018499
v -0.118904 -0.137040 0.018499
v -0.116669 -0.135998 0.018499
v -0.114648 -0.134583 0.018499
v -0.112904 -0.132839 0.018499
v -0.111489 -0.130819 0.018499
v -0.110447 -0.128583 0.018499
v -0.109809 -0.126201 0.018499
v -0.109594 -0.123744 0.018499
v -0.109809 -0.121287 0.018499
v -0.116669 -0.111489 0.018499
v -0.114648 -0.112904 0.018499
v -0.112904 -0.114648 0.018499
v -0.121287 -0.109809 0.018499
v -0.118904 -0.110447 0.018499
v -0.110447 -0.118904 0.018499
v -0.111489 -0.116669 0.018499
v -0.135508 -0.130536 0.022191
v -0.134150 -0.132475 0.022191
v -0.132475 -0.134150 0.022191
v -0.130536 -0.135508 0.022191
v -0.136508 -0.128390 0.022191
v -0.137121 -0.126103 0.022191
v -0.137328 -0.123744 0.022191
v -0.128390 -0.136508 0.022191
v -0.126103 -0.137121 0.022191
v -0.123744 -0.137328 0.022191
v -0.121385 -0.137121 0.022191
v -0.137121 -0.121385 0.022191
v -0.136508 -0.119098 0.022191
v -0.135508 -0.116952 0.022191
v -0.134150 -0.115012 0.022191
v -0.132475 -0.113338 0.022191
v -0.130536 -0.111980 0.022191
v -0.128390 -0.110979 0.022191
v -0.126103 -0.110366 0.022191
v -0.123744 -0.110160 0.022191
v -0.121385 -0.110366 0.022191
v -0.119098 -0.136508 0.022191
v -0.116952 -0.135508 0.022191
v -0.115012 -0.134150 0.022191
v -0.113338 -0.132475 0.022191
v -0.111980 -0.130536 0.022191
v -0.110979 -0.128390 0.022191
v -0.110366 -0.126103 0.022191
v -0.110366 -0.121385 0.022191
v -0.110160 -0.123744 0.022191
v -0.116952 -0.111980 0.022191
v -0.113338 -0.115012 0.022191
v -0.115012 -0.113338 0.022191
v -0.119098 -0.110979 0.022191
v -0.110979 -0.119098 0.022191
v -0.111980 -0.116952 0.022191
v -0.133547 -0.129404 0.023969
v -0.132415 -0.131020 0.023969
v -0.129404 -0.133547 0.023969
v -0.131020 -0.132415 0.023969
v -0.134381 -0.127615 0.023969
v -0.134892 -0.125709 0.023969
v -0.135064 -0.123744 0.023969
v -0.134892 -0.121778 0.023969
v -0.127615 -0.134381 0.023969
v -0.125709 -0.134892 0.023969
v -0.123744 -0.135064 0.023969
v -0.121778 -0.134892 0.023969
v -0.134381 -0.119872 0.023969
v -0.133547 -0.118084 0.023969
v -0.132415 -0.116467 0.023969
v -0.131020 -0.115072 0.023969
v -0.129404 -0.113940 0.023969
v -0.127615 -0.113106 0.023969
v -0.125709 -0.112596 0.023969
v -0.123744 -0.112424 0.023969
v -0.121778 -0.112596 0.023969
v -0.119872 -0.134381 0.023969
v -0.118084 -0.133547 0.023969
v -0.116467 -0.132415 0.023969
v -0.115072 -0.131020 0.023969
v -0.113940 -0.129404 0.023969
v -0.113106 -0.127615 0.023969
v -0.112596 -0.125709 0.023969
v -0.112424 -0.123744 0.023969
v -0.112596 -0.121778 0.023969
v -0.118084 -0.113940 0.023969
v -0.113940 -0.118084 0.023969
v -0.116467 -0.115072 0.023969
v -0.115072 -0.116467 0.023969
v -0.119872 -0.113106 0.023969
v -0.113106 -0.119872 0.023969
v -0.128296 -0.127564 0.024652
v -0.127564 -0.128296 0.024652
v -0.128890 -0.126715 0.024652
v -0.129328 -0.125776 0.024652
v -0.129596 -0.124776 0.024652
v -0.129687 -0.123744 0.024652
v -0.129596 -0.122712 0.024652
v -0.129328 -0.121711 0.024652
v -0.126715 -0.128890 0.024652
v -0.125776 -0.129328 0.024652
v -0.124776 -0.129596 0.024652
v -0.123744 -0.129687 0.024652
v -0.122712 -0.129596 0.024652
v -0.121711 -0.129328 0.024652
v -0.120772 -0.128890 0.024652
v -0.123744 -0.123744 0.024652
v -0.128890 -0.120772 0.024652
v -0.128296 -0.119924 0.024652
v -0.127564 -0.119191 0.024652
v -0.119924 -0.128296 0.024652
v -0.119191 -0.127564 0.024652
v -0.119191 -0.119924 0.024652
v -0.119924 -0.119191 0.024652
v -0.126715 -0.118597 0.024652
v -0.125776 -0.118159 0.024652
v -0.124776 -0.117891 0.024652
v -0.123744 -0.117801 0.024652
v -0.122712 -0.117891 0.024652
v -0.121711 -0.118159 0.024652
v -0.120772 -0.118597 0.024652
v -0.118597 -0.126715 0.024652
v -0.118159 -0.125776 0.024652
v -0.117891 -0.124776 0.024652
v -0.117801 -0.123744 0.024652
v -0.117891 -0.122712 0.024652
v -0.118159 -0.121711 0.024652
v -0.118597 -0.120772 0.024652
v 0.118741 -0.129705 0.010979
v 0.117195 -0.131548 0.012346
v 0.117782 -0.128746 0.010979
v 0.121082 -0.131057 0.010979
v 0.120259 -0.133317 0.012346
v 0.119852 -0.130484 0.010979
v 0.118650 -0.132567 0.012346
v 0.123744 -0.123744 0.010979
v 0.117004 -0.127635 0.010979
v 0.116431 -0.126405 0.010979
v 0.116079 -0.125095 0.010979
v 0.115961 -0.123744 0.010979
v 0.116079 -0.122392 0.010979
v 0.116431 -0.121082 0.010979
v 0.117004 -0.119852 0.010979
v 0.117782 -0.118741 0.010979
v 0.114921 -0.128838 0.012346
v 0.114170 -0.127228 0.012346
v 0.113710 -0.125513 0.012346
v 0.113556 -0.123744 0.012346
v 0.113710 -0.121975 0.012346
v 0.115939 -0.130292 0.012346
v 0.114170 -0.120259 0.012346
v 0.118741 -0.117782 0.010979
v 0.114921 -0.118650 0.012346
v 0.115939 -0.117195 0.012346
v 0.117195 -0.115939 0.012346
v 0.119852 -0.117004 0.010979
v 0.118650 -0.114921 0.012346
v 0.121082 -0.116431 0.010979
v 0.120259 -0.114170 0.012346
v 0.122392 -0.131408 0.010979
v 0.121975 -0.133777 0.012346
v 0.123744 -0.131526 0.010979
v 0.123744 -0.133932 0.012346
v 0.125095 -0.131408 0.010979
v 0.125513 -0.133777 0.012346
v 0.126405 -0.131057 0.010979
v 0.127228 -0.133317 0.012346
v 0.127635 -0.130484 0.010979
v 0.128838 -0.132567 0.012346
v 0.128746 -0.129705 0.010979
v 0.130292 -0.131548 0.012346
v 0.129705 -0.128746 0.010979
v 0.130484 -0.127635 0.010979
v 0.131057 -0.126405 0.010979
v 0.131408 -0.125095 0.010979
v 0.131526 -0.123744 0.010979
v 0.131408 -0.122392 0.010979
v 0.129705 -0.118741 0.010979
v 0.130484 -0.119852 0.010979
v 0.131057 -0.121082 0.010979
v 0.131548 -0.130292 0.012346
v 0.132567 -0.128838 0.012346
v 0.133317 -0.127228 0.012346
v 0.133777 -0.125513 0.012346
v 0.133932 -0.123744 0.012346
v 0.133777 -0.121975 0.012346
v 0.133317 -0.120259 0.012346
v 0.122392 -0.116079 0.010979
v 0.123744 -0.115961 0.010979
v 0.125095 -0.116079 0.010979
v 0.126405 -0.116431 0.010979
v 0.127635 -0.117004 0.010979
v 0.128746 -0.117782 0.010979
v 0.121975 -0.113710 0.012346
v 0.123744 -0.113556 0.012346
v 0.128838 -0.114921 0.012346
v 0.125513 -0.113710 0.012346
v 0.127228 -0.114170 0.012346
v 0.132567 -0.118650 0.012346
v 0.131548 -0.117195 0.012346
v 0.130292 -0.115939 0.012346
v 0.111245 -0.128293 0.013987
v 0.110645 -0.126053 0.013987
v 0.110443 -0.123744 0.013987
v 0.110645 -0.121434 0.013987
v 0.115194 -0.133933 0.013987
v 0.113555 -0.132293 0.013987
v 0.119194 -0.136243 0.013987
v 0.117093 -0.135263 0.013987
v 0.112225 -0.130394 0.013987
v 0.121434 -0.136843 0.013987
v 0.111245 -0.119194 0.013987
v 0.112225 -0.117093 0.013987
v 0.113555 -0.115194 0.013987
v 0.115194 -0.113555 0.013987
v 0.117093 -0.112225 0.013987
v 0.119194 -0.111245 0.013987
v 0.123744 -0.137045 0.013987
v 0.126053 -0.136843 0.013987
v 0.128293 -0.136243 0.013987
v 0.130394 -0.135263 0.013987
v 0.132293 -0.133933 0.013987
v 0.133933 -0.132293 0.013987
v 0.135263 -0.130394 0.013987
v 0.136243 -0.128293 0.013987
v 0.136843 -0.126053 0.013987
v 0.137045 -0.123744 0.013987
v 0.136843 -0.121434 0.013987
v 0.136243 -0.119194 0.013987
v 0.121434 -0.110645 0.013987
v 0.123744 -0.110443 0.013987
v 0.126053 -0.110645 0.013987
v 0.128293 -0.111245 0.013987
v 0.130394 -0.112225 0.013987
v 0.133933 -0.115194 0.013987
v 0.132293 -0.113555 0.013987
v 0.135263 -0.117093 0.013987
v 0.111489 -0.130819 0.018499
v 0.110447 -0.128583 0.018499
v 0.109809 -0.126201 0.018499
v 0.109594 -0.123744 0.018499
v 0.114648 -0.134583 0.018499
v 0.116669 -0.135998 0.018499
v 0.112904 -0.132839 0.018499
v 0.118904 -0.137040 0.018499
v 0.121287 -0.137679 0.018499
v 0.109809 -0.121287 0.018499
v 0.110447 -0.118904 0.018499
v 0.111489 -0.116669 0.018499
v 0.112904 -0.114648 0.018499
v 0.114648 -0.112904 0.018499
v 0.116669 -0.111489 0.018499
v 0.118904 -0.110447 0.018499
v 0.123744 -0.137894 0.018499
v 0.126201 -0.137679 0.018499
v 0.128583 -0.137040 0.018499
v 0.130819 -0.135998 0.018499
v 0.132839 -0.134583 0.018499
v 0.134583 -0.132839 0.018499
v 0.135998 -0.130819 0.018499
v 0.137040 -0.128583 0.018499
v 0.137679 -0.126201 0.018499
v 0.137894 -0.123744 0.018499
v 0.137679 -0.121287 0.018499
v 0.121287 -0.109809 0.018499
v 0.123744 -0.109594 0.018499
v 0.126201 -0.109809 0.018499
v 0.128583 -0.110447 0.018499
v 0.130819 -0.111489 0.018499
v 0.132839 -0.112904 0.018499
v 0.137040 -0.118904 0.018499
v 0.135998 -0.116669 0.018499
v 0.134583 -0.114648 0.018499
v 0.111980 -0.130536 0.022191
v 0.110979 -0.128390 0.022191
v 0.110366 -0.126103 0.022191
v 0.110160 -0.123744 0.022191
v 0.115012 -0.134150 0.022191
v 0.116952 -0.135508 0.022191
v 0.113338 -0.132475 0.022191
v 0.119098 -0.136508 0.022191
v 0.121385 -0.137121 0.022191
v 0.110366 -0.121385 0.022191
v 0.110979 -0.119098 0.022191
v 0.111980 -0.116952 0.022191
v 0.113338 -0.115012 0.022191
v 0.115012 -0.113338 0.022191
v 0.116952 -0.111980 0.022191
v 0.119098 -0.110979 0.022191
v 0.121385 -0.110366 0.022191
v 0.123744 -0.137328 0.022191
v 0.126103 -0.137121 0.022191
v 0.128390 -0.136508 0.022191
v 0.130536 -0.135508 0.022191
v 0.132475 -0.134150 0.022191
v 0.134150 -0.132475 0.022191
v 0.135508 -0.130536 0.022191
v 0.136508 -0.128390 0.022191
v 0.137121 -0.126103 0.022191
v 0.137328 -0.123744 0.022191
v 0.137121 -0.121385 0.022191
v 0.123744 -0.110160 0.022191
v 0.126103 -0.110366 0.022191
v 0.128390 -0.110979 0.022191
v 0.130536 -0.111980 0.022191
v 0.132475 -0.113338 0.022191
v 0.136508 -0.119098 0.022191
v 0.135508 -0.116952 0.022191
v 0.134150 -0.115012 0.022191
v 0.113106 -0.127615 0.023969
v 0.112596 -0.125709 0.023969
v 0.112424 -0.123744 0.023969
v 0.112596 -0.121778 0.023969
v 0.113940 -0.129404 0.023969
v 0.115072 -0.131020 0.023969
v 0.116467 -0.132415 0.023969
v 0.118084 -0.133547 0.023969
v 0.119872 -0.134381 0.023969
v 0.113106 -0.119872 0.023969
v 0.113940 -0.118084 0.023969
v 0.115072 -0.116467 0.023969
v 0.116467 -0.115072 0.023969
v 0.118084 -0.113940 0.023969
v 0.119872 -0.113106 0.023969
v 0.121778 -0.134892 0.023969
v 0.123744 -0.135064 0.023969
v 0.125709 -0.134892 0.023969
v 0.127615 -0.134381 0.023969
v 0.129404 -0.133547 0.023969
v 0.131020 -0.132415 0.023969
v 0.132415 -0.131020 0.023969
v 0.133547 -0.129404 0.023969
v 0.134381 -0.127615 0.023969
v 0.134892 -0.125709 0.023969
v 0.135064 -0.123744 0.023969
v 0.134892 -0.121778 0.023969
v 0.121778 -0.112596 0.023969
v 0.123744 -0.112424 0.023969
v 0.125709 -0.112596 0.023969
v 0.127615 -0.113106 0.023969
v 0.129404 -0.113940 0.023969
v 0.131020 -0.115072 0.023969
v 0.133547 -0.118084 0.023969
v 0.134381 -0.119872 0.023969
v 0.132415 -0.116467 0.023969
v 0.119191 -0.127564 0.024652
v 0.120772 -0.128890 0.024652
v 0.119924 -0.128296 0.024652
v 0.121711 -0.129328 0.024652
v 0.118597 -0.126715 0.024652
v 0.118159 -0.125776 0.024652
v 0.117891 -0.124776 0.024652
v 0.117801 -0.123744 0.024652
v 0.117891 -0.122712 0.024652
v 0.123744 -0.123744 0.024652
v 0.118159 -0.121711 0.024652
v 0.118597 -0.120772 0.024652
v 0.119191 -0.119924 0.024652
v 0.119924 -0.119191 0.024652
v 0.120772 -0.118597 0.024652
v 0.122712 -0.129596 0.024652
v 0.123744 -0.129687 0.024652
v 0.124776 -0.129596 0.024652
v 0.125776 -0.129328 0.024652
v 0.126715 -0.128890 0.024652
v 0.127564 -0.128296 0.024652
v 0.128296 -0.127564 0.024652
v 0.128890 -0.126715 0.024652
v 0.129328 -0.125776 0.024652
v 0.128296 -0.119924 0.024652
v 0.127564 -0.119191 0.024652
v 0.128890 -0.120772 0.024652
v 0.129596 -0.124776 0.024652
v 0.129687 -0.123744 0.024652
v 0.129596 -0.122712 0.024652
v 0.129328 -0.121711 0.024652
v 0.121711 -0.118159 0.024652
v 0.122712 -0.117891 0.024652
v 0.123744 -0.117801 0.024652
v 0.124776 -0.117891 0.024652
v 0.125776 -0.118159 0.024652
v 0.126715 -0.118597 0.024652
f 1 2 3
f 4 5 6
f 7 8 9
f 2 10 3
f 3 11 4
f 9 12 2
f 5 13 6
f 11 5 4
f 12 10 2
f 8 12 9
f 10 11 3
f 1 3 4
f 1 4 6
f 1 6 14
f 1 14 15
f 1 15 16
f 1 16 17
f 1 17 18
f 1 18 19
f 1 19 20
f 14 21 15
f 6 13 14
f 15 22 16
f 16 23 17
f 17 24 18
f 18 25 19
f 19 26 20
f 20 27 28
f 28 29 30
f 13 21 14
f 21 22 15
f 22 23 16
f 23 24 17
f 24 25 18
f 25 26 19
f 26 27 20
f 27 29 28
f 29 31 30
f 1 9 2
f 1 7 9
f 1 32 7
f 1 33 32
f 1 34 33
f 1 35 34
f 1 36 35
f 1 37 36
f 1 38 37
f 32 39 7
f 33 40 32
f 34 41 33
f 35 42 34
f 36 43 35
f 37 44 36
f 38 45 37
f 46 47 38
f 48 49 46
f 39 8 7
f 40 39 32
f 41 40 33
f 42 41 34
f 43 42 35
f 44 43 36
f 45 44 37
f 47 45 38
f 49 47 46
f 1 20 28
f 1 28 30
f 1 30 50
f 1 50 51
f 1 51 52
f 1 46 38
f 1 48 46
f 1 53 48
f 1 54 53
f 1 55 54
f 1 52 56
f 1 56 57
f 1 57 58
f 1 59 60
f 1 61 55
f 1 60 61
f 1 58 59
f 30 31 50
f 50 62 51
f 51 63 52
f 52 64 56
f 56 65 57
f 57 66 58
f 53 67 48
f 54 68 53
f 55 69 54
f 60 70 61
f 59 71 60
f 61 72 55
f 58 73 59
f 31 62 50
f 62 63 51
f 63 64 52
f 64 65 56
f 65 66 57
f 67 49 48
f 68 67 53
f 69 68 54
f 72 69 55
f 70 72 61
f 71 70 60
f 66 73 58
f 73 71 59
f 74 75 8
f 10 76 11
f 13 77 21
f 5 78 13
f 11 79 5
f 12 80 10
f 8 75 12
f 76 79 11
f 79 78 5
f 78 77 13
f 80 76 10
f 75 80 12
f 77 81 21
f 81 82 22
f 82 83 23
f 83 84 24
f 21 81 22
f 22 82 23
f 23 83 24
f 24 84 25
f 84 85 25
f 25 85 26
f 26 86 27
f 27 87 29
f 29 88 31
f 31 89 62
f 85 86 26
f 86 87 27
f 87 88 29
f 88 89 31
f 90 74 39
f 91 90 40
f 92 91 41
f 39 74 8
f 40 90 39
f 41 91 40
f 42 92 41
f 43 93 42
f 93 92 42
f 44 94 43
f 45 95 44
f 47 96 45
f 49 97 47
f 94 93 43
f 95 94 44
f 96 95 45
f 97 96 47
f 98 97 49
f 62 99 63
f 63 100 64
f 64 101 65
f 65 102 66
f 89 99 62
f 99 100 63
f 100 101 64
f 101 102 65
f 102 103 66
f 67 98 49
f 68 104 67
f 72 105 69
f 69 106 68
f 70 107 72
f 104 98 67
f 106 104 68
f 105 106 69
f 107 105 72
f 66 103 73
f 73 108 71
f 71 109 70
f 103 108 73
f 108 109 71
f 109 107 70
f 78 110 77
f 77 111 81
f 75 112 80
f 74 113 75
f 79 114 78
f 76 115 79
f 80 116 76
f 81 117 82
f 82 118 83
f 83 119 84
f 84 120 85
f 85 121 86
f 86 122 87
f 87 123 88
f 88 124 89
f 89 125 99
f 90 126 74
f 91 127 90
f 92 128 91
f 93 129 92
f 94 130 93
f 95 131 94
f 96 132 95
f 97 133 96
f 98 134 97
f 99 135 100
f 100 136 101
f 101 137 102
f 102 138 103
f 104 139 98
f 106 140 104
f 105 141 106
f 103 142 108
f 108 143 109
f 109 144 107
f 107 145 105
f 110 111 77
f 111 117 81
f 112 116 80
f 113 112 75
f 114 110 78
f 115 114 79
f 116 115 76
f 117 118 82
f 118 119 83
f 119 120 84
f 120 121 85
f 121 122 86
f 122 123 87
f 123 124 88
f 124 125 89
f 125 135 99
f 126 113 74
f 127 126 90
f 128 127 91
f 129 128 92
f 130 129 93
f 131 130 94
f 132 131 95
f 133 132 96
f 134 133 97
f 135 136 100
f 136 137 101
f 137 138 102
f 139 134 98
f 140 139 104
f 141 140 106
f 145 141 105
f 138 142 103
f 142 143 108
f 144 145 107
f 143 144 109
f 110 146 111
f 111 147 117
f 112 148 116
f 113 149 112
f 115 150 114
f 114 151 110
f 116 152 115
f 146 147 111
f 147 153 117
f 148 152 116
f 149 148 112
f 151 146 110
f 150 151 114
f 152 150 115
f 118 154 119
f 117 153 118
f 119 155 120
f 120 156 121
f 121 157 122
f 122 158 123
f 123 159 124
f 124 160 125
f 125 161 135
f 153 154 118
f 154 155 119
f 155 156 120
f 156 157 121
f 157 158 122
f 158 159 123
f 159 160 124
f 160 161 125
f 161 162 135
f 126 163 113
f 127 164 126
f 128 165 127
f 129 166 128
f 130 167 129
f 131 168 130
f 132 169 131
f 133 170 132
f 134 171 133
f 163 149 113
f 164 163 126
f 165 164 127
f 166 165 128
f 167 166 129
f 168 167 130
f 169 168 131
f 170 169 132
f 171 170 133
f 135 162 136
f 136 172 137
f 137 173 138
f 138 174 142
f 139 175 134
f 140 176 139
f 141 177 140
f 142 178 143
f 143 179 144
f 144 180 145
f 145 181 141
f 162 172 136
f 172 173 137
f 173 174 138
f 175 171 134
f 176 175 139
f 177 176 140
f 181 177 141
f 174 178 142
f 178 179 143
f 180 181 145
f 179 180 144
f 147 182 153
f 148 183 152
f 151 184 146
f 150 185 151
f 146 186 147
f 152 187 150
f 153 188 154
f 154 189 155
f 155 190 156
f 156 191 157
f 157 192 158
f 158 193 159
f 159 194 160
f 160 195 161
f 161 196 162
f 149 197 148
f 163 198 149
f 164 199 163
f 165 200 164
f 166 201 165
f 167 202 166
f 168 203 167
f 169 204 168
f 170 205 169
f 162 206 172
f 172 207 173
f 173 208 174
f 174 209 178
f 171 210 170
f 175 211 171
f 176 212 175
f 177 213 176
f 179 214 180
f 178 215 179
f 180 216 181
f 181 217 177
f 185 184 151
f 184 186 146
f 186 182 147
f 187 185 150
f 183 187 152
f 197 183 148
f 184 218 186
f 186 219 182
f 187 220 185
f 183 221 187
f 185 222 184
f 218 219 186
f 222 218 184
f 220 222 185
f 221 220 187
f 182 188 153
f 188 189 154
f 189 190 155
f 190 191 156
f 191 192 157
f 192 193 158
f 193 194 159
f 194 195 160
f 195 196 161
f 182 223 188
f 188 224 189
f 189 225 190
f 190 226 191
f 191 227 192
f 192 228 193
f 223 224 188
f 224 225 189
f 225 226 190
f 219 223 182
f 229 219 218
f 229 224 223
f 229 223 219
f 229 225 224
f 229 226 225
f 229 227 226
f 226 227 191
f 227 228 192
f 228 230 193
f 229 228 227
f 229 230 228
f 193 230 194
f 194 231 195
f 195 232 196
f 230 231 194
f 231 232 195
f 198 197 149
f 199 198 163
f 200 199 164
f 201 200 165
f 202 201 166
f 203 202 167
f 204 203 168
f 205 204 169
f 210 205 170
f 197 233 183
f 198 234 197
f 199 235 198
f 200 236 199
f 201 237 200
f 234 233 197
f 235 234 198
f 233 221 183
f 229 222 220
f 229 220 221
f 229 221 233
f 229 233 234
f 229 234 235
f 229 235 236
f 236 235 199
f 237 236 200
f 238 237 201
f 239 238 202
f 229 236 237
f 229 237 238
f 202 238 201
f 203 239 202
f 204 240 203
f 205 241 204
f 240 239 203
f 241 240 204
f 196 206 162
f 206 207 172
f 207 208 173
f 208 209 174
f 209 215 178
f 211 210 171
f 212 211 175
f 213 212 176
f 217 213 177
f 215 214 179
f 214 216 180
f 216 217 181
f 229 218 222
f 229 231 230
f 229 232 231
f 229 242 232
f 229 243 242
f 229 244 243
f 229 245 244
f 229 246 245
f 229 238 239
f 229 239 240
f 229 240 241
f 229 241 247
f 229 247 248
f 229 249 250
f 229 248 249
f 229 251 252
f 229 253 254
f 229 254 251
f 229 252 246
f 229 250 253
f 196 242 206
f 206 243 207
f 207 244 208
f 208 245 209
f 209 246 215
f 215 252 214
f 232 242 196
f 242 243 206
f 244 245 208
f 243 244 207
f 245 246 209
f 246 252 215
f 252 251 214
f 210 247 205
f 211 248 210
f 212 249 211
f 213 250 212
f 217 253 213
f 247 241 205
f 248 247 210
f 249 248 211
f 250 249 212
f 253 250 213
f 254 253 217
f 251 254 216
f 214 251 216
f 216 254 217
f 255 256 257
f 257 258 259
f 259 260 261
f 262 255 257
f 262 263 255
f 262 264 263
f 262 265 264
f 262 266 265
f 262 267 266
f 262 268 267
f 262 269 268
f 262 270 269
f 264 271 263
f 265 272 264
f 263 273 255
f 266 274 265
f 267 275 266
f 268 276 267
f 273 256 255
f 258 260 259
f 260 277 261
f 256 258 257
f 271 273 263
f 272 271 264
f 274 272 265
f 275 274 266
f 276 275 267
f 261 277 278
f 278 279 280
f 280 281 282
f 282 283 284
f 284 285 286
f 286 287 288
f 288 289 290
f 262 259 261
f 262 261 278
f 262 257 259
f 262 278 280
f 262 280 282
f 262 282 284
f 262 284 286
f 262 286 288
f 262 288 290
f 262 290 291
f 262 291 292
f 262 292 293
f 262 293 294
f 262 294 295
f 262 295 296
f 262 297 298
f 262 296 297
f 290 299 291
f 291 300 292
f 292 301 293
f 293 302 294
f 294 303 295
f 295 304 296
f 277 279 278
f 279 281 280
f 281 283 282
f 283 285 284
f 285 287 286
f 287 289 288
f 289 299 290
f 299 300 291
f 300 301 292
f 301 302 293
f 302 303 294
f 303 304 295
f 304 305 296
f 262 306 270
f 269 307 268
f 270 308 269
f 306 309 270
f 310 311 306
f 312 313 310
f 307 276 268
f 308 307 269
f 309 308 270
f 311 309 306
f 313 311 310
f 262 310 306
f 262 312 310
f 262 314 312
f 262 315 314
f 262 316 315
f 262 317 318
f 262 318 316
f 262 319 317
f 262 298 319
f 319 320 317
f 314 321 312
f 315 322 314
f 316 323 315
f 318 324 316
f 317 325 318
f 297 326 298
f 296 305 297
f 298 327 319
f 321 313 312
f 322 321 314
f 323 322 315
f 324 323 316
f 320 325 317
f 325 324 318
f 305 326 297
f 326 327 298
f 327 320 319
f 260 328 277
f 277 329 279
f 256 330 258
f 273 331 256
f 258 332 260
f 332 328 260
f 328 329 277
f 330 332 258
f 331 330 256
f 333 334 271
f 335 333 272
f 336 335 274
f 337 336 275
f 271 334 273
f 272 333 271
f 274 335 272
f 275 336 274
f 334 331 273
f 279 338 281
f 281 339 283
f 283 340 285
f 285 341 287
f 338 339 281
f 329 338 279
f 339 340 283
f 340 341 285
f 341 342 287
f 287 342 289
f 289 343 299
f 299 344 300
f 342 343 289
f 343 344 299
f 344 345 300
f 300 345 301
f 301 346 302
f 302 347 303
f 303 348 304
f 304 349 305
f 345 346 301
f 346 347 302
f 347 348 303
f 348 349 304
f 276 337 275
f 307 350 276
f 308 351 307
f 309 352 308
f 311 353 309
f 313 354 311
f 350 337 276
f 351 350 307
f 352 351 308
f 353 352 309
f 354 353 311
f 355 354 313
f 321 355 313
f 322 356 321
f 323 357 322
f 324 358 323
f 325 359 324
f 359 358 324
f 326 360 327
f 305 361 326
f 320 362 325
f 327 363 320
f 360 363 327
f 349 361 305
f 361 360 326
f 363 362 320
f 362 359 325
f 356 355 321
f 357 356 322
f 358 357 323
f 332 364 328
f 328 365 329
f 329 366 338
f 330 367 332
f 331 368 330
f 334 369 331
f 333 370 334
f 335 371 333
f 336 372 335
f 338 373 339
f 339 374 340
f 340 375 341
f 341 376 342
f 342 377 343
f 343 378 344
f 344 379 345
f 345 380 346
f 346 381 347
f 347 382 348
f 348 383 349
f 337 384 336
f 350 385 337
f 351 386 350
f 352 387 351
f 353 388 352
f 354 389 353
f 355 390 354
f 349 391 361
f 361 392 360
f 362 393 359
f 360 394 363
f 363 395 362
f 356 396 355
f 357 397 356
f 358 398 357
f 359 399 358
f 369 368 331
f 364 365 328
f 367 364 332
f 365 366 329
f 366 373 338
f 368 367 330
f 370 369 334
f 371 370 333
f 372 371 335
f 373 374 339
f 374 375 340
f 375 376 341
f 376 377 342
f 377 378 343
f 378 379 344
f 379 380 345
f 380 381 346
f 381 382 347
f 382 383 348
f 383 391 349
f 384 372 336
f 385 384 337
f 386 385 350
f 387 386 351
f 388 387 352
f 389 388 353
f 390 389 354
f 391 392 361
f 392 394 360
f 393 399 359
f 395 393 362
f 394 395 363
f 396 390 355
f 397 396 356
f 398 397 357
f 399 398 358
f 364 400 365
f 365 401 366
f 366 402 373
f 367 403 364
f 368 404 367
f 369 405 368
f 370 406 369
f 371 407 370
f 372 408 371
f 405 404 368
f 400 401 365
f 403 400 364
f 401 402 366
f 402 409 373
f 404 403 367
f 406 405 369
f 407 406 370
f 408 407 371
f 373 409 374
f 374 410 375
f 375 411 376
f 376 412 377
f 377 413 378
f 378 414 379
f 379 415 380
f 380 416 381
f 381 417 382
f 382 418 383
f 383 419 391
f 409 410 374
f 410 411 375
f 411 412 376
f 412 413 377
f 413 414 378
f 414 415 379
f 415 416 380
f 416 417 381
f 417 418 382
f 418 419 383
f 419 420 391
f 384 421 372
f 385 422 384
f 386 423 385
f 387 424 386
f 388 425 387
f 389 426 388
f 390 427 389
f 421 408 372
f 422 421 384
f 423 422 385
f 424 423 386
f 425 424 387
f 426 425 388
f 427 426 389
f 391 420 392
f 392 428 394
f 393 429 399
f 394 430 395
f 395 431 393
f 396 432 390
f 397 433 396
f 398 434 397
f 399 435 398
f 420 428 392
f 428 430 394
f 429 435 399
f 431 429 393
f 430 431 395
f 432 427 390
f 433 432 396
f 434 433 397
f 435 434 398
f 400 436 401
f 402 437 409
f 401 438 402
f 403 439 400
f 404 440 403
f 405 441 404
f 406 442 405
f 407 443 406
f 408 444 407
f 409 445 410
f 410 446 411
f 411 447 412
f 412 448 413
f 413 449 414
f 414 450 415
f 415 451 416
f 416 452 417
f 417 453 418
f 418 454 419
f 419 455 420
f 420 456 428
f 421 457 408
f 422 458 421
f 423 459 422
f 424 460 423
f 425 461 424
f 426 462 425
f 428 463 430
f 430 464 431
f 431 465 429
f 429 466 435
f 435 467 434
f 427 468 426
f 432 469 427
f 433 470 432
f 434 471 433
f 436 438 401
f 438 437 402
f 439 436 400
f 440 439 403
f 443 442 406
f 444 443 407
f 457 444 408
f 441 440 404
f 442 441 405
f 438 472 437
f 436 473 438
f 439 474 436
f 474 473 436
f 473 472 438
f 440 475 439
f 441 476 440
f 442 477 441
f 443 478 442
f 444 479 443
f 457 480 444
f 475 474 439
f 476 475 440
f 477 476 441
f 481 474 475
f 481 475 476
f 478 477 442
f 479 478 443
f 480 479 444
f 482 480 457
f 481 476 477
f 481 477 478
f 481 478 479
f 481 479 480
f 481 480 482
f 481 482 483
f 445 446 410
f 437 445 409
f 446 447 411
f 447 448 412
f 448 449 413
f 449 450 414
f 450 451 415
f 451 452 416
f 452 453 417
f 453 454 418
f 454 455 419
f 455 456 420
f 437 484 445
f 445 485 446
f 446 486 447
f 447 487 448
f 448 488 449
f 449 489 450
f 485 486 446
f 472 484 437
f 484 485 445
f 486 487 447
f 487 488 448
f 488 489 449
f 489 490 450
f 450 490 451
f 451 491 452
f 481 484 472
f 481 485 484
f 481 486 485
f 481 487 486
f 481 488 487
f 481 472 473
f 481 473 474
f 481 489 488
f 481 490 489
f 481 491 490
f 481 492 491
f 481 493 492
f 481 483 494
f 481 495 493
f 481 496 495
f 481 497 496
f 481 498 499
f 481 500 498
f 481 501 497
f 481 499 501
f 452 492 453
f 453 493 454
f 454 495 455
f 455 496 456
f 456 497 463
f 490 491 451
f 491 492 452
f 492 493 453
f 493 495 454
f 495 496 455
f 496 497 456
f 497 501 463
f 458 457 421
f 459 458 422
f 460 459 423
f 461 460 424
f 462 461 425
f 468 462 426
f 458 482 457
f 459 483 458
f 460 494 459
f 461 502 460
f 462 503 461
f 483 482 458
f 494 483 459
f 502 494 460
f 503 502 461
f 467 471 434
f 464 465 431
f 456 463 428
f 463 464 430
f 465 466 429
f 466 467 435
f 469 468 427
f 470 469 432
f 471 470 433
f 468 504 462
f 469 505 468
f 470 506 469
f 471 507 470
f 467 508 471
f 504 503 462
f 481 494 502
f 481 502 503
f 481 503 504
f 481 504 505
f 481 505 506
f 481 506 507
f 508 507 471
f 498 500 466
f 500 508 467
f 481 507 508
f 481 508 500
f 505 504 468
f 506 505 469
f 507 506 470
f 463 501 464
f 465 498 466
f 464 499 465
f 466 500 467
f 501 499 464
f 499 498 465
f 509 510 511
f 512 513 514
f 511 515 516
f 516 517 512
f 514 518 519
f 519 520 521
f 521 522 523
f 524 525 509
f 526 527 524
f 528 529 526
f 530 531 528
f 532 533 530
f 534 535 532
f 536 509 511
f 536 516 512
f 536 512 514
f 536 511 516
f 536 524 509
f 536 526 524
f 536 528 526
f 536 514 519
f 536 519 521
f 536 521 523
f 536 523 537
f 536 537 538
f 536 530 528
f 536 532 530
f 536 534 532
f 536 539 534
f 536 540 539
f 510 515 511
f 525 510 509
f 515 517 516
f 517 513 512
f 513 518 514
f 518 520 519
f 520 522 521
f 522 541 523
f 527 525 524
f 529 527 526
f 531 529 528
f 533 531 530
f 535 533 532
f 523 541 537
f 537 542 538
f 538 543 544
f 536 538 544
f 536 544 545
f 536 545 546
f 536 546 547
f 536 547 548
f 536 548 549
f 536 549 550
f 536 550 551
f 536 551 552
f 544 553 545
f 545 554 546
f 546 555 547
f 547 556 548
f 548 557 549
f 549 558 550
f 541 542 537
f 542 543 538
f 543 553 544
f 553 554 545
f 554 555 546
f 555 556 547
f 556 557 548
f 557 558 549
f 558 559 550
f 539 560 534
f 540 561 539
f 562 563 540
f 536 562 540
f 536 564 562
f 536 565 564
f 536 566 565
f 536 567 566
f 536 568 567
f 536 569 568
f 536 570 569
f 536 571 570
f 564 572 562
f 565 573 564
f 566 574 565
f 567 575 566
f 569 576 568
f 568 577 567
f 560 535 534
f 561 560 539
f 563 561 540
f 572 563 562
f 573 572 564
f 574 573 565
f 575 574 566
f 577 575 567
f 576 577 568
f 536 552 571
f 551 578 552
f 571 579 570
f 552 580 571
f 550 559 551
f 570 581 569
f 580 579 571
f 559 578 551
f 578 580 552
f 579 581 570
f 581 576 569
f 515 582 517
f 510 583 515
f 525 584 510
f 582 585 517
f 583 582 515
f 584 583 510
f 517 585 513
f 518 586 520
f 513 587 518
f 520 588 522
f 522 589 541
f 585 587 513
f 587 586 518
f 586 588 520
f 588 589 522
f 527 590 525
f 529 591 527
f 531 592 529
f 533 593 531
f 590 584 525
f 591 590 527
f 592 591 529
f 593 592 531
f 594 593 533
f 541 595 542
f 542 596 543
f 543 597 553
f 553 598 554
f 589 595 541
f 595 596 542
f 596 597 543
f 597 598 553
f 598 599 554
f 554 599 555
f 555 600 556
f 556 601 557
f 557 602 558
f 558 603 559
f 599 600 555
f 600 601 556
f 601 602 557
f 602 603 558
f 535 594 533
f 560 604 535
f 561 605 560
f 563 606 561
f 572 607 563
f 604 594 535
f 605 604 560
f 606 605 561
f 607 606 563
f 573 608 572
f 574 609 573
f 575 610 574
f 577 611 575
f 608 607 572
f 609 608 573
f 610 609 574
f 611 610 575
f 612 611 577
f 559 613 578
f 578 614 580
f 579 615 581
f 581 616 576
f 576 612 577
f 580 617 579
f 613 614 578
f 614 617 580
f 616 612 576
f 615 616 581
f 617 615 579
f 603 613 559
f 585 618 587
f 582 619 585
f 583 620 582
f 584 621 583
f 587 622 586
f 586 623 588
f 588 624 589
f 590 625 584
f 591 626 590
f 592 627 591
f 593 628 592
f 589 629 595
f 595 630 596
f 596 631 597
f 597 632 598
f 598 633 599
f 599 634 600
f 600 635 601
f 601 636 602
f 602 637 603
f 594 638 593
f 604 639 594
f 605 640 604
f 606 641 605
f 607 642 606
f 608 643 607
f 609 644 608
f 610 645 609
f 611 646 610
f 614 647 617
f 617 648 615
f 615 649 616
f 603 650 613
f 613 651 614
f 612 652 611
f 616 653 612
f 620 619 582
f 619 618 585
f 621 620 583
f 625 621 584
f 618 622 587
f 622 623 586
f 623 624 588
f 624 629 589
f 626 625 590
f 627 626 591
f 628 627 592
f 629 630 595
f 630 631 596
f 631 632 597
f 632 633 598
f 633 634 599
f 634 635 600
f 635 636 601
f 636 637 602
f 637 650 603
f 638 628 593
f 639 638 594
f 640 639 604
f 641 640 605
f 642 641 606
f 643 642 607
f 644 643 608
f 645 644 609
f 646 645 610
f 647 648 617
f 648 649 615
f 649 653 616
f 650 651 613
f 651 647 614
f 652 646 611
f 653 652 612
f 618 654 622
f 619 655 618
f 620 656 619
f 621 657 620
f 622 658 623
f 623 659 624
f 624 660 629
f 625 661 621
f 626 662 625
f 627 663 626
f 628 664 627
f 656 655 619
f 655 654 618
f 657 656 620
f 661 657 621
f 654 658 622
f 658 659 623
f 659 660 624
f 660 665 629
f 662 661 625
f 663 662 626
f 664 663 627
f 629 665 630
f 630 666 631
f 631 667 632
f 632 668 633
f 633 669 634
f 634 670 635
f 635 671 636
f 636 672 637
f 637 673 650
f 665 666 630
f 666 667 631
f 667 668 632
f 668 669 633
f 669 670 634
f 670 671 635
f 671 672 636
f 672 673 637
f 673 674 650
f 638 675 628
f 639 676 638
f 640 677 639
f 641 678 640
f 642 679 641
f 643 680 642
f 644 681 643
f 646 682 645
f 645 683 644
f 675 664 628
f 676 675 638
f 677 676 639
f 678 677 640
f 679 678 641
f 680 679 642
f 681 680 643
f 683 681 644
f 682 683 645
f 647 684 648
f 649 685 653
f 648 686 649
f 650 674 651
f 651 687 647
f 652 688 646
f 653 689 652
f 684 686 648
f 686 685 649
f 685 689 653
f 674 687 651
f 687 684 647
f 688 682 646
f 689 688 652
f 654 690 658
f 655 691 654
f 657 692 656
f 656 693 655
f 658 694 659
f 659 695 660
f 660 696 665
f 665 697 666
f 661 698 657
f 662 699 661
f 663 700 662
f 664 701 663
f 666 702 667
f 667 703 668
f 668 704 669
f 669 705 670
f 670 706 671
f 671 707 672
f 672 708 673
f 673 709 674
f 674 710 687
f 675 711 664
f 676 712 675
f 677 713 676
f 678 714 677
f 679 715 678
f 680 716 679
f 681 717 680
f 683 718 681
f 682 719 683
f 684 720 686
f 689 721 688
f 686 722 685
f 685 723 689
f 687 724 684
f 688 725 682
f 691 690 654
f 693 691 655
f 692 693 656
f 690 694 658
f 694 695 659
f 695 696 660
f 696 697 665
f 698 692 657
f 699 698 661
f 700 699 662
f 701 700 663
f 711 701 664
f 691 726 690
f 693 727 691
f 690 728 694
f 694 729 695
f 695 730 696
f 696 731 697
f 697 732 702
f 727 726 691
f 726 728 690
f 728 729 694
f 729 730 695
f 730 731 696
f 731 732 697
f 732 733 702
f 692 734 693
f 698 735 692
f 699 736 698
f 700 737 699
f 701 738 700
f 711 739 701
f 734 727 693
f 735 734 692
f 736 735 698
f 738 737 700
f 737 736 699
f 739 738 701
f 740 739 711
f 741 729 728
f 741 734 735
f 741 726 727
f 741 728 726
f 741 727 734
f 741 731 730
f 741 730 729
f 741 732 731
f 741 733 732
f 741 742 733
f 741 743 742
f 741 744 743
f 741 735 736
f 741 736 737
f 741 737 738
f 741 738 739
f 741 739 740
f 741 740 745
f 741 745 746
f 741 747 748
f 697 702 666
f 702 703 667
f 703 704 668
f 704 705 669
f 705 706 670
f 706 707 671
f 707 708 672
f 708 709 673
f 709 710 674
f 702 733 703
f 703 742 704
f 704 743 705
f 705 744 706
f 733 742 703
f 742 743 704
f 706 749 707
f 707 750 708
f 708 751 709
f 709 752 710
f 710 753 724
f 743 744 705
f 744 749 706
f 749 750 707
f 741 749 744
f 741 750 749
f 750 751 708
f 753 754 724
f 741 751 750
f 741 752 751
f 741 753 752
f 741 754 753
f 741 755 754
f 741 748 755
f 751 752 709
f 752 753 710
f 712 711 675
f 713 712 676
f 714 713 677
f 715 714 678
f 716 715 679
f 717 716 680
f 718 717 681
f 719 718 683
f 725 719 682
f 712 740 711
f 713 745 712
f 714 746 713
f 745 740 712
f 746 745 713
f 715 756 714
f 716 757 715
f 717 758 716
f 718 759 717
f 719 760 718
f 725 761 719
f 756 746 714
f 757 756 715
f 758 757 716
f 741 746 756
f 741 756 757
f 762 761 725
f 741 757 758
f 741 758 759
f 741 759 760
f 741 761 762
f 741 760 761
f 741 762 747
f 759 758 717
f 760 759 718
f 761 760 719
f 710 724 687
f 724 720 684
f 720 722 686
f 721 725 688
f 723 721 689
f 722 723 685
f 722 748 723
f 724 754 720
f 720 755 722
f 721 762 725
f 723 747 721
f 754 755 720
f 755 748 722
f 748 747 723
f 747 762 721
f 763 764 765
f 766 767 768
f 768 769 763
f 770 763 765
f 770 765 771
f 770 772 773
f 770 771 772
f 770 773 774
f 770 774 775
f 770 775 776
f 770 776 777
f 770 777 778
f 771 779 772
f 772 780 773
f 773 781 774
f 774 782 775
f 775 783 776
f 765 784 771
f 764 784 765
f 769 764 763
f 767 769 768
f 779 780 772
f 784 779 771
f 780 781 773
f 781 782 774
f 782 783 775
f 783 785 776
f 770 778 786
f 776 785 777
f 777 787 778
f 778 788 786
f 786 789 790
f 790 791 792
f 785 787 777
f 787 788 778
f 788 789 786
f 789 791 790
f 791 793 792
f 794 795 766
f 796 797 794
f 798 799 796
f 800 801 798
f 802 803 800
f 804 805 802
f 770 766 768
f 770 768 763
f 770 794 766
f 770 796 794
f 770 798 796
f 770 800 798
f 770 802 800
f 770 804 802
f 770 806 804
f 770 807 806
f 770 808 807
f 770 809 808
f 770 810 809
f 770 811 810
f 770 812 813
f 770 814 811
f 770 813 814
f 806 815 804
f 807 816 806
f 808 817 807
f 809 818 808
f 810 819 809
f 811 820 810
f 814 821 811
f 795 767 766
f 797 795 794
f 799 797 796
f 801 799 798
f 803 801 800
f 805 803 802
f 815 805 804
f 816 815 806
f 817 816 807
f 818 817 808
f 819 818 809
f 820 819 810
f 821 820 811
f 770 786 790
f 770 790 792
f 770 792 822
f 770 822 823
f 770 823 824
f 770 824 825
f 770 825 826
f 770 826 827
f 770 827 812
f 792 793 822
f 822 828 823
f 823 829 824
f 826 830 827
f 824 831 825
f 825 832 826
f 813 833 814
f 812 834 813
f 827 835 812
f 793 828 822
f 828 829 823
f 829 831 824
f 831 832 825
f 832 830 826
f 835 834 812
f 833 821 814
f 834 833 813
f 830 835 827
f 836 837 781
f 837 838 782
f 838 839 783
f 764 840 784
f 784 841 779
f 767 842 769
f 769 843 764
f 841 844 779
f 840 841 784
f 842 843 769
f 845 842 767
f 843 840 764
f 779 844 780
f 780 836 781
f 781 837 782
f 782 838 783
f 783 839 785
f 844 836 780
f 839 846 785
f 785 846 787
f 787 847 788
f 788 848 789
f 789 849 791
f 791 850 793
f 793 851 828
f 846 847 787
f 847 848 788
f 848 849 789
f 849 850 791
f 850 851 793
f 795 845 767
f 797 852 795
f 799 853 797
f 801 854 799
f 803 855 801
f 852 845 795
f 853 852 797
f 854 853 799
f 855 854 801
f 805 856 803
f 815 857 805
f 816 858 815
f 856 855 803
f 857 856 805
f 858 857 815
f 817 859 816
f 818 860 817
f 819 861 818
f 820 862 819
f 859 858 816
f 860 859 817
f 861 860 818
f 863 862 820
f 862 861 819
f 828 864 829
f 829 865 831
f 831 866 832
f 832 867 830
f 867 868 830
f 851 864 828
f 864 865 829
f 865 866 831
f 866 867 832
f 834 869 833
f 830 868 835
f 835 870 834
f 821 863 820
f 833 871 821
f 868 870 835
f 870 869 834
f 871 863 821
f 869 871 833
f 844 872 836
f 836 873 837
f 837 874 838
f 838 875 839
f 840 876 841
f 843 877 840
f 841 878 844
f 842 879 843
f 845 880 842
f 839 881 846
f 846 882 847
f 847 883 848
f 848 884 849
f 849 885 850
f 850 886 851
f 851 887 864
f 852 888 845
f 853 889 852
f 854 890 853
f 855 891 854
f 856 892 855
f 857 893 856
f 858 894 857
f 859 895 858
f 860 896 859
f 861 897 860
f 862 898 861
f 864 899 865
f 865 900 866
f 866 901 867
f 867 902 868
f 868 903 870
f 870 904 869
f 863 905 862
f 871 906 863
f 869 907 871
f 872 873 836
f 873 874 837
f 874 875 838
f 875 881 839
f 877 876 840
f 876 878 841
f 878 872 844
f 879 877 843
f 880 879 842
f 881 882 846
f 882 883 847
f 883 884 848
f 884 885 849
f 885 886 850
f 886 887 851
f 887 899 864
f 888 880 845
f 889 888 852
f 890 889 853
f 891 890 854
f 892 891 855
f 893 892 856
f 894 893 857
f 895 894 858
f 896 895 859
f 897 896 860
f 898 897 861
f 899 900 865
f 900 901 866
f 901 902 867
f 903 904 870
f 905 898 862
f 906 905 863
f 904 907 869
f 907 906 871
f 902 903 868
f 872 908 873
f 873 909 874
f 874 910 875
f 875 911 881
f 876 912 878
f 877 913 876
f 878 914 872
f 879 915 877
f 880 916 879
f 908 909 873
f 909 910 874
f 910 911 875
f 911 917 881
f 913 912 876
f 912 914 878
f 914 908 872
f 915 913 877
f 916 915 879
f 881 917 882
f 882 918 883
f 883 919 884
f 884 920 885
f 885 921 886
f 886 922 887
f 887 923 899
f 917 918 882
f 918 919 883
f 919 920 884
f 920 921 885
f 921 922 886
f 922 923 887
f 923 924 899
f 888 925 880
f 889 926 888
f 890 927 889
f 891 928 890
f 892 929 891
f 893 930 892
f 894 931 893
f 895 932 894
f 896 933 895
f 897 934 896
f 898 935 897
f 925 916 880
f 926 925 888
f 927 926 889
f 928 927 890
f 929 928 891
f 930 929 892
f 931 930 893
f 932 931 894
f 933 932 895
f 934 933 896
f 935 934 897
f 899 924 900
f 900 936 901
f 901 937 902
f 902 938 903
f 903 939 904
f 904 940 907
f 905 941 898
f 906 942 905
f 907 943 906
f 924 936 900
f 936 937 901
f 937 938 902
f 939 940 904
f 941 935 898
f 942 941 905
f 940 943 907
f 943 942 906
f 938 939 903
f 909 944 910
f 910 945 911
f 911 946 917
f 917 947 918
f 908 948 909
f 914 949 908
f 912 950 914
f 913 951 912
f 915 952 913
f 918 953 919
f 919 954 920
f 920 955 921
f 921 956 922
f 922 957 923
f 923 958 924
f 916 959 915
f 925 960 916
f 926 961 925
f 927 962 926
f 928 963 927
f 929 964 928
f 930 965 929
f 931 966 930
f 932 967 931
f 933 968 932
f 934 969 933
f 935 970 934
f 924 971 936
f 936 972 937
f 937 973 938
f 938 974 939
f 939 975 940
f 940 976 943
f 942 977 941
f 941 978 935
f 943 979 942
f 944 945 910
f 945 946 911
f 946 947 917
f 949 948 908
f 950 949 914
f 952 951 913
f 959 952 915
f 951 950 912
f 948 944 909
f 949 980 948
f 951 981 950
f 950 982 949
f 952 983 951
f 981 982 950
f 983 981 951
f 948 984 944
f 944 985 945
f 945 986 946
f 946 987 947
f 947 988 953
f 985 986 945
f 986 987 946
f 987 988 947
f 980 984 948
f 982 980 949
f 984 985 944
f 989 984 980
f 989 985 984
f 988 990 953
f 989 986 985
f 989 987 986
f 989 988 987
f 989 990 988
f 989 991 990
f 989 992 991
f 947 953 918
f 953 954 919
f 954 955 920
f 955 956 921
f 956 957 922
f 957 958 923
f 953 990 954
f 954 991 955
f 955 992 956
f 956 993 957
f 957 994 958
f 990 991 954
f 991 992 955
f 992 993 956
f 993 994 957
f 960 959 916
f 961 960 925
f 962 961 926
f 963 962 927
f 964 963 928
f 965 964 929
f 966 965 930
f 967 966 931
f 968 967 932
f 969 968 933
f 978 970 935
f 970 969 934
f 959 995 952
f 960 996 959
f 961 997 960
f 962 998 961
f 963 999 962
f 995 983 952
f 996 995 959
f 997 996 960
f 998 997 961
f 999 998 962
f 1000 999 963
f 1001 1000 964
f 989 981 983
f 989 983 995
f 989 980 982
f 989 982 981
f 989 995 996
f 989 996 997
f 989 997 998
f 989 993 992
f 989 998 999
f 989 999 1000
f 989 1000 1001
f 989 1001 1002
f 989 1002 1003
f 989 1004 1005
f 989 1006 1004
f 989 1003 1007
f 989 1007 1008
f 989 1008 1009
f 989 1009 1010
f 989 1010 1006
f 964 1000 963
f 965 1001 964
f 966 1002 965
f 967 1003 966
f 968 1007 967
f 969 1008 968
f 970 1009 969
f 978 1010 970
f 1002 1001 965
f 1003 1002 966
f 1007 1003 967
f 1008 1007 968
f 1010 1009 970
f 1006 1010 978
f 1009 1008 969
f 973 974 938
f 974 975 939
f 958 971 924
f 971 972 936
f 972 973 937
f 975 976 940
f 976 979 943
f 977 978 941
f 979 977 942
f 958 1011 971
f 971 1012 972
f 972 1013 973
f 973 1014 974
f 974 1015 975
f 975 1016 976
f 994 1011 958
f 989 994 993
f 989 1011 994
f 989 1012 1011
f 989 1013 1012
f 989 1014 1013
f 989 1015 1014
f 1011 1012 971
f 1012 1013 972
f 1013 1014 973
f 1014 1015 974
f 1015 1016 975
f 1016 1005 976
f 989 1016 1015
f 989 1005 1016
f 976 1005 979
f 979 1004 977
f 977 1006 978
f 1004 1006 977
f 1005 1004 979
