# sionna2 mesh — phantom3__camera.obj
# group=camera  verts=189  tris=354
v -0.024000 -0.047950 -0.065823
v -0.024000 -0.047950 -0.049355
v -0.024000 0.047950 -0.049355
v 0.068000 -0.047950 -0.065823
v -0.024000 0.047950 -0.065823
v 0.068000 0.047950 -0.049355
v 0.068000 -0.047950 -0.049355
v 0.068000 0.047950 -0.065823
v 0.015764 -0.002583 -0.085285
v 0.015250 0.000000 -0.068817
v 0.015250 0.000000 -0.085285
v 0.019417 -0.006236 -0.085285
v 0.022000 -0.006750 -0.085285
v 0.019417 -0.006236 -0.068817
v 0.022000 0.000000 -0.085285
v 0.017227 -0.004773 -0.085285
v 0.015764 -0.002583 -0.068817
v 0.017227 -0.004773 -0.068817
v 0.022000 -0.006750 -0.068817
v 0.022000 0.000000 -0.068817
v 0.015764 0.002583 -0.068817
v 0.015764 0.002583 -0.085285
v 0.017227 0.004773 -0.085285
v 0.019417 0.006236 -0.085285
v 0.022000 0.006750 -0.085285
v 0.017227 0.004773 -0.068817
v 0.019417 0.006236 -0.068817
v 0.022000 0.006750 -0.068817
v 0.024583 -0.006236 -0.085285
v 0.026773 -0.004773 -0.085285
v 0.028236 -0.002583 -0.085285
v 0.028750 0.000000 -0.085285
v 0.024583 -0.006236 -0.068817
v 0.026773 -0.004773 -0.068817
v 0.028236 -0.002583 -0.068817
v 0.028750 0.000000 -0.068817
v 0.024583 0.006236 -0.085285
v 0.026773 0.004773 -0.085285
v 0.028236 0.002583 -0.085285
v 0.026773 0.004773 -0.068817
v 0.028236 0.002583 -0.068817
v 0.024583 0.006236 -0.068817
v 0.005000 -0.033000 -0.124909
v 0.039000 -0.033000 -0.124909
v 0.005000 -0.033000 -0.093470
v 0.005000 0.033000 -0.093470
v 0.005000 0.033000 -0.124909
v 0.039000 0.033000 -0.093470
v 0.039000 -0.033000 -0.093470
v 0.039000 -0.006568 -0.107433
v 0.039000 -0.005889 -0.112583
v 0.039000 -0.006568 -0.110946
v 0.039000 -0.006800 -0.109189
v 0.039000 -0.003400 -0.115067
v 0.039000 -0.004808 -0.113988
v 0.039000 -0.001760 -0.115745
v 0.039000 -0.005889 -0.105796
v 0.039000 0.000000 -0.115976
v 0.039000 0.001760 -0.115745
v 0.039000 -0.004808 -0.104390
v 0.039000 -0.003400 -0.103312
v 0.039000 -0.001760 -0.102634
v 0.039000 0.033000 -0.124909
v 0.039000 0.003400 -0.115067
v 0.039000 0.004808 -0.113988
v 0.039000 0.005889 -0.112583
v 0.039000 0.006568 -0.110946
v 0.039000 0.006800 -0.109189
v 0.039000 0.006568 -0.107433
v 0.039000 0.005889 -0.105796
v 0.039000 0.000000 -0.102402
v 0.039000 0.001760 -0.102634
v 0.039000 0.003400 -0.103312
v 0.039000 0.004808 -0.104390
v 0.049000 -0.004808 -0.113988
v 0.049000 -0.003400 -0.115067
v 0.049000 -0.001760 -0.115745
v 0.049000 0.000000 -0.115976
v 0.049000 -0.005889 -0.112583
v 0.049000 -0.006568 -0.110946
v 0.049000 -0.006800 -0.109189
v 0.049000 -0.006568 -0.107433
v 0.049000 -0.005889 -0.105796
v 0.049000 -0.004808 -0.104390
v 0.049000 -0.003400 -0.103312
v 0.049000 -0.001760 -0.102634
v 0.049000 0.000000 -0.109189
v 0.049000 0.000000 -0.102402
v 0.049000 0.001760 -0.115745
v 0.049000 0.003400 -0.115067
v 0.049000 0.004808 -0.113988
v 0.049000 0.005889 -0.112583
v 0.049000 0.001760 -0.102634
v 0.049000 0.004808 -0.104390
v 0.049000 0.003400 -0.103312
v 0.049000 0.006568 -0.110946
v 0.049000 0.006800 -0.109189
v 0.049000 0.006568 -0.107433
v 0.049000 0.005889 -0.105796
v 0.004931 -0.002939 -0.039081
v 0.003976 0.000000 -0.033092
v 0.003976 0.000000 -0.039081
v 0.004931 -0.002939 -0.033092
v 0.008976 0.000000 -0.039081
v 0.007431 -0.004755 -0.039081
v 0.010521 -0.004755 -0.039081
v 0.007431 -0.004755 -0.033092
v 0.008976 0.000000 -0.033092
v 0.010521 -0.004755 -0.033092
v 0.013021 -0.002939 -0.039081
v 0.013976 0.000000 -0.039081
v 0.013021 -0.002939 -0.033092
v 0.013976 0.000000 -0.033092
v 0.004931 0.002939 -0.033092
v 0.004931 0.002939 -0.039081
v 0.007431 0.004755 -0.039081
v 0.010521 0.004755 -0.039081
v 0.007431 0.004755 -0.033092
v 0.010521 0.004755 -0.033092
v 0.013021 0.002939 -0.039081
v 0.013021 0.002939 -0.033092
v -0.002665 -0.041771 -0.039580
v -0.000069 -0.043505 -0.039580
v -0.002665 -0.041771 -0.032593
v -0.004399 -0.039175 -0.039580
v 0.002992 -0.036114 -0.039580
v -0.005008 -0.036114 -0.039580
v -0.005008 -0.036114 -0.032593
v -0.004399 -0.039175 -0.032593
v 0.002992 -0.036114 -0.032593
v -0.004399 -0.033053 -0.039580
v -0.002665 -0.030457 -0.039580
v -0.004399 -0.033053 -0.032593
v -0.002665 -0.030457 -0.032593
v -0.000069 -0.028723 -0.032593
v 0.002992 -0.044114 -0.039580
v -0.000069 -0.043505 -0.032593
v 0.006053 -0.043505 -0.039580
v 0.002992 -0.044114 -0.032593
v 0.006053 -0.043505 -0.032593
v 0.008649 -0.041771 -0.039580
v 0.008649 -0.041771 -0.032593
v 0.010383 -0.039175 -0.039580
v 0.010992 -0.036114 -0.039580
v 0.010383 -0.039175 -0.032593
v 0.010992 -0.036114 -0.032593
v -0.000069 -0.028723 -0.039580
v 0.002992 -0.028114 -0.039580
v 0.006053 -0.028723 -0.039580
v 0.002992 -0.028114 -0.032593
v 0.006053 -0.028723 -0.032593
v 0.008649 -0.030457 -0.039580
v 0.010383 -0.033053 -0.039580
v 0.010383 -0.033053 -0.032593
v 0.008649 -0.030457 -0.032593
v -0.002665 0.030457 -0.039580
v -0.000069 0.028723 -0.039580
v -0.002665 0.030457 -0.032593
v -0.004399 0.033053 -0.039580
v 0.002992 0.036114 -0.039580
v -0.005008 0.036114 -0.039580
v -0.005008 0.036114 -0.032593
v -0.004399 0.033053 -0.032593
v 0.002992 0.036114 -0.032593
v -0.004399 0.039175 -0.039580
v -0.002665 0.041771 -0.039580
v -0.004399 0.039175 -0.032593
v -0.002665 0.041771 -0.032593
v -0.000069 0.043505 -0.032593
v 0.002992 0.028114 -0.039580
v -0.000069 0.028723 -0.032593
v 0.006053 0.028723 -0.039580
v 0.002992 0.028114 -0.032593
v 0.006053 0.028723 -0.032593
v 0.008649 0.030457 -0.039580
v 0.008649 0.030457 -0.032593
v 0.010383 0.033053 -0.039580
v 0.010992 0.036114 -0.039580
v 0.010383 0.033053 -0.032593
v 0.010992 0.036114 -0.032593
v -0.000069 0.043505 -0.039580
v 0.002992 0.044114 -0.039580
v 0.006053 0.043505 -0.039580
v 0.002992 0.044114 -0.032593
v 0.006053 0.043505 -0.032593
v 0.008649 0.041771 -0.039580
v 0.010383 0.039175 -0.039580
v 0.008649 0.041771 -0.032593
v 0.010383 0.039175 -0.032593
f 1 2 3
f 1 4 2
f 1 5 4
f 1 3 5
f 2 6 3
f 5 3 6
f 2 4 7
f 2 7 6
f 4 8 7
f 5 8 4
f 5 6 8
f 7 8 6
f 9 10 11
f 12 13 14
f 9 11 15
f 9 15 16
f 12 16 15
f 12 15 13
f 9 16 17
f 12 18 16
f 9 17 10
f 13 19 14
f 16 18 17
f 12 14 18
f 17 20 10
f 17 18 20
f 14 20 18
f 14 19 20
f 11 21 22
f 11 22 15
f 22 23 15
f 23 24 15
f 15 24 25
f 22 26 23
f 23 27 24
f 24 28 25
f 11 10 21
f 22 21 26
f 23 26 27
f 10 20 21
f 21 20 26
f 26 20 27
f 20 28 27
f 24 27 28
f 13 29 19
f 13 15 29
f 15 30 29
f 15 31 30
f 15 32 31
f 29 30 33
f 30 31 34
f 31 32 35
f 19 29 33
f 30 34 33
f 31 35 34
f 19 33 20
f 20 33 34
f 20 34 35
f 20 35 36
f 35 32 36
f 15 25 37
f 15 37 38
f 15 38 39
f 15 39 32
f 38 37 40
f 38 41 39
f 25 42 37
f 32 39 36
f 37 42 40
f 38 40 41
f 20 42 28
f 20 40 42
f 20 41 40
f 20 36 41
f 25 28 42
f 39 41 36
f 43 44 45
f 43 45 46
f 43 47 44
f 43 46 47
f 45 48 46
f 47 46 48
f 45 44 49
f 44 50 49
f 44 51 52
f 44 52 53
f 44 53 50
f 44 54 55
f 44 55 51
f 44 56 54
f 49 50 57
f 44 58 56
f 44 59 58
f 45 49 48
f 49 57 60
f 49 60 61
f 49 61 62
f 49 62 48
f 47 63 44
f 44 63 59
f 63 64 59
f 63 65 64
f 63 66 65
f 63 67 66
f 48 68 67
f 48 69 68
f 48 70 69
f 48 62 71
f 48 71 72
f 48 72 73
f 48 73 74
f 48 74 70
f 47 48 63
f 63 48 67
f 75 51 55
f 76 55 54
f 77 54 56
f 78 56 58
f 79 52 51
f 80 53 52
f 81 50 53
f 82 57 50
f 83 60 57
f 84 61 60
f 85 62 61
f 86 71 62
f 75 55 76
f 76 54 77
f 77 56 78
f 77 78 87
f 79 80 52
f 80 81 53
f 81 82 50
f 82 83 57
f 79 51 75
f 79 87 80
f 79 75 87
f 80 87 81
f 81 87 82
f 75 76 87
f 76 77 87
f 83 84 60
f 84 85 61
f 85 86 62
f 86 88 71
f 82 87 83
f 83 87 84
f 84 87 85
f 85 87 86
f 86 87 88
f 89 58 59
f 90 59 64
f 91 64 65
f 92 65 66
f 88 72 71
f 93 73 72
f 94 70 74
f 95 74 73
f 96 66 67
f 97 67 68
f 98 68 69
f 99 69 70
f 78 58 89
f 89 59 90
f 90 64 91
f 91 65 92
f 78 89 87
f 89 90 87
f 90 91 87
f 91 92 87
f 92 96 87
f 96 97 87
f 87 97 98
f 88 93 72
f 93 95 73
f 94 99 70
f 94 74 95
f 87 93 88
f 87 95 93
f 87 94 95
f 87 99 94
f 87 98 99
f 92 66 96
f 96 67 97
f 97 68 98
f 98 69 99
f 100 101 102
f 100 103 101
f 100 102 104
f 105 100 104
f 105 104 106
f 105 103 100
f 105 107 103
f 103 108 101
f 107 108 103
f 105 106 107
f 107 109 108
f 107 106 109
f 106 104 110
f 110 104 111
f 106 110 109
f 110 112 109
f 110 111 112
f 109 112 108
f 112 113 108
f 112 111 113
f 102 114 115
f 102 101 114
f 102 115 104
f 115 116 104
f 116 117 104
f 101 108 114
f 114 108 118
f 115 118 116
f 115 114 118
f 116 119 117
f 118 108 119
f 116 118 119
f 104 117 120
f 104 120 111
f 108 121 119
f 108 113 121
f 120 121 113
f 120 117 121
f 117 119 121
f 120 113 111
f 122 123 124
f 125 126 122
f 125 127 126
f 125 128 127
f 125 129 128
f 125 122 129
f 122 124 129
f 129 124 130
f 129 130 128
f 127 131 126
f 131 132 126
f 127 133 131
f 127 128 133
f 128 130 133
f 133 130 134
f 131 134 132
f 131 133 134
f 132 134 135
f 123 136 137
f 124 123 137
f 136 138 139
f 136 139 137
f 122 126 123
f 123 126 136
f 136 126 138
f 124 137 130
f 137 139 130
f 139 140 130
f 138 141 140
f 139 138 140
f 140 141 142
f 126 141 138
f 126 143 141
f 126 144 143
f 130 140 142
f 130 142 145
f 141 143 142
f 143 145 142
f 130 145 146
f 132 147 126
f 126 147 148
f 126 148 149
f 134 130 135
f 130 150 135
f 130 151 150
f 132 135 147
f 147 135 150
f 147 150 148
f 148 150 151
f 126 152 153
f 126 149 152
f 126 153 144
f 130 154 155
f 130 155 151
f 130 146 154
f 153 152 154
f 152 155 154
f 148 151 149
f 155 149 151
f 152 149 155
f 143 144 145
f 145 144 146
f 153 146 144
f 153 154 146
f 156 157 158
f 159 160 156
f 159 161 160
f 159 162 161
f 159 163 162
f 159 156 163
f 156 158 163
f 163 158 164
f 163 164 162
f 161 165 160
f 165 166 160
f 161 167 165
f 161 162 167
f 162 164 167
f 165 168 166
f 165 167 168
f 167 164 168
f 166 168 169
f 157 170 171
f 158 157 171
f 170 172 173
f 170 173 171
f 156 160 157
f 157 160 170
f 170 160 172
f 158 171 164
f 171 173 164
f 173 174 164
f 172 175 174
f 173 172 174
f 174 175 176
f 172 160 175
f 175 160 177
f 177 160 178
f 174 176 164
f 176 179 164
f 175 177 176
f 177 179 176
f 179 180 164
f 166 181 160
f 160 181 182
f 160 182 183
f 168 164 169
f 164 184 169
f 164 185 184
f 166 169 181
f 181 169 184
f 181 184 182
f 182 184 185
f 160 183 186
f 160 186 187
f 160 187 178
f 164 188 185
f 164 189 188
f 164 180 189
f 186 189 187
f 186 188 189
f 182 185 183
f 188 183 185
f 186 183 188
f 177 178 179
f 179 178 180
f 187 180 178
f 187 189 180
