v 0.044227 -0.027710 -0.054198
v 0.050761 -0.030697 -0.062042
v 0.029180 -0.038297 -0.040118
v 0.034723 -0.037667 -0.039241
v 0.025014 -0.037819 -0.034583
v 0.027871 -0.039038 -0.036875
v 0.028627 -0.039503 -0.031932
v 0.027186 -0.038376 -0.028876
v 0.031452 -0.039697 -0.035183
v 0.034993 -0.038553 -0.035209
v 0.033985 -0.039077 -0.032072
v 0.032886 -0.038799 -0.028870
v 0.031394 -0.037782 -0.025938
v 0.025307 -0.036895 -0.038771
v 0.025117 -0.033957 -0.042396
v 0.022748 -0.031854 -0.039554
v 0.024279 -0.032147 -0.042038
v 0.025022 -0.030001 -0.043274
v 0.022913 -0.027268 -0.038247
v 0.025117 -0.027445 -0.042396
v 0.029411 -0.035102 -0.044204
v 0.026769 -0.035991 -0.041970
v 0.029151 -0.036945 -0.042139
v 0.029474 -0.031526 -0.045762
v 0.030597 -0.033161 -0.045302
v 0.034022 -0.034139 -0.043990
v 0.032043 -0.036945 -0.042139
v 0.034425 -0.035991 -0.041970
v 0.033063 -0.030701 -0.045434
v 0.028168 -0.028035 -0.044889
v 0.030597 -0.027102 -0.044857
v 0.027278 -0.024309 -0.041136
v 0.035420 -0.029313 -0.043870
v 0.033721 -0.026066 -0.043306
v 0.023002 -0.035526 -0.035548
v 0.024708 -0.037075 -0.029874
v 0.021601 -0.031865 -0.034741
v 0.022487 -0.034172 -0.030516
v 0.025488 -0.035422 -0.025661
v 0.022748 -0.031854 -0.027633
v 0.025774 -0.032090 -0.023318
v 0.024279 -0.032147 -0.025149
v 0.021940 -0.030701 -0.036920
v 0.021834 -0.028236 -0.033594
v 0.023002 -0.025877 -0.031639
v 0.021940 -0.030701 -0.030268
v 0.023371 -0.028925 -0.026499
v 0.025488 -0.025981 -0.025661
v 0.027213 -0.028484 -0.022559
v 0.028787 -0.035811 -0.023706
v 0.031782 -0.035102 -0.022984
v 0.029393 -0.032682 -0.021698
v 0.035706 -0.035422 -0.025661
v 0.033981 -0.032919 -0.022559
v 0.030597 -0.027102 -0.022330
v 0.028258 -0.026796 -0.023094
v 0.034156 -0.029957 -0.022316
v 0.033721 -0.026066 -0.023882
v 0.035097 -0.027920 -0.023747
v 0.051338 -0.039787 -0.040088
v 0.051448 -0.050000 -0.022133
v 0.053928 -0.041790 -0.035426
v 0.051573 -0.040974 -0.028675
v 0.048867 -0.039270 -0.022920
v 0.037694 -0.033906 -0.039964
v 0.037166 -0.030701 -0.042113
v 0.038253 -0.030701 -0.039993
v 0.037694 -0.027497 -0.039964
v 0.041124 -0.029768 -0.039868
v 0.047979 -0.032689 -0.052518
v 0.037484 -0.036240 -0.036490
v 0.037709 -0.036330 -0.032574
v 0.039399 -0.031899 -0.036266
v 0.039593 -0.031865 -0.032446
v 0.043982 -0.035111 -0.025413
v 0.035887 -0.036895 -0.028417
v 0.037878 -0.035201 -0.029833
v 0.038965 -0.031829 -0.028991
v 0.037684 -0.031467 -0.025999
v 0.039157 -0.028336 -0.035571
v 0.039157 -0.028336 -0.031616
v 0.037016 -0.025146 -0.038064
v 0.037709 -0.025073 -0.032573
v 0.039320 -0.028970 -0.020386
v 0.037694 -0.027497 -0.027223
v 0.036915 -0.029256 -0.025149
v 0.037878 -0.026201 -0.029833
v 0.051703 -0.021430 -0.073559
v 0.039833 -0.017788 -0.057635
v 0.039537 -0.010123 -0.062489
v 0.042926 -0.003480 -0.071233
v 0.049462 -0.003780 -0.078833
v 0.024708 -0.024328 -0.037313
v 0.029800 -0.023620 -0.041250
v 0.032043 -0.024457 -0.042139
v 0.032886 -0.022603 -0.038317
v 0.035638 -0.016470 -0.045052
v 0.025426 -0.023429 -0.031154
v 0.026924 -0.022403 -0.033594
v 0.025307 -0.024508 -0.028417
v 0.026692 -0.022937 -0.036757
v 0.029742 -0.021706 -0.035183
v 0.029912 -0.022398 -0.028636
v 0.033985 -0.022326 -0.035116
v 0.032059 -0.022142 -0.030394
v 0.035329 -0.023045 -0.033594
v 0.034008 -0.023027 -0.028876
v 0.032542 -0.012493 -0.032983
v 0.028495 -0.023847 -0.026029
v 0.032043 -0.024457 -0.025049
v 0.032346 -0.000533 -0.042700
v 0.030818 -0.000945 -0.023441
v 0.038942 -0.023750 -0.045046
v 0.036841 -0.024383 -0.035549
v 0.035887 -0.024508 -0.028417
v -0.014904 -0.035446 0.029276
v -0.017132 -0.032497 0.027908
v -0.013518 -0.034732 0.026051
v -0.010996 -0.035421 0.025938
v -0.011259 -0.031680 0.022237
v -0.010199 -0.033071 0.023240
v -0.015711 -0.030496 0.024260
v -0.015774 -0.027639 0.023914
v -0.018567 -0.029467 0.028991
v -0.017855 -0.028340 0.027195
v -0.015679 -0.025084 0.024791
v -0.018523 -0.025910 0.029849
v -0.012665 -0.028340 0.021754
v -0.009076 -0.027515 0.021426
v -0.010199 -0.025880 0.021885
v -0.007491 -0.034251 0.024986
v -0.006073 -0.035305 0.027947
v -0.007770 -0.031006 0.022299
v -0.003102 -0.031544 0.027223
v -0.005376 -0.029728 0.023318
v -0.006774 -0.024902 0.023197
v -0.003630 -0.028340 0.025075
v -0.002350 -0.027187 0.027633
v -0.015782 -0.035458 0.032604
v -0.015370 -0.035612 0.036034
v -0.018522 -0.031952 0.034561
v -0.011054 -0.037335 0.032005
v -0.012658 -0.036997 0.033594
v -0.010199 -0.037099 0.036931
v -0.014325 -0.035305 0.039241
v -0.017132 -0.032497 0.039279
v -0.009402 -0.035421 0.041250
v -0.012009 -0.033450 0.043481
v -0.014027 -0.033630 0.041970
v -0.009013 -0.032740 0.044204
v -0.018759 -0.030705 0.031616
v -0.019199 -0.028340 0.035367
v -0.018523 -0.025910 0.037339
v -0.017425 -0.030116 0.040689
v -0.017855 -0.028340 0.039993
v -0.014699 -0.031121 0.043441
v -0.015022 -0.026951 0.043870
v -0.016517 -0.026894 0.042038
v -0.011322 -0.029164 0.045762
v -0.010199 -0.030799 0.045302
v -0.011403 -0.026359 0.045490
v -0.007473 -0.036676 0.030313
v -0.006526 -0.036638 0.033594
v -0.005028 -0.035612 0.036034
v -0.003312 -0.033878 0.030697
v -0.001876 -0.031952 0.032626
v -0.006073 -0.035305 0.039241
v -0.005090 -0.033060 0.041527
v -0.002089 -0.031811 0.036671
v -0.001397 -0.027142 0.030922
v -0.001203 -0.027176 0.034741
v -0.001542 -0.028340 0.036920
v -0.006815 -0.030557 0.044628
v -0.006640 -0.027595 0.044871
v -0.005699 -0.025559 0.043441
v -0.002435 -0.030679 0.038875
v -0.003112 -0.027574 0.041189
v -0.003881 -0.029785 0.042038
v -0.002515 -0.024906 0.038247
v -0.014904 -0.021234 0.029276
v -0.013323 -0.023705 0.023882
v -0.010878 -0.022809 0.023906
v -0.012488 -0.020242 0.028870
v -0.010199 -0.020684 0.027195
v -0.008097 -0.021486 0.026029
v -0.006371 -0.023050 0.025217
v -0.004332 -0.023235 0.027201
v -0.017794 -0.023515 0.031639
v -0.016443 -0.022021 0.031639
v -0.017086 -0.022801 0.036490
v -0.014595 -0.020488 0.035209
v -0.012169 -0.019538 0.035256
v -0.008902 -0.019340 0.033594
v -0.015308 -0.023619 0.041527
v -0.015489 -0.022146 0.038771
v -0.011385 -0.023939 0.044204
v -0.010996 -0.021259 0.041250
v -0.012980 -0.021059 0.039680
v -0.008737 -0.019780 0.030394
v -0.006294 -0.020576 0.030430
v -0.007910 -0.020242 0.038317
v -0.006294 -0.020576 0.036757
v -0.003087 -0.022711 0.032573
v -0.002918 -0.023840 0.029833
v -0.004310 -0.021966 0.037313
v -0.005467 -0.020684 0.033594
v -0.007860 -0.024435 0.044094
v -0.007491 -0.022429 0.042202
v -0.004005 -0.024512 0.040748
v 0.030597 -0.030701 -0.021422
v 0.051557 -0.040260 -0.012513
v 0.052200 -0.041264 -0.019525
v 0.050734 -0.037720 -0.003382
v 0.044227 -0.027710 0.003807
v 0.051657 -0.031857 0.011138
v 0.034926 -0.018868 -0.015030
v 0.033123 -0.010577 -0.010417
v 0.035364 -0.003160 0.003603
v 0.038704 -0.023898 -0.004965
v 0.042425 -0.023053 0.008213
v 0.039228 -0.009369 0.011970
v 0.047140 -0.014479 0.022468
v 0.059929 -0.020360 0.030657
v 0.039970 -0.003852 0.014353
v 0.050690 -0.006050 0.029627
v 0.046653 -0.003854 0.024924
v 0.047594 0.010770 -0.075295
v 0.042934 0.000000 -0.070350
v 0.037241 0.000000 -0.058968
v 0.035198 0.006159 -0.052810
v 0.041204 0.008736 -0.066048
v 0.050593 0.023250 -0.071118
v 0.041501 0.015263 -0.062987
v 0.039318 0.023003 -0.050649
v 0.034195 0.009429 -0.046464
v 0.031902 0.009685 -0.027599
v 0.034811 0.017453 -0.040066
v 0.025892 0.023595 -0.037912
v 0.027278 0.024309 -0.041136
v 0.029800 0.023620 -0.041250
v 0.033305 0.024790 -0.042202
v 0.034008 0.023027 -0.038312
v 0.024305 0.024118 -0.033594
v 0.025865 0.023045 -0.033594
v 0.026471 0.023736 -0.027947
v 0.029300 0.021701 -0.033594
v 0.029135 0.022142 -0.036793
v 0.027871 0.022365 -0.030313
v 0.032059 0.022142 -0.036793
v 0.034270 0.022403 -0.033594
v 0.033323 0.022365 -0.030313
v 0.031394 0.023620 -0.025938
v 0.028787 0.025591 -0.023706
v 0.034723 0.023736 -0.027947
v 0.036464 0.025597 -0.039986
v 0.037709 0.025073 -0.034614
v 0.036841 0.024383 -0.031639
v 0.036843 0.024536 -0.020097
v 0.045577 0.026802 -0.058174
v 0.025085 0.028545 -0.042927
v 0.023664 0.026544 -0.039279
v 0.025022 0.031402 -0.043274
v 0.022273 0.028271 -0.037339
v 0.022941 0.030701 -0.039993
v 0.025117 0.033957 -0.042396
v 0.022913 0.034135 -0.038247
v 0.026471 0.037667 -0.039241
v 0.028168 0.028035 -0.044889
v 0.030597 0.027102 -0.044857
v 0.029474 0.031526 -0.045762
v 0.033026 0.028035 -0.044889
v 0.035097 0.027920 -0.043441
v 0.034156 0.031446 -0.044871
v 0.031657 0.034042 -0.044951
v 0.028787 0.035811 -0.043481
v 0.030597 0.035433 -0.043948
v 0.026769 0.035991 -0.041970
v 0.034782 0.034782 -0.043040
v 0.031394 0.037782 -0.041250
v 0.021601 0.031865 -0.034741
v 0.022274 0.027089 -0.032626
v 0.021940 0.030701 -0.036920
v 0.023664 0.026544 -0.027908
v 0.027213 0.028484 -0.022559
v 0.023371 0.028925 -0.026499
v 0.022319 0.030701 -0.028555
v 0.027038 0.031446 -0.022316
v 0.022487 0.034172 -0.030516
v 0.023485 0.036330 -0.034614
v 0.024708 0.037075 -0.029874
v 0.023371 0.032477 -0.026499
v 0.026097 0.033482 -0.023747
v 0.025488 0.035422 -0.025661
v 0.026769 0.025411 -0.025217
v 0.031782 0.026301 -0.022984
v 0.031801 0.028721 -0.021698
v 0.035706 0.025981 -0.025661
v 0.035420 0.029313 -0.023318
v 0.031801 0.032682 -0.021698
v 0.029411 0.035102 -0.022984
v 0.030597 0.036972 -0.024673
v 0.036109 0.032858 -0.024260
v 0.032936 0.034606 -0.023094
v 0.035256 0.036530 -0.026544
v 0.032886 0.038799 -0.038317
v 0.026924 0.039000 -0.033594
v 0.026692 0.038465 -0.036757
v 0.029742 0.039697 -0.035183
v 0.027186 0.038376 -0.028876
v 0.029912 0.039005 -0.028636
v 0.033985 0.039077 -0.035116
v 0.032886 0.038799 -0.028870
v 0.034993 0.038553 -0.031979
v 0.044361 0.033875 -0.040573
v 0.037166 0.030701 -0.042113
v 0.038921 0.028271 -0.037339
v 0.038253 0.030701 -0.039993
v 0.037694 0.033906 -0.039964
v 0.036486 0.037075 -0.037313
v 0.049293 0.035151 -0.050524
v 0.037878 0.026201 -0.037355
v 0.039254 0.030701 -0.036920
v 0.039593 0.029538 -0.032446
v 0.044047 0.035322 -0.021336
v 0.037878 0.026201 -0.029833
v 0.038446 0.029548 -0.027633
v 0.039254 0.030701 -0.030268
v 0.036915 0.029256 -0.025149
v 0.038920 0.034314 -0.034561
v 0.039157 0.033067 -0.031616
v 0.037878 0.035201 -0.037355
v 0.036841 0.037020 -0.031639
v 0.038281 0.034135 -0.028940
v 0.036791 0.034529 -0.026439
v 0.052534 0.041487 -0.033549
v 0.052200 0.041264 -0.030865
v 0.048867 0.039270 -0.022920
v 0.051615 0.041049 -0.021332
v 0.051787 0.050000 -0.031296
v -0.014325 0.021374 0.027947
v -0.017132 0.024182 0.027908
v -0.010996 0.021259 0.025938
v -0.013323 0.023705 0.023882
v -0.009014 0.023939 0.022984
v -0.006073 0.021374 0.027947
v -0.008753 0.022096 0.025049
v -0.006014 0.024259 0.024147
v -0.003102 0.025135 0.027223
v -0.015782 0.021222 0.032604
v -0.017794 0.023515 0.035548
v -0.015370 0.021068 0.036034
v -0.012925 0.020003 0.030313
v -0.011496 0.019340 0.033594
v -0.010199 0.019581 0.036931
v -0.014858 0.022511 0.040643
v -0.016576 0.025667 0.041594
v -0.011616 0.020744 0.040118
v -0.012009 0.023230 0.043481
v -0.009520 0.022809 0.043281
v -0.007473 0.020003 0.030313
v -0.006526 0.020041 0.033594
v -0.005028 0.021068 0.036034
v -0.003312 0.022801 0.030697
v -0.001876 0.024727 0.034561
v -0.006880 0.021947 0.041136
v -0.007770 0.025673 0.044889
v -0.003780 0.022784 0.038064
v -0.003102 0.025135 0.039964
v -0.015711 0.026183 0.024260
v -0.018567 0.027212 0.028991
v -0.015774 0.029040 0.023914
v -0.013624 0.031778 0.023197
v -0.017855 0.028340 0.027195
v -0.017883 0.031773 0.028940
v -0.011322 0.027515 0.021426
v -0.010199 0.025880 0.021885
v -0.012565 0.029802 0.022018
v -0.009139 0.031680 0.022237
v -0.016066 0.033444 0.027201
v -0.010878 0.033870 0.023906
v -0.014027 0.033630 0.025217
v -0.012488 0.036438 0.028870
v -0.008782 0.035935 0.027070
v -0.007733 0.028340 0.021754
v -0.004719 0.031596 0.024791
v -0.004624 0.027639 0.023914
v -0.002973 0.030116 0.026499
v -0.002543 0.028340 0.027195
v -0.006371 0.033630 0.025217
v -0.008753 0.034584 0.025049
v -0.004310 0.034713 0.029874
v -0.018962 0.025874 0.033594
v -0.018962 0.030805 0.033594
v -0.019199 0.028340 0.035367
v -0.017963 0.026001 0.038875
v -0.013583 0.026122 0.044628
v -0.017286 0.029106 0.041189
v -0.017963 0.030679 0.038875
v -0.013758 0.029084 0.044871
v -0.014384 0.032421 0.043040
v -0.010199 0.025880 0.045302
v -0.010199 0.028340 0.045765
v -0.010199 0.031939 0.044857
v -0.017794 0.033164 0.035548
v -0.015782 0.035458 0.032604
v -0.016088 0.034713 0.037313
v -0.014104 0.036104 0.030430
v -0.013587 0.036715 0.035116
v -0.011054 0.037335 0.035183
v -0.016393 0.032168 0.040748
v -0.012538 0.032245 0.044094
v -0.012301 0.035194 0.041159
v -0.009402 0.035421 0.041250
v -0.001397 0.027142 0.030922
v -0.002089 0.031811 0.030516
v -0.001203 0.029503 0.034741
v -0.001542 0.028340 0.036920
v -0.004687 0.026183 0.042927
v -0.006815 0.030557 0.044628
v -0.002543 0.028340 0.039993
v -0.003102 0.031544 0.039964
v -0.005467 0.028340 0.043948
v -0.003881 0.029785 0.042038
v -0.008229 0.037141 0.031932
v -0.006294 0.036104 0.030430
v -0.007910 0.036438 0.038317
v -0.006294 0.036104 0.036757
v -0.002543 0.033071 0.033594
v -0.004310 0.034713 0.037313
v -0.005467 0.035996 0.033594
v -0.007075 0.032975 0.043306
v -0.002918 0.032840 0.037355
v 0.031958 0.000000 -0.011639
v 0.033604 0.011892 -0.007838
v 0.038297 0.017888 0.003880
v 0.039723 0.008993 0.013048
v 0.037669 0.024665 -0.015146
v 0.038990 0.021596 -0.000467
v 0.044004 0.003767 0.021646
v 0.053914 0.009464 0.031820
v 0.052781 0.020374 0.025151
v 0.050715 0.023060 0.020187
v 0.030597 0.030701 -0.021422
v 0.045642 0.031507 0.001528
v 0.046606 0.033042 -0.001550
v 0.052071 0.036661 0.001444
v 0.052201 0.041084 -0.016767
v 0.052126 0.050000 -0.019762
v 0.065455 -0.039451 -0.060457
v 0.064426 -0.027958 -0.076309
v 0.056804 -0.033588 -0.063835
v 0.068763 -0.034484 -0.069424
v 0.076783 -0.038767 -0.061848
v 0.086233 -0.033901 -0.065101
v 0.073570 -0.027125 -0.078033
v 0.082357 -0.029032 -0.073840
v 0.059311 -0.050000 -0.041442
v 0.056670 -0.040086 -0.049838
v 0.062240 -0.042323 -0.050004
v 0.060306 -0.043798 -0.041826
v 0.064582 -0.044827 -0.042774
v 0.068980 -0.050000 -0.042067
v 0.069644 -0.045778 -0.041481
v 0.053201 -0.050000 -0.034160
v 0.056879 -0.042712 -0.039446
v 0.072032 -0.044719 -0.047723
v 0.086790 -0.043964 -0.038906
v 0.087592 -0.040663 -0.048967
v 0.075072 -0.046706 -0.035404
v 0.076117 -0.050000 -0.033424
v 0.088716 -0.044054 -0.029890
v 0.077402 -0.047028 -0.027509
v 0.090566 -0.042830 -0.021861
v 0.059441 -0.019530 -0.080752
v 0.069336 -0.015301 -0.086073
v 0.060409 -0.006278 -0.086794
v 0.072115 -0.007443 -0.089136
v 0.075391 -0.020057 -0.083431
v 0.079687 -0.015922 -0.084984
v 0.087843 -0.014556 -0.081238
v 0.087359 -0.002605 -0.085197
v 0.097455 -0.030015 -0.055849
v 0.096993 -0.025970 -0.062255
v 0.090536 -0.036002 -0.055287
v 0.103419 -0.030761 -0.033966
v 0.100529 -0.026846 -0.052871
v 0.103009 -0.026777 -0.045518
v 0.102124 -0.031737 -0.032979
v 0.102427 -0.031803 -0.022637
v 0.118621 -0.026753 -0.053502
v 0.118621 -0.026913 -0.047582
v 0.118621 -0.025449 -0.041375
v 0.094570 -0.016694 -0.074243
v 0.099337 -0.024895 -0.058723
v 0.099122 -0.021273 -0.063459
v 0.099802 -0.017841 -0.065301
v 0.101015 -0.014710 -0.065743
v 0.093202 -0.007431 -0.079168
v 0.100262 -0.004203 -0.071607
v 0.102788 -0.010575 -0.064739
v 0.104010 -0.003852 -0.064744
v 0.105750 -0.005854 -0.060220
v 0.118621 -0.023982 -0.060476
v 0.118621 -0.020577 -0.063909
v 0.122621 -0.021877 -0.056295
v 0.122621 -0.018573 -0.060097
v 0.118621 -0.016215 -0.065831
v 0.118621 -0.019018 -0.059808
v 0.122621 -0.013456 -0.060960
v 0.118621 -0.012128 -0.065296
v 0.118621 -0.013956 -0.061060
v 0.118621 -0.007883 -0.062722
v 0.118621 -0.010004 -0.058839
v 0.122621 -0.010004 -0.058839
v 0.122621 -0.008123 -0.056295
v 0.118621 -0.005124 -0.058758
v 0.105920 -0.024147 -0.038956
v 0.108564 -0.019718 -0.034532
v 0.118621 -0.022730 -0.054627
v 0.118621 -0.023443 -0.047360
v 0.122621 -0.023084 -0.053091
v 0.122621 -0.023500 -0.049539
v 0.118621 -0.020813 -0.040986
v 0.122621 -0.023084 -0.045986
v 0.122621 -0.021877 -0.042782
v 0.122621 -0.019996 -0.040239
v 0.110577 -0.014065 -0.033282
v 0.110013 -0.017102 -0.028599
v 0.118621 -0.022957 -0.037391
v 0.118621 -0.017627 -0.038606
v 0.118621 -0.018905 -0.034121
v 0.118621 -0.013456 -0.038117
v 0.118621 -0.015000 -0.033310
v 0.122621 -0.016544 -0.038117
v 0.118121 -0.017000 -0.028576
v 0.108094 -0.003604 -0.055015
v 0.110755 -0.003131 -0.045310
v 0.110801 -0.003763 -0.043859
v 0.111521 -0.005960 -0.039044
v 0.111377 -0.005132 -0.040305
v 0.118621 -0.007496 -0.055201
v 0.118621 -0.006500 -0.049539
v 0.122621 -0.006479 -0.051075
v 0.118621 -0.010004 -0.040239
v 0.118621 -0.007270 -0.044450
v 0.122621 -0.009187 -0.040986
v 0.122621 -0.006916 -0.045986
v 0.118621 -0.003780 -0.055293
v 0.118621 -0.002938 -0.048972
v 0.118621 -0.003780 -0.043784
v 0.118621 -0.005124 -0.040320
v 0.111405 -0.009505 -0.035121
v 0.111557 -0.007023 -0.037416
v 0.112226 -0.007956 -0.028584
v 0.118621 -0.012128 -0.033781
v 0.118621 -0.008010 -0.036216
v 0.122621 -0.012373 -0.038606
v 0.118121 -0.005640 -0.023454
v 0.126621 -0.006647 -0.022834
v 0.126621 -0.002893 -0.024755
v 0.055483 -0.050000 -0.012145
v 0.063224 -0.050000 -0.007530
v 0.060392 -0.043812 -0.008514
v 0.055474 -0.042246 -0.012495
v 0.059684 -0.043522 -0.008231
v 0.064656 -0.044880 -0.007637
v 0.070302 -0.050000 -0.009245
v 0.070238 -0.045899 -0.009407
v 0.064019 -0.041664 0.003497
v 0.073618 -0.042373 0.004596
v 0.076173 -0.047813 -0.016999
v 0.077482 -0.050000 -0.022350
v 0.076751 -0.046944 -0.019382
v 0.085017 -0.044454 -0.012966
v 0.074663 -0.045686 -0.007413
v 0.086992 -0.039256 0.003506
v 0.056804 -0.033588 0.013445
v 0.065941 -0.028609 0.025904
v 0.063741 -0.036870 0.013957
v 0.077505 -0.032200 0.021873
v 0.071990 -0.033388 0.020497
v 0.084841 -0.036165 0.011681
v 0.092796 -0.026065 0.017716
v 0.062330 -0.023690 0.028792
v 0.063782 -0.013356 0.035991
v 0.069243 -0.001574 0.039219
v 0.082492 -0.023278 0.029519
v 0.074466 -0.021387 0.032235
v 0.079707 -0.018963 0.032658
v 0.079304 -0.007105 0.037519
v 0.094928 -0.004909 0.028681
v 0.090744 -0.002101 0.032024
v 0.091779 -0.041084 -0.016767
v 0.097868 -0.035817 -0.013122
v 0.095808 -0.035442 -0.005268
v 0.097484 -0.034463 -0.007024
v 0.098545 -0.033651 -0.007964
v 0.099956 -0.035121 -0.006078
v 0.099917 -0.032269 -0.008874
v 0.101350 -0.031813 -0.008667
v 0.103019 -0.033060 -0.006253
v 0.100928 -0.031076 -0.009057
v 0.102692 -0.028725 -0.008543
v 0.104465 -0.028372 -0.006839
v 0.093074 -0.037214 -0.002959
v 0.092934 -0.035802 0.000753
v 0.094414 -0.036682 0.000144
v 0.093179 -0.035996 0.001680
v 0.097274 -0.036595 -0.003436
v 0.094013 -0.035980 -0.001888
v 0.098766 -0.037335 0.000091
v 0.092237 -0.035006 0.003955
v 0.091980 -0.034296 0.005777
v 0.094453 -0.036001 0.006391
v 0.092620 -0.034533 0.006857
v 0.092060 -0.032973 0.008215
v 0.092191 -0.032299 0.009256
v 0.094633 -0.033011 0.011299
v 0.097910 -0.037099 0.005017
v 0.097114 -0.035421 0.009336
v 0.092888 -0.030721 0.011130
v 0.093410 -0.031121 0.011527
v 0.094116 -0.028150 0.012681
v 0.102616 -0.035446 -0.002638
v 0.101584 -0.036638 0.001680
v 0.105023 -0.033968 0.000659
v 0.105595 -0.031773 -0.002974
v 0.103081 -0.035612 0.004120
v 0.102569 -0.034168 0.008729
v 0.100692 -0.035621 0.007766
v 0.099721 -0.033450 0.011567
v 0.106021 -0.031811 0.004757
v 0.104287 -0.031013 0.009680
v 0.105566 -0.028340 -0.004719
v 0.106910 -0.028340 -0.000094
v 0.106470 -0.030705 -0.000298
v 0.105646 -0.024889 -0.002775
v 0.106185 -0.024581 0.000691
v 0.102410 -0.031121 0.011527
v 0.102734 -0.026951 0.011956
v 0.106278 -0.029467 0.006283
v 0.105566 -0.028340 0.008079
v 0.106234 -0.025910 0.005425
v 0.104229 -0.026894 0.010124
v 0.097910 -0.033071 0.012034
v 0.096767 -0.029147 0.013849
v 0.097910 -0.030799 0.013388
v 0.095545 -0.026878 0.013256
v 0.095777 -0.026063 0.012963
v 0.097412 -0.024258 0.012446
v 0.098922 -0.026319 0.013630
v 0.100276 -0.029802 0.013256
v 0.103953 -0.026070 -0.006864
v 0.105038 -0.023750 -0.005344
v 0.106269 -0.023926 -0.009919
v 0.103990 -0.021696 0.001532
v 0.104492 -0.023725 -0.003508
v 0.104301 -0.022279 -0.000531
v 0.102532 -0.022378 0.008631
v 0.100531 -0.021918 0.009487
v 0.102721 -0.021385 0.005493
v 0.105192 -0.023840 0.005441
v 0.104154 -0.022021 0.003635
v 0.104104 -0.024512 0.008834
v 0.106774 -0.017034 -0.000487
v 0.101146 -0.017009 0.013338
v 0.103937 -0.017000 0.007476
v 0.109958 -0.017031 -0.019528
v 0.109484 -0.016998 -0.015134
v 0.108236 -0.016999 -0.006895
v 0.118121 -0.012958 -0.005263
v 0.126621 -0.012674 -0.011526
v 0.126621 -0.013000 -0.007614
v 0.126621 -0.012674 -0.003702
v 0.118121 -0.012410 -0.013183
v 0.118121 -0.009362 -0.019957
v 0.126621 -0.010164 -0.018576
v 0.126621 -0.011713 -0.015242
v 0.118121 -0.010887 0.002174
v 0.126621 -0.011713 0.000014
v 0.126621 -0.010164 0.003348
v 0.118121 -0.006647 0.007606
v 0.126621 -0.008105 0.006132
v 0.118121 -0.001169 0.009990
v 0.126621 -0.005640 0.008226
v 0.126621 -0.002893 0.009526
v 0.098292 -0.023518 0.011867
v 0.092415 -0.014678 0.026775
v 0.100249 -0.024435 0.012180
v 0.099716 -0.016131 0.017165
v 0.101432 -0.016000 0.013348
v 0.099557 -0.015041 0.017439
v 0.100285 -0.013167 0.017438
v 0.104990 -0.016000 0.013348
v 0.104990 -0.016000 0.017439
v 0.096465 -0.014482 0.023267
v 0.101837 -0.007036 0.017440
v 0.105150 -0.002383 0.013348
v 0.104990 -0.000508 0.014691
v 0.105470 -0.001301 0.014326
v 0.118121 -0.017000 0.013348
v 0.059266 0.003695 -0.086314
v 0.060783 0.013426 -0.084832
v 0.058613 0.029672 -0.071563
v 0.065119 0.025190 -0.079059
v 0.069299 0.018368 -0.084462
v 0.070151 0.003503 -0.089430
v 0.074926 0.008583 -0.088595
v 0.088228 0.007441 -0.083487
v 0.082967 0.010845 -0.085495
v 0.081562 0.019475 -0.082342
v 0.071990 0.024972 -0.079841
v 0.085367 0.027556 -0.073596
v 0.057261 0.036049 -0.061549
v 0.066751 0.039146 -0.061886
v 0.076790 0.031062 -0.073412
v 0.072302 0.037440 -0.065325
v 0.082859 0.033419 -0.067822
v 0.081545 0.039716 -0.058606
v 0.062240 0.042323 -0.050004
v 0.054266 0.040977 -0.041891
v 0.059684 0.043522 -0.042160
v 0.058454 0.043278 -0.040785
v 0.059311 0.050000 -0.041442
v 0.064582 0.044827 -0.042774
v 0.066921 0.050000 -0.042507
v 0.069644 0.045778 -0.041481
v 0.073836 0.050000 -0.037782
v 0.074663 0.045686 -0.042978
v 0.084063 0.043918 -0.042408
v 0.088629 0.040741 -0.045842
v 0.075001 0.046651 -0.035537
v 0.076605 0.046967 -0.031359
v 0.077924 0.050000 -0.025195
v 0.077489 0.047062 -0.025209
v 0.077384 0.047032 -0.024288
v 0.087828 0.044011 -0.029245
v 0.098594 0.011269 -0.072296
v 0.093166 0.011089 -0.078279
v 0.104946 0.007203 -0.061958
v 0.106398 0.005124 -0.058758
v 0.100669 0.007630 -0.069763
v 0.103489 0.009366 -0.063868
v 0.091125 0.021565 -0.073885
v 0.093703 0.030359 -0.061963
v 0.099014 0.022158 -0.062670
v 0.100836 0.014972 -0.065765
v 0.101989 0.012155 -0.065301
v 0.100503 0.015938 -0.065613
v 0.099791 0.017970 -0.065255
v 0.118621 0.012128 -0.065296
v 0.118621 0.008836 -0.057640
v 0.118621 0.008222 -0.063069
v 0.122621 0.008123 -0.056295
v 0.122621 0.012373 -0.060471
v 0.122621 0.010004 -0.058839
v 0.118621 0.016291 -0.065807
v 0.118621 0.013456 -0.060960
v 0.122621 0.015000 -0.061034
v 0.122621 0.017627 -0.060471
v 0.118621 0.020577 -0.063909
v 0.118621 0.018573 -0.060097
v 0.118621 0.023982 -0.060476
v 0.118621 0.021877 -0.056295
v 0.122621 0.021164 -0.057640
v 0.107723 0.003874 -0.055565
v 0.109012 0.003101 -0.051589
v 0.104637 0.025615 -0.041730
v 0.107291 0.022248 -0.036525
v 0.105570 0.027200 -0.022435
v 0.109327 0.003026 -0.051148
v 0.110063 0.003094 -0.047528
v 0.111076 0.004217 -0.042171
v 0.111609 0.006767 -0.037788
v 0.118621 0.003087 -0.051495
v 0.118621 0.004249 -0.057063
v 0.118621 0.003380 -0.045198
v 0.118621 0.005124 -0.040320
v 0.118621 0.006479 -0.051075
v 0.122621 0.006916 -0.053091
v 0.122621 0.006500 -0.049539
v 0.118621 0.007496 -0.043876
v 0.118621 0.010004 -0.040239
v 0.122621 0.006916 -0.045986
v 0.122621 0.008123 -0.042782
v 0.122621 0.010982 -0.039269
v 0.112584 0.003084 -0.032693
v 0.112758 0.001688 -0.028574
v 0.111247 0.010810 -0.034240
v 0.111380 0.011837 -0.028575
v 0.118121 -0.001700 -0.025140
v 0.118121 0.003994 -0.024444
v 0.126621 0.000000 -0.025195
v 0.126621 0.002893 -0.024755
v 0.126621 0.005640 -0.023454
v 0.118621 0.008258 -0.036032
v 0.118621 0.013956 -0.038017
v 0.118621 0.012128 -0.033781
v 0.118621 0.023443 -0.051717
v 0.122621 0.023084 -0.053091
v 0.118621 0.021164 -0.041437
v 0.118621 0.023084 -0.045986
v 0.118621 0.024876 -0.040320
v 0.122621 0.023443 -0.047360
v 0.122621 0.021877 -0.042782
v 0.110308 0.014920 -0.033308
v 0.109282 0.017931 -0.033807
v 0.110035 0.016699 -0.028576
v 0.118621 0.015000 -0.033310
v 0.118621 0.017627 -0.038606
v 0.122621 0.015000 -0.038043
v 0.122621 0.018573 -0.038981
v 0.118121 0.017000 -0.028576
v 0.118621 0.018799 -0.034054
v 0.118621 0.022957 -0.037391
v 0.100311 0.026988 -0.054315
v 0.094305 0.037606 -0.043344
v 0.100350 0.026691 -0.053499
v 0.102023 0.026958 -0.048861
v 0.102981 0.028824 -0.040426
v 0.098357 0.036546 -0.032482
v 0.102427 0.031803 -0.027754
v 0.093466 0.040406 -0.025195
v 0.118621 0.026220 -0.055293
v 0.118621 0.026913 -0.051495
v 0.118621 0.026638 -0.045101
v 0.058403 0.001845 0.035553
v 0.069274 0.011974 0.037185
v 0.061202 0.014310 0.033664
v 0.066830 0.020372 0.032716
v 0.085117 0.006240 0.036026
v 0.082644 0.010961 0.035490
v 0.088299 0.021427 0.026385
v 0.077368 0.017016 0.034181
v 0.073570 0.027125 0.027643
v 0.082778 0.014310 0.033664
v 0.055887 0.042392 -0.011864
v 0.054667 0.038630 0.002555
v 0.061714 0.044054 -0.007886
v 0.059684 0.043522 -0.008231
v 0.053973 0.050000 -0.014861
v 0.056849 0.050000 -0.010972
v 0.060473 0.050000 -0.008475
v 0.067774 0.045524 -0.008284
v 0.064019 0.041664 0.003497
v 0.075758 0.047919 -0.016578
v 0.075518 0.046826 -0.016218
v 0.073037 0.046315 -0.011772
v 0.071990 0.045783 -0.008082
v 0.068980 0.050000 -0.008324
v 0.080317 0.046960 -0.021034
v 0.087143 0.042713 -0.007748
v 0.086624 0.043904 -0.016738
v 0.076909 0.041964 0.004313
v 0.086953 0.036314 0.009871
v 0.054615 0.027920 0.019014
v 0.062760 0.031979 0.020271
v 0.062305 0.036036 0.013787
v 0.066071 0.028232 0.025826
v 0.070320 0.039490 0.011631
v 0.081482 0.026020 0.027026
v 0.075305 0.037060 0.014648
v 0.078551 0.032955 0.019904
v 0.089365 0.027920 0.019014
v 0.092450 0.031722 0.010504
v 0.108250 0.019987 -0.010350
v 0.104695 0.027026 -0.012076
v 0.104365 0.024719 -0.005122
v 0.105038 0.023750 -0.005344
v 0.108236 0.016998 -0.006895
v 0.106402 0.017001 0.000467
v 0.103894 0.017000 0.007577
v 0.103609 0.021542 0.002956
v 0.104445 0.022896 -0.001994
v 0.104444 0.024185 -0.004244
v 0.105987 0.024835 -0.001567
v 0.104248 0.022119 -0.000098
v 0.106185 0.024581 0.002668
v 0.103661 0.021492 0.003029
v 0.102702 0.021402 0.005530
v 0.101787 0.021525 0.007350
v 0.100450 0.022028 0.009529
v 0.104273 0.022725 0.006192
v 0.099555 0.022616 0.010660
v 0.098292 0.023518 0.011867
v 0.101056 0.023686 0.011376
v 0.104287 0.025667 0.009680
v 0.118121 0.008989 -0.020450
v 0.126621 0.008105 -0.021360
v 0.126621 0.010164 -0.018576
v 0.126621 0.011713 -0.015242
v 0.118121 0.002893 0.009526
v 0.118121 0.005640 0.008226
v 0.126621 0.000000 0.009967
v 0.126621 0.003994 0.009216
v 0.118121 0.012410 -0.002045
v 0.126621 0.010164 0.003348
v 0.126621 0.011713 0.000014
v 0.118121 0.009362 0.004729
v 0.126621 0.008105 0.006132
v 0.110199 0.017006 -0.028450
v 0.108950 0.017000 -0.010986
v 0.118121 0.012235 -0.013846
v 0.118121 0.013000 -0.007614
v 0.126621 0.013018 -0.009266
v 0.126621 0.012674 -0.003702
v 0.097327 0.003854 0.024924
v 0.100418 0.013553 0.017600
v 0.102468 -0.000256 0.017442
v 0.101956 0.006174 0.017439
v 0.105470 0.000000 0.014676
v 0.104990 0.001301 0.014326
v 0.105470 0.001301 0.014326
v 0.105278 0.002383 0.013348
v 0.101817 0.007594 0.017469
v 0.099135 0.016133 0.017629
v 0.092415 0.014678 0.026775
v 0.097910 0.023784 0.012138
v 0.095040 0.024385 0.016340
v 0.099876 0.014300 0.017439
v 0.101432 0.016000 0.013348
v 0.101118 0.017007 0.013340
v 0.100497 0.016000 0.015184
v 0.104990 0.016000 0.013348
v 0.104990 0.016000 0.017439
v 0.100103 0.020203 0.012564
v 0.118121 0.017000 0.013348
v 0.098545 0.033651 -0.007964
v 0.097484 0.034463 -0.007024
v 0.103863 0.026211 -0.006892
v 0.102639 0.028783 -0.008561
v 0.102858 0.028389 -0.008436
v 0.102526 0.028976 -0.008607
v 0.103384 0.031497 -0.007224
v 0.104998 0.027574 -0.005915
v 0.104229 0.029785 -0.006765
v 0.100331 0.033347 -0.014877
v 0.100928 0.031076 -0.009057
v 0.099917 0.032269 -0.008874
v 0.099888 0.033349 -0.008223
v 0.101230 0.034732 -0.005863
v 0.093295 0.029803 0.011762
v 0.092670 0.031210 0.010611
v 0.092885 0.030724 0.011125
v 0.094297 0.031693 0.012050
v 0.095008 0.035740 -0.003875
v 0.090881 0.038832 -0.002411
v 0.093822 0.035976 -0.001457
v 0.093897 0.035981 -0.001641
v 0.094005 0.036104 -0.001484
v 0.092701 0.035619 0.001584
v 0.094176 0.036622 0.001680
v 0.095200 0.035690 -0.004251
v 0.096146 0.035263 -0.005684
v 0.097742 0.037093 -0.001776
v 0.097910 0.035996 -0.004719
v 0.098766 0.037335 0.003269
v 0.091955 0.033645 0.007079
v 0.094082 0.033630 0.010056
v 0.092237 0.035006 0.003955
v 0.091910 0.034079 0.006465
v 0.094453 0.036001 0.006391
v 0.096448 0.036899 0.004879
v 0.097231 0.033870 0.011367
v 0.097910 0.035996 0.008079
v 0.105674 0.026001 -0.003601
v 0.106234 0.030770 -0.002065
v 0.106568 0.028340 -0.001646
v 0.106906 0.029503 0.002827
v 0.102410 0.025559 0.011527
v 0.102734 0.029728 0.011956
v 0.106278 0.027212 0.006283
v 0.105137 0.030116 0.008774
v 0.105566 0.028340 0.008079
v 0.102616 0.035446 -0.002638
v 0.100370 0.036997 0.001680
v 0.103494 0.035458 0.002669
v 0.104797 0.033878 -0.001217
v 0.105566 0.033071 0.001680
v 0.100619 0.034251 0.010288
v 0.102616 0.035446 0.005997
v 0.100692 0.035621 0.007766
v 0.105192 0.032840 0.005441
v 0.104104 0.032168 0.008834
v 0.095326 0.037651 -0.011511
v 0.093939 0.028517 0.012473
v 0.095374 0.026460 0.013012
v 0.096591 0.025191 0.012767
v 0.096772 0.026510 0.013598
v 0.096767 0.029147 0.013849
v 0.099114 0.030320 0.013575
v 0.100276 0.026878 0.013256
v 0.100249 0.032245 0.012180
g camera
f 464 63 62
f 464 61 63
f 61 212 63
f 61 561 212
f 336 338 339
f 339 338 448
f 338 841 448
f 457 465 460
f 457 460 461
f 457 461 462
f 462 461 463
f 457 464 465
f 464 62 465
f 457 462 464
f 464 462 61
f 462 469 470
f 462 463 469
f 469 472 470
f 462 470 572
f 470 472 572
f 572 472 573
f 61 462 561
f 212 561 564
f 462 562 561
f 561 563 564
f 561 562 563
f 562 566 563
f 462 567 562
f 462 571 567
f 562 567 566
f 567 568 566
f 462 572 571
f 571 572 573
f 571 568 567
f 723 724 725
f 725 726 727
f 724 726 725
f 727 726 728
f 723 335 339
f 336 339 335
f 723 339 724
f 339 448 724
f 726 724 728
f 727 728 732
f 732 728 733
f 724 734 728
f 733 728 734
f 733 734 735
f 735 734 736
f 338 837 841
f 448 841 724
f 724 841 842
f 724 842 843
f 837 842 841
f 837 839 842
f 842 839 843
f 724 843 850
f 724 850 846
f 839 844 850
f 843 839 850
f 848 850 844
f 724 846 734
f 847 846 848
f 736 734 846
f 848 846 850
f 1 2 70
f 2 458 60
f 60 62 63
f 60 63 64
f 63 212 64
f 60 64 75
f 1 69 113
f 70 60 69
f 1 70 69
f 70 2 60
f 60 75 69
f 69 75 84
f 89 88 2
f 1 89 2
f 89 90 88
f 90 91 88
f 88 92 476
f 88 91 92
f 92 91 228
f 91 90 229
f 97 111 89
f 97 108 111
f 90 111 230
f 108 112 111
f 89 113 97
f 1 113 89
f 113 69 97
f 108 69 84
f 108 97 69
f 108 84 216
f 90 89 111
f 90 230 229
f 64 212 211
f 211 212 564
f 75 213 84
f 84 213 214
f 84 214 219
f 211 75 64
f 211 213 75
f 213 215 214
f 214 215 220
f 108 216 217
f 108 217 112
f 112 217 433
f 217 218 433
f 217 221 218
f 84 219 216
f 219 220 216
f 217 216 220
f 214 220 219
f 217 220 221
f 220 222 221
f 221 224 218
f 220 215 223
f 220 223 222
f 221 439 224
f 221 226 439
f 222 225 221
f 221 225 226
f 222 585 225
f 92 228 227
f 92 227 702
f 227 232 703
f 227 228 231
f 91 231 228
f 91 229 230
f 91 230 231
f 227 231 233
f 231 230 233
f 233 234 227
f 234 232 227
f 234 259 232
f 230 111 235
f 111 237 235
f 111 112 236
f 111 236 237
f 236 258 237
f 235 237 230
f 233 230 237
f 233 237 234
f 237 258 234
f 259 320 232
f 234 314 259
f 259 314 320
f 320 314 335
f 234 324 314
f 234 258 324
f 324 337 314
f 320 335 721
f 314 337 335
f 336 337 338
f 335 337 336
f 433 434 112
f 236 112 434
f 433 218 434
f 218 436 434
f 236 434 258
f 434 436 435
f 435 438 434
f 258 434 437
f 434 438 437
f 438 435 444
f 224 436 218
f 224 439 436
f 226 225 439
f 439 225 440
f 439 440 436
f 440 225 827
f 440 441 436
f 436 441 435
f 435 441 442
f 435 442 444
f 437 444 258
f 258 444 324
f 437 438 444
f 444 445 324
f 445 446 324
f 444 446 445
f 337 324 447
f 337 447 338
f 447 837 338
f 447 324 838
f 446 838 324
f 447 838 837
f 442 856 444
f 449 451 450
f 449 450 452
f 2 451 449
f 2 88 451
f 451 88 450
f 88 474 450
f 449 453 466
f 452 453 449
f 450 455 452
f 455 478 456
f 453 452 456
f 455 456 452
f 453 456 454
f 2 449 458
f 458 459 460
f 449 459 458
f 458 460 60
f 60 460 465
f 461 460 459
f 461 466 463
f 449 466 459
f 459 466 461
f 60 465 62
f 466 469 463
f 466 467 469
f 453 468 466
f 467 466 468
f 453 454 468
f 454 484 468
f 467 471 469
f 469 471 472
f 471 473 472
f 472 574 573
f 472 473 574
f 88 476 474
f 474 475 450
f 450 478 455
f 450 475 478
f 474 477 475
f 474 476 477
f 476 707 477
f 456 478 479
f 475 479 478
f 479 480 456
f 454 456 493
f 456 480 493
f 475 477 479
f 479 477 481
f 479 481 480
f 480 481 498
f 454 482 484
f 454 483 482
f 483 494 486
f 484 482 468
f 468 482 485
f 467 468 485
f 467 485 488
f 483 486 482
f 482 486 487
f 482 487 485
f 485 487 517
f 467 488 471
f 471 489 473
f 471 488 489
f 488 485 489
f 454 493 483
f 483 493 495
f 483 495 494
f 493 496 495
f 493 497 496
f 480 498 493
f 498 499 493
f 498 481 499
f 497 493 499
f 497 499 500
f 499 501 500
f 500 501 502
f 501 536 502
f 485 517 518
f 485 518 528
f 485 528 668
f 528 518 527
f 527 554 528
f 536 771 537
f 538 537 540
f 540 537 787
f 527 552 554
f 552 553 554
f 539 554 553
f 539 540 787
f 539 787 554
f 554 787 788
f 564 563 211
f 211 563 565
f 211 565 213
f 563 569 565
f 563 566 569
f 566 568 575
f 566 575 570
f 565 569 213
f 213 569 579
f 215 213 579
f 566 570 569
f 569 570 579
f 215 579 577
f 573 574 575
f 571 575 568
f 573 575 571
f 473 593 574
f 575 574 576
f 575 576 570
f 574 605 576
f 570 576 582
f 582 576 616
f 577 579 578
f 577 578 215
f 215 578 584
f 579 581 578
f 570 580 579
f 570 582 580
f 579 580 581
f 578 581 580
f 580 588 578
f 580 582 587
f 582 621 583
f 582 583 587
f 223 215 584
f 222 223 585
f 584 578 588
f 584 588 223
f 223 588 585
f 585 827 225
f 585 586 827
f 580 589 588
f 580 587 589
f 583 696 587
f 588 589 585
f 585 589 590
f 589 587 590
f 587 688 591
f 585 590 586
f 587 591 590
f 590 591 592
f 590 592 831
f 593 473 594
f 574 593 594
f 574 594 605
f 594 595 605
f 594 596 595
f 594 597 596
f 489 594 473
f 597 594 599
f 594 602 599
f 594 603 602
f 594 489 655
f 485 655 489
f 594 655 603
f 655 653 603
f 655 654 653
f 605 595 610
f 605 610 606
f 605 606 576
f 606 612 576
f 576 612 613
f 576 613 616
f 582 616 617
f 582 617 621
f 621 623 583
f 623 649 583
f 485 668 655
f 653 654 657
f 654 655 665
f 654 665 657
f 657 665 658
f 658 665 656
f 656 665 667
f 656 667 661
f 661 690 660
f 687 660 690
f 661 666 690
f 655 670 665
f 661 667 666
f 655 668 669
f 655 669 670
f 649 650 583
f 650 687 583
f 687 690 583
f 583 690 696
f 696 690 692
f 696 692 693
f 587 696 688
f 666 691 690
f 688 696 591
f 696 693 697
f 696 697 909
f 696 909 591
f 92 702 476
f 227 703 702
f 476 702 707
f 702 703 707
f 703 708 707
f 232 704 703
f 703 704 705
f 703 705 706
f 703 706 708
f 705 712 706
f 477 707 708
f 477 708 481
f 708 710 481
f 481 710 709
f 708 706 711
f 708 711 710
f 706 712 711
f 709 710 711
f 709 711 739
f 711 713 744
f 704 715 705
f 232 320 704
f 320 714 704
f 704 714 715
f 705 715 717
f 712 705 716
f 712 716 711
f 705 717 716
f 711 716 713
f 717 718 716
f 713 716 718
f 718 719 713
f 713 719 745
f 717 719 718
f 714 720 715
f 714 722 720
f 320 721 714
f 714 721 722
f 721 335 723
f 721 723 722
f 720 722 725
f 722 723 725
f 720 725 715
f 715 725 729
f 725 727 729
f 717 715 719
f 719 729 730
f 715 729 719
f 729 727 732
f 719 730 731
f 719 731 745
f 729 851 730
f 729 732 733
f 729 733 851
f 733 735 851
f 735 736 851
f 731 730 737
f 851 737 730
f 709 739 481
f 481 739 738
f 499 481 738
f 501 499 740
f 738 742 499
f 499 742 740
f 501 740 536
f 740 741 536
f 536 766 767
f 536 741 766
f 740 742 743
f 742 738 748
f 742 748 743
f 711 744 739
f 739 744 738
f 738 750 749
f 744 745 738
f 713 745 744
f 738 745 746
f 738 746 750
f 738 747 748
f 738 749 747
f 536 767 771
f 769 770 901
f 771 772 537
f 537 772 773
f 537 773 774
f 537 774 787
f 774 789 787
f 787 789 790
f 789 806 790
f 787 790 788
f 806 901 808
f 806 807 901
f 806 808 790
f 769 901 807
f 770 866 901
f 745 816 746
f 745 817 816
f 816 821 819
f 817 821 816
f 816 819 818
f 819 820 768
f 821 820 819
f 820 821 822
f 768 820 769
f 769 820 822
f 769 822 770
f 731 817 745
f 731 737 817
f 821 817 737
f 821 737 823
f 737 852 823
f 827 586 440
f 440 586 828
f 440 828 829
f 442 441 856
f 441 830 859
f 440 829 441
f 441 829 830
f 829 828 830
f 590 831 586
f 586 831 828
f 831 832 828
f 832 834 828
f 828 834 830
f 832 836 834
f 834 836 861
f 834 861 830
f 830 861 835
f 836 833 861
f 832 833 836
f 832 917 833
f 444 838 446
f 838 840 837
f 837 840 839
f 840 845 839
f 839 845 844
f 844 860 849
f 848 844 849
f 840 838 845
f 838 858 845
f 844 845 860
f 736 846 851
f 846 847 851
f 847 848 851
f 848 849 851
f 849 854 851
f 737 853 852
f 737 851 853
f 851 852 853
f 851 854 852
f 860 862 854
f 860 854 849
f 852 855 947
f 854 855 852
f 444 856 838
f 856 857 838
f 441 857 856
f 441 859 857
f 857 858 838
f 830 835 859
f 858 857 860
f 859 860 857
f 845 858 860
f 859 835 860
f 835 861 863
f 862 860 863
f 862 863 855
f 835 863 860
f 864 943 865
f 861 864 865
f 833 864 861
f 861 865 855
f 863 861 855
f 854 862 855
f 770 867 866
f 866 867 869
f 868 869 930
f 870 866 871
f 922 872 881
f 871 880 872
f 869 874 866
f 866 873 871
f 866 877 873
f 866 874 877
f 869 875 874
f 869 868 875
f 871 879 880
f 872 880 881
f 881 882 926
f 884 885 926
f 884 926 882
f 922 881 926
f 871 873 879
f 866 902 901
f 866 870 902
f 907 831 592
f 591 907 592
f 831 908 917
f 907 915 908
f 907 908 831
f 591 909 910
f 591 910 915
f 907 591 915
f 832 831 917
f 908 920 916
f 916 833 917
f 908 916 917
f 916 919 833
f 864 833 919
f 916 926 919
f 918 919 885
f 918 988 919
f 885 919 926
f 922 923 921
f 922 926 923
f 926 916 923
f 821 985 937
f 947 954 985
f 928 937 985
f 954 929 985
f 929 928 985
f 770 937 867
f 930 867 932
f 867 937 933
f 867 931 932
f 867 933 931
f 869 867 930
f 822 937 770
f 822 821 937
f 937 939 938
f 938 933 937
f 928 939 937
f 947 953 954
f 947 946 953
f 947 951 948
f 946 947 949
f 947 948 949
f 947 855 951
f 865 958 855
f 958 961 855
f 951 855 960
f 960 855 961
f 823 852 821
f 821 852 985
f 852 947 985
f 919 986 942
f 864 919 942
f 864 942 944
f 864 944 943
f 919 988 987
f 919 987 986
f 528 535 668
f 535 669 668
f 528 554 535
f 535 554 788
f 535 788 813
f 535 558 676
f 535 791 558
f 535 813 791
f 535 670 669
f 535 701 670
f 535 676 675
f 535 675 671
f 535 671 701
f 670 701 665
f 665 701 667
f 666 667 701
f 671 679 701
f 679 682 701
f 682 684 701
f 701 684 892
f 666 694 691
f 666 701 694
f 698 694 927
f 701 927 694
f 788 790 813
f 791 813 792
f 792 813 888
f 808 901 813
f 790 808 813
f 892 893 927
f 893 899 927
f 901 902 927
f 813 901 927
f 813 903 888
f 813 927 903
f 902 870 927
f 870 871 927
f 871 872 927
f 922 927 872
f 903 927 904
f 904 927 896
f 899 896 927
f 922 921 924
f 922 924 927
f 698 927 914
f 927 924 914
f 701 892 927
f 558 559 676
f 558 791 559
f 791 560 559
f 560 791 793
f 675 673 671
f 675 672 673
f 671 673 674
f 676 678 675
f 672 675 678
f 676 677 678
f 676 559 677
f 672 678 677
f 672 677 673
f 673 677 674
f 559 560 677
f 560 793 677
f 671 680 679
f 671 674 680
f 679 680 681
f 674 677 680
f 680 677 681
f 679 683 682
f 679 681 683
f 682 683 685
f 681 677 683
f 683 677 685
f 685 677 686
f 682 686 684
f 682 685 686
f 686 677 894
f 684 686 894
f 791 792 793
f 792 794 793
f 792 795 794
f 792 888 795
f 795 888 889
f 793 794 677
f 794 795 677
f 795 889 677
f 677 889 890
f 888 903 890
f 677 890 891
f 888 890 889
f 903 891 890
f 677 891 905
f 677 905 906
f 891 903 905
f 677 900 895
f 677 897 900
f 684 895 892
f 892 895 893
f 677 895 894
f 684 894 895
f 899 898 896
f 677 898 897
f 677 906 898
f 896 898 906
f 899 897 898
f 893 900 899
f 893 895 900
f 897 899 900
f 903 904 905
f 904 896 905
f 905 896 906
f 494 490 486
f 494 503 490
f 486 491 487
f 486 490 491
f 487 492 517
f 487 491 492
f 490 520 491
f 491 520 492
f 494 495 503
f 495 496 507
f 496 497 507
f 497 500 507
f 495 507 504
f 495 504 503
f 500 510 507
f 490 503 519
f 503 504 508
f 503 508 519
f 504 507 508
f 507 511 508
f 507 510 511
f 500 512 510
f 500 502 512
f 502 536 516
f 502 516 512
f 516 536 548
f 510 512 511
f 511 512 513
f 513 512 541
f 512 516 541
f 516 548 541
f 490 519 520
f 520 523 492
f 492 523 529
f 517 529 518
f 517 492 529
f 518 529 531
f 518 531 527
f 527 531 533
f 527 533 555
f 523 531 529
f 523 530 531
f 530 532 531
f 531 532 533
f 532 555 533
f 536 537 549
f 536 549 548
f 537 538 549
f 538 550 549
f 539 553 551
f 539 551 540
f 538 540 550
f 551 553 556
f 540 551 550
f 544 545 556
f 545 551 556
f 541 548 549
f 541 549 542
f 542 549 545
f 545 549 550
f 545 550 551
f 552 555 556
f 527 555 552
f 552 556 553
f 532 556 555
f 544 556 532
f 508 506 505
f 519 508 505
f 508 511 506
f 511 509 506
f 506 509 505
f 511 513 509
f 513 541 514
f 513 514 509
f 541 515 514
f 509 514 505
f 519 505 521
f 519 521 522
f 519 522 520
f 520 522 524
f 521 505 522
f 522 505 524
f 520 525 523
f 520 524 525
f 523 525 526
f 523 526 534
f 524 505 525
f 525 505 526
f 523 534 530
f 526 505 534
f 505 557 534
f 530 534 532
f 532 534 557
f 515 541 543
f 541 542 543
f 542 545 543
f 514 515 505
f 515 543 505
f 505 543 547
f 546 532 557
f 544 532 546
f 543 545 547
f 545 546 547
f 544 546 545
f 505 547 546
f 505 546 557
f 748 751 743
f 747 757 748
f 747 749 757
f 749 750 757
f 746 761 750
f 746 816 763
f 740 776 741
f 766 741 776
f 740 753 776
f 743 751 753
f 740 743 753
f 776 753 752
f 753 758 752
f 751 758 753
f 748 757 751
f 750 761 757
f 746 763 761
f 751 757 758
f 757 762 758
f 757 761 762
f 761 763 762
f 762 763 764
f 764 763 799
f 763 824 799
f 767 775 771
f 771 775 772
f 766 776 767
f 772 775 777
f 767 776 775
f 772 777 773
f 773 778 774
f 773 777 778
f 775 776 779
f 775 779 777
f 777 779 782
f 777 782 778
f 752 779 776
f 778 782 796
f 782 783 796
f 774 796 789
f 778 796 774
f 789 796 798
f 783 797 796
f 796 797 798
f 768 769 803
f 799 826 802
f 802 826 801
f 801 803 815
f 801 826 803
f 806 814 807
f 789 809 806
f 789 798 809
f 806 809 814
f 769 807 814
f 769 814 815
f 769 815 803
f 798 797 809
f 797 810 814
f 797 814 809
f 801 814 810
f 801 815 814
f 816 818 824
f 763 816 824
f 818 819 825
f 819 768 826
f 818 825 824
f 819 826 825
f 768 803 826
f 799 824 825
f 799 825 826
f 758 755 756
f 758 756 752
f 752 756 754
f 755 758 759
f 758 762 759
f 762 760 759
f 759 760 755
f 760 765 755
f 760 762 765
f 762 764 765
f 752 780 779
f 752 754 780
f 779 780 781
f 779 781 784
f 754 755 780
f 754 756 755
f 780 755 781
f 781 755 784
f 779 784 782
f 782 784 785
f 782 785 786
f 782 786 783
f 783 786 797
f 784 755 785
f 785 755 786
f 786 755 811
f 755 812 811
f 764 799 765
f 765 799 800
f 799 804 800
f 799 802 804
f 765 800 755
f 755 800 804
f 801 810 812
f 801 812 805
f 802 801 804
f 801 805 804
f 755 804 805
f 755 805 812
f 797 786 811
f 797 812 810
f 797 811 812
f 695 690 691
f 695 691 694
f 695 692 690
f 695 693 692
f 695 697 693
f 695 909 697
f 695 694 698
f 695 698 699
f 695 910 909
f 695 699 925
f 695 925 910
f 925 699 912
f 925 915 910
f 925 908 915
f 925 912 914
f 925 914 924
f 925 920 908
f 925 921 923
f 925 924 921
f 925 923 916
f 925 916 920
f 595 596 609
f 596 598 609
f 596 597 598
f 598 599 600
f 597 599 598
f 598 600 601
f 599 602 600
f 602 603 600
f 600 603 604
f 601 600 604
f 603 653 604
f 601 604 627
f 604 634 627
f 604 637 634
f 604 653 637
f 610 607 606
f 606 607 608
f 608 607 614
f 608 612 606
f 608 614 612
f 609 610 595
f 607 610 609
f 609 611 607
f 607 611 619
f 611 625 619
f 612 614 613
f 613 614 615
f 615 614 618
f 615 616 613
f 615 618 616
f 616 618 617
f 617 618 622
f 607 619 614
f 619 620 614
f 618 614 620
f 620 645 618
f 620 631 645
f 617 622 621
f 622 623 621
f 609 598 611
f 611 598 624
f 601 624 598
f 611 624 625
f 624 626 625
f 625 626 628
f 601 627 624
f 624 627 626
f 627 636 626
f 626 636 632
f 625 628 619
f 620 619 630
f 619 628 630
f 628 629 630
f 620 630 631
f 630 629 631
f 629 639 631
f 629 633 639
f 629 628 632
f 626 632 628
f 629 632 633
f 632 641 633
f 627 634 635
f 627 635 636
f 636 635 632
f 635 641 632
f 634 637 635
f 637 653 657
f 635 637 638
f 635 643 641
f 635 638 643
f 639 633 640
f 633 644 640
f 640 644 664
f 633 642 644
f 641 642 633
f 641 643 642
f 642 643 644
f 643 664 644
f 618 645 647
f 645 631 647
f 622 646 623
f 622 618 646
f 618 647 646
f 647 652 646
f 623 646 648
f 623 648 649
f 648 651 649
f 649 651 650
f 646 651 648
f 647 631 652
f 639 652 631
f 646 652 651
f 652 640 651
f 639 640 652
f 640 689 651
f 637 657 658
f 637 658 656
f 637 656 638
f 638 656 663
f 640 659 689
f 687 689 660
f 660 689 659
f 640 664 659
f 656 661 663
f 659 663 661
f 659 661 660
f 643 638 662
f 659 664 662
f 643 662 664
f 638 663 662
f 659 662 663
f 651 689 650
f 650 689 687
f 873 877 879
f 876 877 874
f 868 966 875
f 875 966 876
f 874 875 876
f 876 878 877
f 877 878 879
f 879 883 880
f 880 883 881
f 881 886 882
f 884 882 886
f 884 886 885
f 881 883 886
f 883 887 886
f 886 887 970
f 878 883 879
f 883 972 887
f 918 989 988
f 918 885 886
f 918 886 989
f 929 940 928
f 954 956 929
f 929 956 940
f 930 932 935
f 931 936 932
f 931 933 936
f 938 934 933
f 933 934 936
f 930 935 966
f 932 936 935
f 936 967 935
f 936 934 967
f 938 939 940
f 938 940 934
f 934 940 941
f 928 940 939
f 941 975 934
f 940 956 941
f 942 986 945
f 942 945 944
f 943 944 945
f 946 949 950
f 949 948 950
f 948 951 952
f 951 960 952
f 952 960 962
f 948 952 950
f 953 955 954
f 946 955 953
f 954 955 956
f 946 950 955
f 950 952 955
f 955 952 957
f 952 963 957
f 957 976 955
f 865 943 959
f 945 959 943
f 865 959 958
f 958 959 961
f 960 961 962
f 959 962 961
f 959 945 964
f 980 964 993
f 952 962 963
f 963 962 965
f 963 965 957
f 959 964 962
f 962 964 965
f 964 980 965
f 868 930 966
f 966 935 968
f 966 968 876
f 876 968 969
f 876 969 878
f 969 972 878
f 935 967 968
f 968 967 969
f 970 887 971
f 887 973 971
f 971 973 984
f 883 878 972
f 972 974 887
f 973 974 972
f 973 972 969
f 887 974 973
f 956 955 941
f 941 955 975
f 955 976 975
f 975 977 978
f 975 976 977
f 976 981 977
f 934 978 967
f 934 975 978
f 967 978 979
f 979 978 977
f 967 979 969
f 971 980 993
f 971 984 980
f 980 984 981
f 976 957 981
f 965 982 957
f 957 982 981
f 965 980 982
f 980 981 982
f 973 969 983
f 969 979 983
f 973 983 984
f 979 977 983
f 981 983 977
f 981 984 983
f 945 986 990
f 987 988 989
f 986 987 989
f 986 989 990
f 989 992 990
f 990 991 945
f 991 964 945
f 991 993 964
f 886 992 989
f 886 970 992
f 970 971 992
f 990 992 991
f 992 971 991
f 971 993 991
f 3 4 9
f 3 27 4
f 5 8 36
f 3 6 14
f 5 6 7
f 6 9 7
f 3 9 6
f 5 7 8
f 9 12 7
f 4 10 9
f 9 10 11
f 9 11 12
f 7 13 8
f 7 12 13
f 8 13 50
f 11 76 12
f 14 35 15
f 14 15 22
f 15 17 18
f 15 35 16
f 15 16 17
f 17 16 18
f 16 19 18
f 19 20 18
f 20 19 93
f 20 93 32
f 15 21 22
f 3 22 23
f 3 14 22
f 21 23 22
f 3 23 27
f 21 27 23
f 15 24 21
f 15 18 24
f 21 24 25
f 21 26 27
f 21 25 26
f 26 28 27
f 4 27 28
f 28 26 65
f 25 29 26
f 25 24 29
f 29 33 26
f 18 30 24
f 18 20 30
f 30 31 24
f 20 32 30
f 30 94 31
f 30 32 94
f 24 31 29
f 31 34 29
f 31 95 34
f 29 34 33
f 33 34 68
f 14 5 35
f 6 5 14
f 5 36 35
f 35 36 38
f 16 35 37
f 16 37 43
f 35 38 37
f 38 46 37
f 38 36 39
f 38 39 40
f 39 42 40
f 38 40 46
f 39 41 42
f 16 43 19
f 37 44 43
f 19 43 44
f 37 46 44
f 44 45 19
f 19 45 93
f 46 40 47
f 44 46 47
f 42 47 40
f 42 41 47
f 41 49 47
f 44 47 45
f 47 48 45
f 45 48 100
f 45 100 98
f 47 49 48
f 8 39 36
f 8 50 39
f 41 39 50
f 50 13 51
f 50 51 52
f 41 50 52
f 12 76 53
f 13 53 51
f 12 53 13
f 51 53 54
f 52 51 54
f 41 52 49
f 49 56 48
f 56 109 48
f 49 55 56
f 56 55 109
f 55 57 58
f 55 58 110
f 59 85 58
f 57 59 58
f 10 72 11
f 28 65 4
f 4 65 71
f 26 33 66
f 26 66 65
f 66 67 65
f 66 68 67
f 33 68 66
f 34 82 68
f 10 4 71
f 71 73 72
f 10 71 72
f 72 74 77
f 65 73 71
f 65 67 73
f 72 73 74
f 11 72 76
f 72 77 76
f 76 77 53
f 53 77 78
f 53 78 79
f 74 78 77
f 54 53 79
f 54 79 57
f 67 68 73
f 73 80 74
f 68 80 73
f 74 81 78
f 80 81 74
f 82 114 83
f 68 82 80
f 80 82 83
f 80 83 81
f 81 83 87
f 78 85 79
f 81 85 78
f 79 85 86
f 57 79 86
f 57 86 59
f 85 87 115
f 87 83 115
f 58 85 115
f 81 87 85
f 59 86 85
f 31 94 95
f 32 102 94
f 94 96 95
f 34 95 96
f 34 96 82
f 93 99 101
f 45 98 93
f 93 98 99
f 93 101 32
f 32 101 102
f 101 99 102
f 94 102 96
f 99 98 103
f 99 103 102
f 103 105 102
f 102 104 96
f 96 104 82
f 102 105 104
f 104 107 106
f 104 105 107
f 100 109 98
f 48 109 100
f 98 109 103
f 55 110 109
f 103 109 110
f 103 110 107
f 105 103 107
f 58 115 107
f 58 107 110
f 104 114 82
f 104 106 114
f 106 83 114
f 106 107 83
f 107 115 83
f 52 54 210
f 52 210 49
f 49 210 55
f 54 57 210
f 55 210 57
f 239 240 247
f 240 269 241
f 240 242 249
f 240 241 242
f 242 241 255
f 243 238 244
f 244 248 243
f 243 248 245
f 239 247 238
f 244 238 246
f 238 247 246
f 240 249 247
f 246 247 249
f 244 246 248
f 246 251 248
f 246 249 250
f 249 242 250
f 246 250 251
f 248 252 245
f 248 251 252
f 245 252 253
f 245 253 294
f 253 252 295
f 251 254 252
f 254 297 252
f 242 255 256
f 242 256 250
f 250 256 257
f 250 257 251
f 251 257 254
f 238 261 239
f 260 239 261
f 261 263 260
f 263 264 260
f 264 262 260
f 264 266 262
f 266 265 262
f 265 266 267
f 265 267 277
f 260 268 239
f 240 268 269
f 240 239 268
f 260 262 268
f 262 270 268
f 268 270 269
f 241 269 271
f 271 272 241
f 272 255 241
f 269 270 271
f 270 273 271
f 272 271 273
f 262 265 270
f 265 275 270
f 270 275 274
f 265 277 275
f 274 275 276
f 277 267 275
f 276 275 279
f 270 274 273
f 273 274 278
f 276 279 274
f 274 279 278
f 279 305 278
f 278 305 319
f 243 281 261
f 261 281 263
f 238 243 261
f 243 283 281
f 263 282 264
f 280 282 263
f 280 263 281
f 280 281 286
f 281 283 285
f 243 245 283
f 245 294 283
f 283 284 285
f 283 294 284
f 281 285 286
f 286 285 291
f 284 287 285
f 285 287 291
f 264 282 266
f 266 282 280
f 280 286 288
f 280 288 289
f 280 289 266
f 267 266 289
f 267 289 307
f 289 288 290
f 289 290 306
f 286 291 288
f 291 293 288
f 287 292 291
f 291 292 293
f 288 293 290
f 284 294 253
f 253 296 284
f 253 295 296
f 252 297 295
f 295 297 298
f 295 298 296
f 296 298 299
f 292 287 300
f 287 299 300
f 290 293 309
f 292 300 293
f 300 301 293
f 293 301 309
f 298 302 299
f 299 302 303
f 303 304 301
f 299 303 300
f 300 303 301
f 302 304 303
f 302 334 304
f 301 304 312
f 275 267 279
f 267 308 279
f 289 306 307
f 290 309 306
f 267 307 308
f 307 306 308
f 279 308 305
f 309 310 306
f 306 310 308
f 308 310 312
f 308 311 305
f 305 311 319
f 308 312 311
f 311 312 313
f 301 310 309
f 301 312 310
f 313 312 304
f 272 315 255
f 255 316 321
f 272 273 315
f 255 315 316
f 315 317 316
f 273 278 315
f 278 318 315
f 317 315 318
f 278 319 318
f 318 319 331
f 255 321 256
f 321 316 256
f 257 256 325
f 256 316 323
f 256 323 325
f 316 317 322
f 316 322 323
f 257 325 254
f 254 325 297
f 297 325 326
f 323 326 325
f 298 297 328
f 297 326 328
f 323 327 326
f 298 328 302
f 326 302 328
f 317 318 322
f 318 329 322
f 322 329 323
f 318 331 329
f 323 329 330
f 323 330 327
f 319 329 331
f 332 333 329
f 313 332 319
f 319 332 329
f 330 329 333
f 333 334 302
f 327 333 326
f 327 330 333
f 326 333 302
f 334 333 304
f 313 304 332
f 332 304 333
f 311 313 319
f 284 296 443
f 284 443 287
f 296 299 443
f 287 443 299
f 116 117 118
f 117 122 118
f 118 119 142
f 119 118 120
f 120 118 122
f 119 120 121
f 119 121 131
f 117 124 122
f 125 123 122
f 124 125 122
f 125 124 127
f 125 127 123
f 127 126 123
f 122 123 128
f 120 122 128
f 128 129 120
f 123 126 128
f 126 181 128
f 129 128 130
f 128 181 130
f 119 132 162
f 119 131 132
f 121 133 131
f 121 120 133
f 133 135 131
f 131 134 132
f 132 134 165
f 131 135 134
f 120 129 133
f 133 129 135
f 130 136 129
f 129 136 135
f 134 135 137
f 137 138 134
f 134 138 170
f 136 137 135
f 136 187 137
f 137 187 138
f 139 141 117
f 124 117 151
f 117 141 151
f 116 139 117
f 140 146 141
f 146 154 141
f 139 140 141
f 140 145 146
f 118 142 116
f 139 116 143
f 116 142 143
f 119 162 142
f 139 143 140
f 143 144 140
f 143 142 144
f 145 149 146
f 146 149 156
f 140 144 145
f 145 148 149
f 144 147 145
f 145 147 148
f 149 148 156
f 148 147 150
f 148 150 160
f 151 152 124
f 151 141 152
f 141 154 152
f 124 152 127
f 152 153 127
f 127 153 188
f 152 154 155
f 155 154 158
f 146 156 154
f 154 156 157
f 154 157 158
f 152 155 153
f 155 158 153
f 153 158 194
f 158 157 194
f 156 159 157
f 148 159 156
f 157 159 161
f 148 160 159
f 157 161 196
f 142 162 163
f 142 163 144
f 144 163 164
f 132 165 162
f 162 165 163
f 165 164 163
f 134 166 165
f 165 166 164
f 164 169 167
f 164 166 169
f 147 144 167
f 144 164 167
f 167 168 147
f 147 168 150
f 150 168 173
f 167 169 168
f 168 169 176
f 134 170 166
f 166 170 171
f 166 171 169
f 169 172 176
f 169 171 172
f 138 204 170
f 172 171 179
f 170 203 171
f 160 150 173
f 160 173 159
f 159 173 174
f 159 174 161
f 161 174 207
f 174 175 207
f 168 176 178
f 172 177 176
f 176 177 178
f 168 178 173
f 173 178 174
f 178 177 174
f 179 209 177
f 172 179 177
f 175 174 177
f 175 177 209
f 127 188 126
f 126 188 180
f 126 180 181
f 130 181 182
f 181 183 182
f 180 183 181
f 182 183 184
f 182 184 185
f 130 182 136
f 182 185 136
f 136 185 186
f 186 185 187
f 184 199 185
f 185 200 187
f 136 186 187
f 138 187 204
f 180 188 189
f 153 190 188
f 189 188 190
f 189 191 180
f 189 190 191
f 190 195 191
f 191 192 180
f 180 192 183
f 184 183 199
f 183 192 193
f 183 193 199
f 193 192 201
f 153 194 190
f 190 194 195
f 195 194 198
f 194 197 198
f 157 196 194
f 196 197 194
f 196 208 197
f 191 195 198
f 191 198 192
f 192 198 197
f 192 197 201
f 185 199 200
f 200 193 206
f 199 193 200
f 202 206 193
f 201 202 193
f 187 203 204
f 170 204 203
f 171 203 179
f 205 179 203
f 187 200 203
f 200 206 203
f 203 206 205
f 202 205 206
f 208 205 201
f 161 207 196
f 196 207 208
f 175 208 207
f 197 208 201
f 202 201 205
f 209 179 205
f 208 209 205
f 175 209 208
f 340 341 343
f 341 369 343
f 340 342 352
f 343 344 342
f 344 346 342
f 343 376 344
f 340 343 342
f 342 346 345
f 342 345 360
f 344 347 346
f 345 346 347
f 347 348 345
f 345 348 363
f 340 352 349
f 341 349 350
f 341 350 392
f 340 349 341
f 349 351 350
f 351 355 350
f 349 352 353
f 342 360 352
f 352 360 353
f 353 354 351
f 349 353 351
f 350 356 395
f 350 355 356
f 356 355 396
f 351 357 355
f 351 354 357
f 357 359 358
f 357 358 355
f 355 358 396
f 358 359 401
f 353 360 361
f 353 361 354
f 354 361 362
f 345 363 360
f 360 363 361
f 361 363 362
f 363 414 364
f 363 364 362
f 362 364 367
f 357 354 365
f 357 365 359
f 354 362 365
f 362 367 365
f 359 366 401
f 359 365 366
f 366 365 418
f 365 367 368
f 365 368 418
f 341 370 369
f 370 373 369
f 369 373 371
f 373 370 374
f 373 374 371
f 374 379 371
f 372 371 379
f 343 369 375
f 369 371 375
f 343 375 376
f 371 377 375
f 371 372 377
f 377 378 375
f 377 372 378
f 372 379 381
f 372 381 380
f 378 372 380
f 381 382 380
f 379 382 381
f 379 407 382
f 382 383 380
f 380 383 390
f 344 376 384
f 376 375 384
f 344 384 347
f 384 386 347
f 375 378 384
f 384 378 385
f 384 385 386
f 348 347 386
f 386 388 348
f 348 388 414
f 385 387 386
f 386 387 388
f 388 387 414
f 380 390 378
f 385 378 389
f 378 390 389
f 389 390 383
f 389 383 391
f 383 425 391
f 389 391 385
f 385 391 415
f 387 385 415
f 341 392 370
f 392 394 370
f 350 395 392
f 392 395 394
f 370 394 393
f 374 370 393
f 394 398 393
f 394 395 397
f 395 356 397
f 396 399 356
f 394 397 398
f 398 397 410
f 356 399 397
f 397 400 410
f 399 400 397
f 358 401 396
f 396 401 402
f 400 399 411
f 396 402 399
f 399 402 403
f 399 403 411
f 393 404 374
f 374 404 405
f 379 374 405
f 393 398 404
f 404 406 405
f 379 405 407
f 406 408 405
f 405 408 407
f 407 408 382
f 383 382 424
f 382 408 409
f 382 409 424
f 398 410 404
f 404 410 406
f 410 400 406
f 411 412 400
f 411 403 412
f 403 413 412
f 408 406 412
f 406 400 412
f 408 412 409
f 409 412 413
f 409 413 426
f 363 348 414
f 367 364 368
f 414 416 364
f 364 417 368
f 364 416 417
f 414 415 416
f 387 415 414
f 417 416 421
f 401 366 402
f 366 418 422
f 402 419 403
f 402 366 419
f 403 419 431
f 366 422 419
f 417 420 368
f 368 420 418
f 418 420 423
f 417 421 420
f 420 421 423
f 418 423 422
f 419 422 423
f 419 423 421
f 383 424 425
f 425 424 430
f 409 426 424
f 424 427 430
f 426 427 424
f 415 391 428
f 428 391 429
f 415 428 416
f 416 432 421
f 416 428 432
f 428 429 432
f 425 430 391
f 391 430 429
f 427 429 430
f 403 431 413
f 427 426 429
f 431 426 413
f 431 429 426
f 421 432 429
f 431 421 429
f 419 421 431
f 700 699 698
f 698 914 700
f 700 911 699
f 700 914 911
f 911 913 699
f 913 912 699
f 911 914 913
f 913 914 912
