v -0.063234 -0.038124 -0.007016
v -0.063234 -0.036605 0.029268
v -0.063234 0.036605 -0.025300
v -0.063234 0.037491 -0.001984
v -0.063234 0.040148 -0.007937
v -0.063234 0.036605 0.029268
v 0.038756 -0.036605 -0.013725
v 0.038756 -0.036605 0.007317
v 0.055075 -0.040148 -0.003175
v 0.038756 0.036605 -0.025300
v 0.049635 0.037786 -0.007937
v 0.055075 0.040148 0.000000
v 0.038756 0.036605 0.011707
g battery
f 1 3 7
f 1 2 6
f 2 1 8
f 1 4 3
f 6 4 1
f 3 4 11
f 2 13 6
f 6 13 4
f 2 8 13
f 3 10 7
f 3 11 10
f 10 11 7
f 5 11 4
f 5 4 12
f 1 7 9
f 1 9 8
f 9 7 11
f 9 13 8
f 12 4 13
f 5 12 11
f 9 11 12
f 9 12 13
