v -0.078087 0.024734 0.024666
v -0.078083 0.021743 0.026058
v -0.078083 0.018963 0.026702
v -0.078083 0.015759 0.027100
v -0.078083 0.012855 0.027323
v -0.078083 0.009739 0.027453
v -0.078083 0.006789 0.027516
v -0.078083 0.003715 0.027536
v -0.078083 0.000176 0.027548
v -0.078083 -0.002309 0.027542
v -0.078083 -0.006014 0.027523
v -0.078083 -0.008333 0.027487
v -0.078084 -0.011634 0.027383
v -0.078083 -0.014355 0.027216
v -0.078084 -0.017805 0.026868
v -0.078083 -0.020357 0.026411
v -0.078088 -0.023872 0.025225
v -0.078083 -0.025706 0.023105
v -0.078089 -0.025915 0.018629
v -0.078083 -0.023683 0.016387
v -0.078084 -0.021088 0.015404
v -0.078083 -0.017761 0.014800
v -0.078083 -0.014959 0.014492
v -0.078083 -0.011747 0.014294
v -0.078083 -0.008977 0.014194
v -0.078083 -0.005723 0.014145
v -0.078083 -0.002332 0.014128
v -0.078083 0.000301 0.014123
v -0.078083 0.004108 0.014135
v -0.078083 0.006325 0.014151
v -0.078083 0.009827 0.014218
v -0.078083 0.012348 0.014327
v -0.078084 0.015816 0.014573
v -0.078083 0.018361 0.014892
v -0.078086 0.021977 0.015661
v -0.078090 0.025277 0.017626
v -0.076346 0.030064 0.023529
v -0.073202 0.029721 0.027624
v -0.073120 0.021415 0.029481
v -0.073112 0.013451 0.030044
v -0.073112 0.006801 0.030168
v -0.073111 -0.002061 0.030190
v -0.073118 -0.011399 0.030101
v -0.073125 -0.019126 0.029696
v -0.073162 -0.027379 0.028384
v -0.073362 -0.033294 0.024350
v -0.073321 -0.031664 0.015217
v -0.073127 -0.024065 0.012557
v -0.073110 -0.015899 0.011736
v -0.073114 -0.008662 0.011520
v -0.073113 -0.000005 0.011478
v -0.073114 0.008900 0.011523
v -0.073117 0.016286 0.011767
v -0.073137 0.024466 0.012646
v -0.073252 0.031907 0.015422
v -0.066551 0.038765 0.020940
v -0.063024 0.041010 0.024232
v -0.067325 0.034567 0.028395
v -0.062711 0.031230 0.031516
v -0.066576 0.025823 0.031209
v -0.066551 0.021001 0.031748
v -0.066546 0.016565 0.032050
v -0.066551 0.011981 0.032196
v -0.066546 0.008554 0.032255
v -0.066551 0.002955 0.032283
v -0.066543 -0.000549 0.032293
v -0.066551 -0.006071 0.032269
v -0.066557 -0.010845 0.032221
v -0.066551 -0.015096 0.032104
v -0.066586 -0.019956 0.031825
v -0.066551 -0.024110 0.031422
v -0.066725 -0.029064 0.030558
v -0.066551 -0.033039 0.029401
v -0.066551 -0.038765 0.020731
v -0.065350 -0.039278 0.016271
v -0.066551 -0.032934 0.012204
v -0.064001 -0.032902 0.010959
v -0.066551 -0.024004 0.010228
v -0.063484 -0.022940 0.009106
v -0.066551 -0.014989 0.009560
v -0.063430 -0.013476 0.008573
v -0.066551 -0.005964 0.009401
v -0.063433 -0.003587 0.008471
v -0.066551 0.003062 0.009388
v -0.063447 0.006543 0.008488
v -0.066551 0.012088 0.009477
v -0.063423 0.016282 0.008665
v -0.066551 0.021108 0.009938
v -0.063475 0.026092 0.009467
v -0.066551 0.030087 0.011324
v -0.064283 0.035742 0.012193
v -0.066551 0.038008 0.016713
v -0.060799 0.038501 0.029518
v -0.060043 0.024110 0.033357
v -0.059991 0.014303 0.033921
v -0.060000 0.002099 0.034037
v -0.060012 -0.008951 0.033999
v -0.060013 -0.017519 0.033805
v -0.060148 -0.027692 0.032915
v -0.061596 -0.037539 0.029855
v -0.059996 -0.039724 0.012765
v -0.059996 -0.030024 0.009138
v -0.059996 -0.020017 0.008016
v -0.059996 -0.009984 0.007683
v -0.059996 0.000051 0.007632
v -0.059996 0.010087 0.007684
v -0.059996 0.020119 0.008025
v -0.059996 0.030126 0.009163
v -0.051374 0.043400 0.030585
v -0.053477 0.036133 0.032949
v -0.049534 0.035886 0.034022
v -0.053475 0.027583 0.034523
v -0.049698 0.021170 0.035802
v -0.053460 0.016972 0.035268
v -0.053477 0.010833 0.035396
v -0.053474 0.005896 0.035434
v -0.053477 -0.000042 0.035452
v -0.053482 -0.006234 0.035430
v -0.053477 -0.010916 0.035395
v -0.053510 -0.017080 0.035254
v -0.053477 -0.021787 0.035015
v -0.053538 -0.027694 0.034494
v -0.053477 -0.032627 0.033746
v -0.053844 -0.038768 0.032065
v -0.060925 -0.041363 0.026822
v -0.051374 -0.043400 0.011085
v -0.053477 -0.036133 0.008721
v -0.050427 -0.034758 0.007545
v -0.053477 -0.025324 0.006931
v -0.050313 -0.022957 0.006067
v -0.053477 -0.014457 0.006342
v -0.050294 -0.012023 0.005670
v -0.053477 -0.003583 0.006228
v -0.050309 -0.000108 0.005607
v -0.053477 0.007291 0.006246
v -0.050329 0.011926 0.005674
v -0.053477 0.018164 0.006459
v -0.050324 0.022909 0.006070
v -0.053477 0.029022 0.007347
v -0.050405 0.034739 0.007548
v -0.053477 0.039757 0.009981
v -0.052301 0.043278 0.011292
v -0.056521 0.044163 0.015870
v -0.047558 0.049104 0.017327
v -0.046958 0.042102 0.032516
v -0.046948 0.029290 0.035538
v -0.046963 0.012848 0.036473
v -0.046957 -0.000002 0.036546
v -0.046960 -0.012928 0.036472
v -0.046994 -0.023725 0.036061
v -0.047179 -0.035861 0.034506
v -0.049468 -0.044205 0.030718
v -0.043694 -0.050758 0.020776
v -0.046958 -0.042102 0.009154
v -0.046958 -0.030716 0.006333
v -0.046958 -0.019196 0.005382
v -0.046958 -0.007660 0.005156
v -0.046958 0.003878 0.005138
v -0.046958 0.015415 0.005262
v -0.046958 0.026945 0.005906
v -0.046958 0.038410 0.007856
v -0.041671 0.045477 0.032386
v -0.040440 0.036029 0.035402
v -0.040421 0.030563 0.036267
v -0.040440 0.024036 0.036838
v -0.040440 0.020028 0.037059
v -0.037914 0.015530 0.037465
v -0.040440 0.007998 0.037297
v -0.037308 0.003752 0.037630
v -0.040440 -0.004033 0.037317
v -0.037319 -0.009501 0.037600
v -0.040440 -0.016064 0.037187
v -0.037303 -0.021075 0.037349
v -0.040440 -0.028086 0.036509
v -0.037312 -0.033550 0.036248
v -0.040440 -0.040041 0.034458
v -0.037662 -0.046316 0.032651
v -0.043664 -0.049523 0.026491
v -0.041671 -0.045477 0.009284
v -0.040440 -0.036029 0.006268
v -0.040421 -0.030563 0.005404
v -0.040440 -0.024036 0.004832
v -0.040412 -0.018828 0.004554
v -0.040440 -0.012009 0.004406
v -0.040435 -0.006648 0.004363
v -0.040440 0.000023 0.004342
v -0.040445 0.006812 0.004365
v -0.040440 0.012054 0.004406
v -0.040476 0.018880 0.004562
v -0.040440 0.024081 0.004836
v -0.040495 0.030614 0.005419
v -0.040440 0.036074 0.006278
v -0.040740 0.042952 0.008145
v -0.037194 0.052133 0.020868
v -0.043769 0.049787 0.026659
v -0.033921 0.048885 0.031005
v -0.029377 0.048138 0.032382
v -0.034019 0.038375 0.035654
v -0.033931 0.025339 0.037308
v -0.033921 0.012346 0.037755
v -0.033921 -0.000014 0.037821
v -0.033921 -0.012373 0.037755
v -0.033921 -0.024729 0.037313
v -0.033921 -0.037049 0.035827
v -0.043769 -0.049787 0.015011
v -0.033921 -0.048885 0.010665
v -0.029377 -0.048138 0.009288
v -0.034019 -0.038375 0.006017
v -0.033931 -0.025339 0.004362
v -0.033924 -0.013791 0.003927
v -0.033921 0.000001 0.003847
v -0.033921 0.013818 0.003927
v -0.033947 0.025378 0.004366
v -0.034026 0.038425 0.006027
v -0.036326 0.047892 0.009998
v -0.027402 0.041667 0.035047
v -0.023316 0.039952 0.035601
v -0.027362 0.031857 0.036922
v -0.023695 0.023651 0.037661
v -0.027402 0.020875 0.037754
v -0.027404 0.013993 0.037958
v -0.027402 0.004171 0.038024
v -0.027391 -0.000736 0.038037
v -0.027402 -0.008357 0.038003
v -0.027411 -0.014884 0.037936
v -0.027402 -0.020885 0.037754
v -0.027429 -0.027564 0.037349
v -0.027402 -0.033393 0.036704
v -0.027494 -0.040353 0.035447
v -0.027402 -0.045752 0.033589
v -0.030624 -0.049390 0.031101
v -0.024318 -0.052918 0.026957
v -0.027402 -0.041667 0.006623
v -0.023316 -0.039952 0.006069
v -0.027362 -0.031857 0.004748
v -0.023694 -0.023651 0.004010
v -0.027402 -0.020875 0.003917
v -0.024908 -0.015928 0.003716
v -0.027402 -0.008348 0.003667
v -0.024294 -0.003733 0.003599
v -0.027402 0.004181 0.003646
v -0.024301 0.009954 0.003631
v -0.027402 0.016710 0.003782
v -0.024282 0.021695 0.003889
v -0.027402 0.029229 0.004487
v -0.024255 0.034518 0.005018
v -0.027402 0.041677 0.006624
v -0.024195 0.047749 0.008707
v -0.030665 0.052234 0.014828
v -0.024389 0.053514 0.024685
v -0.020883 0.049633 0.031105
v -0.016000 0.048016 0.032249
v -0.020832 0.031906 0.036876
v -0.020883 0.016727 0.037842
v -0.017136 0.013678 0.037798
v -0.020897 0.002921 0.037988
v -0.020903 -0.011098 0.037944
v -0.020888 -0.021817 0.037693
v -0.020863 -0.034549 0.036572
v -0.020139 -0.047757 0.032898
v -0.024205 -0.053586 0.020832
v -0.024256 -0.052614 0.014776
v -0.017128 -0.048785 0.009872
v -0.020883 -0.045805 0.008111
v -0.020832 -0.031906 0.004795
v -0.020883 -0.012547 0.003749
v -0.020883 -0.000003 0.003682
v -0.020883 0.012540 0.003748
v -0.020883 0.025079 0.004192
v -0.020883 0.037582 0.005686
v -0.014364 0.041286 0.034773
v -0.010218 0.038979 0.035051
v -0.014300 0.031573 0.036599
v -0.010691 0.023130 0.037056
v -0.014364 0.020691 0.037417
v -0.014364 0.008284 0.037662
v -0.010668 0.002632 0.037446
v -0.014353 -0.000721 0.037694
v -0.010768 -0.012082 0.037399
v -0.014364 -0.012397 0.037629
v -0.011924 -0.018359 0.037362
v -0.014364 -0.024801 0.037194
v -0.011212 -0.029616 0.036625
v -0.014364 -0.037170 0.035732
v -0.010850 -0.042743 0.034188
v -0.014364 -0.041286 0.006897
v -0.010218 -0.038979 0.006619
v -0.014300 -0.031573 0.005071
v -0.010691 -0.023130 0.004614
v -0.014364 -0.020691 0.004253
v -0.014365 -0.013887 0.004053
v -0.014364 -0.004148 0.003988
v -0.014353 0.000721 0.003977
v -0.014364 0.008261 0.004008
v -0.014373 0.014720 0.004073
v -0.014364 0.020667 0.004252
v -0.014384 0.027275 0.004643
v -0.014364 0.033056 0.005273
v -0.014391 0.039937 0.006490
v -0.014364 0.045302 0.008304
v -0.017641 0.049505 0.010581
v -0.011401 0.051876 0.014838
v -0.011209 0.052532 0.020811
v -0.011267 0.051579 0.026719
v -0.003948 0.046554 0.031113
v -0.007846 0.044319 0.032973
v -0.007768 0.030872 0.036105
v -0.007846 0.016192 0.037027
v -0.004122 0.013109 0.036717
v -0.007834 -0.000701 0.037166
v -0.007846 -0.020195 0.036901
v -0.007846 -0.032306 0.035917
v -0.011145 -0.048695 0.030877
v -0.010993 -0.052432 0.017128
v -0.007846 -0.048037 0.011020
v -0.002647 -0.045564 0.010197
v -0.007768 -0.030872 0.005566
v -0.007846 -0.016192 0.004643
v -0.004122 -0.013109 0.004953
v -0.007861 -0.002859 0.004504
v -0.007866 0.010712 0.004545
v -0.007839 0.021066 0.004783
v -0.007729 0.033367 0.005848
v -0.005964 0.045844 0.009424
v -0.001327 0.038989 0.033742
v 0.002868 0.036192 0.033741
v -0.001236 0.029816 0.035407
v 0.002310 0.021549 0.035584
v -0.001327 0.019545 0.036167
v -0.001327 0.007835 0.036392
v 0.002339 0.002596 0.035932
v -0.001315 -0.000674 0.036421
v 0.002242 -0.011226 0.035898
v -0.001327 -0.011685 0.036362
v -0.001314 -0.020322 0.036156
v -0.001327 -0.027292 0.035663
v -0.001306 -0.033614 0.034906
v -0.001327 -0.038935 0.033760
v -0.003094 -0.045670 0.031531
v -0.004644 -0.050138 0.026591
v -0.001327 -0.038989 0.007929
v 0.002868 -0.036192 0.007929
v -0.001236 -0.029816 0.006263
v 0.002310 -0.021549 0.006087
v -0.001327 -0.019545 0.005503
v -0.001327 -0.007835 0.005278
v 0.002339 -0.002595 0.005738
v -0.001315 0.000673 0.005249
v 0.002242 0.011226 0.005773
v -0.001327 0.011685 0.005308
v 0.001090 0.017172 0.005724
v -0.001327 0.023393 0.005706
v 0.001836 0.027621 0.006444
v -0.001327 0.035070 0.007042
v 0.002442 0.039734 0.008686
v 0.002482 0.048827 0.024212
v 0.005192 0.044255 0.029698
v 0.010668 0.040968 0.030131
v 0.005297 0.028418 0.034520
v 0.005192 0.014915 0.035350
v 0.008886 0.011909 0.034809
v 0.005204 -0.000638 0.035473
v 0.005192 -0.014846 0.035352
v 0.008884 -0.017335 0.034679
v 0.005298 -0.026874 0.034709
v 0.006351 -0.038414 0.032519
v 0.005192 -0.044200 0.029770
v 0.004108 -0.048309 0.023729
v 0.001751 -0.048215 0.015413
v 0.005192 -0.044255 0.011972
v 0.005192 -0.040807 0.009917
v 0.005297 -0.028418 0.007150
v 0.005192 -0.014915 0.006320
v 0.008886 -0.011909 0.006862
v 0.005204 0.000638 0.006197
v 0.005192 0.018565 0.006431
v 0.005192 0.029710 0.007301
v 0.001857 0.045434 0.011598
v 0.011711 0.044959 0.020762
v 0.017652 0.041811 0.024054
v 0.011711 0.034915 0.032045
v 0.015937 0.031732 0.031772
v 0.011830 0.026693 0.033457
v 0.015303 0.018989 0.033358
v 0.011711 0.017508 0.034120
v 0.011711 0.007029 0.034314
v 0.015338 0.002247 0.033649
v 0.011722 -0.000595 0.034338
v 0.015248 -0.009877 0.033625
v 0.011711 -0.010440 0.034288
v 0.011711 -0.020918 0.033949
v 0.015405 -0.022477 0.033114
v 0.011775 -0.030042 0.033040
v 0.015924 -0.035297 0.030867
v 0.011711 -0.038259 0.030973
v 0.014751 -0.041631 0.027617
v 0.011711 -0.044959 0.020909
v 0.016188 -0.040726 0.013604
v 0.011711 -0.034915 0.009626
v 0.015937 -0.031732 0.009899
v 0.011830 -0.026693 0.008213
v 0.015303 -0.018989 0.008312
v 0.011711 -0.017508 0.007550
v 0.011711 -0.007029 0.007356
v 0.015338 -0.002247 0.008022
v 0.011722 0.000595 0.007333
v 0.015248 0.009877 0.008045
v 0.011711 0.010440 0.007382
v 0.011736 0.018144 0.007561
v 0.011711 0.024407 0.007978
v 0.011775 0.030042 0.008630
v 0.011711 0.034833 0.009599
v 0.010313 0.041052 0.011444
v 0.008342 0.045644 0.015637
v 0.018229 0.038440 0.028297
v 0.023858 0.034447 0.028313
v 0.018363 0.024653 0.032232
v 0.018229 0.012952 0.032929
v 0.021645 0.010188 0.032245
v 0.018240 -0.000545 0.033030
v 0.018229 -0.012856 0.032931
v 0.021634 -0.014725 0.032146
v 0.018316 -0.027715 0.031865
v 0.020866 -0.040108 0.018278
v 0.022249 -0.035858 0.013435
v 0.018229 -0.035422 0.011692
v 0.018363 -0.024653 0.009439
v 0.018229 -0.012952 0.008742
v 0.021645 -0.010188 0.009425
v 0.018240 0.000545 0.008640
v 0.018229 0.012856 0.008739
v 0.021634 0.014725 0.009524
v 0.018393 0.023247 0.009284
v 0.019831 0.032883 0.011201
v 0.018229 0.038359 0.013282
v 0.023962 0.037021 0.015570
v 0.024748 0.037738 0.020738
v 0.031528 0.033190 0.023221
v 0.024748 0.029202 0.029774
v 0.029209 0.025666 0.029197
v 0.024921 0.022306 0.030853
v 0.028500 0.015517 0.030449
v 0.024748 0.014650 0.031393
v 0.024748 0.005893 0.031546
v 0.028520 0.001728 0.030672
v 0.024759 -0.000489 0.031564
v 0.028458 -0.007916 0.030656
v 0.024748 -0.008704 0.031526
v 0.024748 -0.017460 0.031262
v 0.028578 -0.018259 0.030269
v 0.024882 -0.025038 0.030540
v 0.029362 -0.028405 0.028518
v 0.024748 -0.031966 0.028960
v 0.023962 -0.037021 0.026101
v 0.028646 -0.035273 0.018707
v 0.024748 -0.029202 0.011896
v 0.029209 -0.025666 0.012473
v 0.024921 -0.022306 0.010818
v 0.028500 -0.015517 0.011221
v 0.024748 -0.014650 0.010277
v 0.024748 -0.005893 0.010124
v 0.028520 -0.001729 0.010998
v 0.024759 0.000489 0.010106
v 0.028458 0.007916 0.011014
v 0.024748 0.008704 0.010144
v 0.024748 0.017460 0.010408
v 0.028578 0.018259 0.011401
v 0.024882 0.025039 0.011130
v 0.029362 0.028405 0.013152
v 0.024748 0.031966 0.012710
v 0.031303 0.030776 0.026510
v 0.037739 0.025796 0.025985
v 0.031473 0.019697 0.029353
v 0.031303 0.010364 0.029886
v 0.037607 0.007188 0.028302
v 0.031312 -0.000435 0.029961
v 0.031303 -0.010256 0.029889
v 0.037616 -0.011194 0.028217
v 0.031433 -0.022086 0.029099
v 0.031303 -0.030681 0.026609
v 0.031303 -0.032670 0.024408
v 0.035141 -0.030736 0.019075
v 0.031303 -0.030776 0.015161
v 0.031303 -0.028334 0.013938
v 0.031473 -0.019697 0.012317
v 0.031303 -0.010364 0.011784
v 0.031303 -0.007787 0.011743
v 0.031312 0.000435 0.011710
v 0.031303 0.010256 0.011781
v 0.031303 0.012834 0.011849
v 0.031433 0.022086 0.012571
v 0.031303 0.030681 0.015061
v 0.031303 0.032670 0.017262
v 0.037865 0.028643 0.020722
v 0.037865 0.028009 0.023646
v 0.037865 0.022035 0.027032
v 0.037865 0.019848 0.027422
v 0.037877 0.016899 0.027772
v 0.037865 0.013258 0.028020
v 0.037865 0.011059 0.028114
v 0.037865 0.004457 0.028218
v 0.037865 0.002257 0.028226
v 0.037866 -0.000378 0.028232
v 0.037865 -0.004345 0.028218
v 0.037865 -0.006546 0.028205
v 0.037865 -0.013147 0.028029
v 0.037865 -0.015346 0.027898
v 0.037868 -0.018873 0.027573
v 0.037865 -0.021924 0.027065
v 0.037865 -0.024097 0.026508
v 0.037981 -0.027283 0.024767
v 0.037865 -0.028643 0.020948
v 0.037865 -0.028009 0.018025
v 0.037934 -0.025820 0.015858
v 0.037865 -0.022035 0.014638
v 0.037865 -0.019848 0.014249
v 0.037877 -0.016899 0.013898
v 0.037865 -0.013258 0.013650
v 0.037865 -0.011059 0.013556
v 0.037867 -0.008000 0.013483
v 0.037865 -0.004457 0.013453
v 0.037865 -0.002257 0.013444
v 0.037866 0.000378 0.013439
v 0.037865 0.004345 0.013452
v 0.037865 0.006546 0.013466
v 0.037865 0.010178 0.013525
v 0.037865 0.013147 0.013641
v 0.037865 0.015346 0.013773
v 0.037868 0.018873 0.014097
v 0.037865 0.021924 0.014605
v 0.037865 0.024097 0.015163
v 0.037981 0.027283 0.016903
v 0.042843 0.021948 0.021625
v 0.042840 0.019955 0.024358
v 0.042836 0.016541 0.025383
v 0.042836 0.013176 0.025823
v 0.042836 0.009683 0.026045
v 0.042836 0.006408 0.026137
v 0.042836 0.003413 0.026163
v 0.042836 -0.000145 0.026174
v 0.042836 -0.004577 0.026157
v 0.042836 -0.007469 0.026118
v 0.042836 -0.010707 0.025998
v 0.042836 -0.014120 0.025733
v 0.042836 -0.017574 0.025174
v 0.042839 -0.020663 0.023913
v 0.042843 -0.021948 0.020045
v 0.042840 -0.019955 0.017312
v 0.042836 -0.016541 0.016287
v 0.042836 -0.013176 0.015847
v 0.042836 -0.009683 0.015625
v 0.042836 -0.006408 0.015533
v 0.042836 -0.003413 0.015507
v 0.042836 0.000144 0.015497
v 0.042836 0.004577 0.015513
v 0.042836 0.007469 0.015553
v 0.042836 0.010707 0.015673
v 0.042836 0.014120 0.015937
v 0.042836 0.017574 0.016496
v 0.042839 0.020663 0.017757
v -0.079683 0.000000 0.020835
v 0.044435 0.000000 0.020835
g canopy
f 38 37 1
f 2 38 1
f 3 38 2
f 39 38 3
f 4 39 3
f 5 39 4
f 40 39 5
f 6 40 5
f 7 40 6
f 41 40 7
f 8 41 7
f 9 41 8
f 42 41 9
f 10 42 9
f 11 42 10
f 43 42 11
f 12 43 11
f 13 43 12
f 44 43 13
f 14 44 13
f 15 44 14
f 45 44 15
f 16 45 15
f 17 45 16
f 46 45 17
f 18 46 17
f 19 46 18
f 47 46 19
f 20 47 19
f 21 47 20
f 48 47 21
f 22 48 21
f 23 48 22
f 49 48 23
f 24 49 23
f 25 49 24
f 50 49 25
f 26 50 25
f 27 50 26
f 51 50 27
f 28 51 27
f 29 51 28
f 52 51 29
f 30 52 29
f 31 52 30
f 53 52 31
f 32 53 31
f 33 53 32
f 54 53 33
f 34 54 33
f 35 54 34
f 55 54 35
f 36 55 35
f 37 55 36
f 57 56 37
f 58 57 37
f 38 58 37
f 59 58 38
f 60 59 38
f 39 60 38
f 61 60 39
f 62 61 39
f 40 62 39
f 63 62 40
f 64 63 40
f 41 64 40
f 65 64 41
f 66 65 41
f 42 66 41
f 67 66 42
f 68 67 42
f 43 68 42
f 69 68 43
f 70 69 43
f 44 70 43
f 71 70 44
f 72 71 44
f 45 72 44
f 73 72 45
f 125 73 45
f 46 125 45
f 74 125 46
f 75 74 46
f 47 75 46
f 76 75 47
f 77 76 47
f 48 77 47
f 78 77 48
f 79 78 48
f 49 79 48
f 80 79 49
f 81 80 49
f 50 81 49
f 82 81 50
f 83 82 50
f 51 83 50
f 84 83 51
f 85 84 51
f 52 85 51
f 86 85 52
f 87 86 52
f 53 87 52
f 88 87 53
f 89 88 53
f 54 89 53
f 90 89 54
f 91 90 54
f 55 91 54
f 92 91 55
f 56 92 55
f 37 56 55
f 58 93 57
f 59 93 58
f 94 59 60
f 61 94 60
f 62 94 61
f 95 94 62
f 63 95 62
f 64 95 63
f 96 95 64
f 65 96 64
f 66 96 65
f 97 96 66
f 67 97 66
f 68 97 67
f 98 97 68
f 69 98 68
f 70 98 69
f 99 98 70
f 71 99 70
f 72 99 71
f 100 99 72
f 73 100 72
f 125 100 73
f 74 75 125
f 77 101 75
f 76 77 75
f 79 102 77
f 78 79 77
f 81 103 79
f 80 81 79
f 83 104 81
f 82 83 81
f 85 105 83
f 84 85 83
f 87 106 85
f 86 87 85
f 89 107 87
f 88 89 87
f 91 108 89
f 90 91 89
f 143 142 91
f 92 143 91
f 57 143 92
f 56 57 92
f 195 144 57
f 109 195 57
f 93 109 57
f 110 109 93
f 59 110 93
f 111 110 59
f 112 111 59
f 94 112 59
f 113 112 94
f 114 113 94
f 95 114 94
f 115 114 95
f 116 115 95
f 96 116 95
f 117 116 96
f 118 117 96
f 97 118 96
f 119 118 97
f 120 119 97
f 98 120 97
f 121 120 98
f 122 121 98
f 99 122 98
f 123 122 99
f 124 123 99
f 100 124 99
f 152 124 100
f 125 152 100
f 75 153 125
f 205 153 75
f 126 205 75
f 101 126 75
f 77 126 101
f 127 126 77
f 128 127 77
f 102 128 77
f 79 128 102
f 129 128 79
f 130 129 79
f 103 130 79
f 81 130 103
f 131 130 81
f 132 131 81
f 104 132 81
f 83 132 104
f 133 132 83
f 134 133 83
f 105 134 83
f 85 134 105
f 135 134 85
f 136 135 85
f 106 136 85
f 87 136 106
f 137 136 87
f 138 137 87
f 107 138 87
f 89 138 107
f 139 138 89
f 140 139 89
f 108 140 89
f 91 140 108
f 141 140 91
f 142 141 91
f 57 144 143
f 111 145 109
f 110 111 109
f 112 146 111
f 113 146 112
f 147 113 114
f 115 147 114
f 116 147 115
f 148 147 116
f 117 148 116
f 118 148 117
f 149 148 118
f 119 149 118
f 120 149 119
f 150 149 120
f 121 150 120
f 122 150 121
f 151 150 122
f 123 151 122
f 124 151 123
f 152 151 124
f 125 178 152
f 153 178 125
f 128 154 126
f 127 128 126
f 130 155 128
f 129 130 128
f 132 156 130
f 131 132 130
f 134 157 132
f 133 134 132
f 136 158 134
f 135 136 134
f 138 159 136
f 137 138 136
f 140 160 138
f 139 140 138
f 142 161 140
f 141 142 140
f 143 144 142
f 195 194 144
f 109 162 195
f 145 162 109
f 111 162 145
f 163 162 111
f 164 163 111
f 146 164 111
f 165 164 146
f 113 165 146
f 166 165 113
f 167 166 113
f 147 167 113
f 168 167 147
f 169 168 147
f 148 169 147
f 170 169 148
f 171 170 148
f 149 171 148
f 172 171 149
f 173 172 149
f 150 173 149
f 174 173 150
f 175 174 150
f 151 175 150
f 176 175 151
f 177 176 151
f 152 177 151
f 178 177 152
f 126 179 205
f 154 179 126
f 128 179 154
f 180 179 128
f 181 180 128
f 155 181 128
f 130 181 155
f 182 181 130
f 183 182 130
f 156 183 130
f 132 183 156
f 184 183 132
f 185 184 132
f 157 185 132
f 134 185 157
f 186 185 134
f 187 186 134
f 158 187 134
f 136 187 158
f 188 187 136
f 189 188 136
f 159 189 136
f 138 189 159
f 190 189 138
f 191 190 138
f 160 191 138
f 140 191 160
f 192 191 140
f 193 192 140
f 161 193 140
f 142 193 161
f 215 193 142
f 144 215 142
f 162 196 195
f 197 196 162
f 198 197 162
f 163 198 162
f 164 198 163
f 199 198 164
f 165 199 164
f 166 199 165
f 167 199 166
f 169 200 167
f 168 169 167
f 171 201 169
f 170 171 169
f 173 202 171
f 172 173 171
f 175 203 173
f 174 175 173
f 177 204 175
f 176 177 175
f 232 231 177
f 178 232 177
f 153 232 178
f 179 206 205
f 207 206 179
f 208 207 179
f 180 208 179
f 181 208 180
f 209 208 181
f 182 209 181
f 183 209 182
f 210 209 183
f 184 210 183
f 185 210 184
f 211 210 185
f 186 211 185
f 187 211 186
f 212 211 187
f 188 212 187
f 189 212 188
f 213 212 189
f 190 213 189
f 191 213 190
f 214 213 191
f 192 214 191
f 193 214 192
f 215 214 193
f 144 249 215
f 194 249 144
f 195 250 194
f 197 250 195
f 196 197 195
f 198 216 197
f 217 216 198
f 218 217 198
f 199 218 198
f 219 218 199
f 220 219 199
f 221 220 199
f 167 221 199
f 200 221 167
f 169 221 200
f 222 221 169
f 223 222 169
f 201 223 169
f 171 223 201
f 224 223 171
f 225 224 171
f 202 225 171
f 173 225 202
f 226 225 173
f 227 226 173
f 203 227 173
f 175 227 203
f 228 227 175
f 229 228 175
f 204 229 175
f 177 229 204
f 230 229 177
f 231 230 177
f 153 261 232
f 262 261 153
f 205 262 153
f 207 262 205
f 206 207 205
f 208 233 207
f 234 233 208
f 235 234 208
f 209 235 208
f 236 235 209
f 237 236 209
f 238 237 209
f 210 238 209
f 239 238 210
f 240 239 210
f 211 240 210
f 241 240 211
f 242 241 211
f 212 242 211
f 243 242 212
f 244 243 212
f 213 244 212
f 245 244 213
f 246 245 213
f 214 246 213
f 247 246 214
f 248 247 214
f 215 248 214
f 249 248 215
f 194 250 249
f 197 251 250
f 252 251 197
f 217 252 197
f 216 217 197
f 218 253 217
f 219 253 218
f 254 219 220
f 221 254 220
f 255 254 221
f 256 255 221
f 222 256 221
f 223 256 222
f 257 256 223
f 224 257 223
f 225 257 224
f 258 257 225
f 226 258 225
f 227 258 226
f 259 258 227
f 228 259 227
f 229 259 228
f 260 259 229
f 230 260 229
f 231 260 230
f 232 260 231
f 207 263 262
f 264 263 207
f 234 264 207
f 233 234 207
f 235 265 234
f 236 265 235
f 238 236 237
f 240 266 238
f 239 240 238
f 242 267 240
f 241 242 240
f 244 268 242
f 243 244 242
f 246 269 244
f 245 246 244
f 248 270 246
f 247 248 246
f 302 301 248
f 249 302 248
f 250 302 249
f 304 303 250
f 252 304 250
f 251 252 250
f 217 271 252
f 272 271 217
f 273 272 217
f 253 273 217
f 274 273 253
f 219 274 253
f 275 274 219
f 255 275 219
f 254 255 219
f 256 276 255
f 277 276 256
f 278 277 256
f 257 278 256
f 279 278 257
f 280 279 257
f 281 280 257
f 258 281 257
f 282 281 258
f 283 282 258
f 259 283 258
f 284 283 259
f 285 284 259
f 260 285 259
f 313 285 260
f 232 313 260
f 261 314 232
f 262 314 261
f 263 314 262
f 286 263 264
f 234 286 264
f 287 286 234
f 288 287 234
f 265 288 234
f 289 288 265
f 236 289 265
f 290 289 236
f 291 290 236
f 238 291 236
f 266 291 238
f 240 291 266
f 292 291 240
f 293 292 240
f 267 293 240
f 242 293 267
f 294 293 242
f 295 294 242
f 268 295 242
f 244 295 268
f 296 295 244
f 297 296 244
f 269 297 244
f 246 297 269
f 298 297 246
f 299 298 246
f 270 299 246
f 248 299 270
f 300 299 248
f 301 300 248
f 250 303 302
f 252 305 304
f 306 305 252
f 272 306 252
f 271 272 252
f 273 307 272
f 274 307 273
f 308 274 275
f 255 308 275
f 309 308 255
f 277 309 255
f 276 277 255
f 278 310 277
f 279 310 278
f 281 279 280
f 283 311 281
f 282 283 281
f 285 312 283
f 284 285 283
f 313 339 285
f 232 340 313
f 314 340 232
f 263 315 314
f 316 315 263
f 287 316 263
f 286 287 263
f 288 317 287
f 289 317 288
f 318 289 290
f 291 318 290
f 319 318 291
f 320 319 291
f 292 320 291
f 293 320 292
f 321 320 293
f 294 321 293
f 295 321 294
f 322 321 295
f 296 322 295
f 297 322 296
f 323 322 297
f 298 323 297
f 299 323 298
f 324 323 299
f 300 324 299
f 301 324 300
f 302 324 301
f 304 356 303
f 305 356 304
f 325 305 306
f 272 325 306
f 326 325 272
f 327 326 272
f 307 327 272
f 328 327 307
f 274 328 307
f 329 328 274
f 309 329 274
f 308 309 274
f 277 330 309
f 331 330 277
f 332 331 277
f 310 332 277
f 333 332 310
f 279 333 310
f 334 333 279
f 335 334 279
f 281 335 279
f 311 335 281
f 283 335 311
f 336 335 283
f 337 336 283
f 312 337 283
f 285 337 312
f 338 337 285
f 339 338 285
f 340 339 313
f 314 368 340
f 369 368 314
f 316 369 314
f 315 316 314
f 287 341 316
f 342 341 287
f 343 342 287
f 317 343 287
f 344 343 317
f 289 344 317
f 345 344 289
f 319 345 289
f 318 319 289
f 320 346 319
f 347 346 320
f 348 347 320
f 321 348 320
f 349 348 321
f 350 349 321
f 351 350 321
f 322 351 321
f 352 351 322
f 353 352 322
f 323 353 322
f 354 353 323
f 355 354 323
f 324 355 323
f 378 355 324
f 302 378 324
f 303 356 302
f 305 357 356
f 358 357 305
f 326 358 305
f 325 326 305
f 327 359 326
f 328 359 327
f 360 328 329
f 309 360 329
f 361 360 309
f 331 361 309
f 330 331 309
f 332 362 331
f 333 362 332
f 363 333 334
f 335 363 334
f 364 363 335
f 365 364 335
f 336 365 335
f 337 365 336
f 366 365 337
f 338 366 337
f 339 366 338
f 367 366 339
f 368 367 339
f 340 368 339
f 316 370 369
f 371 370 316
f 342 371 316
f 341 342 316
f 343 372 342
f 344 372 343
f 373 344 345
f 319 373 345
f 374 373 319
f 347 374 319
f 346 347 319
f 348 375 347
f 349 375 348
f 351 349 350
f 353 376 351
f 352 353 351
f 355 377 353
f 354 355 353
f 378 413 355
f 302 414 378
f 356 414 302
f 380 379 356
f 358 380 356
f 357 358 356
f 326 381 358
f 382 381 326
f 383 382 326
f 359 383 326
f 384 383 359
f 328 384 359
f 385 384 328
f 361 385 328
f 360 361 328
f 331 386 361
f 387 386 331
f 388 387 331
f 362 388 331
f 389 388 362
f 333 389 362
f 390 389 333
f 364 390 333
f 363 364 333
f 365 391 364
f 392 391 365
f 393 392 365
f 366 393 365
f 394 393 366
f 395 394 366
f 396 395 366
f 367 396 366
f 368 396 367
f 397 396 368
f 398 397 368
f 369 398 368
f 370 398 369
f 371 398 370
f 399 398 371
f 342 399 371
f 400 399 342
f 401 400 342
f 372 401 342
f 402 401 372
f 344 402 372
f 403 402 344
f 374 403 344
f 373 374 344
f 347 404 374
f 405 404 347
f 406 405 347
f 375 406 347
f 407 406 375
f 349 407 375
f 408 407 349
f 409 408 349
f 351 409 349
f 376 409 351
f 353 409 376
f 410 409 353
f 411 410 353
f 377 411 353
f 355 411 377
f 412 411 355
f 413 412 355
f 414 413 378
f 356 379 414
f 358 415 380
f 416 415 358
f 382 416 358
f 381 382 358
f 383 417 382
f 384 417 383
f 418 384 385
f 361 418 385
f 419 418 361
f 387 419 361
f 386 387 361
f 388 420 387
f 389 420 388
f 421 389 390
f 364 421 390
f 422 421 364
f 392 422 364
f 391 392 364
f 393 423 392
f 394 423 393
f 396 394 395
f 424 454 396
f 397 424 396
f 398 424 397
f 425 424 398
f 426 425 398
f 400 426 398
f 399 400 398
f 401 427 400
f 402 427 401
f 428 402 403
f 374 428 403
f 429 428 374
f 405 429 374
f 404 405 374
f 406 430 405
f 407 430 406
f 431 407 408
f 409 431 408
f 432 431 409
f 433 432 409
f 410 433 409
f 411 433 410
f 434 433 411
f 412 434 411
f 413 434 412
f 435 434 413
f 436 435 413
f 414 436 413
f 380 436 414
f 379 380 414
f 438 437 380
f 416 438 380
f 415 416 380
f 382 439 416
f 440 439 382
f 441 440 382
f 417 441 382
f 442 441 417
f 384 442 417
f 443 442 384
f 419 443 384
f 418 419 384
f 387 444 419
f 445 444 387
f 446 445 387
f 420 446 387
f 447 446 420
f 389 447 420
f 448 447 389
f 422 448 389
f 421 422 389
f 392 449 422
f 450 449 392
f 451 450 392
f 423 451 392
f 452 451 423
f 394 452 423
f 453 452 394
f 454 453 394
f 396 454 394
f 424 455 454
f 425 455 424
f 456 425 426
f 400 456 426
f 457 456 400
f 458 457 400
f 427 458 400
f 459 458 427
f 402 459 427
f 460 459 402
f 429 460 402
f 428 429 402
f 405 461 429
f 462 461 405
f 463 462 405
f 430 463 405
f 464 463 430
f 407 464 430
f 465 464 407
f 432 465 407
f 431 432 407
f 433 466 432
f 467 466 433
f 468 467 433
f 434 468 433
f 469 468 434
f 470 469 434
f 436 470 434
f 435 436 434
f 380 437 436
f 416 471 438
f 472 471 416
f 440 472 416
f 439 440 416
f 441 473 440
f 442 473 441
f 474 442 443
f 419 474 443
f 475 474 419
f 445 475 419
f 444 445 419
f 446 476 445
f 447 476 446
f 477 447 448
f 422 477 448
f 478 477 422
f 450 478 422
f 449 450 422
f 451 479 450
f 452 479 451
f 480 452 453
f 454 480 453
f 481 480 454
f 482 481 454
f 455 482 454
f 483 482 455
f 425 483 455
f 484 483 425
f 457 484 425
f 456 457 425
f 458 485 457
f 459 485 458
f 486 459 460
f 429 486 460
f 487 486 429
f 462 487 429
f 461 462 429
f 463 488 462
f 464 488 463
f 489 464 465
f 432 489 465
f 490 489 432
f 467 490 432
f 466 467 432
f 468 491 467
f 469 491 468
f 492 469 470
f 436 492 470
f 493 492 436
f 438 493 436
f 437 438 436
f 495 494 438
f 472 495 438
f 471 472 438
f 440 496 472
f 497 496 440
f 498 497 440
f 473 498 440
f 499 498 473
f 442 499 473
f 500 499 442
f 475 500 442
f 474 475 442
f 445 501 475
f 502 501 445
f 503 502 445
f 476 503 445
f 504 503 476
f 447 504 476
f 505 504 447
f 478 505 447
f 477 478 447
f 450 506 478
f 507 506 450
f 508 507 450
f 479 508 450
f 509 508 479
f 452 509 479
f 510 509 452
f 511 510 452
f 480 511 452
f 481 511 480
f 512 511 481
f 482 512 481
f 513 512 482
f 514 513 482
f 483 514 482
f 484 514 483
f 515 514 484
f 457 515 484
f 516 515 457
f 517 516 457
f 485 517 457
f 518 517 485
f 459 518 485
f 519 518 459
f 520 519 459
f 486 520 459
f 487 520 486
f 521 520 487
f 462 521 487
f 522 521 462
f 523 522 462
f 488 523 462
f 524 523 488
f 464 524 488
f 525 524 464
f 526 525 464
f 489 526 464
f 490 526 489
f 527 526 490
f 467 527 490
f 528 527 467
f 529 528 467
f 491 529 467
f 530 529 491
f 469 530 491
f 531 530 469
f 532 531 469
f 492 532 469
f 493 532 492
f 494 532 493
f 438 494 493
f 495 533 494
f 534 533 495
f 472 534 495
f 535 534 472
f 496 535 472
f 497 535 496
f 536 535 497
f 498 536 497
f 537 536 498
f 499 537 498
f 500 537 499
f 538 537 500
f 475 538 500
f 539 538 475
f 501 539 475
f 502 539 501
f 540 539 502
f 503 540 502
f 541 540 503
f 504 541 503
f 505 541 504
f 542 541 505
f 478 542 505
f 543 542 478
f 506 543 478
f 507 543 506
f 544 543 507
f 508 544 507
f 545 544 508
f 509 545 508
f 510 545 509
f 546 545 510
f 511 546 510
f 547 546 511
f 512 547 511
f 513 547 512
f 548 547 513
f 514 548 513
f 549 548 514
f 515 549 514
f 516 549 515
f 550 549 516
f 517 550 516
f 551 550 517
f 518 551 517
f 519 551 518
f 552 551 519
f 520 552 519
f 553 552 520
f 521 553 520
f 522 553 521
f 554 553 522
f 523 554 522
f 555 554 523
f 524 555 523
f 525 555 524
f 556 555 525
f 526 556 525
f 557 556 526
f 527 557 526
f 528 557 527
f 558 557 528
f 529 558 528
f 559 558 529
f 530 559 529
f 531 559 530
f 560 559 531
f 532 560 531
f 533 560 532
f 494 533 532
f 1 37 561
f 2 1 561
f 3 2 561
f 4 3 561
f 5 4 561
f 6 5 561
f 7 6 561
f 8 7 561
f 9 8 561
f 10 9 561
f 11 10 561
f 12 11 561
f 13 12 561
f 14 13 561
f 15 14 561
f 16 15 561
f 17 16 561
f 18 17 561
f 19 18 561
f 20 19 561
f 21 20 561
f 22 21 561
f 23 22 561
f 24 23 561
f 25 24 561
f 26 25 561
f 27 26 561
f 28 27 561
f 29 28 561
f 30 29 561
f 31 30 561
f 32 31 561
f 33 32 561
f 34 33 561
f 35 34 561
f 36 35 561
f 37 36 561
f 562 533 534
f 562 534 535
f 562 535 536
f 562 536 537
f 562 537 538
f 562 538 539
f 562 539 540
f 562 540 541
f 562 541 542
f 562 542 543
f 562 543 544
f 562 544 545
f 562 545 546
f 562 546 547
f 562 547 548
f 562 548 549
f 562 549 550
f 562 550 551
f 562 551 552
f 562 552 553
f 562 553 554
f 562 554 555
f 562 555 556
f 562 556 557
f 562 557 558
f 562 558 559
f 562 559 560
f 562 560 533
