v 0.121153 -0.155140 -0.078321
v 0.122107 -0.157097 -0.079860
v 0.124036 -0.152766 -0.078280
v 0.124938 -0.152711 -0.078657
v 0.123504 -0.158068 -0.081044
v 0.126769 -0.155286 -0.080944
v 0.126669 -0.160133 -0.070432
v 0.127621 -0.159372 -0.070432
v 0.128109 -0.155620 -0.068527
v 0.129086 -0.157554 -0.070065
v 0.124799 -0.161330 -0.051860
v 0.124191 -0.158451 -0.059764
v 0.124568 -0.161280 -0.063166
v 0.125572 -0.162380 -0.063210
v 0.125898 -0.158280 -0.055821
v 0.126992 -0.157406 -0.055821
v 0.125819 -0.161045 -0.069064
v 0.128182 -0.156711 -0.055965
v 0.128722 -0.162922 -0.059730
v 0.127601 -0.163107 -0.036200
v 0.127966 -0.166352 -0.048119
v 0.127586 -0.160468 -0.044613
v 0.129817 -0.162048 -0.059730
v 0.129480 -0.156839 -0.056625
v 0.130481 -0.160651 -0.061005
v 0.126416 -0.154201 -0.080169
v 0.130569 -0.168226 -0.042347
v 0.130776 -0.165711 -0.049027
v 0.130166 -0.158696 -0.044776
v 0.132012 -0.164725 -0.049027
v 0.133910 -0.164658 -0.045073
v 0.131173 -0.158463 -0.053373
v 0.131603 -0.160056 -0.058886
v 0.135820 -0.163144 -0.037157
v 0.127899 -0.166520 -0.028332
v 0.128338 -0.167727 -0.036758
v 0.124764 -0.161976 -0.055459
v 0.129274 -0.162656 -0.033405
v 0.130393 -0.170490 -0.032521
v 0.129383 -0.160218 -0.040810
v 0.132611 -0.161189 -0.030853
v 0.130185 -0.170828 -0.025235
v 0.130683 -0.167850 -0.013515
v 0.130962 -0.164845 -0.022196
v 0.133231 -0.172255 -0.027422
v 0.134207 -0.167401 -0.038325
v 0.135126 -0.162173 -0.034486
v 0.132891 -0.159993 -0.039145
v 0.138726 -0.167167 -0.027082
v 0.134129 -0.170295 -0.030197
v 0.136393 -0.177473 -0.027036
v 0.136402 -0.170077 -0.027622
v 0.137243 -0.175820 -0.027589
v 0.138064 -0.164825 -0.012328
v 0.131567 -0.172661 -0.000475
v 0.130310 -0.171568 -0.014971
v 0.133160 -0.174940 -0.015699
v 0.131800 -0.173574 -0.014310
v 0.133277 -0.175572 -0.010061
v 0.134338 -0.169221 0.000220
v 0.132094 -0.174607 -0.004183
v 0.132106 -0.174679 -0.001862
v 0.133083 -0.175903 -0.002998
v 0.133416 -0.176320 -0.003385
v 0.133435 -0.176302 -0.003383
v 0.132575 -0.170700 0.000180
v 0.133933 -0.175021 -0.016072
v 0.133980 -0.175067 -0.016279
v 0.134824 -0.174668 -0.018436
v 0.135576 -0.173844 -0.019691
v 0.133697 -0.175827 -0.012349
v 0.133356 -0.164734 -0.017508
v 0.136761 -0.172977 -0.019921
v 0.137619 -0.172286 -0.019964
v 0.136057 -0.178787 -0.015403
v 0.137044 -0.179804 -0.012208
v 0.136117 -0.164652 -0.011207
v 0.134892 -0.177802 -0.004893
v 0.134814 -0.177674 -0.005377
v 0.134943 -0.177808 -0.004919
v 0.133616 -0.176507 -0.003582
v 0.133564 -0.176450 -0.003727
v 0.137565 -0.172325 -0.002998
v 0.137520 -0.177876 0.000126
v 0.121217 0.155529 -0.078570
v 0.123365 0.157972 -0.080928
v 0.121472 0.154816 -0.078281
v 0.124160 0.152744 -0.078324
v 0.124734 0.157303 -0.081167
v 0.122779 0.158468 -0.067730
v 0.124694 0.155705 -0.067030
v 0.124873 0.152704 -0.078623
v 0.126510 0.155680 -0.081050
v 0.130047 0.157546 -0.061292
v 0.124255 0.161010 -0.056625
v 0.122268 0.157360 -0.080083
v 0.126399 0.164196 -0.054172
v 0.125000 0.156250 -0.065972
v 0.126454 0.157836 -0.055821
v 0.130148 0.166270 -0.049380
v 0.129261 0.162492 -0.059730
v 0.126978 0.160953 -0.044613
v 0.128443 0.166187 -0.049999
v 0.128214 0.159967 -0.044613
v 0.130355 0.161619 -0.059730
v 0.128317 0.155702 -0.065411
v 0.131297 0.160612 -0.059586
v 0.126645 0.154637 -0.080519
v 0.131384 0.165226 -0.049027
v 0.129202 0.158380 -0.048669
v 0.129177 0.156966 -0.054399
v 0.126938 0.165515 -0.043600
v 0.127146 0.164009 -0.035526
v 0.127411 0.166448 -0.032870
v 0.129974 0.162098 -0.033405
v 0.131911 0.161697 -0.029819
v 0.130475 0.169442 -0.037793
v 0.130081 0.164228 -0.026016
v 0.130960 0.172414 -0.015229
v 0.131734 0.164229 -0.022196
v 0.132286 0.172328 -0.027036
v 0.135382 0.167774 -0.034884
v 0.137113 0.164182 -0.027679
v 0.133507 0.167959 -0.038325
v 0.133742 0.163182 -0.048521
v 0.134604 0.162369 -0.044834
v 0.134087 0.171866 -0.027589
v 0.134500 0.161433 -0.034595
v 0.136674 0.176567 -0.027422
v 0.137150 0.169480 -0.027622
v 0.138897 0.181279 -0.032242
v 0.130157 0.171177 -0.012208
v 0.132405 0.174335 -0.014933
v 0.133450 0.175787 -0.010061
v 0.131632 0.173719 -0.004893
v 0.131638 0.173668 -0.004919
v 0.133143 0.175856 -0.005232
v 0.131776 0.173883 -0.005526
v 0.132613 0.175250 -0.003582
v 0.132751 0.175487 -0.003385
v 0.132773 0.175472 -0.003383
v 0.131269 0.172933 -0.000500
v 0.133083 0.175903 -0.002998
v 0.132142 0.171139 0.000126
v 0.137033 0.167116 0.000195
v 0.134132 0.175270 -0.016072
v 0.134080 0.174933 -0.017287
v 0.133293 0.175321 -0.012351
v 0.135020 0.174294 -0.018868
v 0.135071 0.177670 -0.014310
v 0.134138 0.161695 -0.027852
v 0.136425 0.173221 -0.019920
v 0.134128 0.177155 -0.004183
v 0.134061 0.177128 -0.001862
v 0.139603 0.166268 -0.000491
v 0.136229 0.178168 -0.000293
v 0.137565 0.172325 -0.002998
v 0.144020 -0.185088 -0.061011
v 0.143568 -0.185543 -0.056672
v 0.145314 -0.182602 -0.059730
v 0.139810 -0.178735 -0.039614
v 0.145082 -0.187218 -0.059069
v 0.143119 -0.179926 -0.049027
v 0.148425 -0.189843 -0.080644
v 0.148927 -0.188593 -0.081125
v 0.149290 -0.191149 -0.079512
v 0.145892 -0.185446 -0.067840
v 0.147510 -0.185278 -0.070432
v 0.151269 -0.186810 -0.081076
v 0.150442 -0.192061 -0.078476
v 0.153386 -0.190109 -0.078249
v 0.152211 -0.186700 -0.080713
v 0.150628 -0.184024 -0.069732
v 0.152101 -0.185675 -0.068131
v 0.153900 -0.189346 -0.078451
v 0.145969 -0.178592 -0.050472
v 0.151054 -0.191901 -0.078289
v 0.148897 -0.181161 -0.058926
v 0.149233 -0.186371 -0.055821
v 0.145561 -0.175650 -0.038121
v 0.147059 -0.185686 -0.045490
v 0.147545 -0.184183 -0.044613
v 0.149533 -0.181614 -0.056174
v 0.148052 -0.178669 -0.038566
v 0.150588 -0.183058 -0.057086
v 0.149658 -0.184472 -0.049864
v 0.134473 -0.176923 -0.014986
v 0.139530 -0.180597 -0.041016
v 0.140924 -0.177250 -0.038325
v 0.144035 -0.186318 -0.048288
v 0.137888 -0.168831 -0.027589
v 0.138604 -0.171470 -0.019933
v 0.139195 -0.181806 -0.023313
v 0.138284 -0.165477 -0.025867
v 0.135749 -0.178345 -0.000417
v 0.143763 -0.179880 -0.051797
v 0.143533 -0.184526 -0.036762
v 0.143939 -0.181940 -0.026882
v 0.141900 -0.172396 -0.027422
v 0.141971 -0.169712 -0.015705
v 0.145629 -0.174955 -0.029500
v 0.144169 -0.179806 -0.022196
v 0.139447 -0.166212 -0.013598
v 0.139433 -0.170936 -0.019867
v 0.140049 -0.170279 -0.018868
v 0.140307 -0.169982 -0.018436
v 0.141197 -0.169630 -0.016072
v 0.141151 -0.169584 -0.016279
v 0.141434 -0.168823 -0.012349
v 0.140654 -0.167724 -0.015001
v 0.137756 -0.166693 0.000106
v 0.140370 -0.167027 -0.005507
v 0.141515 -0.168144 -0.003582
v 0.142536 -0.173986 0.000191
v 0.140188 -0.166843 -0.004919
v 0.140239 -0.166848 -0.004893
v 0.140239 -0.166848 -0.001104
v 0.142481 -0.177617 -0.010988
v 0.143330 -0.171077 -0.014310
v 0.143442 -0.170723 -0.001251
v 0.146184 -0.179402 -0.026173
v 0.143037 -0.170044 -0.004183
v 0.141988 -0.168795 -0.005232
v 0.141696 -0.168349 -0.003383
v 0.141715 -0.168331 -0.003385
v 0.141715 -0.168331 -0.002612
v 0.142047 -0.168747 -0.002998
v 0.145857 -0.181994 -0.033405
v 0.149110 -0.181264 -0.042558
v 0.145719 -0.175585 -0.016828
v 0.141447 0.181548 -0.048865
v 0.141664 0.183371 -0.049958
v 0.145465 0.185739 -0.066850
v 0.145273 0.187263 -0.062493
v 0.139935 0.177987 -0.039280
v 0.144972 0.187240 -0.056209
v 0.143747 0.179425 -0.049027
v 0.145295 0.187065 -0.051020
v 0.148359 0.189442 -0.080903
v 0.147257 0.186287 -0.072574
v 0.149536 0.191484 -0.079211
v 0.150117 0.187625 -0.081135
v 0.150695 0.191982 -0.078407
v 0.151338 0.186799 -0.081052
v 0.153324 0.187928 -0.079512
v 0.151837 0.191447 -0.078191
v 0.152052 0.186755 -0.080754
v 0.150437 0.188946 -0.067030
v 0.148227 0.179569 -0.050656
v 0.151390 0.188185 -0.067030
v 0.153914 0.189192 -0.078532
v 0.145870 0.182158 -0.059730
v 0.144743 0.178277 -0.048124
v 0.147480 0.187435 -0.055171
v 0.148279 0.180980 -0.059308
v 0.148677 0.186815 -0.055821
v 0.146014 0.177366 -0.045851
v 0.146917 0.184684 -0.044613
v 0.147793 0.183301 -0.042226
v 0.150197 0.182567 -0.057541
v 0.150764 0.183445 -0.055757
v 0.139061 0.179058 -0.038143
v 0.138611 0.180451 -0.036229
v 0.141624 0.176691 -0.038325
v 0.138871 0.181587 -0.025824
v 0.135860 0.173794 -0.019955
v 0.138457 0.168083 -0.027422
v 0.139500 0.173958 -0.027622
v 0.139569 0.170732 -0.019790
v 0.140279 0.182270 -0.023997
v 0.145157 0.182553 -0.033405
v 0.142845 0.172322 -0.027036
v 0.139877 0.176160 0.000220
v 0.144403 0.173142 -0.025867
v 0.138853 0.165468 -0.012907
v 0.137566 0.172325 -0.019960
v 0.139559 0.170652 -0.019556
v 0.140060 0.166980 -0.014310
v 0.140458 0.170171 -0.018436
v 0.140999 0.169381 -0.016072
v 0.141089 0.168607 -0.015707
v 0.141754 0.181473 -0.021402
v 0.141003 0.167495 -0.004183
v 0.141106 0.169289 -0.015625
v 0.141681 0.168863 -0.010061
v 0.142736 0.170332 -0.015001
v 0.142896 0.173602 0.000136
v 0.143943 0.171845 -0.013598
v 0.144974 0.173473 -0.012208
v 0.143391 0.170828 -0.005377
v 0.143492 0.170983 -0.004919
v 0.143499 0.170932 -0.004893
v 0.142047 0.168747 -0.002998
v 0.142358 0.169178 -0.003383
v 0.142380 0.169164 -0.003385
v 0.143490 0.170807 -0.001178
v 0.142518 0.169401 -0.003582
v 0.142474 0.169337 -0.003727
v 0.147142 0.177335 -0.036175
v 0.146535 0.181453 -0.033405
v 0.149680 0.183366 -0.048478
v 0.147500 0.177825 -0.031249
v 0.145321 0.176348 -0.015513
g gear
f 263 262 129
f 129 149 147
f 129 147 146
f 263 129 148
f 263 150 131
f 129 266 149
f 266 276 152
f 135 138 136
f 135 136 139
f 135 140 138
f 135 139 140
f 140 137 138
f 140 139 141
f 140 141 143
f 140 143 137
f 129 146 148
f 263 148 150
f 148 134 150
f 150 134 153
f 150 265 131
f 154 150 153
f 154 265 150
f 154 156 265
f 154 153 143
f 154 143 157
f 154 157 156
f 239 233 232
f 239 232 234
f 232 231 263
f 231 262 263
f 232 263 131
f 231 235 262
f 231 233 240
f 232 233 231
f 131 234 232
f 231 240 235
f 235 240 252
f 237 252 253
f 235 252 237
f 131 236 234
f 235 237 264
f 131 265 236
f 264 237 253
f 270 238 236
f 238 282 254
f 233 239 240
f 234 241 239
f 239 241 245
f 240 239 242
f 242 244 252
f 234 236 241
f 242 252 240
f 241 238 243
f 252 244 253
f 253 244 247
f 253 247 255
f 243 256 248
f 239 245 242
f 242 245 244
f 241 243 245
f 243 246 245
f 245 247 244
f 245 246 251
f 249 247 245
f 243 248 246
f 255 247 249
f 248 250 246
f 245 260 249
f 248 259 250
f 245 251 260
f 250 301 251
f 246 250 251
f 241 236 238
f 238 254 243
f 253 255 257
f 254 258 256
f 254 256 243
f 248 256 259
f 255 249 257
f 254 271 258
f 258 300 259
f 258 259 256
f 249 260 299
f 301 302 261
f 250 259 301
f 251 261 260
f 251 301 261
f 260 261 299
f 129 235 266
f 129 262 235
f 266 235 264
f 266 264 268
f 268 264 253
f 268 253 269
f 266 268 276
f 268 269 276
f 269 272 277
f 272 279 277
f 280 279 272
f 265 270 236
f 270 282 238
f 269 253 257
f 269 257 272
f 254 282 271
f 257 249 272
f 280 272 274
f 272 249 274
f 282 273 271
f 271 273 287
f 271 287 300
f 274 299 286
f 299 302 288
f 265 156 270
f 270 156 282
f 280 286 284
f 156 157 273
f 156 273 282
f 273 157 287
f 296 157 293
f 287 157 296
f 280 274 286
f 286 285 284
f 286 283 285
f 283 286 288
f 299 288 286
f 302 289 288
f 288 289 298
f 283 288 298
f 283 298 293
f 296 293 294
f 296 294 297
f 296 297 291
f 303 296 289
f 289 290 298
f 289 291 290
f 289 296 291
f 303 287 296
f 258 271 300
f 259 300 301
f 274 249 299
f 261 302 299
f 287 303 300
f 300 303 301
f 301 303 302
f 302 303 289
f 85 96 87
f 96 86 87
f 85 90 96
f 85 87 90
f 87 86 89
f 87 92 88
f 87 108 92
f 87 89 93
f 87 88 91
f 87 91 98
f 96 103 86
f 90 87 95
f 87 98 113
f 87 93 108
f 92 108 106
f 108 94 106
f 91 88 99
f 96 97 103
f 88 92 110
f 86 103 100
f 86 101 89
f 92 106 111
f 86 100 101
f 89 101 105
f 90 95 96
f 87 113 95
f 95 112 96
f 95 113 114
f 91 99 98
f 88 110 99
f 98 99 102
f 92 111 110
f 99 110 104
f 95 114 112
f 98 102 113
f 96 112 97
f 99 104 102
f 112 133 97
f 102 104 118
f 97 117 103
f 104 110 115
f 97 133 117
f 89 107 93
f 89 105 107
f 93 107 108
f 100 109 101
f 101 122 105
f 106 94 128
f 101 109 122
f 105 125 107
f 107 126 108
f 105 122 125
f 107 125 126
f 108 126 94
f 106 128 111
f 110 111 116
f 103 117 100
f 100 124 109
f 111 128 151
f 109 124 122
f 94 126 123
f 102 118 113
f 104 115 118
f 112 114 119
f 113 132 114
f 110 116 115
f 133 121 117
f 111 151 116
f 117 127 100
f 117 121 127
f 115 116 120
f 115 120 118
f 112 119 133
f 133 147 121
f 94 123 128
f 100 152 124
f 100 127 152
f 124 130 122
f 124 152 130
f 122 267 125
f 125 281 126
f 122 130 267
f 121 266 127
f 121 147 149
f 121 149 266
f 127 266 152
f 152 276 130
f 113 118 142
f 118 120 144
f 118 144 142
f 113 142 132
f 114 132 119
f 132 138 119
f 120 116 145
f 120 145 144
f 133 148 146
f 119 153 133
f 133 134 148
f 133 153 134
f 132 136 138
f 132 142 136
f 119 138 137
f 119 137 153
f 142 139 136
f 142 141 139
f 142 143 141
f 153 137 143
f 116 151 145
f 133 146 147
f 128 275 151
f 142 157 143
f 142 144 157
f 144 145 157
f 145 151 155
f 145 155 157
f 125 267 281
f 126 281 123
f 123 275 128
f 123 281 278
f 130 277 267
f 130 276 269
f 130 269 277
f 267 277 279
f 280 267 279
f 123 278 275
f 267 280 284
f 267 284 281
f 278 281 285
f 281 284 285
f 278 285 283
f 151 275 155
f 275 278 155
f 278 283 155
f 155 283 293
f 155 293 157
f 292 298 290
f 292 290 291
f 295 293 298
f 295 294 293
f 295 297 294
f 292 297 295
f 292 295 298
f 292 291 297
f 51 53 188
f 51 69 70
f 51 68 69
f 51 187 68
f 51 70 53
f 53 70 73
f 53 73 74
f 61 82 63
f 195 63 65
f 195 65 81
f 68 67 69
f 68 187 67
f 187 71 67
f 187 59 71
f 187 61 59
f 61 187 75
f 75 193 76
f 75 76 82
f 61 75 82
f 76 79 82
f 195 81 80
f 195 83 63
f 76 80 79
f 76 195 80
f 195 84 83
f 164 159 158
f 159 187 188
f 159 162 187
f 161 167 158
f 188 161 158
f 188 158 159
f 161 163 167
f 167 163 160
f 160 163 196
f 162 190 75
f 161 189 163
f 189 196 163
f 190 177 197
f 158 167 164
f 167 168 165
f 164 166 162
f 167 165 164
f 164 165 171
f 164 171 166
f 162 166 170
f 168 169 165
f 167 160 168
f 168 196 169
f 164 162 159
f 168 160 196
f 170 177 190
f 196 176 169
f 169 178 173
f 176 178 169
f 181 177 171
f 173 178 183
f 166 171 170
f 165 169 171
f 169 172 171
f 169 173 172
f 171 177 170
f 171 172 175
f 172 174 175
f 173 183 172
f 171 175 179
f 172 183 185
f 172 185 174
f 174 229 175
f 170 190 162
f 197 177 181
f 181 171 179
f 176 180 178
f 180 183 178
f 182 179 186
f 181 179 182
f 181 182 198
f 182 186 228
f 180 201 183
f 185 184 229
f 186 229 221
f 175 186 179
f 174 185 229
f 175 229 186
f 183 184 185
f 188 53 161
f 51 188 187
f 161 53 192
f 162 75 187
f 161 192 189
f 192 204 189
f 193 190 197
f 189 204 196
f 196 204 199
f 75 190 193
f 53 74 192
f 193 197 195
f 204 205 199
f 199 205 206
f 206 207 199
f 196 199 176
f 199 200 176
f 181 198 197
f 176 200 180
f 195 197 198
f 198 228 202
f 180 200 201
f 200 219 201
f 76 193 195
f 198 84 195
f 200 207 209
f 84 214 83
f 84 218 214
f 220 227 83
f 214 220 83
f 216 212 215
f 216 215 213
f 216 225 212
f 216 213 225
f 198 202 84
f 199 207 200
f 84 202 218
f 200 209 219
f 219 209 222
f 218 202 221
f 201 219 220
f 218 221 214
f 219 222 220
f 225 223 212
f 225 227 223
f 225 213 224
f 225 224 227
f 220 222 227
f 214 221 230
f 214 230 220
f 182 228 198
f 186 221 228
f 183 201 184
f 201 220 184
f 184 230 229
f 202 228 221
f 184 220 230
f 229 230 221
f 2 5 13
f 1 3 2
f 1 2 37
f 1 37 11
f 1 11 12
f 2 13 37
f 3 4 2
f 2 6 5
f 2 4 26
f 5 14 13
f 5 17 14
f 12 15 1
f 2 26 6
f 5 6 8
f 5 7 17
f 5 8 7
f 4 9 26
f 6 25 8
f 6 10 25
f 6 26 10
f 1 16 3
f 7 8 19
f 8 25 23
f 7 19 17
f 3 24 4
f 4 32 9
f 8 23 19
f 11 20 12
f 1 15 16
f 3 16 18
f 13 14 36
f 12 22 15
f 14 17 21
f 14 21 36
f 15 40 16
f 3 18 24
f 4 24 32
f 17 19 27
f 17 27 21
f 16 29 18
f 13 36 37
f 12 20 22
f 37 35 11
f 15 22 40
f 16 40 29
f 20 38 22
f 21 27 39
f 21 39 36
f 26 33 10
f 9 32 26
f 10 33 25
f 19 23 28
f 23 25 30
f 19 28 27
f 18 48 24
f 23 30 28
f 25 33 31
f 32 34 26
f 25 31 30
f 26 34 33
f 18 29 48
f 24 48 32
f 40 41 29
f 28 30 50
f 28 50 27
f 30 31 46
f 30 46 50
f 48 47 32
f 34 49 33
f 33 49 31
f 11 35 20
f 37 36 56
f 22 38 40
f 36 42 56
f 37 56 35
f 35 43 20
f 20 44 38
f 35 56 55
f 36 39 42
f 27 50 45
f 27 45 39
f 29 41 48
f 42 39 58
f 20 43 44
f 38 72 40
f 38 44 72
f 39 45 57
f 40 72 41
f 46 52 50
f 32 47 34
f 41 54 48
f 46 31 52
f 31 191 52
f 47 194 34
f 31 49 191
f 45 50 70
f 45 69 67
f 45 70 69
f 50 52 70
f 52 73 70
f 52 191 74
f 52 74 73
f 48 54 47
f 54 203 47
f 35 55 43
f 42 58 56
f 43 60 44
f 39 57 58
f 45 67 57
f 58 57 59
f 57 71 59
f 58 59 61
f 44 60 72
f 55 66 43
f 56 62 55
f 56 58 62
f 58 61 62
f 62 61 63
f 43 66 60
f 64 63 82
f 64 65 63
f 64 81 65
f 57 67 71
f 72 77 41
f 41 77 54
f 78 82 79
f 78 79 80
f 64 82 78
f 64 78 81
f 78 80 81
f 62 63 83
f 55 62 83
f 55 83 66
f 66 83 60
f 60 211 72
f 60 83 211
f 72 211 77
f 191 192 74
f 191 49 204
f 191 204 192
f 49 205 204
f 34 194 49
f 194 208 49
f 47 210 194
f 49 206 205
f 49 208 206
f 47 203 210
f 54 212 203
f 208 207 206
f 210 207 208
f 210 209 207
f 203 222 210
f 210 222 209
f 194 210 208
f 211 83 217
f 77 217 54
f 54 215 212
f 54 217 215
f 77 211 217
f 203 223 222
f 226 83 227
f 217 83 226
f 226 213 215
f 203 212 223
f 217 226 215
f 226 224 213
f 226 227 224
f 222 223 227
