v -0.144050 -0.183054 0.008360
v -0.142089 -0.184017 0.008360
v -0.148488 -0.178632 0.008350
v -0.145673 -0.181987 0.008350
v -0.149732 -0.175515 0.008359
v -0.150089 -0.171161 0.008359
v -0.148179 -0.184973 0.011213
v -0.150604 -0.181379 0.010719
v -0.149258 -0.167802 0.008360
v -0.148295 -0.165840 0.008360
v -0.147005 -0.164076 0.008360
v -0.145430 -0.162562 0.008360
v -0.143615 -0.161345 0.008360
v -0.141616 -0.160461 0.008360
v -0.139990 -0.184625 0.008360
v -0.137565 -0.184938 0.008350
v -0.135637 -0.184713 0.008360
v -0.133252 -0.184177 0.008350
v -0.131516 -0.183306 0.008360
v -0.147227 -0.180432 0.008350
v -0.129458 -0.181987 0.008350
v -0.128125 -0.180575 0.008360
v -0.126643 -0.178632 0.008350
v -0.125873 -0.176849 0.008360
v -0.125144 -0.174515 0.008350
v -0.125031 -0.172577 0.008360
v -0.137565 -0.188836 0.011213
v -0.131918 -0.187841 0.011213
v -0.126952 -0.184973 0.011213
v -0.123266 -0.180581 0.011213
v -0.121305 -0.175192 0.011213
v -0.139494 -0.159938 0.008360
v -0.137565 -0.159713 0.008350
v -0.135141 -0.160025 0.008360
v -0.133042 -0.160633 0.008360
v -0.131259 -0.161402 0.008350
v -0.125701 -0.168275 0.008360
v -0.126643 -0.166019 0.008350
v -0.129316 -0.162885 0.008360
v -0.127802 -0.164461 0.008360
v -0.125144 -0.170135 0.008350
v -0.137565 -0.155814 0.011213
v -0.121305 -0.169458 0.011213
v -0.123266 -0.164070 0.011213
v -0.129310 -0.158026 0.011213
v -0.155185 -0.184874 0.014638
v -0.158414 -0.178091 0.014638
v -0.149830 -0.190143 0.014638
v -0.142996 -0.193263 0.014638
v -0.159128 -0.170613 0.014638
v -0.157242 -0.163341 0.014638
v -0.152983 -0.157153 0.014638
v -0.146864 -0.152795 0.014638
v -0.139623 -0.150793 0.014638
v -0.135508 -0.193858 0.014638
v -0.128267 -0.191856 0.014638
v -0.122148 -0.187498 0.014638
v -0.133822 -0.151097 0.014648
v -0.128581 -0.152649 0.014638
v -0.123709 -0.155812 0.014648
v -0.119946 -0.159777 0.014638
v -0.117889 -0.181310 0.014638
v -0.116003 -0.174038 0.014638
v -0.116717 -0.166560 0.014638
v -0.156420 -0.185529 0.024094
v -0.150767 -0.191182 0.024094
v -0.159799 -0.178284 0.024094
v -0.143522 -0.194560 0.024094
v -0.160496 -0.170321 0.024094
v -0.158428 -0.162599 0.024094
v -0.153843 -0.156050 0.024094
v -0.147295 -0.151464 0.024094
v -0.141548 -0.149742 0.024095
v -0.135558 -0.195256 0.024094
v -0.127836 -0.193186 0.024094
v -0.121288 -0.188601 0.024094
v -0.135561 -0.149394 0.024094
v -0.129722 -0.150776 0.024095
v -0.124364 -0.153469 0.024094
v -0.116703 -0.182052 0.024094
v -0.114635 -0.174330 0.024094
v -0.117706 -0.160859 0.024095
v -0.115332 -0.166366 0.024094
v -0.119999 -0.157585 0.024095
v -0.155727 -0.184905 0.031835
v -0.150329 -0.190358 0.031835
v -0.158934 -0.177935 0.031835
v -0.143392 -0.193636 0.031835
v -0.159564 -0.170288 0.031835
v -0.157540 -0.162887 0.031835
v -0.153108 -0.156625 0.031835
v -0.148573 -0.153260 0.031824
v -0.143175 -0.150957 0.031835
v -0.135752 -0.194343 0.031835
v -0.128331 -0.192395 0.031835
v -0.122023 -0.188026 0.031835
v -0.137565 -0.150311 0.031824
v -0.131739 -0.151015 0.031835
v -0.126558 -0.153260 0.031824
v -0.121865 -0.156783 0.031835
v -0.150761 -0.185155 0.035550
v -0.155921 -0.173671 0.035550
v -0.154354 -0.179868 0.035550
v -0.145577 -0.188895 0.035550
v -0.139427 -0.190636 0.035550
v -0.145907 -0.177141 0.036977
v -0.147051 -0.173998 0.036977
v -0.146616 -0.175619 0.036977
v -0.147197 -0.172325 0.036977
v -0.144944 -0.178516 0.036977
v -0.142381 -0.180666 0.036977
v -0.140860 -0.181376 0.036977
v -0.155274 -0.167312 0.035550
v -0.152492 -0.161558 0.035550
v -0.147051 -0.170653 0.036977
v -0.146616 -0.169031 0.036977
v -0.145907 -0.167510 0.036977
v -0.144944 -0.166134 0.036977
v -0.143756 -0.164947 0.036977
v -0.141513 -0.163505 0.036978
v -0.147909 -0.157102 0.035550
v -0.143840 -0.155086 0.035546
v -0.138911 -0.153970 0.035550
v -0.133052 -0.190168 0.035550
v -0.139238 -0.181810 0.036977
v -0.137565 -0.181957 0.036977
v -0.135893 -0.181810 0.036977
v -0.143756 -0.179703 0.036977
v -0.134271 -0.181376 0.036977
v -0.132146 -0.180327 0.036978
v -0.128393 -0.188213 0.035546
v -0.124736 -0.185521 0.035550
v -0.120996 -0.180337 0.035550
v -0.130187 -0.178516 0.036977
v -0.129224 -0.177141 0.036977
v -0.128515 -0.175619 0.036977
v -0.128080 -0.173998 0.036977
v -0.127934 -0.172325 0.036977
v -0.139238 -0.162840 0.036977
v -0.136574 -0.162713 0.036978
v -0.134271 -0.163275 0.036977
v -0.131900 -0.164496 0.036978
v -0.134380 -0.154258 0.035546
v -0.129553 -0.155756 0.035550
v -0.122342 -0.161982 0.035550
v -0.128080 -0.170653 0.036977
v -0.128515 -0.169031 0.036977
v -0.129224 -0.167510 0.036977
v -0.130187 -0.166134 0.036977
v -0.125773 -0.158272 0.035546
v -0.118500 -0.183333 0.031824
v -0.116878 -0.179855 0.031824
v -0.115885 -0.176148 0.031824
v -0.115551 -0.172325 0.031824
v -0.115885 -0.168502 0.031824
v -0.116878 -0.164796 0.031824
v -0.118500 -0.161318 0.031824
v -0.119255 -0.174187 0.035550
v -0.119723 -0.167812 0.035550
v -0.147814 0.165015 0.008354
v -0.145673 0.162663 0.008350
v -0.149732 0.169135 0.008359
v -0.151864 0.164070 0.011213
v -0.148179 0.159677 0.011213
v -0.150089 0.173489 0.008359
v -0.148936 0.177702 0.008359
v -0.146411 0.181267 0.008359
v -0.142820 0.183753 0.008359
v -0.138553 0.159775 0.008354
v -0.135637 0.159938 0.008360
v -0.133515 0.160461 0.008360
v -0.131516 0.161345 0.008360
v -0.129701 0.162562 0.008360
v -0.128125 0.164076 0.008360
v -0.126836 0.165840 0.008360
v -0.125873 0.167802 0.008360
v -0.125265 0.169901 0.008360
v -0.139342 0.150759 0.014708
v -0.142924 0.160934 0.008350
v -0.139494 0.184713 0.008360
v -0.137314 0.184859 0.008360
v -0.134245 0.184457 0.008359
v -0.131080 0.183054 0.008360
v -0.128624 0.181171 0.008359
v -0.126585 0.178374 0.008360
v -0.125031 0.172074 0.008360
v -0.125399 0.175515 0.008359
v -0.155185 0.159777 0.014638
v -0.149830 0.154508 0.014638
v -0.144754 0.152003 0.014732
v -0.159400 0.170129 0.014619
v -0.155703 0.184678 0.014619
v -0.143519 0.193447 0.014619
v -0.128034 0.152559 0.014619
v -0.130356 0.192858 0.014631
v -0.121055 0.186502 0.014631
v -0.117558 0.163310 0.014619
v -0.116179 0.176348 0.014631
v -0.158521 0.163033 0.030410
v -0.152452 0.154581 0.024091
v -0.143522 0.150091 0.024094
v -0.160436 0.170761 0.030410
v -0.159591 0.178677 0.030410
v -0.156090 0.185828 0.030410
v -0.150355 0.191349 0.030410
v -0.143077 0.194576 0.030410
v -0.135558 0.149395 0.024094
v -0.129105 0.150919 0.030423
v -0.121288 0.156050 0.024094
v -0.134189 0.195094 0.030423
v -0.129722 0.193874 0.024095
v -0.123257 0.190355 0.030423
v -0.117003 0.161919 0.029827
v -0.114982 0.168343 0.024095
v -0.114557 0.172954 0.030423
v -0.119999 0.187066 0.024095
v -0.116159 0.180785 0.030423
v -0.153266 0.156783 0.031835
v -0.143545 0.150728 0.031865
v -0.123403 0.155197 0.031846
v -0.137565 0.194340 0.031824
v -0.126558 0.191391 0.031824
v -0.153934 0.165081 0.035921
v -0.148616 0.157282 0.035560
v -0.136360 0.153698 0.035560
v -0.140860 0.163275 0.036977
v -0.144944 0.166134 0.036977
v -0.143231 0.164496 0.036978
v -0.155424 0.171116 0.035921
v -0.154299 0.180595 0.035560
v -0.147051 0.173998 0.036977
v -0.146616 0.175619 0.036977
v -0.145907 0.177141 0.036977
v -0.143649 0.179908 0.036978
v -0.137992 0.190198 0.035958
v -0.149358 0.186379 0.035546
v -0.145108 0.189113 0.035550
v -0.139238 0.162840 0.036977
v -0.137565 0.162694 0.036977
v -0.135893 0.162840 0.036977
v -0.134271 0.163275 0.036977
v -0.128393 0.156438 0.035546
v -0.125402 0.159883 0.036178
v -0.122639 0.161558 0.035550
v -0.129737 0.166660 0.036978
v -0.128080 0.170653 0.036977
v -0.146827 0.169205 0.036978
v -0.139238 0.181810 0.036977
v -0.132520 0.180635 0.036978
v -0.131242 0.188678 0.036196
v -0.129553 0.188895 0.035550
v -0.127934 0.172325 0.036977
v -0.128080 0.173998 0.036977
v -0.129041 0.176999 0.036978
v -0.125773 0.186379 0.035546
v -0.122342 0.182669 0.035550
v -0.116878 0.164796 0.031824
v -0.118500 0.183333 0.031824
v -0.120370 0.167354 0.035921
v -0.119272 0.175175 0.035554
v 0.118897 -0.183103 0.014648
v 0.117889 -0.163341 0.014638
v 0.125144 -0.174515 0.008350
v 0.124953 -0.172325 0.008350
v 0.127904 -0.180432 0.008350
v 0.129316 -0.181765 0.008360
v 0.125713 -0.176639 0.008350
v 0.131080 -0.183054 0.008360
v 0.133252 -0.184177 0.008350
v 0.135141 -0.184625 0.008360
v 0.137565 -0.184938 0.008350
v 0.139494 -0.184713 0.008360
v 0.126643 -0.178632 0.008350
v 0.117377 -0.179881 0.014732
v 0.123266 -0.180581 0.011213
v 0.121179 -0.186331 0.014732
v 0.116371 -0.176261 0.014732
v 0.116010 -0.172521 0.014732
v 0.131918 -0.187841 0.011213
v 0.137565 -0.188836 0.011213
v 0.125144 -0.170135 0.008350
v 0.125873 -0.167802 0.008360
v 0.126836 -0.165840 0.008360
v 0.128125 -0.164076 0.008360
v 0.129701 -0.162562 0.008360
v 0.131516 -0.161345 0.008360
v 0.133515 -0.160461 0.008360
v 0.135637 -0.159938 0.008360
v 0.137817 -0.159791 0.008360
v 0.139990 -0.160025 0.008360
v 0.116303 -0.168775 0.014732
v 0.141879 -0.184177 0.008350
v 0.143615 -0.183306 0.008360
v 0.145673 -0.181987 0.008350
v 0.147005 -0.180575 0.008360
v 0.148488 -0.178632 0.008350
v 0.149258 -0.176849 0.008360
v 0.149986 -0.174515 0.008350
v 0.150100 -0.172577 0.008360
v 0.143213 -0.187841 0.011213
v 0.148179 -0.184973 0.011213
v 0.151864 -0.180581 0.011213
v 0.153826 -0.175192 0.011213
v 0.142089 -0.160633 0.008360
v 0.144050 -0.161596 0.008360
v 0.149986 -0.170135 0.008350
v 0.149430 -0.168275 0.008360
v 0.148546 -0.166276 0.008360
v 0.145815 -0.162885 0.008360
v 0.147227 -0.164218 0.008350
v 0.150214 -0.161712 0.011213
v 0.153826 -0.169458 0.011213
v 0.125301 -0.190143 0.014638
v 0.132134 -0.193263 0.014638
v 0.121053 -0.158469 0.014648
v 0.125017 -0.154706 0.014638
v 0.131800 -0.151477 0.014638
v 0.139623 -0.193858 0.014638
v 0.146864 -0.191856 0.014638
v 0.152983 -0.187498 0.014638
v 0.157242 -0.181310 0.014638
v 0.159128 -0.174038 0.014638
v 0.139278 -0.150762 0.014638
v 0.146550 -0.152649 0.014638
v 0.158414 -0.166560 0.014638
v 0.156234 -0.161547 0.014648
v 0.152738 -0.156908 0.014638
v 0.118711 -0.185529 0.024094
v 0.114635 -0.174333 0.024094
v 0.116016 -0.180168 0.024095
v 0.115331 -0.166369 0.024094
v 0.118709 -0.159124 0.024094
v 0.124364 -0.191182 0.024094
v 0.131609 -0.194560 0.024094
v 0.139573 -0.195256 0.024094
v 0.124362 -0.153471 0.024094
v 0.131606 -0.150092 0.024094
v 0.147295 -0.193186 0.024094
v 0.153843 -0.188601 0.024094
v 0.158428 -0.182052 0.024094
v 0.160496 -0.174330 0.024094
v 0.139570 -0.149394 0.024094
v 0.145409 -0.150776 0.024095
v 0.159799 -0.166366 0.024094
v 0.150767 -0.153469 0.024094
v 0.156420 -0.159121 0.024094
v 0.117496 -0.181560 0.031835
v 0.115548 -0.174139 0.031835
v 0.116255 -0.166499 0.031835
v 0.120777 -0.179868 0.035550
v 0.119210 -0.173671 0.035550
v 0.119857 -0.167312 0.035550
v 0.121865 -0.187867 0.031835
v 0.128127 -0.192300 0.031835
v 0.135528 -0.194323 0.031835
v 0.119533 -0.159562 0.031835
v 0.124986 -0.154164 0.031835
v 0.131956 -0.150957 0.031835
v 0.137565 -0.150311 0.031824
v 0.143175 -0.193694 0.031835
v 0.150145 -0.190486 0.031835
v 0.155598 -0.185089 0.031835
v 0.158876 -0.178151 0.031835
v 0.159580 -0.172325 0.031824
v 0.143392 -0.151015 0.031835
v 0.158934 -0.166716 0.031835
v 0.155727 -0.159746 0.031835
v 0.150329 -0.154293 0.031835
v 0.124370 -0.185155 0.035550
v 0.129553 -0.188895 0.035550
v 0.130187 -0.178516 0.036977
v 0.129224 -0.177141 0.036977
v 0.128515 -0.175619 0.036977
v 0.128080 -0.173998 0.036977
v 0.127934 -0.172325 0.036977
v 0.135704 -0.190636 0.035550
v 0.132750 -0.180666 0.036977
v 0.134271 -0.181376 0.036977
v 0.135893 -0.181810 0.036977
v 0.137565 -0.181957 0.036977
v 0.131374 -0.179703 0.036977
v 0.122639 -0.161558 0.035550
v 0.128080 -0.170653 0.036977
v 0.128515 -0.169031 0.036977
v 0.129224 -0.167510 0.036977
v 0.130187 -0.166134 0.036977
v 0.127222 -0.157102 0.035550
v 0.131374 -0.164947 0.036977
v 0.133618 -0.163505 0.036978
v 0.135893 -0.162840 0.036977
v 0.138557 -0.162713 0.036978
v 0.131291 -0.155086 0.035546
v 0.136219 -0.153970 0.035550
v 0.140751 -0.190392 0.035546
v 0.145108 -0.189113 0.035550
v 0.150395 -0.185521 0.035550
v 0.139921 -0.181697 0.036978
v 0.142381 -0.180666 0.036977
v 0.143756 -0.179703 0.036977
v 0.144944 -0.178516 0.036977
v 0.146259 -0.176545 0.036978
v 0.147178 -0.173317 0.036978
v 0.153453 -0.181498 0.035546
v 0.154805 -0.178600 0.035546
v 0.155632 -0.175511 0.035546
v 0.143756 -0.164947 0.036977
v 0.144944 -0.166134 0.036977
v 0.140860 -0.163275 0.036977
v 0.142381 -0.163984 0.036977
v 0.147051 -0.170653 0.036977
v 0.146386 -0.168378 0.036978
v 0.140751 -0.154258 0.035546
v 0.143840 -0.155086 0.035546
v 0.148333 -0.157399 0.035550
v 0.154805 -0.166051 0.035546
v 0.152789 -0.161982 0.035550
v 0.155921 -0.170979 0.035550
v 0.128742 0.163346 0.008354
v 0.131080 0.161596 0.008360
v 0.133042 0.160633 0.008360
v 0.136402 0.159801 0.008359
v 0.139494 0.159938 0.008360
v 0.118996 0.161378 0.014732
v 0.121179 0.158320 0.014732
v 0.116866 0.163338 0.015598
v 0.124977 0.171026 0.008349
v 0.125144 0.174515 0.008350
v 0.125873 0.176849 0.008360
v 0.126836 0.178810 0.008360
v 0.128720 0.181267 0.008359
v 0.126180 0.166799 0.008350
v 0.132311 0.183753 0.008359
v 0.136537 0.184861 0.008359
v 0.116031 0.170239 0.014730
v 0.117007 0.179459 0.014667
v 0.141616 0.160461 0.008360
v 0.143615 0.161345 0.008360
v 0.145430 0.162562 0.008360
v 0.147005 0.164076 0.008360
v 0.148295 0.165840 0.008360
v 0.149258 0.167802 0.008360
v 0.149865 0.169901 0.008360
v 0.150100 0.172074 0.008360
v 0.149953 0.174254 0.008360
v 0.149430 0.176376 0.008360
v 0.145815 0.181765 0.008360
v 0.147329 0.180189 0.008360
v 0.148546 0.178374 0.008360
v 0.140886 0.184457 0.008359
v 0.144050 0.183054 0.008360
v 0.128550 0.152318 0.014619
v 0.137565 0.150769 0.014648
v 0.123388 0.188835 0.014631
v 0.147097 0.152559 0.014619
v 0.157572 0.163310 0.014619
v 0.135370 0.194160 0.014619
v 0.149918 0.190463 0.014619
v 0.158687 0.178279 0.014619
v 0.114635 0.170318 0.024094
v 0.115540 0.178677 0.030410
v 0.119040 0.185828 0.030410
v 0.121048 0.155804 0.024085
v 0.131609 0.150091 0.024094
v 0.124776 0.191349 0.030410
v 0.132054 0.194576 0.030410
v 0.138194 0.149316 0.030423
v 0.147295 0.151464 0.024094
v 0.152837 0.155103 0.030423
v 0.158428 0.162599 0.024094
v 0.159972 0.168618 0.030960
v 0.139996 0.195120 0.030410
v 0.147646 0.192914 0.030410
v 0.160496 0.174333 0.024094
v 0.158972 0.180785 0.030423
v 0.153841 0.188603 0.024094
v 0.115872 0.166705 0.031865
v 0.118938 0.171120 0.035560
v 0.124560 0.154076 0.031865
v 0.143175 0.150957 0.031835
v 0.156732 0.161073 0.031846
v 0.153266 0.187867 0.031835
v 0.124071 0.159429 0.035560
v 0.129564 0.166906 0.036978
v 0.128515 0.169031 0.036977
v 0.135518 0.153772 0.035560
v 0.134920 0.163031 0.036978
v 0.131900 0.164496 0.036978
v 0.138258 0.162686 0.036978
v 0.127953 0.173317 0.036978
v 0.128872 0.176545 0.036978
v 0.122522 0.183375 0.035560
v 0.128393 0.188213 0.035546
v 0.131482 0.179908 0.036978
v 0.128080 0.170653 0.036977
v 0.135210 0.181697 0.036978
v 0.138557 0.181938 0.036978
v 0.133052 0.190168 0.035550
v 0.145108 0.155537 0.035550
v 0.149971 0.159422 0.035921
v 0.141513 0.163505 0.036978
v 0.145875 0.167280 0.036978
v 0.153453 0.163152 0.035546
v 0.155274 0.167312 0.035550
v 0.142611 0.180635 0.036978
v 0.147284 0.172111 0.036978
v 0.146090 0.176999 0.036978
v 0.139427 0.190636 0.035550
v 0.147141 0.188171 0.035554
v 0.154805 0.178600 0.035546
v 0.155911 0.172325 0.035546
v 0.155632 0.175511 0.035546
v 0.156321 0.180562 0.034641
g motor
f 431 425 426
f 418 424 431
f 431 420 419
f 431 421 420
f 431 419 418
f 431 422 421
f 431 436 422
f 424 423 431
f 425 434 426
f 423 425 431
f 431 426 427
f 431 427 428
f 431 428 429
f 426 434 427
f 427 435 428
f 431 429 430
f 431 430 432
f 431 432 433
f 431 433 449
f 434 435 427
f 431 437 436
f 431 438 437
f 431 439 438
f 431 440 439
f 431 441 440
f 431 442 441
f 431 448 445
f 431 449 450
f 431 450 446
f 431 446 447
f 431 447 448
f 431 443 442
f 431 444 443
f 431 445 444
f 419 451 418
f 418 451 424
f 420 451 419
f 421 451 420
f 422 454 421
f 452 451 421
f 454 452 421
f 428 435 429
f 429 435 430
f 430 453 432
f 435 453 430
f 453 456 432
f 432 456 433
f 433 456 449
f 436 454 422
f 437 454 436
f 438 454 437
f 455 454 438
f 439 455 438
f 440 455 439
f 441 455 440
f 442 455 441
f 458 455 442
f 449 457 450
f 450 457 446
f 446 457 447
f 456 457 449
f 445 458 444
f 448 458 445
f 443 458 442
f 444 458 443
f 447 457 448
f 457 458 448
f 424 462 423
f 423 462 425
f 434 459 435
f 435 461 453
f 425 459 434
f 459 460 435
f 460 461 435
f 451 462 424
f 452 466 451
f 454 466 452
f 453 464 456
f 455 468 454
f 456 471 457
f 458 473 455
f 457 475 458
f 463 462 451
f 466 463 451
f 461 464 453
f 464 465 456
f 465 471 456
f 467 466 454
f 468 467 454
f 469 468 455
f 470 469 455
f 473 470 455
f 471 472 457
f 474 473 458
f 472 475 457
f 475 474 458
f 462 476 425
f 425 476 459
f 478 476 462
f 459 476 460
f 463 478 462
f 466 478 463
f 467 479 466
f 469 480 468
f 468 479 467
f 470 480 469
f 475 481 474
f 474 470 473
f 472 481 475
f 481 512 474
f 476 477 460
f 460 491 461
f 482 477 476
f 477 491 460
f 478 482 476
f 466 485 478
f 479 485 466
f 461 491 464
f 464 492 465
f 465 497 471
f 468 498 479
f 480 499 468
f 470 503 480
f 471 507 472
f 472 508 481
f 474 511 470
f 485 482 478
f 482 483 477
f 484 494 477
f 487 483 482
f 483 484 477
f 485 486 482
f 486 487 482
f 494 484 483
f 494 487 486
f 494 483 487
f 488 486 485
f 500 488 485
f 494 486 488
f 494 488 500
f 491 492 464
f 492 497 465
f 497 507 471
f 477 489 491
f 494 489 477
f 489 490 491
f 490 493 491
f 491 493 492
f 494 490 489
f 494 493 490
f 494 495 493
f 494 496 495
f 494 504 496
f 492 493 497
f 497 495 507
f 493 495 497
f 495 496 507
f 498 485 479
f 499 498 468
f 502 499 480
f 503 502 480
f 510 503 470
f 498 500 485
f 502 501 499
f 499 500 498
f 494 500 499
f 494 499 501
f 494 501 505
f 505 501 503
f 503 501 502
f 507 508 472
f 511 510 470
f 509 511 474
f 512 509 474
f 508 512 481
f 494 506 504
f 494 505 506
f 506 505 511
f 504 506 512
f 507 496 508
f 508 504 512
f 496 504 508
f 510 505 503
f 511 505 510
f 509 506 511
f 512 506 509
f 179 161 160
f 179 160 162
f 161 164 160
f 160 163 162
f 169 178 179
f 178 190 179
f 179 164 161
f 179 162 165
f 179 165 166
f 179 166 167
f 179 167 168
f 179 170 169
f 179 171 170
f 179 172 171
f 179 173 172
f 179 174 173
f 179 175 174
f 179 176 175
f 179 177 176
f 179 168 180
f 179 180 181
f 179 181 182
f 179 182 183
f 179 183 184
f 179 184 185
f 179 186 177
f 179 187 186
f 179 185 187
f 162 191 165
f 163 188 162
f 160 188 163
f 188 191 162
f 189 188 160
f 179 189 164
f 190 189 179
f 164 189 160
f 165 191 166
f 166 192 167
f 191 192 166
f 167 192 168
f 168 193 180
f 192 193 168
f 170 194 169
f 171 194 170
f 194 178 169
f 172 194 171
f 173 194 172
f 197 194 173
f 174 197 173
f 175 197 174
f 176 197 175
f 180 193 181
f 181 193 182
f 182 195 183
f 193 195 182
f 185 196 187
f 183 195 184
f 184 196 185
f 195 196 184
f 177 197 176
f 198 197 177
f 186 198 177
f 187 198 186
f 196 198 187
f 189 200 188
f 188 199 191
f 190 201 189
f 178 201 190
f 191 203 192
f 192 205 193
f 194 207 178
f 197 209 194
f 193 210 195
f 195 212 196
f 200 199 188
f 199 202 191
f 201 200 189
f 202 203 191
f 203 204 192
f 204 205 192
f 205 206 193
f 207 201 178
f 208 207 194
f 209 208 194
f 206 210 193
f 210 211 195
f 211 212 195
f 212 216 196
f 198 215 197
f 196 217 198
f 213 209 197
f 214 213 197
f 215 214 197
f 217 215 198
f 216 217 196
f 200 218 199
f 201 219 200
f 219 218 200
f 207 219 201
f 209 220 208
f 208 219 207
f 211 210 212
f 206 221 210
f 210 222 212
f 214 215 213
f 213 220 209
f 215 257 213
f 216 212 217
f 212 258 217
f 199 223 202
f 218 224 199
f 219 224 218
f 202 229 203
f 203 230 204
f 204 230 205
f 205 237 206
f 208 225 219
f 220 242 208
f 206 235 221
f 221 235 210
f 210 251 222
f 222 251 212
f 212 256 258
f 223 229 202
f 224 223 199
f 225 224 219
f 225 238 224
f 224 227 223
f 228 227 224
f 227 247 223
f 223 247 229
f 226 228 224
f 238 226 224
f 247 227 228
f 229 230 203
f 230 236 205
f 236 237 205
f 237 235 206
f 230 234 236
f 229 231 230
f 231 232 230
f 232 233 230
f 233 234 230
f 247 231 229
f 247 232 231
f 247 233 232
f 247 234 233
f 236 234 237
f 234 235 237
f 242 225 208
f 243 242 220
f 244 243 220
f 242 243 225
f 239 238 225
f 240 239 225
f 247 226 238
f 247 228 226
f 247 238 239
f 247 239 240
f 247 240 241
f 241 240 225
f 243 241 225
f 247 241 243
f 247 243 245
f 247 245 259
f 247 259 246
f 244 245 243
f 259 245 244
f 252 246 259
f 235 250 210
f 250 251 210
f 251 255 212
f 255 256 212
f 247 235 234
f 247 248 235
f 247 250 248
f 247 249 250
f 247 254 249
f 247 246 252
f 247 252 253
f 247 253 254
f 248 250 235
f 250 249 251
f 260 252 259
f 256 254 260
f 249 254 256
f 253 252 260
f 254 253 260
f 251 249 255
f 255 249 256
f 213 244 220
f 257 259 213
f 215 259 257
f 217 260 215
f 258 256 217
f 259 244 213
f 260 259 215
f 256 260 217
f 20 5 6
f 20 1 4
f 20 2 1
f 20 3 5
f 20 8 3
f 3 8 5
f 4 7 20
f 1 7 4
f 7 8 20
f 20 6 9
f 20 9 10
f 20 10 11
f 20 11 12
f 20 12 13
f 20 13 14
f 16 27 15
f 18 28 17
f 20 15 2
f 20 16 15
f 20 17 16
f 20 18 17
f 20 19 18
f 20 21 19
f 20 22 21
f 20 23 22
f 21 29 19
f 20 24 23
f 20 25 24
f 20 26 25
f 20 41 26
f 23 30 22
f 25 31 24
f 17 27 16
f 19 28 18
f 22 29 21
f 24 30 23
f 26 31 25
f 20 14 32
f 20 32 33
f 20 33 34
f 20 36 39
f 20 39 40
f 20 40 38
f 20 34 35
f 20 35 36
f 33 42 34
f 20 37 41
f 20 38 37
f 36 45 39
f 41 43 26
f 38 44 37
f 35 45 36
f 32 42 33
f 37 43 41
f 40 44 38
f 48 46 8
f 5 47 6
f 8 46 5
f 46 47 5
f 47 50 6
f 7 48 8
f 1 48 7
f 15 49 2
f 2 49 1
f 49 48 1
f 6 50 9
f 9 51 10
f 10 51 11
f 11 52 12
f 50 51 9
f 51 52 11
f 12 52 13
f 13 53 14
f 14 53 32
f 52 53 13
f 53 54 32
f 27 55 15
f 17 55 27
f 28 56 17
f 55 49 15
f 56 55 17
f 19 56 28
f 29 57 19
f 22 57 29
f 57 56 19
f 62 57 22
f 30 62 22
f 24 62 30
f 32 54 42
f 42 54 34
f 34 58 35
f 35 59 45
f 54 58 34
f 58 59 35
f 39 60 40
f 40 61 44
f 44 61 37
f 60 61 40
f 45 59 39
f 59 60 39
f 31 63 24
f 26 63 31
f 63 62 24
f 64 63 26
f 43 64 26
f 37 64 43
f 61 64 37
f 48 66 46
f 46 65 47
f 47 67 50
f 49 68 48
f 50 69 51
f 51 70 52
f 52 71 53
f 53 72 54
f 55 74 49
f 56 75 55
f 57 76 56
f 54 77 58
f 58 77 59
f 59 79 60
f 60 79 61
f 66 65 46
f 65 67 47
f 67 69 50
f 68 66 48
f 69 70 51
f 70 71 52
f 71 72 53
f 72 73 54
f 74 68 49
f 75 74 55
f 76 75 56
f 73 77 54
f 77 78 59
f 78 79 59
f 79 84 61
f 62 80 57
f 63 81 62
f 64 83 63
f 61 82 64
f 80 76 57
f 81 80 62
f 83 81 63
f 84 82 61
f 82 83 64
f 66 86 65
f 65 85 67
f 67 87 69
f 68 88 66
f 86 85 65
f 85 87 67
f 87 89 69
f 88 86 66
f 69 89 70
f 70 90 71
f 71 91 72
f 72 93 73
f 89 90 70
f 90 91 71
f 91 92 72
f 92 93 72
f 74 94 68
f 75 95 74
f 76 96 75
f 94 88 68
f 95 94 74
f 96 95 75
f 73 93 77
f 77 98 78
f 78 98 79
f 79 100 84
f 93 97 77
f 97 98 77
f 98 99 79
f 99 100 79
f 80 151 76
f 81 153 80
f 151 96 76
f 152 151 80
f 153 152 80
f 154 153 81
f 155 154 81
f 84 100 82
f 82 157 83
f 83 155 81
f 156 155 83
f 100 157 82
f 157 156 83
f 86 101 85
f 85 103 87
f 87 102 89
f 88 104 86
f 89 113 90
f 90 114 91
f 91 121 92
f 92 121 93
f 94 105 88
f 95 124 94
f 96 132 95
f 93 123 97
f 97 123 98
f 100 145 157
f 98 144 99
f 99 144 100
f 103 102 87
f 101 103 85
f 104 101 86
f 105 104 88
f 103 108 102
f 102 109 113
f 104 111 101
f 105 125 104
f 112 111 104
f 125 112 104
f 101 110 103
f 110 106 103
f 106 108 103
f 128 110 101
f 108 107 102
f 107 109 102
f 111 128 101
f 128 107 108
f 128 108 106
f 128 109 107
f 128 115 109
f 128 106 110
f 102 113 89
f 113 114 90
f 114 121 91
f 121 122 93
f 122 123 93
f 113 116 114
f 114 118 121
f 109 115 113
f 115 116 113
f 116 117 114
f 117 118 114
f 118 119 121
f 128 116 115
f 128 117 116
f 128 118 117
f 128 119 118
f 128 120 119
f 119 120 121
f 121 120 122
f 122 120 123
f 124 105 94
f 131 124 95
f 132 131 95
f 133 132 96
f 124 127 105
f 131 130 124
f 126 125 105
f 127 126 105
f 129 127 124
f 130 129 124
f 128 112 125
f 128 111 112
f 128 125 126
f 128 126 127
f 128 127 129
f 128 129 130
f 128 130 134
f 128 134 135
f 128 135 136
f 128 136 137
f 128 137 138
f 128 138 146
f 132 130 131
f 133 135 132
f 158 137 133
f 134 130 132
f 135 134 132
f 136 135 133
f 137 136 133
f 138 137 158
f 146 138 158
f 123 143 98
f 143 144 98
f 150 145 100
f 144 150 100
f 128 139 120
f 128 140 139
f 128 141 140
f 120 139 123
f 139 140 123
f 128 149 142
f 128 142 141
f 128 147 148
f 128 148 149
f 128 146 147
f 140 141 144
f 141 142 144
f 123 140 143
f 143 140 144
f 144 142 150
f 150 142 145
f 145 148 159
f 159 146 158
f 149 148 145
f 148 147 159
f 142 149 145
f 147 146 159
f 151 133 96
f 152 133 151
f 153 158 152
f 154 158 153
f 155 159 154
f 156 159 155
f 157 145 156
f 158 133 152
f 159 158 154
f 145 159 156
f 291 262 282
f 273 267 263
f 273 263 264
f 273 264 281
f 273 275 267
f 263 277 264
f 267 274 263
f 264 278 281
f 265 276 273
f 269 279 268
f 271 280 270
f 273 266 265
f 273 268 266
f 273 270 269
f 273 269 268
f 273 271 270
f 273 272 271
f 273 292 272
f 276 275 273
f 275 274 267
f 274 277 263
f 277 278 264
f 266 276 265
f 270 279 269
f 272 280 271
f 273 281 282
f 273 282 283
f 281 291 282
f 273 283 284
f 273 284 285
f 273 285 286
f 273 286 287
f 273 287 288
f 273 288 289
f 273 289 290
f 273 290 304
f 278 291 281
f 292 300 272
f 294 301 293
f 273 293 292
f 273 294 293
f 273 295 294
f 273 296 295
f 273 297 296
f 273 298 297
f 273 299 298
f 273 306 299
f 296 302 295
f 298 303 297
f 293 300 292
f 295 301 294
f 297 302 296
f 299 303 298
f 273 305 309
f 273 308 307
f 273 309 310
f 273 310 308
f 273 304 305
f 273 307 306
f 310 311 308
f 306 312 299
f 309 311 310
f 307 312 306
f 266 313 276
f 268 313 266
f 276 261 275
f 314 313 268
f 275 261 274
f 270 314 279
f 279 314 268
f 280 318 270
f 272 318 280
f 318 314 270
f 282 262 283
f 283 262 284
f 284 315 285
f 262 315 284
f 285 316 286
f 286 316 287
f 315 316 285
f 316 317 287
f 287 317 288
f 288 317 289
f 289 323 290
f 317 323 289
f 300 319 272
f 293 319 300
f 301 320 293
f 319 318 272
f 320 319 293
f 295 320 301
f 321 320 295
f 302 321 295
f 297 321 302
f 303 322 297
f 299 322 303
f 322 321 297
f 325 322 299
f 309 327 311
f 290 323 304
f 304 324 305
f 305 324 309
f 323 324 304
f 324 327 309
f 307 325 312
f 311 327 308
f 308 326 307
f 312 325 299
f 327 326 308
f 326 325 307
f 276 328 261
f 274 330 277
f 261 328 274
f 277 329 278
f 278 329 291
f 291 331 262
f 262 332 315
f 328 330 274
f 330 329 277
f 329 331 291
f 331 332 262
f 313 333 276
f 314 334 313
f 318 335 314
f 315 332 316
f 316 336 317
f 317 337 323
f 319 338 318
f 320 339 319
f 321 340 320
f 322 341 321
f 323 342 324
f 324 345 327
f 327 346 326
f 325 344 322
f 326 346 325
f 333 328 276
f 334 333 313
f 335 334 314
f 332 336 316
f 336 337 317
f 337 342 323
f 338 335 318
f 339 338 319
f 340 339 320
f 341 340 321
f 344 341 322
f 342 343 324
f 343 345 324
f 346 344 325
f 345 346 327
f 329 348 331
f 328 347 330
f 330 347 329
f 353 347 328
f 347 348 329
f 331 349 332
f 348 349 331
f 349 356 332
f 333 353 328
f 334 354 333
f 335 355 334
f 354 353 333
f 355 354 334
f 360 355 335
f 332 356 336
f 336 357 337
f 337 358 342
f 356 357 336
f 357 358 337
f 358 359 342
f 359 365 342
f 338 360 335
f 339 361 338
f 340 362 339
f 341 363 340
f 361 360 338
f 362 361 339
f 363 362 340
f 364 363 341
f 366 364 341
f 342 365 343
f 343 365 345
f 344 366 341
f 346 367 344
f 345 368 346
f 365 368 345
f 367 366 344
f 368 367 346
f 347 350 348
f 348 351 349
f 349 352 356
f 350 351 348
f 351 352 349
f 352 382 356
f 353 369 347
f 354 370 353
f 355 376 354
f 360 394 355
f 356 382 357
f 357 387 358
f 358 393 359
f 359 393 365
f 361 395 360
f 362 396 361
f 363 404 362
f 364 417 363
f 365 413 368
f 366 417 364
f 367 416 366
f 368 414 367
f 370 369 353
f 369 350 347
f 376 370 354
f 394 376 355
f 370 377 369
f 369 371 350
f 350 373 351
f 351 375 352
f 373 374 351
f 374 375 351
f 372 373 350
f 371 372 350
f 381 371 369
f 377 381 369
f 376 379 370
f 394 397 376
f 378 377 370
f 379 378 370
f 380 379 376
f 397 380 376
f 381 377 378
f 381 374 373
f 381 372 371
f 381 373 372
f 381 375 374
f 381 383 375
f 381 378 379
f 381 379 380
f 381 380 397
f 381 397 398
f 382 387 357
f 387 392 358
f 392 393 358
f 393 412 365
f 352 384 382
f 382 386 387
f 375 383 352
f 383 384 352
f 384 385 382
f 385 386 382
f 386 388 387
f 381 384 383
f 381 385 384
f 381 386 385
f 381 388 386
f 381 389 388
f 388 389 387
f 389 390 393
f 381 390 389
f 381 391 390
f 381 409 408
f 381 408 391
f 390 391 393
f 387 389 392
f 392 389 393
f 393 391 412
f 395 394 360
f 396 395 361
f 403 396 362
f 404 403 362
f 405 404 363
f 417 405 363
f 395 397 394
f 396 399 395
f 398 397 395
f 403 401 396
f 399 398 395
f 381 398 399
f 381 399 400
f 381 400 401
f 381 401 402
f 381 402 410
f 400 399 396
f 401 400 396
f 402 401 404
f 410 402 417
f 404 401 403
f 405 402 404
f 417 402 405
f 412 413 365
f 413 414 368
f 414 416 367
f 415 417 366
f 416 415 366
f 414 406 416
f 381 407 406
f 381 411 407
f 381 406 409
f 381 410 411
f 391 408 413
f 409 406 414
f 408 409 414
f 411 410 417
f 407 411 416
f 406 407 416
f 412 391 413
f 413 408 414
f 415 411 417
f 416 411 415
