v 0.121517 -0.156359 -0.067021
v 0.122107 -0.157097 -0.067601
v 0.121275 -0.155451 -0.066492
v 0.121728 -0.154568 -0.066243
v 0.122771 -0.157764 -0.068175
v 0.122522 -0.153903 -0.066228
v 0.123733 -0.157859 -0.068589
v 0.123974 -0.155300 -0.067454
v 0.123333 -0.153255 -0.066228
v 0.124215 -0.152740 -0.066318
v 0.124615 -0.157344 -0.068680
v 0.125177 -0.152835 -0.066732
v 0.122745 -0.157909 -0.057051
v 0.123030 -0.158976 -0.057672
v 0.123278 -0.156872 -0.056758
v 0.123722 -0.159843 -0.058353
v 0.124210 -0.156091 -0.056740
v 0.124502 -0.160627 -0.059028
v 0.125163 -0.155331 -0.056740
v 0.125426 -0.156696 -0.068680
v 0.126220 -0.156031 -0.068664
v 0.125841 -0.153502 -0.067306
v 0.126431 -0.154240 -0.067886
v 0.126673 -0.155148 -0.068415
v 0.125633 -0.160738 -0.059514
v 0.126198 -0.154725 -0.056846
v 0.126669 -0.160133 -0.059620
v 0.127329 -0.154837 -0.057332
v 0.127621 -0.159372 -0.059620
v 0.128109 -0.155620 -0.058007
v 0.128553 -0.158591 -0.059602
v 0.128801 -0.156488 -0.058688
v 0.129086 -0.157554 -0.059309
v 0.124215 -0.160368 -0.047609
v 0.124543 -0.161593 -0.048322
v 0.124828 -0.159177 -0.047273
v 0.125338 -0.162589 -0.049105
v 0.126234 -0.163489 -0.049880
v 0.125898 -0.158280 -0.047252
v 0.126992 -0.157406 -0.047252
v 0.127532 -0.163617 -0.050439
v 0.128182 -0.156711 -0.047374
v 0.128722 -0.162922 -0.050561
v 0.126055 -0.164210 -0.038973
v 0.126954 -0.165335 -0.039857
v 0.125686 -0.162826 -0.038168
v 0.126377 -0.161481 -0.037788
v 0.127966 -0.166352 -0.040732
v 0.127586 -0.160468 -0.037764
v 0.128822 -0.159481 -0.037764
v 0.129817 -0.162048 -0.050561
v 0.129480 -0.156839 -0.047933
v 0.130377 -0.157739 -0.048708
v 0.130887 -0.161151 -0.050540
v 0.131172 -0.158735 -0.049490
v 0.131499 -0.159960 -0.050203
v 0.129432 -0.166497 -0.041363
v 0.130776 -0.165711 -0.041501
v 0.130166 -0.158696 -0.037902
v 0.132012 -0.164725 -0.041501
v 0.133221 -0.163711 -0.041478
v 0.132644 -0.159857 -0.039408
v 0.131632 -0.158840 -0.038533
v 0.133912 -0.162366 -0.041097
v 0.133543 -0.160982 -0.040292
v 0.127156 -0.165285 -0.028726
v 0.128569 -0.168082 -0.030609
v 0.127568 -0.166827 -0.029624
v 0.127927 -0.163786 -0.028303
v 0.129274 -0.162656 -0.028277
v 0.129081 -0.169444 -0.020275
v 0.128626 -0.167744 -0.019285
v 0.129697 -0.169215 -0.031585
v 0.131332 -0.169376 -0.032288
v 0.130652 -0.161557 -0.028277
v 0.132829 -0.168500 -0.032441
v 0.132149 -0.160681 -0.028430
v 0.130185 -0.170828 -0.021361
v 0.131429 -0.172077 -0.022437
v 0.129476 -0.166091 -0.018817
v 0.130962 -0.164845 -0.018789
v 0.133231 -0.172255 -0.023212
v 0.132481 -0.163632 -0.018789
v 0.134207 -0.167401 -0.032441
v 0.134912 -0.161975 -0.030109
v 0.133784 -0.160842 -0.029133
v 0.135554 -0.166271 -0.032416
v 0.135913 -0.163230 -0.031094
v 0.136325 -0.164772 -0.031992
v 0.134883 -0.171289 -0.023382
v 0.134133 -0.162667 -0.018958
v 0.136393 -0.177473 -0.022886
v 0.136402 -0.170077 -0.023382
v 0.136847 -0.179173 -0.021896
v 0.137243 -0.175820 -0.023353
v 0.135936 -0.162844 -0.019734
v 0.137180 -0.164094 -0.020810
v 0.130097 -0.170202 -0.009844
v 0.130593 -0.172062 -0.010926
v 0.131026 -0.168395 -0.009332
v 0.133160 -0.174940 -0.013289
v 0.131800 -0.173574 -0.012113
v 0.133277 -0.175572 -0.008517
v 0.132650 -0.167033 -0.009301
v 0.132808 -0.175286 -0.006348
v 0.133143 -0.175856 -0.004429
v 0.132050 -0.174468 -0.003622
v 0.132106 -0.174679 -0.003500
v 0.132179 -0.174647 -0.003487
v 0.131567 -0.172661 -0.000402
v 0.132106 -0.174679 -0.001576
v 0.133391 -0.176186 -0.003877
v 0.133083 -0.175903 -0.002538
v 0.133416 -0.176320 -0.002865
v 0.133435 -0.176302 -0.002864
v 0.133416 -0.176320 -0.002211
v 0.132575 -0.170700 0.000153
v 0.133933 -0.175021 -0.013605
v 0.133961 -0.175010 -0.013668
v 0.133980 -0.175067 -0.013780
v 0.133943 -0.175017 -0.013626
v 0.134021 -0.174986 -0.013803
v 0.134824 -0.174668 -0.015605
v 0.135082 -0.174371 -0.015972
v 0.135237 -0.174192 -0.016193
v 0.135492 -0.173899 -0.016554
v 0.134477 -0.176926 -0.012698
v 0.133706 -0.175797 -0.010573
v 0.133697 -0.175827 -0.010454
v 0.134311 -0.165707 -0.009301
v 0.136365 -0.173303 -0.016843
v 0.136733 -0.173000 -0.016861
v 0.136787 -0.172956 -0.016864
v 0.137154 -0.172654 -0.016882
v 0.135684 -0.178438 -0.011510
v 0.137044 -0.179804 -0.010334
v 0.136117 -0.164652 -0.009486
v 0.134814 -0.177674 -0.004552
v 0.134892 -0.177802 -0.004142
v 0.134896 -0.177759 -0.004306
v 0.134907 -0.177772 -0.004133
v 0.134943 -0.177808 -0.004164
v 0.133671 -0.176558 -0.003256
v 0.133885 -0.176770 -0.003261
v 0.133616 -0.176507 -0.003032
v 0.134100 -0.176977 -0.003742
v 0.134338 -0.169221 0.000187
v 0.134892 -0.177802 -0.000935
v 0.137565 -0.172325 -0.002538
v 0.137031 -0.178013 -0.000014
v 0.136141 -0.167783 0.000187
v 0.121304 0.155927 -0.066732
v 0.121425 0.154967 -0.066318
v 0.122123 0.154221 -0.066228
v 0.121807 0.156722 -0.067306
v 0.122934 0.153574 -0.066228
v 0.122397 0.157461 -0.067886
v 0.123229 0.157898 -0.068415
v 0.123974 0.155300 -0.067454
v 0.123758 0.152948 -0.066243
v 0.124190 0.157651 -0.068664
v 0.124719 0.152701 -0.066492
v 0.125014 0.157025 -0.068680
v 0.122779 0.158468 -0.057332
v 0.122921 0.157341 -0.056846
v 0.123371 0.159403 -0.058007
v 0.124063 0.160270 -0.058688
v 0.123741 0.156465 -0.056740
v 0.124694 0.155705 -0.056740
v 0.125040 0.160784 -0.059309
v 0.125551 0.153138 -0.067021
v 0.126141 0.153877 -0.067601
v 0.125825 0.156378 -0.068680
v 0.126523 0.155632 -0.068589
v 0.126644 0.154672 -0.068175
v 0.125662 0.154969 -0.056758
v 0.126169 0.160494 -0.059602
v 0.126791 0.154679 -0.057051
v 0.127138 0.159759 -0.059620
v 0.127768 0.155193 -0.057672
v 0.128090 0.158998 -0.059620
v 0.128910 0.158122 -0.059514
v 0.128461 0.156061 -0.058353
v 0.129052 0.156995 -0.059028
v 0.124255 0.161010 -0.047933
v 0.124418 0.159716 -0.047374
v 0.124934 0.162083 -0.048708
v 0.125729 0.163080 -0.049490
v 0.125359 0.158709 -0.047252
v 0.126852 0.163670 -0.050203
v 0.126454 0.157836 -0.047252
v 0.128149 0.163337 -0.050540
v 0.127566 0.156991 -0.047273
v 0.129261 0.162492 -0.050561
v 0.128863 0.156658 -0.047609
v 0.126497 0.164764 -0.039408
v 0.125730 0.163552 -0.038533
v 0.125914 0.162090 -0.037902
v 0.126978 0.160953 -0.037764
v 0.127396 0.165889 -0.040292
v 0.128663 0.166556 -0.041097
v 0.128214 0.159967 -0.037764
v 0.130355 0.161619 -0.050561
v 0.129985 0.157248 -0.048322
v 0.131297 0.160612 -0.050439
v 0.130780 0.158245 -0.049105
v 0.131460 0.159318 -0.049880
v 0.130128 0.166180 -0.041478
v 0.131384 0.165226 -0.041501
v 0.129470 0.159013 -0.037788
v 0.130935 0.158636 -0.038168
v 0.132202 0.159303 -0.038973
v 0.132620 0.164239 -0.041501
v 0.133100 0.160429 -0.039857
v 0.133868 0.161641 -0.040732
v 0.133684 0.163103 -0.041363
v 0.127206 0.166094 -0.029133
v 0.128061 0.167445 -0.030109
v 0.127411 0.164464 -0.028430
v 0.128596 0.163197 -0.028277
v 0.129062 0.168699 -0.031094
v 0.128907 0.166838 -0.018958
v 0.128681 0.168635 -0.019734
v 0.129974 0.162098 -0.028277
v 0.131374 0.161034 -0.028303
v 0.130475 0.169442 -0.031992
v 0.133006 0.160615 -0.028726
v 0.132107 0.169023 -0.032416
v 0.130215 0.165441 -0.018789
v 0.130728 0.171508 -0.021896
v 0.129624 0.170125 -0.020810
v 0.131734 0.164229 -0.018789
v 0.133278 0.163056 -0.018817
v 0.132286 0.172328 -0.022886
v 0.134885 0.166860 -0.032441
v 0.135420 0.162612 -0.030609
v 0.134419 0.161358 -0.029624
v 0.133507 0.167959 -0.032441
v 0.136070 0.165593 -0.032288
v 0.136275 0.163963 -0.031585
v 0.135078 0.162593 -0.019285
v 0.134087 0.171866 -0.023353
v 0.136636 0.163413 -0.020275
v 0.135631 0.170693 -0.023382
v 0.136448 0.178364 -0.022437
v 0.136674 0.176567 -0.023212
v 0.137150 0.169480 -0.023382
v 0.137391 0.179854 -0.021361
v 0.130157 0.171177 -0.010334
v 0.130404 0.169213 -0.009486
v 0.131187 0.172806 -0.011510
v 0.131833 0.167686 -0.009301
v 0.132395 0.174318 -0.012698
v 0.133293 0.175322 -0.010454
v 0.133325 0.175320 -0.010573
v 0.133450 0.175787 -0.008517
v 0.131632 0.173719 -0.004142
v 0.131638 0.173668 -0.004164
v 0.131676 0.173725 -0.004306
v 0.131665 0.173711 -0.004133
v 0.131740 0.173823 -0.004551
v 0.133143 0.175856 -0.004429
v 0.132262 0.174675 -0.003741
v 0.132415 0.174929 -0.003261
v 0.131632 0.173719 -0.000935
v 0.131900 0.171587 -0.000014
v 0.132575 0.175185 -0.003256
v 0.132876 0.175540 -0.003877
v 0.132613 0.175250 -0.003032
v 0.132751 0.175487 -0.002865
v 0.132773 0.175472 -0.002864
v 0.132751 0.175487 -0.002211
v 0.133083 0.175903 -0.002538
v 0.133451 0.169930 0.000187
v 0.133494 0.166360 -0.009301
v 0.135182 0.165077 -0.009332
v 0.134186 0.175192 -0.013803
v 0.134098 0.175214 -0.013780
v 0.134040 0.176042 -0.013289
v 0.134149 0.175245 -0.013668
v 0.134138 0.175262 -0.013626
v 0.134132 0.175270 -0.013605
v 0.134673 0.174480 -0.015605
v 0.135020 0.174294 -0.015972
v 0.135229 0.174182 -0.016193
v 0.135071 0.177670 -0.012113
v 0.137150 0.164572 -0.009844
v 0.135572 0.173999 -0.016554
v 0.136346 0.173279 -0.016843
v 0.136723 0.172988 -0.016861
v 0.136778 0.172945 -0.016864
v 0.137154 0.172654 -0.016882
v 0.136278 0.179183 -0.010926
v 0.133624 0.176309 -0.006348
v 0.134254 0.177229 -0.003622
v 0.134061 0.177128 -0.003500
v 0.134108 0.177064 -0.003487
v 0.134061 0.177128 -0.001576
v 0.135254 0.168491 0.000187
v 0.137086 0.167099 0.000153
v 0.135909 0.178100 -0.000402
v 0.137565 0.172325 -0.002538
v 0.141219 -0.182284 -0.041097
v 0.141588 -0.183668 -0.040292
v 0.143632 -0.184690 -0.050203
v 0.143959 -0.185915 -0.049490
v 0.144244 -0.183499 -0.050540
v 0.145314 -0.182602 -0.050561
v 0.144754 -0.186912 -0.048708
v 0.145650 -0.187812 -0.047933
v 0.141910 -0.180939 -0.041478
v 0.142487 -0.184793 -0.039408
v 0.143119 -0.179926 -0.041501
v 0.143499 -0.185810 -0.038533
v 0.144355 -0.178939 -0.041501
v 0.145699 -0.178154 -0.041363
v 0.144965 -0.185955 -0.037902
v 0.148458 -0.189502 -0.068415
v 0.148700 -0.190410 -0.067886
v 0.148911 -0.188619 -0.068664
v 0.149705 -0.187954 -0.068680
v 0.149290 -0.191149 -0.067306
v 0.146045 -0.187096 -0.059309
v 0.146578 -0.186059 -0.059602
v 0.146330 -0.188163 -0.058688
v 0.147022 -0.189030 -0.058007
v 0.147510 -0.185278 -0.059620
v 0.148462 -0.184518 -0.059620
v 0.147802 -0.189814 -0.057332
v 0.149498 -0.183912 -0.059514
v 0.148933 -0.189925 -0.056846
v 0.149954 -0.191816 -0.066732
v 0.150516 -0.187307 -0.068680
v 0.151157 -0.189351 -0.067454
v 0.151398 -0.186791 -0.068589
v 0.150916 -0.191911 -0.066318
v 0.151798 -0.191395 -0.066228
v 0.152360 -0.186886 -0.068175
v 0.152609 -0.190748 -0.066228
v 0.153024 -0.187553 -0.067601
v 0.153614 -0.188292 -0.067021
v 0.153402 -0.190083 -0.066243
v 0.153856 -0.189200 -0.066492
v 0.150628 -0.184024 -0.059028
v 0.149968 -0.189320 -0.056740
v 0.151409 -0.184807 -0.058353
v 0.150921 -0.188559 -0.056740
v 0.151853 -0.187778 -0.056758
v 0.152101 -0.185675 -0.057672
v 0.152386 -0.186741 -0.057051
v 0.146409 -0.181729 -0.050561
v 0.147598 -0.181033 -0.050439
v 0.146949 -0.187940 -0.047374
v 0.148139 -0.187244 -0.047252
v 0.148897 -0.181161 -0.049880
v 0.149233 -0.186371 -0.047252
v 0.147165 -0.178298 -0.040732
v 0.146309 -0.185169 -0.037764
v 0.147545 -0.184183 -0.037764
v 0.148177 -0.179315 -0.039857
v 0.149076 -0.180440 -0.038973
v 0.148754 -0.183169 -0.037788
v 0.149445 -0.181824 -0.038168
v 0.149793 -0.182061 -0.049105
v 0.150588 -0.183058 -0.048322
v 0.150303 -0.185474 -0.047273
v 0.150916 -0.184283 -0.047609
v 0.139218 -0.181421 -0.031094
v 0.139577 -0.178380 -0.032416
v 0.138806 -0.179879 -0.031992
v 0.140219 -0.182675 -0.030109
v 0.140924 -0.177250 -0.032441
v 0.141347 -0.183808 -0.029133
v 0.137888 -0.168831 -0.023353
v 0.138729 -0.174574 -0.023382
v 0.137951 -0.180557 -0.020810
v 0.139195 -0.181806 -0.019734
v 0.138284 -0.165477 -0.021896
v 0.138738 -0.167178 -0.022886
v 0.140248 -0.173361 -0.023382
v 0.140998 -0.181984 -0.018958
v 0.142301 -0.176150 -0.032441
v 0.142982 -0.183969 -0.028430
v 0.143799 -0.175275 -0.032288
v 0.145434 -0.175436 -0.031585
v 0.144479 -0.183094 -0.028277
v 0.141900 -0.172396 -0.023212
v 0.142650 -0.181018 -0.018789
v 0.143702 -0.172573 -0.022437
v 0.144946 -0.173823 -0.021361
v 0.144169 -0.179806 -0.018789
v 0.145655 -0.178560 -0.018817
v 0.137977 -0.171997 -0.016882
v 0.138344 -0.171695 -0.016864
v 0.138398 -0.171650 -0.016861
v 0.138766 -0.171348 -0.016843
v 0.139014 -0.179999 -0.009486
v 0.138087 -0.164846 -0.010334
v 0.139447 -0.166212 -0.011510
v 0.139639 -0.170752 -0.016554
v 0.139894 -0.170459 -0.016193
v 0.140049 -0.170279 -0.015972
v 0.140307 -0.169982 -0.015605
v 0.141109 -0.169665 -0.013803
v 0.141151 -0.169584 -0.013780
v 0.141170 -0.169641 -0.013668
v 0.141188 -0.169634 -0.013626
v 0.141197 -0.169630 -0.013605
v 0.140820 -0.178943 -0.009301
v 0.141425 -0.168854 -0.010573
v 0.141434 -0.168823 -0.010454
v 0.140654 -0.167724 -0.012698
v 0.138990 -0.176868 0.000187
v 0.138100 -0.166637 -0.000014
v 0.141460 -0.168093 -0.003256
v 0.141515 -0.168144 -0.003032
v 0.140792 -0.175429 0.000187
v 0.140235 -0.166892 -0.004306
v 0.140188 -0.166843 -0.004164
v 0.140224 -0.166879 -0.004133
v 0.140317 -0.166976 -0.004551
v 0.140239 -0.166848 -0.004142
v 0.140239 -0.166848 -0.000935
v 0.141031 -0.167674 -0.003742
v 0.141246 -0.167880 -0.003261
v 0.141971 -0.169711 -0.013289
v 0.141853 -0.169079 -0.008517
v 0.142481 -0.177617 -0.009301
v 0.143330 -0.171077 -0.012113
v 0.144538 -0.172589 -0.010926
v 0.144105 -0.176255 -0.009332
v 0.145034 -0.174448 -0.009844
v 0.142323 -0.169365 -0.006348
v 0.141988 -0.168795 -0.004429
v 0.141740 -0.168465 -0.003877
v 0.141696 -0.168349 -0.002864
v 0.141715 -0.168331 -0.002865
v 0.141715 -0.168331 -0.002211
v 0.142047 -0.168747 -0.002538
v 0.142556 -0.173951 0.000153
v 0.143081 -0.170182 -0.003622
v 0.142952 -0.170003 -0.003487
v 0.143025 -0.169972 -0.003500
v 0.143025 -0.169972 -0.001576
v 0.143564 -0.171990 -0.000402
v 0.146562 -0.176569 -0.030609
v 0.145857 -0.181994 -0.028277
v 0.147204 -0.180865 -0.028303
v 0.147563 -0.177823 -0.029624
v 0.147975 -0.179365 -0.028726
v 0.146050 -0.175206 -0.020275
v 0.146505 -0.176907 -0.019285
v 0.141263 0.183010 -0.040732
v 0.141447 0.181548 -0.041363
v 0.143671 0.185333 -0.049880
v 0.143834 0.184038 -0.050439
v 0.144350 0.186406 -0.049105
v 0.144776 0.183032 -0.050561
v 0.145146 0.187402 -0.048322
v 0.142511 0.180411 -0.041501
v 0.142031 0.184222 -0.039857
v 0.142929 0.185347 -0.038973
v 0.143747 0.179425 -0.041501
v 0.145003 0.178471 -0.041478
v 0.144196 0.186014 -0.038168
v 0.145661 0.185638 -0.037788
v 0.148487 0.189978 -0.068175
v 0.148608 0.189019 -0.068589
v 0.148990 0.190774 -0.067601
v 0.149306 0.188273 -0.068680
v 0.149580 0.191512 -0.067021
v 0.146079 0.187655 -0.059028
v 0.146221 0.186528 -0.059514
v 0.146670 0.188590 -0.058353
v 0.147041 0.185652 -0.059620
v 0.147363 0.189457 -0.057672
v 0.147993 0.184892 -0.059620
v 0.148340 0.189971 -0.057051
v 0.148962 0.184156 -0.059602
v 0.149469 0.189681 -0.056758
v 0.150117 0.187625 -0.068680
v 0.150412 0.191950 -0.066492
v 0.150941 0.186999 -0.068664
v 0.151157 0.189351 -0.067454
v 0.151373 0.191703 -0.066243
v 0.151902 0.186752 -0.068415
v 0.152734 0.187190 -0.067886
v 0.152197 0.191077 -0.066228
v 0.153324 0.187928 -0.067306
v 0.153827 0.188724 -0.066732
v 0.153008 0.190429 -0.066228
v 0.153706 0.189683 -0.066318
v 0.150091 0.183866 -0.059309
v 0.150437 0.188946 -0.056740
v 0.151068 0.184380 -0.058688
v 0.151760 0.185248 -0.058007
v 0.151390 0.188185 -0.056740
v 0.152210 0.187309 -0.056846
v 0.152352 0.186182 -0.057332
v 0.145870 0.182158 -0.050561
v 0.146268 0.187993 -0.047609
v 0.146982 0.181313 -0.050540
v 0.147565 0.187660 -0.047273
v 0.148279 0.180980 -0.050203
v 0.148677 0.186815 -0.047252
v 0.149401 0.181571 -0.049490
v 0.149771 0.185941 -0.047252
v 0.146468 0.178094 -0.041097
v 0.147735 0.178761 -0.040292
v 0.146917 0.184684 -0.037764
v 0.148633 0.179887 -0.039408
v 0.148153 0.183697 -0.037764
v 0.149217 0.182561 -0.037902
v 0.149401 0.181099 -0.038533
v 0.150197 0.182567 -0.048708
v 0.150713 0.184935 -0.047374
v 0.150876 0.183640 -0.047933
v 0.139061 0.179058 -0.032288
v 0.138856 0.180687 -0.031585
v 0.140246 0.177791 -0.032441
v 0.139711 0.182038 -0.030609
v 0.141624 0.176691 -0.032441
v 0.140712 0.183292 -0.029624
v 0.137740 0.164796 -0.021361
v 0.138683 0.166286 -0.022437
v 0.137981 0.175170 -0.023382
v 0.138457 0.168083 -0.023212
v 0.139500 0.173958 -0.023382
v 0.138495 0.181237 -0.020275
v 0.141044 0.172785 -0.023353
v 0.140053 0.182057 -0.019285
v 0.143024 0.175628 -0.032416
v 0.142124 0.184036 -0.028726
v 0.144656 0.175208 -0.031992
v 0.143757 0.183616 -0.028303
v 0.145157 0.182553 -0.028277
v 0.142845 0.172322 -0.022886
v 0.141853 0.181595 -0.018817
v 0.143397 0.180422 -0.018789
v 0.144403 0.173142 -0.021896
v 0.145507 0.174525 -0.020810
v 0.144916 0.179209 -0.018789
v 0.138853 0.165468 -0.010926
v 0.137977 0.171997 -0.016882
v 0.138353 0.171706 -0.016864
v 0.138408 0.171663 -0.016861
v 0.138784 0.171372 -0.016843
v 0.139559 0.170652 -0.016554
v 0.137981 0.180079 -0.009844
v 0.140060 0.166980 -0.012113
v 0.139901 0.170469 -0.016193
v 0.140111 0.170356 -0.015972
v 0.140458 0.170171 -0.015605
v 0.140945 0.169459 -0.013803
v 0.140982 0.169405 -0.013668
v 0.140999 0.169381 -0.013605
v 0.140993 0.169389 -0.013626
v 0.141033 0.169436 -0.013780
v 0.141091 0.168609 -0.013289
v 0.139949 0.179573 -0.009332
v 0.141637 0.178291 -0.009301
v 0.139222 0.166550 -0.000402
v 0.138045 0.177552 0.000153
v 0.140877 0.167421 -0.003622
v 0.141023 0.167587 -0.003487
v 0.141070 0.167523 -0.003500
v 0.141070 0.167523 -0.001576
v 0.141506 0.168342 -0.006348
v 0.139877 0.176160 0.000187
v 0.141806 0.169331 -0.010573
v 0.141837 0.169329 -0.010454
v 0.141681 0.168863 -0.008517
v 0.142736 0.170332 -0.012698
v 0.143298 0.176965 -0.009301
v 0.143943 0.171845 -0.011510
v 0.144974 0.173473 -0.010334
v 0.144727 0.175438 -0.009486
v 0.141988 0.168795 -0.004429
v 0.143391 0.170828 -0.004551
v 0.143455 0.170926 -0.004306
v 0.143466 0.170939 -0.004133
v 0.143499 0.170932 -0.004142
v 0.143492 0.170983 -0.004164
v 0.142047 0.168747 -0.002538
v 0.142255 0.169110 -0.003877
v 0.142556 0.169465 -0.003256
v 0.142358 0.169178 -0.002864
v 0.142380 0.169164 -0.002865
v 0.142380 0.169164 -0.002211
v 0.142518 0.169401 -0.003032
v 0.141679 0.174721 0.000187
v 0.142869 0.169976 -0.003742
v 0.142716 0.169721 -0.003261
v 0.143499 0.170932 -0.000935
v 0.143231 0.173064 -0.000014
v 0.146069 0.175952 -0.031094
v 0.147070 0.177206 -0.030109
v 0.146535 0.181453 -0.028277
v 0.147720 0.180186 -0.028430
v 0.147925 0.178557 -0.029133
v 0.146450 0.176015 -0.019734
v 0.146224 0.177812 -0.018958
g gear
f 245 518 246
f 246 284 283
f 246 283 277
f 245 248 519
f 245 246 279
f 526 288 285
f 526 285 284
f 245 286 248
f 246 526 284
f 526 290 289
f 526 289 288
f 526 291 290
f 293 529 248
f 257 258 260
f 257 261 259
f 257 259 258
f 257 263 261
f 257 260 264
f 257 267 263
f 257 264 269
f 257 270 267
f 257 269 270
f 270 262 268
f 270 268 267
f 270 269 271
f 270 271 273
f 270 273 262
f 279 281 282
f 246 280 281
f 246 277 280
f 246 281 279
f 245 279 286
f 279 282 255
f 279 255 254
f 279 254 256
f 279 256 286
f 286 256 294
f 286 293 248
f 286 294 295
f 298 286 295
f 298 293 286
f 298 301 293
f 298 297 273
f 298 295 297
f 298 273 302
f 293 301 549
f 298 302 301
f 301 563 549
f 301 302 563
f 473 475 456
f 472 473 455
f 473 456 455
f 472 457 474
f 472 455 457
f 475 458 456
f 474 457 459
f 460 520 518
f 453 454 519
f 454 518 519
f 453 519 521
f 454 460 518
f 453 521 461
f 454 456 458
f 453 456 454
f 453 461 455
f 453 455 456
f 461 457 455
f 454 458 460
f 460 458 500
f 463 500 502
f 457 462 459
f 460 500 463
f 463 502 464
f 459 465 501
f 461 462 457
f 460 463 520
f 520 463 522
f 461 523 462
f 522 463 464
f 522 464 532
f 533 465 462
f 459 462 465
f 465 466 501
f 465 535 466
f 464 508 532
f 508 534 532
f 472 467 468
f 472 468 473
f 473 470 475
f 472 474 467
f 474 476 469
f 473 468 470
f 474 469 467
f 467 484 468
f 468 484 470
f 467 469 484
f 475 470 481
f 477 481 483
f 476 471 469
f 475 481 477
f 476 478 471
f 477 483 479
f 471 478 482
f 482 478 480
f 475 477 458
f 477 479 500
f 474 459 476
f 477 500 458
f 476 501 478
f 500 479 502
f 502 479 493
f 503 480 478
f 502 493 504
f 504 495 506
f 480 505 494
f 470 484 481
f 469 471 484
f 481 484 483
f 471 482 484
f 483 486 479
f 482 485 484
f 483 484 486
f 484 485 488
f 493 486 487
f 479 486 493
f 482 480 485
f 494 488 485
f 493 487 495
f 484 487 486
f 484 488 491
f 484 489 487
f 484 490 489
f 484 491 492
f 495 487 489
f 484 492 490
f 488 497 491
f 495 489 496
f 490 499 496
f 492 498 499
f 489 490 496
f 490 492 499
f 491 498 492
f 480 494 485
f 504 493 495
f 494 497 488
f 495 496 506
f 496 515 506
f 494 507 497
f 496 499 515
f 498 517 499
f 497 516 498
f 491 497 498
f 476 459 501
f 501 503 478
f 464 502 504
f 464 504 508
f 501 466 503
f 503 510 505
f 503 505 480
f 494 505 507
f 508 506 509
f 504 506 508
f 509 506 515
f 512 507 505
f 503 466 510
f 508 509 534
f 509 596 534
f 466 536 510
f 509 511 596
f 510 598 512
f 510 512 505
f 509 515 511
f 512 513 507
f 517 514 511
f 516 513 514
f 511 514 597
f 512 599 513
f 513 600 514
f 497 507 516
f 499 517 515
f 498 516 517
f 515 517 511
f 507 513 516
f 516 514 517
f 245 519 518
f 246 520 526
f 246 518 520
f 519 248 521
f 461 521 523
f 526 520 522
f 526 522 528
f 521 529 523
f 528 522 532
f 528 532 530
f 523 531 533
f 521 248 529
f 526 528 291
f 528 292 291
f 528 544 292
f 528 545 544
f 528 546 545
f 530 547 546
f 529 531 523
f 533 531 538
f 528 530 546
f 530 548 547
f 530 551 548
f 530 537 551
f 537 552 551
f 537 553 552
f 558 553 537
f 523 533 462
f 533 535 465
f 530 532 534
f 530 534 537
f 466 535 536
f 534 596 537
f 533 538 535
f 538 539 535
f 558 537 540
f 537 596 540
f 535 539 536
f 536 539 542
f 540 597 541
f 536 542 598
f 540 541 573
f 541 601 575
f 293 549 529
f 529 549 531
f 531 549 560
f 531 560 538
f 558 554 553
f 558 555 554
f 558 556 557
f 558 557 555
f 558 573 556
f 538 560 561
f 549 563 560
f 563 302 569
f 563 569 560
f 566 564 568
f 566 565 564
f 566 584 565
f 569 561 560
f 569 302 591
f 589 302 584
f 569 591 561
f 591 302 595
f 589 594 302
f 595 302 594
f 538 561 539
f 558 540 573
f 573 570 556
f 573 571 570
f 573 572 571
f 573 568 572
f 566 573 575
f 561 574 539
f 541 575 573
f 539 574 542
f 542 577 602
f 601 576 575
f 602 577 576
f 542 574 577
f 575 576 592
f 566 568 573
f 566 575 578
f 561 591 574
f 575 585 578
f 575 586 585
f 575 592 586
f 566 578 584
f 589 584 587
f 589 587 590
f 589 590 593
f 589 593 594
f 591 595 574
f 594 581 583
f 594 593 581
f 576 580 579
f 577 594 576
f 576 579 592
f 576 583 580
f 576 594 583
f 574 595 577
f 577 595 594
f 510 536 598
f 511 597 596
f 512 598 599
f 540 596 597
f 597 600 541
f 600 599 601
f 514 600 597
f 513 599 600
f 542 602 598
f 600 601 541
f 598 602 599
f 599 602 601
f 601 602 576
f 153 152 159
f 153 159 154
f 154 159 156
f 152 155 159
f 155 157 159
f 157 158 159
f 155 167 157
f 153 154 165
f 153 164 152
f 152 166 155
f 154 156 168
f 152 164 166
f 153 165 164
f 155 166 167
f 156 159 160
f 159 162 160
f 159 158 161
f 157 170 158
f 159 171 162
f 159 172 171
f 159 161 163
f 159 163 173
f 158 177 161
f 156 160 169
f 157 167 170
f 160 162 176
f 158 170 177
f 154 168 165
f 156 169 168
f 160 176 169
f 167 190 170
f 164 165 185
f 165 168 186
f 164 187 166
f 166 188 167
f 168 169 189
f 166 187 188
f 159 173 174
f 159 175 172
f 159 174 175
f 161 179 163
f 163 181 173
f 172 175 183
f 174 173 182
f 162 171 178
f 162 178 176
f 161 177 179
f 171 172 180
f 171 180 178
f 163 179 181
f 174 184 175
f 172 183 180
f 175 184 183
f 173 181 182
f 174 182 184
f 170 192 177
f 169 176 191
f 167 188 190
f 176 178 193
f 170 190 192
f 177 194 179
f 179 203 181
f 178 180 195
f 177 192 194
f 180 183 204
f 179 194 203
f 164 185 187
f 165 186 185
f 168 189 186
f 185 196 187
f 185 186 197
f 186 189 198
f 169 191 189
f 176 193 191
f 187 200 188
f 189 191 199
f 188 201 190
f 188 200 201
f 178 195 193
f 190 208 192
f 180 204 195
f 191 193 202
f 193 195 210
f 190 201 208
f 186 198 197
f 185 197 196
f 189 199 198
f 187 196 200
f 191 202 199
f 197 198 217
f 196 197 218
f 198 199 219
f 193 210 202
f 196 221 200
f 199 202 220
f 200 226 201
f 202 210 224
f 200 221 226
f 181 205 182
f 182 207 184
f 183 184 206
f 181 203 205
f 183 206 204
f 184 207 206
f 182 205 207
f 192 209 194
f 194 213 203
f 195 204 211
f 192 208 209
f 204 206 212
f 194 209 213
f 203 216 205
f 206 207 214
f 205 215 207
f 203 213 216
f 205 216 215
f 207 215 214
f 195 211 210
f 204 212 211
f 201 228 208
f 210 211 225
f 201 226 228
f 206 214 212
f 208 238 209
f 208 228 238
f 211 212 227
f 209 235 213
f 212 214 237
f 209 238 235
f 214 215 236
f 213 239 216
f 216 240 215
f 213 235 239
f 215 240 236
f 216 239 240
f 197 217 218
f 198 219 217
f 196 218 221
f 199 220 219
f 202 224 220
f 217 219 223
f 218 217 231
f 218 230 221
f 219 220 222
f 219 222 223
f 220 229 222
f 217 223 231
f 222 249 223
f 210 225 224
f 221 234 226
f 211 227 225
f 212 237 227
f 226 242 228
f 226 234 242
f 220 224 229
f 224 225 232
f 224 232 229
f 218 231 230
f 221 230 234
f 223 251 231
f 231 253 230
f 225 233 232
f 225 227 233
f 230 278 234
f 214 236 237
f 227 237 241
f 237 236 243
f 228 244 238
f 228 242 244
f 238 247 235
f 238 244 247
f 235 527 239
f 236 240 524
f 239 525 240
f 235 247 527
f 227 241 233
f 237 243 241
f 234 285 242
f 234 283 284
f 234 278 283
f 234 284 285
f 242 290 244
f 242 285 288
f 242 288 289
f 236 524 243
f 242 289 290
f 244 290 291
f 244 291 292
f 244 545 247
f 244 292 544
f 244 544 545
f 222 229 250
f 229 232 252
f 229 252 250
f 222 250 249
f 223 249 251
f 231 251 253
f 249 263 251
f 232 233 275
f 232 275 252
f 230 253 278
f 253 255 282
f 253 254 255
f 251 296 253
f 253 256 254
f 253 294 256
f 249 250 265
f 249 259 261
f 249 258 259
f 250 252 266
f 249 261 263
f 249 265 258
f 250 266 265
f 251 268 262
f 251 263 267
f 251 267 268
f 251 262 296
f 253 296 294
f 252 275 274
f 265 260 258
f 265 264 260
f 252 274 266
f 265 272 264
f 272 269 264
f 272 271 269
f 272 273 271
f 296 262 273
f 233 241 276
f 233 276 275
f 253 282 278
f 278 277 283
f 281 278 282
f 278 281 280
f 278 280 277
f 241 243 287
f 241 287 276
f 243 543 287
f 275 276 299
f 296 295 294
f 296 273 297
f 275 299 274
f 296 297 295
f 272 302 273
f 265 266 302
f 265 302 272
f 266 274 302
f 274 299 302
f 276 287 300
f 276 300 299
f 299 300 302
f 239 527 525
f 240 525 524
f 524 543 243
f 525 527 559
f 524 525 550
f 247 552 527
f 247 545 546
f 247 546 547
f 247 547 548
f 247 548 551
f 247 551 552
f 527 552 553
f 554 527 553
f 524 550 543
f 525 559 550
f 527 554 555
f 527 555 557
f 527 557 559
f 559 557 556
f 550 559 572
f 559 556 570
f 559 570 571
f 559 571 572
f 550 572 568
f 287 543 562
f 287 562 300
f 300 562 302
f 562 567 302
f 543 550 567
f 543 567 562
f 550 568 564
f 550 564 567
f 567 564 565
f 567 565 584
f 567 584 302
f 582 592 579
f 582 579 580
f 582 580 583
f 582 583 581
f 588 584 578
f 588 578 585
f 588 585 586
f 588 587 584
f 588 590 587
f 582 590 588
f 582 588 586
f 582 593 590
f 582 586 592
f 582 581 593
f 92 95 370
f 92 123 124
f 92 120 123
f 92 368 94
f 92 94 120
f 92 125 95
f 92 124 125
f 95 125 126
f 94 376 127
f 95 126 131
f 95 131 132
f 95 132 133
f 95 133 134
f 108 107 105
f 108 105 127
f 108 109 107
f 108 113 109
f 108 106 113
f 116 113 115
f 116 115 145
f 120 118 121
f 120 121 119
f 120 119 122
f 120 122 123
f 120 127 118
f 94 127 120
f 127 129 128
f 127 128 118
f 127 103 129
f 127 105 103
f 108 127 135
f 127 376 135
f 135 377 136
f 135 136 146
f 108 135 106
f 135 112 106
f 135 143 112
f 135 146 143
f 136 138 146
f 116 145 144
f 116 144 148
f 148 141 142
f 148 144 141
f 116 149 113
f 116 148 149
f 136 140 138
f 136 142 140
f 136 148 142
f 136 397 148
f 148 150 149
f 148 397 150
f 323 325 305
f 323 307 324
f 325 306 305
f 323 305 307
f 326 309 306
f 324 307 308
f 303 304 370
f 303 370 369
f 304 368 370
f 303 369 311
f 304 312 368
f 311 369 372
f 311 307 305
f 303 311 305
f 303 306 304
f 303 305 306
f 304 306 309
f 311 313 307
f 307 313 308
f 308 315 351
f 312 309 310
f 308 313 315
f 314 310 353
f 315 316 351
f 304 309 312
f 312 314 371
f 311 372 313
f 372 382 313
f 373 314 317
f 382 315 313
f 382 384 315
f 312 310 314
f 314 353 317
f 315 384 316
f 317 358 383
f 316 384 385
f 323 318 319
f 323 324 318
f 324 327 320
f 323 319 325
f 325 322 326
f 324 320 318
f 325 319 322
f 327 321 320
f 318 320 334
f 318 334 319
f 319 334 322
f 321 328 333
f 326 322 332
f 327 328 321
f 326 332 329
f 329 332 336
f 333 328 330
f 329 336 331
f 324 308 327
f 327 351 328
f 325 326 306
f 326 329 309
f 327 308 351
f 329 331 310
f 351 352 328
f 352 330 328
f 330 355 344
f 353 331 345
f 352 355 330
f 354 345 347
f 344 355 364
f 320 321 334
f 322 334 332
f 321 333 334
f 332 334 336
f 333 330 335
f 333 335 334
f 336 334 337
f 335 338 334
f 344 338 335
f 336 337 331
f 330 344 335
f 345 337 339
f 344 346 338
f 334 338 340
f 334 339 337
f 334 342 339
f 334 343 342
f 334 340 341
f 338 346 340
f 334 341 343
f 347 339 342
f 340 346 349
f 343 350 348
f 341 349 350
f 340 349 341
f 341 350 343
f 342 343 348
f 331 337 345
f 345 339 347
f 344 364 346
f 347 348 356
f 346 364 365
f 348 350 366
f 346 365 349
f 349 367 350
f 347 342 348
f 329 310 309
f 351 316 352
f 310 331 353
f 317 353 354
f 352 316 357
f 353 345 354
f 354 347 356
f 352 357 355
f 354 356 358
f 357 360 355
f 360 364 355
f 359 356 366
f 317 354 358
f 358 356 359
f 358 359 386
f 316 385 357
f 357 385 446
f 359 362 447
f 357 446 360
f 360 361 364
f 359 366 362
f 365 361 363
f 367 363 362
f 362 363 448
f 360 449 361
f 361 450 363
f 348 366 356
f 349 365 367
f 350 367 366
f 364 361 365
f 366 367 362
f 365 363 367
f 370 95 369
f 92 370 368
f 369 95 375
f 94 368 371
f 312 371 368
f 376 371 373
f 369 375 372
f 375 380 372
f 377 373 383
f 372 380 382
f 382 380 387
f 94 371 376
f 376 373 377
f 135 376 377
f 95 134 375
f 375 134 393
f 375 393 394
f 375 394 395
f 375 396 380
f 375 395 396
f 380 396 400
f 377 383 381
f 380 400 401
f 380 401 402
f 380 402 387
f 387 402 403
f 403 404 387
f 371 314 373
f 373 317 383
f 382 387 384
f 387 389 384
f 358 386 383
f 384 389 385
f 385 390 446
f 381 383 386
f 381 386 388
f 387 426 389
f 388 386 447
f 388 447 391
f 385 389 390
f 391 448 392
f 389 429 390
f 390 430 451
f 136 377 381
f 136 381 397
f 381 388 397
f 404 406 387
f 387 406 407
f 426 407 408
f 388 409 397
f 426 408 410
f 426 410 411
f 150 397 409
f 150 413 149
f 150 409 413
f 413 417 149
f 413 409 428
f 417 440 149
f 413 428 417
f 444 439 149
f 440 445 149
f 444 149 445
f 422 418 419
f 422 419 420
f 422 421 418
f 422 424 421
f 422 420 425
f 422 415 424
f 422 425 416
f 422 437 415
f 422 416 437
f 388 391 409
f 387 407 426
f 426 429 389
f 426 411 427
f 409 391 428
f 426 427 429
f 429 427 433
f 428 391 392
f 390 429 430
f 392 452 431
f 451 430 432
f 452 432 431
f 428 392 431
f 428 431 417
f 429 433 441
f 429 444 430
f 429 441 444
f 437 434 435
f 437 435 415
f 437 439 434
f 437 416 436
f 437 436 439
f 417 431 440
f 444 442 439
f 444 441 442
f 440 431 432
f 430 445 432
f 430 444 445
f 440 432 445
f 359 447 386
f 362 448 447
f 360 446 449
f 446 451 449
f 449 452 450
f 363 450 448
f 361 449 450
f 391 447 448
f 390 451 446
f 449 451 452
f 450 452 392
f 448 450 392
f 451 432 452
f 1 3 8
f 1 8 2
f 2 8 5
f 2 5 16
f 3 4 8
f 4 6 8
f 6 9 8
f 1 13 3
f 1 2 14
f 3 15 4
f 1 14 13
f 3 13 15
f 2 16 14
f 4 17 6
f 5 8 7
f 7 8 11
f 5 7 18
f 9 10 8
f 8 20 11
f 8 21 20
f 7 11 25
f 8 10 12
f 8 12 22
f 5 18 16
f 6 19 9
f 7 25 18
f 9 26 10
f 4 15 17
f 6 17 19
f 9 19 26
f 14 16 35
f 13 14 34
f 13 36 15
f 16 18 37
f 15 39 17
f 16 37 35
f 11 20 27
f 8 24 21
f 8 23 24
f 8 22 23
f 20 21 29
f 21 24 31
f 22 32 23
f 11 27 25
f 10 28 12
f 10 26 28
f 20 29 27
f 12 30 22
f 12 28 30
f 23 33 24
f 21 31 29
f 24 33 31
f 23 32 33
f 22 30 32
f 18 25 38
f 25 27 41
f 18 38 37
f 17 40 19
f 25 41 38
f 19 42 26
f 27 29 43
f 29 31 51
f 27 43 41
f 26 52 28
f 28 53 30
f 30 55 32
f 29 51 43
f 14 35 34
f 13 34 36
f 15 36 39
f 35 37 44
f 34 35 46
f 34 47 36
f 17 39 40
f 19 40 42
f 37 38 45
f 36 49 39
f 38 41 48
f 38 48 45
f 39 50 40
f 26 42 52
f 28 52 53
f 41 43 57
f 41 57 48
f 40 59 42
f 35 44 46
f 34 46 47
f 37 45 44
f 36 47 49
f 44 66 46
f 44 45 68
f 46 69 47
f 39 49 50
f 40 50 59
f 45 48 67
f 47 70 49
f 48 57 73
f 48 73 67
f 49 75 50
f 31 33 54
f 32 56 33
f 31 54 51
f 30 53 55
f 33 56 54
f 32 55 56
f 43 51 58
f 51 54 60
f 43 58 57
f 42 63 52
f 52 62 53
f 51 60 58
f 54 56 61
f 53 65 55
f 55 64 56
f 54 61 60
f 56 64 61
f 55 65 64
f 57 74 73
f 42 59 63
f 52 63 62
f 50 77 59
f 57 58 74
f 53 62 65
f 58 60 76
f 58 76 74
f 59 86 63
f 60 61 84
f 60 84 76
f 63 85 62
f 61 64 87
f 62 88 65
f 61 87 84
f 65 89 64
f 64 89 87
f 65 88 89
f 44 68 66
f 46 66 69
f 68 67 71
f 45 67 68
f 47 69 70
f 49 70 75
f 66 68 72
f 67 78 71
f 68 71 72
f 66 80 69
f 69 81 70
f 66 72 80
f 72 71 98
f 67 73 78
f 73 74 79
f 50 75 77
f 74 76 82
f 74 82 79
f 59 77 86
f 63 86 85
f 73 79 78
f 71 78 99
f 78 79 102
f 69 80 81
f 70 83 75
f 70 81 83
f 79 82 101
f 75 91 77
f 75 83 91
f 76 84 90
f 76 90 82
f 84 93 90
f 62 85 88
f 77 96 86
f 84 87 93
f 86 97 85
f 87 374 93
f 85 378 88
f 87 89 374
f 88 379 89
f 82 90 124
f 82 123 122
f 82 124 123
f 90 126 125
f 90 125 124
f 77 91 96
f 90 93 131
f 90 131 126
f 93 132 131
f 93 374 393
f 93 133 132
f 93 134 133
f 93 393 134
f 86 96 97
f 85 97 378
f 96 399 97
f 71 99 98
f 72 98 100
f 78 102 99
f 72 100 80
f 80 104 81
f 80 100 104
f 79 101 102
f 82 121 101
f 102 101 103
f 101 129 103
f 102 103 105
f 81 130 83
f 81 104 130
f 98 99 110
f 98 117 100
f 99 111 110
f 98 110 117
f 99 102 111
f 102 105 107
f 102 107 111
f 100 147 104
f 111 107 109
f 111 109 113
f 100 117 147
f 114 113 106
f 114 106 112
f 114 112 143
f 114 115 113
f 114 145 115
f 82 119 121
f 82 122 119
f 101 121 118
f 101 118 128
f 101 128 129
f 83 137 91
f 83 130 137
f 91 398 96
f 91 137 398
f 139 146 138
f 139 138 140
f 139 140 142
f 139 142 141
f 114 143 139
f 114 139 145
f 139 143 146
f 139 144 145
f 111 113 149
f 104 147 151
f 110 111 149
f 110 149 117
f 139 141 144
f 117 149 147
f 104 151 130
f 147 149 151
f 151 149 414
f 130 414 137
f 130 151 414
f 89 379 374
f 374 394 393
f 374 395 394
f 374 396 395
f 374 379 401
f 374 400 396
f 374 401 400
f 379 402 401
f 88 378 379
f 378 405 379
f 97 412 378
f 379 403 402
f 379 405 403
f 96 398 399
f 97 399 412
f 398 424 399
f 405 404 403
f 412 408 405
f 405 406 404
f 407 405 408
f 405 407 406
f 412 410 408
f 412 411 410
f 399 443 412
f 412 427 411
f 412 433 427
f 378 412 405
f 414 149 423
f 137 423 398
f 398 418 421
f 398 419 418
f 398 423 419
f 137 414 423
f 399 434 443
f 438 149 439
f 423 149 438
f 438 416 425
f 398 421 424
f 399 435 434
f 399 424 415
f 399 415 435
f 423 420 419
f 423 425 420
f 423 438 425
f 412 443 433
f 443 441 433
f 438 436 416
f 438 439 436
f 443 434 439
f 443 439 442
f 443 442 441
