v -0.143872 -0.183248 0.008350
v -0.141879 -0.184177 0.008350
v -0.148488 -0.178632 0.008350
v -0.147227 -0.180432 0.008350
v -0.145673 -0.181987 0.008350
v -0.149417 -0.176639 0.008350
v -0.149986 -0.174515 0.008350
v -0.150178 -0.172325 0.008350
v -0.153081 -0.177972 0.011213
v -0.151864 -0.180581 0.011213
v -0.153826 -0.175192 0.011213
v -0.154076 -0.172325 0.011213
v -0.148179 -0.184973 0.011213
v -0.145821 -0.186624 0.011213
v -0.143213 -0.187841 0.011213
v -0.150214 -0.182938 0.011213
v -0.149986 -0.170135 0.008350
v -0.149417 -0.168012 0.008350
v -0.148488 -0.166019 0.008350
v -0.147227 -0.164218 0.008350
v -0.145673 -0.162663 0.008350
v -0.143872 -0.161402 0.008350
v -0.141879 -0.160473 0.008350
v -0.153826 -0.169458 0.011213
v -0.153081 -0.166678 0.011213
v -0.151864 -0.164070 0.011213
v -0.150214 -0.161712 0.011213
v -0.148179 -0.159677 0.011213
v -0.145821 -0.158026 0.011213
v -0.143213 -0.156810 0.011213
v -0.139756 -0.184746 0.008350
v -0.137565 -0.184938 0.008350
v -0.135375 -0.184746 0.008350
v -0.133252 -0.184177 0.008350
v -0.131259 -0.183248 0.008350
v -0.137565 -0.172325 0.008350
v -0.129458 -0.181987 0.008350
v -0.127904 -0.180432 0.008350
v -0.126643 -0.178632 0.008350
v -0.125713 -0.176639 0.008350
v -0.125144 -0.174515 0.008350
v -0.124953 -0.172325 0.008350
v -0.140433 -0.188585 0.011213
v -0.137565 -0.188836 0.011213
v -0.134698 -0.188585 0.011213
v -0.131918 -0.187841 0.011213
v -0.129310 -0.186624 0.011213
v -0.126952 -0.184973 0.011213
v -0.124917 -0.182938 0.011213
v -0.123266 -0.180581 0.011213
v -0.122050 -0.177972 0.011213
v -0.121305 -0.175192 0.011213
v -0.121054 -0.172325 0.011213
v -0.139756 -0.159904 0.008350
v -0.137565 -0.159713 0.008350
v -0.135375 -0.159904 0.008350
v -0.133252 -0.160473 0.008350
v -0.131259 -0.161402 0.008350
v -0.125713 -0.168012 0.008350
v -0.126643 -0.166019 0.008350
v -0.129458 -0.162663 0.008350
v -0.127904 -0.164218 0.008350
v -0.125144 -0.170135 0.008350
v -0.140433 -0.156065 0.011213
v -0.137565 -0.155814 0.011213
v -0.134698 -0.156065 0.011213
v -0.131918 -0.156810 0.011213
v -0.126952 -0.159677 0.011213
v -0.121305 -0.169458 0.011213
v -0.122050 -0.166678 0.011213
v -0.124917 -0.161712 0.011213
v -0.123266 -0.164070 0.011213
v -0.129310 -0.158026 0.011213
v -0.156234 -0.183103 0.014648
v -0.154078 -0.186181 0.014648
v -0.151421 -0.188838 0.014648
v -0.157822 -0.179698 0.014648
v -0.158794 -0.176068 0.014648
v -0.159122 -0.172325 0.014648
v -0.148343 -0.190993 0.014648
v -0.144938 -0.192581 0.014648
v -0.141309 -0.193554 0.014648
v -0.158794 -0.168582 0.014648
v -0.157822 -0.164953 0.014648
v -0.156234 -0.161547 0.014648
v -0.154078 -0.158469 0.014648
v -0.151421 -0.155812 0.014648
v -0.148343 -0.153657 0.014648
v -0.144938 -0.152069 0.014648
v -0.141309 -0.151097 0.014648
v -0.137565 -0.193881 0.014648
v -0.133822 -0.193554 0.014648
v -0.130193 -0.192581 0.014648
v -0.126787 -0.190993 0.014648
v -0.123709 -0.188838 0.014648
v -0.121053 -0.186181 0.014648
v -0.137565 -0.150769 0.014648
v -0.133822 -0.151097 0.014648
v -0.126787 -0.153657 0.014648
v -0.130193 -0.152069 0.014648
v -0.123709 -0.155812 0.014648
v -0.121053 -0.158469 0.014648
v -0.118897 -0.183103 0.014648
v -0.117309 -0.179698 0.014648
v -0.116337 -0.176068 0.014648
v -0.116009 -0.172325 0.014648
v -0.116337 -0.168582 0.014648
v -0.117309 -0.164953 0.014648
v -0.118897 -0.161547 0.014648
v -0.157425 -0.183791 0.024095
v -0.152306 -0.189892 0.024095
v -0.155132 -0.187066 0.024095
v -0.159114 -0.180168 0.024095
v -0.160149 -0.176307 0.024095
v -0.160497 -0.172325 0.024095
v -0.149031 -0.192185 0.024095
v -0.145409 -0.193874 0.024095
v -0.141548 -0.194909 0.024095
v -0.160149 -0.168343 0.024095
v -0.159114 -0.164482 0.024095
v -0.157425 -0.160859 0.024095
v -0.155132 -0.157585 0.024095
v -0.152306 -0.154758 0.024095
v -0.149031 -0.152466 0.024095
v -0.145409 -0.150776 0.024095
v -0.141548 -0.149742 0.024095
v -0.137565 -0.195257 0.024095
v -0.133583 -0.194909 0.024095
v -0.129722 -0.193874 0.024095
v -0.126099 -0.192185 0.024095
v -0.122825 -0.189892 0.024095
v -0.137565 -0.149393 0.024095
v -0.133583 -0.149742 0.024095
v -0.129722 -0.150776 0.024095
v -0.126099 -0.152466 0.024095
v -0.122825 -0.154758 0.024095
v -0.119999 -0.187066 0.024095
v -0.117706 -0.183791 0.024095
v -0.116016 -0.180168 0.024095
v -0.114982 -0.176307 0.024095
v -0.114633 -0.172325 0.024095
v -0.116016 -0.164482 0.024095
v -0.117706 -0.160859 0.024095
v -0.114982 -0.168343 0.024095
v -0.119999 -0.157585 0.024095
v -0.156631 -0.183333 0.031824
v -0.151716 -0.189190 0.031824
v -0.154430 -0.186476 0.031824
v -0.158253 -0.179855 0.031824
v -0.159246 -0.176148 0.031824
v -0.159580 -0.172325 0.031824
v -0.148573 -0.191391 0.031824
v -0.145095 -0.193012 0.031824
v -0.141388 -0.194006 0.031824
v -0.159246 -0.168502 0.031824
v -0.158253 -0.164796 0.031824
v -0.156631 -0.161318 0.031824
v -0.154430 -0.158174 0.031824
v -0.151716 -0.155461 0.031824
v -0.148573 -0.153260 0.031824
v -0.145095 -0.151638 0.031824
v -0.141388 -0.150645 0.031824
v -0.137565 -0.194340 0.031824
v -0.133743 -0.194006 0.031824
v -0.130036 -0.193012 0.031824
v -0.126558 -0.191391 0.031824
v -0.123415 -0.189190 0.031824
v -0.120701 -0.186476 0.031824
v -0.137565 -0.150311 0.031824
v -0.133743 -0.150645 0.031824
v -0.126558 -0.153260 0.031824
v -0.130036 -0.151638 0.031824
v -0.123415 -0.155461 0.031824
v -0.120701 -0.158174 0.031824
v -0.151619 -0.184118 0.035546
v -0.155632 -0.175511 0.035546
v -0.155911 -0.172325 0.035546
v -0.153453 -0.181498 0.035546
v -0.154805 -0.178600 0.035546
v -0.149358 -0.186379 0.035546
v -0.146738 -0.188213 0.035546
v -0.143840 -0.189564 0.035546
v -0.140751 -0.190392 0.035546
v -0.145907 -0.177141 0.036977
v -0.147051 -0.173998 0.036977
v -0.146616 -0.175619 0.036977
v -0.147197 -0.172325 0.036977
v -0.144944 -0.178516 0.036977
v -0.143756 -0.179703 0.036977
v -0.142381 -0.180666 0.036977
v -0.140860 -0.181376 0.036977
v -0.155632 -0.169140 0.035546
v -0.154805 -0.166051 0.035546
v -0.153453 -0.163152 0.035546
v -0.151619 -0.160533 0.035546
v -0.147051 -0.170653 0.036977
v -0.146616 -0.169031 0.036977
v -0.145907 -0.167510 0.036977
v -0.144944 -0.166134 0.036977
v -0.143756 -0.164947 0.036977
v -0.142381 -0.163984 0.036977
v -0.140860 -0.163275 0.036977
v -0.149358 -0.158272 0.035546
v -0.146738 -0.156438 0.035546
v -0.143840 -0.155086 0.035546
v -0.140751 -0.154258 0.035546
v -0.137565 -0.190671 0.035546
v -0.134380 -0.190392 0.035546
v -0.131291 -0.189564 0.035546
v -0.139238 -0.181810 0.036977
v -0.137565 -0.181957 0.036977
v -0.135893 -0.181810 0.036977
v -0.137565 -0.172325 0.036977
v -0.134271 -0.181376 0.036977
v -0.132750 -0.180666 0.036977
v -0.131374 -0.179703 0.036977
v -0.128393 -0.188213 0.035546
v -0.125773 -0.186379 0.035546
v -0.123512 -0.184118 0.035546
v -0.121678 -0.181498 0.035546
v -0.130187 -0.178516 0.036977
v -0.129224 -0.177141 0.036977
v -0.128515 -0.175619 0.036977
v -0.128080 -0.173998 0.036977
v -0.127934 -0.172325 0.036977
v -0.139238 -0.162840 0.036977
v -0.137565 -0.162694 0.036977
v -0.135893 -0.162840 0.036977
v -0.131374 -0.164947 0.036977
v -0.134271 -0.163275 0.036977
v -0.132750 -0.163984 0.036977
v -0.137565 -0.153980 0.035546
v -0.134380 -0.154258 0.035546
v -0.131291 -0.155086 0.035546
v -0.123512 -0.160533 0.035546
v -0.121678 -0.163152 0.035546
v -0.128080 -0.170653 0.036977
v -0.128515 -0.169031 0.036977
v -0.129224 -0.167510 0.036977
v -0.130187 -0.166134 0.036977
v -0.128393 -0.156438 0.035546
v -0.125773 -0.158272 0.035546
v -0.118500 -0.183333 0.031824
v -0.116878 -0.179855 0.031824
v -0.115885 -0.176148 0.031824
v -0.115551 -0.172325 0.031824
v -0.115885 -0.168502 0.031824
v -0.116878 -0.164796 0.031824
v -0.118500 -0.161318 0.031824
v -0.120326 -0.178600 0.035546
v -0.119499 -0.175511 0.035546
v -0.119220 -0.172325 0.035546
v -0.119499 -0.169140 0.035546
v -0.120326 -0.166051 0.035546
v -0.147227 0.164218 0.008350
v -0.145673 0.162663 0.008350
v -0.148488 0.166019 0.008350
v -0.149417 0.168012 0.008350
v -0.149986 0.170135 0.008350
v -0.143872 0.161402 0.008350
v -0.141879 0.160473 0.008350
v -0.151864 0.164070 0.011213
v -0.153081 0.166678 0.011213
v -0.153826 0.169458 0.011213
v -0.145821 0.158026 0.011213
v -0.143213 0.156810 0.011213
v -0.148179 0.159677 0.011213
v -0.150214 0.161712 0.011213
v -0.150178 0.172325 0.008350
v -0.149986 0.174515 0.008350
v -0.149417 0.176639 0.008350
v -0.148488 0.178632 0.008350
v -0.147227 0.180432 0.008350
v -0.145673 0.181987 0.008350
v -0.143872 0.183248 0.008350
v -0.141879 0.184177 0.008350
v -0.154076 0.172325 0.011213
v -0.153826 0.175192 0.011213
v -0.153081 0.177972 0.011213
v -0.151864 0.180581 0.011213
v -0.150214 0.182938 0.011213
v -0.148179 0.184973 0.011213
v -0.145821 0.186624 0.011213
v -0.143213 0.187841 0.011213
v -0.139756 0.159904 0.008350
v -0.137565 0.159713 0.008350
v -0.135375 0.159904 0.008350
v -0.133252 0.160473 0.008350
v -0.131259 0.161402 0.008350
v -0.129458 0.162663 0.008350
v -0.127904 0.164218 0.008350
v -0.126643 0.166019 0.008350
v -0.125713 0.168012 0.008350
v -0.125144 0.170135 0.008350
v -0.140433 0.156065 0.011213
v -0.137565 0.155814 0.011213
v -0.134698 0.156065 0.011213
v -0.131918 0.156810 0.011213
v -0.129310 0.158026 0.011213
v -0.126952 0.159677 0.011213
v -0.124917 0.161712 0.011213
v -0.123266 0.164070 0.011213
v -0.122050 0.166678 0.011213
v -0.121305 0.169458 0.011213
v -0.137565 0.172325 0.008350
v -0.139756 0.184746 0.008350
v -0.137565 0.184938 0.008350
v -0.135375 0.184746 0.008350
v -0.133252 0.184177 0.008350
v -0.131259 0.183248 0.008350
v -0.125713 0.176639 0.008350
v -0.129458 0.181987 0.008350
v -0.127904 0.180432 0.008350
v -0.126643 0.178632 0.008350
v -0.124953 0.172325 0.008350
v -0.125144 0.174515 0.008350
v -0.140433 0.188585 0.011213
v -0.137565 0.188836 0.011213
v -0.134698 0.188585 0.011213
v -0.131918 0.187841 0.011213
v -0.121054 0.172325 0.011213
v -0.121305 0.175192 0.011213
v -0.124917 0.182938 0.011213
v -0.123266 0.180581 0.011213
v -0.122050 0.177972 0.011213
v -0.129310 0.186624 0.011213
v -0.126952 0.184973 0.011213
v -0.154078 0.158469 0.014648
v -0.151421 0.155812 0.014648
v -0.156234 0.161547 0.014648
v -0.158794 0.168582 0.014648
v -0.157822 0.164953 0.014648
v -0.148343 0.153657 0.014648
v -0.144938 0.152069 0.014648
v -0.141309 0.151097 0.014648
v -0.159122 0.172325 0.014648
v -0.158794 0.176068 0.014648
v -0.157822 0.179698 0.014648
v -0.156234 0.183103 0.014648
v -0.154078 0.186181 0.014648
v -0.151421 0.188838 0.014648
v -0.148343 0.190993 0.014648
v -0.144938 0.192581 0.014648
v -0.141309 0.193554 0.014648
v -0.137565 0.150769 0.014648
v -0.133822 0.151097 0.014648
v -0.130193 0.152069 0.014648
v -0.126787 0.153657 0.014648
v -0.123709 0.155812 0.014648
v -0.121053 0.158469 0.014648
v -0.137565 0.193881 0.014648
v -0.133822 0.193554 0.014648
v -0.130193 0.192581 0.014648
v -0.126787 0.190993 0.014648
v -0.123709 0.188838 0.014648
v -0.121053 0.186181 0.014648
v -0.118897 0.161547 0.014648
v -0.117309 0.164953 0.014648
v -0.116337 0.168582 0.014648
v -0.116009 0.172325 0.014648
v -0.116337 0.176068 0.014648
v -0.117309 0.179698 0.014648
v -0.118897 0.183103 0.014648
v -0.155132 0.157585 0.024095
v -0.152306 0.154758 0.024095
v -0.159114 0.164482 0.024095
v -0.157425 0.160859 0.024095
v -0.160149 0.168343 0.024095
v -0.149031 0.152466 0.024095
v -0.145409 0.150776 0.024095
v -0.141548 0.149742 0.024095
v -0.160497 0.172325 0.024095
v -0.160149 0.176307 0.024095
v -0.159114 0.180168 0.024095
v -0.157425 0.183791 0.024095
v -0.155132 0.187066 0.024095
v -0.152306 0.189892 0.024095
v -0.149031 0.192185 0.024095
v -0.145409 0.193874 0.024095
v -0.141548 0.194909 0.024095
v -0.137565 0.149393 0.024095
v -0.133583 0.149742 0.024095
v -0.129722 0.150776 0.024095
v -0.126099 0.152466 0.024095
v -0.122825 0.154758 0.024095
v -0.137565 0.195257 0.024095
v -0.133583 0.194909 0.024095
v -0.129722 0.193874 0.024095
v -0.126099 0.192185 0.024095
v -0.122825 0.189892 0.024095
v -0.119999 0.157585 0.024095
v -0.117706 0.160859 0.024095
v -0.116016 0.164482 0.024095
v -0.114982 0.168343 0.024095
v -0.116016 0.180168 0.024095
v -0.114633 0.172325 0.024095
v -0.114982 0.176307 0.024095
v -0.119999 0.187066 0.024095
v -0.117706 0.183791 0.024095
v -0.154430 0.158174 0.031824
v -0.151716 0.155461 0.031824
v -0.156631 0.161318 0.031824
v -0.158253 0.164796 0.031824
v -0.159246 0.168502 0.031824
v -0.148573 0.153260 0.031824
v -0.145095 0.151638 0.031824
v -0.141388 0.150645 0.031824
v -0.159580 0.172325 0.031824
v -0.159246 0.176148 0.031824
v -0.158253 0.179855 0.031824
v -0.156631 0.183333 0.031824
v -0.154430 0.186476 0.031824
v -0.151716 0.189190 0.031824
v -0.148573 0.191391 0.031824
v -0.145095 0.193012 0.031824
v -0.141388 0.194006 0.031824
v -0.137565 0.150311 0.031824
v -0.133743 0.150645 0.031824
v -0.130036 0.151638 0.031824
v -0.126558 0.153260 0.031824
v -0.123415 0.155461 0.031824
v -0.120701 0.158174 0.031824
v -0.137565 0.194340 0.031824
v -0.133743 0.194006 0.031824
v -0.130036 0.193012 0.031824
v -0.126558 0.191391 0.031824
v -0.120701 0.186476 0.031824
v -0.123415 0.189190 0.031824
v -0.155632 0.169140 0.035546
v -0.153453 0.163152 0.035546
v -0.151619 0.160533 0.035546
v -0.154805 0.166051 0.035546
v -0.149358 0.158272 0.035546
v -0.146738 0.156438 0.035546
v -0.143840 0.155086 0.035546
v -0.140751 0.154258 0.035546
v -0.145907 0.167510 0.036977
v -0.147051 0.170653 0.036977
v -0.146616 0.169031 0.036977
v -0.142381 0.163984 0.036977
v -0.140860 0.163275 0.036977
v -0.144944 0.166134 0.036977
v -0.143756 0.164947 0.036977
v -0.155911 0.172325 0.035546
v -0.155632 0.175511 0.035546
v -0.154805 0.178600 0.035546
v -0.153453 0.181498 0.035546
v -0.151619 0.184118 0.035546
v -0.147197 0.172325 0.036977
v -0.147051 0.173998 0.036977
v -0.146616 0.175619 0.036977
v -0.145907 0.177141 0.036977
v -0.144944 0.178516 0.036977
v -0.143756 0.179703 0.036977
v -0.142381 0.180666 0.036977
v -0.140860 0.181376 0.036977
v -0.149358 0.186379 0.035546
v -0.146738 0.188213 0.035546
v -0.143840 0.189564 0.035546
v -0.140751 0.190392 0.035546
v -0.137565 0.153980 0.035546
v -0.134380 0.154258 0.035546
v -0.131291 0.155086 0.035546
v -0.139238 0.162840 0.036977
v -0.137565 0.162694 0.036977
v -0.135893 0.162840 0.036977
v -0.134271 0.163275 0.036977
v -0.132750 0.163984 0.036977
v -0.131374 0.164947 0.036977
v -0.128393 0.156438 0.035546
v -0.125773 0.158272 0.035546
v -0.123512 0.160533 0.035546
v -0.121678 0.163152 0.035546
v -0.130187 0.166134 0.036977
v -0.129224 0.167510 0.036977
v -0.128515 0.169031 0.036977
v -0.128080 0.170653 0.036977
v -0.137565 0.172325 0.036977
v -0.139238 0.181810 0.036977
v -0.137565 0.181957 0.036977
v -0.135893 0.181810 0.036977
v -0.134271 0.181376 0.036977
v -0.131374 0.179703 0.036977
v -0.132750 0.180666 0.036977
v -0.137565 0.190671 0.035546
v -0.134380 0.190392 0.035546
v -0.131291 0.189564 0.035546
v -0.121678 0.181498 0.035546
v -0.127934 0.172325 0.036977
v -0.128080 0.173998 0.036977
v -0.128515 0.175619 0.036977
v -0.129224 0.177141 0.036977
v -0.130187 0.178516 0.036977
v -0.128393 0.188213 0.035546
v -0.125773 0.186379 0.035546
v -0.123512 0.184118 0.035546
v -0.118500 0.161318 0.031824
v -0.116878 0.164796 0.031824
v -0.115885 0.168502 0.031824
v -0.115551 0.172325 0.031824
v -0.115885 0.176148 0.031824
v -0.116878 0.179855 0.031824
v -0.118500 0.183333 0.031824
v -0.120326 0.166051 0.035546
v -0.119499 0.169140 0.035546
v -0.119220 0.172325 0.035546
v -0.119499 0.175511 0.035546
v -0.120326 0.178600 0.035546
v 0.118897 -0.183103 0.014648
v 0.117309 -0.179698 0.014648
v 0.116337 -0.176068 0.014648
v 0.116009 -0.172325 0.014648
v 0.116337 -0.168582 0.014648
v 0.117309 -0.164953 0.014648
v 0.118897 -0.161547 0.014648
v 0.125144 -0.174515 0.008350
v 0.124953 -0.172325 0.008350
v 0.126643 -0.178632 0.008350
v 0.127904 -0.180432 0.008350
v 0.129458 -0.181987 0.008350
v 0.125713 -0.176639 0.008350
v 0.131259 -0.183248 0.008350
v 0.133252 -0.184177 0.008350
v 0.135375 -0.184746 0.008350
v 0.137565 -0.184938 0.008350
v 0.139756 -0.184746 0.008350
v 0.137565 -0.172325 0.008350
v 0.126952 -0.184973 0.011213
v 0.129310 -0.186624 0.011213
v 0.122050 -0.177972 0.011213
v 0.123266 -0.180581 0.011213
v 0.124917 -0.182938 0.011213
v 0.121305 -0.175192 0.011213
v 0.121054 -0.172325 0.011213
v 0.131918 -0.187841 0.011213
v 0.134698 -0.188585 0.011213
v 0.137565 -0.188836 0.011213
v 0.140433 -0.188585 0.011213
v 0.125144 -0.170135 0.008350
v 0.125713 -0.168012 0.008350
v 0.126643 -0.166019 0.008350
v 0.127904 -0.164218 0.008350
v 0.129458 -0.162663 0.008350
v 0.131259 -0.161402 0.008350
v 0.133252 -0.160473 0.008350
v 0.135375 -0.159904 0.008350
v 0.137565 -0.159713 0.008350
v 0.139756 -0.159904 0.008350
v 0.121305 -0.169458 0.011213
v 0.122050 -0.166678 0.011213
v 0.123266 -0.164070 0.011213
v 0.124917 -0.161712 0.011213
v 0.126952 -0.159677 0.011213
v 0.129310 -0.158026 0.011213
v 0.131918 -0.156810 0.011213
v 0.134698 -0.156065 0.011213
v 0.137565 -0.155814 0.011213
v 0.140433 -0.156065 0.011213
v 0.141879 -0.184177 0.008350
v 0.143872 -0.183248 0.008350
v 0.145673 -0.181987 0.008350
v 0.147227 -0.180432 0.008350
v 0.148488 -0.178632 0.008350
v 0.149417 -0.176639 0.008350
v 0.149986 -0.174515 0.008350
v 0.150178 -0.172325 0.008350
v 0.143213 -0.187841 0.011213
v 0.145821 -0.186624 0.011213
v 0.148179 -0.184973 0.011213
v 0.150214 -0.182938 0.011213
v 0.151864 -0.180581 0.011213
v 0.153081 -0.177972 0.011213
v 0.153826 -0.175192 0.011213
v 0.154076 -0.172325 0.011213
v 0.141879 -0.160473 0.008350
v 0.143872 -0.161402 0.008350
v 0.149986 -0.170135 0.008350
v 0.149417 -0.168012 0.008350
v 0.148488 -0.166019 0.008350
v 0.145673 -0.162663 0.008350
v 0.147227 -0.164218 0.008350
v 0.150214 -0.161712 0.011213
v 0.148179 -0.159677 0.011213
v 0.143213 -0.156810 0.011213
v 0.145821 -0.158026 0.011213
v 0.153826 -0.169458 0.011213
v 0.153081 -0.166678 0.011213
v 0.151864 -0.164070 0.011213
v 0.121053 -0.186181 0.014648
v 0.123709 -0.188838 0.014648
v 0.126787 -0.190993 0.014648
v 0.130193 -0.192581 0.014648
v 0.133822 -0.193554 0.014648
v 0.137565 -0.193881 0.014648
v 0.121053 -0.158469 0.014648
v 0.123709 -0.155812 0.014648
v 0.126787 -0.153657 0.014648
v 0.130193 -0.152069 0.014648
v 0.133822 -0.151097 0.014648
v 0.137565 -0.150769 0.014648
v 0.141309 -0.193554 0.014648
v 0.144938 -0.192581 0.014648
v 0.148343 -0.190993 0.014648
v 0.151421 -0.188838 0.014648
v 0.154078 -0.186181 0.014648
v 0.156234 -0.183103 0.014648
v 0.157822 -0.179698 0.014648
v 0.158794 -0.176068 0.014648
v 0.159122 -0.172325 0.014648
v 0.141309 -0.151097 0.014648
v 0.144938 -0.152069 0.014648
v 0.148343 -0.153657 0.014648
v 0.157822 -0.164953 0.014648
v 0.158794 -0.168582 0.014648
v 0.156234 -0.161547 0.014648
v 0.151421 -0.155812 0.014648
v 0.154078 -0.158469 0.014648
v 0.117706 -0.183791 0.024095
v 0.119999 -0.187066 0.024095
v 0.114982 -0.176307 0.024095
v 0.114633 -0.172325 0.024095
v 0.116016 -0.180168 0.024095
v 0.114982 -0.168343 0.024095
v 0.116016 -0.164482 0.024095
v 0.117706 -0.160859 0.024095
v 0.119999 -0.157585 0.024095
v 0.122825 -0.189892 0.024095
v 0.126099 -0.192185 0.024095
v 0.129722 -0.193874 0.024095
v 0.133583 -0.194909 0.024095
v 0.137565 -0.195257 0.024095
v 0.122825 -0.154758 0.024095
v 0.126099 -0.152466 0.024095
v 0.129722 -0.150776 0.024095
v 0.133583 -0.149742 0.024095
v 0.137565 -0.149393 0.024095
v 0.141548 -0.194909 0.024095
v 0.145409 -0.193874 0.024095
v 0.149031 -0.192185 0.024095
v 0.152306 -0.189892 0.024095
v 0.155132 -0.187066 0.024095
v 0.157425 -0.183791 0.024095
v 0.159114 -0.180168 0.024095
v 0.160149 -0.176307 0.024095
v 0.160497 -0.172325 0.024095
v 0.141548 -0.149742 0.024095
v 0.145409 -0.150776 0.024095
v 0.149031 -0.152466 0.024095
v 0.160149 -0.168343 0.024095
v 0.157425 -0.160859 0.024095
v 0.159114 -0.164482 0.024095
v 0.152306 -0.154758 0.024095
v 0.155132 -0.157585 0.024095
v 0.118500 -0.183333 0.031824
v 0.116878 -0.179855 0.031824
v 0.115885 -0.176148 0.031824
v 0.115551 -0.172325 0.031824
v 0.115885 -0.168502 0.031824
v 0.116878 -0.164796 0.031824
v 0.118500 -0.161318 0.031824
v 0.120326 -0.178600 0.035546
v 0.119499 -0.175511 0.035546
v 0.119220 -0.172325 0.035546
v 0.119499 -0.169140 0.035546
v 0.120326 -0.166051 0.035546
v 0.123415 -0.189190 0.031824
v 0.120701 -0.186476 0.031824
v 0.126558 -0.191391 0.031824
v 0.130036 -0.193012 0.031824
v 0.133743 -0.194006 0.031824
v 0.137565 -0.194340 0.031824
v 0.120701 -0.158174 0.031824
v 0.123415 -0.155461 0.031824
v 0.126558 -0.153260 0.031824
v 0.130036 -0.151638 0.031824
v 0.133743 -0.150645 0.031824
v 0.137565 -0.150311 0.031824
v 0.141388 -0.194006 0.031824
v 0.145095 -0.193012 0.031824
v 0.148573 -0.191391 0.031824
v 0.151716 -0.189190 0.031824
v 0.154430 -0.186476 0.031824
v 0.156631 -0.183333 0.031824
v 0.158253 -0.179855 0.031824
v 0.159246 -0.176148 0.031824
v 0.159580 -0.172325 0.031824
v 0.141388 -0.150645 0.031824
v 0.145095 -0.151638 0.031824
v 0.148573 -0.153260 0.031824
v 0.159246 -0.168502 0.031824
v 0.158253 -0.164796 0.031824
v 0.156631 -0.161318 0.031824
v 0.151716 -0.155461 0.031824
v 0.154430 -0.158174 0.031824
v 0.123512 -0.184118 0.035546
v 0.125773 -0.186379 0.035546
v 0.128393 -0.188213 0.035546
v 0.121678 -0.181498 0.035546
v 0.130187 -0.178516 0.036977
v 0.129224 -0.177141 0.036977
v 0.128515 -0.175619 0.036977
v 0.128080 -0.173998 0.036977
v 0.127934 -0.172325 0.036977
v 0.131291 -0.189564 0.035546
v 0.134380 -0.190392 0.035546
v 0.137565 -0.190671 0.035546
v 0.132750 -0.180666 0.036977
v 0.131374 -0.179703 0.036977
v 0.134271 -0.181376 0.036977
v 0.135893 -0.181810 0.036977
v 0.137565 -0.181957 0.036977
v 0.139238 -0.181810 0.036977
v 0.137565 -0.172325 0.036977
v 0.121678 -0.163152 0.035546
v 0.123512 -0.160533 0.035546
v 0.128080 -0.170653 0.036977
v 0.128515 -0.169031 0.036977
v 0.129224 -0.167510 0.036977
v 0.130187 -0.166134 0.036977
v 0.125773 -0.158272 0.035546
v 0.128393 -0.156438 0.035546
v 0.131374 -0.164947 0.036977
v 0.132750 -0.163984 0.036977
v 0.134271 -0.163275 0.036977
v 0.135893 -0.162840 0.036977
v 0.137565 -0.162694 0.036977
v 0.139238 -0.162840 0.036977
v 0.131291 -0.155086 0.035546
v 0.134380 -0.154258 0.035546
v 0.137565 -0.153980 0.035546
v 0.140751 -0.190392 0.035546
v 0.143840 -0.189564 0.035546
v 0.146738 -0.188213 0.035546
v 0.149358 -0.186379 0.035546
v 0.140860 -0.181376 0.036977
v 0.142381 -0.180666 0.036977
v 0.143756 -0.179703 0.036977
v 0.144944 -0.178516 0.036977
v 0.145907 -0.177141 0.036977
v 0.146616 -0.175619 0.036977
v 0.147051 -0.173998 0.036977
v 0.147197 -0.172325 0.036977
v 0.151619 -0.184118 0.035546
v 0.153453 -0.181498 0.035546
v 0.154805 -0.178600 0.035546
v 0.155632 -0.175511 0.035546
v 0.155911 -0.172325 0.035546
v 0.143756 -0.164947 0.036977
v 0.144944 -0.166134 0.036977
v 0.140860 -0.163275 0.036977
v 0.142381 -0.163984 0.036977
v 0.146616 -0.169031 0.036977
v 0.147051 -0.170653 0.036977
v 0.145907 -0.167510 0.036977
v 0.140751 -0.154258 0.035546
v 0.143840 -0.155086 0.035546
v 0.146738 -0.156438 0.035546
v 0.149358 -0.158272 0.035546
v 0.154805 -0.166051 0.035546
v 0.151619 -0.160533 0.035546
v 0.153453 -0.163152 0.035546
v 0.155632 -0.169140 0.035546
v 0.118897 0.161547 0.014648
v 0.117309 0.164953 0.014648
v 0.116337 0.168582 0.014648
v 0.116009 0.172325 0.014648
v 0.116337 0.176068 0.014648
v 0.117309 0.179698 0.014648
v 0.118897 0.183103 0.014648
v 0.125144 0.170135 0.008350
v 0.127904 0.164218 0.008350
v 0.129458 0.162663 0.008350
v 0.126643 0.166019 0.008350
v 0.125713 0.168012 0.008350
v 0.131259 0.161402 0.008350
v 0.133252 0.160473 0.008350
v 0.135375 0.159904 0.008350
v 0.137565 0.159713 0.008350
v 0.139756 0.159904 0.008350
v 0.129310 0.158026 0.011213
v 0.123266 0.164070 0.011213
v 0.124917 0.161712 0.011213
v 0.122050 0.166678 0.011213
v 0.121305 0.169458 0.011213
v 0.126952 0.159677 0.011213
v 0.131918 0.156810 0.011213
v 0.134698 0.156065 0.011213
v 0.137565 0.155814 0.011213
v 0.140433 0.156065 0.011213
v 0.124953 0.172325 0.008350
v 0.125144 0.174515 0.008350
v 0.125713 0.176639 0.008350
v 0.126643 0.178632 0.008350
v 0.127904 0.180432 0.008350
v 0.129458 0.181987 0.008350
v 0.137565 0.172325 0.008350
v 0.131259 0.183248 0.008350
v 0.133252 0.184177 0.008350
v 0.135375 0.184746 0.008350
v 0.137565 0.184938 0.008350
v 0.139756 0.184746 0.008350
v 0.121054 0.172325 0.011213
v 0.121305 0.175192 0.011213
v 0.122050 0.177972 0.011213
v 0.123266 0.180581 0.011213
v 0.124917 0.182938 0.011213
v 0.126952 0.184973 0.011213
v 0.129310 0.186624 0.011213
v 0.131918 0.187841 0.011213
v 0.134698 0.188585 0.011213
v 0.137565 0.188836 0.011213
v 0.140433 0.188585 0.011213
v 0.141879 0.160473 0.008350
v 0.143872 0.161402 0.008350
v 0.145673 0.162663 0.008350
v 0.147227 0.164218 0.008350
v 0.148488 0.166019 0.008350
v 0.149417 0.168012 0.008350
v 0.149986 0.170135 0.008350
v 0.143213 0.156810 0.011213
v 0.145821 0.158026 0.011213
v 0.148179 0.159677 0.011213
v 0.150214 0.161712 0.011213
v 0.151864 0.164070 0.011213
v 0.153081 0.166678 0.011213
v 0.153826 0.169458 0.011213
v 0.150178 0.172325 0.008350
v 0.149986 0.174515 0.008350
v 0.149417 0.176639 0.008350
v 0.145673 0.181987 0.008350
v 0.147227 0.180432 0.008350
v 0.148488 0.178632 0.008350
v 0.141879 0.184177 0.008350
v 0.143872 0.183248 0.008350
v 0.150214 0.182938 0.011213
v 0.143213 0.187841 0.011213
v 0.145821 0.186624 0.011213
v 0.148179 0.184973 0.011213
v 0.154076 0.172325 0.011213
v 0.153826 0.175192 0.011213
v 0.151864 0.180581 0.011213
v 0.153081 0.177972 0.011213
v 0.121053 0.158469 0.014648
v 0.123709 0.155812 0.014648
v 0.130193 0.152069 0.014648
v 0.126787 0.153657 0.014648
v 0.133822 0.151097 0.014648
v 0.137565 0.150769 0.014648
v 0.121053 0.186181 0.014648
v 0.123709 0.188838 0.014648
v 0.126787 0.190993 0.014648
v 0.130193 0.192581 0.014648
v 0.133822 0.193554 0.014648
v 0.137565 0.193881 0.014648
v 0.141309 0.151097 0.014648
v 0.144938 0.152069 0.014648
v 0.148343 0.153657 0.014648
v 0.151421 0.155812 0.014648
v 0.154078 0.158469 0.014648
v 0.156234 0.161547 0.014648
v 0.157822 0.164953 0.014648
v 0.158794 0.168582 0.014648
v 0.141309 0.193554 0.014648
v 0.144938 0.192581 0.014648
v 0.148343 0.190993 0.014648
v 0.159122 0.172325 0.014648
v 0.158794 0.176068 0.014648
v 0.157822 0.179698 0.014648
v 0.151421 0.188838 0.014648
v 0.154078 0.186181 0.014648
v 0.156234 0.183103 0.014648
v 0.119999 0.157585 0.024095
v 0.114982 0.168343 0.024095
v 0.117706 0.160859 0.024095
v 0.116016 0.164482 0.024095
v 0.114633 0.172325 0.024095
v 0.114982 0.176307 0.024095
v 0.116016 0.180168 0.024095
v 0.117706 0.183791 0.024095
v 0.119999 0.187066 0.024095
v 0.122825 0.154758 0.024095
v 0.126099 0.152466 0.024095
v 0.129722 0.150776 0.024095
v 0.133583 0.149742 0.024095
v 0.137565 0.149393 0.024095
v 0.122825 0.189892 0.024095
v 0.126099 0.192185 0.024095
v 0.129722 0.193874 0.024095
v 0.133583 0.194909 0.024095
v 0.137565 0.195257 0.024095
v 0.141548 0.149742 0.024095
v 0.145409 0.150776 0.024095
v 0.149031 0.152466 0.024095
v 0.152306 0.154758 0.024095
v 0.155132 0.157585 0.024095
v 0.157425 0.160859 0.024095
v 0.159114 0.164482 0.024095
v 0.160149 0.168343 0.024095
v 0.141548 0.194909 0.024095
v 0.145409 0.193874 0.024095
v 0.149031 0.192185 0.024095
v 0.160497 0.172325 0.024095
v 0.160149 0.176307 0.024095
v 0.159114 0.180168 0.024095
v 0.155132 0.187066 0.024095
v 0.152306 0.189892 0.024095
v 0.157425 0.183791 0.024095
v 0.118500 0.161318 0.031824
v 0.116878 0.164796 0.031824
v 0.115885 0.168502 0.031824
v 0.115551 0.172325 0.031824
v 0.115885 0.176148 0.031824
v 0.116878 0.179855 0.031824
v 0.118500 0.183333 0.031824
v 0.120326 0.166051 0.035546
v 0.119499 0.169140 0.035546
v 0.119220 0.172325 0.035546
v 0.119499 0.175511 0.035546
v 0.120326 0.178600 0.035546
v 0.120701 0.158174 0.031824
v 0.123415 0.155461 0.031824
v 0.130036 0.151638 0.031824
v 0.126558 0.153260 0.031824
v 0.133743 0.150645 0.031824
v 0.137565 0.150311 0.031824
v 0.120701 0.186476 0.031824
v 0.123415 0.189190 0.031824
v 0.126558 0.191391 0.031824
v 0.130036 0.193012 0.031824
v 0.133743 0.194006 0.031824
v 0.137565 0.194340 0.031824
v 0.141388 0.150645 0.031824
v 0.145095 0.151638 0.031824
v 0.148573 0.153260 0.031824
v 0.151716 0.155461 0.031824
v 0.154430 0.158174 0.031824
v 0.156631 0.161318 0.031824
v 0.158253 0.164796 0.031824
v 0.159246 0.168502 0.031824
v 0.141388 0.194006 0.031824
v 0.145095 0.193012 0.031824
v 0.148573 0.191391 0.031824
v 0.159580 0.172325 0.031824
v 0.159246 0.176148 0.031824
v 0.158253 0.179855 0.031824
v 0.154430 0.186476 0.031824
v 0.151716 0.189190 0.031824
v 0.156631 0.183333 0.031824
v 0.125773 0.158272 0.035546
v 0.128393 0.156438 0.035546
v 0.121678 0.163152 0.035546
v 0.123512 0.160533 0.035546
v 0.130187 0.166134 0.036977
v 0.129224 0.167510 0.036977
v 0.128515 0.169031 0.036977
v 0.128080 0.170653 0.036977
v 0.131291 0.155086 0.035546
v 0.134380 0.154258 0.035546
v 0.137565 0.153980 0.035546
v 0.132750 0.163984 0.036977
v 0.134271 0.163275 0.036977
v 0.131374 0.164947 0.036977
v 0.135893 0.162840 0.036977
v 0.137565 0.162694 0.036977
v 0.139238 0.162840 0.036977
v 0.121678 0.181498 0.035546
v 0.127934 0.172325 0.036977
v 0.128080 0.173998 0.036977
v 0.128515 0.175619 0.036977
v 0.129224 0.177141 0.036977
v 0.130187 0.178516 0.036977
v 0.123512 0.184118 0.035546
v 0.125773 0.186379 0.035546
v 0.128393 0.188213 0.035546
v 0.131374 0.179703 0.036977
v 0.132750 0.180666 0.036977
v 0.134271 0.181376 0.036977
v 0.137565 0.172325 0.036977
v 0.135893 0.181810 0.036977
v 0.137565 0.181957 0.036977
v 0.139238 0.181810 0.036977
v 0.131291 0.189564 0.035546
v 0.134380 0.190392 0.035546
v 0.137565 0.190671 0.035546
v 0.140751 0.154258 0.035546
v 0.143840 0.155086 0.035546
v 0.146738 0.156438 0.035546
v 0.149358 0.158272 0.035546
v 0.140860 0.163275 0.036977
v 0.142381 0.163984 0.036977
v 0.143756 0.164947 0.036977
v 0.144944 0.166134 0.036977
v 0.145907 0.167510 0.036977
v 0.146616 0.169031 0.036977
v 0.147051 0.170653 0.036977
v 0.151619 0.160533 0.035546
v 0.153453 0.163152 0.035546
v 0.154805 0.166051 0.035546
v 0.155632 0.169140 0.035546
v 0.140860 0.181376 0.036977
v 0.142381 0.180666 0.036977
v 0.143756 0.179703 0.036977
v 0.144944 0.178516 0.036977
v 0.147197 0.172325 0.036977
v 0.146616 0.175619 0.036977
v 0.147051 0.173998 0.036977
v 0.145907 0.177141 0.036977
v 0.140751 0.190392 0.035546
v 0.143840 0.189564 0.035546
v 0.146738 0.188213 0.035546
v 0.149358 0.186379 0.035546
v 0.154805 0.178600 0.035546
v 0.153453 0.181498 0.035546
v 0.155911 0.172325 0.035546
v 0.155632 0.175511 0.035546
v 0.151619 0.184118 0.035546
g motor
f 783 764 784
f 784 765 802
f 763 764 783
f 764 765 784
f 802 766 803
f 803 767 804
f 765 766 802
f 766 767 803
f 767 768 804
f 768 769 805
f 796 773 774
f 796 774 770
f 773 781 774
f 770 784 790
f 774 783 770
f 771 782 773
f 775 780 772
f 772 785 771
f 778 788 777
f 779 789 778
f 796 776 775
f 796 777 776
f 796 771 773
f 796 772 771
f 796 775 772
f 796 778 777
f 796 779 778
f 796 813 779
f 776 786 775
f 777 787 776
f 782 781 773
f 783 784 770
f 781 783 774
f 785 782 771
f 780 785 772
f 787 786 776
f 788 787 777
f 789 788 778
f 786 780 775
f 796 770 790
f 796 790 791
f 796 791 792
f 796 792 793
f 790 802 791
f 791 803 792
f 792 804 793
f 793 805 794
f 794 806 795
f 795 807 797
f 796 793 794
f 796 794 795
f 796 795 797
f 796 797 798
f 796 798 799
f 796 799 800
f 796 800 801
f 796 801 833
f 797 808 798
f 798 809 799
f 799 810 800
f 800 811 801
f 784 802 790
f 802 803 791
f 803 804 792
f 804 805 793
f 805 806 794
f 806 807 795
f 807 808 797
f 808 809 798
f 809 810 799
f 810 811 800
f 811 812 801
f 796 814 813
f 796 815 814
f 796 816 815
f 796 817 816
f 796 818 817
f 796 819 818
f 813 820 779
f 814 821 813
f 815 822 814
f 816 823 815
f 817 824 816
f 818 825 817
f 819 826 818
f 820 789 779
f 821 820 813
f 822 821 814
f 823 822 815
f 824 823 816
f 825 824 817
f 826 825 818
f 839 826 819
f 796 832 829
f 796 833 834
f 796 834 830
f 796 830 831
f 796 831 832
f 796 827 819
f 796 828 827
f 796 829 828
f 830 838 831
f 832 841 829
f 831 835 832
f 801 812 833
f 833 836 834
f 834 837 830
f 827 839 819
f 828 840 827
f 829 842 828
f 838 835 831
f 835 841 832
f 812 836 833
f 836 837 834
f 837 838 830
f 840 839 827
f 842 840 828
f 841 842 829
f 780 846 785
f 846 844 785
f 845 846 780
f 781 763 783
f 782 843 781
f 785 844 782
f 843 763 781
f 844 843 782
f 786 845 780
f 787 847 786
f 788 848 787
f 789 855 788
f 847 845 786
f 848 847 787
f 855 848 788
f 804 768 805
f 805 769 806
f 806 849 807
f 807 850 808
f 808 851 809
f 769 849 806
f 849 850 807
f 850 851 808
f 851 852 809
f 809 852 810
f 810 853 811
f 811 854 812
f 852 853 810
f 853 854 811
f 854 863 812
f 820 856 789
f 821 857 820
f 822 858 821
f 856 855 789
f 857 856 820
f 858 857 821
f 859 858 822
f 823 859 822
f 824 860 823
f 825 861 824
f 826 862 825
f 860 859 823
f 861 860 824
f 862 861 825
f 866 862 826
f 836 864 837
f 812 863 836
f 837 865 838
f 838 869 835
f 863 864 836
f 865 869 838
f 864 865 837
f 842 868 840
f 841 871 842
f 839 866 826
f 840 867 839
f 867 866 839
f 868 867 840
f 871 868 842
f 835 870 841
f 869 870 835
f 870 871 841
f 843 872 763
f 763 874 764
f 764 875 765
f 765 873 766
f 766 876 767
f 767 877 768
f 768 878 769
f 769 879 849
f 874 875 764
f 872 874 763
f 875 873 765
f 873 876 766
f 876 877 767
f 877 878 768
f 878 879 769
f 879 880 849
f 844 881 843
f 845 883 846
f 846 882 844
f 847 884 845
f 848 885 847
f 855 891 848
f 849 880 850
f 850 886 851
f 851 887 852
f 852 888 853
f 853 889 854
f 854 890 863
f 856 892 855
f 857 893 856
f 858 894 857
f 859 895 858
f 860 896 859
f 861 897 860
f 862 898 861
f 863 899 864
f 864 900 865
f 865 901 869
f 866 902 862
f 867 903 866
f 871 907 868
f 868 904 867
f 869 906 870
f 870 905 871
f 881 872 843
f 882 881 844
f 883 882 846
f 884 883 845
f 885 884 847
f 891 885 848
f 880 886 850
f 886 887 851
f 887 888 852
f 888 889 853
f 889 890 854
f 890 899 863
f 892 891 855
f 893 892 856
f 894 893 857
f 895 894 858
f 896 895 859
f 897 896 860
f 898 897 861
f 902 898 862
f 899 900 864
f 900 901 865
f 903 902 866
f 904 903 867
f 907 904 868
f 906 905 870
f 901 906 869
f 905 907 871
f 873 910 876
f 874 908 875
f 872 920 874
f 875 909 873
f 908 909 875
f 920 908 874
f 909 910 873
f 876 911 877
f 877 912 878
f 878 913 879
f 879 914 880
f 910 911 876
f 911 912 877
f 912 913 878
f 913 914 879
f 914 926 880
f 881 921 872
f 882 923 881
f 883 922 882
f 884 924 883
f 885 925 884
f 891 932 885
f 921 920 872
f 923 921 881
f 922 923 882
f 924 922 883
f 925 924 884
f 932 925 885
f 880 926 886
f 886 927 887
f 887 928 888
f 888 929 889
f 889 930 890
f 890 931 899
f 926 927 886
f 927 928 887
f 928 929 888
f 929 930 889
f 930 931 890
f 931 940 899
f 892 933 891
f 893 934 892
f 894 935 893
f 895 936 894
f 896 937 895
f 897 938 896
f 898 939 897
f 933 932 891
f 934 933 892
f 935 934 893
f 936 935 894
f 937 936 895
f 938 937 896
f 939 938 897
f 943 939 898
f 899 940 900
f 900 941 901
f 901 942 906
f 902 943 898
f 903 944 902
f 907 948 904
f 904 945 903
f 906 947 905
f 905 946 907
f 940 941 900
f 941 942 901
f 944 943 902
f 945 944 903
f 948 945 904
f 947 946 905
f 942 947 906
f 946 948 907
f 908 951 909
f 909 915 910
f 910 916 911
f 911 917 912
f 912 918 913
f 913 919 914
f 914 966 926
f 951 915 909
f 915 916 910
f 916 917 911
f 917 918 912
f 918 919 913
f 919 966 914
f 921 949 920
f 923 950 921
f 922 957 923
f 920 952 908
f 924 958 922
f 925 959 924
f 932 985 925
f 926 972 927
f 927 973 928
f 928 974 929
f 929 982 930
f 930 983 931
f 931 984 940
f 933 986 932
f 934 987 933
f 935 988 934
f 936 996 935
f 937 997 936
f 938 998 937
f 939 999 938
f 940 1008 941
f 941 1009 942
f 942 1010 947
f 943 1014 939
f 944 1015 943
f 945 1012 944
f 948 1013 945
f 947 1011 946
f 946 1016 948
f 950 949 921
f 957 950 923
f 952 951 908
f 949 952 920
f 958 957 922
f 959 958 924
f 985 959 925
f 952 953 951
f 915 955 916
f 916 956 917
f 951 954 915
f 949 962 952
f 950 960 949
f 955 956 916
f 962 953 952
f 960 962 949
f 954 955 915
f 953 954 951
f 957 961 950
f 958 963 957
f 959 964 958
f 985 965 959
f 961 960 950
f 963 961 957
f 978 956 955
f 978 954 953
f 978 955 954
f 978 962 960
f 978 960 961
f 978 953 962
f 964 963 958
f 965 964 959
f 989 965 985
f 978 961 963
f 978 963 964
f 978 964 965
f 978 965 989
f 978 989 990
f 966 972 926
f 972 973 927
f 973 974 928
f 974 982 929
f 982 983 930
f 983 984 931
f 984 1008 940
f 917 967 918
f 918 968 919
f 919 969 966
f 966 970 972
f 972 971 973
f 956 967 917
f 967 968 918
f 968 969 919
f 969 970 966
f 970 971 972
f 971 975 973
f 973 975 974
f 978 967 956
f 978 968 967
f 978 969 968
f 978 970 969
f 978 971 970
f 978 975 971
f 975 976 974
f 978 976 975
f 978 977 976
f 978 979 977
f 978 980 979
f 978 981 980
f 978 1001 1000
f 978 1000 981
f 974 976 982
f 982 977 983
f 983 979 984
f 984 980 1008
f 976 977 982
f 977 979 983
f 979 980 984
f 980 981 1008
f 986 985 932
f 987 986 933
f 988 987 934
f 996 988 935
f 997 996 936
f 998 997 937
f 999 998 938
f 1014 999 939
f 986 989 985
f 987 990 986
f 988 991 987
f 996 992 988
f 997 993 996
f 990 989 986
f 991 990 987
f 978 990 991
f 978 991 992
f 978 992 993
f 978 993 994
f 978 994 995
f 992 991 988
f 993 992 996
f 994 993 997
f 995 994 998
f 1004 995 999
f 998 994 997
f 999 995 998
f 1008 1009 941
f 1010 1011 947
f 1009 1010 942
f 1016 1013 948
f 1015 1014 943
f 1012 1015 944
f 1013 1012 945
f 1011 1016 946
f 1016 1003 1013
f 978 1003 1002
f 978 1007 1003
f 978 995 1004
f 978 1004 1006
f 978 1005 1007
f 978 1006 1005
f 1001 1002 1011
f 978 1002 1001
f 1006 1004 1014
f 1005 1006 1015
f 1002 1003 1016
f 1007 1005 1012
f 1003 1007 1013
f 1008 981 1009
f 1009 1000 1010
f 1010 1001 1011
f 1011 1002 1016
f 981 1000 1009
f 1000 1001 1010
f 1014 1004 999
f 1015 1006 1014
f 1012 1005 1015
f 1013 1007 1012
f 258 263 259
f 259 264 269
f 305 258 259
f 305 261 260
f 305 255 257
f 305 256 255
f 305 257 258
f 305 260 256
f 255 268 257
f 256 267 255
f 257 262 258
f 260 265 256
f 261 266 260
f 285 295 261
f 262 263 258
f 263 264 259
f 295 266 261
f 268 262 257
f 267 268 255
f 265 267 256
f 266 265 260
f 269 277 270
f 270 278 271
f 305 259 269
f 305 269 270
f 305 270 271
f 305 271 272
f 305 272 273
f 305 273 274
f 305 274 275
f 305 275 276
f 271 279 272
f 272 280 273
f 273 281 274
f 274 282 275
f 275 283 276
f 276 284 306
f 264 277 269
f 277 278 270
f 278 279 271
f 279 280 272
f 280 281 273
f 281 282 274
f 282 283 275
f 283 284 276
f 284 317 306
f 286 296 285
f 287 297 286
f 305 285 261
f 305 286 285
f 305 287 286
f 305 288 287
f 305 289 288
f 305 290 289
f 305 291 290
f 305 292 291
f 288 298 287
f 289 299 288
f 305 293 292
f 305 294 293
f 290 300 289
f 291 301 290
f 292 302 291
f 293 303 292
f 294 304 293
f 296 295 285
f 297 296 286
f 298 297 287
f 299 298 288
f 300 299 289
f 301 300 290
f 302 301 291
f 303 302 292
f 304 303 293
f 321 304 294
f 305 276 306
f 305 306 307
f 305 307 308
f 305 309 310
f 305 308 309
f 305 310 312
f 305 312 313
f 305 313 314
f 306 317 307
f 307 318 308
f 308 319 309
f 309 320 310
f 305 315 294
f 305 316 315
f 305 311 316
f 305 314 311
f 312 327 313
f 313 323 314
f 315 321 294
f 311 325 316
f 316 322 315
f 314 324 311
f 310 326 312
f 317 318 307
f 318 319 308
f 319 320 309
f 320 326 310
f 327 323 313
f 322 321 315
f 325 322 316
f 324 325 311
f 323 324 314
f 326 327 312
f 264 331 277
f 262 330 263
f 268 328 262
f 263 332 264
f 330 332 263
f 332 331 264
f 328 330 262
f 329 328 268
f 265 333 267
f 266 334 265
f 295 335 266
f 333 329 267
f 334 333 265
f 335 334 266
f 267 329 268
f 277 336 278
f 278 337 279
f 279 338 280
f 280 339 281
f 331 336 277
f 336 337 278
f 337 338 279
f 338 339 280
f 281 340 282
f 339 340 281
f 340 341 282
f 282 341 283
f 283 342 284
f 284 343 317
f 341 342 283
f 342 343 284
f 343 344 317
f 296 345 295
f 297 346 296
f 298 347 297
f 345 335 295
f 346 345 296
f 347 346 297
f 299 348 298
f 300 349 299
f 348 347 298
f 349 348 299
f 350 349 300
f 301 350 300
f 302 357 301
f 303 358 302
f 357 350 301
f 317 344 318
f 318 351 319
f 320 353 326
f 319 352 320
f 344 351 318
f 351 352 319
f 352 353 320
f 324 363 325
f 326 354 327
f 327 355 323
f 323 356 324
f 354 355 327
f 353 354 326
f 355 356 323
f 356 363 324
f 304 359 303
f 358 357 302
f 359 358 303
f 360 359 304
f 321 360 304
f 322 361 321
f 325 362 322
f 361 360 321
f 362 361 322
f 363 362 325
f 329 365 328
f 330 367 332
f 332 366 331
f 331 368 336
f 328 364 330
f 334 370 333
f 333 369 329
f 335 371 334
f 336 372 337
f 337 373 338
f 338 374 339
f 339 375 340
f 340 376 341
f 341 377 342
f 342 378 343
f 343 379 344
f 345 381 335
f 346 382 345
f 347 383 346
f 348 384 347
f 349 385 348
f 350 391 349
f 344 380 351
f 351 386 352
f 352 387 353
f 353 388 354
f 354 389 355
f 355 390 356
f 365 364 328
f 369 365 329
f 367 366 332
f 364 367 330
f 366 368 331
f 370 369 333
f 371 370 334
f 368 372 336
f 372 373 337
f 373 374 338
f 374 375 339
f 375 376 340
f 376 377 341
f 377 378 342
f 378 379 343
f 379 380 344
f 381 371 335
f 382 381 345
f 383 382 346
f 384 383 347
f 385 384 348
f 391 385 349
f 380 386 351
f 386 387 352
f 387 388 353
f 388 389 354
f 390 398 356
f 389 390 355
f 357 392 350
f 358 393 357
f 359 394 358
f 360 396 359
f 361 397 360
f 363 399 362
f 362 395 361
f 356 398 363
f 392 391 350
f 393 392 357
f 394 393 358
f 396 394 359
f 395 397 361
f 399 395 362
f 397 396 360
f 398 399 363
f 365 401 364
f 364 400 367
f 367 402 366
f 366 403 368
f 368 404 372
f 370 406 369
f 369 405 365
f 371 407 370
f 401 400 364
f 405 401 365
f 402 403 366
f 400 402 367
f 403 404 368
f 406 405 369
f 407 406 370
f 372 408 373
f 373 409 374
f 374 410 375
f 375 411 376
f 376 412 377
f 377 413 378
f 378 414 379
f 379 415 380
f 404 408 372
f 408 409 373
f 409 410 374
f 410 411 375
f 411 412 376
f 412 413 377
f 413 414 378
f 414 415 379
f 415 416 380
f 381 417 371
f 382 418 381
f 383 419 382
f 384 420 383
f 385 421 384
f 391 422 385
f 417 407 371
f 418 417 381
f 419 418 382
f 420 419 383
f 421 420 384
f 422 421 385
f 380 416 386
f 386 423 387
f 387 424 388
f 388 425 389
f 390 428 398
f 389 426 390
f 416 423 386
f 423 424 387
f 424 425 388
f 425 426 389
f 428 427 398
f 426 428 390
f 392 497 391
f 393 498 392
f 394 499 393
f 497 422 391
f 498 497 392
f 499 498 393
f 500 499 394
f 395 502 397
f 399 503 395
f 396 500 394
f 397 501 396
f 398 427 399
f 502 501 397
f 503 502 395
f 501 500 396
f 427 503 399
f 401 433 400
f 402 430 403
f 404 429 408
f 403 432 404
f 400 431 402
f 405 434 401
f 406 435 405
f 407 436 406
f 408 444 409
f 409 445 410
f 410 446 411
f 411 447 412
f 412 448 413
f 413 457 414
f 414 458 415
f 415 459 416
f 417 461 407
f 418 462 417
f 419 463 418
f 420 470 419
f 421 471 420
f 422 472 421
f 416 460 423
f 423 485 424
f 424 486 425
f 425 487 426
f 426 494 428
f 428 495 427
f 427 496 503
f 430 432 403
f 432 429 404
f 431 430 402
f 433 431 400
f 434 433 401
f 435 434 405
f 436 435 406
f 430 437 432
f 432 439 429
f 429 438 444
f 435 441 434
f 436 464 435
f 433 443 431
f 431 442 430
f 434 440 433
f 443 442 431
f 442 437 430
f 437 439 432
f 439 438 429
f 441 440 434
f 440 443 433
f 464 441 435
f 478 438 439
f 478 439 437
f 478 443 440
f 478 437 442
f 478 442 443
f 429 444 408
f 444 445 409
f 445 446 410
f 446 447 411
f 447 448 412
f 448 457 413
f 457 458 414
f 458 459 415
f 459 460 416
f 444 449 445
f 445 450 446
f 446 451 447
f 447 452 448
f 448 453 457
f 438 449 444
f 449 450 445
f 450 451 446
f 451 452 447
f 452 453 448
f 453 454 457
f 478 449 438
f 478 450 449
f 478 451 450
f 478 452 451
f 478 453 452
f 478 454 453
f 454 455 458
f 478 455 454
f 457 454 458
f 458 455 459
f 459 456 460
f 455 456 459
f 461 436 407
f 462 461 417
f 463 462 418
f 470 463 419
f 471 470 420
f 472 471 421
f 473 472 422
f 461 465 436
f 462 466 461
f 463 467 462
f 470 468 463
f 465 464 436
f 466 465 461
f 478 441 464
f 478 440 441
f 478 464 465
f 478 465 466
f 478 466 467
f 467 466 462
f 468 467 463
f 469 468 470
f 478 467 468
f 478 468 469
f 478 469 474
f 478 474 475
f 478 475 476
f 478 476 477
f 471 469 470
f 472 474 471
f 473 475 472
f 504 476 473
f 505 477 504
f 474 469 471
f 475 474 472
f 476 475 473
f 477 476 504
f 489 477 505
f 460 485 423
f 485 486 424
f 486 487 425
f 496 488 503
f 494 495 428
f 487 494 426
f 495 496 427
f 478 456 455
f 478 479 456
f 478 480 479
f 478 481 480
f 478 482 481
f 478 493 483
f 478 477 489
f 478 489 490
f 478 491 492
f 478 492 493
f 478 490 491
f 478 484 482
f 478 483 484
f 460 479 485
f 485 480 486
f 486 481 487
f 487 482 494
f 456 479 460
f 479 480 485
f 480 481 486
f 481 482 487
f 482 484 494
f 506 489 505
f 507 490 506
f 508 491 507
f 488 492 508
f 496 493 488
f 484 483 495
f 483 493 496
f 493 492 488
f 492 491 508
f 490 489 506
f 491 490 507
f 494 484 495
f 495 483 496
f 497 473 422
f 498 504 497
f 499 505 498
f 500 506 499
f 501 507 500
f 503 488 502
f 502 508 501
f 504 473 497
f 505 504 498
f 506 505 499
f 507 506 500
f 508 507 501
f 488 508 502
f 6 9 7
f 7 11 8
f 8 12 17
f 1 14 5
f 2 15 1
f 31 43 2
f 36 6 7
f 36 7 8
f 36 8 17
f 36 4 3
f 36 5 4
f 36 1 5
f 36 2 1
f 36 3 6
f 4 16 3
f 3 10 6
f 5 13 4
f 10 9 6
f 9 11 7
f 11 12 8
f 14 13 5
f 15 14 1
f 43 15 2
f 16 10 3
f 13 16 4
f 17 24 18
f 36 17 18
f 36 18 19
f 36 19 20
f 36 20 21
f 36 21 22
f 36 22 23
f 18 25 19
f 19 26 20
f 20 27 21
f 21 28 22
f 22 29 23
f 23 30 54
f 12 24 17
f 24 25 18
f 25 26 19
f 26 27 20
f 27 28 21
f 28 29 22
f 29 30 23
f 30 64 54
f 32 44 31
f 33 45 32
f 34 46 33
f 35 47 34
f 36 31 2
f 36 32 31
f 36 33 32
f 36 34 33
f 36 35 34
f 36 37 35
f 36 38 37
f 36 39 38
f 37 48 35
f 36 40 39
f 36 41 40
f 36 42 41
f 36 63 42
f 38 49 37
f 39 50 38
f 40 51 39
f 41 52 40
f 42 53 41
f 44 43 31
f 45 44 32
f 46 45 33
f 47 46 34
f 48 47 35
f 49 48 37
f 50 49 38
f 51 50 39
f 52 51 40
f 53 52 41
f 69 53 42
f 36 23 54
f 36 54 55
f 36 55 56
f 36 58 61
f 36 61 62
f 36 62 60
f 36 56 57
f 36 57 58
f 56 66 57
f 57 67 58
f 54 64 55
f 55 65 56
f 36 59 63
f 36 60 59
f 61 68 62
f 58 73 61
f 62 71 60
f 59 70 63
f 63 69 42
f 60 72 59
f 67 73 58
f 64 65 55
f 65 66 56
f 66 67 57
f 73 68 61
f 68 71 62
f 72 70 59
f 70 69 63
f 71 72 60
f 16 75 10
f 75 74 10
f 76 75 16
f 11 78 12
f 12 79 24
f 10 74 9
f 9 77 11
f 74 77 9
f 77 78 11
f 78 79 12
f 13 76 16
f 14 80 13
f 43 82 15
f 15 81 14
f 81 80 14
f 80 76 13
f 82 81 15
f 24 83 25
f 25 84 26
f 26 85 27
f 27 86 28
f 79 83 24
f 83 84 25
f 84 85 26
f 85 86 27
f 86 87 28
f 28 87 29
f 29 88 30
f 30 89 64
f 87 88 29
f 88 89 30
f 89 90 64
f 44 91 43
f 45 92 44
f 46 93 45
f 91 82 43
f 92 91 44
f 93 92 45
f 47 94 46
f 48 95 47
f 49 96 48
f 94 93 46
f 95 94 47
f 96 95 48
f 103 96 49
f 50 103 49
f 51 104 50
f 64 90 65
f 65 97 66
f 66 98 67
f 67 100 73
f 90 97 65
f 97 98 66
f 98 100 67
f 68 101 71
f 71 102 72
f 72 109 70
f 101 102 71
f 102 109 72
f 73 99 68
f 100 99 73
f 99 101 68
f 52 105 51
f 53 106 52
f 104 103 50
f 105 104 51
f 106 105 52
f 107 106 53
f 69 107 53
f 70 108 69
f 108 107 69
f 109 108 70
f 75 112 74
f 76 111 75
f 77 113 78
f 74 110 77
f 78 114 79
f 79 115 83
f 80 116 76
f 81 117 80
f 82 118 81
f 83 119 84
f 84 120 85
f 85 121 86
f 86 122 87
f 87 123 88
f 88 124 89
f 89 125 90
f 91 127 82
f 92 128 91
f 93 129 92
f 94 130 93
f 95 131 94
f 96 137 95
f 90 126 97
f 97 132 98
f 98 133 100
f 99 135 101
f 100 134 99
f 101 136 102
f 112 110 74
f 116 111 76
f 111 112 75
f 110 113 77
f 113 114 78
f 114 115 79
f 117 116 80
f 118 117 81
f 115 119 83
f 119 120 84
f 120 121 85
f 121 122 86
f 122 123 87
f 123 124 88
f 124 125 89
f 125 126 90
f 127 118 82
f 128 127 91
f 129 128 92
f 130 129 93
f 131 130 94
f 137 131 95
f 126 132 97
f 132 133 98
f 133 134 100
f 134 135 99
f 135 136 101
f 136 145 102
f 103 138 96
f 104 139 103
f 105 140 104
f 106 141 105
f 107 144 106
f 108 142 107
f 109 143 108
f 102 145 109
f 138 137 96
f 139 138 103
f 140 139 104
f 141 140 105
f 144 141 106
f 142 144 107
f 145 143 109
f 143 142 108
f 112 148 110
f 111 147 112
f 113 149 114
f 110 146 113
f 114 150 115
f 115 151 119
f 116 152 111
f 117 153 116
f 118 154 117
f 148 146 110
f 152 147 111
f 147 148 112
f 146 149 113
f 149 150 114
f 150 151 115
f 153 152 116
f 154 153 117
f 119 155 120
f 120 156 121
f 121 157 122
f 122 158 123
f 123 159 124
f 124 160 125
f 125 161 126
f 151 155 119
f 155 156 120
f 156 157 121
f 157 158 122
f 158 159 123
f 159 160 124
f 160 161 125
f 161 162 126
f 127 163 118
f 128 164 127
f 129 165 128
f 130 166 129
f 131 167 130
f 137 168 131
f 163 154 118
f 164 163 127
f 165 164 128
f 166 165 129
f 167 166 130
f 168 167 131
f 126 162 132
f 132 169 133
f 133 170 134
f 134 172 135
f 135 171 136
f 136 173 145
f 162 169 132
f 169 170 133
f 170 172 134
f 172 171 135
f 171 173 136
f 173 174 145
f 138 243 137
f 139 244 138
f 140 245 139
f 141 246 140
f 243 168 137
f 244 243 138
f 245 244 139
f 246 245 140
f 247 246 141
f 142 248 144
f 145 174 143
f 143 249 142
f 144 247 141
f 248 247 144
f 174 249 143
f 249 248 142
f 148 175 146
f 147 180 148
f 146 178 149
f 149 179 150
f 150 176 151
f 151 177 155
f 152 181 147
f 153 182 152
f 154 183 153
f 155 192 156
f 156 193 157
f 157 194 158
f 158 195 159
f 159 203 160
f 160 204 161
f 161 205 162
f 163 207 154
f 164 208 163
f 165 209 164
f 166 217 165
f 167 218 166
f 168 219 167
f 162 206 169
f 169 232 170
f 170 233 172
f 174 235 249
f 172 234 171
f 171 241 173
f 173 242 174
f 180 175 148
f 178 179 149
f 179 176 150
f 176 177 151
f 175 178 146
f 182 181 152
f 181 180 147
f 183 182 153
f 178 184 179
f 179 186 176
f 176 185 177
f 177 187 192
f 180 189 175
f 181 190 180
f 182 191 181
f 183 210 182
f 191 190 181
f 210 191 182
f 175 188 178
f 188 184 178
f 184 186 179
f 189 188 175
f 186 185 176
f 185 187 177
f 190 189 180
f 213 189 190
f 213 185 186
f 213 186 184
f 213 187 185
f 213 196 187
f 213 184 188
f 213 188 189
f 177 192 155
f 192 193 156
f 193 194 157
f 194 195 158
f 195 203 159
f 203 204 160
f 204 205 161
f 205 206 162
f 192 196 193
f 193 197 194
f 194 198 195
f 195 199 203
f 203 200 204
f 187 196 192
f 196 197 193
f 197 198 194
f 198 199 195
f 199 200 203
f 213 197 196
f 213 198 197
f 213 199 198
f 213 200 199
f 213 201 200
f 200 201 204
f 201 202 205
f 204 201 205
f 205 202 206
f 207 183 154
f 208 207 163
f 209 208 164
f 217 209 165
f 218 217 166
f 219 218 167
f 220 219 168
f 207 211 183
f 208 212 207
f 209 214 208
f 217 215 209
f 211 210 183
f 212 211 207
f 214 212 208
f 215 214 209
f 213 191 210
f 213 190 191
f 213 210 211
f 213 211 212
f 213 212 214
f 216 215 217
f 213 214 215
f 213 215 216
f 213 216 221
f 213 221 222
f 213 222 223
f 213 223 224
f 213 224 225
f 213 225 237
f 218 216 217
f 219 221 218
f 220 222 219
f 250 223 220
f 251 224 250
f 252 225 251
f 221 216 218
f 222 221 219
f 223 222 220
f 224 223 250
f 225 224 251
f 237 225 252
f 206 232 169
f 232 233 170
f 233 234 172
f 242 235 174
f 235 236 249
f 234 241 171
f 241 242 173
f 213 202 201
f 213 226 202
f 213 227 226
f 213 228 227
f 213 230 228
f 202 226 206
f 226 227 232
f 227 228 233
f 213 240 229
f 213 231 230
f 213 229 231
f 213 238 239
f 213 239 240
f 213 237 238
f 228 230 234
f 230 231 241
f 206 226 232
f 232 227 233
f 233 228 234
f 234 230 241
f 241 231 242
f 242 229 235
f 236 239 254
f 253 237 252
f 254 238 253
f 235 240 236
f 240 239 236
f 239 238 254
f 231 229 242
f 229 240 235
f 238 237 253
f 243 220 168
f 244 250 243
f 245 251 244
f 246 252 245
f 247 253 246
f 248 254 247
f 249 236 248
f 250 220 243
f 251 250 244
f 252 251 245
f 253 252 246
f 254 253 247
f 236 254 248
f 530 510 533
f 533 511 534
f 534 512 549
f 509 510 530
f 510 511 533
f 511 512 534
f 549 513 550
f 512 513 549
f 513 514 550
f 514 515 551
f 522 529 520
f 527 518 521
f 527 521 516
f 527 516 517
f 527 517 539
f 518 531 521
f 516 533 517
f 521 530 516
f 517 534 539
f 519 532 518
f 520 528 519
f 523 535 522
f 524 536 523
f 525 537 524
f 526 538 525
f 527 519 518
f 527 520 519
f 527 522 520
f 527 524 523
f 527 523 522
f 527 525 524
f 527 526 525
f 527 559 526
f 529 528 520
f 532 531 518
f 531 530 521
f 530 533 516
f 533 534 517
f 528 532 519
f 535 529 522
f 536 535 523
f 537 536 524
f 538 537 525
f 527 539 540
f 527 540 541
f 539 549 540
f 540 550 541
f 541 551 542
f 542 552 543
f 543 553 544
f 527 541 542
f 527 542 543
f 527 543 544
f 527 544 545
f 527 545 546
f 527 546 547
f 527 547 548
f 527 548 575
f 544 554 545
f 545 555 546
f 546 556 547
f 547 557 548
f 534 549 539
f 549 550 540
f 550 551 541
f 551 552 542
f 552 553 543
f 553 554 544
f 554 555 545
f 555 556 546
f 556 557 547
f 557 558 548
f 559 567 526
f 560 568 559
f 561 569 560
f 527 560 559
f 527 561 560
f 527 562 561
f 527 563 562
f 527 564 563
f 527 565 564
f 527 566 565
f 527 577 566
f 562 570 561
f 563 571 562
f 564 572 563
f 565 573 564
f 566 574 565
f 567 538 526
f 568 567 559
f 569 568 560
f 570 569 561
f 571 570 562
f 572 571 563
f 573 572 564
f 574 573 565
f 586 574 566
f 527 576 580
f 527 579 578
f 527 580 581
f 527 581 579
f 527 575 576
f 527 578 577
f 548 558 575
f 575 584 576
f 576 585 580
f 579 588 578
f 580 583 581
f 581 582 579
f 577 586 566
f 578 587 577
f 584 585 576
f 585 583 580
f 583 582 581
f 582 588 579
f 558 584 575
f 587 586 577
f 588 587 578
f 532 589 531
f 528 590 532
f 529 591 528
f 589 509 531
f 590 589 532
f 592 591 529
f 591 590 528
f 531 509 530
f 536 593 535
f 535 592 529
f 537 594 536
f 538 601 537
f 593 592 535
f 594 593 536
f 601 594 537
f 550 514 551
f 551 515 552
f 552 595 553
f 515 595 552
f 553 596 554
f 554 597 555
f 595 596 553
f 596 597 554
f 597 598 555
f 555 598 556
f 556 599 557
f 557 600 558
f 598 599 556
f 599 600 557
f 600 610 558
f 567 602 538
f 568 603 567
f 569 604 568
f 602 601 538
f 603 602 567
f 604 603 568
f 570 605 569
f 605 604 569
f 606 605 570
f 571 606 570
f 572 607 571
f 573 608 572
f 574 609 573
f 607 606 571
f 608 607 572
f 609 608 573
f 614 609 574
f 583 616 582
f 558 610 584
f 584 611 585
f 585 612 583
f 610 611 584
f 611 612 585
f 612 616 583
f 587 613 586
f 582 617 588
f 588 615 587
f 586 614 574
f 616 617 582
f 617 615 588
f 613 614 586
f 615 613 587
f 589 619 509
f 510 622 511
f 509 618 510
f 511 620 512
f 512 621 513
f 513 623 514
f 514 624 515
f 515 625 595
f 619 618 509
f 620 621 512
f 618 622 510
f 622 620 511
f 621 623 513
f 623 624 514
f 624 625 515
f 625 626 595
f 590 627 589
f 591 628 590
f 592 629 591
f 593 630 592
f 594 631 593
f 601 637 594
f 595 626 596
f 596 632 597
f 597 633 598
f 598 634 599
f 599 635 600
f 600 636 610
f 602 638 601
f 603 639 602
f 604 640 603
f 605 641 604
f 606 642 605
f 607 643 606
f 608 644 607
f 609 645 608
f 610 646 611
f 612 648 616
f 611 647 612
f 617 653 615
f 614 649 609
f 613 651 614
f 615 650 613
f 616 652 617
f 628 627 590
f 627 619 589
f 629 628 591
f 630 629 592
f 631 630 593
f 637 631 594
f 626 632 596
f 632 633 597
f 633 634 598
f 634 635 599
f 635 636 600
f 636 646 610
f 638 637 601
f 639 638 602
f 640 639 603
f 641 640 604
f 642 641 605
f 643 642 606
f 644 643 607
f 645 644 608
f 649 645 609
f 646 647 611
f 647 648 612
f 651 649 614
f 653 650 615
f 650 651 613
f 648 652 616
f 652 653 617
f 619 667 618
f 620 656 621
f 621 657 623
f 618 654 622
f 622 655 620
f 667 654 618
f 656 657 621
f 654 655 622
f 655 656 620
f 623 658 624
f 624 659 625
f 625 660 626
f 657 658 623
f 658 659 624
f 659 660 625
f 660 672 626
f 628 668 627
f 627 666 619
f 629 669 628
f 630 670 629
f 631 671 630
f 637 678 631
f 668 666 627
f 666 667 619
f 669 668 628
f 670 669 629
f 671 670 630
f 678 671 631
f 626 672 632
f 632 673 633
f 633 674 634
f 634 675 635
f 635 676 636
f 636 677 646
f 672 673 632
f 673 674 633
f 674 675 634
f 675 676 635
f 676 677 636
f 677 687 646
f 638 679 637
f 639 680 638
f 640 681 639
f 641 682 640
f 642 683 641
f 643 684 642
f 644 685 643
f 645 686 644
f 679 678 637
f 680 679 638
f 681 680 639
f 682 681 640
f 683 682 641
f 684 683 642
f 685 684 643
f 686 685 644
f 690 686 645
f 646 687 647
f 648 689 652
f 647 688 648
f 649 690 645
f 651 691 649
f 650 692 651
f 653 694 650
f 652 693 653
f 687 688 647
f 688 689 648
f 691 690 649
f 694 692 650
f 692 691 651
f 689 693 652
f 693 694 653
f 655 661 656
f 654 698 655
f 656 662 657
f 657 663 658
f 658 664 659
f 659 665 660
f 660 714 672
f 698 661 655
f 661 662 656
f 662 663 657
f 663 664 658
f 664 665 659
f 665 714 660
f 667 695 654
f 666 696 667
f 668 697 666
f 669 704 668
f 670 705 669
f 671 706 670
f 678 731 671
f 672 715 673
f 673 720 674
f 674 721 675
f 675 728 676
f 676 729 677
f 677 730 687
f 679 732 678
f 680 733 679
f 681 734 680
f 682 743 681
f 683 744 682
f 684 745 683
f 685 746 684
f 686 747 685
f 687 755 688
f 688 756 689
f 689 757 693
f 694 760 692
f 691 759 690
f 690 762 686
f 692 761 691
f 693 758 694
f 696 695 667
f 704 697 668
f 697 696 666
f 695 698 654
f 705 704 669
f 706 705 670
f 731 706 671
f 696 708 695
f 697 707 696
f 695 699 698
f 698 700 661
f 661 701 662
f 662 702 663
f 663 703 664
f 701 702 662
f 702 703 663
f 700 701 661
f 699 700 698
f 708 699 695
f 707 708 696
f 704 709 697
f 705 710 704
f 706 711 705
f 731 712 706
f 709 707 697
f 710 709 704
f 711 710 705
f 712 711 706
f 735 712 731
f 713 708 707
f 713 707 709
f 713 702 701
f 713 700 699
f 713 701 700
f 713 703 702
f 713 716 703
f 713 699 708
f 713 709 710
f 713 710 711
f 713 711 712
f 713 712 735
f 713 735 736
f 714 715 672
f 715 720 673
f 720 721 674
f 721 728 675
f 728 729 676
f 729 730 677
f 730 755 687
f 664 716 665
f 665 717 714
f 714 718 715
f 715 719 720
f 720 722 721
f 703 716 664
f 716 717 665
f 717 718 714
f 718 719 715
f 719 722 720
f 713 717 716
f 713 718 717
f 713 719 718
f 713 722 719
f 713 723 722
f 713 724 723
f 722 723 721
f 723 724 728
f 724 725 729
f 713 725 724
f 713 726 725
f 713 727 726
f 713 751 750
f 713 750 727
f 725 726 730
f 726 727 755
f 721 723 728
f 728 724 729
f 729 725 730
f 730 726 755
f 732 731 678
f 733 732 679
f 734 733 680
f 743 734 681
f 744 743 682
f 745 744 683
f 746 745 684
f 747 746 685
f 762 747 686
f 732 735 731
f 733 736 732
f 734 737 733
f 736 735 732
f 743 738 734
f 744 739 743
f 737 736 733
f 713 736 737
f 713 737 738
f 713 738 739
f 713 739 740
f 713 740 741
f 713 741 742
f 713 742 753
f 738 737 734
f 739 738 743
f 740 739 744
f 741 740 745
f 742 741 746
f 753 742 747
f 745 740 744
f 746 741 745
f 747 742 746
f 755 756 688
f 756 757 689
f 757 758 693
f 758 760 694
f 760 761 692
f 759 762 690
f 761 759 691
f 757 751 758
f 760 749 761
f 758 748 760
f 713 749 748
f 713 754 749
f 713 748 751
f 713 752 754
f 713 753 752
f 727 750 756
f 751 748 758
f 750 751 757
f 752 753 762
f 754 752 759
f 749 754 761
f 748 749 760
f 755 727 756
f 756 750 757
f 762 753 747
f 759 752 762
f 761 754 759
