v -0.078083 0.026138 0.021302
v -0.078083 0.025355 0.023818
v -0.078083 0.023683 0.025283
v -0.078083 0.021743 0.026058
v -0.078083 0.019758 0.026540
v -0.078083 0.017761 0.026870
v -0.078083 0.015759 0.027100
v -0.078083 0.013753 0.027262
v -0.078083 0.011747 0.027376
v -0.078083 0.009739 0.027453
v -0.078083 0.007731 0.027499
v -0.078083 0.005723 0.027525
v -0.078083 0.003715 0.027536
v -0.078083 0.001707 0.027544
v -0.078083 -0.000301 0.027547
v -0.078083 -0.002309 0.027542
v -0.078083 -0.004317 0.027534
v -0.078083 -0.006325 0.027519
v -0.078083 -0.008333 0.027487
v -0.078083 -0.010341 0.027433
v -0.078083 -0.012348 0.027343
v -0.078083 -0.014355 0.027216
v -0.078083 -0.016360 0.027036
v -0.078083 -0.018361 0.026778
v -0.078083 -0.020357 0.026411
v -0.078083 -0.022341 0.025865
v -0.078083 -0.024247 0.024919
v -0.078083 -0.025706 0.023105
v -0.078083 -0.026138 0.020368
v -0.078083 -0.025355 0.017852
v -0.078083 -0.023683 0.016387
v -0.078083 -0.021743 0.015612
v -0.078083 -0.019758 0.015130
v -0.078083 -0.017761 0.014800
v -0.078083 -0.015759 0.014570
v -0.078083 -0.013753 0.014409
v -0.078083 -0.011747 0.014294
v -0.078083 -0.009739 0.014217
v -0.078083 -0.007731 0.014171
v -0.078083 -0.005723 0.014145
v -0.078083 -0.003715 0.014134
v -0.078083 -0.001707 0.014126
v -0.078083 0.000301 0.014123
v -0.078083 0.002309 0.014129
v -0.078083 0.004317 0.014136
v -0.078083 0.006325 0.014151
v -0.078083 0.008333 0.014183
v -0.078083 0.010341 0.014238
v -0.078083 0.012348 0.014327
v -0.078083 0.014355 0.014454
v -0.078083 0.016360 0.014635
v -0.078083 0.018361 0.014892
v -0.078083 0.020357 0.015259
v -0.078083 0.022341 0.015806
v -0.078083 0.024247 0.016752
v -0.078083 0.025706 0.018566
v -0.073113 0.033813 0.020964
v -0.073113 0.033072 0.024497
v -0.073113 0.031065 0.026748
v -0.073113 0.028584 0.027954
v -0.073113 0.026013 0.028679
v -0.073113 0.023421 0.029173
v -0.073113 0.020819 0.029518
v -0.073113 0.018213 0.029760
v -0.073113 0.015604 0.029930
v -0.073113 0.012995 0.030047
v -0.073113 0.010384 0.030116
v -0.073113 0.007773 0.030157
v -0.073113 0.005162 0.030174
v -0.073113 0.002551 0.030185
v -0.073113 -0.000060 0.030191
v -0.073113 -0.002671 0.030184
v -0.073113 -0.005282 0.030173
v -0.073113 -0.007893 0.030154
v -0.073113 -0.010503 0.030112
v -0.073113 -0.013114 0.030039
v -0.073113 -0.015724 0.029918
v -0.073113 -0.018332 0.029742
v -0.073113 -0.020938 0.029494
v -0.073113 -0.023539 0.029139
v -0.073113 -0.026131 0.028633
v -0.073113 -0.028701 0.027880
v -0.073113 -0.031165 0.026609
v -0.073113 -0.033105 0.024276
v -0.073113 -0.033813 0.020706
v -0.073113 -0.033072 0.017173
v -0.073113 -0.031065 0.014922
v -0.073113 -0.028584 0.013717
v -0.073113 -0.026013 0.012991
v -0.073113 -0.023421 0.012497
v -0.073113 -0.020819 0.012152
v -0.073113 -0.018213 0.011911
v -0.073113 -0.015604 0.011740
v -0.073113 -0.012995 0.011624
v -0.073113 -0.010384 0.011554
v -0.073113 -0.007773 0.011514
v -0.073113 -0.005162 0.011497
v -0.073113 -0.002551 0.011486
v -0.073113 0.000060 0.011480
v -0.073113 0.002671 0.011486
v -0.073113 0.005282 0.011497
v -0.073113 0.007893 0.011516
v -0.073113 0.010503 0.011559
v -0.073113 0.013114 0.011631
v -0.073113 0.015724 0.011753
v -0.073113 0.018332 0.011928
v -0.073113 0.020938 0.012177
v -0.073113 0.023539 0.012531
v -0.073113 0.026131 0.013037
v -0.073113 0.028701 0.013790
v -0.073113 0.031165 0.015062
v -0.073113 0.033105 0.017395
v -0.066551 0.038765 0.020940
v -0.066551 0.037979 0.025141
v -0.066551 0.035758 0.027928
v -0.066551 0.032934 0.029466
v -0.066551 0.029982 0.030386
v -0.066551 0.026999 0.031008
v -0.066551 0.024004 0.031443
v -0.066551 0.021001 0.031748
v -0.066551 0.017996 0.031963
v -0.066551 0.014989 0.032110
v -0.066551 0.011981 0.032196
v -0.066551 0.008972 0.032248
v -0.066551 0.005964 0.032269
v -0.066551 0.002955 0.032283
v -0.066551 -0.000054 0.032291
v -0.066551 -0.003062 0.032282
v -0.066551 -0.006071 0.032269
v -0.066551 -0.009079 0.032246
v -0.066551 -0.012088 0.032193
v -0.066551 -0.015096 0.032104
v -0.066551 -0.018103 0.031952
v -0.066551 -0.021108 0.031733
v -0.066551 -0.024110 0.031422
v -0.066551 -0.027105 0.030979
v -0.066551 -0.030087 0.030346
v -0.066551 -0.033039 0.029401
v -0.066551 -0.035844 0.027806
v -0.066551 -0.038008 0.024957
v -0.066551 -0.038765 0.020731
v -0.066551 -0.037979 0.016529
v -0.066551 -0.035758 0.013743
v -0.066551 -0.032934 0.012204
v -0.066551 -0.029982 0.011284
v -0.066551 -0.026999 0.010663
v -0.066551 -0.024004 0.010228
v -0.066551 -0.021001 0.009923
v -0.066551 -0.017996 0.009707
v -0.066551 -0.014989 0.009560
v -0.066551 -0.011981 0.009474
v -0.066551 -0.008972 0.009423
v -0.066551 -0.005964 0.009401
v -0.066551 -0.002955 0.009387
v -0.066551 0.000054 0.009380
v -0.066551 0.003062 0.009388
v -0.066551 0.006071 0.009402
v -0.066551 0.009079 0.009425
v -0.066551 0.012088 0.009477
v -0.066551 0.015096 0.009567
v -0.066551 0.018103 0.009718
v -0.066551 0.021108 0.009938
v -0.066551 0.024110 0.010249
v -0.066551 0.027105 0.010692
v -0.066551 0.030087 0.011324
v -0.066551 0.033039 0.012269
v -0.066551 0.035844 0.013865
v -0.066551 0.038008 0.016713
v -0.059996 0.042959 0.020925
v -0.059996 0.042127 0.025678
v -0.059996 0.039724 0.028905
v -0.059996 0.036612 0.030721
v -0.059996 0.033337 0.031804
v -0.059996 0.030024 0.032533
v -0.059996 0.026695 0.033043
v -0.059996 0.023358 0.033401
v -0.059996 0.020017 0.033654
v -0.059996 0.016673 0.033827
v -0.059996 0.013329 0.033928
v -0.059996 0.009984 0.033988
v -0.059996 0.006639 0.034013
v -0.059996 0.003294 0.034029
v -0.059996 -0.000051 0.034038
v -0.059996 -0.003397 0.034028
v -0.059996 -0.006742 0.034013
v -0.059996 -0.010087 0.033986
v -0.059996 -0.013432 0.033925
v -0.059996 -0.016776 0.033821
v -0.059996 -0.020119 0.033645
v -0.059996 -0.023460 0.033389
v -0.059996 -0.026797 0.033025
v -0.059996 -0.030126 0.032508
v -0.059996 -0.033439 0.031769
v -0.059996 -0.036713 0.030665
v -0.059996 -0.039805 0.028797
v -0.059996 -0.042160 0.025518
v -0.059996 -0.042959 0.020746
v -0.059996 -0.042127 0.015992
v -0.059996 -0.039724 0.012765
v -0.059996 -0.036612 0.010949
v -0.059996 -0.033337 0.009867
v -0.059996 -0.030024 0.009138
v -0.059996 -0.026695 0.008627
v -0.059996 -0.023358 0.008269
v -0.059996 -0.020017 0.008016
v -0.059996 -0.016673 0.007844
v -0.059996 -0.013329 0.007743
v -0.059996 -0.009984 0.007683
v -0.059996 -0.006639 0.007657
v -0.059996 -0.003294 0.007641
v -0.059996 0.000051 0.007632
v -0.059996 0.003397 0.007642
v -0.059996 0.006742 0.007658
v -0.059996 0.010087 0.007684
v -0.059996 0.013432 0.007746
v -0.059996 0.016776 0.007849
v -0.059996 0.020119 0.008025
v -0.059996 0.023460 0.008282
v -0.059996 0.026797 0.008645
v -0.059996 0.030126 0.009163
v -0.059996 0.033439 0.009901
v -0.059996 0.036713 0.011006
v -0.059996 0.039805 0.012873
v -0.059996 0.042160 0.016153
v -0.053477 0.046446 0.020905
v -0.053477 0.045573 0.026099
v -0.053477 0.043024 0.029689
v -0.053477 0.039676 0.031734
v -0.053477 0.036133 0.032949
v -0.053477 0.032545 0.033766
v -0.053477 0.028939 0.034338
v -0.053477 0.025324 0.034739
v -0.053477 0.021704 0.035022
v -0.053477 0.018081 0.035216
v -0.053477 0.014457 0.035329
v -0.053477 0.010833 0.035396
v -0.053477 0.007208 0.035425
v -0.053477 0.003583 0.035442
v -0.053477 -0.000042 0.035452
v -0.053477 -0.003666 0.035442
v -0.053477 -0.007291 0.035424
v -0.053477 -0.010916 0.035395
v -0.053477 -0.014540 0.035326
v -0.053477 -0.018164 0.035211
v -0.053477 -0.021787 0.035015
v -0.053477 -0.025407 0.034729
v -0.053477 -0.029022 0.034323
v -0.053477 -0.032627 0.033746
v -0.053477 -0.036215 0.032922
v -0.053477 -0.039757 0.031689
v -0.053477 -0.043089 0.029603
v -0.053477 -0.045601 0.025972
v -0.053477 -0.046446 0.020765
v -0.053477 -0.045573 0.015571
v -0.053477 -0.043024 0.011981
v -0.053477 -0.039676 0.009937
v -0.053477 -0.036133 0.008721
v -0.053477 -0.032545 0.007905
v -0.053477 -0.028939 0.007333
v -0.053477 -0.025324 0.006931
v -0.053477 -0.021704 0.006648
v -0.053477 -0.018081 0.006455
v -0.053477 -0.014457 0.006342
v -0.053477 -0.010833 0.006274
v -0.053477 -0.007208 0.006246
v -0.053477 -0.003583 0.006228
v -0.053477 0.000042 0.006218
v -0.053477 0.003666 0.006229
v -0.053477 0.007291 0.006246
v -0.053477 0.010916 0.006276
v -0.053477 0.014540 0.006344
v -0.053477 0.018164 0.006459
v -0.053477 0.021787 0.006655
v -0.053477 0.025407 0.006941
v -0.053477 0.029022 0.007347
v -0.053477 0.032627 0.007925
v -0.053477 0.036215 0.008748
v -0.053477 0.039757 0.009981
v -0.053477 0.043089 0.012068
v -0.053477 0.045601 0.015698
v -0.046958 0.049210 0.020889
v -0.046958 0.048304 0.026424
v -0.046958 0.045636 0.030293
v -0.046958 0.042102 0.032516
v -0.046958 0.038347 0.033834
v -0.046958 0.034542 0.034718
v -0.046958 0.030716 0.035337
v -0.046958 0.026881 0.035772
v -0.046958 0.023040 0.036079
v -0.046958 0.019196 0.036288
v -0.046958 0.015351 0.036410
v -0.046958 0.011506 0.036483
v -0.046958 0.007660 0.036514
v -0.046958 0.003814 0.036533
v -0.046958 -0.000032 0.036544
v -0.046958 -0.003878 0.036533
v -0.046958 -0.007724 0.036514
v -0.046958 -0.011570 0.036482
v -0.046958 -0.015415 0.036409
v -0.046958 -0.019260 0.036285
v -0.046958 -0.023104 0.036074
v -0.046958 -0.026945 0.035765
v -0.046958 -0.030780 0.035326
v -0.046958 -0.034605 0.034703
v -0.046958 -0.038410 0.033814
v -0.046958 -0.042164 0.032483
v -0.046958 -0.045687 0.030230
v -0.046958 -0.048327 0.026328
v -0.046958 -0.049210 0.020781
v -0.046958 -0.048304 0.015247
v -0.046958 -0.045636 0.011377
v -0.046958 -0.042102 0.009154
v -0.046958 -0.038347 0.007836
v -0.046958 -0.034542 0.006953
v -0.046958 -0.030716 0.006333
v -0.046958 -0.026881 0.005898
v -0.046958 -0.023040 0.005591
v -0.046958 -0.019196 0.005382
v -0.046958 -0.015351 0.005260
v -0.046958 -0.011506 0.005187
v -0.046958 -0.007660 0.005156
v -0.046958 -0.003814 0.005137
v -0.046958 0.000032 0.005127
v -0.046958 0.003878 0.005138
v -0.046958 0.007724 0.005156
v -0.046958 0.011570 0.005188
v -0.046958 0.015415 0.005262
v -0.046958 0.019260 0.005385
v -0.046958 0.023104 0.005597
v -0.046958 0.026945 0.005906
v -0.046958 0.030780 0.006344
v -0.046958 0.034605 0.006967
v -0.046958 0.038410 0.007856
v -0.046958 0.042164 0.009187
v -0.046958 0.045687 0.011440
v -0.046958 0.048327 0.015343
v -0.040440 0.051276 0.020873
v -0.040440 0.050342 0.026658
v -0.040440 0.047583 0.030729
v -0.040440 0.043909 0.033079
v -0.040440 0.039996 0.034471
v -0.040440 0.036029 0.035402
v -0.040440 0.032040 0.036056
v -0.040440 0.028041 0.036514
v -0.040440 0.024036 0.036838
v -0.040440 0.020028 0.037059
v -0.040440 0.016019 0.037188
v -0.040440 0.012009 0.037265
v -0.040440 0.007998 0.037297
v -0.040440 0.003988 0.037317
v -0.040440 -0.000023 0.037328
v -0.040440 -0.004033 0.037317
v -0.040440 -0.008044 0.037297
v -0.040440 -0.012054 0.037264
v -0.040440 -0.016064 0.037187
v -0.040440 -0.020074 0.037057
v -0.040440 -0.024081 0.036835
v -0.040440 -0.028086 0.036509
v -0.040440 -0.032086 0.036048
v -0.040440 -0.036074 0.035393
v -0.040440 -0.040041 0.034458
v -0.040440 -0.043954 0.033057
v -0.040440 -0.047621 0.030688
v -0.040440 -0.050361 0.026592
v -0.040440 -0.051276 0.020797
v -0.040440 -0.050342 0.015012
v -0.040440 -0.047583 0.010941
v -0.040440 -0.043909 0.008591
v -0.040440 -0.039996 0.007199
v -0.040440 -0.036029 0.006268
v -0.040440 -0.032040 0.005615
v -0.040440 -0.028041 0.005156
v -0.040440 -0.024036 0.004832
v -0.040440 -0.020028 0.004611
v -0.040440 -0.016019 0.004483
v -0.040440 -0.012009 0.004406
v -0.040440 -0.007998 0.004373
v -0.040440 -0.003988 0.004353
v -0.040440 0.000023 0.004342
v -0.040440 0.004033 0.004354
v -0.040440 0.008044 0.004373
v -0.040440 0.012054 0.004406
v -0.040440 0.016064 0.004484
v -0.040440 0.020074 0.004614
v -0.040440 0.024081 0.004836
v -0.040440 0.028086 0.005161
v -0.040440 0.032086 0.005622
v -0.040440 0.036074 0.006278
v -0.040440 0.040041 0.007213
v -0.040440 0.043954 0.008613
v -0.040440 0.047621 0.010983
v -0.040440 0.050361 0.015078
v -0.033921 0.052661 0.020858
v -0.033921 0.051709 0.026807
v -0.033921 0.048885 0.031005
v -0.033921 0.045116 0.033434
v -0.033921 0.041097 0.034871
v -0.033921 0.037022 0.035833
v -0.033921 0.032925 0.036507
v -0.033921 0.028816 0.036980
v -0.033921 0.024702 0.037315
v -0.033921 0.020585 0.037543
v -0.033921 0.016466 0.037676
v -0.033921 0.012346 0.037755
v -0.033921 0.008226 0.037789
v -0.033921 0.004106 0.037809
v -0.033921 -0.000014 0.037821
v -0.033921 -0.004134 0.037809
v -0.033921 -0.008254 0.037789
v -0.033921 -0.012373 0.037755
v -0.033921 -0.016493 0.037675
v -0.033921 -0.020612 0.037541
v -0.033921 -0.024729 0.037313
v -0.033921 -0.028844 0.036978
v -0.033921 -0.032952 0.036503
v -0.033921 -0.037049 0.035827
v -0.033921 -0.041124 0.034864
v -0.033921 -0.045143 0.033423
v -0.033921 -0.048910 0.030984
v -0.033921 -0.051722 0.026769
v -0.033921 -0.052661 0.020812
v -0.033921 -0.051709 0.014864
v -0.033921 -0.048885 0.010665
v -0.033921 -0.045116 0.008237
v -0.033921 -0.041097 0.006799
v -0.033921 -0.037022 0.005838
v -0.033921 -0.032925 0.005164
v -0.033921 -0.028816 0.004690
v -0.033921 -0.024702 0.004356
v -0.033921 -0.020585 0.004128
v -0.033921 -0.016466 0.003995
v -0.033921 -0.012346 0.003915
v -0.033921 -0.008226 0.003882
v -0.033921 -0.004106 0.003861
v -0.033921 0.000014 0.003850
v -0.033921 0.004134 0.003861
v -0.033921 0.008254 0.003882
v -0.033921 0.012373 0.003916
v -0.033921 0.016493 0.003995
v -0.033921 0.020612 0.004129
v -0.033921 0.024729 0.004358
v -0.033921 0.028844 0.004693
v -0.033921 0.032952 0.005167
v -0.033921 0.037049 0.005843
v -0.033921 0.041124 0.006806
v -0.033921 0.045143 0.008248
v -0.033921 0.048910 0.010687
v -0.033921 0.051722 0.014901
v -0.027402 0.053387 0.020843
v -0.027402 0.052423 0.026873
v -0.027402 0.049562 0.031128
v -0.027402 0.045742 0.033590
v -0.027402 0.041667 0.035047
v -0.027402 0.037537 0.036021
v -0.027402 0.033384 0.036704
v -0.027402 0.029219 0.037184
v -0.027402 0.025048 0.037523
v -0.027402 0.020875 0.037754
v -0.027402 0.016700 0.037889
v -0.027402 0.012524 0.037969
v -0.027402 0.008348 0.038003
v -0.027402 0.004171 0.038024
v -0.027402 -0.000005 0.038036
v -0.027402 -0.004181 0.038024
v -0.027402 -0.008357 0.038003
v -0.027402 -0.012534 0.037969
v -0.027402 -0.016710 0.037889
v -0.027402 -0.020885 0.037754
v -0.027402 -0.025058 0.037522
v -0.027402 -0.029229 0.037184
v -0.027402 -0.033393 0.036704
v -0.027402 -0.037547 0.036020
v -0.027402 -0.041677 0.035046
v -0.027402 -0.045752 0.033589
v -0.027402 -0.049573 0.031125
v -0.027402 -0.052431 0.026862
v -0.027402 -0.053387 0.020827
v -0.027402 -0.052423 0.014798
v -0.027402 -0.049562 0.010543
v -0.027402 -0.045742 0.008080
v -0.027402 -0.041667 0.006623
v -0.027402 -0.037537 0.005649
v -0.027402 -0.033384 0.004966
v -0.027402 -0.029219 0.004486
v -0.027402 -0.025048 0.004148
v -0.027402 -0.020875 0.003917
v -0.027402 -0.016700 0.003782
v -0.027402 -0.012524 0.003701
v -0.027402 -0.008348 0.003667
v -0.027402 -0.004171 0.003646
v -0.027402 0.000005 0.003634
v -0.027402 0.004181 0.003646
v -0.027402 0.008357 0.003667
v -0.027402 0.012534 0.003701
v -0.027402 0.016710 0.003782
v -0.027402 0.020885 0.003917
v -0.027402 0.025058 0.004148
v -0.027402 0.029229 0.004487
v -0.027402 0.033393 0.004967
v -0.027402 0.037547 0.005650
v -0.027402 0.041677 0.006624
v -0.027402 0.045752 0.008081
v -0.027402 0.049573 0.010545
v -0.027402 0.052431 0.014808
v -0.020883 0.053472 0.020829
v -0.020883 0.052504 0.026859
v -0.020883 0.049633 0.031105
v -0.020883 0.045805 0.033559
v -0.020883 0.041725 0.035011
v -0.020883 0.037589 0.035981
v -0.020883 0.033430 0.036661
v -0.020883 0.029261 0.037139
v -0.020883 0.025086 0.037477
v -0.020883 0.020907 0.037707
v -0.020883 0.016727 0.037842
v -0.020883 0.012547 0.037922
v -0.020883 0.008366 0.037956
v -0.020883 0.004185 0.037977
v -0.020883 0.000003 0.037989
v -0.020883 -0.004178 0.037977
v -0.020883 -0.008359 0.037956
v -0.020883 -0.012540 0.037922
v -0.020883 -0.016720 0.037842
v -0.020883 -0.020900 0.037708
v -0.020883 -0.025079 0.037478
v -0.020883 -0.029254 0.037141
v -0.020883 -0.033424 0.036664
v -0.020883 -0.037582 0.035984
v -0.020883 -0.041718 0.035015
v -0.020883 -0.045799 0.033567
v -0.020883 -0.049631 0.031120
v -0.020883 -0.052506 0.026875
v -0.020883 -0.053472 0.020841
v -0.020883 -0.052504 0.014811
v -0.020883 -0.049633 0.010565
v -0.020883 -0.045805 0.008111
v -0.020883 -0.041725 0.006659
v -0.020883 -0.037589 0.005689
v -0.020883 -0.033430 0.005009
v -0.020883 -0.029261 0.004531
v -0.020883 -0.025086 0.004194
v -0.020883 -0.020907 0.003963
v -0.020883 -0.016727 0.003829
v -0.020883 -0.012547 0.003749
v -0.020883 -0.008366 0.003714
v -0.020883 -0.004185 0.003694
v -0.020883 -0.000003 0.003682
v -0.020883 0.004178 0.003694
v -0.020883 0.008359 0.003714
v -0.020883 0.012540 0.003748
v -0.020883 0.016720 0.003828
v -0.020883 0.020900 0.003963
v -0.020883 0.025079 0.004192
v -0.020883 0.029254 0.004529
v -0.020883 0.033424 0.005007
v -0.020883 0.037582 0.005686
v -0.020883 0.041718 0.006655
v -0.020883 0.045799 0.008103
v -0.020883 0.049631 0.010550
v -0.020883 0.052506 0.014795
v -0.014364 0.052935 0.020816
v -0.014364 0.051972 0.026770
v -0.014364 0.049118 0.030944
v -0.014364 0.045324 0.033350
v -0.014364 0.041286 0.034773
v -0.014364 0.037193 0.035725
v -0.014364 0.033080 0.036392
v -0.014364 0.028955 0.036861
v -0.014364 0.024824 0.037191
v -0.014364 0.020691 0.037417
v -0.014364 0.016556 0.037550
v -0.014364 0.012420 0.037628
v -0.014364 0.008284 0.037662
v -0.014364 0.004148 0.037682
v -0.014364 0.000012 0.037694
v -0.014364 -0.004124 0.037682
v -0.014364 -0.008261 0.037662
v -0.014364 -0.012397 0.037629
v -0.014364 -0.016532 0.037550
v -0.014364 -0.020667 0.037419
v -0.014364 -0.024801 0.037194
v -0.014364 -0.028931 0.036864
v -0.014364 -0.033056 0.036397
v -0.014364 -0.037170 0.035732
v -0.014364 -0.041263 0.034783
v -0.014364 -0.045302 0.033366
v -0.014364 -0.049103 0.030975
v -0.014364 -0.051968 0.026810
v -0.014364 -0.052935 0.020855
v -0.014364 -0.051972 0.014901
v -0.014364 -0.049118 0.010727
v -0.014364 -0.045324 0.008320
v -0.014364 -0.041286 0.006897
v -0.014364 -0.037193 0.005946
v -0.014364 -0.033080 0.005279
v -0.014364 -0.028955 0.004810
v -0.014364 -0.024824 0.004479
v -0.014364 -0.020691 0.004253
v -0.014364 -0.016556 0.004121
v -0.014364 -0.012420 0.004042
v -0.014364 -0.008284 0.004008
v -0.014364 -0.004148 0.003988
v -0.014364 -0.000012 0.003977
v -0.014364 0.004124 0.003988
v -0.014364 0.008261 0.004008
v -0.014364 0.012397 0.004042
v -0.014364 0.016532 0.004120
v -0.014364 0.020667 0.004252
v -0.014364 0.024801 0.004477
v -0.014364 0.028931 0.004806
v -0.014364 0.033056 0.005273
v -0.014364 0.037170 0.005939
v -0.014364 0.041263 0.006887
v -0.014364 0.045302 0.008304
v -0.014364 0.049103 0.010695
v -0.014364 0.051968 0.014860
v -0.007846 0.051797 0.020802
v -0.007846 0.050846 0.026607
v -0.007846 0.048037 0.030651
v -0.007846 0.044319 0.032973
v -0.007846 0.040368 0.034346
v -0.007846 0.036366 0.035265
v -0.007846 0.032345 0.035909
v -0.007846 0.028312 0.036361
v -0.007846 0.024274 0.036681
v -0.007846 0.020234 0.036899
v -0.007846 0.016192 0.037027
v -0.007846 0.012149 0.037103
v -0.007846 0.008106 0.037136
v -0.007846 0.004063 0.037155
v -0.007846 0.000019 0.037167
v -0.007846 -0.004024 0.037155
v -0.007846 -0.008067 0.037136
v -0.007846 -0.012110 0.037104
v -0.007846 -0.016153 0.037028
v -0.007846 -0.020195 0.036901
v -0.007846 -0.024235 0.036684
v -0.007846 -0.028273 0.036367
v -0.007846 -0.032306 0.035917
v -0.007846 -0.036328 0.035276
v -0.007846 -0.040329 0.034361
v -0.007846 -0.044281 0.032997
v -0.007846 -0.048009 0.030698
v -0.007846 -0.050837 0.026671
v -0.007846 -0.051797 0.020868
v -0.007846 -0.050846 0.015063
v -0.007846 -0.048037 0.011020
v -0.007846 -0.044319 0.008698
v -0.007846 -0.040368 0.007324
v -0.007846 -0.036366 0.006405
v -0.007846 -0.032345 0.005761
v -0.007846 -0.028312 0.005309
v -0.007846 -0.024274 0.004990
v -0.007846 -0.020234 0.004771
v -0.007846 -0.016192 0.004643
v -0.007846 -0.012149 0.004567
v -0.007846 -0.008106 0.004535
v -0.007846 -0.004063 0.004515
v -0.007846 -0.000019 0.004504
v -0.007846 0.004024 0.004515
v -0.007846 0.008067 0.004534
v -0.007846 0.012110 0.004567
v -0.007846 0.016153 0.004642
v -0.007846 0.020195 0.004769
v -0.007846 0.024235 0.004986
v -0.007846 0.028273 0.005304
v -0.007846 0.032306 0.005754
v -0.007846 0.036328 0.006395
v -0.007846 0.040329 0.007310
v -0.007846 0.044281 0.008674
v -0.007846 0.048009 0.010973
v -0.007846 0.050837 0.014999
v -0.001327 0.050076 0.020789
v -0.001327 0.049147 0.026375
v -0.001327 0.046409 0.030233
v -0.001327 0.042807 0.032437
v -0.001327 0.038989 0.033742
v -0.001327 0.035124 0.034614
v -0.001327 0.031240 0.035226
v -0.001327 0.027346 0.035656
v -0.001327 0.023447 0.035959
v -0.001327 0.019545 0.036167
v -0.001327 0.015642 0.036289
v -0.001327 0.011739 0.036361
v -0.001327 0.007835 0.036392
v -0.001327 0.003931 0.036411
v -0.001327 0.000027 0.036422
v -0.001327 -0.003877 0.036411
v -0.001327 -0.007781 0.036393
v -0.001327 -0.011685 0.036362
v -0.001327 -0.015588 0.036291
v -0.001327 -0.019491 0.036170
v -0.001327 -0.023393 0.035964
v -0.001327 -0.027292 0.035663
v -0.001327 -0.031186 0.035236
v -0.001327 -0.035070 0.034628
v -0.001327 -0.038935 0.033760
v -0.001327 -0.042754 0.032468
v -0.001327 -0.046369 0.030294
v -0.001327 -0.049131 0.026461
v -0.001327 -0.050076 0.020881
v -0.001327 -0.049147 0.015295
v -0.001327 -0.046409 0.011437
v -0.001327 -0.042807 0.009233
v -0.001327 -0.038989 0.007929
v -0.001327 -0.035124 0.007056
v -0.001327 -0.031240 0.006444
v -0.001327 -0.027346 0.006014
v -0.001327 -0.023447 0.005711
v -0.001327 -0.019545 0.005503
v -0.001327 -0.015642 0.005382
v -0.001327 -0.011739 0.005309
v -0.001327 -0.007835 0.005278
v -0.001327 -0.003931 0.005260
v -0.001327 -0.000027 0.005249
v -0.001327 0.003877 0.005259
v -0.001327 0.007781 0.005278
v -0.001327 0.011685 0.005308
v -0.001327 0.015588 0.005380
v -0.001327 0.019491 0.005500
v -0.001327 0.023393 0.005706
v -0.001327 0.027292 0.006007
v -0.001327 0.031186 0.006434
v -0.001327 0.035070 0.007042
v -0.001327 0.038935 0.007910
v -0.001327 0.042754 0.009202
v -0.001327 0.046369 0.011376
v -0.001327 0.049131 0.015209
v 0.005192 0.047791 0.020775
v 0.005192 0.046891 0.026075
v 0.005192 0.044255 0.029698
v 0.005192 0.040807 0.031753
v 0.005192 0.037165 0.032971
v 0.005192 0.033480 0.033786
v 0.005192 0.029778 0.034357
v 0.005192 0.026067 0.034758
v 0.005192 0.022352 0.035041
v 0.005192 0.018634 0.035236
v 0.005192 0.014915 0.035350
v 0.005192 0.011195 0.035418
v 0.005192 0.007475 0.035447
v 0.005192 0.003754 0.035464
v 0.005192 0.000034 0.035474
v 0.005192 -0.003686 0.035465
v 0.005192 -0.007406 0.035447
v 0.005192 -0.011126 0.035419
v 0.005192 -0.014846 0.035352
v 0.005192 -0.018565 0.035239
v 0.005192 -0.022283 0.035048
v 0.005192 -0.025999 0.034767
v 0.005192 -0.029710 0.034369
v 0.005192 -0.033412 0.033802
v 0.005192 -0.037097 0.032993
v 0.005192 -0.040740 0.031791
v 0.005192 -0.044200 0.029770
v 0.005192 -0.046868 0.026181
v 0.005192 -0.047791 0.020895
v 0.005192 -0.046891 0.015596
v 0.005192 -0.044255 0.011972
v 0.005192 -0.040807 0.009917
v 0.005192 -0.037165 0.008700
v 0.005192 -0.033480 0.007885
v 0.005192 -0.029778 0.007313
v 0.005192 -0.026067 0.006912
v 0.005192 -0.022352 0.006629
v 0.005192 -0.018634 0.006435
v 0.005192 -0.014915 0.006320
v 0.005192 -0.011195 0.006253
v 0.005192 -0.007475 0.006224
v 0.005192 -0.003754 0.006206
v 0.005192 -0.000034 0.006196
v 0.005192 0.003686 0.006206
v 0.005192 0.007406 0.006223
v 0.005192 0.011126 0.006252
v 0.005192 0.014846 0.006318
v 0.005192 0.018565 0.006431
v 0.005192 0.022283 0.006623
v 0.005192 0.025999 0.006904
v 0.005192 0.029710 0.007301
v 0.005192 0.033412 0.007868
v 0.005192 0.037097 0.008677
v 0.005192 0.040740 0.009880
v 0.005192 0.044200 0.011901
v 0.005192 0.046868 0.015489
v 0.011711 0.044959 0.020762
v 0.011711 0.044094 0.025704
v 0.011711 0.041592 0.029051
v 0.011711 0.038340 0.030930
v 0.011711 0.034915 0.032045
v 0.011711 0.031453 0.032792
v 0.011711 0.027975 0.033315
v 0.011711 0.024490 0.033682
v 0.011711 0.021000 0.033942
v 0.011711 0.017508 0.034120
v 0.011711 0.014016 0.034225
v 0.011711 0.010522 0.034287
v 0.011711 0.007029 0.034314
v 0.011711 0.003535 0.034330
v 0.011711 0.000041 0.034339
v 0.011711 -0.003452 0.034330
v 0.011711 -0.006946 0.034314
v 0.011711 -0.010440 0.034288
v 0.011711 -0.013933 0.034227
v 0.011711 -0.017426 0.034124
v 0.011711 -0.020918 0.033949
v 0.011711 -0.024407 0.033692
v 0.011711 -0.027893 0.033329
v 0.011711 -0.031371 0.032811
v 0.011711 -0.034833 0.032071
v 0.011711 -0.038259 0.030973
v 0.011711 -0.041523 0.029132
v 0.011711 -0.044065 0.025831
v 0.011711 -0.044959 0.020909
v 0.011711 -0.044094 0.015966
v 0.011711 -0.041592 0.012620
v 0.011711 -0.038340 0.010740
v 0.011711 -0.034915 0.009626
v 0.011711 -0.031453 0.008879
v 0.011711 -0.027975 0.008355
v 0.011711 -0.024490 0.007988
v 0.011711 -0.021000 0.007729
v 0.011711 -0.017508 0.007550
v 0.011711 -0.014016 0.007446
v 0.011711 -0.010522 0.007383
v 0.011711 -0.007029 0.007356
v 0.011711 -0.003535 0.007341
v 0.011711 -0.000041 0.007331
v 0.011711 0.003452 0.007340
v 0.011711 0.006946 0.007356
v 0.011711 0.010440 0.007382
v 0.011711 0.013933 0.007443
v 0.011711 0.017426 0.007546
v 0.011711 0.020918 0.007722
v 0.011711 0.024407 0.007978
v 0.011711 0.027893 0.008342
v 0.011711 0.031371 0.008859
v 0.011711 0.034833 0.009599
v 0.011711 0.038259 0.010697
v 0.011711 0.041523 0.012539
v 0.011711 0.044065 0.015839
v 0.018229 0.041601 0.020750
v 0.018229 0.040781 0.025271
v 0.018229 0.038440 0.028297
v 0.018229 0.035422 0.029979
v 0.018229 0.032254 0.030975
v 0.018229 0.029056 0.031645
v 0.018229 0.025844 0.032113
v 0.018229 0.022625 0.032442
v 0.018229 0.019402 0.032674
v 0.018229 0.016178 0.032834
v 0.018229 0.012952 0.032929
v 0.018229 0.009726 0.032984
v 0.018229 0.006500 0.033009
v 0.018229 0.003274 0.033023
v 0.018229 0.000048 0.033032
v 0.018229 -0.003178 0.033024
v 0.018229 -0.006404 0.033009
v 0.018229 -0.009630 0.032986
v 0.018229 -0.012856 0.032931
v 0.018229 -0.016082 0.032839
v 0.018229 -0.019306 0.032682
v 0.018229 -0.022529 0.032453
v 0.018229 -0.025748 0.032129
v 0.018229 -0.028961 0.031666
v 0.018229 -0.032159 0.031005
v 0.018229 -0.035328 0.030027
v 0.018229 -0.038359 0.028388
v 0.018229 -0.040745 0.025417
v 0.018229 -0.041601 0.020921
v 0.018229 -0.040781 0.016399
v 0.018229 -0.038440 0.013373
v 0.018229 -0.035422 0.011692
v 0.018229 -0.032254 0.010695
v 0.018229 -0.029056 0.010026
v 0.018229 -0.025844 0.009557
v 0.018229 -0.022625 0.009228
v 0.018229 -0.019402 0.008996
v 0.018229 -0.016178 0.008836
v 0.018229 -0.012952 0.008742
v 0.018229 -0.009726 0.008686
v 0.018229 -0.006500 0.008662
v 0.018229 -0.003274 0.008647
v 0.018229 -0.000048 0.008639
v 0.018229 0.003178 0.008647
v 0.018229 0.006404 0.008661
v 0.018229 0.009630 0.008685
v 0.018229 0.012856 0.008739
v 0.018229 0.016082 0.008831
v 0.018229 0.019306 0.008988
v 0.018229 0.022529 0.009217
v 0.018229 0.025748 0.009542
v 0.018229 0.028961 0.010004
v 0.018229 0.032159 0.010665
v 0.018229 0.035328 0.011644
v 0.018229 0.038359 0.013282
v 0.018229 0.040745 0.016254
v 0.024748 0.037738 0.020738
v 0.024748 0.036972 0.024781
v 0.024748 0.034820 0.027447
v 0.024748 0.032073 0.028908
v 0.024748 0.029202 0.029774
v 0.024748 0.026306 0.030357
v 0.024748 0.023398 0.030765
v 0.024748 0.020485 0.031052
v 0.024748 0.017568 0.031254
v 0.024748 0.014650 0.031393
v 0.024748 0.011732 0.031476
v 0.024748 0.008812 0.031525
v 0.024748 0.005893 0.031546
v 0.024748 0.002974 0.031558
v 0.024748 0.000054 0.031566
v 0.024748 -0.002865 0.031559
v 0.024748 -0.005784 0.031546
v 0.024748 -0.008704 0.031526
v 0.024748 -0.011623 0.031479
v 0.024748 -0.014542 0.031398
v 0.024748 -0.017460 0.031262
v 0.024748 -0.020376 0.031064
v 0.024748 -0.023290 0.030782
v 0.024748 -0.026198 0.030381
v 0.024748 -0.029094 0.029807
v 0.024748 -0.031966 0.028960
v 0.024748 -0.034727 0.027546
v 0.024748 -0.036929 0.024943
v 0.024748 -0.037738 0.020932
v 0.024748 -0.036972 0.016890
v 0.024748 -0.034820 0.014224
v 0.024748 -0.032073 0.012762
v 0.024748 -0.029202 0.011896
v 0.024748 -0.026306 0.011313
v 0.024748 -0.023398 0.010905
v 0.024748 -0.020485 0.010619
v 0.024748 -0.017568 0.010417
v 0.024748 -0.014650 0.010277
v 0.024748 -0.011732 0.010194
v 0.024748 -0.008812 0.010146
v 0.024748 -0.005893 0.010124
v 0.024748 -0.002974 0.010112
v 0.024748 -0.000054 0.010104
v 0.024748 0.002865 0.010111
v 0.024748 0.005784 0.010124
v 0.024748 0.008704 0.010144
v 0.024748 0.011623 0.010192
v 0.024748 0.014542 0.010272
v 0.024748 0.017460 0.010408
v 0.024748 0.020376 0.010607
v 0.024748 0.023290 0.010888
v 0.024748 0.026198 0.011289
v 0.024748 0.029094 0.011863
v 0.024748 0.031966 0.012710
v 0.024748 0.034727 0.014125
v 0.024748 0.036929 0.016727
v 0.031303 0.033420 0.020734
v 0.031303 0.032714 0.024240
v 0.031303 0.030776 0.026510
v 0.031303 0.028334 0.027732
v 0.031303 0.025794 0.028458
v 0.031303 0.023234 0.028947
v 0.031303 0.020666 0.029289
v 0.031303 0.018093 0.029529
v 0.031303 0.015518 0.029699
v 0.031303 0.012941 0.029816
v 0.031303 0.010364 0.029886
v 0.031303 0.007787 0.029927
v 0.031303 0.005209 0.029945
v 0.031303 0.002631 0.029956
v 0.031303 0.000054 0.029962
v 0.031303 -0.002524 0.029957
v 0.031303 -0.005101 0.029946
v 0.031303 -0.007679 0.029929
v 0.031303 -0.010256 0.029889
v 0.031303 -0.012834 0.029822
v 0.031303 -0.015410 0.029708
v 0.031303 -0.017986 0.029542
v 0.031303 -0.020559 0.029306
v 0.031303 -0.023127 0.028971
v 0.031303 -0.025687 0.028491
v 0.031303 -0.028227 0.027784
v 0.031303 -0.030681 0.026609
v 0.031303 -0.032670 0.024408
v 0.031303 -0.033420 0.020937
v 0.031303 -0.032714 0.017430
v 0.031303 -0.030776 0.015161
v 0.031303 -0.028334 0.013938
v 0.031303 -0.025794 0.013213
v 0.031303 -0.023234 0.012724
v 0.031303 -0.020666 0.012381
v 0.031303 -0.018093 0.012141
v 0.031303 -0.015518 0.011971
v 0.031303 -0.012941 0.011854
v 0.031303 -0.010364 0.011784
v 0.031303 -0.007787 0.011743
v 0.031303 -0.005209 0.011725
v 0.031303 -0.002631 0.011715
v 0.031303 -0.000054 0.011708
v 0.031303 0.002524 0.011714
v 0.031303 0.005101 0.011725
v 0.031303 0.007679 0.011742
v 0.031303 0.010256 0.011781
v 0.031303 0.012834 0.011849
v 0.031303 0.015410 0.011963
v 0.031303 0.017986 0.012129
v 0.031303 0.020559 0.012364
v 0.031303 0.023127 0.012699
v 0.031303 0.025687 0.013180
v 0.031303 0.028227 0.013886
v 0.031303 0.030681 0.015061
v 0.031303 0.032670 0.017262
v 0.037865 0.028643 0.020722
v 0.037865 0.028009 0.023646
v 0.037865 0.026314 0.025489
v 0.037865 0.024210 0.026457
v 0.037865 0.022035 0.027032
v 0.037865 0.019848 0.027422
v 0.037865 0.017654 0.027694
v 0.037865 0.015457 0.027885
v 0.037865 0.013258 0.028020
v 0.037865 0.011059 0.028114
v 0.037865 0.008858 0.028170
v 0.037865 0.006658 0.028203
v 0.037865 0.004457 0.028218
v 0.037865 0.002257 0.028226
v 0.037865 0.000056 0.028232
v 0.037865 -0.002145 0.028227
v 0.037865 -0.004345 0.028218
v 0.037865 -0.006546 0.028205
v 0.037865 -0.008746 0.028173
v 0.037865 -0.010947 0.028120
v 0.037865 -0.013147 0.028029
v 0.037865 -0.015346 0.027898
v 0.037865 -0.017543 0.027712
v 0.037865 -0.019737 0.027446
v 0.037865 -0.021924 0.027065
v 0.037865 -0.024097 0.026508
v 0.037865 -0.026210 0.025588
v 0.037865 -0.027958 0.023826
v 0.037865 -0.028643 0.020948
v 0.037865 -0.028009 0.018025
v 0.037865 -0.026314 0.016181
v 0.037865 -0.024210 0.015213
v 0.037865 -0.022035 0.014638
v 0.037865 -0.019848 0.014249
v 0.037865 -0.017654 0.013976
v 0.037865 -0.015457 0.013785
v 0.037865 -0.013258 0.013650
v 0.037865 -0.011059 0.013556
v 0.037865 -0.008858 0.013500
v 0.037865 -0.006658 0.013467
v 0.037865 -0.004457 0.013453
v 0.037865 -0.002257 0.013444
v 0.037865 -0.000056 0.013439
v 0.037865 0.002145 0.013443
v 0.037865 0.004345 0.013452
v 0.037865 0.006546 0.013466
v 0.037865 0.008746 0.013497
v 0.037865 0.010947 0.013551
v 0.037865 0.013147 0.013641
v 0.037865 0.015346 0.013773
v 0.037865 0.017543 0.013959
v 0.037865 0.019737 0.014224
v 0.037865 0.021924 0.014605
v 0.037865 0.024097 0.015163
v 0.037865 0.026210 0.016082
v 0.037865 0.027958 0.017845
v 0.042836 0.021869 0.020452
v 0.042836 0.021495 0.022686
v 0.042836 0.020244 0.024134
v 0.042836 0.018639 0.024864
v 0.042836 0.016979 0.025286
v 0.042836 0.015314 0.025573
v 0.042836 0.013644 0.025774
v 0.042836 0.011972 0.025914
v 0.042836 0.010299 0.026013
v 0.042836 0.008625 0.026083
v 0.042836 0.006951 0.026126
v 0.042836 0.005276 0.026151
v 0.042836 0.003602 0.026162
v 0.042836 0.001927 0.026168
v 0.042836 0.000253 0.026173
v 0.042836 -0.001422 0.026170
v 0.042836 -0.003097 0.026164
v 0.042836 -0.004771 0.026156
v 0.042836 -0.006446 0.026135
v 0.042836 -0.008120 0.026099
v 0.042836 -0.009794 0.026038
v 0.042836 -0.011468 0.025949
v 0.042836 -0.013140 0.025823
v 0.042836 -0.014811 0.025643
v 0.042836 -0.016477 0.025385
v 0.042836 -0.018135 0.025009
v 0.042836 -0.019760 0.024408
v 0.042836 -0.021181 0.023256
v 0.042836 -0.021869 0.021218
v 0.042836 -0.021495 0.018985
v 0.042836 -0.020244 0.017536
v 0.042836 -0.018639 0.016806
v 0.042836 -0.016979 0.016384
v 0.042836 -0.015314 0.016098
v 0.042836 -0.013644 0.015897
v 0.042836 -0.011972 0.015756
v 0.042836 -0.010299 0.015657
v 0.042836 -0.008625 0.015587
v 0.042836 -0.006951 0.015544
v 0.042836 -0.005276 0.015519
v 0.042836 -0.003602 0.015508
v 0.042836 -0.001927 0.015502
v 0.042836 -0.000253 0.015497
v 0.042836 0.001422 0.015500
v 0.042836 0.003097 0.015506
v 0.042836 0.004771 0.015515
v 0.042836 0.006446 0.015535
v 0.042836 0.008120 0.015571
v 0.042836 0.009794 0.015632
v 0.042836 0.011468 0.015721
v 0.042836 0.013140 0.015847
v 0.042836 0.014811 0.016027
v 0.042836 0.016477 0.016286
v 0.042836 0.018135 0.016662
v 0.042836 0.019760 0.017263
v 0.042836 0.021181 0.018414
v -0.079683 0.000000 0.020835
v 0.044435 0.000000 0.020835
g canopy
f 58 57 1
f 2 58 1
f 59 58 2
f 3 59 2
f 60 59 3
f 4 60 3
f 61 60 4
f 5 61 4
f 62 61 5
f 6 62 5
f 63 62 6
f 7 63 6
f 64 63 7
f 8 64 7
f 65 64 8
f 9 65 8
f 66 65 9
f 10 66 9
f 67 66 10
f 11 67 10
f 68 67 11
f 12 68 11
f 69 68 12
f 13 69 12
f 70 69 13
f 14 70 13
f 71 70 14
f 15 71 14
f 72 71 15
f 16 72 15
f 73 72 16
f 17 73 16
f 74 73 17
f 18 74 17
f 75 74 18
f 19 75 18
f 76 75 19
f 20 76 19
f 77 76 20
f 21 77 20
f 78 77 21
f 22 78 21
f 79 78 22
f 23 79 22
f 80 79 23
f 24 80 23
f 81 80 24
f 25 81 24
f 82 81 25
f 26 82 25
f 83 82 26
f 27 83 26
f 84 83 27
f 28 84 27
f 85 84 28
f 29 85 28
f 86 85 29
f 30 86 29
f 87 86 30
f 31 87 30
f 88 87 31
f 32 88 31
f 89 88 32
f 33 89 32
f 90 89 33
f 34 90 33
f 91 90 34
f 35 91 34
f 92 91 35
f 36 92 35
f 93 92 36
f 37 93 36
f 94 93 37
f 38 94 37
f 95 94 38
f 39 95 38
f 96 95 39
f 40 96 39
f 97 96 40
f 41 97 40
f 98 97 41
f 42 98 41
f 99 98 42
f 43 99 42
f 100 99 43
f 44 100 43
f 101 100 44
f 45 101 44
f 102 101 45
f 46 102 45
f 103 102 46
f 47 103 46
f 104 103 47
f 48 104 47
f 105 104 48
f 49 105 48
f 106 105 49
f 50 106 49
f 107 106 50
f 51 107 50
f 108 107 51
f 52 108 51
f 109 108 52
f 53 109 52
f 110 109 53
f 54 110 53
f 111 110 54
f 55 111 54
f 112 111 55
f 56 112 55
f 57 112 56
f 1 57 56
f 114 113 57
f 58 114 57
f 115 114 58
f 59 115 58
f 116 115 59
f 60 116 59
f 117 116 60
f 61 117 60
f 118 117 61
f 62 118 61
f 119 118 62
f 63 119 62
f 120 119 63
f 64 120 63
f 121 120 64
f 65 121 64
f 122 121 65
f 66 122 65
f 123 122 66
f 67 123 66
f 124 123 67
f 68 124 67
f 125 124 68
f 69 125 68
f 126 125 69
f 70 126 69
f 127 126 70
f 71 127 70
f 128 127 71
f 72 128 71
f 129 128 72
f 73 129 72
f 130 129 73
f 74 130 73
f 131 130 74
f 75 131 74
f 132 131 75
f 76 132 75
f 133 132 76
f 77 133 76
f 134 133 77
f 78 134 77
f 135 134 78
f 79 135 78
f 136 135 79
f 80 136 79
f 137 136 80
f 81 137 80
f 138 137 81
f 82 138 81
f 139 138 82
f 83 139 82
f 140 139 83
f 84 140 83
f 141 140 84
f 85 141 84
f 142 141 85
f 86 142 85
f 143 142 86
f 87 143 86
f 144 143 87
f 88 144 87
f 145 144 88
f 89 145 88
f 146 145 89
f 90 146 89
f 147 146 90
f 91 147 90
f 148 147 91
f 92 148 91
f 149 148 92
f 93 149 92
f 150 149 93
f 94 150 93
f 151 150 94
f 95 151 94
f 152 151 95
f 96 152 95
f 153 152 96
f 97 153 96
f 154 153 97
f 98 154 97
f 155 154 98
f 99 155 98
f 156 155 99
f 100 156 99
f 157 156 100
f 101 157 100
f 158 157 101
f 102 158 101
f 159 158 102
f 103 159 102
f 160 159 103
f 104 160 103
f 161 160 104
f 105 161 104
f 162 161 105
f 106 162 105
f 163 162 106
f 107 163 106
f 164 163 107
f 108 164 107
f 165 164 108
f 109 165 108
f 166 165 109
f 110 166 109
f 167 166 110
f 111 167 110
f 168 167 111
f 112 168 111
f 113 168 112
f 57 113 112
f 170 169 113
f 114 170 113
f 171 170 114
f 115 171 114
f 172 171 115
f 116 172 115
f 173 172 116
f 117 173 116
f 174 173 117
f 118 174 117
f 175 174 118
f 119 175 118
f 176 175 119
f 120 176 119
f 177 176 120
f 121 177 120
f 178 177 121
f 122 178 121
f 179 178 122
f 123 179 122
f 180 179 123
f 124 180 123
f 181 180 124
f 125 181 124
f 182 181 125
f 126 182 125
f 183 182 126
f 127 183 126
f 184 183 127
f 128 184 127
f 185 184 128
f 129 185 128
f 186 185 129
f 130 186 129
f 187 186 130
f 131 187 130
f 188 187 131
f 132 188 131
f 189 188 132
f 133 189 132
f 190 189 133
f 134 190 133
f 191 190 134
f 135 191 134
f 192 191 135
f 136 192 135
f 193 192 136
f 137 193 136
f 194 193 137
f 138 194 137
f 195 194 138
f 139 195 138
f 196 195 139
f 140 196 139
f 197 196 140
f 141 197 140
f 198 197 141
f 142 198 141
f 199 198 142
f 143 199 142
f 200 199 143
f 144 200 143
f 201 200 144
f 145 201 144
f 202 201 145
f 146 202 145
f 203 202 146
f 147 203 146
f 204 203 147
f 148 204 147
f 205 204 148
f 149 205 148
f 206 205 149
f 150 206 149
f 207 206 150
f 151 207 150
f 208 207 151
f 152 208 151
f 209 208 152
f 153 209 152
f 210 209 153
f 154 210 153
f 211 210 154
f 155 211 154
f 212 211 155
f 156 212 155
f 213 212 156
f 157 213 156
f 214 213 157
f 158 214 157
f 215 214 158
f 159 215 158
f 216 215 159
f 160 216 159
f 217 216 160
f 161 217 160
f 218 217 161
f 162 218 161
f 219 218 162
f 163 219 162
f 220 219 163
f 164 220 163
f 221 220 164
f 165 221 164
f 222 221 165
f 166 222 165
f 223 222 166
f 167 223 166
f 224 223 167
f 168 224 167
f 169 224 168
f 113 169 168
f 226 225 169
f 170 226 169
f 227 226 170
f 171 227 170
f 228 227 171
f 172 228 171
f 229 228 172
f 173 229 172
f 230 229 173
f 174 230 173
f 231 230 174
f 175 231 174
f 232 231 175
f 176 232 175
f 233 232 176
f 177 233 176
f 234 233 177
f 178 234 177
f 235 234 178
f 179 235 178
f 236 235 179
f 180 236 179
f 237 236 180
f 181 237 180
f 238 237 181
f 182 238 181
f 239 238 182
f 183 239 182
f 240 239 183
f 184 240 183
f 241 240 184
f 185 241 184
f 242 241 185
f 186 242 185
f 243 242 186
f 187 243 186
f 244 243 187
f 188 244 187
f 245 244 188
f 189 245 188
f 246 245 189
f 190 246 189
f 247 246 190
f 191 247 190
f 248 247 191
f 192 248 191
f 249 248 192
f 193 249 192
f 250 249 193
f 194 250 193
f 251 250 194
f 195 251 194
f 252 251 195
f 196 252 195
f 253 252 196
f 197 253 196
f 254 253 197
f 198 254 197
f 255 254 198
f 199 255 198
f 256 255 199
f 200 256 199
f 257 256 200
f 201 257 200
f 258 257 201
f 202 258 201
f 259 258 202
f 203 259 202
f 260 259 203
f 204 260 203
f 261 260 204
f 205 261 204
f 262 261 205
f 206 262 205
f 263 262 206
f 207 263 206
f 264 263 207
f 208 264 207
f 265 264 208
f 209 265 208
f 266 265 209
f 210 266 209
f 267 266 210
f 211 267 210
f 268 267 211
f 212 268 211
f 269 268 212
f 213 269 212
f 270 269 213
f 214 270 213
f 271 270 214
f 215 271 214
f 272 271 215
f 216 272 215
f 273 272 216
f 217 273 216
f 274 273 217
f 218 274 217
f 275 274 218
f 219 275 218
f 276 275 219
f 220 276 219
f 277 276 220
f 221 277 220
f 278 277 221
f 222 278 221
f 279 278 222
f 223 279 222
f 280 279 223
f 224 280 223
f 225 280 224
f 169 225 224
f 282 281 225
f 226 282 225
f 283 282 226
f 227 283 226
f 284 283 227
f 228 284 227
f 285 284 228
f 229 285 228
f 286 285 229
f 230 286 229
f 287 286 230
f 231 287 230
f 288 287 231
f 232 288 231
f 289 288 232
f 233 289 232
f 290 289 233
f 234 290 233
f 291 290 234
f 235 291 234
f 292 291 235
f 236 292 235
f 293 292 236
f 237 293 236
f 294 293 237
f 238 294 237
f 295 294 238
f 239 295 238
f 296 295 239
f 240 296 239
f 297 296 240
f 241 297 240
f 298 297 241
f 242 298 241
f 299 298 242
f 243 299 242
f 300 299 243
f 244 300 243
f 301 300 244
f 245 301 244
f 302 301 245
f 246 302 245
f 303 302 246
f 247 303 246
f 304 303 247
f 248 304 247
f 305 304 248
f 249 305 248
f 306 305 249
f 250 306 249
f 307 306 250
f 251 307 250
f 308 307 251
f 252 308 251
f 309 308 252
f 253 309 252
f 310 309 253
f 254 310 253
f 311 310 254
f 255 311 254
f 312 311 255
f 256 312 255
f 313 312 256
f 257 313 256
f 314 313 257
f 258 314 257
f 315 314 258
f 259 315 258
f 316 315 259
f 260 316 259
f 317 316 260
f 261 317 260
f 318 317 261
f 262 318 261
f 319 318 262
f 263 319 262
f 320 319 263
f 264 320 263
f 321 320 264
f 265 321 264
f 322 321 265
f 266 322 265
f 323 322 266
f 267 323 266
f 324 323 267
f 268 324 267
f 325 324 268
f 269 325 268
f 326 325 269
f 270 326 269
f 327 326 270
f 271 327 270
f 328 327 271
f 272 328 271
f 329 328 272
f 273 329 272
f 330 329 273
f 274 330 273
f 331 330 274
f 275 331 274
f 332 331 275
f 276 332 275
f 333 332 276
f 277 333 276
f 334 333 277
f 278 334 277
f 335 334 278
f 279 335 278
f 336 335 279
f 280 336 279
f 281 336 280
f 225 281 280
f 338 337 281
f 282 338 281
f 339 338 282
f 283 339 282
f 340 339 283
f 284 340 283
f 341 340 284
f 285 341 284
f 342 341 285
f 286 342 285
f 343 342 286
f 287 343 286
f 344 343 287
f 288 344 287
f 345 344 288
f 289 345 288
f 346 345 289
f 290 346 289
f 347 346 290
f 291 347 290
f 348 347 291
f 292 348 291
f 349 348 292
f 293 349 292
f 350 349 293
f 294 350 293
f 351 350 294
f 295 351 294
f 352 351 295
f 296 352 295
f 353 352 296
f 297 353 296
f 354 353 297
f 298 354 297
f 355 354 298
f 299 355 298
f 356 355 299
f 300 356 299
f 357 356 300
f 301 357 300
f 358 357 301
f 302 358 301
f 359 358 302
f 303 359 302
f 360 359 303
f 304 360 303
f 361 360 304
f 305 361 304
f 362 361 305
f 306 362 305
f 363 362 306
f 307 363 306
f 364 363 307
f 308 364 307
f 365 364 308
f 309 365 308
f 366 365 309
f 310 366 309
f 367 366 310
f 311 367 310
f 368 367 311
f 312 368 311
f 369 368 312
f 313 369 312
f 370 369 313
f 314 370 313
f 371 370 314
f 315 371 314
f 372 371 315
f 316 372 315
f 373 372 316
f 317 373 316
f 374 373 317
f 318 374 317
f 375 374 318
f 319 375 318
f 376 375 319
f 320 376 319
f 377 376 320
f 321 377 320
f 378 377 321
f 322 378 321
f 379 378 322
f 323 379 322
f 380 379 323
f 324 380 323
f 381 380 324
f 325 381 324
f 382 381 325
f 326 382 325
f 383 382 326
f 327 383 326
f 384 383 327
f 328 384 327
f 385 384 328
f 329 385 328
f 386 385 329
f 330 386 329
f 387 386 330
f 331 387 330
f 388 387 331
f 332 388 331
f 389 388 332
f 333 389 332
f 390 389 333
f 334 390 333
f 391 390 334
f 335 391 334
f 392 391 335
f 336 392 335
f 337 392 336
f 281 337 336
f 394 393 337
f 338 394 337
f 395 394 338
f 339 395 338
f 396 395 339
f 340 396 339
f 397 396 340
f 341 397 340
f 398 397 341
f 342 398 341
f 399 398 342
f 343 399 342
f 400 399 343
f 344 400 343
f 401 400 344
f 345 401 344
f 402 401 345
f 346 402 345
f 403 402 346
f 347 403 346
f 404 403 347
f 348 404 347
f 405 404 348
f 349 405 348
f 406 405 349
f 350 406 349
f 407 406 350
f 351 407 350
f 408 407 351
f 352 408 351
f 409 408 352
f 353 409 352
f 410 409 353
f 354 410 353
f 411 410 354
f 355 411 354
f 412 411 355
f 356 412 355
f 413 412 356
f 357 413 356
f 414 413 357
f 358 414 357
f 415 414 358
f 359 415 358
f 416 415 359
f 360 416 359
f 417 416 360
f 361 417 360
f 418 417 361
f 362 418 361
f 419 418 362
f 363 419 362
f 420 419 363
f 364 420 363
f 421 420 364
f 365 421 364
f 422 421 365
f 366 422 365
f 423 422 366
f 367 423 366
f 424 423 367
f 368 424 367
f 425 424 368
f 369 425 368
f 426 425 369
f 370 426 369
f 427 426 370
f 371 427 370
f 428 427 371
f 372 428 371
f 429 428 372
f 373 429 372
f 430 429 373
f 374 430 373
f 431 430 374
f 375 431 374
f 432 431 375
f 376 432 375
f 433 432 376
f 377 433 376
f 434 433 377
f 378 434 377
f 435 434 378
f 379 435 378
f 436 435 379
f 380 436 379
f 437 436 380
f 381 437 380
f 438 437 381
f 382 438 381
f 439 438 382
f 383 439 382
f 440 439 383
f 384 440 383
f 441 440 384
f 385 441 384
f 442 441 385
f 386 442 385
f 443 442 386
f 387 443 386
f 444 443 387
f 388 444 387
f 445 444 388
f 389 445 388
f 446 445 389
f 390 446 389
f 447 446 390
f 391 447 390
f 448 447 391
f 392 448 391
f 393 448 392
f 337 393 392
f 450 449 393
f 394 450 393
f 451 450 394
f 395 451 394
f 452 451 395
f 396 452 395
f 453 452 396
f 397 453 396
f 454 453 397
f 398 454 397
f 455 454 398
f 399 455 398
f 456 455 399
f 400 456 399
f 457 456 400
f 401 457 400
f 458 457 401
f 402 458 401
f 459 458 402
f 403 459 402
f 460 459 403
f 404 460 403
f 461 460 404
f 405 461 404
f 462 461 405
f 406 462 405
f 463 462 406
f 407 463 406
f 464 463 407
f 408 464 407
f 465 464 408
f 409 465 408
f 466 465 409
f 410 466 409
f 467 466 410
f 411 467 410
f 468 467 411
f 412 468 411
f 469 468 412
f 413 469 412
f 470 469 413
f 414 470 413
f 471 470 414
f 415 471 414
f 472 471 415
f 416 472 415
f 473 472 416
f 417 473 416
f 474 473 417
f 418 474 417
f 475 474 418
f 419 475 418
f 476 475 419
f 420 476 419
f 477 476 420
f 421 477 420
f 478 477 421
f 422 478 421
f 479 478 422
f 423 479 422
f 480 479 423
f 424 480 423
f 481 480 424
f 425 481 424
f 482 481 425
f 426 482 425
f 483 482 426
f 427 483 426
f 484 483 427
f 428 484 427
f 485 484 428
f 429 485 428
f 486 485 429
f 430 486 429
f 487 486 430
f 431 487 430
f 488 487 431
f 432 488 431
f 489 488 432
f 433 489 432
f 490 489 433
f 434 490 433
f 491 490 434
f 435 491 434
f 492 491 435
f 436 492 435
f 493 492 436
f 437 493 436
f 494 493 437
f 438 494 437
f 495 494 438
f 439 495 438
f 496 495 439
f 440 496 439
f 497 496 440
f 441 497 440
f 498 497 441
f 442 498 441
f 499 498 442
f 443 499 442
f 500 499 443
f 444 500 443
f 501 500 444
f 445 501 444
f 502 501 445
f 446 502 445
f 503 502 446
f 447 503 446
f 504 503 447
f 448 504 447
f 449 504 448
f 393 449 448
f 506 505 449
f 450 506 449
f 507 506 450
f 451 507 450
f 508 507 451
f 452 508 451
f 509 508 452
f 453 509 452
f 510 509 453
f 454 510 453
f 511 510 454
f 455 511 454
f 512 511 455
f 456 512 455
f 513 512 456
f 457 513 456
f 514 513 457
f 458 514 457
f 515 514 458
f 459 515 458
f 516 515 459
f 460 516 459
f 517 516 460
f 461 517 460
f 518 517 461
f 462 518 461
f 519 518 462
f 463 519 462
f 520 519 463
f 464 520 463
f 521 520 464
f 465 521 464
f 522 521 465
f 466 522 465
f 523 522 466
f 467 523 466
f 524 523 467
f 468 524 467
f 525 524 468
f 469 525 468
f 526 525 469
f 470 526 469
f 527 526 470
f 471 527 470
f 528 527 471
f 472 528 471
f 529 528 472
f 473 529 472
f 530 529 473
f 474 530 473
f 531 530 474
f 475 531 474
f 532 531 475
f 476 532 475
f 533 532 476
f 477 533 476
f 534 533 477
f 478 534 477
f 535 534 478
f 479 535 478
f 536 535 479
f 480 536 479
f 537 536 480
f 481 537 480
f 538 537 481
f 482 538 481
f 539 538 482
f 483 539 482
f 540 539 483
f 484 540 483
f 541 540 484
f 485 541 484
f 542 541 485
f 486 542 485
f 543 542 486
f 487 543 486
f 544 543 487
f 488 544 487
f 545 544 488
f 489 545 488
f 546 545 489
f 490 546 489
f 547 546 490
f 491 547 490
f 548 547 491
f 492 548 491
f 549 548 492
f 493 549 492
f 550 549 493
f 494 550 493
f 551 550 494
f 495 551 494
f 552 551 495
f 496 552 495
f 553 552 496
f 497 553 496
f 554 553 497
f 498 554 497
f 555 554 498
f 499 555 498
f 556 555 499
f 500 556 499
f 557 556 500
f 501 557 500
f 558 557 501
f 502 558 501
f 559 558 502
f 503 559 502
f 560 559 503
f 504 560 503
f 505 560 504
f 449 505 504
f 562 561 505
f 506 562 505
f 563 562 506
f 507 563 506
f 564 563 507
f 508 564 507
f 565 564 508
f 509 565 508
f 566 565 509
f 510 566 509
f 567 566 510
f 511 567 510
f 568 567 511
f 512 568 511
f 569 568 512
f 513 569 512
f 570 569 513
f 514 570 513
f 571 570 514
f 515 571 514
f 572 571 515
f 516 572 515
f 573 572 516
f 517 573 516
f 574 573 517
f 518 574 517
f 575 574 518
f 519 575 518
f 576 575 519
f 520 576 519
f 577 576 520
f 521 577 520
f 578 577 521
f 522 578 521
f 579 578 522
f 523 579 522
f 580 579 523
f 524 580 523
f 581 580 524
f 525 581 524
f 582 581 525
f 526 582 525
f 583 582 526
f 527 583 526
f 584 583 527
f 528 584 527
f 585 584 528
f 529 585 528
f 586 585 529
f 530 586 529
f 587 586 530
f 531 587 530
f 588 587 531
f 532 588 531
f 589 588 532
f 533 589 532
f 590 589 533
f 534 590 533
f 591 590 534
f 535 591 534
f 592 591 535
f 536 592 535
f 593 592 536
f 537 593 536
f 594 593 537
f 538 594 537
f 595 594 538
f 539 595 538
f 596 595 539
f 540 596 539
f 597 596 540
f 541 597 540
f 598 597 541
f 542 598 541
f 599 598 542
f 543 599 542
f 600 599 543
f 544 600 543
f 601 600 544
f 545 601 544
f 602 601 545
f 546 602 545
f 603 602 546
f 547 603 546
f 604 603 547
f 548 604 547
f 605 604 548
f 549 605 548
f 606 605 549
f 550 606 549
f 607 606 550
f 551 607 550
f 608 607 551
f 552 608 551
f 609 608 552
f 553 609 552
f 610 609 553
f 554 610 553
f 611 610 554
f 555 611 554
f 612 611 555
f 556 612 555
f 613 612 556
f 557 613 556
f 614 613 557
f 558 614 557
f 615 614 558
f 559 615 558
f 616 615 559
f 560 616 559
f 561 616 560
f 505 561 560
f 618 617 561
f 562 618 561
f 619 618 562
f 563 619 562
f 620 619 563
f 564 620 563
f 621 620 564
f 565 621 564
f 622 621 565
f 566 622 565
f 623 622 566
f 567 623 566
f 624 623 567
f 568 624 567
f 625 624 568
f 569 625 568
f 626 625 569
f 570 626 569
f 627 626 570
f 571 627 570
f 628 627 571
f 572 628 571
f 629 628 572
f 573 629 572
f 630 629 573
f 574 630 573
f 631 630 574
f 575 631 574
f 632 631 575
f 576 632 575
f 633 632 576
f 577 633 576
f 634 633 577
f 578 634 577
f 635 634 578
f 579 635 578
f 636 635 579
f 580 636 579
f 637 636 580
f 581 637 580
f 638 637 581
f 582 638 581
f 639 638 582
f 583 639 582
f 640 639 583
f 584 640 583
f 641 640 584
f 585 641 584
f 642 641 585
f 586 642 585
f 643 642 586
f 587 643 586
f 644 643 587
f 588 644 587
f 645 644 588
f 589 645 588
f 646 645 589
f 590 646 589
f 647 646 590
f 591 647 590
f 648 647 591
f 592 648 591
f 649 648 592
f 593 649 592
f 650 649 593
f 594 650 593
f 651 650 594
f 595 651 594
f 652 651 595
f 596 652 595
f 653 652 596
f 597 653 596
f 654 653 597
f 598 654 597
f 655 654 598
f 599 655 598
f 656 655 599
f 600 656 599
f 657 656 600
f 601 657 600
f 658 657 601
f 602 658 601
f 659 658 602
f 603 659 602
f 660 659 603
f 604 660 603
f 661 660 604
f 605 661 604
f 662 661 605
f 606 662 605
f 663 662 606
f 607 663 606
f 664 663 607
f 608 664 607
f 665 664 608
f 609 665 608
f 666 665 609
f 610 666 609
f 667 666 610
f 611 667 610
f 668 667 611
f 612 668 611
f 669 668 612
f 613 669 612
f 670 669 613
f 614 670 613
f 671 670 614
f 615 671 614
f 672 671 615
f 616 672 615
f 617 672 616
f 561 617 616
f 674 673 617
f 618 674 617
f 675 674 618
f 619 675 618
f 676 675 619
f 620 676 619
f 677 676 620
f 621 677 620
f 678 677 621
f 622 678 621
f 679 678 622
f 623 679 622
f 680 679 623
f 624 680 623
f 681 680 624
f 625 681 624
f 682 681 625
f 626 682 625
f 683 682 626
f 627 683 626
f 684 683 627
f 628 684 627
f 685 684 628
f 629 685 628
f 686 685 629
f 630 686 629
f 687 686 630
f 631 687 630
f 688 687 631
f 632 688 631
f 689 688 632
f 633 689 632
f 690 689 633
f 634 690 633
f 691 690 634
f 635 691 634
f 692 691 635
f 636 692 635
f 693 692 636
f 637 693 636
f 694 693 637
f 638 694 637
f 695 694 638
f 639 695 638
f 696 695 639
f 640 696 639
f 697 696 640
f 641 697 640
f 698 697 641
f 642 698 641
f 699 698 642
f 643 699 642
f 700 699 643
f 644 700 643
f 701 700 644
f 645 701 644
f 702 701 645
f 646 702 645
f 703 702 646
f 647 703 646
f 704 703 647
f 648 704 647
f 705 704 648
f 649 705 648
f 706 705 649
f 650 706 649
f 707 706 650
f 651 707 650
f 708 707 651
f 652 708 651
f 709 708 652
f 653 709 652
f 710 709 653
f 654 710 653
f 711 710 654
f 655 711 654
f 712 711 655
f 656 712 655
f 713 712 656
f 657 713 656
f 714 713 657
f 658 714 657
f 715 714 658
f 659 715 658
f 716 715 659
f 660 716 659
f 717 716 660
f 661 717 660
f 718 717 661
f 662 718 661
f 719 718 662
f 663 719 662
f 720 719 663
f 664 720 663
f 721 720 664
f 665 721 664
f 722 721 665
f 666 722 665
f 723 722 666
f 667 723 666
f 724 723 667
f 668 724 667
f 725 724 668
f 669 725 668
f 726 725 669
f 670 726 669
f 727 726 670
f 671 727 670
f 728 727 671
f 672 728 671
f 673 728 672
f 617 673 672
f 730 729 673
f 674 730 673
f 731 730 674
f 675 731 674
f 732 731 675
f 676 732 675
f 733 732 676
f 677 733 676
f 734 733 677
f 678 734 677
f 735 734 678
f 679 735 678
f 736 735 679
f 680 736 679
f 737 736 680
f 681 737 680
f 738 737 681
f 682 738 681
f 739 738 682
f 683 739 682
f 740 739 683
f 684 740 683
f 741 740 684
f 685 741 684
f 742 741 685
f 686 742 685
f 743 742 686
f 687 743 686
f 744 743 687
f 688 744 687
f 745 744 688
f 689 745 688
f 746 745 689
f 690 746 689
f 747 746 690
f 691 747 690
f 748 747 691
f 692 748 691
f 749 748 692
f 693 749 692
f 750 749 693
f 694 750 693
f 751 750 694
f 695 751 694
f 752 751 695
f 696 752 695
f 753 752 696
f 697 753 696
f 754 753 697
f 698 754 697
f 755 754 698
f 699 755 698
f 756 755 699
f 700 756 699
f 757 756 700
f 701 757 700
f 758 757 701
f 702 758 701
f 759 758 702
f 703 759 702
f 760 759 703
f 704 760 703
f 761 760 704
f 705 761 704
f 762 761 705
f 706 762 705
f 763 762 706
f 707 763 706
f 764 763 707
f 708 764 707
f 765 764 708
f 709 765 708
f 766 765 709
f 710 766 709
f 767 766 710
f 711 767 710
f 768 767 711
f 712 768 711
f 769 768 712
f 713 769 712
f 770 769 713
f 714 770 713
f 771 770 714
f 715 771 714
f 772 771 715
f 716 772 715
f 773 772 716
f 717 773 716
f 774 773 717
f 718 774 717
f 775 774 718
f 719 775 718
f 776 775 719
f 720 776 719
f 777 776 720
f 721 777 720
f 778 777 721
f 722 778 721
f 779 778 722
f 723 779 722
f 780 779 723
f 724 780 723
f 781 780 724
f 725 781 724
f 782 781 725
f 726 782 725
f 783 782 726
f 727 783 726
f 784 783 727
f 728 784 727
f 729 784 728
f 673 729 728
f 786 785 729
f 730 786 729
f 787 786 730
f 731 787 730
f 788 787 731
f 732 788 731
f 789 788 732
f 733 789 732
f 790 789 733
f 734 790 733
f 791 790 734
f 735 791 734
f 792 791 735
f 736 792 735
f 793 792 736
f 737 793 736
f 794 793 737
f 738 794 737
f 795 794 738
f 739 795 738
f 796 795 739
f 740 796 739
f 797 796 740
f 741 797 740
f 798 797 741
f 742 798 741
f 799 798 742
f 743 799 742
f 800 799 743
f 744 800 743
f 801 800 744
f 745 801 744
f 802 801 745
f 746 802 745
f 803 802 746
f 747 803 746
f 804 803 747
f 748 804 747
f 805 804 748
f 749 805 748
f 806 805 749
f 750 806 749
f 807 806 750
f 751 807 750
f 808 807 751
f 752 808 751
f 809 808 752
f 753 809 752
f 810 809 753
f 754 810 753
f 811 810 754
f 755 811 754
f 812 811 755
f 756 812 755
f 813 812 756
f 757 813 756
f 814 813 757
f 758 814 757
f 815 814 758
f 759 815 758
f 816 815 759
f 760 816 759
f 817 816 760
f 761 817 760
f 818 817 761
f 762 818 761
f 819 818 762
f 763 819 762
f 820 819 763
f 764 820 763
f 821 820 764
f 765 821 764
f 822 821 765
f 766 822 765
f 823 822 766
f 767 823 766
f 824 823 767
f 768 824 767
f 825 824 768
f 769 825 768
f 826 825 769
f 770 826 769
f 827 826 770
f 771 827 770
f 828 827 771
f 772 828 771
f 829 828 772
f 773 829 772
f 830 829 773
f 774 830 773
f 831 830 774
f 775 831 774
f 832 831 775
f 776 832 775
f 833 832 776
f 777 833 776
f 834 833 777
f 778 834 777
f 835 834 778
f 779 835 778
f 836 835 779
f 780 836 779
f 837 836 780
f 781 837 780
f 838 837 781
f 782 838 781
f 839 838 782
f 783 839 782
f 840 839 783
f 784 840 783
f 785 840 784
f 729 785 784
f 842 841 785
f 786 842 785
f 843 842 786
f 787 843 786
f 844 843 787
f 788 844 787
f 845 844 788
f 789 845 788
f 846 845 789
f 790 846 789
f 847 846 790
f 791 847 790
f 848 847 791
f 792 848 791
f 849 848 792
f 793 849 792
f 850 849 793
f 794 850 793
f 851 850 794
f 795 851 794
f 852 851 795
f 796 852 795
f 853 852 796
f 797 853 796
f 854 853 797
f 798 854 797
f 855 854 798
f 799 855 798
f 856 855 799
f 800 856 799
f 857 856 800
f 801 857 800
f 858 857 801
f 802 858 801
f 859 858 802
f 803 859 802
f 860 859 803
f 804 860 803
f 861 860 804
f 805 861 804
f 862 861 805
f 806 862 805
f 863 862 806
f 807 863 806
f 864 863 807
f 808 864 807
f 865 864 808
f 809 865 808
f 866 865 809
f 810 866 809
f 867 866 810
f 811 867 810
f 868 867 811
f 812 868 811
f 869 868 812
f 813 869 812
f 870 869 813
f 814 870 813
f 871 870 814
f 815 871 814
f 872 871 815
f 816 872 815
f 873 872 816
f 817 873 816
f 874 873 817
f 818 874 817
f 875 874 818
f 819 875 818
f 876 875 819
f 820 876 819
f 877 876 820
f 821 877 820
f 878 877 821
f 822 878 821
f 879 878 822
f 823 879 822
f 880 879 823
f 824 880 823
f 881 880 824
f 825 881 824
f 882 881 825
f 826 882 825
f 883 882 826
f 827 883 826
f 884 883 827
f 828 884 827
f 885 884 828
f 829 885 828
f 886 885 829
f 830 886 829
f 887 886 830
f 831 887 830
f 888 887 831
f 832 888 831
f 889 888 832
f 833 889 832
f 890 889 833
f 834 890 833
f 891 890 834
f 835 891 834
f 892 891 835
f 836 892 835
f 893 892 836
f 837 893 836
f 894 893 837
f 838 894 837
f 895 894 838
f 839 895 838
f 896 895 839
f 840 896 839
f 841 896 840
f 785 841 840
f 898 897 841
f 842 898 841
f 899 898 842
f 843 899 842
f 900 899 843
f 844 900 843
f 901 900 844
f 845 901 844
f 902 901 845
f 846 902 845
f 903 902 846
f 847 903 846
f 904 903 847
f 848 904 847
f 905 904 848
f 849 905 848
f 906 905 849
f 850 906 849
f 907 906 850
f 851 907 850
f 908 907 851
f 852 908 851
f 909 908 852
f 853 909 852
f 910 909 853
f 854 910 853
f 911 910 854
f 855 911 854
f 912 911 855
f 856 912 855
f 913 912 856
f 857 913 856
f 914 913 857
f 858 914 857
f 915 914 858
f 859 915 858
f 916 915 859
f 860 916 859
f 917 916 860
f 861 917 860
f 918 917 861
f 862 918 861
f 919 918 862
f 863 919 862
f 920 919 863
f 864 920 863
f 921 920 864
f 865 921 864
f 922 921 865
f 866 922 865
f 923 922 866
f 867 923 866
f 924 923 867
f 868 924 867
f 925 924 868
f 869 925 868
f 926 925 869
f 870 926 869
f 927 926 870
f 871 927 870
f 928 927 871
f 872 928 871
f 929 928 872
f 873 929 872
f 930 929 873
f 874 930 873
f 931 930 874
f 875 931 874
f 932 931 875
f 876 932 875
f 933 932 876
f 877 933 876
f 934 933 877
f 878 934 877
f 935 934 878
f 879 935 878
f 936 935 879
f 880 936 879
f 937 936 880
f 881 937 880
f 938 937 881
f 882 938 881
f 939 938 882
f 883 939 882
f 940 939 883
f 884 940 883
f 941 940 884
f 885 941 884
f 942 941 885
f 886 942 885
f 943 942 886
f 887 943 886
f 944 943 887
f 888 944 887
f 945 944 888
f 889 945 888
f 946 945 889
f 890 946 889
f 947 946 890
f 891 947 890
f 948 947 891
f 892 948 891
f 949 948 892
f 893 949 892
f 950 949 893
f 894 950 893
f 951 950 894
f 895 951 894
f 952 951 895
f 896 952 895
f 897 952 896
f 841 897 896
f 954 953 897
f 898 954 897
f 955 954 898
f 899 955 898
f 956 955 899
f 900 956 899
f 957 956 900
f 901 957 900
f 958 957 901
f 902 958 901
f 959 958 902
f 903 959 902
f 960 959 903
f 904 960 903
f 961 960 904
f 905 961 904
f 962 961 905
f 906 962 905
f 963 962 906
f 907 963 906
f 964 963 907
f 908 964 907
f 965 964 908
f 909 965 908
f 966 965 909
f 910 966 909
f 967 966 910
f 911 967 910
f 968 967 911
f 912 968 911
f 969 968 912
f 913 969 912
f 970 969 913
f 914 970 913
f 971 970 914
f 915 971 914
f 972 971 915
f 916 972 915
f 973 972 916
f 917 973 916
f 974 973 917
f 918 974 917
f 975 974 918
f 919 975 918
f 976 975 919
f 920 976 919
f 977 976 920
f 921 977 920
f 978 977 921
f 922 978 921
f 979 978 922
f 923 979 922
f 980 979 923
f 924 980 923
f 981 980 924
f 925 981 924
f 982 981 925
f 926 982 925
f 983 982 926
f 927 983 926
f 984 983 927
f 928 984 927
f 985 984 928
f 929 985 928
f 986 985 929
f 930 986 929
f 987 986 930
f 931 987 930
f 988 987 931
f 932 988 931
f 989 988 932
f 933 989 932
f 990 989 933
f 934 990 933
f 991 990 934
f 935 991 934
f 992 991 935
f 936 992 935
f 993 992 936
f 937 993 936
f 994 993 937
f 938 994 937
f 995 994 938
f 939 995 938
f 996 995 939
f 940 996 939
f 997 996 940
f 941 997 940
f 998 997 941
f 942 998 941
f 999 998 942
f 943 999 942
f 1000 999 943
f 944 1000 943
f 1001 1000 944
f 945 1001 944
f 1002 1001 945
f 946 1002 945
f 1003 1002 946
f 947 1003 946
f 1004 1003 947
f 948 1004 947
f 1005 1004 948
f 949 1005 948
f 1006 1005 949
f 950 1006 949
f 1007 1006 950
f 951 1007 950
f 1008 1007 951
f 952 1008 951
f 953 1008 952
f 897 953 952
f 1010 1009 953
f 954 1010 953
f 1011 1010 954
f 955 1011 954
f 1012 1011 955
f 956 1012 955
f 1013 1012 956
f 957 1013 956
f 1014 1013 957
f 958 1014 957
f 1015 1014 958
f 959 1015 958
f 1016 1015 959
f 960 1016 959
f 1017 1016 960
f 961 1017 960
f 1018 1017 961
f 962 1018 961
f 1019 1018 962
f 963 1019 962
f 1020 1019 963
f 964 1020 963
f 1021 1020 964
f 965 1021 964
f 1022 1021 965
f 966 1022 965
f 1023 1022 966
f 967 1023 966
f 1024 1023 967
f 968 1024 967
f 1025 1024 968
f 969 1025 968
f 1026 1025 969
f 970 1026 969
f 1027 1026 970
f 971 1027 970
f 1028 1027 971
f 972 1028 971
f 1029 1028 972
f 973 1029 972
f 1030 1029 973
f 974 1030 973
f 1031 1030 974
f 975 1031 974
f 1032 1031 975
f 976 1032 975
f 1033 1032 976
f 977 1033 976
f 1034 1033 977
f 978 1034 977
f 1035 1034 978
f 979 1035 978
f 1036 1035 979
f 980 1036 979
f 1037 1036 980
f 981 1037 980
f 1038 1037 981
f 982 1038 981
f 1039 1038 982
f 983 1039 982
f 1040 1039 983
f 984 1040 983
f 1041 1040 984
f 985 1041 984
f 1042 1041 985
f 986 1042 985
f 1043 1042 986
f 987 1043 986
f 1044 1043 987
f 988 1044 987
f 1045 1044 988
f 989 1045 988
f 1046 1045 989
f 990 1046 989
f 1047 1046 990
f 991 1047 990
f 1048 1047 991
f 992 1048 991
f 1049 1048 992
f 993 1049 992
f 1050 1049 993
f 994 1050 993
f 1051 1050 994
f 995 1051 994
f 1052 1051 995
f 996 1052 995
f 1053 1052 996
f 997 1053 996
f 1054 1053 997
f 998 1054 997
f 1055 1054 998
f 999 1055 998
f 1056 1055 999
f 1000 1056 999
f 1057 1056 1000
f 1001 1057 1000
f 1058 1057 1001
f 1002 1058 1001
f 1059 1058 1002
f 1003 1059 1002
f 1060 1059 1003
f 1004 1060 1003
f 1061 1060 1004
f 1005 1061 1004
f 1062 1061 1005
f 1006 1062 1005
f 1063 1062 1006
f 1007 1063 1006
f 1064 1063 1007
f 1008 1064 1007
f 1009 1064 1008
f 953 1009 1008
f 1066 1065 1009
f 1010 1066 1009
f 1067 1066 1010
f 1011 1067 1010
f 1068 1067 1011
f 1012 1068 1011
f 1069 1068 1012
f 1013 1069 1012
f 1070 1069 1013
f 1014 1070 1013
f 1071 1070 1014
f 1015 1071 1014
f 1072 1071 1015
f 1016 1072 1015
f 1073 1072 1016
f 1017 1073 1016
f 1074 1073 1017
f 1018 1074 1017
f 1075 1074 1018
f 1019 1075 1018
f 1076 1075 1019
f 1020 1076 1019
f 1077 1076 1020
f 1021 1077 1020
f 1078 1077 1021
f 1022 1078 1021
f 1079 1078 1022
f 1023 1079 1022
f 1080 1079 1023
f 1024 1080 1023
f 1081 1080 1024
f 1025 1081 1024
f 1082 1081 1025
f 1026 1082 1025
f 1083 1082 1026
f 1027 1083 1026
f 1084 1083 1027
f 1028 1084 1027
f 1085 1084 1028
f 1029 1085 1028
f 1086 1085 1029
f 1030 1086 1029
f 1087 1086 1030
f 1031 1087 1030
f 1088 1087 1031
f 1032 1088 1031
f 1089 1088 1032
f 1033 1089 1032
f 1090 1089 1033
f 1034 1090 1033
f 1091 1090 1034
f 1035 1091 1034
f 1092 1091 1035
f 1036 1092 1035
f 1093 1092 1036
f 1037 1093 1036
f 1094 1093 1037
f 1038 1094 1037
f 1095 1094 1038
f 1039 1095 1038
f 1096 1095 1039
f 1040 1096 1039
f 1097 1096 1040
f 1041 1097 1040
f 1098 1097 1041
f 1042 1098 1041
f 1099 1098 1042
f 1043 1099 1042
f 1100 1099 1043
f 1044 1100 1043
f 1101 1100 1044
f 1045 1101 1044
f 1102 1101 1045
f 1046 1102 1045
f 1103 1102 1046
f 1047 1103 1046
f 1104 1103 1047
f 1048 1104 1047
f 1105 1104 1048
f 1049 1105 1048
f 1106 1105 1049
f 1050 1106 1049
f 1107 1106 1050
f 1051 1107 1050
f 1108 1107 1051
f 1052 1108 1051
f 1109 1108 1052
f 1053 1109 1052
f 1110 1109 1053
f 1054 1110 1053
f 1111 1110 1054
f 1055 1111 1054
f 1112 1111 1055
f 1056 1112 1055
f 1113 1112 1056
f 1057 1113 1056
f 1114 1113 1057
f 1058 1114 1057
f 1115 1114 1058
f 1059 1115 1058
f 1116 1115 1059
f 1060 1116 1059
f 1117 1116 1060
f 1061 1117 1060
f 1118 1117 1061
f 1062 1118 1061
f 1119 1118 1062
f 1063 1119 1062
f 1120 1119 1063
f 1064 1120 1063
f 1065 1120 1064
f 1009 1065 1064
f 2 1 1121
f 3 2 1121
f 4 3 1121
f 5 4 1121
f 6 5 1121
f 7 6 1121
f 8 7 1121
f 9 8 1121
f 10 9 1121
f 11 10 1121
f 12 11 1121
f 13 12 1121
f 14 13 1121
f 15 14 1121
f 16 15 1121
f 17 16 1121
f 18 17 1121
f 19 18 1121
f 20 19 1121
f 21 20 1121
f 22 21 1121
f 23 22 1121
f 24 23 1121
f 25 24 1121
f 26 25 1121
f 27 26 1121
f 28 27 1121
f 29 28 1121
f 30 29 1121
f 31 30 1121
f 32 31 1121
f 33 32 1121
f 34 33 1121
f 35 34 1121
f 36 35 1121
f 37 36 1121
f 38 37 1121
f 39 38 1121
f 40 39 1121
f 41 40 1121
f 42 41 1121
f 43 42 1121
f 44 43 1121
f 45 44 1121
f 46 45 1121
f 47 46 1121
f 48 47 1121
f 49 48 1121
f 50 49 1121
f 51 50 1121
f 52 51 1121
f 53 52 1121
f 54 53 1121
f 55 54 1121
f 56 55 1121
f 1 56 1121
f 1122 1065 1066
f 1122 1066 1067
f 1122 1067 1068
f 1122 1068 1069
f 1122 1069 1070
f 1122 1070 1071
f 1122 1071 1072
f 1122 1072 1073
f 1122 1073 1074
f 1122 1074 1075
f 1122 1075 1076
f 1122 1076 1077
f 1122 1077 1078
f 1122 1078 1079
f 1122 1079 1080
f 1122 1080 1081
f 1122 1081 1082
f 1122 1082 1083
f 1122 1083 1084
f 1122 1084 1085
f 1122 1085 1086
f 1122 1086 1087
f 1122 1087 1088
f 1122 1088 1089
f 1122 1089 1090
f 1122 1090 1091
f 1122 1091 1092
f 1122 1092 1093
f 1122 1093 1094
f 1122 1094 1095
f 1122 1095 1096
f 1122 1096 1097
f 1122 1097 1098
f 1122 1098 1099
f 1122 1099 1100
f 1122 1100 1101
f 1122 1101 1102
f 1122 1102 1103
f 1122 1103 1104
f 1122 1104 1105
f 1122 1105 1106
f 1122 1106 1107
f 1122 1107 1108
f 1122 1108 1109
f 1122 1109 1110
f 1122 1110 1111
f 1122 1111 1112
f 1122 1112 1113
f 1122 1113 1114
f 1122 1114 1115
f 1122 1115 1116
f 1122 1116 1117
f 1122 1117 1118
f 1122 1118 1119
f 1122 1119 1120
f 1122 1120 1065
