v -0.063234 -0.036605 -0.025300
v -0.063234 -0.040148 -0.007937
v -0.063234 -0.036605 -0.007937
v -0.063234 -0.040148 0.000000
v -0.063234 -0.036605 0.000000
v -0.063234 -0.036605 0.029268
v -0.063234 0.036605 -0.025300
v -0.063234 0.036605 -0.007937
v -0.063234 0.040148 -0.007937
v -0.063234 0.036605 0.000000
v -0.063234 0.040148 0.000000
v -0.063234 0.036605 0.029268
v 0.038756 -0.036605 -0.025300
v 0.038756 -0.036605 -0.007937
v 0.038756 -0.036605 0.000000
v 0.055075 -0.040148 -0.007937
v 0.055075 -0.040148 0.000000
v 0.038756 -0.036605 0.029268
v 0.038756 0.036605 -0.025300
v 0.038756 0.036605 -0.007937
v 0.038756 0.036605 0.000000
v 0.055075 0.040148 -0.007937
v 0.055075 0.040148 0.000000
v 0.038756 0.036605 0.029268
g battery
f 1 3 12
f 1 13 3
f 1 7 13
f 3 5 12
f 5 6 12
f 6 5 15
f 1 8 7
f 1 10 8
f 12 10 1
f 7 8 20
f 6 24 12
f 12 24 10
f 13 14 3
f 13 19 14
f 6 15 18
f 6 18 24
f 18 15 21
f 7 19 13
f 7 20 19
f 19 20 14
f 24 21 10
f 18 21 24
f 2 5 3
f 2 4 5
f 2 3 14
f 2 16 4
f 4 15 5
f 9 8 11
f 11 8 10
f 9 20 8
f 9 11 23
f 11 10 23
f 2 14 16
f 4 17 15
f 4 16 17
f 16 14 22
f 16 22 17
f 17 21 15
f 9 22 20
f 23 10 21
f 9 23 22
f 22 14 20
f 17 22 23
f 17 23 21
