# sionna2 mesh — phantom4__canopy.obj
# group=canopy  verts=1273  tris=2542
v -0.056765 -0.046590 0.015698
v -0.056765 -0.041450 0.014954
v -0.051239 -0.046195 0.012692
v -0.056765 -0.051661 0.016779
v -0.062296 -0.044693 0.019101
v -0.051239 -0.057543 0.014861
v -0.056765 -0.056536 0.018451
v -0.051239 -0.051913 0.013572
v -0.045744 -0.068230 0.015551
v -0.040249 -0.066300 0.012119
v -0.040249 -0.072428 0.014549
v -0.045744 -0.073117 0.019058
v -0.051239 -0.067509 0.019980
v -0.040249 -0.077556 0.018342
v -0.045744 -0.056341 0.011856
v -0.040249 -0.053264 0.009451
v -0.040249 -0.059841 0.010531
v -0.045744 -0.050143 0.010864
v -0.045744 -0.043900 0.010167
v -0.040249 -0.046637 0.008695
v -0.051239 -0.062921 0.016846
v -0.045744 -0.062433 0.013314
v -0.062296 -0.052779 0.022501
v -0.066486 -0.042518 0.026482
v -0.066486 -0.040253 0.024230
v -0.062296 -0.055300 0.025796
v -0.062296 -0.048969 0.020394
v -0.056765 -0.060767 0.021124
v -0.056765 -0.063442 0.025115
v -0.066486 -0.043355 0.029526
v -0.062296 -0.056039 0.029915
v -0.066486 -0.042888 0.032678
v -0.051239 -0.070331 0.024539
v -0.056765 -0.064205 0.029934
v -0.062296 -0.055287 0.034017
v -0.045744 -0.076067 0.024077
v -0.040249 -0.080617 0.023718
v -0.051239 -0.071125 0.029942
v -0.045744 -0.076886 0.029959
v -0.040249 -0.081459 0.029976
v -0.062296 -0.031356 0.017262
v -0.066486 -0.023594 0.020825
v -0.062296 -0.026869 0.016975
v -0.066486 -0.020154 0.020635
v -0.062296 -0.022377 0.016784
v -0.056765 -0.036280 0.014429
v -0.051239 -0.040438 0.012073
v -0.056765 -0.031095 0.014064
v -0.051239 -0.034662 0.011642
v -0.062296 -0.040285 0.018259
v -0.062296 -0.035831 0.017674
v -0.056765 -0.025901 0.013824
v -0.056765 -0.020704 0.013676
v -0.051239 -0.028876 0.011361
v -0.051239 -0.023085 0.011186
v -0.066486 -0.016711 0.020509
v -0.062296 -0.017881 0.016669
v -0.066486 -0.013266 0.020434
v -0.062296 -0.013385 0.016600
v -0.066486 -0.009820 0.020391
v -0.062296 -0.008888 0.016572
v -0.066486 -0.006374 0.020373
v -0.062296 -0.004391 0.016556
v -0.066486 -0.002928 0.020362
v -0.062296 0.000107 0.016547
v -0.056765 -0.015505 0.013587
v -0.056765 -0.010305 0.013552
v -0.051239 -0.017292 0.011081
v -0.051239 -0.011498 0.011039
v -0.056765 -0.005105 0.013532
v -0.056765 0.000095 0.013520
v -0.051239 -0.005704 0.011015
v -0.051239 0.000091 0.011002
v -0.045744 -0.037634 0.009683
v -0.045744 -0.031356 0.009368
v -0.045744 -0.025073 0.009172
v -0.040249 -0.039984 0.008171
v -0.040249 -0.033318 0.007829
v -0.040249 -0.026646 0.007616
v -0.040249 -0.019972 0.007486
v -0.045744 -0.018787 0.009052
v -0.045744 -0.012501 0.009005
v -0.045744 -0.006214 0.008979
v -0.045744 0.000073 0.008964
v -0.040249 -0.013296 0.007434
v -0.040249 -0.006620 0.007406
v -0.040249 0.000056 0.007390
v -0.066486 -0.037172 0.022871
v -0.066486 -0.033844 0.022040
v -0.066486 -0.030449 0.021486
v -0.066486 -0.027028 0.021098
v -0.067834 0.000000 0.030031
v -0.066486 0.000518 0.020357
v -0.034754 -0.069174 0.011257
v -0.029259 -0.064172 0.008977
v -0.029259 -0.071086 0.010713
v -0.034754 -0.075551 0.013824
v -0.034754 -0.080864 0.017822
v -0.029259 -0.077631 0.013365
v -0.029259 -0.083072 0.017491
v -0.034754 -0.062442 0.009577
v -0.034754 -0.055584 0.008436
v -0.034754 -0.048671 0.007637
v -0.034754 -0.041731 0.007083
v -0.029259 -0.057127 0.007797
v -0.029259 -0.050025 0.006973
v -0.029259 -0.042895 0.006401
v -0.023764 -0.072069 0.010470
v -0.023764 -0.065061 0.008712
v -0.018269 -0.072154 0.010515
v -0.023764 -0.078703 0.013158
v -0.018269 -0.065136 0.008766
v -0.012774 -0.071372 0.010831
v -0.018269 -0.078800 0.013192
v -0.012774 -0.064427 0.009120
v -0.023764 -0.084217 0.017339
v -0.012774 -0.077955 0.013454
v -0.018269 -0.084331 0.017360
v -0.023764 -0.057920 0.007517
v -0.023764 -0.050721 0.006682
v -0.023764 -0.043494 0.006102
v -0.018269 -0.057987 0.007576
v -0.018269 -0.050781 0.006745
v -0.012774 -0.057356 0.007956
v -0.018269 -0.043548 0.006168
v -0.012774 -0.050229 0.007142
v -0.012774 -0.043076 0.006576
v -0.034754 -0.084013 0.023457
v -0.029259 -0.086289 0.023291
v -0.034754 -0.084876 0.029992
v -0.029259 -0.087169 0.030008
v -0.023764 -0.087477 0.023216
v -0.018269 -0.087610 0.023229
v -0.012774 -0.083448 0.017545
v -0.023764 -0.088370 0.030023
v -0.018269 -0.088512 0.030037
v -0.012774 -0.086721 0.023326
v -0.034754 -0.034778 0.006723
v -0.034754 -0.027817 0.006498
v -0.034754 -0.020854 0.006360
v -0.029259 -0.035750 0.006029
v -0.029259 -0.028598 0.005796
v -0.029259 -0.021444 0.005654
v -0.034754 -0.013890 0.006306
v -0.034754 -0.006925 0.006276
v -0.034754 0.000040 0.006259
v -0.029259 -0.014288 0.005598
v -0.029259 -0.007132 0.005567
v -0.029259 0.000024 0.005549
v -0.023764 -0.036252 0.005726
v -0.023764 -0.029003 0.005490
v -0.023764 -0.021752 0.005345
v -0.018269 -0.036299 0.005792
v -0.018269 -0.029044 0.005557
v -0.012774 -0.035908 0.006207
v -0.018269 -0.021786 0.005413
v -0.012774 -0.028734 0.005977
v -0.012774 -0.021557 0.005836
v -0.023764 -0.014498 0.005288
v -0.023764 -0.007245 0.005257
v -0.023764 0.000008 0.005239
v -0.018269 -0.014526 0.005356
v -0.018269 -0.007266 0.005325
v -0.012774 -0.014378 0.005780
v -0.018269 -0.000006 0.005307
v -0.012774 -0.007200 0.005750
v -0.012774 -0.000021 0.005732
v -0.066486 -0.041031 0.035207
v -0.062296 -0.052855 0.037331
v -0.062296 -0.049140 0.039512
v -0.066486 -0.038148 0.036827
v -0.056765 -0.063439 0.034741
v -0.056765 -0.060836 0.038746
v -0.051239 -0.070344 0.035341
v -0.056765 -0.056686 0.041477
v -0.051239 -0.067588 0.039917
v -0.051239 -0.063068 0.043104
v -0.056765 -0.051840 0.043202
v -0.062296 -0.044893 0.040867
v -0.062296 -0.040493 0.041744
v -0.056765 -0.046775 0.044312
v -0.051239 -0.057714 0.045131
v -0.045744 -0.076081 0.035839
v -0.040249 -0.080631 0.036234
v -0.045744 -0.073184 0.040875
v -0.040249 -0.077612 0.041625
v -0.045744 -0.068350 0.044424
v -0.040249 -0.072522 0.045449
v -0.051239 -0.052089 0.046443
v -0.056765 -0.041638 0.045072
v -0.045744 -0.062572 0.046693
v -0.040249 -0.066407 0.047903
v -0.051239 -0.046374 0.047339
v -0.045744 -0.056483 0.048169
v -0.045744 -0.050287 0.049174
v -0.051239 -0.040618 0.047967
v -0.040249 -0.059950 0.049504
v -0.045744 -0.044045 0.049878
v -0.040249 -0.053375 0.050593
v -0.040249 -0.046748 0.051354
v -0.066486 -0.034860 0.037796
v -0.066486 -0.031475 0.038423
v -0.066486 -0.028059 0.038855
v -0.062296 -0.036041 0.042346
v -0.066486 -0.024628 0.039160
v -0.062296 -0.031567 0.042770
v -0.066486 -0.021189 0.039374
v -0.062296 -0.027081 0.043068
v -0.066486 -0.017747 0.039521
v -0.062296 -0.022589 0.043266
v -0.056765 -0.036469 0.045607
v -0.056765 -0.031285 0.045982
v -0.056765 -0.026091 0.046228
v -0.062296 -0.018094 0.043385
v -0.066486 -0.014302 0.039608
v -0.066486 -0.010857 0.039662
v -0.066486 -0.007411 0.039686
v -0.066486 -0.003964 0.039697
v -0.066486 -0.000518 0.039706
v -0.062296 -0.013598 0.043459
v -0.062296 -0.009101 0.043490
v -0.062296 -0.004604 0.043506
v -0.062296 -0.000107 0.043516
v -0.056765 -0.020894 0.046379
v -0.056765 -0.015695 0.046472
v -0.056765 -0.010495 0.046510
v -0.056765 -0.005295 0.046530
v -0.051239 -0.034843 0.048406
v -0.051239 -0.029057 0.048693
v -0.051239 -0.023266 0.048870
v -0.051239 -0.017473 0.048979
v -0.056765 -0.000095 0.046542
v -0.051239 -0.011679 0.049023
v -0.051239 -0.005885 0.049047
v -0.045744 -0.037780 0.050368
v -0.045744 -0.031503 0.050688
v -0.040249 -0.040096 0.051884
v -0.045744 -0.025219 0.050886
v -0.040249 -0.033431 0.052228
v -0.040249 -0.026759 0.052443
v -0.045744 -0.018934 0.051008
v -0.051239 -0.000091 0.049061
v -0.045744 -0.012647 0.051057
v -0.045744 -0.006360 0.051083
v -0.045744 -0.000073 0.051099
v -0.040249 -0.020084 0.052575
v -0.040249 -0.013408 0.052628
v -0.040249 -0.006732 0.052656
v -0.040249 -0.000056 0.052673
v -0.034754 -0.084026 0.036528
v -0.029259 -0.086300 0.036727
v -0.034754 -0.080906 0.042176
v -0.034754 -0.075619 0.046196
v -0.029259 -0.083102 0.042537
v -0.023764 -0.087486 0.036832
v -0.018269 -0.087616 0.036849
v -0.012774 -0.087626 0.030052
v -0.023764 -0.084234 0.042717
v -0.029259 -0.077674 0.046676
v -0.018269 -0.084334 0.042722
v -0.012774 -0.086724 0.036780
v -0.023764 -0.078722 0.046902
v -0.012774 -0.083438 0.042562
v -0.018269 -0.078794 0.046886
v -0.034754 -0.069250 0.048779
v -0.029259 -0.071133 0.049336
v -0.034754 -0.062520 0.050467
v -0.034754 -0.055662 0.051615
v -0.029259 -0.064219 0.051077
v -0.034754 -0.048750 0.052417
v -0.029259 -0.057174 0.052259
v -0.029259 -0.050072 0.053085
v -0.034754 -0.041811 0.052974
v -0.029259 -0.042942 0.053659
v -0.023764 -0.072087 0.049591
v -0.023764 -0.065078 0.051350
v -0.012774 -0.077925 0.046641
v -0.018269 -0.072143 0.049558
v -0.018269 -0.065124 0.051304
v -0.012774 -0.071334 0.049252
v -0.023764 -0.057936 0.052545
v -0.023764 -0.050738 0.053380
v -0.023764 -0.043511 0.053960
v -0.018269 -0.057975 0.052491
v -0.012774 -0.064387 0.050956
v -0.012774 -0.057315 0.052116
v -0.018269 -0.050769 0.053321
v -0.018269 -0.043535 0.053897
v -0.012774 -0.050188 0.052927
v -0.034754 -0.034857 0.053336
v -0.034754 -0.027897 0.053562
v -0.034754 -0.020934 0.053702
v -0.029259 -0.035798 0.054032
v -0.029259 -0.028646 0.054265
v -0.029259 -0.021492 0.054408
v -0.034754 -0.013969 0.053757
v -0.034754 -0.007004 0.053786
v -0.034754 -0.000040 0.053804
v -0.029259 -0.014336 0.054465
v -0.029259 -0.007180 0.054495
v -0.029259 -0.000024 0.054513
v -0.023764 -0.036269 0.054337
v -0.023764 -0.029020 0.054573
v -0.023764 -0.021768 0.054717
v -0.018269 -0.036286 0.054272
v -0.012774 -0.043035 0.053491
v -0.012774 -0.035867 0.053858
v -0.018269 -0.029031 0.054506
v -0.012774 -0.028692 0.054087
v -0.018269 -0.021773 0.054650
v -0.023764 -0.014515 0.054774
v -0.023764 -0.007262 0.054805
v -0.023764 -0.000008 0.054823
v -0.012774 -0.021515 0.054227
v -0.018269 -0.014513 0.054707
v -0.012774 -0.014337 0.054283
v -0.018269 -0.007253 0.054737
v -0.018269 0.000006 0.054755
v -0.012774 -0.007158 0.054313
v -0.062296 0.004604 0.016557
v -0.066486 0.003964 0.020365
v -0.062296 0.009101 0.016573
v -0.066486 0.007411 0.020377
v -0.062296 0.013598 0.016604
v -0.066486 0.010857 0.020401
v -0.062296 0.018094 0.016677
v -0.066486 0.014302 0.020455
v -0.062296 0.022589 0.016797
v -0.056765 0.005295 0.013533
v -0.056765 0.010495 0.013553
v -0.051239 0.005885 0.011016
v -0.051239 0.011679 0.011039
v -0.056765 0.015695 0.013591
v -0.056765 0.020894 0.013684
v -0.056765 0.026091 0.013835
v -0.051239 0.017473 0.011083
v -0.051239 0.023266 0.011193
v -0.066486 0.017747 0.020542
v -0.062296 0.027081 0.016995
v -0.066486 0.021189 0.020689
v -0.062296 0.031567 0.017293
v -0.056765 0.031285 0.014081
v -0.051239 0.029057 0.011370
v -0.051239 0.034843 0.011657
v -0.056765 0.036469 0.014455
v -0.051239 0.040618 0.012095
v -0.056765 0.041638 0.014991
v -0.051239 0.046374 0.012724
v -0.062296 0.036041 0.017717
v -0.056765 0.046775 0.015751
v -0.062296 0.040493 0.018319
v -0.045744 0.006360 0.008979
v -0.045744 0.012647 0.009005
v -0.045744 0.018934 0.009054
v -0.045744 0.025219 0.009177
v -0.040249 0.006732 0.007407
v -0.040249 0.013408 0.007435
v -0.040249 0.020084 0.007487
v -0.040249 0.026759 0.007620
v -0.045744 0.031503 0.009375
v -0.045744 0.037780 0.009695
v -0.045744 0.044045 0.010185
v -0.040249 0.033431 0.007834
v -0.040249 0.040096 0.008179
v -0.040249 0.046748 0.008709
v -0.066486 0.024628 0.020903
v -0.066486 0.028059 0.021208
v -0.066486 0.031475 0.021640
v -0.066486 0.034860 0.022267
v -0.062296 0.044893 0.019196
v -0.062296 0.049140 0.020550
v -0.066486 0.038148 0.023236
v -0.066486 0.041031 0.024856
v -0.062296 0.052855 0.022731
v -0.066486 0.042888 0.027385
v -0.066486 0.043355 0.030537
v -0.066486 0.042518 0.033581
v -0.051239 0.052089 0.013620
v -0.056765 0.051840 0.016861
v -0.056765 0.056686 0.018586
v -0.051239 0.057714 0.014931
v -0.051239 0.063068 0.016959
v -0.045744 0.050287 0.010889
v -0.040249 0.053375 0.009470
v -0.040249 0.059950 0.010559
v -0.045744 0.056483 0.011894
v -0.040249 0.066407 0.012159
v -0.045744 0.062572 0.013369
v -0.045744 0.068350 0.015639
v -0.040249 0.072522 0.014613
v -0.045744 0.073184 0.019187
v -0.040249 0.077612 0.018438
v -0.062296 0.055287 0.026046
v -0.056765 0.060836 0.021317
v -0.051239 0.067588 0.020145
v -0.056765 0.063439 0.025321
v -0.051239 0.070344 0.024722
v -0.062296 0.056039 0.030147
v -0.056765 0.064205 0.030129
v -0.051239 0.071125 0.030121
v -0.045744 0.076081 0.024223
v -0.040249 0.080631 0.023829
v -0.045744 0.076886 0.030103
v -0.040249 0.081459 0.030087
v -0.034754 0.007004 0.006276
v -0.034754 0.013969 0.006306
v -0.034754 0.020934 0.006361
v -0.029259 0.007180 0.005567
v -0.029259 0.014336 0.005598
v -0.029259 0.021492 0.005654
v -0.034754 0.027897 0.006500
v -0.034754 0.034857 0.006727
v -0.034754 0.041811 0.007089
v -0.034754 0.048750 0.007646
v -0.029259 0.028646 0.005798
v -0.029259 0.035798 0.006031
v -0.029259 0.042942 0.006404
v -0.023764 0.007262 0.005257
v -0.023764 0.014515 0.005288
v -0.023764 0.021768 0.005345
v -0.018269 0.007253 0.005325
v -0.018269 0.014513 0.005356
v -0.012774 0.007158 0.005750
v -0.018269 0.021773 0.005413
v -0.012774 0.014337 0.005780
v -0.012774 0.021515 0.005835
v -0.023764 0.029020 0.005490
v -0.023764 0.036269 0.005726
v -0.023764 0.043511 0.006103
v -0.018269 0.029031 0.005556
v -0.018269 0.036286 0.005791
v -0.012774 0.028692 0.005976
v -0.018269 0.043535 0.006166
v -0.012774 0.035867 0.006205
v -0.012774 0.043035 0.006572
v -0.034754 0.055662 0.008448
v -0.034754 0.062520 0.009595
v -0.034754 0.069250 0.011284
v -0.029259 0.050072 0.006978
v -0.029259 0.057174 0.007804
v -0.029259 0.064219 0.008986
v -0.029259 0.071133 0.010726
v -0.029259 0.077674 0.013387
v -0.034754 0.075619 0.013867
v -0.034754 0.080906 0.017887
v -0.029259 0.083102 0.017526
v -0.023764 0.050738 0.006683
v -0.023764 0.057936 0.007518
v -0.023764 0.065078 0.008713
v -0.018269 0.050769 0.006742
v -0.018269 0.057975 0.007572
v -0.012774 0.050188 0.007135
v -0.018269 0.065124 0.008759
v -0.012774 0.057315 0.007947
v -0.012774 0.064387 0.009106
v -0.023764 0.072087 0.010472
v -0.023764 0.078722 0.013161
v -0.018269 0.072143 0.010505
v -0.018269 0.078794 0.013177
v -0.012774 0.071334 0.010811
v -0.023764 0.084234 0.017346
v -0.012774 0.077925 0.013422
v -0.018269 0.084334 0.017340
v -0.012774 0.083438 0.017501
v -0.034754 0.084026 0.023534
v -0.029259 0.086300 0.023336
v -0.034754 0.084876 0.030071
v -0.029259 0.087169 0.030055
v -0.023764 0.087486 0.023230
v -0.018269 0.087616 0.023214
v -0.012774 0.086724 0.023282
v -0.023764 0.088370 0.030040
v -0.018269 0.088512 0.030025
v -0.012774 0.087626 0.030011
v -0.066486 0.006374 0.039689
v -0.066486 0.009820 0.039672
v -0.066486 0.002928 0.039701
v -0.066486 0.013266 0.039628
v -0.066486 0.016711 0.039554
v -0.066486 0.020154 0.039428
v -0.066486 0.023594 0.039237
v -0.066486 0.027028 0.038965
v -0.066486 0.030449 0.038577
v -0.066486 0.033844 0.038023
v -0.062296 0.004391 0.043507
v -0.062296 0.008888 0.043490
v -0.062296 0.013385 0.043463
v -0.062296 0.017881 0.043394
v -0.062296 0.022377 0.043278
v -0.056765 0.005105 0.046531
v -0.056765 0.010305 0.046511
v -0.056765 0.015505 0.046475
v -0.056765 0.020704 0.046386
v -0.066486 0.040253 0.035832
v -0.066486 0.037172 0.037192
v -0.062296 0.048969 0.039669
v -0.062296 0.026869 0.043088
v -0.062296 0.031356 0.042801
v -0.062296 0.035831 0.042389
v -0.062296 0.040285 0.041803
v -0.062296 0.044693 0.040961
v -0.056765 0.025901 0.046239
v -0.056765 0.031095 0.045999
v -0.056765 0.036280 0.045634
v -0.056765 0.041450 0.045109
v -0.056765 0.046590 0.044365
v -0.051239 0.005704 0.049048
v -0.051239 0.011498 0.049024
v -0.051239 0.017292 0.048982
v -0.051239 0.023085 0.048876
v -0.051239 0.028876 0.048702
v -0.051239 0.034662 0.048420
v -0.051239 0.040438 0.047990
v -0.045744 0.006214 0.051084
v -0.045744 0.012501 0.051058
v -0.045744 0.018787 0.051011
v -0.040249 0.006620 0.052657
v -0.040249 0.013296 0.052628
v -0.040249 0.019972 0.052577
v -0.045744 0.025073 0.050891
v -0.045744 0.031356 0.050695
v -0.051239 0.046195 0.047370
v -0.045744 0.037634 0.050379
v -0.045744 0.043900 0.049896
v -0.040249 0.033318 0.052233
v -0.040249 0.039984 0.051892
v -0.040249 0.046637 0.051367
v -0.040249 0.026646 0.052447
v -0.062296 0.055300 0.034267
v -0.062296 0.052779 0.037562
v -0.056765 0.063442 0.034948
v -0.051239 0.070331 0.035524
v -0.056765 0.060767 0.038939
v -0.051239 0.067509 0.040082
v -0.056765 0.051661 0.043284
v -0.056765 0.056536 0.041612
v -0.051239 0.057543 0.045202
v -0.051239 0.062921 0.043216
v -0.045744 0.068230 0.044512
v -0.045744 0.076067 0.035985
v -0.045744 0.073117 0.041005
v -0.040249 0.080617 0.036345
v -0.040249 0.077556 0.041721
v -0.040249 0.072428 0.045514
v -0.051239 0.051913 0.046490
v -0.045744 0.050143 0.049199
v -0.045744 0.056341 0.048206
v -0.045744 0.062433 0.046748
v -0.040249 0.053264 0.050611
v -0.040249 0.066300 0.047944
v -0.040249 0.059841 0.049532
v -0.034754 0.006925 0.053787
v -0.034754 0.013890 0.053757
v -0.034754 0.020854 0.053703
v -0.029259 0.007132 0.054496
v -0.029259 0.014288 0.054465
v -0.029259 0.021444 0.054409
v -0.034754 0.027817 0.053565
v -0.034754 0.034778 0.053339
v -0.034754 0.041731 0.052979
v -0.029259 0.028598 0.054266
v -0.029259 0.035750 0.054034
v -0.029259 0.042895 0.053662
v -0.023764 0.007245 0.054805
v -0.023764 0.014498 0.054775
v -0.023764 0.021752 0.054717
v -0.018269 0.007266 0.054737
v -0.012774 0.000021 0.054330
v -0.012774 0.007200 0.054313
v -0.018269 0.014526 0.054706
v -0.012774 0.014378 0.054282
v -0.018269 0.021786 0.054649
v -0.023764 0.029003 0.054573
v -0.023764 0.036252 0.054337
v -0.023764 0.043494 0.053960
v -0.018269 0.029044 0.054505
v -0.012774 0.021557 0.054226
v -0.012774 0.028734 0.054085
v -0.018269 0.036299 0.054271
v -0.018269 0.043548 0.053895
v -0.012774 0.035908 0.053856
v -0.034754 0.084013 0.036605
v -0.029259 0.086289 0.036771
v -0.034754 0.075551 0.046238
v -0.034754 0.080864 0.042241
v -0.029259 0.083072 0.042572
v -0.029259 0.077631 0.046698
v -0.023764 0.087477 0.036846
v -0.018269 0.087610 0.036833
v -0.012774 0.086721 0.036736
v -0.023764 0.084217 0.042724
v -0.023764 0.078703 0.046904
v -0.018269 0.084331 0.042703
v -0.012774 0.083448 0.042518
v -0.018269 0.078800 0.046871
v -0.034754 0.055584 0.051627
v -0.034754 0.062442 0.050485
v -0.034754 0.069174 0.048806
v -0.029259 0.064172 0.051086
v -0.034754 0.048671 0.052425
v -0.029259 0.050025 0.053090
v -0.029259 0.057127 0.052265
v -0.029259 0.071086 0.049350
v -0.023764 0.050721 0.053380
v -0.023764 0.057920 0.052545
v -0.023764 0.065061 0.051350
v -0.018269 0.050781 0.053318
v -0.012774 0.043076 0.053487
v -0.012774 0.050229 0.052921
v -0.018269 0.057987 0.052486
v -0.018269 0.065136 0.051297
v -0.012774 0.057356 0.052107
v -0.023764 0.072069 0.049592
v -0.018269 0.072154 0.049548
v -0.012774 0.064427 0.050942
v -0.012774 0.071372 0.049231
v -0.012774 0.077955 0.046608
v -0.007279 -0.062962 0.009759
v -0.007279 -0.069754 0.011404
v -0.007279 -0.076202 0.013934
v -0.007279 -0.081602 0.017888
v -0.001784 -0.073573 0.014618
v -0.001784 -0.078826 0.018380
v -0.001784 -0.067333 0.012219
v -0.007279 -0.056050 0.008638
v -0.007279 -0.049087 0.007852
v -0.007279 -0.042098 0.007306
v -0.001784 -0.060770 0.010664
v -0.001784 -0.054098 0.009602
v -0.001784 -0.047378 0.008857
v -0.001784 -0.040633 0.008339
v 0.003711 -0.064138 0.013262
v 0.003711 -0.070103 0.015496
v 0.003711 -0.075154 0.019015
v 0.009206 -0.065823 0.016558
v 0.003711 -0.057880 0.011818
v 0.003711 -0.051523 0.010830
v 0.003711 -0.045123 0.010137
v 0.009206 -0.048353 0.012304
v 0.009206 -0.042347 0.011670
v 0.009206 -0.060203 0.014518
v 0.009206 -0.054321 0.013204
v -0.007279 -0.084843 0.023505
v -0.001784 -0.082007 0.023760
v -0.007279 -0.085744 0.030065
v -0.001784 -0.082899 0.030078
v 0.003711 -0.078247 0.024090
v 0.009206 -0.070619 0.019785
v 0.009206 -0.073594 0.024491
v 0.003711 -0.079123 0.030091
v 0.009206 -0.074447 0.030103
v -0.007279 -0.035095 0.006950
v -0.007279 -0.028086 0.006729
v -0.007279 -0.021074 0.006593
v -0.001784 -0.033876 0.008000
v -0.001784 -0.027113 0.007791
v -0.001784 -0.020348 0.007662
v -0.007279 -0.014061 0.006539
v -0.007279 -0.007048 0.006509
v -0.007279 -0.000035 0.006492
v -0.001784 -0.013582 0.007610
v -0.001784 -0.006815 0.007582
v -0.001784 -0.000048 0.007566
v 0.003711 -0.038702 0.009653
v 0.003711 -0.032268 0.009337
v 0.003711 -0.025829 0.009141
v 0.003711 -0.019388 0.009021
v 0.009206 -0.036322 0.011228
v 0.009206 -0.030287 0.010938
v 0.009206 -0.024246 0.010759
v 0.009206 -0.018204 0.010650
v 0.003711 -0.012946 0.008973
v 0.003711 -0.006503 0.008947
v 0.003711 -0.000061 0.008931
v 0.009206 -0.012160 0.010605
v 0.009206 -0.006116 0.010582
v 0.009206 -0.000073 0.010567
v 0.014701 -0.060768 0.017792
v 0.014701 -0.055556 0.015975
v 0.020196 -0.050231 0.017620
v 0.014701 -0.050121 0.014806
v 0.014701 -0.044613 0.014004
v 0.020196 -0.040329 0.015913
v 0.020196 -0.045310 0.016607
v 0.020196 -0.054970 0.019187
v 0.025721 -0.039943 0.018583
v 0.014701 -0.065254 0.020683
v 0.014701 -0.068082 0.024959
v 0.014701 -0.068904 0.030115
v 0.020196 -0.059093 0.021702
v 0.020196 -0.061742 0.025492
v 0.025721 -0.052209 0.022829
v 0.025721 -0.044290 0.019426
v 0.025721 -0.048499 0.020723
v 0.025721 -0.054651 0.026079
v 0.020196 -0.062525 0.030126
v 0.031253 -0.044607 0.024069
v 0.031253 -0.041367 0.022398
v 0.025721 -0.055394 0.030129
v 0.031253 -0.046809 0.026731
v 0.031253 -0.047500 0.030138
v 0.025721 -0.054631 0.034180
v 0.014701 -0.027948 0.012783
v 0.014701 -0.022377 0.012624
v 0.014701 -0.039072 0.013439
v 0.014701 -0.033515 0.013044
v 0.020196 -0.035320 0.015423
v 0.020196 -0.030299 0.015079
v 0.020196 -0.025269 0.014852
v 0.020196 -0.020236 0.014714
v 0.025721 -0.035549 0.018003
v 0.025721 -0.031134 0.017595
v 0.025721 -0.026708 0.017308
v 0.025721 -0.022276 0.017116
v 0.014701 -0.016805 0.012526
v 0.014701 -0.011231 0.012487
v 0.014701 -0.005658 0.012465
v 0.014701 -0.000084 0.012452
v 0.020196 -0.015201 0.014629
v 0.020196 -0.010166 0.014595
v 0.020196 -0.005131 0.014576
v 0.020196 -0.000095 0.014564
v 0.025721 -0.017841 0.017001
v 0.025721 -0.013405 0.016931
v 0.025721 -0.008968 0.016901
v 0.025721 -0.004531 0.016886
v 0.025721 -0.000095 0.016876
v 0.031253 -0.022758 0.019714
v 0.031253 -0.018984 0.019561
v 0.031253 -0.015208 0.019470
v 0.031253 -0.011431 0.019415
v 0.031253 -0.007653 0.019391
v 0.031253 -0.003876 0.019379
v 0.031253 -0.000098 0.019370
v 0.031253 -0.034035 0.020723
v 0.031253 -0.037748 0.021386
v 0.031253 -0.030289 0.020265
v 0.031253 -0.026527 0.019941
v 0.035443 -0.031780 0.024552
v 0.035443 -0.029019 0.023814
v 0.035443 -0.034245 0.025816
v 0.035443 -0.023348 0.022998
v 0.035443 -0.020492 0.022762
v 0.035443 -0.017631 0.022596
v 0.035443 -0.026193 0.023333
v 0.035443 -0.035878 0.027851
v 0.035443 -0.036290 0.030453
v 0.031253 -0.046787 0.033547
v 0.036791 0.000000 0.030031
v 0.035443 -0.035530 0.032946
v 0.035443 -0.014767 0.022481
v 0.035443 -0.011901 0.022413
v 0.035443 -0.009034 0.022372
v 0.035443 -0.006167 0.022353
v 0.035443 -0.003300 0.022344
v 0.035443 -0.000433 0.022338
v -0.007279 -0.084842 0.036629
v -0.001784 -0.082002 0.036400
v -0.007279 -0.081578 0.042243
v -0.001784 -0.078787 0.041772
v -0.007279 -0.076149 0.046177
v -0.001784 -0.073497 0.045506
v 0.003711 -0.078237 0.036095
v 0.009206 -0.073580 0.035718
v 0.003711 -0.075101 0.041158
v 0.003711 -0.070004 0.044641
v 0.009206 -0.070550 0.040406
v 0.009206 -0.065703 0.043592
v -0.007279 -0.069690 0.048689
v -0.001784 -0.067243 0.047882
v -0.007279 -0.062895 0.050325
v -0.001784 -0.060678 0.049426
v -0.007279 -0.055982 0.051439
v -0.001784 -0.054003 0.050478
v -0.007279 -0.049018 0.052220
v -0.007279 -0.042029 0.052762
v -0.001784 -0.047283 0.051218
v 0.003711 -0.064024 0.046848
v 0.003711 -0.057763 0.048277
v 0.003711 -0.051404 0.049254
v 0.003711 -0.045003 0.049941
v -0.001784 -0.040538 0.051732
v 0.009206 -0.060064 0.045599
v 0.009206 -0.054179 0.046895
v 0.009206 -0.048209 0.047783
v 0.009206 -0.042203 0.048410
v -0.007279 -0.035026 0.053116
v -0.007279 -0.028017 0.053337
v -0.007279 -0.021005 0.053471
v -0.001784 -0.033781 0.052067
v -0.001784 -0.027018 0.052276
v -0.001784 -0.020253 0.052403
v -0.007279 -0.013992 0.053524
v -0.007279 -0.006979 0.053554
v -0.007279 0.000035 0.053570
v -0.001784 -0.013486 0.052453
v -0.001784 -0.006719 0.052481
v -0.001784 0.000048 0.052497
v 0.003711 -0.038581 0.050419
v 0.003711 -0.032147 0.050732
v 0.009206 -0.036177 0.048846
v 0.009206 -0.030141 0.049132
v 0.003711 -0.025708 0.050926
v 0.009206 -0.024101 0.049308
v 0.003711 -0.019267 0.051044
v 0.009206 -0.018058 0.049415
v 0.003711 -0.012825 0.051090
v 0.009206 -0.012015 0.049458
v 0.003711 -0.006382 0.051117
v 0.009206 -0.005971 0.049482
v 0.003711 0.000061 0.051132
v 0.011177 -0.004638 0.048809
v 0.010672 -0.003205 0.048985
v 0.010329 -0.001065 0.049108
v 0.009206 0.000073 0.049496
v 0.010205 -0.000288 0.049152
v 0.010178 0.000000 0.049162
v 0.014701 -0.068062 0.035272
v 0.014701 -0.065170 0.039526
v 0.020196 -0.061717 0.034760
v 0.020196 -0.058993 0.038522
v 0.014701 -0.060626 0.042369
v 0.014701 -0.055395 0.044147
v 0.020196 -0.054807 0.040984
v 0.020196 -0.050048 0.042508
v 0.014701 -0.049956 0.045295
v 0.025721 -0.052110 0.037400
v 0.025721 -0.048335 0.039448
v 0.020196 -0.045122 0.043496
v 0.025721 -0.044108 0.040701
v 0.031253 -0.044496 0.036167
v 0.031253 -0.041189 0.037770
v 0.014701 -0.044446 0.046086
v 0.020196 -0.040140 0.044180
v 0.025721 -0.039757 0.041521
v 0.025721 -0.035362 0.042089
v 0.020196 -0.035131 0.044661
v 0.025721 -0.030946 0.042490
v 0.020196 -0.030108 0.044997
v 0.025721 -0.026519 0.042769
v 0.020196 -0.025079 0.045219
v 0.025721 -0.022087 0.042955
v 0.020196 -0.020045 0.045354
v 0.025721 -0.017652 0.043067
v 0.020196 -0.015011 0.045436
v 0.025721 -0.013216 0.043135
v 0.023133 -0.011885 0.044227
v 0.035443 -0.033554 0.034726
v 0.035443 -0.030948 0.035778
v 0.031253 -0.037558 0.038741
v 0.035443 -0.028165 0.036417
v 0.031253 -0.033842 0.039382
v 0.035443 -0.025335 0.036847
v 0.035443 -0.022486 0.037148
v 0.031253 -0.030094 0.039829
v 0.031253 -0.026332 0.040143
v 0.031253 -0.022562 0.040363
v 0.035443 -0.019628 0.037360
v 0.035443 -0.016765 0.037508
v 0.035443 -0.013900 0.037607
v 0.035443 -0.011034 0.037665
v 0.035443 -0.008168 0.037698
v 0.035443 -0.005301 0.037712
v 0.035443 -0.002434 0.037721
v 0.035443 0.000433 0.037725
v 0.031253 -0.018787 0.040511
v 0.031253 -0.015011 0.040598
v 0.027042 -0.010457 0.042555
v 0.026111 -0.010935 0.042973
v 0.023377 -0.011841 0.044125
v 0.024299 -0.011672 0.043740
v 0.025721 -0.011096 0.043148
v 0.031253 -0.011234 0.040651
v 0.029764 -0.007906 0.041342
v 0.029360 -0.008448 0.041521
v 0.027910 -0.009750 0.042168
v 0.028179 -0.009531 0.042048
v 0.031253 -0.007457 0.040672
v 0.031783 -0.003884 0.040309
v 0.029829 -0.007797 0.041313
v 0.031253 -0.005322 0.040680
v 0.030342 -0.006944 0.041085
v 0.031115 -0.005655 0.040740
v 0.031784 -0.003879 0.040308
v 0.031873 -0.003495 0.040247
v 0.032016 -0.002868 0.040147
v 0.032324 -0.000549 0.039933
v 0.032380 -0.000124 0.039894
v 0.014701 -0.038904 0.046643
v 0.014701 -0.033346 0.047032
v 0.014701 -0.027780 0.047287
v 0.014701 -0.022209 0.047444
v 0.014701 -0.016636 0.047539
v 0.014701 -0.011063 0.047577
v 0.016449 -0.010717 0.046906
v 0.013499 -0.008588 0.047999
v 0.013401 -0.008461 0.048033
v 0.014701 -0.009516 0.047583
v 0.013567 -0.008648 0.047975
v 0.015921 -0.010461 0.047110
v 0.011906 -0.006217 0.048555
v 0.011692 -0.005753 0.048630
v 0.018608 -0.011763 0.046068
v 0.018660 -0.011777 0.046048
v 0.018626 -0.011771 0.046061
v 0.020196 -0.011929 0.045456
v 0.021290 -0.012034 0.044997
v -0.007279 0.006979 0.006509
v -0.007279 0.013992 0.006538
v -0.007279 0.021005 0.006592
v -0.001784 0.006719 0.007582
v -0.001784 0.013486 0.007610
v -0.001784 0.020253 0.007660
v -0.007279 0.028017 0.006726
v -0.007279 0.035026 0.006946
v -0.007279 0.042029 0.007300
v -0.001784 0.027018 0.007787
v -0.001784 0.033781 0.007995
v -0.001784 0.040538 0.008331
v -0.001784 0.047283 0.008845
v 0.003711 0.006382 0.008946
v 0.003711 0.012825 0.008972
v 0.003711 0.019267 0.009019
v 0.003711 0.025708 0.009137
v 0.009206 0.005971 0.010581
v 0.009206 0.012015 0.010605
v 0.009206 0.018058 0.010648
v 0.009206 0.024101 0.010754
v 0.003711 0.032147 0.009331
v 0.003711 0.038581 0.009643
v 0.003711 0.045003 0.010122
v 0.009206 0.030141 0.010931
v 0.009206 0.036177 0.011217
v 0.009206 0.042203 0.011653
v -0.007279 0.049018 0.007843
v -0.007279 0.055982 0.008624
v -0.007279 0.062895 0.009738
v -0.007279 0.069690 0.011374
v -0.001784 0.054003 0.009584
v -0.001784 0.060678 0.010637
v -0.001784 0.067243 0.012181
v -0.007279 0.076149 0.013886
v -0.007279 0.081578 0.017820
v -0.001784 0.073497 0.014556
v -0.001784 0.078787 0.018291
v 0.003711 0.051404 0.010809
v 0.003711 0.057763 0.011786
v 0.009206 0.048209 0.012279
v 0.003711 0.064024 0.013215
v 0.009206 0.054179 0.013168
v 0.009206 0.060064 0.014464
v 0.009206 0.065703 0.016471
v 0.003711 0.070004 0.015422
v 0.003711 0.075101 0.018905
v 0.009206 0.070550 0.019656
v -0.007279 0.084842 0.023433
v -0.001784 0.082002 0.023663
v -0.007279 0.085744 0.029997
v -0.001784 0.082899 0.029984
v 0.003711 0.078237 0.023968
v 0.009206 0.073580 0.024345
v 0.003711 0.079123 0.029972
v 0.009206 0.074447 0.029959
v 0.014701 0.005489 0.012464
v 0.014701 0.011063 0.012486
v 0.014701 0.016636 0.012524
v 0.014701 0.022209 0.012619
v 0.020196 0.004940 0.014575
v 0.020196 0.009976 0.014594
v 0.020196 0.015011 0.014627
v 0.020196 0.020045 0.014708
v 0.025721 0.004342 0.016885
v 0.025721 0.008779 0.016901
v 0.025721 0.013216 0.016928
v 0.025721 0.017652 0.016995
v 0.014701 0.027780 0.012775
v 0.014701 0.033346 0.013031
v 0.020196 0.025079 0.014843
v 0.020196 0.030108 0.015065
v 0.014701 0.038904 0.013419
v 0.014701 0.044446 0.013977
v 0.020196 0.035131 0.015401
v 0.020196 0.040140 0.015883
v 0.025721 0.022087 0.017108
v 0.025721 0.026519 0.017293
v 0.025721 0.030946 0.017573
v 0.020196 0.045122 0.016566
v 0.025721 0.035362 0.017973
v 0.025721 0.039757 0.018542
v 0.031253 0.003679 0.019377
v 0.031253 0.007457 0.019391
v 0.031253 0.011234 0.019412
v 0.031253 0.015011 0.019464
v 0.031253 0.018787 0.019552
v 0.031253 0.022562 0.019699
v 0.031253 0.026332 0.019919
v 0.025721 0.044108 0.019361
v 0.035443 0.002434 0.022341
v 0.035443 0.005301 0.022351
v 0.035443 0.008168 0.022364
v 0.035443 0.011034 0.022398
v 0.035443 0.013900 0.022456
v 0.035443 0.016765 0.022554
v 0.035443 0.019628 0.022703
v 0.035443 0.022486 0.022915
v 0.035443 0.025335 0.023216
v 0.035443 0.028165 0.023645
v 0.035443 0.030948 0.024285
v 0.035443 0.033554 0.025336
v 0.031253 0.030094 0.020234
v 0.031253 0.033842 0.020681
v 0.031253 0.037558 0.021322
v 0.031253 0.041189 0.022293
v 0.031253 0.044496 0.023896
v 0.035443 0.035530 0.027117
v 0.035443 0.036290 0.029609
v 0.035443 0.035878 0.032211
v 0.031253 0.046787 0.026516
v 0.031253 0.047500 0.029924
v 0.014701 0.049956 0.014768
v 0.014701 0.055395 0.015916
v 0.020196 0.050048 0.017555
v 0.014701 0.060626 0.017694
v 0.014701 0.065170 0.020537
v 0.020196 0.054807 0.019079
v 0.020196 0.058993 0.021541
v 0.014701 0.068062 0.024791
v 0.020196 0.061717 0.025302
v 0.025721 0.048335 0.020614
v 0.025721 0.052110 0.022663
v 0.025721 0.054631 0.025882
v 0.020196 0.062525 0.029937
v 0.014701 0.068904 0.029948
v 0.020196 0.061742 0.034571
v 0.025721 0.055394 0.029934
v 0.031253 0.046809 0.033331
v 0.025721 0.054651 0.033984
v -0.007279 0.007048 0.053553
v -0.007279 0.014061 0.053524
v -0.007279 0.021074 0.053470
v -0.001784 0.006815 0.052480
v -0.001784 0.013582 0.052453
v -0.001784 0.020348 0.052401
v -0.007279 0.028086 0.053334
v -0.007279 0.035095 0.053112
v -0.007279 0.042098 0.052756
v -0.001784 0.027113 0.052272
v -0.001784 0.033876 0.052062
v -0.001784 0.040633 0.051724
v -0.007279 0.049087 0.052210
v 0.003711 0.006503 0.051116
v 0.009206 0.006116 0.049481
v 0.003711 0.012946 0.051090
v 0.010185 0.000075 0.049160
v 0.010205 0.000287 0.049152
v 0.010672 0.003205 0.048985
v 0.011003 0.004144 0.048869
v 0.011177 0.004637 0.048808
v 0.011906 0.006217 0.048554
v 0.009206 0.012160 0.049457
v 0.003711 0.019388 0.051042
v 0.009206 0.018204 0.049413
v 0.003711 0.025829 0.050922
v 0.003711 0.032268 0.050726
v 0.003711 0.038702 0.050409
v -0.001784 0.047378 0.051205
v 0.003711 0.045123 0.049926
v 0.009206 0.024246 0.049303
v 0.009206 0.030287 0.049125
v 0.009206 0.036322 0.048834
v 0.009206 0.042347 0.048392
v -0.007279 0.084843 0.036558
v -0.001784 0.082007 0.036303
v -0.007279 0.081602 0.042175
v -0.007279 0.076202 0.046129
v -0.001784 0.073573 0.045445
v -0.001784 0.078826 0.041683
v 0.009206 0.065823 0.043505
v 0.003711 0.070103 0.044566
v 0.009206 0.060203 0.045545
v 0.003711 0.078247 0.035973
v 0.003711 0.075154 0.041048
v 0.009206 0.073594 0.035572
v 0.009206 0.070619 0.040278
v -0.007279 0.062962 0.050304
v -0.007279 0.056050 0.051425
v -0.001784 0.054098 0.050461
v -0.001784 0.060770 0.049399
v -0.007279 0.069754 0.048658
v -0.001784 0.067333 0.047843
v 0.003711 0.051523 0.049233
v 0.003711 0.057880 0.048245
v 0.003711 0.064138 0.046801
v 0.009206 0.048353 0.047759
v 0.009206 0.054321 0.046859
v 0.020196 0.015201 0.045433
v 0.025721 0.013405 0.043132
v 0.020196 0.020236 0.045349
v 0.023135 0.011885 0.044225
v 0.023136 0.011884 0.044224
v 0.025721 0.017841 0.043061
v 0.020196 0.025269 0.045211
v 0.025721 0.022276 0.042946
v 0.020196 0.030299 0.044983
v 0.025721 0.026708 0.042755
v 0.020196 0.035320 0.044640
v 0.025721 0.031134 0.042468
v 0.020196 0.040329 0.044150
v 0.025721 0.035549 0.042059
v 0.020196 0.045310 0.043456
v 0.035443 0.003300 0.037718
v 0.035443 0.006167 0.037709
v 0.035443 0.009034 0.037691
v 0.035443 0.011901 0.037649
v 0.035443 0.014767 0.037581
v 0.035443 0.017631 0.037467
v 0.035443 0.023348 0.037065
v 0.035443 0.020492 0.037301
v 0.035443 0.026193 0.036730
v 0.035443 0.029019 0.036249
v 0.035443 0.031780 0.035511
v 0.035443 0.034245 0.034247
v 0.031253 0.007653 0.040672
v 0.029672 0.008029 0.041383
v 0.029764 0.007906 0.041342
v 0.029360 0.008448 0.041521
v 0.028180 0.009530 0.042047
v 0.031253 0.011431 0.040648
v 0.031253 0.015208 0.040593
v 0.031253 0.018984 0.040502
v 0.027042 0.010457 0.042555
v 0.026110 0.010936 0.042973
v 0.024298 0.011672 0.043739
v 0.025721 0.011096 0.043147
v 0.032390 0.000000 0.039887
v 0.032372 0.000188 0.039900
v 0.032380 0.000124 0.039894
v 0.032016 0.002868 0.040146
v 0.031908 0.003337 0.040221
v 0.031253 0.005321 0.040679
v 0.031784 0.003879 0.040308
v 0.031802 0.003800 0.040295
v 0.031115 0.005655 0.040740
v 0.031253 0.022758 0.040349
v 0.031253 0.026527 0.040121
v 0.031253 0.030289 0.039798
v 0.031253 0.034035 0.039339
v 0.031253 0.037748 0.038677
v 0.031253 0.044607 0.035993
v 0.031253 0.041367 0.037665
v 0.025721 0.044290 0.040637
v 0.025721 0.039943 0.041479
v 0.025721 0.048499 0.039340
v 0.014701 0.011231 0.047576
v 0.014701 0.009516 0.047583
v 0.015611 0.010221 0.047230
v 0.015921 0.010461 0.047110
v 0.016708 0.010842 0.046806
v 0.011761 0.005903 0.048605
v 0.012929 0.007754 0.048197
v 0.013401 0.008462 0.048033
v 0.013499 0.008588 0.047999
v 0.013567 0.008648 0.047975
v 0.014701 0.016805 0.047536
v 0.018608 0.011764 0.046068
v 0.014701 0.022377 0.047439
v 0.018847 0.011796 0.045976
v 0.020196 0.011929 0.045456
v 0.018660 0.011777 0.046048
v 0.018626 0.011771 0.046061
v 0.021290 0.012034 0.044997
v 0.014701 0.027948 0.047279
v 0.014701 0.033515 0.047019
v 0.014701 0.039072 0.046624
v 0.014701 0.044613 0.046059
v 0.014701 0.068082 0.035104
v 0.014701 0.065254 0.039380
v 0.020196 0.059093 0.038360
v 0.025721 0.052209 0.037233
v 0.014701 0.050121 0.045257
v 0.014701 0.055556 0.044087
v 0.014701 0.060768 0.042271
v 0.020196 0.054970 0.040876
v 0.020196 0.050231 0.042443
v 0.010193 0.000000 0.049269
v 0.011408 -0.003180 0.051162
v 0.025309 -0.011771 0.046048
v 0.027274 -0.010557 0.042985
v 0.030455 -0.008591 0.044155
v 0.028398 -0.010410 0.046048
v 0.031865 -0.006119 0.042406
v 0.032521 -0.003180 0.040934
v 0.033736 0.000000 0.042827
v 0.032374 -0.006434 0.046048
v 0.033603 -0.003217 0.044133
v 0.034202 0.000000 0.046048
v 0.016655 -0.010557 0.049111
v 0.012064 -0.006119 0.049690
v 0.014772 -0.008422 0.051061
v 0.013543 -0.005205 0.052976
v 0.011555 0.000000 0.052244
v 0.018183 -0.009900 0.051941
v 0.021965 -0.012237 0.046048
v 0.019977 -0.011638 0.049146
v 0.023953 -0.011638 0.049146
v 0.021965 -0.010410 0.052244
v 0.013374 -0.001966 0.054225
v 0.016760 -0.007193 0.054159
v 0.015846 -0.003782 0.055583
v 0.015531 0.000000 0.056074
v 0.018784 -0.005310 0.056216
v 0.018748 -0.001988 0.057257
v 0.019999 -0.008490 0.054323
v 0.023930 -0.008490 0.054323
v 0.021965 -0.006434 0.056074
v 0.021965 -0.003344 0.057386
v 0.025145 -0.005310 0.056216
v 0.021965 0.000000 0.057834
v 0.025181 -0.001988 0.057257
v 0.027274 -0.010557 0.049111
v 0.030455 -0.008591 0.047941
v 0.025746 -0.009900 0.051941
v 0.029158 -0.008422 0.051061
v 0.031865 -0.006119 0.049690
v 0.033603 -0.003217 0.047963
v 0.033736 0.000000 0.049269
v 0.030386 -0.005205 0.052976
v 0.032521 -0.003180 0.051162
v 0.032374 0.000000 0.052244
v 0.027169 -0.007193 0.054159
v 0.028083 -0.003782 0.055583
v 0.030556 -0.001966 0.054225
v 0.028398 0.000000 0.056074
v 0.027274 0.010557 0.042985
v 0.030455 0.008591 0.044155
v 0.028398 0.010410 0.046048
v 0.025309 0.011771 0.046048
v 0.032521 0.003180 0.040934
v 0.031865 0.006119 0.042406
v 0.033603 0.003217 0.044133
v 0.032374 0.006434 0.046048
v 0.016655 0.010557 0.049111
v 0.011408 0.003180 0.051162
v 0.012064 0.006119 0.049690
v 0.014772 0.008422 0.051061
v 0.013543 0.005205 0.052976
v 0.018183 0.009900 0.051941
v 0.019977 0.011638 0.049146
v 0.021965 0.010410 0.052244
v 0.021965 0.012237 0.046048
v 0.023953 0.011638 0.049146
v 0.013374 0.001966 0.054225
v 0.015846 0.003782 0.055583
v 0.016760 0.007193 0.054159
v 0.018784 0.005310 0.056216
v 0.018748 0.001988 0.057257
v 0.019999 0.008490 0.054323
v 0.023930 0.008490 0.054323
v 0.021965 0.003344 0.057386
v 0.021965 0.006434 0.056074
v 0.025181 0.001988 0.057257
v 0.025145 0.005310 0.056216
v 0.030455 0.008591 0.047941
v 0.027274 0.010557 0.049111
v 0.025746 0.009900 0.051941
v 0.029158 0.008422 0.051061
v 0.033603 0.003217 0.047963
v 0.031865 0.006119 0.049690
v 0.032521 0.003180 0.051162
v 0.030386 0.005205 0.052976
v 0.027169 0.007193 0.054159
v 0.028083 0.003782 0.055583
v 0.030556 0.001966 0.054225
f 1 2 3
f 4 5 1
f 4 6 7
f 4 1 8
f 9 10 11
f 9 12 13
f 12 11 14
f 9 11 12
f 15 16 17
f 18 3 19
f 18 20 16
f 18 16 15
f 18 19 20
f 21 6 22
f 21 7 6
f 9 13 21
f 4 8 6
f 1 3 8
f 6 8 15
f 18 8 3
f 6 15 22
f 22 17 10
f 9 22 10
f 22 15 17
f 9 21 22
f 18 15 8
f 23 24 25
f 23 26 24
f 27 23 25
f 23 7 28
f 21 28 7
f 23 28 26
f 28 29 26
f 28 13 29
f 4 7 27
f 27 7 23
f 4 27 5
f 26 30 24
f 31 32 30
f 31 30 26
f 31 26 29
f 29 33 34
f 31 29 34
f 31 34 35
f 13 12 33
f 29 13 33
f 36 14 37
f 12 14 36
f 12 36 33
f 34 33 38
f 33 36 38
f 36 37 39
f 39 37 40
f 38 36 39
f 21 13 28
f 41 42 43
f 43 44 45
f 46 47 2
f 46 48 49
f 1 50 2
f 1 5 50
f 2 50 51
f 41 46 51
f 46 2 51
f 43 52 48
f 45 53 52
f 48 52 54
f 52 53 55
f 41 43 48
f 41 48 46
f 43 45 52
f 45 56 57
f 57 58 59
f 59 60 61
f 61 62 63
f 63 64 65
f 57 66 53
f 59 67 66
f 53 66 68
f 66 67 69
f 45 57 53
f 57 59 66
f 61 70 67
f 63 71 70
f 67 70 72
f 70 71 73
f 59 61 67
f 61 63 70
f 63 65 71
f 3 47 19
f 74 47 49
f 54 75 49
f 54 55 76
f 19 47 74
f 74 49 75
f 19 74 77
f 19 77 20
f 74 75 78
f 74 78 77
f 75 79 78
f 76 80 79
f 54 76 75
f 55 81 76
f 75 76 79
f 3 2 47
f 46 49 47
f 48 54 49
f 52 55 54
f 55 68 81
f 68 69 82
f 69 72 83
f 72 73 84
f 81 85 80
f 81 82 85
f 68 82 81
f 76 81 80
f 82 83 86
f 82 86 85
f 83 84 87
f 83 87 86
f 69 83 82
f 72 84 83
f 53 68 55
f 66 69 68
f 67 72 69
f 70 73 72
f 5 88 89
f 50 89 90
f 5 89 50
f 5 27 88
f 50 90 51
f 27 25 88
f 51 90 91
f 41 91 42
f 43 42 44
f 41 51 91
f 88 25 92
f 89 88 92
f 25 24 92
f 24 30 92
f 30 32 92
f 45 44 56
f 57 56 58
f 59 58 60
f 89 92 90
f 91 92 42
f 90 92 91
f 42 92 44
f 44 92 56
f 61 60 62
f 63 62 64
f 64 93 65
f 56 92 58
f 58 92 60
f 60 92 62
f 62 92 64
f 64 92 93
f 94 95 96
f 97 98 14
f 94 11 10
f 94 97 11
f 11 97 14
f 99 98 97
f 99 100 98
f 94 96 97
f 96 99 97
f 17 101 10
f 17 16 102
f 94 10 101
f 17 102 101
f 16 103 102
f 20 104 103
f 16 20 103
f 94 101 95
f 105 101 102
f 105 95 101
f 102 103 106
f 103 104 107
f 105 102 106
f 103 107 106
f 96 108 99
f 96 95 109
f 96 109 108
f 108 110 111
f 108 109 112
f 108 112 110
f 110 113 114
f 110 112 115
f 99 111 100
f 100 111 116
f 99 108 111
f 111 114 116
f 114 117 118
f 116 114 118
f 110 114 111
f 95 119 109
f 105 119 95
f 105 106 120
f 105 120 119
f 106 107 121
f 106 121 120
f 109 122 112
f 119 122 109
f 119 123 122
f 122 124 112
f 119 120 123
f 120 121 125
f 120 125 123
f 122 123 126
f 123 125 127
f 14 98 37
f 37 98 128
f 100 128 98
f 100 129 128
f 37 128 40
f 128 130 40
f 128 129 130
f 129 131 130
f 100 116 129
f 116 132 129
f 116 118 132
f 118 133 132
f 118 134 133
f 129 132 131
f 131 132 135
f 132 133 135
f 133 136 135
f 133 137 136
f 20 77 104
f 77 78 138
f 77 138 104
f 78 79 139
f 79 80 140
f 78 139 138
f 79 140 139
f 104 138 141
f 104 141 107
f 138 139 142
f 139 140 143
f 138 142 141
f 139 143 142
f 80 85 144
f 80 144 140
f 85 145 144
f 85 86 145
f 86 87 146
f 86 146 145
f 140 144 147
f 140 147 143
f 144 148 147
f 144 145 148
f 145 146 149
f 145 149 148
f 107 150 121
f 107 141 150
f 141 151 150
f 141 142 151
f 142 143 152
f 142 152 151
f 121 153 125
f 121 150 153
f 150 154 153
f 125 153 155
f 150 151 154
f 151 152 156
f 151 156 154
f 153 154 157
f 154 156 158
f 143 147 159
f 143 159 152
f 147 160 159
f 147 148 160
f 148 149 161
f 148 161 160
f 152 159 162
f 152 162 156
f 159 163 162
f 156 162 164
f 159 160 163
f 160 161 165
f 160 165 163
f 162 163 166
f 163 165 167
f 35 168 32
f 31 35 32
f 35 169 168
f 169 170 171
f 34 172 35
f 34 38 172
f 35 172 169
f 172 173 169
f 172 174 173
f 170 173 175
f 173 176 175
f 175 177 178
f 169 173 170
f 170 175 179
f 179 175 178
f 179 178 180
f 178 181 180
f 178 182 181
f 38 174 172
f 38 39 174
f 174 183 176
f 39 40 183
f 40 184 183
f 39 183 174
f 183 184 185
f 176 185 177
f 183 185 176
f 185 184 186
f 185 187 177
f 185 186 187
f 187 186 188
f 173 174 176
f 175 176 177
f 178 177 182
f 187 182 177
f 181 189 190
f 187 188 191
f 191 188 192
f 182 191 189
f 181 182 189
f 189 193 190
f 189 194 193
f 193 195 196
f 187 191 182
f 189 191 194
f 191 192 194
f 194 192 197
f 194 197 195
f 193 194 195
f 195 198 196
f 195 197 199
f 195 199 198
f 198 199 200
f 169 171 168
f 170 201 171
f 32 168 92
f 168 171 92
f 171 201 92
f 179 202 201
f 180 203 202
f 170 179 201
f 179 180 202
f 180 204 203
f 204 205 203
f 205 206 207
f 204 206 205
f 207 206 208
f 209 208 210
f 181 204 180
f 181 190 204
f 204 190 206
f 206 190 211
f 206 211 208
f 208 212 210
f 210 213 214
f 201 202 92
f 202 203 92
f 203 205 92
f 205 207 92
f 207 209 92
f 209 215 92
f 215 216 92
f 216 217 92
f 217 218 92
f 218 219 92
f 207 208 209
f 209 210 215
f 215 214 216
f 215 210 214
f 216 214 220
f 216 220 217
f 217 221 218
f 218 222 219
f 217 220 221
f 218 221 222
f 219 222 223
f 214 224 220
f 220 225 221
f 221 226 222
f 222 227 223
f 193 211 190
f 211 196 212
f 208 211 212
f 210 212 213
f 212 228 213
f 213 229 224
f 213 224 214
f 220 224 225
f 221 225 226
f 224 230 225
f 225 231 226
f 222 226 227
f 223 227 232
f 226 233 227
f 227 234 232
f 193 196 211
f 212 196 228
f 196 198 228
f 228 235 229
f 213 228 229
f 224 229 230
f 229 236 230
f 228 198 235
f 198 200 235
f 235 200 237
f 235 237 236
f 229 235 236
f 230 236 238
f 236 237 239
f 236 239 238
f 238 239 240
f 238 240 241
f 225 230 231
f 226 231 233
f 230 238 231
f 231 241 233
f 227 233 234
f 232 234 242
f 233 243 234
f 234 244 242
f 238 241 231
f 233 241 243
f 234 243 244
f 242 244 245
f 241 246 243
f 241 240 246
f 243 246 247
f 243 247 244
f 244 247 248
f 244 248 245
f 245 248 249
f 40 130 184
f 130 250 184
f 130 131 250
f 131 251 250
f 184 250 186
f 186 250 252
f 186 252 188
f 252 253 188
f 250 251 252
f 251 254 252
f 252 254 253
f 131 135 251
f 135 255 251
f 135 136 255
f 136 256 255
f 136 257 256
f 251 255 254
f 255 258 254
f 254 258 259
f 255 256 258
f 256 260 258
f 256 261 260
f 258 260 262
f 260 263 264
f 188 253 192
f 192 253 265
f 254 259 253
f 259 265 253
f 265 266 267
f 259 266 265
f 192 265 197
f 197 267 199
f 265 267 197
f 199 267 268
f 199 268 200
f 267 269 268
f 266 269 267
f 200 270 237
f 200 268 270
f 268 269 271
f 268 271 270
f 270 272 273
f 271 272 270
f 272 274 273
f 259 258 262
f 259 262 266
f 266 262 275
f 266 275 269
f 269 275 276
f 262 260 264
f 262 264 275
f 264 277 278
f 264 278 275
f 275 278 276
f 278 279 276
f 278 280 279
f 269 276 271
f 271 276 281
f 271 281 272
f 272 281 282
f 272 282 274
f 282 283 274
f 276 279 281
f 281 284 282
f 281 279 284
f 279 285 284
f 284 286 287
f 282 284 287
f 282 287 283
f 287 288 283
f 287 289 288
f 237 273 239
f 270 273 237
f 239 273 290
f 239 290 240
f 240 291 246
f 240 290 291
f 291 292 246
f 273 274 290
f 290 274 293
f 290 293 291
f 291 294 292
f 293 294 291
f 294 295 292
f 246 292 247
f 247 296 248
f 247 292 296
f 248 297 249
f 248 296 297
f 249 297 298
f 292 295 296
f 296 299 297
f 296 295 299
f 297 300 298
f 299 300 297
f 298 300 301
f 274 283 293
f 293 302 294
f 293 283 302
f 294 302 303
f 294 303 295
f 295 303 304
f 283 288 302
f 302 305 303
f 302 288 305
f 288 306 305
f 305 307 308
f 303 305 308
f 308 309 310
f 303 308 304
f 308 310 304
f 295 304 299
f 299 304 311
f 299 311 300
f 300 311 312
f 300 312 301
f 301 312 313
f 310 314 315
f 304 310 311
f 311 310 315
f 311 315 312
f 315 316 317
f 312 315 317
f 312 317 313
f 313 317 318
f 317 319 318
f 65 93 320
f 320 321 322
f 322 323 324
f 324 325 326
f 326 327 328
f 65 329 71
f 320 330 329
f 71 329 331
f 329 330 332
f 65 320 329
f 320 322 330
f 322 333 330
f 324 334 333
f 326 335 334
f 330 333 336
f 333 334 337
f 322 324 333
f 324 326 334
f 328 338 339
f 339 340 341
f 328 342 335
f 334 335 343
f 335 342 344
f 326 328 335
f 328 339 342
f 339 341 345
f 339 345 342
f 342 345 346
f 345 347 348
f 341 349 347
f 341 347 345
f 347 349 350
f 349 351 350
f 73 331 352
f 331 332 353
f 332 336 354
f 336 337 355
f 84 352 356
f 84 356 87
f 352 353 357
f 352 357 356
f 73 352 84
f 331 353 352
f 353 358 357
f 353 354 358
f 354 359 358
f 332 354 353
f 336 355 354
f 71 331 73
f 329 332 331
f 330 336 332
f 333 337 336
f 337 343 360
f 343 344 361
f 362 344 346
f 355 363 359
f 337 360 355
f 343 361 360
f 354 355 359
f 355 360 363
f 360 364 363
f 361 344 362
f 360 361 364
f 361 362 365
f 361 365 364
f 334 343 337
f 335 344 343
f 342 346 344
f 345 348 346
f 320 93 321
f 322 321 323
f 324 323 325
f 93 92 321
f 321 92 323
f 323 92 325
f 325 92 327
f 327 92 338
f 326 325 327
f 328 327 338
f 339 338 340
f 338 92 340
f 340 92 366
f 366 92 367
f 367 92 368
f 368 92 369
f 341 340 366
f 366 367 349
f 341 366 349
f 367 368 351
f 368 369 370
f 367 351 349
f 368 370 351
f 369 371 370
f 369 372 371
f 372 373 374
f 369 92 372
f 372 92 373
f 373 92 375
f 375 92 376
f 92 377 376
f 347 350 378
f 351 370 379
f 351 379 350
f 379 370 380
f 350 379 381
f 379 380 382
f 362 346 383
f 362 384 365
f 362 383 384
f 383 385 384
f 383 386 385
f 386 387 385
f 347 378 348
f 350 381 378
f 346 348 383
f 348 378 386
f 378 381 388
f 379 382 381
f 381 382 389
f 383 348 386
f 378 388 386
f 381 389 388
f 386 388 387
f 388 390 387
f 388 389 390
f 382 391 389
f 389 392 390
f 389 391 392
f 372 374 371
f 373 393 374
f 370 371 380
f 371 374 394
f 371 394 380
f 380 394 395
f 374 396 394
f 374 393 396
f 394 396 397
f 373 375 393
f 375 398 393
f 375 376 398
f 393 399 396
f 393 398 399
f 396 399 400
f 382 380 395
f 394 397 395
f 382 395 391
f 395 397 401
f 395 401 391
f 391 402 392
f 391 401 402
f 396 400 397
f 397 400 403
f 397 403 401
f 401 404 402
f 401 403 404
f 87 356 405
f 87 405 146
f 356 406 405
f 356 357 406
f 357 358 407
f 357 407 406
f 146 405 408
f 146 408 149
f 405 409 408
f 405 406 409
f 406 407 410
f 406 410 409
f 358 359 411
f 359 363 412
f 358 411 407
f 359 412 411
f 363 364 413
f 363 413 412
f 364 414 413
f 407 411 415
f 411 412 416
f 407 415 410
f 411 416 415
f 412 413 417
f 412 417 416
f 149 408 418
f 149 418 161
f 408 419 418
f 408 409 419
f 409 410 420
f 409 420 419
f 161 418 421
f 165 161 421
f 418 422 421
f 165 421 423
f 418 419 422
f 419 420 424
f 419 424 422
f 421 422 425
f 422 424 426
f 410 415 427
f 410 427 420
f 415 428 427
f 415 416 428
f 416 429 428
f 416 417 429
f 420 427 430
f 420 430 424
f 427 431 430
f 424 430 432
f 427 428 431
f 428 433 431
f 428 429 433
f 430 431 434
f 431 433 435
f 364 365 414
f 365 436 414
f 365 384 436
f 384 385 437
f 385 387 438
f 384 437 436
f 385 438 437
f 413 414 439
f 414 436 440
f 413 439 417
f 414 440 439
f 440 436 441
f 436 437 441
f 437 442 441
f 437 438 442
f 438 443 442
f 387 390 444
f 438 387 444
f 390 392 445
f 390 445 444
f 438 444 443
f 444 446 443
f 444 445 446
f 417 439 447
f 417 447 429
f 439 440 448
f 439 448 447
f 440 449 448
f 440 441 449
f 429 447 450
f 429 450 433
f 447 451 450
f 433 450 452
f 447 448 451
f 448 453 451
f 448 449 453
f 450 451 454
f 451 453 455
f 441 442 456
f 441 456 449
f 442 457 456
f 449 456 458
f 449 458 453
f 456 459 458
f 453 458 460
f 442 443 457
f 443 461 457
f 443 446 461
f 456 457 459
f 458 459 462
f 457 463 459
f 457 461 463
f 459 463 464
f 392 465 445
f 392 402 465
f 445 465 466
f 446 445 466
f 402 404 467
f 402 467 465
f 465 467 468
f 465 468 466
f 446 469 461
f 446 466 469
f 461 470 463
f 461 469 470
f 463 470 471
f 466 472 469
f 466 468 472
f 469 473 470
f 469 472 473
f 470 473 474
f 92 475 476
f 219 477 92
f 92 477 475
f 92 476 478
f 92 478 479
f 92 479 480
f 92 480 481
f 92 481 482
f 92 482 483
f 92 483 484
f 219 223 477
f 477 485 475
f 475 486 476
f 223 485 477
f 475 485 486
f 476 486 487
f 476 487 478
f 478 488 479
f 479 489 480
f 478 487 488
f 479 488 489
f 223 232 485
f 485 490 486
f 486 491 487
f 487 492 488
f 488 493 489
f 92 494 377
f 92 495 494
f 92 484 495
f 494 495 496
f 480 497 481
f 481 498 482
f 482 499 483
f 482 498 499
f 480 489 497
f 481 497 498
f 483 500 484
f 495 484 501
f 483 499 500
f 495 501 496
f 484 500 501
f 489 502 497
f 497 503 498
f 499 498 504
f 499 504 505
f 500 506 501
f 499 505 500
f 500 505 506
f 232 490 485
f 486 490 491
f 232 242 490
f 490 507 491
f 487 491 492
f 488 492 493
f 491 508 492
f 492 509 493
f 493 502 489
f 497 502 503
f 498 503 504
f 493 510 502
f 502 511 503
f 503 512 504
f 505 504 513
f 242 507 490
f 491 507 508
f 242 245 507
f 507 514 508
f 492 508 509
f 493 509 510
f 508 515 509
f 509 516 510
f 245 514 507
f 508 514 515
f 509 515 516
f 245 249 514
f 249 517 514
f 514 517 515
f 515 517 518
f 515 518 516
f 516 519 520
f 516 518 519
f 502 510 511
f 503 511 512
f 510 520 511
f 512 511 521
f 504 512 513
f 505 513 522
f 512 523 513
f 513 524 522
f 516 520 510
f 511 520 521
f 512 521 523
f 513 523 524
f 521 525 523
f 523 526 524
f 524 526 527
f 520 519 528
f 520 528 521
f 521 528 525
f 523 525 526
f 376 377 529
f 376 529 398
f 377 494 530
f 494 496 530
f 377 530 529
f 529 531 398
f 398 531 399
f 399 531 532
f 529 533 531
f 529 530 533
f 531 533 534
f 496 501 535
f 530 496 536
f 501 506 535
f 496 535 536
f 536 535 537
f 530 536 533
f 533 536 538
f 533 538 534
f 536 537 538
f 534 538 539
f 399 532 400
f 400 532 540
f 531 534 532
f 400 540 403
f 532 541 540
f 403 542 404
f 403 540 542
f 540 543 542
f 532 534 541
f 540 541 543
f 534 539 541
f 541 539 544
f 541 544 543
f 505 522 506
f 506 545 535
f 506 522 545
f 535 545 537
f 522 546 545
f 545 547 537
f 537 548 538
f 545 546 547
f 524 546 522
f 524 527 546
f 547 546 549
f 546 527 549
f 537 547 548
f 538 548 539
f 548 550 539
f 547 551 548
f 547 549 551
f 548 551 550
f 539 550 544
f 249 298 517
f 517 552 518
f 298 552 517
f 518 553 519
f 518 552 553
f 519 553 554
f 298 301 552
f 552 555 553
f 301 555 552
f 553 556 554
f 555 556 553
f 554 556 557
f 519 554 528
f 528 558 525
f 554 558 528
f 525 558 559
f 525 559 526
f 526 560 527
f 526 559 560
f 554 557 558
f 558 561 559
f 557 561 558
f 561 562 559
f 559 562 560
f 560 562 563
f 301 313 555
f 313 564 555
f 555 564 556
f 556 564 565
f 556 565 557
f 557 565 566
f 313 318 564
f 564 318 567
f 564 567 565
f 318 568 567
f 567 569 570
f 570 571 572
f 565 567 570
f 565 570 566
f 566 570 572
f 557 566 561
f 561 566 573
f 561 573 562
f 562 574 563
f 562 573 574
f 563 574 575
f 573 576 574
f 572 577 576
f 576 578 579
f 566 572 573
f 572 576 573
f 574 579 575
f 574 576 579
f 575 579 580
f 579 581 580
f 404 542 582
f 404 582 467
f 467 582 583
f 467 583 468
f 543 544 584
f 542 543 585
f 542 585 582
f 543 584 585
f 582 585 586
f 582 586 583
f 585 587 586
f 468 588 472
f 468 583 588
f 473 472 589
f 472 588 589
f 473 589 590
f 583 591 588
f 583 586 591
f 586 592 591
f 588 593 589
f 588 591 593
f 589 593 594
f 591 595 593
f 549 596 551
f 550 551 597
f 551 596 597
f 550 597 598
f 597 599 598
f 527 600 549
f 560 600 527
f 549 600 596
f 560 563 600
f 600 601 596
f 563 601 600
f 601 602 596
f 596 602 597
f 597 602 599
f 550 598 544
f 544 598 584
f 584 603 587
f 584 598 603
f 599 603 598
f 585 584 587
f 563 575 601
f 575 604 601
f 602 604 605
f 601 604 602
f 599 602 605
f 599 605 606
f 575 580 604
f 580 607 604
f 604 607 605
f 580 608 607
f 607 609 610
f 606 605 610
f 605 607 610
f 606 610 611
f 611 610 612
f 587 613 592
f 599 606 603
f 603 606 613
f 587 603 613
f 586 587 592
f 592 614 595
f 606 611 613
f 611 614 613
f 592 613 614
f 611 615 614
f 595 614 616
f 591 592 595
f 593 595 617
f 110 115 113
f 113 618 619
f 117 620 134
f 118 117 134
f 134 620 621
f 114 113 117
f 113 619 117
f 619 620 117
f 622 623 621
f 620 624 622
f 619 624 620
f 620 622 621
f 112 124 115
f 113 115 618
f 115 625 618
f 124 625 115
f 122 126 124
f 123 127 126
f 124 126 626
f 124 626 625
f 126 127 627
f 126 627 626
f 619 618 628
f 619 628 624
f 618 625 629
f 618 629 628
f 625 626 630
f 626 631 630
f 625 630 629
f 624 632 622
f 622 632 633
f 622 633 623
f 633 634 623
f 633 635 634
f 624 628 636
f 628 629 637
f 628 637 636
f 629 630 638
f 629 638 637
f 637 639 636
f 637 638 640
f 637 640 639
f 624 636 632
f 633 632 641
f 632 636 642
f 632 642 641
f 633 641 635
f 636 639 642
f 133 134 137
f 134 621 137
f 137 621 643
f 621 623 643
f 643 623 644
f 136 137 257
f 137 643 257
f 643 645 257
f 643 644 645
f 644 646 645
f 623 634 644
f 644 634 647
f 634 648 647
f 635 648 634
f 648 649 647
f 644 647 646
f 647 650 646
f 647 649 650
f 649 651 650
f 125 155 127
f 153 157 155
f 127 652 627
f 127 155 652
f 154 158 157
f 155 157 653
f 155 653 652
f 157 158 654
f 157 654 653
f 626 627 631
f 627 655 631
f 627 652 655
f 652 653 656
f 652 656 655
f 653 654 657
f 653 657 656
f 156 164 158
f 162 166 164
f 158 164 658
f 158 658 654
f 164 659 658
f 163 167 166
f 164 166 659
f 166 167 660
f 166 660 659
f 654 661 657
f 654 658 661
f 658 662 661
f 658 659 662
f 659 660 663
f 659 663 662
f 630 631 664
f 655 665 631
f 630 664 638
f 631 665 664
f 655 656 666
f 656 657 667
f 655 666 665
f 656 667 666
f 638 664 668
f 664 665 669
f 638 668 640
f 664 669 668
f 665 666 670
f 665 670 669
f 666 671 670
f 657 661 672
f 657 672 667
f 661 662 673
f 662 663 674
f 661 673 672
f 662 674 673
f 666 667 671
f 667 672 675
f 667 675 671
f 672 673 676
f 673 674 677
f 672 676 675
f 673 677 676
f 635 678 648
f 641 679 635
f 635 679 678
f 679 680 678
f 641 642 681
f 641 681 679
f 642 639 682
f 642 682 681
f 682 683 681
f 679 681 684
f 680 685 678
f 679 684 680
f 681 683 684
f 680 684 686
f 648 687 649
f 649 687 688
f 649 688 651
f 688 689 651
f 648 678 687
f 687 678 685
f 688 687 690
f 687 685 690
f 688 690 691
f 690 692 691
f 680 693 685
f 690 685 694
f 688 691 689
f 691 695 696
f 691 696 689
f 691 692 695
f 685 693 694
f 680 686 693
f 690 694 692
f 692 697 695
f 694 698 692
f 692 698 697
f 695 699 696
f 695 700 699
f 695 697 700
f 700 701 699
f 699 701 702
f 668 669 703
f 669 670 704
f 639 640 705
f 639 705 682
f 668 706 640
f 640 706 705
f 682 705 707
f 705 706 708
f 668 703 706
f 669 704 703
f 706 703 709
f 703 704 710
f 705 708 707
f 682 707 683
f 684 683 711
f 683 707 712
f 706 709 708
f 703 710 709
f 707 708 713
f 708 709 714
f 670 671 715
f 671 675 716
f 675 676 717
f 676 677 718
f 670 715 704
f 671 716 715
f 704 715 719
f 715 716 720
f 675 717 716
f 676 718 717
f 716 717 721
f 717 718 722
f 704 719 710
f 715 720 719
f 709 710 723
f 710 719 724
f 719 720 725
f 716 721 720
f 717 722 721
f 720 721 726
f 721 722 727
f 684 711 686
f 683 712 711
f 707 713 712
f 708 714 713
f 712 713 728
f 713 714 729
f 709 723 714
f 710 724 723
f 719 725 724
f 714 723 730
f 723 724 731
f 720 726 725
f 721 727 726
f 724 725 732
f 725 726 733
f 726 727 734
f 693 686 735
f 694 693 736
f 694 736 698
f 686 711 737
f 686 737 735
f 693 735 736
f 712 738 711
f 711 738 737
f 712 728 738
f 713 729 728
f 697 698 739
f 698 736 740
f 697 739 741
f 698 740 739
f 735 737 742
f 737 738 743
f 738 728 744
f 735 745 736
f 736 745 740
f 735 742 745
f 737 743 742
f 697 741 700
f 700 746 701
f 700 741 746
f 701 747 748
f 746 747 701
f 741 749 746
f 746 749 747
f 747 749 750
f 714 730 729
f 723 731 730
f 724 732 731
f 725 733 732
f 726 734 733
f 728 729 751
f 729 730 752
f 730 731 753
f 728 751 744
f 729 752 751
f 730 753 752
f 738 744 743
f 731 732 754
f 732 733 755
f 733 734 756
f 731 754 753
f 732 755 754
f 733 756 755
f 752 753 749
f 753 754 749
f 754 755 749
f 755 756 749
f 740 749 739
f 740 745 749
f 741 739 749
f 745 742 749
f 742 743 749
f 743 744 749
f 744 751 749
f 751 752 749
f 256 257 261
f 257 645 261
f 645 757 261
f 645 646 757
f 757 646 758
f 260 261 263
f 261 757 263
f 757 759 263
f 759 277 263
f 757 758 759
f 759 758 760
f 759 760 761
f 760 762 761
f 646 650 758
f 650 763 758
f 763 760 758
f 650 651 763
f 763 651 764
f 763 764 765
f 763 765 760
f 760 765 762
f 765 766 762
f 764 767 765
f 765 767 766
f 767 768 766
f 264 263 277
f 759 761 277
f 277 761 280
f 278 277 280
f 279 280 285
f 761 769 280
f 280 769 285
f 761 762 769
f 769 762 770
f 769 770 771
f 285 771 286
f 769 771 285
f 771 770 772
f 771 772 773
f 773 772 774
f 284 285 286
f 286 771 773
f 287 286 289
f 288 289 306
f 286 773 289
f 289 773 775
f 289 775 306
f 775 776 306
f 773 774 775
f 775 774 777
f 775 777 776
f 762 766 770
f 766 778 770
f 766 768 778
f 770 778 772
f 779 774 772
f 778 779 772
f 774 780 777
f 777 781 782
f 779 780 774
f 777 780 781
f 778 783 779
f 778 768 783
f 779 783 784
f 779 784 780
f 785 781 780
f 784 785 780
f 785 786 781
f 305 306 307
f 306 776 307
f 307 787 309
f 307 776 787
f 308 307 309
f 310 309 314
f 309 787 788
f 309 788 314
f 788 789 314
f 776 782 787
f 777 782 776
f 787 782 790
f 787 790 788
f 788 790 791
f 789 791 792
f 788 791 789
f 315 314 316
f 314 789 316
f 316 793 319
f 316 789 793
f 317 316 319
f 318 319 568
f 319 793 794
f 319 794 568
f 794 795 568
f 789 792 793
f 793 792 796
f 793 796 794
f 794 796 797
f 797 798 795
f 794 797 795
f 781 799 782
f 799 800 790
f 781 786 799
f 799 801 800
f 786 801 799
f 800 802 803
f 803 804 805
f 800 801 802
f 803 802 804
f 799 790 782
f 790 800 791
f 803 792 791
f 800 803 791
f 805 806 807
f 804 806 805
f 807 806 808
f 807 808 809
f 809 810 811
f 809 808 810
f 810 812 813
f 810 813 814
f 810 814 815
f 815 814 816
f 815 816 817
f 810 815 811
f 805 796 792
f 803 805 792
f 805 807 796
f 807 797 796
f 809 798 797
f 807 809 797
f 809 811 798
f 651 689 764
f 764 689 818
f 689 696 818
f 764 818 767
f 767 818 819
f 767 819 768
f 818 820 819
f 818 696 820
f 696 699 820
f 820 821 819
f 820 702 821
f 819 821 822
f 768 819 822
f 768 822 783
f 783 822 823
f 822 824 823
f 823 825 826
f 822 821 824
f 821 827 824
f 824 828 825
f 824 825 823
f 826 825 829
f 825 830 829
f 820 699 702
f 702 701 748
f 821 702 827
f 702 748 827
f 748 831 827
f 831 828 827
f 831 832 828
f 824 827 828
f 828 830 825
f 828 832 830
f 783 823 784
f 784 823 826
f 784 826 785
f 785 833 786
f 785 826 833
f 826 829 833
f 833 829 834
f 829 835 834
f 836 837 834
f 837 838 839
f 839 840 841
f 841 842 843
f 843 844 845
f 845 846 847
f 748 750 831
f 748 747 750
f 831 750 848
f 831 848 832
f 849 850 832
f 848 849 832
f 750 749 848
f 849 851 850
f 852 851 853
f 853 854 855
f 830 832 850
f 830 850 835
f 835 852 836
f 835 850 852
f 829 830 835
f 835 836 834
f 836 838 837
f 836 852 855
f 855 856 838
f 856 857 840
f 839 838 840
f 841 840 842
f 836 855 838
f 856 840 838
f 857 842 840
f 850 851 852
f 852 853 855
f 854 856 855
f 856 858 857
f 854 858 856
f 848 749 849
f 849 749 851
f 851 749 853
f 853 749 854
f 854 749 858
f 858 749 859
f 859 749 860
f 860 749 861
f 861 749 862
f 862 749 863
f 863 749 864
f 864 749 865
f 857 866 842
f 866 867 844
f 843 842 844
f 846 868 869
f 845 844 846
f 846 870 847
f 846 871 870
f 846 872 871
f 846 869 872
f 866 844 842
f 867 846 844
f 873 868 846
f 867 873 846
f 873 874 875
f 873 876 868
f 873 877 876
f 873 875 877
f 857 859 866
f 860 867 866
f 867 861 873
f 857 858 859
f 859 860 866
f 860 861 867
f 873 862 878
f 863 879 878
f 873 878 880
f 873 880 874
f 878 879 881
f 878 882 880
f 878 883 882
f 878 881 883
f 863 884 879
f 863 885 884
f 864 886 885
f 864 887 886
f 865 888 887
f 873 861 862
f 862 863 878
f 863 864 885
f 864 865 887
f 786 889 801
f 786 833 889
f 801 889 890
f 833 834 889
f 889 837 890
f 801 890 802
f 802 890 891
f 890 839 891
f 891 841 892
f 802 891 804
f 804 891 892
f 889 834 837
f 890 837 839
f 891 839 841
f 892 841 843
f 892 843 893
f 893 845 894
f 894 845 895
f 804 892 806
f 806 892 893
f 806 893 808
f 808 893 894
f 894 896 897
f 894 898 899
f 894 899 896
f 894 900 898
f 894 895 900
f 808 894 810
f 810 897 901
f 810 901 902
f 810 894 897
f 810 902 812
f 893 843 845
f 845 903 895
f 845 904 905
f 845 905 903
f 845 906 904
f 845 907 906
f 845 847 907
f 165 423 167
f 421 425 423
f 167 423 908
f 167 908 660
f 423 909 908
f 422 426 425
f 423 425 909
f 425 910 909
f 425 426 910
f 660 908 911
f 660 911 663
f 908 912 911
f 908 909 912
f 909 913 912
f 909 910 913
f 424 432 426
f 430 434 432
f 426 432 914
f 426 914 910
f 432 915 914
f 431 435 434
f 432 434 915
f 434 916 915
f 434 435 916
f 910 914 917
f 910 917 913
f 914 915 918
f 914 918 917
f 915 919 918
f 915 916 919
f 916 920 919
f 663 911 921
f 911 912 922
f 663 921 674
f 911 922 921
f 912 913 923
f 912 923 922
f 913 924 923
f 674 921 925
f 921 922 926
f 674 925 677
f 921 926 925
f 922 923 927
f 922 927 926
f 923 928 927
f 913 917 924
f 917 918 929
f 917 929 924
f 918 919 930
f 929 918 930
f 919 931 930
f 923 924 928
f 924 929 932
f 924 932 928
f 929 933 932
f 929 930 933
f 930 931 934
f 930 934 933
f 433 452 435
f 450 454 452
f 435 452 935
f 435 935 916
f 452 454 936
f 452 936 935
f 451 455 454
f 454 937 936
f 454 455 937
f 455 938 937
f 916 935 920
f 935 936 939
f 935 939 920
f 936 937 940
f 936 940 939
f 937 941 940
f 453 460 455
f 458 462 460
f 455 460 938
f 937 938 941
f 460 462 942
f 460 942 938
f 459 464 462
f 462 943 942
f 462 464 943
f 938 944 941
f 938 942 944
f 942 945 944
f 942 943 945
f 919 920 931
f 920 939 946
f 920 946 931
f 939 947 946
f 939 940 947
f 931 946 948
f 934 931 948
f 940 941 949
f 940 949 947
f 946 947 950
f 946 950 948
f 947 949 951
f 947 951 950
f 949 952 951
f 941 944 953
f 949 941 953
f 944 945 954
f 944 954 953
f 949 953 952
f 953 954 955
f 952 953 955
f 463 471 464
f 464 956 943
f 464 471 956
f 943 957 945
f 943 956 957
f 470 474 471
f 471 958 956
f 471 474 958
f 956 959 957
f 956 958 959
f 954 945 960
f 945 957 960
f 954 961 955
f 954 960 961
f 957 959 962
f 957 962 960
f 960 962 963
f 960 963 961
f 677 925 964
f 925 926 965
f 926 927 966
f 927 928 967
f 677 964 718
f 925 965 964
f 718 964 968
f 964 965 969
f 926 966 965
f 927 967 966
f 965 966 970
f 966 967 971
f 718 968 722
f 964 969 968
f 722 968 972
f 968 969 973
f 965 970 969
f 966 971 970
f 969 970 974
f 970 971 975
f 928 932 976
f 932 933 977
f 928 976 967
f 932 977 976
f 967 976 978
f 976 977 979
f 933 980 977
f 933 934 980
f 934 981 980
f 977 980 982
f 980 981 983
f 971 967 978
f 976 979 978
f 977 982 979
f 971 978 984
f 978 979 985
f 979 982 986
f 980 983 982
f 983 981 987
f 982 983 988
f 983 987 989
f 722 972 727
f 968 973 972
f 969 974 973
f 727 972 990
f 972 973 991
f 970 975 974
f 971 984 975
f 973 974 992
f 974 975 993
f 975 984 994
f 978 985 984
f 979 986 985
f 984 985 995
f 985 986 996
f 982 988 986
f 983 989 988
f 989 987 997
f 727 990 734
f 972 991 990
f 973 992 991
f 974 993 992
f 975 994 993
f 984 995 994
f 734 990 998
f 990 991 999
f 991 992 1000
f 734 998 756
f 990 999 998
f 991 1000 999
f 1000 992 1001
f 756 998 749
f 998 999 749
f 999 1000 749
f 1000 1001 749
f 1001 1002 749
f 1001 992 993
f 993 994 1002
f 994 995 1003
f 1001 993 1002
f 994 1003 1002
f 1003 995 1004
f 1002 1003 749
f 1003 1004 749
f 1004 1005 749
f 1005 1006 749
f 1006 1007 749
f 1007 1008 749
f 1008 1009 749
f 985 996 995
f 986 988 1010
f 986 1010 996
f 988 1011 1010
f 988 989 1011
f 989 1012 1011
f 989 997 1012
f 997 1013 1012
f 1004 995 996
f 996 1010 1005
f 1010 1011 1006
f 1007 1011 1012
f 1004 996 1005
f 1010 1006 1005
f 1006 1011 1007
f 1007 1012 1008
f 1012 1013 1008
f 1013 1014 1009
f 1013 1009 1008
f 1009 1015 749
f 1015 1016 749
f 1016 1017 749
f 1015 1014 1018
f 1009 1014 1015
f 1015 1018 1016
f 1016 1018 1019
f 1016 1019 1017
f 934 948 981
f 948 1020 981
f 948 950 1020
f 950 1021 1020
f 981 1020 987
f 1020 1021 1022
f 950 951 1021
f 951 1023 1021
f 951 952 1023
f 952 1024 1023
f 1021 1023 1025
f 1020 1022 987
f 1021 1025 1022
f 997 987 1022
f 1023 1024 1026
f 1024 1027 1028
f 1022 1025 1029
f 1025 1026 1030
f 1023 1026 1025
f 1024 1028 1026
f 1026 1028 1031
f 1028 1027 1032
f 1032 1033 1034
f 1028 1032 1035
f 952 955 1024
f 955 1027 1024
f 955 961 1027
f 961 1033 1027
f 961 963 1033
f 1032 1027 1033
f 997 1022 1029
f 1025 1030 1029
f 997 1029 1013
f 1026 1031 1030
f 1029 1030 1014
f 1013 1029 1014
f 1030 1018 1014
f 1031 1019 1018
f 1030 1031 1018
f 1031 1035 1019
f 1035 1036 1019
f 1028 1035 1031
f 1032 1037 1035
f 567 568 569
f 568 795 569
f 569 795 1038
f 569 1038 571
f 570 569 571
f 572 571 577
f 571 1038 1039
f 571 1039 577
f 577 1039 1040
f 1038 798 1041
f 795 798 1038
f 1038 1041 1039
f 1039 1041 1042
f 1039 1042 1040
f 1040 1042 1043
f 576 577 578
f 577 1040 578
f 1040 1044 578
f 578 1044 581
f 581 1044 1045
f 579 578 581
f 580 581 608
f 581 1045 608
f 608 1045 1046
f 1044 1043 1047
f 1040 1043 1044
f 1045 1047 1048
f 1044 1047 1045
f 1045 1048 1046
f 1046 1049 1050
f 1046 1048 1049
f 811 815 1051
f 1051 1052 1053
f 815 817 1054
f 815 1054 1055
f 815 1055 1056
f 815 1056 1052
f 1052 1056 1057
f 1052 1057 1058
f 1051 815 1052
f 1052 1059 1060
f 1053 1052 1060
f 1053 1060 1061
f 1061 1062 1063
f 1061 1060 1062
f 811 1041 798
f 1051 1042 1041
f 811 1051 1041
f 1051 1053 1042
f 1053 1043 1042
f 1053 1061 1043
f 1063 1064 1048
f 1049 1065 1066
f 1064 1065 1049
f 1065 1067 1066
f 1063 1068 1064
f 1062 1068 1063
f 1064 1068 1069
f 1064 1069 1065
f 1065 1070 1067
f 1065 1069 1070
f 1071 1067 1070
f 1061 1047 1043
f 1063 1048 1047
f 1061 1063 1047
f 1064 1049 1048
f 473 590 474
f 474 1072 958
f 474 590 1072
f 958 1073 959
f 958 1072 1073
f 589 594 590
f 590 1074 1072
f 590 594 1074
f 593 617 594
f 1074 594 1075
f 1074 1075 1076
f 1072 1077 1073
f 1072 1074 1077
f 1074 1076 1077
f 1078 1079 1080
f 959 1073 1081
f 959 1081 962
f 1081 1073 1082
f 962 1081 1083
f 962 1083 963
f 1081 1084 1083
f 1077 1076 1079
f 1082 1077 1079
f 1082 1073 1077
f 1081 1082 1084
f 1082 1079 1078
f 1082 1078 1084
f 615 1085 616
f 615 1086 1085
f 1086 1066 1087
f 1086 1087 1085
f 1085 1087 1088
f 1085 1088 1089
f 1089 1088 1090
f 607 608 609
f 610 609 612
f 1046 1050 609
f 608 1046 609
f 609 1050 612
f 612 1050 1086
f 611 612 615
f 615 612 1086
f 1049 1066 1050
f 1050 1066 1086
f 595 616 617
f 617 1089 1075
f 614 615 616
f 1085 1089 616
f 617 616 1089
f 594 617 1075
f 1075 1089 1090
f 1075 1090 1076
f 1066 1067 1087
f 1087 1067 1091
f 1092 1093 1090
f 1087 1091 1088
f 1092 1090 1088
f 1092 1088 1091
f 1092 1094 1095
f 1071 1091 1067
f 1092 1091 1094
f 1071 1094 1091
f 1092 1095 1093
f 1093 1080 1079
f 1093 1095 1080
f 1093 1076 1090
f 1093 1079 1076
f 1096 1097 1098
f 1096 1099 1100
f 1096 1100 1097
f 1098 1101 1102
f 1102 1103 1104
f 1104 1105 1106
f 1106 1107 1108
f 1109 1110 1108
f 749 1111 865
f 749 1112 1111
f 749 1113 1112
f 749 1114 1113
f 749 1115 1114
f 749 1116 1115
f 749 1117 1118
f 749 1119 1117
f 749 1120 1119
f 749 1121 1120
f 749 1122 1121
f 749 1118 1116
f 1123 1124 1125
f 1123 1126 1124
f 1123 1097 1127
f 1123 1128 1097
f 1123 1127 1126
f 1129 1130 1103
f 1097 1131 1127
f 1097 1132 1131
f 1097 1100 1133
f 1097 1133 1134
f 1097 1134 1132
f 1098 1097 1101
f 1102 1101 1103
f 1128 1101 1097
f 1128 1129 1101
f 1129 1103 1101
f 865 1135 888
f 865 1136 1137
f 865 1137 1135
f 865 1138 1136
f 865 1139 1138
f 1111 1123 1140
f 1111 1141 1142
f 1111 1142 1139
f 1111 1140 1141
f 1112 1128 1123
f 1123 1125 1143
f 1123 1143 1140
f 865 1111 1139
f 1111 1112 1123
f 1112 1113 1128
f 1113 1129 1128
f 1114 1130 1129
f 1115 1144 1130
f 1113 1114 1129
f 1114 1115 1130
f 1115 1116 1144
f 1116 1118 1145
f 749 1017 1122
f 1118 1117 1146
f 1117 1119 1147
f 1119 1120 1148
f 1019 1036 1017
f 1122 1036 1149
f 1017 1036 1122
f 1120 1150 1148
f 1121 1149 1150
f 1121 1122 1149
f 1121 1150 1120
f 1130 1144 1105
f 1144 1145 1107
f 1109 1145 1146
f 1104 1103 1105
f 1106 1105 1107
f 1130 1105 1103
f 1144 1107 1105
f 1109 1107 1145
f 1148 1151 1147
f 1109 1146 1152
f 1152 1146 1147
f 1148 1153 1151
f 1148 1150 1153
f 1152 1147 1151
f 1109 1108 1107
f 1109 1152 1110
f 1116 1145 1144
f 1118 1146 1145
f 1117 1147 1146
f 1119 1148 1147
f 1154 1155 1156
f 1154 1156 1157
f 1154 1157 1158
f 1052 1058 1159
f 1052 1159 1059
f 1060 1059 1160
f 1060 1160 1161
f 1060 1161 1162
f 1060 1162 1163
f 1060 1163 1155
f 1060 1155 1154
f 1154 1158 1164
f 1164 1158 1165
f 1164 1096 1166
f 1060 1154 1062
f 1062 1154 1164
f 1062 1164 1068
f 1068 1164 1166
f 1164 1167 1096
f 1096 1167 1168
f 1164 1169 1167
f 1164 1170 1169
f 1164 1165 1170
f 1096 1098 1166
f 1096 1168 1171
f 1096 1171 1099
f 1069 1166 1172
f 1070 1172 1173
f 1098 1172 1166
f 1172 1102 1173
f 1068 1166 1069
f 1069 1172 1070
f 1071 1173 1174
f 1071 1174 1094
f 1094 1174 1175
f 1173 1104 1174
f 1174 1106 1175
f 1071 1070 1173
f 1098 1102 1172
f 1173 1102 1104
f 1174 1104 1106
f 1106 1108 1175
f 1033 1176 1034
f 1177 1178 1176
f 1032 1034 1037
f 1034 1176 1178
f 1034 1178 1179
f 1180 1110 1181
f 1084 1182 1177
f 1182 1183 1177
f 1078 1080 1181
f 1078 1181 1182
f 1084 1078 1182
f 1182 1181 1184
f 1183 1153 1178
f 1183 1184 1151
f 1108 1110 1180
f 1181 1110 1184
f 1152 1184 1110
f 1177 1183 1178
f 1182 1184 1183
f 963 1176 1033
f 963 1083 1176
f 1083 1177 1176
f 1083 1084 1177
f 1037 1149 1036
f 1035 1037 1036
f 1150 1179 1153
f 1150 1149 1179
f 1037 1179 1149
f 1034 1179 1037
f 1183 1151 1153
f 1178 1153 1179
f 1152 1151 1184
f 1095 1175 1180
f 1094 1175 1095
f 1095 1180 1080
f 1080 1180 1181
f 1108 1180 1175
f 1185 817 816
f 1186 1185 816
f 1187 870 871
f 1187 871 872
f 1187 872 869
f 1188 1187 869
f 1188 869 868
f 1188 876 877
f 1188 868 876
f 1189 877 875
f 1189 875 874
f 1188 877 1189
f 1188 1189 1190
f 1191 883 881
f 1191 881 1192
f 1192 881 879
f 1192 879 884
f 1192 884 885
f 1192 885 886
f 1192 886 887
f 1192 887 888
f 1193 888 1135
f 1192 888 1193
f 1191 874 880
f 1191 880 882
f 1191 882 883
f 1189 874 1191
f 1189 1191 1194
f 1191 1192 1195
f 1192 1193 1195
f 1194 1191 1195
f 1195 1193 1196
f 1197 898 900
f 1197 900 895
f 1198 902 901
f 1198 901 897
f 1198 897 896
f 1199 1198 896
f 1199 1200 1198
f 1198 812 902
f 1186 813 812
f 1198 1186 812
f 1186 814 813
f 1186 816 814
f 1186 1201 1185
f 1197 899 898
f 1199 896 899
f 1199 899 1197
f 1199 1197 1202
f 1203 904 906
f 1203 905 904
f 1204 903 905
f 1203 1204 905
f 1203 906 907
f 1203 907 847
f 1203 847 1187
f 1197 903 1204
f 1203 1205 1204
f 1204 1205 1206
f 1197 895 903
f 1197 1204 1202
f 1202 1204 1206
f 1186 1207 1201
f 1198 1200 1186
f 1186 1200 1207
f 1199 1208 1200
f 1199 1202 1208
f 1200 1209 1207
f 1200 1208 1209
f 1209 1210 1207
f 1209 1208 1211
f 1209 1212 1210
f 1202 1206 1213
f 1202 1213 1208
f 1206 1214 1213
f 1208 1213 1211
f 1213 1215 1211
f 1209 1211 1212
f 1211 1216 1212
f 1213 1214 1215
f 1215 1214 1217
f 1215 1216 1211
f 1212 1216 1218
f 1215 1217 1216
f 1216 1219 1218
f 1187 847 870
f 1203 1187 1205
f 1187 1220 1205
f 1188 1190 1187
f 1190 1189 1221
f 1187 1190 1220
f 1190 1221 1220
f 1206 1205 1222
f 1205 1220 1222
f 1220 1221 1223
f 1222 1220 1223
f 1189 1194 1221
f 1194 1224 1221
f 1194 1195 1225
f 1194 1225 1224
f 1195 1196 1225
f 1225 1196 1226
f 1221 1224 1223
f 1223 1224 1227
f 1225 1228 1224
f 1225 1226 1228
f 1228 1226 1229
f 1206 1222 1214
f 1222 1230 1214
f 1222 1223 1230
f 1230 1223 1227
f 1230 1227 1231
f 1227 1232 1231
f 1214 1230 1217
f 1230 1231 1217
f 1216 1217 1219
f 1217 1231 1219
f 1231 1232 1233
f 1219 1231 1233
f 1224 1228 1227
f 1228 1232 1227
f 1228 1229 1232
f 1185 1055 1054
f 1185 1054 817
f 1185 1056 1055
f 1234 1131 1132
f 1234 1127 1131
f 1235 1125 1124
f 1235 1126 1127
f 1235 1124 1126
f 1234 1235 1127
f 1234 1236 1235
f 1237 1133 1100
f 1237 1134 1133
f 1237 1132 1134
f 1234 1132 1237
f 1238 1141 1140
f 1238 1140 1239
f 1238 1137 1136
f 1238 1136 1138
f 1193 1135 1137
f 1193 1137 1238
f 1238 1139 1142
f 1238 1138 1139
f 1238 1142 1141
f 1239 1140 1143
f 1193 1238 1240
f 1238 1239 1240
f 1240 1239 1241
f 1239 1143 1125
f 1235 1239 1125
f 1235 1241 1239
f 1193 1240 1196
f 1242 1157 1156
f 1242 1158 1157
f 1243 1058 1057
f 1185 1243 1056
f 1185 1201 1243
f 1243 1057 1056
f 1243 1244 1058
f 1244 1159 1058
f 1244 1059 1159
f 1244 1161 1160
f 1244 1162 1161
f 1244 1160 1059
f 1244 1245 1162
f 1246 1245 1244
f 1242 1155 1163
f 1245 1163 1162
f 1245 1242 1163
f 1242 1156 1155
f 1245 1247 1242
f 1242 1165 1158
f 1242 1247 1248
f 1247 1249 1248
f 1168 1167 1169
f 1250 1168 1169
f 1250 1169 1170
f 1248 1170 1165
f 1250 1170 1248
f 1250 1171 1168
f 1250 1099 1171
f 1250 1237 1099
f 1242 1248 1165
f 1250 1248 1251
f 1248 1249 1251
f 1243 1201 1252
f 1243 1246 1244
f 1243 1252 1246
f 1207 1252 1201
f 1252 1253 1246
f 1246 1253 1254
f 1246 1254 1245
f 1245 1254 1247
f 1207 1210 1252
f 1252 1210 1253
f 1253 1255 1254
f 1210 1256 1253
f 1247 1257 1249
f 1247 1254 1257
f 1257 1258 1249
f 1212 1256 1210
f 1253 1256 1255
f 1212 1218 1256
f 1256 1259 1255
f 1255 1257 1254
f 1255 1260 1257
f 1256 1218 1259
f 1255 1259 1260
f 1218 1261 1259
f 1259 1262 1260
f 1257 1260 1258
f 1260 1262 1258
f 1234 1237 1236
f 1235 1236 1263
f 1237 1264 1236
f 1236 1264 1263
f 1249 1265 1251
f 1251 1265 1264
f 1264 1266 1263
f 1265 1266 1264
f 1237 1100 1099
f 1250 1251 1237
f 1237 1251 1264
f 1240 1241 1267
f 1241 1268 1267
f 1235 1263 1241
f 1241 1263 1268
f 1196 1240 1267
f 1196 1267 1226
f 1226 1267 1269
f 1267 1268 1269
f 1226 1269 1229
f 1263 1266 1268
f 1270 1268 1266
f 1249 1258 1265
f 1265 1258 1271
f 1271 1272 1270
f 1273 1270 1272
f 1265 1271 1266
f 1271 1270 1266
f 1262 1272 1271
f 1218 1219 1261
f 1259 1261 1262
f 1219 1233 1261
f 1261 1272 1262
f 1262 1271 1258
f 1273 1272 1233
f 1232 1273 1233
f 1261 1233 1272
f 1269 1273 1229
f 1269 1268 1270
f 1269 1270 1273
f 1232 1229 1273
