# sionna2 mesh — phantom4__camera.obj
# group=camera  verts=261  tris=494
v 0.015296 -0.039000 -0.022416
v 0.093296 -0.039000 -0.022416
v 0.015296 -0.039000 -0.017017
v 0.015296 0.039000 -0.022416
v 0.046609 -0.003184 -0.022416
v 0.051112 -0.007687 -0.022416
v 0.054296 -0.008320 -0.022416
v 0.057480 -0.007687 -0.022416
v 0.048413 -0.005883 -0.022416
v 0.015296 0.039000 -0.017017
v 0.080071 -0.039000 -0.017485
v 0.080071 -0.039000 -0.017017
v 0.080071 -0.029923 -0.017017
v 0.088071 -0.039000 -0.017485
v 0.093296 -0.039000 -0.017017
v 0.088071 -0.039000 -0.017017
v 0.088071 -0.029923 -0.017017
v 0.060179 -0.005883 -0.022416
v 0.061982 -0.003184 -0.022416
v 0.093296 0.039000 -0.022416
v 0.088071 0.029923 -0.017017
v 0.093296 0.039000 -0.017017
v 0.045976 0.000000 -0.022416
v 0.046609 0.003184 -0.022416
v 0.048413 0.005883 -0.022416
v 0.051112 0.007687 -0.022416
v 0.054296 0.008320 -0.022416
v 0.057480 0.007687 -0.022416
v 0.080071 0.029923 -0.017017
v 0.080071 0.039000 -0.017485
v 0.062616 0.000000 -0.022416
v 0.061982 0.003184 -0.022416
v 0.060179 0.005883 -0.022416
v 0.088071 0.039000 -0.017485
v 0.080071 0.039000 -0.017017
v 0.088071 0.039000 -0.017017
v 0.048413 -0.005883 -0.025116
v 0.051112 -0.007687 -0.025116
v 0.046609 -0.003184 -0.025116
v 0.045976 0.000000 -0.025116
v 0.054296 -0.008320 -0.025116
v 0.057480 -0.007687 -0.025116
v 0.060179 -0.005883 -0.025116
v 0.061982 -0.003184 -0.025116
v 0.062616 0.000000 -0.025116
v 0.046609 0.003184 -0.025116
v 0.048413 0.005883 -0.025116
v 0.051112 0.007687 -0.025116
v 0.054296 0.008320 -0.025116
v 0.057480 0.007687 -0.025116
v 0.061982 0.003184 -0.025116
v 0.060179 0.005883 -0.025116
v 0.026296 -0.026000 -0.070107
v 0.082296 -0.026000 -0.070107
v 0.026296 -0.026000 -0.025116
v 0.026296 0.026000 -0.070107
v 0.026296 0.026000 -0.025116
v 0.082296 -0.014134 -0.055260
v 0.082296 -0.015764 -0.051570
v 0.082296 -0.016320 -0.047611
v 0.082296 -0.008160 -0.060859
v 0.082296 -0.011540 -0.058428
v 0.082296 -0.004224 -0.062387
v 0.082296 0.026000 -0.070107
v 0.082296 -0.026000 -0.025116
v 0.082296 -0.015764 -0.043652
v 0.082296 -0.014134 -0.039963
v 0.082296 -0.011540 -0.036795
v 0.082296 -0.008160 -0.034364
v 0.082296 -0.004224 -0.032835
v 0.082296 0.000000 -0.032314
v 0.082296 0.004224 -0.032835
v 0.082296 0.026000 -0.025116
v 0.082296 0.000000 -0.062908
v 0.082296 0.004224 -0.062387
v 0.082296 0.008160 -0.060859
v 0.082296 0.011540 -0.058428
v 0.082296 0.014134 -0.055260
v 0.082296 0.015764 -0.051570
v 0.082296 0.016320 -0.047611
v 0.082296 0.015764 -0.043652
v 0.082296 0.014134 -0.039963
v 0.082296 0.011540 -0.036795
v 0.082296 0.008160 -0.034364
v 0.100496 0.000000 -0.062908
v 0.100496 -0.004224 -0.062387
v 0.100496 -0.008160 -0.060859
v 0.100496 -0.014134 -0.055260
v 0.100496 -0.011540 -0.058428
v 0.100496 0.000000 -0.047611
v 0.100496 -0.015764 -0.051570
v 0.100496 -0.016320 -0.047611
v 0.100496 -0.015764 -0.043652
v 0.100496 -0.014134 -0.039963
v 0.100496 -0.011540 -0.036795
v 0.100496 -0.008160 -0.034364
v 0.100496 -0.004224 -0.032835
v 0.100496 0.000000 -0.032314
v 0.100496 0.004224 -0.062387
v 0.100496 0.008160 -0.060859
v 0.100496 0.011540 -0.058428
v 0.100496 0.014134 -0.055260
v 0.100496 0.015764 -0.051570
v 0.100496 0.016320 -0.047611
v 0.100496 0.015764 -0.043652
v 0.100496 0.011540 -0.036795
v 0.100496 0.014134 -0.039963
v 0.100496 0.008160 -0.034364
v 0.100496 0.004224 -0.032835
v 0.080071 -0.039907 -0.016635
v 0.080071 -0.034711 -0.013823
v 0.080071 -0.040711 -0.013823
v 0.088071 -0.040711 -0.013823
v 0.088071 -0.039907 -0.016635
v 0.088071 -0.034711 -0.013823
v 0.080071 -0.039907 -0.011011
v 0.080071 -0.037711 -0.008952
v 0.088071 -0.039907 -0.011011
v 0.088071 -0.037711 -0.008952
v 0.088071 -0.034711 -0.008199
v 0.080071 -0.029515 -0.016635
v 0.088071 -0.029515 -0.016635
v 0.080071 -0.028711 -0.013823
v 0.088071 -0.028711 -0.013823
v 0.080071 -0.031711 -0.008952
v 0.080071 -0.029515 -0.011011
v 0.080071 -0.034711 -0.008199
v 0.088071 -0.029515 -0.011011
v 0.088071 -0.031711 -0.008952
v 0.080071 0.029515 -0.016635
v 0.080071 0.034711 -0.013823
v 0.080071 0.028711 -0.013823
v 0.088071 0.028711 -0.013823
v 0.088071 0.029515 -0.016635
v 0.088071 0.034711 -0.013823
v 0.080071 0.029515 -0.011011
v 0.088071 0.029515 -0.011011
v 0.088071 0.031711 -0.008952
v 0.080071 0.031711 -0.008952
v 0.080071 0.034711 -0.008199
v 0.080071 0.037711 -0.008952
v 0.088071 0.034711 -0.008199
v 0.088071 0.037711 -0.008952
v 0.080071 0.039907 -0.016635
v 0.088071 0.039907 -0.016635
v 0.080071 0.040711 -0.013823
v 0.088071 0.040711 -0.013823
v 0.080071 0.039907 -0.011011
v 0.088071 0.039907 -0.011011
v -0.077562 -0.036752 -0.015099
v -0.077562 -0.034555 -0.017157
v -0.069562 -0.036752 -0.015099
v -0.069562 -0.037556 -0.012287
v -0.077562 -0.037556 -0.012287
v -0.069562 -0.036752 -0.009475
v -0.077562 -0.036752 -0.009475
v -0.069562 -0.034555 -0.007416
v -0.077562 -0.031555 -0.017911
v -0.069562 -0.034555 -0.017157
v -0.069562 -0.031555 -0.017911
v -0.077562 -0.028555 -0.017157
v -0.069562 -0.028555 -0.017157
v -0.077562 -0.031555 -0.012287
v -0.077562 -0.026359 -0.015099
v -0.069562 -0.026359 -0.015099
v -0.069562 -0.031555 -0.012287
v -0.077562 -0.025556 -0.012287
v -0.077562 -0.034555 -0.007416
v -0.077562 -0.026359 -0.009475
v -0.077562 -0.028555 -0.007416
v -0.069562 -0.025556 -0.012287
v -0.069562 -0.026359 -0.009475
v -0.069562 -0.028555 -0.007416
v -0.077562 -0.031555 -0.006663
v -0.069562 -0.031555 -0.006663
v -0.077562 0.026359 -0.015099
v -0.069562 0.026359 -0.015099
v -0.069562 0.025556 -0.012287
v -0.077562 0.031555 -0.017911
v -0.069562 0.028555 -0.017157
v -0.077562 0.028555 -0.017157
v -0.069562 0.031555 -0.017911
v -0.077562 0.034555 -0.017157
v -0.069562 0.034555 -0.017157
v -0.077562 0.031555 -0.012287
v -0.077562 0.036752 -0.015099
v -0.069562 0.031555 -0.012287
v -0.069562 0.036752 -0.015099
v -0.077562 0.025556 -0.012287
v -0.069562 0.026359 -0.009475
v -0.077562 0.026359 -0.009475
v -0.077562 0.028555 -0.007416
v -0.077562 0.037556 -0.012287
v -0.077562 0.036752 -0.009475
v -0.077562 0.034555 -0.007416
v -0.069562 0.028555 -0.007416
v -0.069562 0.037556 -0.012287
v -0.069562 0.036752 -0.009475
v -0.069562 0.034555 -0.007416
v -0.077562 0.031555 -0.006663
v -0.069562 0.031555 -0.006663
v -0.007503 -0.071922 -0.016375
v -0.007503 -0.066922 -0.016375
v 0.000497 -0.071922 -0.016375
v 0.000497 -0.066922 -0.016375
v -0.007503 -0.066922 -0.005127
v -0.007503 -0.071922 -0.005127
v 0.000497 -0.066922 -0.005127
v 0.000497 -0.071922 -0.005127
v -0.007503 0.066922 -0.016375
v -0.007503 0.071922 -0.016375
v 0.000497 0.066922 -0.016375
v 0.000497 0.071922 -0.016375
v -0.007503 0.071922 -0.005127
v -0.007503 0.066922 -0.005127
v 0.000497 0.071922 -0.005127
v 0.000497 0.066922 -0.005127
v 0.006464 -0.025028 -0.038136
v 0.010509 -0.022089 -0.038136
v 0.008964 -0.026844 -0.038136
v 0.005509 -0.022089 -0.038136
v 0.012054 -0.026844 -0.038136
v 0.006464 -0.019150 -0.038136
v 0.008964 -0.017334 -0.038136
v 0.012054 -0.017334 -0.038136
v 0.005509 -0.022089 -0.032513
v 0.006464 -0.019150 -0.032513
v 0.006464 -0.025028 -0.032513
v 0.008964 -0.026844 -0.032513
v 0.012054 -0.026844 -0.032513
v 0.008964 -0.017334 -0.032513
v 0.010509 -0.022089 -0.032513
v 0.012054 -0.017334 -0.032513
v 0.014554 -0.025028 -0.038136
v 0.015509 -0.022089 -0.038136
v 0.014554 -0.019150 -0.038136
v 0.014554 -0.025028 -0.032513
v 0.015509 -0.022089 -0.032513
v 0.014554 -0.019150 -0.032513
v 0.008964 0.017334 -0.038136
v 0.006464 0.019150 -0.038136
v 0.010509 0.022089 -0.038136
v 0.005509 0.022089 -0.038136
v 0.012054 0.017334 -0.038136
v 0.006464 0.025028 -0.038136
v 0.008964 0.026844 -0.038136
v 0.012054 0.026844 -0.038136
v 0.008964 0.017334 -0.032513
v 0.006464 0.019150 -0.032513
v 0.012054 0.017334 -0.032513
v 0.005509 0.022089 -0.032513
v 0.006464 0.025028 -0.032513
v 0.008964 0.026844 -0.032513
v 0.012054 0.026844 -0.032513
v 0.010509 0.022089 -0.032513
v 0.014554 0.019150 -0.038136
v 0.015509 0.022089 -0.038136
v 0.014554 0.025028 -0.038136
v 0.014554 0.019150 -0.032513
v 0.015509 0.022089 -0.032513
v 0.014554 0.025028 -0.032513
f 1 2 3
f 1 4 5
f 1 6 7
f 1 7 8
f 1 8 2
f 1 5 9
f 1 9 6
f 1 3 10
f 3 2 11
f 3 11 12
f 3 12 13
f 2 14 11
f 2 15 14
f 14 15 16
f 16 15 17
f 2 8 18
f 2 18 19
f 2 19 20
f 3 13 21
f 13 17 21
f 2 20 15
f 15 22 17
f 4 23 5
f 4 24 23
f 4 25 24
f 4 26 25
f 4 27 26
f 4 28 27
f 4 20 28
f 1 10 4
f 3 29 10
f 4 10 30
f 20 19 31
f 20 31 32
f 20 33 28
f 20 32 33
f 3 21 29
f 15 20 22
f 17 22 21
f 4 30 34
f 4 34 20
f 10 29 35
f 10 35 30
f 20 34 22
f 21 22 36
f 34 36 22
f 37 38 6
f 39 37 9
f 6 9 37
f 40 39 5
f 9 5 39
f 5 23 40
f 38 41 7
f 6 38 7
f 7 41 8
f 41 42 8
f 18 42 43
f 18 8 42
f 19 18 43
f 43 44 19
f 44 45 31
f 44 31 19
f 46 40 23
f 47 46 24
f 23 24 46
f 25 48 47
f 24 25 47
f 25 26 48
f 49 48 26
f 50 49 27
f 26 27 49
f 33 32 51
f 52 50 28
f 51 52 33
f 27 28 50
f 28 33 52
f 45 51 32
f 45 32 31
f 53 54 55
f 53 56 54
f 53 55 57
f 54 58 59
f 54 59 60
f 54 61 62
f 54 63 61
f 54 64 63
f 54 62 58
f 54 65 55
f 54 60 66
f 54 66 65
f 55 39 57
f 55 65 42
f 55 41 38
f 55 37 39
f 55 38 37
f 55 42 41
f 65 43 42
f 65 44 43
f 65 45 44
f 65 51 45
f 66 67 65
f 67 68 65
f 65 68 69
f 65 69 70
f 65 70 71
f 65 71 72
f 53 57 56
f 56 57 73
f 54 56 64
f 56 73 64
f 63 64 74
f 74 64 75
f 75 64 76
f 76 64 77
f 77 64 78
f 78 64 79
f 64 73 79
f 79 73 80
f 80 73 81
f 57 39 40
f 57 40 46
f 57 46 47
f 57 47 48
f 57 48 73
f 73 50 52
f 73 48 49
f 73 49 50
f 65 73 51
f 73 52 51
f 82 73 83
f 84 73 72
f 84 83 73
f 65 72 73
f 81 73 82
f 63 74 85
f 63 85 86
f 62 61 87
f 58 88 59
f 62 89 58
f 63 86 61
f 62 87 89
f 58 89 88
f 86 87 61
f 89 87 90
f 86 90 87
f 86 85 90
f 59 91 60
f 60 92 66
f 88 91 59
f 88 90 91
f 60 91 92
f 91 90 92
f 92 90 93
f 89 90 88
f 66 93 67
f 67 94 68
f 92 93 66
f 93 90 94
f 67 93 94
f 94 95 68
f 94 90 95
f 95 90 96
f 96 90 97
f 68 95 69
f 69 96 70
f 70 97 71
f 69 95 96
f 97 90 98
f 70 96 97
f 97 98 71
f 74 75 99
f 74 99 85
f 75 76 100
f 76 77 101
f 77 78 102
f 75 100 99
f 85 99 90
f 99 100 90
f 100 101 90
f 76 101 100
f 77 102 101
f 78 103 102
f 78 79 103
f 79 80 104
f 101 102 90
f 79 104 103
f 102 103 90
f 80 105 104
f 90 103 104
f 90 104 105
f 80 81 105
f 82 83 106
f 81 82 107
f 90 108 109
f 90 107 106
f 90 106 108
f 81 107 105
f 90 105 107
f 82 106 107
f 71 98 72
f 84 72 109
f 84 108 83
f 84 109 108
f 90 109 98
f 72 98 109
f 83 108 106
f 11 110 12
f 110 111 12
f 11 14 110
f 112 111 110
f 112 110 113
f 14 114 110
f 110 114 113
f 14 16 114
f 114 16 115
f 113 114 115
f 112 116 111
f 116 117 111
f 112 118 116
f 116 119 117
f 112 113 118
f 113 115 118
f 118 115 119
f 116 118 119
f 117 119 120
f 12 111 121
f 12 121 13
f 13 121 122
f 121 123 122
f 111 123 121
f 16 17 115
f 13 122 17
f 115 17 122
f 123 124 122
f 115 122 124
f 111 125 126
f 117 127 111
f 111 127 125
f 111 126 123
f 123 126 124
f 126 125 128
f 115 128 129
f 119 115 120
f 115 129 120
f 124 126 128
f 115 124 128
f 128 125 129
f 117 120 127
f 127 129 125
f 127 120 129
f 29 130 131
f 29 21 130
f 130 132 131
f 130 133 132
f 29 131 35
f 130 21 134
f 130 134 133
f 134 135 133
f 21 36 134
f 134 36 135
f 132 136 131
f 132 137 136
f 136 138 139
f 131 136 139
f 131 139 140
f 131 140 141
f 132 133 137
f 133 135 137
f 136 137 138
f 135 138 137
f 135 142 138
f 135 143 142
f 139 142 140
f 139 138 142
f 140 142 143
f 131 144 35
f 30 35 144
f 30 144 145
f 144 146 145
f 131 146 144
f 30 145 34
f 135 36 145
f 34 145 36
f 146 147 145
f 135 145 147
f 131 141 148
f 131 148 146
f 146 148 147
f 148 141 149
f 147 148 149
f 135 149 143
f 135 147 149
f 149 141 143
f 140 143 141
f 150 151 152
f 150 152 153
f 150 153 154
f 154 153 155
f 154 155 156
f 156 155 157
f 158 159 151
f 158 160 159
f 158 161 160
f 160 161 162
f 158 151 163
f 152 151 159
f 150 163 151
f 158 163 161
f 161 164 162
f 162 164 165
f 161 163 164
f 160 166 159
f 152 159 166
f 160 162 166
f 162 165 166
f 164 167 165
f 150 154 163
f 154 156 163
f 156 168 163
f 164 163 167
f 163 169 167
f 163 170 169
f 152 166 153
f 153 166 155
f 155 166 157
f 165 171 166
f 166 171 172
f 166 172 173
f 156 157 168
f 163 168 174
f 168 157 175
f 168 175 174
f 163 174 170
f 174 173 170
f 170 172 169
f 170 173 172
f 174 175 173
f 166 175 157
f 166 173 175
f 167 169 171
f 165 167 171
f 169 172 171
f 176 177 178
f 179 180 181
f 179 182 180
f 179 183 182
f 182 183 184
f 176 181 177
f 179 181 185
f 177 181 180
f 176 185 181
f 179 185 183
f 183 186 184
f 183 185 186
f 182 187 180
f 177 180 187
f 182 184 187
f 184 188 187
f 176 178 189
f 189 178 190
f 189 190 191
f 176 189 185
f 189 191 185
f 191 192 185
f 185 193 186
f 185 194 193
f 185 195 194
f 177 187 178
f 178 187 190
f 190 187 196
f 187 188 197
f 187 197 198
f 187 198 199
f 191 196 192
f 185 192 200
f 191 190 196
f 192 196 201
f 192 201 200
f 185 200 195
f 195 200 199
f 195 199 198
f 200 201 199
f 187 201 196
f 187 199 201
f 184 186 188
f 186 193 188
f 193 194 197
f 188 193 197
f 194 198 197
f 195 198 194
f 202 203 204
f 203 205 204
f 202 206 203
f 202 204 207
f 203 208 205
f 202 207 206
f 204 209 207
f 207 208 206
f 207 209 208
f 203 206 208
f 204 205 209
f 205 208 209
f 210 211 212
f 211 213 212
f 210 214 211
f 210 212 215
f 211 216 213
f 210 215 214
f 212 217 215
f 211 214 216
f 215 216 214
f 215 217 216
f 212 213 217
f 213 216 217
f 218 219 220
f 221 219 218
f 220 219 222
f 221 223 219
f 223 224 219
f 219 224 225
f 221 218 226
f 221 226 227
f 218 220 228
f 220 222 229
f 220 229 228
f 218 228 226
f 229 222 230
f 221 227 223
f 223 227 231
f 228 229 232
f 226 228 232
f 229 230 232
f 226 232 227
f 227 232 231
f 232 233 231
f 223 231 224
f 224 233 225
f 224 231 233
f 219 234 222
f 219 235 234
f 219 236 235
f 219 225 236
f 222 234 230
f 234 235 237
f 234 237 230
f 235 238 237
f 236 225 239
f 235 236 238
f 236 239 238
f 232 230 237
f 232 237 238
f 232 238 239
f 232 239 233
f 225 233 239
f 240 241 242
f 243 242 241
f 240 242 244
f 243 245 242
f 242 245 246
f 242 246 247
f 240 244 248
f 240 248 249
f 248 244 250
f 243 241 251
f 243 251 252
f 240 249 241
f 241 249 251
f 243 252 245
f 245 253 246
f 246 254 247
f 245 252 253
f 246 253 254
f 248 255 249
f 251 249 255
f 248 250 255
f 251 255 252
f 255 253 252
f 255 254 253
f 242 256 244
f 242 257 256
f 242 247 258
f 242 258 257
f 244 256 250
f 256 257 259
f 256 259 250
f 257 260 259
f 247 261 258
f 257 258 260
f 247 254 261
f 258 261 260
f 255 250 259
f 255 259 260
f 255 261 254
f 255 260 261
