# sionna2 mesh — phantom4__motor.obj
# group=motor  verts=1016  tris=2016
v 0.118370 0.119629 0.004888
v 0.115953 0.117601 0.006564
v 0.117350 0.121086 0.004888
v 0.114617 0.119509 0.006564
v 0.116598 0.122699 0.004888
v 0.116137 0.124418 0.004888
v 0.113030 0.123870 0.006564
v 0.115982 0.126190 0.004888
v 0.113633 0.121620 0.006564
v 0.121086 0.117350 0.004888
v 0.119509 0.114617 0.006564
v 0.119629 0.118370 0.004888
v 0.122699 0.116598 0.004888
v 0.121620 0.113633 0.006564
v 0.124418 0.116137 0.004888
v 0.123870 0.113030 0.006564
v 0.126190 0.115982 0.004888
v 0.126190 0.112827 0.006564
v 0.126190 0.126190 0.004888
v 0.117601 0.115953 0.006564
v 0.112827 0.126190 0.006564
v 0.116137 0.127963 0.004888
v 0.113030 0.128511 0.006564
v 0.116598 0.129681 0.004888
v 0.113633 0.130761 0.006564
v 0.117350 0.131294 0.004888
v 0.114617 0.132872 0.006564
v 0.118370 0.132752 0.004888
v 0.119629 0.134010 0.004888
v 0.121086 0.135030 0.004888
v 0.122699 0.135782 0.004888
v 0.124418 0.136243 0.004888
v 0.126190 0.136398 0.004888
v 0.115953 0.134780 0.006564
v 0.117601 0.136427 0.006564
v 0.119509 0.137763 0.006564
v 0.121620 0.138747 0.006564
v 0.123870 0.139350 0.006564
v 0.126190 0.139553 0.006564
v 0.127963 0.116137 0.004888
v 0.128511 0.113030 0.006564
v 0.129681 0.116598 0.004888
v 0.130761 0.113633 0.006564
v 0.131294 0.117350 0.004888
v 0.132872 0.114617 0.006564
v 0.132752 0.118370 0.004888
v 0.134780 0.115953 0.006564
v 0.134010 0.119629 0.004888
v 0.135030 0.121086 0.004888
v 0.135782 0.122699 0.004888
v 0.136243 0.124418 0.004888
v 0.136398 0.126190 0.004888
v 0.136427 0.117601 0.006564
v 0.137763 0.119509 0.006564
v 0.138747 0.121620 0.006564
v 0.139350 0.123870 0.006564
v 0.139553 0.126190 0.006564
v 0.132752 0.134010 0.004888
v 0.134010 0.132752 0.004888
v 0.127963 0.136243 0.004888
v 0.129681 0.135782 0.004888
v 0.131294 0.135030 0.004888
v 0.136243 0.127963 0.004888
v 0.135782 0.129681 0.004888
v 0.135030 0.131294 0.004888
v 0.132872 0.137763 0.006564
v 0.136427 0.134780 0.006564
v 0.134780 0.136427 0.006564
v 0.128511 0.139350 0.006564
v 0.130761 0.138747 0.006564
v 0.139350 0.128511 0.006564
v 0.138747 0.130761 0.006564
v 0.137763 0.132872 0.006564
v 0.112826 0.114976 0.008575
v 0.114976 0.112826 0.008575
v 0.111081 0.117467 0.008575
v 0.117467 0.111081 0.008575
v 0.109796 0.120223 0.008575
v 0.109009 0.123161 0.008575
v 0.108744 0.126190 0.008575
v 0.120223 0.109796 0.008575
v 0.123161 0.109009 0.008575
v 0.126190 0.108744 0.008575
v 0.109009 0.129220 0.008575
v 0.109796 0.132157 0.008575
v 0.111081 0.134913 0.008575
v 0.112826 0.137404 0.008575
v 0.114976 0.139555 0.008575
v 0.117467 0.141299 0.008575
v 0.120223 0.142584 0.008575
v 0.123161 0.143371 0.008575
v 0.126190 0.143636 0.008575
v 0.129220 0.109009 0.008575
v 0.132157 0.109796 0.008575
v 0.134913 0.111081 0.008575
v 0.137404 0.112826 0.008575
v 0.139555 0.114976 0.008575
v 0.141299 0.117467 0.008575
v 0.142584 0.120223 0.008575
v 0.143371 0.123161 0.008575
v 0.143636 0.126190 0.008575
v 0.129220 0.143371 0.008575
v 0.132157 0.142584 0.008575
v 0.134913 0.141299 0.008575
v 0.137404 0.139555 0.008575
v 0.139555 0.137404 0.008575
v 0.141299 0.134913 0.008575
v 0.143371 0.129220 0.008575
v 0.142584 0.132157 0.008575
v 0.107912 0.122967 0.014105
v 0.107630 0.126190 0.014105
v 0.108750 0.119842 0.014105
v 0.107912 0.129413 0.014105
v 0.126190 0.107630 0.014105
v 0.129413 0.107912 0.014105
v 0.122967 0.107912 0.014105
v 0.132538 0.108750 0.014105
v 0.111973 0.114260 0.014105
v 0.116910 0.110117 0.014105
v 0.114260 0.111973 0.014105
v 0.110117 0.116910 0.014105
v 0.119842 0.108750 0.014105
v 0.108750 0.132538 0.014105
v 0.110117 0.135470 0.014105
v 0.111973 0.138120 0.014105
v 0.114260 0.140408 0.014105
v 0.116910 0.142263 0.014105
v 0.119842 0.143631 0.014105
v 0.122967 0.144468 0.014105
v 0.135470 0.110117 0.014105
v 0.138120 0.111973 0.014105
v 0.140408 0.114260 0.014105
v 0.142263 0.116910 0.014105
v 0.143631 0.119842 0.014105
v 0.144468 0.122967 0.014105
v 0.144750 0.126190 0.014105
v 0.126190 0.144750 0.014105
v 0.129413 0.144468 0.014105
v 0.132538 0.143631 0.014105
v 0.144468 0.129413 0.014105
v 0.142263 0.135470 0.014105
v 0.143631 0.132538 0.014105
v 0.138120 0.140408 0.014105
v 0.135470 0.142263 0.014105
v 0.140408 0.138120 0.014105
v 0.108643 0.123096 0.018629
v 0.108373 0.126190 0.018629
v 0.108643 0.129284 0.018629
v 0.123096 0.108643 0.018629
v 0.126190 0.108373 0.018629
v 0.129284 0.108643 0.018629
v 0.112541 0.114737 0.018629
v 0.114737 0.112541 0.018629
v 0.117281 0.110760 0.018629
v 0.110760 0.117281 0.018629
v 0.109447 0.120096 0.018629
v 0.120096 0.109447 0.018629
v 0.109447 0.132284 0.018629
v 0.110760 0.135099 0.018629
v 0.112541 0.137643 0.018629
v 0.114737 0.139839 0.018629
v 0.117281 0.141621 0.018629
v 0.120096 0.142933 0.018629
v 0.123096 0.143737 0.018629
v 0.126190 0.144008 0.018629
v 0.132284 0.109447 0.018629
v 0.135099 0.110760 0.018629
v 0.137643 0.112541 0.018629
v 0.139839 0.114737 0.018629
v 0.141621 0.117281 0.018629
v 0.142933 0.120096 0.018629
v 0.143737 0.123096 0.018629
v 0.144008 0.126190 0.018629
v 0.129284 0.143737 0.018629
v 0.132284 0.142933 0.018629
v 0.143737 0.129284 0.018629
v 0.142933 0.132284 0.018629
v 0.141621 0.135099 0.018629
v 0.137643 0.139839 0.018629
v 0.135099 0.141621 0.018629
v 0.139839 0.137643 0.018629
v 0.114816 0.116646 0.020808
v 0.118766 0.113332 0.020808
v 0.116646 0.114816 0.020808
v 0.112238 0.121112 0.020808
v 0.113332 0.118766 0.020808
v 0.111568 0.123612 0.020808
v 0.121112 0.112238 0.020808
v 0.123612 0.111568 0.020808
v 0.126190 0.111342 0.020808
v 0.111342 0.126190 0.020808
v 0.111568 0.128768 0.020808
v 0.112238 0.131268 0.020808
v 0.113332 0.133614 0.020808
v 0.114816 0.135734 0.020808
v 0.116646 0.137564 0.020808
v 0.118766 0.139049 0.020808
v 0.121112 0.140143 0.020808
v 0.123612 0.140812 0.020808
v 0.128768 0.111568 0.020808
v 0.131268 0.112238 0.020808
v 0.133614 0.113332 0.020808
v 0.135734 0.114816 0.020808
v 0.137564 0.116646 0.020808
v 0.139049 0.118766 0.020808
v 0.140143 0.121112 0.020808
v 0.140812 0.123612 0.020808
v 0.141038 0.126190 0.020808
v 0.126190 0.141038 0.020808
v 0.128768 0.140812 0.020808
v 0.133614 0.139049 0.020808
v 0.131268 0.140143 0.020808
v 0.140143 0.131268 0.020808
v 0.140812 0.128768 0.020808
v 0.139049 0.133614 0.020808
v 0.135734 0.137564 0.020808
v 0.137564 0.135734 0.020808
v 0.121180 0.120219 0.021646
v 0.119439 0.122293 0.021646
v 0.120219 0.121180 0.021646
v 0.118865 0.123524 0.021646
v 0.118513 0.124837 0.021646
v 0.118395 0.126190 0.021646
v 0.122293 0.119439 0.021646
v 0.123524 0.118865 0.021646
v 0.124837 0.118513 0.021646
v 0.126190 0.118395 0.021646
v 0.127544 0.118513 0.021646
v 0.126190 0.126190 0.021646
v 0.118513 0.127544 0.021646
v 0.118865 0.128856 0.021646
v 0.119439 0.130088 0.021646
v 0.120219 0.131201 0.021646
v 0.121180 0.132162 0.021646
v 0.122293 0.132941 0.021646
v 0.123524 0.133515 0.021646
v 0.124837 0.133867 0.021646
v 0.126190 0.133985 0.021646
v 0.127544 0.133867 0.021646
v 0.128856 0.118865 0.021646
v 0.130088 0.119439 0.021646
v 0.131201 0.120219 0.021646
v 0.132162 0.121180 0.021646
v 0.132941 0.122293 0.021646
v 0.133515 0.123524 0.021646
v 0.133867 0.124837 0.021646
v 0.133985 0.126190 0.021646
v 0.133867 0.127544 0.021646
v 0.131201 0.132162 0.021646
v 0.130088 0.132941 0.021646
v 0.128856 0.133515 0.021646
v 0.133515 0.128856 0.021646
v 0.132941 0.130088 0.021646
v 0.132162 0.131201 0.021646
v -0.135030 0.121086 0.004888
v -0.137763 0.119509 0.006564
v -0.135782 0.122699 0.004888
v -0.138747 0.121620 0.006564
v -0.136243 0.124418 0.004888
v -0.139350 0.123870 0.006564
v -0.136398 0.126190 0.004888
v -0.131294 0.117350 0.004888
v -0.132872 0.114617 0.006564
v -0.132752 0.118370 0.004888
v -0.129681 0.116598 0.004888
v -0.130761 0.113633 0.006564
v -0.127963 0.116137 0.004888
v -0.128511 0.113030 0.006564
v -0.126190 0.115982 0.004888
v -0.126190 0.112827 0.006564
v -0.126190 0.126190 0.004888
v -0.134010 0.119629 0.004888
v -0.136427 0.117601 0.006564
v -0.134780 0.115953 0.006564
v -0.139553 0.126190 0.006564
v -0.136243 0.127963 0.004888
v -0.139350 0.128511 0.006564
v -0.135782 0.129681 0.004888
v -0.138747 0.130761 0.006564
v -0.135030 0.131294 0.004888
v -0.134010 0.132752 0.004888
v -0.132752 0.134010 0.004888
v -0.131294 0.135030 0.004888
v -0.129681 0.135782 0.004888
v -0.127963 0.136243 0.004888
v -0.126190 0.136398 0.004888
v -0.137763 0.132872 0.006564
v -0.136427 0.134780 0.006564
v -0.134780 0.136427 0.006564
v -0.132872 0.137763 0.006564
v -0.130761 0.138747 0.006564
v -0.128511 0.139350 0.006564
v -0.126190 0.139553 0.006564
v -0.124418 0.116137 0.004888
v -0.123870 0.113030 0.006564
v -0.122699 0.116598 0.004888
v -0.121620 0.113633 0.006564
v -0.121086 0.117350 0.004888
v -0.119509 0.114617 0.006564
v -0.119629 0.118370 0.004888
v -0.117601 0.115953 0.006564
v -0.118370 0.119629 0.004888
v -0.117350 0.121086 0.004888
v -0.116598 0.122699 0.004888
v -0.116137 0.124418 0.004888
v -0.115982 0.126190 0.004888
v -0.115953 0.117601 0.006564
v -0.114617 0.119509 0.006564
v -0.113633 0.121620 0.006564
v -0.113030 0.123870 0.006564
v -0.112827 0.126190 0.006564
v -0.124418 0.136243 0.004888
v -0.122699 0.135782 0.004888
v -0.121086 0.135030 0.004888
v -0.119629 0.134010 0.004888
v -0.118370 0.132752 0.004888
v -0.117350 0.131294 0.004888
v -0.116598 0.129681 0.004888
v -0.116137 0.127963 0.004888
v -0.119509 0.137763 0.006564
v -0.117601 0.136427 0.006564
v -0.123870 0.139350 0.006564
v -0.121620 0.138747 0.006564
v -0.113633 0.130761 0.006564
v -0.113030 0.128511 0.006564
v -0.115953 0.134780 0.006564
v -0.114617 0.132872 0.006564
v -0.139555 0.114976 0.008575
v -0.137404 0.112826 0.008575
v -0.141299 0.117467 0.008575
v -0.142584 0.120223 0.008575
v -0.143371 0.123161 0.008575
v -0.143636 0.126190 0.008575
v -0.132157 0.109796 0.008575
v -0.134913 0.111081 0.008575
v -0.129220 0.109009 0.008575
v -0.126190 0.108744 0.008575
v -0.143371 0.129220 0.008575
v -0.142584 0.132157 0.008575
v -0.141299 0.134913 0.008575
v -0.139555 0.137404 0.008575
v -0.137404 0.139555 0.008575
v -0.134913 0.141299 0.008575
v -0.132157 0.142584 0.008575
v -0.129220 0.143371 0.008575
v -0.126190 0.143636 0.008575
v -0.123161 0.109009 0.008575
v -0.120223 0.109796 0.008575
v -0.117467 0.111081 0.008575
v -0.114976 0.112826 0.008575
v -0.112826 0.114976 0.008575
v -0.111081 0.117467 0.008575
v -0.109796 0.120223 0.008575
v -0.109009 0.123161 0.008575
v -0.108744 0.126190 0.008575
v -0.123161 0.143371 0.008575
v -0.120223 0.142584 0.008575
v -0.117467 0.141299 0.008575
v -0.111081 0.134913 0.008575
v -0.112826 0.137404 0.008575
v -0.109009 0.129220 0.008575
v -0.109796 0.132157 0.008575
v -0.114976 0.139555 0.008575
v -0.126190 0.107630 0.014105
v -0.122967 0.107912 0.014105
v -0.129413 0.107912 0.014105
v -0.119842 0.108750 0.014105
v -0.140408 0.114260 0.014105
v -0.135470 0.110117 0.014105
v -0.138120 0.111973 0.014105
v -0.143631 0.119842 0.014105
v -0.142263 0.116910 0.014105
v -0.144468 0.122967 0.014105
v -0.132538 0.108750 0.014105
v -0.144750 0.126190 0.014105
v -0.144468 0.129413 0.014105
v -0.143631 0.132538 0.014105
v -0.142263 0.135470 0.014105
v -0.140408 0.138120 0.014105
v -0.138120 0.140408 0.014105
v -0.135470 0.142263 0.014105
v -0.132538 0.143631 0.014105
v -0.129413 0.144468 0.014105
v -0.116910 0.110117 0.014105
v -0.114260 0.111973 0.014105
v -0.111973 0.114260 0.014105
v -0.110117 0.116910 0.014105
v -0.108750 0.119842 0.014105
v -0.107912 0.122967 0.014105
v -0.126190 0.144750 0.014105
v -0.122967 0.144468 0.014105
v -0.119842 0.143631 0.014105
v -0.108750 0.132538 0.014105
v -0.110117 0.135470 0.014105
v -0.114260 0.140408 0.014105
v -0.116910 0.142263 0.014105
v -0.111973 0.138120 0.014105
v -0.107630 0.126190 0.014105
v -0.107912 0.129413 0.014105
v -0.129284 0.108643 0.018629
v -0.126190 0.108373 0.018629
v -0.123096 0.108643 0.018629
v -0.139839 0.114737 0.018629
v -0.137643 0.112541 0.018629
v -0.135099 0.110760 0.018629
v -0.141621 0.117281 0.018629
v -0.142933 0.120096 0.018629
v -0.143737 0.123096 0.018629
v -0.132284 0.109447 0.018629
v -0.144008 0.126190 0.018629
v -0.143737 0.129284 0.018629
v -0.142933 0.132284 0.018629
v -0.141621 0.135099 0.018629
v -0.139839 0.137643 0.018629
v -0.137643 0.139839 0.018629
v -0.135099 0.141621 0.018629
v -0.132284 0.142933 0.018629
v -0.129284 0.143737 0.018629
v -0.126190 0.144008 0.018629
v -0.120096 0.109447 0.018629
v -0.117281 0.110760 0.018629
v -0.114737 0.112541 0.018629
v -0.112541 0.114737 0.018629
v -0.110760 0.117281 0.018629
v -0.109447 0.120096 0.018629
v -0.108643 0.123096 0.018629
v -0.123096 0.143737 0.018629
v -0.120096 0.142933 0.018629
v -0.109447 0.132284 0.018629
v -0.110760 0.135099 0.018629
v -0.114737 0.139839 0.018629
v -0.117281 0.141621 0.018629
v -0.112541 0.137643 0.018629
v -0.108643 0.129284 0.018629
v -0.108373 0.126190 0.018629
v -0.137564 0.116646 0.020808
v -0.135734 0.114816 0.020808
v -0.139049 0.118766 0.020808
v -0.140143 0.121112 0.020808
v -0.140812 0.123612 0.020808
v -0.133614 0.113332 0.020808
v -0.131268 0.112238 0.020808
v -0.128768 0.111568 0.020808
v -0.126190 0.111342 0.020808
v -0.141038 0.126190 0.020808
v -0.140812 0.128768 0.020808
v -0.140143 0.131268 0.020808
v -0.139049 0.133614 0.020808
v -0.137564 0.135734 0.020808
v -0.135734 0.137564 0.020808
v -0.133614 0.139049 0.020808
v -0.131268 0.140143 0.020808
v -0.128768 0.140812 0.020808
v -0.123612 0.111568 0.020808
v -0.121112 0.112238 0.020808
v -0.118766 0.113332 0.020808
v -0.116646 0.114816 0.020808
v -0.114816 0.116646 0.020808
v -0.113332 0.118766 0.020808
v -0.112238 0.121112 0.020808
v -0.111568 0.123612 0.020808
v -0.111342 0.126190 0.020808
v -0.126190 0.141038 0.020808
v -0.123612 0.140812 0.020808
v -0.121112 0.140143 0.020808
v -0.111568 0.128768 0.020808
v -0.112238 0.131268 0.020808
v -0.113332 0.133614 0.020808
v -0.118766 0.139049 0.020808
v -0.116646 0.137564 0.020808
v -0.114816 0.135734 0.020808
v -0.132162 0.121180 0.021646
v -0.132941 0.122293 0.021646
v -0.133515 0.123524 0.021646
v -0.133867 0.124837 0.021646
v -0.133985 0.126190 0.021646
v -0.131201 0.120219 0.021646
v -0.128856 0.118865 0.021646
v -0.130088 0.119439 0.021646
v -0.127544 0.118513 0.021646
v -0.126190 0.118395 0.021646
v -0.126190 0.126190 0.021646
v -0.133867 0.127544 0.021646
v -0.133515 0.128856 0.021646
v -0.132941 0.130088 0.021646
v -0.132162 0.131201 0.021646
v -0.131201 0.132162 0.021646
v -0.130088 0.132941 0.021646
v -0.128856 0.133515 0.021646
v -0.127544 0.133867 0.021646
v -0.124837 0.118513 0.021646
v -0.123524 0.118865 0.021646
v -0.122293 0.119439 0.021646
v -0.121180 0.120219 0.021646
v -0.120219 0.121180 0.021646
v -0.119439 0.122293 0.021646
v -0.118865 0.123524 0.021646
v -0.118513 0.124837 0.021646
v -0.118395 0.126190 0.021646
v -0.118513 0.127544 0.021646
v -0.122293 0.132941 0.021646
v -0.123524 0.133515 0.021646
v -0.120219 0.131201 0.021646
v -0.121180 0.132162 0.021646
v -0.126190 0.133985 0.021646
v -0.124837 0.133867 0.021646
v -0.118865 0.128856 0.021646
v -0.119439 0.130088 0.021646
v -0.135030 -0.131294 0.004888
v -0.137763 -0.132872 0.006564
v -0.135782 -0.129681 0.004888
v -0.138747 -0.130761 0.006564
v -0.136243 -0.127963 0.004888
v -0.139350 -0.128511 0.006564
v -0.136398 -0.126190 0.004888
v -0.129681 -0.135782 0.004888
v -0.130761 -0.138747 0.006564
v -0.131294 -0.135030 0.004888
v -0.127963 -0.136243 0.004888
v -0.128511 -0.139350 0.006564
v -0.126190 -0.136398 0.004888
v -0.126190 -0.139553 0.006564
v -0.126190 -0.126190 0.004888
v -0.134010 -0.132752 0.004888
v -0.132752 -0.134010 0.004888
v -0.134780 -0.136427 0.006564
v -0.136427 -0.134780 0.006564
v -0.132872 -0.137763 0.006564
v -0.139553 -0.126190 0.006564
v -0.136243 -0.124418 0.004888
v -0.139350 -0.123870 0.006564
v -0.135782 -0.122699 0.004888
v -0.138747 -0.121620 0.006564
v -0.135030 -0.121086 0.004888
v -0.134010 -0.119629 0.004888
v -0.132752 -0.118370 0.004888
v -0.131294 -0.117350 0.004888
v -0.129681 -0.116598 0.004888
v -0.127963 -0.116137 0.004888
v -0.126190 -0.115982 0.004888
v -0.137763 -0.119509 0.006564
v -0.136427 -0.117601 0.006564
v -0.134780 -0.115953 0.006564
v -0.132872 -0.114617 0.006564
v -0.130761 -0.113633 0.006564
v -0.128511 -0.113030 0.006564
v -0.126190 -0.112827 0.006564
v -0.124418 -0.136243 0.004888
v -0.123870 -0.139350 0.006564
v -0.122699 -0.135782 0.004888
v -0.121620 -0.138747 0.006564
v -0.121086 -0.135030 0.004888
v -0.119509 -0.137763 0.006564
v -0.119629 -0.134010 0.004888
v -0.118370 -0.132752 0.004888
v -0.117350 -0.131294 0.004888
v -0.116598 -0.129681 0.004888
v -0.116137 -0.127963 0.004888
v -0.115982 -0.126190 0.004888
v -0.117601 -0.136427 0.006564
v -0.115953 -0.134780 0.006564
v -0.114617 -0.132872 0.006564
v -0.113633 -0.130761 0.006564
v -0.113030 -0.128511 0.006564
v -0.112827 -0.126190 0.006564
v -0.124418 -0.116137 0.004888
v -0.122699 -0.116598 0.004888
v -0.121086 -0.117350 0.004888
v -0.119629 -0.118370 0.004888
v -0.117350 -0.121086 0.004888
v -0.116598 -0.122699 0.004888
v -0.118370 -0.119629 0.004888
v -0.116137 -0.124418 0.004888
v -0.117601 -0.115953 0.006564
v -0.123870 -0.113030 0.006564
v -0.121620 -0.113633 0.006564
v -0.119509 -0.114617 0.006564
v -0.113633 -0.121620 0.006564
v -0.113030 -0.123870 0.006564
v -0.114617 -0.119509 0.006564
v -0.115953 -0.117601 0.006564
v -0.137404 -0.139555 0.008575
v -0.139555 -0.137404 0.008575
v -0.142584 -0.132157 0.008575
v -0.143371 -0.129220 0.008575
v -0.141299 -0.134913 0.008575
v -0.143636 -0.126190 0.008575
v -0.134913 -0.141299 0.008575
v -0.132157 -0.142584 0.008575
v -0.129220 -0.143371 0.008575
v -0.126190 -0.143636 0.008575
v -0.143371 -0.123161 0.008575
v -0.142584 -0.120223 0.008575
v -0.141299 -0.117467 0.008575
v -0.139555 -0.114976 0.008575
v -0.137404 -0.112826 0.008575
v -0.134913 -0.111081 0.008575
v -0.132157 -0.109796 0.008575
v -0.129220 -0.109009 0.008575
v -0.126190 -0.108744 0.008575
v -0.123161 -0.143371 0.008575
v -0.120223 -0.142584 0.008575
v -0.117467 -0.141299 0.008575
v -0.114976 -0.139555 0.008575
v -0.112826 -0.137404 0.008575
v -0.111081 -0.134913 0.008575
v -0.109796 -0.132157 0.008575
v -0.109009 -0.129220 0.008575
v -0.108744 -0.126190 0.008575
v -0.123161 -0.109009 0.008575
v -0.117467 -0.111081 0.008575
v -0.120223 -0.109796 0.008575
v -0.111081 -0.117467 0.008575
v -0.109009 -0.123161 0.008575
v -0.109796 -0.120223 0.008575
v -0.114976 -0.112826 0.008575
v -0.112826 -0.114976 0.008575
v -0.140408 -0.138120 0.014105
v -0.135470 -0.142263 0.014105
v -0.138120 -0.140408 0.014105
v -0.143631 -0.132538 0.014105
v -0.142263 -0.135470 0.014105
v -0.144468 -0.129413 0.014105
v -0.132538 -0.143631 0.014105
v -0.129413 -0.144468 0.014105
v -0.126190 -0.144750 0.014105
v -0.144750 -0.126190 0.014105
v -0.144468 -0.122967 0.014105
v -0.143631 -0.119842 0.014105
v -0.142263 -0.116910 0.014105
v -0.140408 -0.114260 0.014105
v -0.138120 -0.111973 0.014105
v -0.135470 -0.110117 0.014105
v -0.132538 -0.108750 0.014105
v -0.122967 -0.144468 0.014105
v -0.119842 -0.143631 0.014105
v -0.116910 -0.142263 0.014105
v -0.114260 -0.140408 0.014105
v -0.111973 -0.138120 0.014105
v -0.110117 -0.135470 0.014105
v -0.108750 -0.132538 0.014105
v -0.107912 -0.129413 0.014105
v -0.122967 -0.107912 0.014105
v -0.119842 -0.108750 0.014105
v -0.108750 -0.119842 0.014105
v -0.110117 -0.116910 0.014105
v -0.114260 -0.111973 0.014105
v -0.116910 -0.110117 0.014105
v -0.111973 -0.114260 0.014105
v -0.129413 -0.107912 0.014105
v -0.126190 -0.107630 0.014105
v -0.107630 -0.126190 0.014105
v -0.107912 -0.122967 0.014105
v -0.139839 -0.137643 0.018629
v -0.135099 -0.141621 0.018629
v -0.137643 -0.139839 0.018629
v -0.141621 -0.135099 0.018629
v -0.142933 -0.132284 0.018629
v -0.143737 -0.129284 0.018629
v -0.132284 -0.142933 0.018629
v -0.129284 -0.143737 0.018629
v -0.126190 -0.144008 0.018629
v -0.144008 -0.126190 0.018629
v -0.143737 -0.123096 0.018629
v -0.142933 -0.120096 0.018629
v -0.141621 -0.117281 0.018629
v -0.139839 -0.114737 0.018629
v -0.137643 -0.112541 0.018629
v -0.135099 -0.110760 0.018629
v -0.132284 -0.109447 0.018629
v -0.129284 -0.108643 0.018629
v -0.123096 -0.143737 0.018629
v -0.120096 -0.142933 0.018629
v -0.117281 -0.141621 0.018629
v -0.114737 -0.139839 0.018629
v -0.112541 -0.137643 0.018629
v -0.110760 -0.135099 0.018629
v -0.109447 -0.132284 0.018629
v -0.108643 -0.129284 0.018629
v -0.120096 -0.109447 0.018629
v -0.109447 -0.120096 0.018629
v -0.110760 -0.117281 0.018629
v -0.117281 -0.110760 0.018629
v -0.114737 -0.112541 0.018629
v -0.112541 -0.114737 0.018629
v -0.123096 -0.108643 0.018629
v -0.108643 -0.123096 0.018629
v -0.126190 -0.108373 0.018629
v -0.108373 -0.126190 0.018629
v -0.137564 -0.135734 0.020808
v -0.135734 -0.137564 0.020808
v -0.139049 -0.133614 0.020808
v -0.140812 -0.128768 0.020808
v -0.140143 -0.131268 0.020808
v -0.131268 -0.140143 0.020808
v -0.133614 -0.139049 0.020808
v -0.128768 -0.140812 0.020808
v -0.126190 -0.141038 0.020808
v -0.141038 -0.126190 0.020808
v -0.140812 -0.123612 0.020808
v -0.140143 -0.121112 0.020808
v -0.139049 -0.118766 0.020808
v -0.137564 -0.116646 0.020808
v -0.135734 -0.114816 0.020808
v -0.133614 -0.113332 0.020808
v -0.131268 -0.112238 0.020808
v -0.128768 -0.111568 0.020808
v -0.123612 -0.140812 0.020808
v -0.121112 -0.140143 0.020808
v -0.118766 -0.139049 0.020808
v -0.116646 -0.137564 0.020808
v -0.114816 -0.135734 0.020808
v -0.113332 -0.133614 0.020808
v -0.112238 -0.131268 0.020808
v -0.111568 -0.128768 0.020808
v -0.111342 -0.126190 0.020808
v -0.126190 -0.111342 0.020808
v -0.123612 -0.111568 0.020808
v -0.121112 -0.112238 0.020808
v -0.111568 -0.123612 0.020808
v -0.113332 -0.118766 0.020808
v -0.112238 -0.121112 0.020808
v -0.116646 -0.114816 0.020808
v -0.118766 -0.113332 0.020808
v -0.114816 -0.116646 0.020808
v -0.132162 -0.131201 0.021646
v -0.132941 -0.130088 0.021646
v -0.133515 -0.128856 0.021646
v -0.133867 -0.127544 0.021646
v -0.130088 -0.132941 0.021646
v -0.128856 -0.133515 0.021646
v -0.127544 -0.133867 0.021646
v -0.126190 -0.133985 0.021646
v -0.131201 -0.132162 0.021646
v -0.126190 -0.126190 0.021646
v -0.133985 -0.126190 0.021646
v -0.133867 -0.124837 0.021646
v -0.133515 -0.123524 0.021646
v -0.132941 -0.122293 0.021646
v -0.132162 -0.121180 0.021646
v -0.131201 -0.120219 0.021646
v -0.130088 -0.119439 0.021646
v -0.128856 -0.118865 0.021646
v -0.127544 -0.118513 0.021646
v -0.124837 -0.133867 0.021646
v -0.123524 -0.133515 0.021646
v -0.122293 -0.132941 0.021646
v -0.121180 -0.132162 0.021646
v -0.120219 -0.131201 0.021646
v -0.119439 -0.130088 0.021646
v -0.118865 -0.128856 0.021646
v -0.118513 -0.127544 0.021646
v -0.118395 -0.126190 0.021646
v -0.120219 -0.121180 0.021646
v -0.121180 -0.120219 0.021646
v -0.126190 -0.118395 0.021646
v -0.124837 -0.118513 0.021646
v -0.123524 -0.118865 0.021646
v -0.122293 -0.119439 0.021646
v -0.118513 -0.124837 0.021646
v -0.118865 -0.123524 0.021646
v -0.119439 -0.122293 0.021646
v 0.117350 -0.131294 0.004888
v 0.114617 -0.132872 0.006564
v 0.116598 -0.129681 0.004888
v 0.118370 -0.132752 0.004888
v 0.115953 -0.134780 0.006564
v 0.116137 -0.127963 0.004888
v 0.113030 -0.128511 0.006564
v 0.115982 -0.126190 0.004888
v 0.113633 -0.130761 0.006564
v 0.122699 -0.135782 0.004888
v 0.121620 -0.138747 0.006564
v 0.121086 -0.135030 0.004888
v 0.124418 -0.136243 0.004888
v 0.123870 -0.139350 0.006564
v 0.126190 -0.136398 0.004888
v 0.126190 -0.139553 0.006564
v 0.126190 -0.126190 0.004888
v 0.119629 -0.134010 0.004888
v 0.117601 -0.136427 0.006564
v 0.119509 -0.137763 0.006564
v 0.112827 -0.126190 0.006564
v 0.116137 -0.124418 0.004888
v 0.113030 -0.123870 0.006564
v 0.116598 -0.122699 0.004888
v 0.113633 -0.121620 0.006564
v 0.117350 -0.121086 0.004888
v 0.114617 -0.119509 0.006564
v 0.118370 -0.119629 0.004888
v 0.119629 -0.118370 0.004888
v 0.121086 -0.117350 0.004888
v 0.122699 -0.116598 0.004888
v 0.124418 -0.116137 0.004888
v 0.126190 -0.115982 0.004888
v 0.115953 -0.117601 0.006564
v 0.117601 -0.115953 0.006564
v 0.119509 -0.114617 0.006564
v 0.121620 -0.113633 0.006564
v 0.123870 -0.113030 0.006564
v 0.126190 -0.112827 0.006564
v 0.127963 -0.136243 0.004888
v 0.128511 -0.139350 0.006564
v 0.129681 -0.135782 0.004888
v 0.130761 -0.138747 0.006564
v 0.131294 -0.135030 0.004888
v 0.132872 -0.137763 0.006564
v 0.132752 -0.134010 0.004888
v 0.134010 -0.132752 0.004888
v 0.135030 -0.131294 0.004888
v 0.135782 -0.129681 0.004888
v 0.136243 -0.127963 0.004888
v 0.136398 -0.126190 0.004888
v 0.134780 -0.136427 0.006564
v 0.136427 -0.134780 0.006564
v 0.137763 -0.132872 0.006564
v 0.138747 -0.130761 0.006564
v 0.139350 -0.128511 0.006564
v 0.139553 -0.126190 0.006564
v 0.127963 -0.116137 0.004888
v 0.129681 -0.116598 0.004888
v 0.131294 -0.117350 0.004888
v 0.132752 -0.118370 0.004888
v 0.134010 -0.119629 0.004888
v 0.136243 -0.124418 0.004888
v 0.135782 -0.122699 0.004888
v 0.135030 -0.121086 0.004888
v 0.134780 -0.115953 0.006564
v 0.136427 -0.117601 0.006564
v 0.128511 -0.113030 0.006564
v 0.130761 -0.113633 0.006564
v 0.132872 -0.114617 0.006564
v 0.139350 -0.123870 0.006564
v 0.138747 -0.121620 0.006564
v 0.137763 -0.119509 0.006564
v 0.114976 -0.139555 0.008575
v 0.112826 -0.137404 0.008575
v 0.117467 -0.141299 0.008575
v 0.109796 -0.132157 0.008575
v 0.109009 -0.129220 0.008575
v 0.111081 -0.134913 0.008575
v 0.108744 -0.126190 0.008575
v 0.120223 -0.142584 0.008575
v 0.123161 -0.143371 0.008575
v 0.126190 -0.143636 0.008575
v 0.109009 -0.123161 0.008575
v 0.109796 -0.120223 0.008575
v 0.111081 -0.117467 0.008575
v 0.112826 -0.114976 0.008575
v 0.114976 -0.112826 0.008575
v 0.117467 -0.111081 0.008575
v 0.120223 -0.109796 0.008575
v 0.123161 -0.109009 0.008575
v 0.126190 -0.108744 0.008575
v 0.129220 -0.143371 0.008575
v 0.132157 -0.142584 0.008575
v 0.134913 -0.141299 0.008575
v 0.137404 -0.139555 0.008575
v 0.139555 -0.137404 0.008575
v 0.141299 -0.134913 0.008575
v 0.142584 -0.132157 0.008575
v 0.143371 -0.129220 0.008575
v 0.143636 -0.126190 0.008575
v 0.129220 -0.109009 0.008575
v 0.134913 -0.111081 0.008575
v 0.132157 -0.109796 0.008575
v 0.137404 -0.112826 0.008575
v 0.141299 -0.117467 0.008575
v 0.143371 -0.123161 0.008575
v 0.142584 -0.120223 0.008575
v 0.139555 -0.114976 0.008575
v 0.107912 -0.129413 0.014105
v 0.107630 -0.126190 0.014105
v 0.108750 -0.132538 0.014105
v 0.107912 -0.122967 0.014105
v 0.111973 -0.138120 0.014105
v 0.116910 -0.142263 0.014105
v 0.114260 -0.140408 0.014105
v 0.110117 -0.135470 0.014105
v 0.119842 -0.143631 0.014105
v 0.122967 -0.144468 0.014105
v 0.126190 -0.144750 0.014105
v 0.108750 -0.119842 0.014105
v 0.110117 -0.116910 0.014105
v 0.111973 -0.114260 0.014105
v 0.114260 -0.111973 0.014105
v 0.116910 -0.110117 0.014105
v 0.119842 -0.108750 0.014105
v 0.129413 -0.144468 0.014105
v 0.132538 -0.143631 0.014105
v 0.135470 -0.142263 0.014105
v 0.138120 -0.140408 0.014105
v 0.140408 -0.138120 0.014105
v 0.142263 -0.135470 0.014105
v 0.143631 -0.132538 0.014105
v 0.144468 -0.129413 0.014105
v 0.144750 -0.126190 0.014105
v 0.129413 -0.107912 0.014105
v 0.132538 -0.108750 0.014105
v 0.144468 -0.122967 0.014105
v 0.142263 -0.116910 0.014105
v 0.143631 -0.119842 0.014105
v 0.138120 -0.111973 0.014105
v 0.135470 -0.110117 0.014105
v 0.140408 -0.114260 0.014105
v 0.122967 -0.107912 0.014105
v 0.126190 -0.107630 0.014105
v 0.108643 -0.129284 0.018629
v 0.108373 -0.126190 0.018629
v 0.108643 -0.123096 0.018629
v 0.112541 -0.137643 0.018629
v 0.117281 -0.141621 0.018629
v 0.114737 -0.139839 0.018629
v 0.110760 -0.135099 0.018629
v 0.109447 -0.132284 0.018629
v 0.120096 -0.142933 0.018629
v 0.123096 -0.143737 0.018629
v 0.126190 -0.144008 0.018629
v 0.109447 -0.120096 0.018629
v 0.110760 -0.117281 0.018629
v 0.112541 -0.114737 0.018629
v 0.114737 -0.112541 0.018629
v 0.117281 -0.110760 0.018629
v 0.120096 -0.109447 0.018629
v 0.123096 -0.108643 0.018629
v 0.129284 -0.143737 0.018629
v 0.132284 -0.142933 0.018629
v 0.135099 -0.141621 0.018629
v 0.137643 -0.139839 0.018629
v 0.139839 -0.137643 0.018629
v 0.141621 -0.135099 0.018629
v 0.142933 -0.132284 0.018629
v 0.143737 -0.129284 0.018629
v 0.144008 -0.126190 0.018629
v 0.132284 -0.109447 0.018629
v 0.143737 -0.123096 0.018629
v 0.142933 -0.120096 0.018629
v 0.141621 -0.117281 0.018629
v 0.135099 -0.110760 0.018629
v 0.137643 -0.112541 0.018629
v 0.139839 -0.114737 0.018629
v 0.129284 -0.108643 0.018629
v 0.126190 -0.108373 0.018629
v 0.114816 -0.135734 0.020808
v 0.116646 -0.137564 0.020808
v 0.118766 -0.139049 0.020808
v 0.113332 -0.133614 0.020808
v 0.112238 -0.131268 0.020808
v 0.111568 -0.128768 0.020808
v 0.121112 -0.140143 0.020808
v 0.123612 -0.140812 0.020808
v 0.126190 -0.141038 0.020808
v 0.111342 -0.126190 0.020808
v 0.111568 -0.123612 0.020808
v 0.112238 -0.121112 0.020808
v 0.113332 -0.118766 0.020808
v 0.114816 -0.116646 0.020808
v 0.116646 -0.114816 0.020808
v 0.118766 -0.113332 0.020808
v 0.121112 -0.112238 0.020808
v 0.123612 -0.111568 0.020808
v 0.128768 -0.140812 0.020808
v 0.131268 -0.140143 0.020808
v 0.133614 -0.139049 0.020808
v 0.135734 -0.137564 0.020808
v 0.137564 -0.135734 0.020808
v 0.139049 -0.133614 0.020808
v 0.140143 -0.131268 0.020808
v 0.140812 -0.128768 0.020808
v 0.141038 -0.126190 0.020808
v 0.126190 -0.111342 0.020808
v 0.128768 -0.111568 0.020808
v 0.131268 -0.112238 0.020808
v 0.133614 -0.113332 0.020808
v 0.140812 -0.123612 0.020808
v 0.140143 -0.121112 0.020808
v 0.139049 -0.118766 0.020808
v 0.135734 -0.114816 0.020808
v 0.137564 -0.116646 0.020808
v 0.119439 -0.130088 0.021646
v 0.120219 -0.131201 0.021646
v 0.121180 -0.132162 0.021646
v 0.118865 -0.128856 0.021646
v 0.118513 -0.127544 0.021646
v 0.122293 -0.132941 0.021646
v 0.123524 -0.133515 0.021646
v 0.124837 -0.133867 0.021646
v 0.126190 -0.133985 0.021646
v 0.127544 -0.133867 0.021646
v 0.126190 -0.126190 0.021646
v 0.118395 -0.126190 0.021646
v 0.118513 -0.124837 0.021646
v 0.118865 -0.123524 0.021646
v 0.119439 -0.122293 0.021646
v 0.120219 -0.121180 0.021646
v 0.121180 -0.120219 0.021646
v 0.122293 -0.119439 0.021646
v 0.123524 -0.118865 0.021646
v 0.124837 -0.118513 0.021646
v 0.126190 -0.118395 0.021646
v 0.127544 -0.118513 0.021646
v 0.128856 -0.133515 0.021646
v 0.130088 -0.132941 0.021646
v 0.131201 -0.132162 0.021646
v 0.132162 -0.131201 0.021646
v 0.132941 -0.130088 0.021646
v 0.133515 -0.128856 0.021646
v 0.133867 -0.127544 0.021646
v 0.133985 -0.126190 0.021646
v 0.132162 -0.121180 0.021646
v 0.131201 -0.120219 0.021646
v 0.133515 -0.123524 0.021646
v 0.132941 -0.122293 0.021646
v 0.128856 -0.118865 0.021646
v 0.130088 -0.119439 0.021646
v 0.133867 -0.124837 0.021646
f 1 2 3
f 3 4 5
f 6 7 8
f 5 9 6
f 10 11 12
f 13 14 10
f 15 16 13
f 17 18 15
f 19 12 1
f 19 5 6
f 19 6 8
f 19 1 3
f 19 3 5
f 19 10 12
f 19 13 10
f 19 15 13
f 19 17 15
f 12 20 1
f 4 9 5
f 2 4 3
f 20 2 1
f 9 7 6
f 7 21 8
f 11 20 12
f 14 11 10
f 16 14 13
f 18 16 15
f 8 21 22
f 22 23 24
f 24 25 26
f 26 27 28
f 19 8 22
f 19 22 24
f 19 24 26
f 19 26 28
f 19 28 29
f 19 29 30
f 19 30 31
f 19 31 32
f 19 32 33
f 28 34 29
f 29 35 30
f 30 36 31
f 31 37 32
f 32 38 33
f 21 23 22
f 23 25 24
f 25 27 26
f 27 34 28
f 34 35 29
f 35 36 30
f 36 37 31
f 37 38 32
f 38 39 33
f 40 41 17
f 42 43 40
f 44 45 42
f 46 47 44
f 19 40 17
f 19 42 40
f 19 44 42
f 19 46 44
f 19 48 46
f 19 49 48
f 19 50 49
f 19 51 50
f 19 52 51
f 48 53 46
f 49 54 48
f 50 55 49
f 51 56 50
f 52 57 51
f 41 18 17
f 43 41 40
f 45 43 42
f 47 45 44
f 53 47 46
f 54 53 48
f 55 54 49
f 56 55 50
f 57 56 51
f 19 58 59
f 19 33 60
f 19 60 61
f 19 61 62
f 19 62 58
f 19 63 52
f 19 64 63
f 19 59 65
f 19 65 64
f 62 66 58
f 59 67 65
f 58 68 59
f 33 39 60
f 60 69 61
f 61 70 62
f 63 71 52
f 64 72 63
f 65 73 64
f 68 67 59
f 39 69 60
f 69 70 61
f 70 66 62
f 66 68 58
f 73 72 64
f 71 57 52
f 72 71 63
f 67 73 65
f 2 74 4
f 20 75 2
f 74 76 4
f 75 74 2
f 77 75 20
f 9 78 7
f 7 79 21
f 4 76 9
f 76 78 9
f 78 79 7
f 79 80 21
f 14 81 11
f 11 77 20
f 16 82 14
f 18 83 16
f 81 77 11
f 82 81 14
f 83 82 16
f 21 80 23
f 23 84 25
f 25 85 27
f 27 86 34
f 80 84 23
f 84 85 25
f 85 86 27
f 86 87 34
f 34 87 35
f 35 88 36
f 87 88 35
f 88 89 36
f 36 89 37
f 37 90 38
f 38 91 39
f 89 90 37
f 90 91 38
f 91 92 39
f 41 93 18
f 43 94 41
f 45 95 43
f 47 96 45
f 93 83 18
f 94 93 41
f 95 94 43
f 96 95 45
f 53 97 47
f 97 96 47
f 98 97 53
f 54 98 53
f 55 99 54
f 56 100 55
f 57 101 56
f 99 98 54
f 100 99 55
f 101 100 56
f 39 92 69
f 69 102 70
f 70 103 66
f 66 104 68
f 92 102 69
f 102 103 70
f 104 105 68
f 103 104 66
f 67 106 73
f 73 107 72
f 71 108 57
f 72 109 71
f 106 107 73
f 108 101 57
f 109 108 71
f 107 109 72
f 68 105 67
f 105 106 67
f 79 110 80
f 80 111 84
f 112 110 79
f 110 111 80
f 111 113 84
f 83 114 82
f 93 115 83
f 114 116 82
f 115 114 83
f 117 115 93
f 74 118 76
f 77 119 75
f 75 120 74
f 76 121 78
f 78 112 79
f 81 122 77
f 82 116 81
f 84 113 85
f 85 123 86
f 86 124 87
f 87 125 88
f 88 126 89
f 89 127 90
f 90 128 91
f 91 129 92
f 94 117 93
f 95 130 94
f 96 131 95
f 97 132 96
f 98 133 97
f 99 134 98
f 100 135 99
f 101 136 100
f 92 137 102
f 102 138 103
f 103 139 104
f 108 140 101
f 107 141 109
f 109 142 108
f 105 143 106
f 104 144 105
f 106 145 107
f 120 118 74
f 118 121 76
f 119 120 75
f 121 112 78
f 122 119 77
f 116 122 81
f 113 123 85
f 123 124 86
f 124 125 87
f 125 126 88
f 126 127 89
f 127 128 90
f 128 129 91
f 129 137 92
f 130 117 94
f 131 130 95
f 132 131 96
f 133 132 97
f 134 133 98
f 135 134 99
f 136 135 100
f 137 138 102
f 138 139 103
f 139 144 104
f 140 136 101
f 142 140 108
f 141 142 109
f 143 145 106
f 144 143 105
f 145 141 107
f 110 146 111
f 146 147 111
f 111 147 113
f 113 148 123
f 147 148 113
f 116 149 122
f 114 150 116
f 150 149 116
f 115 151 114
f 151 150 114
f 118 152 121
f 120 153 118
f 119 154 120
f 121 155 112
f 112 156 110
f 122 157 119
f 153 152 118
f 152 155 121
f 154 153 120
f 155 156 112
f 156 146 110
f 157 154 119
f 149 157 122
f 123 158 124
f 124 159 125
f 125 160 126
f 126 161 127
f 127 162 128
f 128 163 129
f 129 164 137
f 148 158 123
f 158 159 124
f 159 160 125
f 160 161 126
f 161 162 127
f 162 163 128
f 163 164 129
f 164 165 137
f 117 166 115
f 130 167 117
f 131 168 130
f 132 169 131
f 133 170 132
f 134 171 133
f 135 172 134
f 136 173 135
f 166 151 115
f 167 166 117
f 168 167 130
f 169 168 131
f 170 169 132
f 171 170 133
f 172 171 134
f 173 172 135
f 137 165 138
f 138 174 139
f 139 175 144
f 140 176 136
f 142 177 140
f 141 178 142
f 143 179 145
f 144 180 143
f 145 181 141
f 165 174 138
f 174 175 139
f 175 180 144
f 176 173 136
f 177 176 140
f 178 177 142
f 179 181 145
f 180 179 143
f 181 178 141
f 152 182 155
f 154 183 153
f 153 184 152
f 156 185 146
f 155 186 156
f 146 187 147
f 157 188 154
f 149 189 157
f 150 190 149
f 147 191 148
f 148 192 158
f 158 193 159
f 159 194 160
f 160 195 161
f 161 196 162
f 162 197 163
f 163 198 164
f 164 199 165
f 151 200 150
f 166 201 151
f 167 202 166
f 168 203 167
f 169 204 168
f 170 205 169
f 171 206 170
f 172 207 171
f 173 208 172
f 165 209 174
f 174 210 175
f 180 211 179
f 175 212 180
f 177 213 176
f 176 214 173
f 178 215 177
f 179 216 181
f 181 217 178
f 182 186 155
f 184 182 152
f 183 184 153
f 186 185 156
f 185 187 146
f 187 191 147
f 188 183 154
f 189 188 157
f 190 189 149
f 184 218 182
f 186 219 185
f 182 220 186
f 185 221 187
f 187 222 191
f 221 222 187
f 219 221 185
f 222 223 191
f 183 224 184
f 188 225 183
f 189 226 188
f 190 227 189
f 225 224 183
f 226 225 188
f 227 226 189
f 228 227 190
f 218 220 182
f 220 219 186
f 224 218 184
f 229 219 220
f 229 221 219
f 229 222 221
f 229 223 222
f 229 230 223
f 229 218 224
f 229 224 225
f 229 225 226
f 229 226 227
f 229 227 228
f 229 220 218
f 191 192 148
f 192 193 158
f 193 194 159
f 194 195 160
f 195 196 161
f 196 197 162
f 197 198 163
f 198 199 164
f 199 209 165
f 191 223 192
f 192 230 193
f 193 231 194
f 194 232 195
f 195 233 196
f 223 230 192
f 230 231 193
f 231 232 194
f 229 231 230
f 229 232 231
f 229 233 232
f 232 233 195
f 233 234 196
f 234 235 197
f 229 234 233
f 229 235 234
f 229 236 235
f 235 236 198
f 229 237 236
f 229 238 237
f 229 239 238
f 196 234 197
f 197 235 198
f 198 236 199
f 199 237 209
f 236 237 199
f 237 238 209
f 200 190 150
f 201 200 151
f 202 201 166
f 203 202 167
f 204 203 168
f 205 204 169
f 206 205 170
f 207 206 171
f 208 207 172
f 200 228 190
f 201 240 200
f 202 241 201
f 203 242 202
f 204 243 203
f 240 228 200
f 241 240 201
f 229 228 240
f 229 240 241
f 229 241 242
f 229 242 243
f 229 243 244
f 229 244 245
f 242 241 202
f 243 242 203
f 244 243 204
f 245 244 205
f 229 245 246
f 229 246 247
f 229 247 248
f 205 244 204
f 206 245 205
f 207 246 206
f 208 247 207
f 246 245 206
f 247 246 207
f 248 247 208
f 209 210 174
f 210 212 175
f 211 216 179
f 212 211 180
f 217 215 178
f 214 208 173
f 213 214 176
f 215 213 177
f 216 217 181
f 216 249 217
f 229 250 251
f 229 252 253
f 229 254 249
f 229 249 250
f 229 253 254
f 251 250 211
f 229 251 239
f 253 252 213
f 229 248 252
f 250 249 216
f 249 254 217
f 254 253 215
f 209 238 210
f 210 239 212
f 212 251 211
f 211 250 216
f 238 239 210
f 239 251 212
f 214 248 208
f 213 252 214
f 215 253 213
f 217 254 215
f 252 248 214
f 255 256 257
f 257 258 259
f 259 260 261
f 262 263 264
f 265 266 262
f 267 268 265
f 269 270 267
f 271 255 257
f 271 272 255
f 271 257 259
f 271 259 261
f 271 262 264
f 271 264 272
f 271 265 262
f 271 267 265
f 271 269 267
f 272 273 255
f 264 274 272
f 273 256 255
f 256 258 257
f 258 260 259
f 260 275 261
f 263 274 264
f 266 263 262
f 268 266 265
f 270 268 267
f 274 273 272
f 261 275 276
f 276 277 278
f 278 279 280
f 271 261 276
f 271 276 278
f 271 278 280
f 271 280 281
f 271 281 282
f 271 282 283
f 271 283 284
f 271 284 285
f 271 285 286
f 280 287 281
f 281 288 282
f 282 289 283
f 283 290 284
f 284 291 285
f 285 292 286
f 275 277 276
f 277 279 278
f 279 287 280
f 287 288 281
f 288 289 282
f 289 290 283
f 290 291 284
f 291 292 285
f 292 293 286
f 294 295 269
f 296 297 294
f 298 299 296
f 300 301 298
f 271 294 269
f 271 296 294
f 271 298 296
f 271 300 298
f 271 302 300
f 271 303 302
f 271 304 303
f 271 305 304
f 271 306 305
f 302 307 300
f 303 308 302
f 304 309 303
f 305 310 304
f 306 311 305
f 295 270 269
f 297 295 294
f 299 297 296
f 301 299 298
f 307 301 300
f 308 307 302
f 309 308 303
f 310 309 304
f 311 310 305
f 271 286 312
f 271 312 313
f 271 313 314
f 271 314 315
f 271 315 316
f 271 317 318
f 271 316 317
f 271 319 306
f 271 318 319
f 314 320 315
f 315 321 316
f 286 293 312
f 312 322 313
f 313 323 314
f 318 324 319
f 319 325 306
f 316 326 317
f 317 327 318
f 293 322 312
f 322 323 313
f 323 320 314
f 320 321 315
f 325 311 306
f 324 325 319
f 327 324 318
f 326 327 317
f 321 326 316
f 273 328 256
f 274 329 273
f 328 330 256
f 329 328 273
f 258 331 260
f 260 332 275
f 256 330 258
f 330 331 258
f 331 332 260
f 332 333 275
f 266 334 263
f 263 335 274
f 268 336 266
f 270 337 268
f 334 335 263
f 335 329 274
f 336 334 266
f 337 336 268
f 275 333 277
f 277 338 279
f 279 339 287
f 287 340 288
f 333 338 277
f 338 339 279
f 339 340 287
f 340 341 288
f 288 341 289
f 341 342 289
f 289 342 290
f 290 343 291
f 291 344 292
f 292 345 293
f 342 343 290
f 343 344 291
f 344 345 292
f 345 346 293
f 295 347 270
f 297 348 295
f 299 349 297
f 347 337 270
f 348 347 295
f 349 348 297
f 301 350 299
f 307 351 301
f 350 349 299
f 351 350 301
f 352 351 307
f 308 352 307
f 309 353 308
f 310 354 309
f 311 355 310
f 353 352 308
f 354 353 309
f 355 354 310
f 293 346 322
f 322 356 323
f 323 357 320
f 320 358 321
f 346 356 322
f 356 357 323
f 357 358 320
f 327 359 324
f 326 360 327
f 325 361 311
f 324 362 325
f 361 355 311
f 362 361 325
f 359 362 324
f 360 359 327
f 321 363 326
f 358 363 321
f 363 360 326
f 337 364 336
f 347 365 337
f 364 366 336
f 365 364 337
f 367 365 347
f 328 368 330
f 335 369 329
f 329 370 328
f 331 371 332
f 330 372 331
f 332 373 333
f 334 374 335
f 336 366 334
f 333 375 338
f 338 376 339
f 339 377 340
f 340 378 341
f 341 379 342
f 342 380 343
f 343 381 344
f 344 382 345
f 345 383 346
f 348 367 347
f 349 384 348
f 350 385 349
f 351 386 350
f 352 387 351
f 353 388 352
f 354 389 353
f 346 390 356
f 356 391 357
f 357 392 358
f 362 393 361
f 359 394 362
f 363 395 360
f 358 396 363
f 360 397 359
f 368 372 330
f 369 370 329
f 370 368 328
f 372 371 331
f 371 373 332
f 373 375 333
f 374 369 335
f 366 374 334
f 375 376 338
f 376 377 339
f 377 378 340
f 378 379 341
f 379 380 342
f 380 381 343
f 381 382 344
f 382 383 345
f 383 390 346
f 384 367 348
f 385 384 349
f 386 385 350
f 387 386 351
f 388 387 352
f 389 388 353
f 390 391 356
f 391 392 357
f 392 396 358
f 394 393 362
f 396 395 363
f 397 394 359
f 395 397 360
f 355 398 354
f 361 399 355
f 398 389 354
f 399 398 355
f 393 399 361
f 366 400 374
f 364 401 366
f 401 400 366
f 365 402 364
f 402 401 364
f 368 403 372
f 370 404 368
f 369 405 370
f 372 406 371
f 371 407 373
f 373 408 375
f 374 409 369
f 403 406 372
f 405 404 370
f 404 403 368
f 406 407 371
f 407 408 373
f 408 410 375
f 409 405 369
f 400 409 374
f 375 410 376
f 376 411 377
f 377 412 378
f 378 413 379
f 379 414 380
f 380 415 381
f 381 416 382
f 382 417 383
f 383 418 390
f 410 411 376
f 411 412 377
f 412 413 378
f 413 414 379
f 414 415 380
f 415 416 381
f 416 417 382
f 417 418 383
f 418 419 390
f 367 420 365
f 384 421 367
f 385 422 384
f 386 423 385
f 387 424 386
f 388 425 387
f 420 402 365
f 421 420 367
f 422 421 384
f 423 422 385
f 424 423 386
f 425 424 387
f 426 425 388
f 390 419 391
f 391 427 392
f 392 428 396
f 393 429 399
f 394 430 393
f 395 431 397
f 396 432 395
f 397 433 394
f 419 427 391
f 427 428 392
f 428 432 396
f 429 434 399
f 430 429 393
f 432 431 395
f 433 430 394
f 431 433 397
f 389 426 388
f 398 435 389
f 435 426 389
f 399 434 398
f 434 435 398
f 403 436 406
f 404 437 403
f 406 438 407
f 407 439 408
f 408 440 410
f 405 441 404
f 409 442 405
f 400 443 409
f 401 444 400
f 410 445 411
f 411 446 412
f 412 447 413
f 413 448 414
f 414 449 415
f 415 450 416
f 416 451 417
f 417 452 418
f 418 453 419
f 402 454 401
f 420 455 402
f 421 456 420
f 422 457 421
f 423 458 422
f 424 459 423
f 425 460 424
f 426 461 425
f 435 462 426
f 419 463 427
f 427 464 428
f 428 465 432
f 434 466 435
f 429 467 434
f 430 468 429
f 432 469 431
f 431 470 433
f 433 471 430
f 436 438 406
f 437 436 403
f 438 439 407
f 439 440 408
f 440 445 410
f 442 441 405
f 441 437 404
f 443 442 409
f 444 443 400
f 436 472 438
f 438 473 439
f 439 474 440
f 440 475 445
f 474 475 440
f 475 476 445
f 437 477 436
f 442 478 441
f 441 479 437
f 443 480 442
f 444 481 443
f 478 479 441
f 480 478 442
f 481 480 443
f 477 472 436
f 472 473 438
f 479 477 437
f 473 474 439
f 482 475 474
f 482 476 475
f 482 483 476
f 482 477 479
f 482 479 478
f 482 478 480
f 482 473 472
f 482 474 473
f 482 472 477
f 445 446 411
f 446 447 412
f 447 448 413
f 448 449 414
f 449 450 415
f 450 451 416
f 451 452 417
f 452 453 418
f 453 463 419
f 445 476 446
f 446 483 447
f 447 484 448
f 448 485 449
f 476 483 446
f 483 484 447
f 449 486 450
f 484 485 448
f 482 484 483
f 485 486 449
f 486 487 450
f 487 488 451
f 482 485 484
f 482 486 485
f 482 487 486
f 482 488 487
f 482 489 488
f 488 489 452
f 482 490 489
f 450 487 451
f 451 488 452
f 452 489 453
f 453 490 463
f 489 490 453
f 454 444 401
f 455 454 402
f 456 455 420
f 457 456 421
f 458 457 422
f 459 458 423
f 460 459 424
f 461 460 425
f 462 461 426
f 454 491 444
f 455 492 454
f 456 493 455
f 457 494 456
f 491 481 444
f 492 491 454
f 493 492 455
f 482 480 481
f 482 481 491
f 482 491 492
f 482 492 493
f 482 493 494
f 482 494 495
f 494 493 456
f 495 494 457
f 496 495 458
f 482 495 496
f 482 496 497
f 482 497 498
f 482 498 499
f 482 499 500
f 458 495 457
f 459 496 458
f 460 497 459
f 461 498 460
f 462 499 461
f 497 496 459
f 498 497 460
f 499 498 461
f 500 499 462
f 463 464 427
f 464 465 428
f 465 469 432
f 466 462 435
f 467 466 434
f 468 467 429
f 471 468 430
f 469 470 431
f 470 471 433
f 482 501 502
f 482 503 504
f 482 504 501
f 482 505 490
f 482 506 505
f 482 502 506
f 482 500 507
f 482 507 508
f 482 508 503
f 502 501 469
f 501 504 470
f 503 508 468
f 504 503 471
f 463 505 464
f 464 506 465
f 465 502 469
f 469 501 470
f 490 505 463
f 505 506 464
f 506 502 465
f 466 500 462
f 467 507 466
f 470 504 471
f 471 503 468
f 468 508 467
f 507 500 466
f 508 507 467
f 509 510 511
f 511 512 513
f 513 514 515
f 516 517 518
f 519 520 516
f 521 522 519
f 523 509 511
f 523 524 509
f 523 511 513
f 523 513 515
f 523 518 525
f 523 516 518
f 523 519 516
f 523 521 519
f 523 525 524
f 525 526 524
f 524 527 509
f 518 528 525
f 527 510 509
f 512 514 513
f 514 529 515
f 510 512 511
f 528 526 525
f 517 528 518
f 520 517 516
f 522 520 519
f 526 527 524
f 515 529 530
f 530 531 532
f 532 533 534
f 523 515 530
f 523 530 532
f 523 532 534
f 523 534 535
f 523 535 536
f 523 536 537
f 523 537 538
f 523 538 539
f 523 539 540
f 534 541 535
f 535 542 536
f 536 543 537
f 537 544 538
f 538 545 539
f 539 546 540
f 529 531 530
f 531 533 532
f 533 541 534
f 541 542 535
f 542 543 536
f 543 544 537
f 544 545 538
f 545 546 539
f 546 547 540
f 548 549 521
f 550 551 548
f 552 553 550
f 523 548 521
f 523 550 548
f 523 552 550
f 523 554 552
f 523 555 554
f 523 556 555
f 523 557 556
f 523 558 557
f 523 559 558
f 554 560 552
f 555 561 554
f 556 562 555
f 557 563 556
f 558 564 557
f 559 565 558
f 549 522 521
f 551 549 548
f 553 551 550
f 560 553 552
f 561 560 554
f 562 561 555
f 563 562 556
f 564 563 557
f 565 564 558
f 523 540 566
f 523 566 567
f 523 567 568
f 523 568 569
f 523 570 571
f 523 572 570
f 523 573 559
f 523 571 573
f 523 569 572
f 569 574 572
f 540 547 566
f 566 575 567
f 567 576 568
f 568 577 569
f 571 578 573
f 573 579 559
f 570 580 571
f 572 581 570
f 547 575 566
f 575 576 567
f 576 577 568
f 577 574 569
f 579 565 559
f 578 579 573
f 574 581 572
f 581 580 570
f 580 578 571
f 526 582 527
f 582 583 527
f 512 584 514
f 514 585 529
f 510 586 512
f 527 583 510
f 586 584 512
f 584 585 514
f 585 587 529
f 583 586 510
f 528 588 526
f 517 589 528
f 520 590 517
f 522 591 520
f 589 588 528
f 588 582 526
f 590 589 517
f 591 590 520
f 529 587 531
f 531 592 533
f 533 593 541
f 541 594 542
f 587 592 531
f 592 593 533
f 593 594 541
f 542 595 543
f 594 595 542
f 595 596 543
f 543 596 544
f 544 597 545
f 545 598 546
f 546 599 547
f 596 597 544
f 597 598 545
f 598 599 546
f 599 600 547
f 549 601 522
f 551 602 549
f 553 603 551
f 601 591 522
f 602 601 549
f 603 602 551
f 560 604 553
f 561 605 560
f 604 603 553
f 605 604 560
f 562 606 561
f 563 607 562
f 564 608 563
f 565 609 564
f 606 605 561
f 607 606 562
f 608 607 563
f 609 608 564
f 547 600 575
f 575 610 576
f 577 611 574
f 576 612 577
f 600 610 575
f 610 612 576
f 612 611 577
f 580 613 578
f 579 614 565
f 578 615 579
f 614 609 565
f 615 614 579
f 613 615 578
f 574 616 581
f 581 617 580
f 611 616 574
f 616 617 581
f 617 613 580
f 583 618 586
f 588 619 582
f 582 620 583
f 584 621 585
f 586 622 584
f 585 623 587
f 589 624 588
f 590 625 589
f 591 626 590
f 587 627 592
f 592 628 593
f 593 629 594
f 594 630 595
f 595 631 596
f 596 632 597
f 597 633 598
f 598 634 599
f 601 635 591
f 602 636 601
f 603 637 602
f 604 638 603
f 605 639 604
f 606 640 605
f 607 641 606
f 608 642 607
f 610 643 612
f 612 644 611
f 615 645 614
f 613 646 615
f 616 647 617
f 611 648 616
f 617 649 613
f 618 622 586
f 619 620 582
f 620 618 583
f 622 621 584
f 621 623 585
f 623 627 587
f 624 619 588
f 625 624 589
f 626 625 590
f 627 628 592
f 628 629 593
f 629 630 594
f 630 631 595
f 631 632 596
f 632 633 597
f 633 634 598
f 635 626 591
f 636 635 601
f 637 636 602
f 638 637 603
f 639 638 604
f 640 639 605
f 641 640 606
f 642 641 607
f 643 644 612
f 644 648 611
f 646 645 615
f 648 647 616
f 649 646 613
f 647 649 617
f 599 650 600
f 600 651 610
f 634 650 599
f 650 651 600
f 651 643 610
f 609 652 608
f 614 653 609
f 652 642 608
f 653 652 609
f 645 653 614
f 618 654 622
f 619 655 620
f 620 656 618
f 622 657 621
f 621 658 623
f 623 659 627
f 624 660 619
f 625 661 624
f 626 662 625
f 654 657 622
f 655 656 620
f 656 654 618
f 657 658 621
f 658 659 623
f 659 663 627
f 660 655 619
f 661 660 624
f 662 661 625
f 627 663 628
f 628 664 629
f 629 665 630
f 630 666 631
f 631 667 632
f 632 668 633
f 633 669 634
f 634 670 650
f 663 664 628
f 664 665 629
f 665 666 630
f 666 667 631
f 667 668 632
f 668 669 633
f 669 670 634
f 670 671 650
f 635 672 626
f 636 673 635
f 637 674 636
f 638 675 637
f 639 676 638
f 640 677 639
f 641 678 640
f 672 662 626
f 673 672 635
f 674 673 636
f 675 674 637
f 676 675 638
f 677 676 639
f 678 677 640
f 679 678 641
f 644 680 648
f 645 681 653
f 646 682 645
f 648 683 647
f 647 684 649
f 649 685 646
f 686 680 644
f 680 683 648
f 681 687 653
f 682 681 645
f 683 684 647
f 685 682 646
f 684 685 649
f 650 671 651
f 671 688 651
f 651 688 643
f 643 686 644
f 688 686 643
f 642 679 641
f 652 689 642
f 689 679 642
f 653 687 652
f 687 689 652
f 654 690 657
f 656 691 654
f 657 692 658
f 659 693 663
f 658 694 659
f 660 695 655
f 655 696 656
f 661 697 660
f 662 698 661
f 663 699 664
f 664 700 665
f 665 701 666
f 666 702 667
f 667 703 668
f 668 704 669
f 669 705 670
f 670 706 671
f 671 707 688
f 672 708 662
f 673 709 672
f 674 710 673
f 675 711 674
f 676 712 675
f 677 713 676
f 678 714 677
f 679 715 678
f 689 716 679
f 688 717 686
f 686 718 680
f 680 719 683
f 687 720 689
f 682 721 681
f 681 722 687
f 684 723 685
f 683 724 684
f 685 725 682
f 691 690 654
f 692 694 658
f 694 693 659
f 693 699 663
f 690 692 657
f 695 696 655
f 696 691 656
f 697 695 660
f 698 697 661
f 690 726 692
f 692 727 694
f 694 728 693
f 693 729 699
f 728 729 693
f 696 730 691
f 695 731 696
f 697 732 695
f 698 733 697
f 732 731 695
f 733 732 697
f 691 734 690
f 726 727 692
f 734 726 690
f 730 734 691
f 727 728 694
f 735 729 728
f 731 730 696
f 735 731 732
f 735 727 726
f 735 734 730
f 735 726 734
f 735 728 727
f 735 730 731
f 699 700 664
f 700 701 665
f 701 702 666
f 702 703 667
f 703 704 668
f 704 705 669
f 705 706 670
f 706 707 671
f 707 717 688
f 699 736 700
f 700 737 701
f 701 738 702
f 702 739 703
f 729 736 699
f 736 737 700
f 737 738 701
f 735 736 729
f 735 737 736
f 735 738 737
f 738 739 702
f 739 740 703
f 740 741 704
f 741 742 705
f 735 739 738
f 735 740 739
f 735 741 740
f 735 742 741
f 735 743 742
f 735 744 743
f 703 740 704
f 704 741 705
f 705 742 706
f 706 743 707
f 707 744 717
f 742 743 706
f 743 744 707
f 708 698 662
f 709 708 672
f 710 709 673
f 711 710 674
f 712 711 675
f 713 712 676
f 714 713 677
f 715 714 678
f 716 715 679
f 708 745 698
f 709 746 708
f 710 747 709
f 711 748 710
f 745 733 698
f 746 745 708
f 747 746 709
f 735 732 733
f 735 733 745
f 735 745 746
f 735 746 747
f 735 747 748
f 735 748 749
f 748 747 710
f 749 748 711
f 750 749 712
f 735 749 750
f 735 750 751
f 735 751 752
f 712 749 711
f 713 750 712
f 714 751 713
f 715 752 714
f 716 753 715
f 751 750 713
f 752 751 714
f 753 752 715
f 717 718 686
f 718 719 680
f 719 724 683
f 720 716 689
f 722 720 687
f 721 722 681
f 724 723 684
f 723 725 685
f 725 721 682
f 735 754 755
f 735 756 744
f 735 757 756
f 735 758 757
f 735 759 758
f 735 755 759
f 735 752 753
f 735 753 760
f 735 760 761
f 735 761 762
f 735 762 754
f 759 755 723
f 754 762 721
f 755 754 725
f 717 756 718
f 718 757 719
f 719 758 724
f 724 759 723
f 744 756 717
f 756 757 718
f 757 758 719
f 758 759 724
f 720 760 716
f 722 761 720
f 725 754 721
f 721 762 722
f 760 753 716
f 762 761 722
f 761 760 720
f 723 755 725
f 763 764 765
f 766 767 763
f 768 769 770
f 765 771 768
f 772 773 774
f 775 776 772
f 777 778 775
f 779 765 768
f 779 768 770
f 779 766 763
f 779 763 765
f 779 780 766
f 779 774 780
f 779 772 774
f 779 775 772
f 779 777 775
f 780 781 766
f 774 782 780
f 781 767 766
f 767 764 763
f 764 771 765
f 771 769 768
f 769 783 770
f 782 781 780
f 773 782 774
f 776 773 772
f 778 776 775
f 770 783 784
f 784 785 786
f 786 787 788
f 788 789 790
f 779 770 784
f 779 784 786
f 779 786 788
f 779 788 790
f 779 790 791
f 779 791 792
f 779 792 793
f 779 793 794
f 779 794 795
f 790 796 791
f 791 797 792
f 792 798 793
f 793 799 794
f 794 800 795
f 783 785 784
f 785 787 786
f 787 789 788
f 789 796 790
f 796 797 791
f 797 798 792
f 798 799 793
f 799 800 794
f 800 801 795
f 802 803 777
f 804 805 802
f 806 807 804
f 779 802 777
f 779 804 802
f 779 806 804
f 779 808 806
f 779 809 808
f 779 810 809
f 779 811 810
f 779 812 811
f 779 813 812
f 808 814 806
f 809 815 808
f 810 816 809
f 811 817 810
f 812 818 811
f 813 819 812
f 803 778 777
f 805 803 802
f 807 805 804
f 814 807 806
f 815 814 808
f 816 815 809
f 817 816 810
f 818 817 811
f 819 818 812
f 779 795 820
f 779 820 821
f 779 821 822
f 779 823 824
f 779 822 823
f 779 825 813
f 779 826 825
f 779 824 827
f 779 827 826
f 823 828 824
f 824 829 827
f 795 801 820
f 820 830 821
f 821 831 822
f 822 832 823
f 825 833 813
f 826 834 825
f 827 835 826
f 828 829 824
f 801 830 820
f 830 831 821
f 831 832 822
f 832 828 823
f 833 819 813
f 834 833 825
f 835 834 826
f 829 835 827
f 781 836 767
f 836 837 767
f 838 836 781
f 771 839 769
f 769 840 783
f 767 837 764
f 764 841 771
f 837 841 764
f 841 839 771
f 839 840 769
f 840 842 783
f 782 838 781
f 773 843 782
f 776 844 773
f 778 845 776
f 843 838 782
f 844 843 773
f 845 844 776
f 783 842 785
f 785 846 787
f 787 847 789
f 789 848 796
f 842 846 785
f 846 847 787
f 847 848 789
f 796 849 797
f 797 850 798
f 848 849 796
f 849 850 797
f 850 851 798
f 798 851 799
f 799 852 800
f 800 853 801
f 851 852 799
f 852 853 800
f 853 854 801
f 803 855 778
f 805 856 803
f 807 857 805
f 814 858 807
f 855 845 778
f 856 855 803
f 857 856 805
f 858 857 807
f 815 859 814
f 859 858 814
f 816 860 815
f 817 861 816
f 818 862 817
f 819 863 818
f 860 859 815
f 861 860 816
f 862 861 817
f 863 862 818
f 801 854 830
f 830 864 831
f 832 865 828
f 831 866 832
f 854 864 830
f 864 866 831
f 865 867 828
f 866 865 832
f 835 868 834
f 833 869 819
f 834 870 833
f 869 863 819
f 870 869 833
f 868 870 834
f 828 867 829
f 829 871 835
f 867 871 829
f 871 868 835
f 840 872 842
f 842 873 846
f 874 872 840
f 872 873 842
f 873 875 846
f 837 876 841
f 838 877 836
f 836 878 837
f 841 879 839
f 839 874 840
f 843 880 838
f 844 881 843
f 845 882 844
f 846 875 847
f 847 883 848
f 848 884 849
f 849 885 850
f 850 886 851
f 851 887 852
f 852 888 853
f 855 889 845
f 856 890 855
f 857 891 856
f 858 892 857
f 859 893 858
f 860 894 859
f 861 895 860
f 862 896 861
f 863 897 862
f 864 898 866
f 866 899 865
f 869 900 863
f 868 901 870
f 870 902 869
f 867 903 871
f 865 904 867
f 871 905 868
f 878 876 837
f 876 879 841
f 877 878 836
f 879 874 839
f 880 877 838
f 881 880 843
f 882 881 844
f 875 883 847
f 883 884 848
f 884 885 849
f 885 886 850
f 886 887 851
f 887 888 852
f 889 882 845
f 890 889 855
f 891 890 856
f 892 891 857
f 893 892 858
f 894 893 859
f 895 894 860
f 896 895 861
f 897 896 862
f 898 899 866
f 899 904 865
f 900 897 863
f 902 900 869
f 901 902 870
f 903 905 871
f 904 903 867
f 905 901 868
f 853 906 854
f 854 907 864
f 888 906 853
f 906 907 854
f 907 898 864
f 872 908 873
f 908 909 873
f 873 909 875
f 875 910 883
f 909 910 875
f 876 911 879
f 877 912 878
f 878 913 876
f 879 914 874
f 874 915 872
f 880 916 877
f 881 917 880
f 882 918 881
f 913 911 876
f 911 914 879
f 912 913 878
f 914 915 874
f 915 908 872
f 916 912 877
f 917 916 880
f 918 917 881
f 883 919 884
f 884 920 885
f 885 921 886
f 886 922 887
f 887 923 888
f 888 924 906
f 910 919 883
f 919 920 884
f 920 921 885
f 921 922 886
f 922 923 887
f 923 924 888
f 924 925 906
f 889 926 882
f 890 927 889
f 891 928 890
f 892 929 891
f 893 930 892
f 894 931 893
f 895 932 894
f 896 933 895
f 897 934 896
f 926 918 882
f 927 926 889
f 928 927 890
f 929 928 891
f 930 929 892
f 931 930 893
f 932 931 894
f 933 932 895
f 934 933 896
f 899 935 904
f 900 936 897
f 902 937 900
f 901 938 902
f 904 939 903
f 903 940 905
f 905 941 901
f 942 935 899
f 935 939 904
f 936 934 897
f 937 936 900
f 938 937 902
f 940 941 905
f 939 940 903
f 941 938 901
f 906 925 907
f 925 943 907
f 907 943 898
f 898 942 899
f 943 942 898
f 911 944 914
f 913 945 911
f 912 946 913
f 914 947 915
f 915 948 908
f 908 949 909
f 916 950 912
f 917 951 916
f 918 952 917
f 909 953 910
f 910 954 919
f 919 955 920
f 920 956 921
f 921 957 922
f 922 958 923
f 923 959 924
f 924 960 925
f 925 961 943
f 926 962 918
f 927 963 926
f 928 964 927
f 929 965 928
f 930 966 929
f 931 967 930
f 932 968 931
f 933 969 932
f 934 970 933
f 943 971 942
f 942 972 935
f 935 973 939
f 939 974 940
f 936 975 934
f 937 976 936
f 938 977 937
f 940 978 941
f 941 979 938
f 945 944 911
f 946 945 913
f 944 947 914
f 947 948 915
f 948 949 908
f 949 953 909
f 950 946 912
f 951 950 916
f 952 951 917
f 947 980 948
f 944 981 947
f 945 982 944
f 948 983 949
f 949 984 953
f 980 983 948
f 983 984 949
f 946 985 945
f 950 986 946
f 951 987 950
f 952 988 951
f 987 986 950
f 988 987 951
f 989 988 952
f 982 981 944
f 981 980 947
f 985 982 945
f 986 985 946
f 990 980 981
f 990 983 980
f 990 984 983
f 990 986 987
f 990 987 988
f 990 988 989
f 990 982 985
f 990 981 982
f 990 985 986
f 953 954 910
f 954 955 919
f 955 956 920
f 956 957 921
f 957 958 922
f 958 959 923
f 959 960 924
f 960 961 925
f 961 971 943
f 953 991 954
f 954 992 955
f 955 993 956
f 956 994 957
f 984 991 953
f 991 992 954
f 992 993 955
f 993 994 956
f 957 995 958
f 990 991 984
f 990 992 991
f 990 993 992
f 990 994 993
f 990 995 994
f 994 995 957
f 995 996 958
f 996 997 959
f 990 996 995
f 990 997 996
f 990 998 997
f 990 999 998
f 990 1000 999
f 990 1001 1000
f 958 996 959
f 959 997 960
f 960 998 961
f 961 999 971
f 997 998 960
f 998 999 961
f 999 1000 971
f 962 952 918
f 963 962 926
f 964 963 927
f 965 964 928
f 966 965 929
f 967 966 930
f 968 967 931
f 969 968 932
f 970 969 933
f 962 989 952
f 963 1002 962
f 964 1003 963
f 965 1004 964
f 1002 989 962
f 966 1005 965
f 1003 1002 963
f 990 989 1002
f 990 1002 1003
f 990 1003 1004
f 990 1004 1005
f 990 1005 1006
f 990 1006 1007
f 1004 1003 964
f 1005 1004 965
f 1006 1005 966
f 1007 1006 967
f 990 1007 1008
f 967 1006 966
f 968 1007 967
f 969 1008 968
f 970 1009 969
f 1008 1007 968
f 1009 1008 969
f 971 972 942
f 972 973 935
f 974 978 940
f 973 974 939
f 975 970 934
f 976 975 936
f 977 976 937
f 978 979 941
f 979 977 938
f 990 1010 1011
f 990 1012 1013
f 990 1013 1010
f 990 1014 1001
f 990 1015 1014
f 990 1011 1015
f 1013 1012 976
f 990 1008 1009
f 990 1009 1016
f 990 1016 1012
f 1015 1011 978
f 1010 1013 977
f 1011 1010 979
f 971 1000 972
f 972 1001 973
f 974 1015 978
f 973 1014 974
f 978 1011 979
f 1000 1001 972
f 1001 1014 973
f 1014 1015 974
f 975 1016 970
f 976 1012 975
f 977 1013 976
f 979 1010 977
f 1016 1009 970
f 1012 1016 975
