# mavic4pro decimated ratio=0.1
v -0.134434 -0.172097 -0.001374
v -0.098904 -0.021000 -0.037327
v -0.095161 0.009635 -0.038779
v -0.100004 -0.044985 -0.006063
v -0.099197 -0.040873 -0.025895
v -0.052719 -0.046094 -0.030453
v -0.065629 -0.030776 -0.038421
v -0.064643 -0.012388 -0.040969
v -0.056265 -0.017548 -0.041361
v -0.033376 -0.051955 -0.025985
v -0.026777 -0.036798 -0.037737
v -0.014868 -0.024842 -0.041422
v 0.010547 -0.016623 -0.042322
v 0.013926 0.006433 -0.042709
v -0.075774 -0.085415 -0.003955
v -0.059214 -0.061352 -0.007844
v -0.053876 -0.052792 -0.010842
v -0.043995 -0.060575 -0.011056
v -0.031363 -0.054735 -0.010669
v -0.029310 -0.056159 -0.008755
v -0.047099 -0.053046 -0.012325
v -0.143011 -0.167462 0.000309
v -0.131034 -0.176952 -0.000730
v -0.092439 -0.131901 0.005732
v -0.146279 -0.166717 0.012007
v -0.133528 -0.175891 0.017422
v -0.118832 -0.137448 0.020494
v -0.077652 -0.113119 0.018941
v -0.080726 -0.106314 -0.002671
v -0.066054 -0.099344 0.000704
v -0.098180 -0.109890 0.001292
v -0.086976 -0.094116 0.019651
v -0.088656 -0.104316 0.022215
v -0.101478 -0.036301 0.032376
v -0.095539 -0.040282 0.030171
v -0.045728 -0.042436 0.035834
v -0.099745 -0.019785 0.040380
v -0.039922 -0.029697 0.041712
v -0.061818 -0.011951 0.042793
v -0.094520 -0.100139 0.006464
v -0.057702 -0.052037 0.010322
v -0.069280 -0.068380 0.012139
v -0.059012 -0.074608 0.019615
v -0.054845 -0.061003 0.017180
v -0.035992 -0.064242 0.010814
v -0.027317 -0.055821 0.002000
v -0.038247 -0.054479 0.016109
v -0.042471 -0.015266 0.043030
v -0.021481 -0.031574 0.040684
v -0.018461 -0.054838 0.019220
v -0.010980 -0.014434 0.041942
v 0.007810 -0.016964 0.040414
v -0.099854 0.033307 -0.033434
v -0.074782 0.023328 -0.039682
v -0.080544 0.040649 -0.032991
v -0.102165 0.040559 -0.022646
v -0.143896 0.166742 -0.000314
v -0.132501 0.175583 -0.000872
v -0.065071 0.024496 -0.040577
v -0.028015 0.018461 -0.041430
v -0.052896 0.042773 -0.033642
v 0.004046 0.024611 -0.041485
v -0.036668 0.053909 -0.012817
v -0.093770 0.046579 0.016059
v -0.061871 0.067814 -0.007300
v -0.051259 0.052688 -0.010250
v -0.050462 0.077980 -0.005248
v -0.028081 0.056450 -0.004104
v -0.027960 0.055248 0.006384
v 0.001924 0.055988 -0.021355
v -0.056621 0.052322 -0.004128
v -0.058090 0.052051 0.005054
v -0.099056 0.039139 0.032756
v -0.084427 0.091436 0.019278
v -0.097777 0.014019 0.041176
v -0.095364 0.020626 0.040510
v -0.095018 0.035981 0.034762
v -0.112253 0.136332 -0.000539
v -0.112957 0.126350 0.003922
v -0.096238 0.107294 0.020892
v -0.135395 0.175083 0.019431
v -0.108253 0.118252 0.012391
v -0.113451 0.147488 0.020854
v -0.115921 0.154371 0.019136
v -0.104481 0.145563 0.017660
v -0.079215 0.080930 0.002368
v -0.086979 0.113606 -0.001558
v -0.130570 0.177656 0.003793
v -0.099498 0.140615 0.006008
v -0.104951 0.130792 0.022036
v -0.083916 0.119457 0.019780
v -0.057446 0.052040 0.007419
v -0.053237 0.052780 0.014270
v -0.064624 0.085966 0.020546
v -0.038057 0.059524 0.014368
v -0.042323 0.058481 0.015831
v -0.046277 0.078093 0.008230
v -0.016654 0.054400 0.025727
v -0.041606 0.053883 0.016692
v -0.056223 0.004068 0.042930
v -0.031701 0.011399 0.043134
v -0.039708 0.029787 0.041134
v -0.019999 0.000114 0.042698
v -0.052930 0.048710 0.026708
v -0.015558 0.050327 0.032220
v -0.001075 0.021044 0.040948
v 0.011564 0.041657 0.034501
v -0.012135 0.049568 0.029221
v -0.091101 0.131379 0.008520
v -0.051811 0.079991 0.015871
v 0.063485 -0.050120 -0.031960
v 0.028208 -0.038673 -0.039013
v 0.022326 -0.029477 -0.041608
v 0.059570 -0.030993 -0.043144
v 0.060757 0.007706 -0.045186
v 0.069430 -0.013344 -0.044324
v 0.008992 -0.055674 -0.016910
v 0.035394 -0.056221 -0.012161
v 0.057014 -0.055813 -0.007936
v 0.028313 -0.056263 -0.004770
v 0.048155 -0.055728 -0.011682
v 0.086013 -0.098155 -0.001634
v 0.105759 -0.130229 -0.000498
v 0.140334 -0.169380 -0.003233
v 0.095229 -0.032647 -0.036259
v 0.098439 -0.025720 -0.039862
v 0.101004 -0.028311 -0.031759
v 0.087607 -0.044623 -0.013309
v 0.092118 -0.132322 0.007627
v 0.067738 -0.102863 0.004775
v 0.058739 -0.093416 0.009735
v 0.034777 -0.054693 0.018958
v 0.035739 -0.065116 0.005015
v 0.039710 -0.054136 0.015499
v 0.060341 -0.093590 0.002404
v 0.068473 -0.069869 0.016321
v 0.085209 -0.124326 0.014967
v 0.056719 -0.080465 0.019768
v 0.058260 -0.054514 0.012961
v 0.012276 -0.045752 0.031625
v 0.028829 -0.033106 0.035604
v 0.026174 0.003275 0.038611
v 0.043117 -0.024707 0.035014
v 0.045471 -0.020524 0.035021
v 0.035844 -0.012263 0.036966
v 0.071529 -0.036426 0.024666
v 0.054339 -0.019237 0.033639
v 0.059992 -0.041728 0.027213
v 0.066684 -0.022925 0.030444
v 0.049412 0.005512 0.034864
v 0.069442 -0.098308 -0.002472
v 0.091390 -0.097660 0.003351
v 0.130711 -0.177879 0.013864
v 0.082937 -0.115191 0.021112
v 0.092625 -0.102205 0.019928
v 0.123276 -0.150123 -0.001392
v 0.130518 -0.177588 0.002939
v 0.126195 -0.143761 0.003570
v 0.144893 -0.166661 0.009688
v 0.142699 -0.168860 0.016118
v 0.133595 -0.176189 0.016839
v 0.121575 -0.135866 0.010652
v 0.115359 -0.134374 0.020838
v 0.112040 -0.146120 0.020892
v 0.083325 -0.105385 0.021674
v 0.091398 -0.109713 0.021855
v 0.060228 -0.054809 -0.000226
v 0.083956 -0.086553 0.012623
v 0.083771 -0.041892 0.012112
v 0.097242 -0.033253 0.009255
v 0.094635 -0.021980 0.017271
v 0.102476 -0.011380 0.012618
v 0.095265 0.008072 0.018539
v 0.074244 -0.030468 0.025853
v 0.082769 -0.010672 0.024543
v 0.050345 0.035750 -0.041212
v 0.074324 0.028213 -0.043229
v 0.031201 0.042985 -0.036953
v 0.098074 0.033199 -0.037638
v 0.031015 0.050435 -0.030406
v 0.062425 0.053836 -0.024787
v 0.016375 0.053022 -0.026399
v 0.034673 0.055943 -0.011626
v 0.050539 0.055703 -0.011654
v 0.029296 0.056154 -0.007255
v 0.065983 0.069485 -0.005960
v 0.098461 0.022292 -0.038266
v 0.101313 0.016331 -0.034776
v 0.077452 0.049175 -0.018178
v 0.142782 0.164914 0.005945
v 0.128260 0.179682 0.005461
v 0.067022 0.093927 -0.003640
v 0.027936 0.056121 0.002896
v 0.033510 0.055277 0.013681
v 0.059248 0.087685 0.018791
v 0.064210 0.099205 0.013685
v 0.059571 0.053810 0.010580
v 0.112161 0.124409 0.017420
v 0.058341 0.054901 -0.004178
v 0.082510 0.092236 0.021354
v 0.036406 0.044376 0.029240
v 0.050208 0.008616 0.035195
v 0.019486 0.029355 0.037830
v 0.041821 0.025798 0.035248
v 0.047492 0.053800 0.016380
v 0.057714 0.034901 0.029954
v 0.054571 0.043683 0.026616
v 0.073716 0.012937 0.028400
v 0.098397 0.035469 0.005333
v 0.087675 0.044877 0.005189
v 0.100434 0.022030 0.013045
v 0.085672 0.031429 0.022745
v 0.072751 0.046202 0.020296
v 0.118479 0.132011 0.008413
v 0.116068 0.159232 0.017563
v 0.087702 0.126430 0.004966
v 0.131257 0.176630 -0.000363
v 0.145100 0.166418 0.008466
v 0.138282 0.170737 -0.002072
v 0.142665 0.168715 0.016638
v 0.142585 0.168921 0.015607
v 0.136021 0.174264 0.016902
v 0.096071 0.120966 0.022186
v 0.110800 0.134900 0.021652
v -0.077886 0.001690 0.023727
v -0.077388 -0.017814 0.011087
v -0.077456 0.004852 0.010942
v -0.076623 0.023661 0.023944
v -0.077624 -0.029924 0.013824
v -0.077196 0.027111 0.013241
v -0.075947 0.031682 0.021291
v -0.063427 0.013147 0.028053
v -0.064301 -0.015018 0.027831
v -0.077438 -0.022563 0.023698
v -0.066183 -0.041068 0.020544
v -0.063423 0.005755 0.007174
v -0.054422 0.014539 0.005247
v -0.066551 0.021108 0.008412
v -0.067764 0.034990 0.010724
v -0.044068 0.042808 0.028519
v -0.043762 0.022801 0.031238
v -0.053482 -0.006233 0.029991
v -0.049310 -0.009127 0.030650
v -0.051405 -0.023938 0.029949
v -0.048799 -0.035390 0.029042
v -0.053415 -0.042856 0.009734
v -0.060218 -0.033482 0.007792
v -0.050719 -0.020000 0.004999
v -0.053477 -0.003583 0.005272
v -0.050322 -0.000173 0.004743
v -0.052512 0.030166 0.005941
v -0.045464 0.047094 0.009260
v -0.050318 0.011506 0.030480
v -0.051592 -0.042748 0.026330
v -0.024988 -0.056528 0.015393
v -0.035631 -0.017630 0.031890
v -0.039559 -0.042822 0.029280
v -0.035247 -0.046354 0.007012
v -0.024939 -0.038368 0.004238
v -0.037924 -0.018060 0.003557
v -0.033338 0.022171 0.003257
v -0.033499 0.039132 0.005159
v -0.020972 0.048021 0.029297
v -0.023433 -0.004659 0.032229
v -0.027420 -0.025712 0.031757
v -0.019181 -0.031269 0.031425
v -0.030810 -0.043306 0.029363
v -0.020575 -0.050600 0.027003
v -0.022135 -0.011930 0.003054
v -0.024973 0.023662 0.003348
v -0.021183 0.032904 0.004017
v -0.026326 0.050370 0.008168
v -0.035590 0.053965 0.022266
v -0.022755 0.018675 0.032128
v -0.020883 -0.000003 0.003117
v -0.018179 0.037789 0.030641
v -0.010798 0.021848 0.031445
v -0.011290 -0.008319 0.031729
v -0.012091 -0.026038 0.031393
v -0.016642 -0.048015 0.007770
v -0.011267 -0.028124 0.004110
v -0.013506 0.011317 0.003401
v -0.013387 0.042047 0.005835
v -0.012785 0.047851 0.007929
v -0.000032 -0.030237 0.029880
v -0.002389 -0.046211 0.008997
v -0.002462 -0.015620 0.004376
v -0.005406 0.029082 0.004580
v -0.004808 0.050822 0.024235
v 0.009315 0.032852 0.028231
v -0.003267 0.004813 0.031160
v 0.002005 -0.006917 0.030451
v -0.001327 -0.011685 0.030780
v 0.004035 -0.021288 0.029980
v 0.002337 -0.042800 0.027123
v 0.007186 -0.033959 0.006591
v -0.009398 -0.003422 0.003643
v 0.010470 -0.004969 0.005924
v 0.004873 0.006263 0.005161
v 0.000268 0.018627 0.004770
v 0.004479 0.045268 0.009185
v 0.010674 0.041616 0.025204
v 0.018539 0.003384 0.028037
v 0.018180 -0.040046 0.023217
v 0.019470 0.041629 0.017988
v 0.007955 0.022774 0.029361
v 0.015013 -0.005957 0.028533
v 0.018213 -0.013155 0.027922
v 0.018040 -0.031409 0.026777
v 0.006038 -0.045311 0.010272
v 0.011399 -0.034565 0.007684
v 0.016097 0.007109 0.006938
v 0.011989 0.028734 0.007158
v 0.015869 0.037509 0.009613
v 0.036849 0.029309 0.021013
v 0.018363 0.024656 0.027284
v 0.024140 0.010436 0.026820
v 0.016677 -0.021301 0.007356
v 0.024140 -0.010436 0.008454
v 0.017651 0.019899 0.007395
v 0.036160 0.017924 0.024041
v 0.037229 0.004227 0.024100
v 0.037035 -0.014706 0.023960
v 0.031184 -0.025714 0.024275
v 0.024748 -0.031966 0.024514
v 0.025236 -0.037330 0.013364
v 0.029220 -0.025669 0.010562
v 0.028132 -0.018995 0.009567
v 0.037229 -0.004227 0.011173
v 0.025347 0.035724 0.012619
v 0.037676 -0.028911 0.016315
v 0.035278 0.012140 0.010745
v 0.042359 0.024970 0.017045
v 0.042077 0.018523 0.022222
v 0.042726 -0.002973 0.022389
v 0.042556 -0.018248 0.021730
v 0.042034 -0.022675 0.013901
v 0.042726 0.002973 0.012884
v 0.037870 0.018946 0.011876
v 0.042262 0.019543 0.013143
v 0.044271 0.007392 0.021003
v 0.042626 -0.024636 0.018343
v 0.042761 -0.011082 0.013094
v 0.042839 0.020695 0.015054
v -0.079683 0.000000 0.017637
v -0.151305 -0.171238 0.008203
v -0.145430 -0.152866 0.012748
v -0.124955 -0.184299 0.010587
v -0.122020 -0.156437 0.013736
v -0.118205 -0.169877 0.012033
v -0.126585 -0.166276 0.008360
v -0.160510 -0.178863 0.014135
v -0.144435 -0.193728 0.013786
v -0.127601 -0.188676 0.010669
v -0.126200 -0.155706 0.012166
v -0.156463 -0.156290 0.031750
v -0.128275 -0.193564 0.033608
v -0.116052 -0.185287 0.023433
v -0.155846 -0.187972 0.031436
v -0.123356 -0.156587 0.034140
v -0.157431 -0.177070 0.036217
v -0.144986 -0.157587 0.036575
v -0.133032 -0.150300 0.033180
v -0.135893 -0.181810 0.036977
v -0.144652 -0.180179 0.036985
v -0.134271 -0.181376 0.036977
v -0.118718 -0.180409 0.034893
v -0.130153 -0.178888 0.036980
v -0.134710 -0.162725 0.036982
v -0.120876 -0.167938 0.036234
v -0.130187 -0.166134 0.036977
v -0.116246 -0.166044 0.033845
v -0.115551 -0.172325 0.031824
v -0.139943 0.185166 0.007244
v -0.140705 0.151656 0.012365
v -0.119220 0.165420 0.011843
v -0.143668 0.161266 0.008350
v -0.119430 0.176189 0.011357
v -0.153850 0.158348 0.012052
v -0.161363 0.174029 0.014135
v -0.128034 0.152559 0.014619
v -0.137903 0.195090 0.014511
v -0.159234 0.166995 0.034249
v -0.156355 0.186477 0.032596
v -0.138308 0.195639 0.030734
v -0.127848 0.151007 0.033293
v -0.120276 0.189793 0.020978
v -0.119199 0.157952 0.030720
v -0.114460 0.170778 0.030416
v -0.117287 0.181848 0.033632
v -0.147213 0.152688 0.033903
v -0.142611 0.164016 0.036978
v -0.149590 0.187981 0.036004
v -0.136955 0.162543 0.036979
v -0.122287 0.162880 0.036150
v -0.145619 0.184794 0.037104
v -0.126068 0.188176 0.035846
v -0.125773 0.186379 0.035546
v -0.123690 0.182812 0.036212
v -0.118500 0.183333 0.031824
v 0.120076 -0.170154 0.009711
v 0.121970 -0.188188 0.013760
v 0.142103 -0.193171 0.012791
v 0.130833 -0.153469 0.011656
v 0.142820 -0.183753 0.008359
v 0.153736 -0.182148 0.011380
v 0.150174 -0.156270 0.012666
v 0.158752 -0.168566 0.013270
v 0.118410 -0.183578 0.033745
v 0.115603 -0.161881 0.031743
v 0.127745 -0.192556 0.034345
v 0.137738 -0.148810 0.030431
v 0.155836 -0.186255 0.033637
v 0.159586 -0.178736 0.032187
v 0.157237 -0.159607 0.032907
v 0.142396 -0.195142 0.030720
v 0.125765 -0.183673 0.036726
v 0.124982 -0.159033 0.035847
v 0.134683 -0.155283 0.036330
v 0.141484 -0.181309 0.036979
v 0.154377 -0.173745 0.036368
v 0.143386 -0.164440 0.036979
v 0.146772 -0.169203 0.036978
v 0.140751 -0.154258 0.035546
v 0.151390 -0.159174 0.035591
v 0.123542 0.155699 0.012686
v 0.117853 0.168692 0.010251
v 0.123717 0.190771 0.012550
v 0.147465 0.154973 0.012307
v 0.146411 0.163384 0.008359
v 0.149953 0.174254 0.008360
v 0.157863 0.177975 0.013400
v 0.147643 0.189574 0.012307
v 0.148546 0.178374 0.008360
v 0.134037 0.185091 0.008188
v 0.130270 0.151384 0.014599
v 0.155270 0.164007 0.011927
v 0.135985 0.194942 0.033058
v 0.130363 0.150534 0.033799
v 0.146026 0.150919 0.030423
v 0.157782 0.161536 0.030716
v 0.147375 0.192242 0.033404
v 0.160383 0.180579 0.030539
v 0.116875 0.167696 0.034237
v 0.131186 0.163748 0.036991
v 0.128165 0.175098 0.036979
v 0.118695 0.185948 0.032876
v 0.142185 0.181522 0.037208
v 0.152885 0.157203 0.035144
v 0.154805 0.178600 0.035546
v 0.155911 0.172325 0.035546
v 0.155632 0.175511 0.035546
v 0.156321 0.180562 0.034641
v 0.045312 -0.036222 -0.043667
v 0.031749 -0.041300 -0.033545
v 0.030757 -0.037887 -0.024152
v 0.020442 -0.033472 -0.034456
v 0.026377 -0.026640 -0.045298
v 0.031186 -0.035794 -0.044461
v 0.022468 -0.029685 -0.024883
v 0.033109 -0.026782 -0.021574
v 0.037287 -0.027457 -0.026066
v 0.037167 -0.029319 -0.042361
v 0.053087 -0.041911 -0.036400
v 0.040778 -0.030866 -0.035634
v 0.039183 -0.032312 -0.028910
v 0.038416 -0.026993 -0.012843
v 0.039631 -0.010496 -0.063930
v 0.033885 -0.025407 -0.044560
v 0.029864 -0.004948 -0.031942
v 0.030359 -0.020882 -0.030895
v 0.038942 -0.023750 -0.045046
v -0.015489 -0.029870 0.021724
v -0.019047 -0.024684 0.038395
v -0.009822 -0.021344 0.024658
v -0.005417 -0.026986 0.022730
v -0.015119 -0.035443 0.024490
v -0.012510 -0.033746 0.045660
v -0.003441 -0.034238 0.041632
v -0.019341 -0.029512 0.034341
v -0.008785 -0.024124 0.045319
v -0.004244 -0.027529 0.043864
v -0.002053 -0.031158 0.025111
v -0.014411 -0.019300 0.033096
v -0.004555 -0.021734 0.038992
v -0.004017 -0.021507 0.032331
v 0.030597 -0.030701 -0.021422
v 0.051557 -0.040260 -0.012513
v 0.042936 -0.027194 0.007394
v 0.071508 -0.021505 0.035365
v 0.053116 0.028289 -0.072249
v 0.035198 0.006159 -0.052810
v 0.044011 0.031118 -0.052056
v 0.030466 0.019946 -0.036801
v 0.037809 0.023840 -0.039196
v 0.023737 0.032200 -0.043590
v 0.033070 0.034762 -0.046141
v 0.021806 0.028100 -0.026242
v 0.026010 0.038980 -0.031002
v 0.031631 0.034021 -0.020685
v 0.026769 0.025411 -0.025217
v 0.032949 0.026560 -0.022283
v 0.032190 0.036815 -0.023996
v 0.030934 0.041047 -0.036353
v 0.039962 0.032753 -0.032930
v 0.037996 0.029392 -0.026613
v 0.050975 0.041610 -0.019820
v 0.039030 0.031116 -0.032107
v -0.010497 0.024912 0.019900
v -0.012643 0.018430 0.037415
v -0.014841 0.026837 0.044973
v -0.007636 0.022597 0.043807
v -0.000808 0.028184 0.027604
v -0.001918 0.025581 0.041137
v -0.015771 0.031948 0.023035
v -0.013818 0.037849 0.028946
v -0.019565 0.028688 0.035004
v -0.009843 0.032263 0.046173
v -0.008019 0.037312 0.038844
v -0.003724 0.034798 0.035752
v 0.033969 0.010173 0.000760
v 0.043571 0.019850 0.016537
v 0.044017 -0.005448 0.023177
v 0.059561 -0.001101 0.038262
v 0.030597 0.030701 -0.021422
v 0.050186 0.037073 0.000152
v 0.071403 -0.032820 -0.074842
v 0.097799 -0.027228 -0.061101
v 0.062240 -0.042323 -0.050004
v 0.065157 -0.047801 -0.043614
v 0.049240 -0.050000 -0.021241
v 0.074608 -0.047208 -0.038189
v 0.095349 -0.040089 -0.040300
v 0.050351 -0.007617 -0.082414
v 0.080553 -0.010623 -0.088359
v 0.103075 -0.027325 -0.044906
v 0.095360 -0.040064 -0.021241
v 0.118621 -0.024784 -0.059811
v 0.102707 -0.011354 -0.066431
v 0.118621 -0.010000 -0.065005
v 0.122621 -0.010004 -0.058839
v 0.122621 -0.008123 -0.056295
v 0.118826 -0.021189 -0.036914
v 0.122621 -0.023521 -0.048003
v 0.121938 -0.022304 -0.058151
v 0.110609 -0.015511 -0.031308
v 0.118621 -0.015000 -0.033310
v 0.122621 -0.016544 -0.038117
v 0.118121 -0.017000 -0.028576
v 0.113290 -0.003314 -0.039935
v 0.118929 -0.004760 -0.044969
v 0.122621 -0.006479 -0.051075
v 0.122621 -0.009187 -0.040986
v 0.122621 -0.012373 -0.038606
v 0.060689 -0.045161 -0.006814
v 0.071036 -0.038294 0.016250
v 0.075695 -0.047467 -0.014577
v 0.082674 -0.043277 0.000548
v 0.064163 -0.036019 0.016037
v 0.094091 -0.036166 -0.002431
v 0.091430 -0.034685 0.006969
v 0.098598 -0.035390 -0.007827
v 0.102792 -0.034899 0.009357
v 0.094472 -0.027511 0.013420
v 0.107928 -0.030802 -0.002802
v 0.104980 -0.024523 -0.005022
v 0.097707 -0.031211 0.014399
v 0.104023 -0.024615 0.010135
v 0.105743 -0.020200 -0.001547
v 0.118121 -0.005272 0.010138
v 0.126621 -0.014464 0.002019
v 0.097773 -0.017682 0.019997
v 0.099697 -0.022385 0.010764
v 0.101975 -0.016566 0.013154
v 0.104990 -0.016000 0.017439
v 0.118121 -0.017000 0.013348
v 0.063882 0.018732 -0.084072
v 0.078410 0.010788 -0.088552
v 0.078128 0.042338 -0.057834
v 0.059684 0.043522 -0.042160
v 0.057395 0.047368 -0.039670
v 0.070626 0.047164 -0.041633
v 0.078187 0.047988 -0.023783
v 0.084221 0.046085 -0.022194
v 0.084466 0.020938 -0.081959
v 0.100395 0.020568 -0.064727
v 0.103933 0.008118 -0.064087
v 0.118621 0.004737 -0.063396
v 0.119901 0.024242 -0.058571
v 0.106903 0.023910 -0.037696
v 0.109642 0.002874 -0.049806
v 0.120764 0.009889 -0.060868
v 0.119106 0.009507 -0.037177
v 0.122621 0.010982 -0.039269
v 0.112107 0.010113 -0.031834
v 0.118121 -0.009523 -0.024405
v 0.122621 0.023084 -0.053091
v 0.119421 0.024603 -0.045531
v 0.118621 0.013150 -0.033415
v 0.122621 0.015000 -0.038043
v 0.122621 0.019675 -0.039536
v 0.118121 0.017000 -0.028576
v 0.118621 0.019420 -0.034780
v 0.103063 0.029215 -0.044404
v 0.102427 0.031803 -0.027754
v 0.072764 0.022035 0.034048
v 0.068482 0.024991 0.029917
v 0.061345 0.045400 -0.007488
v 0.070951 0.047345 -0.009262
v 0.087638 0.043622 -0.012185
v 0.088216 0.037780 0.005783
v 0.059832 0.031068 0.020130
v 0.070966 0.038595 0.013807
v 0.104809 0.024101 -0.004900
v 0.101213 0.021202 0.009965
v 0.126621 0.003451 -0.026965
v 0.118121 0.012319 0.008500
v 0.126621 0.011763 0.004260
v 0.111701 0.017394 -0.028824
v 0.118121 0.011964 -0.016501
v 0.102747 -0.009332 0.018803
v 0.105118 0.000132 0.014321
v 0.101097 0.011351 0.017496
v 0.090067 0.015416 0.031088
v 0.102294 0.016206 0.014880
v 0.102911 0.028833 -0.009256
v 0.101230 0.034732 -0.005863
v 0.097247 0.035122 -0.007235
v 0.093460 0.036859 0.001158
v 0.092242 0.032208 0.010162
v 0.107999 0.028983 -0.000593
v 0.106826 0.032901 0.006888
v 0.099168 0.034490 0.010976
v 0.100692 0.035621 0.007766
v 0.096743 0.024840 0.013900
v 0.099114 0.030320 0.013575
v 0.123209 -0.158021 -0.068468
v 0.123643 -0.152954 -0.066207
v 0.125051 -0.152715 -0.066628
v 0.126697 -0.155584 -0.068641
v 0.129848 -0.158377 -0.039412
v 0.128722 -0.162922 -0.050561
v 0.128448 -0.164338 -0.025681
v 0.127586 -0.160468 -0.037764
v 0.129817 -0.162048 -0.050561
v 0.126416 -0.154201 -0.067862
v 0.136509 -0.169910 -0.023236
v 0.132222 -0.162694 -0.045256
v 0.131206 -0.158495 -0.045071
v 0.130032 -0.157351 -0.045552
v 0.125895 -0.163515 -0.045982
v 0.121230 -0.155733 -0.066617
v 0.134338 -0.169221 0.000187
v 0.126955 -0.162852 -0.052956
v 0.133231 -0.172255 -0.023212
v 0.129885 -0.160857 -0.031528
v 0.138747 -0.167190 -0.022846
v 0.134060 -0.170622 -0.023733
v 0.137295 -0.175878 -0.023554
v 0.138064 -0.164824 -0.010435
v 0.133160 -0.174940 -0.013290
v 0.132804 -0.175917 -0.003099
v 0.133083 -0.175903 -0.002538
v 0.133416 -0.176320 -0.002865
v 0.133435 -0.176302 -0.002864
v 0.131335 -0.172960 -0.000461
v 0.135377 -0.174249 -0.017321
v 0.135654 -0.178518 -0.004685
v 0.134892 -0.177802 -0.004142
v 0.134418 -0.177268 -0.005688
v 0.133616 -0.176507 -0.003032
v 0.121870 0.157133 -0.067557
v 0.122138 0.154205 -0.066226
v 0.124101 0.157775 -0.068692
v 0.124584 0.152516 -0.066356
v 0.126780 0.155120 -0.068445
v 0.126454 0.157836 -0.047252
v 0.129261 0.162492 -0.050561
v 0.128214 0.159967 -0.037764
v 0.131384 0.165226 -0.041501
v 0.130709 0.160409 -0.031171
v 0.132374 0.160010 -0.031675
v 0.133657 0.160652 -0.032855
v 0.131696 0.162202 -0.049107
v 0.128135 0.160851 -0.038168
v 0.126405 0.162873 -0.034757
v 0.129974 0.162098 -0.028277
v 0.130489 0.169470 -0.031880
v 0.130486 0.171604 -0.015658
v 0.133002 0.162410 -0.043859
v 0.135469 0.163201 -0.034549
v 0.132159 0.169032 -0.032065
v 0.136364 0.173701 -0.019481
v 0.136834 0.176740 -0.023811
v 0.137273 0.169276 -0.023064
v 0.135212 0.177803 -0.012679
v 0.132405 0.174335 -0.012641
v 0.131632 0.173719 -0.004142
v 0.133143 0.175856 -0.004429
v 0.131243 0.172529 -0.000234
v 0.131639 0.173697 -0.004153
v 0.132613 0.175250 -0.003032
v 0.132751 0.175487 -0.002865
v 0.132773 0.175472 -0.002864
v 0.133083 0.175903 -0.002538
v 0.133961 0.175256 -0.013679
v 0.139384 0.166363 -0.001649
v 0.140953 -0.182014 -0.040089
v 0.145314 -0.182602 -0.050561
v 0.143119 -0.179926 -0.041501
v 0.146450 -0.179292 -0.045020
v 0.148480 -0.190024 -0.068157
v 0.146197 -0.185380 -0.057945
v 0.151312 -0.186653 -0.068695
v 0.153843 -0.189441 -0.066382
v 0.150689 -0.192159 -0.066289
v 0.150304 -0.185403 -0.047595
v 0.152924 -0.187156 -0.067848
v 0.149233 -0.186371 -0.047252
v 0.147545 -0.184183 -0.037764
v 0.138020 -0.180296 -0.026456
v 0.140924 -0.177250 -0.032441
v 0.137888 -0.168831 -0.023353
v 0.136566 -0.163848 -0.028561
v 0.141176 -0.174680 -0.028133
v 0.141900 -0.172396 -0.023212
v 0.144649 -0.183180 -0.030210
v 0.136464 -0.178356 -0.000082
v 0.137227 -0.164139 -0.020672
v 0.142671 -0.168885 -0.006560
v 0.140216 -0.166850 -0.004153
v 0.141515 -0.168144 -0.003032
v 0.143737 -0.171192 -0.001699
v 0.140239 -0.166848 -0.004142
v 0.143333 -0.171081 -0.012129
v 0.146282 -0.179434 -0.022561
v 0.141988 -0.168795 -0.004429
v 0.141696 -0.168349 -0.002864
v 0.141715 -0.168331 -0.002865
v 0.139050 -0.166070 -0.000113
v 0.142047 -0.168747 -0.002538
v 0.145857 -0.181994 -0.028277
v 0.147563 -0.177823 -0.029624
v 0.147878 -0.179202 -0.028103
v 0.141600 0.183354 -0.041990
v 0.134506 0.177658 -0.002167
v 0.143747 0.179425 -0.041501
v 0.145248 0.187022 -0.043005
v 0.148411 0.189355 -0.068507
v 0.146815 0.185032 -0.057325
v 0.152114 0.188370 -0.067780
v 0.144346 0.177584 -0.038353
v 0.148834 0.189015 -0.053515
v 0.150863 0.192025 -0.066285
v 0.151293 0.186737 -0.068656
v 0.153638 0.189866 -0.066257
v 0.146917 0.184684 -0.037764
v 0.149710 0.183255 -0.040863
v 0.150765 0.183452 -0.047224
v 0.141405 0.183625 -0.037456
v 0.141624 0.176691 -0.032441
v 0.132116 0.159522 -0.044112
v 0.138457 0.168083 -0.023212
v 0.135844 0.173714 -0.016858
v 0.140315 0.182311 -0.020501
v 0.145157 0.182553 -0.028277
v 0.142665 0.182402 -0.022309
v 0.142728 0.173852 0.000170
v 0.140060 0.166980 -0.012113
v 0.140757 0.169923 -0.015534
v 0.141784 0.168268 -0.002720
v 0.141642 0.169144 -0.011214
v 0.143838 0.171882 -0.000358
v 0.143493 0.170978 -0.004162
v 0.143499 0.170932 -0.004142
v 0.142047 0.168747 -0.002538
v 0.142358 0.169178 -0.002864
v 0.142380 0.169164 -0.002865
v 0.142518 0.169401 -0.003032
v 0.147153 0.177346 -0.030597
v 0.150943 0.185142 -0.037736
v 0.145023 0.173558 -0.010645
v -0.063234 -0.036605 -0.021416
v -0.063234 -0.036605 0.024775
v -0.063234 0.036605 -0.021416
v -0.063234 0.036605 0.024775
v 0.038756 -0.036605 -0.021416
v 0.038756 -0.036605 0.024775
v 0.038756 0.036605 -0.021416
v 0.038756 0.036605 0.024775
v -0.063234 -0.040148 -0.002240
v -0.063234 0.040148 -0.004479
v 0.055075 -0.040148 -0.004479
v 0.055075 0.040148 -0.002240
v -0.034677 -0.031882 0.022676
v -0.034677 0.031882 0.020996
v 0.042836 -0.031882 0.020996
v 0.042836 0.031882 0.022676
v 0.092085 0.046811 0.048677
v 0.091969 0.046869 0.048661
v 0.091802 0.046953 0.048656
v 0.091636 0.047036 0.048648
v 0.091469 0.047120 0.048636
v 0.090659 0.047525 0.048746
v 0.090620 0.047545 0.048564
v 0.090661 0.047524 0.048541
v 0.099955 0.050129 0.049478
v 0.099559 0.050327 0.049437
v 0.098981 0.050616 0.049413
v 0.110828 0.067222 0.050798
v 0.098403 0.050906 0.049378
v 0.097551 0.051333 0.049305
v 0.098949 0.050673 0.049621
v 0.104058 0.064666 0.049681
v 0.100390 0.050409 0.049484
v 0.093936 0.053022 0.048727
v 0.093281 0.052687 0.049434
v 0.103902 0.062669 0.049778
v 0.100316 0.062814 0.050024
v 0.110189 0.080314 0.050077
v 0.097437 0.051287 0.049645
v 0.106240 0.074666 0.049526
v 0.102529 0.071239 0.048862
v 0.106337 0.069830 0.050763
v 0.108553 0.068460 0.050929
v 0.120151 0.099517 0.051333
v 0.122453 0.110331 0.050928
v 0.107711 0.080643 0.050664
v 0.115963 0.088906 0.052136
v 0.090835 0.055674 0.047869
v 0.089108 0.048300 0.048244
v 0.105667 0.088509 0.047517
v 0.094574 0.067435 0.047563
v 0.107185 0.088081 0.048166
v 0.099499 0.080526 0.047050
v 0.112092 0.115846 0.045853
v 0.111679 0.108088 0.048882
v 0.089836 0.053565 0.048435
v 0.098934 0.073150 0.048737
v 0.103753 0.080508 0.049507
v 0.106956 0.089155 0.049583
v 0.118694 0.107554 0.051842
v 0.121207 0.125515 0.048280
v 0.131566 0.150372 0.049152
v 0.117776 0.136871 0.045094
v 0.129082 0.152644 0.047918
v 0.121431 0.138137 0.049619
v 0.134062 0.161471 0.048693
v 0.133646 0.163908 0.048372
v 0.131801 0.134119 0.051610
v 0.126733 0.139752 0.051738
v 0.132078 0.153132 0.051226
v 0.137525 0.154016 0.050460
v 0.142103 0.159673 0.050914
v 0.140382 0.160535 0.051005
v 0.126518 0.147804 0.050320
v 0.136498 0.161236 0.049505
v 0.138856 0.161277 0.050179
v 0.122430 0.087171 0.052891
v 0.125824 0.112026 0.053592
v 0.127242 0.106716 0.052933
v 0.127398 0.095343 0.053729
v 0.134242 0.110663 0.054702
v 0.143239 0.125009 0.056577
v 0.144515 0.129421 0.056552
v 0.137483 0.128012 0.054473
v 0.136421 0.130931 0.055563
v 0.142756 0.137571 0.054383
v 0.144844 0.141384 0.054105
v 0.140627 0.132190 0.054840
v 0.136100 0.131143 0.053691
v 0.143933 0.152067 0.051935
v 0.136946 0.161280 0.050726
v 0.127081 0.131113 0.052892
v 0.130502 0.133095 0.053871
v 0.135305 0.141333 0.053809
v 0.138282 0.165184 0.060472
v 0.117109 0.142577 0.044855
v 0.128754 0.165424 0.047355
v 0.122507 0.151883 0.047522
v 0.131711 0.164877 0.047649
v 0.133145 0.164159 0.048183
v 0.132429 0.164517 0.047913
v 0.130098 0.157863 0.049852
v 0.131147 0.162091 0.051427
v 0.129057 0.175643 0.058697
v 0.131901 0.169705 0.060387
v 0.131308 0.171845 0.060388
v 0.145277 0.162314 0.050310
v 0.157678 0.199625 0.044881
v 0.152274 0.187844 0.046533
v 0.157396 0.208934 0.045247
v 0.145745 0.178610 0.047235
v 0.143420 0.179774 0.047649
v 0.143986 0.181778 0.049285
v 0.142702 0.180133 0.047913
v 0.141986 0.180492 0.048183
v 0.162967 0.223019 0.045139
v 0.149279 0.176006 0.052504
v 0.143806 0.172229 0.060387
v 0.143671 0.173620 0.060387
v 0.143230 0.174946 0.060387
v 0.142158 0.176602 0.060388
v 0.137565 0.172325 0.048372
v 0.141485 0.180743 0.048372
v 0.141666 0.182919 0.048459
v 0.125581 0.180502 0.048612
v 0.146016 0.211681 0.050698
v 0.164432 0.232836 0.047591
v 0.146515 0.196121 0.050999
v 0.138755 0.183522 0.049501
v 0.138236 0.189711 0.050191
v 0.146460 0.204509 0.052571
v 0.138888 0.198396 0.051305
v 0.142268 0.198415 0.052688
v 0.135155 0.183913 0.050985
v 0.135265 0.184043 0.050817
v 0.149925 0.210339 0.051853
v 0.157804 0.246055 0.052064
v 0.132490 0.185296 0.050813
v 0.138677 0.210864 0.053347
v 0.141188 0.217669 0.053340
v 0.175475 0.263554 0.046978
v 0.159568 0.237636 0.048621
v 0.172180 0.253354 0.046735
v 0.173497 0.265335 0.047510
v 0.181187 0.281871 0.048510
v 0.176261 0.278351 0.048498
v 0.186070 0.291322 0.047923
v 0.183545 0.290512 0.048156
v 0.186340 0.296180 0.048203
v 0.184662 0.297030 0.048501
v 0.163873 0.253529 0.050879
v 0.157681 0.245910 0.050487
v 0.172009 0.263397 0.049205
v 0.164384 0.249117 0.050230
v 0.181977 0.290881 0.049279
v 0.184511 0.297106 0.048564
v 0.183994 0.297365 0.048602
v 0.183828 0.297448 0.048621
v 0.183662 0.297531 0.048636
v 0.183495 0.297614 0.048648
v 0.183329 0.297698 0.048656
v 0.183162 0.297781 0.048661
v 0.183046 0.297839 0.048672
v 0.168842 0.268328 0.049401
v 0.162380 0.261986 0.051619
v 0.157402 0.254167 0.051411
v 0.167362 0.275807 0.050880
v 0.172197 0.276478 0.050311
v 0.163347 0.261057 0.050288
v 0.174739 0.283081 0.049233
v 0.181709 0.291323 0.049376
v 0.174078 0.287047 0.049526
v 0.177881 0.293168 0.049271
v 0.183302 0.297671 0.048940
v 0.177305 0.293456 0.049330
v 0.176728 0.293745 0.049378
v 0.179630 0.292461 0.049640
v 0.174141 0.286444 0.050045
v 0.160715 0.265687 0.051227
v 0.166537 0.277073 0.050463
v 0.167173 0.282562 0.050334
v 0.174983 0.294365 0.049412
v 0.176150 0.294034 0.049413
v 0.175572 0.294324 0.049437
v 0.175176 0.294522 0.049478
v 0.137208 0.183842 0.050592
v 0.143133 0.210977 0.054287
v 0.135446 0.181286 0.058809
v 0.139848 0.178171 0.060388
v 0.137662 0.178566 0.060387
v 0.132711 0.215003 0.056433
v 0.129824 0.213119 0.056077
v 0.149049 0.233118 0.053641
v 0.145427 0.234734 0.054374
v 0.135594 0.215151 0.056151
v 0.132452 0.220093 0.056438
v 0.135444 0.224755 0.055760
v 0.147666 0.248502 0.053728
v 0.153127 0.247496 0.053081
v 0.152874 0.258672 0.052808
v 0.159535 0.266697 0.051854
v -0.044883 0.076261 0.048661
v -0.044765 0.076405 0.048656
v -0.044647 0.076549 0.048648
v -0.044966 0.076161 0.048677
v -0.044529 0.076693 0.048636
v -0.043986 0.077353 0.048548
v -0.043926 0.077427 0.048564
v -0.043360 0.078116 0.048349
v -0.052102 0.084946 0.048539
v -0.068884 0.098807 0.048816
v -0.053505 0.075991 0.049478
v -0.053224 0.076333 0.049437
v -0.052607 0.076863 0.049590
v -0.052813 0.076832 0.049413
v -0.054206 0.079324 0.049553
v -0.073107 0.093876 0.051367
v -0.051585 0.078328 0.049271
v -0.052403 0.077332 0.049378
v -0.051994 0.077830 0.049330
v -0.049086 0.080630 0.049474
v -0.054704 0.080893 0.049369
v -0.057893 0.090081 0.049568
v -0.067097 0.093956 0.049443
v -0.069663 0.086269 0.050746
v -0.063058 0.089282 0.049490
v -0.081084 0.099226 0.052054
v -0.100170 0.116628 0.052642
v -0.085406 0.102905 0.051711
v -0.083231 0.109878 0.049694
v -0.085921 0.118353 0.050118
v -0.068586 0.097253 0.050424
v -0.043244 0.078257 0.048309
v -0.047946 0.082758 0.048275
v -0.049711 0.087026 0.047821
v -0.043486 0.077957 0.048688
v -0.042074 0.079783 0.048117
v -0.048198 0.085989 0.048017
v -0.067864 0.104917 0.047065
v -0.046881 0.084298 0.048440
v -0.083274 0.120557 0.046586
v -0.081044 0.118898 0.047956
v -0.073490 0.112760 0.046548
v -0.083377 0.124297 0.045755
v -0.089273 0.117155 0.049446
v -0.082275 0.109079 0.051237
v -0.118009 0.134145 0.053532
v -0.134850 0.152186 0.051741
v -0.111877 0.134648 0.051572
v -0.105997 0.147207 0.045607
v -0.103903 0.146425 0.045200
v -0.107494 0.149488 0.048244
v -0.136111 0.160370 0.049505
v -0.130561 0.166230 0.048372
v -0.101444 0.127694 0.050190
v -0.125860 0.156727 0.049337
v -0.100101 0.127737 0.052119
v -0.113842 0.144716 0.052289
v -0.113015 0.154848 0.048529
v -0.108436 0.142041 0.051193
v -0.136649 0.158819 0.050946
v -0.118938 0.153700 0.051027
v -0.131847 0.162760 0.049432
v -0.129815 0.164266 0.050231
v -0.129594 0.164277 0.048532
v -0.132214 0.162310 0.051177
v -0.095055 0.105121 0.053498
v -0.100252 0.117749 0.053703
v -0.125627 0.128874 0.056634
v -0.122919 0.128059 0.056144
v -0.121306 0.133327 0.054571
v -0.108086 0.120451 0.054704
v -0.117827 0.130752 0.055643
v -0.118042 0.137568 0.054826
v -0.127437 0.153561 0.050454
v -0.130893 0.139276 0.054480
v -0.135235 0.160401 0.050728
v -0.128798 0.154724 0.052074
v -0.115558 0.140990 0.053606
v -0.120741 0.146968 0.053132
v -0.138115 0.162861 0.059175
v -0.108053 0.155276 0.044890
v -0.121125 0.161863 0.046691
v -0.129188 0.167902 0.047649
v -0.130205 0.166663 0.048183
v -0.129697 0.167282 0.047913
v -0.127601 0.169837 0.047181
v -0.126375 0.167554 0.049813
v -0.124080 0.165951 0.048298
v -0.131037 0.172455 0.060401
v -0.150192 0.171378 0.050981
v -0.166341 0.188284 0.045274
v -0.160567 0.190956 0.049822
v -0.145943 0.176749 0.047649
v -0.153201 0.187175 0.048034
v -0.145434 0.177369 0.047913
v -0.144926 0.177988 0.048183
v -0.193466 0.222787 0.046379
v -0.159221 0.204627 0.054105
v -0.141540 0.167133 0.060391
v -0.143797 0.171587 0.060388
v -0.142750 0.176294 0.060401
v -0.126287 0.179117 0.048831
v -0.144570 0.178421 0.048372
v -0.145461 0.180526 0.048563
v -0.139172 0.183994 0.048378
v -0.148970 0.186188 0.048984
v -0.168594 0.199125 0.046317
v -0.173341 0.200792 0.045275
v -0.190236 0.221096 0.046190
v -0.170243 0.208564 0.048782
v -0.180926 0.221183 0.049125
v -0.148270 0.176307 0.048229
v -0.140831 0.183020 0.050015
v -0.145688 0.187944 0.051687
v -0.144122 0.181754 0.050942
v -0.151909 0.191388 0.049619
v -0.138259 0.186103 0.051021
v -0.166536 0.205346 0.052079
v -0.188252 0.228836 0.051050
v -0.160263 0.198983 0.052285
v -0.157086 0.208113 0.052947
v -0.142206 0.191243 0.051247
v -0.173758 0.221182 0.051335
v -0.173756 0.225425 0.052378
v -0.199062 0.230834 0.047898
v -0.209597 0.241756 0.048012
v -0.198328 0.232017 0.047096
v -0.209978 0.242214 0.047140
v -0.205820 0.242257 0.049475
v -0.232252 0.265950 0.048218
v -0.227185 0.261892 0.048275
v -0.231312 0.267093 0.048501
v -0.231103 0.267332 0.048861
v -0.191863 0.234646 0.049675
v -0.213217 0.249111 0.049261
v -0.229723 0.261213 0.048222
v -0.218014 0.256172 0.049685
v -0.231205 0.267223 0.048564
v -0.230838 0.267670 0.048602
v -0.230720 0.267814 0.048621
v -0.230602 0.267957 0.048636
v -0.230484 0.268101 0.048648
v -0.230366 0.268245 0.048656
v -0.230247 0.268389 0.048661
v -0.230165 0.268489 0.048672
v -0.195179 0.242664 0.050674
v -0.203767 0.246491 0.049533
v -0.196493 0.242983 0.051572
v -0.174424 0.228510 0.052836
v -0.180300 0.238886 0.053278
v -0.202056 0.252097 0.050755
v -0.199890 0.254547 0.051361
v -0.208865 0.247719 0.048664
v -0.217909 0.258130 0.049006
v -0.213195 0.255135 0.049303
v -0.208274 0.248628 0.050266
v -0.224264 0.257020 0.047849
v -0.216238 0.259841 0.049437
v -0.223954 0.265826 0.049200
v -0.225497 0.264110 0.049587
v -0.223546 0.266323 0.049271
v -0.223137 0.266820 0.049330
v -0.222728 0.267319 0.049378
v -0.223051 0.266010 0.049679
v -0.214967 0.264606 0.049814
v -0.222318 0.267818 0.049413
v -0.221907 0.268318 0.049437
v -0.221626 0.268660 0.049478
v -0.222229 0.267928 0.049589
v -0.211991 0.259807 0.050365
v -0.194939 0.244800 0.051913
v -0.139274 0.181373 0.058809
v -0.171781 0.219116 0.053300
v -0.133684 0.177335 0.060390
v -0.146341 0.206359 0.054737
v -0.147106 0.212044 0.056005
v -0.170443 0.224277 0.054185
v -0.152030 0.212880 0.056301
v -0.158271 0.212814 0.055355
v -0.164061 0.223230 0.054401
v -0.150700 0.216987 0.056625
v -0.169214 0.231210 0.054619
v -0.187505 0.245699 0.052735
v -0.186110 0.241700 0.052881
v -0.092085 -0.046811 0.048677
v -0.091969 -0.046869 0.048661
v -0.091802 -0.046953 0.048656
v -0.091636 -0.047036 0.048648
v -0.091469 -0.047120 0.048636
v -0.090659 -0.047525 0.048746
v -0.090620 -0.047545 0.048564
v -0.090661 -0.047524 0.048541
v -0.099955 -0.050129 0.049478
v -0.099559 -0.050327 0.049437
v -0.098981 -0.050616 0.049413
v -0.110828 -0.067222 0.050798
v -0.098403 -0.050906 0.049378
v -0.097551 -0.051333 0.049305
v -0.098949 -0.050673 0.049621
v -0.104058 -0.064666 0.049681
v -0.100390 -0.050409 0.049484
v -0.093936 -0.053022 0.048727
v -0.093281 -0.052687 0.049434
v -0.103902 -0.062669 0.049778
v -0.100316 -0.062814 0.050024
v -0.110189 -0.080314 0.050077
v -0.097437 -0.051287 0.049645
v -0.106240 -0.074666 0.049526
v -0.102529 -0.071239 0.048862
v -0.106337 -0.069830 0.050763
v -0.108553 -0.068460 0.050929
v -0.120151 -0.099517 0.051333
v -0.122453 -0.110331 0.050928
v -0.107711 -0.080643 0.050664
v -0.115963 -0.088906 0.052136
v -0.090835 -0.055674 0.047869
v -0.089108 -0.048300 0.048244
v -0.105667 -0.088509 0.047517
v -0.094574 -0.067435 0.047563
v -0.107185 -0.088081 0.048166
v -0.099499 -0.080526 0.047050
v -0.112092 -0.115846 0.045853
v -0.111679 -0.108088 0.048882
v -0.089836 -0.053565 0.048435
v -0.098934 -0.073150 0.048737
v -0.103753 -0.080508 0.049507
v -0.106956 -0.089155 0.049583
v -0.118694 -0.107554 0.051842
v -0.121207 -0.125515 0.048280
v -0.131566 -0.150372 0.049152
v -0.117776 -0.136871 0.045094
v -0.129082 -0.152644 0.047918
v -0.121431 -0.138137 0.049619
v -0.134062 -0.161471 0.048693
v -0.133646 -0.163908 0.048372
v -0.131801 -0.134119 0.051610
v -0.126733 -0.139752 0.051738
v -0.132078 -0.153132 0.051226
v -0.137525 -0.154016 0.050460
v -0.142103 -0.159673 0.050914
v -0.140382 -0.160535 0.051005
v -0.126518 -0.147804 0.050320
v -0.136498 -0.161236 0.049505
v -0.138856 -0.161277 0.050179
v -0.122430 -0.087171 0.052891
v -0.125824 -0.112026 0.053592
v -0.127242 -0.106716 0.052933
v -0.127398 -0.095343 0.053729
v -0.134242 -0.110663 0.054702
v -0.143239 -0.125009 0.056577
v -0.144515 -0.129421 0.056552
v -0.137483 -0.128012 0.054473
v -0.136421 -0.130931 0.055563
v -0.142756 -0.137571 0.054383
v -0.144844 -0.141384 0.054105
v -0.140627 -0.132190 0.054840
v -0.136100 -0.131143 0.053691
v -0.143933 -0.152067 0.051935
v -0.136946 -0.161280 0.050726
v -0.127081 -0.131113 0.052892
v -0.130502 -0.133095 0.053871
v -0.135305 -0.141333 0.053809
v -0.138282 -0.165184 0.060472
v -0.117109 -0.142577 0.044855
v -0.128754 -0.165424 0.047355
v -0.122507 -0.151883 0.047522
v -0.131711 -0.164877 0.047649
v -0.133145 -0.164159 0.048183
v -0.132429 -0.164517 0.047913
v -0.130098 -0.157863 0.049852
v -0.131147 -0.162091 0.051427
v -0.129057 -0.175643 0.058697
v -0.131901 -0.169705 0.060387
v -0.131308 -0.171845 0.060388
v -0.145277 -0.162314 0.050310
v -0.157678 -0.199625 0.044881
v -0.152274 -0.187844 0.046533
v -0.157396 -0.208934 0.045247
v -0.145745 -0.178610 0.047235
v -0.143420 -0.179774 0.047649
v -0.143986 -0.181778 0.049285
v -0.142702 -0.180133 0.047913
v -0.141986 -0.180492 0.048183
v -0.162967 -0.223019 0.045139
v -0.149279 -0.176006 0.052504
v -0.143806 -0.172229 0.060387
v -0.143671 -0.173620 0.060387
v -0.143230 -0.174946 0.060387
v -0.142158 -0.176602 0.060388
v -0.137565 -0.172325 0.048372
v -0.141485 -0.180743 0.048372
v -0.141666 -0.182919 0.048459
v -0.125581 -0.180502 0.048612
v -0.146016 -0.211681 0.050698
v -0.164432 -0.232836 0.047591
v -0.146515 -0.196121 0.050999
v -0.138755 -0.183522 0.049501
v -0.138236 -0.189711 0.050191
v -0.146460 -0.204509 0.052571
v -0.138888 -0.198396 0.051305
v -0.142268 -0.198415 0.052688
v -0.135155 -0.183913 0.050985
v -0.135265 -0.184043 0.050817
v -0.149925 -0.210339 0.051853
v -0.157804 -0.246055 0.052064
v -0.132490 -0.185296 0.050813
v -0.138677 -0.210864 0.053347
v -0.141188 -0.217669 0.053340
v -0.175475 -0.263554 0.046978
v -0.159568 -0.237636 0.048621
v -0.172180 -0.253354 0.046735
v -0.173497 -0.265335 0.047510
v -0.181187 -0.281871 0.048510
v -0.176261 -0.278351 0.048498
v -0.186070 -0.291322 0.047923
v -0.183545 -0.290512 0.048156
v -0.186340 -0.296180 0.048203
v -0.184662 -0.297030 0.048501
v -0.163873 -0.253529 0.050879
v -0.157681 -0.245910 0.050487
v -0.172009 -0.263397 0.049205
v -0.164384 -0.249117 0.050230
v -0.181977 -0.290881 0.049279
v -0.184511 -0.297106 0.048564
v -0.183994 -0.297365 0.048602
v -0.183828 -0.297448 0.048621
v -0.183662 -0.297531 0.048636
v -0.183495 -0.297614 0.048648
v -0.183329 -0.297698 0.048656
v -0.183162 -0.297781 0.048661
v -0.183046 -0.297839 0.048672
v -0.168842 -0.268328 0.049401
v -0.162380 -0.261986 0.051619
v -0.157402 -0.254167 0.051411
v -0.167362 -0.275807 0.050880
v -0.172197 -0.276478 0.050311
v -0.163347 -0.261057 0.050288
v -0.174739 -0.283081 0.049233
v -0.181709 -0.291323 0.049376
v -0.174078 -0.287047 0.049526
v -0.177881 -0.293168 0.049271
v -0.183302 -0.297671 0.048940
v -0.177305 -0.293456 0.049330
v -0.176728 -0.293745 0.049378
v -0.179630 -0.292461 0.049640
v -0.174141 -0.286444 0.050045
v -0.160715 -0.265687 0.051227
v -0.166537 -0.277073 0.050463
v -0.167173 -0.282562 0.050334
v -0.174983 -0.294365 0.049412
v -0.176150 -0.294034 0.049413
v -0.175572 -0.294324 0.049437
v -0.175176 -0.294522 0.049478
v -0.137208 -0.183842 0.050592
v -0.143133 -0.210977 0.054287
v -0.135446 -0.181286 0.058809
v -0.139848 -0.178171 0.060388
v -0.137662 -0.178566 0.060387
v -0.132711 -0.215003 0.056433
v -0.129824 -0.213119 0.056077
v -0.149049 -0.233118 0.053641
v -0.145427 -0.234734 0.054374
v -0.135594 -0.215151 0.056151
v -0.132452 -0.220093 0.056438
v -0.135444 -0.224755 0.055760
v -0.147666 -0.248502 0.053728
v -0.153127 -0.247496 0.053081
v -0.152874 -0.258672 0.052808
v -0.159535 -0.266697 0.051854
v 0.044883 -0.076261 0.048661
v 0.044765 -0.076405 0.048656
v 0.044647 -0.076549 0.048648
v 0.044966 -0.076161 0.048677
v 0.044529 -0.076693 0.048636
v 0.043986 -0.077353 0.048548
v 0.043926 -0.077427 0.048564
v 0.043360 -0.078116 0.048349
v 0.052102 -0.084946 0.048539
v 0.068884 -0.098807 0.048816
v 0.053505 -0.075991 0.049478
v 0.053224 -0.076333 0.049437
v 0.052607 -0.076863 0.049590
v 0.052813 -0.076832 0.049413
v 0.054206 -0.079324 0.049553
v 0.073107 -0.093876 0.051367
v 0.051585 -0.078328 0.049271
v 0.052403 -0.077332 0.049378
v 0.051994 -0.077830 0.049330
v 0.049086 -0.080630 0.049474
v 0.054704 -0.080893 0.049369
v 0.057893 -0.090081 0.049568
v 0.067097 -0.093956 0.049443
v 0.069663 -0.086269 0.050746
v 0.063058 -0.089282 0.049490
v 0.081084 -0.099226 0.052054
v 0.100170 -0.116628 0.052642
v 0.085406 -0.102905 0.051711
v 0.083231 -0.109878 0.049694
v 0.085921 -0.118353 0.050118
v 0.068586 -0.097253 0.050424
v 0.043244 -0.078257 0.048309
v 0.047946 -0.082758 0.048275
v 0.049711 -0.087026 0.047821
v 0.043486 -0.077957 0.048688
v 0.042074 -0.079783 0.048117
v 0.048198 -0.085989 0.048017
v 0.067864 -0.104917 0.047065
v 0.046881 -0.084298 0.048440
v 0.083274 -0.120557 0.046586
v 0.081044 -0.118898 0.047956
v 0.073490 -0.112760 0.046548
v 0.083377 -0.124297 0.045755
v 0.089273 -0.117155 0.049446
v 0.082275 -0.109079 0.051237
v 0.118009 -0.134145 0.053532
v 0.134850 -0.152186 0.051741
v 0.111877 -0.134648 0.051572
v 0.105997 -0.147207 0.045607
v 0.103903 -0.146425 0.045200
v 0.107494 -0.149488 0.048244
v 0.136111 -0.160370 0.049505
v 0.130561 -0.166230 0.048372
v 0.101444 -0.127694 0.050190
v 0.125860 -0.156727 0.049337
v 0.100101 -0.127737 0.052119
v 0.113842 -0.144716 0.052289
v 0.113015 -0.154848 0.048529
v 0.108436 -0.142041 0.051193
v 0.136649 -0.158819 0.050946
v 0.118938 -0.153700 0.051027
v 0.131847 -0.162760 0.049432
v 0.129815 -0.164266 0.050231
v 0.129594 -0.164277 0.048532
v 0.132214 -0.162310 0.051177
v 0.095055 -0.105121 0.053498
v 0.100252 -0.117749 0.053703
v 0.125627 -0.128874 0.056634
v 0.122919 -0.128059 0.056144
v 0.121306 -0.133327 0.054571
v 0.108086 -0.120451 0.054704
v 0.117827 -0.130752 0.055643
v 0.118042 -0.137568 0.054826
v 0.127437 -0.153561 0.050454
v 0.130893 -0.139276 0.054480
v 0.135235 -0.160401 0.050728
v 0.128798 -0.154724 0.052074
v 0.115558 -0.140990 0.053606
v 0.120741 -0.146968 0.053132
v 0.138115 -0.162861 0.059175
v 0.108053 -0.155276 0.044890
v 0.121125 -0.161863 0.046691
v 0.129188 -0.167902 0.047649
v 0.130205 -0.166663 0.048183
v 0.129697 -0.167282 0.047913
v 0.127601 -0.169837 0.047181
v 0.126375 -0.167554 0.049813
v 0.124080 -0.165951 0.048298
v 0.131037 -0.172455 0.060401
v 0.150192 -0.171378 0.050981
v 0.166341 -0.188284 0.045274
v 0.160567 -0.190956 0.049822
v 0.145943 -0.176749 0.047649
v 0.153201 -0.187175 0.048034
v 0.145434 -0.177369 0.047913
v 0.144926 -0.177988 0.048183
v 0.193466 -0.222787 0.046379
v 0.159221 -0.204627 0.054105
v 0.141540 -0.167133 0.060391
v 0.143797 -0.171587 0.060388
v 0.142750 -0.176294 0.060401
v 0.126287 -0.179117 0.048831
v 0.144570 -0.178421 0.048372
v 0.145461 -0.180526 0.048563
v 0.139172 -0.183994 0.048378
v 0.148970 -0.186188 0.048984
v 0.168594 -0.199125 0.046317
v 0.173341 -0.200792 0.045275
v 0.190236 -0.221096 0.046190
v 0.170243 -0.208564 0.048782
v 0.180926 -0.221183 0.049125
v 0.148270 -0.176307 0.048229
v 0.140831 -0.183020 0.050015
v 0.145688 -0.187944 0.051687
v 0.144122 -0.181754 0.050942
v 0.151909 -0.191388 0.049619
v 0.138259 -0.186103 0.051021
v 0.166536 -0.205346 0.052079
v 0.188252 -0.228836 0.051050
v 0.160263 -0.198983 0.052285
v 0.157086 -0.208113 0.052947
v 0.142206 -0.191243 0.051247
v 0.173758 -0.221182 0.051335
v 0.173756 -0.225425 0.052378
v 0.199062 -0.230834 0.047898
v 0.209597 -0.241756 0.048012
v 0.198328 -0.232017 0.047096
v 0.209978 -0.242214 0.047140
v 0.205820 -0.242257 0.049475
v 0.232252 -0.265950 0.048218
v 0.227185 -0.261892 0.048275
v 0.231312 -0.267093 0.048501
v 0.231103 -0.267332 0.048861
v 0.191863 -0.234646 0.049675
v 0.213217 -0.249111 0.049261
v 0.229723 -0.261213 0.048222
v 0.218014 -0.256172 0.049685
v 0.231205 -0.267223 0.048564
v 0.230838 -0.267670 0.048602
v 0.230720 -0.267814 0.048621
v 0.230602 -0.267957 0.048636
v 0.230484 -0.268101 0.048648
v 0.230366 -0.268245 0.048656
v 0.230247 -0.268389 0.048661
v 0.230165 -0.268489 0.048672
v 0.195179 -0.242664 0.050674
v 0.203767 -0.246491 0.049533
v 0.196493 -0.242983 0.051572
v 0.174424 -0.228510 0.052836
v 0.180300 -0.238886 0.053278
v 0.202056 -0.252097 0.050755
v 0.199890 -0.254547 0.051361
v 0.208865 -0.247719 0.048664
v 0.217909 -0.258130 0.049006
v 0.213195 -0.255135 0.049303
v 0.208274 -0.248628 0.050266
v 0.224264 -0.257020 0.047849
v 0.216238 -0.259841 0.049437
v 0.223954 -0.265826 0.049200
v 0.225497 -0.264110 0.049587
v 0.223546 -0.266323 0.049271
v 0.223137 -0.266820 0.049330
v 0.222728 -0.267319 0.049378
v 0.223051 -0.266010 0.049679
v 0.214967 -0.264606 0.049814
v 0.222318 -0.267818 0.049413
v 0.221907 -0.268318 0.049437
v 0.221626 -0.268660 0.049478
v 0.222229 -0.267928 0.049589
v 0.211991 -0.259807 0.050365
v 0.194939 -0.244800 0.051913
v 0.139274 -0.181373 0.058809
v 0.171781 -0.219116 0.053300
v 0.133684 -0.177335 0.060390
v 0.146341 -0.206359 0.054737
v 0.147106 -0.212044 0.056005
v 0.170443 -0.224277 0.054185
v 0.152030 -0.212880 0.056301
v 0.158271 -0.212814 0.055355
v 0.164061 -0.223230 0.054401
v 0.150700 -0.216987 0.056625
v 0.169214 -0.231210 0.054619
v 0.187505 -0.245699 0.052735
v 0.186110 -0.241700 0.052881
g target
f 2 7 5
f 2 5 56
f 5 4 56
f 7 2 8
f 2 3 8
f 6 7 11
f 9 11 7
f 8 9 7
f 6 5 7
f 11 9 12
f 6 11 10
f 12 14 13
f 6 17 5
f 17 4 5
f 17 10 21
f 4 17 41
f 6 10 17
f 10 19 21
f 10 46 19
f 4 34 56
f 4 35 34
f 34 37 56
f 35 37 34
f 35 36 37
f 37 39 75
f 37 38 39
f 41 35 4
f 41 47 35
f 50 47 46
f 35 47 36
f 37 36 38
f 38 48 39
f 38 49 48
f 47 50 36
f 36 50 132
f 132 140 36
f 48 51 103
f 140 38 36
f 48 49 51
f 2 53 3
f 3 53 55
f 2 56 53
f 56 64 53
f 3 54 8
f 8 54 59
f 3 55 54
f 8 59 9
f 54 55 61
f 61 55 70
f 9 59 60
f 59 62 60
f 54 61 59
f 12 9 62
f 9 60 62
f 12 62 14
f 59 61 62
f 62 61 178
f 61 182 178
f 61 70 182
f 53 64 55
f 55 66 63
f 55 63 70
f 55 64 66
f 64 71 66
f 64 72 71
f 63 69 70
f 56 73 64
f 56 75 73
f 56 37 75
f 75 76 73
f 73 76 77
f 73 77 64
f 64 92 72
f 64 93 92
f 69 98 70
f 69 99 98
f 39 48 75
f 75 48 100
f 75 100 101
f 75 101 76
f 77 76 102
f 100 48 101
f 76 101 102
f 48 103 101
f 77 102 105
f 93 64 104
f 104 99 93
f 64 77 104
f 99 104 105
f 104 77 105
f 102 101 106
f 106 105 102
f 51 52 103
f 105 203 107
f 106 203 105
f 105 108 99
f 108 98 99
f 108 105 107
f 117 10 111
f 12 13 112
f 12 112 11
f 10 11 112
f 10 112 111
f 112 13 113
f 112 113 114
f 112 114 111
f 113 115 114
f 113 13 115
f 111 114 126
f 114 115 116
f 10 117 46
f 46 117 120
f 117 118 120
f 111 118 117
f 118 111 121
f 111 119 121
f 119 128 167
f 111 126 125
f 114 116 126
f 125 126 127
f 127 126 172
f 111 125 119
f 125 128 119
f 125 127 128
f 128 127 170
f 127 172 170
f 120 50 46
f 120 132 50
f 128 139 167
f 38 140 49
f 49 140 141
f 140 148 141
f 141 52 49
f 51 49 52
f 141 143 52
f 52 143 144
f 52 145 142
f 52 144 147
f 52 147 145
f 134 139 132
f 132 139 140
f 139 148 140
f 149 148 174
f 146 174 148
f 202 149 208
f 148 149 141
f 141 149 143
f 145 147 142
f 142 147 149
f 149 150 142
f 149 144 143
f 149 147 144
f 150 149 202
f 128 170 139
f 139 170 169
f 139 169 148
f 148 169 170
f 170 171 174
f 172 171 170
f 172 173 175
f 170 146 148
f 170 174 146
f 174 171 149
f 149 175 208
f 149 171 172
f 149 172 175
f 62 178 176
f 62 176 14
f 178 182 180
f 13 14 115
f 14 176 115
f 178 180 176
f 115 177 116
f 116 177 126
f 115 176 177
f 176 179 177
f 176 180 181
f 176 181 179
f 180 182 181
f 182 183 181
f 182 70 183
f 181 183 184
f 183 70 185
f 181 184 199
f 126 177 187
f 177 179 187
f 126 187 188
f 126 188 172
f 188 187 172
f 187 179 172
f 172 179 209
f 181 189 179
f 189 181 209
f 189 209 179
f 181 210 209
f 98 194 70
f 185 70 193
f 70 194 193
f 181 199 197
f 181 197 213
f 210 181 213
f 205 213 197
f 52 142 103
f 103 142 101
f 101 142 106
f 106 202 203
f 142 202 106
f 203 202 204
f 108 107 98
f 98 205 194
f 107 201 98
f 98 201 205
f 107 207 201
f 107 206 207
f 213 206 212
f 207 206 213
f 202 142 150
f 203 206 107
f 203 212 206
f 203 204 212
f 202 208 204
f 212 204 208
f 205 201 207
f 205 207 213
f 172 209 211
f 209 210 213
f 172 211 173
f 211 212 173
f 209 213 211
f 175 173 208
f 211 213 212
f 208 173 212
f 184 183 192
f 192 186 184
f 185 192 183
f 186 199 184
f 186 192 190
f 192 185 193
f 193 194 195
f 192 193 196
f 197 199 198
f 198 200 197
f 192 196 216
f 195 194 205
f 193 195 196
f 200 205 197
f 205 200 195
f 196 195 215
f 199 186 198
f 190 214 186
f 186 214 198
f 192 216 219
f 196 215 216
f 216 217 219
f 190 218 214
f 192 219 190
f 217 191 219
f 219 191 190
f 190 191 218
f 216 215 217
f 198 220 224
f 224 220 215
f 217 215 191
f 215 220 222
f 215 222 191
f 214 218 198
f 220 198 221
f 198 218 221
f 191 221 218
f 191 220 221
f 191 222 220
f 200 223 195
f 195 223 215
f 200 198 223
f 198 224 223
f 223 224 215
f 87 89 63
f 87 65 71
f 65 87 63
f 65 66 71
f 66 65 63
f 68 69 63
f 67 68 63
f 67 63 89
f 71 72 86
f 57 88 58
f 58 88 87
f 88 57 81
f 57 58 78
f 86 79 57
f 86 57 78
f 57 79 82
f 88 81 89
f 82 80 57
f 80 81 57
f 81 90 83
f 80 90 81
f 81 85 89
f 83 84 81
f 87 71 78
f 87 78 58
f 71 86 78
f 87 88 89
f 86 74 82
f 79 86 82
f 74 80 82
f 72 74 86
f 109 89 85
f 84 83 85
f 84 85 81
f 91 85 83
f 83 90 91
f 74 94 80
f 90 94 91
f 80 94 90
f 68 67 97
f 74 92 93
f 72 92 74
f 93 99 74
f 99 94 74
f 95 96 99
f 99 96 94
f 95 94 96
f 95 110 94
f 68 97 69
f 110 69 97
f 110 95 69
f 95 99 69
f 109 67 89
f 109 91 97
f 67 109 97
f 85 91 109
f 97 91 110
f 94 110 91
f 29 15 20
f 29 20 30
f 21 15 16
f 20 15 18
f 16 17 21
f 15 21 18
f 20 18 21
f 20 21 19
f 20 19 46
f 1 23 22
f 22 23 26
f 22 26 25
f 23 28 26
f 25 26 27
f 27 32 25
f 23 1 24
f 23 24 28
f 22 29 1
f 22 25 29
f 29 25 31
f 25 40 31
f 1 29 30
f 15 31 40
f 29 31 15
f 1 30 24
f 25 32 40
f 24 45 28
f 27 33 32
f 26 33 27
f 26 28 33
f 33 28 43
f 33 43 32
f 40 16 15
f 40 32 42
f 16 40 17
f 40 41 17
f 41 40 42
f 30 20 45
f 30 45 24
f 42 32 41
f 32 43 41
f 45 43 28
f 44 43 47
f 44 47 41
f 43 44 41
f 45 47 43
f 20 46 45
f 45 46 47
f 118 135 120
f 121 151 118
f 122 151 119
f 151 135 118
f 151 121 119
f 122 119 167
f 122 123 151
f 151 130 135
f 151 129 130
f 135 130 137
f 120 131 133
f 133 132 120
f 133 131 132
f 131 138 132
f 138 134 132
f 131 135 137
f 120 135 131
f 136 167 139
f 131 137 138
f 134 136 139
f 154 138 137
f 134 138 136
f 156 157 151
f 151 157 129
f 130 129 137
f 123 156 151
f 123 122 156
f 137 129 153
f 137 153 154
f 156 124 157
f 124 159 157
f 124 162 159
f 156 158 124
f 124 158 162
f 129 157 153
f 162 155 159
f 153 161 154
f 161 164 154
f 164 161 163
f 159 153 157
f 159 161 153
f 159 160 161
f 163 161 160
f 159 163 160
f 152 156 122
f 156 152 158
f 152 168 158
f 168 162 158
f 159 155 163
f 168 155 162
f 138 165 166
f 154 165 138
f 154 166 165
f 138 166 155
f 154 164 163
f 154 163 166
f 166 163 155
f 122 167 152
f 167 136 168
f 152 167 168
f 168 136 155
f 138 155 136
f 225 232 228
f 233 232 225
f 234 233 225
f 229 235 234
f 226 247 229
f 237 236 227
f 238 237 227
f 239 238 227
f 230 239 227
f 231 239 230
f 229 246 235
f 239 251 237
f 238 239 237
f 240 273 231
f 228 240 231
f 241 240 228
f 232 241 228
f 253 241 232
f 243 253 232
f 242 243 232
f 233 242 232
f 243 242 233
f 244 243 233
f 234 244 233
f 245 244 234
f 254 245 234
f 235 254 234
f 246 255 235
f 247 246 229
f 226 248 247
f 227 248 226
f 249 248 227
f 250 249 227
f 236 250 227
f 237 250 236
f 252 251 239
f 273 252 239
f 231 273 239
f 248 259 247
f 249 250 248
f 251 261 237
f 243 241 253
f 256 241 243
f 244 256 243
f 257 256 244
f 245 257 244
f 254 257 245
f 235 257 254
f 247 255 246
f 258 255 247
f 259 258 247
f 260 259 248
f 250 260 248
f 237 260 250
f 262 261 251
f 252 262 251
f 240 263 273
f 241 263 240
f 235 268 257
f 255 268 235
f 237 261 260
f 273 272 252
f 274 276 263
f 241 274 263
f 264 274 241
f 256 264 241
f 257 265 256
f 266 265 257
f 267 266 257
f 268 267 257
f 269 259 260
f 261 269 260
f 271 270 261
f 262 271 261
f 252 272 262
f 266 264 256
f 265 266 256
f 268 266 267
f 258 280 255
f 259 280 258
f 261 275 269
f 270 282 261
f 262 272 271
f 273 284 272
f 263 289 273
f 274 277 276
f 264 291 274
f 278 291 264
f 279 278 264
f 266 279 264
f 269 281 259
f 275 297 269
f 261 297 275
f 282 297 261
f 288 282 270
f 271 288 270
f 272 283 271
f 284 283 272
f 276 289 263
f 291 277 274
f 268 285 279
f 266 268 279
f 280 286 255
f 259 286 280
f 269 287 281
f 297 287 269
f 283 288 271
f 284 288 283
f 273 301 284
f 289 301 273
f 290 289 276
f 306 290 276
f 277 306 276
f 291 306 277
f 278 292 291
f 293 292 278
f 294 293 278
f 279 294 278
f 285 294 279
f 295 285 268
f 255 295 268
f 286 310 255
f 281 296 259
f 287 296 281
f 299 298 297
f 282 299 297
f 300 299 282
f 288 300 282
f 284 301 288
f 290 302 289
f 303 306 291
f 294 292 293
f 255 304 295
f 259 296 286
f 297 298 287
f 288 320 300
f 302 305 289
f 307 303 291
f 292 307 291
f 308 307 292
f 294 308 292
f 285 309 294
f 295 309 285
f 304 309 295
f 326 304 255
f 310 326 255
f 296 310 286
f 311 310 296
f 296 318 311
f 298 318 296
f 287 298 296
f 300 320 299
f 313 320 288
f 301 313 288
f 314 313 301
f 305 314 301
f 289 305 301
f 290 315 302
f 306 316 290
f 309 308 294
f 311 326 310
f 319 318 298
f 299 312 298
f 320 312 299
f 314 320 313
f 305 330 314
f 302 315 305
f 321 334 290
f 316 321 290
f 306 321 316
f 317 321 306
f 303 317 306
f 308 303 307
f 309 323 308
f 324 323 309
f 325 324 309
f 304 325 309
f 327 326 311
f 328 327 311
f 318 328 311
f 319 328 318
f 332 329 298
f 312 332 298
f 320 332 312
f 314 340 320
f 330 340 314
f 305 315 330
f 290 334 315
f 303 322 317
f 308 323 303
f 304 324 325
f 331 342 304
f 326 331 304
f 337 331 326
f 327 337 326
f 298 329 319
f 340 339 320
f 315 333 330
f 322 341 321
f 317 322 321
f 303 335 322
f 323 335 303
f 324 336 323
f 342 336 324
f 304 342 324
f 328 337 327
f 343 337 328
f 329 343 328
f 319 329 328
f 332 338 329
f 320 339 332
f 330 333 340
f 334 333 315
f 321 341 334
f 335 341 322
f 336 335 323
f 337 342 331
f 338 343 329
f 339 338 332
f 340 338 339
f 333 344 340
f 228 231 345
f 225 228 345
f 234 225 345
f 229 234 345
f 226 229 345
f 227 226 345
f 230 227 345
f 231 230 345
f 341 333 334
f 341 335 336
f 341 336 342
f 341 342 337
f 341 337 343
f 341 343 338
f 341 338 340
f 341 340 344
f 341 344 333
f 427 429 426
f 427 430 429
f 427 437 430
f 427 434 432
f 427 435 433
f 427 433 434
f 427 431 437
f 427 432 431
f 429 436 426
f 427 428 435
f 437 429 430
f 428 433 435
f 431 432 437
f 433 432 434
f 427 447 428
f 429 439 436
f 437 449 429
f 428 438 433
f 432 443 437
f 433 443 432
f 439 426 436
f 447 438 428
f 440 439 429
f 449 440 429
f 441 449 437
f 443 441 437
f 438 442 433
f 442 443 433
f 426 444 427
f 439 444 426
f 427 444 447
f 443 449 441
f 439 445 444
f 449 445 439
f 444 446 447
f 445 446 444
f 446 448 447
f 445 448 446
f 447 448 438
f 449 439 440
f 451 449 443
f 445 449 448
f 452 451 443
f 450 452 443
f 453 450 443
f 442 453 443
f 438 448 442
f 442 448 453
f 451 448 449
f 452 448 451
f 450 448 452
f 453 448 450
f 377 379 374
f 377 376 375
f 377 378 376
f 377 374 378
f 375 379 377
f 379 380 374
f 380 382 374
f 376 381 375
f 374 387 378
f 382 387 374
f 380 384 382
f 381 386 375
f 376 386 381
f 379 383 380
f 383 384 380
f 384 385 382
f 385 387 382
f 378 389 376
f 387 390 378
f 388 386 376
f 389 388 376
f 390 389 378
f 379 391 383
f 375 391 379
f 386 391 375
f 385 397 387
f 387 400 390
f 387 399 400
f 386 394 391
f 392 383 391
f 394 392 391
f 396 383 392
f 383 393 384
f 384 393 385
f 383 396 393
f 395 386 388
f 396 392 394
f 395 394 386
f 396 394 395
f 393 397 385
f 397 398 387
f 398 399 387
f 396 397 393
f 396 395 399
f 399 395 390
f 397 396 398
f 398 396 399
f 389 395 388
f 400 399 390
f 390 395 389
f 346 354 353
f 346 348 354
f 346 350 348
f 346 347 355
f 346 349 351
f 346 355 349
f 346 351 350
f 353 352 346
f 352 347 346
f 351 349 350
f 350 358 348
f 352 356 347
f 354 357 353
f 348 357 354
f 347 363 355
f 353 359 352
f 359 356 352
f 356 363 347
f 363 349 355
f 358 357 348
f 372 358 350
f 349 372 350
f 357 359 353
f 363 360 349
f 373 367 358
f 372 373 358
f 360 372 349
f 359 361 356
f 358 367 357
f 357 361 359
f 357 365 361
f 365 362 361
f 362 363 356
f 361 362 356
f 364 365 357
f 366 364 357
f 368 366 357
f 365 364 366
f 365 366 368
f 365 368 370
f 367 368 357
f 370 368 367
f 365 369 362
f 362 369 363
f 365 371 369
f 365 370 371
f 363 369 360
f 360 369 372
f 371 370 372
f 369 371 372
f 372 370 373
f 370 367 373
f 401 403 402
f 401 405 403
f 401 406 405
f 401 408 406
f 401 407 408
f 401 404 407
f 406 403 405
f 401 410 404
f 402 410 401
f 406 413 403
f 408 414 406
f 404 412 407
f 407 415 408
f 411 409 402
f 403 411 402
f 410 412 404
f 413 416 403
f 414 413 406
f 412 415 407
f 402 409 410
f 403 416 411
f 408 415 414
f 410 418 412
f 412 425 415
f 411 417 409
f 409 417 410
f 420 417 411
f 418 419 412
f 419 424 412
f 417 418 410
f 417 419 418
f 417 422 419
f 413 411 416
f 415 421 414
f 413 420 411
f 417 420 421
f 417 421 423
f 421 420 413
f 423 421 415
f 414 421 413
f 424 425 412
f 417 423 422
f 419 422 425
f 422 423 425
f 424 419 425
f 425 423 415
f 531 555 464
f 531 464 530
f 530 532 557
f 530 555 531
f 530 557 555
f 581 583 582
f 507 608 581
f 581 608 609
f 581 609 583
f 464 555 454
f 468 534 454
f 468 470 492
f 468 472 470
f 454 472 468
f 472 454 470
f 470 454 467
f 470 467 489
f 454 555 488
f 454 489 467
f 488 489 454
f 470 523 521
f 470 489 523
f 489 524 523
f 468 492 534
f 491 534 493
f 534 492 493
f 470 508 492
f 493 492 508
f 493 508 581
f 581 508 507
f 470 521 508
f 523 524 521
f 524 522 521
f 521 526 508
f 521 522 526
f 507 508 526
f 522 612 526
f 454 534 527
f 454 529 530
f 527 529 454
f 454 530 464
f 527 532 529
f 529 532 530
f 527 533 532
f 527 528 533
f 533 537 532
f 532 558 557
f 532 537 558
f 534 535 527
f 534 578 535
f 528 527 539
f 527 535 539
f 528 536 533
f 533 536 546
f 533 546 569
f 550 595 546
f 488 555 489
f 555 557 558
f 555 558 556
f 555 556 489
f 489 556 559
f 559 490 489
f 490 559 556
f 556 558 490
f 558 564 572
f 558 572 490
f 489 490 524
f 490 572 621
f 490 621 624
f 558 537 560
f 537 562 560
f 533 566 537
f 537 566 562
f 560 561 558
f 558 561 564
f 533 569 566
f 569 572 573
f 569 574 572
f 564 573 572
f 491 577 534
f 534 577 578
f 577 491 585
f 577 585 578
f 491 579 585
f 585 579 586
f 491 493 580
f 493 581 580
f 491 580 582
f 580 581 582
f 491 582 579
f 579 582 583
f 579 583 584
f 578 585 535
f 535 585 586
f 539 535 586
f 539 586 587
f 539 587 550
f 550 587 591
f 550 591 595
f 590 604 605
f 579 604 586
f 579 584 604
f 604 584 610
f 524 606 522
f 522 606 607
f 490 624 524
f 524 624 606
f 507 526 608
f 608 613 609
f 526 613 608
f 583 609 584
f 584 609 610
f 609 611 610
f 522 607 612
f 612 613 526
f 607 613 612
f 607 606 613
f 624 630 606
f 606 630 611
f 613 606 611
f 609 613 611
f 619 615 625
f 619 614 615
f 621 623 624
f 625 615 624
f 590 628 619
f 619 628 626
f 614 619 626
f 605 628 590
f 605 604 628
f 611 629 628
f 629 611 630
f 604 610 628
f 610 611 628
f 630 624 635
f 624 615 635
f 546 549 569
f 549 546 595
f 549 595 602
f 549 602 596
f 549 576 569
f 549 596 576
f 569 576 574
f 596 570 576
f 622 574 617
f 576 617 574
f 595 619 602
f 596 602 620
f 602 619 617
f 602 617 620
f 619 625 617
f 617 625 622
f 576 570 617
f 596 616 571
f 596 571 570
f 596 620 616
f 571 616 618
f 616 620 618
f 570 618 617
f 570 571 618
f 620 617 618
f 528 538 536
f 536 538 543
f 528 539 540
f 528 540 538
f 539 550 540
f 538 545 543
f 536 543 546
f 546 543 547
f 546 547 550
f 543 550 547
f 550 551 540
f 551 550 543
f 538 540 545
f 540 541 545
f 540 542 541
f 545 544 543
f 543 545 548
f 544 545 543
f 545 554 548
f 543 548 554
f 542 540 552
f 540 551 552
f 541 542 545
f 542 552 545
f 545 552 551
f 553 543 554
f 551 543 553
f 545 551 553
f 545 553 554
f 587 586 588
f 586 604 589
f 586 589 588
f 588 589 592
f 587 588 591
f 591 588 595
f 595 588 593
f 588 592 593
f 595 593 599
f 595 603 619
f 595 599 603
f 590 619 603
f 593 603 599
f 604 590 598
f 604 598 589
f 590 603 598
f 593 592 594
f 594 592 600
f 592 601 600
f 589 598 597
f 589 597 592
f 592 597 598
f 603 593 601
f 603 601 598
f 592 598 601
f 593 594 600
f 593 600 601
f 575 572 574
f 575 621 572
f 575 574 622
f 575 622 625
f 575 625 621
f 625 623 621
f 625 624 623
f 562 566 565
f 561 560 562
f 561 562 563
f 563 567 561
f 562 565 563
f 563 565 568
f 561 567 564
f 563 568 567
f 568 573 567
f 566 569 565
f 568 569 573
f 565 569 568
f 567 573 564
f 614 631 615
f 635 615 632
f 626 631 614
f 626 628 627
f 627 632 626
f 630 633 629
f 631 632 615
f 627 628 632
f 628 629 632
f 626 632 631
f 633 634 629
f 629 634 632
f 633 632 634
f 635 636 630
f 636 633 630
f 635 632 636
f 632 633 636
f 455 457 459
f 457 458 459
f 458 469 459
f 469 463 459
f 457 460 458
f 455 460 457
f 455 456 460
f 459 465 455
f 459 463 465
f 455 465 466
f 455 466 456
f 461 456 466
f 463 469 465
f 465 462 466
f 461 466 462
f 462 465 461
f 458 471 469
f 460 471 458
f 460 461 471
f 471 465 469
f 471 461 465
f 456 461 487
f 456 487 460
f 460 487 461
f 494 502 501
f 495 502 494
f 496 497 494
f 494 497 495
f 494 498 496
f 494 501 498
f 498 499 496
f 504 496 499
f 498 501 502
f 500 503 498
f 498 503 499
f 496 504 497
f 503 504 499
f 502 495 506
f 505 506 495
f 502 506 500
f 495 497 505
f 497 504 505
f 506 505 500
f 500 505 503
f 504 503 505
f 498 502 525
f 498 525 500
f 502 500 525
f 477 473 483
f 475 476 473
f 473 476 483
f 473 477 480
f 477 479 478
f 477 478 480
f 473 480 474
f 480 478 474
f 474 478 481
f 477 483 479
f 483 486 479
f 479 482 478
f 478 482 481
f 479 485 482
f 474 484 473
f 484 475 473
f 475 486 483
f 476 475 483
f 474 481 484
f 484 481 485
f 475 484 486
f 485 486 484
f 479 486 485
f 482 485 481
f 509 510 517
f 510 512 511
f 509 513 510
f 510 513 514
f 512 510 514
f 509 515 516
f 516 519 513
f 516 513 509
f 509 517 515
f 510 511 517
f 517 511 518
f 517 516 515
f 517 518 516
f 516 518 519
f 511 512 518
f 512 514 518
f 513 520 514
f 519 520 513
f 519 514 520
f 518 514 519
f 694 764 706
f 698 701 702
f 698 703 701
f 698 702 703
f 703 699 701
f 703 702 704
f 703 704 705
f 703 705 699
f 706 746 696
f 746 705 707
f 749 745 760
f 750 764 694
f 745 694 706
f 745 706 760
f 694 749 750
f 745 749 694
f 747 755 752
f 750 755 747
f 750 747 764
f 764 747 761
f 761 747 752
f 765 748 746
f 760 751 749
f 750 749 755
f 760 746 751
f 751 748 754
f 753 756 754
f 749 751 755
f 752 755 751
f 751 754 756
f 756 759 751
f 751 746 748
f 748 753 754
f 752 751 770
f 748 767 753
f 753 757 756
f 751 772 770
f 753 767 757
f 767 766 757
f 757 781 756
f 772 751 780
f 781 758 756
f 758 782 759
f 756 758 759
f 751 759 780
f 706 696 760
f 764 761 752
f 760 696 746
f 764 752 770
f 765 767 748
f 767 768 766
f 766 768 781
f 780 782 771
f 765 746 767
f 746 707 768
f 746 768 767
f 773 707 776
f 768 707 773
f 780 771 772
f 773 776 777
f 773 777 779
f 773 779 774
f 782 774 771
f 782 773 774
f 757 766 781
f 759 782 780
f 768 773 781
f 781 773 758
f 758 773 782
f 672 674 673
f 672 673 686
f 672 686 700
f 673 676 675
f 673 674 676
f 676 762 675
f 672 692 674
f 675 681 677
f 672 697 688
f 672 688 692
f 674 692 678
f 675 762 683
f 674 678 684
f 700 689 672
f 675 677 673
f 673 677 685
f 675 682 681
f 675 683 682
f 677 681 679
f 673 685 686
f 672 689 697
f 677 679 685
f 679 681 687
f 674 690 676
f 674 684 690
f 692 680 678
f 678 680 684
f 690 691 676
f 676 691 762
f 692 693 680
f 680 695 684
f 680 693 695
f 684 695 690
f 679 687 685
f 685 700 686
f 685 687 700
f 687 681 707
f 687 707 700
f 697 706 688
f 695 763 690
f 688 764 692
f 688 706 764
f 692 764 693
f 693 764 695
f 700 701 689
f 689 746 697
f 697 746 706
f 689 701 699
f 689 699 746
f 700 702 701
f 700 704 702
f 700 705 704
f 746 699 705
f 682 683 707
f 682 707 681
f 700 707 705
f 690 763 691
f 691 763 772
f 762 691 769
f 695 770 763
f 695 764 770
f 762 769 683
f 691 772 769
f 763 770 772
f 769 772 771
f 683 769 771
f 683 771 707
f 771 776 707
f 775 771 774
f 778 776 771
f 778 777 776
f 778 779 777
f 775 779 778
f 775 778 771
f 775 774 779
f 667 659 708
f 721 670 662
f 728 663 665
f 728 665 671
f 721 662 667
f 728 671 668
f 728 733 663
f 712 721 708
f 712 670 721
f 659 713 708
f 659 710 713
f 713 710 709
f 709 710 725
f 659 722 710
f 722 725 710
f 708 713 712
f 713 714 712
f 712 714 715
f 670 712 716
f 713 709 714
f 714 709 725
f 716 728 668
f 725 711 714
f 712 715 716
f 711 718 714
f 715 714 718
f 716 717 719
f 718 744 715
f 716 715 717
f 716 668 670
f 728 716 727
f 727 716 719
f 720 719 717
f 727 719 720
f 720 717 742
f 717 744 736
f 735 743 718
f 715 744 717
f 667 708 721
f 659 667 722
f 667 725 722
f 725 667 730
f 725 730 726
f 725 726 711
f 726 730 711
f 711 730 718
f 727 742 728
f 718 730 735
f 734 731 732
f 734 739 731
f 734 732 739
f 733 728 736
f 735 730 733
f 739 737 731
f 739 741 737
f 739 732 738
f 739 738 741
f 733 730 741
f 733 736 744
f 720 742 727
f 717 736 742
f 735 733 743
f 718 743 744
f 728 742 736
f 743 733 744
f 652 638 637
f 652 643 638
f 637 651 652
f 638 639 637
f 637 639 646
f 637 646 640
f 637 640 654
f 640 648 645
f 640 642 654
f 638 650 639
f 640 645 642
f 638 656 641
f 643 644 638
f 638 641 650
f 639 650 649
f 638 644 656
f 643 653 644
f 639 649 646
f 642 645 658
f 645 648 647
f 642 658 654
f 645 647 658
f 649 724 646
f 646 724 640
f 650 729 649
f 724 657 640
f 640 657 648
f 644 653 656
f 637 654 661
f 654 658 655
f 654 655 661
f 637 661 651
f 651 661 662
f 649 729 724
f 641 660 650
f 648 723 647
f 648 657 723
f 655 658 667
f 658 647 667
f 647 723 667
f 650 660 729
f 652 666 643
f 651 662 652
f 655 667 661
f 653 740 656
f 652 662 666
f 666 662 663
f 643 666 653
f 664 663 662
f 664 665 663
f 664 671 665
f 661 667 662
f 656 740 641
f 641 740 660
f 669 670 668
f 664 662 669
f 664 669 671
f 669 662 670
f 669 668 671
f 666 663 733
f 666 733 653
f 653 733 740
f 723 657 667
f 657 730 667
f 724 730 657
f 729 730 724
f 660 731 729
f 660 740 731
f 729 737 730
f 740 733 741
f 740 732 731
f 729 731 737
f 740 738 732
f 740 741 738
f 730 737 741
f 784 786 783
f 787 784 783
f 783 786 785
f 785 787 783
f 784 790 786
f 788 784 787
f 788 790 784
f 786 790 785
f 789 787 785
f 785 790 789
f 789 788 787
f 790 788 789
f 792 793 791
f 791 794 792
f 793 794 791
f 794 793 792
f 796 797 795
f 795 798 796
f 797 798 795
f 798 797 796
f 889 848 904
f 848 849 904
f 889 858 848
f 848 858 857
f 889 873 858
f 889 885 873
f 889 877 885
f 904 849 879
f 907 904 879
f 907 879 885
f 907 885 886
f 887 877 888
f 885 877 887
f 885 887 888
f 888 877 886
f 885 888 886
f 889 904 899
f 899 904 895
f 904 905 895
f 899 895 968
f 889 899 877
f 899 901 900
f 899 968 971
f 901 899 902
f 902 899 903
f 899 900 877
f 900 901 877
f 899 971 903
f 901 902 877
f 902 903 877
f 903 971 877
f 904 906 905
f 904 907 906
f 906 907 911
f 907 968 911
f 907 970 968
f 907 886 970
f 972 971 968
f 877 971 972
f 877 972 970
f 972 968 970
f 877 970 886
f 893 891 895
f 891 893 894
f 893 905 894
f 894 896 891
f 893 895 905
f 894 905 896
f 891 896 897
f 896 905 897
f 891 897 890
f 898 890 892
f 898 909 890
f 891 910 895
f 897 905 906
f 897 906 890
f 890 906 911
f 898 925 909
f 892 908 898
f 908 924 898
f 910 913 895
f 890 911 912
f 891 913 910
f 890 908 892
f 890 912 914
f 890 914 908
f 915 968 895
f 913 915 895
f 968 912 911
f 916 917 968
f 916 968 917
f 915 917 968
f 917 920 968
f 912 968 914
f 891 918 913
f 890 936 891
f 891 936 918
f 890 909 936
f 924 908 934
f 914 921 908
f 968 974 914
f 968 920 974
f 917 974 920
f 934 908 922
f 925 898 924
f 909 925 935
f 925 924 926
f 925 926 923
f 923 927 925
f 923 929 927
f 926 928 923
f 923 928 929
f 929 930 931
f 929 928 930
f 930 932 931
f 930 928 932
f 924 934 926
f 909 935 936
f 933 936 950
f 936 933 918
f 925 937 935
f 925 927 937
f 927 929 931
f 927 931 937
f 926 946 928
f 932 928 952
f 931 932 938
f 937 931 956
f 931 938 956
f 938 932 939
f 938 939 940
f 938 940 941
f 938 941 942
f 932 952 954
f 932 954 939
f 938 942 943
f 938 943 944
f 938 944 945
f 938 945 956
f 934 951 926
f 926 951 946
f 918 933 919
f 934 948 951
f 934 922 948
f 933 950 947
f 933 947 919
f 948 922 961
f 948 961 951
f 982 947 983
f 949 983 947
f 982 963 961
f 983 963 982
f 928 946 952
f 935 937 936
f 936 937 950
f 937 959 950
f 952 946 951
f 951 961 952
f 950 959 960
f 950 960 949
f 937 953 959
f 956 953 937
f 956 959 953
f 939 955 940
f 940 957 941
f 954 957 955
f 957 954 958
f 939 954 955
f 940 955 957
f 941 957 958
f 941 958 942
f 942 965 943
f 943 966 944
f 956 945 964
f 944 967 945
f 942 958 965
f 943 965 966
f 944 966 967
f 945 967 964
f 959 956 960
f 950 949 947
f 962 961 963
f 952 961 962
f 952 962 963
f 954 952 963
f 949 960 964
f 964 963 983
f 964 983 949
f 958 954 965
f 954 966 965
f 954 964 966
f 964 967 966
f 960 956 964
f 963 964 954
f 913 918 969
f 913 969 915
f 917 915 973
f 915 977 973
f 918 919 969
f 917 973 974
f 914 974 921
f 908 921 922
f 969 919 975
f 969 975 976
f 915 969 977
f 969 976 977
f 921 974 922
f 974 979 922
f 979 974 978
f 973 978 974
f 973 977 979
f 973 979 978
f 977 976 980
f 980 979 977
f 919 947 975
f 947 981 975
f 975 981 976
f 961 922 979
f 981 982 976
f 947 982 981
f 961 979 980
f 982 961 980
f 982 980 976
f 799 805 800
f 800 805 801
f 801 805 802
f 799 804 805
f 802 805 803
f 803 805 806
f 806 805 831
f 805 804 831
f 807 808 815
f 808 809 815
f 809 811 815
f 815 810 825
f 807 800 808
f 807 815 799
f 808 801 809
f 809 802 811
f 815 813 799
f 808 800 801
f 807 799 800
f 809 801 802
f 802 803 811
f 799 813 804
f 803 812 811
f 814 812 806
f 804 813 821
f 804 821 817
f 815 811 812
f 814 815 812
f 815 814 818
f 803 806 812
f 814 806 816
f 804 817 838
f 810 815 818
f 810 818 814
f 815 824 813
f 815 825 824
f 813 824 821
f 817 821 819
f 821 828 819
f 814 823 822
f 819 828 817
f 821 824 828
f 810 859 825
f 810 814 859
f 814 861 859
f 814 822 820
f 822 826 820
f 822 827 826
f 820 861 814
f 825 828 824
f 859 829 825
f 825 829 828
f 820 826 861
f 828 829 842
f 806 831 830
f 804 838 831
f 806 830 816
f 831 838 830
f 830 814 816
f 814 830 823
f 830 838 833
f 839 833 838
f 830 832 823
f 830 833 832
f 833 835 832
f 832 834 823
f 835 833 839
f 835 836 832
f 835 837 878
f 838 817 839
f 817 840 839
f 828 840 817
f 828 841 840
f 839 840 835
f 840 841 835
f 822 823 834
f 834 827 822
f 834 832 827
f 832 836 827
f 841 828 837
f 841 837 835
f 828 851 837
f 851 828 842
f 861 826 866
f 827 866 826
f 835 878 836
f 836 845 843
f 878 837 847
f 845 846 843
f 846 848 843
f 882 849 848
f 836 850 827
f 827 850 871
f 836 843 850
f 843 844 850
f 842 874 851
f 847 837 851
f 853 858 854
f 871 850 853
f 872 871 853
f 844 853 850
f 854 872 853
f 872 854 855
f 854 858 855
f 872 855 873
f 843 848 844
f 844 848 857
f 847 856 880
f 844 857 858
f 853 844 858
f 852 873 885
f 852 885 884
f 847 851 856
f 884 851 852
f 851 884 856
f 855 858 873
f 862 859 863
f 859 862 867
f 859 860 829
f 862 863 864
f 859 861 863
f 859 867 860
f 863 861 864
f 861 866 864
f 862 864 867
f 866 870 864
f 829 860 842
f 827 871 866
f 864 865 867
f 872 869 868
f 865 869 872
f 864 869 865
f 870 868 864
f 864 868 869
f 870 866 871
f 872 868 870
f 870 871 872
f 872 873 865
f 842 860 874
f 860 875 874
f 867 875 860
f 875 851 874
f 865 873 876
f 867 865 876
f 852 867 876
f 875 867 852
f 875 852 851
f 873 852 876
f 836 878 845
f 847 880 878
f 878 846 845
f 878 879 846
f 878 880 879
f 846 881 883
f 879 849 881
f 879 881 846
f 848 846 882
f 846 883 882
f 883 849 882
f 881 849 883
f 879 856 884
f 880 856 879
f 884 885 879
f 1035 1036 1047
f 1035 1085 1036
f 1035 1047 1045
f 1063 1035 1048
f 1048 1046 1070
f 1048 1070 1063
f 1085 1070 1036
f 1070 1072 1063
f 1063 1072 1082
f 1072 1157 1082
f 1070 1085 1072
f 1072 1085 1157
f 1035 1073 1085
f 1073 1095 1085
f 1085 1095 1086
f 1035 1063 1073
f 1073 1098 1095
f 1063 1082 1073
f 1073 1082 1083
f 1073 1084 1098
f 1083 1084 1073
f 1083 1082 1084
f 1085 1086 1087
f 1085 1087 1088
f 1088 1087 1096
f 1155 1096 1098
f 1088 1096 1155
f 1088 1155 1085
f 1082 1155 1084
f 1084 1155 1098
f 1082 1157 1155
f 1085 1155 1157
f 1074 1076 1095
f 1074 1077 1076
f 1095 1076 1086
f 1076 1077 1078
f 1076 1078 1086
f 1077 1079 1078
f 1078 1079 1086
f 1095 1075 1074
f 1080 1091 1074
f 1074 1091 1077
f 1091 1090 1077
f 1075 1095 1081
f 1079 1087 1086
f 1079 1077 1087
f 1077 1089 1087
f 1077 1090 1093
f 1090 1091 1093
f 1091 1094 1093
f 1081 1095 1098
f 1089 1096 1087
f 1075 1081 1103
f 1077 1093 1099
f 1089 1077 1099
f 1089 1099 1096
f 1081 1098 1097
f 1100 1098 1096
f 1096 1105 1100
f 1100 1158 1098
f 1100 1105 1158
f 1099 1104 1096
f 1075 1101 1074
f 1074 1101 1080
f 1101 1102 1080
f 1080 1102 1108
f 1093 1094 1099
f 1099 1094 1104
f 1094 1106 1104
f 1103 1101 1075
f 1101 1131 1102
f 1098 1158 1097
f 1096 1104 1105
f 1104 1107 1132
f 1106 1107 1104
f 1080 1092 1091
f 1080 1108 1109
f 1091 1092 1094
f 1092 1110 1094
f 1080 1111 1092
f 1080 1119 1111
f 1080 1109 1119
f 1092 1111 1110
f 1108 1112 1109
f 1111 1119 1140
f 1111 1140 1110
f 1110 1140 1136
f 1140 1119 1113
f 1140 1113 1114
f 1140 1114 1137
f 1113 1115 1114
f 1114 1115 1137
f 1119 1116 1113
f 1113 1116 1121
f 1108 1102 1112
f 1094 1117 1106
f 1110 1117 1094
f 1110 1136 1117
f 1112 1118 1109
f 1109 1118 1119
f 1118 1120 1119
f 1118 1112 1120
f 1113 1121 1115
f 1121 1122 1115
f 1121 1123 1122
f 1121 1124 1123
f 1121 1125 1124
f 1115 1141 1137
f 1115 1122 1142
f 1121 1126 1125
f 1121 1127 1126
f 1121 1128 1127
f 1121 1116 1128
f 1136 1130 1117
f 1117 1130 1129
f 1106 1117 1107
f 1117 1132 1107
f 1129 1132 1117
f 1112 1102 1139
f 1139 1102 1131
f 1166 1133 1129
f 1134 1166 1129
f 1153 1154 1135
f 1135 1167 1166
f 1134 1135 1166
f 1136 1137 1130
f 1137 1138 1130
f 1136 1140 1137
f 1112 1139 1120
f 1138 1129 1130
f 1138 1141 1129
f 1141 1134 1129
f 1147 1131 1154
f 1119 1120 1143
f 1119 1143 1116
f 1115 1142 1141
f 1122 1123 1144
f 1123 1124 1145
f 1139 1147 1120
f 1120 1147 1143
f 1137 1141 1138
f 1142 1144 1141
f 1141 1144 1148
f 1148 1144 1145
f 1145 1146 1148
f 1122 1144 1142
f 1123 1145 1144
f 1124 1146 1145
f 1124 1125 1146
f 1125 1126 1149
f 1126 1127 1150
f 1116 1152 1128
f 1127 1128 1151
f 1125 1149 1146
f 1126 1150 1149
f 1127 1151 1150
f 1128 1152 1151
f 1116 1147 1152
f 1143 1147 1116
f 1139 1131 1147
f 1141 1148 1134
f 1147 1154 1153
f 1148 1153 1135
f 1146 1149 1148
f 1148 1149 1150
f 1153 1151 1152
f 1153 1148 1151
f 1148 1150 1151
f 1147 1153 1152
f 1148 1135 1134
f 1103 1081 1101
f 1105 1104 1158
f 1097 1158 1161
f 1097 1161 1081
f 1158 1164 1159
f 1158 1164 1161
f 1158 1159 1164
f 1163 1158 1104
f 1101 1081 1156
f 1101 1156 1131
f 1156 1160 1131
f 1163 1104 1132
f 1081 1160 1156
f 1081 1161 1162
f 1160 1165 1166
f 1163 1164 1158
f 1162 1160 1081
f 1162 1161 1160
f 1160 1161 1165
f 1161 1164 1165
f 1163 1165 1164
f 1131 1160 1154
f 1129 1163 1132
f 1129 1133 1163
f 1154 1160 1167
f 1154 1167 1135
f 1160 1166 1167
f 1133 1165 1163
f 1133 1166 1165
f 987 984 990
f 984 985 990
f 985 986 990
f 987 990 1018
f 986 988 990
f 988 989 990
f 991 990 989
f 991 1015 990
f 990 1015 1019
f 991 989 992
f 994 998 995
f 995 998 997
f 994 996 998
f 997 998 1001
f 998 999 1007
f 994 995 984
f 994 987 996
f 995 997 985
f 997 1001 986
f 995 985 984
f 994 984 987
f 997 986 985
f 986 1001 988
f 987 1018 996
f 988 1001 1002
f 989 1002 1000
f 1004 989 1000
f 1018 1003 996
f 998 1002 1001
f 1002 998 1000
f 1004 1000 998
f 998 1007 1004
f 988 1002 989
f 1004 992 989
f 1008 992 1004
f 1004 1007 1008
f 996 1003 998
f 992 1008 1006
f 1003 1005 1014
f 1014 998 1003
f 999 1009 1007
f 1011 1008 1007
f 1008 1011 1006
f 1007 1009 1049
f 993 1006 1012
f 1006 1011 1012
f 999 998 1028
f 1012 1011 1010
f 998 1014 1028
f 999 1028 1039
f 991 1016 1015
f 1017 1019 1015
f 1017 1015 1016
f 990 1019 1018
f 991 992 1016
f 1018 1022 1003
f 1018 1019 1022
f 1017 1016 992
f 1017 1020 1019
f 1017 1021 1020
f 1021 1017 992
f 1006 1021 992
f 993 1021 1006
f 1020 1022 1019
f 1021 1012 1023
f 1021 1025 1020
f 1021 1023 1025
f 1023 1026 1025
f 1024 1020 1025
f 1024 1025 1026
f 1003 1022 1005
f 1005 1022 1020
f 1020 1024 1005
f 993 1012 1021
f 1005 1024 1014
f 1024 1013 1014
f 1012 1027 1023
f 1013 1028 1014
f 1012 1029 1027
f 1012 1010 1029
f 1026 1023 1031
f 1026 1032 1033
f 1026 1031 1032
f 1024 1034 1013
f 1065 1047 1067
f 1067 1047 1036
f 1023 1027 1037
f 1029 1037 1027
f 1023 1037 1031
f 1031 1038 1032
f 1029 1031 1037
f 1013 1039 1028
f 1029 1057 1031
f 1013 1034 1039
f 1039 1042 1040
f 1034 1042 1039
f 1040 1042 1034
f 1057 1035 1038
f 1057 1043 1035
f 1038 1031 1057
f 1043 1057 1030
f 1030 1059 1043
f 1059 1060 1048
f 1043 1059 1035
f 1038 1065 1032
f 1065 1038 1047
f 1041 1044 1034
f 1038 1035 1045
f 1047 1038 1045
f 1062 1044 1046
f 1044 1062 1040
f 1060 1062 1046
f 1044 1040 1034
f 1059 1048 1035
f 1060 1046 1048
f 1007 1049 1011
f 1011 1049 1010
f 1009 1050 1049
f 1009 999 1050
f 1049 1050 1054
f 1049 1051 1010
f 1051 1052 1010
f 1049 1054 1051
f 1054 1055 1051
f 1010 1052 1029
f 999 1039 1050
f 1029 1052 1053
f 1054 1050 1055
f 1050 1056 1055
f 1055 1056 1051
f 1051 1058 1052
f 1053 1052 1058
f 1058 1051 1059
f 1057 1058 1030
f 1030 1058 1059
f 1057 1053 1058
f 1059 1051 1060
f 1029 1053 1057
f 1051 1056 1060
f 1050 1039 1061
f 1050 1061 1056
f 1039 1040 1061
f 1056 1062 1060
f 1062 1056 1061
f 1040 1062 1061
f 1033 1064 1026
f 1024 1026 1064
f 1024 1064 1034
f 1064 1033 1032
f 1064 1032 1065
f 1065 1069 1064
f 1064 1041 1034
f 1064 1071 1041
f 1065 1068 1066
f 1069 1066 1036
f 1069 1065 1066
f 1065 1067 1068
f 1068 1067 1036
f 1066 1068 1036
f 1069 1036 1070
f 1064 1069 1071
f 1069 1070 1071
f 1041 1071 1044
f 1071 1070 1046
f 1071 1046 1044
f 1258 1217 1273
f 1217 1218 1273
f 1258 1227 1217
f 1217 1227 1226
f 1258 1242 1227
f 1258 1254 1242
f 1258 1246 1254
f 1273 1218 1248
f 1276 1273 1248
f 1276 1248 1254
f 1276 1254 1255
f 1256 1246 1257
f 1254 1246 1256
f 1254 1256 1257
f 1257 1246 1255
f 1254 1257 1255
f 1258 1273 1268
f 1268 1273 1264
f 1273 1274 1264
f 1268 1264 1337
f 1258 1268 1246
f 1268 1270 1269
f 1268 1337 1340
f 1270 1268 1271
f 1271 1268 1272
f 1268 1269 1246
f 1269 1270 1246
f 1268 1340 1272
f 1270 1271 1246
f 1271 1272 1246
f 1272 1340 1246
f 1273 1275 1274
f 1273 1276 1275
f 1275 1276 1280
f 1276 1337 1280
f 1276 1339 1337
f 1276 1255 1339
f 1341 1340 1337
f 1246 1340 1341
f 1246 1341 1339
f 1341 1337 1339
f 1246 1339 1255
f 1262 1260 1264
f 1260 1262 1263
f 1262 1274 1263
f 1263 1265 1260
f 1262 1264 1274
f 1263 1274 1265
f 1260 1265 1266
f 1265 1274 1266
f 1260 1266 1259
f 1267 1259 1261
f 1267 1278 1259
f 1260 1279 1264
f 1266 1274 1275
f 1266 1275 1259
f 1259 1275 1280
f 1267 1294 1278
f 1261 1277 1267
f 1277 1293 1267
f 1279 1282 1264
f 1259 1280 1281
f 1260 1282 1279
f 1259 1277 1261
f 1259 1281 1283
f 1259 1283 1277
f 1284 1337 1264
f 1282 1284 1264
f 1337 1281 1280
f 1285 1286 1337
f 1285 1337 1286
f 1284 1286 1337
f 1286 1289 1337
f 1281 1337 1283
f 1260 1287 1282
f 1259 1305 1260
f 1260 1305 1287
f 1259 1278 1305
f 1293 1277 1303
f 1283 1290 1277
f 1337 1343 1283
f 1337 1289 1343
f 1286 1343 1289
f 1303 1277 1291
f 1294 1267 1293
f 1278 1294 1304
f 1294 1293 1295
f 1294 1295 1292
f 1292 1296 1294
f 1292 1298 1296
f 1295 1297 1292
f 1292 1297 1298
f 1298 1299 1300
f 1298 1297 1299
f 1299 1301 1300
f 1299 1297 1301
f 1293 1303 1295
f 1278 1304 1305
f 1302 1305 1319
f 1305 1302 1287
f 1294 1306 1304
f 1294 1296 1306
f 1296 1298 1300
f 1296 1300 1306
f 1295 1315 1297
f 1301 1297 1321
f 1300 1301 1307
f 1306 1300 1325
f 1300 1307 1325
f 1307 1301 1308
f 1307 1308 1309
f 1307 1309 1310
f 1307 1310 1311
f 1301 1321 1323
f 1301 1323 1308
f 1307 1311 1312
f 1307 1312 1313
f 1307 1313 1314
f 1307 1314 1325
f 1303 1320 1295
f 1295 1320 1315
f 1287 1302 1288
f 1303 1317 1320
f 1303 1291 1317
f 1302 1319 1316
f 1302 1316 1288
f 1317 1291 1330
f 1317 1330 1320
f 1351 1316 1352
f 1318 1352 1316
f 1351 1332 1330
f 1352 1332 1351
f 1297 1315 1321
f 1304 1306 1305
f 1305 1306 1319
f 1306 1328 1319
f 1321 1315 1320
f 1320 1330 1321
f 1319 1328 1329
f 1319 1329 1318
f 1306 1322 1328
f 1325 1322 1306
f 1325 1328 1322
f 1308 1324 1309
f 1309 1326 1310
f 1323 1326 1324
f 1326 1323 1327
f 1308 1323 1324
f 1309 1324 1326
f 1310 1326 1327
f 1310 1327 1311
f 1311 1334 1312
f 1312 1335 1313
f 1325 1314 1333
f 1313 1336 1314
f 1311 1327 1334
f 1312 1334 1335
f 1313 1335 1336
f 1314 1336 1333
f 1328 1325 1329
f 1319 1318 1316
f 1331 1330 1332
f 1321 1330 1331
f 1321 1331 1332
f 1323 1321 1332
f 1318 1329 1333
f 1333 1332 1352
f 1333 1352 1318
f 1327 1323 1334
f 1323 1335 1334
f 1323 1333 1335
f 1333 1336 1335
f 1329 1325 1333
f 1332 1333 1323
f 1282 1287 1338
f 1282 1338 1284
f 1286 1284 1342
f 1284 1346 1342
f 1287 1288 1338
f 1286 1342 1343
f 1283 1343 1290
f 1277 1290 1291
f 1338 1288 1344
f 1338 1344 1345
f 1284 1338 1346
f 1338 1345 1346
f 1290 1343 1291
f 1343 1348 1291
f 1348 1343 1347
f 1342 1347 1343
f 1342 1346 1348
f 1342 1348 1347
f 1346 1345 1349
f 1349 1348 1346
f 1288 1316 1344
f 1316 1350 1344
f 1344 1350 1345
f 1330 1291 1348
f 1350 1351 1345
f 1316 1351 1350
f 1330 1348 1349
f 1351 1330 1349
f 1351 1349 1345
f 1168 1174 1169
f 1169 1174 1170
f 1170 1174 1171
f 1168 1173 1174
f 1171 1174 1172
f 1172 1174 1175
f 1175 1174 1200
f 1174 1173 1200
f 1176 1177 1184
f 1177 1178 1184
f 1178 1180 1184
f 1184 1179 1194
f 1176 1169 1177
f 1176 1184 1168
f 1177 1170 1178
f 1178 1171 1180
f 1184 1182 1168
f 1177 1169 1170
f 1176 1168 1169
f 1178 1170 1171
f 1171 1172 1180
f 1168 1182 1173
f 1172 1181 1180
f 1183 1181 1175
f 1173 1182 1190
f 1173 1190 1186
f 1184 1180 1181
f 1183 1184 1181
f 1184 1183 1187
f 1172 1175 1181
f 1183 1175 1185
f 1173 1186 1207
f 1179 1184 1187
f 1179 1187 1183
f 1184 1193 1182
f 1184 1194 1193
f 1182 1193 1190
f 1186 1190 1188
f 1190 1197 1188
f 1183 1192 1191
f 1188 1197 1186
f 1190 1193 1197
f 1179 1228 1194
f 1179 1183 1228
f 1183 1230 1228
f 1183 1191 1189
f 1191 1195 1189
f 1191 1196 1195
f 1189 1230 1183
f 1194 1197 1193
f 1228 1198 1194
f 1194 1198 1197
f 1189 1195 1230
f 1197 1198 1211
f 1175 1200 1199
f 1173 1207 1200
f 1175 1199 1185
f 1200 1207 1199
f 1199 1183 1185
f 1183 1199 1192
f 1199 1207 1202
f 1208 1202 1207
f 1199 1201 1192
f 1199 1202 1201
f 1202 1204 1201
f 1201 1203 1192
f 1204 1202 1208
f 1204 1205 1201
f 1204 1206 1247
f 1207 1186 1208
f 1186 1209 1208
f 1197 1209 1186
f 1197 1210 1209
f 1208 1209 1204
f 1209 1210 1204
f 1191 1192 1203
f 1203 1196 1191
f 1203 1201 1196
f 1201 1205 1196
f 1210 1197 1206
f 1210 1206 1204
f 1197 1220 1206
f 1220 1197 1211
f 1230 1195 1235
f 1196 1235 1195
f 1204 1247 1205
f 1205 1214 1212
f 1247 1206 1216
f 1214 1215 1212
f 1215 1217 1212
f 1251 1218 1217
f 1205 1219 1196
f 1196 1219 1240
f 1205 1212 1219
f 1212 1213 1219
f 1211 1243 1220
f 1216 1206 1220
f 1222 1227 1223
f 1240 1219 1222
f 1241 1240 1222
f 1213 1222 1219
f 1223 1241 1222
f 1241 1223 1224
f 1223 1227 1224
f 1241 1224 1242
f 1212 1217 1213
f 1213 1217 1226
f 1216 1225 1249
f 1213 1226 1227
f 1222 1213 1227
f 1221 1242 1254
f 1221 1254 1253
f 1216 1220 1225
f 1253 1220 1221
f 1220 1253 1225
f 1224 1227 1242
f 1231 1228 1232
f 1228 1231 1236
f 1228 1229 1198
f 1231 1232 1233
f 1228 1230 1232
f 1228 1236 1229
f 1232 1230 1233
f 1230 1235 1233
f 1231 1233 1236
f 1235 1239 1233
f 1198 1229 1211
f 1196 1240 1235
f 1233 1234 1236
f 1241 1238 1237
f 1234 1238 1241
f 1233 1238 1234
f 1239 1237 1233
f 1233 1237 1238
f 1239 1235 1240
f 1241 1237 1239
f 1239 1240 1241
f 1241 1242 1234
f 1211 1229 1243
f 1229 1244 1243
f 1236 1244 1229
f 1244 1220 1243
f 1234 1242 1245
f 1236 1234 1245
f 1221 1236 1245
f 1244 1236 1221
f 1244 1221 1220
f 1242 1221 1245
f 1205 1247 1214
f 1216 1249 1247
f 1247 1215 1214
f 1247 1248 1215
f 1247 1249 1248
f 1215 1250 1252
f 1248 1218 1250
f 1248 1250 1215
f 1217 1215 1251
f 1215 1252 1251
f 1252 1218 1251
f 1250 1218 1252
f 1248 1225 1253
f 1249 1225 1248
f 1253 1254 1248
f 1404 1405 1416
f 1404 1454 1405
f 1404 1416 1414
f 1432 1404 1417
f 1417 1415 1439
f 1417 1439 1432
f 1454 1439 1405
f 1439 1441 1432
f 1432 1441 1451
f 1441 1526 1451
f 1439 1454 1441
f 1441 1454 1526
f 1404 1442 1454
f 1442 1464 1454
f 1454 1464 1455
f 1404 1432 1442
f 1442 1467 1464
f 1432 1451 1442
f 1442 1451 1452
f 1442 1453 1467
f 1452 1453 1442
f 1452 1451 1453
f 1454 1455 1456
f 1454 1456 1457
f 1457 1456 1465
f 1524 1465 1467
f 1457 1465 1524
f 1457 1524 1454
f 1451 1524 1453
f 1453 1524 1467
f 1451 1526 1524
f 1454 1524 1526
f 1443 1445 1464
f 1443 1446 1445
f 1464 1445 1455
f 1445 1446 1447
f 1445 1447 1455
f 1446 1448 1447
f 1447 1448 1455
f 1464 1444 1443
f 1449 1460 1443
f 1443 1460 1446
f 1460 1459 1446
f 1444 1464 1450
f 1448 1456 1455
f 1448 1446 1456
f 1446 1458 1456
f 1446 1459 1462
f 1459 1460 1462
f 1460 1463 1462
f 1450 1464 1467
f 1458 1465 1456
f 1444 1450 1472
f 1446 1462 1468
f 1458 1446 1468
f 1458 1468 1465
f 1450 1467 1466
f 1469 1467 1465
f 1465 1474 1469
f 1469 1527 1467
f 1469 1474 1527
f 1468 1473 1465
f 1444 1470 1443
f 1443 1470 1449
f 1470 1471 1449
f 1449 1471 1477
f 1462 1463 1468
f 1468 1463 1473
f 1463 1475 1473
f 1472 1470 1444
f 1470 1500 1471
f 1467 1527 1466
f 1465 1473 1474
f 1473 1476 1501
f 1475 1476 1473
f 1449 1461 1460
f 1449 1477 1478
f 1460 1461 1463
f 1461 1479 1463
f 1449 1480 1461
f 1449 1488 1480
f 1449 1478 1488
f 1461 1480 1479
f 1477 1481 1478
f 1480 1488 1509
f 1480 1509 1479
f 1479 1509 1505
f 1509 1488 1482
f 1509 1482 1483
f 1509 1483 1506
f 1482 1484 1483
f 1483 1484 1506
f 1488 1485 1482
f 1482 1485 1490
f 1477 1471 1481
f 1463 1486 1475
f 1479 1486 1463
f 1479 1505 1486
f 1481 1487 1478
f 1478 1487 1488
f 1487 1489 1488
f 1487 1481 1489
f 1482 1490 1484
f 1490 1491 1484
f 1490 1492 1491
f 1490 1493 1492
f 1490 1494 1493
f 1484 1510 1506
f 1484 1491 1511
f 1490 1495 1494
f 1490 1496 1495
f 1490 1497 1496
f 1490 1485 1497
f 1505 1499 1486
f 1486 1499 1498
f 1475 1486 1476
f 1486 1501 1476
f 1498 1501 1486
f 1481 1471 1508
f 1508 1471 1500
f 1535 1502 1498
f 1503 1535 1498
f 1522 1523 1504
f 1504 1536 1535
f 1503 1504 1535
f 1505 1506 1499
f 1506 1507 1499
f 1505 1509 1506
f 1481 1508 1489
f 1507 1498 1499
f 1507 1510 1498
f 1510 1503 1498
f 1516 1500 1523
f 1488 1489 1512
f 1488 1512 1485
f 1484 1511 1510
f 1491 1492 1513
f 1492 1493 1514
f 1508 1516 1489
f 1489 1516 1512
f 1506 1510 1507
f 1511 1513 1510
f 1510 1513 1517
f 1517 1513 1514
f 1514 1515 1517
f 1491 1513 1511
f 1492 1514 1513
f 1493 1515 1514
f 1493 1494 1515
f 1494 1495 1518
f 1495 1496 1519
f 1485 1521 1497
f 1496 1497 1520
f 1494 1518 1515
f 1495 1519 1518
f 1496 1520 1519
f 1497 1521 1520
f 1485 1516 1521
f 1512 1516 1485
f 1508 1500 1516
f 1510 1517 1503
f 1516 1523 1522
f 1517 1522 1504
f 1515 1518 1517
f 1517 1518 1519
f 1522 1520 1521
f 1522 1517 1520
f 1517 1519 1520
f 1516 1522 1521
f 1517 1504 1503
f 1472 1450 1470
f 1474 1473 1527
f 1466 1527 1530
f 1466 1530 1450
f 1527 1533 1528
f 1527 1533 1530
f 1527 1528 1533
f 1532 1527 1473
f 1470 1450 1525
f 1470 1525 1500
f 1525 1529 1500
f 1532 1473 1501
f 1450 1529 1525
f 1450 1530 1531
f 1529 1534 1535
f 1532 1533 1527
f 1531 1529 1450
f 1531 1530 1529
f 1529 1530 1534
f 1530 1533 1534
f 1532 1534 1533
f 1500 1529 1523
f 1498 1532 1501
f 1498 1502 1532
f 1523 1529 1536
f 1523 1536 1504
f 1529 1535 1536
f 1502 1534 1532
f 1502 1535 1534
f 1356 1353 1359
f 1353 1354 1359
f 1354 1355 1359
f 1356 1359 1387
f 1355 1357 1359
f 1357 1358 1359
f 1360 1359 1358
f 1360 1384 1359
f 1359 1384 1388
f 1360 1358 1361
f 1363 1367 1364
f 1364 1367 1366
f 1363 1365 1367
f 1366 1367 1370
f 1367 1368 1376
f 1363 1364 1353
f 1363 1356 1365
f 1364 1366 1354
f 1366 1370 1355
f 1364 1354 1353
f 1363 1353 1356
f 1366 1355 1354
f 1355 1370 1357
f 1356 1387 1365
f 1357 1370 1371
f 1358 1371 1369
f 1373 1358 1369
f 1387 1372 1365
f 1367 1371 1370
f 1371 1367 1369
f 1373 1369 1367
f 1367 1376 1373
f 1357 1371 1358
f 1373 1361 1358
f 1377 1361 1373
f 1373 1376 1377
f 1365 1372 1367
f 1361 1377 1375
f 1372 1374 1383
f 1383 1367 1372
f 1368 1378 1376
f 1380 1377 1376
f 1377 1380 1375
f 1376 1378 1418
f 1362 1375 1381
f 1375 1380 1381
f 1368 1367 1397
f 1381 1380 1379
f 1367 1383 1397
f 1368 1397 1408
f 1360 1385 1384
f 1386 1388 1384
f 1386 1384 1385
f 1359 1388 1387
f 1360 1361 1385
f 1387 1391 1372
f 1387 1388 1391
f 1386 1385 1361
f 1386 1389 1388
f 1386 1390 1389
f 1390 1386 1361
f 1375 1390 1361
f 1362 1390 1375
f 1389 1391 1388
f 1390 1381 1392
f 1390 1394 1389
f 1390 1392 1394
f 1392 1395 1394
f 1393 1389 1394
f 1393 1394 1395
f 1372 1391 1374
f 1374 1391 1389
f 1389 1393 1374
f 1362 1381 1390
f 1374 1393 1383
f 1393 1382 1383
f 1381 1396 1392
f 1382 1397 1383
f 1381 1398 1396
f 1381 1379 1398
f 1395 1392 1400
f 1395 1401 1402
f 1395 1400 1401
f 1393 1403 1382
f 1434 1416 1436
f 1436 1416 1405
f 1392 1396 1406
f 1398 1406 1396
f 1392 1406 1400
f 1400 1407 1401
f 1398 1400 1406
f 1382 1408 1397
f 1398 1426 1400
f 1382 1403 1408
f 1408 1411 1409
f 1403 1411 1408
f 1409 1411 1403
f 1426 1404 1407
f 1426 1412 1404
f 1407 1400 1426
f 1412 1426 1399
f 1399 1428 1412
f 1428 1429 1417
f 1412 1428 1404
f 1407 1434 1401
f 1434 1407 1416
f 1410 1413 1403
f 1407 1404 1414
f 1416 1407 1414
f 1431 1413 1415
f 1413 1431 1409
f 1429 1431 1415
f 1413 1409 1403
f 1428 1417 1404
f 1429 1415 1417
f 1376 1418 1380
f 1380 1418 1379
f 1378 1419 1418
f 1378 1368 1419
f 1418 1419 1423
f 1418 1420 1379
f 1420 1421 1379
f 1418 1423 1420
f 1423 1424 1420
f 1379 1421 1398
f 1368 1408 1419
f 1398 1421 1422
f 1423 1419 1424
f 1419 1425 1424
f 1424 1425 1420
f 1420 1427 1421
f 1422 1421 1427
f 1427 1420 1428
f 1426 1427 1399
f 1399 1427 1428
f 1426 1422 1427
f 1428 1420 1429
f 1398 1422 1426
f 1420 1425 1429
f 1419 1408 1430
f 1419 1430 1425
f 1408 1409 1430
f 1425 1431 1429
f 1431 1425 1430
f 1409 1431 1430
f 1402 1433 1395
f 1393 1395 1433
f 1393 1433 1403
f 1433 1402 1401
f 1433 1401 1434
f 1434 1438 1433
f 1433 1410 1403
f 1433 1440 1410
f 1434 1437 1435
f 1438 1435 1405
f 1438 1434 1435
f 1434 1436 1437
f 1437 1436 1405
f 1435 1437 1405
f 1438 1405 1439
f 1433 1438 1440
f 1438 1439 1440
f 1410 1440 1413
f 1440 1439 1415
f 1440 1415 1413
