# sionna2 mesh — matrice4e__gear.obj
# group=gear  verts=1490  tris=2964
v 0.128758 0.174793 -0.054778
v 0.128947 0.175162 -0.054800
v 0.128944 0.175154 -0.054873
v 0.128721 0.174569 -0.054730
v 0.128524 0.173382 -0.054477
v 0.128561 0.173605 -0.054525
v 0.128545 0.173381 -0.054480
v 0.128538 0.173286 -0.054461
v 0.128618 0.173210 -0.053834
v 0.128747 0.174636 -0.054475
v 0.129412 0.176060 -0.055112
v 0.129817 0.176427 -0.055240
v 0.129304 0.175851 -0.055057
v 0.129358 0.170647 -0.054082
v 0.129383 0.170663 -0.054088
v 0.129533 0.170458 -0.054071
v 0.129537 0.170493 -0.053919
v 0.129288 0.170794 -0.054099
v 0.129341 0.170837 -0.053667
v 0.130164 0.177753 -0.047556
v 0.129300 0.175847 -0.054948
v 0.129189 0.175637 -0.054747
v 0.134630 0.177504 -0.056142
v 0.134618 0.177470 -0.056134
v 0.134376 0.177552 -0.056114
v 0.134839 0.177394 -0.056152
v 0.135925 0.176821 -0.056201
v 0.135885 0.176770 -0.056186
v 0.135567 0.177009 -0.056185
v 0.135567 0.177010 -0.056184
v 0.136171 0.176554 -0.056186
v 0.136232 0.176599 -0.055931
v 0.136918 0.175745 -0.056142
v 0.136894 0.175729 -0.056135
v 0.136744 0.175934 -0.056152
v 0.136989 0.175598 -0.056125
v 0.133074 0.168618 -0.054238
v 0.133075 0.168657 -0.054246
v 0.133351 0.168650 -0.054284
v 0.134504 0.168785 -0.054477
v 0.134333 0.168765 -0.054449
v 0.134496 0.168812 -0.054481
v 0.131772 0.177607 -0.055747
v 0.131943 0.177627 -0.055775
v 0.131585 0.177523 -0.055704
v 0.132016 0.177701 -0.055497
v 0.130469 0.177019 -0.055446
v 0.130482 0.176999 -0.055445
v 0.130365 0.176924 -0.055413
v 0.130369 0.176930 -0.055397
v 0.130615 0.177085 -0.055480
v 0.130589 0.177125 -0.055187
v 0.133202 0.177774 -0.055986
v 0.133446 0.177728 -0.056013
v 0.133202 0.177735 -0.055978
v 0.132925 0.177742 -0.055940
v 0.137519 0.171599 -0.055446
v 0.137332 0.171238 -0.055351
v 0.137556 0.171823 -0.055494
v 0.135807 0.169373 -0.054778
v 0.135661 0.169307 -0.054744
v 0.135794 0.169393 -0.054779
v 0.135912 0.169468 -0.054811
v 0.134691 0.168869 -0.054520
v 0.136865 0.170332 -0.055112
v 0.136460 0.169965 -0.054984
v 0.136973 0.170541 -0.055167
v 0.137021 0.170595 -0.054993
v 0.137752 0.173010 -0.055747
v 0.137716 0.172787 -0.055699
v 0.137732 0.173011 -0.055744
v 0.137739 0.173106 -0.055763
v 0.130352 0.169571 -0.054023
v 0.130106 0.169838 -0.054037
v 0.130391 0.169622 -0.054038
v 0.130709 0.169382 -0.054039
v 0.131647 0.168888 -0.054082
v 0.131438 0.168998 -0.054072
v 0.131659 0.168922 -0.054090
v 0.131457 0.169025 -0.053887
v 0.131900 0.168840 -0.054110
v 0.131935 0.168869 -0.053881
v 0.132831 0.168664 -0.054211
v 0.135865 0.179331 -0.048681
v 0.134306 0.179626 -0.048511
v 0.132839 0.177806 -0.055596
v 0.133561 0.177769 -0.055796
v 0.131319 0.178800 -0.047921
v 0.132743 0.179444 -0.048249
v 0.131584 0.177550 -0.055549
v 0.130991 0.177337 -0.055112
v 0.129877 0.176496 -0.055157
v 0.130637 0.177167 -0.055083
v 0.130687 0.177197 -0.055057
v 0.137152 0.170446 -0.047190
v 0.139022 0.172879 -0.047921
v 0.137748 0.172712 -0.055411
v 0.137608 0.171961 -0.055344
v 0.138307 0.171493 -0.047556
v 0.137233 0.170977 -0.054956
v 0.137109 0.170742 -0.054911
v 0.137280 0.178584 -0.048746
v 0.134164 0.177692 -0.055725
v 0.134967 0.177380 -0.055993
v 0.135341 0.177229 -0.055871
v 0.139052 0.175977 -0.048511
v 0.137004 0.175585 -0.056090
v 0.137518 0.174668 -0.055729
v 0.137590 0.174480 -0.055769
v 0.137607 0.174435 -0.055714
v 0.138366 0.177409 -0.048681
v 0.136516 0.176365 -0.055747
v 0.136315 0.176570 -0.055786
v 0.136399 0.176496 -0.055743
v 0.139277 0.174420 -0.048249
v 0.137778 0.173196 -0.055542
v 0.137725 0.173807 -0.055489
v 0.137608 0.174431 -0.055710
v 0.130105 0.171838 -0.046430
v 0.129419 0.173269 -0.046601
v 0.128741 0.171978 -0.054116
v 0.128752 0.171963 -0.054090
v 0.128739 0.172007 -0.054109
v 0.129333 0.170861 -0.053652
v 0.129340 0.170842 -0.053658
v 0.129338 0.170848 -0.053654
v 0.129449 0.176368 -0.047190
v 0.128650 0.174000 -0.054167
v 0.128744 0.174557 -0.054271
v 0.129193 0.174826 -0.046862
v 0.128623 0.173180 -0.053818
v 0.128621 0.173196 -0.053819
v 0.128620 0.173203 -0.053824
v 0.128726 0.174430 -0.054170
v 0.131191 0.170663 -0.046366
v 0.132606 0.169916 -0.046430
v 0.132772 0.168726 -0.053877
v 0.134165 0.169621 -0.046601
v 0.133575 0.168726 -0.053877
v 0.134133 0.168801 -0.053879
v 0.130928 0.169335 -0.053707
v 0.131220 0.169193 -0.053658
v 0.130066 0.169921 -0.053887
v 0.132249 0.168848 -0.053674
v 0.132502 0.168805 -0.053671
v 0.133824 0.168774 -0.053751
v 0.133970 0.168792 -0.053767
v 0.135728 0.169803 -0.046862
v 0.135022 0.169045 -0.054142
v 0.135231 0.169148 -0.054041
v 0.136410 0.169908 -0.054368
v 0.136392 0.169892 -0.054354
v 0.136397 0.169897 -0.054352
v 0.136401 0.169901 -0.054354
v 0.139750 0.172655 -0.040000
v 0.139814 0.179073 -0.041221
v 0.135409 0.181478 -0.041036
v 0.132169 0.180582 -0.040396
v 0.133713 0.181280 -0.040752
v 0.137101 0.181158 -0.041221
v 0.138636 0.180348 -0.041291
v 0.140558 0.177520 -0.041036
v 0.140525 0.174158 -0.040396
v 0.140802 0.175830 -0.040752
v 0.129863 0.176271 -0.039247
v 0.130140 0.177943 -0.039603
v 0.130108 0.174582 -0.038964
v 0.130852 0.173029 -0.038778
v 0.132030 0.171754 -0.038709
v 0.133565 0.170943 -0.038778
v 0.130916 0.179446 -0.040000
v 0.135257 0.170624 -0.038964
v 0.136952 0.170822 -0.039247
v 0.138497 0.171519 -0.039603
v 0.133018 0.182364 -0.032871
v 0.134684 0.183116 -0.033255
v 0.139991 0.182111 -0.033835
v 0.138336 0.182985 -0.033760
v 0.136512 0.183330 -0.033560
v 0.142064 0.179062 -0.033560
v 0.142029 0.175437 -0.032871
v 0.141193 0.173817 -0.032443
v 0.142327 0.177241 -0.033255
v 0.141261 0.180736 -0.033760
v 0.132869 0.172845 -0.031051
v 0.134523 0.171971 -0.031127
v 0.130532 0.177716 -0.031632
v 0.130831 0.179519 -0.032016
v 0.130796 0.175894 -0.031326
v 0.131599 0.174220 -0.031127
v 0.138176 0.171840 -0.031632
v 0.136348 0.171627 -0.031326
v 0.139842 0.172592 -0.032016
v 0.131667 0.181139 -0.032443
v 0.135655 0.184953 -0.025757
v 0.133868 0.184146 -0.025346
v 0.139572 0.184812 -0.026299
v 0.137615 0.185181 -0.026085
v 0.143853 0.178651 -0.025757
v 0.143532 0.176717 -0.025346
v 0.142709 0.182400 -0.026299
v 0.141347 0.183874 -0.026380
v 0.143570 0.180604 -0.026085
v 0.131485 0.177207 -0.023689
v 0.131202 0.179160 -0.024017
v 0.132346 0.175411 -0.023475
v 0.133707 0.173937 -0.023394
v 0.139400 0.172858 -0.024017
v 0.135482 0.172999 -0.023475
v 0.137439 0.172629 -0.023689
v 0.132419 0.182832 -0.024887
v 0.131522 0.181094 -0.024429
v 0.141186 0.173665 -0.024429
v 0.142635 0.174979 -0.024887
v 0.136625 0.186789 -0.018260
v 0.138718 0.187033 -0.018610
v 0.145035 0.177996 -0.017820
v 0.142702 0.185638 -0.018925
v 0.145075 0.182147 -0.018610
v 0.144157 0.184064 -0.018839
v 0.140808 0.186638 -0.018839
v 0.145378 0.180061 -0.018260
v 0.132173 0.178519 -0.016052
v 0.133092 0.176602 -0.015823
v 0.134546 0.175028 -0.015737
v 0.136441 0.174027 -0.015823
v 0.138531 0.173632 -0.016052
v 0.134718 0.185927 -0.017820
v 0.133171 0.184525 -0.017331
v 0.131871 0.180605 -0.016402
v 0.132214 0.182669 -0.016842
v 0.142531 0.174738 -0.016842
v 0.144078 0.176141 -0.017331
v 0.140624 0.173877 -0.016402
v 0.137596 0.188625 -0.010763
v 0.139822 0.188885 -0.011135
v 0.142043 0.188465 -0.011378
v 0.144058 0.187401 -0.011470
v 0.146903 0.181471 -0.010763
v 0.146539 0.179276 -0.010295
v 0.146581 0.183689 -0.011135
v 0.145604 0.185728 -0.011378
v 0.132862 0.179832 -0.008415
v 0.133839 0.177793 -0.008172
v 0.135385 0.176119 -0.008080
v 0.137400 0.175055 -0.008172
v 0.133923 0.186218 -0.009775
v 0.132541 0.182049 -0.008787
v 0.132905 0.184245 -0.009254
v 0.135568 0.187709 -0.010295
v 0.143876 0.175811 -0.009254
v 0.139622 0.174635 -0.008415
v 0.141848 0.174895 -0.008787
v 0.145521 0.177302 -0.009775
v 0.138566 0.190462 -0.003265
v 0.143279 0.190292 -0.003917
v 0.140925 0.190737 -0.003660
v 0.148042 0.180555 -0.002770
v 0.148428 0.182881 -0.003265
v 0.147052 0.187391 -0.003917
v 0.145414 0.189165 -0.004014
v 0.148087 0.185231 -0.003660
v 0.134586 0.178984 -0.000520
v 0.136224 0.177210 -0.000423
v 0.138359 0.176083 -0.000520
v 0.133210 0.183494 -0.001172
v 0.133596 0.185820 -0.001667
v 0.134675 0.187911 -0.002219
v 0.136418 0.189491 -0.002770
v 0.133551 0.181144 -0.000778
v 0.140713 0.175638 -0.000778
v 0.143072 0.175914 -0.001172
v 0.146963 0.178464 -0.002219
v 0.145220 0.176884 -0.001667
v 0.140819 0.183188 -0.002219
v 0.129839 0.172441 -0.058372
v 0.129140 0.173196 -0.057583
v 0.129839 0.173951 -0.058372
v 0.129904 0.171197 -0.057874
v 0.129084 0.171975 -0.057151
v 0.129336 0.170846 -0.056564
v 0.130376 0.169961 -0.057111
v 0.128617 0.173196 -0.056396
v 0.129877 0.169896 -0.055867
v 0.128668 0.171961 -0.055875
v 0.129084 0.174417 -0.057151
v 0.129904 0.175195 -0.057874
v 0.129336 0.175546 -0.056564
v 0.130376 0.176430 -0.057111
v 0.128668 0.174431 -0.055875
v 0.129877 0.176496 -0.055867
v 0.128438 0.173196 -0.055112
v 0.129140 0.170725 -0.055112
v 0.128668 0.171961 -0.054348
v 0.129877 0.169896 -0.054357
v 0.128617 0.173196 -0.053828
v 0.129336 0.170846 -0.053660
v 0.129140 0.175667 -0.055112
v 0.128668 0.174431 -0.054348
v 0.131903 0.172432 -0.059581
v 0.131917 0.171157 -0.059166
v 0.130788 0.171744 -0.058914
v 0.130667 0.173196 -0.059110
v 0.133138 0.171912 -0.059632
v 0.133138 0.173196 -0.059811
v 0.134374 0.172432 -0.059581
v 0.134360 0.171157 -0.059166
v 0.133138 0.170725 -0.059110
v 0.132383 0.169935 -0.058411
v 0.133893 0.169935 -0.058411
v 0.131139 0.170433 -0.058346
v 0.131686 0.169394 -0.057462
v 0.133138 0.169198 -0.057583
v 0.135137 0.170433 -0.058346
v 0.131903 0.173960 -0.059581
v 0.130788 0.174648 -0.058914
v 0.131917 0.175235 -0.059166
v 0.133138 0.174480 -0.059632
v 0.134374 0.173960 -0.059581
v 0.134360 0.175235 -0.059166
v 0.133138 0.175667 -0.059110
v 0.132383 0.176457 -0.058411
v 0.133893 0.176457 -0.058411
v 0.131139 0.175959 -0.058346
v 0.131686 0.176998 -0.057462
v 0.135137 0.175959 -0.058346
v 0.133138 0.177194 -0.057583
v 0.135488 0.171744 -0.058914
v 0.135609 0.173196 -0.059110
v 0.136438 0.172441 -0.058372
v 0.136373 0.171197 -0.057874
v 0.134591 0.169394 -0.057462
v 0.135488 0.174648 -0.058914
v 0.136438 0.173951 -0.058372
v 0.136373 0.175195 -0.057874
v 0.137136 0.173196 -0.057583
v 0.134591 0.176998 -0.057462
v 0.132375 0.168726 -0.056347
v 0.133902 0.168726 -0.056347
v 0.131099 0.169141 -0.056333
v 0.132375 0.177666 -0.056347
v 0.133902 0.177666 -0.056347
v 0.131099 0.177251 -0.056333
v 0.135901 0.169961 -0.057111
v 0.137193 0.171975 -0.057151
v 0.136941 0.170846 -0.056564
v 0.137659 0.173196 -0.056396
v 0.135178 0.169141 -0.056333
v 0.136399 0.169896 -0.055867
v 0.137608 0.171961 -0.055875
v 0.137193 0.174417 -0.057151
v 0.135901 0.176430 -0.057111
v 0.136941 0.175546 -0.056564
v 0.135178 0.177251 -0.056333
v 0.136399 0.176496 -0.055867
v 0.137608 0.174431 -0.055875
v 0.130667 0.169198 -0.055112
v 0.131854 0.168675 -0.055112
v 0.133138 0.168496 -0.055112
v 0.134423 0.168675 -0.055112
v 0.131099 0.169141 -0.053891
v 0.132375 0.168726 -0.053877
v 0.133902 0.168726 -0.053877
v 0.130667 0.177194 -0.055112
v 0.135609 0.169198 -0.055112
v 0.137136 0.170725 -0.055112
v 0.136399 0.169896 -0.054357
v -0.136458 0.151899 -0.056142
v -0.136369 0.152002 -0.056147
v -0.136430 0.151882 -0.056135
v -0.136315 0.152077 -0.056151
v -0.136588 0.151571 -0.056104
v -0.135542 0.153040 -0.056201
v -0.135641 0.152900 -0.056192
v -0.135748 0.152783 -0.056188
v -0.135508 0.153002 -0.056189
v -0.135722 0.152911 -0.055990
v -0.135084 0.153325 -0.056179
v -0.135087 0.153340 -0.056128
v -0.134297 0.153812 -0.056142
v -0.134289 0.153793 -0.056137
v -0.134378 0.153762 -0.056146
v -0.134028 0.153883 -0.056112
v -0.136769 0.147721 -0.055446
v -0.136838 0.148011 -0.055509
v -0.136700 0.147650 -0.055423
v -0.136629 0.147490 -0.055383
v -0.136647 0.147510 -0.055336
v -0.134908 0.145619 -0.054778
v -0.135014 0.145703 -0.054809
v -0.134901 0.145630 -0.054778
v -0.134859 0.145604 -0.054767
v -0.134802 0.145580 -0.054754
v -0.136029 0.146502 -0.055112
v -0.136232 0.146836 -0.055204
v -0.135771 0.146318 -0.055039
v -0.136337 0.146955 -0.054937
v -0.135571 0.146141 -0.054975
v -0.137100 0.149112 -0.055747
v -0.137086 0.149305 -0.055779
v -0.137072 0.149115 -0.055743
v -0.137059 0.148938 -0.055709
v -0.133567 0.145122 -0.054477
v -0.133732 0.145183 -0.054514
v -0.133564 0.145135 -0.054479
v -0.133524 0.145123 -0.054471
v -0.133485 0.145118 -0.054464
v -0.133495 0.145126 -0.054401
v -0.132128 0.145055 -0.054238
v -0.132457 0.145070 -0.054293
v -0.132131 0.145080 -0.054243
v -0.132892 0.154180 -0.055986
v -0.132890 0.154156 -0.055981
v -0.132998 0.154153 -0.055998
v -0.132564 0.154165 -0.055931
v -0.131454 0.154113 -0.055747
v -0.131496 0.154112 -0.055753
v -0.131535 0.154117 -0.055760
v -0.131457 0.154101 -0.055745
v -0.131289 0.154052 -0.055710
v -0.131309 0.154131 -0.055308
v -0.130113 0.153616 -0.055446
v -0.130161 0.153632 -0.055457
v -0.130219 0.153656 -0.055470
v -0.130120 0.153605 -0.055445
v -0.130007 0.153533 -0.055415
v -0.130094 0.153623 -0.055267
v -0.138720 0.150413 -0.048249
v -0.136980 0.148382 -0.055272
v -0.138358 0.148893 -0.047921
v -0.136588 0.147356 -0.054983
v -0.136478 0.147166 -0.054885
v -0.137549 0.147560 -0.047556
v -0.138603 0.151982 -0.048511
v -0.137000 0.150567 -0.055939
v -0.136998 0.150552 -0.055966
v -0.138018 0.153458 -0.048681
v -0.137015 0.150666 -0.055760
v -0.136980 0.150853 -0.055643
v -0.136850 0.151193 -0.055665
v -0.137016 0.154705 -0.048746
v -0.135803 0.152881 -0.055834
v -0.135748 0.152931 -0.055875
v -0.135758 0.152929 -0.055855
v -0.135771 0.152917 -0.055844
v -0.135657 0.155549 -0.048681
v -0.134706 0.153652 -0.055890
v -0.134405 0.153761 -0.056100
v -0.137079 0.148911 -0.055549
v -0.137189 0.149618 -0.055262
v -0.132023 0.145083 -0.054226
v -0.130723 0.145423 -0.054082
v -0.130993 0.145353 -0.054112
v -0.130731 0.145443 -0.054087
v -0.131051 0.145374 -0.053884
v -0.130642 0.145473 -0.054078
v -0.130661 0.145501 -0.053889
v -0.134121 0.155951 -0.048511
v -0.133021 0.154164 -0.055938
v -0.133568 0.154117 -0.055649
v -0.132549 0.155878 -0.048249
v -0.132331 0.154264 -0.055402
v -0.131084 0.155335 -0.047921
v -0.131254 0.154143 -0.055112
v -0.131234 0.154138 -0.055092
v -0.131211 0.154129 -0.055087
v -0.130981 0.154031 -0.055112
v -0.129859 0.154371 -0.047556
v -0.130089 0.153638 -0.055112
v -0.129932 0.153521 -0.055009
v -0.130058 0.153618 -0.055060
v -0.128992 0.152734 -0.055112
v -0.129250 0.152917 -0.055185
v -0.129450 0.153094 -0.055249
v -0.128251 0.151514 -0.054778
v -0.128320 0.151586 -0.054801
v -0.128391 0.151745 -0.054841
v -0.128182 0.151225 -0.054715
v -0.127920 0.150123 -0.054477
v -0.127948 0.150120 -0.054481
v -0.127962 0.150298 -0.054515
v -0.127934 0.149930 -0.054445
v -0.128200 0.151270 -0.054606
v -0.128789 0.152399 -0.055020
v -0.129479 0.146195 -0.054023
v -0.129937 0.145911 -0.054045
v -0.129513 0.146234 -0.054035
v -0.129380 0.146335 -0.054032
v -0.129272 0.146453 -0.054036
v -0.128562 0.147337 -0.054082
v -0.128652 0.147233 -0.054077
v -0.128591 0.147353 -0.054089
v -0.128706 0.147159 -0.054073
v -0.128433 0.147664 -0.054120
v -0.128684 0.147253 -0.053839
v -0.128700 0.147281 -0.053668
v -0.128458 0.147685 -0.053917
v -0.129050 0.153038 -0.047190
v -0.136324 0.146596 -0.047190
v -0.134334 0.145430 -0.054240
v -0.135509 0.146086 -0.054607
v -0.134859 0.146053 -0.046862
v -0.133359 0.145175 -0.053878
v -0.132935 0.145148 -0.053877
v -0.133304 0.145177 -0.053827
v -0.133230 0.145175 -0.053805
v -0.133287 0.145980 -0.046601
v -0.131983 0.145148 -0.053877
v -0.131751 0.146382 -0.046430
v -0.131842 0.145206 -0.053723
v -0.131624 0.145267 -0.053678
v -0.130555 0.145599 -0.053730
v -0.130292 0.145766 -0.053699
v -0.130392 0.147225 -0.046366
v -0.140212 0.153416 -0.041036
v -0.139946 0.150065 -0.040396
v -0.139577 0.155017 -0.041221
v -0.138491 0.156371 -0.041291
v -0.140339 0.151714 -0.040752
v -0.137016 0.157285 -0.041221
v -0.135350 0.157722 -0.041036
v -0.133645 0.157642 -0.040752
v -0.132056 0.157053 -0.040396
v -0.130727 0.156007 -0.040000
v -0.129390 0.148473 -0.046430
v -0.128205 0.148388 -0.053843
v -0.128033 0.148686 -0.054204
v -0.128729 0.147249 -0.053648
v -0.128706 0.147278 -0.053655
v -0.128713 0.147271 -0.053649
v -0.128688 0.151518 -0.046862
v -0.128805 0.149949 -0.046601
v -0.128030 0.148692 -0.054211
v -0.128036 0.149496 -0.053752
v -0.127998 0.149835 -0.053919
v -0.128025 0.150479 -0.054191
v -0.128123 0.150850 -0.054095
v -0.128172 0.151073 -0.054213
v -0.128780 0.152389 -0.054838
v -0.128573 0.152051 -0.054661
v -0.128031 0.149618 -0.053733
v -0.128022 0.149703 -0.053775
v -0.139068 0.148619 -0.040000
v -0.137740 0.147573 -0.039603
v -0.136150 0.146984 -0.039247
v -0.134445 0.146904 -0.038964
v -0.132779 0.147341 -0.038778
v -0.131304 0.148256 -0.038709
v -0.130218 0.149610 -0.038778
v -0.129849 0.154562 -0.039603
v -0.141958 0.153015 -0.033255
v -0.141535 0.151237 -0.032871
v -0.141821 0.154850 -0.033560
v -0.141137 0.156576 -0.033760
v -0.139966 0.158036 -0.033835
v -0.138375 0.159022 -0.033760
v -0.136579 0.159493 -0.033560
v -0.134741 0.159407 -0.033255
v -0.133027 0.158772 -0.032871
v -0.131594 0.157644 -0.032443
v -0.129583 0.151210 -0.038964
v -0.129456 0.152913 -0.039247
v -0.139156 0.148550 -0.032016
v -0.140588 0.149678 -0.032443
v -0.137442 0.147915 -0.031632
v -0.135603 0.147829 -0.031326
v -0.133807 0.148300 -0.031127
v -0.132217 0.149286 -0.031051
v -0.131046 0.150746 -0.031127
v -0.130224 0.154307 -0.031632
v -0.130361 0.152472 -0.031326
v -0.130648 0.156085 -0.032016
v -0.143123 0.152409 -0.025346
v -0.143577 0.154316 -0.025757
v -0.143431 0.156284 -0.026085
v -0.142697 0.158135 -0.026299
v -0.141440 0.159701 -0.026380
v -0.139735 0.160759 -0.026299
v -0.137808 0.161264 -0.026085
v -0.135836 0.161171 -0.025757
v -0.133998 0.160490 -0.025346
v -0.142108 0.150737 -0.024887
v -0.140571 0.149527 -0.024429
v -0.138733 0.148846 -0.024017
v -0.136762 0.148754 -0.023689
v -0.134835 0.149259 -0.023475
v -0.133130 0.150317 -0.023394
v -0.131873 0.151882 -0.023475
v -0.131139 0.153733 -0.023689
v -0.130993 0.155702 -0.024017
v -0.132462 0.159280 -0.024887
v -0.131447 0.157609 -0.024429
v -0.145196 0.155616 -0.018260
v -0.145040 0.157718 -0.018610
v -0.144256 0.159695 -0.018839
v -0.142915 0.161366 -0.018925
v -0.141094 0.162495 -0.018839
v -0.139037 0.163034 -0.018610
v -0.136932 0.162936 -0.018260
v -0.134970 0.162209 -0.017820
v -0.143628 0.151796 -0.017331
v -0.144712 0.153581 -0.017820
v -0.141987 0.150504 -0.016842
v -0.140025 0.149777 -0.016402
v -0.137920 0.149679 -0.016052
v -0.135863 0.150218 -0.015823
v -0.134042 0.151347 -0.015737
v -0.132701 0.153019 -0.015823
v -0.131917 0.154995 -0.016052
v -0.133329 0.160917 -0.017331
v -0.132245 0.159133 -0.016842
v -0.131761 0.157097 -0.016402
v -0.145816 0.161254 -0.011378
v -0.146649 0.159152 -0.011135
v -0.146816 0.156917 -0.010763
v -0.144390 0.163031 -0.011470
v -0.142453 0.164232 -0.011378
v -0.140266 0.164805 -0.011135
v -0.138028 0.164700 -0.010763
v -0.135941 0.163927 -0.010295
v -0.146300 0.154753 -0.010295
v -0.145148 0.152855 -0.009775
v -0.143403 0.151481 -0.009254
v -0.141317 0.150708 -0.008787
v -0.139078 0.150604 -0.008415
v -0.136891 0.151177 -0.008172
v -0.134955 0.152378 -0.008080
v -0.133529 0.154155 -0.008172
v -0.133044 0.160656 -0.009254
v -0.132695 0.156257 -0.008415
v -0.132529 0.158491 -0.008787
v -0.134197 0.162554 -0.009775
v -0.148435 0.158218 -0.003265
v -0.148258 0.160586 -0.003660
v -0.147376 0.162813 -0.003917
v -0.145864 0.164696 -0.004014
v -0.143813 0.165969 -0.003917
v -0.141495 0.166576 -0.003660
v -0.139124 0.166465 -0.003265
v -0.136913 0.165646 -0.002770
v -0.147889 0.155924 -0.002770
v -0.146668 0.153914 -0.002219
v -0.144819 0.152459 -0.001667
v -0.142608 0.151639 -0.001172
v -0.140236 0.151528 -0.000778
v -0.137919 0.152136 -0.000520
v -0.135867 0.153408 -0.000423
v -0.135064 0.164190 -0.002219
v -0.133473 0.157518 -0.000778
v -0.133297 0.159886 -0.001172
v -0.133843 0.162180 -0.001667
v -0.134356 0.155291 -0.000520
v -0.140866 0.159052 -0.002219
v -0.133746 0.148854 -0.059581
v -0.134860 0.148165 -0.058914
v -0.134981 0.149618 -0.059110
v -0.135810 0.148863 -0.058372
v -0.135745 0.147619 -0.057874
v -0.134509 0.146855 -0.058346
v -0.133746 0.150381 -0.059581
v -0.134860 0.151070 -0.058914
v -0.135810 0.150373 -0.058372
v -0.136508 0.149618 -0.057583
v -0.135745 0.151617 -0.057874
v -0.134509 0.152380 -0.058346
v -0.132510 0.149618 -0.059811
v -0.132510 0.148333 -0.059632
v -0.133732 0.147578 -0.059166
v -0.132510 0.147147 -0.059110
v -0.133265 0.146357 -0.058411
v -0.131275 0.148854 -0.059581
v -0.131289 0.147578 -0.059166
v -0.131755 0.146357 -0.058411
v -0.130160 0.148165 -0.058914
v -0.130039 0.149618 -0.059110
v -0.133963 0.145815 -0.057462
v -0.132510 0.145620 -0.057583
v -0.130511 0.146855 -0.058346
v -0.131058 0.145815 -0.057462
v -0.129276 0.147619 -0.057874
v -0.132510 0.150902 -0.059632
v -0.133732 0.151657 -0.059166
v -0.132510 0.152089 -0.059110
v -0.133265 0.152878 -0.058411
v -0.131275 0.150381 -0.059581
v -0.131289 0.151657 -0.059166
v -0.130160 0.151070 -0.058914
v -0.131755 0.152878 -0.058411
v -0.133963 0.153420 -0.057462
v -0.132510 0.153616 -0.057583
v -0.130511 0.152380 -0.058346
v -0.129276 0.151617 -0.057874
v -0.131058 0.153420 -0.057462
v -0.136565 0.148396 -0.057151
v -0.135273 0.146383 -0.057111
v -0.136313 0.147268 -0.056564
v -0.136980 0.148382 -0.055875
v -0.137031 0.149618 -0.056396
v -0.134550 0.145563 -0.056333
v -0.135771 0.146318 -0.055867
v -0.136565 0.150839 -0.057151
v -0.136313 0.151968 -0.056564
v -0.135273 0.152852 -0.057111
v -0.136980 0.150853 -0.055875
v -0.134550 0.153672 -0.056333
v -0.135771 0.152917 -0.055867
v -0.133274 0.145148 -0.056347
v -0.131747 0.145148 -0.056347
v -0.129748 0.146383 -0.057111
v -0.130471 0.145563 -0.056333
v -0.133274 0.154088 -0.056347
v -0.129748 0.152852 -0.057111
v -0.131747 0.154088 -0.056347
v -0.130471 0.153672 -0.056333
v -0.134981 0.145620 -0.055112
v -0.136508 0.147147 -0.055112
v -0.133795 0.145097 -0.055112
v -0.132510 0.144918 -0.055112
v -0.131226 0.145097 -0.055112
v -0.129250 0.146318 -0.055867
v -0.130039 0.145620 -0.055112
v -0.133274 0.145148 -0.053877
v -0.131747 0.145148 -0.053877
v -0.130471 0.145563 -0.053891
v -0.129250 0.146318 -0.054357
v -0.129250 0.152917 -0.055867
v -0.131226 0.154139 -0.055112
v -0.130039 0.153616 -0.055112
v -0.129211 0.148863 -0.058372
v -0.129211 0.150373 -0.058372
v -0.128512 0.149618 -0.057583
v -0.128456 0.148396 -0.057151
v -0.128708 0.147268 -0.056564
v -0.128040 0.148382 -0.055875
v -0.127989 0.149618 -0.056396
v -0.128456 0.150839 -0.057151
v -0.128708 0.151968 -0.056564
v -0.128040 0.150853 -0.055875
v -0.128512 0.147147 -0.055112
v -0.128040 0.148382 -0.054348
v -0.127810 0.149618 -0.055112
v -0.128512 0.152089 -0.055112
v -0.128040 0.150853 -0.054348
v -0.127989 0.149618 -0.053828
v -0.128708 0.147268 -0.053660
v -0.135542 -0.153040 -0.056201
v -0.135748 -0.152783 -0.056188
v -0.135641 -0.152900 -0.056192
v -0.135508 -0.153002 -0.056189
v -0.135722 -0.152911 -0.055990
v -0.135084 -0.153325 -0.056179
v -0.135087 -0.153340 -0.056128
v -0.136458 -0.151899 -0.056142
v -0.136430 -0.151882 -0.056135
v -0.136369 -0.152002 -0.056147
v -0.136315 -0.152077 -0.056151
v -0.136588 -0.151571 -0.056104
v -0.134297 -0.153812 -0.056142
v -0.134378 -0.153762 -0.056146
v -0.134289 -0.153793 -0.056137
v -0.134028 -0.153883 -0.056112
v -0.137100 -0.149112 -0.055747
v -0.137072 -0.149115 -0.055743
v -0.137086 -0.149305 -0.055779
v -0.137059 -0.148938 -0.055709
v -0.135748 -0.152931 -0.055875
v -0.136769 -0.147721 -0.055446
v -0.136629 -0.147490 -0.055383
v -0.136700 -0.147650 -0.055423
v -0.136838 -0.148011 -0.055509
v -0.136647 -0.147510 -0.055336
v -0.136029 -0.146502 -0.055112
v -0.135771 -0.146318 -0.055039
v -0.136232 -0.146836 -0.055204
v -0.136337 -0.146955 -0.054937
v -0.135571 -0.146141 -0.054975
v -0.134908 -0.145619 -0.054778
v -0.134901 -0.145630 -0.054778
v -0.135014 -0.145703 -0.054809
v -0.134802 -0.145580 -0.054754
v -0.134859 -0.145604 -0.054767
v -0.132892 -0.154180 -0.055986
v -0.132998 -0.154153 -0.055998
v -0.132890 -0.154156 -0.055981
v -0.132564 -0.154165 -0.055931
v -0.131454 -0.154113 -0.055747
v -0.131535 -0.154117 -0.055760
v -0.131496 -0.154112 -0.055753
v -0.131457 -0.154101 -0.055745
v -0.131289 -0.154052 -0.055710
v -0.131309 -0.154131 -0.055308
v -0.130113 -0.153616 -0.055446
v -0.130219 -0.153656 -0.055470
v -0.130161 -0.153632 -0.055457
v -0.130120 -0.153605 -0.055445
v -0.130007 -0.153533 -0.055415
v -0.130094 -0.153623 -0.055267
v -0.133567 -0.145122 -0.054477
v -0.133564 -0.145135 -0.054479
v -0.133732 -0.145183 -0.054514
v -0.133485 -0.145118 -0.054464
v -0.133524 -0.145123 -0.054471
v -0.133495 -0.145126 -0.054401
v -0.132128 -0.145055 -0.054238
v -0.132131 -0.145080 -0.054243
v -0.132457 -0.145070 -0.054293
v -0.138018 -0.153458 -0.048681
v -0.138603 -0.151982 -0.048511
v -0.136999 -0.150548 -0.055963
v -0.136998 -0.150552 -0.055966
v -0.137015 -0.150666 -0.055760
v -0.136850 -0.151193 -0.055665
v -0.137016 -0.154705 -0.048746
v -0.135803 -0.152881 -0.055834
v -0.135771 -0.152917 -0.055844
v -0.135758 -0.152929 -0.055855
v -0.134405 -0.153761 -0.056100
v -0.134706 -0.153652 -0.055890
v -0.135657 -0.155549 -0.048681
v -0.136980 -0.150853 -0.055643
v -0.138720 -0.150413 -0.048249
v -0.137189 -0.149618 -0.055262
v -0.138358 -0.148893 -0.047921
v -0.137079 -0.148911 -0.055549
v -0.136980 -0.148382 -0.055272
v -0.137549 -0.147560 -0.047556
v -0.136588 -0.147356 -0.054983
v -0.136478 -0.147166 -0.054885
v -0.136324 -0.146596 -0.047190
v -0.133568 -0.154117 -0.055649
v -0.133021 -0.154164 -0.055938
v -0.134121 -0.155951 -0.048511
v -0.132331 -0.154264 -0.055402
v -0.132549 -0.155878 -0.048249
v -0.131254 -0.154143 -0.055112
v -0.130981 -0.154031 -0.055112
v -0.131084 -0.155335 -0.047921
v -0.131234 -0.154138 -0.055092
v -0.131211 -0.154129 -0.055087
v -0.130089 -0.153638 -0.055112
v -0.130058 -0.153618 -0.055060
v -0.129932 -0.153521 -0.055009
v -0.129450 -0.153094 -0.055249
v -0.132023 -0.145083 -0.054226
v -0.131983 -0.145148 -0.053877
v -0.130723 -0.145423 -0.054082
v -0.130731 -0.145443 -0.054087
v -0.130993 -0.145353 -0.054112
v -0.131051 -0.145374 -0.053884
v -0.130642 -0.145473 -0.054078
v -0.130661 -0.145501 -0.053889
v -0.128992 -0.152734 -0.055112
v -0.129250 -0.152917 -0.055185
v -0.128789 -0.152399 -0.055020
v -0.128251 -0.151514 -0.054778
v -0.128391 -0.151745 -0.054841
v -0.128320 -0.151586 -0.054801
v -0.128182 -0.151225 -0.054715
v -0.128200 -0.151270 -0.054606
v -0.127920 -0.150123 -0.054477
v -0.127962 -0.150298 -0.054515
v -0.127948 -0.150120 -0.054481
v -0.127934 -0.149930 -0.054445
v -0.129859 -0.154371 -0.047556
v -0.128780 -0.152389 -0.054838
v -0.129479 -0.146195 -0.054023
v -0.129513 -0.146234 -0.054035
v -0.129937 -0.145911 -0.054045
v -0.129272 -0.146453 -0.054036
v -0.129380 -0.146335 -0.054032
v -0.128562 -0.147337 -0.054082
v -0.128458 -0.147685 -0.053917
v -0.128433 -0.147664 -0.054120
v -0.128591 -0.147353 -0.054089
v -0.128652 -0.147233 -0.054077
v -0.128706 -0.147159 -0.054073
v -0.128684 -0.147253 -0.053839
v -0.128700 -0.147281 -0.053668
v -0.135509 -0.146086 -0.054607
v -0.134859 -0.146053 -0.046862
v -0.134334 -0.145430 -0.054240
v -0.133287 -0.145980 -0.046601
v -0.133359 -0.145175 -0.053878
v -0.132935 -0.145148 -0.053877
v -0.130392 -0.147225 -0.046366
v -0.131751 -0.146382 -0.046430
v -0.133230 -0.145175 -0.053805
v -0.133304 -0.145177 -0.053827
v -0.130555 -0.145599 -0.053730
v -0.130292 -0.145766 -0.053699
v -0.131842 -0.145206 -0.053723
v -0.131624 -0.145267 -0.053678
v -0.140339 -0.151714 -0.040752
v -0.138491 -0.156371 -0.041291
v -0.137016 -0.157285 -0.041221
v -0.135350 -0.157722 -0.041036
v -0.133645 -0.157642 -0.040752
v -0.132056 -0.157053 -0.040396
v -0.139577 -0.155017 -0.041221
v -0.140212 -0.153416 -0.041036
v -0.139946 -0.150065 -0.040396
v -0.139068 -0.148619 -0.040000
v -0.128573 -0.152051 -0.054661
v -0.129050 -0.153038 -0.047190
v -0.128172 -0.151073 -0.054213
v -0.128025 -0.150479 -0.054191
v -0.128688 -0.151518 -0.046862
v -0.128123 -0.150850 -0.054095
v -0.127998 -0.149835 -0.053919
v -0.128036 -0.149496 -0.053752
v -0.128030 -0.148699 -0.054207
v -0.128022 -0.149703 -0.053775
v -0.128805 -0.149949 -0.046601
v -0.128030 -0.148692 -0.054211
v -0.128031 -0.149618 -0.053733
v -0.129390 -0.148473 -0.046430
v -0.128205 -0.148388 -0.053843
v -0.128713 -0.147271 -0.053649
v -0.128729 -0.147249 -0.053648
v -0.128706 -0.147278 -0.053655
v -0.130727 -0.156007 -0.040000
v -0.137740 -0.147573 -0.039603
v -0.136150 -0.146984 -0.039247
v -0.134445 -0.146904 -0.038964
v -0.132779 -0.147341 -0.038778
v -0.131304 -0.148256 -0.038709
v -0.130218 -0.149610 -0.038778
v -0.141137 -0.156576 -0.033760
v -0.141821 -0.154850 -0.033560
v -0.141958 -0.153015 -0.033255
v -0.141535 -0.151237 -0.032871
v -0.140588 -0.149678 -0.032443
v -0.138375 -0.159022 -0.033760
v -0.139966 -0.158036 -0.033835
v -0.136579 -0.159493 -0.033560
v -0.134741 -0.159407 -0.033255
v -0.133027 -0.158772 -0.032871
v -0.129849 -0.154562 -0.039603
v -0.129456 -0.152913 -0.039247
v -0.129583 -0.151210 -0.038964
v -0.139156 -0.148550 -0.032016
v -0.131594 -0.157644 -0.032443
v -0.130648 -0.156085 -0.032016
v -0.137442 -0.147915 -0.031632
v -0.135603 -0.147829 -0.031326
v -0.130361 -0.152472 -0.031326
v -0.131046 -0.150746 -0.031127
v -0.133807 -0.148300 -0.031127
v -0.132217 -0.149286 -0.031051
v -0.130224 -0.154307 -0.031632
v -0.143431 -0.156284 -0.026085
v -0.141440 -0.159701 -0.026380
v -0.142697 -0.158135 -0.026299
v -0.143577 -0.154316 -0.025757
v -0.143123 -0.152409 -0.025346
v -0.139735 -0.160759 -0.026299
v -0.137808 -0.161264 -0.026085
v -0.135836 -0.161171 -0.025757
v -0.133998 -0.160490 -0.025346
v -0.142108 -0.150737 -0.024887
v -0.140571 -0.149527 -0.024429
v -0.138733 -0.148846 -0.024017
v -0.132462 -0.159280 -0.024887
v -0.131447 -0.157609 -0.024429
v -0.130993 -0.155702 -0.024017
v -0.136762 -0.148754 -0.023689
v -0.134835 -0.149259 -0.023475
v -0.133130 -0.150317 -0.023394
v -0.131139 -0.153733 -0.023689
v -0.131873 -0.151882 -0.023475
v -0.145196 -0.155616 -0.018260
v -0.141094 -0.162495 -0.018839
v -0.144256 -0.159695 -0.018839
v -0.145040 -0.157718 -0.018610
v -0.142915 -0.161366 -0.018925
v -0.144712 -0.153581 -0.017820
v -0.139037 -0.163034 -0.018610
v -0.136932 -0.162936 -0.018260
v -0.143628 -0.151796 -0.017331
v -0.141987 -0.150504 -0.016842
v -0.140025 -0.149777 -0.016402
v -0.134970 -0.162209 -0.017820
v -0.133329 -0.160917 -0.017331
v -0.132245 -0.159133 -0.016842
v -0.131761 -0.157097 -0.016402
v -0.137920 -0.149679 -0.016052
v -0.135863 -0.150218 -0.015823
v -0.134042 -0.151347 -0.015737
v -0.132701 -0.153019 -0.015823
v -0.131917 -0.154995 -0.016052
v -0.145816 -0.161254 -0.011378
v -0.146649 -0.159152 -0.011135
v -0.146816 -0.156917 -0.010763
v -0.144390 -0.163031 -0.011470
v -0.142453 -0.164232 -0.011378
v -0.146300 -0.154753 -0.010295
v -0.140266 -0.164805 -0.011135
v -0.138028 -0.164700 -0.010763
v -0.145148 -0.152855 -0.009775
v -0.143403 -0.151481 -0.009254
v -0.141317 -0.150708 -0.008787
v -0.135941 -0.163927 -0.010295
v -0.134197 -0.162554 -0.009775
v -0.133044 -0.160656 -0.009254
v -0.132529 -0.158491 -0.008787
v -0.139078 -0.150604 -0.008415
v -0.132695 -0.156257 -0.008415
v -0.136891 -0.151177 -0.008172
v -0.134955 -0.152378 -0.008080
v -0.133529 -0.154155 -0.008172
v -0.145864 -0.164696 -0.004014
v -0.147376 -0.162813 -0.003917
v -0.148435 -0.158218 -0.003265
v -0.148258 -0.160586 -0.003660
v -0.147889 -0.155924 -0.002770
v -0.143813 -0.165969 -0.003917
v -0.141495 -0.166576 -0.003660
v -0.139124 -0.166465 -0.003265
v -0.146668 -0.153914 -0.002219
v -0.144819 -0.152459 -0.001667
v -0.142608 -0.151639 -0.001172
v -0.140236 -0.151528 -0.000778
v -0.136913 -0.165646 -0.002770
v -0.135064 -0.164190 -0.002219
v -0.133843 -0.162180 -0.001667
v -0.133297 -0.159886 -0.001172
v -0.133473 -0.157518 -0.000778
v -0.137919 -0.152136 -0.000520
v -0.135867 -0.153408 -0.000423
v -0.134356 -0.155291 -0.000520
v -0.140866 -0.159052 -0.002219
v -0.133746 -0.150381 -0.059581
v -0.134860 -0.151070 -0.058914
v -0.134981 -0.149618 -0.059110
v -0.135810 -0.150373 -0.058372
v -0.135810 -0.148863 -0.058372
v -0.136508 -0.149618 -0.057583
v -0.135745 -0.151617 -0.057874
v -0.134509 -0.152380 -0.058346
v -0.133746 -0.148854 -0.059581
v -0.134860 -0.148165 -0.058914
v -0.135745 -0.147619 -0.057874
v -0.134509 -0.146855 -0.058346
v -0.133732 -0.151657 -0.059166
v -0.132510 -0.152089 -0.059110
v -0.133265 -0.152878 -0.058411
v -0.132510 -0.150902 -0.059632
v -0.132510 -0.149618 -0.059811
v -0.131289 -0.151657 -0.059166
v -0.131755 -0.152878 -0.058411
v -0.131275 -0.150381 -0.059581
v -0.131275 -0.148854 -0.059581
v -0.130039 -0.149618 -0.059110
v -0.130160 -0.151070 -0.058914
v -0.133963 -0.153420 -0.057462
v -0.132510 -0.153616 -0.057583
v -0.130511 -0.152380 -0.058346
v -0.131058 -0.153420 -0.057462
v -0.129276 -0.151617 -0.057874
v -0.132510 -0.148333 -0.059632
v -0.133732 -0.147578 -0.059166
v -0.132510 -0.147147 -0.059110
v -0.133265 -0.146357 -0.058411
v -0.131289 -0.147578 -0.059166
v -0.131755 -0.146357 -0.058411
v -0.130160 -0.148165 -0.058914
v -0.133963 -0.145815 -0.057462
v -0.132510 -0.145620 -0.057583
v -0.130511 -0.146855 -0.058346
v -0.131058 -0.145815 -0.057462
v -0.129276 -0.147619 -0.057874
v -0.135273 -0.152852 -0.057111
v -0.136313 -0.151968 -0.056564
v -0.136565 -0.150839 -0.057151
v -0.137031 -0.149618 -0.056396
v -0.136565 -0.148396 -0.057151
v -0.136980 -0.150853 -0.055875
v -0.134550 -0.153672 -0.056333
v -0.135771 -0.152917 -0.055867
v -0.135273 -0.146383 -0.057111
v -0.136313 -0.147268 -0.056564
v -0.136980 -0.148382 -0.055875
v -0.135771 -0.146318 -0.055867
v -0.134550 -0.145563 -0.056333
v -0.133274 -0.154088 -0.056347
v -0.129748 -0.152852 -0.057111
v -0.131747 -0.154088 -0.056347
v -0.130471 -0.153672 -0.056333
v -0.133274 -0.145148 -0.056347
v -0.129748 -0.146383 -0.057111
v -0.131747 -0.145148 -0.056347
v -0.130471 -0.145563 -0.056333
v -0.136508 -0.147147 -0.055112
v -0.134981 -0.145620 -0.055112
v -0.133795 -0.145097 -0.055112
v -0.129250 -0.152917 -0.055867
v -0.131226 -0.154139 -0.055112
v -0.130039 -0.153616 -0.055112
v -0.132510 -0.144918 -0.055112
v -0.131226 -0.145097 -0.055112
v -0.130039 -0.145620 -0.055112
v -0.129250 -0.146318 -0.055867
v -0.133274 -0.145148 -0.053877
v -0.131747 -0.145148 -0.053877
v -0.130471 -0.145563 -0.053891
v -0.129250 -0.146318 -0.054357
v -0.129211 -0.150373 -0.058372
v -0.129211 -0.148863 -0.058372
v -0.128512 -0.149618 -0.057583
v -0.128708 -0.151968 -0.056564
v -0.128456 -0.150839 -0.057151
v -0.127989 -0.149618 -0.056396
v -0.128456 -0.148396 -0.057151
v -0.128040 -0.150853 -0.055875
v -0.128708 -0.147268 -0.056564
v -0.128040 -0.148382 -0.055875
v -0.128512 -0.152089 -0.055112
v -0.127810 -0.149618 -0.055112
v -0.128040 -0.150853 -0.054348
v -0.127989 -0.149618 -0.053828
v -0.128040 -0.148382 -0.054348
v -0.128512 -0.147147 -0.055112
v -0.128708 -0.147268 -0.053660
v 0.129412 -0.176060 -0.055112
v 0.129304 -0.175851 -0.055057
v 0.129817 -0.176427 -0.055240
v 0.128758 -0.174793 -0.054778
v 0.128944 -0.175154 -0.054873
v 0.128947 -0.175162 -0.054800
v 0.128721 -0.174569 -0.054730
v 0.128524 -0.173382 -0.054477
v 0.128545 -0.173381 -0.054480
v 0.128561 -0.173605 -0.054525
v 0.128538 -0.173286 -0.054461
v 0.128618 -0.173210 -0.053834
v 0.128747 -0.174636 -0.054475
v 0.130164 -0.177753 -0.047556
v 0.129449 -0.176368 -0.047190
v 0.129300 -0.175847 -0.054948
v 0.129358 -0.170647 -0.054082
v 0.129383 -0.170663 -0.054088
v 0.129288 -0.170794 -0.054099
v 0.129533 -0.170458 -0.054071
v 0.129537 -0.170493 -0.053919
v 0.129341 -0.170837 -0.053667
v 0.134630 -0.177504 -0.056142
v 0.134376 -0.177552 -0.056114
v 0.134618 -0.177470 -0.056134
v 0.134839 -0.177394 -0.056152
v 0.135925 -0.176821 -0.056201
v 0.135567 -0.177009 -0.056185
v 0.135885 -0.176770 -0.056186
v 0.135567 -0.177010 -0.056184
v 0.136171 -0.176554 -0.056186
v 0.136232 -0.176599 -0.055931
v 0.136918 -0.175745 -0.056142
v 0.136744 -0.175934 -0.056152
v 0.136894 -0.175729 -0.056135
v 0.136989 -0.175598 -0.056125
v 0.131772 -0.177607 -0.055747
v 0.131585 -0.177523 -0.055704
v 0.131943 -0.177627 -0.055775
v 0.131584 -0.177550 -0.055549
v 0.132016 -0.177701 -0.055497
v 0.130469 -0.177019 -0.055446
v 0.130365 -0.176924 -0.055413
v 0.130482 -0.176999 -0.055445
v 0.130369 -0.176930 -0.055397
v 0.130615 -0.177085 -0.055480
v 0.130589 -0.177125 -0.055187
v 0.133202 -0.177774 -0.055986
v 0.133202 -0.177735 -0.055978
v 0.133446 -0.177728 -0.056013
v 0.132925 -0.177742 -0.055940
v 0.133074 -0.168618 -0.054238
v 0.133351 -0.168650 -0.054284
v 0.133075 -0.168657 -0.054246
v 0.134504 -0.168785 -0.054477
v 0.134496 -0.168812 -0.054481
v 0.134333 -0.168765 -0.054449
v 0.137752 -0.173010 -0.055747
v 0.137739 -0.173106 -0.055763
v 0.137732 -0.173011 -0.055744
v 0.137716 -0.172787 -0.055699
v 0.137778 -0.173196 -0.055542
v 0.137519 -0.171599 -0.055446
v 0.137556 -0.171823 -0.055494
v 0.137332 -0.171238 -0.055351
v 0.136865 -0.170332 -0.055112
v 0.136973 -0.170541 -0.055167
v 0.136460 -0.169965 -0.054984
v 0.135807 -0.169373 -0.054778
v 0.135794 -0.169393 -0.054779
v 0.135661 -0.169307 -0.054744
v 0.135912 -0.169468 -0.054811
v 0.134691 -0.168869 -0.054520
v 0.137021 -0.170595 -0.054993
v 0.132743 -0.179444 -0.048249
v 0.134306 -0.179626 -0.048511
v 0.133561 -0.177769 -0.055796
v 0.134164 -0.177692 -0.055725
v 0.131319 -0.178800 -0.047921
v 0.130991 -0.177337 -0.055112
v 0.130637 -0.177167 -0.055083
v 0.130687 -0.177197 -0.055057
v 0.129877 -0.176496 -0.055157
v 0.132839 -0.177806 -0.055596
v 0.130352 -0.169571 -0.054023
v 0.130391 -0.169622 -0.054038
v 0.130106 -0.169838 -0.054037
v 0.130709 -0.169382 -0.054039
v 0.131647 -0.168888 -0.054082
v 0.131659 -0.168922 -0.054090
v 0.131438 -0.168998 -0.054072
v 0.131457 -0.169025 -0.053887
v 0.131900 -0.168840 -0.054110
v 0.131935 -0.168869 -0.053881
v 0.132831 -0.168664 -0.054211
v 0.135865 -0.179331 -0.048681
v 0.134967 -0.177380 -0.055993
v 0.135341 -0.177229 -0.055871
v 0.137280 -0.178584 -0.048746
v 0.136315 -0.176570 -0.055786
v 0.136399 -0.176496 -0.055743
v 0.136516 -0.176365 -0.055747
v 0.138366 -0.177409 -0.048681
v 0.137004 -0.175585 -0.056090
v 0.137518 -0.174668 -0.055729
v 0.137572 -0.174528 -0.055759
v 0.139052 -0.175977 -0.048511
v 0.137590 -0.174480 -0.055769
v 0.137608 -0.174431 -0.055710
v 0.137725 -0.173807 -0.055489
v 0.139277 -0.174420 -0.048249
v 0.137748 -0.172712 -0.055411
v 0.137608 -0.171961 -0.055344
v 0.139022 -0.172879 -0.047921
v 0.137233 -0.170977 -0.054956
v 0.137109 -0.170742 -0.054911
v 0.138307 -0.171493 -0.047556
v 0.129189 -0.175637 -0.054747
v 0.129193 -0.174826 -0.046862
v 0.128744 -0.174557 -0.054271
v 0.128726 -0.174430 -0.054170
v 0.128650 -0.174000 -0.054167
v 0.129419 -0.173269 -0.046601
v 0.128623 -0.173180 -0.053818
v 0.128621 -0.173196 -0.053819
v 0.128620 -0.173203 -0.053824
v 0.128752 -0.171963 -0.054090
v 0.128741 -0.171978 -0.054116
v 0.128757 -0.171954 -0.054087
v 0.130105 -0.171838 -0.046430
v 0.129333 -0.170861 -0.053652
v 0.129340 -0.170842 -0.053658
v 0.129338 -0.170848 -0.053654
v 0.131191 -0.170663 -0.046366
v 0.132606 -0.169916 -0.046430
v 0.134165 -0.169621 -0.046601
v 0.132772 -0.168726 -0.053877
v 0.135728 -0.169803 -0.046862
v 0.133575 -0.168726 -0.053877
v 0.133970 -0.168792 -0.053767
v 0.133824 -0.168774 -0.053751
v 0.130066 -0.169921 -0.053887
v 0.130928 -0.169335 -0.053707
v 0.131220 -0.169193 -0.053658
v 0.132249 -0.168848 -0.053674
v 0.132502 -0.168805 -0.053671
v 0.137152 -0.170446 -0.047190
v 0.135022 -0.169045 -0.054142
v 0.135231 -0.169148 -0.054041
v 0.134133 -0.168801 -0.053879
v 0.136410 -0.169908 -0.054368
v 0.136392 -0.169892 -0.054354
v 0.136397 -0.169897 -0.054352
v 0.136401 -0.169901 -0.054354
v 0.132169 -0.180582 -0.040396
v 0.133713 -0.181280 -0.040752
v 0.135409 -0.181478 -0.041036
v 0.137101 -0.181158 -0.041221
v 0.130916 -0.179446 -0.040000
v 0.138636 -0.180348 -0.041291
v 0.139814 -0.179073 -0.041221
v 0.140558 -0.177520 -0.041036
v 0.140802 -0.175830 -0.040752
v 0.140525 -0.174158 -0.040396
v 0.129863 -0.176271 -0.039247
v 0.130108 -0.174582 -0.038964
v 0.130140 -0.177943 -0.039603
v 0.130852 -0.173029 -0.038778
v 0.132030 -0.171754 -0.038709
v 0.133565 -0.170943 -0.038778
v 0.135257 -0.170624 -0.038964
v 0.136952 -0.170822 -0.039247
v 0.138497 -0.171519 -0.039603
v 0.139750 -0.172655 -0.040000
v 0.131667 -0.181139 -0.032443
v 0.133018 -0.182364 -0.032871
v 0.136512 -0.183330 -0.033560
v 0.138336 -0.182985 -0.033760
v 0.134684 -0.183116 -0.033255
v 0.139991 -0.182111 -0.033835
v 0.141261 -0.180736 -0.033760
v 0.142064 -0.179062 -0.033560
v 0.142327 -0.177241 -0.033255
v 0.142029 -0.175437 -0.032871
v 0.130831 -0.179519 -0.032016
v 0.130532 -0.177716 -0.031632
v 0.130796 -0.175894 -0.031326
v 0.131599 -0.174220 -0.031127
v 0.132869 -0.172845 -0.031051
v 0.134523 -0.171971 -0.031127
v 0.138176 -0.171840 -0.031632
v 0.139842 -0.172592 -0.032016
v 0.136348 -0.171627 -0.031326
v 0.141193 -0.173817 -0.032443
v 0.133868 -0.184146 -0.025346
v 0.137615 -0.185181 -0.026085
v 0.135655 -0.184953 -0.025757
v 0.139572 -0.184812 -0.026299
v 0.141347 -0.183874 -0.026380
v 0.142709 -0.182400 -0.026299
v 0.143570 -0.180604 -0.026085
v 0.143853 -0.178651 -0.025757
v 0.143532 -0.176717 -0.025346
v 0.131522 -0.181094 -0.024429
v 0.132419 -0.182832 -0.024887
v 0.131202 -0.179160 -0.024017
v 0.131485 -0.177207 -0.023689
v 0.132346 -0.175411 -0.023475
v 0.133707 -0.173937 -0.023394
v 0.135482 -0.172999 -0.023475
v 0.137439 -0.172629 -0.023689
v 0.139400 -0.172858 -0.024017
v 0.142635 -0.174979 -0.024887
v 0.141186 -0.173665 -0.024429
v 0.138718 -0.187033 -0.018610
v 0.136625 -0.186789 -0.018260
v 0.134718 -0.185927 -0.017820
v 0.140808 -0.186638 -0.018839
v 0.142702 -0.185638 -0.018925
v 0.144157 -0.184064 -0.018839
v 0.145075 -0.182147 -0.018610
v 0.145378 -0.180061 -0.018260
v 0.132214 -0.182669 -0.016842
v 0.133171 -0.184525 -0.017331
v 0.131871 -0.180605 -0.016402
v 0.132173 -0.178519 -0.016052
v 0.133092 -0.176602 -0.015823
v 0.134546 -0.175028 -0.015737
v 0.136441 -0.174027 -0.015823
v 0.138531 -0.173632 -0.016052
v 0.145035 -0.177996 -0.017820
v 0.144078 -0.176141 -0.017331
v 0.140624 -0.173877 -0.016402
v 0.142531 -0.174738 -0.016842
v 0.135568 -0.187709 -0.010295
v 0.137596 -0.188625 -0.010763
v 0.142043 -0.188465 -0.011378
v 0.144058 -0.187401 -0.011470
v 0.139822 -0.188885 -0.011135
v 0.145604 -0.185728 -0.011378
v 0.146581 -0.183689 -0.011135
v 0.146903 -0.181471 -0.010763
v 0.133923 -0.186218 -0.009775
v 0.132905 -0.184245 -0.009254
v 0.132541 -0.182049 -0.008787
v 0.132862 -0.179832 -0.008415
v 0.139622 -0.174635 -0.008415
v 0.133839 -0.177793 -0.008172
v 0.135385 -0.176119 -0.008080
v 0.137400 -0.175055 -0.008172
v 0.146539 -0.179276 -0.010295
v 0.141848 -0.174895 -0.008787
v 0.143876 -0.175811 -0.009254
v 0.145521 -0.177302 -0.009775
v 0.136418 -0.189491 -0.002770
v 0.138566 -0.190462 -0.003265
v 0.143279 -0.190292 -0.003917
v 0.140925 -0.190737 -0.003660
v 0.145414 -0.189165 -0.004014
v 0.147052 -0.187391 -0.003917
v 0.148087 -0.185231 -0.003660
v 0.148428 -0.182881 -0.003265
v 0.133596 -0.185820 -0.001667
v 0.133210 -0.183494 -0.001172
v 0.133551 -0.181144 -0.000778
v 0.134675 -0.187911 -0.002219
v 0.134586 -0.178984 -0.000520
v 0.136224 -0.177210 -0.000423
v 0.138359 -0.176083 -0.000520
v 0.148042 -0.180555 -0.002770
v 0.145220 -0.176884 -0.001667
v 0.143072 -0.175914 -0.001172
v 0.146963 -0.178464 -0.002219
v 0.140713 -0.175638 -0.000778
v 0.140819 -0.183188 -0.002219
v 0.129839 -0.173951 -0.058372
v 0.129140 -0.173196 -0.057583
v 0.129839 -0.172441 -0.058372
v 0.129904 -0.175195 -0.057874
v 0.129084 -0.174417 -0.057151
v 0.130376 -0.176430 -0.057111
v 0.129336 -0.175546 -0.056564
v 0.128617 -0.173196 -0.056396
v 0.129877 -0.176496 -0.055867
v 0.128668 -0.174431 -0.055875
v 0.129084 -0.171975 -0.057151
v 0.129904 -0.171197 -0.057874
v 0.129336 -0.170846 -0.056564
v 0.130376 -0.169961 -0.057111
v 0.128668 -0.171961 -0.055875
v 0.129877 -0.169896 -0.055867
v 0.129140 -0.175667 -0.055112
v 0.128438 -0.173196 -0.055112
v 0.128668 -0.174431 -0.054348
v 0.128617 -0.173196 -0.053828
v 0.129140 -0.170725 -0.055112
v 0.128668 -0.171961 -0.054348
v 0.129877 -0.169896 -0.054357
v 0.129336 -0.170846 -0.053660
v 0.131903 -0.173960 -0.059581
v 0.130667 -0.173196 -0.059110
v 0.131903 -0.172432 -0.059581
v 0.131917 -0.175235 -0.059166
v 0.130788 -0.174648 -0.058914
v 0.133138 -0.174480 -0.059632
v 0.133138 -0.173196 -0.059811
v 0.134374 -0.173960 -0.059581
v 0.134360 -0.175235 -0.059166
v 0.134374 -0.172432 -0.059581
v 0.133138 -0.175667 -0.059110
v 0.132383 -0.176457 -0.058411
v 0.133893 -0.176457 -0.058411
v 0.131139 -0.175959 -0.058346
v 0.131686 -0.176998 -0.057462
v 0.135137 -0.175959 -0.058346
v 0.133138 -0.177194 -0.057583
v 0.130788 -0.171744 -0.058914
v 0.131917 -0.171157 -0.059166
v 0.133138 -0.171912 -0.059632
v 0.134360 -0.171157 -0.059166
v 0.133138 -0.170725 -0.059110
v 0.132383 -0.169935 -0.058411
v 0.133893 -0.169935 -0.058411
v 0.131139 -0.170433 -0.058346
v 0.131686 -0.169394 -0.057462
v 0.135137 -0.170433 -0.058346
v 0.133138 -0.169198 -0.057583
v 0.135609 -0.173196 -0.059110
v 0.135488 -0.174648 -0.058914
v 0.134591 -0.176998 -0.057462
v 0.136438 -0.173951 -0.058372
v 0.136438 -0.172441 -0.058372
v 0.136373 -0.175195 -0.057874
v 0.137136 -0.173196 -0.057583
v 0.135488 -0.171744 -0.058914
v 0.136373 -0.171197 -0.057874
v 0.134591 -0.169394 -0.057462
v 0.132375 -0.177666 -0.056347
v 0.133902 -0.177666 -0.056347
v 0.131099 -0.177251 -0.056333
v 0.132375 -0.168726 -0.056347
v 0.133902 -0.168726 -0.056347
v 0.131099 -0.169141 -0.056333
v 0.135901 -0.176430 -0.057111
v 0.137193 -0.174417 -0.057151
v 0.136941 -0.175546 -0.056564
v 0.137659 -0.173196 -0.056396
v 0.135178 -0.177251 -0.056333
v 0.136399 -0.176496 -0.055867
v 0.137608 -0.174431 -0.055875
v 0.135901 -0.169961 -0.057111
v 0.137193 -0.171975 -0.057151
v 0.136941 -0.170846 -0.056564
v 0.136399 -0.169896 -0.055867
v 0.135178 -0.169141 -0.056333
v 0.137608 -0.171961 -0.055875
v 0.130667 -0.177194 -0.055112
v 0.130667 -0.169198 -0.055112
v 0.131854 -0.168675 -0.055112
v 0.133138 -0.168496 -0.055112
v 0.134423 -0.168675 -0.055112
v 0.131099 -0.169141 -0.053891
v 0.132375 -0.168726 -0.053877
v 0.133902 -0.168726 -0.053877
v 0.137136 -0.170725 -0.055112
v 0.135609 -0.169198 -0.055112
v 0.136399 -0.169896 -0.054357
f 1 2 3
f 1 3 4
f 5 6 7
f 5 7 8
f 5 8 9
f 1 4 10
f 11 12 13
f 14 15 16
f 14 16 17
f 14 18 15
f 14 19 18
f 11 13 20
f 20 13 21
f 20 21 22
f 23 24 25
f 23 26 24
f 27 28 29
f 27 29 30
f 27 31 28
f 27 32 31
f 33 34 35
f 33 36 34
f 37 38 39
f 40 41 42
f 43 44 45
f 43 46 44
f 47 48 49
f 47 49 50
f 47 51 48
f 47 52 51
f 53 54 55
f 53 55 56
f 57 58 59
f 60 61 62
f 60 62 63
f 40 42 64
f 65 66 67
f 65 67 68
f 69 70 71
f 69 71 72
f 73 74 75
f 73 75 76
f 77 78 79
f 77 80 78
f 77 79 81
f 77 81 82
f 37 83 38
f 53 84 54
f 53 56 85
f 85 56 86
f 84 87 54
f 47 50 88
f 43 45 89
f 89 45 90
f 47 89 52
f 89 90 91
f 11 88 12
f 88 92 12
f 88 50 92
f 89 93 52
f 89 94 93
f 89 91 94
f 43 85 46
f 85 86 46
f 65 95 66
f 57 59 96
f 96 97 70
f 96 59 98
f 96 98 97
f 99 100 58
f 65 68 99
f 99 68 101
f 99 101 100
f 57 99 58
f 23 25 84
f 23 102 26
f 84 25 103
f 84 103 87
f 102 104 26
f 102 30 105
f 27 30 102
f 102 105 104
f 33 106 36
f 106 107 36
f 106 108 107
f 106 109 108
f 106 110 109
f 33 35 111
f 27 111 32
f 111 35 112
f 111 113 32
f 111 114 113
f 111 112 114
f 69 72 115
f 69 96 70
f 115 72 116
f 115 116 117
f 115 117 118
f 115 118 110
f 14 17 119
f 120 121 122
f 120 123 121
f 120 122 124
f 14 120 19
f 120 125 19
f 120 126 125
f 120 124 126
f 5 127 6
f 127 128 6
f 1 10 127
f 127 10 129
f 5 9 130
f 130 131 123
f 130 132 131
f 130 9 133
f 130 133 132
f 127 134 128
f 127 129 134
f 1 20 2
f 20 22 2
f 14 119 120
f 1 127 20
f 130 123 120
f 5 130 127
f 73 76 135
f 77 82 136
f 73 119 74
f 136 137 83
f 37 136 83
f 37 39 138
f 40 138 41
f 138 39 139
f 138 140 41
f 135 76 141
f 77 135 80
f 135 142 80
f 135 141 142
f 119 143 74
f 119 17 143
f 136 82 144
f 136 144 145
f 136 145 137
f 138 139 146
f 138 147 140
f 138 146 147
f 47 88 89
f 40 64 148
f 60 63 95
f 60 148 61
f 148 64 149
f 148 150 61
f 148 149 150
f 95 151 66
f 95 63 152
f 95 152 153
f 95 153 154
f 95 154 151
f 23 84 102
f 69 115 96
f 106 115 110
f 27 102 111
f 33 111 106
f 77 136 135
f 73 135 119
f 37 138 136
f 11 20 88
f 60 95 148
f 57 96 99
f 65 99 95
f 40 148 138
f 53 85 84
f 43 89 85
f 99 96 155
f 102 156 111
f 85 89 157
f 20 158 88
f 88 159 89
f 85 160 84
f 102 84 161
f 106 111 162
f 96 115 163
f 106 164 115
f 130 120 165
f 130 166 127
f 120 167 165
f 130 165 166
f 119 135 168
f 135 136 169
f 138 170 136
f 127 171 20
f 120 119 167
f 138 148 172
f 148 95 173
f 99 174 95
f 135 169 168
f 136 170 169
f 138 172 170
f 127 166 171
f 119 168 167
f 99 155 174
f 148 173 172
f 95 174 173
f 89 159 157
f 85 157 160
f 84 160 161
f 102 161 156
f 20 171 158
f 88 158 159
f 115 164 163
f 111 156 162
f 106 162 164
f 96 163 155
f 158 171 175
f 159 158 176
f 160 177 161
f 157 178 160
f 159 179 157
f 162 156 180
f 164 181 163
f 155 163 182
f 164 162 183
f 161 184 156
f 170 185 169
f 170 172 186
f 165 167 187
f 165 188 166
f 168 189 167
f 168 169 190
f 173 174 191
f 172 173 192
f 165 187 188
f 167 189 187
f 174 193 191
f 173 191 192
f 166 194 171
f 159 176 179
f 157 179 178
f 160 178 177
f 171 194 175
f 158 175 176
f 166 188 194
f 174 155 193
f 162 180 183
f 163 181 182
f 155 182 193
f 164 183 181
f 161 177 184
f 156 184 180
f 170 186 185
f 169 185 190
f 168 190 189
f 172 192 186
f 175 195 176
f 175 194 196
f 179 197 178
f 179 176 198
f 183 180 199
f 181 183 200
f 184 177 201
f 178 202 177
f 184 203 180
f 190 204 189
f 187 189 205
f 185 206 190
f 185 186 207
f 193 208 191
f 186 192 209
f 192 191 210
f 191 208 210
f 194 188 211
f 188 187 212
f 176 195 198
f 179 198 197
f 175 196 195
f 194 211 196
f 188 212 211
f 187 205 212
f 193 182 213
f 181 214 182
f 181 200 214
f 183 199 200
f 193 213 208
f 182 214 213
f 178 197 202
f 177 202 201
f 184 201 203
f 180 203 199
f 190 206 204
f 189 204 205
f 185 207 206
f 192 210 209
f 186 209 207
f 196 215 195
f 195 216 198
f 200 199 217
f 202 197 218
f 203 201 219
f 202 220 201
f 198 221 197
f 199 203 222
f 204 206 223
f 206 207 224
f 207 209 225
f 210 226 209
f 210 208 227
f 196 211 228
f 211 212 229
f 204 230 205
f 212 205 231
f 195 215 216
f 198 216 221
f 211 229 228
f 205 230 231
f 212 231 229
f 196 228 215
f 214 232 213
f 214 200 233
f 213 234 208
f 213 232 234
f 214 233 232
f 200 217 233
f 202 218 220
f 197 221 218
f 203 219 222
f 201 220 219
f 199 222 217
f 204 223 230
f 207 225 224
f 206 224 223
f 209 226 225
f 210 227 226
f 215 228 235
f 215 236 216
f 208 234 227
f 216 237 221
f 221 238 218
f 222 219 239
f 222 240 217
f 220 241 219
f 218 242 220
f 223 224 243
f 224 225 244
f 225 226 245
f 226 227 246
f 229 231 247
f 223 248 230
f 230 249 231
f 229 250 228
f 231 249 247
f 229 247 250
f 228 250 235
f 215 235 236
f 232 233 251
f 227 234 252
f 234 232 253
f 217 254 233
f 232 251 253
f 217 240 254
f 233 254 251
f 216 236 237
f 221 237 238
f 220 242 241
f 219 241 239
f 218 238 242
f 222 239 240
f 224 244 243
f 226 246 245
f 225 245 244
f 227 252 246
f 223 243 248
f 230 248 249
f 250 255 235
f 234 253 252
f 236 256 237
f 236 235 257
f 239 258 240
f 241 259 239
f 238 260 242
f 237 261 238
f 241 242 262
f 244 245 263
f 245 246 264
f 246 252 265
f 243 266 248
f 249 248 267
f 249 268 247
f 247 269 250
f 244 270 243
f 249 267 268
f 235 255 257
f 250 269 255
f 247 268 269
f 252 253 271
f 251 272 253
f 254 240 273
f 251 254 274
f 254 273 274
f 236 257 256
f 237 256 261
f 241 262 259
f 238 261 260
f 242 260 262
f 239 259 258
f 240 258 273
f 245 264 263
f 246 265 264
f 243 270 266
f 248 266 267
f 244 263 270
f 255 269 275
f 269 268 275
f 270 275 266
f 266 275 267
f 270 263 275
f 264 275 263
f 264 265 275
f 268 267 275
f 252 271 265
f 253 272 271
f 251 274 272
f 271 272 275
f 272 274 275
f 265 271 275
f 256 275 261
f 256 257 275
f 255 275 257
f 273 258 275
f 275 258 259
f 275 259 262
f 261 275 260
f 260 275 262
f 273 275 274
f 276 277 278
f 276 279 280
f 276 280 277
f 279 281 280
f 279 282 281
f 277 280 283
f 282 284 281
f 280 281 285
f 280 285 283
f 278 277 286
f 278 286 287
f 277 283 286
f 287 286 288
f 287 288 289
f 286 283 290
f 286 290 288
f 289 288 291
f 283 285 292
f 281 293 285
f 281 284 293
f 285 294 292
f 284 295 293
f 285 293 294
f 292 294 296
f 293 295 16
f 293 15 18
f 293 297 294
f 293 18 297
f 293 16 15
f 283 292 290
f 288 290 298
f 290 3 298
f 288 298 291
f 291 12 92
f 291 298 13
f 291 13 12
f 290 292 299
f 290 299 4
f 290 4 3
f 298 21 13
f 298 3 2
f 298 2 22
f 298 22 21
f 292 7 6
f 292 8 7
f 292 6 299
f 292 296 8
f 299 6 128
f 299 10 4
f 299 134 129
f 299 129 10
f 294 121 296
f 296 121 123
f 296 123 131
f 295 143 17
f 295 17 16
f 297 124 122
f 297 18 19
f 294 122 121
f 294 297 122
f 297 19 125
f 297 125 126
f 297 126 124
f 296 9 8
f 299 128 134
f 296 133 9
f 296 131 132
f 296 132 133
f 300 301 302
f 300 302 303
f 304 300 305
f 304 301 300
f 304 305 306
f 304 306 307
f 304 308 301
f 301 308 309
f 304 307 308
f 308 307 310
f 303 302 276
f 301 311 302
f 301 309 311
f 302 311 279
f 302 279 276
f 311 309 312
f 309 310 313
f 308 310 309
f 307 314 310
f 300 303 315
f 315 303 316
f 315 316 317
f 305 300 315
f 305 315 318
f 318 315 317
f 305 318 319
f 305 319 306
f 318 320 319
f 318 317 321
f 317 322 321
f 318 321 320
f 321 323 320
f 303 278 316
f 303 276 278
f 317 316 324
f 316 278 287
f 316 287 324
f 317 324 322
f 324 325 322
f 321 322 323
f 320 323 326
f 322 327 323
f 306 328 307
f 306 329 328
f 307 328 314
f 329 330 328
f 328 331 314
f 310 314 332
f 328 330 331
f 306 319 329
f 319 333 329
f 319 320 333
f 320 326 333
f 329 333 334
f 329 334 330
f 333 326 335
f 330 334 336
f 333 335 334
f 323 337 326
f 311 282 279
f 311 312 282
f 309 313 312
f 310 332 313
f 313 338 312
f 313 332 339
f 312 340 282
f 312 338 340
f 282 340 284
f 313 339 338
f 324 287 289
f 324 289 325
f 322 325 327
f 323 327 337
f 327 325 341
f 327 342 337
f 325 289 343
f 325 343 341
f 289 291 343
f 343 45 341
f 327 341 342
f 341 55 342
f 342 55 54
f 342 25 24
f 314 344 332
f 314 331 344
f 330 345 331
f 331 346 344
f 330 336 345
f 331 345 346
f 336 347 345
f 332 344 348
f 332 348 339
f 344 349 348
f 344 346 349
f 345 350 346
f 345 347 350
f 334 335 351
f 335 352 353
f 326 337 352
f 326 352 335
f 334 351 336
f 336 351 347
f 335 353 351
f 337 354 352
f 337 342 354
f 352 354 29
f 354 30 29
f 354 105 30
f 342 24 354
f 354 26 104
f 354 24 26
f 352 31 355
f 352 29 28
f 352 28 31
f 352 355 353
f 353 355 35
f 351 356 347
f 351 353 356
f 353 34 36
f 353 35 34
f 353 36 107
f 353 107 356
f 340 357 284
f 340 338 358
f 340 358 357
f 338 339 359
f 339 348 360
f 338 359 358
f 339 360 359
f 284 357 295
f 357 361 295
f 357 358 361
f 358 78 361
f 358 81 79
f 358 79 78
f 358 362 81
f 358 359 362
f 359 38 83
f 359 39 38
f 359 83 362
f 359 360 363
f 360 42 41
f 360 41 363
f 359 363 39
f 343 291 49
f 343 48 51
f 343 49 48
f 343 51 364
f 341 45 44
f 341 44 46
f 343 90 45
f 343 364 90
f 291 50 49
f 291 92 50
f 364 51 52
f 364 91 90
f 341 86 56
f 341 56 55
f 341 46 86
f 342 54 87
f 342 87 103
f 342 103 25
f 364 52 93
f 364 93 94
f 364 94 91
f 348 349 365
f 348 365 360
f 346 366 349
f 349 67 66
f 346 350 366
f 347 70 350
f 350 70 97
f 350 58 366
f 349 366 67
f 350 59 58
f 350 98 59
f 350 97 98
f 360 365 149
f 349 367 365
f 365 63 62
f 365 62 61
f 365 367 63
f 360 64 42
f 360 149 64
f 365 61 150
f 365 150 149
f 367 152 63
f 349 66 367
f 367 66 151
f 367 151 154
f 367 153 152
f 367 154 153
f 366 68 67
f 366 58 100
f 366 101 68
f 366 100 101
f 354 104 105
f 355 31 32
f 355 112 35
f 355 32 113
f 355 114 112
f 355 113 114
f 347 72 71
f 347 71 70
f 347 116 72
f 347 356 117
f 347 117 116
f 356 118 117
f 356 107 108
f 356 108 109
f 356 109 110
f 356 110 118
f 295 75 74
f 295 76 75
f 295 361 76
f 361 141 76
f 361 78 80
f 361 80 142
f 362 82 81
f 362 144 82
f 361 142 141
f 295 74 143
f 362 83 137
f 362 137 145
f 363 139 39
f 363 41 140
f 363 146 139
f 363 147 146
f 363 140 147
f 362 145 144
f 368 369 370
f 368 371 369
f 368 370 372
f 373 374 375
f 373 376 374
f 373 375 377
f 373 378 376
f 373 379 378
f 380 381 382
f 380 383 381
f 384 385 386
f 384 386 387
f 384 387 388
f 389 390 391
f 389 392 393
f 389 391 392
f 394 395 396
f 394 397 395
f 394 396 398
f 399 400 401
f 399 401 402
f 403 404 405
f 403 406 407
f 403 405 406
f 403 407 408
f 409 410 411
f 412 413 414
f 412 415 413
f 416 417 418
f 416 419 417
f 416 420 419
f 416 421 420
f 422 423 424
f 422 425 423
f 422 426 425
f 422 427 426
f 384 428 385
f 428 429 385
f 384 388 430
f 394 430 397
f 430 388 431
f 430 431 432
f 430 432 397
f 394 398 433
f 399 434 400
f 434 435 436
f 437 438 435
f 437 439 438
f 437 440 439
f 368 372 437
f 437 372 440
f 368 441 371
f 441 442 371
f 373 377 441
f 441 377 443
f 441 443 444
f 441 444 445
f 441 445 442
f 373 446 379
f 446 447 379
f 446 382 448
f 446 448 447
f 380 382 446
f 399 402 428
f 428 402 449
f 434 450 400
f 428 449 429
f 434 436 450
f 409 411 451
f 452 453 454
f 452 455 453
f 452 454 456
f 452 456 457
f 380 458 383
f 458 414 459
f 458 460 383
f 458 459 460
f 412 414 458
f 412 461 415
f 461 462 415
f 416 418 461
f 461 418 462
f 416 463 421
f 422 424 463
f 463 464 421
f 463 465 464
f 463 466 465
f 463 467 466
f 463 424 467
f 422 468 427
f 468 469 427
f 468 470 471
f 468 471 469
f 472 473 474
f 475 476 477
f 475 478 476
f 479 480 481
f 479 482 480
f 475 483 478
f 472 484 473
f 485 486 487
f 485 488 489
f 485 487 488
f 490 491 492
f 490 493 491
f 490 492 494
f 490 495 493
f 490 496 495
f 490 494 497
f 472 474 468
f 472 498 484
f 468 474 470
f 389 393 499
f 499 393 500
f 403 499 404
f 499 500 404
f 433 398 501
f 433 501 390
f 389 433 390
f 384 430 428
f 399 428 434
f 434 437 435
f 368 437 441
f 373 441 446
f 403 408 502
f 502 408 503
f 502 504 410
f 502 503 505
f 502 505 506
f 502 506 504
f 409 502 410
f 409 451 507
f 507 451 508
f 452 507 455
f 452 457 509
f 485 509 486
f 507 508 510
f 507 510 511
f 507 511 455
f 509 457 512
f 509 513 486
f 509 512 513
f 394 433 430
f 389 499 433
f 403 502 499
f 409 507 502
f 452 509 507
f 485 514 509
f 422 463 468
f 380 446 458
f 412 458 461
f 416 461 463
f 434 428 515
f 430 433 516
f 434 517 437
f 437 518 441
f 430 519 428
f 441 520 446
f 446 521 458
f 458 522 461
f 461 523 463
f 463 524 468
f 485 489 514
f 490 497 525
f 525 526 527
f 514 489 528
f 490 514 496
f 514 529 496
f 514 528 530
f 514 530 529
f 525 497 526
f 479 481 531
f 475 531 483
f 479 532 482
f 532 527 533
f 532 533 534
f 532 535 482
f 531 481 536
f 531 536 537
f 531 537 538
f 531 538 483
f 498 539 484
f 498 540 539
f 475 477 498
f 498 477 540
f 532 534 541
f 532 541 542
f 532 542 535
f 490 525 514
f 472 468 498
f 475 498 531
f 479 531 532
f 525 527 532
f 428 519 515
f 434 515 517
f 430 516 519
f 433 499 543
f 499 502 544
f 502 507 545
f 437 517 518
f 507 509 546
f 509 514 547
f 514 525 548
f 433 543 516
f 499 544 543
f 502 545 544
f 507 546 545
f 509 547 546
f 514 548 547
f 525 549 548
f 441 518 520
f 446 520 521
f 458 521 522
f 461 522 523
f 463 523 524
f 468 524 550
f 519 516 551
f 516 543 552
f 519 553 515
f 515 554 517
f 517 555 518
f 518 556 520
f 520 557 521
f 521 558 522
f 522 559 523
f 523 560 524
f 531 561 532
f 468 550 498
f 531 498 562
f 525 532 549
f 532 561 549
f 531 562 561
f 498 550 562
f 519 551 553
f 515 553 554
f 544 563 564
f 516 552 551
f 543 564 552
f 517 554 555
f 543 544 564
f 544 545 563
f 545 546 565
f 546 547 566
f 547 548 567
f 549 568 548
f 549 561 569
f 545 565 563
f 546 566 565
f 562 570 571
f 518 555 556
f 520 556 557
f 521 557 558
f 524 572 550
f 523 559 560
f 522 558 559
f 524 560 572
f 550 572 570
f 552 564 573
f 552 574 551
f 553 551 575
f 553 576 554
f 554 577 555
f 555 578 556
f 547 567 566
f 548 568 567
f 549 569 568
f 561 571 569
f 556 579 557
f 557 580 558
f 558 581 559
f 562 550 570
f 561 562 571
f 564 563 582
f 551 574 575
f 564 582 573
f 552 573 574
f 563 583 582
f 553 575 576
f 554 576 577
f 555 577 578
f 563 565 583
f 565 566 584
f 566 567 585
f 567 568 586
f 568 569 587
f 569 571 588
f 570 589 571
f 565 584 583
f 570 590 589
f 556 578 579
f 557 579 580
f 559 591 560
f 560 592 572
f 572 590 570
f 558 580 581
f 559 581 591
f 572 592 590
f 560 591 592
f 574 573 593
f 574 594 575
f 575 595 576
f 576 596 577
f 577 597 578
f 566 585 584
f 567 586 585
f 568 587 586
f 569 588 587
f 571 589 588
f 578 598 579
f 579 599 580
f 580 600 581
f 582 583 601
f 582 602 573
f 583 584 603
f 573 602 593
f 582 601 602
f 583 603 601
f 584 604 603
f 574 593 594
f 575 594 595
f 576 595 596
f 577 596 597
f 578 597 598
f 584 585 604
f 585 586 605
f 586 587 606
f 587 588 607
f 588 589 608
f 589 590 609
f 579 598 599
f 581 610 591
f 591 611 592
f 592 612 590
f 580 599 600
f 591 610 611
f 592 611 612
f 581 600 610
f 595 594 613
f 594 593 614
f 593 602 615
f 595 616 596
f 596 617 597
f 597 618 598
f 585 605 604
f 586 606 605
f 587 607 606
f 588 608 607
f 589 609 608
f 590 612 609
f 598 619 599
f 599 620 600
f 602 601 621
f 601 603 622
f 603 604 623
f 604 605 624
f 601 622 621
f 603 623 622
f 594 614 613
f 595 613 616
f 596 616 617
f 597 617 618
f 593 615 614
f 602 621 615
f 605 606 625
f 606 607 626
f 607 608 627
f 608 609 628
f 598 618 619
f 610 629 611
f 612 630 609
f 611 631 612
f 600 632 610
f 599 619 620
f 600 620 632
f 611 629 631
f 610 632 629
f 604 624 623
f 605 625 624
f 621 633 615
f 614 615 634
f 614 635 613
f 613 636 616
f 616 637 617
f 617 638 618
f 606 626 625
f 607 627 626
f 608 628 627
f 612 631 630
f 609 630 628
f 618 639 619
f 619 640 620
f 621 622 641
f 622 623 642
f 623 624 643
f 624 625 644
f 622 642 641
f 623 643 642
f 614 634 635
f 613 635 636
f 616 636 637
f 617 637 638
f 618 638 639
f 621 641 633
f 615 633 634
f 625 626 645
f 626 627 646
f 627 628 647
f 620 648 632
f 630 631 649
f 629 650 631
f 629 632 651
f 619 639 640
f 620 640 648
f 628 630 652
f 632 648 651
f 624 644 643
f 625 645 644
f 643 644 653
f 644 645 653
f 645 646 653
f 635 634 653
f 633 641 653
f 642 653 641
f 634 633 653
f 635 653 636
f 636 653 637
f 637 653 638
f 653 639 638
f 642 643 653
f 626 646 645
f 627 647 646
f 628 652 647
f 653 646 647
f 653 640 639
f 653 648 640
f 630 649 652
f 629 651 650
f 631 650 649
f 653 649 650
f 653 650 651
f 653 647 652
f 653 652 649
f 653 651 648
f 654 655 656
f 656 655 657
f 655 658 657
f 655 659 658
f 660 656 661
f 656 662 661
f 656 657 662
f 657 663 662
f 661 662 664
f 661 664 665
f 654 666 667
f 654 667 668
f 654 668 655
f 668 669 670
f 667 669 668
f 666 671 667
f 667 671 672
f 669 672 673
f 667 672 669
f 671 674 672
f 671 675 674
f 668 670 659
f 668 659 655
f 669 673 670
f 659 670 676
f 670 673 677
f 672 678 673
f 672 674 678
f 673 678 679
f 674 680 678
f 654 656 660
f 654 660 666
f 660 681 666
f 660 682 681
f 660 661 682
f 681 682 683
f 682 684 683
f 666 685 671
f 666 681 685
f 681 686 685
f 671 685 675
f 681 683 686
f 685 687 675
f 685 686 687
f 686 683 688
f 682 661 665
f 682 665 684
f 683 684 688
f 665 689 684
f 684 690 688
f 686 691 687
f 687 691 692
f 686 688 691
f 688 693 691
f 657 658 694
f 657 694 663
f 659 695 658
f 659 676 695
f 658 695 696
f 658 696 694
f 694 697 698
f 676 699 695
f 695 700 696
f 694 696 697
f 695 699 700
f 662 663 701
f 662 701 664
f 663 694 698
f 663 698 701
f 664 701 702
f 665 664 703
f 665 703 689
f 664 702 703
f 701 698 704
f 701 704 702
f 702 370 369
f 702 372 370
f 702 704 372
f 703 702 375
f 689 703 705
f 702 369 371
f 702 377 375
f 702 371 706
f 702 706 377
f 703 375 374
f 703 374 376
f 703 376 378
f 703 378 705
f 705 378 379
f 705 379 447
f 705 447 448
f 670 677 676
f 676 677 707
f 673 679 677
f 677 679 708
f 678 709 679
f 676 707 699
f 677 708 707
f 679 710 708
f 679 709 710
f 684 689 690
f 689 711 690
f 688 690 693
f 691 693 712
f 690 713 693
f 689 705 711
f 690 711 713
f 705 381 711
f 705 448 382
f 705 382 381
f 711 381 383
f 711 414 413
f 711 413 713
f 693 713 714
f 693 714 712
f 713 417 714
f 697 402 401
f 697 449 402
f 697 386 385
f 697 385 429
f 697 429 449
f 699 715 700
f 700 715 398
f 696 387 386
f 696 716 387
f 696 700 716
f 696 386 697
f 716 388 387
f 700 395 716
f 700 398 396
f 700 396 395
f 715 717 392
f 715 501 398
f 715 390 501
f 715 391 390
f 715 392 391
f 716 431 388
f 716 395 397
f 716 397 432
f 716 432 431
f 698 697 401
f 698 401 400
f 698 436 704
f 698 450 436
f 698 400 450
f 704 436 435
f 704 435 438
f 704 438 439
f 704 439 440
f 704 440 372
f 706 371 442
f 706 443 377
f 706 444 443
f 706 442 445
f 706 445 444
f 699 707 717
f 707 708 718
f 699 717 715
f 707 718 717
f 708 710 719
f 710 720 721
f 708 719 718
f 710 721 719
f 717 393 392
f 717 718 406
f 717 404 500
f 717 500 393
f 717 405 404
f 717 406 405
f 718 407 406
f 718 408 407
f 718 411 410
f 718 451 411
f 718 722 408
f 718 504 722
f 718 410 504
f 718 719 723
f 718 723 451
f 719 453 723
f 719 721 724
f 719 454 453
f 719 456 454
f 719 724 456
f 721 725 724
f 711 383 460
f 711 459 414
f 711 460 459
f 713 413 415
f 713 415 462
f 713 418 417
f 714 417 419
f 714 419 420
f 713 462 418
f 714 423 726
f 714 420 421
f 714 467 424
f 714 424 423
f 727 421 464
f 714 421 727
f 714 727 467
f 727 464 465
f 727 466 467
f 727 465 466
f 728 427 469
f 728 469 471
f 728 471 470
f 722 503 408
f 722 505 503
f 722 504 506
f 722 506 505
f 723 508 451
f 723 510 508
f 723 455 511
f 723 453 455
f 725 486 724
f 724 457 456
f 724 512 457
f 724 486 513
f 723 511 510
f 724 513 512
f 675 729 674
f 674 729 680
f 675 687 730
f 675 730 729
f 729 730 731
f 687 692 730
f 678 680 709
f 729 732 680
f 729 731 732
f 680 733 709
f 680 732 733
f 709 720 710
f 709 733 720
f 732 734 733
f 732 735 734
f 730 736 731
f 730 692 736
f 692 737 736
f 731 735 732
f 731 736 735
f 691 712 692
f 692 712 737
f 736 738 735
f 736 737 738
f 712 714 726
f 712 726 737
f 733 739 720
f 733 734 739
f 720 725 721
f 720 739 725
f 734 740 739
f 734 741 740
f 739 493 725
f 739 491 493
f 739 492 491
f 739 494 492
f 739 740 494
f 740 533 527
f 735 741 734
f 735 738 741
f 737 742 738
f 738 742 476
f 737 726 742
f 726 423 425
f 726 425 426
f 726 426 427
f 726 427 728
f 726 474 473
f 726 728 474
f 726 484 742
f 726 473 484
f 738 743 741
f 738 476 478
f 738 478 743
f 742 540 477
f 742 477 476
f 741 481 480
f 741 480 482
f 741 743 481
f 741 744 740
f 741 482 744
f 743 478 483
f 743 483 538
f 743 536 481
f 728 470 474
f 742 484 539
f 742 539 540
f 725 488 487
f 725 487 486
f 725 489 488
f 725 745 489
f 725 493 495
f 725 495 745
f 745 528 489
f 740 497 494
f 740 526 497
f 740 527 526
f 740 744 533
f 745 495 496
f 745 496 529
f 745 530 528
f 745 529 530
f 744 482 535
f 744 534 533
f 744 535 542
f 743 537 536
f 743 538 537
f 744 541 534
f 744 542 541
f 746 747 748
f 746 748 749
f 746 750 747
f 746 749 751
f 746 751 752
f 753 754 755
f 753 755 756
f 753 757 754
f 758 759 760
f 758 760 761
f 762 763 764
f 762 765 763
f 746 766 750
f 767 768 769
f 767 769 770
f 767 771 768
f 772 773 774
f 772 774 775
f 772 776 773
f 777 778 779
f 777 780 781
f 777 781 778
f 782 783 784
f 782 784 785
f 786 787 788
f 786 788 789
f 786 789 790
f 786 790 791
f 792 793 794
f 792 794 795
f 792 795 796
f 792 796 797
f 798 799 800
f 798 801 802
f 798 802 799
f 798 803 801
f 804 805 806
f 753 756 807
f 753 808 757
f 808 809 810
f 808 810 811
f 808 812 757
f 746 752 813
f 807 756 814
f 746 807 766
f 807 814 815
f 807 815 816
f 807 816 766
f 758 813 759
f 813 817 759
f 813 752 818
f 813 818 817
f 758 761 819
f 808 820 812
f 808 811 820
f 821 822 809
f 821 764 822
f 762 764 821
f 762 823 765
f 823 824 765
f 823 825 824
f 823 770 825
f 767 770 823
f 767 826 771
f 826 827 771
f 826 828 827
f 772 775 826
f 826 775 828
f 772 829 776
f 782 819 783
f 819 761 830
f 819 830 831
f 819 831 783
f 782 785 832
f 786 832 787
f 832 785 833
f 832 833 787
f 786 791 834
f 834 791 835
f 834 836 793
f 792 834 793
f 792 797 837
f 834 835 838
f 834 838 839
f 834 839 836
f 837 797 840
f 837 840 841
f 837 841 842
f 837 842 843
f 804 844 805
f 804 845 844
f 846 847 848
f 846 848 849
f 846 850 847
f 846 851 850
f 852 843 853
f 852 853 854
f 855 856 857
f 855 857 858
f 855 858 859
f 860 861 862
f 860 862 863
f 852 837 843
f 852 854 864
f 864 854 865
f 855 864 856
f 866 867 868
f 866 869 870
f 866 870 867
f 871 872 873
f 871 874 875
f 871 875 876
f 871 873 874
f 871 876 877
f 871 877 878
f 782 832 819
f 786 834 832
f 746 813 807
f 753 807 808
f 808 821 809
f 762 821 823
f 758 819 813
f 829 879 776
f 829 779 879
f 777 779 829
f 777 880 780
f 880 881 780
f 792 837 834
f 798 800 880
f 880 800 881
f 798 882 803
f 882 883 803
f 804 806 882
f 882 806 884
f 866 868 885
f 804 886 845
f 846 849 886
f 882 884 887
f 882 887 888
f 882 888 883
f 846 885 851
f 885 889 851
f 885 868 890
f 885 890 889
f 886 891 845
f 886 892 891
f 886 849 892
f 767 823 826
f 772 826 829
f 777 829 880
f 852 864 837
f 798 880 882
f 804 882 886
f 846 886 885
f 808 893 821
f 819 894 813
f 819 832 895
f 832 834 896
f 834 837 897
f 837 864 898
f 807 813 899
f 807 900 808
f 821 901 823
f 823 902 826
f 864 865 903
f 864 903 856
f 855 859 904
f 904 859 905
f 904 906 861
f 860 904 861
f 860 863 907
f 904 905 908
f 904 908 906
f 907 863 909
f 907 910 911
f 907 909 912
f 913 911 914
f 907 915 910
f 907 912 915
f 866 916 869
f 871 913 872
f 913 914 917
f 871 878 916
f 916 918 919
f 916 920 918
f 916 878 920
f 916 919 869
f 913 917 872
f 855 904 864
f 860 907 904
f 907 911 913
f 871 916 913
f 866 885 916
f 807 899 900
f 808 900 893
f 821 893 901
f 813 894 899
f 819 895 894
f 832 896 895
f 834 897 896
f 837 898 897
f 864 921 898
f 826 922 829
f 829 923 880
f 880 924 882
f 882 925 886
f 886 926 885
f 885 927 916
f 823 901 902
f 826 902 922
f 829 922 923
f 880 923 924
f 882 924 925
f 886 925 926
f 885 926 927
f 899 894 928
f 899 929 900
f 900 930 893
f 893 931 901
f 901 932 902
f 895 896 933
f 894 895 934
f 896 897 935
f 897 898 936
f 898 921 937
f 864 904 921
f 904 907 938
f 907 913 939
f 913 916 940
f 904 938 921
f 907 939 938
f 913 940 939
f 916 927 940
f 899 928 929
f 894 934 928
f 900 929 930
f 893 930 931
f 901 931 932
f 902 932 941
f 895 933 934
f 896 935 933
f 897 936 935
f 921 938 942
f 898 937 936
f 921 942 937
f 938 943 942
f 902 941 922
f 922 944 923
f 923 945 924
f 938 939 943
f 927 946 940
f 927 926 947
f 924 948 925
f 925 949 926
f 922 941 944
f 923 944 945
f 939 950 943
f 940 946 950
f 928 951 929
f 934 933 952
f 934 953 928
f 929 954 930
f 930 955 931
f 933 935 956
f 935 936 957
f 936 937 958
f 937 942 959
f 924 945 948
f 926 949 947
f 927 947 946
f 925 948 949
f 939 940 950
f 929 951 954
f 928 953 951
f 934 952 953
f 933 956 952
f 931 960 932
f 932 961 941
f 930 954 955
f 931 955 960
f 932 960 961
f 941 961 962
f 935 957 956
f 936 958 957
f 942 943 963
f 943 950 964
f 937 959 958
f 942 963 959
f 943 964 963
f 950 965 964
f 941 962 944
f 944 966 945
f 945 967 948
f 949 948 968
f 950 946 965
f 946 947 969
f 949 970 947
f 944 962 966
f 951 971 954
f 956 957 972
f 953 952 973
f 953 974 951
f 952 956 975
f 954 976 955
f 957 958 977
f 958 959 978
f 945 966 967
f 948 967 968
f 949 968 970
f 947 970 969
f 946 969 965
f 953 973 974
f 951 974 971
f 956 972 975
f 957 977 972
f 952 975 973
f 955 979 960
f 960 980 961
f 961 981 962
f 954 971 976
f 955 976 979
f 960 979 980
f 961 980 981
f 958 978 977
f 959 963 982
f 963 964 983
f 964 965 984
f 965 969 985
f 959 982 978
f 963 983 982
f 964 984 983
f 965 985 984
f 962 986 966
f 967 966 987
f 967 988 968
f 968 989 970
f 969 970 990
f 973 975 991
f 973 992 974
f 974 993 971
f 975 972 994
f 972 977 995
f 971 996 976
f 969 990 985
f 977 978 997
f 978 982 998
f 962 981 986
f 966 986 987
f 967 987 988
f 968 988 989
f 970 989 990
f 975 994 991
f 974 992 993
f 973 991 992
f 972 995 994
f 977 997 995
f 971 993 996
f 976 999 979
f 979 1000 980
f 980 1001 981
f 976 996 999
f 979 999 1000
f 980 1000 1001
f 982 983 1002
f 983 984 1003
f 984 985 1004
f 985 990 1005
f 978 998 997
f 982 1002 998
f 983 1003 1002
f 984 1004 1003
f 981 1006 986
f 990 989 1007
f 986 1008 987
f 987 1009 988
f 989 988 1010
f 994 995 1011
f 991 994 1012
f 992 1013 993
f 991 1014 992
f 993 1015 996
f 995 997 1016
f 997 998 1017
f 981 1001 1006
f 985 1005 1004
f 990 1007 1005
f 998 1002 1018
f 986 1006 1008
f 987 1008 1009
f 988 1009 1010
f 989 1010 1007
f 991 1012 1014
f 995 1016 1011
f 994 1011 1012
f 992 1014 1013
f 997 1017 1016
f 993 1013 1015
f 998 1018 1017
f 996 1019 999
f 999 1020 1000
f 1000 1021 1001
f 1001 1022 1006
f 996 1015 1019
f 999 1019 1020
f 1002 1003 1023
f 1003 1004 1024
f 1004 1005 1025
f 1005 1007 1026
f 1002 1023 1018
f 1003 1024 1023
f 1004 1025 1024
f 1007 1010 1027
f 1006 1028 1008
f 1008 1029 1009
f 1009 1030 1010
f 1012 1011 1031
f 1012 1031 1014
f 1014 1031 1013
f 1013 1031 1015
f 1015 1031 1019
f 1011 1016 1031
f 1016 1017 1031
f 1017 1018 1031
f 1031 1020 1019
f 1000 1020 1021
f 1001 1021 1022
f 1031 1021 1020
f 1031 1022 1021
f 1031 1028 1022
f 1031 1018 1023
f 1031 1023 1024
f 1005 1026 1025
f 1007 1027 1026
f 1010 1030 1027
f 1031 1024 1025
f 1031 1025 1026
f 1031 1026 1027
f 1031 1030 1029
f 1031 1027 1030
f 1006 1022 1028
f 1008 1028 1029
f 1009 1029 1030
f 1031 1029 1028
f 1032 1033 1034
f 1034 1033 1035
f 1034 1035 1036
f 1035 1037 1036
f 1033 1038 1035
f 1033 1039 1038
f 1040 1034 1041
f 1034 1036 1041
f 1041 1036 1042
f 1041 1042 1043
f 1044 1045 1046
f 1032 1034 1040
f 1032 1047 1044
f 1032 1048 1047
f 1032 1040 1048
f 1032 1044 1033
f 1047 1045 1044
f 1049 1050 1045
f 1047 1051 1049
f 1047 1048 1051
f 1051 1048 1052
f 1051 1052 1053
f 1047 1049 1045
f 1051 1054 1049
f 1051 1053 1054
f 1044 1046 1039
f 1045 1050 1046
f 1039 1046 1055
f 1046 1050 1056
f 1044 1039 1033
f 1049 1057 1050
f 1050 1057 1058
f 1049 1054 1057
f 1054 1059 1057
f 1040 1060 1048
f 1040 1061 1060
f 1040 1041 1061
f 1060 1061 1062
f 1061 1063 1062
f 1048 1060 1052
f 1060 1064 1052
f 1060 1062 1064
f 1064 1062 1065
f 1052 1066 1053
f 1052 1064 1066
f 1061 1041 1043
f 1061 1043 1063
f 1062 1063 1065
f 1043 1067 1063
f 1063 1068 1065
f 1064 1065 1069
f 1064 1069 1066
f 1065 1070 1069
f 1066 1069 1071
f 1039 1072 1038
f 1039 1055 1072
f 1038 1072 1073
f 1035 1038 1074
f 1035 1074 1037
f 1038 1073 1074
f 1037 1074 1075
f 1037 1075 1076
f 1074 1077 1075
f 1075 810 809
f 1072 747 1073
f 1055 1078 1072
f 1073 756 755
f 1073 747 750
f 1073 1079 756
f 1073 750 1079
f 1078 818 752
f 1078 817 818
f 1072 749 748
f 1072 748 747
f 1072 751 749
f 1072 1078 751
f 1078 752 751
f 1074 1073 1077
f 1073 755 754
f 1073 754 757
f 1073 757 1077
f 1036 1076 1042
f 1036 1037 1076
f 1043 1042 1080
f 1043 1080 1067
f 1042 1076 1081
f 1042 1081 1080
f 1076 1075 1082
f 1076 1082 1081
f 1080 1081 1083
f 1080 1083 1084
f 1067 1080 1084
f 1046 1056 1055
f 1055 1056 1085
f 1050 1058 1056
f 1057 1086 1058
f 1056 1058 1087
f 1055 1085 1078
f 1056 1087 1085
f 1078 1085 760
f 1078 759 817
f 1078 760 759
f 1085 761 760
f 1085 784 783
f 1085 1087 784
f 1058 1088 1087
f 1058 1086 1088
f 1087 1088 788
f 1063 1067 1068
f 1067 1089 1068
f 1069 1070 1090
f 1065 1068 1070
f 1068 1091 1070
f 1067 1084 1089
f 1068 1089 1091
f 1070 1091 1092
f 1070 1092 1090
f 1077 811 810
f 1077 820 811
f 1077 812 820
f 1075 1077 810
f 1075 809 822
f 1075 763 1082
f 1075 764 763
f 1075 822 764
f 1079 750 766
f 1079 814 756
f 1079 766 816
f 1079 816 815
f 1079 815 814
f 1077 757 812
f 1082 763 765
f 1082 765 824
f 1082 824 825
f 1082 770 769
f 1082 825 770
f 1081 1082 769
f 1081 769 768
f 1081 768 1093
f 1081 1093 1083
f 1093 768 771
f 1083 1093 774
f 1083 774 773
f 1083 773 776
f 1084 1083 1094
f 1083 776 1094
f 1093 771 827
f 1093 775 774
f 1093 827 828
f 1093 828 775
f 1094 781 1095
f 1094 776 879
f 1094 879 779
f 1094 779 778
f 1094 778 781
f 1085 830 761
f 1085 783 831
f 1085 831 830
f 1087 785 784
f 1087 833 785
f 1087 788 787
f 1088 789 788
f 1088 790 789
f 1087 787 833
f 1088 791 790
f 1088 793 836
f 1088 794 793
f 1088 1096 794
f 1097 835 791
f 1088 1097 791
f 1088 836 1097
f 1097 838 835
f 1097 836 839
f 1097 839 838
f 1098 840 797
f 1098 841 840
f 1098 842 841
f 1084 1095 1089
f 1089 1099 1091
f 1084 1094 1095
f 1089 1095 1099
f 1091 1100 1092
f 1092 1101 1102
f 1091 1099 1100
f 1092 1100 1101
f 1095 781 780
f 1095 802 1099
f 1095 780 881
f 1095 881 800
f 1095 800 799
f 1095 799 802
f 1099 802 801
f 1099 801 803
f 1099 806 805
f 1099 805 844
f 1099 803 1103
f 1099 1103 884
f 1099 884 806
f 1099 1104 1100
f 1099 844 1104
f 1100 1104 848
f 1100 1105 1101
f 1100 848 847
f 1100 847 850
f 1100 850 1105
f 1101 1105 1106
f 1103 803 883
f 1103 883 888
f 1103 887 884
f 1103 888 887
f 1104 844 845
f 1104 845 891
f 1104 849 848
f 1104 892 849
f 1106 1105 868
f 1105 850 851
f 1105 851 889
f 1105 890 868
f 1104 891 892
f 1105 889 890
f 1053 1107 1054
f 1053 1108 1107
f 1054 1107 1059
f 1107 1108 1109
f 1053 1066 1108
f 1066 1071 1108
f 1057 1059 1086
f 1059 1110 1086
f 1107 1111 1059
f 1107 1109 1111
f 1059 1111 1110
f 1109 1112 1111
f 1109 1113 1112
f 1086 1096 1088
f 1086 1110 1096
f 1111 1114 1110
f 1111 1112 1114
f 1108 1071 1113
f 1108 1113 1109
f 1069 1090 1071
f 1071 1115 1113
f 1071 1090 1115
f 1090 1092 1102
f 1090 1102 1115
f 1113 1116 1112
f 1113 1115 1116
f 1110 1117 1096
f 1096 795 794
f 1096 796 795
f 1096 797 796
f 1096 1098 797
f 1096 843 1098
f 1096 853 843
f 1096 854 853
f 1096 1117 854
f 1110 1114 1117
f 1112 1118 1114
f 1112 1116 1118
f 1114 857 1117
f 1098 843 842
f 1117 865 854
f 1117 903 865
f 1114 858 857
f 1114 1119 858
f 1117 856 903
f 1117 857 856
f 1114 1118 1119
f 1119 859 858
f 1119 905 859
f 1119 861 906
f 1118 861 1119
f 1118 862 861
f 1118 863 862
f 1118 1120 863
f 1118 1121 1120
f 1115 1102 1122
f 1115 1122 1116
f 1102 1101 1106
f 1102 1106 1122
f 1116 1122 1121
f 1116 1121 1118
f 1122 1106 876
f 1122 873 1121
f 1122 876 875
f 1122 875 874
f 1122 874 873
f 1119 908 905
f 1119 906 908
f 1120 909 863
f 1120 911 910
f 1120 912 909
f 1120 915 912
f 1120 910 915
f 1106 867 870
f 1106 868 867
f 1106 877 876
f 1106 870 869
f 1106 869 1123
f 1106 1123 877
f 1123 869 919
f 1121 873 872
f 1121 872 917
f 1121 914 1120
f 1121 917 914
f 1120 914 911
f 1123 878 877
f 1123 920 878
f 1123 918 920
f 1123 919 918
f 1124 1125 1126
f 1127 1128 1129
f 1127 1130 1128
f 1131 1132 1133
f 1131 1134 1132
f 1131 1135 1134
f 1127 1136 1130
f 1124 1126 1137
f 1124 1138 1125
f 1138 1139 1125
f 1140 1141 1142
f 1140 1143 1141
f 1140 1144 1143
f 1140 1142 1145
f 1146 1147 1148
f 1146 1148 1149
f 1150 1151 1152
f 1150 1153 1151
f 1150 1152 1154
f 1150 1154 1155
f 1156 1157 1158
f 1156 1158 1159
f 1160 1161 1162
f 1160 1163 1161
f 1160 1162 1164
f 1165 1166 1167
f 1165 1168 1166
f 1165 1167 1169
f 1165 1169 1170
f 1171 1172 1173
f 1171 1174 1172
f 1175 1176 1177
f 1178 1179 1180
f 1181 1182 1183
f 1181 1183 1184
f 1181 1185 1182
f 1186 1187 1188
f 1189 1190 1191
f 1192 1193 1194
f 1192 1195 1193
f 1178 1196 1179
f 1189 1197 1190
f 1171 1198 1174
f 1146 1199 1147
f 1171 1173 1199
f 1199 1173 1200
f 1199 1201 1147
f 1199 1200 1201
f 1160 1164 1198
f 1160 1202 1163
f 1202 1203 1163
f 1165 1170 1202
f 1202 1204 1205
f 1202 1205 1203
f 1202 1170 1204
f 1165 1137 1168
f 1137 1206 1168
f 1137 1126 1206
f 1198 1164 1207
f 1198 1207 1174
f 1208 1209 1210
f 1208 1211 1209
f 1212 1213 1214
f 1212 1214 1215
f 1212 1216 1213
f 1212 1217 1216
f 1175 1177 1218
f 1146 1149 1219
f 1219 1149 1220
f 1219 1221 1153
f 1219 1220 1221
f 1150 1219 1153
f 1150 1155 1222
f 1222 1155 1223
f 1222 1223 1224
f 1222 1224 1225
f 1156 1222 1157
f 1222 1225 1157
f 1156 1159 1226
f 1226 1159 1227
f 1226 1227 1228
f 1226 1228 1229
f 1230 1231 1232
f 1230 1229 1231
f 1230 1232 1233
f 1181 1230 1185
f 1230 1233 1185
f 1181 1184 1234
f 1234 1184 1235
f 1234 1235 1236
f 1186 1188 1237
f 1186 1234 1187
f 1234 1236 1187
f 1237 1188 1238
f 1237 1239 1197
f 1237 1238 1239
f 1189 1237 1197
f 1189 1191 1240
f 1138 1241 1139
f 1138 1129 1241
f 1127 1129 1138
f 1127 1242 1136
f 1131 1133 1242
f 1242 1243 1136
f 1242 1244 1243
f 1242 1245 1244
f 1242 1133 1245
f 1131 1246 1135
f 1246 1247 1248
f 1246 1249 1135
f 1246 1248 1249
f 1246 1250 1251
f 1246 1252 1250
f 1246 1251 1247
f 1253 1254 1252
f 1140 1145 1253
f 1253 1145 1255
f 1253 1255 1256
f 1253 1256 1254
f 1124 1137 1138
f 1127 1138 1242
f 1131 1242 1246
f 1246 1253 1252
f 1171 1199 1198
f 1146 1219 1199
f 1160 1198 1202
f 1208 1210 1257
f 1208 1258 1211
f 1212 1215 1258
f 1212 1259 1217
f 1259 1218 1260
f 1175 1261 1176
f 1175 1218 1259
f 1261 1262 1176
f 1261 1263 1264
f 1261 1264 1262
f 1140 1257 1144
f 1257 1265 1144
f 1257 1210 1265
f 1258 1266 1211
f 1258 1267 1266
f 1258 1215 1267
f 1259 1268 1217
f 1259 1260 1269
f 1259 1269 1268
f 1150 1222 1219
f 1156 1226 1222
f 1226 1229 1230
f 1181 1234 1230
f 1186 1237 1234
f 1192 1240 1195
f 1178 1180 1261
f 1178 1270 1196
f 1270 1271 1196
f 1192 1194 1270
f 1270 1194 1272
f 1261 1180 1273
f 1261 1273 1263
f 1270 1272 1271
f 1240 1191 1274
f 1240 1275 1195
f 1240 1276 1275
f 1240 1277 1276
f 1240 1274 1277
f 1165 1202 1137
f 1140 1253 1257
f 1208 1257 1258
f 1175 1259 1261
f 1212 1258 1259
f 1189 1240 1237
f 1192 1270 1240
f 1178 1261 1270
f 1198 1278 1202
f 1199 1279 1198
f 1199 1219 1280
f 1219 1222 1281
f 1137 1202 1282
f 1222 1226 1283
f 1226 1230 1284
f 1230 1234 1285
f 1237 1286 1234
f 1237 1240 1287
f 1138 1288 1242
f 1242 1289 1246
f 1138 1290 1288
f 1242 1288 1289
f 1198 1279 1278
f 1199 1280 1279
f 1219 1281 1280
f 1222 1283 1281
f 1226 1284 1283
f 1202 1278 1282
f 1138 1137 1290
f 1246 1291 1253
f 1253 1292 1257
f 1257 1293 1258
f 1258 1294 1259
f 1259 1295 1261
f 1261 1296 1270
f 1240 1270 1297
f 1137 1282 1290
f 1246 1289 1291
f 1253 1291 1292
f 1257 1292 1293
f 1258 1293 1294
f 1270 1296 1297
f 1259 1294 1295
f 1261 1295 1296
f 1230 1285 1284
f 1234 1286 1285
f 1237 1287 1286
f 1240 1297 1287
f 1278 1298 1282
f 1279 1299 1278
f 1280 1281 1300
f 1281 1283 1301
f 1279 1280 1302
f 1283 1284 1303
f 1284 1285 1304
f 1285 1286 1305
f 1286 1287 1306
f 1287 1297 1307
f 1282 1308 1290
f 1280 1300 1302
f 1281 1301 1300
f 1283 1303 1301
f 1282 1298 1308
f 1279 1302 1299
f 1278 1299 1298
f 1288 1290 1309
f 1288 1310 1289
f 1289 1311 1291
f 1291 1312 1292
f 1293 1292 1313
f 1294 1314 1295
f 1295 1315 1296
f 1293 1316 1294
f 1290 1308 1309
f 1288 1309 1310
f 1294 1316 1314
f 1295 1314 1315
f 1284 1304 1303
f 1285 1305 1304
f 1286 1306 1305
f 1296 1317 1297
f 1297 1317 1307
f 1287 1307 1306
f 1296 1315 1317
f 1299 1302 1318
f 1300 1301 1319
f 1300 1320 1302
f 1289 1310 1311
f 1291 1311 1312
f 1292 1312 1313
f 1293 1313 1316
f 1301 1303 1321
f 1303 1304 1322
f 1304 1305 1323
f 1305 1306 1324
f 1306 1307 1325
f 1307 1317 1326
f 1298 1327 1308
f 1299 1328 1298
f 1300 1319 1320
f 1301 1321 1319
f 1299 1318 1328
f 1298 1328 1327
f 1308 1327 1329
f 1302 1320 1318
f 1308 1329 1309
f 1309 1330 1310
f 1310 1331 1311
f 1311 1332 1312
f 1312 1333 1313
f 1313 1334 1316
f 1316 1335 1314
f 1309 1329 1330
f 1303 1322 1321
f 1304 1323 1322
f 1305 1324 1323
f 1306 1325 1324
f 1317 1315 1336
f 1315 1314 1337
f 1307 1326 1325
f 1317 1336 1326
f 1315 1337 1336
f 1314 1335 1337
f 1319 1321 1338
f 1320 1319 1339
f 1318 1320 1340
f 1310 1330 1331
f 1311 1331 1332
f 1312 1332 1333
f 1313 1333 1334
f 1316 1334 1335
f 1321 1322 1341
f 1322 1323 1342
f 1323 1324 1343
f 1324 1325 1344
f 1326 1345 1325
f 1328 1346 1327
f 1318 1347 1328
f 1327 1348 1329
f 1319 1338 1339
f 1318 1340 1347
f 1327 1346 1348
f 1328 1347 1346
f 1320 1339 1340
f 1329 1349 1330
f 1330 1350 1331
f 1331 1351 1332
f 1332 1352 1333
f 1333 1353 1334
f 1321 1341 1338
f 1322 1342 1341
f 1323 1343 1342
f 1324 1344 1343
f 1325 1345 1344
f 1326 1336 1354
f 1336 1337 1355
f 1334 1356 1335
f 1337 1335 1357
f 1335 1356 1357
f 1337 1357 1355
f 1326 1354 1345
f 1336 1355 1354
f 1329 1348 1349
f 1339 1358 1340
f 1339 1338 1359
f 1330 1349 1350
f 1331 1350 1351
f 1332 1351 1352
f 1333 1352 1353
f 1334 1353 1356
f 1341 1342 1360
f 1342 1343 1361
f 1338 1341 1362
f 1343 1344 1363
f 1344 1345 1364
f 1345 1354 1365
f 1347 1340 1366
f 1347 1367 1346
f 1348 1346 1368
f 1348 1369 1349
f 1338 1362 1359
f 1347 1366 1367
f 1346 1367 1368
f 1339 1359 1358
f 1340 1358 1366
f 1352 1370 1353
f 1349 1371 1350
f 1350 1372 1351
f 1351 1373 1352
f 1341 1360 1362
f 1342 1361 1360
f 1343 1363 1361
f 1344 1364 1363
f 1345 1365 1364
f 1354 1374 1365
f 1353 1375 1356
f 1356 1376 1357
f 1354 1355 1374
f 1357 1377 1355
f 1355 1377 1374
f 1357 1376 1377
f 1348 1368 1369
f 1358 1359 1378
f 1362 1379 1359
f 1349 1369 1371
f 1350 1371 1372
f 1351 1372 1373
f 1352 1373 1370
f 1360 1361 1380
f 1362 1360 1381
f 1361 1363 1382
f 1363 1364 1383
f 1364 1365 1384
f 1365 1374 1385
f 1353 1370 1375
f 1356 1375 1376
f 1366 1386 1367
f 1367 1387 1368
f 1368 1388 1369
f 1366 1358 1389
f 1366 1389 1386
f 1369 1390 1371
f 1358 1378 1389
f 1359 1379 1378
f 1371 1391 1372
f 1372 1392 1373
f 1362 1381 1379
f 1360 1380 1381
f 1361 1382 1380
f 1363 1383 1382
f 1364 1384 1383
f 1374 1377 1393
f 1365 1385 1384
f 1374 1393 1385
f 1376 1375 1394
f 1370 1395 1375
f 1377 1376 1396
f 1373 1397 1370
f 1376 1394 1396
f 1377 1396 1393
f 1367 1386 1387
f 1368 1387 1388
f 1369 1388 1390
f 1379 1398 1378
f 1378 1398 1389
f 1389 1398 1386
f 1386 1398 1387
f 1387 1398 1388
f 1388 1398 1390
f 1390 1398 1391
f 1391 1398 1392
f 1371 1390 1391
f 1372 1391 1392
f 1373 1392 1397
f 1380 1398 1381
f 1380 1382 1398
f 1379 1381 1398
f 1382 1383 1398
f 1383 1384 1398
f 1398 1384 1385
f 1398 1385 1393
f 1398 1393 1396
f 1398 1396 1394
f 1370 1397 1395
f 1375 1395 1394
f 1398 1395 1397
f 1398 1394 1395
f 1392 1398 1397
f 1399 1400 1401
f 1399 1402 1403
f 1399 1403 1400
f 1402 1404 1405
f 1402 1405 1403
f 1400 1403 1406
f 1404 1407 1405
f 1403 1405 1408
f 1403 1408 1406
f 1401 1409 1410
f 1401 1400 1409
f 1400 1406 1409
f 1410 1409 1411
f 1410 1411 1412
f 1409 1406 1413
f 1409 1413 1411
f 1412 1411 1414
f 1405 1407 1415
f 1407 1206 1126
f 1407 1125 1415
f 1407 1126 1125
f 1406 1408 1416
f 1405 1415 1408
f 1408 1415 1128
f 1408 1130 1417
f 1408 1417 1416
f 1415 1125 1139
f 1408 1128 1130
f 1415 1241 1129
f 1415 1139 1241
f 1415 1129 1128
f 1417 1130 1136
f 1417 1243 1244
f 1416 1417 1133
f 1416 1133 1132
f 1416 1132 1134
f 1417 1245 1133
f 1416 1134 1418
f 1417 1136 1243
f 1406 1416 1413
f 1411 1413 1419
f 1411 1419 1414
f 1413 1416 1420
f 1413 1420 1419
f 1414 1419 1421
f 1416 1418 1420
f 1419 1143 1421
f 1419 1420 1422
f 1419 1142 1141
f 1419 1422 1142
f 1419 1141 1143
f 1417 1244 1245
f 1418 1134 1135
f 1418 1135 1249
f 1418 1249 1248
f 1418 1248 1247
f 1420 1418 1251
f 1418 1247 1251
f 1420 1251 1250
f 1420 1250 1422
f 1252 1422 1250
f 1421 1143 1144
f 1421 1144 1265
f 1422 1252 1254
f 1422 1145 1142
f 1422 1255 1145
f 1422 1254 1256
f 1422 1256 1255
f 1423 1424 1425
f 1423 1426 1427
f 1423 1427 1424
f 1428 1426 1423
f 1429 1428 1423
f 1429 1423 1425
f 1428 1430 1431
f 1429 1430 1428
f 1429 1432 1430
f 1428 1433 1426
f 1426 1433 1434
f 1428 1431 1433
f 1433 1431 1435
f 1426 1434 1436
f 1436 1434 1437
f 1424 1427 1399
f 1424 1399 1401
f 1426 1436 1427
f 1427 1402 1399
f 1427 1436 1402
f 1433 1435 1434
f 1431 1438 1435
f 1434 1435 1439
f 1425 1424 1440
f 1425 1440 1441
f 1429 1425 1442
f 1425 1441 1442
f 1429 1442 1432
f 1442 1443 1432
f 1442 1441 1444
f 1441 1445 1444
f 1442 1444 1443
f 1444 1446 1443
f 1424 1401 1440
f 1441 1440 1447
f 1441 1447 1445
f 1440 1401 1410
f 1440 1410 1447
f 1447 1448 1445
f 1444 1445 1446
f 1443 1446 1449
f 1445 1450 1446
f 1430 1432 1451
f 1430 1452 1431
f 1430 1451 1452
f 1435 1438 1453
f 1431 1452 1438
f 1451 1454 1452
f 1451 1455 1454
f 1452 1456 1438
f 1452 1454 1456
f 1454 1455 1457
f 1432 1443 1458
f 1432 1458 1451
f 1443 1449 1458
f 1451 1458 1455
f 1458 1449 1459
f 1446 1460 1449
f 1458 1459 1455
f 1436 1404 1402
f 1436 1437 1404
f 1434 1439 1437
f 1435 1453 1439
f 1439 1461 1437
f 1439 1453 1462
f 1437 1463 1404
f 1437 1461 1463
f 1404 1463 1407
f 1463 1461 1162
f 1439 1462 1461
f 1461 1462 1172
f 1462 1173 1172
f 1462 1148 1147
f 1447 1410 1412
f 1447 1412 1448
f 1445 1448 1450
f 1446 1450 1460
f 1450 1448 1464
f 1450 1465 1460
f 1448 1412 1466
f 1448 1466 1464
f 1412 1414 1466
f 1450 1464 1465
f 1438 1467 1453
f 1438 1456 1467
f 1454 1468 1456
f 1456 1469 1467
f 1454 1457 1468
f 1456 1468 1469
f 1457 1470 1468
f 1453 1467 1471
f 1453 1471 1462
f 1462 1471 1148
f 1471 1220 1149
f 1471 1149 1148
f 1467 1151 1471
f 1471 1151 1153
f 1471 1153 1221
f 1467 1152 1151
f 1467 1154 1152
f 1467 1472 1154
f 1467 1469 1472
f 1469 1157 1472
f 1468 1473 1469
f 1469 1159 1158
f 1469 1158 1157
f 1469 1227 1159
f 1469 1473 1227
f 1468 1470 1473
f 1449 1460 1474
f 1455 1459 1475
f 1449 1474 1459
f 1459 1474 1476
f 1455 1475 1457
f 1457 1475 1470
f 1459 1476 1475
f 1474 1477 1476
f 1460 1478 1474
f 1460 1465 1478
f 1474 1478 1477
f 1475 1476 1479
f 1475 1479 1470
f 1463 1166 1407
f 1463 1169 1167
f 1463 1167 1166
f 1463 1480 1169
f 1463 1162 1161
f 1461 1164 1162
f 1463 1161 1163
f 1463 1163 1480
f 1407 1166 1168
f 1407 1168 1206
f 1480 1170 1169
f 1480 1163 1203
f 1461 1174 1207
f 1461 1172 1174
f 1461 1207 1164
f 1462 1200 1173
f 1462 1201 1200
f 1462 1147 1201
f 1480 1204 1170
f 1480 1205 1204
f 1480 1203 1205
f 1466 1414 1481
f 1466 1482 1464
f 1466 1481 1482
f 1464 1483 1465
f 1465 1484 1478
f 1464 1482 1483
f 1465 1483 1484
f 1414 1421 1481
f 1481 1421 1485
f 1481 1485 1482
f 1482 1485 1214
f 1482 1213 1216
f 1482 1214 1213
f 1482 1216 1486
f 1482 1486 1483
f 1483 1218 1177
f 1483 1177 1176
f 1483 1486 1218
f 1483 1487 1484
f 1484 1180 1179
f 1484 1487 1180
f 1483 1176 1487
f 1471 1221 1220
f 1472 1155 1154
f 1472 1157 1225
f 1472 1223 1155
f 1472 1224 1223
f 1472 1225 1224
f 1473 1228 1227
f 1473 1232 1231
f 1473 1229 1228
f 1473 1231 1229
f 1470 1233 1473
f 1470 1183 1182
f 1470 1184 1183
f 1470 1182 1185
f 1473 1233 1232
f 1470 1185 1233
f 1476 1477 1488
f 1477 1191 1190
f 1478 1489 1477
f 1478 1484 1489
f 1470 1479 1184
f 1479 1235 1184
f 1476 1488 1479
f 1479 1236 1235
f 1479 1187 1236
f 1479 1188 1187
f 1479 1488 1188
f 1477 1190 1488
f 1477 1490 1191
f 1490 1274 1191
f 1490 1277 1274
f 1490 1275 1276
f 1490 1276 1277
f 1484 1271 1489
f 1477 1489 1490
f 1489 1193 1195
f 1489 1194 1193
f 1489 1195 1490
f 1484 1179 1196
f 1484 1196 1271
f 1489 1272 1194
f 1489 1271 1272
f 1490 1195 1275
f 1488 1190 1197
f 1488 1238 1188
f 1488 1197 1239
f 1488 1239 1238
f 1421 1265 1210
f 1421 1210 1209
f 1421 1209 1211
f 1421 1211 1485
f 1485 1211 1266
f 1485 1215 1214
f 1485 1267 1215
f 1486 1216 1217
f 1486 1217 1268
f 1485 1266 1267
f 1486 1260 1218
f 1486 1269 1260
f 1487 1176 1262
f 1487 1273 1180
f 1487 1264 1263
f 1487 1262 1264
f 1487 1263 1273
f 1486 1268 1269
