# sionna2 mesh — matrice4e__motor.obj
# group=motor  verts=1016  tris=2016
v 0.133737 0.176601 0.006142
v 0.131979 0.175126 0.007772
v 0.132994 0.177661 0.006142
v 0.132112 0.180084 0.006142
v 0.129852 0.179686 0.007772
v 0.132000 0.181374 0.006142
v 0.129705 0.181374 0.007772
v 0.132112 0.182663 0.006142
v 0.131007 0.176514 0.007772
v 0.132447 0.178834 0.006142
v 0.130291 0.178049 0.007772
v 0.129852 0.183062 0.007772
v 0.132447 0.183913 0.006142
v 0.130291 0.184698 0.007772
v 0.132994 0.185086 0.006142
v 0.131007 0.186234 0.007772
v 0.133737 0.186147 0.006142
v 0.131979 0.187622 0.007772
v 0.134652 0.187062 0.006142
v 0.133177 0.173928 0.007772
v 0.133177 0.188820 0.007772
v 0.139425 0.181374 0.006142
v 0.134652 0.175686 0.006142
v 0.135712 0.174944 0.006142
v 0.136885 0.174397 0.006142
v 0.138135 0.174062 0.006142
v 0.139425 0.173949 0.006142
v 0.140714 0.174062 0.006142
v 0.141964 0.174397 0.006142
v 0.143137 0.174944 0.006142
v 0.144197 0.175686 0.006142
v 0.145113 0.176601 0.006142
v 0.134565 0.172956 0.007772
v 0.137737 0.171802 0.007772
v 0.136100 0.172240 0.007772
v 0.139425 0.171654 0.007772
v 0.141113 0.171802 0.007772
v 0.142749 0.172240 0.007772
v 0.144285 0.172956 0.007772
v 0.135712 0.187804 0.006142
v 0.136885 0.188351 0.006142
v 0.138135 0.188686 0.006142
v 0.139425 0.188799 0.006142
v 0.140714 0.188686 0.006142
v 0.141964 0.188351 0.006142
v 0.143137 0.187804 0.006142
v 0.144197 0.187062 0.006142
v 0.145113 0.186147 0.006142
v 0.134565 0.189792 0.007772
v 0.136100 0.190508 0.007772
v 0.137737 0.190946 0.007772
v 0.139425 0.191094 0.007772
v 0.141113 0.190946 0.007772
v 0.142749 0.190508 0.007772
v 0.145855 0.177661 0.006142
v 0.146402 0.178834 0.006142
v 0.146737 0.180084 0.006142
v 0.146850 0.181374 0.006142
v 0.146737 0.182663 0.006142
v 0.146402 0.183913 0.006142
v 0.145673 0.173928 0.007772
v 0.146871 0.175126 0.007772
v 0.147842 0.176514 0.007772
v 0.148558 0.178049 0.007772
v 0.148997 0.179686 0.007772
v 0.149145 0.181374 0.007772
v 0.148997 0.183062 0.007772
v 0.145855 0.185086 0.006142
v 0.144285 0.189792 0.007772
v 0.145673 0.188820 0.007772
v 0.147842 0.186234 0.007772
v 0.148558 0.184698 0.007772
v 0.146871 0.187622 0.007772
v 0.126927 0.179170 0.009728
v 0.126735 0.181374 0.009728
v 0.128435 0.175029 0.009728
v 0.129704 0.173217 0.009728
v 0.133080 0.170384 0.009728
v 0.131268 0.171653 0.009728
v 0.127500 0.177034 0.009728
v 0.126927 0.183577 0.009728
v 0.127500 0.185714 0.009728
v 0.128435 0.187719 0.009728
v 0.129704 0.189531 0.009728
v 0.131268 0.191095 0.009728
v 0.133080 0.192364 0.009728
v 0.137221 0.168877 0.009728
v 0.135084 0.169449 0.009728
v 0.139425 0.168684 0.009728
v 0.141628 0.168877 0.009728
v 0.143765 0.169449 0.009728
v 0.135084 0.193299 0.009728
v 0.137221 0.193871 0.009728
v 0.139425 0.194064 0.009728
v 0.141628 0.193871 0.009728
v 0.143765 0.193299 0.009728
v 0.145770 0.170384 0.009728
v 0.147582 0.171653 0.009728
v 0.149146 0.173217 0.009728
v 0.150415 0.175029 0.009728
v 0.151349 0.177034 0.009728
v 0.151922 0.179170 0.009728
v 0.152115 0.181374 0.009728
v 0.151922 0.183577 0.009728
v 0.149146 0.189531 0.009728
v 0.145770 0.192364 0.009728
v 0.147582 0.191095 0.009728
v 0.151349 0.185714 0.009728
v 0.150415 0.187719 0.009728
v 0.127733 0.174624 0.015106
v 0.126130 0.179030 0.015106
v 0.125925 0.181374 0.015106
v 0.126739 0.176757 0.015106
v 0.130747 0.171032 0.015106
v 0.129083 0.172696 0.015106
v 0.132675 0.169683 0.015106
v 0.126130 0.183718 0.015106
v 0.126739 0.185991 0.015106
v 0.127733 0.188124 0.015106
v 0.129083 0.190051 0.015106
v 0.130747 0.191715 0.015106
v 0.132675 0.193065 0.015106
v 0.134807 0.168688 0.015106
v 0.137080 0.168079 0.015106
v 0.139425 0.167874 0.015106
v 0.141769 0.168079 0.015106
v 0.144042 0.168688 0.015106
v 0.146175 0.169683 0.015106
v 0.134807 0.194060 0.015106
v 0.137080 0.194669 0.015106
v 0.139425 0.194874 0.015106
v 0.141769 0.194669 0.015106
v 0.148102 0.171032 0.015106
v 0.149766 0.172696 0.015106
v 0.151116 0.174624 0.015106
v 0.152111 0.176757 0.015106
v 0.152720 0.179030 0.015106
v 0.152925 0.181374 0.015106
v 0.144042 0.194060 0.015106
v 0.146175 0.193065 0.015106
v 0.152720 0.183718 0.015106
v 0.152111 0.185991 0.015106
v 0.151116 0.188124 0.015106
v 0.148102 0.191715 0.015106
v 0.149766 0.190051 0.015106
v 0.132945 0.170150 0.019507
v 0.134992 0.169195 0.019507
v 0.129497 0.173043 0.019507
v 0.128201 0.174894 0.019507
v 0.126662 0.179123 0.019507
v 0.126465 0.181374 0.019507
v 0.127246 0.176941 0.019507
v 0.131094 0.171446 0.019507
v 0.126662 0.183624 0.019507
v 0.127246 0.185806 0.019507
v 0.128201 0.187854 0.019507
v 0.129497 0.189704 0.019507
v 0.131094 0.191302 0.019507
v 0.132945 0.192598 0.019507
v 0.137174 0.168611 0.019507
v 0.139425 0.168414 0.019507
v 0.141675 0.168611 0.019507
v 0.143857 0.169195 0.019507
v 0.145905 0.170150 0.019507
v 0.147755 0.171446 0.019507
v 0.134992 0.193552 0.019507
v 0.137174 0.194137 0.019507
v 0.139425 0.194334 0.019507
v 0.141675 0.194137 0.019507
v 0.149353 0.173043 0.019507
v 0.150648 0.174894 0.019507
v 0.151603 0.176941 0.019507
v 0.152188 0.179123 0.019507
v 0.152385 0.181374 0.019507
v 0.143857 0.193552 0.019507
v 0.145905 0.192598 0.019507
v 0.152188 0.183624 0.019507
v 0.151603 0.185806 0.019507
v 0.150648 0.187854 0.019507
v 0.147755 0.191302 0.019507
v 0.149353 0.189704 0.019507
v 0.130072 0.175974 0.021625
v 0.129276 0.177680 0.021625
v 0.128789 0.179498 0.021625
v 0.128625 0.181374 0.021625
v 0.132483 0.173101 0.021625
v 0.131151 0.174432 0.021625
v 0.134025 0.172021 0.021625
v 0.128789 0.183249 0.021625
v 0.129276 0.185068 0.021625
v 0.130072 0.186774 0.021625
v 0.131151 0.188316 0.021625
v 0.132483 0.189647 0.021625
v 0.135731 0.171225 0.021625
v 0.137549 0.170738 0.021625
v 0.139425 0.170574 0.021625
v 0.141300 0.170738 0.021625
v 0.143119 0.171225 0.021625
v 0.144825 0.172021 0.021625
v 0.134025 0.190727 0.021625
v 0.135731 0.191523 0.021625
v 0.137549 0.192010 0.021625
v 0.139425 0.192174 0.021625
v 0.141300 0.192010 0.021625
v 0.146367 0.173101 0.021625
v 0.147698 0.174432 0.021625
v 0.148778 0.175974 0.021625
v 0.149573 0.177680 0.021625
v 0.150061 0.179498 0.021625
v 0.150225 0.181374 0.021625
v 0.143119 0.191523 0.021625
v 0.144825 0.190727 0.021625
v 0.146367 0.189647 0.021625
v 0.147698 0.188316 0.021625
v 0.148778 0.186774 0.021625
v 0.150061 0.183249 0.021625
v 0.149573 0.185068 0.021625
v 0.135081 0.177729 0.022440
v 0.135780 0.177030 0.022440
v 0.134514 0.178539 0.022440
v 0.134097 0.179435 0.022440
v 0.133841 0.180389 0.022440
v 0.133755 0.181374 0.022440
v 0.133841 0.182358 0.022440
v 0.134097 0.183313 0.022440
v 0.134514 0.184209 0.022440
v 0.135081 0.185018 0.022440
v 0.137485 0.176046 0.022440
v 0.136590 0.176463 0.022440
v 0.138440 0.175790 0.022440
v 0.139425 0.175704 0.022440
v 0.140409 0.175790 0.022440
v 0.141364 0.176046 0.022440
v 0.139425 0.181374 0.022440
v 0.142260 0.176463 0.022440
v 0.143069 0.177030 0.022440
v 0.143768 0.177729 0.022440
v 0.144335 0.178539 0.022440
v 0.144753 0.179435 0.022440
v 0.145009 0.180389 0.022440
v 0.145095 0.181374 0.022440
v 0.145009 0.182358 0.022440
v 0.144753 0.183313 0.022440
v 0.135780 0.185717 0.022440
v 0.136590 0.186284 0.022440
v 0.137485 0.186702 0.022440
v 0.138440 0.186958 0.022440
v 0.139425 0.187044 0.022440
v 0.140409 0.186958 0.022440
v 0.141364 0.186702 0.022440
v 0.142260 0.186284 0.022440
v 0.143768 0.185018 0.022440
v 0.143069 0.185717 0.022440
v 0.144335 0.184209 0.022440
v -0.139471 0.144787 0.009728
v -0.141675 0.144980 0.009728
v -0.141159 0.147905 0.007772
v -0.137268 0.144980 0.009728
v -0.139471 0.147757 0.007772
v -0.135131 0.145553 0.009728
v -0.137783 0.147905 0.007772
v -0.139471 0.157477 0.006142
v -0.145159 0.152705 0.006142
v -0.145901 0.153765 0.006142
v -0.146448 0.154938 0.006142
v -0.146783 0.156188 0.006142
v -0.146896 0.157477 0.006142
v -0.146783 0.158767 0.006142
v -0.144244 0.151789 0.006142
v -0.145719 0.150031 0.007772
v -0.143184 0.151047 0.006142
v -0.144331 0.149060 0.007772
v -0.148605 0.154153 0.007772
v -0.146917 0.151229 0.007772
v -0.147889 0.152617 0.007772
v -0.149044 0.155789 0.007772
v -0.149191 0.157477 0.007772
v -0.146448 0.160017 0.006142
v -0.145901 0.161190 0.006142
v -0.145159 0.162250 0.006142
v -0.149044 0.159165 0.007772
v -0.148605 0.160802 0.007772
v -0.147889 0.162337 0.007772
v -0.146917 0.163725 0.007772
v -0.144244 0.163165 0.006142
v -0.145719 0.164923 0.007772
v -0.143184 0.163908 0.006142
v -0.142011 0.150500 0.006142
v -0.140761 0.150165 0.006142
v -0.139471 0.150052 0.006142
v -0.138182 0.150165 0.006142
v -0.136932 0.150500 0.006142
v -0.135759 0.151047 0.006142
v -0.134699 0.151789 0.006142
v -0.133783 0.152705 0.006142
v -0.133041 0.153765 0.006142
v -0.132494 0.154938 0.006142
v -0.132159 0.156188 0.006142
v -0.132046 0.157477 0.006142
v -0.132159 0.158767 0.006142
v -0.142796 0.148344 0.007772
v -0.136147 0.148344 0.007772
v -0.134611 0.149060 0.007772
v -0.133223 0.150031 0.007772
v -0.142011 0.164455 0.006142
v -0.140761 0.164790 0.006142
v -0.139471 0.164902 0.006142
v -0.138182 0.164790 0.006142
v -0.136932 0.164455 0.006142
v -0.135759 0.163908 0.006142
v -0.134699 0.163165 0.006142
v -0.133783 0.162250 0.006142
v -0.133041 0.161190 0.006142
v -0.132494 0.160017 0.006142
v -0.144331 0.165895 0.007772
v -0.142796 0.166611 0.007772
v -0.141159 0.167050 0.007772
v -0.139471 0.167197 0.007772
v -0.134611 0.165895 0.007772
v -0.133223 0.164923 0.007772
v -0.137783 0.167050 0.007772
v -0.136147 0.166611 0.007772
v -0.132025 0.151229 0.007772
v -0.131053 0.152617 0.007772
v -0.130337 0.154153 0.007772
v -0.129899 0.155789 0.007772
v -0.129751 0.157477 0.007772
v -0.131053 0.162337 0.007772
v -0.130337 0.160802 0.007772
v -0.132025 0.163725 0.007772
v -0.129899 0.159165 0.007772
v -0.151396 0.153137 0.009728
v -0.150461 0.151132 0.009728
v -0.151968 0.155274 0.009728
v -0.152161 0.157477 0.009728
v -0.149192 0.149320 0.009728
v -0.147628 0.147756 0.009728
v -0.145816 0.146487 0.009728
v -0.143811 0.145553 0.009728
v -0.151968 0.159681 0.009728
v -0.151396 0.161818 0.009728
v -0.150461 0.163822 0.009728
v -0.149192 0.165634 0.009728
v -0.147628 0.167198 0.009728
v -0.145816 0.168467 0.009728
v -0.143811 0.169402 0.009728
v -0.133126 0.146487 0.009728
v -0.141675 0.169975 0.009728
v -0.139471 0.170167 0.009728
v -0.137268 0.169975 0.009728
v -0.135131 0.169402 0.009728
v -0.133126 0.168467 0.009728
v -0.131314 0.147756 0.009728
v -0.129750 0.149320 0.009728
v -0.128481 0.151132 0.009728
v -0.127547 0.153137 0.009728
v -0.126974 0.155274 0.009728
v -0.126781 0.157477 0.009728
v -0.126974 0.159681 0.009728
v -0.127547 0.161818 0.009728
v -0.129750 0.165634 0.009728
v -0.128481 0.163822 0.009728
v -0.131314 0.167198 0.009728
v -0.144089 0.144791 0.015106
v -0.141815 0.144182 0.015106
v -0.139471 0.143977 0.015106
v -0.137127 0.144182 0.015106
v -0.134854 0.144791 0.015106
v -0.132721 0.145786 0.015106
v -0.146221 0.145786 0.015106
v -0.151163 0.150727 0.015106
v -0.148149 0.147136 0.015106
v -0.149813 0.148800 0.015106
v -0.152157 0.152860 0.015106
v -0.152766 0.155133 0.015106
v -0.152971 0.157477 0.015106
v -0.152766 0.159822 0.015106
v -0.152157 0.162095 0.015106
v -0.151163 0.164227 0.015106
v -0.149813 0.166155 0.015106
v -0.148149 0.167819 0.015106
v -0.146221 0.169169 0.015106
v -0.144089 0.170163 0.015106
v -0.141815 0.170772 0.015106
v -0.139471 0.170977 0.015106
v -0.137127 0.170772 0.015106
v -0.134854 0.170163 0.015106
v -0.130794 0.147136 0.015106
v -0.129130 0.148800 0.015106
v -0.127780 0.150727 0.015106
v -0.126785 0.152860 0.015106
v -0.126176 0.155133 0.015106
v -0.125971 0.157477 0.015106
v -0.132721 0.169169 0.015106
v -0.130794 0.167819 0.015106
v -0.129130 0.166155 0.015106
v -0.126785 0.162095 0.015106
v -0.127780 0.164227 0.015106
v -0.126176 0.159822 0.015106
v -0.143904 0.145299 0.019507
v -0.141722 0.144714 0.019507
v -0.139471 0.144517 0.019507
v -0.137221 0.144714 0.019507
v -0.135039 0.145299 0.019507
v -0.145951 0.146254 0.019507
v -0.132991 0.146254 0.019507
v -0.150695 0.150997 0.019507
v -0.147802 0.147549 0.019507
v -0.149399 0.149147 0.019507
v -0.151650 0.153045 0.019507
v -0.152234 0.155227 0.019507
v -0.152431 0.157477 0.019507
v -0.152234 0.159728 0.019507
v -0.151650 0.161910 0.019507
v -0.150695 0.163957 0.019507
v -0.149399 0.165808 0.019507
v -0.147802 0.167405 0.019507
v -0.145951 0.168701 0.019507
v -0.143904 0.169656 0.019507
v -0.137221 0.170240 0.019507
v -0.135039 0.169656 0.019507
v -0.141722 0.170240 0.019507
v -0.139471 0.170437 0.019507
v -0.131141 0.147549 0.019507
v -0.129543 0.149147 0.019507
v -0.128248 0.150997 0.019507
v -0.127293 0.153045 0.019507
v -0.126708 0.155227 0.019507
v -0.126511 0.157477 0.019507
v -0.132991 0.168701 0.019507
v -0.131141 0.167405 0.019507
v -0.127293 0.161910 0.019507
v -0.128248 0.163957 0.019507
v -0.126708 0.159728 0.019507
v -0.129543 0.165808 0.019507
v -0.141347 0.146841 0.021625
v -0.139471 0.146677 0.021625
v -0.137596 0.146841 0.021625
v -0.135777 0.147329 0.021625
v -0.148824 0.152077 0.021625
v -0.147745 0.150535 0.021625
v -0.149620 0.153784 0.021625
v -0.150107 0.155602 0.021625
v -0.150271 0.157477 0.021625
v -0.146413 0.149204 0.021625
v -0.144871 0.148124 0.021625
v -0.143165 0.147329 0.021625
v -0.150107 0.159353 0.021625
v -0.149620 0.161171 0.021625
v -0.148824 0.162877 0.021625
v -0.147745 0.164419 0.021625
v -0.146413 0.165751 0.021625
v -0.144871 0.166830 0.021625
v -0.134071 0.148124 0.021625
v -0.143165 0.167626 0.021625
v -0.141347 0.168113 0.021625
v -0.139471 0.168277 0.021625
v -0.137596 0.168113 0.021625
v -0.135777 0.167626 0.021625
v -0.132529 0.149204 0.021625
v -0.131198 0.150535 0.021625
v -0.130118 0.152077 0.021625
v -0.129323 0.153784 0.021625
v -0.128835 0.155602 0.021625
v -0.128671 0.157477 0.021625
v -0.134071 0.166830 0.021625
v -0.132529 0.165751 0.021625
v -0.131198 0.164419 0.021625
v -0.128835 0.159353 0.021625
v -0.129323 0.161171 0.021625
v -0.130118 0.162877 0.021625
v -0.145055 0.156493 0.022440
v -0.145141 0.157477 0.022440
v -0.143815 0.153833 0.022440
v -0.143116 0.153134 0.022440
v -0.142306 0.152567 0.022440
v -0.144382 0.154642 0.022440
v -0.144799 0.155538 0.022440
v -0.145055 0.158462 0.022440
v -0.144799 0.159417 0.022440
v -0.144382 0.160312 0.022440
v -0.143815 0.161122 0.022440
v -0.143116 0.161821 0.022440
v -0.142306 0.162388 0.022440
v -0.140456 0.151893 0.022440
v -0.141410 0.152149 0.022440
v -0.139471 0.151807 0.022440
v -0.138487 0.151893 0.022440
v -0.137532 0.152149 0.022440
v -0.136636 0.152567 0.022440
v -0.135827 0.153134 0.022440
v -0.139471 0.157477 0.022440
v -0.135128 0.153833 0.022440
v -0.134561 0.154642 0.022440
v -0.134143 0.155538 0.022440
v -0.133887 0.156493 0.022440
v -0.133801 0.157477 0.022440
v -0.133887 0.158462 0.022440
v -0.141410 0.162805 0.022440
v -0.140456 0.163061 0.022440
v -0.139471 0.163147 0.022440
v -0.138487 0.163061 0.022440
v -0.137532 0.162805 0.022440
v -0.136636 0.162388 0.022440
v -0.135827 0.161821 0.022440
v -0.135128 0.161122 0.022440
v -0.134561 0.160312 0.022440
v -0.134143 0.159417 0.022440
v -0.139471 -0.157477 0.006142
v -0.145159 -0.162250 0.006142
v -0.145901 -0.161190 0.006142
v -0.146448 -0.160017 0.006142
v -0.146783 -0.158767 0.006142
v -0.146917 -0.163725 0.007772
v -0.148605 -0.160802 0.007772
v -0.149044 -0.159165 0.007772
v -0.146896 -0.157477 0.006142
v -0.147889 -0.162337 0.007772
v -0.144244 -0.163165 0.006142
v -0.145719 -0.164923 0.007772
v -0.143184 -0.163908 0.006142
v -0.144331 -0.165895 0.007772
v -0.146783 -0.156188 0.006142
v -0.146448 -0.154938 0.006142
v -0.145901 -0.153765 0.006142
v -0.145159 -0.152705 0.006142
v -0.149191 -0.157477 0.007772
v -0.149044 -0.155789 0.007772
v -0.148605 -0.154153 0.007772
v -0.147889 -0.152617 0.007772
v -0.146917 -0.151229 0.007772
v -0.144244 -0.151789 0.006142
v -0.145719 -0.150031 0.007772
v -0.143184 -0.151047 0.006142
v -0.142011 -0.164455 0.006142
v -0.140761 -0.164790 0.006142
v -0.139471 -0.164902 0.006142
v -0.138182 -0.164790 0.006142
v -0.136932 -0.164455 0.006142
v -0.135759 -0.163908 0.006142
v -0.134699 -0.163165 0.006142
v -0.133783 -0.162250 0.006142
v -0.133041 -0.161190 0.006142
v -0.132494 -0.160017 0.006142
v -0.132159 -0.158767 0.006142
v -0.142796 -0.166611 0.007772
v -0.141159 -0.167050 0.007772
v -0.139471 -0.167197 0.007772
v -0.137783 -0.167050 0.007772
v -0.136147 -0.166611 0.007772
v -0.134611 -0.165895 0.007772
v -0.133223 -0.164923 0.007772
v -0.142011 -0.150500 0.006142
v -0.140761 -0.150165 0.006142
v -0.139471 -0.150052 0.006142
v -0.138182 -0.150165 0.006142
v -0.136932 -0.150500 0.006142
v -0.135759 -0.151047 0.006142
v -0.134699 -0.151789 0.006142
v -0.132046 -0.157477 0.006142
v -0.132159 -0.156188 0.006142
v -0.132494 -0.154938 0.006142
v -0.133041 -0.153765 0.006142
v -0.133783 -0.152705 0.006142
v -0.144331 -0.149060 0.007772
v -0.142796 -0.148344 0.007772
v -0.141159 -0.147905 0.007772
v -0.139471 -0.147757 0.007772
v -0.137783 -0.147905 0.007772
v -0.136147 -0.148344 0.007772
v -0.133223 -0.150031 0.007772
v -0.134611 -0.149060 0.007772
v -0.132025 -0.163725 0.007772
v -0.131053 -0.162337 0.007772
v -0.130337 -0.160802 0.007772
v -0.129899 -0.159165 0.007772
v -0.132025 -0.151229 0.007772
v -0.131053 -0.152617 0.007772
v -0.130337 -0.154153 0.007772
v -0.129751 -0.157477 0.007772
v -0.129899 -0.155789 0.007772
v -0.150461 -0.163822 0.009728
v -0.151396 -0.161818 0.009728
v -0.151968 -0.159681 0.009728
v -0.147628 -0.167198 0.009728
v -0.145816 -0.168467 0.009728
v -0.143811 -0.169402 0.009728
v -0.149192 -0.165634 0.009728
v -0.152161 -0.157477 0.009728
v -0.151968 -0.155274 0.009728
v -0.151396 -0.153137 0.009728
v -0.150461 -0.151132 0.009728
v -0.149192 -0.149320 0.009728
v -0.147628 -0.147756 0.009728
v -0.145816 -0.146487 0.009728
v -0.143811 -0.145553 0.009728
v -0.141675 -0.169975 0.009728
v -0.139471 -0.170167 0.009728
v -0.137268 -0.169975 0.009728
v -0.135131 -0.169402 0.009728
v -0.133126 -0.168467 0.009728
v -0.141675 -0.144980 0.009728
v -0.139471 -0.144787 0.009728
v -0.137268 -0.144980 0.009728
v -0.135131 -0.145553 0.009728
v -0.133126 -0.146487 0.009728
v -0.131314 -0.167198 0.009728
v -0.129750 -0.165634 0.009728
v -0.128481 -0.163822 0.009728
v -0.127547 -0.161818 0.009728
v -0.126974 -0.159681 0.009728
v -0.126781 -0.157477 0.009728
v -0.127547 -0.153137 0.009728
v -0.128481 -0.151132 0.009728
v -0.131314 -0.147756 0.009728
v -0.129750 -0.149320 0.009728
v -0.126974 -0.155274 0.009728
v -0.149813 -0.166155 0.015106
v -0.148149 -0.167819 0.015106
v -0.151163 -0.164227 0.015106
v -0.152157 -0.162095 0.015106
v -0.152766 -0.159822 0.015106
v -0.146221 -0.169169 0.015106
v -0.144089 -0.170163 0.015106
v -0.152971 -0.157477 0.015106
v -0.152766 -0.155133 0.015106
v -0.152157 -0.152860 0.015106
v -0.151163 -0.150727 0.015106
v -0.149813 -0.148800 0.015106
v -0.148149 -0.147136 0.015106
v -0.141815 -0.170772 0.015106
v -0.139471 -0.170977 0.015106
v -0.137127 -0.170772 0.015106
v -0.134854 -0.170163 0.015106
v -0.132721 -0.169169 0.015106
v -0.130794 -0.167819 0.015106
v -0.129130 -0.166155 0.015106
v -0.127780 -0.164227 0.015106
v -0.126785 -0.162095 0.015106
v -0.126176 -0.159822 0.015106
v -0.132721 -0.145786 0.015106
v -0.129130 -0.148800 0.015106
v -0.130794 -0.147136 0.015106
v -0.126785 -0.152860 0.015106
v -0.125971 -0.157477 0.015106
v -0.126176 -0.155133 0.015106
v -0.127780 -0.150727 0.015106
v -0.146221 -0.145786 0.015106
v -0.144089 -0.144791 0.015106
v -0.141815 -0.144182 0.015106
v -0.139471 -0.143977 0.015106
v -0.137127 -0.144182 0.015106
v -0.134854 -0.144791 0.015106
v -0.139471 -0.170437 0.019507
v -0.137221 -0.170240 0.019507
v -0.149399 -0.165808 0.019507
v -0.147802 -0.167405 0.019507
v -0.150695 -0.163957 0.019507
v -0.151650 -0.161910 0.019507
v -0.152234 -0.159728 0.019507
v -0.145951 -0.168701 0.019507
v -0.143904 -0.169656 0.019507
v -0.152431 -0.157477 0.019507
v -0.152234 -0.155227 0.019507
v -0.151650 -0.153045 0.019507
v -0.150695 -0.150997 0.019507
v -0.149399 -0.149147 0.019507
v -0.147802 -0.147549 0.019507
v -0.141722 -0.170240 0.019507
v -0.135039 -0.169656 0.019507
v -0.145951 -0.146254 0.019507
v -0.132991 -0.168701 0.019507
v -0.131141 -0.167405 0.019507
v -0.129543 -0.165808 0.019507
v -0.128248 -0.163957 0.019507
v -0.127293 -0.161910 0.019507
v -0.126708 -0.159728 0.019507
v -0.132991 -0.146254 0.019507
v -0.131141 -0.147549 0.019507
v -0.127293 -0.153045 0.019507
v -0.126511 -0.157477 0.019507
v -0.126708 -0.155227 0.019507
v -0.129543 -0.149147 0.019507
v -0.128248 -0.150997 0.019507
v -0.143904 -0.145299 0.019507
v -0.141722 -0.144714 0.019507
v -0.139471 -0.144517 0.019507
v -0.137221 -0.144714 0.019507
v -0.135039 -0.145299 0.019507
v -0.147745 -0.164419 0.021625
v -0.149620 -0.161171 0.021625
v -0.150107 -0.159353 0.021625
v -0.148824 -0.162877 0.021625
v -0.144871 -0.166830 0.021625
v -0.146413 -0.165751 0.021625
v -0.143165 -0.167626 0.021625
v -0.150271 -0.157477 0.021625
v -0.150107 -0.155602 0.021625
v -0.149620 -0.153784 0.021625
v -0.148824 -0.152077 0.021625
v -0.147745 -0.150535 0.021625
v -0.146413 -0.149204 0.021625
v -0.144871 -0.148124 0.021625
v -0.141347 -0.168113 0.021625
v -0.139471 -0.168277 0.021625
v -0.137596 -0.168113 0.021625
v -0.135777 -0.167626 0.021625
v -0.134071 -0.166830 0.021625
v -0.135777 -0.147329 0.021625
v -0.132529 -0.165751 0.021625
v -0.131198 -0.164419 0.021625
v -0.130118 -0.162877 0.021625
v -0.129323 -0.161171 0.021625
v -0.128835 -0.159353 0.021625
v -0.134071 -0.148124 0.021625
v -0.131198 -0.150535 0.021625
v -0.132529 -0.149204 0.021625
v -0.128671 -0.157477 0.021625
v -0.128835 -0.155602 0.021625
v -0.129323 -0.153784 0.021625
v -0.130118 -0.152077 0.021625
v -0.143165 -0.147329 0.021625
v -0.141347 -0.146841 0.021625
v -0.137596 -0.146841 0.021625
v -0.145055 -0.158462 0.022440
v -0.142306 -0.162388 0.022440
v -0.144382 -0.160312 0.022440
v -0.143815 -0.161122 0.022440
v -0.144799 -0.159417 0.022440
v -0.143116 -0.161821 0.022440
v -0.145141 -0.157477 0.022440
v -0.145055 -0.156493 0.022440
v -0.144799 -0.155538 0.022440
v -0.144382 -0.154642 0.022440
v -0.143815 -0.153833 0.022440
v -0.143116 -0.153134 0.022440
v -0.142306 -0.152567 0.022440
v -0.141410 -0.162805 0.022440
v -0.140456 -0.163061 0.022440
v -0.139471 -0.163147 0.022440
v -0.138487 -0.163061 0.022440
v -0.137532 -0.162805 0.022440
v -0.136636 -0.162388 0.022440
v -0.135827 -0.161821 0.022440
v -0.139471 -0.157477 0.022440
v -0.135128 -0.161122 0.022440
v -0.134561 -0.160312 0.022440
v -0.134143 -0.159417 0.022440
v -0.133887 -0.158462 0.022440
v -0.141410 -0.152149 0.022440
v -0.140456 -0.151893 0.022440
v -0.139471 -0.146677 0.021625
v -0.139471 -0.151807 0.022440
v -0.138487 -0.151893 0.022440
v -0.137532 -0.152149 0.022440
v -0.136636 -0.152567 0.022440
v -0.135827 -0.153134 0.022440
v -0.135128 -0.153833 0.022440
v -0.134561 -0.154642 0.022440
v -0.133801 -0.157477 0.022440
v -0.133887 -0.156493 0.022440
v -0.134143 -0.155538 0.022440
v 0.133737 -0.186147 0.006142
v 0.131979 -0.187622 0.007772
v 0.132994 -0.185086 0.006142
v 0.131007 -0.186234 0.007772
v 0.132447 -0.183913 0.006142
v 0.130291 -0.184698 0.007772
v 0.132112 -0.182663 0.006142
v 0.129852 -0.183062 0.007772
v 0.132000 -0.181374 0.006142
v 0.129705 -0.181374 0.007772
v 0.132112 -0.180084 0.006142
v 0.129852 -0.179686 0.007772
v 0.132447 -0.178834 0.006142
v 0.130291 -0.178049 0.007772
v 0.132994 -0.177661 0.006142
v 0.131007 -0.176514 0.007772
v 0.133737 -0.176601 0.006142
v 0.131979 -0.175126 0.007772
v 0.134652 -0.175686 0.006142
v 0.133177 -0.188820 0.007772
v 0.133177 -0.173928 0.007772
v 0.139425 -0.181374 0.006142
v 0.134652 -0.187062 0.006142
v 0.136885 -0.188351 0.006142
v 0.135712 -0.187804 0.006142
v 0.138135 -0.188686 0.006142
v 0.139425 -0.188799 0.006142
v 0.140714 -0.188686 0.006142
v 0.141964 -0.188351 0.006142
v 0.143137 -0.187804 0.006142
v 0.144197 -0.187062 0.006142
v 0.145113 -0.186147 0.006142
v 0.136100 -0.190508 0.007772
v 0.137737 -0.190946 0.007772
v 0.134565 -0.189792 0.007772
v 0.139425 -0.191094 0.007772
v 0.141113 -0.190946 0.007772
v 0.142749 -0.190508 0.007772
v 0.144285 -0.189792 0.007772
v 0.135712 -0.174944 0.006142
v 0.136885 -0.174397 0.006142
v 0.138135 -0.174062 0.006142
v 0.140714 -0.174062 0.006142
v 0.141964 -0.174397 0.006142
v 0.143137 -0.174944 0.006142
v 0.144197 -0.175686 0.006142
v 0.145113 -0.176601 0.006142
v 0.139425 -0.173949 0.006142
v 0.134565 -0.172956 0.007772
v 0.136100 -0.172240 0.007772
v 0.137737 -0.171802 0.007772
v 0.139425 -0.171654 0.007772
v 0.142749 -0.172240 0.007772
v 0.141113 -0.171802 0.007772
v 0.145855 -0.185086 0.006142
v 0.146402 -0.183913 0.006142
v 0.145673 -0.188820 0.007772
v 0.146871 -0.187622 0.007772
v 0.147842 -0.186234 0.007772
v 0.148558 -0.184698 0.007772
v 0.146737 -0.182663 0.006142
v 0.148997 -0.183062 0.007772
v 0.146850 -0.181374 0.006142
v 0.146737 -0.180084 0.006142
v 0.146402 -0.178834 0.006142
v 0.145855 -0.177661 0.006142
v 0.149145 -0.181374 0.007772
v 0.148997 -0.179686 0.007772
v 0.147842 -0.176514 0.007772
v 0.148558 -0.178049 0.007772
v 0.144285 -0.172956 0.007772
v 0.145673 -0.173928 0.007772
v 0.146871 -0.175126 0.007772
v 0.131268 -0.191095 0.009728
v 0.133080 -0.192364 0.009728
v 0.128435 -0.187719 0.009728
v 0.129704 -0.189531 0.009728
v 0.127500 -0.185714 0.009728
v 0.126927 -0.183577 0.009728
v 0.126735 -0.181374 0.009728
v 0.126927 -0.179170 0.009728
v 0.127500 -0.177034 0.009728
v 0.128435 -0.175029 0.009728
v 0.129704 -0.173217 0.009728
v 0.131268 -0.171653 0.009728
v 0.133080 -0.170384 0.009728
v 0.135084 -0.193299 0.009728
v 0.137221 -0.193871 0.009728
v 0.139425 -0.194064 0.009728
v 0.141628 -0.193871 0.009728
v 0.143765 -0.193299 0.009728
v 0.135084 -0.169449 0.009728
v 0.137221 -0.168877 0.009728
v 0.139425 -0.168684 0.009728
v 0.141628 -0.168877 0.009728
v 0.145770 -0.192364 0.009728
v 0.147582 -0.191095 0.009728
v 0.149146 -0.189531 0.009728
v 0.150415 -0.187719 0.009728
v 0.151349 -0.185714 0.009728
v 0.151922 -0.183577 0.009728
v 0.143765 -0.169449 0.009728
v 0.145770 -0.170384 0.009728
v 0.147582 -0.171653 0.009728
v 0.149146 -0.173217 0.009728
v 0.152115 -0.181374 0.009728
v 0.151922 -0.179170 0.009728
v 0.151349 -0.177034 0.009728
v 0.150415 -0.175029 0.009728
v 0.126130 -0.183718 0.015106
v 0.127733 -0.188124 0.015106
v 0.126739 -0.185991 0.015106
v 0.129083 -0.190051 0.015106
v 0.130747 -0.191715 0.015106
v 0.132675 -0.193065 0.015106
v 0.125925 -0.181374 0.015106
v 0.126130 -0.179030 0.015106
v 0.126739 -0.176757 0.015106
v 0.127733 -0.174624 0.015106
v 0.129083 -0.172696 0.015106
v 0.130747 -0.171032 0.015106
v 0.132675 -0.169683 0.015106
v 0.134807 -0.194060 0.015106
v 0.137080 -0.194669 0.015106
v 0.139425 -0.194874 0.015106
v 0.141769 -0.194669 0.015106
v 0.144042 -0.194060 0.015106
v 0.146175 -0.193065 0.015106
v 0.148102 -0.191715 0.015106
v 0.149766 -0.190051 0.015106
v 0.151116 -0.188124 0.015106
v 0.152111 -0.185991 0.015106
v 0.152720 -0.183718 0.015106
v 0.146175 -0.169683 0.015106
v 0.152925 -0.181374 0.015106
v 0.152720 -0.179030 0.015106
v 0.152111 -0.176757 0.015106
v 0.149766 -0.172696 0.015106
v 0.148102 -0.171032 0.015106
v 0.151116 -0.174624 0.015106
v 0.134807 -0.168688 0.015106
v 0.137080 -0.168079 0.015106
v 0.139425 -0.167874 0.015106
v 0.141769 -0.168079 0.015106
v 0.144042 -0.168688 0.015106
v 0.129497 -0.189704 0.019507
v 0.126662 -0.183624 0.019507
v 0.128201 -0.187854 0.019507
v 0.127246 -0.185806 0.019507
v 0.131094 -0.191302 0.019507
v 0.132945 -0.192598 0.019507
v 0.126465 -0.181374 0.019507
v 0.126662 -0.179123 0.019507
v 0.127246 -0.176941 0.019507
v 0.128201 -0.174894 0.019507
v 0.129497 -0.173043 0.019507
v 0.131094 -0.171446 0.019507
v 0.134992 -0.193552 0.019507
v 0.132945 -0.170150 0.019507
v 0.137174 -0.194137 0.019507
v 0.139425 -0.194334 0.019507
v 0.141675 -0.194137 0.019507
v 0.143857 -0.193552 0.019507
v 0.145905 -0.192598 0.019507
v 0.147755 -0.191302 0.019507
v 0.149353 -0.189704 0.019507
v 0.150648 -0.187854 0.019507
v 0.151603 -0.185806 0.019507
v 0.152188 -0.183624 0.019507
v 0.152385 -0.181374 0.019507
v 0.152188 -0.179123 0.019507
v 0.151603 -0.176941 0.019507
v 0.147755 -0.171446 0.019507
v 0.149353 -0.173043 0.019507
v 0.150648 -0.174894 0.019507
v 0.145905 -0.170150 0.019507
v 0.134992 -0.169195 0.019507
v 0.137174 -0.168611 0.019507
v 0.139425 -0.168414 0.019507
v 0.141675 -0.168611 0.019507
v 0.143857 -0.169195 0.019507
v 0.130072 -0.186774 0.021625
v 0.129276 -0.185068 0.021625
v 0.128789 -0.183249 0.021625
v 0.132483 -0.189647 0.021625
v 0.134025 -0.190727 0.021625
v 0.131151 -0.188316 0.021625
v 0.128625 -0.181374 0.021625
v 0.128789 -0.179498 0.021625
v 0.129276 -0.177680 0.021625
v 0.130072 -0.175974 0.021625
v 0.131151 -0.174432 0.021625
v 0.132483 -0.173101 0.021625
v 0.135731 -0.191523 0.021625
v 0.137549 -0.192010 0.021625
v 0.139425 -0.192174 0.021625
v 0.141300 -0.192010 0.021625
v 0.143119 -0.191523 0.021625
v 0.144825 -0.190727 0.021625
v 0.146367 -0.189647 0.021625
v 0.147698 -0.188316 0.021625
v 0.148778 -0.186774 0.021625
v 0.149573 -0.185068 0.021625
v 0.150061 -0.183249 0.021625
v 0.144825 -0.172021 0.021625
v 0.146367 -0.173101 0.021625
v 0.150225 -0.181374 0.021625
v 0.150061 -0.179498 0.021625
v 0.149573 -0.177680 0.021625
v 0.147698 -0.174432 0.021625
v 0.148778 -0.175974 0.021625
v 0.134025 -0.172021 0.021625
v 0.135731 -0.171225 0.021625
v 0.137549 -0.170738 0.021625
v 0.139425 -0.170574 0.021625
v 0.141300 -0.170738 0.021625
v 0.143119 -0.171225 0.021625
v 0.134514 -0.184209 0.022440
v 0.134097 -0.183313 0.022440
v 0.135081 -0.185018 0.022440
v 0.135780 -0.185717 0.022440
v 0.133841 -0.182358 0.022440
v 0.133755 -0.181374 0.022440
v 0.133841 -0.180389 0.022440
v 0.134097 -0.179435 0.022440
v 0.134514 -0.178539 0.022440
v 0.135081 -0.177729 0.022440
v 0.136590 -0.186284 0.022440
v 0.137485 -0.186702 0.022440
v 0.138440 -0.186958 0.022440
v 0.139425 -0.187044 0.022440
v 0.140409 -0.186958 0.022440
v 0.141364 -0.186702 0.022440
v 0.139425 -0.181374 0.022440
v 0.142260 -0.186284 0.022440
v 0.143069 -0.185717 0.022440
v 0.143768 -0.185018 0.022440
v 0.144335 -0.184209 0.022440
v 0.144753 -0.183313 0.022440
v 0.135780 -0.177030 0.022440
v 0.136590 -0.176463 0.022440
v 0.137485 -0.176046 0.022440
v 0.138440 -0.175790 0.022440
v 0.139425 -0.175704 0.022440
v 0.140409 -0.175790 0.022440
v 0.141364 -0.176046 0.022440
v 0.145009 -0.182358 0.022440
v 0.145095 -0.181374 0.022440
v 0.145009 -0.180389 0.022440
v 0.144753 -0.179435 0.022440
v 0.144335 -0.178539 0.022440
v 0.143069 -0.177030 0.022440
v 0.142260 -0.176463 0.022440
v 0.143768 -0.177729 0.022440
f 1 2 3
f 4 5 6
f 6 7 8
f 3 9 10
f 10 11 4
f 8 12 13
f 13 14 15
f 15 16 17
f 17 18 19
f 2 9 3
f 20 2 1
f 9 11 10
f 11 5 4
f 5 7 6
f 7 12 8
f 12 14 13
f 14 16 15
f 16 18 17
f 18 21 19
f 22 3 10
f 22 23 1
f 22 1 3
f 22 10 4
f 22 4 6
f 22 6 8
f 22 8 13
f 22 24 23
f 22 25 24
f 22 26 25
f 22 27 26
f 22 28 27
f 22 29 28
f 22 30 29
f 22 31 30
f 22 32 31
f 24 33 23
f 23 20 1
f 26 34 25
f 25 35 24
f 27 36 26
f 28 37 27
f 29 38 28
f 30 39 29
f 22 13 15
f 22 15 17
f 22 17 19
f 22 19 40
f 22 40 41
f 22 41 42
f 22 42 43
f 22 43 44
f 22 44 45
f 22 46 47
f 22 47 48
f 22 45 46
f 19 21 40
f 40 49 41
f 41 50 42
f 42 51 43
f 43 52 44
f 44 53 45
f 45 54 46
f 22 55 32
f 22 56 55
f 22 57 56
f 22 58 57
f 22 59 58
f 22 60 59
f 31 61 30
f 32 62 31
f 55 63 32
f 56 64 55
f 57 65 56
f 58 66 57
f 59 67 58
f 22 48 68
f 22 68 60
f 46 69 47
f 47 70 48
f 68 71 60
f 60 72 59
f 48 73 68
f 35 33 24
f 33 20 23
f 34 35 25
f 36 34 26
f 37 36 27
f 38 37 28
f 39 38 29
f 21 49 40
f 49 50 41
f 50 51 42
f 51 52 43
f 52 53 44
f 53 54 45
f 61 39 30
f 62 61 31
f 63 62 32
f 64 63 55
f 65 64 56
f 66 65 57
f 67 66 58
f 69 70 47
f 72 67 59
f 71 72 60
f 73 71 68
f 70 73 48
f 54 69 46
f 5 74 7
f 7 75 12
f 9 76 11
f 2 77 9
f 33 78 20
f 20 79 2
f 11 80 5
f 76 80 11
f 80 74 5
f 74 75 7
f 75 81 12
f 79 77 2
f 77 76 9
f 78 79 20
f 12 81 14
f 14 82 16
f 16 83 18
f 18 84 21
f 21 85 49
f 81 82 14
f 82 83 16
f 83 84 18
f 84 85 21
f 85 86 49
f 87 88 35
f 89 87 34
f 90 89 36
f 91 90 37
f 35 88 33
f 34 87 35
f 36 89 34
f 37 90 36
f 38 91 37
f 88 78 33
f 49 86 50
f 50 92 51
f 51 93 52
f 52 94 53
f 53 95 54
f 86 92 50
f 92 93 51
f 93 94 52
f 94 95 53
f 95 96 54
f 39 97 38
f 61 98 39
f 62 99 61
f 63 100 62
f 64 101 63
f 65 102 64
f 66 103 65
f 67 104 66
f 97 91 38
f 98 97 39
f 99 98 61
f 100 99 62
f 101 100 63
f 102 101 64
f 103 102 65
f 104 103 66
f 73 105 71
f 54 96 69
f 69 106 70
f 70 107 73
f 72 108 67
f 71 109 72
f 96 106 69
f 106 107 70
f 107 105 73
f 105 109 71
f 109 108 72
f 108 104 67
f 76 110 80
f 74 111 75
f 75 112 81
f 80 113 74
f 79 114 77
f 77 115 76
f 78 116 79
f 81 117 82
f 82 118 83
f 83 119 84
f 84 120 85
f 85 121 86
f 86 122 92
f 88 123 78
f 87 124 88
f 89 125 87
f 90 126 89
f 91 127 90
f 97 128 91
f 92 129 93
f 93 130 94
f 94 131 95
f 95 132 96
f 98 133 97
f 99 134 98
f 100 135 99
f 101 136 100
f 102 137 101
f 103 138 102
f 96 139 106
f 106 140 107
f 104 141 103
f 108 142 104
f 109 143 108
f 107 144 105
f 105 145 109
f 123 116 78
f 110 113 80
f 115 110 76
f 113 111 74
f 111 112 75
f 114 115 77
f 116 114 79
f 112 117 81
f 117 118 82
f 118 119 83
f 119 120 84
f 120 121 85
f 121 122 86
f 124 123 88
f 125 124 87
f 126 125 89
f 127 126 90
f 128 127 91
f 133 128 97
f 122 129 92
f 129 130 93
f 130 131 94
f 131 132 95
f 132 139 96
f 134 133 98
f 135 134 99
f 136 135 100
f 137 136 101
f 138 137 102
f 141 138 103
f 139 140 106
f 140 144 107
f 145 143 109
f 142 141 104
f 143 142 108
f 144 145 105
f 116 146 114
f 147 146 116
f 115 148 110
f 110 149 113
f 111 150 112
f 112 151 117
f 113 152 111
f 114 153 115
f 117 154 118
f 118 155 119
f 119 156 120
f 120 157 121
f 121 158 122
f 122 159 129
f 149 152 113
f 148 149 110
f 150 151 112
f 152 150 111
f 153 148 115
f 146 153 114
f 151 154 117
f 154 155 118
f 155 156 119
f 156 157 120
f 157 158 121
f 158 159 122
f 123 147 116
f 124 160 123
f 125 161 124
f 126 162 125
f 127 163 126
f 128 164 127
f 160 147 123
f 161 160 124
f 162 161 125
f 163 162 126
f 164 163 127
f 165 164 128
f 129 166 130
f 130 167 131
f 131 168 132
f 132 169 139
f 133 165 128
f 134 170 133
f 135 171 134
f 136 172 135
f 137 173 136
f 138 174 137
f 139 175 140
f 140 176 144
f 141 177 138
f 142 178 141
f 143 179 142
f 144 180 145
f 145 181 143
f 159 166 129
f 166 167 130
f 167 168 131
f 168 169 132
f 169 175 139
f 170 165 133
f 171 170 134
f 172 171 135
f 173 172 136
f 174 173 137
f 177 174 138
f 175 176 140
f 176 180 144
f 181 179 143
f 178 177 141
f 179 178 142
f 180 181 145
f 149 182 152
f 152 183 150
f 150 184 151
f 151 185 154
f 153 186 148
f 148 187 149
f 146 188 153
f 154 189 155
f 155 190 156
f 156 191 157
f 157 192 158
f 158 193 159
f 147 194 146
f 160 195 147
f 161 196 160
f 162 197 161
f 163 198 162
f 164 199 163
f 159 200 166
f 166 201 167
f 167 202 168
f 168 203 169
f 169 204 175
f 165 205 164
f 170 206 165
f 171 207 170
f 172 208 171
f 173 209 172
f 174 210 173
f 175 211 176
f 176 212 180
f 180 213 181
f 181 214 179
f 179 215 178
f 177 216 174
f 178 217 177
f 182 183 152
f 183 184 150
f 184 185 151
f 186 187 148
f 187 182 149
f 188 186 153
f 185 189 154
f 189 190 155
f 190 191 156
f 191 192 157
f 192 193 158
f 193 200 159
f 187 218 182
f 186 219 187
f 182 220 183
f 183 221 184
f 184 222 185
f 185 223 189
f 218 220 182
f 220 221 183
f 221 222 184
f 222 223 185
f 223 224 189
f 189 224 190
f 190 225 191
f 191 226 192
f 192 227 193
f 224 225 190
f 225 226 191
f 226 227 192
f 195 194 147
f 196 195 160
f 197 196 161
f 198 197 162
f 194 188 146
f 200 201 166
f 201 202 167
f 202 203 168
f 203 204 169
f 204 211 175
f 199 198 163
f 205 199 164
f 206 205 165
f 207 206 170
f 208 207 171
f 209 208 172
f 210 209 173
f 216 210 174
f 211 212 176
f 212 213 180
f 213 214 181
f 214 215 179
f 215 217 178
f 217 216 177
f 194 228 188
f 188 229 186
f 195 230 194
f 196 231 195
f 197 232 196
f 198 233 197
f 219 218 187
f 229 219 186
f 228 229 188
f 230 228 194
f 231 230 195
f 234 222 221
f 234 221 220
f 234 223 222
f 234 224 223
f 234 225 224
f 234 218 219
f 234 220 218
f 234 219 229
f 234 229 228
f 234 228 230
f 232 231 196
f 233 232 197
f 235 233 198
f 234 230 231
f 234 231 232
f 234 232 233
f 234 233 235
f 234 235 236
f 234 236 237
f 234 237 238
f 234 238 239
f 234 239 240
f 234 240 241
f 234 241 242
f 234 242 243
f 193 244 200
f 200 245 201
f 201 246 202
f 202 247 203
f 203 248 204
f 204 249 211
f 211 250 212
f 227 244 193
f 244 245 200
f 245 246 201
f 246 247 202
f 234 226 225
f 234 227 226
f 234 244 227
f 234 245 244
f 234 246 245
f 234 247 246
f 247 248 203
f 248 249 204
f 249 250 211
f 250 251 212
f 234 248 247
f 234 249 248
f 234 250 249
f 234 252 253
f 234 251 250
f 234 253 251
f 234 254 252
f 234 243 254
f 199 235 198
f 205 236 199
f 206 237 205
f 207 238 206
f 208 239 207
f 209 240 208
f 210 241 209
f 216 242 210
f 236 235 199
f 237 236 205
f 238 237 206
f 239 238 207
f 240 239 208
f 241 240 209
f 242 241 210
f 213 253 214
f 217 243 216
f 215 254 217
f 214 252 215
f 212 251 213
f 252 254 215
f 251 253 213
f 253 252 214
f 254 243 217
f 243 242 216
f 255 256 257
f 258 255 259
f 260 258 261
f 262 263 264
f 262 265 266
f 262 264 265
f 262 266 267
f 262 267 268
f 269 270 263
f 271 272 269
f 265 273 266
f 263 274 264
f 264 275 265
f 266 276 267
f 267 277 268
f 262 268 278
f 262 278 279
f 262 279 280
f 268 281 278
f 278 282 279
f 279 283 280
f 280 284 285
f 285 286 287
f 262 271 269
f 262 269 263
f 262 288 271
f 262 289 288
f 262 290 289
f 262 291 290
f 262 292 291
f 262 293 292
f 262 294 293
f 262 295 294
f 262 296 295
f 262 297 296
f 262 298 297
f 262 299 298
f 262 300 299
f 288 301 271
f 289 257 288
f 290 259 289
f 291 261 290
f 292 302 291
f 293 303 292
f 294 304 293
f 262 280 285
f 262 285 287
f 262 287 305
f 262 305 306
f 262 306 307
f 262 307 308
f 262 308 309
f 262 309 310
f 262 310 311
f 262 311 312
f 262 312 313
f 262 314 300
f 262 313 314
f 287 315 305
f 305 316 306
f 306 317 307
f 307 318 308
f 310 319 311
f 311 320 312
f 308 321 309
f 309 322 310
f 276 277 267
f 270 274 263
f 272 270 269
f 301 272 271
f 275 273 265
f 274 275 264
f 273 276 266
f 277 281 268
f 281 282 278
f 282 283 279
f 283 284 280
f 284 286 285
f 286 315 287
f 257 301 288
f 259 257 289
f 261 259 290
f 302 261 291
f 303 302 292
f 304 303 293
f 315 316 305
f 316 317 306
f 317 318 307
f 318 321 308
f 321 322 309
f 322 319 310
f 319 320 311
f 295 323 294
f 296 324 295
f 297 325 296
f 298 326 297
f 299 327 298
f 313 328 314
f 314 329 300
f 312 330 313
f 300 331 299
f 323 304 294
f 324 323 295
f 325 324 296
f 326 325 297
f 327 326 298
f 331 327 299
f 320 330 312
f 330 328 313
f 329 331 300
f 328 329 314
f 273 332 276
f 275 333 273
f 276 334 277
f 277 335 281
f 274 336 275
f 270 337 274
f 272 338 270
f 301 339 272
f 336 333 275
f 332 334 276
f 334 335 277
f 333 332 273
f 338 337 270
f 337 336 274
f 339 338 272
f 281 340 282
f 282 341 283
f 283 342 284
f 284 343 286
f 286 344 315
f 315 345 316
f 335 340 281
f 340 341 282
f 341 342 283
f 342 343 284
f 343 344 286
f 344 345 315
f 345 346 316
f 257 256 301
f 259 255 257
f 261 258 259
f 302 260 261
f 303 347 302
f 256 339 301
f 347 260 302
f 316 346 317
f 317 348 318
f 318 349 321
f 321 350 322
f 322 351 319
f 346 348 317
f 348 349 318
f 349 350 321
f 350 351 322
f 351 352 319
f 304 353 303
f 323 354 304
f 324 355 323
f 325 356 324
f 326 357 325
f 327 358 326
f 353 347 303
f 354 353 304
f 355 354 323
f 356 355 324
f 357 356 325
f 358 357 326
f 359 358 327
f 329 360 331
f 330 361 328
f 328 362 329
f 319 352 320
f 320 363 330
f 331 359 327
f 361 362 328
f 352 363 320
f 363 361 330
f 360 359 331
f 362 360 329
f 339 364 338
f 256 365 339
f 255 366 256
f 258 367 255
f 260 368 258
f 347 369 260
f 364 370 338
f 365 364 339
f 366 365 256
f 367 366 255
f 368 367 258
f 369 368 260
f 333 371 332
f 337 372 336
f 336 373 333
f 332 374 334
f 334 375 335
f 335 376 340
f 338 370 337
f 340 377 341
f 341 378 342
f 342 379 343
f 343 380 344
f 344 381 345
f 345 382 346
f 346 383 348
f 348 384 349
f 349 385 350
f 350 386 351
f 351 387 352
f 353 388 347
f 354 389 353
f 355 390 354
f 356 391 355
f 357 392 356
f 358 393 357
f 352 394 363
f 363 395 361
f 361 396 362
f 360 397 359
f 362 398 360
f 359 399 358
f 371 374 332
f 372 373 336
f 373 371 333
f 374 375 334
f 375 376 335
f 370 372 337
f 376 377 340
f 377 378 341
f 378 379 342
f 379 380 343
f 380 381 344
f 381 382 345
f 382 383 346
f 383 384 348
f 386 387 351
f 384 385 349
f 385 386 350
f 388 369 347
f 389 388 353
f 390 389 354
f 391 390 355
f 392 391 356
f 393 392 357
f 399 393 358
f 387 394 352
f 394 395 363
f 395 396 361
f 398 397 360
f 397 399 359
f 396 398 362
f 364 400 370
f 365 401 364
f 366 402 365
f 367 403 366
f 368 404 367
f 400 405 370
f 401 400 364
f 402 401 365
f 403 402 366
f 404 403 367
f 406 404 368
f 369 406 368
f 371 407 374
f 372 408 373
f 373 409 371
f 374 410 375
f 375 411 376
f 376 412 377
f 370 405 372
f 377 413 378
f 378 414 379
f 379 415 380
f 380 416 381
f 381 417 382
f 382 418 383
f 383 419 384
f 386 420 387
f 387 421 394
f 408 409 373
f 409 407 371
f 410 411 375
f 407 410 374
f 411 412 376
f 405 408 372
f 412 413 377
f 413 414 378
f 414 415 379
f 415 416 380
f 416 417 381
f 417 418 382
f 418 419 383
f 419 422 384
f 423 420 386
f 420 421 387
f 384 422 385
f 385 423 386
f 422 423 385
f 388 424 369
f 389 425 388
f 390 426 389
f 391 427 390
f 392 428 391
f 393 429 392
f 394 430 395
f 395 431 396
f 397 432 399
f 398 433 397
f 399 434 393
f 396 435 398
f 424 406 369
f 425 424 388
f 426 425 389
f 427 426 390
f 428 427 391
f 429 428 392
f 434 429 393
f 421 430 394
f 430 431 395
f 431 435 396
f 432 434 399
f 433 432 397
f 435 433 398
f 401 436 400
f 402 437 401
f 403 438 402
f 404 439 403
f 437 436 401
f 438 437 402
f 407 440 410
f 409 441 407
f 410 442 411
f 411 443 412
f 412 444 413
f 408 445 409
f 405 446 408
f 400 447 405
f 413 448 414
f 414 449 415
f 415 450 416
f 416 451 417
f 417 452 418
f 418 453 419
f 406 454 404
f 419 455 422
f 422 456 423
f 423 457 420
f 420 458 421
f 421 459 430
f 424 460 406
f 425 461 424
f 426 462 425
f 427 463 426
f 428 464 427
f 429 465 428
f 430 466 431
f 431 467 435
f 435 468 433
f 434 469 429
f 432 470 434
f 433 471 432
f 441 440 407
f 442 443 411
f 443 444 412
f 440 442 410
f 446 445 408
f 445 441 409
f 447 446 405
f 444 448 413
f 448 449 414
f 449 450 415
f 450 451 416
f 451 452 417
f 452 453 418
f 453 455 419
f 436 447 400
f 439 438 403
f 454 439 404
f 455 456 422
f 456 457 423
f 457 458 420
f 458 459 421
f 459 466 430
f 443 472 444
f 444 473 448
f 441 474 440
f 445 475 441
f 446 476 445
f 440 477 442
f 442 478 443
f 476 475 445
f 477 478 442
f 478 472 443
f 472 473 444
f 474 477 440
f 475 474 441
f 448 479 449
f 449 480 450
f 450 481 451
f 451 482 452
f 452 483 453
f 453 484 455
f 473 479 448
f 479 480 449
f 480 481 450
f 481 482 451
f 482 483 452
f 483 484 453
f 436 485 447
f 447 486 446
f 437 487 436
f 438 488 437
f 439 489 438
f 454 490 439
f 460 491 454
f 486 476 446
f 485 486 447
f 487 485 436
f 488 487 437
f 492 475 476
f 492 474 475
f 492 476 486
f 492 478 477
f 492 472 478
f 492 477 474
f 492 473 472
f 492 479 473
f 492 486 485
f 492 485 487
f 492 487 488
f 489 488 438
f 490 489 439
f 491 490 454
f 493 491 460
f 492 488 489
f 492 489 490
f 492 490 491
f 492 491 493
f 492 493 494
f 492 494 495
f 492 495 496
f 492 496 497
f 492 497 498
f 455 499 456
f 456 500 457
f 457 501 458
f 458 502 459
f 459 503 466
f 466 504 467
f 484 499 455
f 492 480 479
f 492 481 480
f 492 482 481
f 492 483 482
f 492 484 483
f 492 499 484
f 492 500 499
f 492 501 500
f 492 502 501
f 499 500 456
f 500 501 457
f 503 504 466
f 505 506 468
f 504 505 467
f 492 503 502
f 492 504 503
f 492 507 506
f 492 505 504
f 492 506 505
f 492 508 507
f 492 498 508
f 501 502 458
f 502 503 459
f 460 454 406
f 461 460 424
f 462 461 425
f 463 462 426
f 464 463 427
f 465 464 428
f 469 465 429
f 468 471 433
f 466 467 431
f 467 468 435
f 470 469 434
f 471 470 432
f 461 493 460
f 462 494 461
f 463 495 462
f 464 496 463
f 465 497 464
f 494 493 461
f 495 494 462
f 496 495 463
f 497 496 464
f 498 497 465
f 467 505 468
f 468 506 471
f 469 498 465
f 470 508 469
f 471 507 470
f 507 508 470
f 508 498 469
f 506 507 471
f 509 510 511
f 509 512 513
f 509 511 512
f 510 514 511
f 512 515 513
f 513 516 517
f 511 518 512
f 519 520 510
f 521 522 519
f 509 513 517
f 509 517 523
f 509 523 524
f 509 524 525
f 509 525 526
f 517 527 523
f 523 528 524
f 524 529 525
f 525 530 526
f 526 531 532
f 532 533 534
f 509 521 519
f 509 535 521
f 509 519 510
f 509 536 535
f 509 537 536
f 509 538 537
f 509 539 538
f 509 540 539
f 509 541 540
f 509 542 541
f 509 543 542
f 509 544 543
f 509 545 544
f 535 546 521
f 536 547 535
f 537 548 536
f 538 549 537
f 539 550 538
f 540 551 539
f 541 552 540
f 509 526 532
f 509 532 534
f 509 534 553
f 509 553 554
f 509 554 555
f 509 555 556
f 509 556 557
f 509 557 558
f 509 558 559
f 509 560 545
f 509 561 560
f 509 562 561
f 509 563 562
f 509 559 564
f 509 564 563
f 534 565 553
f 553 566 554
f 554 567 555
f 555 568 556
f 556 569 557
f 557 570 558
f 559 571 564
f 558 572 559
f 522 520 519
f 546 522 521
f 520 514 510
f 514 518 511
f 518 515 512
f 515 516 513
f 516 527 517
f 527 528 523
f 528 529 524
f 529 530 525
f 530 531 526
f 531 533 532
f 533 565 534
f 547 546 535
f 548 547 536
f 549 548 537
f 550 549 538
f 551 550 539
f 552 551 540
f 565 566 553
f 566 567 554
f 567 568 555
f 568 569 556
f 569 570 557
f 570 572 558
f 572 571 559
f 542 573 541
f 543 574 542
f 544 575 543
f 545 576 544
f 564 577 563
f 563 578 562
f 562 579 561
f 560 580 545
f 561 581 560
f 573 552 541
f 574 573 542
f 575 574 543
f 576 575 544
f 580 576 545
f 577 578 563
f 581 580 560
f 579 581 561
f 578 579 562
f 571 577 564
f 518 582 515
f 515 583 516
f 516 584 527
f 520 585 514
f 522 586 520
f 546 587 522
f 514 588 518
f 583 584 516
f 582 583 515
f 588 582 518
f 585 588 514
f 586 585 520
f 587 586 522
f 527 589 528
f 528 590 529
f 529 591 530
f 530 592 531
f 531 593 533
f 533 594 565
f 565 595 566
f 584 589 527
f 589 590 528
f 590 591 529
f 591 592 530
f 592 593 531
f 593 594 533
f 594 595 565
f 595 596 566
f 547 597 546
f 548 598 547
f 549 599 548
f 550 600 549
f 551 601 550
f 597 587 546
f 598 597 547
f 599 598 548
f 600 599 549
f 601 600 550
f 566 596 567
f 567 602 568
f 568 603 569
f 569 604 570
f 570 605 572
f 604 605 570
f 605 606 572
f 552 607 551
f 573 608 552
f 574 609 573
f 575 610 574
f 576 611 575
f 607 601 551
f 608 607 552
f 609 608 573
f 610 609 574
f 611 610 575
f 612 611 576
f 579 613 581
f 578 614 579
f 571 615 577
f 572 606 571
f 577 616 578
f 580 612 576
f 581 617 580
f 606 615 571
f 615 616 577
f 616 614 578
f 617 612 580
f 613 617 581
f 614 613 579
f 596 602 567
f 602 603 568
f 603 604 569
f 588 618 582
f 585 619 588
f 582 620 583
f 583 621 584
f 584 622 589
f 586 623 585
f 587 624 586
f 589 625 590
f 590 626 591
f 591 627 592
f 592 628 593
f 593 629 594
f 594 630 595
f 597 631 587
f 598 632 597
f 599 633 598
f 600 634 599
f 601 635 600
f 607 636 601
f 608 637 607
f 609 638 608
f 610 639 609
f 611 640 610
f 606 641 615
f 616 642 614
f 615 643 616
f 613 644 617
f 612 645 611
f 617 646 612
f 614 647 613
f 632 631 597
f 633 632 598
f 618 620 582
f 619 618 588
f 620 621 583
f 621 622 584
f 623 619 585
f 624 623 586
f 622 625 589
f 625 626 590
f 626 627 591
f 627 628 592
f 628 629 593
f 629 630 594
f 630 648 595
f 631 624 587
f 634 633 599
f 635 634 600
f 636 635 601
f 637 636 607
f 638 637 608
f 639 638 609
f 640 639 610
f 645 640 611
f 641 643 615
f 643 642 616
f 646 645 612
f 644 646 617
f 642 647 614
f 647 644 613
f 595 648 596
f 596 649 602
f 602 650 603
f 603 651 604
f 604 652 605
f 605 653 606
f 648 649 596
f 649 650 602
f 650 651 603
f 651 652 604
f 652 653 605
f 653 641 606
f 632 654 631
f 633 655 632
f 655 654 632
f 618 656 620
f 619 657 618
f 620 658 621
f 621 659 622
f 622 660 625
f 623 661 619
f 624 662 623
f 625 663 626
f 626 664 627
f 627 665 628
f 628 666 629
f 629 667 630
f 630 668 648
f 631 669 624
f 634 670 633
f 656 658 620
f 657 656 618
f 658 659 621
f 659 660 622
f 661 657 619
f 662 661 623
f 660 663 625
f 663 664 626
f 664 665 627
f 665 666 628
f 666 667 629
f 667 668 630
f 668 671 648
f 669 662 624
f 654 669 631
f 670 655 633
f 672 670 634
f 635 672 634
f 636 673 635
f 637 674 636
f 638 675 637
f 639 676 638
f 640 677 639
f 641 678 643
f 643 679 642
f 644 680 646
f 645 681 640
f 646 682 645
f 642 683 647
f 647 684 644
f 673 672 635
f 674 673 636
f 675 674 637
f 676 675 638
f 677 676 639
f 681 677 640
f 678 679 643
f 679 683 642
f 680 682 646
f 684 680 644
f 682 681 645
f 683 684 647
f 648 671 649
f 649 685 650
f 650 686 651
f 651 687 652
f 652 688 653
f 653 689 641
f 671 685 649
f 685 686 650
f 686 687 651
f 687 688 652
f 688 689 653
f 689 678 641
f 656 690 658
f 659 691 660
f 660 692 663
f 658 693 659
f 661 694 657
f 657 695 656
f 662 696 661
f 663 697 664
f 664 698 665
f 665 699 666
f 666 700 667
f 667 701 668
f 668 702 671
f 671 703 685
f 669 704 662
f 654 705 669
f 655 706 654
f 670 707 655
f 672 708 670
f 689 709 678
f 673 710 672
f 674 711 673
f 675 712 674
f 676 713 675
f 677 714 676
f 678 715 679
f 683 716 684
f 679 717 683
f 681 718 677
f 682 719 681
f 680 720 682
f 684 721 680
f 691 692 660
f 693 691 659
f 690 693 658
f 695 690 656
f 694 695 657
f 696 694 661
f 692 697 663
f 697 698 664
f 698 699 665
f 699 700 666
f 700 701 667
f 701 702 668
f 702 703 671
f 703 722 685
f 704 696 662
f 705 704 669
f 706 705 654
f 707 706 655
f 708 707 670
f 722 723 686
f 724 709 689
f 709 715 678
f 692 725 697
f 694 726 695
f 693 727 691
f 690 728 693
f 691 729 692
f 695 730 690
f 727 729 691
f 729 725 692
f 728 727 693
f 730 728 690
f 726 730 695
f 697 731 698
f 698 732 699
f 699 733 700
f 700 734 701
f 701 735 702
f 702 736 703
f 703 737 722
f 725 731 697
f 731 732 698
f 732 733 699
f 733 734 700
f 734 735 701
f 735 736 702
f 736 737 703
f 696 738 694
f 704 739 696
f 705 740 704
f 706 741 705
f 707 742 706
f 708 743 707
f 710 744 708
f 739 738 696
f 740 739 704
f 741 740 705
f 738 726 694
f 745 729 727
f 745 725 729
f 745 727 728
f 745 728 730
f 745 730 726
f 745 726 738
f 745 738 739
f 745 739 740
f 745 740 741
f 742 741 706
f 743 742 707
f 744 743 708
f 746 744 710
f 745 741 742
f 745 742 743
f 745 743 744
f 745 744 746
f 745 746 747
f 745 747 748
f 745 748 749
f 722 750 723
f 723 751 752
f 752 753 724
f 724 754 709
f 709 755 715
f 715 756 717
f 745 731 725
f 745 732 731
f 745 733 732
f 745 734 733
f 745 735 734
f 745 736 735
f 745 737 736
f 745 750 737
f 745 751 750
f 745 753 751
f 745 754 753
f 737 750 722
f 750 751 723
f 751 753 752
f 757 758 716
f 745 759 758
f 745 755 754
f 745 756 755
f 745 757 756
f 745 758 757
f 745 749 760
f 745 760 761
f 745 761 762
f 745 762 759
f 753 754 724
f 754 755 709
f 755 756 715
f 756 757 717
f 710 708 672
f 711 710 673
f 712 711 674
f 713 712 675
f 714 713 676
f 718 714 677
f 715 717 679
f 717 716 683
f 716 721 684
f 719 718 681
f 720 719 682
f 721 720 680
f 711 746 710
f 712 747 711
f 713 748 712
f 714 749 713
f 747 746 711
f 748 747 712
f 749 748 713
f 760 749 714
f 718 760 714
f 719 761 718
f 720 762 719
f 721 759 720
f 717 757 716
f 716 758 721
f 761 760 718
f 762 761 719
f 759 762 720
f 758 759 721
f 685 722 686
f 686 723 687
f 687 752 688
f 688 724 689
f 723 752 687
f 752 724 688
f 763 764 765
f 765 766 767
f 767 768 769
f 769 770 771
f 771 772 773
f 773 774 775
f 775 776 777
f 777 778 779
f 779 780 781
f 766 768 767
f 768 770 769
f 764 766 765
f 782 764 763
f 770 772 771
f 772 774 773
f 774 776 775
f 776 778 777
f 778 780 779
f 780 783 781
f 784 765 767
f 784 785 763
f 784 763 765
f 784 786 787
f 784 788 786
f 784 787 785
f 784 789 788
f 784 790 789
f 784 791 790
f 784 792 791
f 784 793 792
f 784 794 793
f 786 795 787
f 788 796 786
f 785 782 763
f 787 797 785
f 789 798 788
f 790 799 789
f 791 800 790
f 792 801 791
f 784 767 769
f 784 769 771
f 784 771 773
f 784 773 775
f 784 775 777
f 784 777 779
f 784 779 781
f 784 781 802
f 784 802 803
f 784 803 804
f 784 805 806
f 784 806 807
f 784 807 808
f 784 808 809
f 784 804 810
f 784 810 805
f 781 783 802
f 802 811 803
f 803 812 804
f 804 813 810
f 810 814 805
f 806 815 807
f 805 816 806
f 784 817 794
f 784 818 817
f 793 819 792
f 794 820 793
f 817 821 794
f 818 822 817
f 823 824 818
f 784 823 818
f 784 825 823
f 784 826 825
f 784 827 826
f 784 828 827
f 784 809 828
f 825 829 823
f 826 830 825
f 828 831 827
f 827 832 826
f 807 833 808
f 808 834 809
f 809 835 828
f 795 797 787
f 796 795 786
f 798 796 788
f 797 782 785
f 799 798 789
f 800 799 790
f 801 800 791
f 783 811 802
f 811 812 803
f 812 813 804
f 813 814 810
f 814 816 805
f 816 815 806
f 819 801 792
f 820 819 793
f 821 820 794
f 822 821 817
f 824 822 818
f 832 830 826
f 831 832 827
f 833 834 808
f 815 833 807
f 834 835 809
f 835 831 828
f 829 824 823
f 830 829 825
f 782 836 764
f 797 837 782
f 766 838 768
f 764 839 766
f 768 840 770
f 838 840 768
f 840 841 770
f 836 839 764
f 837 836 782
f 839 838 766
f 770 841 772
f 772 842 774
f 774 843 776
f 776 844 778
f 778 845 780
f 780 846 783
f 783 847 811
f 841 842 772
f 842 843 774
f 843 844 776
f 844 845 778
f 845 846 780
f 846 847 783
f 847 848 811
f 795 849 797
f 796 850 795
f 798 851 796
f 799 852 798
f 800 853 799
f 850 849 795
f 849 837 797
f 851 850 796
f 852 851 798
f 853 852 799
f 811 848 812
f 812 854 813
f 813 855 814
f 814 856 816
f 816 857 815
f 848 854 812
f 801 858 800
f 819 859 801
f 820 860 819
f 821 861 820
f 822 862 821
f 824 863 822
f 858 853 800
f 859 858 801
f 860 859 819
f 861 860 820
f 862 861 821
f 863 862 822
f 815 864 833
f 833 865 834
f 834 866 835
f 835 867 831
f 829 868 824
f 830 869 829
f 832 870 830
f 831 871 832
f 864 865 833
f 865 866 834
f 866 867 835
f 871 870 832
f 868 863 824
f 869 868 829
f 870 869 830
f 867 871 831
f 854 855 813
f 855 856 814
f 856 857 816
f 857 864 815
f 841 872 842
f 838 873 840
f 840 874 841
f 839 875 838
f 836 876 839
f 837 877 836
f 842 878 843
f 843 879 844
f 844 880 845
f 845 881 846
f 846 882 847
f 847 883 848
f 848 884 854
f 849 885 837
f 850 886 849
f 851 887 850
f 852 888 851
f 853 889 852
f 858 890 853
f 859 891 858
f 860 892 859
f 861 893 860
f 862 894 861
f 863 895 862
f 865 896 866
f 868 897 863
f 869 898 868
f 870 899 869
f 867 900 871
f 866 901 867
f 871 902 870
f 854 903 855
f 855 904 856
f 856 905 857
f 857 906 864
f 864 907 865
f 874 872 841
f 873 874 840
f 875 873 838
f 876 875 839
f 877 876 836
f 885 877 837
f 872 878 842
f 878 879 843
f 879 880 844
f 880 881 845
f 881 882 846
f 882 883 847
f 883 884 848
f 886 885 849
f 887 886 850
f 888 887 851
f 889 888 852
f 890 889 853
f 891 890 858
f 892 891 859
f 893 892 860
f 894 893 861
f 895 894 862
f 897 895 863
f 896 901 866
f 898 897 868
f 899 898 869
f 900 902 871
f 901 900 867
f 902 899 870
f 884 903 854
f 903 904 855
f 904 905 856
f 905 906 857
f 906 907 864
f 907 896 865
f 875 908 873
f 872 909 878
f 873 910 874
f 874 911 872
f 876 912 875
f 877 913 876
f 878 914 879
f 879 915 880
f 880 916 881
f 881 917 882
f 882 918 883
f 883 919 884
f 910 911 874
f 908 910 873
f 911 909 872
f 912 908 875
f 913 912 876
f 920 913 877
f 909 914 878
f 914 915 879
f 915 916 880
f 916 917 881
f 917 918 882
f 918 919 883
f 884 921 903
f 919 921 884
f 885 920 877
f 886 922 885
f 887 923 886
f 888 924 887
f 889 925 888
f 890 926 889
f 891 927 890
f 892 928 891
f 893 929 892
f 894 930 893
f 895 931 894
f 897 932 895
f 898 933 897
f 899 934 898
f 901 935 900
f 900 936 902
f 902 937 899
f 922 920 885
f 923 922 886
f 924 923 887
f 925 924 888
f 926 925 889
f 927 926 890
f 928 927 891
f 929 928 892
f 930 929 893
f 931 930 894
f 932 931 895
f 938 935 901
f 933 932 897
f 934 933 898
f 936 937 902
f 935 936 900
f 937 934 899
f 903 939 904
f 904 940 905
f 905 941 906
f 906 942 907
f 907 943 896
f 896 938 901
f 921 939 903
f 939 940 904
f 940 941 905
f 941 942 906
f 942 943 907
f 943 938 896
f 910 944 911
f 911 945 909
f 909 946 914
f 912 947 908
f 913 948 912
f 908 949 910
f 914 950 915
f 915 951 916
f 916 952 917
f 917 953 918
f 918 954 919
f 919 955 921
f 920 956 913
f 922 957 920
f 923 958 922
f 924 959 923
f 925 960 924
f 926 961 925
f 927 962 926
f 928 963 927
f 929 964 928
f 930 965 929
f 931 966 930
f 938 967 935
f 935 968 936
f 932 969 931
f 933 970 932
f 934 971 933
f 936 972 937
f 937 973 934
f 921 974 939
f 939 975 940
f 940 976 941
f 941 977 942
f 942 978 943
f 943 979 938
f 944 945 911
f 945 946 909
f 947 949 908
f 948 947 912
f 949 944 910
f 946 950 914
f 950 951 915
f 951 952 916
f 952 953 917
f 953 954 918
f 954 955 919
f 955 974 921
f 944 980 945
f 945 981 946
f 949 982 944
f 947 983 949
f 981 984 946
f 982 980 944
f 980 981 945
f 946 984 950
f 950 985 951
f 951 986 952
f 952 987 953
f 953 988 954
f 954 989 955
f 984 985 950
f 985 986 951
f 986 987 952
f 987 988 953
f 988 989 954
f 957 956 920
f 956 948 913
f 958 957 922
f 959 958 923
f 960 959 924
f 974 975 939
f 961 960 925
f 962 961 926
f 963 962 927
f 964 963 928
f 965 964 929
f 966 965 930
f 969 966 931
f 979 967 938
f 967 968 935
f 968 972 936
f 973 971 934
f 970 969 932
f 971 970 933
f 972 973 937
f 948 990 947
f 956 991 948
f 957 992 956
f 958 993 957
f 959 994 958
f 960 995 959
f 983 982 949
f 990 983 947
f 991 990 948
f 992 991 956
f 993 992 957
f 996 981 980
f 996 983 990
f 996 980 982
f 996 982 983
f 996 990 991
f 996 991 992
f 994 993 958
f 995 994 959
f 997 995 960
f 996 992 993
f 996 993 994
f 996 994 995
f 996 995 997
f 996 997 998
f 996 998 999
f 996 999 1000
f 996 1000 1001
f 955 1002 974
f 974 1003 975
f 975 1004 976
f 976 1005 977
f 977 1006 978
f 978 1007 979
f 979 1008 967
f 996 984 981
f 996 985 984
f 996 986 985
f 996 987 986
f 996 988 987
f 996 989 988
f 996 1002 989
f 996 1003 1002
f 996 1004 1003
f 996 1005 1004
f 989 1002 955
f 1002 1003 974
f 1003 1004 975
f 1004 1005 976
f 996 1006 1005
f 996 1007 1006
f 996 1008 1007
f 996 1001 1009
f 996 1009 1010
f 996 1010 1011
f 996 1011 1012
f 996 1012 1013
f 996 1014 1015
f 996 1016 1014
f 996 1015 1008
f 996 1013 1016
f 1005 1006 977
f 1006 1007 978
f 1007 1008 979
f 1008 1015 967
f 961 997 960
f 962 998 961
f 963 999 962
f 964 1000 963
f 965 1001 964
f 966 1009 965
f 998 997 961
f 999 998 962
f 1000 999 963
f 1001 1000 964
f 1009 1001 965
f 971 1012 970
f 973 1013 971
f 967 1015 968
f 968 1014 972
f 972 1016 973
f 969 1010 966
f 970 1011 969
f 1016 1013 973
f 1010 1009 966
f 1011 1010 969
f 1012 1011 970
f 1013 1012 971
f 1015 1014 968
f 1014 1016 972
f 975 976 940
f 976 977 941
f 977 978 942
f 978 979 943
