# sionna2 mesh — mini2__canopy.obj
# group=canopy  verts=1122  tris=2240
v -0.046852 0.019890 0.013031
v -0.046852 0.020147 0.011482
v -0.050003 0.015587 0.011628
v -0.050003 0.015295 0.012775
v -0.046852 0.019002 0.014283
v -0.050003 0.014494 0.013633
v -0.046852 0.017642 0.015093
v -0.050003 0.013391 0.014156
v -0.046852 0.016106 0.015591
v -0.050003 0.012194 0.014476
v -0.046852 0.014519 0.015916
v -0.050003 0.010972 0.014690
v -0.046852 0.012915 0.016141
v -0.050003 0.009740 0.014839
v -0.046852 0.011302 0.016300
v -0.050003 0.008502 0.014943
v -0.046852 0.009685 0.016410
v -0.050003 0.007263 0.015017
v -0.046852 0.008066 0.016483
v -0.050003 0.006022 0.015065
v -0.046852 0.006445 0.016527
v -0.050003 0.004780 0.015094
v -0.046852 0.004824 0.016554
v -0.050003 0.003539 0.015110
v -0.046852 0.003204 0.016565
v -0.050003 0.002297 0.015117
v -0.046852 0.001583 0.016571
v -0.050003 0.001055 0.015121
v -0.046852 -0.000038 0.016574
v -0.050003 -0.000187 0.015123
v -0.046852 -0.001659 0.016571
v -0.050003 -0.001429 0.015120
v -0.046852 -0.003281 0.016564
v -0.050003 -0.002671 0.015116
v -0.046852 -0.004901 0.016553
v -0.050003 -0.003912 0.015106
v -0.046852 -0.006522 0.016524
v -0.050003 -0.005154 0.015086
v -0.046852 -0.008142 0.016478
v -0.050003 -0.006395 0.015052
v -0.046852 -0.009762 0.016402
v -0.050003 -0.007636 0.014996
v -0.046852 -0.011378 0.016288
v -0.050003 -0.008875 0.014913
v -0.046852 -0.012990 0.016125
v -0.050003 -0.010111 0.014796
v -0.046852 -0.014594 0.015893
v -0.050003 -0.011342 0.014630
v -0.046852 -0.016178 0.015555
v -0.050003 -0.012560 0.014388
v -0.046852 -0.017703 0.015032
v -0.050003 -0.013741 0.014014
v -0.046852 -0.019028 0.014195
v -0.050003 -0.014769 0.013394
v -0.046852 -0.019885 0.012937
v -0.050003 -0.015424 0.012434
v -0.046852 -0.020147 0.011395
v -0.050003 -0.015587 0.011249
v -0.046852 -0.019890 0.009846
v -0.050003 -0.015295 0.010102
v -0.046852 -0.019002 0.008594
v -0.050003 -0.014494 0.009244
v -0.046852 -0.017642 0.007784
v -0.050003 -0.013391 0.008721
v -0.046852 -0.016106 0.007285
v -0.050003 -0.012194 0.008401
v -0.046852 -0.014519 0.006961
v -0.050003 -0.010972 0.008187
v -0.046852 -0.012915 0.006736
v -0.050003 -0.009740 0.008038
v -0.046852 -0.011302 0.006577
v -0.050003 -0.008502 0.007933
v -0.046852 -0.009685 0.006467
v -0.050003 -0.007263 0.007860
v -0.046852 -0.008066 0.006394
v -0.050003 -0.006022 0.007812
v -0.046852 -0.006445 0.006349
v -0.050003 -0.004780 0.007783
v -0.046852 -0.004824 0.006323
v -0.050003 -0.003539 0.007767
v -0.046852 -0.003204 0.006312
v -0.050003 -0.002297 0.007760
v -0.046852 -0.001583 0.006306
v -0.050003 -0.001055 0.007755
v -0.046852 0.000038 0.006302
v -0.050003 0.000187 0.007754
v -0.046852 0.001659 0.006306
v -0.050003 0.001429 0.007757
v -0.046852 0.003281 0.006312
v -0.050003 0.002671 0.007761
v -0.046852 0.004901 0.006324
v -0.050003 0.003912 0.007770
v -0.046852 0.006522 0.006353
v -0.050003 0.005154 0.007791
v -0.046852 0.008142 0.006399
v -0.050003 0.006395 0.007825
v -0.046852 0.009762 0.006475
v -0.050003 0.007636 0.007881
v -0.046852 0.011378 0.006589
v -0.050003 0.008875 0.007963
v -0.046852 0.012990 0.006752
v -0.050003 0.010111 0.008080
v -0.046852 0.014594 0.006984
v -0.050003 0.011342 0.008247
v -0.046852 0.016178 0.007322
v -0.050003 0.012560 0.008488
v -0.046852 0.017703 0.007845
v -0.050003 0.013741 0.008862
v -0.046852 0.019028 0.008682
v -0.050003 0.014769 0.009483
v -0.046852 0.019885 0.009939
v -0.050003 0.015424 0.010443
v -0.042692 0.022818 0.013287
v -0.042692 0.023083 0.011475
v -0.042692 0.021878 0.014801
v -0.042692 0.020370 0.015827
v -0.042692 0.018620 0.016472
v -0.042692 0.016795 0.016889
v -0.042692 0.014943 0.017176
v -0.042692 0.013080 0.017378
v -0.042692 0.011210 0.017518
v -0.042692 0.009338 0.017610
v -0.042692 0.007464 0.017667
v -0.042692 0.005590 0.017701
v -0.042692 0.003715 0.017715
v -0.042692 0.001840 0.017723
v -0.042692 -0.000034 0.017727
v -0.042692 -0.001909 0.017722
v -0.042692 -0.003784 0.017715
v -0.042692 -0.005659 0.017700
v -0.042692 -0.007533 0.017664
v -0.042692 -0.009407 0.017606
v -0.042692 -0.011279 0.017512
v -0.042692 -0.013148 0.017368
v -0.042692 -0.015010 0.017162
v -0.042692 -0.016861 0.016868
v -0.042692 -0.018684 0.016440
v -0.042692 -0.020423 0.015775
v -0.042692 -0.021901 0.014727
v -0.042692 -0.022816 0.013209
v -0.042692 -0.023083 0.011402
v -0.042692 -0.022818 0.009590
v -0.042692 -0.021878 0.008076
v -0.042692 -0.020370 0.007050
v -0.042692 -0.018620 0.006405
v -0.042692 -0.016795 0.005987
v -0.042692 -0.014943 0.005701
v -0.042692 -0.013080 0.005499
v -0.042692 -0.011210 0.005358
v -0.042692 -0.009338 0.005267
v -0.042692 -0.007464 0.005210
v -0.042692 -0.005590 0.005175
v -0.042692 -0.003715 0.005162
v -0.042692 -0.001840 0.005154
v -0.042692 0.000034 0.005150
v -0.042692 0.001909 0.005154
v -0.042692 0.003784 0.005162
v -0.042692 0.005659 0.005177
v -0.042692 0.007533 0.005213
v -0.042692 0.009407 0.005271
v -0.042692 0.011279 0.005365
v -0.042692 0.013148 0.005509
v -0.042692 0.015010 0.005715
v -0.042692 0.016861 0.006008
v -0.042692 0.018684 0.006437
v -0.042692 0.020423 0.007102
v -0.042692 0.021901 0.008149
v -0.042692 0.022816 0.009668
v -0.038536 0.025296 0.013503
v -0.038536 0.025570 0.011472
v -0.038536 0.024305 0.015232
v -0.038536 0.022672 0.016433
v -0.038536 0.020742 0.017198
v -0.038536 0.018716 0.017697
v -0.038536 0.016655 0.018036
v -0.038536 0.014580 0.018275
v -0.038536 0.012498 0.018440
v -0.038536 0.010412 0.018548
v -0.038536 0.008324 0.018615
v -0.038536 0.006235 0.018656
v -0.038536 0.004146 0.018672
v -0.038536 0.002057 0.018681
v -0.038536 -0.000033 0.018686
v -0.038536 -0.002122 0.018681
v -0.038536 -0.004211 0.018672
v -0.038536 -0.006300 0.018655
v -0.038536 -0.008389 0.018613
v -0.038536 -0.010477 0.018545
v -0.038536 -0.012563 0.018435
v -0.038536 -0.014645 0.018266
v -0.038536 -0.016720 0.018024
v -0.038536 -0.018779 0.017678
v -0.038536 -0.020803 0.017171
v -0.038536 -0.022724 0.016390
v -0.038536 -0.024333 0.015169
v -0.038536 -0.025300 0.013434
v -0.038536 -0.025570 0.011405
v -0.038536 -0.025296 0.009374
v -0.038536 -0.024305 0.007645
v -0.038536 -0.022672 0.006443
v -0.038536 -0.020742 0.005678
v -0.038536 -0.018716 0.005180
v -0.038536 -0.016655 0.004841
v -0.038536 -0.014580 0.004602
v -0.038536 -0.012498 0.004437
v -0.038536 -0.010412 0.004329
v -0.038536 -0.008324 0.004261
v -0.038536 -0.006235 0.004221
v -0.038536 -0.004146 0.004205
v -0.038536 -0.002057 0.004195
v -0.038536 0.000033 0.004190
v -0.038536 0.002122 0.004196
v -0.038536 0.004211 0.004205
v -0.038536 0.006300 0.004222
v -0.038536 0.008389 0.004264
v -0.038536 0.010477 0.004332
v -0.038536 0.012563 0.004442
v -0.038536 0.014645 0.004611
v -0.038536 0.016720 0.004853
v -0.038536 0.018779 0.005199
v -0.038536 0.020803 0.005706
v -0.038536 0.022724 0.006487
v -0.038536 0.024333 0.007708
v -0.038536 0.025300 0.009443
v -0.034404 0.027359 0.013676
v -0.034404 0.027642 0.011465
v -0.034404 0.026324 0.015579
v -0.034404 0.024585 0.016923
v -0.034404 0.022506 0.017785
v -0.034404 0.020313 0.018349
v -0.034404 0.018080 0.018732
v -0.034404 0.015830 0.019000
v -0.034404 0.013571 0.019186
v -0.034404 0.011307 0.019307
v -0.034404 0.009041 0.019383
v -0.034404 0.006775 0.019429
v -0.034404 0.004508 0.019447
v -0.034404 0.002241 0.019457
v -0.034404 -0.000026 0.019463
v -0.034404 -0.002294 0.019457
v -0.034404 -0.004561 0.019447
v -0.034404 -0.006828 0.019428
v -0.034404 -0.009094 0.019381
v -0.034404 -0.011360 0.019304
v -0.034404 -0.013623 0.019182
v -0.034404 -0.015882 0.018993
v -0.034404 -0.018132 0.018722
v -0.034404 -0.020365 0.018334
v -0.034404 -0.022556 0.017764
v -0.034404 -0.024628 0.016890
v -0.034404 -0.026348 0.015530
v -0.034404 -0.027363 0.013622
v -0.034404 -0.027642 0.011411
v -0.034404 -0.027359 0.009200
v -0.034404 -0.026324 0.007298
v -0.034404 -0.024585 0.005953
v -0.034404 -0.022506 0.005092
v -0.034404 -0.020313 0.004528
v -0.034404 -0.018080 0.004145
v -0.034404 -0.015830 0.003877
v -0.034404 -0.013571 0.003691
v -0.034404 -0.011307 0.003570
v -0.034404 -0.009041 0.003494
v -0.034404 -0.006775 0.003448
v -0.034404 -0.004508 0.003430
v -0.034404 -0.002241 0.003420
v -0.034404 0.000026 0.003414
v -0.034404 0.002294 0.003420
v -0.034404 0.004561 0.003430
v -0.034404 0.006828 0.003449
v -0.034404 0.009094 0.003496
v -0.034404 0.011360 0.003573
v -0.034404 0.013623 0.003695
v -0.034404 0.015882 0.003884
v -0.034404 0.018132 0.004155
v -0.034404 0.020365 0.004543
v -0.034404 0.022556 0.005113
v -0.034404 0.024628 0.005987
v -0.034404 0.026348 0.007347
v -0.034404 0.027363 0.009255
v -0.030271 0.028995 0.013811
v -0.030271 0.029286 0.011459
v -0.030271 0.027923 0.015849
v -0.030271 0.026099 0.017302
v -0.030271 0.023900 0.018238
v -0.030271 0.021576 0.018852
v -0.030271 0.019207 0.019269
v -0.030271 0.016818 0.019560
v -0.030271 0.014419 0.019762
v -0.030271 0.012015 0.019893
v -0.030271 0.009609 0.019975
v -0.030271 0.007202 0.020025
v -0.030271 0.004795 0.020045
v -0.030271 0.002387 0.020056
v -0.030271 -0.000020 0.020062
v -0.030271 -0.002428 0.020056
v -0.030271 -0.004835 0.020045
v -0.030271 -0.007243 0.020025
v -0.030271 -0.009650 0.019974
v -0.030271 -0.012056 0.019891
v -0.030271 -0.014459 0.019759
v -0.030271 -0.016858 0.019555
v -0.030271 -0.019247 0.019262
v -0.030271 -0.021616 0.018842
v -0.030271 -0.023939 0.018223
v -0.030271 -0.026132 0.017278
v -0.030271 -0.027942 0.015813
v -0.030271 -0.028999 0.013770
v -0.030271 -0.029286 0.011418
v -0.030271 -0.028995 0.009065
v -0.030271 -0.027923 0.007028
v -0.030271 -0.026099 0.005574
v -0.030271 -0.023900 0.004638
v -0.030271 -0.021576 0.004024
v -0.030271 -0.019207 0.003608
v -0.030271 -0.016818 0.003317
v -0.030271 -0.014419 0.003115
v -0.030271 -0.012015 0.002984
v -0.030271 -0.009609 0.002902
v -0.030271 -0.007202 0.002851
v -0.030271 -0.004795 0.002832
v -0.030271 -0.002387 0.002821
v -0.030271 0.000020 0.002815
v -0.030271 0.002428 0.002821
v -0.030271 0.004835 0.002832
v -0.030271 0.007243 0.002852
v -0.030271 0.009650 0.002903
v -0.030271 0.012056 0.002986
v -0.030271 0.014459 0.003118
v -0.030271 0.016858 0.003322
v -0.030271 0.019247 0.003615
v -0.030271 0.021616 0.004035
v -0.030271 0.023939 0.004654
v -0.030271 0.026132 0.005599
v -0.030271 0.027942 0.007064
v -0.030271 0.028999 0.009107
v -0.026138 0.030216 0.013909
v -0.026138 0.030514 0.011453
v -0.026138 0.029113 0.016045
v -0.026138 0.027224 0.017576
v -0.026138 0.024937 0.018565
v -0.026138 0.022515 0.019215
v -0.026138 0.020044 0.019655
v -0.026138 0.017552 0.019963
v -0.026138 0.015049 0.020176
v -0.026138 0.012542 0.020314
v -0.026138 0.010032 0.020401
v -0.026138 0.007521 0.020454
v -0.026138 0.005009 0.020475
v -0.026138 0.002497 0.020486
v -0.026138 -0.000014 0.020493
v -0.026138 -0.002526 0.020486
v -0.026138 -0.005038 0.020475
v -0.026138 -0.007549 0.020454
v -0.026138 -0.010060 0.020400
v -0.026138 -0.012570 0.020313
v -0.026138 -0.015078 0.020174
v -0.026138 -0.017580 0.019959
v -0.026138 -0.020072 0.019651
v -0.026138 -0.022542 0.019208
v -0.026138 -0.024964 0.018555
v -0.026138 -0.027248 0.017560
v -0.026138 -0.029128 0.016020
v -0.026138 -0.030220 0.013880
v -0.026138 -0.030514 0.011424
v -0.026138 -0.030216 0.008967
v -0.026138 -0.029113 0.006832
v -0.026138 -0.027224 0.005300
v -0.026138 -0.024937 0.004312
v -0.026138 -0.022515 0.003662
v -0.026138 -0.020044 0.003221
v -0.026138 -0.017552 0.002914
v -0.026138 -0.015049 0.002701
v -0.026138 -0.012542 0.002563
v -0.026138 -0.010032 0.002476
v -0.026138 -0.007521 0.002423
v -0.026138 -0.005009 0.002402
v -0.026138 -0.002497 0.002390
v -0.026138 0.000014 0.002384
v -0.026138 0.002526 0.002391
v -0.026138 0.005038 0.002402
v -0.026138 0.007549 0.002423
v -0.026138 0.010060 0.002477
v -0.026138 0.012570 0.002564
v -0.026138 0.015078 0.002703
v -0.026138 0.017580 0.002917
v -0.026138 0.020072 0.003226
v -0.026138 0.022542 0.003669
v -0.026138 0.024964 0.004322
v -0.026138 0.027248 0.005317
v -0.026138 0.029128 0.006856
v -0.026138 0.030220 0.008996
v -0.022005 0.031034 0.013972
v -0.022005 0.031338 0.011447
v -0.022005 0.029908 0.016170
v -0.022005 0.027974 0.017750
v -0.022005 0.025626 0.018772
v -0.022005 0.023139 0.019443
v -0.022005 0.020600 0.019898
v -0.022005 0.018040 0.020216
v -0.022005 0.015469 0.020436
v -0.022005 0.012893 0.020578
v -0.022005 0.010314 0.020668
v -0.022005 0.007734 0.020723
v -0.022005 0.005153 0.020745
v -0.022005 0.002572 0.020756
v -0.022005 -0.000009 0.020763
v -0.022005 -0.002589 0.020756
v -0.022005 -0.005170 0.020745
v -0.022005 -0.007751 0.020723
v -0.022005 -0.010331 0.020668
v -0.022005 -0.012910 0.020578
v -0.022005 -0.015486 0.020435
v -0.022005 -0.018057 0.020214
v -0.022005 -0.020617 0.019896
v -0.022005 -0.023156 0.019439
v -0.022005 -0.025643 0.018766
v -0.022005 -0.027989 0.017742
v -0.022005 -0.029919 0.016157
v -0.022005 -0.031038 0.013955
v -0.022005 -0.031338 0.011430
v -0.022005 -0.031034 0.008905
v -0.022005 -0.029908 0.006707
v -0.022005 -0.027974 0.005126
v -0.022005 -0.025626 0.004105
v -0.022005 -0.023139 0.003434
v -0.022005 -0.020600 0.002979
v -0.022005 -0.018040 0.002661
v -0.022005 -0.015469 0.002441
v -0.022005 -0.012893 0.002298
v -0.022005 -0.010314 0.002209
v -0.022005 -0.007734 0.002154
v -0.022005 -0.005153 0.002132
v -0.022005 -0.002572 0.002120
v -0.022005 0.000009 0.002114
v -0.022005 0.002589 0.002120
v -0.022005 0.005170 0.002132
v -0.022005 0.007751 0.002154
v -0.022005 0.010331 0.002209
v -0.022005 0.012910 0.002299
v -0.022005 0.015486 0.002442
v -0.022005 0.018057 0.002663
v -0.022005 0.020617 0.002981
v -0.022005 0.023156 0.003437
v -0.022005 0.025643 0.004110
v -0.022005 0.027989 0.005135
v -0.022005 0.029919 0.006720
v -0.022005 0.031038 0.008922
v -0.017873 0.031462 0.014000
v -0.017873 0.031770 0.011442
v -0.017873 0.030320 0.016227
v -0.017873 0.028360 0.017829
v -0.017873 0.025981 0.018864
v -0.017873 0.023459 0.019544
v -0.017873 0.020886 0.020005
v -0.017873 0.018291 0.020326
v -0.017873 0.015685 0.020549
v -0.017873 0.013074 0.020694
v -0.017873 0.010460 0.020785
v -0.017873 0.007844 0.020841
v -0.017873 0.005229 0.020863
v -0.017873 0.002613 0.020874
v -0.017873 -0.000003 0.020881
v -0.017873 -0.002619 0.020874
v -0.017873 -0.005235 0.020863
v -0.017873 -0.007850 0.020841
v -0.017873 -0.010466 0.020785
v -0.017873 -0.013080 0.020694
v -0.017873 -0.015691 0.020549
v -0.017873 -0.018297 0.020326
v -0.017873 -0.020892 0.020004
v -0.017873 -0.023465 0.019543
v -0.017873 -0.025987 0.018863
v -0.017873 -0.028367 0.017828
v -0.017873 -0.030326 0.016224
v -0.017873 -0.031465 0.013995
v -0.017873 -0.031770 0.011435
v -0.017873 -0.031462 0.008877
v -0.017873 -0.030320 0.006650
v -0.017873 -0.028360 0.005048
v -0.017873 -0.025981 0.004013
v -0.017873 -0.023459 0.003333
v -0.017873 -0.020886 0.002872
v -0.017873 -0.018291 0.002550
v -0.017873 -0.015685 0.002327
v -0.017873 -0.013074 0.002183
v -0.017873 -0.010460 0.002092
v -0.017873 -0.007844 0.002036
v -0.017873 -0.005229 0.002014
v -0.017873 -0.002613 0.002002
v -0.017873 0.000003 0.001996
v -0.017873 0.002619 0.002002
v -0.017873 0.005235 0.002014
v -0.017873 0.007850 0.002036
v -0.017873 0.010466 0.002092
v -0.017873 0.013080 0.002183
v -0.017873 0.015691 0.002328
v -0.017873 0.018297 0.002551
v -0.017873 0.020892 0.002872
v -0.017873 0.023465 0.003334
v -0.017873 0.025987 0.004014
v -0.017873 0.028367 0.005049
v -0.017873 0.030326 0.006652
v -0.017873 0.031465 0.008882
v -0.013740 0.031510 0.013995
v -0.013740 0.031821 0.011436
v -0.013740 0.030361 0.016219
v -0.013740 0.028395 0.017816
v -0.013740 0.026011 0.018847
v -0.013740 0.023486 0.019523
v -0.013740 0.020910 0.019982
v -0.013740 0.018313 0.020302
v -0.013740 0.015704 0.020525
v -0.013740 0.013090 0.020669
v -0.013740 0.010474 0.020759
v -0.013740 0.007857 0.020815
v -0.013740 0.005239 0.020837
v -0.013740 0.002620 0.020848
v -0.013740 0.000002 0.020855
v -0.013740 -0.002616 0.020848
v -0.013740 -0.005234 0.020837
v -0.013740 -0.007852 0.020815
v -0.013740 -0.010469 0.020759
v -0.013740 -0.013086 0.020669
v -0.013740 -0.015700 0.020525
v -0.013740 -0.018308 0.020304
v -0.013740 -0.020906 0.019984
v -0.013740 -0.023481 0.019526
v -0.013740 -0.026007 0.018851
v -0.013740 -0.028393 0.017822
v -0.013740 -0.030363 0.016227
v -0.013740 -0.031512 0.014001
v -0.013740 -0.031821 0.011441
v -0.013740 -0.031510 0.008882
v -0.013740 -0.030361 0.006657
v -0.013740 -0.028395 0.005061
v -0.013740 -0.026011 0.004030
v -0.013740 -0.023486 0.003354
v -0.013740 -0.020910 0.002895
v -0.013740 -0.018313 0.002574
v -0.013740 -0.015704 0.002352
v -0.013740 -0.013090 0.002208
v -0.013740 -0.010474 0.002118
v -0.013740 -0.007857 0.002062
v -0.013740 -0.005239 0.002040
v -0.013740 -0.002620 0.002028
v -0.013740 -0.000002 0.002022
v -0.013740 0.002616 0.002028
v -0.013740 0.005234 0.002040
v -0.013740 0.007852 0.002062
v -0.013740 0.010469 0.002117
v -0.013740 0.013086 0.002208
v -0.013740 0.015700 0.002351
v -0.013740 0.018308 0.002573
v -0.013740 0.020906 0.002893
v -0.013740 0.023481 0.003351
v -0.013740 0.026007 0.004026
v -0.013740 0.028393 0.005055
v -0.013740 0.030363 0.006650
v -0.013740 0.031512 0.008876
v -0.009607 0.031190 0.013959
v -0.009607 0.031503 0.011431
v -0.009607 0.030043 0.016150
v -0.009607 0.028090 0.017717
v -0.009607 0.025729 0.018727
v -0.009607 0.023230 0.019388
v -0.009607 0.020682 0.019838
v -0.009607 0.018113 0.020151
v -0.009607 0.015534 0.020369
v -0.009607 0.012949 0.020511
v -0.009607 0.010362 0.020599
v -0.009607 0.007774 0.020654
v -0.009607 0.005185 0.020675
v -0.009607 0.002596 0.020687
v -0.009607 0.000008 0.020693
v -0.009607 -0.002581 0.020687
v -0.009607 -0.005170 0.020675
v -0.009607 -0.007759 0.020654
v -0.009607 -0.010347 0.020600
v -0.009607 -0.012934 0.020512
v -0.009607 -0.015519 0.020371
v -0.009607 -0.018098 0.020154
v -0.009607 -0.020667 0.019841
v -0.009607 -0.023215 0.019394
v -0.009607 -0.025715 0.018735
v -0.009607 -0.028079 0.017729
v -0.009607 -0.030040 0.016166
v -0.009607 -0.031191 0.013975
v -0.009607 -0.031503 0.011446
v -0.009607 -0.031190 0.008918
v -0.009607 -0.030043 0.006727
v -0.009607 -0.028090 0.005160
v -0.009607 -0.025729 0.004150
v -0.009607 -0.023230 0.003488
v -0.009607 -0.020682 0.003039
v -0.009607 -0.018113 0.002725
v -0.009607 -0.015534 0.002508
v -0.009607 -0.012949 0.002366
v -0.009607 -0.010362 0.002278
v -0.009607 -0.007774 0.002223
v -0.009607 -0.005185 0.002202
v -0.009607 -0.002596 0.002190
v -0.009607 -0.000008 0.002183
v -0.009607 0.002581 0.002190
v -0.009607 0.005170 0.002202
v -0.009607 0.007759 0.002223
v -0.009607 0.010347 0.002277
v -0.009607 0.012934 0.002365
v -0.009607 0.015519 0.002506
v -0.009607 0.018098 0.002723
v -0.009607 0.020667 0.003035
v -0.009607 0.023215 0.003483
v -0.009607 0.025715 0.004142
v -0.009607 0.028079 0.005148
v -0.009607 0.030040 0.006710
v -0.009607 0.031191 0.008902
v -0.005475 0.030514 0.013892
v -0.005475 0.030826 0.011426
v -0.005475 0.029379 0.016021
v -0.005475 0.027458 0.017536
v -0.005475 0.025145 0.018510
v -0.005475 0.022701 0.019146
v -0.005475 0.020211 0.019579
v -0.005475 0.017700 0.019881
v -0.005475 0.015181 0.020091
v -0.005475 0.012656 0.020228
v -0.005475 0.010128 0.020313
v -0.005475 0.007600 0.020365
v -0.005475 0.005071 0.020386
v -0.005475 0.002542 0.020397
v -0.005475 0.000012 0.020404
v -0.005475 -0.002517 0.020398
v -0.005475 -0.005046 0.020386
v -0.005475 -0.007575 0.020366
v -0.005475 -0.010103 0.020314
v -0.005475 -0.012631 0.020229
v -0.005475 -0.015156 0.020093
v -0.005475 -0.017676 0.019885
v -0.005475 -0.020186 0.019584
v -0.005475 -0.022677 0.019154
v -0.005475 -0.025122 0.018521
v -0.005475 -0.027439 0.017554
v -0.005475 -0.029370 0.016046
v -0.005475 -0.030514 0.013919
v -0.005475 -0.030826 0.011451
v -0.005475 -0.030514 0.008985
v -0.005475 -0.029379 0.006856
v -0.005475 -0.027458 0.005341
v -0.005475 -0.025145 0.004367
v -0.005475 -0.022701 0.003731
v -0.005475 -0.020211 0.003298
v -0.005475 -0.017700 0.002996
v -0.005475 -0.015181 0.002786
v -0.005475 -0.012656 0.002649
v -0.005475 -0.010128 0.002564
v -0.005475 -0.007600 0.002511
v -0.005475 -0.005071 0.002491
v -0.005475 -0.002542 0.002479
v -0.005475 -0.000012 0.002473
v -0.005475 0.002517 0.002479
v -0.005475 0.005046 0.002490
v -0.005475 0.007575 0.002511
v -0.005475 0.010103 0.002563
v -0.005475 0.012631 0.002648
v -0.005475 0.015156 0.002783
v -0.005475 0.017676 0.002992
v -0.005475 0.020186 0.003293
v -0.005475 0.022677 0.003723
v -0.005475 0.025122 0.004355
v -0.005475 0.027439 0.005323
v -0.005475 0.029370 0.006831
v -0.005475 0.030514 0.008958
v -0.001342 0.029495 0.013796
v -0.001342 0.029804 0.011421
v -0.001342 0.028379 0.015835
v -0.001342 0.026510 0.017277
v -0.001342 0.024271 0.018200
v -0.001342 0.021910 0.018802
v -0.001342 0.019506 0.019212
v -0.001342 0.017083 0.019499
v -0.001342 0.014652 0.019698
v -0.001342 0.012216 0.019828
v -0.001342 0.009777 0.019909
v -0.001342 0.007337 0.019958
v -0.001342 0.004897 0.019978
v -0.001342 0.002457 0.019989
v -0.001342 0.000017 0.019995
v -0.001342 -0.002423 0.019989
v -0.001342 -0.004863 0.019978
v -0.001342 -0.007303 0.019959
v -0.001342 -0.009742 0.019910
v -0.001342 -0.012181 0.019830
v -0.001342 -0.014617 0.019701
v -0.001342 -0.017049 0.019503
v -0.001342 -0.019472 0.019219
v -0.001342 -0.021876 0.018812
v -0.001342 -0.024239 0.018216
v -0.001342 -0.026483 0.017300
v -0.001342 -0.028366 0.015869
v -0.001342 -0.029493 0.013832
v -0.001342 -0.029804 0.011456
v -0.001342 -0.029495 0.009081
v -0.001342 -0.028379 0.007042
v -0.001342 -0.026510 0.005600
v -0.001342 -0.024271 0.004676
v -0.001342 -0.021910 0.004075
v -0.001342 -0.019506 0.003665
v -0.001342 -0.017083 0.003378
v -0.001342 -0.014652 0.003179
v -0.001342 -0.012216 0.003049
v -0.001342 -0.009777 0.002968
v -0.001342 -0.007337 0.002918
v -0.001342 -0.004897 0.002899
v -0.001342 -0.002457 0.002888
v -0.001342 -0.000017 0.002882
v -0.001342 0.002423 0.002888
v -0.001342 0.004863 0.002898
v -0.001342 0.007303 0.002918
v -0.001342 0.009742 0.002967
v -0.001342 0.012181 0.003047
v -0.001342 0.014617 0.003176
v -0.001342 0.017049 0.003373
v -0.001342 0.019472 0.003658
v -0.001342 0.021876 0.004064
v -0.001342 0.024239 0.004661
v -0.001342 0.026483 0.005576
v -0.001342 0.028366 0.007008
v -0.001342 0.029493 0.009045
v 0.002791 0.028142 0.013672
v 0.002791 0.028446 0.011416
v 0.002791 0.027057 0.015596
v 0.002791 0.025259 0.016944
v 0.002791 0.023119 0.017805
v 0.002791 0.020867 0.018364
v 0.002791 0.018576 0.018745
v 0.002791 0.016270 0.019012
v 0.002791 0.013955 0.019198
v 0.002791 0.011635 0.019319
v 0.002791 0.009313 0.019394
v 0.002791 0.006991 0.019441
v 0.002791 0.004668 0.019459
v 0.002791 0.002345 0.019469
v 0.002791 0.000022 0.019475
v 0.002791 -0.002301 0.019469
v 0.002791 -0.004624 0.019459
v 0.002791 -0.006947 0.019441
v 0.002791 -0.009270 0.019396
v 0.002791 -0.011591 0.019321
v 0.002791 -0.013911 0.019201
v 0.002791 -0.016226 0.019017
v 0.002791 -0.018533 0.018753
v 0.002791 -0.020824 0.018376
v 0.002791 -0.023078 0.017823
v 0.002791 -0.025224 0.016973
v 0.002791 -0.027038 0.015637
v 0.002791 -0.028139 0.013718
v 0.002791 -0.028446 0.011461
v 0.002791 -0.028142 0.009205
v 0.002791 -0.027057 0.007281
v 0.002791 -0.025259 0.005932
v 0.002791 -0.023119 0.005072
v 0.002791 -0.020867 0.004513
v 0.002791 -0.018576 0.004132
v 0.002791 -0.016270 0.003865
v 0.002791 -0.013955 0.003679
v 0.002791 -0.011635 0.003558
v 0.002791 -0.009313 0.003482
v 0.002791 -0.006991 0.003436
v 0.002791 -0.004668 0.003418
v 0.002791 -0.002345 0.003408
v 0.002791 -0.000022 0.003402
v 0.002791 0.002301 0.003407
v 0.002791 0.004624 0.003417
v 0.002791 0.006947 0.003435
v 0.002791 0.009270 0.003481
v 0.002791 0.011591 0.003555
v 0.002791 0.013911 0.003675
v 0.002791 0.016226 0.003859
v 0.002791 0.018533 0.004124
v 0.002791 0.020824 0.004501
v 0.002791 0.023078 0.005054
v 0.002791 0.025224 0.005904
v 0.002791 0.027038 0.007239
v 0.002791 0.028139 0.009159
v 0.006924 0.026469 0.013521
v 0.006924 0.026765 0.011411
v 0.006924 0.025424 0.015306
v 0.006924 0.023716 0.016543
v 0.006924 0.021699 0.017329
v 0.006924 0.019582 0.017837
v 0.006924 0.017432 0.018184
v 0.006924 0.015268 0.018428
v 0.006924 0.013096 0.018598
v 0.006924 0.010920 0.018709
v 0.006924 0.008742 0.018778
v 0.006924 0.006563 0.018820
v 0.006924 0.004384 0.018837
v 0.006924 0.002205 0.018846
v 0.006924 0.000026 0.018852
v 0.006924 -0.002153 0.018847
v 0.006924 -0.004332 0.018838
v 0.006924 -0.006511 0.018821
v 0.006924 -0.008689 0.018780
v 0.006924 -0.010867 0.018712
v 0.006924 -0.013043 0.018602
v 0.006924 -0.015216 0.018435
v 0.006924 -0.017381 0.018193
v 0.006924 -0.019531 0.017851
v 0.006924 -0.021649 0.017350
v 0.006924 -0.023673 0.016576
v 0.006924 -0.025400 0.015354
v 0.006924 -0.026464 0.013576
v 0.006924 -0.026765 0.011465
v 0.006924 -0.026469 0.009356
v 0.006924 -0.025424 0.007571
v 0.006924 -0.023716 0.006334
v 0.006924 -0.021699 0.005548
v 0.006924 -0.019582 0.005040
v 0.006924 -0.017432 0.004693
v 0.006924 -0.015268 0.004449
v 0.006924 -0.013096 0.004279
v 0.006924 -0.010920 0.004167
v 0.006924 -0.008742 0.004099
v 0.006924 -0.006563 0.004056
v 0.006924 -0.004384 0.004039
v 0.006924 -0.002205 0.004030
v 0.006924 -0.000026 0.004025
v 0.006924 0.002153 0.004030
v 0.006924 0.004332 0.004039
v 0.006924 0.006511 0.004056
v 0.006924 0.008689 0.004097
v 0.006924 0.010867 0.004165
v 0.006924 0.013043 0.004275
v 0.006924 0.015216 0.004442
v 0.006924 0.017381 0.004683
v 0.006924 0.019531 0.005026
v 0.006924 0.021649 0.005527
v 0.006924 0.023673 0.006301
v 0.006924 0.025400 0.007522
v 0.006924 0.026464 0.009301
v 0.011056 0.024486 0.013345
v 0.011056 0.024772 0.011407
v 0.011056 0.023492 0.014967
v 0.011056 0.021894 0.016076
v 0.011056 0.020024 0.016777
v 0.011056 0.018067 0.017228
v 0.011056 0.016083 0.017537
v 0.011056 0.014086 0.017755
v 0.011056 0.012082 0.017907
v 0.011056 0.010076 0.018007
v 0.011056 0.008067 0.018068
v 0.011056 0.006058 0.018106
v 0.011056 0.004049 0.018121
v 0.011056 0.002040 0.018129
v 0.011056 0.000030 0.018134
v 0.011056 -0.001979 0.018129
v 0.011056 -0.003988 0.018121
v 0.011056 -0.005998 0.018106
v 0.011056 -0.008007 0.018070
v 0.011056 -0.010015 0.018010
v 0.011056 -0.012022 0.017912
v 0.011056 -0.014025 0.017762
v 0.011056 -0.016023 0.017548
v 0.011056 -0.018008 0.017243
v 0.011056 -0.019966 0.016800
v 0.011056 -0.021843 0.016114
v 0.011056 -0.023463 0.015022
v 0.011056 -0.024480 0.013408
v 0.011056 -0.024772 0.011470
v 0.011056 -0.024486 0.009532
v 0.011056 -0.023492 0.007910
v 0.011056 -0.021894 0.006800
v 0.011056 -0.020024 0.006100
v 0.011056 -0.018067 0.005648
v 0.011056 -0.016083 0.005340
v 0.011056 -0.014086 0.005122
v 0.011056 -0.012082 0.004970
v 0.011056 -0.010076 0.004870
v 0.011056 -0.008067 0.004809
v 0.011056 -0.006058 0.004771
v 0.011056 -0.004049 0.004756
v 0.011056 -0.002040 0.004748
v 0.011056 -0.000030 0.004743
v 0.011056 0.001979 0.004747
v 0.011056 0.003988 0.004756
v 0.011056 0.005998 0.004770
v 0.011056 0.008007 0.004807
v 0.011056 0.010015 0.004867
v 0.011056 0.012022 0.004965
v 0.011056 0.014025 0.005115
v 0.011056 0.016023 0.005329
v 0.011056 0.018008 0.005633
v 0.011056 0.019966 0.006077
v 0.011056 0.021843 0.006763
v 0.011056 0.023463 0.007854
v 0.011056 0.024480 0.009468
v 0.015189 0.022206 0.013145
v 0.015189 0.022479 0.011403
v 0.015189 0.021274 0.014583
v 0.015189 0.019804 0.015549
v 0.015189 0.018103 0.016154
v 0.015189 0.016332 0.016544
v 0.015189 0.014537 0.016811
v 0.015189 0.012732 0.017000
v 0.015189 0.010922 0.017132
v 0.015189 0.009109 0.017219
v 0.015189 0.007295 0.017272
v 0.015189 0.005480 0.017305
v 0.015189 0.003665 0.017318
v 0.015189 0.001850 0.017325
v 0.015189 0.000034 0.017329
v 0.015189 -0.001781 0.017325
v 0.015189 -0.003596 0.017318
v 0.015189 -0.005411 0.017306
v 0.015189 -0.007226 0.017274
v 0.015189 -0.009040 0.017222
v 0.015189 -0.010853 0.017137
v 0.015189 -0.012664 0.017008
v 0.015189 -0.014469 0.016823
v 0.015189 -0.016264 0.016560
v 0.015189 -0.018037 0.016179
v 0.015189 -0.019746 0.015590
v 0.015189 -0.021239 0.014644
v 0.015189 -0.022198 0.013216
v 0.015189 -0.022479 0.011474
v 0.015189 -0.022206 0.009732
v 0.015189 -0.021274 0.008294
v 0.015189 -0.019804 0.007328
v 0.015189 -0.018103 0.006723
v 0.015189 -0.016332 0.006333
v 0.015189 -0.014537 0.006066
v 0.015189 -0.012732 0.005877
v 0.015189 -0.010922 0.005745
v 0.015189 -0.009109 0.005658
v 0.015189 -0.007295 0.005605
v 0.015189 -0.005480 0.005572
v 0.015189 -0.003665 0.005559
v 0.015189 -0.001850 0.005552
v 0.015189 -0.000034 0.005547
v 0.015189 0.001781 0.005551
v 0.015189 0.003596 0.005559
v 0.015189 0.005411 0.005571
v 0.015189 0.007226 0.005603
v 0.015189 0.009040 0.005655
v 0.015189 0.010853 0.005740
v 0.015189 0.012664 0.005869
v 0.015189 0.014469 0.006054
v 0.015189 0.016264 0.006317
v 0.015189 0.018037 0.006698
v 0.015189 0.019746 0.007287
v 0.015189 0.021239 0.008233
v 0.015189 0.022198 0.009660
v 0.019345 0.019656 0.012925
v 0.019345 0.019915 0.011402
v 0.019345 0.018795 0.014158
v 0.019345 0.017472 0.014967
v 0.019345 0.015960 0.015468
v 0.019345 0.014395 0.015793
v 0.019345 0.012812 0.016016
v 0.019345 0.011222 0.016173
v 0.019345 0.009626 0.016283
v 0.019345 0.008029 0.016357
v 0.019345 0.006431 0.016401
v 0.019345 0.004832 0.016428
v 0.019345 0.003233 0.016439
v 0.019345 0.001633 0.016445
v 0.019345 0.000034 0.016449
v 0.019345 -0.001565 0.016446
v 0.019345 -0.003164 0.016440
v 0.019345 -0.004763 0.016429
v 0.019345 -0.006362 0.016403
v 0.019345 -0.007961 0.016360
v 0.019345 -0.009558 0.016289
v 0.019345 -0.011154 0.016181
v 0.019345 -0.012745 0.016027
v 0.019345 -0.014328 0.015809
v 0.019345 -0.015895 0.015493
v 0.019345 -0.017413 0.015009
v 0.019345 -0.018760 0.014221
v 0.019345 -0.019649 0.012998
v 0.019345 -0.019915 0.011475
v 0.019345 -0.019656 0.009952
v 0.019345 -0.018795 0.008719
v 0.019345 -0.017472 0.007910
v 0.019345 -0.015960 0.007409
v 0.019345 -0.014395 0.007084
v 0.019345 -0.012812 0.006861
v 0.019345 -0.011222 0.006704
v 0.019345 -0.009626 0.006594
v 0.019345 -0.008029 0.006520
v 0.019345 -0.006431 0.006476
v 0.019345 -0.004832 0.006449
v 0.019345 -0.003233 0.006437
v 0.019345 -0.001633 0.006431
v 0.019345 -0.000034 0.006428
v 0.019345 0.001565 0.006431
v 0.019345 0.003164 0.006437
v 0.019345 0.004763 0.006448
v 0.019345 0.006362 0.006474
v 0.019345 0.007961 0.006517
v 0.019345 0.009558 0.006588
v 0.019345 0.011154 0.006695
v 0.019345 0.012745 0.006850
v 0.019345 0.014328 0.007068
v 0.019345 0.015895 0.007384
v 0.019345 0.017413 0.007868
v 0.019345 0.018760 0.008656
v 0.019345 0.019649 0.009878
v 0.023505 0.016836 0.012680
v 0.023505 0.017078 0.011398
v 0.023505 0.016058 0.013690
v 0.023505 0.014901 0.014333
v 0.023505 0.013601 0.014724
v 0.023505 0.012264 0.014979
v 0.023505 0.010915 0.015155
v 0.023505 0.009560 0.015280
v 0.023505 0.008201 0.015367
v 0.023505 0.006841 0.015426
v 0.023505 0.005481 0.015461
v 0.023505 0.004119 0.015482
v 0.023505 0.002758 0.015491
v 0.023505 0.001397 0.015496
v 0.023505 0.000035 0.015499
v 0.023505 -0.001326 0.015496
v 0.023505 -0.002687 0.015491
v 0.023505 -0.004048 0.015483
v 0.023505 -0.005410 0.015463
v 0.023505 -0.006770 0.015429
v 0.023505 -0.008131 0.015373
v 0.023505 -0.009489 0.015288
v 0.023505 -0.010845 0.015167
v 0.023505 -0.012195 0.014995
v 0.023505 -0.013532 0.014749
v 0.023505 -0.014837 0.014374
v 0.023505 -0.016019 0.013757
v 0.023505 -0.016828 0.012760
v 0.023505 -0.017078 0.011478
v 0.023505 -0.016836 0.010197
v 0.023505 -0.016058 0.009186
v 0.023505 -0.014901 0.008544
v 0.023505 -0.013601 0.008153
v 0.023505 -0.012264 0.007898
v 0.023505 -0.010915 0.007721
v 0.023505 -0.009560 0.007597
v 0.023505 -0.008201 0.007510
v 0.023505 -0.006841 0.007451
v 0.023505 -0.005481 0.007416
v 0.023505 -0.004119 0.007395
v 0.023505 -0.002758 0.007386
v 0.023505 -0.001397 0.007381
v 0.023505 -0.000035 0.007378
v 0.023505 0.001326 0.007381
v 0.023505 0.002687 0.007386
v 0.023505 0.004048 0.007394
v 0.023505 0.005410 0.007414
v 0.023505 0.006770 0.007448
v 0.023505 0.008131 0.007504
v 0.023505 0.009489 0.007589
v 0.023505 0.010845 0.007710
v 0.023505 0.012195 0.007881
v 0.023505 0.013532 0.008128
v 0.023505 0.014837 0.008503
v 0.023505 0.016019 0.009120
v 0.023505 0.016828 0.010116
v 0.026656 0.012903 0.012258
v 0.026656 0.013047 0.011280
v 0.026656 0.012327 0.013031
v 0.026656 0.011446 0.013516
v 0.026656 0.010454 0.013801
v 0.026656 0.009437 0.013987
v 0.026656 0.008412 0.014115
v 0.026656 0.007384 0.014206
v 0.026656 0.006353 0.014270
v 0.026656 0.005321 0.014314
v 0.026656 0.004288 0.014340
v 0.026656 0.003255 0.014356
v 0.026656 0.002222 0.014363
v 0.026656 0.001189 0.014366
v 0.026656 0.000156 0.014369
v 0.026656 -0.000877 0.014367
v 0.026656 -0.001910 0.014364
v 0.026656 -0.002943 0.014359
v 0.026656 -0.003976 0.014346
v 0.026656 -0.005009 0.014323
v 0.026656 -0.006041 0.014286
v 0.026656 -0.007072 0.014229
v 0.026656 -0.008102 0.014147
v 0.026656 -0.009128 0.014032
v 0.026656 -0.010147 0.013866
v 0.026656 -0.011148 0.013620
v 0.026656 -0.012081 0.013215
v 0.026656 -0.012781 0.012536
v 0.026656 -0.013047 0.011597
v 0.026656 -0.012903 0.010618
v 0.026656 -0.012327 0.009846
v 0.026656 -0.011446 0.009361
v 0.026656 -0.010454 0.009076
v 0.026656 -0.009437 0.008890
v 0.026656 -0.008412 0.008762
v 0.026656 -0.007384 0.008671
v 0.026656 -0.006353 0.008607
v 0.026656 -0.005321 0.008563
v 0.026656 -0.004288 0.008537
v 0.026656 -0.003255 0.008521
v 0.026656 -0.002222 0.008514
v 0.026656 -0.001189 0.008511
v 0.026656 -0.000156 0.008508
v 0.026656 0.000877 0.008509
v 0.026656 0.001910 0.008513
v 0.026656 0.002943 0.008518
v 0.026656 0.003976 0.008531
v 0.026656 0.005009 0.008553
v 0.026656 0.006041 0.008591
v 0.026656 0.007072 0.008648
v 0.026656 0.008102 0.008730
v 0.026656 0.009128 0.008845
v 0.026656 0.010147 0.009011
v 0.026656 0.011148 0.009257
v 0.026656 0.012081 0.009662
v 0.026656 0.012781 0.010341
v -0.051017 0.000000 0.011438
v 0.027670 0.000000 0.011438
f 1 2 3
f 4 1 3
f 5 1 4
f 6 5 4
f 7 5 6
f 8 7 6
f 9 7 8
f 10 9 8
f 11 9 10
f 12 11 10
f 13 11 12
f 14 13 12
f 15 13 14
f 16 15 14
f 17 15 16
f 18 17 16
f 19 17 18
f 20 19 18
f 21 19 20
f 22 21 20
f 23 21 22
f 24 23 22
f 25 23 24
f 26 25 24
f 27 25 26
f 28 27 26
f 29 27 28
f 30 29 28
f 31 29 30
f 32 31 30
f 33 31 32
f 34 33 32
f 35 33 34
f 36 35 34
f 37 35 36
f 38 37 36
f 39 37 38
f 40 39 38
f 41 39 40
f 42 41 40
f 43 41 42
f 44 43 42
f 45 43 44
f 46 45 44
f 47 45 46
f 48 47 46
f 49 47 48
f 50 49 48
f 51 49 50
f 52 51 50
f 53 51 52
f 54 53 52
f 55 53 54
f 56 55 54
f 57 55 56
f 58 57 56
f 59 57 58
f 60 59 58
f 61 59 60
f 62 61 60
f 63 61 62
f 64 63 62
f 65 63 64
f 66 65 64
f 67 65 66
f 68 67 66
f 69 67 68
f 70 69 68
f 71 69 70
f 72 71 70
f 73 71 72
f 74 73 72
f 75 73 74
f 76 75 74
f 77 75 76
f 78 77 76
f 79 77 78
f 80 79 78
f 81 79 80
f 82 81 80
f 83 81 82
f 84 83 82
f 85 83 84
f 86 85 84
f 87 85 86
f 88 87 86
f 89 87 88
f 90 89 88
f 91 89 90
f 92 91 90
f 93 91 92
f 94 93 92
f 95 93 94
f 96 95 94
f 97 95 96
f 98 97 96
f 99 97 98
f 100 99 98
f 101 99 100
f 102 101 100
f 103 101 102
f 104 103 102
f 105 103 104
f 106 105 104
f 107 105 106
f 108 107 106
f 109 107 108
f 110 109 108
f 111 109 110
f 112 111 110
f 2 111 112
f 3 2 112
f 113 114 2
f 1 113 2
f 115 113 1
f 5 115 1
f 116 115 5
f 7 116 5
f 117 116 7
f 9 117 7
f 118 117 9
f 11 118 9
f 119 118 11
f 13 119 11
f 120 119 13
f 15 120 13
f 121 120 15
f 17 121 15
f 122 121 17
f 19 122 17
f 123 122 19
f 21 123 19
f 124 123 21
f 23 124 21
f 125 124 23
f 25 125 23
f 126 125 25
f 27 126 25
f 127 126 27
f 29 127 27
f 128 127 29
f 31 128 29
f 129 128 31
f 33 129 31
f 130 129 33
f 35 130 33
f 131 130 35
f 37 131 35
f 132 131 37
f 39 132 37
f 133 132 39
f 41 133 39
f 134 133 41
f 43 134 41
f 135 134 43
f 45 135 43
f 136 135 45
f 47 136 45
f 137 136 47
f 49 137 47
f 138 137 49
f 51 138 49
f 139 138 51
f 53 139 51
f 140 139 53
f 55 140 53
f 141 140 55
f 57 141 55
f 142 141 57
f 59 142 57
f 143 142 59
f 61 143 59
f 144 143 61
f 63 144 61
f 145 144 63
f 65 145 63
f 146 145 65
f 67 146 65
f 147 146 67
f 69 147 67
f 148 147 69
f 71 148 69
f 149 148 71
f 73 149 71
f 150 149 73
f 75 150 73
f 151 150 75
f 77 151 75
f 152 151 77
f 79 152 77
f 153 152 79
f 81 153 79
f 154 153 81
f 83 154 81
f 155 154 83
f 85 155 83
f 156 155 85
f 87 156 85
f 157 156 87
f 89 157 87
f 158 157 89
f 91 158 89
f 159 158 91
f 93 159 91
f 160 159 93
f 95 160 93
f 161 160 95
f 97 161 95
f 162 161 97
f 99 162 97
f 163 162 99
f 101 163 99
f 164 163 101
f 103 164 101
f 165 164 103
f 105 165 103
f 166 165 105
f 107 166 105
f 167 166 107
f 109 167 107
f 168 167 109
f 111 168 109
f 114 168 111
f 2 114 111
f 169 170 114
f 113 169 114
f 171 169 113
f 115 171 113
f 172 171 115
f 116 172 115
f 173 172 116
f 117 173 116
f 174 173 117
f 118 174 117
f 175 174 118
f 119 175 118
f 176 175 119
f 120 176 119
f 177 176 120
f 121 177 120
f 178 177 121
f 122 178 121
f 179 178 122
f 123 179 122
f 180 179 123
f 124 180 123
f 181 180 124
f 125 181 124
f 182 181 125
f 126 182 125
f 183 182 126
f 127 183 126
f 184 183 127
f 128 184 127
f 185 184 128
f 129 185 128
f 186 185 129
f 130 186 129
f 187 186 130
f 131 187 130
f 188 187 131
f 132 188 131
f 189 188 132
f 133 189 132
f 190 189 133
f 134 190 133
f 191 190 134
f 135 191 134
f 192 191 135
f 136 192 135
f 193 192 136
f 137 193 136
f 194 193 137
f 138 194 137
f 195 194 138
f 139 195 138
f 196 195 139
f 140 196 139
f 197 196 140
f 141 197 140
f 198 197 141
f 142 198 141
f 199 198 142
f 143 199 142
f 200 199 143
f 144 200 143
f 201 200 144
f 145 201 144
f 202 201 145
f 146 202 145
f 203 202 146
f 147 203 146
f 204 203 147
f 148 204 147
f 205 204 148
f 149 205 148
f 206 205 149
f 150 206 149
f 207 206 150
f 151 207 150
f 208 207 151
f 152 208 151
f 209 208 152
f 153 209 152
f 210 209 153
f 154 210 153
f 211 210 154
f 155 211 154
f 212 211 155
f 156 212 155
f 213 212 156
f 157 213 156
f 214 213 157
f 158 214 157
f 215 214 158
f 159 215 158
f 216 215 159
f 160 216 159
f 217 216 160
f 161 217 160
f 218 217 161
f 162 218 161
f 219 218 162
f 163 219 162
f 220 219 163
f 164 220 163
f 221 220 164
f 165 221 164
f 222 221 165
f 166 222 165
f 223 222 166
f 167 223 166
f 224 223 167
f 168 224 167
f 170 224 168
f 114 170 168
f 225 226 170
f 169 225 170
f 227 225 169
f 171 227 169
f 228 227 171
f 172 228 171
f 229 228 172
f 173 229 172
f 230 229 173
f 174 230 173
f 231 230 174
f 175 231 174
f 232 231 175
f 176 232 175
f 233 232 176
f 177 233 176
f 234 233 177
f 178 234 177
f 235 234 178
f 179 235 178
f 236 235 179
f 180 236 179
f 237 236 180
f 181 237 180
f 238 237 181
f 182 238 181
f 239 238 182
f 183 239 182
f 240 239 183
f 184 240 183
f 241 240 184
f 185 241 184
f 242 241 185
f 186 242 185
f 243 242 186
f 187 243 186
f 244 243 187
f 188 244 187
f 245 244 188
f 189 245 188
f 246 245 189
f 190 246 189
f 247 246 190
f 191 247 190
f 248 247 191
f 192 248 191
f 249 248 192
f 193 249 192
f 250 249 193
f 194 250 193
f 251 250 194
f 195 251 194
f 252 251 195
f 196 252 195
f 253 252 196
f 197 253 196
f 254 253 197
f 198 254 197
f 255 254 198
f 199 255 198
f 256 255 199
f 200 256 199
f 257 256 200
f 201 257 200
f 258 257 201
f 202 258 201
f 259 258 202
f 203 259 202
f 260 259 203
f 204 260 203
f 261 260 204
f 205 261 204
f 262 261 205
f 206 262 205
f 263 262 206
f 207 263 206
f 264 263 207
f 208 264 207
f 265 264 208
f 209 265 208
f 266 265 209
f 210 266 209
f 267 266 210
f 211 267 210
f 268 267 211
f 212 268 211
f 269 268 212
f 213 269 212
f 270 269 213
f 214 270 213
f 271 270 214
f 215 271 214
f 272 271 215
f 216 272 215
f 273 272 216
f 217 273 216
f 274 273 217
f 218 274 217
f 275 274 218
f 219 275 218
f 276 275 219
f 220 276 219
f 277 276 220
f 221 277 220
f 278 277 221
f 222 278 221
f 279 278 222
f 223 279 222
f 280 279 223
f 224 280 223
f 226 280 224
f 170 226 224
f 281 282 226
f 225 281 226
f 283 281 225
f 227 283 225
f 284 283 227
f 228 284 227
f 285 284 228
f 229 285 228
f 286 285 229
f 230 286 229
f 287 286 230
f 231 287 230
f 288 287 231
f 232 288 231
f 289 288 232
f 233 289 232
f 290 289 233
f 234 290 233
f 291 290 234
f 235 291 234
f 292 291 235
f 236 292 235
f 293 292 236
f 237 293 236
f 294 293 237
f 238 294 237
f 295 294 238
f 239 295 238
f 296 295 239
f 240 296 239
f 297 296 240
f 241 297 240
f 298 297 241
f 242 298 241
f 299 298 242
f 243 299 242
f 300 299 243
f 244 300 243
f 301 300 244
f 245 301 244
f 302 301 245
f 246 302 245
f 303 302 246
f 247 303 246
f 304 303 247
f 248 304 247
f 305 304 248
f 249 305 248
f 306 305 249
f 250 306 249
f 307 306 250
f 251 307 250
f 308 307 251
f 252 308 251
f 309 308 252
f 253 309 252
f 310 309 253
f 254 310 253
f 311 310 254
f 255 311 254
f 312 311 255
f 256 312 255
f 313 312 256
f 257 313 256
f 314 313 257
f 258 314 257
f 315 314 258
f 259 315 258
f 316 315 259
f 260 316 259
f 317 316 260
f 261 317 260
f 318 317 261
f 262 318 261
f 319 318 262
f 263 319 262
f 320 319 263
f 264 320 263
f 321 320 264
f 265 321 264
f 322 321 265
f 266 322 265
f 323 322 266
f 267 323 266
f 324 323 267
f 268 324 267
f 325 324 268
f 269 325 268
f 326 325 269
f 270 326 269
f 327 326 270
f 271 327 270
f 328 327 271
f 272 328 271
f 329 328 272
f 273 329 272
f 330 329 273
f 274 330 273
f 331 330 274
f 275 331 274
f 332 331 275
f 276 332 275
f 333 332 276
f 277 333 276
f 334 333 277
f 278 334 277
f 335 334 278
f 279 335 278
f 336 335 279
f 280 336 279
f 282 336 280
f 226 282 280
f 337 338 282
f 281 337 282
f 339 337 281
f 283 339 281
f 340 339 283
f 284 340 283
f 341 340 284
f 285 341 284
f 342 341 285
f 286 342 285
f 343 342 286
f 287 343 286
f 344 343 287
f 288 344 287
f 345 344 288
f 289 345 288
f 346 345 289
f 290 346 289
f 347 346 290
f 291 347 290
f 348 347 291
f 292 348 291
f 349 348 292
f 293 349 292
f 350 349 293
f 294 350 293
f 351 350 294
f 295 351 294
f 352 351 295
f 296 352 295
f 353 352 296
f 297 353 296
f 354 353 297
f 298 354 297
f 355 354 298
f 299 355 298
f 356 355 299
f 300 356 299
f 357 356 300
f 301 357 300
f 358 357 301
f 302 358 301
f 359 358 302
f 303 359 302
f 360 359 303
f 304 360 303
f 361 360 304
f 305 361 304
f 362 361 305
f 306 362 305
f 363 362 306
f 307 363 306
f 364 363 307
f 308 364 307
f 365 364 308
f 309 365 308
f 366 365 309
f 310 366 309
f 367 366 310
f 311 367 310
f 368 367 311
f 312 368 311
f 369 368 312
f 313 369 312
f 370 369 313
f 314 370 313
f 371 370 314
f 315 371 314
f 372 371 315
f 316 372 315
f 373 372 316
f 317 373 316
f 374 373 317
f 318 374 317
f 375 374 318
f 319 375 318
f 376 375 319
f 320 376 319
f 377 376 320
f 321 377 320
f 378 377 321
f 322 378 321
f 379 378 322
f 323 379 322
f 380 379 323
f 324 380 323
f 381 380 324
f 325 381 324
f 382 381 325
f 326 382 325
f 383 382 326
f 327 383 326
f 384 383 327
f 328 384 327
f 385 384 328
f 329 385 328
f 386 385 329
f 330 386 329
f 387 386 330
f 331 387 330
f 388 387 331
f 332 388 331
f 389 388 332
f 333 389 332
f 390 389 333
f 334 390 333
f 391 390 334
f 335 391 334
f 392 391 335
f 336 392 335
f 338 392 336
f 282 338 336
f 393 394 338
f 337 393 338
f 395 393 337
f 339 395 337
f 396 395 339
f 340 396 339
f 397 396 340
f 341 397 340
f 398 397 341
f 342 398 341
f 399 398 342
f 343 399 342
f 400 399 343
f 344 400 343
f 401 400 344
f 345 401 344
f 402 401 345
f 346 402 345
f 403 402 346
f 347 403 346
f 404 403 347
f 348 404 347
f 405 404 348
f 349 405 348
f 406 405 349
f 350 406 349
f 407 406 350
f 351 407 350
f 408 407 351
f 352 408 351
f 409 408 352
f 353 409 352
f 410 409 353
f 354 410 353
f 411 410 354
f 355 411 354
f 412 411 355
f 356 412 355
f 413 412 356
f 357 413 356
f 414 413 357
f 358 414 357
f 415 414 358
f 359 415 358
f 416 415 359
f 360 416 359
f 417 416 360
f 361 417 360
f 418 417 361
f 362 418 361
f 419 418 362
f 363 419 362
f 420 419 363
f 364 420 363
f 421 420 364
f 365 421 364
f 422 421 365
f 366 422 365
f 423 422 366
f 367 423 366
f 424 423 367
f 368 424 367
f 425 424 368
f 369 425 368
f 426 425 369
f 370 426 369
f 427 426 370
f 371 427 370
f 428 427 371
f 372 428 371
f 429 428 372
f 373 429 372
f 430 429 373
f 374 430 373
f 431 430 374
f 375 431 374
f 432 431 375
f 376 432 375
f 433 432 376
f 377 433 376
f 434 433 377
f 378 434 377
f 435 434 378
f 379 435 378
f 436 435 379
f 380 436 379
f 437 436 380
f 381 437 380
f 438 437 381
f 382 438 381
f 439 438 382
f 383 439 382
f 440 439 383
f 384 440 383
f 441 440 384
f 385 441 384
f 442 441 385
f 386 442 385
f 443 442 386
f 387 443 386
f 444 443 387
f 388 444 387
f 445 444 388
f 389 445 388
f 446 445 389
f 390 446 389
f 447 446 390
f 391 447 390
f 448 447 391
f 392 448 391
f 394 448 392
f 338 394 392
f 449 450 394
f 393 449 394
f 451 449 393
f 395 451 393
f 452 451 395
f 396 452 395
f 453 452 396
f 397 453 396
f 454 453 397
f 398 454 397
f 455 454 398
f 399 455 398
f 456 455 399
f 400 456 399
f 457 456 400
f 401 457 400
f 458 457 401
f 402 458 401
f 459 458 402
f 403 459 402
f 460 459 403
f 404 460 403
f 461 460 404
f 405 461 404
f 462 461 405
f 406 462 405
f 463 462 406
f 407 463 406
f 464 463 407
f 408 464 407
f 465 464 408
f 409 465 408
f 466 465 409
f 410 466 409
f 467 466 410
f 411 467 410
f 468 467 411
f 412 468 411
f 469 468 412
f 413 469 412
f 470 469 413
f 414 470 413
f 471 470 414
f 415 471 414
f 472 471 415
f 416 472 415
f 473 472 416
f 417 473 416
f 474 473 417
f 418 474 417
f 475 474 418
f 419 475 418
f 476 475 419
f 420 476 419
f 477 476 420
f 421 477 420
f 478 477 421
f 422 478 421
f 479 478 422
f 423 479 422
f 480 479 423
f 424 480 423
f 481 480 424
f 425 481 424
f 482 481 425
f 426 482 425
f 483 482 426
f 427 483 426
f 484 483 427
f 428 484 427
f 485 484 428
f 429 485 428
f 486 485 429
f 430 486 429
f 487 486 430
f 431 487 430
f 488 487 431
f 432 488 431
f 489 488 432
f 433 489 432
f 490 489 433
f 434 490 433
f 491 490 434
f 435 491 434
f 492 491 435
f 436 492 435
f 493 492 436
f 437 493 436
f 494 493 437
f 438 494 437
f 495 494 438
f 439 495 438
f 496 495 439
f 440 496 439
f 497 496 440
f 441 497 440
f 498 497 441
f 442 498 441
f 499 498 442
f 443 499 442
f 500 499 443
f 444 500 443
f 501 500 444
f 445 501 444
f 502 501 445
f 446 502 445
f 503 502 446
f 447 503 446
f 504 503 447
f 448 504 447
f 450 504 448
f 394 450 448
f 505 506 450
f 449 505 450
f 507 505 449
f 451 507 449
f 508 507 451
f 452 508 451
f 509 508 452
f 453 509 452
f 510 509 453
f 454 510 453
f 511 510 454
f 455 511 454
f 512 511 455
f 456 512 455
f 513 512 456
f 457 513 456
f 514 513 457
f 458 514 457
f 515 514 458
f 459 515 458
f 516 515 459
f 460 516 459
f 517 516 460
f 461 517 460
f 518 517 461
f 462 518 461
f 519 518 462
f 463 519 462
f 520 519 463
f 464 520 463
f 521 520 464
f 465 521 464
f 522 521 465
f 466 522 465
f 523 522 466
f 467 523 466
f 524 523 467
f 468 524 467
f 525 524 468
f 469 525 468
f 526 525 469
f 470 526 469
f 527 526 470
f 471 527 470
f 528 527 471
f 472 528 471
f 529 528 472
f 473 529 472
f 530 529 473
f 474 530 473
f 531 530 474
f 475 531 474
f 532 531 475
f 476 532 475
f 533 532 476
f 477 533 476
f 534 533 477
f 478 534 477
f 535 534 478
f 479 535 478
f 536 535 479
f 480 536 479
f 537 536 480
f 481 537 480
f 538 537 481
f 482 538 481
f 539 538 482
f 483 539 482
f 540 539 483
f 484 540 483
f 541 540 484
f 485 541 484
f 542 541 485
f 486 542 485
f 543 542 486
f 487 543 486
f 544 543 487
f 488 544 487
f 545 544 488
f 489 545 488
f 546 545 489
f 490 546 489
f 547 546 490
f 491 547 490
f 548 547 491
f 492 548 491
f 549 548 492
f 493 549 492
f 550 549 493
f 494 550 493
f 551 550 494
f 495 551 494
f 552 551 495
f 496 552 495
f 553 552 496
f 497 553 496
f 554 553 497
f 498 554 497
f 555 554 498
f 499 555 498
f 556 555 499
f 500 556 499
f 557 556 500
f 501 557 500
f 558 557 501
f 502 558 501
f 559 558 502
f 503 559 502
f 560 559 503
f 504 560 503
f 506 560 504
f 450 506 504
f 561 562 506
f 505 561 506
f 563 561 505
f 507 563 505
f 564 563 507
f 508 564 507
f 565 564 508
f 509 565 508
f 566 565 509
f 510 566 509
f 567 566 510
f 511 567 510
f 568 567 511
f 512 568 511
f 569 568 512
f 513 569 512
f 570 569 513
f 514 570 513
f 571 570 514
f 515 571 514
f 572 571 515
f 516 572 515
f 573 572 516
f 517 573 516
f 574 573 517
f 518 574 517
f 575 574 518
f 519 575 518
f 576 575 519
f 520 576 519
f 577 576 520
f 521 577 520
f 578 577 521
f 522 578 521
f 579 578 522
f 523 579 522
f 580 579 523
f 524 580 523
f 581 580 524
f 525 581 524
f 582 581 525
f 526 582 525
f 583 582 526
f 527 583 526
f 584 583 527
f 528 584 527
f 585 584 528
f 529 585 528
f 586 585 529
f 530 586 529
f 587 586 530
f 531 587 530
f 588 587 531
f 532 588 531
f 589 588 532
f 533 589 532
f 590 589 533
f 534 590 533
f 591 590 534
f 535 591 534
f 592 591 535
f 536 592 535
f 593 592 536
f 537 593 536
f 594 593 537
f 538 594 537
f 595 594 538
f 539 595 538
f 596 595 539
f 540 596 539
f 597 596 540
f 541 597 540
f 598 597 541
f 542 598 541
f 599 598 542
f 543 599 542
f 600 599 543
f 544 600 543
f 601 600 544
f 545 601 544
f 602 601 545
f 546 602 545
f 603 602 546
f 547 603 546
f 604 603 547
f 548 604 547
f 605 604 548
f 549 605 548
f 606 605 549
f 550 606 549
f 607 606 550
f 551 607 550
f 608 607 551
f 552 608 551
f 609 608 552
f 553 609 552
f 610 609 553
f 554 610 553
f 611 610 554
f 555 611 554
f 612 611 555
f 556 612 555
f 613 612 556
f 557 613 556
f 614 613 557
f 558 614 557
f 615 614 558
f 559 615 558
f 616 615 559
f 560 616 559
f 562 616 560
f 506 562 560
f 617 618 562
f 561 617 562
f 619 617 561
f 563 619 561
f 620 619 563
f 564 620 563
f 621 620 564
f 565 621 564
f 622 621 565
f 566 622 565
f 623 622 566
f 567 623 566
f 624 623 567
f 568 624 567
f 625 624 568
f 569 625 568
f 626 625 569
f 570 626 569
f 627 626 570
f 571 627 570
f 628 627 571
f 572 628 571
f 629 628 572
f 573 629 572
f 630 629 573
f 574 630 573
f 631 630 574
f 575 631 574
f 632 631 575
f 576 632 575
f 633 632 576
f 577 633 576
f 634 633 577
f 578 634 577
f 635 634 578
f 579 635 578
f 636 635 579
f 580 636 579
f 637 636 580
f 581 637 580
f 638 637 581
f 582 638 581
f 639 638 582
f 583 639 582
f 640 639 583
f 584 640 583
f 641 640 584
f 585 641 584
f 642 641 585
f 586 642 585
f 643 642 586
f 587 643 586
f 644 643 587
f 588 644 587
f 645 644 588
f 589 645 588
f 646 645 589
f 590 646 589
f 647 646 590
f 591 647 590
f 648 647 591
f 592 648 591
f 649 648 592
f 593 649 592
f 650 649 593
f 594 650 593
f 651 650 594
f 595 651 594
f 652 651 595
f 596 652 595
f 653 652 596
f 597 653 596
f 654 653 597
f 598 654 597
f 655 654 598
f 599 655 598
f 656 655 599
f 600 656 599
f 657 656 600
f 601 657 600
f 658 657 601
f 602 658 601
f 659 658 602
f 603 659 602
f 660 659 603
f 604 660 603
f 661 660 604
f 605 661 604
f 662 661 605
f 606 662 605
f 663 662 606
f 607 663 606
f 664 663 607
f 608 664 607
f 665 664 608
f 609 665 608
f 666 665 609
f 610 666 609
f 667 666 610
f 611 667 610
f 668 667 611
f 612 668 611
f 669 668 612
f 613 669 612
f 670 669 613
f 614 670 613
f 671 670 614
f 615 671 614
f 672 671 615
f 616 672 615
f 618 672 616
f 562 618 616
f 673 674 618
f 617 673 618
f 675 673 617
f 619 675 617
f 676 675 619
f 620 676 619
f 677 676 620
f 621 677 620
f 678 677 621
f 622 678 621
f 679 678 622
f 623 679 622
f 680 679 623
f 624 680 623
f 681 680 624
f 625 681 624
f 682 681 625
f 626 682 625
f 683 682 626
f 627 683 626
f 684 683 627
f 628 684 627
f 685 684 628
f 629 685 628
f 686 685 629
f 630 686 629
f 687 686 630
f 631 687 630
f 688 687 631
f 632 688 631
f 689 688 632
f 633 689 632
f 690 689 633
f 634 690 633
f 691 690 634
f 635 691 634
f 692 691 635
f 636 692 635
f 693 692 636
f 637 693 636
f 694 693 637
f 638 694 637
f 695 694 638
f 639 695 638
f 696 695 639
f 640 696 639
f 697 696 640
f 641 697 640
f 698 697 641
f 642 698 641
f 699 698 642
f 643 699 642
f 700 699 643
f 644 700 643
f 701 700 644
f 645 701 644
f 702 701 645
f 646 702 645
f 703 702 646
f 647 703 646
f 704 703 647
f 648 704 647
f 705 704 648
f 649 705 648
f 706 705 649
f 650 706 649
f 707 706 650
f 651 707 650
f 708 707 651
f 652 708 651
f 709 708 652
f 653 709 652
f 710 709 653
f 654 710 653
f 711 710 654
f 655 711 654
f 712 711 655
f 656 712 655
f 713 712 656
f 657 713 656
f 714 713 657
f 658 714 657
f 715 714 658
f 659 715 658
f 716 715 659
f 660 716 659
f 717 716 660
f 661 717 660
f 718 717 661
f 662 718 661
f 719 718 662
f 663 719 662
f 720 719 663
f 664 720 663
f 721 720 664
f 665 721 664
f 722 721 665
f 666 722 665
f 723 722 666
f 667 723 666
f 724 723 667
f 668 724 667
f 725 724 668
f 669 725 668
f 726 725 669
f 670 726 669
f 727 726 670
f 671 727 670
f 728 727 671
f 672 728 671
f 674 728 672
f 618 674 672
f 729 730 674
f 673 729 674
f 731 729 673
f 675 731 673
f 732 731 675
f 676 732 675
f 733 732 676
f 677 733 676
f 734 733 677
f 678 734 677
f 735 734 678
f 679 735 678
f 736 735 679
f 680 736 679
f 737 736 680
f 681 737 680
f 738 737 681
f 682 738 681
f 739 738 682
f 683 739 682
f 740 739 683
f 684 740 683
f 741 740 684
f 685 741 684
f 742 741 685
f 686 742 685
f 743 742 686
f 687 743 686
f 744 743 687
f 688 744 687
f 745 744 688
f 689 745 688
f 746 745 689
f 690 746 689
f 747 746 690
f 691 747 690
f 748 747 691
f 692 748 691
f 749 748 692
f 693 749 692
f 750 749 693
f 694 750 693
f 751 750 694
f 695 751 694
f 752 751 695
f 696 752 695
f 753 752 696
f 697 753 696
f 754 753 697
f 698 754 697
f 755 754 698
f 699 755 698
f 756 755 699
f 700 756 699
f 757 756 700
f 701 757 700
f 758 757 701
f 702 758 701
f 759 758 702
f 703 759 702
f 760 759 703
f 704 760 703
f 761 760 704
f 705 761 704
f 762 761 705
f 706 762 705
f 763 762 706
f 707 763 706
f 764 763 707
f 708 764 707
f 765 764 708
f 709 765 708
f 766 765 709
f 710 766 709
f 767 766 710
f 711 767 710
f 768 767 711
f 712 768 711
f 769 768 712
f 713 769 712
f 770 769 713
f 714 770 713
f 771 770 714
f 715 771 714
f 772 771 715
f 716 772 715
f 773 772 716
f 717 773 716
f 774 773 717
f 718 774 717
f 775 774 718
f 719 775 718
f 776 775 719
f 720 776 719
f 777 776 720
f 721 777 720
f 778 777 721
f 722 778 721
f 779 778 722
f 723 779 722
f 780 779 723
f 724 780 723
f 781 780 724
f 725 781 724
f 782 781 725
f 726 782 725
f 783 782 726
f 727 783 726
f 784 783 727
f 728 784 727
f 730 784 728
f 674 730 728
f 785 786 730
f 729 785 730
f 787 785 729
f 731 787 729
f 788 787 731
f 732 788 731
f 789 788 732
f 733 789 732
f 790 789 733
f 734 790 733
f 791 790 734
f 735 791 734
f 792 791 735
f 736 792 735
f 793 792 736
f 737 793 736
f 794 793 737
f 738 794 737
f 795 794 738
f 739 795 738
f 796 795 739
f 740 796 739
f 797 796 740
f 741 797 740
f 798 797 741
f 742 798 741
f 799 798 742
f 743 799 742
f 800 799 743
f 744 800 743
f 801 800 744
f 745 801 744
f 802 801 745
f 746 802 745
f 803 802 746
f 747 803 746
f 804 803 747
f 748 804 747
f 805 804 748
f 749 805 748
f 806 805 749
f 750 806 749
f 807 806 750
f 751 807 750
f 808 807 751
f 752 808 751
f 809 808 752
f 753 809 752
f 810 809 753
f 754 810 753
f 811 810 754
f 755 811 754
f 812 811 755
f 756 812 755
f 813 812 756
f 757 813 756
f 814 813 757
f 758 814 757
f 815 814 758
f 759 815 758
f 816 815 759
f 760 816 759
f 817 816 760
f 761 817 760
f 818 817 761
f 762 818 761
f 819 818 762
f 763 819 762
f 820 819 763
f 764 820 763
f 821 820 764
f 765 821 764
f 822 821 765
f 766 822 765
f 823 822 766
f 767 823 766
f 824 823 767
f 768 824 767
f 825 824 768
f 769 825 768
f 826 825 769
f 770 826 769
f 827 826 770
f 771 827 770
f 828 827 771
f 772 828 771
f 829 828 772
f 773 829 772
f 830 829 773
f 774 830 773
f 831 830 774
f 775 831 774
f 832 831 775
f 776 832 775
f 833 832 776
f 777 833 776
f 834 833 777
f 778 834 777
f 835 834 778
f 779 835 778
f 836 835 779
f 780 836 779
f 837 836 780
f 781 837 780
f 838 837 781
f 782 838 781
f 839 838 782
f 783 839 782
f 840 839 783
f 784 840 783
f 786 840 784
f 730 786 784
f 841 842 786
f 785 841 786
f 843 841 785
f 787 843 785
f 844 843 787
f 788 844 787
f 845 844 788
f 789 845 788
f 846 845 789
f 790 846 789
f 847 846 790
f 791 847 790
f 848 847 791
f 792 848 791
f 849 848 792
f 793 849 792
f 850 849 793
f 794 850 793
f 851 850 794
f 795 851 794
f 852 851 795
f 796 852 795
f 853 852 796
f 797 853 796
f 854 853 797
f 798 854 797
f 855 854 798
f 799 855 798
f 856 855 799
f 800 856 799
f 857 856 800
f 801 857 800
f 858 857 801
f 802 858 801
f 859 858 802
f 803 859 802
f 860 859 803
f 804 860 803
f 861 860 804
f 805 861 804
f 862 861 805
f 806 862 805
f 863 862 806
f 807 863 806
f 864 863 807
f 808 864 807
f 865 864 808
f 809 865 808
f 866 865 809
f 810 866 809
f 867 866 810
f 811 867 810
f 868 867 811
f 812 868 811
f 869 868 812
f 813 869 812
f 870 869 813
f 814 870 813
f 871 870 814
f 815 871 814
f 872 871 815
f 816 872 815
f 873 872 816
f 817 873 816
f 874 873 817
f 818 874 817
f 875 874 818
f 819 875 818
f 876 875 819
f 820 876 819
f 877 876 820
f 821 877 820
f 878 877 821
f 822 878 821
f 879 878 822
f 823 879 822
f 880 879 823
f 824 880 823
f 881 880 824
f 825 881 824
f 882 881 825
f 826 882 825
f 883 882 826
f 827 883 826
f 884 883 827
f 828 884 827
f 885 884 828
f 829 885 828
f 886 885 829
f 830 886 829
f 887 886 830
f 831 887 830
f 888 887 831
f 832 888 831
f 889 888 832
f 833 889 832
f 890 889 833
f 834 890 833
f 891 890 834
f 835 891 834
f 892 891 835
f 836 892 835
f 893 892 836
f 837 893 836
f 894 893 837
f 838 894 837
f 895 894 838
f 839 895 838
f 896 895 839
f 840 896 839
f 842 896 840
f 786 842 840
f 897 898 842
f 841 897 842
f 899 897 841
f 843 899 841
f 900 899 843
f 844 900 843
f 901 900 844
f 845 901 844
f 902 901 845
f 846 902 845
f 903 902 846
f 847 903 846
f 904 903 847
f 848 904 847
f 905 904 848
f 849 905 848
f 906 905 849
f 850 906 849
f 907 906 850
f 851 907 850
f 908 907 851
f 852 908 851
f 909 908 852
f 853 909 852
f 910 909 853
f 854 910 853
f 911 910 854
f 855 911 854
f 912 911 855
f 856 912 855
f 913 912 856
f 857 913 856
f 914 913 857
f 858 914 857
f 915 914 858
f 859 915 858
f 916 915 859
f 860 916 859
f 917 916 860
f 861 917 860
f 918 917 861
f 862 918 861
f 919 918 862
f 863 919 862
f 920 919 863
f 864 920 863
f 921 920 864
f 865 921 864
f 922 921 865
f 866 922 865
f 923 922 866
f 867 923 866
f 924 923 867
f 868 924 867
f 925 924 868
f 869 925 868
f 926 925 869
f 870 926 869
f 927 926 870
f 871 927 870
f 928 927 871
f 872 928 871
f 929 928 872
f 873 929 872
f 930 929 873
f 874 930 873
f 931 930 874
f 875 931 874
f 932 931 875
f 876 932 875
f 933 932 876
f 877 933 876
f 934 933 877
f 878 934 877
f 935 934 878
f 879 935 878
f 936 935 879
f 880 936 879
f 937 936 880
f 881 937 880
f 938 937 881
f 882 938 881
f 939 938 882
f 883 939 882
f 940 939 883
f 884 940 883
f 941 940 884
f 885 941 884
f 942 941 885
f 886 942 885
f 943 942 886
f 887 943 886
f 944 943 887
f 888 944 887
f 945 944 888
f 889 945 888
f 946 945 889
f 890 946 889
f 947 946 890
f 891 947 890
f 948 947 891
f 892 948 891
f 949 948 892
f 893 949 892
f 950 949 893
f 894 950 893
f 951 950 894
f 895 951 894
f 952 951 895
f 896 952 895
f 898 952 896
f 842 898 896
f 953 954 898
f 897 953 898
f 955 953 897
f 899 955 897
f 956 955 899
f 900 956 899
f 957 956 900
f 901 957 900
f 958 957 901
f 902 958 901
f 959 958 902
f 903 959 902
f 960 959 903
f 904 960 903
f 961 960 904
f 905 961 904
f 962 961 905
f 906 962 905
f 963 962 906
f 907 963 906
f 964 963 907
f 908 964 907
f 965 964 908
f 909 965 908
f 966 965 909
f 910 966 909
f 967 966 910
f 911 967 910
f 968 967 911
f 912 968 911
f 969 968 912
f 913 969 912
f 970 969 913
f 914 970 913
f 971 970 914
f 915 971 914
f 972 971 915
f 916 972 915
f 973 972 916
f 917 973 916
f 974 973 917
f 918 974 917
f 975 974 918
f 919 975 918
f 976 975 919
f 920 976 919
f 977 976 920
f 921 977 920
f 978 977 921
f 922 978 921
f 979 978 922
f 923 979 922
f 980 979 923
f 924 980 923
f 981 980 924
f 925 981 924
f 982 981 925
f 926 982 925
f 983 982 926
f 927 983 926
f 984 983 927
f 928 984 927
f 985 984 928
f 929 985 928
f 986 985 929
f 930 986 929
f 987 986 930
f 931 987 930
f 988 987 931
f 932 988 931
f 989 988 932
f 933 989 932
f 990 989 933
f 934 990 933
f 991 990 934
f 935 991 934
f 992 991 935
f 936 992 935
f 993 992 936
f 937 993 936
f 994 993 937
f 938 994 937
f 995 994 938
f 939 995 938
f 996 995 939
f 940 996 939
f 997 996 940
f 941 997 940
f 998 997 941
f 942 998 941
f 999 998 942
f 943 999 942
f 1000 999 943
f 944 1000 943
f 1001 1000 944
f 945 1001 944
f 1002 1001 945
f 946 1002 945
f 1003 1002 946
f 947 1003 946
f 1004 1003 947
f 948 1004 947
f 1005 1004 948
f 949 1005 948
f 1006 1005 949
f 950 1006 949
f 1007 1006 950
f 951 1007 950
f 1008 1007 951
f 952 1008 951
f 954 1008 952
f 898 954 952
f 1009 1010 954
f 953 1009 954
f 1011 1009 953
f 955 1011 953
f 1012 1011 955
f 956 1012 955
f 1013 1012 956
f 957 1013 956
f 1014 1013 957
f 958 1014 957
f 1015 1014 958
f 959 1015 958
f 1016 1015 959
f 960 1016 959
f 1017 1016 960
f 961 1017 960
f 1018 1017 961
f 962 1018 961
f 1019 1018 962
f 963 1019 962
f 1020 1019 963
f 964 1020 963
f 1021 1020 964
f 965 1021 964
f 1022 1021 965
f 966 1022 965
f 1023 1022 966
f 967 1023 966
f 1024 1023 967
f 968 1024 967
f 1025 1024 968
f 969 1025 968
f 1026 1025 969
f 970 1026 969
f 1027 1026 970
f 971 1027 970
f 1028 1027 971
f 972 1028 971
f 1029 1028 972
f 973 1029 972
f 1030 1029 973
f 974 1030 973
f 1031 1030 974
f 975 1031 974
f 1032 1031 975
f 976 1032 975
f 1033 1032 976
f 977 1033 976
f 1034 1033 977
f 978 1034 977
f 1035 1034 978
f 979 1035 978
f 1036 1035 979
f 980 1036 979
f 1037 1036 980
f 981 1037 980
f 1038 1037 981
f 982 1038 981
f 1039 1038 982
f 983 1039 982
f 1040 1039 983
f 984 1040 983
f 1041 1040 984
f 985 1041 984
f 1042 1041 985
f 986 1042 985
f 1043 1042 986
f 987 1043 986
f 1044 1043 987
f 988 1044 987
f 1045 1044 988
f 989 1045 988
f 1046 1045 989
f 990 1046 989
f 1047 1046 990
f 991 1047 990
f 1048 1047 991
f 992 1048 991
f 1049 1048 992
f 993 1049 992
f 1050 1049 993
f 994 1050 993
f 1051 1050 994
f 995 1051 994
f 1052 1051 995
f 996 1052 995
f 1053 1052 996
f 997 1053 996
f 1054 1053 997
f 998 1054 997
f 1055 1054 998
f 999 1055 998
f 1056 1055 999
f 1000 1056 999
f 1057 1056 1000
f 1001 1057 1000
f 1058 1057 1001
f 1002 1058 1001
f 1059 1058 1002
f 1003 1059 1002
f 1060 1059 1003
f 1004 1060 1003
f 1061 1060 1004
f 1005 1061 1004
f 1062 1061 1005
f 1006 1062 1005
f 1063 1062 1006
f 1007 1063 1006
f 1064 1063 1007
f 1008 1064 1007
f 1010 1064 1008
f 954 1010 1008
f 1065 1066 1010
f 1009 1065 1010
f 1067 1065 1009
f 1011 1067 1009
f 1068 1067 1011
f 1012 1068 1011
f 1069 1068 1012
f 1013 1069 1012
f 1070 1069 1013
f 1014 1070 1013
f 1071 1070 1014
f 1015 1071 1014
f 1072 1071 1015
f 1016 1072 1015
f 1073 1072 1016
f 1017 1073 1016
f 1074 1073 1017
f 1018 1074 1017
f 1075 1074 1018
f 1019 1075 1018
f 1076 1075 1019
f 1020 1076 1019
f 1077 1076 1020
f 1021 1077 1020
f 1078 1077 1021
f 1022 1078 1021
f 1079 1078 1022
f 1023 1079 1022
f 1080 1079 1023
f 1024 1080 1023
f 1081 1080 1024
f 1025 1081 1024
f 1082 1081 1025
f 1026 1082 1025
f 1083 1082 1026
f 1027 1083 1026
f 1084 1083 1027
f 1028 1084 1027
f 1085 1084 1028
f 1029 1085 1028
f 1086 1085 1029
f 1030 1086 1029
f 1087 1086 1030
f 1031 1087 1030
f 1088 1087 1031
f 1032 1088 1031
f 1089 1088 1032
f 1033 1089 1032
f 1090 1089 1033
f 1034 1090 1033
f 1091 1090 1034
f 1035 1091 1034
f 1092 1091 1035
f 1036 1092 1035
f 1093 1092 1036
f 1037 1093 1036
f 1094 1093 1037
f 1038 1094 1037
f 1095 1094 1038
f 1039 1095 1038
f 1096 1095 1039
f 1040 1096 1039
f 1097 1096 1040
f 1041 1097 1040
f 1098 1097 1041
f 1042 1098 1041
f 1099 1098 1042
f 1043 1099 1042
f 1100 1099 1043
f 1044 1100 1043
f 1101 1100 1044
f 1045 1101 1044
f 1102 1101 1045
f 1046 1102 1045
f 1103 1102 1046
f 1047 1103 1046
f 1104 1103 1047
f 1048 1104 1047
f 1105 1104 1048
f 1049 1105 1048
f 1106 1105 1049
f 1050 1106 1049
f 1107 1106 1050
f 1051 1107 1050
f 1108 1107 1051
f 1052 1108 1051
f 1109 1108 1052
f 1053 1109 1052
f 1110 1109 1053
f 1054 1110 1053
f 1111 1110 1054
f 1055 1111 1054
f 1112 1111 1055
f 1056 1112 1055
f 1113 1112 1056
f 1057 1113 1056
f 1114 1113 1057
f 1058 1114 1057
f 1115 1114 1058
f 1059 1115 1058
f 1116 1115 1059
f 1060 1116 1059
f 1117 1116 1060
f 1061 1117 1060
f 1118 1117 1061
f 1062 1118 1061
f 1119 1118 1062
f 1063 1119 1062
f 1120 1119 1063
f 1064 1120 1063
f 1066 1120 1064
f 1010 1066 1064
f 4 3 1121
f 6 4 1121
f 8 6 1121
f 10 8 1121
f 12 10 1121
f 14 12 1121
f 16 14 1121
f 18 16 1121
f 20 18 1121
f 22 20 1121
f 24 22 1121
f 26 24 1121
f 28 26 1121
f 30 28 1121
f 32 30 1121
f 34 32 1121
f 36 34 1121
f 38 36 1121
f 40 38 1121
f 42 40 1121
f 44 42 1121
f 46 44 1121
f 48 46 1121
f 50 48 1121
f 52 50 1121
f 54 52 1121
f 56 54 1121
f 58 56 1121
f 60 58 1121
f 62 60 1121
f 64 62 1121
f 66 64 1121
f 68 66 1121
f 70 68 1121
f 72 70 1121
f 74 72 1121
f 76 74 1121
f 78 76 1121
f 80 78 1121
f 82 80 1121
f 84 82 1121
f 86 84 1121
f 88 86 1121
f 90 88 1121
f 92 90 1121
f 94 92 1121
f 96 94 1121
f 98 96 1121
f 100 98 1121
f 102 100 1121
f 104 102 1121
f 106 104 1121
f 108 106 1121
f 110 108 1121
f 112 110 1121
f 3 112 1121
f 1122 1066 1065
f 1122 1065 1067
f 1122 1067 1068
f 1122 1068 1069
f 1122 1069 1070
f 1122 1070 1071
f 1122 1071 1072
f 1122 1072 1073
f 1122 1073 1074
f 1122 1074 1075
f 1122 1075 1076
f 1122 1076 1077
f 1122 1077 1078
f 1122 1078 1079
f 1122 1079 1080
f 1122 1080 1081
f 1122 1081 1082
f 1122 1082 1083
f 1122 1083 1084
f 1122 1084 1085
f 1122 1085 1086
f 1122 1086 1087
f 1122 1087 1088
f 1122 1088 1089
f 1122 1089 1090
f 1122 1090 1091
f 1122 1091 1092
f 1122 1092 1093
f 1122 1093 1094
f 1122 1094 1095
f 1122 1095 1096
f 1122 1096 1097
f 1122 1097 1098
f 1122 1098 1099
f 1122 1099 1100
f 1122 1100 1101
f 1122 1101 1102
f 1122 1102 1103
f 1122 1103 1104
f 1122 1104 1105
f 1122 1105 1106
f 1122 1106 1107
f 1122 1107 1108
f 1122 1108 1109
f 1122 1109 1110
f 1122 1110 1111
f 1122 1111 1112
f 1122 1112 1113
f 1122 1113 1114
f 1122 1114 1115
f 1122 1115 1116
f 1122 1116 1117
f 1122 1117 1118
f 1122 1118 1119
f 1122 1119 1120
f 1122 1120 1066
