# sionna2 mesh — mini2__camera.obj
# group=camera  verts=153  tris=294
v 0.020680 0.016120 -0.014618
v 0.044743 0.009994 -0.014618
v 0.020680 0.009994 -0.014618
v 0.020680 0.016120 0.007351
v 0.020680 0.009994 0.007351
v 0.044743 0.016120 0.007351
v 0.044743 0.016120 -0.014618
v 0.044743 0.009994 0.007351
v 0.020680 -0.016120 -0.014618
v 0.020680 -0.009994 -0.014618
v 0.044743 -0.016120 -0.014618
v 0.020680 -0.016120 0.007351
v 0.020680 -0.009994 0.007351
v 0.044743 -0.009994 -0.014618
v 0.044743 -0.016120 0.007351
v 0.044743 -0.009994 0.007351
v 0.019840 -0.009994 -0.015839
v 0.019840 -0.009994 0.008572
v 0.019840 -0.006770 0.004788
v 0.019840 0.009994 -0.015839
v 0.047820 -0.009994 -0.015839
v 0.019840 0.006770 0.004788
v 0.047820 -0.006770 -0.011689
v 0.047820 -0.009994 0.008572
v 0.047820 0.006770 -0.011689
v 0.047820 -0.006770 0.004422
v 0.019840 -0.006770 0.008572
v 0.034950 -0.006770 0.008572
v 0.034950 0.006770 0.008572
v 0.047820 0.009994 0.008572
v 0.019840 0.009994 0.008572
v 0.047820 0.009994 -0.015839
v 0.047820 0.006770 0.004422
v 0.019840 0.006770 0.008572
v 0.055375 -0.006770 -0.011689
v 0.055375 -0.004482 -0.008121
v 0.055375 -0.005490 -0.006807
v 0.055375 -0.003169 -0.009130
v 0.055375 0.000000 -0.009980
v 0.055375 -0.001641 -0.009764
v 0.055375 0.001641 -0.009764
v 0.055375 -0.006123 -0.005276
v 0.055375 -0.006770 0.004422
v 0.055375 -0.006339 -0.003633
v 0.055375 -0.006123 -0.001991
v 0.055375 -0.005490 -0.000460
v 0.055375 -0.004482 0.000854
v 0.055375 -0.003169 0.001863
v 0.055375 -0.001641 0.002497
v 0.055375 0.006770 0.004422
v 0.055375 0.006770 -0.011689
v 0.055375 0.003169 -0.009130
v 0.055375 0.004482 -0.008121
v 0.055375 0.005490 -0.006807
v 0.055375 0.006123 -0.005276
v 0.055375 0.006339 -0.003633
v 0.055375 0.006123 -0.001991
v 0.055375 0.005490 -0.000460
v 0.055375 0.000000 0.002713
v 0.055375 0.001641 0.002497
v 0.055375 0.003169 0.001863
v 0.055375 0.004482 0.000854
v 0.058733 -0.004482 -0.008121
v 0.058733 -0.003169 -0.009130
v 0.058733 -0.001641 -0.009764
v 0.058733 0.000000 -0.009980
v 0.058733 -0.006339 -0.003633
v 0.058733 -0.006123 -0.005276
v 0.058733 -0.005490 -0.006807
v 0.058733 0.000000 -0.003633
v 0.058733 -0.006123 -0.001991
v 0.058733 -0.005490 -0.000460
v 0.058733 -0.004482 0.000854
v 0.058733 -0.003169 0.001863
v 0.058733 -0.001641 0.002497
v 0.058733 0.000000 0.002713
v 0.058733 0.001641 -0.009764
v 0.058733 0.003169 -0.009130
v 0.058733 0.004482 -0.008121
v 0.058733 0.005490 -0.006807
v 0.058733 0.006123 -0.005276
v 0.058733 0.001641 0.002497
v 0.058733 0.003169 0.001863
v 0.058733 0.006123 -0.001991
v 0.058733 0.005490 -0.000460
v 0.058733 0.004482 0.000854
v 0.058733 0.006339 -0.003633
v 0.018162 -0.006770 0.004788
v 0.018162 0.006770 0.004788
v 0.018162 -0.006770 0.018214
v 0.018162 0.006770 0.018214
v 0.034950 -0.006770 0.018214
v 0.034950 0.006770 0.018214
v -0.041611 -0.010320 -0.016805
v -0.040187 -0.010320 -0.016805
v -0.041611 -0.010320 -0.012800
v -0.038904 -0.009702 -0.016805
v -0.040187 -0.010320 -0.012800
v -0.042894 -0.009702 -0.012800
v -0.042894 -0.009702 -0.016805
v -0.040899 -0.007200 -0.016805
v -0.043782 -0.008588 -0.016805
v -0.043782 -0.008588 -0.012800
v -0.038016 -0.008588 -0.016805
v -0.038904 -0.009702 -0.012800
v -0.037699 -0.007200 -0.016805
v -0.038016 -0.008588 -0.012800
v -0.040899 -0.007200 -0.012800
v -0.044099 -0.007200 -0.012800
v -0.044099 -0.007200 -0.016805
v -0.043782 -0.005812 -0.016805
v -0.043782 -0.005812 -0.012800
v -0.038016 -0.005812 -0.016805
v -0.037699 -0.007200 -0.012800
v -0.038016 -0.005812 -0.012800
v -0.042894 -0.004698 -0.016805
v -0.041611 -0.004080 -0.016805
v -0.040187 -0.004080 -0.016805
v -0.042894 -0.004698 -0.012800
v -0.041611 -0.004080 -0.012800
v -0.038904 -0.004698 -0.016805
v -0.040187 -0.004080 -0.012800
v -0.038904 -0.004698 -0.012800
v -0.042894 0.004698 -0.016805
v -0.041611 0.004080 -0.016805
v -0.042894 0.004698 -0.012800
v -0.040187 0.004080 -0.016805
v -0.041611 0.004080 -0.012800
v -0.043782 0.005812 -0.016805
v -0.040899 0.007200 -0.016805
v -0.043782 0.005812 -0.012800
v -0.038904 0.004698 -0.016805
v -0.040187 0.004080 -0.012800
v -0.038016 0.005812 -0.016805
v -0.038904 0.004698 -0.012800
v -0.040899 0.007200 -0.012800
v -0.038016 0.005812 -0.012800
v -0.044099 0.007200 -0.016805
v -0.044099 0.007200 -0.012800
v -0.043782 0.008588 -0.016805
v -0.037699 0.007200 -0.016805
v -0.038016 0.008588 -0.016805
v -0.037699 0.007200 -0.012800
v -0.043782 0.008588 -0.012800
v -0.038016 0.008588 -0.012800
v -0.042894 0.009702 -0.016805
v -0.041611 0.010320 -0.016805
v -0.040187 0.010320 -0.016805
v -0.042894 0.009702 -0.012800
v -0.038904 0.009702 -0.016805
v -0.038904 0.009702 -0.012800
v -0.041611 0.010320 -0.012800
v -0.040187 0.010320 -0.012800
f 1 2 3
f 4 3 5
f 1 3 4
f 1 4 6
f 1 7 2
f 7 8 2
f 1 6 7
f 7 6 8
f 4 5 6
f 6 5 8
f 9 10 11
f 9 11 12
f 9 12 13
f 9 13 10
f 11 10 14
f 11 14 15
f 11 15 12
f 15 14 16
f 12 16 13
f 12 15 16
f 17 14 10
f 17 13 18
f 17 18 19
f 17 10 13
f 17 20 21
f 17 19 22
f 17 21 14
f 21 16 14
f 21 23 24
f 21 24 16
f 21 25 23
f 24 23 26
f 18 13 16
f 18 27 19
f 18 28 27
f 18 24 28
f 18 16 24
f 24 29 28
f 24 26 30
f 17 31 20
f 17 22 31
f 20 3 2
f 20 31 3
f 31 5 3
f 20 32 21
f 21 32 25
f 32 33 25
f 20 2 32
f 30 2 8
f 32 2 30
f 32 30 33
f 31 22 34
f 31 34 29
f 31 8 5
f 24 30 29
f 30 26 33
f 31 29 30
f 31 30 8
f 35 36 37
f 35 38 36
f 35 23 25
f 35 39 40
f 35 40 38
f 35 41 39
f 35 37 42
f 35 43 23
f 35 42 44
f 43 26 23
f 35 44 43
f 44 45 43
f 45 46 43
f 46 47 43
f 43 47 48
f 43 48 49
f 43 50 26
f 43 49 50
f 35 51 41
f 35 25 51
f 41 51 52
f 52 51 53
f 53 51 54
f 51 25 33
f 51 55 54
f 51 56 55
f 51 50 56
f 51 33 50
f 56 50 57
f 58 57 50
f 50 33 26
f 49 59 50
f 59 60 50
f 60 61 50
f 61 62 50
f 58 50 62
f 36 38 63
f 63 38 64
f 38 40 64
f 64 40 65
f 40 39 65
f 65 39 66
f 42 67 44
f 42 68 67
f 36 69 37
f 68 37 69
f 36 63 69
f 42 37 68
f 68 70 67
f 44 67 71
f 44 71 45
f 67 70 71
f 45 72 46
f 45 71 72
f 46 72 73
f 46 73 47
f 63 70 69
f 63 64 70
f 68 69 70
f 64 65 70
f 65 66 70
f 71 70 72
f 72 70 73
f 73 70 74
f 74 70 75
f 75 70 76
f 47 73 74
f 47 74 48
f 48 75 49
f 48 74 75
f 49 75 76
f 49 76 59
f 39 41 66
f 41 77 66
f 41 52 77
f 77 52 78
f 52 53 78
f 78 53 79
f 66 77 70
f 77 78 70
f 78 79 70
f 79 80 70
f 70 80 81
f 70 82 76
f 70 83 82
f 70 84 85
f 70 86 83
f 70 85 86
f 53 54 79
f 79 54 80
f 54 55 80
f 70 81 87
f 80 55 81
f 55 56 81
f 81 56 87
f 70 87 84
f 85 62 86
f 58 84 57
f 58 85 84
f 58 62 85
f 56 57 87
f 57 84 87
f 59 76 82
f 59 82 60
f 60 83 61
f 60 82 83
f 61 83 86
f 61 86 62
f 88 19 27
f 88 89 19
f 88 27 90
f 88 90 91
f 90 27 28
f 90 28 92
f 90 92 93
f 92 28 29
f 89 22 19
f 88 91 89
f 89 34 22
f 89 91 34
f 90 93 91
f 93 29 34
f 91 93 34
f 92 29 93
f 94 95 96
f 95 97 98
f 94 96 99
f 95 98 96
f 94 100 101
f 94 101 95
f 94 99 100
f 100 102 101
f 100 103 102
f 95 101 97
f 97 104 105
f 97 101 104
f 104 106 107
f 100 99 103
f 96 108 99
f 96 98 108
f 102 103 109
f 99 108 103
f 98 97 105
f 98 105 108
f 104 107 105
f 105 107 108
f 102 110 101
f 102 109 110
f 110 111 101
f 110 112 111
f 104 101 106
f 101 113 106
f 106 113 114
f 103 108 109
f 110 109 112
f 109 108 112
f 107 106 114
f 107 114 108
f 114 113 115
f 108 114 115
f 101 111 116
f 101 116 117
f 101 117 118
f 111 119 116
f 116 120 117
f 101 118 121
f 101 121 113
f 113 121 115
f 117 122 118
f 118 123 121
f 111 112 119
f 108 119 112
f 108 120 119
f 108 122 120
f 116 119 120
f 117 120 122
f 121 123 115
f 108 123 122
f 108 115 123
f 118 122 123
f 124 125 126
f 125 127 128
f 124 129 130
f 124 130 125
f 125 130 127
f 124 131 129
f 127 132 133
f 127 130 132
f 132 130 134
f 132 134 135
f 125 128 126
f 124 126 131
f 126 136 131
f 126 128 136
f 128 133 136
f 127 133 128
f 132 135 133
f 134 137 135
f 133 135 136
f 135 137 136
f 129 138 130
f 129 139 138
f 138 140 130
f 134 130 141
f 134 141 137
f 130 142 141
f 141 142 143
f 129 131 139
f 131 136 139
f 138 139 144
f 139 136 144
f 137 141 143
f 137 143 136
f 136 143 145
f 130 140 146
f 138 144 140
f 130 146 147
f 130 147 148
f 140 149 146
f 130 150 142
f 142 150 145
f 130 148 150
f 150 148 151
f 140 144 149
f 136 149 144
f 146 149 152
f 136 152 149
f 136 153 152
f 143 142 145
f 136 145 151
f 150 151 145
f 136 151 153
f 146 152 147
f 147 153 148
f 147 152 153
f 151 148 153
