# sionna2 mesh — mini2__motor.obj
# group=motor  verts=1132  tris=2248
v 0.035510 0.086231 0.022548
v 0.035372 0.087811 0.022548
v 0.035918 0.087811 0.020202
v 0.040638 0.084594 0.018638
v 0.039453 0.083599 0.019349
v 0.040137 0.085308 0.018638
v 0.038798 0.084535 0.019349
v 0.040260 0.082792 0.019349
v 0.037064 0.083534 0.020202
v 0.036434 0.084885 0.020202
v 0.038315 0.085570 0.019349
v 0.038973 0.081258 0.020202
v 0.040195 0.080403 0.020202
v 0.037919 0.082312 0.020202
v 0.041255 0.083977 0.018638
v 0.041969 0.083476 0.018638
v 0.041196 0.082137 0.019349
v 0.042760 0.083108 0.018638
v 0.042231 0.081654 0.019349
v 0.043603 0.082882 0.018638
v 0.043334 0.081358 0.019349
v 0.044472 0.082806 0.018638
v 0.044472 0.081259 0.019349
v 0.044472 0.087811 0.018638
v 0.041546 0.079773 0.020202
v 0.042986 0.079387 0.020202
v 0.044472 0.079257 0.020202
v 0.036591 0.083261 0.022548
v 0.037501 0.081961 0.022548
v 0.038622 0.080840 0.022548
v 0.039922 0.079930 0.022548
v 0.035921 0.084698 0.022548
v 0.041359 0.079259 0.022548
v 0.042892 0.078849 0.022548
v 0.044472 0.078711 0.022548
v 0.039769 0.086099 0.018638
v 0.039543 0.086942 0.018638
v 0.038019 0.086673 0.019349
v 0.039467 0.087811 0.018638
v 0.037920 0.087811 0.019349
v 0.039543 0.088680 0.018638
v 0.038019 0.088948 0.019349
v 0.039769 0.089523 0.018638
v 0.038315 0.090052 0.019349
v 0.040137 0.090313 0.018638
v 0.038798 0.091087 0.019349
v 0.040638 0.091028 0.018638
v 0.036048 0.086325 0.020202
v 0.036048 0.089296 0.020202
v 0.036434 0.090736 0.020202
v 0.039453 0.092022 0.019349
v 0.037064 0.092088 0.020202
v 0.037919 0.093309 0.020202
v 0.040260 0.092830 0.019349
v 0.038973 0.094363 0.020202
v 0.040195 0.095219 0.020202
v 0.041196 0.093485 0.019349
v 0.041255 0.091645 0.018638
v 0.041969 0.092145 0.018638
v 0.042760 0.092514 0.018638
v 0.042231 0.093968 0.019349
v 0.043603 0.092740 0.018638
v 0.044472 0.092816 0.018638
v 0.043334 0.094263 0.019349
v 0.044472 0.094363 0.019349
v 0.041546 0.095849 0.020202
v 0.042986 0.096235 0.020202
v 0.044472 0.096365 0.020202
v 0.035510 0.089391 0.022548
v 0.035921 0.090923 0.022548
v 0.036591 0.092361 0.022548
v 0.037501 0.093660 0.022548
v 0.038622 0.094782 0.022548
v 0.039922 0.095692 0.022548
v 0.041359 0.096362 0.022548
v 0.042892 0.096772 0.022548
v 0.044472 0.096911 0.022548
v 0.045341 0.082882 0.018638
v 0.045610 0.081358 0.019349
v 0.046184 0.083108 0.018638
v 0.046713 0.081654 0.019349
v 0.046974 0.083476 0.018638
v 0.047748 0.082137 0.019349
v 0.047689 0.083977 0.018638
v 0.048683 0.082792 0.019349
v 0.048306 0.084594 0.018638
v 0.049491 0.083599 0.019349
v 0.045957 0.079387 0.020202
v 0.047397 0.079773 0.020202
v 0.048749 0.080403 0.020202
v 0.049970 0.081258 0.020202
v 0.050146 0.084535 0.019349
v 0.051025 0.082312 0.020202
v 0.051880 0.083534 0.020202
v 0.052510 0.084885 0.020202
v 0.046052 0.078849 0.022548
v 0.047584 0.079259 0.022548
v 0.049022 0.079930 0.022548
v 0.050321 0.080840 0.022548
v 0.051443 0.081961 0.022548
v 0.052353 0.083261 0.022548
v 0.053023 0.084698 0.022548
v 0.046184 0.092514 0.018638
v 0.046974 0.092145 0.018638
v 0.047689 0.091645 0.018638
v 0.048306 0.091028 0.018638
v 0.048806 0.085308 0.018638
v 0.049175 0.086099 0.018638
v 0.049401 0.086942 0.018638
v 0.049477 0.087811 0.018638
v 0.049401 0.088680 0.018638
v 0.049175 0.089523 0.018638
v 0.048806 0.090313 0.018638
v 0.045341 0.092740 0.018638
v 0.045610 0.094263 0.019349
v 0.046713 0.093968 0.019349
v 0.047748 0.093485 0.019349
v 0.048683 0.092830 0.019349
v 0.049491 0.092022 0.019349
v 0.045957 0.096235 0.020202
v 0.047397 0.095849 0.020202
v 0.048749 0.095219 0.020202
v 0.050629 0.085570 0.019349
v 0.050924 0.086673 0.019349
v 0.051024 0.087811 0.019349
v 0.050924 0.088948 0.019349
v 0.050146 0.091087 0.019349
v 0.050629 0.090052 0.019349
v 0.052896 0.086325 0.020202
v 0.053026 0.087811 0.020202
v 0.052896 0.089296 0.020202
v 0.052510 0.090736 0.020202
v 0.049970 0.094363 0.020202
v 0.051025 0.093309 0.020202
v 0.051880 0.092088 0.020202
v 0.046052 0.096772 0.022548
v 0.047584 0.096362 0.022548
v 0.049022 0.095692 0.022548
v 0.053434 0.086231 0.022548
v 0.053572 0.087811 0.022548
v 0.053434 0.089391 0.022548
v 0.053023 0.090923 0.022548
v 0.050321 0.094782 0.022548
v 0.052353 0.092361 0.022548
v 0.051443 0.093660 0.022548
v 0.035869 0.086294 0.024468
v 0.035736 0.087811 0.024468
v 0.036906 0.083443 0.024468
v 0.037780 0.082195 0.024468
v 0.038856 0.081119 0.024468
v 0.040104 0.080245 0.024468
v 0.036263 0.084823 0.024468
v 0.038895 0.083131 0.025392
v 0.038167 0.084171 0.025392
v 0.040318 0.081455 0.025178
v 0.039792 0.082234 0.025392
v 0.041484 0.079602 0.024468
v 0.042955 0.079207 0.024468
v 0.044472 0.079075 0.024468
v 0.041982 0.080970 0.025392
v 0.043208 0.080641 0.025392
v 0.044472 0.080531 0.025392
v 0.037631 0.085321 0.025392
v 0.040318 0.081866 0.025392
v 0.040318 0.082860 0.025476
v 0.040318 0.084325 0.025583
v 0.040318 0.085245 0.025637
v 0.040802 0.081455 0.025355
v 0.040941 0.081455 0.025392
v 0.042159 0.081455 0.025445
v 0.043351 0.081455 0.025477
v 0.044108 0.081455 0.025484
v 0.044472 0.083989 0.025747
v 0.044108 0.084021 0.025747
v 0.044108 0.085245 0.025747
v 0.035869 0.089328 0.024468
v 0.037302 0.086547 0.025392
v 0.036263 0.090799 0.024468
v 0.037192 0.087811 0.025392
v 0.037302 0.089075 0.025392
v 0.036906 0.092179 0.024468
v 0.037780 0.093426 0.024468
v 0.038856 0.094503 0.024468
v 0.037631 0.090301 0.025392
v 0.038167 0.091451 0.025392
v 0.038895 0.092490 0.025392
v 0.040104 0.095376 0.024468
v 0.039792 0.093387 0.025392
v 0.041484 0.096020 0.024468
v 0.042955 0.096414 0.024468
v 0.040832 0.094115 0.025392
v 0.041982 0.094652 0.025392
v 0.044472 0.096547 0.024468
v 0.043208 0.094980 0.025392
v 0.041162 0.085900 0.025747
v 0.040880 0.086503 0.025747
v 0.040708 0.087147 0.025747
v 0.040650 0.087811 0.025747
v 0.040708 0.088474 0.025747
v 0.040880 0.089118 0.025747
v 0.041162 0.089722 0.025747
v 0.041544 0.090267 0.025747
v 0.041414 0.085245 0.025730
v 0.041544 0.085354 0.025747
v 0.041653 0.085245 0.025747
v 0.044472 0.087811 0.025747
v 0.042015 0.090739 0.025747
v 0.042561 0.091121 0.025747
v 0.043165 0.091402 0.025747
v 0.043808 0.091575 0.025747
v 0.044836 0.090376 0.025747
v 0.044472 0.091633 0.025747
v 0.044472 0.095091 0.025392
v 0.044836 0.094166 0.025484
v 0.045989 0.079207 0.024468
v 0.047460 0.079602 0.024468
v 0.048840 0.080245 0.024468
v 0.045736 0.080641 0.025392
v 0.046962 0.080970 0.025392
v 0.048112 0.081506 0.025392
v 0.050087 0.081119 0.024468
v 0.051164 0.082195 0.024468
v 0.052037 0.083443 0.024468
v 0.052681 0.084823 0.024468
v 0.049151 0.082234 0.025392
v 0.050049 0.083131 0.025392
v 0.050777 0.084171 0.025392
v 0.051313 0.085321 0.025392
v 0.045136 0.084047 0.025747
v 0.045779 0.084219 0.025747
v 0.046383 0.084501 0.025747
v 0.046929 0.084883 0.025747
v 0.047400 0.085354 0.025747
v 0.047782 0.085900 0.025747
v 0.045989 0.096414 0.024468
v 0.047460 0.096020 0.024468
v 0.045736 0.094980 0.025392
v 0.048840 0.095376 0.024468
v 0.046962 0.094652 0.025392
v 0.053075 0.086294 0.024468
v 0.053208 0.087811 0.024468
v 0.053075 0.089328 0.024468
v 0.052681 0.090799 0.024468
v 0.051641 0.086547 0.025392
v 0.051752 0.087811 0.025392
v 0.051313 0.090301 0.025392
v 0.051641 0.089075 0.025392
v 0.050087 0.094503 0.024468
v 0.051164 0.093426 0.024468
v 0.052037 0.092179 0.024468
v 0.049151 0.093387 0.025392
v 0.050049 0.092490 0.025392
v 0.048626 0.094166 0.025178
v 0.050777 0.091451 0.025392
v 0.048063 0.086503 0.025747
v 0.047291 0.090376 0.025747
v 0.047782 0.089722 0.025747
v 0.047400 0.090267 0.025747
v 0.048063 0.089118 0.025747
v 0.048236 0.087147 0.025747
v 0.048294 0.087811 0.025747
v 0.048236 0.088474 0.025747
v 0.047529 0.090376 0.025730
v 0.048626 0.090376 0.025637
v 0.044836 0.091601 0.025747
v 0.045593 0.094166 0.025477
v 0.046785 0.094166 0.025445
v 0.048626 0.093755 0.025392
v 0.048626 0.092761 0.025476
v 0.048003 0.094166 0.025392
v 0.048141 0.094166 0.025355
v 0.048626 0.091296 0.025583
v 0.044836 0.090376 0.031224
v 0.048626 0.090376 0.031224
v 0.044836 0.094166 0.031224
v 0.048626 0.094166 0.031224
v 0.040318 0.081455 0.031224
v 0.040318 0.085245 0.031224
v 0.044108 0.081455 0.031224
v 0.044108 0.085245 0.031224
v -0.086276 0.077977 -0.001084
v -0.084990 0.079510 -0.001937
v -0.085055 0.077121 -0.001084
v -0.086935 0.082288 -0.001937
v -0.088816 0.081604 -0.001084
v -0.087230 0.083392 -0.001937
v -0.089202 0.083044 -0.001084
v -0.087330 0.084529 -0.001937
v -0.086452 0.081253 -0.001937
v -0.085112 0.082027 -0.002648
v -0.085797 0.080318 -0.001937
v -0.087331 0.079031 -0.001084
v -0.088186 0.080252 -0.001084
v -0.085707 0.083660 -0.002648
v -0.085783 0.084529 -0.002648
v -0.085481 0.082818 -0.002648
v -0.089332 0.084529 -0.001084
v -0.084054 0.078855 -0.001937
v -0.083019 0.078372 -0.001937
v -0.083704 0.076491 -0.001084
v -0.081916 0.078077 -0.001937
v -0.081647 0.079600 -0.002648
v -0.080778 0.077977 -0.001937
v -0.082263 0.076105 -0.001084
v -0.080778 0.075975 -0.001084
v -0.083995 0.080695 -0.002648
v -0.084612 0.081312 -0.002648
v -0.083280 0.080195 -0.002648
v -0.080778 0.084529 -0.002648
v -0.082490 0.079826 -0.002648
v -0.080778 0.079524 -0.002648
v -0.086627 0.077558 0.001262
v -0.085328 0.076648 0.001262
v -0.087749 0.078680 0.001262
v -0.088659 0.079979 0.001262
v -0.089329 0.081417 0.001262
v -0.089740 0.082949 0.001262
v -0.089878 0.084529 0.001262
v -0.083890 0.075978 0.001262
v -0.082358 0.075568 0.001262
v -0.080778 0.075429 0.001262
v -0.087230 0.085667 -0.001937
v -0.089202 0.086015 -0.001084
v -0.086935 0.086770 -0.001937
v -0.085707 0.085398 -0.002648
v -0.085481 0.086241 -0.002648
v -0.085112 0.087032 -0.002648
v -0.086452 0.087805 -0.001937
v -0.088816 0.087455 -0.001084
v -0.085797 0.088741 -0.001937
v -0.084612 0.087746 -0.002648
v -0.088186 0.088806 -0.001084
v -0.087331 0.090028 -0.001084
v -0.084990 0.089548 -0.001937
v -0.086276 0.091082 -0.001084
v -0.083995 0.088363 -0.002648
v -0.083280 0.088864 -0.002648
v -0.084054 0.090204 -0.001937
v -0.082490 0.089232 -0.002648
v -0.083019 0.090686 -0.001937
v -0.081647 0.089458 -0.002648
v -0.081916 0.090982 -0.001937
v -0.080778 0.089534 -0.002648
v -0.080778 0.091081 -0.001937
v -0.085055 0.091937 -0.001084
v -0.083704 0.092567 -0.001084
v -0.082263 0.092953 -0.001084
v -0.080778 0.093083 -0.001084
v -0.089740 0.086110 0.001262
v -0.089329 0.087642 0.001262
v -0.088659 0.089079 0.001262
v -0.087749 0.090379 0.001262
v -0.086627 0.091500 0.001262
v -0.085328 0.092410 0.001262
v -0.083890 0.093081 0.001262
v -0.082358 0.093491 0.001262
v -0.080778 0.093629 0.001262
v -0.079640 0.078077 -0.001937
v -0.079909 0.079600 -0.002648
v -0.078537 0.078372 -0.001937
v -0.079293 0.076105 -0.001084
v -0.077852 0.076491 -0.001084
v -0.077502 0.078855 -0.001937
v -0.076501 0.077121 -0.001084
v -0.079066 0.079826 -0.002648
v -0.078275 0.080195 -0.002648
v -0.077561 0.080695 -0.002648
v -0.076566 0.079510 -0.001937
v -0.075759 0.080318 -0.001937
v -0.076944 0.081312 -0.002648
v -0.075280 0.077977 -0.001084
v -0.076444 0.082027 -0.002648
v -0.076075 0.082818 -0.002648
v -0.075849 0.083660 -0.002648
v -0.075773 0.084529 -0.002648
v -0.075104 0.081253 -0.001937
v -0.074225 0.079031 -0.001084
v -0.073370 0.080252 -0.001084
v -0.074621 0.082288 -0.001937
v -0.074326 0.083392 -0.001937
v -0.074226 0.084529 -0.001937
v -0.072740 0.081604 -0.001084
v -0.072354 0.083044 -0.001084
v -0.072224 0.084529 -0.001084
v -0.079198 0.075568 0.001262
v -0.077666 0.075978 0.001262
v -0.076228 0.076648 0.001262
v -0.074929 0.077558 0.001262
v -0.073807 0.078680 0.001262
v -0.072897 0.079979 0.001262
v -0.072227 0.081417 0.001262
v -0.071816 0.082949 0.001262
v -0.071678 0.084529 0.001262
v -0.079909 0.089458 -0.002648
v -0.079066 0.089232 -0.002648
v -0.078275 0.088864 -0.002648
v -0.077561 0.088363 -0.002648
v -0.079640 0.090982 -0.001937
v -0.078537 0.090686 -0.001937
v -0.076075 0.086241 -0.002648
v -0.075849 0.085398 -0.002648
v -0.076444 0.087032 -0.002648
v -0.076944 0.087746 -0.002648
v -0.077502 0.090204 -0.001937
v -0.076566 0.089548 -0.001937
v -0.076501 0.091937 -0.001084
v -0.079293 0.092953 -0.001084
v -0.077852 0.092567 -0.001084
v -0.074326 0.085667 -0.001937
v -0.074621 0.086770 -0.001937
v -0.075104 0.087805 -0.001937
v -0.073370 0.088806 -0.001084
v -0.075759 0.088741 -0.001937
v -0.075280 0.091082 -0.001084
v -0.074225 0.090028 -0.001084
v -0.072354 0.086015 -0.001084
v -0.072740 0.087455 -0.001084
v -0.079198 0.093491 0.001262
v -0.077666 0.093081 0.001262
v -0.076228 0.092410 0.001262
v -0.074929 0.091500 0.001262
v -0.073807 0.090379 0.001262
v -0.071816 0.086110 0.001262
v -0.072227 0.087642 0.001262
v -0.072897 0.089079 0.001262
v -0.086393 0.077837 0.003181
v -0.085146 0.076964 0.003181
v -0.087470 0.078914 0.003181
v -0.085457 0.078953 0.004105
v -0.088344 0.080161 0.003181
v -0.088987 0.081541 0.003181
v -0.089381 0.083012 0.003181
v -0.089514 0.084529 0.003181
v -0.087083 0.080889 0.004105
v -0.087947 0.083265 0.004105
v -0.087619 0.082039 0.004105
v -0.086355 0.079850 0.004105
v -0.083766 0.076320 0.003181
v -0.082295 0.075926 0.003181
v -0.080778 0.075793 0.003181
v -0.084418 0.078225 0.004105
v -0.083268 0.077688 0.004105
v -0.082042 0.077360 0.004105
v -0.080778 0.077249 0.004105
v -0.088058 0.084529 0.004105
v -0.083706 0.082073 0.004461
v -0.084369 0.083222 0.004461
v -0.084542 0.083866 0.004461
v -0.084088 0.082618 0.004461
v -0.084600 0.084529 0.004461
v -0.081442 0.080765 0.004461
v -0.080778 0.080707 0.004461
v -0.083235 0.081602 0.004461
v -0.082689 0.081219 0.004461
v -0.082085 0.080938 0.004461
v -0.080778 0.084529 0.004461
v -0.084542 0.085193 0.004461
v -0.089381 0.086046 0.003181
v -0.088987 0.087517 0.003181
v -0.088344 0.088897 0.003181
v -0.087470 0.090145 0.003181
v -0.087947 0.085793 0.004105
v -0.087619 0.087019 0.004105
v -0.087083 0.088169 0.004105
v -0.086355 0.089209 0.004105
v -0.086393 0.091221 0.003181
v -0.085146 0.092095 0.003181
v -0.085457 0.090106 0.004105
v -0.083766 0.092738 0.003181
v -0.082295 0.093133 0.003181
v -0.080778 0.093265 0.003181
v -0.084418 0.090834 0.004105
v -0.083268 0.091370 0.004105
v -0.082042 0.091699 0.004105
v -0.086127 0.086249 0.004274
v -0.086127 0.086476 0.004268
v -0.086127 0.087618 0.004219
v -0.086127 0.089018 0.004136
v -0.086127 0.089436 0.004105
v -0.086127 0.090039 0.003834
v -0.085524 0.090039 0.004105
v -0.085401 0.090039 0.004114
v -0.085503 0.086249 0.004337
v -0.084369 0.085837 0.004461
v -0.084177 0.086249 0.004461
v -0.082337 0.086249 0.004461
v -0.083959 0.090039 0.004200
v -0.082783 0.090039 0.004251
v -0.082337 0.088003 0.004461
v -0.082085 0.088121 0.004461
v -0.081442 0.088293 0.004461
v -0.080778 0.088351 0.004461
v -0.082337 0.090039 0.004263
v -0.080778 0.091809 0.004105
v -0.082337 0.088814 0.004385
v -0.079261 0.075926 0.003181
v -0.077790 0.076320 0.003181
v -0.076410 0.076964 0.003181
v -0.079514 0.077360 0.004105
v -0.078288 0.077688 0.004105
v -0.077138 0.078225 0.004105
v -0.075163 0.077837 0.003181
v -0.074086 0.078914 0.003181
v -0.076098 0.078953 0.004105
v -0.073212 0.080161 0.003181
v -0.072569 0.081541 0.003181
v -0.072175 0.083012 0.003181
v -0.072042 0.084529 0.003181
v -0.075201 0.079850 0.004105
v -0.074473 0.080889 0.004105
v -0.073937 0.082039 0.004105
v -0.073609 0.083265 0.004105
v -0.073498 0.084529 0.004105
v -0.080114 0.080765 0.004461
v -0.078773 0.079019 0.004251
v -0.079219 0.079019 0.004263
v -0.077597 0.079019 0.004200
v -0.076155 0.079019 0.004114
v -0.079471 0.080938 0.004461
v -0.079219 0.080245 0.004385
v -0.079219 0.081055 0.004461
v -0.079219 0.082809 0.004461
v -0.077186 0.083222 0.004461
v -0.077379 0.082809 0.004461
v -0.077014 0.083866 0.004461
v -0.076956 0.084529 0.004461
v -0.077014 0.085193 0.004461
v -0.076053 0.082809 0.004337
v -0.076032 0.079019 0.004105
v -0.075429 0.079019 0.003834
v -0.075429 0.079622 0.004105
v -0.075429 0.080041 0.004136
v -0.075429 0.081441 0.004219
v -0.075429 0.082582 0.004268
v -0.075429 0.082809 0.004274
v -0.079261 0.093133 0.003181
v -0.077790 0.092738 0.003181
v -0.076410 0.092095 0.003181
v -0.079514 0.091699 0.004105
v -0.078288 0.091370 0.004105
v -0.075163 0.091221 0.003181
v -0.074086 0.090145 0.003181
v -0.072569 0.087517 0.003181
v -0.072175 0.086046 0.003181
v -0.073212 0.088897 0.003181
v -0.076098 0.090106 0.004105
v -0.073609 0.085793 0.004105
v -0.073937 0.087019 0.004105
v -0.074473 0.088169 0.004105
v -0.075201 0.089209 0.004105
v -0.077138 0.090834 0.004105
v -0.080114 0.088293 0.004461
v -0.079471 0.088121 0.004461
v -0.077468 0.086440 0.004461
v -0.077850 0.086986 0.004461
v -0.078867 0.087839 0.004461
v -0.078321 0.087457 0.004461
v -0.077186 0.085837 0.004461
v -0.086127 0.086249 0.009938
v -0.086127 0.090039 0.009938
v -0.082337 0.090039 0.009938
v -0.082337 0.086249 0.009938
v -0.079219 0.079019 0.009938
v -0.079219 0.082809 0.009938
v -0.075429 0.082809 0.009938
v -0.075429 0.079019 0.009938
v -0.086276 -0.091082 -0.001084
v -0.084990 -0.089548 -0.001937
v -0.085055 -0.091937 -0.001084
v -0.086935 -0.086770 -0.001937
v -0.088816 -0.087455 -0.001084
v -0.087230 -0.085667 -0.001937
v -0.089202 -0.086015 -0.001084
v -0.087330 -0.084529 -0.001937
v -0.085797 -0.088741 -0.001937
v -0.086452 -0.087805 -0.001937
v -0.085112 -0.087032 -0.002648
v -0.087331 -0.090028 -0.001084
v -0.085707 -0.085398 -0.002648
v -0.085783 -0.084529 -0.002648
v -0.085481 -0.086241 -0.002648
v -0.088186 -0.088806 -0.001084
v -0.089332 -0.084529 -0.001084
v -0.083704 -0.092567 -0.001084
v -0.084054 -0.090204 -0.001937
v -0.083019 -0.090686 -0.001937
v -0.081916 -0.090982 -0.001937
v -0.082263 -0.092953 -0.001084
v -0.080778 -0.091081 -0.001937
v -0.080778 -0.093083 -0.001084
v -0.083995 -0.088363 -0.002648
v -0.084612 -0.087746 -0.002648
v -0.083280 -0.088864 -0.002648
v -0.080778 -0.084529 -0.002648
v -0.082490 -0.089232 -0.002648
v -0.081647 -0.089458 -0.002648
v -0.080778 -0.089534 -0.002648
v -0.086627 -0.091500 0.001262
v -0.085328 -0.092410 0.001262
v -0.087749 -0.090379 0.001262
v -0.088659 -0.089079 0.001262
v -0.089329 -0.087642 0.001262
v -0.089740 -0.086110 0.001262
v -0.089878 -0.084529 0.001262
v -0.083890 -0.093081 0.001262
v -0.082358 -0.093491 0.001262
v -0.080778 -0.093629 0.001262
v -0.087230 -0.083392 -0.001937
v -0.089202 -0.083044 -0.001084
v -0.086935 -0.082288 -0.001937
v -0.085707 -0.083660 -0.002648
v -0.085481 -0.082818 -0.002648
v -0.085112 -0.082027 -0.002648
v -0.086452 -0.081253 -0.001937
v -0.085797 -0.080318 -0.001937
v -0.084612 -0.081312 -0.002648
v -0.088816 -0.081604 -0.001084
v -0.088186 -0.080252 -0.001084
v -0.087331 -0.079031 -0.001084
v -0.084990 -0.079510 -0.001937
v -0.086276 -0.077977 -0.001084
v -0.083995 -0.080695 -0.002648
v -0.083280 -0.080195 -0.002648
v -0.084054 -0.078855 -0.001937
v -0.082490 -0.079826 -0.002648
v -0.083019 -0.078372 -0.001937
v -0.081647 -0.079600 -0.002648
v -0.080778 -0.079524 -0.002648
v -0.081916 -0.078077 -0.001937
v -0.085055 -0.077121 -0.001084
v -0.080778 -0.077977 -0.001937
v -0.083704 -0.076491 -0.001084
v -0.082263 -0.076105 -0.001084
v -0.080778 -0.075975 -0.001084
v -0.089740 -0.082949 0.001262
v -0.089329 -0.081417 0.001262
v -0.088659 -0.079979 0.001262
v -0.087749 -0.078680 0.001262
v -0.086627 -0.077558 0.001262
v -0.085328 -0.076648 0.001262
v -0.083890 -0.075978 0.001262
v -0.082358 -0.075568 0.001262
v -0.080778 -0.075429 0.001262
v -0.079640 -0.090982 -0.001937
v -0.079293 -0.092953 -0.001084
v -0.078537 -0.090686 -0.001937
v -0.077852 -0.092567 -0.001084
v -0.076501 -0.091937 -0.001084
v -0.077502 -0.090204 -0.001937
v -0.079909 -0.089458 -0.002648
v -0.079066 -0.089232 -0.002648
v -0.078275 -0.088864 -0.002648
v -0.077561 -0.088363 -0.002648
v -0.076566 -0.089548 -0.001937
v -0.076944 -0.087746 -0.002648
v -0.075759 -0.088741 -0.001937
v -0.075280 -0.091082 -0.001084
v -0.076444 -0.087032 -0.002648
v -0.076075 -0.086241 -0.002648
v -0.075849 -0.085398 -0.002648
v -0.075773 -0.084529 -0.002648
v -0.075104 -0.087805 -0.001937
v -0.074225 -0.090028 -0.001084
v -0.073370 -0.088806 -0.001084
v -0.074621 -0.086770 -0.001937
v -0.074326 -0.085667 -0.001937
v -0.074226 -0.084529 -0.001937
v -0.072740 -0.087455 -0.001084
v -0.072354 -0.086015 -0.001084
v -0.072224 -0.084529 -0.001084
v -0.079198 -0.093491 0.001262
v -0.077666 -0.093081 0.001262
v -0.076228 -0.092410 0.001262
v -0.074929 -0.091500 0.001262
v -0.073807 -0.090379 0.001262
v -0.072897 -0.089079 0.001262
v -0.072227 -0.087642 0.001262
v -0.071816 -0.086110 0.001262
v -0.071678 -0.084529 0.001262
v -0.078275 -0.080195 -0.002648
v -0.077561 -0.080695 -0.002648
v -0.079909 -0.079600 -0.002648
v -0.079066 -0.079826 -0.002648
v -0.079640 -0.078077 -0.001937
v -0.078537 -0.078372 -0.001937
v -0.076075 -0.082818 -0.002648
v -0.075849 -0.083660 -0.002648
v -0.076944 -0.081312 -0.002648
v -0.076444 -0.082027 -0.002648
v -0.077502 -0.078855 -0.001937
v -0.076566 -0.079510 -0.001937
v -0.079293 -0.076105 -0.001084
v -0.077852 -0.076491 -0.001084
v -0.076501 -0.077121 -0.001084
v -0.074326 -0.083392 -0.001937
v -0.075104 -0.081253 -0.001937
v -0.074621 -0.082288 -0.001937
v -0.075759 -0.080318 -0.001937
v -0.075280 -0.077977 -0.001084
v -0.073370 -0.080252 -0.001084
v -0.074225 -0.079031 -0.001084
v -0.072354 -0.083044 -0.001084
v -0.072740 -0.081604 -0.001084
v -0.079198 -0.075568 0.001262
v -0.077666 -0.075978 0.001262
v -0.076228 -0.076648 0.001262
v -0.071816 -0.082949 0.001262
v -0.072227 -0.081417 0.001262
v -0.073807 -0.078680 0.001262
v -0.072897 -0.079979 0.001262
v -0.074929 -0.077558 0.001262
v -0.086393 -0.091221 0.003181
v -0.085146 -0.092095 0.003181
v -0.088344 -0.088897 0.003181
v -0.087470 -0.090145 0.003181
v -0.088987 -0.087517 0.003181
v -0.089381 -0.086046 0.003181
v -0.089514 -0.084529 0.003181
v -0.087083 -0.088169 0.004105
v -0.087947 -0.085793 0.004105
v -0.087619 -0.087019 0.004105
v -0.086355 -0.089209 0.004105
v -0.085457 -0.090106 0.004105
v -0.083766 -0.092738 0.003181
v -0.082295 -0.093133 0.003181
v -0.080778 -0.093265 0.003181
v -0.084418 -0.090834 0.004105
v -0.083268 -0.091370 0.004105
v -0.082042 -0.091699 0.004105
v -0.080778 -0.091809 0.004105
v -0.088058 -0.084529 0.004105
v -0.086127 -0.090039 0.003834
v -0.086127 -0.089436 0.004105
v -0.086127 -0.089018 0.004136
v -0.085524 -0.090039 0.004105
v -0.085401 -0.090039 0.004114
v -0.086127 -0.087618 0.004219
v -0.086127 -0.086476 0.004268
v -0.086127 -0.086249 0.004274
v -0.084542 -0.085193 0.004461
v -0.085503 -0.086249 0.004337
v -0.084369 -0.085837 0.004461
v -0.082783 -0.090039 0.004251
v -0.083959 -0.090039 0.004200
v -0.084177 -0.086249 0.004461
v -0.080778 -0.084529 0.004461
v -0.082337 -0.090039 0.004263
v -0.080778 -0.088351 0.004461
v -0.081442 -0.088293 0.004461
v -0.082337 -0.088814 0.004385
v -0.082085 -0.088121 0.004461
v -0.082337 -0.088003 0.004461
v -0.082337 -0.086249 0.004461
v -0.089381 -0.083012 0.003181
v -0.088987 -0.081541 0.003181
v -0.088344 -0.080161 0.003181
v -0.087470 -0.078914 0.003181
v -0.087947 -0.083265 0.004105
v -0.087619 -0.082039 0.004105
v -0.087083 -0.080889 0.004105
v -0.086355 -0.079850 0.004105
v -0.086393 -0.077837 0.003181
v -0.085146 -0.076964 0.003181
v -0.085457 -0.078953 0.004105
v -0.083766 -0.076320 0.003181
v -0.082295 -0.075926 0.003181
v -0.080778 -0.075793 0.003181
v -0.084418 -0.078225 0.004105
v -0.083268 -0.077688 0.004105
v -0.082042 -0.077360 0.004105
v -0.084600 -0.084529 0.004461
v -0.084542 -0.083866 0.004461
v -0.084369 -0.083222 0.004461
v -0.084088 -0.082618 0.004461
v -0.083706 -0.082073 0.004461
v -0.083235 -0.081602 0.004461
v -0.082689 -0.081219 0.004461
v -0.082085 -0.080938 0.004461
v -0.081442 -0.080765 0.004461
v -0.080778 -0.080707 0.004461
v -0.080778 -0.077249 0.004105
v -0.079261 -0.093133 0.003181
v -0.077790 -0.092738 0.003181
v -0.076410 -0.092095 0.003181
v -0.079514 -0.091699 0.004105
v -0.078288 -0.091370 0.004105
v -0.077138 -0.090834 0.004105
v -0.075163 -0.091221 0.003181
v -0.074086 -0.090145 0.003181
v -0.076098 -0.090106 0.004105
v -0.073212 -0.088897 0.003181
v -0.072569 -0.087517 0.003181
v -0.072175 -0.086046 0.003181
v -0.072042 -0.084529 0.003181
v -0.075201 -0.089209 0.004105
v -0.074473 -0.088169 0.004105
v -0.073937 -0.087019 0.004105
v -0.073609 -0.085793 0.004105
v -0.073498 -0.084529 0.004105
v -0.080114 -0.088293 0.004461
v -0.079471 -0.088121 0.004461
v -0.078867 -0.087839 0.004461
v -0.078321 -0.087457 0.004461
v -0.077850 -0.086986 0.004461
v -0.077468 -0.086440 0.004461
v -0.077186 -0.085837 0.004461
v -0.077014 -0.085193 0.004461
v -0.076956 -0.084529 0.004461
v -0.079261 -0.075926 0.003181
v -0.077790 -0.076320 0.003181
v -0.076410 -0.076964 0.003181
v -0.079514 -0.077360 0.004105
v -0.078288 -0.077688 0.004105
v -0.072569 -0.081541 0.003181
v -0.072175 -0.083012 0.003181
v -0.074086 -0.078914 0.003181
v -0.073212 -0.080161 0.003181
v -0.073609 -0.083265 0.004105
v -0.073937 -0.082039 0.004105
v -0.074473 -0.080889 0.004105
v -0.075201 -0.079850 0.004105
v -0.075163 -0.077837 0.003181
v -0.077138 -0.078225 0.004105
v -0.076098 -0.078953 0.004105
v -0.080114 -0.080765 0.004461
v -0.079219 -0.082809 0.004461
v -0.079471 -0.080938 0.004461
v -0.077379 -0.082809 0.004461
v -0.079219 -0.081055 0.004461
v -0.079219 -0.080245 0.004385
v -0.079219 -0.079019 0.004263
v -0.077014 -0.083866 0.004461
v -0.077186 -0.083222 0.004461
v -0.076053 -0.082809 0.004337
v -0.077597 -0.079019 0.004200
v -0.076155 -0.079019 0.004114
v -0.078773 -0.079019 0.004251
v -0.075429 -0.082582 0.004268
v -0.075429 -0.082809 0.004274
v -0.075429 -0.081441 0.004219
v -0.076032 -0.079019 0.004105
v -0.075429 -0.079622 0.004105
v -0.075429 -0.080041 0.004136
v -0.075429 -0.079019 0.003834
v -0.086127 -0.090039 0.009938
v -0.086127 -0.086249 0.009938
v -0.082337 -0.086249 0.009938
v -0.082337 -0.090039 0.009938
v -0.079219 -0.079019 0.009938
v -0.079219 -0.082809 0.009938
v -0.075429 -0.079019 0.009938
v -0.075429 -0.082809 0.009938
v 0.035510 -0.089391 0.022548
v 0.035372 -0.087811 0.022548
v 0.035918 -0.087811 0.020202
v 0.040638 -0.091028 0.018638
v 0.039453 -0.092022 0.019349
v 0.040137 -0.090313 0.018638
v 0.038798 -0.091087 0.019349
v 0.040260 -0.092830 0.019349
v 0.037064 -0.092088 0.020202
v 0.036434 -0.090736 0.020202
v 0.038315 -0.090052 0.019349
v 0.038973 -0.094363 0.020202
v 0.040195 -0.095219 0.020202
v 0.037919 -0.093309 0.020202
v 0.039769 -0.089523 0.018638
v 0.039543 -0.088680 0.018638
v 0.038019 -0.088948 0.019349
v 0.039467 -0.087811 0.018638
v 0.037920 -0.087811 0.019349
v 0.039543 -0.086942 0.018638
v 0.038019 -0.086673 0.019349
v 0.039769 -0.086099 0.018638
v 0.038315 -0.085570 0.019349
v 0.040137 -0.085308 0.018638
v 0.038798 -0.084535 0.019349
v 0.040638 -0.084594 0.018638
v 0.036048 -0.089296 0.020202
v 0.036048 -0.086325 0.020202
v 0.036434 -0.084885 0.020202
v 0.041255 -0.091645 0.018638
v 0.041969 -0.092145 0.018638
v 0.041196 -0.093485 0.019349
v 0.042760 -0.092514 0.018638
v 0.042231 -0.093968 0.019349
v 0.043603 -0.092740 0.018638
v 0.043334 -0.094263 0.019349
v 0.044472 -0.092816 0.018638
v 0.044472 -0.094363 0.019349
v 0.044472 -0.087811 0.018638
v 0.041546 -0.095849 0.020202
v 0.042986 -0.096235 0.020202
v 0.044472 -0.096365 0.020202
v 0.041255 -0.083977 0.018638
v 0.041969 -0.083476 0.018638
v 0.042760 -0.083108 0.018638
v 0.036591 -0.092361 0.022548
v 0.037501 -0.093660 0.022548
v 0.038622 -0.094782 0.022548
v 0.039922 -0.095692 0.022548
v 0.035921 -0.090923 0.022548
v 0.035510 -0.086231 0.022548
v 0.035921 -0.084698 0.022548
v 0.041359 -0.096362 0.022548
v 0.042892 -0.096772 0.022548
v 0.044472 -0.096911 0.022548
v 0.039453 -0.083599 0.019349
v 0.037064 -0.083534 0.020202
v 0.037919 -0.082312 0.020202
v 0.040260 -0.082792 0.019349
v 0.038973 -0.081258 0.020202
v 0.040195 -0.080403 0.020202
v 0.041196 -0.082137 0.019349
v 0.042231 -0.081654 0.019349
v 0.043603 -0.082882 0.018638
v 0.044472 -0.082806 0.018638
v 0.043334 -0.081358 0.019349
v 0.044472 -0.081259 0.019349
v 0.041546 -0.079773 0.020202
v 0.042986 -0.079387 0.020202
v 0.044472 -0.079257 0.020202
v 0.036591 -0.083261 0.022548
v 0.037501 -0.081961 0.022548
v 0.038622 -0.080840 0.022548
v 0.039922 -0.079930 0.022548
v 0.041359 -0.079259 0.022548
v 0.042892 -0.078849 0.022548
v 0.044472 -0.078711 0.022548
v 0.045341 -0.092740 0.018638
v 0.045610 -0.094263 0.019349
v 0.046184 -0.092514 0.018638
v 0.046713 -0.093968 0.019349
v 0.046974 -0.092145 0.018638
v 0.047748 -0.093485 0.019349
v 0.047689 -0.091645 0.018638
v 0.048683 -0.092830 0.019349
v 0.048306 -0.091028 0.018638
v 0.049491 -0.092022 0.019349
v 0.045957 -0.096235 0.020202
v 0.047397 -0.095849 0.020202
v 0.048749 -0.095219 0.020202
v 0.049970 -0.094363 0.020202
v 0.046184 -0.083108 0.018638
v 0.046974 -0.083476 0.018638
v 0.047689 -0.083977 0.018638
v 0.048306 -0.084594 0.018638
v 0.048806 -0.090313 0.018638
v 0.049175 -0.089523 0.018638
v 0.049401 -0.088680 0.018638
v 0.049477 -0.087811 0.018638
v 0.050146 -0.091087 0.019349
v 0.049401 -0.086942 0.018638
v 0.049175 -0.086099 0.018638
v 0.048806 -0.085308 0.018638
v 0.051025 -0.093309 0.020202
v 0.051880 -0.092088 0.020202
v 0.052510 -0.090736 0.020202
v 0.050629 -0.090052 0.019349
v 0.050924 -0.088948 0.019349
v 0.051024 -0.087811 0.019349
v 0.050924 -0.086673 0.019349
v 0.050146 -0.084535 0.019349
v 0.050629 -0.085570 0.019349
v 0.052896 -0.089296 0.020202
v 0.053026 -0.087811 0.020202
v 0.052896 -0.086325 0.020202
v 0.052510 -0.084885 0.020202
v 0.046052 -0.096772 0.022548
v 0.047584 -0.096362 0.022548
v 0.049022 -0.095692 0.022548
v 0.050321 -0.094782 0.022548
v 0.051443 -0.093660 0.022548
v 0.052353 -0.092361 0.022548
v 0.053023 -0.090923 0.022548
v 0.053434 -0.089391 0.022548
v 0.053572 -0.087811 0.022548
v 0.053434 -0.086231 0.022548
v 0.053023 -0.084698 0.022548
v 0.045341 -0.082882 0.018638
v 0.045610 -0.081358 0.019349
v 0.046713 -0.081654 0.019349
v 0.047748 -0.082137 0.019349
v 0.048683 -0.082792 0.019349
v 0.049491 -0.083599 0.019349
v 0.045957 -0.079387 0.020202
v 0.047397 -0.079773 0.020202
v 0.048749 -0.080403 0.020202
v 0.049970 -0.081258 0.020202
v 0.051025 -0.082312 0.020202
v 0.051880 -0.083534 0.020202
v 0.046052 -0.078849 0.022548
v 0.047584 -0.079259 0.022548
v 0.049022 -0.079930 0.022548
v 0.050321 -0.080840 0.022548
v 0.052353 -0.083261 0.022548
v 0.051443 -0.081961 0.022548
v 0.035869 -0.089328 0.024468
v 0.035736 -0.087811 0.024468
v 0.036906 -0.092179 0.024468
v 0.037780 -0.093426 0.024468
v 0.038856 -0.094503 0.024468
v 0.040104 -0.095376 0.024468
v 0.036263 -0.090799 0.024468
v 0.038895 -0.092490 0.025392
v 0.038167 -0.091451 0.025392
v 0.040832 -0.094115 0.025392
v 0.039792 -0.093387 0.025392
v 0.035869 -0.086294 0.024468
v 0.037631 -0.090301 0.025392
v 0.037302 -0.089075 0.025392
v 0.036263 -0.084823 0.024468
v 0.037192 -0.087811 0.025392
v 0.037302 -0.086547 0.025392
v 0.041484 -0.096020 0.024468
v 0.042955 -0.096414 0.024468
v 0.044472 -0.096547 0.024468
v 0.041982 -0.094652 0.025392
v 0.043208 -0.094980 0.025392
v 0.044472 -0.095091 0.025392
v 0.041544 -0.090267 0.025747
v 0.037631 -0.085321 0.025392
v 0.041162 -0.089722 0.025747
v 0.040880 -0.089118 0.025747
v 0.040708 -0.088474 0.025747
v 0.040650 -0.087811 0.025747
v 0.040708 -0.087147 0.025747
v 0.040880 -0.086503 0.025747
v 0.038167 -0.084171 0.025392
v 0.041162 -0.085900 0.025747
v 0.040318 -0.085245 0.025637
v 0.042561 -0.091121 0.025747
v 0.042015 -0.090739 0.025747
v 0.043165 -0.091402 0.025747
v 0.044472 -0.091633 0.025747
v 0.043808 -0.091575 0.025747
v 0.044836 -0.091601 0.025747
v 0.044472 -0.087811 0.025747
v 0.041414 -0.085245 0.025730
v 0.041544 -0.085354 0.025747
v 0.041653 -0.085245 0.025747
v 0.044836 -0.090376 0.025747
v 0.044108 -0.085245 0.025747
v 0.044472 -0.083989 0.025747
v 0.036906 -0.083443 0.024468
v 0.037780 -0.082195 0.024468
v 0.038856 -0.081119 0.024468
v 0.038895 -0.083131 0.025392
v 0.040104 -0.080245 0.024468
v 0.039792 -0.082234 0.025392
v 0.041484 -0.079602 0.024468
v 0.042955 -0.079207 0.024468
v 0.040941 -0.081455 0.025392
v 0.041982 -0.080970 0.025392
v 0.044472 -0.079075 0.024468
v 0.043208 -0.080641 0.025392
v 0.040318 -0.084325 0.025583
v 0.040318 -0.081455 0.025178
v 0.040318 -0.081866 0.025392
v 0.040318 -0.082860 0.025476
v 0.040802 -0.081455 0.025355
v 0.042159 -0.081455 0.025445
v 0.044108 -0.084021 0.025747
v 0.044472 -0.080531 0.025392
v 0.044108 -0.081455 0.025484
v 0.043351 -0.081455 0.025477
v 0.045989 -0.096414 0.024468
v 0.047460 -0.096020 0.024468
v 0.048840 -0.095376 0.024468
v 0.045736 -0.094980 0.025392
v 0.046962 -0.094652 0.025392
v 0.048003 -0.094166 0.025392
v 0.050087 -0.094503 0.024468
v 0.051164 -0.093426 0.024468
v 0.052037 -0.092179 0.024468
v 0.052681 -0.090799 0.024468
v 0.049151 -0.093387 0.025392
v 0.050049 -0.092490 0.025392
v 0.050777 -0.091451 0.025392
v 0.051313 -0.090301 0.025392
v 0.053075 -0.089328 0.024468
v 0.053208 -0.087811 0.024468
v 0.053075 -0.086294 0.024468
v 0.052681 -0.084823 0.024468
v 0.051641 -0.089075 0.025392
v 0.051752 -0.087811 0.025392
v 0.051313 -0.085321 0.025392
v 0.051641 -0.086547 0.025392
v 0.044836 -0.094166 0.025484
v 0.045593 -0.094166 0.025477
v 0.046785 -0.094166 0.025445
v 0.048141 -0.094166 0.025355
v 0.048626 -0.094166 0.025178
v 0.048626 -0.093755 0.025392
v 0.048626 -0.092761 0.025476
v 0.047400 -0.090267 0.025747
v 0.047291 -0.090376 0.025747
v 0.047782 -0.089722 0.025747
v 0.048063 -0.089118 0.025747
v 0.045136 -0.084047 0.025747
v 0.045779 -0.084219 0.025747
v 0.046383 -0.084501 0.025747
v 0.047782 -0.085900 0.025747
v 0.047400 -0.085354 0.025747
v 0.048063 -0.086503 0.025747
v 0.046929 -0.084883 0.025747
v 0.047529 -0.090376 0.025730
v 0.048236 -0.088474 0.025747
v 0.048294 -0.087811 0.025747
v 0.048626 -0.090376 0.025637
v 0.048236 -0.087147 0.025747
v 0.050777 -0.084171 0.025392
v 0.048626 -0.091296 0.025583
v 0.045989 -0.079207 0.024468
v 0.047460 -0.079602 0.024468
v 0.045736 -0.080641 0.025392
v 0.048840 -0.080245 0.024468
v 0.046962 -0.080970 0.025392
v 0.048112 -0.081506 0.025392
v 0.050087 -0.081119 0.024468
v 0.051164 -0.082195 0.024468
v 0.052037 -0.083443 0.024468
v 0.049151 -0.082234 0.025392
v 0.050049 -0.083131 0.025392
v 0.044836 -0.094166 0.031224
v 0.044836 -0.090376 0.031224
v 0.048626 -0.094166 0.031224
v 0.048626 -0.090376 0.031224
v 0.040318 -0.085245 0.031224
v 0.044108 -0.085245 0.031224
v 0.040318 -0.081455 0.031224
v 0.044108 -0.081455 0.031224
f 1 2 3
f 4 5 6
f 6 5 7
f 4 8 5
f 9 10 11
f 12 8 13
f 5 12 14
f 7 9 11
f 7 5 14
f 7 14 9
f 5 8 12
f 4 15 8
f 15 16 17
f 16 18 19
f 15 17 8
f 16 19 17
f 18 20 21
f 20 22 23
f 18 24 20
f 20 24 22
f 18 21 19
f 20 23 21
f 17 25 13
f 19 25 17
f 19 26 25
f 8 17 13
f 19 21 26
f 21 27 26
f 21 23 27
f 9 28 10
f 9 14 29
f 12 30 14
f 12 13 31
f 10 28 32
f 9 29 28
f 14 30 29
f 12 31 30
f 13 25 33
f 25 26 34
f 26 27 35
f 13 33 31
f 25 34 33
f 26 35 34
f 36 11 37
f 36 6 7
f 37 38 39
f 36 7 11
f 37 11 38
f 39 38 40
f 39 40 41
f 41 42 43
f 43 44 45
f 45 46 47
f 41 40 42
f 43 42 44
f 45 44 46
f 40 48 3
f 11 10 38
f 38 10 48
f 38 48 40
f 42 3 49
f 40 3 42
f 42 49 44
f 44 50 46
f 44 49 50
f 47 46 51
f 50 52 46
f 46 52 51
f 51 52 53
f 51 53 54
f 53 55 54
f 55 56 57
f 37 39 24
f 4 6 24
f 4 24 15
f 36 24 6
f 36 37 24
f 39 41 24
f 41 43 24
f 43 45 24
f 45 47 24
f 24 47 58
f 15 24 16
f 16 24 18
f 24 58 59
f 24 59 60
f 47 51 58
f 58 54 59
f 59 57 60
f 58 51 54
f 59 54 57
f 60 57 61
f 60 61 62
f 24 60 62
f 24 62 63
f 62 64 63
f 62 61 64
f 63 64 65
f 55 57 54
f 57 56 61
f 61 56 66
f 61 66 64
f 64 66 67
f 64 67 65
f 65 67 68
f 10 32 48
f 1 3 48
f 2 49 3
f 69 50 49
f 1 48 32
f 2 69 49
f 69 70 50
f 50 70 52
f 52 71 53
f 53 72 55
f 55 73 56
f 52 70 71
f 53 71 72
f 55 72 73
f 56 73 74
f 56 74 66
f 66 75 67
f 67 76 68
f 66 74 75
f 67 75 76
f 68 76 77
f 22 78 79
f 22 24 78
f 24 80 78
f 78 80 81
f 22 79 23
f 78 81 79
f 80 82 83
f 82 84 85
f 84 86 87
f 80 83 81
f 82 85 83
f 84 87 85
f 23 88 27
f 23 79 88
f 79 89 88
f 79 81 89
f 81 83 90
f 81 90 89
f 83 91 90
f 83 85 91
f 86 92 87
f 85 87 93
f 85 93 91
f 87 94 93
f 87 92 94
f 92 95 94
f 27 88 96
f 88 89 97
f 89 90 98
f 27 96 35
f 88 97 96
f 89 98 97
f 90 91 99
f 91 93 100
f 93 94 101
f 94 95 102
f 90 99 98
f 91 100 99
f 93 101 100
f 94 102 101
f 24 82 80
f 24 84 82
f 24 86 84
f 24 103 104
f 24 104 105
f 24 105 106
f 24 107 86
f 24 108 107
f 24 109 108
f 24 110 109
f 86 107 92
f 24 111 110
f 24 112 111
f 24 113 112
f 24 106 113
f 24 63 114
f 24 114 103
f 63 65 114
f 114 115 103
f 103 116 104
f 114 65 115
f 103 115 116
f 104 117 105
f 105 118 106
f 113 106 119
f 104 116 117
f 106 118 119
f 105 117 118
f 65 68 115
f 68 120 115
f 115 120 116
f 116 120 121
f 117 122 118
f 116 121 117
f 117 121 122
f 107 108 123
f 108 109 124
f 109 110 125
f 107 123 92
f 108 124 123
f 109 125 124
f 110 111 126
f 113 127 112
f 111 112 128
f 112 127 128
f 110 126 125
f 111 128 126
f 92 123 95
f 123 124 129
f 123 129 95
f 124 125 130
f 124 130 129
f 125 126 131
f 125 131 130
f 126 128 132
f 126 132 131
f 113 119 127
f 118 133 119
f 119 133 134
f 119 134 127
f 128 127 135
f 127 134 135
f 118 122 133
f 128 135 132
f 68 77 120
f 120 136 121
f 121 137 122
f 120 77 136
f 121 136 137
f 122 137 138
f 95 129 139
f 129 130 140
f 130 131 141
f 131 132 142
f 95 139 102
f 129 140 139
f 130 141 140
f 131 142 141
f 122 138 133
f 134 133 143
f 132 135 144
f 134 145 135
f 133 138 143
f 134 143 145
f 135 145 144
f 132 144 142
f 1 146 2
f 2 147 69
f 28 148 32
f 28 29 149
f 29 30 150
f 30 31 151
f 32 148 152
f 28 149 148
f 149 153 148
f 148 154 152
f 29 150 149
f 30 151 150
f 150 151 155
f 149 150 156
f 31 33 157
f 33 34 158
f 35 159 34
f 31 157 151
f 33 158 157
f 151 157 160
f 34 159 158
f 157 158 161
f 158 159 162
f 154 163 152
f 150 155 164
f 150 164 156
f 149 156 153
f 148 153 154
f 153 156 165
f 153 166 154
f 153 165 166
f 154 166 167
f 151 168 155
f 151 160 168
f 160 169 168
f 157 161 160
f 160 170 169
f 156 164 165
f 158 162 161
f 160 161 170
f 161 171 170
f 161 162 172
f 161 172 171
f 162 173 172
f 173 174 172
f 173 175 174
f 1 32 152
f 69 176 70
f 1 152 146
f 2 146 147
f 146 152 163
f 146 177 147
f 69 147 176
f 70 176 178
f 147 179 176
f 176 180 178
f 70 178 71
f 71 181 72
f 72 182 73
f 73 183 74
f 71 178 181
f 72 181 182
f 178 184 181
f 181 185 182
f 182 186 183
f 73 182 183
f 74 183 187
f 183 188 187
f 74 187 75
f 75 189 76
f 76 190 77
f 75 187 189
f 187 191 189
f 189 192 190
f 76 189 190
f 77 190 193
f 190 194 193
f 147 177 179
f 146 163 177
f 176 179 180
f 178 180 184
f 154 195 163
f 163 196 177
f 177 197 179
f 154 167 195
f 163 195 196
f 179 197 198
f 177 196 197
f 179 198 180
f 180 199 184
f 184 200 185
f 180 198 199
f 184 199 200
f 185 200 201
f 184 185 181
f 182 185 186
f 183 186 188
f 185 201 186
f 186 202 188
f 195 167 203
f 195 203 204
f 204 203 205
f 195 206 196
f 196 206 197
f 198 197 206
f 186 201 202
f 198 206 199
f 199 206 200
f 200 206 201
f 204 205 206
f 206 205 175
f 195 204 206
f 173 206 175
f 201 206 202
f 202 206 207
f 207 206 208
f 206 209 208
f 206 210 209
f 206 211 212
f 206 212 210
f 188 202 207
f 188 207 191
f 207 208 191
f 191 208 192
f 187 188 191
f 189 191 192
f 192 208 209
f 192 209 194
f 209 210 194
f 210 213 194
f 210 212 213
f 212 214 213
f 190 192 194
f 193 194 213
f 35 96 215
f 96 97 216
f 97 98 217
f 35 215 159
f 96 216 215
f 159 215 218
f 215 216 219
f 97 217 216
f 216 217 220
f 98 99 221
f 99 100 222
f 100 101 223
f 101 102 224
f 98 221 217
f 99 222 221
f 217 221 225
f 221 222 226
f 222 223 227
f 100 223 222
f 101 224 223
f 223 224 228
f 159 218 162
f 215 219 218
f 162 218 229
f 162 229 173
f 218 230 229
f 218 219 230
f 230 219 231
f 216 220 219
f 217 225 220
f 231 219 220
f 231 220 232
f 225 233 232
f 220 225 232
f 226 234 233
f 225 226 233
f 221 226 225
f 222 227 226
f 226 227 234
f 223 228 227
f 77 193 136
f 136 235 137
f 137 236 138
f 193 235 136
f 193 213 235
f 235 237 236
f 137 235 236
f 138 236 238
f 236 239 238
f 102 139 240
f 139 140 241
f 140 141 242
f 141 142 243
f 102 240 224
f 139 241 240
f 224 240 244
f 240 241 245
f 140 242 241
f 141 243 242
f 242 243 246
f 241 242 247
f 138 238 143
f 143 248 145
f 144 145 249
f 144 250 142
f 145 248 249
f 249 248 251
f 249 252 250
f 143 238 248
f 238 253 248
f 144 249 250
f 142 250 243
f 243 250 254
f 173 229 206
f 206 229 230
f 206 230 231
f 206 231 232
f 206 232 233
f 206 233 234
f 206 234 255
f 206 256 211
f 206 257 258
f 206 259 257
f 206 258 256
f 206 255 260
f 206 260 261
f 227 255 234
f 206 261 262
f 206 262 259
f 258 263 256
f 258 257 263
f 257 259 246
f 257 254 264
f 257 264 263
f 212 211 265
f 212 265 214
f 213 237 235
f 236 237 239
f 213 214 237
f 237 214 266
f 237 266 267
f 237 267 239
f 251 268 269
f 239 270 271
f 238 239 271
f 238 271 253
f 239 267 270
f 227 228 255
f 255 228 260
f 260 244 261
f 260 228 244
f 261 244 245
f 261 245 262
f 262 247 259
f 257 246 254
f 262 245 247
f 259 247 246
f 224 244 228
f 240 245 244
f 241 247 245
f 243 254 246
f 242 246 247
f 248 268 251
f 249 251 252
f 250 252 254
f 254 272 264
f 252 269 272
f 252 272 254
f 251 269 252
f 248 253 268
f 273 211 256
f 273 256 263
f 274 264 272
f 273 263 264
f 275 214 265
f 275 265 211
f 275 266 214
f 274 272 269
f 274 269 268
f 276 267 266
f 276 270 267
f 276 253 271
f 276 271 270
f 276 268 253
f 273 264 274
f 273 275 211
f 275 276 266
f 274 268 276
f 273 276 275
f 273 274 276
f 277 155 168
f 277 164 155
f 277 168 169
f 277 169 170
f 277 170 171
f 278 165 164
f 278 166 165
f 279 171 172
f 279 172 174
f 279 174 175
f 277 278 164
f 277 171 279
f 279 175 280
f 277 280 278
f 277 279 280
f 278 167 166
f 280 203 167
f 280 205 203
f 280 175 205
f 278 280 167
f 281 282 283
f 284 285 286
f 286 287 288
f 289 290 291
f 289 291 292
f 289 293 284
f 281 291 282
f 294 284 286
f 295 286 288
f 296 284 294
f 289 296 290
f 289 284 296
f 294 286 295
f 284 293 285
f 286 285 287
f 288 287 297
f 289 292 293
f 281 292 291
f 283 282 298
f 299 300 298
f 301 302 303
f 299 301 304
f 301 303 305
f 283 298 300
f 299 304 300
f 301 305 304
f 306 298 282
f 291 290 307
f 307 306 282
f 291 307 282
f 308 298 306
f 299 298 308
f 296 309 290
f 307 290 309
f 296 294 309
f 294 295 309
f 299 308 310
f 299 310 301
f 308 309 310
f 301 310 302
f 302 311 303
f 310 309 302
f 302 309 311
f 307 309 306
f 308 306 309
f 281 312 292
f 281 283 313
f 292 312 314
f 281 313 312
f 293 292 314
f 285 293 315
f 285 315 316
f 293 314 315
f 285 316 287
f 287 317 297
f 287 316 317
f 297 317 318
f 283 300 319
f 283 319 313
f 300 320 319
f 304 321 320
f 300 304 320
f 304 305 321
f 288 297 322
f 322 323 324
f 288 322 325
f 326 322 324
f 295 288 325
f 325 322 326
f 326 324 327
f 324 328 327
f 324 329 328
f 328 330 331
f 328 332 330
f 330 333 334
f 297 323 322
f 324 323 329
f 328 329 332
f 330 332 333
f 333 335 334
f 328 331 327
f 295 325 309
f 325 326 309
f 326 327 309
f 327 331 309
f 330 336 331
f 330 334 336
f 336 334 337
f 337 338 339
f 337 334 338
f 338 340 339
f 335 338 334
f 331 336 309
f 336 337 309
f 337 339 309
f 339 341 309
f 339 340 341
f 341 340 342
f 341 343 309
f 341 342 343
f 342 344 343
f 338 345 340
f 340 346 342
f 342 347 344
f 335 345 338
f 340 345 346
f 342 346 347
f 347 348 344
f 297 318 323
f 323 349 329
f 323 318 349
f 329 349 350
f 329 350 332
f 332 351 333
f 332 350 351
f 333 351 352
f 333 352 335
f 335 353 345
f 335 352 353
f 345 353 354
f 345 354 346
f 346 355 347
f 346 354 355
f 347 356 348
f 347 355 356
f 348 356 357
f 303 311 358
f 358 359 360
f 303 358 361
f 358 360 362
f 360 363 364
f 303 361 305
f 358 362 361
f 360 364 362
f 358 311 359
f 311 309 359
f 359 309 365
f 360 359 365
f 365 309 366
f 309 367 366
f 365 366 363
f 360 365 363
f 366 367 368
f 366 368 363
f 367 369 368
f 367 370 369
f 363 368 371
f 309 370 367
f 309 372 370
f 309 373 372
f 309 374 373
f 309 375 374
f 364 363 371
f 370 372 376
f 370 376 369
f 368 369 377
f 369 376 378
f 372 373 379
f 372 379 376
f 373 374 380
f 373 380 379
f 374 375 381
f 374 381 380
f 376 379 382
f 379 380 383
f 380 381 384
f 368 377 371
f 369 378 377
f 376 382 378
f 379 383 382
f 380 384 383
f 305 385 321
f 305 361 385
f 361 386 385
f 361 362 386
f 362 364 387
f 362 387 386
f 364 371 388
f 371 377 389
f 364 388 387
f 371 389 388
f 377 378 390
f 378 382 391
f 377 390 389
f 378 391 390
f 382 383 392
f 383 384 393
f 382 392 391
f 383 393 392
f 309 394 395
f 309 395 396
f 309 396 397
f 309 343 394
f 343 344 394
f 394 344 398
f 394 398 395
f 395 398 399
f 309 400 401
f 309 402 400
f 309 397 403
f 309 403 402
f 309 401 375
f 396 404 397
f 395 399 396
f 396 399 404
f 403 397 405
f 397 404 405
f 404 406 405
f 344 348 398
f 399 398 407
f 399 408 404
f 398 348 407
f 399 407 408
f 404 408 406
f 375 401 409
f 400 410 401
f 402 411 400
f 375 409 381
f 401 410 409
f 400 411 410
f 411 412 410
f 402 403 413
f 403 405 413
f 402 413 411
f 405 414 413
f 411 413 415
f 381 409 416
f 409 410 417
f 411 415 412
f 413 414 415
f 409 417 416
f 410 412 417
f 381 416 384
f 405 406 414
f 348 357 407
f 407 418 408
f 407 357 418
f 408 419 406
f 408 418 419
f 406 419 420
f 415 421 422
f 384 416 423
f 416 417 424
f 416 424 423
f 415 422 412
f 417 412 425
f 412 422 425
f 417 425 424
f 406 420 414
f 415 414 421
f 414 420 421
f 314 312 426
f 312 313 427
f 314 426 428
f 312 427 426
f 426 429 428
f 316 315 430
f 314 428 315
f 316 430 431
f 315 428 430
f 316 431 317
f 317 432 318
f 317 431 432
f 318 432 433
f 431 430 434
f 432 435 433
f 431 436 432
f 430 428 437
f 313 319 438
f 313 438 427
f 319 439 438
f 320 321 440
f 319 320 439
f 320 440 439
f 426 427 441
f 427 438 442
f 438 439 443
f 439 440 444
f 426 441 429
f 431 434 436
f 432 436 435
f 433 435 445
f 430 437 434
f 428 429 437
f 434 437 446
f 435 436 447
f 435 448 445
f 434 449 436
f 435 447 448
f 445 448 450
f 427 442 441
f 438 443 442
f 442 443 451
f 439 444 443
f 443 444 452
f 437 429 453
f 429 441 454
f 441 442 455
f 437 453 446
f 429 454 453
f 434 446 449
f 436 449 447
f 447 456 448
f 448 456 450
f 450 456 457
f 441 455 454
f 442 451 455
f 443 452 451
f 449 446 456
f 453 454 456
f 453 456 446
f 447 449 456
f 454 455 456
f 455 451 456
f 451 452 456
f 318 433 349
f 349 458 350
f 433 458 349
f 350 458 459
f 350 459 351
f 351 460 352
f 351 459 460
f 352 460 461
f 352 461 353
f 433 445 458
f 458 462 459
f 459 463 460
f 460 464 461
f 461 465 466
f 353 466 354
f 353 461 466
f 354 466 467
f 468 467 466
f 354 467 355
f 355 469 356
f 355 467 469
f 356 470 357
f 356 469 470
f 470 471 357
f 472 469 467
f 469 473 470
f 470 474 471
f 445 462 458
f 459 462 463
f 460 463 464
f 445 450 462
f 462 457 463
f 463 475 476
f 463 476 477
f 463 477 464
f 463 457 475
f 462 450 457
f 461 464 465
f 464 478 465
f 464 477 478
f 465 478 479
f 465 480 466
f 466 480 481
f 468 466 481
f 465 479 480
f 468 481 482
f 457 483 475
f 457 484 483
f 484 485 483
f 457 456 484
f 484 486 485
f 468 482 472
f 472 482 487
f 472 487 473
f 473 487 488
f 484 456 486
f 456 489 486
f 490 489 456
f 490 456 491
f 491 456 492
f 474 488 493
f 474 491 494
f 490 495 489
f 490 493 495
f 474 493 490
f 474 490 491
f 494 491 492
f 468 472 467
f 472 473 469
f 470 473 474
f 473 488 474
f 474 494 471
f 321 385 496
f 321 496 440
f 385 497 496
f 385 386 497
f 386 387 498
f 386 498 497
f 440 496 499
f 496 497 500
f 497 498 501
f 387 388 502
f 388 389 503
f 387 502 498
f 388 503 502
f 498 502 504
f 389 390 505
f 390 391 506
f 389 505 503
f 390 506 505
f 391 392 507
f 391 507 506
f 507 392 508
f 502 503 509
f 503 505 510
f 505 506 511
f 506 507 512
f 507 508 513
f 440 499 444
f 444 499 514
f 496 500 499
f 499 515 516
f 499 500 515
f 497 501 500
f 500 517 515
f 500 501 517
f 501 498 504
f 501 504 518
f 444 514 452
f 499 516 519
f 499 519 514
f 519 516 520
f 519 520 521
f 452 514 456
f 514 519 456
f 519 521 456
f 456 521 522
f 456 522 523
f 501 518 517
f 523 522 524
f 456 523 525
f 456 525 526
f 456 526 527
f 523 524 528
f 523 528 525
f 502 529 504
f 502 530 529
f 504 529 518
f 509 531 530
f 509 532 531
f 502 509 530
f 503 510 509
f 509 510 532
f 510 533 532
f 510 511 533
f 511 534 533
f 511 535 534
f 511 512 525
f 512 513 526
f 525 528 535
f 511 525 535
f 512 526 525
f 513 527 526
f 505 511 510
f 506 512 511
f 507 513 512
f 357 471 418
f 418 536 419
f 418 471 536
f 419 537 420
f 419 536 537
f 420 537 538
f 471 494 536
f 536 539 537
f 537 540 538
f 422 541 542
f 424 543 423
f 508 393 544
f 544 423 543
f 422 542 425
f 424 425 545
f 425 542 545
f 424 545 543
f 542 541 546
f 508 544 547
f 544 543 548
f 543 545 549
f 545 542 550
f 420 538 421
f 422 421 541
f 421 538 541
f 551 541 538
f 456 552 492
f 456 553 552
f 456 554 555
f 456 556 553
f 456 557 556
f 456 555 557
f 494 492 539
f 539 552 540
f 539 492 552
f 540 552 553
f 456 527 558
f 456 558 554
f 549 555 554
f 551 540 553
f 546 557 550
f 551 556 546
f 551 553 556
f 546 556 557
f 550 557 555
f 536 494 539
f 537 539 540
f 551 538 540
f 547 548 558
f 513 547 527
f 549 554 548
f 547 558 527
f 548 554 558
f 550 555 549
f 551 546 541
f 545 550 549
f 542 546 550
f 544 548 547
f 543 549 548
f 508 547 513
f 384 423 393
f 508 392 393
f 544 393 423
f 559 475 483
f 559 476 475
f 560 477 476
f 560 478 477
f 560 479 478
f 560 480 479
f 560 481 480
f 559 483 485
f 559 485 486
f 561 482 481
f 561 487 482
f 562 486 489
f 562 489 495
f 562 495 493
f 561 488 487
f 561 493 488
f 559 560 476
f 559 486 562
f 560 561 481
f 562 493 561
f 559 562 561
f 559 561 560
f 563 516 515
f 564 520 516
f 564 521 520
f 564 522 521
f 563 517 518
f 563 515 517
f 563 518 529
f 565 524 522
f 566 529 530
f 566 530 531
f 566 531 532
f 566 532 533
f 566 533 534
f 565 528 524
f 565 535 528
f 565 534 535
f 563 564 516
f 563 529 566
f 564 565 522
f 563 565 564
f 563 566 565
f 566 534 565
f 567 568 569
f 570 571 572
f 572 573 574
f 575 576 577
f 575 578 576
f 567 575 568
f 579 570 572
f 572 574 580
f 581 577 576
f 581 576 570
f 581 570 579
f 579 572 580
f 570 576 582
f 572 571 573
f 570 582 571
f 573 583 574
f 576 578 582
f 567 578 575
f 584 585 586
f 587 588 586
f 587 589 590
f 569 585 584
f 584 586 588
f 587 590 588
f 591 585 568
f 575 577 592
f 591 568 592
f 575 592 568
f 593 586 585
f 591 593 585
f 569 568 585
f 577 594 592
f 581 594 577
f 579 580 594
f 581 579 594
f 593 595 586
f 587 586 595
f 587 595 596
f 596 597 589
f 587 596 589
f 596 594 597
f 591 594 593
f 591 592 594
f 593 594 595
f 595 594 596
f 567 598 578
f 567 569 599
f 567 599 598
f 582 578 600
f 582 601 571
f 571 601 602
f 582 600 601
f 571 602 573
f 573 603 583
f 573 602 603
f 583 603 604
f 578 598 600
f 569 584 605
f 569 605 599
f 584 606 605
f 584 588 606
f 588 590 607
f 588 607 606
f 574 583 608
f 608 609 610
f 611 574 608
f 612 608 610
f 580 574 611
f 611 608 612
f 612 610 613
f 610 614 613
f 614 615 616
f 610 617 614
f 614 618 615
f 615 619 620
f 608 583 609
f 610 609 617
f 614 617 618
f 615 618 619
f 619 621 620
f 580 611 594
f 611 612 594
f 612 613 594
f 613 616 594
f 614 616 613
f 615 622 616
f 615 620 622
f 622 620 623
f 623 624 625
f 623 620 624
f 624 626 625
f 621 624 620
f 616 622 594
f 622 623 594
f 623 625 594
f 625 626 627
f 625 627 594
f 627 628 594
f 627 629 628
f 624 630 626
f 627 626 629
f 629 631 628
f 626 632 629
f 629 633 631
f 621 630 624
f 626 630 632
f 629 632 633
f 633 634 631
f 583 604 609
f 609 635 617
f 609 604 635
f 617 635 636
f 617 636 618
f 618 637 619
f 618 636 637
f 619 637 638
f 619 638 621
f 621 639 630
f 621 638 639
f 630 639 640
f 630 640 632
f 632 641 633
f 632 640 641
f 633 642 634
f 633 641 642
f 634 642 643
f 589 644 645
f 644 646 647
f 648 646 649
f 589 645 590
f 644 647 645
f 647 646 648
f 644 597 650
f 589 597 644
f 597 594 650
f 650 651 646
f 644 650 646
f 650 594 651
f 651 594 652
f 652 594 653
f 651 652 649
f 651 649 646
f 652 654 649
f 652 653 654
f 653 655 656
f 653 656 654
f 649 654 657
f 653 594 655
f 655 594 658
f 658 594 659
f 659 594 660
f 660 594 661
f 648 649 657
f 655 662 656
f 654 656 663
f 656 662 664
f 655 658 662
f 658 659 665
f 658 665 662
f 659 660 666
f 660 661 667
f 659 666 665
f 660 667 666
f 662 665 668
f 665 666 669
f 666 667 670
f 654 663 657
f 656 664 663
f 662 668 664
f 665 669 668
f 666 670 669
f 590 645 671
f 590 671 607
f 645 672 671
f 645 647 672
f 647 648 673
f 647 673 672
f 648 657 674
f 648 674 673
f 657 675 674
f 657 663 675
f 663 664 676
f 664 668 677
f 663 676 675
f 664 677 676
f 668 669 678
f 669 670 679
f 668 678 677
f 669 679 678
f 594 680 681
f 594 628 682
f 594 682 683
f 628 631 682
f 594 683 680
f 682 684 683
f 683 684 685
f 594 686 687
f 594 681 688
f 594 688 689
f 594 689 686
f 594 687 661
f 683 685 680
f 681 680 690
f 680 685 690
f 681 691 688
f 681 690 691
f 682 631 684
f 631 634 684
f 684 692 685
f 690 685 693
f 690 694 691
f 684 634 692
f 685 692 693
f 690 693 694
f 661 687 695
f 689 696 686
f 687 686 697
f 661 695 667
f 687 697 695
f 686 696 697
f 689 688 698
f 688 691 698
f 689 698 696
f 691 699 698
f 697 696 700
f 698 701 696
f 667 695 702
f 695 697 703
f 698 699 701
f 696 701 700
f 695 703 702
f 667 702 670
f 697 700 703
f 691 694 699
f 634 643 692
f 692 704 693
f 692 643 704
f 693 705 694
f 693 704 705
f 694 705 706
f 670 702 707
f 702 703 708
f 702 708 707
f 701 709 700
f 700 710 703
f 700 709 710
f 703 710 708
f 694 706 699
f 701 699 711
f 699 706 711
f 701 711 709
f 598 712 600
f 598 599 713
f 598 713 712
f 601 714 602
f 600 715 601
f 602 714 716
f 601 715 714
f 602 716 603
f 603 717 604
f 603 716 717
f 717 718 604
f 600 712 715
f 714 719 716
f 717 720 718
f 716 721 717
f 714 715 722
f 712 723 715
f 599 605 724
f 599 724 713
f 605 725 724
f 605 606 725
f 606 607 726
f 606 726 725
f 712 713 727
f 713 724 728
f 724 725 729
f 725 726 730
f 716 719 721
f 717 721 720
f 720 731 718
f 715 732 733
f 715 733 722
f 714 722 719
f 719 722 734
f 715 723 732
f 712 727 723
f 723 735 732
f 723 736 735
f 722 733 734
f 719 734 737
f 720 721 738
f 719 737 721
f 721 737 738
f 720 738 739
f 720 740 731
f 720 739 741
f 720 741 742
f 720 742 740
f 713 728 727
f 724 729 728
f 728 729 743
f 725 730 729
f 723 727 736
f 727 744 736
f 728 744 727
f 728 743 744
f 742 741 745
f 742 746 740
f 729 747 743
f 729 730 748
f 749 750 747
f 751 752 750
f 729 749 747
f 729 748 749
f 751 750 749
f 751 753 752
f 742 745 746
f 746 745 753
f 751 749 746
f 749 748 746
f 751 746 753
f 604 718 635
f 635 754 636
f 635 718 754
f 636 754 755
f 636 755 637
f 637 756 638
f 637 755 756
f 638 756 757
f 718 731 754
f 754 758 755
f 755 759 756
f 756 760 757
f 757 761 762
f 638 757 639
f 639 762 640
f 639 757 762
f 640 762 763
f 764 763 762
f 640 763 641
f 641 765 642
f 641 763 765
f 642 765 766
f 766 767 643
f 642 766 643
f 763 768 765
f 765 769 766
f 766 770 767
f 754 731 758
f 755 758 759
f 756 759 760
f 731 771 758
f 758 772 759
f 759 773 760
f 731 740 771
f 758 771 772
f 759 772 773
f 757 760 761
f 760 774 761
f 761 764 762
f 760 773 774
f 740 746 771
f 771 746 772
f 772 746 773
f 761 775 764
f 764 776 768
f 768 777 769
f 761 774 775
f 764 775 776
f 768 776 777
f 773 746 774
f 774 746 775
f 775 746 776
f 776 746 777
f 777 746 778
f 778 746 779
f 779 746 780
f 769 777 778
f 770 778 779
f 781 779 780
f 764 768 763
f 765 768 769
f 769 778 770
f 766 769 770
f 770 779 781
f 770 781 767
f 607 671 782
f 607 782 726
f 671 783 782
f 671 672 783
f 672 673 784
f 672 784 783
f 726 782 785
f 782 783 786
f 783 784 787
f 673 674 788
f 673 788 784
f 674 789 788
f 784 788 790
f 674 675 789
f 675 676 791
f 676 677 792
f 675 791 789
f 676 792 791
f 677 678 793
f 677 793 792
f 793 678 794
f 788 789 795
f 789 791 796
f 791 792 797
f 792 793 798
f 793 794 799
f 726 785 730
f 782 786 785
f 783 787 786
f 787 784 790
f 730 785 800
f 785 786 801
f 730 800 748
f 785 801 800
f 786 802 801
f 748 800 746
f 800 801 746
f 801 802 746
f 802 803 746
f 803 804 746
f 804 805 746
f 786 787 802
f 787 790 803
f 787 803 802
f 790 804 803
f 805 806 746
f 806 807 746
f 795 805 804
f 788 795 790
f 790 795 804
f 795 796 805
f 789 796 795
f 796 797 806
f 797 798 807
f 798 799 808
f 796 806 805
f 797 807 806
f 798 808 807
f 791 797 796
f 792 798 797
f 793 799 798
f 704 809 705
f 704 767 809
f 643 767 704
f 705 810 706
f 705 809 810
f 706 810 811
f 767 781 809
f 809 812 810
f 810 813 811
f 708 814 707
f 794 679 815
f 815 707 814
f 710 709 816
f 708 710 817
f 710 816 817
f 708 817 814
f 794 815 818
f 815 814 819
f 817 820 814
f 816 821 817
f 706 811 711
f 711 822 709
f 711 811 822
f 709 822 816
f 823 822 811
f 816 822 824
f 746 825 780
f 746 826 827
f 746 827 825
f 746 828 826
f 812 780 825
f 827 826 829
f 825 827 830
f 827 829 830
f 825 830 831
f 812 825 831
f 807 808 746
f 746 808 832
f 746 833 828
f 746 832 833
f 833 834 828
f 823 835 836
f 781 780 812
f 809 781 812
f 812 831 837
f 812 837 813
f 813 837 835
f 813 835 823
f 810 812 813
f 813 823 811
f 823 836 824
f 799 818 832
f 818 838 839
f 819 840 838
f 819 838 818
f 818 833 832
f 799 832 808
f 818 834 833
f 818 839 834
f 824 836 841
f 821 842 843
f 824 841 844
f 817 821 820
f 820 843 840
f 820 821 843
f 820 840 819
f 816 824 844
f 816 844 842
f 816 842 821
f 815 819 818
f 794 818 799
f 814 820 819
f 823 824 822
f 670 707 679
f 794 678 679
f 815 679 707
f 845 733 732
f 845 732 735
f 845 735 736
f 846 734 733
f 846 737 734
f 846 738 737
f 846 739 738
f 846 741 739
f 845 736 744
f 845 744 743
f 847 745 741
f 848 743 747
f 848 747 750
f 848 750 752
f 848 752 753
f 847 753 745
f 845 846 733
f 845 743 848
f 846 847 741
f 848 753 847
f 845 848 847
f 845 847 846
f 849 829 826
f 849 830 829
f 849 831 830
f 849 837 831
f 850 826 828
f 850 828 834
f 851 835 837
f 852 834 839
f 852 839 838
f 852 838 840
f 852 843 842
f 852 840 843
f 851 836 835
f 851 841 836
f 851 844 841
f 851 842 844
f 850 849 826
f 850 834 852
f 849 851 837
f 850 851 849
f 850 852 851
f 852 842 851
f 853 854 855
f 856 857 858
f 858 857 859
f 856 860 857
f 861 862 863
f 864 860 865
f 857 864 866
f 859 861 863
f 859 857 866
f 859 866 861
f 857 860 864
f 867 863 868
f 867 858 859
f 868 869 870
f 867 859 863
f 868 863 869
f 870 869 871
f 870 871 872
f 872 873 874
f 874 875 876
f 876 877 878
f 872 871 873
f 874 873 875
f 876 875 877
f 871 879 855
f 863 862 869
f 869 862 879
f 869 879 871
f 873 855 880
f 871 855 873
f 873 880 875
f 875 881 877
f 875 880 881
f 856 882 860
f 882 883 884
f 883 885 886
f 882 884 860
f 883 886 884
f 885 887 888
f 887 889 890
f 885 891 887
f 887 891 889
f 885 888 886
f 887 890 888
f 884 892 865
f 886 892 884
f 886 893 892
f 860 884 865
f 886 888 893
f 888 894 893
f 888 890 894
f 868 870 891
f 856 858 891
f 856 891 882
f 867 891 858
f 867 868 891
f 870 872 891
f 872 874 891
f 874 876 891
f 876 878 891
f 891 878 895
f 882 891 883
f 883 891 885
f 891 895 896
f 891 896 897
f 861 898 862
f 861 866 899
f 864 900 866
f 864 865 901
f 862 898 902
f 861 899 898
f 866 900 899
f 864 901 900
f 862 902 879
f 853 855 879
f 854 880 855
f 903 881 880
f 853 879 902
f 854 903 880
f 903 904 881
f 865 892 905
f 892 893 906
f 893 894 907
f 865 905 901
f 892 906 905
f 893 907 906
f 878 877 908
f 881 909 877
f 877 909 908
f 908 909 910
f 908 910 911
f 910 912 911
f 912 913 914
f 878 908 895
f 895 911 896
f 896 914 897
f 895 908 911
f 896 911 914
f 897 914 915
f 897 915 916
f 891 897 916
f 891 916 917
f 916 918 917
f 916 915 918
f 917 918 919
f 912 914 911
f 914 913 915
f 915 913 920
f 915 920 918
f 918 920 921
f 918 921 919
f 919 921 922
f 881 904 909
f 909 923 910
f 910 924 912
f 912 925 913
f 909 904 923
f 910 923 924
f 912 924 925
f 913 925 926
f 913 926 920
f 920 927 921
f 921 928 922
f 920 926 927
f 921 927 928
f 922 928 929
f 889 930 931
f 889 891 930
f 891 932 930
f 930 932 933
f 889 931 890
f 930 933 931
f 932 934 935
f 934 936 937
f 936 938 939
f 932 935 933
f 934 937 935
f 936 939 937
f 890 940 894
f 890 931 940
f 931 941 940
f 931 933 941
f 933 935 942
f 933 942 941
f 935 943 942
f 935 937 943
f 891 934 932
f 891 936 934
f 891 938 936
f 891 944 945
f 891 945 946
f 891 946 947
f 891 948 938
f 891 949 948
f 891 950 949
f 891 951 950
f 938 948 952
f 891 953 951
f 891 954 953
f 891 955 954
f 891 947 955
f 938 952 939
f 937 939 956
f 937 956 943
f 939 957 956
f 939 952 957
f 952 958 957
f 948 949 959
f 949 950 960
f 950 951 961
f 948 959 952
f 949 960 959
f 950 961 960
f 951 953 962
f 955 963 954
f 953 954 964
f 954 963 964
f 951 962 961
f 953 964 962
f 952 959 958
f 959 960 965
f 959 965 958
f 960 961 966
f 960 966 965
f 961 962 967
f 961 967 966
f 962 964 968
f 962 968 967
f 894 940 969
f 940 941 970
f 941 942 971
f 894 969 907
f 940 970 969
f 941 971 970
f 942 943 972
f 943 956 973
f 956 957 974
f 957 958 975
f 942 972 971
f 943 973 972
f 956 974 973
f 957 975 974
f 958 965 976
f 965 966 977
f 967 978 966
f 967 968 979
f 958 976 975
f 965 977 976
f 966 978 977
f 967 979 978
f 891 917 980
f 891 980 944
f 917 919 980
f 980 981 944
f 944 982 945
f 980 919 981
f 944 981 982
f 945 983 946
f 946 984 947
f 955 947 985
f 945 982 983
f 947 984 985
f 946 983 984
f 919 922 981
f 922 986 981
f 981 986 982
f 982 986 987
f 983 988 984
f 982 987 983
f 983 987 988
f 955 985 963
f 984 989 985
f 985 989 990
f 985 990 963
f 964 963 991
f 963 990 991
f 984 988 989
f 964 991 968
f 922 929 986
f 986 992 987
f 987 993 988
f 986 929 992
f 987 992 993
f 988 993 994
f 988 994 989
f 990 989 995
f 968 991 996
f 990 997 991
f 989 994 995
f 990 995 997
f 991 997 996
f 968 996 979
f 853 998 854
f 854 999 903
f 902 898 1000
f 898 899 1001
f 899 900 1002
f 900 901 1003
f 902 1000 1004
f 898 1001 1000
f 1001 1005 1000
f 1000 1006 1004
f 900 1003 1002
f 1002 1003 1007
f 899 1002 1001
f 1001 1002 1008
f 853 902 1004
f 903 1009 904
f 853 1004 998
f 854 998 999
f 1004 1010 998
f 998 1011 999
f 903 999 1009
f 1009 1012 904
f 999 1013 1009
f 1009 1014 1012
f 901 905 1015
f 905 906 1016
f 906 907 1017
f 901 1015 1003
f 905 1016 1015
f 1003 1015 1018
f 906 1017 1016
f 1015 1016 1019
f 1016 1017 1020
f 1002 1007 1008
f 1001 1008 1005
f 1000 1005 1006
f 1005 1021 1006
f 999 1011 1013
f 998 1010 1011
f 1006 1010 1004
f 1009 1013 1014
f 1012 1014 1022
f 1006 1023 1010
f 1010 1024 1011
f 1011 1025 1013
f 1010 1023 1024
f 1013 1025 1026
f 1011 1024 1025
f 1013 1026 1014
f 1014 1027 1022
f 1022 1028 1029
f 1014 1026 1027
f 1022 1027 1028
f 1028 1030 1029
f 1030 1031 1029
f 1003 1018 1007
f 1015 1019 1018
f 1008 1007 1032
f 1005 1008 1033
f 1005 1033 1021
f 1007 1018 1034
f 1008 1032 1033
f 1007 1034 1032
f 1016 1020 1019
f 1019 1020 1035
f 1018 1019 1036
f 1018 1036 1034
f 1019 1035 1036
f 1020 1037 1035
f 1006 1021 1023
f 1023 1038 1024
f 1024 1038 1025
f 1025 1038 1026
f 1030 1039 1031
f 1026 1038 1027
f 1027 1038 1028
f 1028 1038 1030
f 1030 1040 1039
f 1040 1041 1039
f 1021 1033 1038
f 1032 1034 1038
f 1032 1038 1033
f 1023 1021 1038
f 1034 1036 1038
f 1036 1035 1038
f 1035 1042 1038
f 1030 1038 1040
f 1040 1043 1041
f 1040 1038 1043
f 1038 1044 1043
f 1012 923 904
f 923 1045 924
f 924 1046 925
f 925 1047 926
f 1012 1045 923
f 924 1045 1046
f 1012 1022 1045
f 1045 1029 1046
f 1046 1048 1047
f 925 1046 1047
f 926 1047 1049
f 1047 1050 1049
f 926 1049 927
f 927 1051 928
f 928 1052 929
f 927 1049 1051
f 1049 1053 1051
f 1051 1054 1052
f 928 1051 1052
f 929 1052 1055
f 1052 1056 1055
f 1022 1029 1045
f 1046 1029 1048
f 1047 1048 1050
f 1029 1057 1048
f 1029 1031 1057
f 1048 1057 1050
f 1049 1050 1058
f 1050 1059 1058
f 1050 1057 1060
f 1050 1060 1059
f 1049 1058 1061
f 1049 1061 1053
f 1051 1053 1054
f 1054 1053 1062
f 1044 1063 1043
f 1044 1064 1063
f 1064 1065 1063
f 1052 1054 1056
f 1055 1056 1064
f 1054 1062 1066
f 1054 1066 1056
f 1056 1066 1065
f 1056 1065 1064
f 907 969 1067
f 969 970 1068
f 970 971 1069
f 907 1067 1017
f 969 1068 1067
f 1017 1067 1070
f 1067 1068 1071
f 970 1069 1068
f 1068 1069 1072
f 971 972 1073
f 972 973 1074
f 973 974 1075
f 974 975 1076
f 971 1073 1069
f 972 1074 1073
f 1069 1073 1077
f 1073 1074 1078
f 1074 1075 1079
f 973 1075 1074
f 974 1076 1075
f 1075 1076 1080
f 975 976 1081
f 976 977 1082
f 977 978 1083
f 978 979 1084
f 975 1081 1076
f 976 1082 1081
f 1076 1081 1085
f 1081 1082 1086
f 977 1083 1082
f 978 1084 1083
f 1084 1087 1083
f 1082 1083 1088
f 1017 1070 1020
f 1067 1071 1070
f 1020 1070 1089
f 1070 1090 1089
f 1070 1071 1090
f 1071 1091 1090
f 1020 1089 1037
f 1035 1037 1042
f 1068 1072 1071
f 1069 1092 1072
f 1069 1093 1092
f 1069 1077 1093
f 1071 1072 1091
f 1077 1094 1093
f 1077 1095 1094
f 1038 1042 1096
f 1096 1042 1097
f 1038 1096 1098
f 1038 1098 1099
f 1038 1100 1044
f 1038 1101 1100
f 1038 1102 1101
f 1038 1103 1104
f 1038 1105 1103
f 1038 1106 1102
f 1038 1104 1106
f 1096 1097 1107
f 1096 1107 1098
f 1038 1099 1108
f 1038 1108 1109
f 1098 1110 1079
f 1098 1079 1099
f 1098 1107 1110
f 1038 1109 1111
f 1038 1111 1105
f 1103 1105 1087
f 1104 1103 1112
f 1073 1078 1077
f 1074 1079 1078
f 1077 1078 1095
f 1078 1113 1095
f 1079 1110 1113
f 1078 1079 1113
f 1075 1080 1079
f 1099 1079 1080
f 1099 1080 1108
f 1108 1085 1109
f 1108 1080 1085
f 1109 1085 1086
f 1111 1109 1086
f 1111 1088 1105
f 1103 1087 1112
f 1111 1086 1088
f 1105 1088 1087
f 1076 1085 1080
f 1081 1086 1085
f 1082 1088 1086
f 1083 1087 1088
f 929 1055 992
f 992 1114 993
f 993 1115 994
f 1055 1114 992
f 1055 1064 1114
f 1114 1116 1115
f 993 1114 1115
f 994 1115 1117
f 1115 1118 1117
f 1117 1119 1120
f 994 1117 995
f 995 1120 997
f 997 1121 996
f 996 1122 979
f 1121 1120 1123
f 1121 1124 1122
f 995 1117 1120
f 997 1120 1121
f 996 1121 1122
f 1084 979 1122
f 1084 1122 1112
f 1044 1100 1116
f 1101 1102 1119
f 1100 1101 1118
f 1100 1118 1116
f 1064 1116 1114
f 1115 1116 1118
f 1044 1116 1064
f 1106 1123 1102
f 1101 1119 1118
f 1102 1123 1119
f 1106 1104 1124
f 1106 1124 1123
f 1117 1118 1119
f 1121 1123 1124
f 1122 1124 1112
f 1104 1112 1124
f 1119 1123 1120
f 1084 1112 1087
f 1125 1089 1090
f 1125 1090 1091
f 1125 1091 1072
f 1126 1037 1089
f 1127 1092 1093
f 1127 1072 1092
f 1127 1093 1094
f 1127 1094 1095
f 1127 1095 1113
f 1126 1042 1037
f 1128 1113 1110
f 1128 1097 1042
f 1128 1107 1097
f 1128 1110 1107
f 1125 1126 1089
f 1125 1072 1127
f 1127 1113 1128
f 1125 1128 1126
f 1125 1127 1128
f 1126 1128 1042
f 1129 1057 1031
f 1129 1031 1039
f 1129 1039 1041
f 1129 1041 1043
f 1130 1043 1063
f 1129 1043 1130
f 1131 1060 1057
f 1131 1059 1060
f 1131 1061 1058
f 1131 1058 1059
f 1131 1053 1061
f 1130 1063 1065
f 1132 1062 1053
f 1132 1066 1062
f 1132 1065 1066
f 1129 1131 1057
f 1131 1132 1053
f 1130 1065 1132
f 1129 1132 1131
f 1129 1130 1132
