# sionna2 mesh — mini2__gear.obj
# group=gear  verts=260  tris=512
v 0.044151 0.093331 -0.015863
v 0.045111 0.094432 -0.020218
v 0.045401 0.093504 -0.020414
v 0.044550 0.094374 -0.015551
v 0.044483 0.092266 -0.016088
v 0.042230 0.091131 -0.007153
v 0.043565 0.091028 -0.011762
v 0.042648 0.089790 -0.007436
v 0.043190 0.092231 -0.011508
v 0.042732 0.092443 -0.006761
v 0.043641 0.093409 -0.011156
v 0.045416 0.091598 -0.016137
v 0.044619 0.090273 -0.011818
v 0.044213 0.094538 -0.010800
v 0.045056 0.095374 -0.015236
v 0.043822 0.088949 -0.007498
v 0.043369 0.093703 -0.006364
v 0.045160 0.095352 -0.010476
v 0.044425 0.094609 -0.006003
v 0.045792 0.089679 -0.011818
v 0.045130 0.088286 -0.007498
v 0.041269 0.090031 -0.002799
v 0.040309 0.088931 0.001556
v 0.041730 0.088552 -0.003111
v 0.040914 0.090513 0.002030
v 0.041823 0.091478 -0.002365
v 0.040813 0.087314 0.001215
v 0.043025 0.087624 -0.003179
v 0.041682 0.092031 0.002508
v 0.042526 0.092867 -0.001928
v 0.039348 0.087830 0.005911
v 0.040005 0.089548 0.006425
v 0.039895 0.086076 0.005541
v 0.040839 0.091195 0.006944
v 0.042228 0.086299 0.001140
v 0.041432 0.084975 0.005460
v 0.044472 0.087811 0.006557
v 0.042221 0.092381 0.007417
v 0.043690 0.093867 -0.001529
v 0.044467 0.086894 -0.003179
v 0.045251 0.093827 -0.001341
v 0.043805 0.085501 0.001140
v 0.045924 0.086202 -0.003168
v 0.042955 0.093124 0.002944
v 0.043143 0.084108 0.005460
v 0.044073 0.092334 0.007640
v 0.045398 0.084744 0.001153
v 0.044662 0.093081 0.003149
v 0.044871 0.083287 0.005473
v 0.045801 0.091513 0.007654
v 0.046318 0.094742 -0.024739
v 0.045459 0.095339 -0.019946
v 0.046072 0.095532 -0.024573
v 0.046368 0.096305 -0.024341
v 0.047010 0.094247 -0.024776
v 0.045900 0.096210 -0.019672
v 0.046213 0.092922 -0.020456
v 0.046743 0.097046 -0.024108
v 0.046630 0.096837 -0.019422
v 0.047117 0.092464 -0.020456
v 0.045895 0.096095 -0.014949
v 0.046455 0.091072 -0.016137
v 0.048378 0.095523 -0.024282
v 0.047780 0.093857 -0.024776
v 0.047365 0.097580 -0.023895
v 0.048557 0.093487 -0.024770
v 0.047609 0.096812 -0.019304
v 0.048198 0.097559 -0.023795
v 0.047019 0.096066 -0.014813
v 0.048031 0.092030 -0.020449
v 0.047504 0.090573 -0.016129
v 0.046430 0.095320 -0.010323
v 0.046978 0.089116 -0.011808
v 0.045841 0.094573 -0.005832
v 0.046451 0.087659 -0.007488
v 0.048629 0.090544 -0.015993
v 0.048069 0.095567 -0.014805
v 0.047615 0.094757 -0.010313
v 0.047162 0.093946 -0.005821
v 0.048248 0.089084 -0.011655
v 0.047866 0.087623 -0.007317
v 0.048976 0.097189 -0.023788
v 0.048522 0.096378 -0.019297
v 0.049391 0.093466 -0.024669
v 0.049746 0.096799 -0.023788
v 0.050013 0.094000 -0.024456
v 0.049010 0.092005 -0.020331
v 0.049427 0.095920 -0.019297
v 0.049740 0.092632 -0.020081
v 0.049108 0.095041 -0.014805
v 0.050388 0.094741 -0.024223
v 0.050437 0.096304 -0.023825
v 0.050684 0.095514 -0.023991
v 0.050239 0.095338 -0.019339
v 0.050181 0.093503 -0.019807
v 0.050528 0.094411 -0.019535
v 0.049467 0.091265 -0.015706
v 0.050041 0.094373 -0.014854
v 0.049974 0.092265 -0.015391
v 0.050373 0.093308 -0.015079
v 0.048789 0.094162 -0.010313
v 0.049195 0.089897 -0.011331
v 0.048469 0.093283 -0.005821
v 0.049842 0.093407 -0.010369
v 0.049767 0.091027 -0.010975
v 0.050217 0.092204 -0.010623
v 0.048922 0.088529 -0.006956
v 0.049644 0.092442 -0.005883
v 0.049560 0.089789 -0.006559
v 0.050062 0.091101 -0.006166
v 0.046708 0.093135 -0.001330
v 0.047485 0.086162 -0.002979
v 0.048150 0.092405 -0.001330
v 0.047104 0.084701 0.001359
v 0.048650 0.087162 -0.002581
v 0.046255 0.092324 0.003162
v 0.046723 0.083240 0.005697
v 0.047512 0.090647 0.007654
v 0.047831 0.091526 0.003162
v 0.048377 0.085794 0.001794
v 0.048105 0.084426 0.006170
v 0.049049 0.089546 0.007573
v 0.048939 0.086074 0.006689
v 0.049596 0.087791 0.007202
v 0.049445 0.091477 -0.001398
v 0.049353 0.088550 -0.002143
v 0.049907 0.089998 -0.001710
v 0.049146 0.087312 0.002273
v 0.049247 0.090511 0.003088
v 0.049751 0.088894 0.002746
v 0.044216 -0.092779 -0.015993
v 0.045168 -0.093951 -0.020331
v 0.045241 -0.094911 -0.020081
v 0.044300 -0.093882 -0.015706
v 0.044904 -0.091890 -0.016129
v 0.045682 -0.095782 -0.019807
v 0.044807 -0.094882 -0.015391
v 0.042312 -0.090436 -0.007317
v 0.043264 -0.091608 -0.011655
v 0.043359 -0.092853 -0.011331
v 0.042418 -0.091824 -0.006956
v 0.043931 -0.093982 -0.010975
v 0.043178 -0.089316 -0.007488
v 0.044041 -0.090603 -0.011808
v 0.045411 -0.095820 -0.015079
v 0.045196 -0.089981 -0.011818
v 0.043055 -0.093083 -0.006559
v 0.044614 -0.095042 -0.010623
v 0.044466 -0.088623 -0.007498
v 0.043816 -0.094264 -0.006166
v 0.045806 -0.095452 -0.010369
v 0.041360 -0.089264 -0.002979
v 0.040407 -0.088093 0.001359
v 0.041476 -0.090795 -0.002581
v 0.040535 -0.089766 0.001794
v 0.042180 -0.092183 -0.002143
v 0.042315 -0.088029 -0.003168
v 0.041452 -0.086743 0.001153
v 0.041304 -0.091284 0.002273
v 0.043019 -0.093486 -0.001710
v 0.039455 -0.086921 0.005697
v 0.039594 -0.088737 0.006170
v 0.040589 -0.085456 0.005473
v 0.040428 -0.090384 0.006689
v 0.042222 -0.092708 0.002746
v 0.041424 -0.091930 0.007202
v 0.042274 -0.084548 0.005460
v 0.044472 -0.087811 0.006557
v 0.043735 -0.087264 -0.003179
v 0.043004 -0.085906 0.001140
v 0.045145 -0.094721 -0.005883
v 0.045177 -0.086534 -0.003179
v 0.044484 -0.093989 -0.001398
v 0.044581 -0.085108 0.001140
v 0.043823 -0.093258 0.003088
v 0.043162 -0.092527 0.007573
v 0.043985 -0.083682 0.005460
v 0.045998 -0.093494 -0.001330
v 0.045479 -0.092717 0.003162
v 0.044959 -0.091940 0.007654
v 0.045782 -0.083094 0.005541
v 0.045767 -0.093177 -0.020449
v 0.046120 -0.095123 -0.024669
v 0.046183 -0.095940 -0.024456
v 0.046558 -0.096681 -0.024223
v 0.046630 -0.094463 -0.024770
v 0.047006 -0.097377 -0.023991
v 0.046658 -0.092697 -0.020456
v 0.046209 -0.096598 -0.019535
v 0.045927 -0.091339 -0.016137
v 0.047128 -0.096914 -0.019339
v 0.048378 -0.095523 -0.024282
v 0.047389 -0.094055 -0.024776
v 0.047788 -0.097645 -0.023825
v 0.047562 -0.092239 -0.020456
v 0.048159 -0.093665 -0.024776
v 0.048597 -0.097381 -0.023788
v 0.046966 -0.090813 -0.016137
v 0.046467 -0.096183 -0.014854
v 0.048077 -0.096604 -0.019297
v 0.048057 -0.090456 -0.016088
v 0.046370 -0.089386 -0.011818
v 0.045774 -0.087960 -0.007498
v 0.047038 -0.095049 -0.010313
v 0.047147 -0.087511 -0.007436
v 0.047558 -0.095826 -0.014805
v 0.047602 -0.088984 -0.011762
v 0.048596 -0.095300 -0.014805
v 0.046518 -0.094272 -0.005821
v 0.048211 -0.094455 -0.010313
v 0.048475 -0.087968 -0.007153
v 0.048967 -0.093401 -0.024739
v 0.048512 -0.091928 -0.020414
v 0.049367 -0.096991 -0.023788
v 0.049749 -0.093669 -0.024573
v 0.048982 -0.096146 -0.019297
v 0.049431 -0.092244 -0.020218
v 0.049112 -0.090819 -0.015863
v 0.049872 -0.095666 -0.019304
v 0.050125 -0.096583 -0.023795
v 0.050197 -0.094365 -0.024341
v 0.050573 -0.095106 -0.024108
v 0.050635 -0.095923 -0.023895
v 0.049957 -0.093061 -0.019946
v 0.050471 -0.094892 -0.019422
v 0.050398 -0.093932 -0.019672
v 0.049717 -0.091757 -0.015551
v 0.050223 -0.092757 -0.015236
v 0.049619 -0.094749 -0.014813
v 0.050308 -0.093860 -0.014949
v 0.048794 -0.089393 -0.011508
v 0.049477 -0.090453 -0.011156
v 0.047826 -0.093609 -0.005821
v 0.049366 -0.093832 -0.010323
v 0.049236 -0.089149 -0.006761
v 0.050049 -0.091583 -0.010800
v 0.050144 -0.092828 -0.010476
v 0.049113 -0.092916 -0.005832
v 0.049874 -0.090408 -0.006364
v 0.049980 -0.091796 -0.006003
v 0.046692 -0.086039 -0.003111
v 0.046237 -0.084567 0.001215
v 0.047441 -0.092764 -0.001330
v 0.048157 -0.086543 -0.002799
v 0.047838 -0.085117 0.001556
v 0.046670 -0.091073 0.007654
v 0.047055 -0.091919 0.003162
v 0.047520 -0.083692 0.005911
v 0.048861 -0.091999 -0.001341
v 0.048355 -0.090165 0.007640
v 0.048515 -0.085237 0.006425
v 0.048608 -0.091082 0.003149
v 0.049488 -0.088700 0.007417
v 0.049350 -0.086885 0.006944
v 0.048996 -0.087845 -0.002365
v 0.048756 -0.086541 0.002030
v 0.049699 -0.089234 -0.001928
v 0.049816 -0.090764 -0.001529
v 0.049524 -0.088059 0.002508
v 0.049652 -0.089732 0.002944
f 1 2 3
f 4 2 1
f 1 3 5
f 6 7 8
f 6 9 7
f 10 11 9
f 9 1 5
f 11 1 9
f 9 5 7
f 11 4 1
f 7 5 12
f 7 12 13
f 14 15 4
f 14 4 11
f 8 7 13
f 8 13 16
f 17 14 11
f 18 15 14
f 19 18 14
f 16 13 20
f 16 20 21
f 22 6 8
f 23 22 24
f 25 26 22
f 26 6 22
f 22 8 24
f 27 24 28
f 29 30 26
f 31 23 27
f 32 25 23
f 31 27 33
f 32 23 31
f 34 25 32
f 25 22 23
f 23 24 27
f 29 26 25
f 33 27 35
f 27 28 35
f 33 35 36
f 34 29 25
f 37 31 33
f 37 32 31
f 38 29 34
f 37 34 32
f 37 33 36
f 10 9 6
f 26 10 6
f 24 8 16
f 24 16 28
f 30 17 10
f 17 11 10
f 30 10 26
f 39 17 30
f 35 28 40
f 19 14 17
f 39 19 17
f 28 16 21
f 28 21 40
f 41 19 39
f 42 40 43
f 44 30 29
f 36 35 42
f 44 39 30
f 35 40 42
f 36 42 45
f 38 44 29
f 37 38 34
f 37 36 45
f 46 44 38
f 37 46 38
f 45 42 47
f 48 39 44
f 48 41 39
f 37 45 49
f 46 48 44
f 45 47 49
f 37 50 46
f 50 48 46
f 2 51 3
f 52 53 2
f 2 53 51
f 52 54 53
f 3 51 55
f 56 54 52
f 3 55 57
f 56 58 54
f 59 58 56
f 5 3 57
f 4 52 2
f 15 52 4
f 15 56 52
f 5 57 12
f 12 57 60
f 61 59 56
f 12 60 62
f 51 53 63
f 53 54 63
f 57 55 64
f 59 65 58
f 57 64 60
f 55 51 63
f 54 58 63
f 58 65 63
f 64 55 63
f 60 64 66
f 67 65 59
f 67 68 65
f 69 67 59
f 62 60 70
f 62 70 71
f 13 12 62
f 61 56 15
f 13 62 20
f 18 61 15
f 72 61 18
f 21 20 73
f 74 72 18
f 21 73 75
f 20 62 71
f 69 59 61
f 20 71 73
f 72 69 61
f 73 71 76
f 77 67 69
f 78 77 69
f 78 69 72
f 79 78 72
f 75 73 80
f 75 80 81
f 65 68 63
f 66 64 63
f 68 82 63
f 60 66 70
f 83 68 67
f 84 66 63
f 70 66 84
f 82 85 63
f 86 84 63
f 83 82 68
f 70 84 87
f 88 82 83
f 71 70 87
f 77 83 67
f 71 87 76
f 76 87 89
f 90 88 83
f 91 86 63
f 85 92 63
f 87 84 86
f 93 91 63
f 92 93 63
f 88 85 82
f 87 86 89
f 94 85 88
f 89 86 91
f 94 92 85
f 89 91 95
f 95 91 93
f 96 93 92
f 95 93 96
f 96 92 94
f 76 89 97
f 97 89 95
f 98 94 88
f 97 95 99
f 99 95 96
f 99 96 100
f 100 96 94
f 73 76 80
f 90 83 77
f 80 76 97
f 101 90 77
f 80 97 102
f 101 77 78
f 81 80 102
f 103 101 78
f 104 90 101
f 98 88 90
f 102 97 99
f 104 98 90
f 100 94 98
f 105 99 100
f 106 100 98
f 102 99 105
f 107 102 105
f 108 104 101
f 109 105 106
f 105 100 106
f 106 98 104
f 110 106 104
f 74 18 19
f 40 21 75
f 40 75 43
f 41 74 19
f 111 74 41
f 47 43 112
f 79 72 74
f 43 75 81
f 103 78 79
f 111 79 74
f 43 81 112
f 113 79 111
f 114 112 115
f 42 43 47
f 116 41 48
f 49 47 114
f 116 111 41
f 37 49 117
f 50 116 48
f 49 114 117
f 37 118 50
f 47 112 114
f 119 111 116
f 117 114 120
f 119 113 111
f 37 117 121
f 118 116 50
f 37 122 118
f 117 120 121
f 118 119 116
f 37 121 123
f 37 123 124
f 37 124 122
f 112 81 107
f 81 102 107
f 108 101 103
f 115 107 109
f 113 103 79
f 112 107 115
f 125 103 113
f 115 109 126
f 125 108 103
f 120 115 126
f 107 105 109
f 109 106 110
f 110 104 108
f 126 109 110
f 127 110 108
f 127 108 125
f 126 110 127
f 128 126 127
f 114 115 120
f 121 120 128
f 129 113 119
f 129 125 113
f 120 126 128
f 122 119 118
f 122 129 119
f 121 128 123
f 130 125 129
f 128 127 130
f 130 127 125
f 123 128 130
f 124 130 129
f 123 130 124
f 124 129 122
f 131 132 133
f 131 133 134
f 135 132 131
f 134 136 137
f 138 139 140
f 141 140 142
f 143 139 138
f 143 144 139
f 139 131 134
f 139 134 140
f 144 131 139
f 140 134 137
f 144 135 131
f 142 137 145
f 146 135 144
f 140 137 142
f 147 142 148
f 149 144 143
f 142 145 148
f 149 146 144
f 150 148 151
f 152 138 141
f 153 152 154
f 155 154 156
f 152 141 154
f 157 138 152
f 158 157 152
f 159 156 160
f 161 153 155
f 162 155 159
f 161 155 162
f 163 153 161
f 162 159 164
f 153 154 155
f 158 152 153
f 155 156 159
f 163 158 153
f 159 160 165
f 164 165 166
f 164 159 165
f 167 158 163
f 168 161 162
f 168 162 164
f 168 163 161
f 168 164 166
f 138 140 141
f 154 141 147
f 157 143 138
f 141 142 147
f 156 147 150
f 169 143 157
f 154 147 156
f 156 150 160
f 170 169 157
f 147 148 150
f 169 149 143
f 160 150 171
f 150 151 171
f 172 149 169
f 160 171 173
f 174 172 169
f 170 157 158
f 167 170 158
f 165 160 173
f 165 173 175
f 166 165 175
f 168 167 163
f 166 175 176
f 168 166 176
f 177 170 167
f 168 177 167
f 174 169 170
f 177 174 170
f 175 173 178
f 176 175 179
f 168 176 180
f 176 179 180
f 181 174 177
f 168 181 177
f 182 183 132
f 132 184 133
f 132 183 184
f 133 184 185
f 182 186 183
f 133 185 136
f 136 185 187
f 188 186 182
f 136 187 189
f 135 182 132
f 134 133 136
f 137 136 189
f 137 189 145
f 190 182 135
f 190 188 182
f 145 189 191
f 184 183 192
f 183 186 192
f 185 184 192
f 188 193 186
f 189 187 194
f 189 194 191
f 187 185 192
f 186 193 192
f 194 187 192
f 195 196 193
f 195 193 188
f 191 194 197
f 198 195 188
f 198 188 190
f 199 191 200
f 201 195 198
f 146 190 135
f 148 145 199
f 145 191 199
f 202 198 190
f 202 190 146
f 148 199 151
f 203 146 149
f 171 151 204
f 203 202 146
f 205 202 203
f 151 199 206
f 207 198 202
f 199 200 206
f 207 201 198
f 204 206 208
f 151 206 204
f 205 207 202
f 209 204 210
f 211 207 205
f 193 196 192
f 197 194 192
f 196 212 192
f 213 212 196
f 213 196 195
f 191 197 200
f 214 197 192
f 212 215 192
f 200 197 214
f 200 214 216
f 217 212 213
f 201 213 195
f 206 200 216
f 218 217 213
f 218 213 201
f 208 216 219
f 220 214 192
f 215 221 192
f 217 215 212
f 221 222 192
f 223 220 192
f 222 223 192
f 224 221 215
f 216 214 220
f 216 220 219
f 224 215 217
f 219 220 223
f 219 223 225
f 226 221 224
f 226 222 221
f 225 223 222
f 225 222 226
f 227 217 218
f 227 224 217
f 228 224 227
f 229 219 225
f 228 226 224
f 230 225 226
f 206 216 208
f 231 201 207
f 210 208 229
f 231 218 201
f 232 218 231
f 204 208 210
f 233 210 234
f 211 231 207
f 210 229 234
f 235 232 231
f 208 219 229
f 232 227 218
f 234 229 230
f 229 225 230
f 230 226 228
f 236 228 227
f 237 230 228
f 234 230 237
f 236 227 232
f 238 234 237
f 239 236 232
f 237 228 236
f 240 237 236
f 172 203 149
f 171 204 209
f 241 203 172
f 173 171 209
f 173 209 178
f 242 241 172
f 241 205 203
f 209 210 233
f 178 209 233
f 178 233 243
f 244 205 241
f 245 244 241
f 175 178 179
f 242 172 174
f 181 242 174
f 179 178 243
f 168 180 246
f 180 179 247
f 180 247 246
f 168 248 181
f 179 243 247
f 245 241 242
f 247 243 249
f 248 245 242
f 168 246 250
f 168 251 248
f 248 242 181
f 246 247 252
f 168 250 253
f 168 254 251
f 168 253 254
f 244 211 205
f 233 234 238
f 235 231 211
f 255 235 211
f 243 233 238
f 243 238 249
f 255 211 244
f 256 255 244
f 239 232 235
f 238 237 240
f 240 236 239
f 257 239 235
f 258 240 239
f 249 238 240
f 257 235 255
f 249 240 258
f 258 239 257
f 259 257 255
f 256 244 245
f 247 249 252
f 251 256 245
f 252 249 258
f 259 255 256
f 246 252 250
f 251 245 248
f 250 252 260
f 254 256 251
f 254 259 256
f 250 260 253
f 252 258 260
f 260 258 257
f 260 257 259
f 253 260 259
f 253 259 254
