# sionna2 mesh — mini2__battery.obj
# group=battery  verts=24  tris=44
v -0.042675 -0.021713 -0.011438
v -0.042675 -0.021713 -0.003589
v -0.042675 0.021713 0.013233
v 0.026156 -0.021713 -0.011438
v -0.042675 0.021713 -0.011438
v -0.042675 -0.021713 0.000000
v -0.042675 -0.021713 0.013233
v 0.026156 -0.021713 0.000000
v -0.042675 0.021713 -0.003589
v -0.042675 0.021713 0.000000
v 0.026156 0.021713 -0.003589
v 0.026156 0.021713 0.013233
v 0.026156 -0.021713 -0.003589
v 0.026156 0.021713 -0.011438
v 0.026156 -0.021713 0.013233
v 0.026156 0.021713 0.000000
v -0.042675 -0.023814 -0.003589
v -0.042675 -0.023814 0.000000
v 0.037168 -0.023814 -0.003589
v -0.042675 0.023814 -0.003589
v -0.042675 0.023814 0.000000
v 0.037168 0.023814 0.000000
v 0.037168 -0.023814 0.000000
v 0.037168 0.023814 -0.003589
f 1 2 3
f 1 4 2
f 1 5 4
f 2 6 3
f 6 7 3
f 7 6 8
f 1 9 5
f 1 10 9
f 3 10 1
f 5 9 11
f 7 12 3
f 3 12 10
f 4 13 2
f 4 14 13
f 7 8 15
f 7 15 12
f 15 8 16
f 5 14 4
f 5 11 14
f 14 11 13
f 12 16 10
f 15 16 12
f 17 6 2
f 17 18 6
f 17 2 13
f 17 19 18
f 18 8 6
f 20 9 21
f 21 9 10
f 20 11 9
f 20 21 22
f 21 10 22
f 17 13 19
f 18 23 8
f 18 19 23
f 19 13 24
f 19 24 23
f 23 16 8
f 20 24 11
f 22 10 16
f 20 22 24
f 24 13 11
f 23 24 22
f 23 22 16
