# sionna2 mesh — matrice4e__canopy.obj
# group=canopy  verts=1268  tris=2528
v -0.054506 -0.024023 0.015784
v -0.047424 -0.026890 0.013733
v -0.054506 -0.026777 0.017028
v -0.054506 -0.021112 0.014936
v -0.047424 -0.023653 0.012711
v -0.066966 -0.020532 0.024169
v -0.061596 -0.026953 0.022447
v -0.066966 -0.021537 0.025814
v -0.061596 -0.028031 0.024760
v -0.066966 -0.022003 0.027703
v -0.061596 -0.025214 0.020575
v -0.054506 -0.029215 0.018783
v -0.054506 -0.031071 0.021114
v -0.047424 -0.029926 0.015229
v -0.047424 -0.032572 0.017302
v -0.054506 -0.032169 0.023891
v -0.054506 -0.032612 0.026876
v -0.061596 -0.028474 0.027303
v -0.047424 -0.034534 0.020004
v -0.047424 -0.035665 0.023159
v -0.061596 -0.020612 0.018263
v -0.061596 -0.023027 0.019208
v -0.040381 -0.032530 0.013778
v -0.033338 -0.034580 0.012655
v -0.040381 -0.035346 0.016109
v -0.033338 -0.037534 0.015183
v -0.040381 -0.037408 0.019104
v -0.047424 -0.036119 0.026514
v -0.040381 -0.038575 0.022563
v -0.033338 -0.039682 0.018401
v -0.033338 -0.040883 0.022098
v -0.040381 -0.039042 0.026222
v -0.033338 -0.041363 0.025995
v -0.040381 -0.029261 0.012082
v -0.040381 -0.025756 0.010914
v -0.033338 -0.031128 0.010808
v -0.033338 -0.027412 0.009527
v -0.033338 -0.023569 0.008663
v -0.040381 -0.022139 0.010125
v -0.054506 -0.032717 0.029913
v -0.047424 -0.036230 0.029917
v -0.054506 -0.032610 0.032948
v -0.066966 -0.022122 0.029671
v -0.061596 -0.028573 0.029904
v -0.066966 -0.022048 0.031642
v -0.061596 -0.028460 0.032501
v -0.066966 -0.021698 0.033558
v -0.061596 -0.028009 0.035031
v -0.066966 -0.020863 0.035282
v -0.061596 -0.026951 0.037328
v -0.054506 -0.032160 0.035925
v -0.047424 -0.036121 0.033319
v -0.061596 -0.025263 0.039212
v -0.066966 -0.019517 0.036654
v -0.054506 -0.031074 0.038691
v -0.054506 -0.029261 0.041035
v -0.047424 -0.035667 0.036671
v -0.047424 -0.034553 0.039824
v -0.047424 -0.032623 0.042536
v -0.054506 -0.026859 0.042814
v -0.061596 -0.023122 0.040618
v -0.061596 -0.020729 0.041599
v -0.054506 -0.024124 0.044086
v -0.047424 -0.030005 0.044629
v -0.047424 -0.026986 0.046148
v -0.054506 -0.021225 0.044962
v -0.040381 -0.039158 0.029927
v -0.040381 -0.039044 0.033632
v -0.033338 -0.041483 0.029938
v -0.033338 -0.041365 0.033880
v -0.040381 -0.038579 0.037289
v -0.033338 -0.040888 0.037777
v -0.040381 -0.037427 0.040751
v -0.033338 -0.039699 0.041476
v -0.040381 -0.035389 0.043753
v -0.033338 -0.037569 0.044700
v -0.040381 -0.032593 0.046099
v -0.033338 -0.034630 0.047240
v -0.047424 -0.023758 0.047192
v -0.040381 -0.029339 0.047813
v -0.054506 -0.018133 0.014358
v -0.061596 -0.018094 0.017616
v -0.047424 -0.020323 0.012018
v -0.054506 -0.015120 0.013973
v -0.061596 -0.015530 0.017173
v -0.061596 -0.010347 0.016695
v -0.054506 -0.012092 0.013730
v -0.061596 -0.012944 0.016881
v -0.047424 -0.016952 0.011555
v -0.047424 -0.013561 0.011263
v -0.066966 -0.015424 0.021429
v -0.066966 -0.017299 0.022034
v -0.066966 -0.019051 0.022915
v -0.066966 -0.013496 0.021013
v -0.066966 -0.011542 0.020731
v -0.066966 -0.009575 0.020545
v -0.068693 0.000000 0.029972
v -0.061596 -0.007745 0.016592
v -0.054506 -0.009057 0.013596
v -0.061596 -0.005141 0.016547
v -0.054506 -0.006018 0.013536
v -0.047424 -0.010160 0.011103
v -0.047424 -0.006755 0.011030
v -0.061596 -0.002537 0.016525
v -0.054506 -0.002979 0.013508
v -0.061596 0.000067 0.016515
v -0.054506 0.000060 0.013494
v -0.047424 -0.003350 0.010997
v -0.047424 0.000056 0.010981
v -0.066966 -0.007603 0.020428
v -0.066966 -0.005628 0.020363
v -0.066966 -0.003652 0.020337
v -0.066966 -0.001676 0.020323
v -0.066966 0.000300 0.020317
v -0.040381 -0.018472 0.009599
v -0.040381 -0.011078 0.009086
v -0.040381 -0.014780 0.009267
v -0.033338 -0.019669 0.008089
v -0.033338 -0.015741 0.007726
v -0.033338 -0.011801 0.007529
v -0.040381 -0.007371 0.009003
v -0.040381 -0.003663 0.008965
v -0.040381 0.000045 0.008947
v -0.033338 -0.007857 0.007438
v -0.033338 -0.003912 0.007396
v -0.033338 0.000034 0.007377
v -0.066966 -0.017842 0.037650
v -0.066966 -0.016000 0.038340
v -0.066966 -0.014084 0.038811
v -0.061596 -0.018222 0.042275
v -0.066966 -0.012136 0.039132
v -0.061596 -0.015662 0.042734
v -0.066966 -0.010173 0.039346
v -0.061596 -0.013077 0.043039
v -0.054506 -0.018249 0.045554
v -0.047424 -0.020432 0.047899
v -0.054506 -0.015238 0.045950
v -0.061596 -0.010482 0.043235
v -0.054506 -0.012211 0.046202
v -0.047424 -0.017063 0.048371
v -0.047424 -0.013672 0.048671
v -0.054506 -0.009176 0.046343
v -0.066966 -0.008202 0.039484
v -0.066966 -0.006228 0.039566
v -0.066966 -0.004252 0.039602
v -0.066966 -0.002276 0.039618
v -0.066966 -0.000300 0.039627
v -0.061596 -0.007880 0.043346
v -0.061596 -0.005276 0.043395
v -0.061596 -0.002672 0.043418
v -0.061596 -0.000067 0.043429
v -0.054506 -0.006138 0.046406
v -0.047424 -0.010271 0.048836
v -0.054506 -0.003099 0.046435
v -0.054506 -0.000060 0.046450
v -0.047424 -0.006867 0.048912
v -0.047424 -0.003461 0.048946
v -0.026295 -0.036099 0.011843
v -0.026295 -0.039158 0.014510
v -0.026295 -0.032509 0.009888
v -0.019252 -0.040237 0.014078
v -0.026295 -0.041374 0.017888
v -0.019252 -0.033420 0.009306
v -0.019252 -0.037103 0.011326
v -0.026295 -0.042606 0.021758
v -0.026295 -0.043097 0.025830
v -0.019252 -0.042503 0.017558
v -0.019252 -0.043760 0.021539
v -0.019252 -0.044261 0.025725
v -0.026295 -0.028636 0.008528
v -0.026295 -0.024625 0.007612
v -0.026295 -0.020553 0.007003
v -0.019252 -0.029442 0.007899
v -0.019252 -0.025322 0.006951
v -0.019252 -0.021137 0.006321
v -0.012209 -0.037612 0.011091
v -0.012209 -0.040789 0.013878
v -0.012209 -0.033879 0.009045
v -0.005166 -0.037643 0.011124
v -0.005166 -0.040832 0.013899
v -0.012209 -0.043087 0.017403
v 0.001877 -0.040384 0.014131
v -0.005166 -0.043142 0.017415
v -0.005166 -0.033902 0.009090
v 0.001877 -0.033507 0.009424
v 0.001877 -0.037214 0.011413
v -0.012209 -0.044362 0.021436
v -0.012209 -0.044871 0.025678
v -0.005166 -0.044429 0.021445
v 0.001877 -0.042687 0.017588
v -0.005166 -0.044944 0.025686
v 0.001877 -0.043977 0.021560
v -0.012209 -0.029848 0.007621
v -0.012209 -0.025672 0.006660
v -0.012209 -0.021430 0.006022
v -0.005166 -0.029867 0.007675
v -0.005166 -0.025688 0.006720
v 0.001877 -0.029514 0.008045
v -0.005166 -0.021445 0.006086
v 0.001877 -0.025384 0.007113
v 0.001877 -0.021192 0.006493
v -0.026295 -0.043220 0.029948
v -0.026295 -0.043099 0.034066
v -0.026295 -0.042610 0.038138
v -0.019252 -0.044387 0.029958
v -0.019252 -0.044262 0.034190
v -0.019252 -0.043764 0.038377
v -0.026295 -0.041388 0.042009
v -0.026295 -0.039185 0.045393
v -0.026295 -0.036135 0.048069
v -0.019252 -0.042514 0.042360
v -0.019252 -0.040255 0.045844
v -0.012209 -0.044999 0.029967
v -0.012209 -0.044872 0.034257
v -0.005166 -0.045072 0.029976
v 0.001877 -0.044495 0.025747
v 0.001877 -0.044623 0.029985
v -0.005166 -0.044944 0.034267
v -0.012209 -0.044366 0.038499
v 0.001877 -0.044495 0.034223
v -0.005166 -0.044432 0.038509
v -0.012209 -0.043094 0.042534
v -0.012209 -0.040799 0.046062
v -0.019252 -0.037126 0.048602
v -0.005166 -0.043146 0.042540
v 0.001877 -0.043979 0.038412
v -0.005166 -0.040834 0.046058
v -0.012209 -0.037622 0.048851
v 0.001877 -0.042686 0.042385
v 0.001877 -0.040377 0.045842
v -0.005166 -0.037641 0.048832
v -0.026295 -0.016452 0.006618
v -0.026295 -0.012337 0.006410
v -0.019252 -0.016922 0.005923
v -0.019252 -0.012692 0.005707
v -0.026295 -0.008218 0.006313
v -0.026295 -0.004097 0.006268
v -0.026295 0.000024 0.006248
v -0.019252 -0.008458 0.005607
v -0.019252 -0.004222 0.005561
v -0.019252 0.000014 0.005540
v -0.012209 -0.017159 0.005619
v -0.012209 -0.012872 0.005400
v -0.012209 -0.008581 0.005298
v -0.005166 -0.017172 0.005685
v 0.001877 -0.016971 0.006101
v -0.005166 -0.012885 0.005467
v -0.005166 -0.008592 0.005366
v 0.001877 -0.012736 0.005888
v -0.012209 -0.004288 0.005252
v -0.012209 0.000005 0.005230
v -0.005166 -0.004298 0.005320
v 0.001877 -0.008496 0.005789
v 0.001877 -0.004255 0.005743
v -0.005166 -0.000004 0.005298
v 0.001877 -0.000013 0.005722
v -0.040381 -0.025841 0.048996
v -0.033338 -0.031188 0.049101
v -0.040381 -0.022227 0.049797
v -0.033338 -0.027477 0.050392
v -0.033338 -0.023636 0.051265
v -0.040381 -0.018561 0.050331
v -0.040381 -0.014870 0.050669
v -0.033338 -0.019736 0.051845
v -0.040381 -0.011167 0.050854
v -0.033338 -0.015810 0.052212
v -0.033338 -0.011870 0.052413
v -0.040381 -0.007461 0.050939
v -0.047424 -0.000056 0.048963
v -0.040381 -0.003753 0.050979
v -0.033338 -0.007926 0.052505
v -0.040381 -0.000045 0.050997
v -0.033338 -0.003980 0.052548
v -0.033338 -0.000034 0.052567
v -0.026295 -0.032551 0.050033
v -0.019252 -0.033446 0.050627
v -0.026295 -0.028681 0.051400
v -0.026295 -0.024673 0.052322
v -0.019252 -0.029470 0.052037
v -0.019252 -0.025350 0.052988
v -0.026295 -0.020601 0.052934
v -0.012209 -0.033889 0.050898
v -0.005166 -0.033897 0.050864
v 0.001877 -0.037199 0.048556
v -0.012209 -0.029857 0.052323
v -0.012209 -0.025681 0.053284
v -0.019252 -0.021165 0.053620
v -0.012209 -0.021440 0.053922
v -0.005166 -0.029859 0.052276
v 0.001877 -0.033486 0.050539
v 0.001877 -0.029490 0.051913
v -0.005166 -0.025680 0.053228
v -0.005166 -0.021436 0.053860
v 0.001877 -0.025359 0.052840
v -0.026295 -0.016500 0.053322
v -0.026295 -0.012385 0.053533
v -0.019252 -0.016950 0.054019
v -0.019252 -0.012720 0.054236
v -0.026295 -0.008266 0.053631
v -0.026295 -0.004145 0.053676
v -0.026295 -0.000024 0.053696
v -0.019252 -0.008486 0.054337
v -0.019252 -0.004250 0.054383
v -0.019252 -0.000014 0.054404
v -0.012209 -0.017168 0.054325
v -0.012209 -0.012882 0.054544
v -0.005166 -0.017163 0.054260
v 0.001877 -0.021166 0.053456
v -0.005166 -0.012876 0.054477
v -0.012209 -0.008590 0.054646
v 0.001877 -0.016944 0.053846
v 0.001877 -0.012709 0.054058
v -0.005166 -0.008583 0.054578
v -0.012209 -0.004298 0.054693
v -0.012209 -0.000005 0.054714
v -0.005166 -0.004290 0.054625
v 0.001877 -0.008469 0.054156
v -0.005166 0.000004 0.054646
v 0.001877 -0.004228 0.054201
v -0.061596 0.002672 0.016526
v -0.054506 0.003099 0.013509
v -0.061596 0.005276 0.016549
v -0.054506 0.006138 0.013538
v -0.047424 0.003461 0.010998
v -0.047424 0.006867 0.011032
v -0.061596 0.007880 0.016598
v -0.054506 0.009176 0.013601
v -0.061596 0.010482 0.016709
v -0.054506 0.012211 0.013742
v -0.047424 0.010271 0.011108
v -0.066966 0.002276 0.020327
v -0.066966 0.004252 0.020342
v -0.066966 0.006228 0.020378
v -0.066966 0.008202 0.020460
v -0.066966 0.010173 0.020598
v -0.061596 0.013077 0.016905
v -0.066966 0.012136 0.020812
v -0.066966 0.014084 0.021133
v -0.066966 0.016000 0.021604
v -0.054506 0.015238 0.013994
v -0.054506 0.018249 0.014390
v -0.047424 0.013672 0.011273
v -0.047424 0.017063 0.011573
v -0.054506 0.021225 0.014983
v -0.061596 0.015662 0.017210
v -0.047424 0.020432 0.012045
v -0.047424 0.023758 0.012752
v -0.061596 0.018222 0.017669
v -0.066966 0.017842 0.022294
v -0.066966 0.019517 0.023290
v -0.066966 0.020863 0.024662
v -0.061596 0.020729 0.018345
v -0.061596 0.023122 0.019327
v -0.061596 0.025263 0.020732
v -0.061596 0.026951 0.022616
v -0.054506 0.024124 0.015858
v -0.040381 0.003753 0.008965
v -0.040381 0.007461 0.009005
v -0.040381 0.011167 0.009090
v -0.033338 0.003980 0.007396
v -0.033338 0.007926 0.007439
v -0.033338 0.011870 0.007532
v -0.040381 0.014870 0.009275
v -0.040381 0.018561 0.009613
v -0.040381 0.022227 0.010147
v -0.033338 0.015810 0.007732
v -0.033338 0.019736 0.008099
v -0.033338 0.023636 0.008679
v -0.066966 0.001676 0.039622
v -0.066966 0.003652 0.039607
v -0.066966 0.005628 0.039581
v -0.066966 0.007603 0.039516
v -0.066966 0.009575 0.039399
v -0.066966 0.011542 0.039213
v -0.066966 0.013496 0.038931
v -0.066966 0.015424 0.038515
v -0.066966 0.017299 0.037910
v -0.061596 0.002537 0.043419
v -0.061596 0.005141 0.043398
v -0.061596 0.007745 0.043352
v -0.061596 0.010347 0.043249
v -0.061596 0.012944 0.043064
v -0.054506 0.002979 0.046437
v -0.054506 0.006018 0.046408
v -0.047424 0.003350 0.048948
v -0.054506 0.009057 0.046348
v -0.054506 0.012092 0.046214
v -0.047424 0.006755 0.048914
v -0.047424 0.010160 0.048841
v -0.066966 0.021698 0.026386
v -0.066966 0.022048 0.028303
v -0.066966 0.022122 0.030273
v -0.066966 0.022003 0.032241
v -0.066966 0.019051 0.037029
v -0.066966 0.020532 0.035775
v -0.066966 0.021537 0.034131
v -0.061596 0.015530 0.042771
v -0.061596 0.018094 0.042329
v -0.061596 0.020612 0.041681
v -0.061596 0.023027 0.040736
v -0.061596 0.025214 0.039369
v -0.054506 0.015120 0.045971
v -0.054506 0.018133 0.045586
v -0.047424 0.013561 0.048681
v -0.047424 0.016952 0.048389
v -0.054506 0.021112 0.045008
v -0.054506 0.024023 0.044160
v -0.047424 0.020323 0.047926
v -0.047424 0.023653 0.047233
v -0.047424 0.026986 0.013796
v -0.061596 0.028009 0.024913
v -0.061596 0.028460 0.027443
v -0.054506 0.026859 0.017130
v -0.054506 0.029261 0.018909
v -0.047424 0.030005 0.015315
v -0.054506 0.031074 0.021253
v -0.047424 0.032623 0.017408
v -0.047424 0.034553 0.020120
v -0.054506 0.032160 0.024019
v -0.054506 0.032610 0.026996
v -0.047424 0.035667 0.023273
v -0.047424 0.036121 0.026625
v -0.040381 0.025841 0.010948
v -0.040381 0.029339 0.012132
v -0.040381 0.032593 0.013845
v -0.033338 0.027477 0.009552
v -0.033338 0.031188 0.010844
v -0.040381 0.035389 0.016192
v -0.033338 0.034630 0.012705
v -0.033338 0.037569 0.015244
v -0.040381 0.037427 0.019193
v -0.040381 0.038579 0.022655
v -0.040381 0.039044 0.026312
v -0.033338 0.039699 0.018468
v -0.033338 0.040888 0.022167
v -0.033338 0.041365 0.026064
v -0.061596 0.028573 0.030040
v -0.061596 0.028474 0.032641
v -0.061596 0.028031 0.035184
v -0.061596 0.026953 0.037497
v -0.054506 0.032717 0.030032
v -0.054506 0.032612 0.033068
v -0.054506 0.032169 0.036053
v -0.054506 0.031071 0.038830
v -0.047424 0.035665 0.036785
v -0.054506 0.026777 0.042916
v -0.054506 0.029215 0.041161
v -0.047424 0.026890 0.046211
v -0.047424 0.032572 0.042642
v -0.047424 0.034534 0.039940
v -0.047424 0.029926 0.044715
v -0.047424 0.036230 0.030028
v -0.047424 0.036119 0.033430
v -0.040381 0.029261 0.047862
v -0.040381 0.032530 0.046166
v -0.040381 0.035346 0.043835
v -0.040381 0.039158 0.030017
v -0.040381 0.039042 0.033722
v -0.040381 0.038575 0.037381
v -0.033338 0.041483 0.030006
v -0.033338 0.041363 0.033949
v -0.033338 0.040883 0.037846
v -0.040381 0.037408 0.040841
v -0.033338 0.039682 0.041543
v -0.033338 0.034580 0.047289
v -0.033338 0.037534 0.044761
v -0.026295 0.004145 0.006268
v -0.026295 0.008266 0.006313
v -0.026295 0.012385 0.006411
v -0.019252 0.004250 0.005561
v -0.019252 0.008486 0.005607
v -0.019252 0.012720 0.005708
v -0.026295 0.016500 0.006622
v -0.026295 0.020601 0.007010
v -0.026295 0.024673 0.007622
v -0.019252 0.016950 0.005925
v -0.019252 0.021165 0.006324
v -0.019252 0.025350 0.006956
v -0.012209 0.004298 0.005252
v -0.012209 0.008590 0.005298
v -0.012209 0.012882 0.005400
v -0.005166 0.004290 0.005319
v 0.001877 0.004228 0.005743
v -0.005166 0.008583 0.005366
v -0.005166 0.012876 0.005467
v 0.001877 0.008469 0.005788
v -0.012209 0.017168 0.005619
v -0.012209 0.021440 0.006022
v -0.005166 0.017163 0.005684
v 0.001877 0.012709 0.005886
v 0.001877 0.016944 0.006098
v -0.005166 0.021436 0.006084
v 0.001877 0.021166 0.006488
v -0.026295 0.028681 0.008544
v -0.026295 0.032551 0.009911
v -0.026295 0.036135 0.011875
v -0.019252 0.029470 0.007907
v -0.019252 0.033446 0.009317
v -0.026295 0.039185 0.014551
v -0.019252 0.037126 0.011343
v -0.019252 0.040255 0.014100
v -0.019252 0.042514 0.017584
v -0.026295 0.041388 0.017935
v -0.026295 0.042610 0.021807
v -0.026295 0.043099 0.025878
v -0.019252 0.043764 0.021567
v -0.019252 0.044262 0.025754
v -0.012209 0.025681 0.006660
v -0.012209 0.029857 0.007621
v -0.012209 0.033889 0.009046
v -0.005166 0.025680 0.006716
v -0.005166 0.029859 0.007668
v 0.001877 0.025359 0.007105
v -0.005166 0.033897 0.009080
v 0.001877 0.029490 0.008031
v 0.001877 0.033486 0.009405
v -0.012209 0.037622 0.011093
v -0.012209 0.040799 0.013882
v -0.012209 0.043094 0.017410
v -0.005166 0.037641 0.011112
v -0.005166 0.040834 0.013886
v 0.001877 0.037199 0.011388
v -0.005166 0.043146 0.017404
v 0.001877 0.040377 0.014102
v -0.012209 0.044366 0.021445
v -0.012209 0.044872 0.025687
v -0.005166 0.044432 0.021435
v 0.001877 0.042686 0.017559
v 0.001877 0.043979 0.021532
v -0.005166 0.044944 0.025677
v 0.001877 0.044495 0.025721
v -0.026295 0.043220 0.029996
v -0.026295 0.043097 0.034114
v -0.026295 0.042606 0.038186
v -0.019252 0.044387 0.029986
v -0.019252 0.044261 0.034219
v -0.019252 0.043760 0.038405
v -0.026295 0.036099 0.048101
v -0.026295 0.039158 0.045434
v -0.026295 0.041374 0.042056
v -0.019252 0.037103 0.048618
v -0.019252 0.040237 0.045866
v -0.019252 0.042503 0.042386
v -0.012209 0.044999 0.029977
v -0.012209 0.044871 0.034266
v -0.012209 0.044362 0.038508
v -0.005166 0.045072 0.029968
v -0.005166 0.044944 0.034258
v 0.001877 0.044623 0.029959
v -0.005166 0.044429 0.038500
v 0.001877 0.044495 0.034197
v -0.012209 0.043087 0.042541
v -0.012209 0.040789 0.046066
v -0.012209 0.037612 0.048853
v -0.005166 0.043142 0.042529
v 0.001877 0.043977 0.038384
v 0.001877 0.042687 0.042356
v -0.005166 0.040832 0.046045
v -0.005166 0.037643 0.048820
v 0.001877 0.040384 0.045813
v -0.040381 0.003663 0.050979
v -0.040381 0.007371 0.050941
v -0.033338 0.003912 0.052548
v -0.040381 0.011078 0.050858
v -0.033338 0.007857 0.052506
v -0.033338 0.011801 0.052415
v -0.040381 0.014780 0.050677
v -0.040381 0.018472 0.050345
v -0.040381 0.022139 0.049819
v -0.033338 0.015741 0.052218
v -0.033338 0.019669 0.051855
v -0.033338 0.023569 0.051281
v -0.040381 0.025756 0.049030
v -0.033338 0.027412 0.050417
v -0.033338 0.031128 0.049136
v -0.026295 0.004097 0.053676
v -0.026295 0.008218 0.053631
v -0.026295 0.012337 0.053534
v -0.019252 0.004222 0.054384
v -0.019252 0.008458 0.054337
v -0.019252 0.012692 0.054237
v -0.026295 0.016452 0.053326
v -0.026295 0.020553 0.052941
v -0.019252 0.016922 0.054021
v -0.019252 0.021137 0.053623
v -0.026295 0.024625 0.052332
v -0.012209 0.004288 0.054693
v -0.012209 0.008581 0.054646
v -0.005166 0.004298 0.054625
v 0.001877 0.000013 0.054222
v -0.005166 0.008592 0.054578
v -0.012209 0.012872 0.054544
v 0.001877 0.004255 0.054201
v 0.001877 0.008496 0.054155
v -0.005166 0.012885 0.054477
v -0.012209 0.017159 0.054325
v -0.012209 0.021430 0.053922
v -0.005166 0.017172 0.054259
v 0.001877 0.012736 0.054057
v -0.005166 0.021445 0.053858
v 0.001877 0.016971 0.053843
v -0.026295 0.028636 0.051416
v -0.026295 0.032509 0.050056
v -0.019252 0.025322 0.052994
v -0.019252 0.029442 0.052045
v -0.019252 0.033420 0.050638
v -0.012209 0.025672 0.053284
v -0.012209 0.029848 0.052323
v -0.012209 0.033879 0.050899
v -0.005166 0.025688 0.053224
v 0.001877 0.021192 0.053451
v 0.001877 0.025384 0.052832
v -0.005166 0.029867 0.052269
v -0.005166 0.033902 0.050854
v 0.001877 0.029514 0.051900
v 0.001877 0.033507 0.050520
v 0.001877 0.037214 0.048531
v 0.008920 -0.039462 0.014564
v 0.008920 -0.032710 0.010032
v 0.008920 -0.036342 0.011944
v 0.015963 -0.035045 0.012705
v 0.015963 -0.038084 0.015188
v 0.015963 -0.031527 0.010898
v 0.008920 -0.041738 0.017915
v 0.008920 -0.043023 0.021778
v 0.008920 -0.043541 0.025860
v 0.015963 -0.040312 0.018387
v 0.015963 -0.041583 0.022094
v 0.015963 -0.042098 0.026021
v 0.008920 -0.028806 0.008711
v 0.008920 -0.024773 0.007817
v 0.008920 -0.020682 0.007222
v 0.015963 -0.027757 0.009656
v 0.015963 -0.023869 0.008814
v 0.015963 -0.019928 0.008253
v 0.023006 -0.033340 0.013684
v 0.023006 -0.036265 0.015995
v 0.023006 -0.038425 0.019001
v 0.023006 -0.039674 0.022503
v 0.023006 -0.040182 0.026228
v 0.030049 -0.036093 0.019749
v 0.030049 -0.034019 0.016979
v 0.030049 -0.031242 0.014869
v 0.030049 -0.037312 0.023001
v 0.030049 -0.037810 0.026480
v 0.023006 -0.026382 0.010862
v 0.023006 -0.029975 0.012010
v 0.023006 -0.022684 0.010084
v 0.030049 -0.028069 0.013354
v 0.030049 -0.024697 0.012314
v 0.030049 -0.021233 0.011609
v 0.008920 -0.043668 0.029994
v 0.008920 -0.043541 0.034128
v 0.015963 -0.042224 0.030002
v 0.015963 -0.042097 0.033983
v 0.008920 -0.043024 0.038211
v 0.015963 -0.041583 0.037911
v 0.008920 -0.041733 0.042075
v 0.008920 -0.039446 0.045424
v 0.008920 -0.036315 0.048037
v 0.015963 -0.040302 0.041618
v 0.015963 -0.038058 0.044814
v 0.015963 -0.035005 0.047287
v 0.023006 -0.040305 0.030009
v 0.023006 -0.040181 0.033790
v 0.023006 -0.039673 0.037518
v 0.030049 -0.037929 0.030016
v 0.030049 -0.037808 0.033553
v 0.030049 -0.037309 0.037034
v 0.023006 -0.038412 0.041020
v 0.023006 -0.036230 0.044020
v 0.023006 -0.033287 0.046318
v 0.030049 -0.036077 0.040288
v 0.030049 -0.033975 0.043047
v 0.030049 -0.031176 0.045140
v 0.023006 -0.029911 0.047975
v 0.030049 -0.027991 0.046637
v 0.008920 -0.016564 0.006845
v 0.008920 -0.012433 0.006639
v 0.015963 -0.015961 0.007897
v 0.015963 -0.011982 0.007702
v 0.008920 -0.008297 0.006545
v 0.008920 -0.004159 0.006501
v 0.008920 -0.000022 0.006481
v 0.015963 -0.007999 0.007613
v 0.015963 -0.004014 0.007571
v 0.015963 -0.000030 0.007552
v 0.023006 -0.018938 0.009565
v 0.023006 -0.015170 0.009235
v 0.023006 -0.011390 0.009054
v 0.030049 -0.017727 0.011139
v 0.030049 -0.014200 0.010839
v 0.030049 -0.010664 0.010674
v 0.023006 -0.007607 0.008971
v 0.023006 -0.003822 0.008933
v 0.023006 -0.000037 0.008915
v 0.030049 -0.007125 0.010599
v 0.030049 -0.003585 0.010564
v 0.030049 -0.000044 0.010547
v 0.037092 -0.031364 0.018131
v 0.037092 -0.033334 0.020625
v 0.037092 -0.034514 0.023583
v 0.037092 -0.034997 0.026773
v 0.037092 -0.025827 0.014911
v 0.037092 -0.028771 0.016248
v 0.037092 -0.022716 0.013992
v 0.044135 -0.020456 0.015877
v 0.044135 -0.028322 0.019437
v 0.044135 -0.025943 0.017806
v 0.044135 -0.030166 0.021619
v 0.044135 -0.031295 0.024245
v 0.044135 -0.023267 0.016664
v 0.044135 -0.031761 0.027106
v 0.051217 -0.026625 0.022718
v 0.051217 -0.027692 0.024975
v 0.051217 -0.024925 0.020884
v 0.051217 -0.022791 0.019527
v 0.051217 -0.020418 0.018590
v 0.058307 -0.022708 0.023930
v 0.058307 -0.023692 0.025786
v 0.051217 -0.028138 0.027470
v 0.058307 -0.021182 0.022469
v 0.037092 -0.035111 0.030023
v 0.044135 -0.031869 0.030030
v 0.037092 -0.034995 0.033274
v 0.037092 -0.034509 0.036466
v 0.037092 -0.033314 0.039427
v 0.044135 -0.031758 0.032954
v 0.051217 -0.028245 0.030030
v 0.044135 -0.031289 0.035817
v 0.051217 -0.028142 0.032591
v 0.051217 -0.027691 0.035090
v 0.044135 -0.030141 0.038446
v 0.037092 -0.031311 0.041906
v 0.044135 -0.028258 0.040610
v 0.037092 -0.028691 0.043768
v 0.037092 -0.025736 0.045086
v 0.030049 -0.024612 0.047660
v 0.037092 -0.022618 0.045985
v 0.030049 -0.021146 0.048355
v 0.044135 -0.025851 0.042216
v 0.044135 -0.023164 0.043337
v 0.051217 -0.026600 0.037350
v 0.051217 -0.024864 0.039170
v 0.051217 -0.022699 0.040497
v 0.058307 -0.024125 0.027873
v 0.058307 -0.024233 0.030033
v 0.058307 -0.024135 0.032196
v 0.058307 -0.023696 0.034291
v 0.058307 -0.022677 0.036146
v 0.058307 -0.021114 0.037589
v 0.037092 -0.019527 0.013368
v 0.037092 -0.016303 0.012953
v 0.044135 -0.017582 0.015343
v 0.037092 -0.013061 0.012688
v 0.037092 -0.009812 0.012540
v 0.044135 -0.014679 0.014987
v 0.044135 -0.011762 0.014760
v 0.051217 -0.010314 0.017028
v 0.051217 -0.017942 0.017946
v 0.051217 -0.015418 0.017507
v 0.051217 -0.012871 0.017215
v 0.037092 -0.006559 0.012474
v 0.037092 -0.003305 0.012443
v 0.044135 -0.008838 0.014632
v 0.044135 -0.005912 0.014576
v 0.037092 -0.000051 0.012428
v 0.044135 -0.002985 0.014550
v 0.044135 -0.000058 0.014536
v 0.051217 -0.007752 0.016922
v 0.051217 -0.005187 0.016876
v 0.051217 -0.002623 0.016854
v 0.051217 -0.000058 0.016843
v 0.058307 -0.019321 0.021413
v 0.058307 -0.017290 0.020685
v 0.058307 -0.015184 0.020187
v 0.058307 -0.013046 0.019848
v 0.058307 -0.010891 0.019623
v 0.063676 -0.016213 0.024550
v 0.063676 -0.017384 0.025629
v 0.063676 -0.014785 0.023791
v 0.063676 -0.018134 0.027021
v 0.063676 -0.010036 0.022668
v 0.063676 -0.013242 0.023269
v 0.063676 -0.011650 0.022912
v 0.058307 -0.008729 0.019478
v 0.058307 -0.006563 0.019394
v 0.058307 -0.004395 0.019358
v 0.058307 -0.002228 0.019342
v 0.058307 -0.000060 0.019333
v 0.063676 -0.008411 0.022507
v 0.063676 -0.006781 0.022403
v 0.063676 -0.005149 0.022340
v 0.065404 0.000000 0.029972
v 0.063676 -0.003515 0.022313
v 0.063676 -0.001882 0.022301
v 0.063676 -0.000248 0.022294
v 0.037092 -0.019427 0.046598
v 0.044135 -0.020345 0.044102
v 0.044135 -0.017469 0.044625
v 0.037092 -0.016201 0.047006
v 0.044135 -0.014564 0.044973
v 0.037092 -0.012959 0.047265
v 0.044135 -0.011647 0.045193
v 0.037092 -0.009709 0.047408
v 0.051217 -0.020313 0.041408
v 0.051217 -0.017831 0.042034
v 0.051217 -0.015304 0.042462
v 0.051217 -0.012757 0.042745
v 0.044135 -0.008723 0.045316
v 0.037092 -0.006456 0.047472
v 0.044135 -0.005796 0.045370
v 0.037092 -0.003202 0.047502
v 0.044135 -0.002869 0.045396
v 0.037092 0.000051 0.047516
v 0.051217 -0.010199 0.042925
v 0.051217 -0.007637 0.043026
v 0.044135 0.000058 0.045408
v 0.051217 -0.005072 0.043070
v 0.051217 -0.002507 0.043091
v 0.063676 -0.018458 0.028594
v 0.063676 -0.018526 0.030222
v 0.063676 -0.018413 0.031846
v 0.063676 -0.017978 0.033389
v 0.063676 -0.017078 0.034699
v 0.063676 -0.015801 0.035673
v 0.063676 -0.014324 0.036343
v 0.058307 -0.019223 0.038613
v 0.058307 -0.017179 0.039311
v 0.058307 -0.015069 0.039793
v 0.058307 -0.012928 0.040122
v 0.058307 -0.010772 0.040338
v 0.063676 -0.012761 0.036803
v 0.063676 -0.011161 0.037121
v 0.063676 -0.009542 0.037335
v 0.063676 -0.007916 0.037475
v 0.063676 -0.006285 0.037565
v 0.063676 -0.004652 0.037615
v 0.063676 -0.003019 0.037635
v 0.063676 -0.001385 0.037646
v 0.063676 0.000248 0.037650
v 0.058307 -0.008609 0.040476
v 0.058307 -0.006443 0.040554
v 0.058307 -0.004276 0.040587
v 0.058307 -0.002108 0.040603
v 0.058307 0.000060 0.040611
v 0.051217 0.000058 0.043101
v 0.008920 -0.032674 0.049940
v 0.008920 -0.028766 0.051253
v 0.008920 -0.024731 0.052139
v 0.015963 -0.031477 0.049081
v 0.015963 -0.027702 0.050312
v 0.015963 -0.023811 0.051145
v 0.008920 -0.020640 0.052730
v 0.023006 -0.026312 0.049109
v 0.023006 -0.022611 0.049877
v 0.008920 -0.016521 0.053103
v 0.008920 -0.012389 0.053307
v 0.015963 -0.019869 0.051701
v 0.015963 -0.015902 0.052052
v 0.015963 -0.011923 0.052245
v 0.008920 -0.008253 0.053400
v 0.008920 -0.004116 0.053444
v 0.008920 0.000022 0.053463
v 0.015963 -0.007939 0.052333
v 0.015963 -0.003955 0.052373
v 0.015963 0.000030 0.052392
v 0.023006 -0.018865 0.050391
v 0.023006 -0.015096 0.050715
v 0.023006 -0.011316 0.050893
v 0.030049 -0.017638 0.048819
v 0.030049 -0.014112 0.049112
v 0.030049 -0.010576 0.049274
v 0.023006 -0.007532 0.050974
v 0.023006 -0.003748 0.051012
v 0.023006 0.000037 0.051029
v 0.030049 -0.007036 0.049347
v 0.030049 -0.003496 0.049381
v 0.030049 0.000044 0.049397
v 0.008920 0.004116 0.006500
v 0.008920 0.008253 0.006544
v 0.008920 0.012389 0.006638
v 0.015963 0.003955 0.007571
v 0.015963 0.007939 0.007611
v 0.015963 0.011923 0.007700
v 0.008920 0.016521 0.006841
v 0.008920 0.020640 0.007215
v 0.008920 0.024731 0.007805
v 0.015963 0.015902 0.007892
v 0.015963 0.019869 0.008243
v 0.015963 0.023811 0.008799
v 0.023006 0.003748 0.008932
v 0.023006 0.007532 0.008970
v 0.023006 0.011316 0.009051
v 0.030049 0.003496 0.010563
v 0.030049 0.007036 0.010597
v 0.030049 0.010576 0.010670
v 0.023006 0.015096 0.009229
v 0.023006 0.018865 0.009553
v 0.023006 0.022611 0.010067
v 0.030049 0.014112 0.010832
v 0.030049 0.017638 0.011125
v 0.030049 0.021146 0.011589
v 0.008920 0.028766 0.008691
v 0.008920 0.032674 0.010004
v 0.015963 0.027702 0.009632
v 0.015963 0.031477 0.010863
v 0.015963 0.035005 0.012657
v 0.008920 0.036315 0.011907
v 0.008920 0.039446 0.014520
v 0.008920 0.041733 0.017869
v 0.015963 0.038058 0.015130
v 0.008920 0.043024 0.021733
v 0.008920 0.043541 0.025817
v 0.015963 0.040302 0.018326
v 0.015963 0.041583 0.022033
v 0.015963 0.042097 0.025962
v 0.023006 0.026312 0.010835
v 0.023006 0.029911 0.011969
v 0.023006 0.033287 0.013626
v 0.030049 0.024612 0.012284
v 0.030049 0.027991 0.013307
v 0.030049 0.031176 0.014804
v 0.030049 0.033975 0.016897
v 0.023006 0.036230 0.015924
v 0.023006 0.038412 0.018924
v 0.023006 0.039673 0.022427
v 0.023006 0.040181 0.026154
v 0.030049 0.036077 0.019656
v 0.030049 0.037309 0.022910
v 0.030049 0.037808 0.026391
v 0.008920 0.043668 0.029951
v 0.008920 0.043541 0.034084
v 0.008920 0.043023 0.038166
v 0.015963 0.042224 0.029943
v 0.015963 0.042098 0.033923
v 0.015963 0.041583 0.037850
v 0.008920 0.036342 0.048000
v 0.008920 0.039462 0.045380
v 0.008920 0.041738 0.042030
v 0.015963 0.035045 0.047239
v 0.015963 0.038084 0.044756
v 0.015963 0.040312 0.041557
v 0.023006 0.029975 0.047934
v 0.023006 0.033340 0.046260
v 0.030049 0.024697 0.047631
v 0.030049 0.028069 0.046590
v 0.030049 0.031242 0.045075
v 0.023006 0.036265 0.043949
v 0.023006 0.040305 0.029935
v 0.023006 0.040182 0.033716
v 0.023006 0.039674 0.037441
v 0.030049 0.037929 0.029928
v 0.030049 0.037810 0.033465
v 0.030049 0.037312 0.036943
v 0.023006 0.038425 0.040943
v 0.030049 0.036093 0.040195
v 0.030049 0.034019 0.042965
v 0.037092 0.003202 0.012443
v 0.037092 0.006456 0.012472
v 0.044135 0.002869 0.014549
v 0.044135 0.005796 0.014574
v 0.037092 0.009709 0.012536
v 0.037092 0.012959 0.012680
v 0.044135 0.008723 0.014628
v 0.051217 0.002507 0.016853
v 0.051217 0.005072 0.016874
v 0.044135 0.011647 0.014751
v 0.051217 0.007637 0.016918
v 0.051217 0.010199 0.017019
v 0.037092 0.016201 0.012938
v 0.044135 0.014564 0.014971
v 0.037092 0.019427 0.013346
v 0.037092 0.022618 0.013959
v 0.044135 0.017469 0.015319
v 0.044135 0.020345 0.015842
v 0.051217 0.012757 0.017199
v 0.044135 0.023164 0.016608
v 0.051217 0.015304 0.017482
v 0.051217 0.017831 0.017910
v 0.051217 0.020313 0.018536
v 0.058307 0.002108 0.019341
v 0.058307 0.004276 0.019357
v 0.058307 0.006443 0.019390
v 0.058307 0.008609 0.019468
v 0.058307 0.010772 0.019606
v 0.063676 0.001385 0.022298
v 0.063676 0.003019 0.022309
v 0.063676 0.004652 0.022329
v 0.063676 0.006285 0.022379
v 0.063676 0.007916 0.022469
v 0.058307 0.012928 0.019823
v 0.063676 0.009542 0.022609
v 0.063676 0.011161 0.022823
v 0.063676 0.012761 0.023141
v 0.063676 0.014324 0.023601
v 0.063676 0.015801 0.024271
v 0.058307 0.015069 0.020151
v 0.058307 0.017179 0.020633
v 0.051217 0.022699 0.019447
v 0.058307 0.019223 0.021331
v 0.058307 0.021114 0.022355
v 0.058307 0.022677 0.023798
v 0.063676 0.017078 0.025245
v 0.058307 0.023696 0.025653
v 0.063676 0.017978 0.026555
v 0.037092 0.003305 0.047501
v 0.044135 0.002985 0.045395
v 0.037092 0.006559 0.047470
v 0.044135 0.005912 0.045368
v 0.037092 0.009812 0.047404
v 0.044135 0.008838 0.045312
v 0.037092 0.013061 0.047256
v 0.051217 0.002623 0.043090
v 0.044135 0.011762 0.045184
v 0.051217 0.005187 0.043068
v 0.051217 0.007752 0.043022
v 0.037092 0.016303 0.046991
v 0.044135 0.014679 0.044957
v 0.037092 0.019527 0.046576
v 0.030049 0.021233 0.048335
v 0.037092 0.022716 0.045953
v 0.044135 0.017582 0.044601
v 0.051217 0.010314 0.042916
v 0.051217 0.012871 0.042729
v 0.044135 0.020456 0.044067
v 0.051217 0.015418 0.042437
v 0.051217 0.017942 0.041998
v 0.044135 0.023267 0.043281
v 0.063676 0.001882 0.037643
v 0.063676 0.003515 0.037631
v 0.063676 0.005149 0.037604
v 0.063676 0.006781 0.037541
v 0.063676 0.008411 0.037437
v 0.063676 0.010036 0.037276
v 0.063676 0.011650 0.037032
v 0.063676 0.013242 0.036675
v 0.063676 0.016213 0.035394
v 0.063676 0.014785 0.036153
v 0.063676 0.017384 0.034315
v 0.058307 0.002228 0.040602
v 0.058307 0.004395 0.040586
v 0.058307 0.006563 0.040550
v 0.058307 0.008729 0.040466
v 0.058307 0.010891 0.040322
v 0.058307 0.013046 0.040097
v 0.063676 0.018413 0.028098
v 0.063676 0.018526 0.029723
v 0.063676 0.018458 0.031350
v 0.063676 0.018134 0.032923
v 0.058307 0.024135 0.027748
v 0.058307 0.024233 0.029911
v 0.058307 0.024125 0.032071
v 0.058307 0.023692 0.034159
v 0.058307 0.021182 0.037475
v 0.058307 0.022708 0.036015
v 0.058307 0.015184 0.039757
v 0.051217 0.020418 0.041354
v 0.058307 0.017290 0.039259
v 0.051217 0.022791 0.040417
v 0.058307 0.019321 0.038531
v 0.051217 0.024925 0.039061
v 0.037092 0.025736 0.014859
v 0.037092 0.028691 0.016176
v 0.044135 0.025851 0.017728
v 0.037092 0.031311 0.018038
v 0.037092 0.033314 0.020517
v 0.044135 0.028258 0.019334
v 0.044135 0.030141 0.021499
v 0.037092 0.034509 0.023478
v 0.044135 0.031289 0.024127
v 0.037092 0.034995 0.026670
v 0.044135 0.031758 0.026991
v 0.051217 0.024864 0.020774
v 0.051217 0.026600 0.022594
v 0.051217 0.027691 0.024854
v 0.051217 0.028142 0.027353
v 0.037092 0.034514 0.036361
v 0.044135 0.031295 0.035699
v 0.037092 0.034997 0.033171
v 0.044135 0.031869 0.029914
v 0.044135 0.031761 0.032838
v 0.037092 0.035111 0.029921
v 0.051217 0.028245 0.029914
v 0.044135 0.030166 0.038325
v 0.051217 0.028138 0.032474
v 0.051217 0.027692 0.034969
v 0.037092 0.025827 0.045033
v 0.037092 0.028771 0.043696
v 0.037092 0.031364 0.041813
v 0.037092 0.033334 0.039320
v 0.044135 0.028322 0.040507
v 0.044135 0.025943 0.042138
v 0.051217 0.026625 0.037226
v 0.008920 0.004159 0.053443
v 0.008920 0.008297 0.053400
v 0.008920 0.012433 0.053305
v 0.015963 0.004014 0.052373
v 0.015963 0.007999 0.052332
v 0.015963 0.011982 0.052242
v 0.008920 0.016564 0.053099
v 0.008920 0.020682 0.052722
v 0.015963 0.015961 0.052047
v 0.015963 0.019928 0.051691
v 0.008920 0.024773 0.052127
v 0.023006 0.003822 0.051011
v 0.023006 0.007607 0.050973
v 0.023006 0.011390 0.050890
v 0.030049 0.003585 0.049380
v 0.030049 0.007125 0.049345
v 0.030049 0.010664 0.049271
v 0.023006 0.015170 0.050709
v 0.023006 0.018938 0.050379
v 0.015963 0.023869 0.051130
v 0.023006 0.022684 0.049860
v 0.030049 0.014200 0.049105
v 0.030049 0.017727 0.048805
v 0.008920 0.028806 0.051233
v 0.008920 0.032710 0.049913
v 0.015963 0.027757 0.050288
v 0.015963 0.031527 0.049046
v 0.023006 0.026382 0.049082
v -0.035521 -0.012856 0.061992
v -0.035521 -0.012856 0.064762
v -0.037521 -0.010000 0.061992
v -0.037521 -0.010000 0.064762
v -0.038994 -0.006840 0.061992
v -0.038994 -0.006840 0.064762
v -0.039896 -0.003473 0.061992
v -0.039896 -0.003473 0.064762
v -0.040200 0.000000 0.061992
v -0.040200 0.000000 0.064762
v -0.034525 -0.012020 0.086365
v -0.036395 -0.009350 0.086365
v -0.038616 -0.003247 0.086365
v -0.037772 -0.006396 0.086365
v -0.034775 -0.008415 0.089689
v -0.036015 -0.005756 0.089689
v -0.038900 0.000000 0.086365
v -0.036774 -0.002922 0.089689
v -0.037030 0.000000 0.089689
v -0.027040 -0.018794 0.061992
v -0.027040 -0.018794 0.064762
v -0.030200 -0.017321 0.061992
v -0.030200 -0.017321 0.064762
v -0.033056 -0.015321 0.061992
v -0.033056 -0.015321 0.064762
v -0.023673 -0.019696 0.061992
v -0.023673 -0.019696 0.064762
v -0.020200 -0.020000 0.061992
v -0.020200 -0.020000 0.064762
v -0.016727 -0.019696 0.064762
v -0.020200 0.000000 0.061992
v -0.016727 -0.019696 0.061992
v -0.013360 -0.018794 0.061992
v -0.013360 -0.018794 0.064762
v -0.010200 -0.017321 0.061992
v -0.010200 -0.017321 0.064762
v -0.007344 -0.015321 0.061992
v -0.007344 -0.015321 0.064762
v -0.004879 -0.012856 0.061992
v -0.004879 -0.012856 0.064762
v -0.002879 -0.010000 0.064762
v -0.002879 -0.010000 0.061992
v -0.001406 -0.006840 0.061992
v -0.001406 -0.006840 0.064762
v -0.000504 -0.003473 0.061992
v -0.000200 0.000000 0.061992
v -0.026596 -0.017572 0.086365
v -0.032220 -0.014325 0.086365
v -0.029550 -0.016195 0.086365
v -0.023447 -0.018416 0.086365
v -0.020200 -0.018700 0.086365
v -0.031018 -0.012893 0.089689
v -0.033093 -0.010818 0.089689
v -0.028615 -0.014575 0.089689
v -0.025956 -0.015815 0.089689
v -0.016953 -0.018416 0.086365
v -0.023122 -0.016574 0.089689
v -0.020200 -0.016830 0.089689
v -0.017278 -0.016574 0.089689
v -0.020200 0.000000 0.089689
v -0.013804 -0.017572 0.086365
v -0.010850 -0.016195 0.086365
v -0.008180 -0.014325 0.086365
v -0.005875 -0.012020 0.086365
v -0.014444 -0.015815 0.089689
v -0.011785 -0.014575 0.089689
v -0.009382 -0.012893 0.089689
v -0.004005 -0.009350 0.086365
v -0.007307 -0.010818 0.089689
v -0.002628 -0.006396 0.086365
v -0.005625 -0.008415 0.089689
v -0.004385 -0.005756 0.089689
v -0.001784 -0.003247 0.086365
v -0.003626 -0.002922 0.089689
v -0.003370 0.000000 0.089689
v -0.001500 0.000000 0.086365
v -0.039896 0.003473 0.061992
v -0.039896 0.003473 0.064762
v -0.038994 0.006840 0.061992
v -0.038994 0.006840 0.064762
v -0.037521 0.010000 0.061992
v -0.037521 0.010000 0.064762
v -0.035521 0.012856 0.061992
v -0.035521 0.012856 0.064762
v -0.038616 0.003247 0.086365
v -0.037772 0.006396 0.086365
v -0.036395 0.009350 0.086365
v -0.036774 0.002922 0.089689
v -0.036015 0.005756 0.089689
v -0.034775 0.008415 0.089689
v -0.034525 0.012020 0.086365
v -0.033056 0.015321 0.061992
v -0.030200 0.017321 0.061992
v -0.033056 0.015321 0.064762
v -0.030200 0.017321 0.064762
v -0.027040 0.018794 0.061992
v -0.027040 0.018794 0.064762
v -0.023673 0.019696 0.061992
v -0.020200 0.020000 0.061992
v -0.016727 0.019696 0.061992
v -0.023673 0.019696 0.064762
v -0.020200 0.020000 0.064762
v -0.010200 0.017321 0.061992
v -0.007344 0.015321 0.061992
v -0.004879 0.012856 0.061992
v -0.000504 0.003473 0.061992
v -0.002879 0.010000 0.061992
v -0.001406 0.006840 0.061992
v -0.002879 0.010000 0.064762
v -0.001406 0.006840 0.064762
v -0.004879 0.012856 0.064762
v -0.013360 0.018794 0.061992
v -0.016727 0.019696 0.064762
v -0.013360 0.018794 0.064762
v -0.010200 0.017321 0.064762
v -0.007344 0.015321 0.064762
v -0.033093 0.010818 0.089689
v -0.031018 0.012893 0.089689
v -0.028615 0.014575 0.089689
v -0.025956 0.015815 0.089689
v -0.023122 0.016574 0.089689
v -0.020200 0.016830 0.089689
v -0.017278 0.016574 0.089689
v -0.032220 0.014325 0.086365
v -0.029550 0.016195 0.086365
v -0.026596 0.017572 0.086365
v -0.023447 0.018416 0.086365
v -0.020200 0.018700 0.086365
v -0.016953 0.018416 0.086365
v -0.004005 0.009350 0.086365
v -0.004385 0.005756 0.089689
v -0.005625 0.008415 0.089689
v -0.014444 0.015815 0.089689
v -0.011785 0.014575 0.089689
v -0.007307 0.010818 0.089689
v -0.009382 0.012893 0.089689
v -0.003626 0.002922 0.089689
v -0.001784 0.003247 0.086365
v -0.002628 0.006396 0.086365
v -0.005875 0.012020 0.086365
v -0.013804 0.017572 0.086365
v -0.010850 0.016195 0.086365
v -0.008180 0.014325 0.086365
v -0.000504 -0.003473 0.064762
v -0.000200 0.000000 0.064762
v -0.000504 0.003473 0.064762
f 1 2 3
f 4 5 1
f 6 7 8
f 8 9 10
f 7 9 8
f 11 7 6
f 12 13 7
f 3 14 12
f 12 15 13
f 16 17 18
f 7 13 9
f 13 16 9
f 9 16 18
f 13 19 16
f 16 20 17
f 11 12 7
f 3 12 11
f 21 1 22
f 1 3 22
f 22 3 11
f 23 24 25
f 24 26 25
f 15 25 19
f 19 27 20
f 19 20 16
f 20 28 17
f 20 29 28
f 30 31 29
f 29 31 32
f 31 33 32
f 25 27 19
f 25 26 27
f 26 30 27
f 27 30 29
f 27 29 20
f 29 32 28
f 14 23 15
f 2 34 14
f 2 14 3
f 5 2 1
f 5 35 2
f 23 25 15
f 34 23 14
f 36 24 23
f 34 36 23
f 37 36 34
f 38 37 35
f 39 38 35
f 35 34 2
f 39 35 5
f 35 37 34
f 15 19 13
f 14 15 12
f 17 28 40
f 40 41 42
f 10 18 43
f 43 44 45
f 9 18 10
f 18 44 43
f 44 46 45
f 45 46 47
f 47 48 49
f 46 48 47
f 48 50 49
f 17 40 44
f 18 17 44
f 44 40 46
f 40 42 46
f 46 42 48
f 48 51 50
f 42 51 48
f 42 52 51
f 50 53 54
f 51 55 50
f 55 56 53
f 51 57 55
f 55 58 56
f 56 59 60
f 50 55 53
f 53 56 61
f 56 60 61
f 61 60 62
f 60 63 62
f 60 64 63
f 63 65 66
f 28 41 40
f 28 32 41
f 41 67 52
f 41 52 42
f 52 57 51
f 52 68 57
f 32 33 67
f 33 69 67
f 67 69 68
f 69 70 68
f 68 70 71
f 70 72 71
f 32 67 41
f 67 68 52
f 68 71 57
f 57 71 58
f 58 73 59
f 71 73 58
f 71 72 73
f 73 74 75
f 72 74 73
f 73 75 59
f 74 76 75
f 75 76 77
f 76 78 77
f 57 58 55
f 58 59 56
f 59 64 60
f 59 75 64
f 64 77 65
f 64 65 63
f 65 79 66
f 65 80 79
f 75 77 64
f 77 80 65
f 77 78 80
f 81 4 82
f 81 83 4
f 84 81 85
f 86 87 88
f 87 84 88
f 84 89 81
f 87 90 84
f 91 21 92
f 22 11 93
f 21 22 92
f 82 21 91
f 93 11 6
f 92 22 93
f 94 82 91
f 95 85 94
f 96 88 95
f 85 82 94
f 88 85 95
f 93 6 97
f 92 93 97
f 82 4 21
f 4 1 21
f 85 81 82
f 88 84 85
f 98 99 86
f 99 87 86
f 100 101 98
f 101 99 98
f 99 102 87
f 101 103 99
f 104 105 100
f 105 101 100
f 106 107 104
f 107 105 104
f 105 108 101
f 107 109 105
f 110 86 96
f 111 98 110
f 86 88 96
f 98 86 110
f 100 98 111
f 91 92 97
f 94 91 97
f 110 96 97
f 95 94 97
f 96 95 97
f 112 100 111
f 113 104 112
f 114 106 113
f 104 100 112
f 106 104 113
f 111 110 97
f 112 111 97
f 113 112 97
f 114 113 97
f 83 5 4
f 89 83 81
f 83 39 5
f 89 115 83
f 102 116 90
f 90 89 84
f 102 90 87
f 90 117 89
f 115 118 39
f 118 38 39
f 119 118 115
f 115 39 83
f 117 115 89
f 116 117 90
f 117 119 115
f 120 119 117
f 116 120 117
f 103 121 102
f 103 102 99
f 108 122 103
f 109 123 108
f 108 103 101
f 109 108 105
f 121 116 102
f 122 121 103
f 121 124 116
f 124 120 116
f 125 124 121
f 123 122 108
f 122 125 121
f 123 126 122
f 126 125 122
f 49 50 54
f 8 10 97
f 10 43 97
f 43 45 97
f 6 8 97
f 45 47 97
f 47 49 97
f 49 54 97
f 54 127 97
f 127 128 97
f 54 53 127
f 127 61 128
f 128 62 129
f 53 61 127
f 61 62 128
f 62 130 129
f 129 130 131
f 131 132 133
f 130 132 131
f 132 134 133
f 62 63 130
f 63 66 130
f 130 66 132
f 66 135 132
f 66 79 135
f 135 136 137
f 132 135 134
f 135 137 134
f 134 137 138
f 137 139 138
f 137 140 139
f 139 141 142
f 128 129 97
f 129 131 97
f 131 133 97
f 133 143 97
f 143 144 97
f 144 145 97
f 145 146 97
f 146 147 97
f 133 134 143
f 143 138 144
f 144 148 145
f 134 138 143
f 138 148 144
f 148 149 145
f 145 149 146
f 146 150 147
f 149 150 146
f 150 151 147
f 138 139 148
f 139 142 148
f 148 142 149
f 142 152 149
f 142 153 152
f 149 152 150
f 152 154 150
f 150 154 151
f 154 155 151
f 152 156 154
f 154 157 155
f 79 136 135
f 136 140 137
f 24 158 26
f 158 159 26
f 160 158 24
f 159 161 162
f 160 163 158
f 158 164 159
f 164 161 159
f 163 164 158
f 30 162 31
f 159 162 30
f 162 165 31
f 31 165 33
f 165 166 33
f 26 159 30
f 162 167 165
f 167 168 165
f 161 167 162
f 165 168 166
f 168 169 166
f 37 170 36
f 170 160 36
f 36 160 24
f 38 171 37
f 171 170 37
f 172 171 38
f 170 173 160
f 173 163 160
f 171 174 170
f 174 173 170
f 175 174 171
f 176 177 161
f 161 177 167
f 163 178 164
f 178 176 164
f 164 176 161
f 179 180 177
f 177 180 181
f 180 182 183
f 178 184 176
f 184 179 176
f 184 185 179
f 176 179 177
f 179 186 180
f 167 181 168
f 181 187 168
f 177 181 167
f 168 187 169
f 187 188 169
f 180 183 181
f 181 183 187
f 183 189 187
f 183 190 189
f 187 189 188
f 189 191 188
f 189 192 191
f 193 178 163
f 194 193 173
f 173 193 163
f 174 194 173
f 175 195 174
f 195 194 174
f 193 196 178
f 196 184 178
f 197 196 193
f 196 198 184
f 194 197 193
f 195 199 194
f 199 197 194
f 197 200 196
f 199 201 197
f 33 166 69
f 69 202 70
f 166 202 69
f 70 203 72
f 202 203 70
f 203 204 72
f 166 169 202
f 202 205 203
f 169 205 202
f 203 206 204
f 205 206 203
f 206 207 204
f 72 204 74
f 204 208 74
f 74 208 76
f 76 209 78
f 208 209 76
f 209 210 78
f 204 207 208
f 207 211 208
f 208 211 209
f 211 212 209
f 209 212 210
f 169 188 205
f 188 213 205
f 205 213 206
f 213 214 206
f 206 214 207
f 188 191 213
f 191 215 213
f 213 215 214
f 191 216 215
f 215 217 218
f 215 218 214
f 214 218 219
f 218 220 221
f 214 219 207
f 207 219 211
f 219 222 211
f 211 222 212
f 222 223 212
f 212 223 224
f 218 221 219
f 219 221 222
f 221 225 222
f 221 226 225
f 222 225 223
f 223 227 228
f 225 227 223
f 225 229 227
f 227 230 231
f 118 172 38
f 119 232 118
f 232 172 118
f 120 233 119
f 233 232 119
f 172 175 171
f 232 234 172
f 234 175 172
f 233 235 232
f 235 234 232
f 124 236 120
f 236 233 120
f 237 236 124
f 125 237 124
f 126 238 125
f 238 237 125
f 236 239 233
f 239 235 233
f 240 239 236
f 237 240 236
f 238 241 237
f 241 240 237
f 242 195 175
f 234 242 175
f 235 243 234
f 243 242 234
f 244 243 235
f 245 199 195
f 242 245 195
f 245 246 199
f 243 247 242
f 247 245 242
f 248 247 243
f 247 249 245
f 239 244 235
f 240 250 239
f 250 244 239
f 251 250 240
f 241 251 240
f 244 248 243
f 250 252 244
f 252 248 244
f 248 253 247
f 252 254 248
f 255 252 250
f 251 255 250
f 255 256 252
f 79 257 136
f 78 258 80
f 80 258 257
f 80 257 79
f 257 259 136
f 258 260 257
f 257 260 259
f 260 261 259
f 136 259 140
f 140 141 139
f 140 262 141
f 141 263 153
f 259 262 140
f 259 261 262
f 261 264 262
f 262 264 263
f 262 263 141
f 263 265 153
f 264 266 263
f 263 266 265
f 266 267 265
f 141 153 142
f 153 156 152
f 153 265 156
f 156 268 157
f 156 157 154
f 157 269 155
f 157 270 269
f 265 268 156
f 265 267 268
f 267 271 268
f 268 271 270
f 268 270 157
f 270 272 269
f 271 273 270
f 270 273 272
f 273 274 272
f 78 210 258
f 210 224 275
f 212 224 210
f 224 276 275
f 258 275 260
f 210 275 258
f 275 277 260
f 260 277 261
f 261 278 264
f 277 278 261
f 275 276 277
f 276 279 277
f 277 279 278
f 279 280 278
f 278 280 281
f 223 228 224
f 224 228 276
f 228 282 276
f 227 231 228
f 228 231 282
f 231 283 282
f 231 284 283
f 276 282 279
f 282 285 279
f 279 285 280
f 285 286 280
f 280 286 287
f 286 288 287
f 282 283 285
f 283 289 285
f 285 289 286
f 283 290 289
f 289 291 292
f 289 292 286
f 286 292 288
f 292 293 288
f 292 294 293
f 264 281 266
f 278 281 264
f 281 295 266
f 266 295 267
f 295 296 267
f 281 287 295
f 280 287 281
f 287 297 295
f 295 297 296
f 297 298 296
f 267 296 271
f 271 299 273
f 296 299 271
f 273 300 274
f 299 300 273
f 300 301 274
f 296 298 299
f 299 302 300
f 298 302 299
f 300 303 301
f 302 303 300
f 303 304 301
f 287 288 297
f 288 305 297
f 297 305 298
f 305 306 298
f 298 306 302
f 288 293 305
f 293 307 305
f 293 308 307
f 305 307 306
f 307 309 306
f 306 309 310
f 307 311 309
f 309 312 313
f 306 310 302
f 302 310 303
f 310 314 303
f 303 314 304
f 314 315 304
f 309 313 310
f 310 313 314
f 313 316 314
f 313 317 316
f 314 316 315
f 316 318 315
f 316 319 318
f 320 321 106
f 321 107 106
f 322 323 320
f 323 321 320
f 321 324 107
f 323 325 321
f 326 327 322
f 327 323 322
f 328 329 326
f 329 327 326
f 327 330 323
f 331 320 114
f 332 322 331
f 320 106 114
f 322 320 331
f 331 114 97
f 332 331 97
f 333 332 97
f 334 333 97
f 333 326 332
f 334 328 333
f 335 336 334
f 326 322 332
f 328 326 333
f 336 328 334
f 335 334 97
f 337 335 97
f 338 337 97
f 339 338 97
f 340 329 328
f 341 340 336
f 329 342 327
f 340 343 329
f 344 341 345
f 341 346 340
f 344 347 341
f 337 345 335
f 338 348 337
f 345 336 335
f 348 345 337
f 349 339 97
f 350 349 97
f 351 350 97
f 339 352 338
f 352 348 338
f 353 352 339
f 354 353 349
f 349 353 339
f 350 354 349
f 351 355 350
f 336 340 328
f 345 341 336
f 348 344 345
f 352 356 348
f 356 344 348
f 324 357 109
f 324 109 107
f 325 324 321
f 325 358 324
f 330 359 325
f 330 325 323
f 342 330 327
f 357 123 109
f 358 357 324
f 357 360 123
f 360 126 123
f 361 360 357
f 359 358 325
f 358 361 357
f 359 362 358
f 362 361 358
f 343 342 329
f 342 363 330
f 343 364 342
f 346 343 340
f 347 346 341
f 346 365 343
f 363 359 330
f 364 363 342
f 363 366 359
f 366 362 359
f 367 366 363
f 365 364 343
f 364 367 363
f 365 368 364
f 368 367 364
f 147 369 97
f 369 370 97
f 370 371 97
f 371 372 97
f 372 373 97
f 373 374 97
f 374 375 97
f 375 376 97
f 376 377 97
f 147 151 369
f 369 378 370
f 370 379 371
f 151 378 369
f 378 379 370
f 371 380 372
f 372 381 373
f 379 380 371
f 380 381 372
f 381 382 373
f 151 155 378
f 155 383 378
f 378 383 379
f 383 384 379
f 155 269 383
f 383 385 384
f 379 384 380
f 384 386 380
f 380 386 381
f 386 387 381
f 384 388 386
f 386 389 387
f 390 351 97
f 391 390 97
f 392 391 97
f 393 392 97
f 394 395 97
f 395 396 97
f 377 394 97
f 396 393 97
f 373 382 374
f 374 397 375
f 375 398 376
f 382 397 374
f 397 398 375
f 376 399 377
f 377 400 394
f 394 401 395
f 398 399 376
f 400 401 394
f 399 400 377
f 381 387 382
f 387 402 382
f 382 402 397
f 402 403 397
f 387 404 402
f 402 405 403
f 397 403 398
f 403 406 398
f 398 406 399
f 406 407 399
f 403 408 406
f 405 408 403
f 408 409 406
f 356 410 344
f 390 411 351
f 355 354 350
f 411 355 351
f 412 411 390
f 353 413 352
f 413 356 352
f 354 414 353
f 414 413 353
f 413 415 356
f 355 416 354
f 416 414 354
f 414 417 413
f 416 418 414
f 419 416 355
f 411 419 355
f 420 419 411
f 419 421 416
f 420 422 419
f 410 347 344
f 415 410 356
f 347 423 346
f 410 424 347
f 415 425 410
f 423 426 365
f 426 368 365
f 427 426 423
f 423 365 346
f 424 423 347
f 425 424 410
f 428 425 415
f 424 427 423
f 425 429 424
f 429 427 424
f 417 415 413
f 418 417 414
f 417 428 415
f 421 418 416
f 428 430 425
f 430 429 425
f 418 431 417
f 422 421 419
f 421 432 418
f 422 433 421
f 431 428 417
f 432 431 418
f 431 434 428
f 434 430 428
f 435 434 431
f 433 432 421
f 432 435 431
f 436 435 432
f 433 436 432
f 391 412 390
f 392 437 391
f 437 412 391
f 438 437 392
f 396 439 393
f 393 438 392
f 395 440 396
f 439 438 393
f 440 439 396
f 412 420 411
f 437 441 412
f 441 420 412
f 442 441 437
f 438 442 437
f 439 443 438
f 444 443 439
f 443 442 438
f 443 445 442
f 401 440 395
f 400 446 401
f 401 447 440
f 446 447 401
f 399 407 400
f 407 446 400
f 406 409 407
f 407 448 446
f 440 444 439
f 447 444 440
f 447 449 444
f 444 450 443
f 446 451 447
f 441 452 420
f 442 453 441
f 409 448 407
f 448 451 446
f 449 450 444
f 451 449 447
f 448 454 451
f 451 455 449
f 454 455 451
f 455 456 449
f 452 422 420
f 453 452 441
f 452 457 422
f 445 453 442
f 453 458 452
f 445 459 453
f 457 433 422
f 458 457 452
f 459 458 453
f 457 460 433
f 460 436 433
f 461 460 457
f 458 461 457
f 459 462 458
f 462 461 458
f 450 445 443
f 450 463 445
f 449 456 450
f 456 463 450
f 463 459 445
f 463 464 459
f 455 465 456
f 465 466 456
f 456 466 463
f 466 464 463
f 464 462 459
f 360 467 126
f 467 238 126
f 468 467 360
f 361 468 360
f 362 469 361
f 469 468 361
f 467 470 238
f 470 241 238
f 471 470 467
f 468 471 467
f 469 472 468
f 472 471 468
f 366 473 362
f 473 469 362
f 367 474 366
f 474 473 366
f 475 474 367
f 473 476 469
f 476 472 469
f 474 477 473
f 477 476 473
f 478 477 474
f 479 251 241
f 470 479 241
f 471 480 470
f 480 479 470
f 481 480 471
f 482 255 251
f 479 482 251
f 482 483 255
f 480 484 479
f 484 482 479
f 485 484 480
f 484 486 482
f 472 481 471
f 476 487 472
f 487 481 472
f 488 487 476
f 477 488 476
f 481 485 480
f 487 489 481
f 489 485 481
f 485 490 484
f 489 491 485
f 492 489 487
f 488 492 487
f 492 493 489
f 368 475 367
f 426 494 368
f 494 475 368
f 427 495 426
f 495 494 426
f 496 495 427
f 475 478 474
f 494 497 475
f 497 478 475
f 495 498 494
f 498 497 494
f 429 496 427
f 430 499 429
f 499 496 429
f 500 498 495
f 496 500 495
f 499 501 496
f 501 500 496
f 502 501 499
f 503 499 430
f 434 503 430
f 435 504 434
f 504 503 434
f 436 505 435
f 505 504 435
f 503 502 499
f 504 506 503
f 506 502 503
f 505 507 504
f 507 506 504
f 478 508 477
f 508 488 477
f 509 508 478
f 497 509 478
f 498 510 497
f 510 509 497
f 508 511 488
f 511 492 488
f 512 511 508
f 511 513 492
f 509 512 508
f 510 514 509
f 514 512 509
f 512 515 511
f 514 516 512
f 517 510 498
f 500 517 498
f 501 518 500
f 518 517 500
f 519 518 501
f 517 520 510
f 520 514 510
f 521 520 517
f 520 522 514
f 518 521 517
f 523 521 518
f 521 524 520
f 502 519 501
f 506 525 502
f 525 519 502
f 526 525 506
f 507 526 506
f 519 523 518
f 525 527 519
f 527 523 519
f 523 528 521
f 527 529 523
f 530 527 525
f 526 530 525
f 530 531 527
f 460 532 436
f 532 505 436
f 533 532 460
f 461 533 460
f 462 534 461
f 534 533 461
f 532 535 505
f 535 507 505
f 536 535 532
f 533 536 532
f 534 537 533
f 537 536 533
f 465 538 466
f 466 539 464
f 538 539 466
f 464 540 462
f 540 534 462
f 539 540 464
f 538 541 539
f 541 542 539
f 540 543 534
f 543 537 534
f 539 542 540
f 542 543 540
f 535 544 507
f 544 526 507
f 545 544 535
f 536 545 535
f 546 545 536
f 544 547 526
f 547 530 526
f 548 547 544
f 547 549 530
f 545 548 544
f 550 548 545
f 548 551 547
f 537 546 536
f 543 552 537
f 552 546 537
f 542 553 543
f 553 552 543
f 554 553 542
f 546 550 545
f 552 555 546
f 555 550 546
f 550 556 548
f 555 557 550
f 553 558 552
f 559 558 553
f 558 555 552
f 558 560 555
f 269 385 383
f 385 388 384
f 269 272 385
f 385 561 388
f 388 389 386
f 388 562 389
f 272 561 385
f 272 274 561
f 274 563 561
f 561 563 562
f 561 562 388
f 562 564 389
f 563 565 562
f 562 565 564
f 565 566 564
f 389 404 387
f 404 405 402
f 389 564 404
f 404 567 405
f 405 568 408
f 408 569 409
f 564 567 404
f 567 568 405
f 564 566 567
f 567 570 568
f 566 570 567
f 568 569 408
f 570 571 568
f 568 571 569
f 571 572 569
f 409 573 448
f 569 573 409
f 573 454 448
f 569 572 573
f 573 574 454
f 572 574 573
f 454 575 455
f 574 575 454
f 575 465 455
f 274 301 563
f 563 576 565
f 301 576 563
f 565 577 566
f 576 577 565
f 577 578 566
f 301 304 576
f 576 579 577
f 304 579 576
f 577 580 578
f 579 580 577
f 580 581 578
f 566 578 570
f 578 582 570
f 570 582 571
f 571 583 572
f 582 583 571
f 578 581 582
f 581 584 582
f 582 584 583
f 583 585 586
f 584 585 583
f 304 315 579
f 315 587 579
f 579 587 580
f 587 588 580
f 580 588 581
f 315 318 587
f 318 589 587
f 318 590 589
f 587 589 588
f 589 591 588
f 588 591 592
f 589 593 591
f 591 594 595
f 588 592 581
f 581 592 584
f 592 596 584
f 584 596 585
f 596 597 585
f 591 595 592
f 592 595 596
f 595 598 596
f 595 599 598
f 596 598 597
f 598 600 597
f 598 601 600
f 572 586 574
f 583 586 572
f 586 602 574
f 574 602 575
f 575 603 465
f 602 603 575
f 586 604 602
f 604 605 602
f 585 604 586
f 602 605 603
f 605 606 603
f 603 538 465
f 603 606 538
f 606 541 538
f 585 597 604
f 597 607 604
f 604 607 605
f 605 608 606
f 607 608 605
f 608 609 606
f 597 600 607
f 600 610 607
f 607 610 608
f 600 611 610
f 610 612 613
f 610 613 608
f 608 613 609
f 613 614 609
f 613 615 614
f 606 609 541
f 609 554 541
f 541 554 542
f 614 559 554
f 609 614 554
f 554 559 553
f 614 616 559
f 559 617 558
f 186 182 180
f 182 618 190
f 185 619 186
f 185 186 179
f 186 620 182
f 620 618 182
f 619 620 186
f 620 621 618
f 621 622 618
f 623 621 620
f 190 192 189
f 182 190 183
f 190 624 192
f 624 625 192
f 618 624 190
f 192 216 191
f 192 625 216
f 625 626 216
f 618 622 624
f 622 627 624
f 624 627 625
f 627 628 625
f 625 628 626
f 628 629 626
f 198 185 184
f 200 198 196
f 630 619 185
f 198 630 185
f 201 200 197
f 200 631 198
f 631 630 198
f 632 631 200
f 630 633 619
f 633 623 619
f 619 623 620
f 631 634 630
f 634 633 630
f 635 634 631
f 621 636 622
f 636 637 622
f 627 638 628
f 628 639 629
f 638 639 628
f 639 640 629
f 622 637 627
f 637 638 627
f 638 641 639
f 637 642 638
f 643 642 637
f 642 641 638
f 639 644 640
f 641 644 639
f 644 645 640
f 633 646 623
f 623 647 621
f 647 636 621
f 646 647 623
f 634 648 633
f 648 646 633
f 636 643 637
f 647 649 636
f 649 643 636
f 646 650 647
f 648 651 646
f 650 649 647
f 651 650 646
f 216 217 215
f 216 626 217
f 626 652 217
f 217 652 220
f 217 220 218
f 652 653 220
f 220 653 226
f 626 629 652
f 629 654 652
f 652 654 653
f 654 655 653
f 653 655 656
f 655 657 656
f 220 226 221
f 226 229 225
f 653 656 226
f 226 656 229
f 656 658 229
f 229 230 227
f 229 658 230
f 658 659 230
f 230 659 284
f 659 660 284
f 656 657 658
f 657 661 658
f 658 661 659
f 661 662 659
f 659 662 660
f 662 663 660
f 629 640 654
f 654 664 655
f 640 664 654
f 655 665 657
f 664 665 655
f 665 666 657
f 664 667 665
f 640 645 664
f 645 667 664
f 665 668 666
f 667 668 665
f 668 669 666
f 657 666 661
f 666 670 661
f 661 670 662
f 662 671 663
f 670 671 662
f 671 672 663
f 666 669 670
f 670 673 671
f 669 673 670
f 671 674 672
f 673 674 671
f 672 675 676
f 674 675 672
f 675 677 676
f 246 201 199
f 201 632 200
f 246 678 201
f 678 632 201
f 249 246 245
f 253 249 247
f 679 678 246
f 249 679 246
f 632 635 631
f 678 680 632
f 680 635 632
f 681 680 678
f 679 681 678
f 254 253 248
f 253 682 249
f 682 679 249
f 254 683 253
f 683 682 253
f 256 254 252
f 256 684 254
f 684 683 254
f 682 685 679
f 685 681 679
f 686 685 682
f 683 686 682
f 684 687 683
f 687 686 683
f 635 688 634
f 680 689 635
f 688 648 634
f 689 688 635
f 681 690 680
f 690 689 680
f 688 691 648
f 691 651 648
f 692 691 688
f 689 692 688
f 690 693 689
f 693 692 689
f 685 694 681
f 694 690 681
f 695 694 685
f 686 695 685
f 687 696 686
f 696 695 686
f 694 697 690
f 697 693 690
f 698 697 694
f 695 698 694
f 696 699 695
f 699 698 695
f 642 700 641
f 641 701 644
f 701 702 644
f 644 702 645
f 702 703 645
f 649 704 643
f 704 705 643
f 706 704 649
f 650 706 649
f 706 707 704
f 643 705 642
f 705 700 642
f 700 701 641
f 700 708 701
f 705 709 700
f 701 710 702
f 702 711 703
f 704 712 705
f 708 710 701
f 709 708 700
f 710 711 702
f 711 713 703
f 710 714 711
f 711 715 713
f 712 709 705
f 707 712 704
f 708 716 710
f 709 717 708
f 712 718 709
f 714 715 711
f 717 716 708
f 718 717 709
f 716 714 710
f 714 719 715
f 715 720 721
f 716 722 714
f 722 719 714
f 719 720 715
f 645 703 667
f 667 723 668
f 703 723 667
f 703 713 723
f 723 724 725
f 668 725 669
f 723 725 668
f 725 726 669
f 669 726 673
f 726 727 673
f 673 727 674
f 725 728 726
f 713 724 723
f 713 721 724
f 724 729 728
f 724 728 725
f 728 730 726
f 728 731 730
f 730 732 733
f 727 734 674
f 726 730 727
f 727 733 734
f 734 735 736
f 674 734 675
f 734 736 675
f 675 736 677
f 677 737 738
f 736 737 677
f 738 739 740
f 737 739 738
f 736 741 737
f 737 742 739
f 730 733 727
f 733 735 734
f 733 743 735
f 735 744 741
f 741 745 742
f 735 741 736
f 741 742 737
f 715 721 713
f 721 729 724
f 729 731 728
f 731 732 730
f 721 746 729
f 729 747 731
f 746 747 729
f 747 748 731
f 720 746 721
f 731 748 732
f 732 749 743
f 748 749 732
f 749 750 743
f 732 743 733
f 743 744 735
f 744 745 741
f 743 750 744
f 744 751 745
f 750 751 744
f 651 752 650
f 752 706 650
f 691 753 651
f 753 752 651
f 752 754 706
f 692 755 691
f 755 753 691
f 693 756 692
f 756 755 692
f 753 757 752
f 755 758 753
f 754 707 706
f 757 754 752
f 758 757 753
f 758 759 757
f 707 760 712
f 754 761 707
f 757 762 754
f 763 756 693
f 697 763 693
f 764 763 697
f 756 765 755
f 763 766 756
f 698 764 697
f 699 767 698
f 767 764 698
f 764 768 763
f 767 769 764
f 765 758 755
f 766 765 756
f 765 770 758
f 766 771 765
f 768 766 763
f 769 768 764
f 768 772 766
f 769 773 768
f 760 718 712
f 761 760 707
f 717 774 716
f 718 775 717
f 775 774 717
f 760 776 718
f 776 775 718
f 774 722 716
f 762 761 754
f 759 762 757
f 761 777 760
f 777 776 760
f 762 778 761
f 778 777 761
f 722 779 719
f 719 780 720
f 774 781 722
f 780 782 720
f 781 779 722
f 779 780 719
f 777 783 776
f 775 784 774
f 776 785 775
f 784 781 774
f 785 784 775
f 783 785 776
f 770 759 758
f 771 770 765
f 759 786 762
f 786 778 762
f 787 786 759
f 770 787 759
f 771 788 770
f 788 787 770
f 772 771 766
f 773 772 768
f 772 789 771
f 789 788 771
f 773 790 772
f 790 789 772
f 778 791 777
f 786 792 778
f 787 793 786
f 791 783 777
f 792 791 778
f 794 779 781
f 794 781 784
f 793 792 786
f 794 784 785
f 794 785 783
f 794 783 791
f 788 795 787
f 789 796 788
f 790 797 789
f 795 793 787
f 796 795 788
f 794 791 792
f 794 792 793
f 794 793 795
f 797 796 789
f 794 795 796
f 794 796 797
f 739 798 740
f 739 799 798
f 798 800 801
f 801 802 803
f 803 804 805
f 742 799 739
f 799 800 798
f 742 806 799
f 799 807 800
f 800 802 801
f 802 804 803
f 800 808 802
f 802 809 804
f 805 810 811
f 811 812 813
f 813 814 815
f 804 810 805
f 810 812 811
f 804 816 810
f 810 817 812
f 812 814 813
f 814 818 815
f 812 819 814
f 814 820 818
f 720 782 746
f 746 821 747
f 747 822 748
f 782 821 746
f 821 822 747
f 822 823 748
f 748 823 749
f 749 824 750
f 750 825 751
f 823 824 749
f 824 825 750
f 825 826 751
f 794 782 780
f 794 821 782
f 794 822 821
f 794 823 822
f 826 827 828
f 794 824 823
f 794 825 824
f 745 806 742
f 751 828 745
f 745 828 806
f 806 829 807
f 828 829 806
f 806 807 799
f 807 830 808
f 829 830 807
f 830 831 808
f 808 831 809
f 831 832 809
f 807 808 800
f 808 809 802
f 809 816 804
f 751 826 828
f 828 827 829
f 829 833 830
f 830 834 831
f 827 833 829
f 833 834 830
f 794 780 779
f 794 826 825
f 794 827 826
f 794 833 827
f 794 834 833
f 794 835 834
f 794 836 835
f 794 837 836
f 794 838 837
f 794 839 838
f 794 840 839
f 794 841 840
f 809 832 816
f 816 842 817
f 832 842 816
f 842 843 817
f 816 817 810
f 817 819 812
f 817 843 819
f 843 844 819
f 844 845 820
f 845 846 847
f 819 820 814
f 820 847 818
f 819 844 820
f 820 845 847
f 831 835 832
f 832 836 842
f 842 837 843
f 834 835 831
f 835 836 832
f 836 837 842
f 837 838 843
f 843 838 844
f 844 839 845
f 845 840 846
f 838 839 844
f 839 840 845
f 840 841 846
f 230 284 231
f 284 290 283
f 284 660 290
f 660 848 290
f 660 663 848
f 290 291 289
f 290 848 291
f 848 849 291
f 291 294 292
f 291 849 294
f 849 850 294
f 294 308 293
f 294 850 308
f 663 851 848
f 848 851 849
f 851 852 849
f 849 852 850
f 852 853 850
f 850 853 854
f 663 672 851
f 851 676 852
f 672 676 851
f 852 855 853
f 676 855 852
f 855 856 853
f 676 677 855
f 855 738 856
f 677 738 855
f 738 740 856
f 308 311 307
f 850 854 308
f 308 854 311
f 854 857 311
f 311 312 309
f 311 857 312
f 857 858 312
f 853 859 854
f 854 859 857
f 859 860 857
f 860 861 858
f 857 860 858
f 312 317 313
f 317 319 316
f 312 858 317
f 858 862 317
f 317 862 319
f 319 590 318
f 862 863 319
f 319 863 590
f 863 864 590
f 861 865 862
f 858 861 862
f 862 865 863
f 865 866 863
f 863 866 864
f 866 867 864
f 853 856 859
f 859 868 860
f 856 868 859
f 860 869 861
f 868 869 860
f 869 870 861
f 856 740 868
f 868 871 869
f 740 871 868
f 869 872 870
f 871 872 869
f 872 873 870
f 861 870 865
f 865 874 866
f 870 874 865
f 866 875 867
f 874 875 866
f 875 876 867
f 870 873 874
f 874 877 875
f 873 877 874
f 875 878 876
f 877 878 875
f 878 879 876
f 740 798 871
f 798 801 871
f 871 801 872
f 801 803 872
f 872 803 873
f 873 805 877
f 803 805 873
f 877 811 878
f 805 811 877
f 811 813 878
f 878 813 879
f 813 815 879
f 483 256 255
f 483 880 256
f 880 684 256
f 881 880 483
f 486 483 482
f 490 486 484
f 486 881 483
f 490 882 486
f 882 881 486
f 880 883 684
f 883 687 684
f 884 883 880
f 881 884 880
f 882 885 881
f 885 884 881
f 491 490 485
f 886 882 490
f 491 886 490
f 493 491 489
f 493 887 491
f 887 886 491
f 888 887 493
f 889 885 882
f 886 889 882
f 887 890 886
f 890 889 886
f 891 890 887
f 883 892 687
f 892 696 687
f 893 892 883
f 884 893 883
f 885 894 884
f 894 893 884
f 892 895 696
f 895 699 696
f 896 895 892
f 893 896 892
f 894 897 893
f 897 896 893
f 889 898 885
f 898 894 885
f 899 898 889
f 890 899 889
f 891 900 890
f 900 899 890
f 898 901 894
f 901 897 894
f 902 901 898
f 899 902 898
f 900 903 899
f 903 902 899
f 513 493 492
f 515 513 511
f 513 888 493
f 904 888 513
f 515 904 513
f 516 515 512
f 905 904 515
f 516 905 515
f 888 891 887
f 904 906 888
f 906 891 888
f 905 907 904
f 907 906 904
f 908 907 905
f 522 516 514
f 909 905 516
f 524 522 520
f 522 909 516
f 910 909 522
f 524 910 522
f 528 524 521
f 911 910 524
f 909 908 905
f 912 908 909
f 910 912 909
f 529 528 523
f 528 911 524
f 529 913 528
f 913 911 528
f 531 529 527
f 914 913 529
f 531 914 529
f 915 912 910
f 911 915 910
f 913 916 911
f 916 915 911
f 917 916 913
f 914 917 913
f 906 918 891
f 918 900 891
f 919 918 906
f 907 919 906
f 908 920 907
f 920 919 907
f 918 921 900
f 919 922 918
f 921 903 900
f 922 921 918
f 920 923 919
f 923 922 919
f 924 923 920
f 912 925 908
f 925 920 908
f 925 924 920
f 915 926 912
f 926 925 912
f 916 927 915
f 927 926 915
f 917 928 916
f 928 927 916
f 926 929 925
f 929 924 925
f 930 929 926
f 927 930 926
f 928 931 927
f 931 930 927
f 549 531 530
f 551 549 547
f 549 932 531
f 932 914 531
f 933 932 549
f 556 551 548
f 551 933 549
f 934 933 551
f 932 935 914
f 935 917 914
f 936 935 932
f 933 936 932
f 934 937 933
f 937 936 933
f 617 938 560
f 938 939 560
f 557 556 550
f 556 934 551
f 940 934 556
f 557 940 556
f 560 557 555
f 617 560 558
f 560 939 557
f 939 940 557
f 938 941 939
f 941 942 939
f 943 937 934
f 940 943 934
f 939 942 940
f 942 943 940
f 944 945 941
f 946 947 944
f 944 947 945
f 945 948 949
f 947 948 945
f 935 950 917
f 950 928 917
f 951 950 935
f 936 951 935
f 937 952 936
f 952 951 936
f 953 931 928
f 954 953 950
f 951 954 950
f 952 955 951
f 955 954 951
f 950 953 928
f 949 956 943
f 941 945 942
f 942 949 943
f 945 949 942
f 943 956 937
f 956 952 937
f 956 957 952
f 958 957 956
f 957 955 952
f 949 958 956
f 948 958 949
f 895 959 699
f 959 767 699
f 960 959 895
f 959 961 767
f 960 962 959
f 896 960 895
f 963 960 896
f 897 963 896
f 964 963 897
f 963 965 960
f 961 769 767
f 962 961 959
f 961 966 769
f 962 967 961
f 965 962 960
f 968 965 963
f 965 969 962
f 968 970 965
f 901 964 897
f 902 971 901
f 971 964 901
f 964 968 963
f 971 972 964
f 903 973 902
f 973 971 902
f 974 973 903
f 973 975 971
f 974 976 973
f 972 968 964
f 975 972 971
f 972 977 968
f 976 975 973
f 978 976 974
f 975 979 972
f 976 980 975
f 978 981 976
f 966 773 769
f 967 966 961
f 966 982 773
f 982 790 773
f 967 983 966
f 983 982 966
f 984 983 967
f 969 967 962
f 970 969 965
f 969 984 967
f 985 984 969
f 970 985 969
f 977 986 970
f 986 985 970
f 982 987 790
f 983 988 982
f 984 989 983
f 987 797 790
f 988 987 982
f 794 797 987
f 794 987 988
f 794 988 989
f 989 988 983
f 794 989 990
f 794 990 991
f 985 990 984
f 986 991 985
f 992 993 986
f 990 989 984
f 991 990 985
f 794 991 993
f 794 993 994
f 794 994 995
f 993 991 986
f 994 993 992
f 794 995 996
f 794 996 997
f 977 970 968
f 979 977 972
f 980 979 975
f 979 992 977
f 992 986 977
f 980 998 979
f 998 992 979
f 999 998 980
f 981 980 976
f 1000 981 978
f 981 999 980
f 1001 999 981
f 1000 1001 981
f 1002 1001 1000
f 998 994 992
f 999 995 998
f 995 994 998
f 996 995 999
f 997 996 1001
f 1001 996 999
f 1002 997 1001
f 1003 1004 1002
f 1005 1006 1003
f 1004 997 1002
f 1006 1004 1003
f 815 818 1007
f 1007 1008 1009
f 1009 1010 1011
f 1011 1012 1013
f 818 1008 1007
f 1008 1010 1009
f 818 847 1008
f 1008 1014 1010
f 1010 1012 1011
f 1012 1015 1013
f 1010 1016 1012
f 1012 1017 1015
f 1013 1015 1018
f 1018 1019 1020
f 1018 1020 1021
f 1020 1022 946
f 1020 1023 1022
f 1015 1019 1018
f 1015 1024 1019
f 1019 1025 1023
f 1019 1023 1020
f 1023 1026 1022
f 1023 1027 1026
f 1026 1028 1029
f 794 1030 841
f 794 1031 1030
f 794 1032 1031
f 794 1033 1032
f 794 1034 1033
f 794 997 1004
f 794 1035 1034
f 794 1036 1035
f 794 1037 1036
f 794 1038 1039
f 794 1040 1038
f 794 1039 1037
f 846 1041 1014
f 1041 1042 1016
f 847 1014 1008
f 1014 1016 1010
f 847 846 1014
f 1014 1041 1016
f 1017 1043 1024
f 1042 1043 1017
f 1024 1044 1025
f 1043 1044 1024
f 1044 1045 1025
f 1016 1017 1012
f 1017 1024 1015
f 1016 1042 1017
f 846 841 1041
f 1041 1030 1042
f 1042 1031 1043
f 841 1030 1041
f 1030 1031 1042
f 1031 1032 1043
f 1043 1032 1044
f 1044 1033 1045
f 1045 1034 1046
f 1032 1033 1044
f 1033 1034 1045
f 1034 1035 1046
f 794 1004 1006
f 794 1006 1047
f 794 1047 1048
f 794 1048 1049
f 794 1049 1050
f 794 1050 1040
f 1051 1047 1005
f 1052 1048 1051
f 1053 1049 1052
f 1047 1006 1005
f 1048 1047 1051
f 1049 1048 1052
f 1054 1050 1053
f 1055 1038 1056
f 1056 1040 1054
f 1039 1038 1055
f 1038 1040 1056
f 1050 1049 1053
f 1040 1050 1054
f 1025 1045 1027
f 1045 1046 1027
f 1027 1046 1028
f 1046 1057 1028
f 1024 1025 1019
f 1025 1027 1023
f 1028 1057 1058
f 1057 1059 1058
f 1060 1061 1062
f 1059 1061 1060
f 1061 1055 1062
f 1058 1059 1060
f 1027 1028 1026
f 1028 1058 1029
f 1046 1035 1057
f 1057 1036 1059
f 1059 1037 1061
f 1035 1036 1057
f 1036 1037 1059
f 1037 1039 1061
f 1061 1039 1055
f 921 974 903
f 1063 974 921
f 922 1063 921
f 1064 1063 922
f 1063 978 974
f 923 1064 922
f 1064 1065 1063
f 1066 1064 923
f 924 1066 923
f 1067 1066 924
f 1066 1068 1064
f 1067 1069 1066
f 1070 1071 1067
f 1072 1073 1070
f 1065 978 1063
f 1068 1065 1064
f 1065 1000 978
f 1068 1074 1065
f 1069 1068 1066
f 1071 1069 1067
f 1073 1071 1070
f 1069 1075 1068
f 1071 1076 1069
f 1073 1077 1071
f 929 1067 924
f 930 1070 929
f 1070 1067 929
f 1072 1070 930
f 931 1072 930
f 1074 1000 1065
f 1075 1074 1068
f 1074 1002 1000
f 1076 1075 1069
f 1075 1003 1074
f 1003 1002 1074
f 1005 1003 1075
f 1051 1005 1076
f 1076 1005 1075
f 1077 1076 1071
f 1078 1079 1080
f 1081 1073 1072
f 1082 1081 1083
f 1081 1084 1073
f 1079 1082 1080
f 1085 1079 1078
f 1082 1086 1081
f 1079 1087 1082
f 946 1022 947
f 1022 1088 947
f 1022 1026 1088
f 1088 1029 1089
f 1090 1091 957
f 1091 1085 1078
f 1090 1092 1091
f 1088 1089 948
f 947 1088 948
f 948 1089 958
f 1089 1090 958
f 1089 1093 1090
f 1092 1062 1085
f 1093 1060 1092
f 1026 1029 1088
f 1029 1093 1089
f 1029 1058 1093
f 1092 1085 1091
f 1093 1092 1090
f 1085 1094 1079
f 1083 1072 931
f 1080 1083 953
f 953 1083 931
f 1083 1081 1072
f 955 1078 954
f 1078 1080 954
f 954 1080 953
f 1080 1082 1083
f 957 1091 955
f 1091 1078 955
f 958 1090 957
f 1077 1051 1076
f 1052 1051 1077
f 1084 1052 1077
f 1086 1053 1084
f 1053 1052 1084
f 1054 1053 1086
f 1056 1054 1087
f 1087 1054 1086
f 1094 1056 1087
f 1084 1077 1073
f 1086 1084 1081
f 1087 1086 1082
f 1094 1087 1079
f 1058 1060 1093
f 1060 1062 1092
f 1062 1094 1085
f 1062 1055 1094
f 1055 1056 1094
f 590 593 589
f 590 864 593
f 864 1095 593
f 593 594 591
f 593 1095 594
f 1095 1096 594
f 594 1096 599
f 1096 1097 599
f 867 1098 1095
f 864 867 1095
f 1095 1098 1096
f 1098 1099 1096
f 1099 1100 1097
f 1096 1099 1097
f 594 599 595
f 599 601 598
f 599 1097 601
f 1097 1101 601
f 601 611 600
f 601 1101 611
f 1101 1102 611
f 611 1102 612
f 1100 1103 1101
f 1097 1100 1101
f 1101 1103 1102
f 1103 1104 1102
f 1102 1104 1105
f 867 876 1098
f 1098 1106 1099
f 876 1106 1098
f 1099 1107 1100
f 1106 1107 1099
f 1107 1108 1100
f 876 879 1106
f 1106 1109 1107
f 879 1109 1106
f 1107 1110 1108
f 1109 1110 1107
f 1110 1111 1108
f 1100 1108 1103
f 1108 1112 1103
f 1103 1112 1104
f 1104 1113 1114
f 1112 1113 1104
f 1113 1115 1114
f 1108 1111 1112
f 1112 1116 1113
f 1111 1116 1112
f 1113 1117 1115
f 1116 1117 1113
f 1117 1021 1115
f 1102 1105 612
f 612 1105 615
f 1105 1118 615
f 611 612 610
f 612 615 613
f 615 616 614
f 615 1118 616
f 1118 1119 616
f 1104 1114 1105
f 1105 1114 1118
f 1114 1120 1118
f 1120 1121 1119
f 1118 1120 1119
f 1119 1121 938
f 616 617 559
f 616 1119 617
f 1119 938 617
f 1121 941 938
f 1114 1115 1120
f 1115 1122 1120
f 1120 1122 1121
f 1121 944 941
f 1122 944 1121
f 1115 1021 1122
f 1122 946 944
f 1021 946 1122
f 879 815 1109
f 815 1007 1109
f 1109 1007 1110
f 1110 1009 1111
f 1007 1009 1110
f 1009 1011 1111
f 1111 1011 1116
f 1011 1013 1116
f 1116 1013 1117
f 1013 1018 1117
f 1117 1018 1021
f 1021 1020 946
f 1123 1124 1125
f 1125 1126 1127
f 1127 1128 1129
f 1124 1126 1125
f 1126 1128 1127
f 1129 1130 1131
f 1128 1130 1129
f 1130 1132 1131
f 1124 1133 1126
f 1126 1134 1128
f 1130 1135 1132
f 1128 1136 1130
f 1133 1134 1126
f 1134 1136 1128
f 1134 1137 1136
f 1137 1138 1136
f 1136 1135 1130
f 1135 1139 1132
f 1136 1138 1135
f 1138 1140 1135
f 1135 1140 1139
f 1140 1141 1139
f 1142 1143 1144
f 1143 1145 1144
f 1146 1147 1123
f 1144 1145 1146
f 1145 1147 1146
f 1147 1124 1123
f 1148 1149 1142
f 1150 1151 1148
f 1149 1143 1142
f 1151 1149 1148
f 1152 1151 1150
f 1153 1142 1144
f 1153 1148 1142
f 1153 1150 1148
f 1153 1154 1150
f 1153 1123 1125
f 1153 1146 1123
f 1153 1144 1146
f 1153 1125 1127
f 1153 1127 1129
f 1153 1129 1131
f 1154 1152 1150
f 1155 1156 1154
f 1157 1158 1155
f 1156 1152 1154
f 1158 1156 1155
f 1153 1155 1154
f 1153 1157 1155
f 1159 1160 1157
f 1161 1162 1159
f 1160 1158 1157
f 1162 1160 1159
f 1163 1162 1161
f 1153 1159 1157
f 1153 1161 1159
f 1153 1164 1161
f 1164 1163 1161
f 1165 1166 1164
f 1166 1163 1164
f 1153 1165 1164
f 1153 1167 1165
f 1153 1168 1167
f 1143 1169 1145
f 1147 1170 1124
f 1145 1171 1147
f 1149 1172 1143
f 1151 1173 1149
f 1169 1171 1145
f 1171 1170 1147
f 1170 1133 1124
f 1170 1174 1133
f 1174 1175 1133
f 1171 1176 1170
f 1169 1177 1171
f 1177 1176 1171
f 1176 1174 1170
f 1172 1169 1143
f 1173 1172 1149
f 1178 1173 1151
f 1172 1179 1169
f 1173 1180 1172
f 1180 1179 1172
f 1181 1180 1173
f 1179 1177 1169
f 1133 1175 1134
f 1175 1137 1134
f 1182 1137 1175
f 1182 1175 1174
f 1182 1140 1138
f 1182 1141 1140
f 1182 1138 1137
f 1182 1176 1177
f 1182 1174 1176
f 1182 1177 1179
f 1182 1179 1180
f 1182 1180 1181
f 1152 1178 1151
f 1156 1183 1152
f 1158 1184 1156
f 1160 1185 1158
f 1162 1186 1160
f 1183 1178 1152
f 1184 1183 1156
f 1178 1181 1173
f 1183 1187 1178
f 1187 1181 1178
f 1184 1188 1183
f 1188 1187 1183
f 1189 1188 1184
f 1185 1184 1158
f 1186 1185 1160
f 1190 1186 1162
f 1185 1189 1184
f 1191 1189 1185
f 1186 1191 1185
f 1163 1190 1162
f 1166 1192 1163
f 1182 1181 1187
f 1182 1187 1188
f 1182 1188 1189
f 1182 1189 1191
f 1182 1191 1193
f 1182 1193 1194
f 1192 1190 1163
f 1193 1191 1186
f 1190 1193 1186
f 1194 1193 1190
f 1192 1194 1190
f 1195 1192 1166
f 1182 1194 1196
f 1182 1196 1197
f 1196 1194 1192
f 1195 1196 1192
f 1197 1196 1195
f 1198 1197 1195
f 1131 1132 1199
f 1199 1200 1201
f 1132 1200 1199
f 1201 1202 1203
f 1203 1204 1205
f 1200 1202 1201
f 1202 1204 1203
f 1204 1206 1205
f 1132 1139 1200
f 1200 1207 1202
f 1202 1208 1204
f 1204 1209 1206
f 1139 1207 1200
f 1207 1208 1202
f 1139 1141 1207
f 1141 1210 1207
f 1207 1210 1208
f 1210 1211 1208
f 1208 1209 1204
f 1208 1211 1209
f 1211 1212 1209
f 1209 1212 1213
f 1209 1213 1206
f 1153 1131 1199
f 1153 1199 1201
f 1153 1201 1203
f 1153 1203 1205
f 1153 1205 1214
f 1153 1214 1215
f 1205 1206 1214
f 1214 1216 1215
f 1206 1216 1214
f 1216 1217 1215
f 1215 1217 1218
f 1217 1219 1218
f 1153 1215 1218
f 1153 1218 1220
f 1153 1220 1221
f 1153 1221 1222
f 1218 1219 1220
f 1220 1223 1221
f 1221 1224 1222
f 1219 1223 1220
f 1223 1224 1221
f 1153 1225 1226
f 1153 1226 1227
f 1153 1228 1168
f 1153 1229 1230
f 1153 1230 1228
f 1153 1227 1229
f 1229 1231 1230
f 1231 1232 1230
f 1233 1231 1229
f 1153 1222 1234
f 1153 1234 1225
f 1222 1235 1234
f 1234 1236 1225
f 1235 1236 1234
f 1224 1235 1222
f 1236 1237 1225
f 1225 1237 1226
f 1226 1238 1227
f 1227 1233 1229
f 1237 1238 1226
f 1238 1233 1227
f 1182 1210 1141
f 1182 1211 1210
f 1182 1212 1211
f 1212 1239 1213
f 1182 1239 1212
f 1182 1240 1239
f 1182 1241 1240
f 1182 1242 1241
f 1182 1243 1242
f 1182 1244 1243
f 1182 1245 1244
f 1206 1213 1216
f 1216 1246 1217
f 1217 1247 1219
f 1219 1248 1223
f 1223 1249 1224
f 1224 1250 1235
f 1213 1246 1216
f 1246 1247 1217
f 1213 1239 1246
f 1239 1240 1246
f 1246 1240 1247
f 1240 1241 1247
f 1247 1241 1248
f 1241 1242 1248
f 1247 1248 1219
f 1248 1249 1223
f 1249 1250 1224
f 1248 1242 1249
f 1242 1243 1249
f 1249 1243 1250
f 1243 1244 1250
f 1250 1244 1251
f 1231 1252 1232
f 1182 1253 1254
f 1182 1255 1245
f 1182 1256 1255
f 1182 1257 1258
f 1182 1254 1257
f 1182 1258 1256
f 1182 1197 1259
f 1182 1259 1253
f 1259 1197 1198
f 1260 1259 1198
f 1253 1259 1260
f 1261 1253 1260
f 1252 1261 1232
f 1262 1252 1231
f 1254 1253 1261
f 1252 1254 1261
f 1257 1254 1252
f 1262 1257 1252
f 1235 1251 1236
f 1236 1263 1237
f 1237 1264 1238
f 1238 1265 1233
f 1233 1262 1231
f 1245 1255 1263
f 1263 1255 1264
f 1255 1256 1264
f 1264 1256 1265
f 1250 1251 1235
f 1251 1263 1236
f 1263 1264 1237
f 1244 1245 1251
f 1251 1245 1263
f 1265 1262 1233
f 1264 1265 1238
f 1256 1258 1265
f 1258 1257 1262
f 1265 1258 1262
f 1266 1166 1165
f 1167 1266 1165
f 1168 1267 1167
f 1267 1266 1167
f 1266 1195 1166
f 1267 1198 1266
f 1198 1195 1266
f 1228 1268 1168
f 1268 1267 1168
f 1232 1268 1228
f 1230 1232 1228
f 1268 1260 1267
f 1232 1261 1268
f 1260 1198 1267
f 1261 1260 1268
