# sionna2 mesh — x500v2__arm.obj
# group=arm  verts=826  tris=1636
v 0.046025 0.048940 -0.007695
v 0.047482 0.047482 -0.008000
v 0.047482 0.047482 -0.000000
v 0.048940 0.046025 -0.007695
v 0.044665 0.050299 -0.006898
v 0.050299 0.044665 -0.006898
v 0.043482 0.051482 -0.005657
v 0.051482 0.043482 -0.005657
v 0.070392 0.070392 -0.008000
v 0.071850 0.068935 -0.007695
v 0.068935 0.071850 -0.007695
v 0.073209 0.067576 -0.006898
v 0.067576 0.073209 -0.006898
v 0.074392 0.066392 -0.005657
v 0.066392 0.074392 -0.005657
v 0.090486 0.096120 -0.006898
v 0.097303 0.089303 -0.005657
v 0.093303 0.093303 -0.008000
v 0.094760 0.091845 -0.007695
v 0.091845 0.094760 -0.007695
v 0.096120 0.090486 -0.006898
v 0.089303 0.097303 -0.005657
v 0.042604 0.052360 -0.003984
v 0.075270 0.065515 -0.003984
v 0.052360 0.042604 -0.003984
v 0.065515 0.075270 -0.003984
v 0.098180 0.088425 -0.003984
v 0.088425 0.098180 -0.003984
v 0.042041 0.052923 -0.002061
v 0.041825 0.053139 0.000000
v 0.064952 0.075833 -0.002061
v 0.075833 0.064952 -0.002061
v 0.052923 0.042041 -0.002061
v 0.053139 0.041825 -0.000000
v 0.076049 0.064736 -0.000000
v 0.098744 0.087862 -0.002061
v 0.087862 0.098744 -0.002061
v 0.064736 0.076049 0.000000
v 0.098960 0.087646 -0.000000
v 0.087646 0.098960 0.000000
v 0.114756 0.117670 -0.007695
v 0.113396 0.119030 -0.006898
v 0.112213 0.120213 -0.005657
v 0.111335 0.121091 -0.003984
v 0.110772 0.121654 -0.002061
v 0.117670 0.114756 -0.007695
v 0.119030 0.113396 -0.006898
v 0.120213 0.112213 -0.005657
v 0.121091 0.111335 -0.003984
v 0.121654 0.110772 -0.002061
v 0.121870 0.110556 -0.000000
v 0.116213 0.116213 -0.008000
v 0.139123 0.139123 -0.008000
v 0.140581 0.137666 -0.007695
v 0.137666 0.140581 -0.007695
v 0.136306 0.141940 -0.006898
v 0.141940 0.136306 -0.006898
v 0.143123 0.135123 -0.005657
v 0.162034 0.162034 -0.008000
v 0.163491 0.160576 -0.007695
v 0.160576 0.163491 -0.007695
v 0.164850 0.159217 -0.006898
v 0.135123 0.143123 -0.005657
v 0.159217 0.164850 -0.006898
v 0.144001 0.134245 -0.003984
v 0.134245 0.144001 -0.003984
v 0.158034 0.166034 -0.005657
v 0.157156 0.166911 -0.003984
v 0.166034 0.158034 -0.005657
v 0.166911 0.157156 -0.003984
v 0.162034 0.162034 -0.000000
v 0.144564 0.133682 -0.002061
v 0.133682 0.144564 -0.002061
v 0.110556 0.121870 0.000000
v 0.144780 0.133466 -0.000000
v 0.133466 0.144780 0.000000
v 0.156593 0.167474 -0.002061
v 0.156377 0.167690 0.000000
v 0.167474 0.156593 -0.002061
v 0.167690 0.156377 -0.000000
v 0.042041 0.052923 0.002061
v 0.042604 0.052360 0.003984
v 0.064952 0.075833 0.002061
v 0.043482 0.051482 0.005657
v 0.052923 0.042041 0.002061
v 0.075833 0.064952 0.002061
v 0.052360 0.042604 0.003984
v 0.051482 0.043482 0.005657
v 0.098744 0.087862 0.002061
v 0.087862 0.098744 0.002061
v 0.075270 0.065515 0.003984
v 0.065515 0.075270 0.003984
v 0.098180 0.088425 0.003984
v 0.088425 0.098180 0.003984
v 0.044665 0.050299 0.006898
v 0.050299 0.044665 0.006898
v 0.046025 0.048940 0.007695
v 0.048940 0.046025 0.007695
v 0.047482 0.047482 0.008000
v 0.074392 0.066392 0.005657
v 0.066392 0.074392 0.005657
v 0.097303 0.089303 0.005657
v 0.089303 0.097303 0.005657
v 0.073209 0.067576 0.006898
v 0.067576 0.073209 0.006898
v 0.071850 0.068935 0.007695
v 0.068935 0.071850 0.007695
v 0.070392 0.070392 0.008000
v 0.096120 0.090486 0.006898
v 0.090486 0.096120 0.006898
v 0.094760 0.091845 0.007695
v 0.091845 0.094760 0.007695
v 0.093303 0.093303 0.008000
v 0.110772 0.121654 0.002061
v 0.111335 0.121091 0.003984
v 0.112213 0.120213 0.005657
v 0.113396 0.119030 0.006898
v 0.114756 0.117670 0.007695
v 0.121654 0.110772 0.002061
v 0.121091 0.111335 0.003984
v 0.120213 0.112213 0.005657
v 0.119030 0.113396 0.006898
v 0.117670 0.114756 0.007695
v 0.144564 0.133682 0.002061
v 0.133682 0.144564 0.002061
v 0.144001 0.134245 0.003984
v 0.134245 0.144001 0.003984
v 0.156593 0.167474 0.002061
v 0.157156 0.166911 0.003984
v 0.151225 0.160963 0.004000
v 0.157164 0.166903 0.004000
v 0.167474 0.156593 0.002061
v 0.166911 0.157156 0.003984
v 0.160963 0.151225 0.004000
v 0.166903 0.157164 0.004000
v 0.143123 0.135123 0.005657
v 0.135123 0.143123 0.005657
v 0.160094 0.152094 0.005657
v 0.116213 0.116213 0.008000
v 0.137666 0.140581 0.007695
v 0.139123 0.139123 0.008000
v 0.136306 0.141940 0.006898
v 0.141940 0.136306 0.006898
v 0.140581 0.137666 0.007695
v 0.152094 0.160094 0.005657
v 0.164850 0.159217 0.006898
v 0.159217 0.164850 0.006898
v 0.163491 0.160576 0.007695
v 0.160576 0.163491 0.007695
v 0.162034 0.162034 0.008000
v 0.152421 0.159767 0.006000
v 0.159767 0.152421 0.006000
v 0.158361 0.165706 0.006000
v 0.165706 0.158361 0.006000
v 0.146548 0.165640 0.004000
v 0.146548 0.165640 0.006000
v 0.147573 0.169352 0.006000
v 0.147573 0.169352 0.004000
v 0.152876 0.171544 0.006000
v 0.165640 0.146548 0.004000
v 0.169352 0.147573 0.004000
v 0.165640 0.146548 0.006000
v 0.171544 0.152876 0.004000
v 0.169352 0.147573 0.006000
v 0.152876 0.171544 0.004000
v 0.156553 0.177342 0.004000
v 0.177342 0.156553 0.004000
v 0.171544 0.152876 0.006000
v 0.160513 0.183848 0.004000
v 0.183848 0.160513 0.004000
v 0.156553 0.177342 0.006000
v 0.177342 0.156553 0.006000
v 0.160513 0.183848 0.006000
v 0.183848 0.160513 0.006000
v 0.165322 0.189363 0.004000
v 0.169423 0.192899 0.004000
v 0.189363 0.165322 0.004000
v 0.165322 0.189363 0.006000
v 0.169423 0.192899 0.006000
v 0.172675 0.195303 0.006000
v 0.172675 0.195303 0.004000
v 0.174443 0.199192 0.006000
v 0.174443 0.199192 0.004000
v 0.189363 0.165322 0.006000
v 0.195303 0.172675 0.004000
v 0.200189 0.176784 0.004000
v 0.199192 0.174443 0.004000
v 0.192899 0.169423 0.004000
v 0.192899 0.169423 0.006000
v 0.195303 0.172675 0.006000
v 0.199192 0.174443 0.006000
v 0.200189 0.176784 0.006000
v 0.176784 0.200189 0.004000
v 0.181726 0.199404 0.004000
v 0.176784 0.200189 0.006000
v 0.181726 0.199404 0.006000
v 0.186287 0.198379 0.006000
v 0.186287 0.198379 0.004000
v 0.199404 0.181726 0.004000
v 0.198379 0.186287 0.004000
v 0.195932 0.191902 0.004000
v 0.191902 0.195932 0.004000
v 0.199404 0.181726 0.006000
v 0.191902 0.195932 0.006000
v 0.195932 0.191902 0.006000
v 0.198379 0.186287 0.006000
v -0.117670 0.114756 -0.007695
v -0.094760 0.091845 -0.007695
v -0.096120 0.090486 -0.006898
v -0.119030 0.113396 -0.006898
v -0.097303 0.089303 -0.005657
v -0.120213 0.112213 -0.005657
v -0.098180 0.088425 -0.003984
v -0.121091 0.111335 -0.003984
v -0.098744 0.087862 -0.002061
v -0.121654 0.110772 -0.002061
v -0.098960 0.087646 0.000000
v -0.166034 0.158034 -0.005657
v -0.143123 0.135123 -0.005657
v -0.144001 0.134245 -0.003984
v -0.166911 0.157156 -0.003984
v -0.162034 0.162034 -0.008000
v -0.160576 0.163491 -0.007695
v -0.139123 0.139123 -0.008000
v -0.163491 0.160576 -0.007695
v -0.140581 0.137666 -0.007695
v -0.141940 0.136306 -0.006898
v -0.164850 0.159217 -0.006898
v -0.159217 0.164850 -0.006898
v -0.137666 0.140581 -0.007695
v -0.158034 0.166034 -0.005657
v -0.136306 0.141940 -0.006898
v -0.162034 0.162034 -0.000000
v -0.116213 0.116213 -0.008000
v -0.114756 0.117670 -0.007695
v -0.135123 0.143123 -0.005657
v -0.113396 0.119030 -0.006898
v -0.093303 0.093303 -0.008000
v -0.091845 0.094760 -0.007695
v -0.112213 0.120213 -0.005657
v -0.090486 0.096120 -0.006898
v -0.134245 0.144001 -0.003984
v -0.111335 0.121091 -0.003984
v -0.089303 0.097303 -0.005657
v -0.157156 0.166911 -0.003984
v -0.144564 0.133682 -0.002061
v -0.167474 0.156593 -0.002061
v -0.144780 0.133466 0.000000
v -0.167690 0.156377 0.000000
v -0.156593 0.167474 -0.002061
v -0.156377 0.167690 -0.000000
v -0.133682 0.144564 -0.002061
v -0.110772 0.121654 -0.002061
v -0.088425 0.098180 -0.003984
v -0.121870 0.110556 0.000000
v -0.133466 0.144780 -0.000000
v -0.110556 0.121870 -0.000000
v -0.087862 0.098744 -0.002061
v -0.073209 0.067576 -0.006898
v -0.074392 0.066392 -0.005657
v -0.070392 0.070392 -0.008000
v -0.071850 0.068935 -0.007695
v -0.068935 0.071850 -0.007695
v -0.067576 0.073209 -0.006898
v -0.048940 0.046025 -0.007695
v -0.050299 0.044665 -0.006898
v -0.047482 0.047482 -0.008000
v -0.046025 0.048940 -0.007695
v -0.044665 0.050299 -0.006898
v -0.051482 0.043482 -0.005657
v -0.066392 0.074392 -0.005657
v -0.043482 0.051482 -0.005657
v -0.075270 0.065515 -0.003984
v -0.052360 0.042604 -0.003984
v -0.065515 0.075270 -0.003984
v -0.042604 0.052360 -0.003984
v -0.047482 0.047482 -0.000000
v -0.052923 0.042041 -0.002061
v -0.075833 0.064952 -0.002061
v -0.053139 0.041825 0.000000
v -0.064952 0.075833 -0.002061
v -0.076049 0.064736 0.000000
v -0.087646 0.098960 -0.000000
v -0.064736 0.076049 -0.000000
v -0.042041 0.052923 -0.002061
v -0.041825 0.053139 -0.000000
v -0.098744 0.087862 0.002061
v -0.121654 0.110772 0.002061
v -0.098180 0.088425 0.003984
v -0.121091 0.111335 0.003984
v -0.097303 0.089303 0.005657
v -0.120213 0.112213 0.005657
v -0.096120 0.090486 0.006898
v -0.119030 0.113396 0.006898
v -0.094760 0.091845 0.007695
v -0.117670 0.114756 0.007695
v -0.093303 0.093303 0.008000
v -0.144564 0.133682 0.002061
v -0.167474 0.156593 0.002061
v -0.144001 0.134245 0.003984
v -0.166911 0.157156 0.003984
v -0.166903 0.157164 0.004000
v -0.160963 0.151225 0.004000
v -0.156593 0.167474 0.002061
v -0.157164 0.166903 0.004000
v -0.157156 0.166911 0.003984
v -0.151225 0.160963 0.004000
v -0.133682 0.144564 0.002061
v -0.110772 0.121654 0.002061
v -0.134245 0.144001 0.003984
v -0.111335 0.121091 0.003984
v -0.087862 0.098744 0.002061
v -0.143123 0.135123 0.005657
v -0.160094 0.152094 0.005657
v -0.141940 0.136306 0.006898
v -0.159767 0.152421 0.006000
v -0.164850 0.159217 0.006898
v -0.165706 0.158361 0.006000
v -0.163491 0.160576 0.007695
v -0.159217 0.164850 0.006898
v -0.160576 0.163491 0.007695
v -0.158361 0.165706 0.006000
v -0.152421 0.159767 0.006000
v -0.162034 0.162034 0.008000
v -0.140581 0.137666 0.007695
v -0.136306 0.141940 0.006898
v -0.137666 0.140581 0.007695
v -0.139123 0.139123 0.008000
v -0.135123 0.143123 0.005657
v -0.152094 0.160094 0.005657
v -0.112213 0.120213 0.005657
v -0.088425 0.098180 0.003984
v -0.113396 0.119030 0.006898
v -0.116213 0.116213 0.008000
v -0.114756 0.117670 0.007695
v -0.089303 0.097303 0.005657
v -0.090486 0.096120 0.006898
v -0.091845 0.094760 0.007695
v -0.052923 0.042041 0.002061
v -0.052360 0.042604 0.003984
v -0.075833 0.064952 0.002061
v -0.051482 0.043482 0.005657
v -0.064952 0.075833 0.002061
v -0.075270 0.065515 0.003984
v -0.065515 0.075270 0.003984
v -0.042041 0.052923 0.002061
v -0.042604 0.052360 0.003984
v -0.043482 0.051482 0.005657
v -0.074392 0.066392 0.005657
v -0.066392 0.074392 0.005657
v -0.073209 0.067576 0.006898
v -0.071850 0.068935 0.007695
v -0.068935 0.071850 0.007695
v -0.067576 0.073209 0.006898
v -0.070392 0.070392 0.008000
v -0.050299 0.044665 0.006898
v -0.044665 0.050299 0.006898
v -0.048940 0.046025 0.007695
v -0.047482 0.047482 0.008000
v -0.046025 0.048940 0.007695
v -0.169352 0.147573 0.004000
v -0.165640 0.146548 0.004000
v -0.169352 0.147573 0.006000
v -0.165640 0.146548 0.006000
v -0.171544 0.152876 0.006000
v -0.199192 0.174443 0.004000
v -0.195303 0.172675 0.004000
v -0.199192 0.174443 0.006000
v -0.192899 0.169423 0.004000
v -0.195303 0.172675 0.006000
v -0.189363 0.165322 0.004000
v -0.192899 0.169423 0.006000
v -0.183848 0.160513 0.004000
v -0.177342 0.156553 0.004000
v -0.183848 0.160513 0.006000
v -0.171544 0.152876 0.004000
v -0.177342 0.156553 0.006000
v -0.165322 0.189363 0.004000
v -0.160513 0.183848 0.004000
v -0.189363 0.165322 0.006000
v -0.165322 0.189363 0.006000
v -0.160513 0.183848 0.006000
v -0.172675 0.195303 0.004000
v -0.200189 0.176784 0.004000
v -0.199404 0.181726 0.004000
v -0.200189 0.176784 0.006000
v -0.199404 0.181726 0.006000
v -0.198379 0.186287 0.006000
v -0.198379 0.186287 0.004000
v -0.195932 0.191902 0.004000
v -0.195932 0.191902 0.006000
v -0.191902 0.195932 0.006000
v -0.191902 0.195932 0.004000
v -0.186287 0.198379 0.006000
v -0.186287 0.198379 0.004000
v -0.169423 0.192899 0.004000
v -0.181726 0.199404 0.004000
v -0.176784 0.200189 0.004000
v -0.181726 0.199404 0.006000
v -0.176784 0.200189 0.006000
v -0.174443 0.199192 0.006000
v -0.174443 0.199192 0.004000
v -0.172675 0.195303 0.006000
v -0.169423 0.192899 0.006000
v -0.152876 0.171544 0.004000
v -0.156553 0.177342 0.004000
v -0.147573 0.169352 0.004000
v -0.152876 0.171544 0.006000
v -0.156553 0.177342 0.006000
v -0.146548 0.165640 0.006000
v -0.147573 0.169352 0.006000
v -0.146548 0.165640 0.004000
v -0.163491 -0.160576 -0.007695
v -0.139123 -0.139123 -0.008000
v -0.162034 -0.162034 -0.008000
v -0.160576 -0.163491 -0.007695
v -0.137666 -0.140581 -0.007695
v -0.136306 -0.141940 -0.006898
v -0.159217 -0.164850 -0.006898
v -0.164850 -0.159217 -0.006898
v -0.140581 -0.137666 -0.007695
v -0.166034 -0.158034 -0.005657
v -0.141940 -0.136306 -0.006898
v -0.135123 -0.143123 -0.005657
v -0.158034 -0.166034 -0.005657
v -0.162034 -0.162034 -0.000000
v -0.143123 -0.135123 -0.005657
v -0.166911 -0.157156 -0.003984
v -0.144001 -0.134245 -0.003984
v -0.134245 -0.144001 -0.003984
v -0.157156 -0.166911 -0.003984
v -0.116213 -0.116213 -0.008000
v -0.114756 -0.117670 -0.007695
v -0.117670 -0.114756 -0.007695
v -0.113396 -0.119030 -0.006898
v -0.119030 -0.113396 -0.006898
v -0.112213 -0.120213 -0.005657
v -0.120213 -0.112213 -0.005657
v -0.091845 -0.094760 -0.007695
v -0.093303 -0.093303 -0.008000
v -0.094760 -0.091845 -0.007695
v -0.090486 -0.096120 -0.006898
v -0.096120 -0.090486 -0.006898
v -0.089303 -0.097303 -0.005657
v -0.111335 -0.121091 -0.003984
v -0.121091 -0.111335 -0.003984
v -0.097303 -0.089303 -0.005657
v -0.088425 -0.098180 -0.003984
v -0.167474 -0.156593 -0.002061
v -0.156593 -0.167474 -0.002061
v -0.167690 -0.156377 -0.000000
v -0.156377 -0.167690 0.000000
v -0.144564 -0.133682 -0.002061
v -0.144780 -0.133466 -0.000000
v -0.133682 -0.144564 -0.002061
v -0.133466 -0.144780 0.000000
v -0.110772 -0.121654 -0.002061
v -0.121654 -0.110772 -0.002061
v -0.098180 -0.088425 -0.003984
v -0.087862 -0.098744 -0.002061
v -0.110556 -0.121870 0.000000
v -0.121870 -0.110556 -0.000000
v -0.098744 -0.087862 -0.002061
v -0.087646 -0.098960 0.000000
v -0.098960 -0.087646 -0.000000
v -0.067576 -0.073209 -0.006898
v -0.070392 -0.070392 -0.008000
v -0.068935 -0.071850 -0.007695
v -0.071850 -0.068935 -0.007695
v -0.073209 -0.067576 -0.006898
v -0.066392 -0.074392 -0.005657
v -0.074392 -0.066392 -0.005657
v -0.047482 -0.047482 -0.008000
v -0.048940 -0.046025 -0.007695
v -0.046025 -0.048940 -0.007695
v -0.044665 -0.050299 -0.006898
v -0.050299 -0.044665 -0.006898
v -0.043482 -0.051482 -0.005657
v -0.051482 -0.043482 -0.005657
v -0.065515 -0.075270 -0.003984
v -0.075270 -0.065515 -0.003984
v -0.042604 -0.052360 -0.003984
v -0.052360 -0.042604 -0.003984
v -0.047482 -0.047482 -0.000000
v -0.064952 -0.075833 -0.002061
v -0.075833 -0.064952 -0.002061
v -0.042041 -0.052923 -0.002061
v -0.064736 -0.076049 0.000000
v -0.076049 -0.064736 -0.000000
v -0.052923 -0.042041 -0.002061
v -0.041825 -0.053139 0.000000
v -0.053139 -0.041825 -0.000000
v -0.167474 -0.156593 0.002061
v -0.156593 -0.167474 0.002061
v -0.166911 -0.157156 0.003984
v -0.163667 -0.160400 0.004000
v -0.166903 -0.157164 0.004000
v -0.157156 -0.166911 0.003984
v -0.160963 -0.151225 0.004000
v -0.157164 -0.166903 0.004000
v -0.144564 -0.133682 0.002061
v -0.144001 -0.134245 0.003984
v -0.133682 -0.144564 0.002061
v -0.134245 -0.144001 0.003984
v -0.151225 -0.160963 0.004000
v -0.110772 -0.121654 0.002061
v -0.121654 -0.110772 0.002061
v -0.087862 -0.098744 0.002061
v -0.111335 -0.121091 0.003984
v -0.121091 -0.111335 0.003984
v -0.098744 -0.087862 0.002061
v -0.088425 -0.098180 0.003984
v -0.164850 -0.159217 0.006898
v -0.165706 -0.158361 0.006000
v -0.164484 -0.159583 0.006000
v -0.159767 -0.152421 0.006000
v -0.163491 -0.160576 0.007695
v -0.159217 -0.164850 0.006898
v -0.158361 -0.165706 0.006000
v -0.152421 -0.159767 0.006000
v -0.160576 -0.163491 0.007695
v -0.162034 -0.162034 0.008000
v -0.141940 -0.136306 0.006898
v -0.137666 -0.140581 0.007695
v -0.140581 -0.137666 0.007695
v -0.139123 -0.139123 0.008000
v -0.160094 -0.152094 0.005657
v -0.143123 -0.135123 0.005657
v -0.135123 -0.143123 0.005657
v -0.152094 -0.160094 0.005657
v -0.136306 -0.141940 0.006898
v -0.112213 -0.120213 0.005657
v -0.120213 -0.112213 0.005657
v -0.098180 -0.088425 0.003984
v -0.089303 -0.097303 0.005657
v -0.113396 -0.119030 0.006898
v -0.119030 -0.113396 0.006898
v -0.114756 -0.117670 0.007695
v -0.117670 -0.114756 0.007695
v -0.116213 -0.116213 0.008000
v -0.097303 -0.089303 0.005657
v -0.090486 -0.096120 0.006898
v -0.091845 -0.094760 0.007695
v -0.096120 -0.090486 0.006898
v -0.094760 -0.091845 0.007695
v -0.093303 -0.093303 0.008000
v -0.064952 -0.075833 0.002061
v -0.075833 -0.064952 0.002061
v -0.042041 -0.052923 0.002061
v -0.065515 -0.075270 0.003984
v -0.075270 -0.065515 0.003984
v -0.052923 -0.042041 0.002061
v -0.042604 -0.052360 0.003984
v -0.052360 -0.042604 0.003984
v -0.051482 -0.043482 0.005657
v -0.043482 -0.051482 0.005657
v -0.066392 -0.074392 0.005657
v -0.074392 -0.066392 0.005657
v -0.067576 -0.073209 0.006898
v -0.073209 -0.067576 0.006898
v -0.068935 -0.071850 0.007695
v -0.071850 -0.068935 0.007695
v -0.070392 -0.070392 0.008000
v -0.044665 -0.050299 0.006898
v -0.050299 -0.044665 0.006898
v -0.048940 -0.046025 0.007695
v -0.046025 -0.048940 0.007695
v -0.047482 -0.047482 0.008000
v -0.191902 -0.195932 0.004000
v -0.195303 -0.172675 0.004000
v -0.186287 -0.198379 0.004000
v -0.181726 -0.199404 0.004000
v -0.195932 -0.191902 0.004000
v -0.198379 -0.186287 0.006000
v -0.198379 -0.186287 0.004000
v -0.195932 -0.191902 0.006000
v -0.191902 -0.195932 0.006000
v -0.199404 -0.181726 0.004000
v -0.200189 -0.176784 0.004000
v -0.199404 -0.181726 0.006000
v -0.200189 -0.176784 0.006000
v -0.199192 -0.174443 0.006000
v -0.199192 -0.174443 0.004000
v -0.176784 -0.200189 0.004000
v -0.174443 -0.199192 0.004000
v -0.172675 -0.195303 0.004000
v -0.186287 -0.198379 0.006000
v -0.181726 -0.199404 0.006000
v -0.176784 -0.200189 0.006000
v -0.192899 -0.169423 0.004000
v -0.189363 -0.165322 0.004000
v -0.169423 -0.192899 0.004000
v -0.195303 -0.172675 0.006000
v -0.174443 -0.199192 0.006000
v -0.172675 -0.195303 0.006000
v -0.192899 -0.169423 0.006000
v -0.169423 -0.192899 0.006000
v -0.189363 -0.165322 0.006000
v -0.183848 -0.160513 0.004000
v -0.165322 -0.189363 0.004000
v -0.183848 -0.160513 0.006000
v -0.177342 -0.156553 0.006000
v -0.177342 -0.156553 0.004000
v -0.165322 -0.189363 0.006000
v -0.171544 -0.152876 0.006000
v -0.160513 -0.183848 0.004000
v -0.156553 -0.177342 0.004000
v -0.160513 -0.183848 0.006000
v -0.152876 -0.171544 0.004000
v -0.156553 -0.177342 0.006000
v -0.171544 -0.152876 0.004000
v -0.169352 -0.147573 0.004000
v -0.147573 -0.169352 0.004000
v -0.146548 -0.165640 0.004000
v -0.152876 -0.171544 0.006000
v -0.169352 -0.147573 0.006000
v -0.165640 -0.146548 0.006000
v -0.147573 -0.169352 0.006000
v -0.146548 -0.165640 0.006000
v -0.165640 -0.146548 0.004000
v 0.091845 -0.094760 -0.007695
v 0.093303 -0.093303 -0.008000
v 0.114756 -0.117670 -0.007695
v 0.113396 -0.119030 -0.006898
v 0.090486 -0.096120 -0.006898
v 0.112213 -0.120213 -0.005657
v 0.089303 -0.097303 -0.005657
v 0.111335 -0.121091 -0.003984
v 0.088425 -0.098180 -0.003984
v 0.110772 -0.121654 -0.002061
v 0.087862 -0.098744 -0.002061
v 0.110556 -0.121870 -0.000000
v 0.087646 -0.098960 -0.000000
v 0.046025 -0.048940 -0.007695
v 0.047482 -0.047482 -0.000000
v 0.047482 -0.047482 -0.008000
v 0.048940 -0.046025 -0.007695
v 0.044665 -0.050299 -0.006898
v 0.050299 -0.044665 -0.006898
v 0.043482 -0.051482 -0.005657
v 0.051482 -0.043482 -0.005657
v 0.067576 -0.073209 -0.006898
v 0.066392 -0.074392 -0.005657
v 0.070392 -0.070392 -0.008000
v 0.068935 -0.071850 -0.007695
v 0.071850 -0.068935 -0.007695
v 0.073209 -0.067576 -0.006898
v 0.074392 -0.066392 -0.005657
v 0.094760 -0.091845 -0.007695
v 0.096120 -0.090486 -0.006898
v 0.097303 -0.089303 -0.005657
v 0.065515 -0.075270 -0.003984
v 0.052360 -0.042604 -0.003984
v 0.042604 -0.052360 -0.003984
v 0.075270 -0.065515 -0.003984
v 0.098180 -0.088425 -0.003984
v 0.064952 -0.075833 -0.002061
v 0.042041 -0.052923 -0.002061
v 0.041825 -0.053139 -0.000000
v 0.064736 -0.076049 -0.000000
v 0.052923 -0.042041 -0.002061
v 0.075833 -0.064952 -0.002061
v 0.098744 -0.087862 -0.002061
v 0.053139 -0.041825 0.000000
v 0.076049 -0.064736 0.000000
v 0.098960 -0.087646 0.000000
v 0.136306 -0.141940 -0.006898
v 0.158034 -0.166034 -0.005657
v 0.135123 -0.143123 -0.005657
v 0.157156 -0.166911 -0.003984
v 0.134245 -0.144001 -0.003984
v 0.116213 -0.116213 -0.008000
v 0.117670 -0.114756 -0.007695
v 0.119030 -0.113396 -0.006898
v 0.139123 -0.139123 -0.008000
v 0.137666 -0.140581 -0.007695
v 0.120213 -0.112213 -0.005657
v 0.140581 -0.137666 -0.007695
v 0.141940 -0.136306 -0.006898
v 0.160576 -0.163491 -0.007695
v 0.162034 -0.162034 -0.008000
v 0.163491 -0.160576 -0.007695
v 0.159217 -0.164850 -0.006898
v 0.143123 -0.135123 -0.005657
v 0.164850 -0.159217 -0.006898
v 0.121091 -0.111335 -0.003984
v 0.144001 -0.134245 -0.003984
v 0.166034 -0.158034 -0.005657
v 0.162034 -0.162034 -0.000000
v 0.166911 -0.157156 -0.003984
v 0.156593 -0.167474 -0.002061
v 0.133682 -0.144564 -0.002061
v 0.156377 -0.167690 -0.000000
v 0.133466 -0.144780 -0.000000
v 0.121654 -0.110772 -0.002061
v 0.144564 -0.133682 -0.002061
v 0.121870 -0.110556 0.000000
v 0.144780 -0.133466 0.000000
v 0.167474 -0.156593 -0.002061
v 0.167690 -0.156377 0.000000
v 0.110772 -0.121654 0.002061
v 0.087862 -0.098744 0.002061
v 0.111335 -0.121091 0.003984
v 0.088425 -0.098180 0.003984
v 0.112213 -0.120213 0.005657
v 0.089303 -0.097303 0.005657
v 0.113396 -0.119030 0.006898
v 0.090486 -0.096120 0.006898
v 0.114756 -0.117670 0.007695
v 0.091845 -0.094760 0.007695
v 0.042041 -0.052923 0.002061
v 0.064952 -0.075833 0.002061
v 0.042604 -0.052360 0.003984
v 0.043482 -0.051482 0.005657
v 0.052923 -0.042041 0.002061
v 0.075833 -0.064952 0.002061
v 0.098744 -0.087862 0.002061
v 0.065515 -0.075270 0.003984
v 0.052360 -0.042604 0.003984
v 0.075270 -0.065515 0.003984
v 0.098180 -0.088425 0.003984
v 0.051482 -0.043482 0.005657
v 0.044665 -0.050299 0.006898
v 0.050299 -0.044665 0.006898
v 0.046025 -0.048940 0.007695
v 0.048940 -0.046025 0.007695
v 0.047482 -0.047482 0.008000
v 0.066392 -0.074392 0.005657
v 0.074392 -0.066392 0.005657
v 0.097303 -0.089303 0.005657
v 0.067576 -0.073209 0.006898
v 0.073209 -0.067576 0.006898
v 0.068935 -0.071850 0.007695
v 0.070392 -0.070392 0.008000
v 0.071850 -0.068935 0.007695
v 0.096120 -0.090486 0.006898
v 0.094760 -0.091845 0.007695
v 0.093303 -0.093303 0.008000
v 0.156593 -0.167474 0.002061
v 0.133682 -0.144564 0.002061
v 0.157156 -0.166911 0.003984
v 0.134245 -0.144001 0.003984
v 0.151225 -0.160963 0.004000
v 0.121654 -0.110772 0.002061
v 0.144564 -0.133682 0.002061
v 0.121091 -0.111335 0.003984
v 0.144001 -0.134245 0.003984
v 0.167474 -0.156593 0.002061
v 0.157164 -0.166903 0.004000
v 0.166911 -0.157156 0.003984
v 0.166903 -0.157164 0.004000
v 0.160963 -0.151225 0.004000
v 0.152094 -0.160094 0.005657
v 0.135123 -0.143123 0.005657
v 0.152421 -0.159767 0.006000
v 0.159217 -0.164850 0.006898
v 0.120213 -0.112213 0.005657
v 0.143123 -0.135123 0.005657
v 0.136306 -0.141940 0.006898
v 0.137666 -0.140581 0.007695
v 0.119030 -0.113396 0.006898
v 0.117670 -0.114756 0.007695
v 0.116213 -0.116213 0.008000
v 0.140581 -0.137666 0.007695
v 0.139123 -0.139123 0.008000
v 0.141940 -0.136306 0.006898
v 0.160094 -0.152094 0.005657
v 0.164850 -0.159217 0.006898
v 0.160576 -0.163491 0.007695
v 0.162034 -0.162034 0.008000
v 0.163491 -0.160576 0.007695
v 0.158361 -0.165706 0.006000
v 0.165706 -0.158361 0.006000
v 0.159767 -0.152421 0.006000
v 0.147573 -0.169352 0.004000
v 0.146548 -0.165640 0.004000
v 0.152876 -0.171544 0.004000
v 0.147573 -0.169352 0.006000
v 0.146548 -0.165640 0.006000
v 0.160513 -0.183848 0.004000
v 0.165322 -0.189363 0.004000
v 0.160513 -0.183848 0.006000
v 0.156553 -0.177342 0.006000
v 0.156553 -0.177342 0.004000
v 0.174443 -0.199192 0.004000
v 0.172675 -0.195303 0.004000
v 0.176784 -0.200189 0.004000
v 0.169423 -0.192899 0.004000
v 0.165322 -0.189363 0.006000
v 0.172675 -0.195303 0.006000
v 0.169423 -0.192899 0.006000
v 0.189363 -0.165322 0.004000
v 0.152876 -0.171544 0.006000
v 0.174443 -0.199192 0.006000
v 0.176784 -0.200189 0.006000
v 0.189363 -0.165322 0.006000
v 0.177342 -0.156553 0.004000
v 0.183848 -0.160513 0.004000
v 0.171544 -0.152876 0.004000
v 0.165640 -0.146548 0.004000
v 0.169352 -0.147573 0.004000
v 0.171544 -0.152876 0.006000
v 0.177342 -0.156553 0.006000
v 0.165640 -0.146548 0.006000
v 0.183848 -0.160513 0.006000
v 0.169352 -0.147573 0.006000
v 0.181726 -0.199404 0.004000
v 0.186287 -0.198379 0.004000
v 0.191902 -0.195932 0.004000
v 0.195932 -0.191902 0.004000
v 0.181726 -0.199404 0.006000
v 0.192899 -0.169423 0.004000
v 0.195303 -0.172675 0.004000
v 0.198379 -0.186287 0.004000
v 0.199404 -0.181726 0.004000
v 0.186287 -0.198379 0.006000
v 0.191902 -0.195932 0.006000
v 0.195932 -0.191902 0.006000
v 0.200189 -0.176784 0.004000
v 0.199192 -0.174443 0.004000
v 0.198379 -0.186287 0.006000
v 0.199404 -0.181726 0.006000
v 0.200189 -0.176784 0.006000
v 0.192899 -0.169423 0.006000
v 0.195303 -0.172675 0.006000
v 0.199192 -0.174443 0.006000
f 1 2 3
f 4 3 2
f 1 3 5
f 4 6 3
f 5 3 7
f 6 8 3
f 1 9 2
f 4 2 10
f 1 5 11
f 4 12 6
f 1 11 9
f 5 13 11
f 2 9 10
f 4 10 12
f 5 7 13
f 6 14 8
f 13 7 15
f 6 12 14
f 13 15 16
f 12 17 14
f 9 11 18
f 9 19 10
f 9 18 19
f 11 20 18
f 11 13 20
f 10 21 12
f 10 19 21
f 13 16 20
f 15 22 16
f 12 21 17
f 7 23 15
f 8 14 24
f 8 24 25
f 15 23 26
f 15 26 22
f 14 27 24
f 14 17 27
f 26 28 22
f 7 3 23
f 23 3 29
f 29 30 31
f 29 3 30
f 8 25 3
f 25 32 33
f 25 33 3
f 34 3 33
f 34 33 35
f 23 29 26
f 25 24 32
f 29 31 26
f 26 31 28
f 24 36 32
f 24 27 36
f 31 37 28
f 33 32 35
f 31 30 38
f 31 38 37
f 32 39 35
f 32 36 39
f 37 38 40
f 20 16 41
f 16 22 42
f 22 28 43
f 28 37 44
f 37 40 45
f 18 46 19
f 19 47 21
f 21 48 17
f 17 49 27
f 27 50 36
f 36 51 39
f 18 20 52
f 18 52 46
f 20 41 52
f 16 42 41
f 19 46 47
f 41 53 52
f 46 52 54
f 42 22 43
f 21 47 48
f 41 42 55
f 42 43 56
f 46 57 47
f 47 58 48
f 41 55 53
f 52 53 54
f 42 56 55
f 46 54 57
f 53 55 59
f 53 60 54
f 55 56 61
f 54 62 57
f 43 63 56
f 47 57 58
f 56 63 64
f 17 48 49
f 43 28 44
f 43 44 63
f 48 65 49
f 48 58 65
f 63 44 66
f 63 66 67
f 67 66 68
f 57 69 58
f 58 69 70
f 58 70 65
f 53 59 60
f 55 61 59
f 54 60 62
f 56 64 61
f 64 63 67
f 57 62 69
f 59 61 71
f 59 71 60
f 61 64 71
f 64 67 71
f 60 71 62
f 62 71 69
f 27 49 50
f 37 45 44
f 44 45 66
f 49 72 50
f 49 65 72
f 45 73 66
f 36 50 51
f 45 40 74
f 45 74 73
f 50 75 51
f 50 72 75
f 73 74 76
f 66 73 68
f 73 77 68
f 73 76 77
f 77 76 78
f 65 70 79
f 65 79 72
f 72 79 80
f 72 80 75
f 67 68 71
f 69 71 70
f 68 77 71
f 70 71 79
f 77 78 71
f 79 71 80
f 3 81 30
f 30 81 38
f 3 82 81
f 81 82 83
f 3 84 82
f 34 85 3
f 34 86 85
f 3 85 87
f 3 87 88
f 34 35 86
f 38 81 83
f 38 83 40
f 35 89 86
f 35 39 89
f 83 90 40
f 85 86 91
f 85 91 87
f 82 92 83
f 83 92 90
f 86 93 91
f 86 89 93
f 92 94 90
f 3 95 84
f 3 88 96
f 3 97 95
f 3 96 98
f 3 99 97
f 3 98 99
f 82 84 92
f 87 91 100
f 87 100 88
f 92 84 101
f 92 101 94
f 91 102 100
f 91 93 102
f 101 103 94
f 84 95 101
f 88 104 96
f 101 95 105
f 88 100 104
f 95 97 105
f 96 106 98
f 97 99 107
f 98 108 99
f 97 107 105
f 99 108 107
f 96 104 106
f 98 106 108
f 101 105 103
f 100 109 104
f 105 110 103
f 100 102 109
f 105 107 110
f 104 111 106
f 107 112 110
f 107 108 112
f 106 113 108
f 106 111 113
f 108 113 112
f 104 109 111
f 40 90 74
f 90 94 114
f 94 103 115
f 103 110 116
f 110 112 117
f 113 118 112
f 39 119 89
f 89 120 93
f 93 121 102
f 102 122 109
f 109 123 111
f 39 51 119
f 74 90 114
f 74 114 76
f 51 124 119
f 51 75 124
f 114 125 76
f 89 119 120
f 94 115 114
f 114 115 125
f 119 126 120
f 119 124 126
f 115 127 125
f 76 125 78
f 78 125 128
f 125 127 128
f 127 129 128
f 127 130 131
f 127 131 129
f 75 80 132
f 75 132 124
f 124 132 133
f 124 133 126
f 126 133 134
f 71 78 128
f 80 71 132
f 71 129 135
f 71 128 129
f 71 133 132
f 71 135 133
f 129 131 135
f 133 135 134
f 93 120 121
f 115 103 116
f 115 116 127
f 120 136 121
f 120 126 136
f 127 137 130
f 127 116 137
f 126 138 136
f 116 110 117
f 102 121 122
f 109 122 123
f 112 118 117
f 113 111 139
f 113 139 118
f 111 123 139
f 118 139 140
f 123 141 139
f 116 117 137
f 117 118 142
f 121 143 122
f 122 144 123
f 117 142 137
f 121 136 143
f 137 142 145
f 136 146 143
f 118 140 142
f 122 143 144
f 139 141 140
f 123 144 141
f 142 140 147
f 143 148 144
f 140 141 149
f 144 150 141
f 137 145 130
f 142 151 145
f 142 147 151
f 126 134 138
f 136 138 152
f 136 152 146
f 146 153 148
f 147 153 151
f 147 149 153
f 146 152 154
f 146 154 153
f 140 149 147
f 143 146 148
f 144 148 150
f 141 150 149
f 150 153 149
f 150 148 153
f 155 130 156
f 155 157 158
f 156 130 145
f 155 156 157
f 158 157 159
f 156 151 157
f 160 138 134
f 160 134 161
f 160 161 162
f 161 163 164
f 160 162 138
f 161 164 162
f 155 131 130
f 155 158 131
f 158 165 131
f 165 163 131
f 165 166 163
f 158 159 165
f 161 134 163
f 163 134 135
f 163 135 131
f 163 166 167
f 163 167 168
f 166 169 167
f 169 170 167
f 156 145 151
f 162 152 138
f 165 159 171
f 157 151 159
f 159 151 153
f 159 153 168
f 159 168 171
f 163 168 164
f 162 154 152
f 162 164 154
f 164 168 154
f 168 153 154
f 168 172 171
f 171 172 173
f 173 172 174
f 165 171 166
f 166 173 169
f 169 175 170
f 175 176 177
f 169 178 175
f 175 179 176
f 176 180 181
f 181 182 183
f 166 171 173
f 169 173 178
f 173 174 178
f 178 184 179
f 175 178 179
f 176 179 180
f 181 180 182
f 167 170 172
f 170 177 174
f 175 177 170
f 185 186 187
f 177 188 184
f 188 185 189
f 185 187 190
f 167 172 168
f 170 174 172
f 177 184 174
f 178 174 184
f 188 189 184
f 185 190 189
f 187 191 190
f 190 191 192
f 176 181 188
f 176 188 177
f 181 185 188
f 181 183 185
f 183 193 185
f 185 193 194
f 183 195 193
f 193 196 194
f 194 197 198
f 185 199 186
f 185 200 199
f 185 201 200
f 185 202 201
f 187 186 191
f 186 199 192
f 199 200 203
f 185 194 198
f 185 198 202
f 198 204 202
f 202 205 201
f 200 201 206
f 179 189 180
f 179 184 189
f 180 189 190
f 183 182 195
f 193 195 196
f 194 196 197
f 180 190 182
f 182 190 195
f 190 196 195
f 186 192 191
f 199 203 192
f 200 206 203
f 190 192 203
f 190 203 206
f 190 206 205
f 190 205 204
f 198 197 204
f 202 204 205
f 201 205 206
f 190 197 196
f 190 204 197
f 207 208 209
f 210 209 211
f 212 211 213
f 214 213 215
f 216 215 217
f 218 219 220
f 218 220 221
f 222 223 224
f 225 222 226
f 225 227 228
f 223 229 230
f 228 219 218
f 229 231 232
f 225 233 222
f 222 233 223
f 225 228 233
f 228 218 233
f 223 233 229
f 229 233 231
f 226 207 210
f 227 210 212
f 222 224 226
f 223 230 224
f 225 226 227
f 229 232 230
f 224 207 226
f 224 230 234
f 226 210 227
f 230 232 235
f 228 227 219
f 227 212 219
f 232 236 237
f 224 234 207
f 230 235 234
f 207 234 208
f 234 235 238
f 234 238 208
f 207 209 210
f 235 237 239
f 210 211 212
f 237 240 241
f 232 237 235
f 236 240 237
f 219 212 214
f 236 242 240
f 219 214 220
f 240 243 244
f 212 213 214
f 240 242 243
f 232 231 236
f 231 245 236
f 236 245 242
f 221 220 246
f 221 246 247
f 247 246 248
f 247 248 249
f 218 221 233
f 231 233 245
f 221 247 233
f 245 233 250
f 247 249 233
f 250 233 251
f 220 214 216
f 242 252 243
f 220 216 246
f 243 253 254
f 214 215 216
f 252 253 243
f 246 216 255
f 252 256 253
f 246 255 248
f 253 257 258
f 216 217 255
f 256 257 253
f 245 250 242
f 250 252 242
f 250 251 252
f 252 251 256
f 209 259 260
f 208 259 209
f 238 239 261
f 208 238 262
f 238 261 262
f 239 263 261
f 239 241 263
f 208 262 259
f 241 264 263
f 209 260 211
f 241 244 264
f 261 265 262
f 262 266 259
f 261 267 265
f 263 268 267
f 262 265 266
f 264 269 268
f 261 263 267
f 263 264 268
f 259 270 260
f 259 266 270
f 269 271 272
f 264 271 269
f 244 271 264
f 211 260 273
f 244 254 271
f 211 273 213
f 260 270 274
f 271 275 272
f 260 274 273
f 272 275 276
f 254 275 271
f 265 267 277
f 267 268 277
f 265 277 266
f 268 269 277
f 266 277 270
f 269 272 277
f 270 277 274
f 274 277 278
f 279 278 280
f 278 277 280
f 213 273 279
f 254 258 275
f 213 279 215
f 273 274 278
f 275 281 276
f 273 278 279
f 258 281 275
f 215 279 282
f 258 283 281
f 215 282 217
f 281 284 285
f 279 280 282
f 283 284 281
f 272 276 277
f 281 285 276
f 276 285 277
f 285 284 286
f 285 286 277
f 235 239 238
f 237 241 239
f 241 240 244
f 244 243 254
f 253 258 254
f 258 257 283
f 255 217 287
f 288 287 289
f 290 289 291
f 292 291 293
f 294 293 295
f 296 295 297
f 249 248 298
f 249 298 299
f 299 298 300
f 299 300 301
f 301 300 302
f 300 303 302
f 233 249 299
f 233 304 251
f 233 299 301
f 233 301 305
f 233 306 304
f 233 305 306
f 301 302 305
f 306 305 307
f 248 255 288
f 256 308 257
f 248 288 298
f 257 309 283
f 255 287 288
f 257 308 309
f 298 288 290
f 308 310 309
f 298 290 300
f 309 311 312
f 288 289 290
f 310 311 309
f 251 304 256
f 256 304 308
f 304 306 308
f 306 310 308
f 306 307 310
f 313 314 303
f 315 316 314
f 317 316 315
f 317 318 316
f 317 319 318
f 320 318 321
f 320 322 318
f 320 323 322
f 319 324 318
f 324 321 318
f 317 325 319
f 320 321 326
f 324 327 321
f 319 328 324
f 300 290 292
f 300 313 303
f 310 329 311
f 310 330 329
f 300 292 313
f 311 331 332
f 290 291 292
f 311 329 331
f 313 292 294
f 315 294 296
f 313 315 314
f 329 320 326
f 313 294 315
f 329 326 331
f 317 315 325
f 321 327 326
f 319 325 328
f 324 328 327
f 315 296 325
f 326 327 333
f 325 334 328
f 327 328 335
f 292 293 294
f 331 333 336
f 325 296 334
f 328 334 335
f 294 295 296
f 333 335 337
f 296 297 334
f 334 338 335
f 334 297 338
f 326 333 331
f 327 335 333
f 310 307 330
f 329 330 323
f 329 323 320
f 280 339 282
f 277 339 280
f 277 340 339
f 341 339 340
f 277 342 340
f 217 282 341
f 283 312 284
f 217 341 287
f 284 343 286
f 282 339 341
f 284 312 343
f 287 341 344
f 312 332 343
f 287 344 289
f 343 345 346
f 341 340 344
f 345 347 346
f 332 345 343
f 277 286 346
f 286 343 346
f 277 346 347
f 277 347 348
f 289 344 349
f 332 336 345
f 289 349 291
f 344 340 342
f 345 350 347
f 344 342 349
f 347 350 348
f 336 350 345
f 291 349 351
f 291 351 293
f 336 337 350
f 293 352 295
f 293 351 352
f 338 353 354
f 297 353 338
f 295 355 297
f 295 352 355
f 297 355 353
f 337 338 354
f 349 356 351
f 349 342 356
f 348 354 357
f 350 354 348
f 351 358 352
f 352 359 355
f 351 356 358
f 353 360 357
f 352 358 359
f 355 359 360
f 354 353 357
f 353 355 360
f 337 354 350
f 277 356 342
f 277 348 357
f 277 358 356
f 277 357 360
f 277 359 358
f 277 360 359
f 283 309 312
f 311 332 312
f 332 331 336
f 336 333 337
f 335 338 337
f 361 362 363
f 362 303 364
f 361 363 365
f 362 364 363
f 363 364 316
f 364 303 314
f 366 367 368
f 367 369 370
f 371 372 369
f 373 374 375
f 374 376 377
f 371 369 378
f 371 379 373
f 371 373 380
f 367 370 368
f 371 380 372
f 369 372 370
f 373 375 380
f 374 377 375
f 380 381 372
f 380 375 382
f 366 383 367
f 366 384 383
f 384 385 383
f 366 386 384
f 384 387 385
f 385 388 389
f 385 389 383
f 389 390 383
f 389 391 390
f 390 392 393
f 393 394 395
f 367 396 369
f 367 383 396
f 369 396 378
f 390 393 383
f 393 395 383
f 395 397 383
f 397 398 383
f 395 399 397
f 397 400 398
f 398 401 402
f 366 368 386
f 384 386 387
f 385 387 388
f 368 370 403
f 368 403 386
f 386 403 387
f 389 388 391
f 390 391 392
f 393 392 394
f 387 403 388
f 388 403 391
f 370 372 404
f 370 404 403
f 372 381 404
f 395 394 399
f 397 399 400
f 398 400 401
f 391 403 392
f 392 403 394
f 394 403 399
f 399 403 400
f 361 376 302
f 361 302 362
f 362 302 303
f 374 405 376
f 376 405 302
f 361 365 376
f 373 406 374
f 373 379 406
f 374 406 405
f 405 305 302
f 405 307 305
f 405 407 307
f 405 406 408
f 376 365 377
f 363 316 365
f 365 316 318
f 377 365 408
f 365 318 408
f 375 377 409
f 375 409 382
f 364 314 316
f 410 323 330
f 405 408 411
f 377 408 409
f 408 318 322
f 410 322 323
f 408 322 411
f 410 411 322
f 371 378 379
f 398 402 383
f 396 383 404
f 383 402 403
f 396 381 378
f 406 379 409
f 378 382 379
f 378 381 382
f 380 382 381
f 402 401 403
f 383 403 404
f 396 404 381
f 400 403 401
f 379 382 409
f 406 409 408
f 412 330 307
f 412 307 407
f 412 407 410
f 405 411 407
f 412 410 330
f 407 411 410
f 413 414 415
f 416 415 417
f 416 418 419
f 413 420 421
f 420 422 423
f 419 424 425
f 413 415 426
f 416 426 415
f 413 426 420
f 420 426 422
f 416 419 426
f 419 425 426
f 423 422 427
f 422 428 427
f 427 428 429
f 425 424 430
f 425 430 431
f 413 421 414
f 415 414 417
f 416 417 418
f 420 423 421
f 414 421 432
f 414 433 417
f 421 423 434
f 417 435 418
f 419 418 424
f 423 427 436
f 418 437 424
f 423 436 434
f 427 438 436
f 417 433 435
f 418 435 437
f 414 432 433
f 421 434 432
f 432 439 433
f 432 434 440
f 432 440 439
f 434 436 441
f 433 442 435
f 436 438 443
f 435 444 437
f 427 429 438
f 424 445 430
f 438 429 446
f 424 437 445
f 438 446 447
f 437 448 445
f 422 426 428
f 425 431 426
f 428 426 449
f 431 450 426
f 449 426 451
f 450 452 426
f 428 449 429
f 449 453 429
f 449 451 453
f 453 451 454
f 431 430 455
f 431 455 450
f 450 455 456
f 450 456 452
f 429 453 446
f 430 457 455
f 453 458 446
f 430 445 457
f 446 458 459
f 445 460 457
f 453 454 458
f 455 461 456
f 454 462 458
f 455 457 461
f 458 462 463
f 457 464 461
f 434 441 440
f 436 443 441
f 443 438 447
f 447 446 459
f 458 463 459
f 463 462 465
f 433 439 442
f 435 442 444
f 437 444 448
f 445 448 460
f 457 460 464
f 439 466 442
f 441 467 440
f 439 440 468
f 441 469 467
f 440 467 468
f 441 443 469
f 439 468 466
f 443 470 469
f 443 447 470
f 442 471 444
f 447 472 470
f 442 466 471
f 467 469 473
f 469 470 474
f 467 475 468
f 468 476 466
f 467 473 475
f 469 474 473
f 470 477 474
f 468 475 476
f 470 472 477
f 466 478 471
f 477 472 479
f 466 476 478
f 447 459 472
f 444 480 448
f 459 481 472
f 444 471 480
f 472 481 479
f 471 478 482
f 471 482 480
f 479 481 483
f 473 474 484
f 473 484 475
f 474 477 484
f 475 484 476
f 477 479 484
f 476 484 478
f 459 463 481
f 448 485 460
f 463 486 481
f 448 480 485
f 481 486 483
f 480 482 487
f 480 487 485
f 463 465 486
f 460 488 464
f 465 489 486
f 460 485 488
f 486 489 490
f 485 491 488
f 479 483 484
f 486 490 483
f 483 490 484
f 490 489 492
f 490 492 484
f 478 484 482
f 482 484 487
f 485 487 491
f 487 484 491
f 426 493 451
f 426 452 494
f 426 495 493
f 426 496 497
f 426 497 495
f 426 494 498
f 426 498 496
f 495 497 499
f 498 500 496
f 451 493 454
f 454 493 501
f 493 495 501
f 495 502 501
f 495 499 502
f 452 456 503
f 452 503 494
f 494 503 504
f 494 504 498
f 498 504 500
f 504 505 500
f 454 501 462
f 456 506 503
f 462 501 507
f 456 461 506
f 462 507 465
f 461 508 506
f 501 502 507
f 503 509 504
f 502 510 507
f 503 506 509
f 507 510 511
f 506 512 509
f 513 514 515
f 513 516 514
f 513 515 517
f 518 519 520
f 518 521 519
f 517 515 519
f 517 519 522
f 521 522 519
f 513 517 523
f 518 524 521
f 517 522 525
f 521 526 522
f 502 499 527
f 528 527 516
f 528 516 513
f 529 530 505
f 531 520 530
f 518 520 531
f 504 529 505
f 502 528 510
f 502 527 528
f 504 532 529
f 510 528 533
f 504 509 532
f 510 533 534
f 509 535 532
f 528 513 523
f 529 531 530
f 528 523 533
f 529 536 531
f 518 531 524
f 517 525 523
f 522 526 525
f 521 524 526
f 523 525 537
f 531 538 524
f 525 526 539
f 524 540 526
f 523 537 533
f 525 539 537
f 529 532 536
f 531 536 538
f 533 537 541
f 532 542 536
f 524 538 540
f 526 540 539
f 536 543 538
f 537 539 544
f 540 545 539
f 540 538 546
f 540 546 545
f 465 507 511
f 510 534 511
f 534 533 541
f 541 537 544
f 539 545 544
f 461 464 508
f 506 508 512
f 509 512 535
f 532 535 542
f 536 542 543
f 538 543 546
f 465 511 489
f 464 547 508
f 489 511 548
f 464 488 547
f 489 548 492
f 488 549 547
f 511 534 548
f 508 550 512
f 534 551 548
f 508 547 550
f 548 551 552
f 547 553 550
f 551 554 552
f 484 492 552
f 492 548 552
f 484 552 554
f 484 554 555
f 488 491 549
f 484 549 491
f 484 553 549
f 547 549 553
f 484 556 553
f 534 541 551
f 512 557 535
f 541 558 551
f 512 550 557
f 551 558 554
f 550 553 556
f 550 556 557
f 554 558 555
f 541 544 558
f 535 559 542
f 544 545 560
f 542 561 543
f 542 559 561
f 545 562 560
f 545 546 562
f 543 563 546
f 546 563 562
f 543 561 563
f 544 560 558
f 535 557 559
f 558 560 555
f 557 564 559
f 555 560 565
f 557 556 564
f 560 562 565
f 562 563 566
f 559 567 561
f 561 568 563
f 562 566 565
f 559 564 567
f 561 567 568
f 563 568 566
f 484 555 565
f 484 564 556
f 484 565 566
f 484 567 564
f 484 566 568
f 484 568 567
f 569 570 571
f 571 570 572
f 573 574 575
f 573 569 576
f 569 571 577
f 573 570 569
f 573 575 570
f 575 578 570
f 578 579 570
f 575 580 578
f 578 581 579
f 579 582 583
f 572 570 584
f 584 570 585
f 570 586 585
f 571 572 587
f 572 584 588
f 584 585 589
f 570 590 586
f 590 591 592
f 590 592 586
f 573 576 574
f 569 577 576
f 571 587 577
f 577 587 593
f 587 588 593
f 575 574 580
f 578 580 581
f 579 581 582
f 576 577 593
f 576 593 574
f 574 593 580
f 580 593 581
f 572 588 587
f 584 589 588
f 585 594 589
f 588 589 593
f 589 594 593
f 593 594 595
f 593 595 596
f 596 597 598
f 596 595 597
f 579 583 570
f 583 593 570
f 570 596 590
f 590 598 591
f 591 599 600
f 591 601 599
f 599 602 603
f 583 582 593
f 570 593 596
f 590 596 598
f 581 593 582
f 591 598 601
f 598 604 601
f 599 601 602
f 603 602 605
f 585 586 594
f 586 592 595
f 592 600 597
f 591 600 592
f 599 606 600
f 600 606 604
f 606 607 608
f 607 609 610
f 586 595 594
f 592 597 595
f 600 604 597
f 598 597 604
f 601 604 608
f 606 608 604
f 607 610 608
f 599 603 606
f 603 607 606
f 603 611 607
f 611 497 496
f 611 496 500
f 611 499 497
f 611 612 499
f 603 605 611
f 607 611 609
f 611 500 609
f 609 500 613
f 613 500 614
f 614 500 505
f 609 613 615
f 601 608 602
f 602 608 610
f 611 605 616
f 602 610 605
f 605 515 514
f 605 519 515
f 605 514 616
f 616 514 617
f 617 514 516
f 609 615 610
f 610 615 605
f 605 615 519
f 615 520 519
f 615 618 520
f 617 516 527
f 619 530 520
f 612 620 499
f 611 616 612
f 612 617 620
f 620 527 499
f 620 617 527
f 612 616 617
f 613 614 618
f 614 505 619
f 613 618 615
f 614 619 618
f 618 619 520
f 619 505 530
f 621 622 623
f 621 624 625
f 625 626 627
f 627 628 629
f 629 630 631
f 631 632 633
f 634 635 636
f 636 635 637
f 634 638 635
f 637 635 639
f 638 640 635
f 639 635 641
f 642 627 643
f 636 644 645
f 634 645 642
f 636 637 644
f 634 636 645
f 634 642 638
f 637 639 646
f 637 646 644
f 639 647 646
f 638 642 643
f 638 643 640
f 639 641 647
f 647 641 648
f 644 621 645
f 644 646 622
f 644 622 621
f 646 649 622
f 646 647 649
f 645 625 642
f 645 621 625
f 647 650 649
f 642 625 627
f 648 651 650
f 647 648 650
f 643 629 652
f 640 643 652
f 641 653 648
f 640 652 654
f 648 653 655
f 643 627 629
f 655 656 651
f 648 655 651
f 640 654 635
f 654 657 658
f 654 658 635
f 659 635 658
f 659 658 660
f 652 631 657
f 654 652 657
f 653 661 655
f 661 662 655
f 652 629 631
f 662 663 656
f 655 662 656
f 657 633 660
f 658 657 660
f 662 664 665
f 657 631 633
f 663 665 666
f 662 665 663
f 641 635 653
f 653 635 661
f 661 664 662
f 661 635 664
f 667 668 669
f 669 668 670
f 669 670 671
f 623 667 624
f 624 669 626
f 622 649 672
f 622 672 623
f 649 673 672
f 621 623 624
f 650 674 673
f 672 673 675
f 623 672 676
f 625 624 626
f 674 651 677
f 672 675 676
f 673 678 675
f 623 676 667
f 674 679 678
f 675 680 676
f 675 678 681
f 678 679 682
f 676 683 667
f 624 667 669
f 677 684 679
f 679 684 685
f 673 674 678
f 674 677 679
f 626 671 628
f 627 626 628
f 677 656 686
f 626 669 671
f 684 686 687
f 677 686 684
f 675 681 680
f 678 682 681
f 676 680 683
f 679 685 682
f 667 683 668
f 685 684 688
f 680 681 689
f 681 682 689
f 680 689 683
f 683 689 668
f 682 685 689
f 685 688 689
f 684 687 688
f 688 687 690
f 671 670 691
f 671 691 692
f 692 691 693
f 692 693 694
f 628 692 630
f 629 628 630
f 663 695 686
f 628 671 692
f 695 696 687
f 686 695 687
f 630 694 632
f 631 630 632
f 695 666 697
f 630 692 694
f 696 697 698
f 695 697 696
f 668 689 670
f 688 690 689
f 670 689 691
f 690 699 689
f 691 689 693
f 699 700 689
f 687 696 690
f 696 699 690
f 696 698 699
f 699 698 700
f 649 650 673
f 650 651 674
f 651 656 677
f 656 663 686
f 663 666 695
f 633 701 702
f 702 703 704
f 704 705 706
f 706 707 708
f 708 709 710
f 659 711 635
f 659 712 711
f 635 711 713
f 635 713 714
f 660 702 712
f 659 660 712
f 665 715 716
f 660 633 702
f 716 717 666
f 665 716 666
f 712 704 718
f 711 712 718
f 711 718 713
f 719 720 716
f 712 702 704
f 720 721 717
f 716 720 717
f 635 715 664
f 665 664 715
f 635 719 715
f 715 719 716
f 635 722 719
f 635 714 723
f 635 724 722
f 635 723 725
f 635 726 724
f 635 725 727
f 635 727 726
f 718 706 728
f 713 718 728
f 719 722 720
f 713 728 714
f 720 722 729
f 718 704 706
f 729 730 721
f 720 729 721
f 728 708 731
f 714 728 731
f 714 731 723
f 722 724 729
f 729 724 732
f 723 731 733
f 725 733 734
f 723 733 725
f 724 726 732
f 727 735 726
f 725 734 727
f 726 735 732
f 727 734 735
f 728 706 708
f 732 736 730
f 731 708 710
f 732 735 736
f 731 710 733
f 735 737 736
f 733 738 734
f 735 734 737
f 733 710 738
f 734 738 737
f 729 732 730
f 694 693 739
f 694 739 740
f 740 739 741
f 740 741 742
f 742 741 743
f 632 740 701
f 633 632 701
f 697 717 744
f 632 694 740
f 744 745 698
f 697 744 698
f 701 742 703
f 702 701 703
f 721 746 744
f 701 740 742
f 746 747 745
f 744 746 745
f 693 689 739
f 689 700 748
f 689 741 739
f 689 749 741
f 689 750 749
f 689 748 750
f 741 749 743
f 750 751 749
f 698 745 700
f 700 745 748
f 745 747 748
f 747 750 748
f 747 752 751
f 747 751 750
f 742 743 753
f 754 753 755
f 754 755 756
f 703 754 705
f 704 703 705
f 746 730 757
f 703 742 754
f 747 758 752
f 747 757 758
f 742 753 754
f 746 757 747
f 705 759 707
f 707 760 709
f 706 705 707
f 757 736 761
f 708 707 709
f 737 762 761
f 710 763 738
f 710 709 763
f 738 763 762
f 763 764 762
f 709 765 763
f 705 754 759
f 761 766 758
f 754 756 759
f 758 766 767
f 707 759 760
f 762 764 766
f 709 760 765
f 763 765 764
f 766 764 768
f 759 769 760
f 760 770 765
f 764 765 771
f 757 761 758
f 761 762 766
f 756 755 772
f 756 772 773
f 756 773 769
f 768 773 774
f 768 771 773
f 759 756 769
f 764 771 768
f 760 769 770
f 765 770 771
f 769 773 770
f 770 773 771
f 758 767 752
f 766 774 767
f 766 768 774
f 666 717 697
f 717 721 744
f 721 730 746
f 730 736 757
f 736 737 761
f 738 762 737
f 775 776 743
f 775 777 778
f 775 779 776
f 776 753 743
f 776 779 753
f 775 778 779
f 780 781 782
f 780 783 784
f 785 786 787
f 781 788 789
f 785 790 786
f 786 791 788
f 780 792 781
f 784 783 793
f 780 782 783
f 788 791 789
f 786 790 791
f 785 794 790
f 794 795 790
f 781 789 782
f 782 789 796
f 775 743 777
f 777 743 749
f 777 749 751
f 784 777 797
f 784 793 777
f 780 784 798
f 784 797 798
f 777 751 799
f 777 799 797
f 800 751 752
f 800 801 751
f 799 751 801
f 799 801 802
f 777 793 778
f 778 772 779
f 778 793 772
f 779 772 755
f 793 773 772
f 783 803 793
f 779 755 753
f 804 767 774
f 782 805 783
f 783 805 803
f 799 802 803
f 793 802 773
f 793 803 802
f 802 774 773
f 802 806 774
f 786 807 787
f 786 808 807
f 786 809 808
f 786 810 809
f 785 787 794
f 787 807 795
f 807 808 811
f 781 812 788
f 786 788 813
f 788 812 813
f 786 814 810
f 786 815 814
f 808 809 816
f 809 810 817
f 810 814 818
f 786 819 815
f 786 820 819
f 786 813 820
f 814 815 821
f 815 819 822
f 819 820 823
f 787 795 794
f 807 811 795
f 808 816 811
f 790 795 811
f 790 811 816
f 790 816 817
f 790 817 818
f 789 791 824
f 790 825 791
f 791 825 824
f 809 817 816
f 810 818 817
f 814 821 818
f 790 818 821
f 790 821 822
f 815 822 821
f 819 823 822
f 820 826 823
f 790 822 823
f 790 823 826
f 790 826 825
f 780 798 792
f 781 792 812
f 798 796 792
f 799 803 797
f 797 805 798
f 812 792 824
f 812 825 813
f 813 826 820
f 782 796 805
f 789 824 796
f 797 803 805
f 798 805 796
f 812 824 825
f 792 796 824
f 813 825 826
f 800 752 804
f 800 806 801
f 804 752 767
f 800 804 806
f 801 806 802
f 804 774 806
