# sionna2 mesh — x500v2__accent.obj
# group=accent  verts=401  tris=730
v 0.147573 0.169352 -0.011000
v 0.147573 0.169352 0.004000
v 0.152876 0.171544 0.004000
v 0.169352 0.147573 -0.011000
v 0.171544 0.152876 -0.011000
v 0.169352 0.147573 0.004000
v 0.152876 0.171544 -0.011000
v 0.156553 0.177342 -0.011000
v 0.177342 0.156553 -0.011000
v 0.160513 0.183848 -0.011000
v 0.183848 0.160513 -0.011000
v 0.156553 0.177342 0.004000
v 0.171544 0.152876 0.004000
v 0.165322 0.189363 -0.011000
v 0.169423 0.192899 -0.011000
v 0.189363 0.165322 -0.011000
v 0.160513 0.183848 0.004000
v 0.165322 0.189363 0.004000
v 0.169423 0.192899 0.004000
v 0.172675 0.195303 0.004000
v 0.172675 0.195303 -0.011000
v 0.174443 0.199192 0.004000
v 0.174443 0.199192 -0.011000
v 0.195303 0.172675 -0.011000
v 0.200189 0.176784 -0.011000
v 0.199192 0.174443 -0.011000
v 0.177342 0.156553 0.004000
v 0.183848 0.160513 0.004000
v 0.189363 0.165322 0.004000
v 0.192899 0.169423 -0.011000
v 0.192899 0.169423 0.004000
v 0.195303 0.172675 0.004000
v 0.199192 0.174443 0.004000
v 0.176784 0.200189 -0.011000
v 0.181726 0.199404 -0.011000
v 0.199404 0.181726 -0.011000
v 0.198379 0.186287 -0.011000
v 0.195932 0.191902 -0.011000
v 0.191902 0.195932 -0.011000
v 0.186287 0.198379 -0.011000
v 0.176784 0.200189 0.004000
v 0.181726 0.199404 0.004000
v 0.186287 0.198379 0.004000
v 0.200189 0.176784 0.004000
v 0.199404 0.181726 0.004000
v 0.198379 0.186287 0.004000
v 0.191902 0.195932 0.004000
v 0.195932 0.191902 0.004000
v 0.126890 0.143790 -0.011000
v 0.164721 0.147821 -0.011000
v 0.143790 0.126890 -0.011000
v 0.126890 0.143790 0.011000
v 0.143790 0.126890 0.011000
v 0.147821 0.164721 0.011000
v 0.147821 0.164721 -0.011000
v 0.164721 0.147821 0.011000
v -0.169352 0.147573 -0.011000
v -0.169352 0.147573 0.004000
v -0.171544 0.152876 0.004000
v -0.189363 0.165322 -0.011000
v -0.192899 0.169423 -0.011000
v -0.165322 0.189363 -0.011000
v -0.160513 0.183848 -0.011000
v -0.183848 0.160513 -0.011000
v -0.199192 0.174443 -0.011000
v -0.195303 0.172675 -0.011000
v -0.199192 0.174443 0.004000
v -0.195303 0.172675 0.004000
v -0.192899 0.169423 0.004000
v -0.189363 0.165322 0.004000
v -0.177342 0.156553 -0.011000
v -0.183848 0.160513 0.004000
v -0.171544 0.152876 -0.011000
v -0.177342 0.156553 0.004000
v -0.172675 0.195303 -0.011000
v -0.200189 0.176784 -0.011000
v -0.199404 0.181726 -0.011000
v -0.198379 0.186287 -0.011000
v -0.195932 0.191902 -0.011000
v -0.169423 0.192899 -0.011000
v -0.191902 0.195932 -0.011000
v -0.186287 0.198379 -0.011000
v -0.181726 0.199404 -0.011000
v -0.176784 0.200189 -0.011000
v -0.200189 0.176784 0.004000
v -0.199404 0.181726 0.004000
v -0.198379 0.186287 0.004000
v -0.195932 0.191902 0.004000
v -0.191902 0.195932 0.004000
v -0.186287 0.198379 0.004000
v -0.181726 0.199404 0.004000
v -0.176784 0.200189 0.004000
v -0.174443 0.199192 0.004000
v -0.174443 0.199192 -0.011000
v -0.152876 0.171544 -0.011000
v -0.147573 0.169352 -0.011000
v -0.156553 0.177342 -0.011000
v -0.147573 0.169352 0.004000
v -0.152876 0.171544 0.004000
v -0.165322 0.189363 0.004000
v -0.160513 0.183848 0.004000
v -0.169423 0.192899 0.004000
v -0.172675 0.195303 0.004000
v -0.156553 0.177342 0.004000
v -0.164721 0.147821 -0.011000
v -0.147821 0.164721 -0.011000
v -0.143790 0.126890 -0.011000
v -0.164721 0.147821 0.011000
v -0.143790 0.126890 0.011000
v -0.147821 0.164721 0.011000
v -0.126890 0.143790 -0.011000
v -0.126890 0.143790 0.011000
v -0.191902 -0.195932 -0.011000
v -0.195303 -0.172675 -0.011000
v -0.186287 -0.198379 -0.011000
v -0.181726 -0.199404 -0.011000
v -0.195932 -0.191902 -0.011000
v -0.198379 -0.186287 -0.011000
v -0.199404 -0.181726 -0.011000
v -0.200189 -0.176784 -0.011000
v -0.176784 -0.200189 -0.011000
v -0.174443 -0.199192 -0.011000
v -0.172675 -0.195303 -0.011000
v -0.192899 -0.169423 -0.011000
v -0.189363 -0.165322 -0.011000
v -0.169423 -0.192899 -0.011000
v -0.198379 -0.186287 0.004000
v -0.195932 -0.191902 0.004000
v -0.191902 -0.195932 0.004000
v -0.186287 -0.198379 0.004000
v -0.199404 -0.181726 0.004000
v -0.200189 -0.176784 0.004000
v -0.199192 -0.174443 0.004000
v -0.199192 -0.174443 -0.011000
v -0.181726 -0.199404 0.004000
v -0.176784 -0.200189 0.004000
v -0.174443 -0.199192 0.004000
v -0.183848 -0.160513 -0.011000
v -0.165322 -0.189363 -0.011000
v -0.195303 -0.172675 0.004000
v -0.192899 -0.169423 0.004000
v -0.189363 -0.165322 0.004000
v -0.183848 -0.160513 0.004000
v -0.177342 -0.156553 0.004000
v -0.177342 -0.156553 -0.011000
v -0.171544 -0.152876 0.004000
v -0.160513 -0.183848 -0.011000
v -0.172675 -0.195303 0.004000
v -0.169423 -0.192899 0.004000
v -0.165322 -0.189363 0.004000
v -0.156553 -0.177342 -0.011000
v -0.160513 -0.183848 0.004000
v -0.152876 -0.171544 -0.011000
v -0.156553 -0.177342 0.004000
v -0.171544 -0.152876 -0.011000
v -0.169352 -0.147573 -0.011000
v -0.147573 -0.169352 -0.011000
v -0.169352 -0.147573 0.004000
v -0.152876 -0.171544 0.004000
v -0.147573 -0.169352 0.004000
v -0.164721 -0.147821 -0.011000
v -0.147821 -0.164721 -0.011000
v -0.164721 -0.147821 0.011000
v -0.147821 -0.164721 0.011000
v -0.143790 -0.126890 0.011000
v -0.143790 -0.126890 -0.011000
v -0.126890 -0.143790 -0.011000
v -0.126890 -0.143790 0.011000
v 0.147573 -0.169352 -0.011000
v 0.152876 -0.171544 -0.011000
v 0.147573 -0.169352 0.004000
v 0.174443 -0.199192 -0.011000
v 0.172675 -0.195303 -0.011000
v 0.176784 -0.200189 -0.011000
v 0.160513 -0.183848 -0.011000
v 0.189363 -0.165322 -0.011000
v 0.165322 -0.189363 -0.011000
v 0.160513 -0.183848 0.004000
v 0.156553 -0.177342 0.004000
v 0.156553 -0.177342 -0.011000
v 0.152876 -0.171544 0.004000
v 0.169423 -0.192899 -0.011000
v 0.165322 -0.189363 0.004000
v 0.172675 -0.195303 0.004000
v 0.169423 -0.192899 0.004000
v 0.174443 -0.199192 0.004000
v 0.171544 -0.152876 -0.011000
v 0.177342 -0.156553 -0.011000
v 0.183848 -0.160513 -0.011000
v 0.169352 -0.147573 -0.011000
v 0.169352 -0.147573 0.004000
v 0.171544 -0.152876 0.004000
v 0.177342 -0.156553 0.004000
v 0.181726 -0.199404 -0.011000
v 0.186287 -0.198379 -0.011000
v 0.191902 -0.195932 -0.011000
v 0.195932 -0.191902 -0.011000
v 0.192899 -0.169423 -0.011000
v 0.195303 -0.172675 -0.011000
v 0.198379 -0.186287 -0.011000
v 0.199404 -0.181726 -0.011000
v 0.200189 -0.176784 -0.011000
v 0.199192 -0.174443 -0.011000
v 0.176784 -0.200189 0.004000
v 0.181726 -0.199404 0.004000
v 0.186287 -0.198379 0.004000
v 0.191902 -0.195932 0.004000
v 0.195932 -0.191902 0.004000
v 0.198379 -0.186287 0.004000
v 0.199404 -0.181726 0.004000
v 0.200189 -0.176784 0.004000
v 0.199192 -0.174443 0.004000
v 0.189363 -0.165322 0.004000
v 0.183848 -0.160513 0.004000
v 0.192899 -0.169423 0.004000
v 0.195303 -0.172675 0.004000
v 0.126890 -0.143790 -0.011000
v 0.147821 -0.164721 -0.011000
v 0.126890 -0.143790 0.011000
v 0.147821 -0.164721 0.011000
v 0.164721 -0.147821 0.011000
v 0.143790 -0.126890 -0.011000
v 0.143790 -0.126890 0.011000
v 0.164721 -0.147821 -0.011000
v 0.047000 0.019500 -0.038980
v 0.053000 0.019500 -0.038980
v 0.047000 0.019500 -0.016000
v 0.047000 0.040500 -0.038980
v 0.047000 0.040500 -0.016000
v 0.051636 0.040500 -0.016000
v 0.053000 0.019500 -0.016000
v 0.053000 0.040500 -0.038980
v 0.053000 0.040500 -0.016000
v 0.053000 0.039136 -0.016000
v -0.053000 0.019500 -0.038980
v -0.047000 0.019500 -0.038980
v -0.053000 0.019500 -0.016000
v -0.053000 0.040500 -0.038980
v -0.053000 0.040500 -0.016000
v -0.053000 0.039136 -0.016000
v -0.051636 0.040500 -0.016000
v -0.047000 0.040500 -0.016000
v -0.047000 0.019500 -0.016000
v -0.047000 0.040500 -0.038980
v 0.047000 -0.040500 -0.038980
v 0.053000 -0.040500 -0.038980
v 0.047000 -0.040500 -0.016000
v 0.047000 -0.019500 -0.038980
v 0.047000 -0.019500 -0.016000
v 0.053000 -0.019500 -0.016000
v 0.053000 -0.019500 -0.038980
v 0.053000 -0.040500 -0.016000
v 0.051636 -0.040500 -0.016000
v 0.053000 -0.039136 -0.016000
v -0.053000 -0.040500 -0.038980
v -0.047000 -0.040500 -0.038980
v -0.053000 -0.040500 -0.016000
v -0.053000 -0.019500 -0.038980
v -0.053000 -0.019500 -0.016000
v -0.053000 -0.039136 -0.016000
v -0.051636 -0.040500 -0.016000
v -0.047000 -0.019500 -0.016000
v -0.047000 -0.019500 -0.038980
v -0.047000 -0.040500 -0.016000
v 0.030250 -0.034700 -0.060500
v 0.039750 -0.034700 -0.060500
v 0.030250 -0.034700 -0.021700
v 0.030250 0.034700 -0.060500
v 0.039750 0.034700 -0.060500
v 0.039750 -0.034700 -0.021700
v 0.030250 0.034700 -0.021700
v 0.039750 0.034700 -0.021700
v -0.039750 -0.034700 -0.060500
v -0.030250 -0.034700 -0.060500
v -0.039750 -0.034700 -0.021700
v -0.039750 0.034700 -0.060500
v -0.030250 0.034700 -0.060500
v -0.030250 -0.034700 -0.021700
v -0.039750 0.034700 -0.021700
v -0.030250 0.034700 -0.021700
v 0.119000 -0.004000 -0.043000
v 0.119000 0.004000 -0.043000
v 0.127000 -0.004000 -0.043000
v 0.119000 -0.004000 -0.016000
v 0.119000 0.004000 -0.016000
v 0.127000 -0.004000 -0.016000
v 0.127000 0.004000 -0.043000
v 0.127000 0.004000 -0.016000
v 0.071000 -0.004000 -0.043000
v 0.071000 0.004000 -0.043000
v 0.079000 -0.004000 -0.043000
v 0.071000 -0.004000 -0.016000
v 0.071000 0.004000 -0.016000
v 0.079000 0.004000 -0.043000
v 0.079000 -0.004000 -0.016000
v 0.079000 0.004000 -0.016000
v 0.084150 -0.014850 -0.041950
v 0.084150 0.014850 -0.041950
v 0.113850 -0.014850 -0.041950
v 0.084150 -0.014850 -0.023250
v 0.084150 0.014850 -0.023250
v 0.113850 -0.014850 -0.023250
v 0.113850 0.014850 -0.041950
v 0.113850 0.014850 -0.023250
v 0.084500 -0.014500 0.081500
v 0.084500 0.014500 0.081500
v 0.113500 -0.014500 0.081500
v 0.084500 -0.014500 0.091000
v 0.084500 0.014500 0.091000
v 0.113500 -0.014500 0.091000
v 0.113500 0.014500 0.081500
v 0.113500 0.014500 0.091000
v 0.074627 -0.005563 0.091000
v 0.074000 0.000000 0.105000
v 0.074000 0.000000 0.091000
v 0.074627 -0.005563 0.105000
v 0.079454 -0.015587 0.091000
v 0.076476 -0.010847 0.091000
v 0.083413 -0.019546 0.091000
v 0.074627 0.005563 0.091000
v 0.088153 -0.022524 0.091000
v 0.093437 -0.024373 0.091000
v 0.079454 -0.015587 0.105000
v 0.083413 -0.019546 0.105000
v 0.076476 -0.010847 0.105000
v 0.088153 -0.022524 0.105000
v 0.099000 0.000000 0.105000
v 0.099000 -0.025000 0.091000
v 0.093437 -0.024373 0.105000
v 0.099000 -0.025000 0.105000
v 0.104563 -0.024373 0.091000
v 0.109847 -0.022524 0.091000
v 0.114587 -0.019546 0.091000
v 0.118546 -0.015587 0.091000
v 0.121524 -0.010847 0.091000
v 0.123373 -0.005563 0.091000
v 0.104563 -0.024373 0.105000
v 0.109847 -0.022524 0.105000
v 0.114587 -0.019546 0.105000
v 0.118546 -0.015587 0.105000
v 0.121524 -0.010847 0.105000
v 0.124000 0.000000 0.091000
v 0.123373 -0.005563 0.105000
v 0.124000 0.000000 0.105000
v 0.074627 0.005563 0.105000
v 0.076476 0.010847 0.091000
v 0.079454 0.015587 0.091000
v 0.083413 0.019546 0.091000
v 0.088153 0.022524 0.091000
v 0.093437 0.024373 0.091000
v 0.099000 0.025000 0.091000
v 0.104563 0.024373 0.091000
v 0.109847 0.022524 0.091000
v 0.076476 0.010847 0.105000
v 0.079454 0.015587 0.105000
v 0.083413 0.019546 0.105000
v 0.088153 0.022524 0.105000
v 0.093437 0.024373 0.105000
v 0.099000 0.025000 0.105000
v 0.114587 0.019546 0.091000
v 0.123373 0.005563 0.091000
v 0.121524 0.010847 0.091000
v 0.118546 0.015587 0.091000
v 0.118546 0.015587 0.105000
v 0.114587 0.019546 0.105000
v 0.104563 0.024373 0.105000
v 0.109847 0.022524 0.105000
v 0.121524 0.010847 0.105000
v 0.123373 0.005563 0.105000
v 0.038361 0.053775 -0.016000
v 0.038361 0.053775 0.016000
v 0.053775 0.038361 -0.016000
v 0.053775 0.038361 0.016000
v 0.058160 0.073574 0.016000
v 0.073574 0.058160 -0.016000
v 0.058160 0.073574 -0.016000
v 0.073574 0.058160 0.016000
v -0.053775 0.038361 -0.016000
v -0.053775 0.038361 0.016000
v -0.073574 0.058160 0.016000
v -0.073574 0.058160 -0.016000
v -0.058160 0.073574 -0.016000
v -0.058160 0.073574 0.016000
v -0.038361 0.053775 0.016000
v -0.038361 0.053775 -0.016000
v -0.073574 -0.058160 -0.016000
v -0.038361 -0.053775 -0.016000
v -0.058160 -0.073574 -0.016000
v -0.073574 -0.058160 0.016000
v -0.058160 -0.073574 0.016000
v -0.053775 -0.038361 0.016000
v -0.038361 -0.053775 0.016000
v -0.053775 -0.038361 -0.016000
v 0.038361 -0.053775 -0.016000
v 0.058160 -0.073574 -0.016000
v 0.038361 -0.053775 0.016000
v 0.053775 -0.038361 0.016000
v 0.053775 -0.038361 -0.016000
v 0.073574 -0.058160 -0.016000
v 0.058160 -0.073574 0.016000
v 0.073574 -0.058160 0.016000
f 1 2 3
f 4 5 6
f 1 7 4
f 7 8 5
f 4 7 5
f 5 8 9
f 8 10 9
f 10 11 9
f 1 4 2
f 2 4 6
f 1 3 7
f 7 3 12
f 5 9 13
f 6 5 13
f 10 14 11
f 14 15 16
f 7 12 8
f 8 17 10
f 8 12 17
f 10 17 18
f 10 18 14
f 14 19 15
f 15 20 21
f 21 22 23
f 14 18 19
f 15 19 20
f 21 20 22
f 14 16 11
f 24 25 26
f 9 11 27
f 11 16 28
f 9 27 13
f 11 28 27
f 16 29 28
f 16 30 29
f 30 24 31
f 24 26 32
f 30 31 29
f 24 32 31
f 26 33 32
f 15 21 30
f 15 30 16
f 21 24 30
f 21 23 24
f 23 34 24
f 24 34 35
f 24 36 25
f 24 37 36
f 24 38 37
f 24 39 38
f 24 35 40
f 24 40 39
f 23 41 34
f 34 42 35
f 35 43 40
f 23 22 41
f 34 41 42
f 35 42 43
f 26 25 33
f 25 36 44
f 36 37 45
f 25 44 33
f 36 45 44
f 37 46 45
f 40 47 39
f 39 48 38
f 37 38 46
f 40 43 47
f 39 47 48
f 38 48 46
f 2 6 3
f 3 13 12
f 6 13 3
f 13 27 12
f 12 27 17
f 17 27 28
f 17 28 18
f 18 29 19
f 18 28 29
f 32 33 44
f 19 31 20
f 19 29 31
f 20 31 32
f 20 32 22
f 22 32 41
f 32 42 41
f 32 44 45
f 32 45 46
f 32 46 48
f 32 48 47
f 32 43 42
f 32 47 43
f 49 50 51
f 49 51 52
f 51 53 52
f 52 53 54
f 49 55 50
f 49 54 55
f 49 52 54
f 51 50 53
f 50 56 53
f 53 56 54
f 55 56 50
f 55 54 56
f 57 58 59
f 60 61 62
f 60 63 64
f 65 66 67
f 66 61 68
f 60 69 61
f 66 68 67
f 60 70 69
f 61 69 68
f 64 71 72
f 71 73 74
f 64 72 70
f 71 74 72
f 60 64 70
f 65 75 66
f 65 76 75
f 76 77 75
f 77 78 75
f 78 79 75
f 66 80 61
f 66 75 80
f 61 80 62
f 79 81 75
f 81 82 75
f 82 83 75
f 83 84 75
f 65 85 76
f 76 86 77
f 77 87 78
f 65 67 85
f 76 85 86
f 77 86 87
f 78 88 79
f 79 89 81
f 81 90 82
f 78 87 88
f 79 88 89
f 81 89 90
f 82 91 83
f 83 92 84
f 84 93 94
f 82 90 91
f 83 91 92
f 84 92 93
f 71 95 73
f 57 73 96
f 64 97 71
f 64 63 97
f 71 97 95
f 73 95 96
f 57 59 73
f 73 59 74
f 57 96 58
f 58 96 98
f 95 97 99
f 95 99 98
f 60 62 63
f 84 94 75
f 62 100 101
f 80 75 102
f 75 94 103
f 80 100 62
f 94 93 103
f 75 103 102
f 80 102 100
f 97 63 104
f 62 101 63
f 63 101 104
f 97 104 99
f 70 100 69
f 70 72 101
f 67 68 103
f 67 103 85
f 85 103 86
f 86 103 87
f 87 103 88
f 68 69 102
f 68 102 103
f 69 100 102
f 88 103 89
f 89 103 90
f 90 103 91
f 91 103 92
f 74 59 99
f 58 98 59
f 72 74 104
f 72 104 101
f 74 99 104
f 59 98 99
f 70 101 100
f 92 103 93
f 95 98 96
f 105 106 107
f 105 107 108
f 107 109 108
f 105 110 106
f 105 108 110
f 106 111 107
f 107 111 109
f 108 109 112
f 111 112 109
f 106 112 111
f 106 110 112
f 108 112 110
f 113 114 115
f 115 114 116
f 117 114 113
f 117 118 114
f 118 119 114
f 119 120 114
f 116 114 121
f 121 114 122
f 114 123 122
f 114 124 123
f 124 125 126
f 124 126 123
f 117 127 118
f 117 113 128
f 113 115 129
f 117 128 127
f 113 129 128
f 115 130 129
f 118 131 119
f 119 132 120
f 120 133 134
f 118 127 131
f 119 131 132
f 120 132 133
f 115 116 130
f 116 121 135
f 121 122 136
f 116 135 130
f 121 136 135
f 122 137 136
f 120 134 114
f 125 138 139
f 134 140 114
f 114 141 124
f 124 142 125
f 134 133 140
f 114 140 141
f 124 141 142
f 125 142 143
f 125 143 138
f 138 144 145
f 138 143 144
f 145 144 146
f 125 139 126
f 138 147 139
f 122 123 137
f 123 126 148
f 126 139 149
f 123 148 137
f 126 149 148
f 139 150 149
f 139 147 150
f 147 151 152
f 151 153 154
f 147 152 150
f 151 154 152
f 138 145 147
f 145 151 147
f 145 155 151
f 155 156 153
f 151 155 153
f 153 156 157
f 145 146 155
f 155 146 158
f 153 157 159
f 153 159 154
f 156 160 157
f 156 158 160
f 129 130 140
f 130 135 140
f 128 129 140
f 128 140 127
f 127 140 131
f 131 140 132
f 135 136 140
f 136 137 140
f 140 137 148
f 140 148 141
f 141 149 142
f 141 148 149
f 132 140 133
f 142 150 143
f 142 149 150
f 143 150 152
f 143 152 144
f 144 152 154
f 144 154 146
f 146 159 158
f 154 159 146
f 159 160 158
f 155 158 156
f 159 157 160
f 161 162 163
f 162 164 163
f 161 165 166
f 161 163 165
f 163 164 165
f 161 167 162
f 162 167 164
f 167 168 164
f 161 166 167
f 166 168 167
f 164 168 165
f 166 165 168
f 169 170 171
f 172 173 174
f 175 176 177
f 175 177 178
f 175 179 180
f 180 179 181
f 175 178 179
f 177 182 183
f 172 184 173
f 173 185 182
f 182 185 183
f 173 184 185
f 172 186 184
f 177 183 178
f 169 187 170
f 180 170 188
f 175 180 189
f 180 188 189
f 169 190 187
f 170 187 188
f 180 181 170
f 171 170 181
f 169 191 190
f 169 171 191
f 187 190 192
f 187 192 193
f 173 194 174
f 173 195 194
f 173 196 195
f 173 197 196
f 177 198 182
f 173 182 199
f 182 198 199
f 173 200 197
f 173 201 200
f 173 202 201
f 173 203 202
f 173 199 203
f 172 174 186
f 174 194 204
f 194 195 205
f 174 204 186
f 194 205 204
f 195 206 205
f 195 196 206
f 196 197 207
f 197 200 208
f 196 207 206
f 197 208 207
f 200 209 208
f 200 201 209
f 201 202 210
f 202 203 211
f 201 210 209
f 202 211 210
f 203 212 211
f 175 189 176
f 177 176 198
f 189 213 176
f 187 193 188
f 188 214 189
f 188 193 214
f 189 214 213
f 198 176 215
f 198 216 199
f 199 212 203
f 198 215 216
f 176 213 215
f 199 216 212
f 186 204 184
f 178 183 213
f 171 181 192
f 179 193 181
f 178 214 179
f 179 214 193
f 171 192 191
f 181 193 192
f 184 204 205
f 184 205 206
f 184 206 207
f 184 207 208
f 183 185 215
f 184 216 185
f 185 216 215
f 184 208 209
f 184 209 210
f 184 210 211
f 184 211 212
f 184 212 216
f 178 213 214
f 183 215 213
f 192 190 191
f 217 218 219
f 218 220 219
f 219 220 221
f 217 222 218
f 217 223 222
f 217 219 223
f 219 221 223
f 218 224 220
f 224 221 220
f 222 224 218
f 222 221 224
f 222 223 221
f 225 226 227
f 225 228 226
f 225 229 228
f 225 227 229
f 228 229 230
f 226 231 227
f 226 228 232
f 226 232 231
f 228 233 232
f 232 234 231
f 228 230 233
f 232 233 234
f 227 234 229
f 227 231 234
f 229 234 230
f 235 236 237
f 235 238 236
f 235 239 238
f 235 237 240
f 235 240 239
f 238 239 241
f 238 241 242
f 236 243 237
f 236 238 244
f 236 244 243
f 238 242 244
f 244 242 243
f 237 242 240
f 242 241 240
f 237 243 242
f 245 246 247
f 245 248 246
f 245 249 248
f 245 247 249
f 248 249 250
f 246 248 251
f 246 251 252
f 246 253 247
f 246 252 253
f 251 254 252
f 251 250 254
f 248 250 251
f 247 250 249
f 247 253 254
f 247 254 250
f 255 256 257
f 255 258 256
f 255 259 258
f 255 257 260
f 256 261 257
f 255 260 259
f 258 259 262
f 256 258 263
f 256 263 264
f 256 264 261
f 263 262 264
f 258 262 263
f 264 260 261
f 259 260 262
f 264 262 260
f 265 266 267
f 265 268 266
f 266 269 270
f 266 270 267
f 265 267 271
f 267 270 272
f 266 268 269
f 265 271 268
f 268 272 269
f 270 269 272
f 267 272 271
f 268 271 272
f 273 274 275
f 273 276 274
f 274 277 278
f 274 278 275
f 273 275 279
f 275 278 280
f 274 276 277
f 273 279 276
f 276 280 277
f 278 277 280
f 275 280 279
f 276 279 280
f 281 282 283
f 281 283 284
f 281 284 285
f 283 286 284
f 283 287 286
f 284 286 288
f 283 282 287
f 281 285 282
f 282 288 287
f 282 285 288
f 286 287 288
f 284 288 285
f 289 290 291
f 289 291 292
f 289 292 293
f 291 294 295
f 291 295 292
f 292 295 296
f 291 290 294
f 289 293 290
f 290 293 296
f 290 296 294
f 295 294 296
f 292 296 293
f 297 298 299
f 297 300 301
f 297 299 300
f 300 299 302
f 299 303 302
f 300 302 304
f 297 301 298
f 298 301 304
f 300 304 301
f 299 298 303
f 298 304 303
f 302 303 304
f 305 306 307
f 305 308 309
f 305 307 308
f 307 310 308
f 307 311 310
f 305 309 306
f 306 309 312
f 307 306 311
f 306 312 311
f 311 312 310
f 313 314 315
f 313 316 314
f 317 318 308
f 317 308 319
f 313 315 308
f 313 308 318
f 315 320 308
f 319 308 310
f 319 310 321
f 321 310 322
f 317 319 323
f 319 321 324
f 317 323 325
f 321 326 324
f 319 324 323
f 317 325 318
f 313 318 316
f 316 318 325
f 323 324 327
f 323 327 325
f 316 325 327
f 316 327 314
f 321 322 326
f 322 328 329
f 322 329 326
f 324 326 327
f 326 329 327
f 328 330 329
f 329 330 327
f 322 310 328
f 328 310 331
f 331 310 332
f 332 310 333
f 333 310 334
f 334 310 312
f 334 312 335
f 335 312 336
f 328 331 330
f 331 332 337
f 332 333 338
f 330 331 337
f 330 337 327
f 337 338 327
f 332 338 337
f 338 339 327
f 339 340 327
f 333 334 339
f 334 335 340
f 333 339 338
f 334 340 339
f 335 336 341
f 336 342 343
f 340 341 327
f 341 343 327
f 343 344 327
f 335 341 340
f 336 343 341
f 343 342 344
f 315 345 320
f 315 314 345
f 320 346 308
f 346 347 308
f 347 309 308
f 347 348 309
f 348 349 309
f 349 350 309
f 350 351 309
f 351 352 309
f 352 353 309
f 320 354 346
f 320 345 354
f 346 354 355
f 314 327 345
f 345 327 354
f 354 327 355
f 355 327 356
f 346 355 347
f 347 356 348
f 348 357 349
f 347 355 356
f 348 356 357
f 349 358 350
f 350 359 351
f 356 327 357
f 327 358 357
f 349 357 358
f 327 359 358
f 350 358 359
f 360 312 309
f 353 360 309
f 336 312 342
f 342 312 361
f 361 312 362
f 363 312 360
f 362 312 363
f 327 364 365
f 351 366 352
f 352 367 353
f 327 366 359
f 327 367 366
f 351 359 366
f 352 366 367
f 327 365 367
f 353 367 365
f 342 361 344
f 362 363 368
f 361 362 369
f 327 344 369
f 327 369 368
f 327 368 364
f 361 369 344
f 362 368 369
f 363 360 364
f 353 365 360
f 360 365 364
f 363 364 368
f 370 230 371
f 371 234 372
f 371 230 234
f 371 372 373
f 370 371 374
f 375 233 230
f 372 234 375
f 375 234 233
f 372 375 373
f 370 375 230
f 370 376 375
f 370 374 376
f 376 377 375
f 373 375 377
f 376 374 377
f 371 373 374
f 373 377 374
f 378 240 379
f 379 240 241
f 378 379 380
f 378 381 382
f 378 382 240
f 382 239 240
f 382 241 239
f 378 380 381
f 381 383 382
f 381 380 383
f 382 383 384
f 380 384 383
f 379 384 380
f 379 241 385
f 379 385 384
f 382 385 241
f 382 384 385
f 386 387 388
f 386 261 387
f 386 388 389
f 388 387 390
f 388 390 389
f 386 389 391
f 389 390 391
f 390 392 391
f 386 260 257
f 386 393 260
f 386 257 261
f 386 391 393
f 390 387 392
f 392 261 260
f 393 392 260
f 387 261 392
f 393 391 392
f 394 253 395
f 394 395 396
f 394 397 253
f 394 396 397
f 395 253 252
f 395 252 254
f 395 254 398
f 395 398 399
f 395 399 400
f 399 398 401
f 396 395 400
f 399 401 400
f 396 401 397
f 396 400 401
f 397 254 253
f 398 254 397
f 401 398 397
