# sionna2 mesh — x500v2__gear.obj
# group=gear  verts=200  tris=368
v 0.021000 0.110906 -0.224716
v 0.021000 0.119941 -0.221780
v 0.021000 0.112256 -0.227364
v 0.021000 0.114357 -0.229466
v 0.021000 0.117006 -0.230815
v 0.021000 0.119941 -0.231280
v 0.021000 0.122877 -0.230815
v 0.021000 0.110441 -0.221780
v 0.021000 0.110906 -0.218844
v 0.021000 0.112256 -0.216196
v 0.021000 0.125525 -0.229466
v 0.021000 0.127627 -0.227364
v 0.021000 0.128976 -0.224716
v 0.021000 0.129441 -0.221780
v 0.021000 0.128976 -0.218844
v 0.021000 0.127627 -0.216196
v 0.021000 0.114357 -0.214094
v 0.021000 0.117006 -0.212745
v 0.021000 0.119941 -0.212280
v 0.021000 0.122877 -0.212745
v 0.021000 0.125525 -0.214094
v 0.114000 0.112256 -0.227364
v 0.114000 0.110906 -0.224716
v 0.114000 0.110441 -0.221780
v 0.114000 0.110906 -0.218844
v 0.114000 0.112256 -0.216196
v 0.114000 0.114357 -0.229466
v 0.114000 0.117006 -0.230815
v 0.114000 0.119941 -0.231280
v 0.114000 0.122877 -0.230815
v 0.114000 0.125525 -0.229466
v 0.114000 0.127627 -0.227364
v 0.114000 0.128976 -0.224716
v 0.114000 0.129441 -0.221780
v 0.114000 0.128976 -0.218844
v 0.114000 0.114357 -0.214094
v 0.114000 0.117006 -0.212745
v 0.114000 0.119941 -0.212280
v 0.114000 0.122877 -0.212745
v 0.114000 0.125525 -0.214094
v 0.114000 0.127627 -0.216196
v 0.114000 0.119941 -0.221780
v -0.114000 0.110906 -0.224716
v -0.114000 0.119941 -0.221780
v -0.114000 0.112256 -0.227364
v -0.114000 0.114357 -0.229466
v -0.114000 0.117006 -0.230815
v -0.114000 0.119941 -0.231280
v -0.114000 0.122877 -0.230815
v -0.114000 0.110441 -0.221780
v -0.114000 0.110906 -0.218844
v -0.114000 0.112256 -0.216196
v -0.114000 0.125525 -0.229466
v -0.114000 0.127627 -0.227364
v -0.114000 0.128976 -0.224716
v -0.114000 0.129441 -0.221780
v -0.114000 0.128976 -0.218844
v -0.114000 0.127627 -0.216196
v -0.114000 0.114357 -0.214094
v -0.114000 0.117006 -0.212745
v -0.114000 0.119941 -0.212280
v -0.114000 0.122877 -0.212745
v -0.114000 0.125525 -0.214094
v -0.021000 0.112256 -0.227364
v -0.021000 0.110906 -0.224716
v -0.021000 0.110441 -0.221780
v -0.021000 0.110906 -0.218844
v -0.021000 0.112256 -0.216196
v -0.021000 0.114357 -0.229466
v -0.021000 0.117006 -0.230815
v -0.021000 0.119941 -0.231280
v -0.021000 0.122877 -0.230815
v -0.021000 0.125525 -0.229466
v -0.021000 0.127627 -0.227364
v -0.021000 0.128976 -0.224716
v -0.021000 0.129441 -0.221780
v -0.021000 0.128976 -0.218844
v -0.021000 0.114357 -0.214094
v -0.021000 0.117006 -0.212745
v -0.021000 0.119941 -0.212280
v -0.021000 0.122877 -0.212745
v -0.021000 0.125525 -0.214094
v -0.021000 0.127627 -0.216196
v -0.021000 0.119941 -0.221780
v -0.016900 0.040530 -0.038030
v -0.016900 0.073030 -0.016000
v -0.016900 0.073030 -0.038030
v -0.016900 0.040530 -0.016000
v 0.016900 0.040530 -0.038030
v 0.016900 0.073030 -0.016000
v 0.016900 0.040530 -0.016000
v 0.016900 0.073030 -0.038030
v -0.020000 0.103210 -0.195880
v -0.020000 0.126410 -0.195880
v -0.020000 0.103210 -0.228180
v -0.020000 0.126410 -0.228180
v 0.020000 0.103210 -0.228180
v 0.020000 0.126410 -0.195880
v 0.020000 0.103210 -0.195880
v 0.020000 0.126410 -0.228180
v 0.021000 -0.128976 -0.224716
v 0.021000 -0.119941 -0.221780
v 0.021000 -0.127627 -0.227364
v 0.021000 -0.125525 -0.229466
v 0.021000 -0.122877 -0.230815
v 0.021000 -0.129441 -0.221780
v 0.021000 -0.128976 -0.218844
v 0.021000 -0.127627 -0.216196
v 0.021000 -0.119941 -0.231280
v 0.021000 -0.117006 -0.230815
v 0.021000 -0.114357 -0.229466
v 0.021000 -0.112256 -0.227364
v 0.021000 -0.110906 -0.224716
v 0.021000 -0.110441 -0.221780
v 0.021000 -0.110906 -0.218844
v 0.021000 -0.112256 -0.216196
v 0.021000 -0.125525 -0.214094
v 0.021000 -0.122877 -0.212745
v 0.021000 -0.119941 -0.212280
v 0.021000 -0.117006 -0.212745
v 0.021000 -0.114357 -0.214094
v 0.114000 -0.127627 -0.227364
v 0.114000 -0.128976 -0.224716
v 0.114000 -0.125525 -0.229466
v 0.114000 -0.122877 -0.230815
v 0.114000 -0.129441 -0.221780
v 0.114000 -0.128976 -0.218844
v 0.114000 -0.119941 -0.231280
v 0.114000 -0.117006 -0.230815
v 0.114000 -0.114357 -0.229466
v 0.114000 -0.127627 -0.216196
v 0.114000 -0.125525 -0.214094
v 0.114000 -0.122877 -0.212745
v 0.114000 -0.119941 -0.212280
v 0.114000 -0.117006 -0.212745
v 0.114000 -0.114357 -0.214094
v 0.114000 -0.112256 -0.227364
v 0.114000 -0.110906 -0.224716
v 0.114000 -0.110906 -0.218844
v 0.114000 -0.110441 -0.221780
v 0.114000 -0.112256 -0.216196
v 0.114000 -0.119941 -0.221780
v -0.114000 -0.128976 -0.224716
v -0.114000 -0.119941 -0.221780
v -0.114000 -0.127627 -0.227364
v -0.114000 -0.125525 -0.229466
v -0.114000 -0.122877 -0.230815
v -0.114000 -0.129441 -0.221780
v -0.114000 -0.128976 -0.218844
v -0.114000 -0.127627 -0.216196
v -0.114000 -0.119941 -0.231280
v -0.114000 -0.117006 -0.230815
v -0.114000 -0.114357 -0.229466
v -0.114000 -0.112256 -0.227364
v -0.114000 -0.110906 -0.224716
v -0.114000 -0.110441 -0.221780
v -0.114000 -0.110906 -0.218844
v -0.114000 -0.112256 -0.216196
v -0.114000 -0.125525 -0.214094
v -0.114000 -0.122877 -0.212745
v -0.114000 -0.119941 -0.212280
v -0.114000 -0.117006 -0.212745
v -0.114000 -0.114357 -0.214094
v -0.021000 -0.127627 -0.227364
v -0.021000 -0.128976 -0.224716
v -0.021000 -0.125525 -0.229466
v -0.021000 -0.122877 -0.230815
v -0.021000 -0.129441 -0.221780
v -0.021000 -0.128976 -0.218844
v -0.021000 -0.119941 -0.231280
v -0.021000 -0.117006 -0.230815
v -0.021000 -0.114357 -0.229466
v -0.021000 -0.127627 -0.216196
v -0.021000 -0.125525 -0.214094
v -0.021000 -0.122877 -0.212745
v -0.021000 -0.119941 -0.212280
v -0.021000 -0.117006 -0.212745
v -0.021000 -0.114357 -0.214094
v -0.021000 -0.112256 -0.227364
v -0.021000 -0.110906 -0.224716
v -0.021000 -0.110906 -0.218844
v -0.021000 -0.110441 -0.221780
v -0.021000 -0.112256 -0.216196
v -0.021000 -0.119941 -0.221780
v 0.016900 -0.073030 -0.038030
v -0.016900 -0.073030 -0.016000
v -0.016900 -0.073030 -0.038030
v -0.016900 -0.040530 -0.016000
v -0.016900 -0.040530 -0.038030
v 0.016900 -0.040530 -0.016000
v 0.016900 -0.073030 -0.016000
v 0.016900 -0.040530 -0.038030
v -0.020000 -0.126410 -0.195880
v -0.020000 -0.103210 -0.195880
v -0.020000 -0.126410 -0.228180
v -0.020000 -0.103210 -0.228180
v 0.020000 -0.126410 -0.228180
v 0.020000 -0.103210 -0.195880
v 0.020000 -0.126410 -0.195880
v 0.020000 -0.103210 -0.228180
f 1 2 3
f 4 2 5
f 3 2 4
f 5 2 6
f 6 2 7
f 8 2 1
f 9 2 8
f 10 2 9
f 7 2 11
f 11 2 12
f 12 2 13
f 13 2 14
f 14 2 15
f 15 2 16
f 17 2 10
f 18 2 17
f 19 2 18
f 20 2 19
f 21 2 20
f 16 2 21
f 3 4 22
f 1 3 23
f 8 1 24
f 9 8 25
f 10 9 26
f 4 5 27
f 5 6 28
f 6 7 29
f 7 11 30
f 11 12 31
f 12 13 32
f 13 14 33
f 14 15 34
f 15 16 35
f 17 10 36
f 18 17 37
f 19 18 38
f 20 19 39
f 21 20 40
f 16 21 41
f 23 3 22
f 24 1 23
f 25 8 24
f 26 9 25
f 36 10 26
f 22 4 27
f 27 5 28
f 28 6 29
f 29 7 30
f 30 11 31
f 31 12 32
f 32 13 33
f 33 14 34
f 34 15 35
f 37 17 36
f 38 18 37
f 39 19 38
f 40 20 39
f 41 21 40
f 35 16 41
f 23 22 42
f 27 28 42
f 22 27 42
f 28 29 42
f 29 30 42
f 24 23 42
f 25 24 42
f 26 25 42
f 30 31 42
f 31 32 42
f 32 33 42
f 33 34 42
f 34 35 42
f 35 41 42
f 36 26 42
f 37 36 42
f 38 37 42
f 39 38 42
f 40 39 42
f 41 40 42
f 43 44 45
f 46 44 47
f 45 44 46
f 47 44 48
f 48 44 49
f 50 44 43
f 51 44 50
f 52 44 51
f 49 44 53
f 53 44 54
f 54 44 55
f 55 44 56
f 56 44 57
f 57 44 58
f 59 44 52
f 60 44 59
f 61 44 60
f 62 44 61
f 63 44 62
f 58 44 63
f 45 46 64
f 43 45 65
f 50 43 66
f 51 50 67
f 52 51 68
f 46 47 69
f 47 48 70
f 48 49 71
f 49 53 72
f 53 54 73
f 54 55 74
f 55 56 75
f 56 57 76
f 57 58 77
f 59 52 78
f 60 59 79
f 61 60 80
f 62 61 81
f 63 62 82
f 58 63 83
f 65 45 64
f 66 43 65
f 67 50 66
f 68 51 67
f 78 52 68
f 64 46 69
f 69 47 70
f 70 48 71
f 71 49 72
f 72 53 73
f 73 54 74
f 74 55 75
f 75 56 76
f 76 57 77
f 79 59 78
f 80 60 79
f 81 61 80
f 82 62 81
f 83 63 82
f 77 58 83
f 65 64 84
f 69 70 84
f 64 69 84
f 70 71 84
f 71 72 84
f 66 65 84
f 67 66 84
f 68 67 84
f 72 73 84
f 73 74 84
f 74 75 84
f 75 76 84
f 76 77 84
f 77 83 84
f 78 68 84
f 79 78 84
f 80 79 84
f 81 80 84
f 82 81 84
f 83 82 84
f 85 86 87
f 88 86 85
f 89 88 85
f 87 89 85
f 88 90 86
f 86 90 87
f 91 88 89
f 92 89 87
f 91 90 88
f 92 91 89
f 90 91 92
f 87 90 92
f 93 94 95
f 95 94 96
f 96 97 95
f 97 93 95
f 94 98 96
f 93 98 94
f 99 93 97
f 100 97 96
f 96 98 100
f 100 99 97
f 98 99 100
f 99 98 93
f 101 102 103
f 103 102 104
f 104 102 105
f 106 102 101
f 107 102 106
f 108 102 107
f 105 102 109
f 109 102 110
f 110 102 111
f 111 102 112
f 112 102 113
f 113 102 114
f 114 102 115
f 115 102 116
f 117 102 108
f 118 102 117
f 119 102 118
f 120 102 119
f 121 102 120
f 116 102 121
f 103 104 122
f 101 103 123
f 104 105 124
f 105 109 125
f 106 101 126
f 107 106 127
f 109 110 128
f 110 111 129
f 111 112 130
f 108 107 131
f 117 108 132
f 118 117 133
f 119 118 134
f 120 119 135
f 121 120 136
f 112 113 137
f 113 114 138
f 115 116 139
f 114 115 140
f 116 121 141
f 122 104 124
f 123 103 122
f 124 105 125
f 126 101 123
f 127 106 126
f 131 107 127
f 125 109 128
f 128 110 129
f 129 111 130
f 132 108 131
f 133 117 132
f 134 118 133
f 135 119 134
f 141 121 136
f 136 120 135
f 130 112 137
f 137 113 138
f 138 114 140
f 140 115 139
f 139 116 141
f 123 122 142
f 122 124 142
f 124 125 142
f 126 123 142
f 127 126 142
f 131 127 142
f 125 128 142
f 128 129 142
f 129 130 142
f 130 137 142
f 137 138 142
f 138 140 142
f 140 139 142
f 139 141 142
f 132 131 142
f 133 132 142
f 134 133 142
f 135 134 142
f 136 135 142
f 141 136 142
f 143 144 145
f 145 144 146
f 146 144 147
f 148 144 143
f 149 144 148
f 150 144 149
f 147 144 151
f 151 144 152
f 152 144 153
f 153 144 154
f 154 144 155
f 155 144 156
f 156 144 157
f 157 144 158
f 159 144 150
f 160 144 159
f 161 144 160
f 162 144 161
f 163 144 162
f 158 144 163
f 145 146 164
f 143 145 165
f 146 147 166
f 147 151 167
f 148 143 168
f 149 148 169
f 151 152 170
f 152 153 171
f 153 154 172
f 150 149 173
f 159 150 174
f 160 159 175
f 161 160 176
f 162 161 177
f 163 162 178
f 154 155 179
f 155 156 180
f 157 158 181
f 156 157 182
f 158 163 183
f 164 146 166
f 165 145 164
f 166 147 167
f 168 143 165
f 169 148 168
f 173 149 169
f 167 151 170
f 170 152 171
f 171 153 172
f 174 150 173
f 175 159 174
f 176 160 175
f 177 161 176
f 183 163 178
f 178 162 177
f 172 154 179
f 179 155 180
f 180 156 182
f 182 157 181
f 181 158 183
f 165 164 184
f 164 166 184
f 166 167 184
f 168 165 184
f 169 168 184
f 173 169 184
f 167 170 184
f 170 171 184
f 171 172 184
f 172 179 184
f 179 180 184
f 180 182 184
f 182 181 184
f 181 183 184
f 174 173 184
f 175 174 184
f 176 175 184
f 177 176 184
f 178 177 184
f 183 178 184
f 185 186 187
f 187 188 189
f 186 188 187
f 189 185 187
f 186 190 188
f 188 190 189
f 191 186 185
f 192 185 189
f 191 190 186
f 189 190 192
f 192 191 185
f 190 191 192
f 193 194 195
f 195 194 196
f 196 197 195
f 197 193 195
f 194 198 196
f 193 198 194
f 199 193 197
f 200 197 196
f 196 198 200
f 200 199 197
f 198 199 200
f 199 198 193
