# sionna2 mesh — x500v2__deck.obj
# group=deck  verts=154  tris=280
v -0.051390 -0.071860 0.016000
v -0.071860 -0.051390 0.016000
v -0.051390 -0.071860 0.014000
v -0.071860 -0.051390 0.014000
v -0.071860 0.051390 0.014000
v -0.071860 0.051390 0.016000
v 0.051390 -0.071860 0.014000
v -0.051390 0.071860 0.014000
v -0.051390 0.071860 0.016000
v 0.051390 -0.071860 0.016000
v 0.051390 0.071860 0.016000
v 0.071860 -0.051390 0.014000
v 0.071860 -0.051390 0.016000
v 0.051390 0.071860 0.014000
v 0.071860 0.051390 0.014000
v 0.071860 0.051390 0.016000
v -0.051390 -0.071860 -0.014000
v -0.071860 -0.051390 -0.014000
v -0.051390 -0.071860 -0.016000
v -0.071860 -0.051390 -0.016000
v -0.071860 0.051390 -0.016000
v -0.071860 0.051390 -0.014000
v 0.051390 -0.071860 -0.016000
v -0.051390 0.071860 -0.016000
v -0.051390 0.071860 -0.014000
v 0.051390 -0.071860 -0.014000
v 0.051390 0.071860 -0.014000
v 0.071860 -0.051390 -0.016000
v 0.071860 -0.051390 -0.014000
v 0.051390 0.071860 -0.016000
v 0.071860 0.051390 -0.016000
v 0.071860 0.051390 -0.014000
v -0.120000 0.025371 -0.028184
v -0.120000 0.030000 -0.029000
v -0.120000 0.025371 -0.029816
v -0.120000 0.026979 -0.032600
v -0.120000 0.028393 -0.033417
v -0.120000 0.025930 -0.031350
v -0.120000 0.030000 -0.033700
v -0.120000 0.031607 -0.033417
v -0.120000 0.025930 -0.026650
v -0.120000 0.026979 -0.025400
v -0.120000 0.028393 -0.024583
v -0.120000 0.030000 -0.024300
v -0.120000 0.031607 -0.024583
v -0.120000 0.033021 -0.032600
v -0.120000 0.034070 -0.031350
v -0.120000 0.034629 -0.029816
v -0.120000 0.034070 -0.026650
v -0.120000 0.033021 -0.025400
v -0.120000 0.034629 -0.028184
v 0.130000 0.025930 -0.031350
v 0.130000 0.025371 -0.029816
v 0.130000 0.025371 -0.028184
v 0.130000 0.025930 -0.026650
v 0.130000 0.026979 -0.025400
v 0.130000 0.026979 -0.032600
v 0.130000 0.028393 -0.033417
v 0.130000 0.030000 -0.033700
v 0.130000 0.028393 -0.024583
v 0.130000 0.031607 -0.033417
v 0.130000 0.033021 -0.032600
v 0.130000 0.034070 -0.031350
v 0.130000 0.034629 -0.029816
v 0.130000 0.033021 -0.025400
v 0.130000 0.034629 -0.028184
v 0.130000 0.034070 -0.026650
v 0.130000 0.030000 -0.024300
v 0.130000 0.031607 -0.024583
v 0.130000 0.030000 -0.029000
v -0.120000 -0.033021 -0.032600
v -0.120000 -0.030000 -0.029000
v -0.120000 -0.031607 -0.033417
v -0.120000 -0.034629 -0.029816
v -0.120000 -0.034070 -0.031350
v -0.120000 -0.034629 -0.028184
v -0.120000 -0.034070 -0.026650
v -0.120000 -0.033021 -0.025400
v -0.120000 -0.031607 -0.024583
v -0.120000 -0.030000 -0.033700
v -0.120000 -0.028393 -0.033417
v -0.120000 -0.026979 -0.032600
v -0.120000 -0.025930 -0.031350
v -0.120000 -0.025371 -0.029816
v -0.120000 -0.030000 -0.024300
v -0.120000 -0.028393 -0.024583
v -0.120000 -0.025930 -0.026650
v -0.120000 -0.026979 -0.025400
v -0.120000 -0.025371 -0.028184
v 0.130000 -0.034070 -0.031350
v 0.130000 -0.034629 -0.029816
v 0.130000 -0.033021 -0.032600
v 0.130000 -0.034629 -0.028184
v 0.130000 -0.034070 -0.026650
v 0.130000 -0.033021 -0.025400
v 0.130000 -0.031607 -0.024583
v 0.130000 -0.031607 -0.033417
v 0.130000 -0.030000 -0.033700
v 0.130000 -0.028393 -0.033417
v 0.130000 -0.026979 -0.025400
v 0.130000 -0.026979 -0.032600
v 0.130000 -0.025930 -0.031350
v 0.130000 -0.025371 -0.029816
v 0.130000 -0.025371 -0.028184
v 0.130000 -0.025930 -0.026650
v 0.130000 -0.030000 -0.024300
v 0.130000 -0.028393 -0.024583
v 0.130000 -0.030000 -0.029000
v -0.050000 -0.025150 -0.060500
v -0.050000 0.025150 -0.060500
v -0.050000 -0.025150 -0.062500
v 0.050000 -0.025150 -0.062500
v -0.050000 0.025150 -0.062500
v 0.050000 0.025150 -0.060500
v 0.050000 -0.025150 -0.060500
v 0.050000 0.025150 -0.062500
v 0.066500 -0.046500 -0.042000
v 0.066500 0.046500 -0.042000
v 0.066500 -0.046500 -0.044000
v 0.131500 -0.046500 -0.044000
v 0.131500 -0.046500 -0.042000
v 0.066500 0.046500 -0.044000
v 0.131500 0.046500 -0.042000
v 0.131500 0.046500 -0.044000
v 0.097198 -0.000868 -0.023250
v 0.099000 0.000000 -0.023250
v 0.097753 -0.001564 -0.023250
v 0.097000 0.000000 -0.023250
v 0.098555 -0.001950 -0.023250
v 0.099445 -0.001950 -0.023250
v 0.100247 -0.001564 -0.023250
v 0.100802 -0.000868 -0.023250
v 0.101000 0.000000 -0.023250
v 0.097753 -0.001564 0.089500
v 0.097000 0.000000 0.089500
v 0.097198 -0.000868 0.089500
v 0.098555 -0.001950 0.089500
v 0.099445 -0.001950 0.089500
v 0.100247 -0.001564 0.089500
v 0.100802 -0.000868 0.089500
v 0.099000 0.000000 0.089500
v 0.101000 0.000000 0.089500
v 0.097198 0.000868 -0.023250
v 0.097753 0.001564 -0.023250
v 0.100802 0.000868 -0.023250
v 0.100247 0.001564 -0.023250
v 0.098555 0.001950 -0.023250
v 0.099445 0.001950 -0.023250
v 0.097198 0.000868 0.089500
v 0.097753 0.001564 0.089500
v 0.098555 0.001950 0.089500
v 0.099445 0.001950 0.089500
v 0.100247 0.001564 0.089500
v 0.100802 0.000868 0.089500
f 1 2 3
f 3 2 4
f 3 4 5
f 6 2 1
f 2 6 4
f 7 1 3
f 7 3 8
f 9 1 10
f 4 6 5
f 3 5 8
f 9 6 1
f 6 9 5
f 5 9 8
f 9 11 8
f 10 1 7
f 12 10 7
f 13 10 12
f 12 7 14
f 11 10 13
f 15 13 12
f 7 8 14
f 11 9 10
f 12 14 15
f 16 11 13
f 8 11 14
f 14 16 15
f 11 16 14
f 16 13 15
f 17 18 19
f 19 18 20
f 19 20 21
f 22 18 17
f 18 22 20
f 23 17 19
f 23 19 24
f 25 17 26
f 20 22 21
f 19 21 24
f 25 22 17
f 22 25 21
f 21 25 24
f 25 27 24
f 26 17 23
f 28 26 23
f 29 26 28
f 28 23 30
f 27 26 29
f 31 29 28
f 23 24 30
f 27 25 26
f 28 30 31
f 32 27 29
f 24 27 30
f 30 32 31
f 27 32 30
f 32 29 31
f 33 34 35
f 36 34 37
f 38 34 36
f 35 34 38
f 37 34 39
f 39 34 40
f 41 34 33
f 42 34 41
f 43 34 42
f 44 34 43
f 45 34 44
f 40 34 46
f 46 34 47
f 47 34 48
f 49 34 50
f 48 34 51
f 51 34 49
f 50 34 45
f 38 36 52
f 35 38 53
f 33 35 54
f 41 33 55
f 42 41 56
f 36 37 57
f 37 39 58
f 39 40 59
f 43 42 60
f 40 46 61
f 46 47 62
f 47 48 63
f 48 51 64
f 50 45 65
f 51 49 66
f 49 50 67
f 44 43 68
f 45 44 69
f 52 36 57
f 53 38 52
f 54 35 53
f 55 33 54
f 56 41 55
f 57 37 58
f 58 39 59
f 59 40 61
f 60 42 56
f 61 46 62
f 62 47 63
f 63 48 64
f 65 45 69
f 67 50 65
f 64 51 66
f 66 49 67
f 68 43 60
f 69 44 68
f 54 53 70
f 57 58 70
f 52 57 70
f 53 52 70
f 58 59 70
f 59 61 70
f 55 54 70
f 56 55 70
f 60 56 70
f 68 60 70
f 69 68 70
f 61 62 70
f 62 63 70
f 63 64 70
f 67 65 70
f 64 66 70
f 66 67 70
f 65 69 70
f 71 72 73
f 74 72 75
f 75 72 71
f 76 72 74
f 77 72 76
f 78 72 77
f 79 72 78
f 73 72 80
f 80 72 81
f 81 72 82
f 82 72 83
f 83 72 84
f 85 72 79
f 86 72 85
f 87 72 88
f 89 72 87
f 88 72 86
f 84 72 89
f 75 71 90
f 74 75 91
f 71 73 92
f 76 74 93
f 77 76 94
f 78 77 95
f 79 78 96
f 73 80 97
f 80 81 98
f 81 82 99
f 88 86 100
f 82 83 101
f 83 84 102
f 84 89 103
f 89 87 104
f 87 88 105
f 85 79 106
f 86 85 107
f 91 75 90
f 93 74 91
f 90 71 92
f 92 73 97
f 94 76 93
f 95 77 94
f 96 78 95
f 97 80 98
f 98 81 99
f 99 82 101
f 100 86 107
f 101 83 102
f 102 84 103
f 103 89 104
f 104 87 105
f 105 88 100
f 106 79 96
f 107 85 106
f 92 97 108
f 91 90 108
f 90 92 108
f 93 91 108
f 94 93 108
f 95 94 108
f 96 95 108
f 97 98 108
f 98 99 108
f 99 101 108
f 101 102 108
f 102 103 108
f 106 96 108
f 107 106 108
f 105 100 108
f 104 105 108
f 100 107 108
f 103 104 108
f 109 110 111
f 112 109 111
f 113 112 111
f 111 110 113
f 109 114 110
f 110 114 113
f 115 109 112
f 115 114 109
f 116 115 112
f 116 112 113
f 113 114 116
f 114 115 116
f 117 118 119
f 120 117 119
f 121 117 120
f 122 120 119
f 121 123 117
f 124 121 120
f 119 118 122
f 117 123 118
f 124 120 122
f 123 121 124
f 118 123 122
f 122 123 124
f 125 126 127
f 128 126 125
f 127 126 129
f 129 126 130
f 130 126 131
f 131 126 132
f 132 126 133
f 127 129 134
f 128 125 135
f 125 127 136
f 129 130 137
f 130 131 138
f 131 132 139
f 132 133 140
f 136 127 134
f 135 125 136
f 134 129 137
f 137 130 138
f 138 131 139
f 136 134 141
f 135 136 141
f 134 137 141
f 137 138 141
f 138 139 141
f 139 140 141
f 139 132 140
f 140 133 142
f 140 142 141
f 143 126 128
f 144 126 143
f 145 126 146
f 147 126 144
f 148 126 147
f 146 126 148
f 133 126 145
f 143 128 149
f 144 143 150
f 147 144 151
f 148 147 152
f 146 148 153
f 133 145 142
f 145 146 154
f 149 128 135
f 150 143 149
f 151 144 150
f 152 147 151
f 153 148 152
f 149 135 141
f 150 149 141
f 154 153 141
f 151 150 141
f 152 151 141
f 153 152 141
f 142 145 154
f 154 146 153
f 142 154 141
