# sionna2 mesh — x500v2__motor.obj
# group=motor  verts=1240  tris=2464
v 0.167221 0.169176 0.006000
v 0.165749 0.171518 0.007500
v 0.165749 0.171518 0.006000
v 0.164836 0.174128 0.006000
v 0.164836 0.174128 0.007500
v 0.164526 0.176876 0.007500
v 0.164526 0.176876 0.006000
v 0.164836 0.179625 0.007500
v 0.164836 0.179625 0.006000
v 0.167221 0.169176 0.007500
v 0.169718 0.174271 0.007500
v 0.169375 0.175554 0.007500
v 0.169375 0.178199 0.007500
v 0.165749 0.182235 0.007500
v 0.165749 0.182235 0.006000
v 0.167221 0.184576 0.007500
v 0.167221 0.184576 0.006000
v 0.169718 0.179482 0.007500
v 0.169176 0.167221 0.006000
v 0.171518 0.165749 0.006000
v 0.169176 0.167221 0.007500
v 0.174128 0.164836 0.006000
v 0.171518 0.165749 0.007500
v 0.176876 0.164526 0.006000
v 0.174128 0.164836 0.007500
v 0.179625 0.164836 0.006000
v 0.176876 0.164526 0.007500
v 0.179625 0.164836 0.007500
v 0.174271 0.169718 0.007500
v 0.175554 0.169375 0.007500
v 0.178199 0.169375 0.007500
v 0.182235 0.165749 0.006000
v 0.184576 0.167221 0.006000
v 0.182235 0.165749 0.007500
v 0.184576 0.167221 0.007500
v 0.179482 0.169718 0.007500
v 0.176876 0.176876 0.006000
v 0.171041 0.171980 0.007500
v 0.170279 0.173068 0.007500
v 0.173068 0.170279 0.007500
v 0.171980 0.171041 0.007500
v 0.169259 0.176876 0.007500
v 0.176876 0.169259 0.007500
v 0.169176 0.186532 0.006000
v 0.171518 0.188003 0.006000
v 0.169176 0.186532 0.007500
v 0.171518 0.188003 0.007500
v 0.174128 0.188917 0.006000
v 0.176876 0.189226 0.006000
v 0.179625 0.188917 0.006000
v 0.174128 0.188917 0.007500
v 0.176876 0.189226 0.007500
v 0.179625 0.188917 0.007500
v 0.170279 0.180685 0.007500
v 0.171041 0.181773 0.007500
v 0.171980 0.182712 0.007500
v 0.173068 0.183473 0.007500
v 0.174271 0.184035 0.007500
v 0.175554 0.184378 0.007500
v 0.176876 0.184494 0.007500
v 0.178199 0.184378 0.007500
v 0.186532 0.169176 0.006000
v 0.188003 0.171518 0.006000
v 0.188917 0.174128 0.006000
v 0.186532 0.169176 0.007500
v 0.188003 0.171518 0.007500
v 0.189226 0.176876 0.006000
v 0.188917 0.179625 0.006000
v 0.188917 0.174128 0.007500
v 0.189226 0.176876 0.007500
v 0.180685 0.170279 0.007500
v 0.181773 0.171041 0.007500
v 0.182712 0.171980 0.007500
v 0.183473 0.173068 0.007500
v 0.188917 0.179625 0.007500
v 0.184035 0.174271 0.007500
v 0.184378 0.175554 0.007500
v 0.184494 0.176876 0.007500
v 0.184378 0.178199 0.007500
v 0.182235 0.188003 0.006000
v 0.184576 0.186532 0.006000
v 0.188003 0.182235 0.006000
v 0.186532 0.184576 0.006000
v 0.182235 0.188003 0.007500
v 0.184576 0.186532 0.007500
v 0.188003 0.182235 0.007500
v 0.186532 0.184576 0.007500
v 0.180685 0.183473 0.007500
v 0.181773 0.182712 0.007500
v 0.182712 0.181773 0.007500
v 0.183473 0.180685 0.007500
v 0.179482 0.184035 0.007500
v 0.184035 0.179482 0.007500
v 0.171890 0.168240 0.010350
v 0.170467 0.169237 0.010350
v 0.169237 0.170467 0.010350
v 0.168240 0.171890 0.010350
v 0.167506 0.173466 0.010350
v 0.167056 0.175145 0.010350
v 0.166904 0.176876 0.010350
v 0.167056 0.178608 0.010350
v 0.173466 0.167506 0.010350
v 0.175145 0.167056 0.010350
v 0.176876 0.166904 0.010350
v 0.178608 0.167056 0.010350
v 0.167506 0.180287 0.010350
v 0.168240 0.181862 0.010350
v 0.169237 0.183286 0.010350
v 0.170467 0.184515 0.010350
v 0.171890 0.185512 0.010350
v 0.173466 0.186247 0.010350
v 0.175145 0.186697 0.010350
v 0.176876 0.186848 0.010350
v 0.178608 0.186697 0.010350
v 0.180287 0.167506 0.010350
v 0.181862 0.168240 0.010350
v 0.183286 0.169237 0.010350
v 0.184515 0.170467 0.010350
v 0.185512 0.171890 0.010350
v 0.186247 0.173466 0.010350
v 0.186697 0.175145 0.010350
v 0.186848 0.176876 0.010350
v 0.186697 0.178608 0.010350
v 0.180287 0.186247 0.010350
v 0.181862 0.185512 0.010350
v 0.185512 0.181862 0.010350
v 0.183286 0.184515 0.010350
v 0.184515 0.183286 0.010350
v 0.186247 0.180287 0.010350
v 0.164643 0.172424 0.013770
v 0.164055 0.174616 0.013770
v 0.163857 0.176876 0.013770
v 0.164055 0.179137 0.013770
v 0.164643 0.181329 0.013770
v 0.165602 0.170367 0.013770
v 0.165602 0.183386 0.013770
v 0.172424 0.164643 0.013770
v 0.174616 0.164055 0.013770
v 0.176876 0.163857 0.013770
v 0.179137 0.164055 0.013770
v 0.181329 0.164643 0.013770
v 0.170367 0.165602 0.013770
v 0.183386 0.165602 0.013770
v 0.168508 0.166903 0.013770
v 0.166903 0.168508 0.013770
v 0.166903 0.185245 0.013770
v 0.168508 0.186850 0.013770
v 0.170367 0.188151 0.013770
v 0.172424 0.189110 0.013770
v 0.174616 0.189698 0.013770
v 0.176876 0.189895 0.013770
v 0.185245 0.166903 0.013770
v 0.186850 0.168508 0.013770
v 0.188151 0.170367 0.013770
v 0.189110 0.172424 0.013770
v 0.189698 0.174616 0.013770
v 0.189895 0.176876 0.013770
v 0.189698 0.179137 0.013770
v 0.179137 0.189698 0.013770
v 0.181329 0.189110 0.013770
v 0.183386 0.188151 0.013770
v 0.185245 0.186850 0.013770
v 0.189110 0.181329 0.013770
v 0.186850 0.185245 0.013770
v 0.188151 0.183386 0.013770
v 0.166267 0.167974 0.023175
v 0.164882 0.169951 0.023175
v 0.163237 0.174471 0.023175
v 0.163026 0.176876 0.023175
v 0.163862 0.172139 0.023175
v 0.163237 0.179281 0.023175
v 0.163862 0.181613 0.023175
v 0.164882 0.183801 0.023175
v 0.169951 0.164882 0.023175
v 0.172139 0.163862 0.023175
v 0.174471 0.163237 0.023175
v 0.176876 0.163026 0.023175
v 0.179281 0.163237 0.023175
v 0.181613 0.163862 0.023175
v 0.183801 0.164882 0.023175
v 0.185779 0.166267 0.023175
v 0.167974 0.166267 0.023175
v 0.166267 0.185779 0.023175
v 0.167974 0.187486 0.023175
v 0.169951 0.188871 0.023175
v 0.172139 0.189891 0.023175
v 0.174471 0.190516 0.023175
v 0.176876 0.190726 0.023175
v 0.187486 0.167974 0.023175
v 0.188871 0.169951 0.023175
v 0.189891 0.172139 0.023175
v 0.190516 0.174471 0.023175
v 0.190726 0.176876 0.023175
v 0.190516 0.179281 0.023175
v 0.179281 0.190516 0.023175
v 0.181613 0.189891 0.023175
v 0.183801 0.188871 0.023175
v 0.189891 0.181613 0.023175
v 0.188871 0.183801 0.023175
v 0.185779 0.187486 0.023175
v 0.187486 0.185779 0.023175
v 0.166691 0.168330 0.030870
v 0.165362 0.170228 0.030870
v 0.164382 0.172329 0.030870
v 0.163782 0.174568 0.030870
v 0.163580 0.176876 0.030870
v 0.163782 0.179185 0.030870
v 0.164382 0.181424 0.030870
v 0.165362 0.183524 0.030870
v 0.166691 0.185423 0.030870
v 0.170228 0.165362 0.030870
v 0.172329 0.164382 0.030870
v 0.174568 0.163782 0.030870
v 0.176876 0.163580 0.030870
v 0.179185 0.163782 0.030870
v 0.181424 0.164382 0.030870
v 0.183524 0.165362 0.030870
v 0.185423 0.166691 0.030870
v 0.168330 0.166691 0.030870
v 0.168330 0.187062 0.030870
v 0.170228 0.188391 0.030870
v 0.172329 0.189371 0.030870
v 0.174568 0.189970 0.030870
v 0.176876 0.190172 0.030870
v 0.187062 0.168330 0.030870
v 0.188391 0.170228 0.030870
v 0.189371 0.172329 0.030870
v 0.189970 0.174568 0.030870
v 0.190172 0.176876 0.030870
v 0.189970 0.179185 0.030870
v 0.179185 0.189970 0.030870
v 0.181424 0.189371 0.030870
v 0.183524 0.188391 0.030870
v 0.189371 0.181424 0.030870
v 0.188391 0.183524 0.030870
v 0.185423 0.187062 0.030870
v 0.187062 0.185423 0.030870
v 0.168389 0.169754 0.034575
v 0.167281 0.171336 0.034575
v 0.166465 0.173087 0.034575
v 0.165965 0.174952 0.034575
v 0.165796 0.176876 0.034575
v 0.165965 0.178800 0.034575
v 0.166465 0.180666 0.034575
v 0.167281 0.182416 0.034575
v 0.171336 0.167281 0.034575
v 0.173087 0.166465 0.034575
v 0.174952 0.165965 0.034575
v 0.176876 0.165796 0.034575
v 0.178800 0.165965 0.034575
v 0.180666 0.166465 0.034575
v 0.182416 0.167281 0.034575
v 0.183998 0.168389 0.034575
v 0.169754 0.168389 0.034575
v 0.168389 0.183998 0.034575
v 0.169754 0.185364 0.034575
v 0.171336 0.186472 0.034575
v 0.173087 0.187288 0.034575
v 0.174952 0.187788 0.034575
v 0.176876 0.187956 0.034575
v 0.185364 0.169754 0.034575
v 0.186472 0.171336 0.034575
v 0.187288 0.173087 0.034575
v 0.187788 0.174952 0.034575
v 0.187956 0.176876 0.034575
v 0.187788 0.178800 0.034575
v 0.178800 0.187788 0.034575
v 0.182416 0.186472 0.034575
v 0.180666 0.187288 0.034575
v 0.185364 0.183998 0.034575
v 0.187288 0.180666 0.034575
v 0.186472 0.182416 0.034575
v 0.183998 0.185364 0.034575
v 0.171839 0.173968 0.036000
v 0.172420 0.173137 0.036000
v 0.173968 0.171839 0.036000
v 0.173137 0.172420 0.036000
v 0.171410 0.174887 0.036000
v 0.171148 0.175866 0.036000
v 0.171059 0.176876 0.036000
v 0.174887 0.171410 0.036000
v 0.175866 0.171148 0.036000
v 0.176876 0.171059 0.036000
v 0.177887 0.171148 0.036000
v 0.171148 0.177887 0.036000
v 0.178866 0.171410 0.036000
v 0.176876 0.176876 0.036000
v 0.171410 0.178866 0.036000
v 0.171839 0.179785 0.036000
v 0.179785 0.171839 0.036000
v 0.172420 0.180615 0.036000
v 0.173137 0.181332 0.036000
v 0.173968 0.181914 0.036000
v 0.174887 0.182343 0.036000
v 0.175866 0.182605 0.036000
v 0.176876 0.182693 0.036000
v 0.177887 0.182605 0.036000
v 0.178866 0.182343 0.036000
v 0.179785 0.181914 0.036000
v 0.180615 0.172420 0.036000
v 0.181332 0.173137 0.036000
v 0.181914 0.173968 0.036000
v 0.182343 0.174887 0.036000
v 0.182605 0.175866 0.036000
v 0.182693 0.176876 0.036000
v 0.182605 0.177887 0.036000
v 0.182343 0.178866 0.036000
v 0.181914 0.179785 0.036000
v 0.181332 0.180615 0.036000
v 0.180615 0.181332 0.036000
v -0.184576 0.167221 0.006000
v -0.182235 0.165749 0.006000
v -0.184576 0.167221 0.007500
v -0.179625 0.164836 0.006000
v -0.182235 0.165749 0.007500
v -0.179625 0.164836 0.007500
v -0.179482 0.169718 0.007500
v -0.176876 0.164526 0.006000
v -0.174128 0.164836 0.006000
v -0.176876 0.164526 0.007500
v -0.171518 0.165749 0.006000
v -0.174128 0.164836 0.007500
v -0.169176 0.167221 0.006000
v -0.171518 0.165749 0.007500
v -0.178199 0.169375 0.007500
v -0.175554 0.169375 0.007500
v -0.174271 0.169718 0.007500
v -0.169176 0.167221 0.007500
v -0.186532 0.169176 0.006000
v -0.186532 0.169176 0.007500
v -0.188003 0.171518 0.007500
v -0.188003 0.171518 0.006000
v -0.188917 0.174128 0.006000
v -0.189226 0.176876 0.006000
v -0.176876 0.176876 0.006000
v -0.188917 0.179625 0.006000
v -0.188917 0.174128 0.007500
v -0.189226 0.176876 0.007500
v -0.188917 0.179625 0.007500
v -0.183473 0.173068 0.007500
v -0.184035 0.174271 0.007500
v -0.184378 0.175554 0.007500
v -0.184378 0.178199 0.007500
v -0.184494 0.176876 0.007500
v -0.182712 0.171980 0.007500
v -0.180685 0.170279 0.007500
v -0.181773 0.171041 0.007500
v -0.188003 0.182235 0.007500
v -0.188003 0.182235 0.006000
v -0.186532 0.184576 0.007500
v -0.186532 0.184576 0.006000
v -0.184576 0.186532 0.007500
v -0.184576 0.186532 0.006000
v -0.182235 0.188003 0.006000
v -0.179625 0.188917 0.006000
v -0.182235 0.188003 0.007500
v -0.179625 0.188917 0.007500
v -0.184035 0.179482 0.007500
v -0.183473 0.180685 0.007500
v -0.182712 0.181773 0.007500
v -0.181773 0.182712 0.007500
v -0.180685 0.183473 0.007500
v -0.179482 0.184035 0.007500
v -0.178199 0.184378 0.007500
v -0.167221 0.169176 0.006000
v -0.165749 0.171518 0.006000
v -0.164836 0.174128 0.006000
v -0.164526 0.176876 0.006000
v -0.164836 0.179625 0.006000
v -0.176876 0.169259 0.007500
v -0.173068 0.170279 0.007500
v -0.167221 0.169176 0.007500
v -0.171980 0.171041 0.007500
v -0.171041 0.171980 0.007500
v -0.170279 0.173068 0.007500
v -0.165749 0.171518 0.007500
v -0.169718 0.174271 0.007500
v -0.164836 0.174128 0.007500
v -0.169375 0.175554 0.007500
v -0.164526 0.176876 0.007500
v -0.169259 0.176876 0.007500
v -0.169375 0.178199 0.007500
v -0.174128 0.188917 0.006000
v -0.171518 0.188003 0.006000
v -0.176876 0.189226 0.006000
v -0.176876 0.189226 0.007500
v -0.174128 0.188917 0.007500
v -0.167221 0.184576 0.006000
v -0.165749 0.182235 0.006000
v -0.169176 0.186532 0.006000
v -0.169176 0.186532 0.007500
v -0.171518 0.188003 0.007500
v -0.167221 0.184576 0.007500
v -0.176876 0.184494 0.007500
v -0.175554 0.184378 0.007500
v -0.174271 0.184035 0.007500
v -0.173068 0.183473 0.007500
v -0.171980 0.182712 0.007500
v -0.171041 0.181773 0.007500
v -0.165749 0.182235 0.007500
v -0.170279 0.180685 0.007500
v -0.169718 0.179482 0.007500
v -0.164836 0.179625 0.007500
v -0.186247 0.173466 0.010350
v -0.186697 0.175145 0.010350
v -0.186848 0.176876 0.010350
v -0.186697 0.178608 0.010350
v -0.184515 0.170467 0.010350
v -0.183286 0.169237 0.010350
v -0.181862 0.168240 0.010350
v -0.180287 0.167506 0.010350
v -0.185512 0.171890 0.010350
v -0.178608 0.167056 0.010350
v -0.186247 0.180287 0.010350
v -0.185512 0.181862 0.010350
v -0.184515 0.183286 0.010350
v -0.183286 0.184515 0.010350
v -0.181862 0.185512 0.010350
v -0.180287 0.186247 0.010350
v -0.178608 0.186697 0.010350
v -0.176876 0.166904 0.010350
v -0.175145 0.167056 0.010350
v -0.173466 0.167506 0.010350
v -0.171890 0.168240 0.010350
v -0.170467 0.169237 0.010350
v -0.169237 0.170467 0.010350
v -0.168240 0.171890 0.010350
v -0.167506 0.173466 0.010350
v -0.167056 0.175145 0.010350
v -0.166904 0.176876 0.010350
v -0.167056 0.178608 0.010350
v -0.173466 0.186247 0.010350
v -0.176876 0.186848 0.010350
v -0.175145 0.186697 0.010350
v -0.171890 0.185512 0.010350
v -0.170467 0.184515 0.010350
v -0.169237 0.183286 0.010350
v -0.167506 0.180287 0.010350
v -0.168240 0.181862 0.010350
v -0.181329 0.164643 0.013770
v -0.179137 0.164055 0.013770
v -0.176876 0.163857 0.013770
v -0.174616 0.164055 0.013770
v -0.172424 0.164643 0.013770
v -0.183386 0.165602 0.013770
v -0.170367 0.165602 0.013770
v -0.188151 0.170367 0.013770
v -0.186850 0.168508 0.013770
v -0.189698 0.174616 0.013770
v -0.189895 0.176876 0.013770
v -0.189110 0.172424 0.013770
v -0.185245 0.166903 0.013770
v -0.189698 0.179137 0.013770
v -0.189110 0.181329 0.013770
v -0.188151 0.183386 0.013770
v -0.186850 0.185245 0.013770
v -0.185245 0.186850 0.013770
v -0.183386 0.188151 0.013770
v -0.181329 0.189110 0.013770
v -0.168508 0.166903 0.013770
v -0.166903 0.168508 0.013770
v -0.165602 0.170367 0.013770
v -0.179137 0.189698 0.013770
v -0.176876 0.189895 0.013770
v -0.174616 0.189698 0.013770
v -0.165602 0.183386 0.013770
v -0.166903 0.185245 0.013770
v -0.172424 0.189110 0.013770
v -0.170367 0.188151 0.013770
v -0.168508 0.186850 0.013770
v -0.164643 0.172424 0.013770
v -0.164055 0.174616 0.013770
v -0.163857 0.176876 0.013770
v -0.164055 0.179137 0.013770
v -0.164643 0.181329 0.013770
v -0.183801 0.164882 0.023175
v -0.181613 0.163862 0.023175
v -0.179281 0.163237 0.023175
v -0.176876 0.163026 0.023175
v -0.174471 0.163237 0.023175
v -0.172139 0.163862 0.023175
v -0.169951 0.164882 0.023175
v -0.167974 0.166267 0.023175
v -0.188871 0.169951 0.023175
v -0.187486 0.167974 0.023175
v -0.185779 0.166267 0.023175
v -0.189891 0.172139 0.023175
v -0.190516 0.174471 0.023175
v -0.190726 0.176876 0.023175
v -0.190516 0.179281 0.023175
v -0.189891 0.181613 0.023175
v -0.188871 0.183801 0.023175
v -0.187486 0.185779 0.023175
v -0.185779 0.187486 0.023175
v -0.183801 0.188871 0.023175
v -0.181613 0.189891 0.023175
v -0.166267 0.167974 0.023175
v -0.179281 0.190516 0.023175
v -0.176876 0.190726 0.023175
v -0.174471 0.190516 0.023175
v -0.172139 0.189891 0.023175
v -0.167974 0.187486 0.023175
v -0.169951 0.188871 0.023175
v -0.164882 0.169951 0.023175
v -0.163862 0.172139 0.023175
v -0.163237 0.174471 0.023175
v -0.163026 0.176876 0.023175
v -0.163237 0.179281 0.023175
v -0.163862 0.181613 0.023175
v -0.164882 0.183801 0.023175
v -0.166267 0.185779 0.023175
v -0.183524 0.165362 0.030870
v -0.181424 0.164382 0.030870
v -0.179185 0.163782 0.030870
v -0.176876 0.163580 0.030870
v -0.174568 0.163782 0.030870
v -0.172329 0.164382 0.030870
v -0.170228 0.165362 0.030870
v -0.168330 0.166691 0.030870
v -0.185423 0.166691 0.030870
v -0.187062 0.168330 0.030870
v -0.188391 0.170228 0.030870
v -0.189371 0.172329 0.030870
v -0.189970 0.174568 0.030870
v -0.190172 0.176876 0.030870
v -0.189970 0.179185 0.030870
v -0.189371 0.181424 0.030870
v -0.188391 0.183524 0.030870
v -0.187062 0.185423 0.030870
v -0.185423 0.187062 0.030870
v -0.183524 0.188391 0.030870
v -0.181424 0.189371 0.030870
v -0.166691 0.168330 0.030870
v -0.179185 0.189970 0.030870
v -0.176876 0.190172 0.030870
v -0.174568 0.189970 0.030870
v -0.172329 0.189371 0.030870
v -0.168330 0.187062 0.030870
v -0.170228 0.188391 0.030870
v -0.166691 0.185423 0.030870
v -0.165362 0.170228 0.030870
v -0.164382 0.172329 0.030870
v -0.163782 0.174568 0.030870
v -0.163580 0.176876 0.030870
v -0.163782 0.179185 0.030870
v -0.165362 0.183524 0.030870
v -0.164382 0.181424 0.030870
v -0.182416 0.167281 0.034575
v -0.180666 0.166465 0.034575
v -0.178800 0.165965 0.034575
v -0.176876 0.165796 0.034575
v -0.174952 0.165965 0.034575
v -0.173087 0.166465 0.034575
v -0.171336 0.167281 0.034575
v -0.169754 0.168389 0.034575
v -0.186472 0.171336 0.034575
v -0.185364 0.169754 0.034575
v -0.183998 0.168389 0.034575
v -0.187788 0.174952 0.034575
v -0.187288 0.173087 0.034575
v -0.187956 0.176876 0.034575
v -0.187788 0.178800 0.034575
v -0.187288 0.180666 0.034575
v -0.186472 0.182416 0.034575
v -0.185364 0.183998 0.034575
v -0.183998 0.185364 0.034575
v -0.182416 0.186472 0.034575
v -0.180666 0.187288 0.034575
v -0.168389 0.169754 0.034575
v -0.178800 0.187788 0.034575
v -0.176876 0.187956 0.034575
v -0.174952 0.187788 0.034575
v -0.171336 0.186472 0.034575
v -0.173087 0.187288 0.034575
v -0.169754 0.185364 0.034575
v -0.167281 0.171336 0.034575
v -0.166465 0.173087 0.034575
v -0.165965 0.174952 0.034575
v -0.165796 0.176876 0.034575
v -0.165965 0.178800 0.034575
v -0.166465 0.180666 0.034575
v -0.167281 0.182416 0.034575
v -0.168389 0.183998 0.034575
v -0.181914 0.173968 0.036000
v -0.182343 0.174887 0.036000
v -0.182605 0.175866 0.036000
v -0.182693 0.176876 0.036000
v -0.179785 0.171839 0.036000
v -0.180615 0.172420 0.036000
v -0.181332 0.173137 0.036000
v -0.178866 0.171410 0.036000
v -0.177887 0.171148 0.036000
v -0.182605 0.177887 0.036000
v -0.176876 0.176876 0.036000
v -0.182343 0.178866 0.036000
v -0.181914 0.179785 0.036000
v -0.181332 0.180615 0.036000
v -0.180615 0.181332 0.036000
v -0.179785 0.181914 0.036000
v -0.178866 0.182343 0.036000
v -0.176876 0.171059 0.036000
v -0.175866 0.171148 0.036000
v -0.174887 0.171410 0.036000
v -0.173968 0.171839 0.036000
v -0.173137 0.172420 0.036000
v -0.172420 0.173137 0.036000
v -0.171839 0.173968 0.036000
v -0.171410 0.174887 0.036000
v -0.171148 0.175866 0.036000
v -0.171059 0.176876 0.036000
v -0.171148 0.177887 0.036000
v -0.171410 0.178866 0.036000
v -0.171839 0.179785 0.036000
v -0.177887 0.182605 0.036000
v -0.176876 0.182693 0.036000
v -0.175866 0.182605 0.036000
v -0.174887 0.182343 0.036000
v -0.173968 0.181914 0.036000
v -0.173137 0.181332 0.036000
v -0.172420 0.180615 0.036000
v -0.186532 -0.184576 0.006000
v -0.184576 -0.186532 0.006000
v -0.186532 -0.184576 0.007500
v -0.188003 -0.182235 0.006000
v -0.188917 -0.179625 0.007500
v -0.188917 -0.179625 0.006000
v -0.188003 -0.182235 0.007500
v -0.182235 -0.188003 0.006000
v -0.184576 -0.186532 0.007500
v -0.179625 -0.188917 0.006000
v -0.182235 -0.188003 0.007500
v -0.176876 -0.176876 0.006000
v -0.183473 -0.180685 0.007500
v -0.184035 -0.179482 0.007500
v -0.184378 -0.178199 0.007500
v -0.179625 -0.188917 0.007500
v -0.180685 -0.183473 0.007500
v -0.179482 -0.184035 0.007500
v -0.178199 -0.184378 0.007500
v -0.182712 -0.181773 0.007500
v -0.181773 -0.182712 0.007500
v -0.189226 -0.176876 0.006000
v -0.188917 -0.174128 0.006000
v -0.189226 -0.176876 0.007500
v -0.188917 -0.174128 0.007500
v -0.188003 -0.171518 0.007500
v -0.188003 -0.171518 0.006000
v -0.186532 -0.169176 0.007500
v -0.186532 -0.169176 0.006000
v -0.184576 -0.167221 0.007500
v -0.184576 -0.167221 0.006000
v -0.182235 -0.165749 0.006000
v -0.179625 -0.164836 0.006000
v -0.184494 -0.176876 0.007500
v -0.184378 -0.175554 0.007500
v -0.184035 -0.174271 0.007500
v -0.183473 -0.173068 0.007500
v -0.182712 -0.171980 0.007500
v -0.181773 -0.171041 0.007500
v -0.180685 -0.170279 0.007500
v -0.182235 -0.165749 0.007500
v -0.179482 -0.169718 0.007500
v -0.179625 -0.164836 0.007500
v -0.178199 -0.169375 0.007500
v -0.176876 -0.189226 0.006000
v -0.174128 -0.188917 0.006000
v -0.176876 -0.189226 0.007500
v -0.171518 -0.188003 0.006000
v -0.174128 -0.188917 0.007500
v -0.169176 -0.186532 0.006000
v -0.171518 -0.188003 0.007500
v -0.167221 -0.184576 0.006000
v -0.169176 -0.186532 0.007500
v -0.165749 -0.182235 0.006000
v -0.164836 -0.179625 0.006000
v -0.176876 -0.184494 0.007500
v -0.175554 -0.184378 0.007500
v -0.174271 -0.184035 0.007500
v -0.173068 -0.183473 0.007500
v -0.167221 -0.184576 0.007500
v -0.171980 -0.182712 0.007500
v -0.171041 -0.181773 0.007500
v -0.170279 -0.180685 0.007500
v -0.165749 -0.182235 0.007500
v -0.169718 -0.179482 0.007500
v -0.164836 -0.179625 0.007500
v -0.169375 -0.178199 0.007500
v -0.176876 -0.164526 0.006000
v -0.174128 -0.164836 0.006000
v -0.171518 -0.165749 0.006000
v -0.164526 -0.176876 0.006000
v -0.164836 -0.174128 0.006000
v -0.165749 -0.171518 0.006000
v -0.169176 -0.167221 0.006000
v -0.167221 -0.169176 0.006000
v -0.167221 -0.169176 0.007500
v -0.176876 -0.164526 0.007500
v -0.176876 -0.169259 0.007500
v -0.175554 -0.169375 0.007500
v -0.174128 -0.164836 0.007500
v -0.174271 -0.169718 0.007500
v -0.171518 -0.165749 0.007500
v -0.173068 -0.170279 0.007500
v -0.164526 -0.176876 0.007500
v -0.169259 -0.176876 0.007500
v -0.169375 -0.175554 0.007500
v -0.165749 -0.171518 0.007500
v -0.170279 -0.173068 0.007500
v -0.169718 -0.174271 0.007500
v -0.164836 -0.174128 0.007500
v -0.169176 -0.167221 0.007500
v -0.171980 -0.171041 0.007500
v -0.171041 -0.171980 0.007500
v -0.186247 -0.180287 0.010350
v -0.184515 -0.183286 0.010350
v -0.183286 -0.184515 0.010350
v -0.185512 -0.181862 0.010350
v -0.181862 -0.185512 0.010350
v -0.180287 -0.186247 0.010350
v -0.186697 -0.178608 0.010350
v -0.178608 -0.186697 0.010350
v -0.186848 -0.176876 0.010350
v -0.186697 -0.175145 0.010350
v -0.186247 -0.173466 0.010350
v -0.185512 -0.171890 0.010350
v -0.184515 -0.170467 0.010350
v -0.183286 -0.169237 0.010350
v -0.181862 -0.168240 0.010350
v -0.180287 -0.167506 0.010350
v -0.178608 -0.167056 0.010350
v -0.176876 -0.186848 0.010350
v -0.175145 -0.186697 0.010350
v -0.173466 -0.186247 0.010350
v -0.171890 -0.185512 0.010350
v -0.170467 -0.184515 0.010350
v -0.169237 -0.183286 0.010350
v -0.168240 -0.181862 0.010350
v -0.167506 -0.180287 0.010350
v -0.167056 -0.178608 0.010350
v -0.176876 -0.166904 0.010350
v -0.175145 -0.167056 0.010350
v -0.173466 -0.167506 0.010350
v -0.166904 -0.176876 0.010350
v -0.167056 -0.175145 0.010350
v -0.167506 -0.173466 0.010350
v -0.168240 -0.171890 0.010350
v -0.169237 -0.170467 0.010350
v -0.170467 -0.169237 0.010350
v -0.171890 -0.168240 0.010350
v -0.188151 -0.183386 0.013770
v -0.186850 -0.185245 0.013770
v -0.189110 -0.181329 0.013770
v -0.185245 -0.186850 0.013770
v -0.183386 -0.188151 0.013770
v -0.181329 -0.189110 0.013770
v -0.179137 -0.189698 0.013770
v -0.189698 -0.179137 0.013770
v -0.189895 -0.176876 0.013770
v -0.189698 -0.174616 0.013770
v -0.189110 -0.172424 0.013770
v -0.188151 -0.170367 0.013770
v -0.186850 -0.168508 0.013770
v -0.185245 -0.166903 0.013770
v -0.183386 -0.165602 0.013770
v -0.176876 -0.189895 0.013770
v -0.174616 -0.189698 0.013770
v -0.172424 -0.189110 0.013770
v -0.170367 -0.188151 0.013770
v -0.168508 -0.186850 0.013770
v -0.166903 -0.185245 0.013770
v -0.165602 -0.183386 0.013770
v -0.170367 -0.165602 0.013770
v -0.165602 -0.170367 0.013770
v -0.166903 -0.168508 0.013770
v -0.168508 -0.166903 0.013770
v -0.181329 -0.164643 0.013770
v -0.179137 -0.164055 0.013770
v -0.176876 -0.163857 0.013770
v -0.174616 -0.164055 0.013770
v -0.172424 -0.164643 0.013770
v -0.164643 -0.181329 0.013770
v -0.164055 -0.179137 0.013770
v -0.163857 -0.176876 0.013770
v -0.164055 -0.174616 0.013770
v -0.164643 -0.172424 0.013770
v -0.187486 -0.185779 0.023175
v -0.185779 -0.187486 0.023175
v -0.188871 -0.183801 0.023175
v -0.189891 -0.181613 0.023175
v -0.183801 -0.188871 0.023175
v -0.181613 -0.189891 0.023175
v -0.179281 -0.190516 0.023175
v -0.190516 -0.179281 0.023175
v -0.190726 -0.176876 0.023175
v -0.190516 -0.174471 0.023175
v -0.189891 -0.172139 0.023175
v -0.188871 -0.169951 0.023175
v -0.187486 -0.167974 0.023175
v -0.176876 -0.190726 0.023175
v -0.174471 -0.190516 0.023175
v -0.172139 -0.189891 0.023175
v -0.169951 -0.188871 0.023175
v -0.167974 -0.187486 0.023175
v -0.166267 -0.185779 0.023175
v -0.167974 -0.166267 0.023175
v -0.185779 -0.166267 0.023175
v -0.183801 -0.164882 0.023175
v -0.181613 -0.163862 0.023175
v -0.179281 -0.163237 0.023175
v -0.176876 -0.163026 0.023175
v -0.174471 -0.163237 0.023175
v -0.172139 -0.163862 0.023175
v -0.169951 -0.164882 0.023175
v -0.164882 -0.183801 0.023175
v -0.163862 -0.181613 0.023175
v -0.163237 -0.179281 0.023175
v -0.163862 -0.172139 0.023175
v -0.163026 -0.176876 0.023175
v -0.163237 -0.174471 0.023175
v -0.164882 -0.169951 0.023175
v -0.166267 -0.167974 0.023175
v -0.187062 -0.185423 0.030870
v -0.185423 -0.187062 0.030870
v -0.188391 -0.183524 0.030870
v -0.189371 -0.181424 0.030870
v -0.183524 -0.188391 0.030870
v -0.181424 -0.189371 0.030870
v -0.179185 -0.189970 0.030870
v -0.189970 -0.179185 0.030870
v -0.190172 -0.176876 0.030870
v -0.189970 -0.174568 0.030870
v -0.189371 -0.172329 0.030870
v -0.188391 -0.170228 0.030870
v -0.187062 -0.168330 0.030870
v -0.176876 -0.190172 0.030870
v -0.174568 -0.189970 0.030870
v -0.172329 -0.189371 0.030870
v -0.170228 -0.188391 0.030870
v -0.168330 -0.187062 0.030870
v -0.166691 -0.185423 0.030870
v -0.168330 -0.166691 0.030870
v -0.185423 -0.166691 0.030870
v -0.166691 -0.168330 0.030870
v -0.183524 -0.165362 0.030870
v -0.181424 -0.164382 0.030870
v -0.179185 -0.163782 0.030870
v -0.176876 -0.163580 0.030870
v -0.174568 -0.163782 0.030870
v -0.172329 -0.164382 0.030870
v -0.170228 -0.165362 0.030870
v -0.165362 -0.183524 0.030870
v -0.164382 -0.181424 0.030870
v -0.163782 -0.179185 0.030870
v -0.163580 -0.176876 0.030870
v -0.163782 -0.174568 0.030870
v -0.164382 -0.172329 0.030870
v -0.165362 -0.170228 0.030870
v -0.183998 -0.185364 0.034575
v -0.186472 -0.182416 0.034575
v -0.187288 -0.180666 0.034575
v -0.185364 -0.183998 0.034575
v -0.180666 -0.187288 0.034575
v -0.182416 -0.186472 0.034575
v -0.178800 -0.187788 0.034575
v -0.187788 -0.178800 0.034575
v -0.187956 -0.176876 0.034575
v -0.187788 -0.174952 0.034575
v -0.187288 -0.173087 0.034575
v -0.186472 -0.171336 0.034575
v -0.185364 -0.169754 0.034575
v -0.176876 -0.187956 0.034575
v -0.174952 -0.187788 0.034575
v -0.173087 -0.187288 0.034575
v -0.171336 -0.186472 0.034575
v -0.169754 -0.185364 0.034575
v -0.168389 -0.183998 0.034575
v -0.169754 -0.168389 0.034575
v -0.183998 -0.168389 0.034575
v -0.182416 -0.167281 0.034575
v -0.180666 -0.166465 0.034575
v -0.178800 -0.165965 0.034575
v -0.176876 -0.165796 0.034575
v -0.174952 -0.165965 0.034575
v -0.173087 -0.166465 0.034575
v -0.171336 -0.167281 0.034575
v -0.167281 -0.182416 0.034575
v -0.166465 -0.180666 0.034575
v -0.165965 -0.178800 0.034575
v -0.165796 -0.176876 0.034575
v -0.165965 -0.174952 0.034575
v -0.166465 -0.173087 0.034575
v -0.167281 -0.171336 0.034575
v -0.168389 -0.169754 0.034575
v -0.181914 -0.179785 0.036000
v -0.182343 -0.178866 0.036000
v -0.178866 -0.182343 0.036000
v -0.177887 -0.182605 0.036000
v -0.180615 -0.181332 0.036000
v -0.181332 -0.180615 0.036000
v -0.179785 -0.181914 0.036000
v -0.176876 -0.176876 0.036000
v -0.182605 -0.177887 0.036000
v -0.182693 -0.176876 0.036000
v -0.182605 -0.175866 0.036000
v -0.182343 -0.174887 0.036000
v -0.181914 -0.173968 0.036000
v -0.181332 -0.173137 0.036000
v -0.180615 -0.172420 0.036000
v -0.179785 -0.171839 0.036000
v -0.178866 -0.171410 0.036000
v -0.176876 -0.182693 0.036000
v -0.175866 -0.182605 0.036000
v -0.174887 -0.182343 0.036000
v -0.173968 -0.181914 0.036000
v -0.173137 -0.181332 0.036000
v -0.172420 -0.180615 0.036000
v -0.171839 -0.179785 0.036000
v -0.171410 -0.178866 0.036000
v -0.171148 -0.177887 0.036000
v -0.177887 -0.171148 0.036000
v -0.176876 -0.171059 0.036000
v -0.175866 -0.171148 0.036000
v -0.174887 -0.171410 0.036000
v -0.171059 -0.176876 0.036000
v -0.171148 -0.175866 0.036000
v -0.171410 -0.174887 0.036000
v -0.173137 -0.172420 0.036000
v -0.173968 -0.171839 0.036000
v -0.172420 -0.173137 0.036000
v -0.171839 -0.173968 0.036000
v 0.167221 -0.184576 0.006000
v 0.165749 -0.182235 0.007500
v 0.165749 -0.182235 0.006000
v 0.164836 -0.179625 0.006000
v 0.164836 -0.179625 0.007500
v 0.167221 -0.184576 0.007500
v 0.169718 -0.179482 0.007500
v 0.164526 -0.176876 0.007500
v 0.164526 -0.176876 0.006000
v 0.164836 -0.174128 0.007500
v 0.164836 -0.174128 0.006000
v 0.165749 -0.171518 0.007500
v 0.165749 -0.171518 0.006000
v 0.167221 -0.169176 0.007500
v 0.167221 -0.169176 0.006000
v 0.169375 -0.178199 0.007500
v 0.169375 -0.175554 0.007500
v 0.169718 -0.174271 0.007500
v 0.169176 -0.186532 0.006000
v 0.171518 -0.188003 0.006000
v 0.174128 -0.188917 0.006000
v 0.171518 -0.188003 0.007500
v 0.169176 -0.186532 0.007500
v 0.176876 -0.176876 0.006000
v 0.176876 -0.189226 0.006000
v 0.179625 -0.188917 0.006000
v 0.174128 -0.188917 0.007500
v 0.176876 -0.189226 0.007500
v 0.173068 -0.183473 0.007500
v 0.170279 -0.180685 0.007500
v 0.171041 -0.181773 0.007500
v 0.171980 -0.182712 0.007500
v 0.179625 -0.188917 0.007500
v 0.174271 -0.184035 0.007500
v 0.175554 -0.184378 0.007500
v 0.176876 -0.184494 0.007500
v 0.178199 -0.184378 0.007500
v 0.169176 -0.167221 0.006000
v 0.171518 -0.165749 0.006000
v 0.169176 -0.167221 0.007500
v 0.174128 -0.164836 0.006000
v 0.176876 -0.164526 0.006000
v 0.179625 -0.164836 0.006000
v 0.169259 -0.176876 0.007500
v 0.170279 -0.173068 0.007500
v 0.171041 -0.171980 0.007500
v 0.171980 -0.171041 0.007500
v 0.173068 -0.170279 0.007500
v 0.171518 -0.165749 0.007500
v 0.174271 -0.169718 0.007500
v 0.174128 -0.164836 0.007500
v 0.175554 -0.169375 0.007500
v 0.176876 -0.164526 0.007500
v 0.176876 -0.169259 0.007500
v 0.178199 -0.169375 0.007500
v 0.182235 -0.188003 0.006000
v 0.184576 -0.186532 0.006000
v 0.182235 -0.188003 0.007500
v 0.186532 -0.184576 0.006000
v 0.188003 -0.182235 0.006000
v 0.188917 -0.179625 0.006000
v 0.184576 -0.186532 0.007500
v 0.186532 -0.184576 0.007500
v 0.188003 -0.182235 0.007500
v 0.179482 -0.184035 0.007500
v 0.180685 -0.183473 0.007500
v 0.181773 -0.182712 0.007500
v 0.182712 -0.181773 0.007500
v 0.183473 -0.180685 0.007500
v 0.188917 -0.179625 0.007500
v 0.184035 -0.179482 0.007500
v 0.184378 -0.178199 0.007500
v 0.188003 -0.171518 0.006000
v 0.188917 -0.174128 0.006000
v 0.182235 -0.165749 0.006000
v 0.184576 -0.167221 0.006000
v 0.186532 -0.169176 0.006000
v 0.189226 -0.176876 0.006000
v 0.189226 -0.176876 0.007500
v 0.188917 -0.174128 0.007500
v 0.188003 -0.171518 0.007500
v 0.186532 -0.169176 0.007500
v 0.179625 -0.164836 0.007500
v 0.179482 -0.169718 0.007500
v 0.182235 -0.165749 0.007500
v 0.180685 -0.170279 0.007500
v 0.184576 -0.167221 0.007500
v 0.181773 -0.171041 0.007500
v 0.182712 -0.171980 0.007500
v 0.183473 -0.173068 0.007500
v 0.184494 -0.176876 0.007500
v 0.184378 -0.175554 0.007500
v 0.184035 -0.174271 0.007500
v 0.168240 -0.181862 0.010350
v 0.167506 -0.180287 0.010350
v 0.169237 -0.183286 0.010350
v 0.170467 -0.184515 0.010350
v 0.171890 -0.185512 0.010350
v 0.175145 -0.186697 0.010350
v 0.176876 -0.186848 0.010350
v 0.178608 -0.186697 0.010350
v 0.173466 -0.186247 0.010350
v 0.167056 -0.178608 0.010350
v 0.166904 -0.176876 0.010350
v 0.167056 -0.175145 0.010350
v 0.167506 -0.173466 0.010350
v 0.168240 -0.171890 0.010350
v 0.169237 -0.170467 0.010350
v 0.170467 -0.169237 0.010350
v 0.171890 -0.168240 0.010350
v 0.173466 -0.167506 0.010350
v 0.175145 -0.167056 0.010350
v 0.176876 -0.166904 0.010350
v 0.178608 -0.167056 0.010350
v 0.180287 -0.186247 0.010350
v 0.181862 -0.185512 0.010350
v 0.183286 -0.184515 0.010350
v 0.184515 -0.183286 0.010350
v 0.185512 -0.181862 0.010350
v 0.186247 -0.180287 0.010350
v 0.186697 -0.178608 0.010350
v 0.185512 -0.171890 0.010350
v 0.180287 -0.167506 0.010350
v 0.181862 -0.168240 0.010350
v 0.183286 -0.169237 0.010350
v 0.184515 -0.170467 0.010350
v 0.186848 -0.176876 0.010350
v 0.186697 -0.175145 0.010350
v 0.186247 -0.173466 0.010350
v 0.164643 -0.181329 0.013770
v 0.164055 -0.179137 0.013770
v 0.163857 -0.176876 0.013770
v 0.164055 -0.174616 0.013770
v 0.164643 -0.172424 0.013770
v 0.165602 -0.183386 0.013770
v 0.165602 -0.170367 0.013770
v 0.168508 -0.186850 0.013770
v 0.170367 -0.188151 0.013770
v 0.172424 -0.189110 0.013770
v 0.166903 -0.185245 0.013770
v 0.174616 -0.189698 0.013770
v 0.176876 -0.189895 0.013770
v 0.179137 -0.189698 0.013770
v 0.166903 -0.168508 0.013770
v 0.168508 -0.166903 0.013770
v 0.170367 -0.165602 0.013770
v 0.181329 -0.189110 0.013770
v 0.183386 -0.188151 0.013770
v 0.185245 -0.186850 0.013770
v 0.186850 -0.185245 0.013770
v 0.188151 -0.183386 0.013770
v 0.189110 -0.181329 0.013770
v 0.189698 -0.179137 0.013770
v 0.183386 -0.165602 0.013770
v 0.185245 -0.166903 0.013770
v 0.189110 -0.172424 0.013770
v 0.189895 -0.176876 0.013770
v 0.189698 -0.174616 0.013770
v 0.186850 -0.168508 0.013770
v 0.188151 -0.170367 0.013770
v 0.172424 -0.164643 0.013770
v 0.174616 -0.164055 0.013770
v 0.176876 -0.163857 0.013770
v 0.179137 -0.164055 0.013770
v 0.181329 -0.164643 0.013770
v 0.166267 -0.185779 0.023175
v 0.164882 -0.183801 0.023175
v 0.163862 -0.181613 0.023175
v 0.163237 -0.179281 0.023175
v 0.163026 -0.176876 0.023175
v 0.163237 -0.174471 0.023175
v 0.163862 -0.172139 0.023175
v 0.164882 -0.169951 0.023175
v 0.169951 -0.188871 0.023175
v 0.167974 -0.187486 0.023175
v 0.172139 -0.189891 0.023175
v 0.174471 -0.190516 0.023175
v 0.176876 -0.190726 0.023175
v 0.179281 -0.190516 0.023175
v 0.166267 -0.167974 0.023175
v 0.181613 -0.189891 0.023175
v 0.183801 -0.188871 0.023175
v 0.185779 -0.187486 0.023175
v 0.187486 -0.185779 0.023175
v 0.188871 -0.183801 0.023175
v 0.189891 -0.181613 0.023175
v 0.190516 -0.179281 0.023175
v 0.190726 -0.176876 0.023175
v 0.190516 -0.174471 0.023175
v 0.189891 -0.172139 0.023175
v 0.185779 -0.166267 0.023175
v 0.187486 -0.167974 0.023175
v 0.188871 -0.169951 0.023175
v 0.167974 -0.166267 0.023175
v 0.169951 -0.164882 0.023175
v 0.172139 -0.163862 0.023175
v 0.174471 -0.163237 0.023175
v 0.176876 -0.163026 0.023175
v 0.179281 -0.163237 0.023175
v 0.181613 -0.163862 0.023175
v 0.183801 -0.164882 0.023175
v 0.166691 -0.185423 0.030870
v 0.164382 -0.181424 0.030870
v 0.165362 -0.183524 0.030870
v 0.163782 -0.179185 0.030870
v 0.163580 -0.176876 0.030870
v 0.163782 -0.174568 0.030870
v 0.164382 -0.172329 0.030870
v 0.165362 -0.170228 0.030870
v 0.166691 -0.168330 0.030870
v 0.170228 -0.188391 0.030870
v 0.168330 -0.187062 0.030870
v 0.172329 -0.189371 0.030870
v 0.174568 -0.189970 0.030870
v 0.176876 -0.190172 0.030870
v 0.179185 -0.189970 0.030870
v 0.181424 -0.189371 0.030870
v 0.183524 -0.188391 0.030870
v 0.185423 -0.187062 0.030870
v 0.187062 -0.185423 0.030870
v 0.188391 -0.183524 0.030870
v 0.189371 -0.181424 0.030870
v 0.189970 -0.179185 0.030870
v 0.190172 -0.176876 0.030870
v 0.189970 -0.174568 0.030870
v 0.189371 -0.172329 0.030870
v 0.185423 -0.166691 0.030870
v 0.188391 -0.170228 0.030870
v 0.187062 -0.168330 0.030870
v 0.168330 -0.166691 0.030870
v 0.170228 -0.165362 0.030870
v 0.172329 -0.164382 0.030870
v 0.174568 -0.163782 0.030870
v 0.176876 -0.163580 0.030870
v 0.179185 -0.163782 0.030870
v 0.181424 -0.164382 0.030870
v 0.183524 -0.165362 0.030870
v 0.168389 -0.183998 0.034575
v 0.167281 -0.182416 0.034575
v 0.166465 -0.180666 0.034575
v 0.165965 -0.178800 0.034575
v 0.165796 -0.176876 0.034575
v 0.165965 -0.174952 0.034575
v 0.166465 -0.173087 0.034575
v 0.167281 -0.171336 0.034575
v 0.169754 -0.185364 0.034575
v 0.173087 -0.187288 0.034575
v 0.171336 -0.186472 0.034575
v 0.174952 -0.187788 0.034575
v 0.176876 -0.187956 0.034575
v 0.178800 -0.187788 0.034575
v 0.168389 -0.169754 0.034575
v 0.180666 -0.187288 0.034575
v 0.182416 -0.186472 0.034575
v 0.183998 -0.185364 0.034575
v 0.185364 -0.183998 0.034575
v 0.186472 -0.182416 0.034575
v 0.187288 -0.180666 0.034575
v 0.187788 -0.178800 0.034575
v 0.187956 -0.176876 0.034575
v 0.187288 -0.173087 0.034575
v 0.187788 -0.174952 0.034575
v 0.183998 -0.168389 0.034575
v 0.185364 -0.169754 0.034575
v 0.186472 -0.171336 0.034575
v 0.169754 -0.168389 0.034575
v 0.171336 -0.167281 0.034575
v 0.173087 -0.166465 0.034575
v 0.174952 -0.165965 0.034575
v 0.176876 -0.165796 0.034575
v 0.178800 -0.165965 0.034575
v 0.180666 -0.166465 0.034575
v 0.182416 -0.167281 0.034575
v 0.172420 -0.180615 0.036000
v 0.171410 -0.178866 0.036000
v 0.171839 -0.179785 0.036000
v 0.173137 -0.181332 0.036000
v 0.173968 -0.181914 0.036000
v 0.174887 -0.182343 0.036000
v 0.175866 -0.182605 0.036000
v 0.176876 -0.182693 0.036000
v 0.177887 -0.182605 0.036000
v 0.178866 -0.182343 0.036000
v 0.176876 -0.176876 0.036000
v 0.179785 -0.181914 0.036000
v 0.171148 -0.177887 0.036000
v 0.171059 -0.176876 0.036000
v 0.171148 -0.175866 0.036000
v 0.171410 -0.174887 0.036000
v 0.171839 -0.173968 0.036000
v 0.172420 -0.173137 0.036000
v 0.173137 -0.172420 0.036000
v 0.173968 -0.171839 0.036000
v 0.174887 -0.171410 0.036000
v 0.175866 -0.171148 0.036000
v 0.176876 -0.171059 0.036000
v 0.177887 -0.171148 0.036000
v 0.178866 -0.171410 0.036000
v 0.179785 -0.171839 0.036000
v 0.180615 -0.181332 0.036000
v 0.181332 -0.180615 0.036000
v 0.181914 -0.179785 0.036000
v 0.182343 -0.178866 0.036000
v 0.182605 -0.177887 0.036000
v 0.181332 -0.173137 0.036000
v 0.180615 -0.172420 0.036000
v 0.182693 -0.176876 0.036000
v 0.182605 -0.175866 0.036000
v 0.182343 -0.174887 0.036000
v 0.181914 -0.173968 0.036000
f 1 2 3
f 4 3 5
f 4 6 7
f 7 8 9
f 1 10 2
f 3 2 5
f 4 5 6
f 7 6 8
f 5 2 11
f 5 12 6
f 6 13 8
f 9 14 15
f 15 16 17
f 9 8 14
f 15 14 16
f 8 18 14
f 19 20 21
f 22 23 20
f 22 24 25
f 24 26 27
f 20 23 21
f 22 25 23
f 24 27 25
f 26 28 27
f 25 29 23
f 25 27 30
f 27 28 31
f 26 32 28
f 32 33 34
f 32 34 28
f 33 35 34
f 28 34 36
f 1 37 19
f 1 3 37
f 19 37 20
f 1 19 10
f 4 37 3
f 4 7 37
f 7 9 37
f 22 20 37
f 22 37 24
f 24 37 26
f 19 21 10
f 10 21 38
f 10 39 2
f 10 38 39
f 21 23 40
f 21 40 41
f 21 41 38
f 5 11 12
f 2 39 11
f 6 12 42
f 6 42 13
f 23 29 40
f 25 30 29
f 27 43 30
f 27 31 43
f 9 15 37
f 37 15 17
f 37 17 44
f 37 44 45
f 17 46 44
f 44 47 45
f 37 45 48
f 37 48 49
f 37 49 50
f 45 51 48
f 48 52 49
f 49 53 50
f 8 13 18
f 14 18 54
f 14 54 16
f 16 54 55
f 16 56 46
f 16 55 56
f 46 56 57
f 17 16 46
f 44 46 47
f 45 47 51
f 46 57 47
f 48 51 52
f 49 52 53
f 47 57 58
f 47 58 51
f 51 58 59
f 51 59 52
f 52 59 60
f 52 60 61
f 52 61 53
f 26 37 32
f 37 33 32
f 37 62 33
f 37 63 62
f 37 64 63
f 33 62 35
f 62 63 65
f 63 64 66
f 37 67 64
f 37 68 67
f 64 67 69
f 67 68 70
f 28 36 31
f 34 71 36
f 34 35 71
f 35 72 71
f 35 65 72
f 65 73 72
f 65 74 73
f 62 65 35
f 63 66 65
f 65 66 74
f 64 69 66
f 67 70 69
f 68 75 70
f 66 76 74
f 69 77 76
f 66 69 76
f 69 70 77
f 70 78 77
f 70 79 78
f 70 75 79
f 37 50 80
f 37 80 81
f 37 82 68
f 37 83 82
f 37 81 83
f 50 84 80
f 80 85 81
f 82 83 86
f 68 82 75
f 81 87 83
f 85 88 89
f 85 89 90
f 87 90 91
f 85 90 87
f 50 53 84
f 80 84 85
f 53 61 92
f 84 92 88
f 53 92 84
f 84 88 85
f 83 87 86
f 82 86 75
f 75 93 79
f 86 91 93
f 75 86 93
f 86 87 91
f 81 85 87
f 94 41 40
f 95 38 41
f 96 39 38
f 97 11 39
f 98 12 11
f 99 42 12
f 100 13 42
f 101 18 13
f 102 40 29
f 103 29 30
f 104 30 43
f 105 43 31
f 97 39 96
f 95 41 94
f 94 40 102
f 96 38 95
f 98 99 12
f 97 98 11
f 99 100 42
f 100 101 13
f 102 29 103
f 103 30 104
f 104 43 105
f 106 54 18
f 107 55 54
f 108 56 55
f 109 57 56
f 110 58 57
f 111 59 58
f 112 60 59
f 113 61 60
f 114 92 61
f 101 106 18
f 106 107 54
f 107 108 55
f 108 109 56
f 109 110 57
f 110 111 58
f 111 112 59
f 112 113 60
f 113 114 61
f 115 31 36
f 116 36 71
f 117 71 72
f 118 72 73
f 119 73 74
f 120 74 76
f 121 76 77
f 122 77 78
f 123 78 79
f 105 31 115
f 115 36 116
f 116 71 117
f 117 72 118
f 118 73 119
f 119 74 120
f 120 76 121
f 121 77 122
f 122 78 123
f 124 88 92
f 125 89 88
f 126 93 91
f 127 90 89
f 128 91 90
f 129 79 93
f 127 89 125
f 127 128 90
f 128 126 91
f 114 124 92
f 124 125 88
f 123 79 129
f 129 93 126
f 98 130 99
f 99 131 100
f 100 132 101
f 101 133 106
f 106 134 107
f 98 135 130
f 99 130 131
f 100 131 132
f 101 132 133
f 106 133 134
f 107 134 136
f 94 102 137
f 102 103 138
f 103 104 139
f 104 105 140
f 105 115 141
f 94 137 142
f 102 138 137
f 103 139 138
f 104 140 139
f 105 141 140
f 115 143 141
f 96 95 144
f 97 96 145
f 97 135 98
f 95 94 142
f 107 136 108
f 108 146 109
f 109 147 110
f 110 148 111
f 111 149 112
f 112 150 113
f 113 151 114
f 115 116 143
f 116 117 152
f 117 118 153
f 118 119 154
f 119 120 155
f 120 121 156
f 121 122 157
f 122 123 158
f 114 159 124
f 124 160 125
f 127 125 161
f 127 162 128
f 123 129 163
f 128 164 126
f 129 126 165
f 96 144 145
f 95 142 144
f 97 145 135
f 108 136 146
f 109 146 147
f 110 147 148
f 111 148 149
f 112 149 150
f 113 150 151
f 114 151 159
f 116 152 143
f 117 153 152
f 118 154 153
f 119 155 154
f 120 156 155
f 121 157 156
f 122 158 157
f 124 159 160
f 125 160 161
f 127 161 162
f 126 164 165
f 123 163 158
f 129 165 163
f 128 162 164
f 135 145 166
f 130 135 167
f 132 131 168
f 132 169 133
f 130 170 131
f 133 171 134
f 134 172 136
f 136 173 146
f 142 174 144
f 142 137 175
f 137 138 176
f 138 139 177
f 139 140 178
f 140 141 179
f 141 143 180
f 143 152 181
f 145 144 182
f 146 183 147
f 147 184 148
f 148 185 149
f 149 186 150
f 150 187 151
f 151 188 159
f 152 153 189
f 153 154 190
f 154 155 191
f 155 156 192
f 156 157 193
f 157 158 194
f 159 195 160
f 160 196 161
f 161 197 162
f 163 198 158
f 163 165 199
f 162 200 164
f 165 164 201
f 135 166 167
f 130 167 170
f 131 170 168
f 132 168 169
f 133 169 171
f 134 171 172
f 136 172 173
f 146 173 183
f 144 174 182
f 142 175 174
f 138 177 176
f 137 176 175
f 139 178 177
f 140 179 178
f 141 180 179
f 143 181 180
f 145 182 166
f 147 183 184
f 148 184 185
f 149 185 186
f 150 186 187
f 151 187 188
f 159 188 195
f 152 189 181
f 153 190 189
f 154 191 190
f 155 192 191
f 156 193 192
f 157 194 193
f 160 195 196
f 161 196 197
f 158 198 194
f 165 201 199
f 163 199 198
f 162 197 200
f 164 200 201
f 166 202 167
f 170 167 203
f 170 204 168
f 168 205 169
f 169 206 171
f 171 207 172
f 172 208 173
f 173 209 183
f 167 202 203
f 170 203 204
f 168 204 205
f 169 205 206
f 171 206 207
f 172 207 208
f 173 208 209
f 183 209 210
f 182 174 211
f 175 212 174
f 175 176 213
f 176 177 214
f 177 178 215
f 178 179 216
f 179 180 217
f 180 181 218
f 182 211 219
f 174 212 211
f 176 214 213
f 175 213 212
f 177 215 214
f 178 216 215
f 179 217 216
f 180 218 217
f 166 182 219
f 183 210 184
f 184 220 185
f 185 221 186
f 186 222 187
f 187 223 188
f 188 224 195
f 181 189 225
f 189 190 226
f 190 191 227
f 191 192 228
f 192 193 229
f 193 194 230
f 195 231 196
f 196 232 197
f 197 233 200
f 194 198 234
f 198 199 235
f 200 236 201
f 199 201 237
f 166 219 202
f 184 210 220
f 185 220 221
f 186 221 222
f 187 222 223
f 188 223 224
f 195 224 231
f 181 225 218
f 189 226 225
f 190 227 226
f 191 228 227
f 192 229 228
f 193 230 229
f 196 231 232
f 197 232 233
f 194 234 230
f 198 235 234
f 199 237 235
f 200 233 236
f 201 236 237
f 202 238 203
f 203 239 204
f 204 240 205
f 205 241 206
f 206 242 207
f 207 243 208
f 208 244 209
f 209 245 210
f 219 211 246
f 211 212 247
f 212 213 248
f 213 214 249
f 214 215 250
f 215 216 251
f 216 217 252
f 217 218 253
f 202 219 254
f 210 255 220
f 220 256 221
f 221 257 222
f 222 258 223
f 223 259 224
f 224 260 231
f 218 225 261
f 225 226 262
f 226 227 263
f 227 228 264
f 228 229 265
f 229 230 266
f 231 267 232
f 233 268 236
f 232 269 233
f 235 237 270
f 230 234 271
f 234 235 272
f 236 273 237
f 204 239 240
f 205 240 241
f 206 241 242
f 207 242 243
f 208 243 244
f 209 244 245
f 211 247 246
f 212 248 247
f 213 249 248
f 214 250 249
f 215 251 250
f 216 252 251
f 202 254 238
f 219 246 254
f 203 238 239
f 210 245 255
f 220 255 256
f 221 256 257
f 222 257 258
f 223 258 259
f 224 259 260
f 231 260 267
f 217 253 252
f 218 261 253
f 225 262 261
f 226 263 262
f 227 264 263
f 228 265 264
f 229 266 265
f 232 267 269
f 233 269 268
f 236 268 273
f 234 272 271
f 235 270 272
f 230 271 266
f 237 273 270
f 240 239 274
f 238 275 239
f 254 246 276
f 238 254 277
f 240 278 241
f 241 279 242
f 242 280 243
f 247 281 246
f 247 248 282
f 248 249 283
f 249 250 284
f 239 275 274
f 238 277 275
f 254 276 277
f 241 278 279
f 242 279 280
f 243 280 285
f 240 274 278
f 247 282 281
f 246 281 276
f 248 283 282
f 249 284 283
f 250 286 284
f 275 277 287
f 274 287 278
f 274 275 287
f 277 276 287
f 276 281 287
f 278 287 279
f 279 287 280
f 280 287 285
f 285 287 288
f 287 289 288
f 281 282 287
f 282 283 287
f 283 284 287
f 284 286 287
f 287 286 290
f 243 285 244
f 244 288 245
f 245 289 255
f 255 291 256
f 256 292 257
f 257 293 258
f 258 294 259
f 259 295 260
f 260 296 267
f 244 285 288
f 245 288 289
f 255 289 291
f 256 291 292
f 257 292 293
f 258 293 294
f 259 294 295
f 260 295 296
f 267 296 297
f 287 291 289
f 287 292 291
f 287 293 292
f 287 294 293
f 287 295 294
f 287 296 295
f 287 297 296
f 287 298 297
f 287 299 298
f 250 251 286
f 251 252 290
f 252 253 300
f 253 261 301
f 261 262 302
f 262 263 303
f 263 264 304
f 264 265 305
f 265 266 306
f 251 290 286
f 252 300 290
f 253 301 300
f 261 302 301
f 262 303 302
f 263 304 303
f 264 305 304
f 265 306 305
f 266 307 306
f 287 290 300
f 287 300 301
f 287 301 302
f 287 302 303
f 287 303 304
f 287 304 305
f 287 305 306
f 287 306 307
f 287 307 308
f 268 299 273
f 270 309 272
f 273 310 270
f 267 297 269
f 269 298 268
f 266 271 307
f 271 272 308
f 297 298 269
f 273 299 310
f 268 298 299
f 272 309 308
f 271 308 307
f 270 310 309
f 287 310 299
f 287 308 309
f 287 309 310
f 311 312 313
f 314 315 312
f 312 315 313
f 314 316 315
f 316 317 315
f 314 318 316
f 318 319 320
f 319 321 322
f 321 323 324
f 318 320 316
f 319 322 320
f 316 320 325
f 320 322 326
f 322 324 327
f 321 324 322
f 323 328 324
f 329 311 330
f 329 331 332
f 333 334 335
f 334 336 335
f 332 337 333
f 333 338 334
f 334 339 336
f 329 332 335
f 329 335 311
f 314 312 335
f 311 335 312
f 332 333 335
f 332 331 337
f 311 313 330
f 329 330 331
f 330 340 331
f 333 337 338
f 334 338 339
f 331 341 337
f 337 342 338
f 331 340 341
f 337 341 342
f 338 343 339
f 338 342 344
f 338 344 343
f 330 313 345
f 313 315 346
f 313 346 347
f 330 345 340
f 313 347 345
f 315 317 346
f 316 325 317
f 336 348 349
f 349 350 351
f 351 352 353
f 336 349 335
f 349 351 335
f 351 353 335
f 353 354 335
f 354 355 335
f 353 356 354
f 354 357 355
f 336 339 348
f 349 348 350
f 339 358 348
f 339 343 358
f 348 358 359
f 348 359 350
f 351 350 352
f 350 359 360
f 350 360 361
f 350 361 352
f 352 361 362
f 353 352 356
f 354 356 357
f 352 362 356
f 356 362 363
f 356 363 357
f 357 363 364
f 314 335 318
f 318 335 319
f 319 335 321
f 321 335 323
f 335 365 323
f 335 366 365
f 323 365 328
f 335 367 366
f 335 368 367
f 335 369 368
f 320 370 325
f 320 326 370
f 322 327 326
f 324 371 327
f 365 372 328
f 328 373 371
f 324 328 371
f 372 374 373
f 328 372 373
f 372 375 374
f 372 376 375
f 376 377 375
f 378 379 377
f 380 381 379
f 380 382 381
f 335 383 384
f 355 385 335
f 335 385 383
f 355 386 385
f 385 387 383
f 335 388 389
f 335 384 390
f 335 390 388
f 335 389 369
f 384 391 390
f 383 392 384
f 390 393 388
f 355 357 386
f 385 386 387
f 383 387 392
f 386 364 394
f 357 364 386
f 386 394 395
f 387 395 396
f 386 395 387
f 392 396 397
f 387 396 392
f 391 397 398
f 391 398 399
f 400 401 402
f 403 402 382
f 393 399 401
f 391 399 393
f 400 393 401
f 384 392 391
f 390 391 393
f 392 397 391
f 365 366 372
f 366 367 376
f 367 368 378
f 368 369 380
f 366 376 372
f 367 378 376
f 368 380 378
f 369 403 380
f 376 378 377
f 378 380 379
f 380 403 382
f 389 403 369
f 389 388 400
f 389 400 403
f 388 393 400
f 400 402 403
f 404 342 341
f 405 344 342
f 406 343 344
f 407 358 343
f 408 340 345
f 409 345 347
f 410 347 346
f 411 346 317
f 412 341 340
f 412 404 341
f 405 342 404
f 405 406 344
f 406 407 343
f 409 347 410
f 409 408 345
f 412 340 408
f 410 346 411
f 411 317 413
f 414 359 358
f 415 360 359
f 416 361 360
f 417 362 361
f 418 363 362
f 419 364 363
f 407 414 358
f 414 415 359
f 415 416 360
f 416 417 361
f 417 418 362
f 418 419 363
f 419 420 364
f 413 317 325
f 421 325 370
f 422 370 326
f 423 326 327
f 424 327 371
f 425 371 373
f 426 373 374
f 427 374 375
f 428 375 377
f 429 377 379
f 430 379 381
f 431 381 382
f 413 325 421
f 421 370 422
f 422 326 423
f 423 327 424
f 424 371 425
f 425 373 426
f 426 374 427
f 427 375 428
f 428 377 429
f 429 379 430
f 430 381 431
f 432 397 396
f 420 394 364
f 433 395 394
f 434 396 395
f 435 398 397
f 436 399 398
f 437 401 399
f 438 382 402
f 439 402 401
f 420 433 394
f 433 434 395
f 434 432 396
f 436 398 435
f 436 437 399
f 438 402 439
f 431 382 438
f 437 439 401
f 432 435 397
f 410 411 440
f 411 413 441
f 413 421 442
f 421 422 443
f 422 423 444
f 410 440 445
f 411 441 440
f 413 442 441
f 421 443 442
f 422 444 443
f 423 446 444
f 412 447 404
f 412 408 448
f 405 449 406
f 406 450 407
f 405 404 451
f 409 452 408
f 409 410 445
f 407 453 414
f 414 454 415
f 415 455 416
f 416 456 417
f 417 457 418
f 418 458 419
f 419 459 420
f 423 424 446
f 424 425 460
f 425 426 461
f 426 427 462
f 420 463 433
f 433 464 434
f 434 465 432
f 438 439 466
f 437 467 439
f 432 468 435
f 436 435 469
f 436 470 437
f 404 447 451
f 408 452 448
f 412 448 447
f 405 451 449
f 406 449 450
f 407 450 453
f 409 445 452
f 414 453 454
f 415 454 455
f 416 455 456
f 417 456 457
f 418 457 458
f 419 458 459
f 420 459 463
f 424 460 446
f 425 461 460
f 426 462 461
f 433 463 464
f 434 464 465
f 432 465 468
f 439 467 466
f 435 468 469
f 436 469 470
f 437 470 467
f 427 428 471
f 428 429 472
f 429 430 473
f 430 431 474
f 431 438 475
f 427 471 462
f 428 472 471
f 429 473 472
f 430 474 473
f 438 466 475
f 431 475 474
f 445 476 452
f 445 440 477
f 440 441 478
f 441 442 479
f 442 443 480
f 443 444 481
f 444 446 482
f 446 460 483
f 447 484 451
f 447 448 485
f 448 452 486
f 451 487 449
f 449 488 450
f 450 489 453
f 453 490 454
f 454 491 455
f 455 492 456
f 456 493 457
f 457 494 458
f 458 495 459
f 459 496 463
f 460 461 497
f 463 498 464
f 464 499 465
f 465 500 468
f 468 501 469
f 470 502 467
f 469 503 470
f 461 462 504
f 462 471 505
f 471 472 506
f 472 473 507
f 473 474 508
f 474 475 509
f 475 466 510
f 467 511 466
f 452 476 486
f 445 477 476
f 440 478 477
f 441 479 478
f 442 480 479
f 443 481 480
f 444 482 481
f 446 483 482
f 447 485 484
f 451 484 487
f 448 486 485
f 449 487 488
f 450 488 489
f 453 489 490
f 454 490 491
f 455 491 492
f 456 492 493
f 457 493 494
f 458 494 495
f 459 495 496
f 463 496 498
f 460 497 483
f 464 498 499
f 465 499 500
f 468 500 501
f 469 501 503
f 470 503 502
f 467 502 511
f 461 504 497
f 462 505 504
f 471 506 505
f 472 507 506
f 473 508 507
f 466 511 510
f 475 510 509
f 474 509 508
f 486 476 512
f 476 477 513
f 477 478 514
f 478 479 515
f 479 480 516
f 480 481 517
f 481 482 518
f 482 483 519
f 486 512 520
f 476 513 512
f 477 514 513
f 478 515 514
f 479 516 515
f 480 517 516
f 481 518 517
f 482 519 518
f 484 485 521
f 487 484 522
f 486 520 485
f 487 523 488
f 488 524 489
f 489 525 490
f 490 526 491
f 491 527 492
f 492 528 493
f 493 529 494
f 494 530 495
f 495 531 496
f 496 532 498
f 483 497 533
f 498 534 499
f 499 535 500
f 500 536 501
f 501 537 503
f 502 538 511
f 503 539 502
f 484 521 522
f 487 522 523
f 485 520 521
f 488 523 524
f 489 524 525
f 490 525 526
f 491 526 527
f 492 527 528
f 493 528 529
f 494 529 530
f 495 530 531
f 496 531 532
f 498 532 534
f 483 533 519
f 499 534 535
f 500 535 536
f 501 536 537
f 503 537 539
f 502 539 538
f 511 538 540
f 497 504 541
f 504 505 542
f 505 506 543
f 506 507 544
f 507 508 545
f 510 546 509
f 508 509 547
f 510 511 540
f 497 541 533
f 504 542 541
f 505 543 542
f 506 544 543
f 507 545 544
f 510 540 546
f 509 546 547
f 508 547 545
f 520 512 548
f 512 513 549
f 514 550 513
f 514 515 551
f 515 516 552
f 516 517 553
f 517 518 554
f 518 519 555
f 523 522 556
f 522 521 557
f 520 558 521
f 524 559 525
f 523 560 524
f 525 561 526
f 526 562 527
f 527 563 528
f 528 564 529
f 529 565 530
f 530 566 531
f 531 567 532
f 532 568 534
f 519 533 569
f 534 570 535
f 535 571 536
f 536 572 537
f 539 573 538
f 537 574 539
f 538 575 540
f 533 541 576
f 541 542 577
f 542 543 578
f 543 544 579
f 544 545 580
f 547 581 545
f 547 546 582
f 546 540 583
f 512 549 548
f 513 550 549
f 514 551 550
f 515 552 551
f 516 553 552
f 517 554 553
f 521 558 557
f 522 557 556
f 523 556 560
f 524 560 559
f 525 559 561
f 526 561 562
f 520 548 558
f 527 562 563
f 528 563 564
f 529 564 565
f 530 565 566
f 531 566 567
f 532 567 568
f 534 568 570
f 518 555 554
f 519 569 555
f 533 576 569
f 535 570 571
f 536 571 572
f 537 572 574
f 546 583 582
f 539 574 573
f 538 573 575
f 540 575 583
f 556 584 560
f 559 560 585
f 559 586 561
f 561 587 562
f 558 548 588
f 557 558 589
f 557 590 556
f 549 591 548
f 549 550 592
f 556 590 584
f 557 589 590
f 549 592 591
f 558 588 589
f 548 591 588
f 560 584 585
f 559 585 586
f 561 586 587
f 562 587 593
f 584 594 585
f 589 594 590
f 589 588 594
f 584 590 594
f 586 594 587
f 585 594 586
f 587 594 593
f 593 594 595
f 595 594 596
f 562 593 563
f 563 595 564
f 564 596 565
f 565 597 566
f 566 598 567
f 567 599 568
f 568 600 570
f 593 595 563
f 564 595 596
f 565 596 597
f 566 597 598
f 567 598 599
f 568 599 600
f 596 594 597
f 597 594 598
f 598 594 599
f 550 551 601
f 551 552 602
f 552 553 603
f 553 554 604
f 554 555 605
f 555 569 606
f 569 576 607
f 576 577 608
f 609 577 578
f 610 578 579
f 611 579 580
f 550 601 592
f 551 602 601
f 552 603 602
f 553 604 603
f 588 591 594
f 591 592 594
f 592 601 594
f 601 602 594
f 602 603 594
f 603 604 594
f 604 605 594
f 605 606 594
f 594 606 607
f 594 607 608
f 594 608 609
f 594 609 610
f 594 610 611
f 594 611 612
f 594 612 613
f 554 605 604
f 555 606 605
f 569 607 606
f 576 608 607
f 608 577 609
f 609 578 610
f 610 579 611
f 611 580 612
f 570 614 571
f 571 615 572
f 574 572 616
f 574 617 573
f 573 618 575
f 583 575 619
f 582 613 581
f 612 580 581
f 583 620 582
f 600 614 570
f 571 614 615
f 572 615 616
f 574 616 617
f 573 617 618
f 599 594 600
f 600 594 614
f 594 615 614
f 594 616 615
f 594 617 616
f 594 619 618
f 594 618 617
f 594 613 620
f 594 620 619
f 612 581 613
f 582 620 613
f 575 618 619
f 583 619 620
f 541 577 576
f 542 578 577
f 543 579 578
f 544 580 579
f 545 581 580
f 547 582 581
f 621 622 623
f 624 625 626
f 621 627 624
f 622 628 629
f 628 630 631
f 621 632 622
f 621 624 632
f 624 626 632
f 622 632 628
f 628 632 630
f 622 629 623
f 624 627 625
f 621 623 627
f 623 633 627
f 627 634 625
f 627 633 634
f 625 634 635
f 628 631 629
f 630 636 631
f 629 631 637
f 631 636 638
f 631 638 637
f 636 639 638
f 623 629 640
f 623 640 633
f 629 641 640
f 629 637 641
f 626 642 632
f 642 643 632
f 626 644 642
f 642 645 643
f 643 646 647
f 647 648 649
f 649 650 651
f 643 647 632
f 647 649 632
f 649 651 632
f 651 652 632
f 652 653 632
f 626 625 644
f 642 644 645
f 643 645 646
f 625 635 644
f 644 635 654
f 644 654 655
f 644 655 645
f 645 656 646
f 645 655 656
f 646 656 657
f 647 646 648
f 649 648 650
f 646 657 648
f 648 657 658
f 648 658 659
f 648 659 650
f 650 659 660
f 650 660 661
f 661 660 662
f 663 662 664
f 630 632 665
f 665 632 666
f 630 665 636
f 665 666 667
f 666 668 669
f 666 632 668
f 668 670 671
f 670 672 673
f 668 632 670
f 670 632 672
f 672 632 674
f 674 632 675
f 665 667 636
f 666 669 667
f 636 667 639
f 667 676 639
f 667 677 676
f 667 669 677
f 669 678 677
f 669 671 678
f 671 679 678
f 668 671 669
f 670 673 671
f 672 680 673
f 671 673 679
f 673 681 679
f 680 682 681
f 673 680 681
f 680 683 682
f 680 684 683
f 684 685 683
f 686 687 685
f 632 653 688
f 632 688 689
f 632 689 690
f 632 691 675
f 632 692 691
f 632 693 692
f 632 690 694
f 632 695 693
f 632 694 695
f 694 696 695
f 697 664 698
f 697 698 699
f 700 699 701
f 702 701 703
f 704 705 687
f 704 706 705
f 707 708 709
f 710 709 706
f 694 711 696
f 711 712 713
f 711 703 712
f 702 703 711
f 696 713 708
f 707 696 708
f 711 713 696
f 651 661 652
f 652 663 653
f 651 650 661
f 652 661 663
f 661 662 663
f 653 697 688
f 688 700 689
f 690 689 702
f 690 711 694
f 653 663 697
f 688 697 700
f 689 700 702
f 663 664 697
f 697 699 700
f 702 700 701
f 690 702 711
f 672 674 680
f 674 675 684
f 674 684 680
f 675 686 684
f 684 686 685
f 675 691 686
f 691 692 704
f 693 710 692
f 693 695 707
f 691 704 686
f 692 710 704
f 686 704 687
f 704 710 706
f 707 709 710
f 693 707 710
f 695 696 707
f 714 635 634
f 715 633 640
f 716 640 641
f 717 634 633
f 718 641 637
f 719 637 638
f 717 714 634
f 714 720 635
f 718 637 719
f 719 638 721
f 717 633 715
f 715 640 716
f 718 716 641
f 720 654 635
f 722 655 654
f 723 656 655
f 724 657 656
f 725 658 657
f 726 659 658
f 727 660 659
f 728 662 660
f 729 664 662
f 720 722 654
f 722 723 655
f 723 724 656
f 724 725 657
f 725 726 658
f 726 727 659
f 727 728 660
f 728 729 662
f 729 730 664
f 721 638 639
f 731 639 676
f 732 676 677
f 733 677 678
f 734 678 679
f 735 679 681
f 736 681 682
f 737 682 683
f 738 683 685
f 721 639 731
f 731 676 732
f 732 677 733
f 733 678 734
f 734 679 735
f 735 681 736
f 736 682 737
f 737 683 738
f 738 685 739
f 730 698 664
f 740 699 698
f 741 701 699
f 742 703 701
f 739 685 687
f 743 687 705
f 744 705 706
f 745 706 709
f 746 709 708
f 747 708 713
f 748 713 712
f 749 712 703
f 730 740 698
f 740 741 699
f 741 742 701
f 739 687 743
f 743 705 744
f 745 709 746
f 744 706 745
f 748 747 713
f 742 749 703
f 749 748 712
f 747 746 708
f 717 750 714
f 717 715 751
f 714 752 720
f 715 716 753
f 718 754 716
f 718 719 755
f 719 721 756
f 720 757 722
f 722 758 723
f 723 759 724
f 724 760 725
f 725 761 726
f 726 762 727
f 727 763 728
f 728 764 729
f 721 731 765
f 731 732 766
f 732 733 767
f 733 734 768
f 734 735 769
f 735 736 770
f 736 737 771
f 749 772 748
f 745 746 773
f 747 774 746
f 748 775 747
f 715 753 751
f 714 750 752
f 720 752 757
f 717 751 750
f 716 754 753
f 718 755 754
f 719 756 755
f 722 757 758
f 723 758 759
f 724 759 760
f 725 760 761
f 726 761 762
f 727 762 763
f 728 763 764
f 721 765 756
f 731 766 765
f 732 767 766
f 733 768 767
f 734 769 768
f 735 770 769
f 736 771 770
f 746 774 773
f 748 772 775
f 747 775 774
f 729 776 730
f 730 777 740
f 740 778 741
f 741 779 742
f 742 780 749
f 729 764 776
f 730 776 777
f 740 777 778
f 741 778 779
f 742 779 780
f 749 780 772
f 737 738 781
f 738 739 782
f 739 743 783
f 743 744 784
f 744 745 785
f 737 781 771
f 738 782 781
f 739 783 782
f 743 784 783
f 744 785 784
f 745 773 785
f 751 786 750
f 751 753 787
f 750 788 752
f 757 752 789
f 753 754 790
f 754 755 791
f 755 756 792
f 757 793 758
f 758 794 759
f 759 795 760
f 760 796 761
f 761 797 762
f 762 798 763
f 756 765 799
f 765 766 800
f 766 767 801
f 767 768 802
f 768 769 803
f 769 770 804
f 775 805 774
f 763 806 764
f 764 807 776
f 776 808 777
f 777 809 778
f 778 810 779
f 779 811 780
f 780 812 772
f 775 772 813
f 770 771 814
f 771 781 815
f 781 782 816
f 784 785 817
f 782 783 818
f 784 819 783
f 773 820 785
f 774 821 773
f 751 787 786
f 753 790 787
f 752 788 789
f 750 786 788
f 757 789 793
f 754 791 790
f 755 792 791
f 758 793 794
f 759 794 795
f 760 795 796
f 761 796 797
f 762 797 798
f 763 798 806
f 756 799 792
f 765 800 799
f 766 801 800
f 767 802 801
f 768 803 802
f 769 804 803
f 774 805 821
f 764 806 807
f 776 807 808
f 777 808 809
f 778 809 810
f 780 811 812
f 779 810 811
f 772 812 813
f 775 813 805
f 770 814 804
f 771 815 814
f 781 816 815
f 782 818 816
f 783 819 818
f 784 817 819
f 785 820 817
f 773 821 820
f 786 822 788
f 786 787 823
f 788 824 789
f 789 825 793
f 787 790 826
f 790 791 827
f 791 792 828
f 793 829 794
f 794 830 795
f 795 831 796
f 796 832 797
f 797 833 798
f 798 834 806
f 792 799 835
f 799 800 836
f 800 801 837
f 801 802 838
f 802 803 839
f 803 804 840
f 805 841 821
f 786 823 822
f 787 826 823
f 788 822 824
f 789 824 825
f 793 825 829
f 790 827 826
f 791 828 827
f 794 829 830
f 795 830 831
f 796 831 832
f 797 832 833
f 798 833 834
f 806 834 842
f 792 835 828
f 799 836 835
f 800 837 836
f 801 838 837
f 802 839 838
f 803 840 839
f 821 841 843
f 806 842 807
f 807 844 808
f 808 845 809
f 809 846 810
f 810 847 811
f 811 848 812
f 813 812 849
f 813 850 805
f 807 842 844
f 808 844 845
f 809 845 846
f 810 846 847
f 812 848 849
f 811 847 848
f 813 849 850
f 805 850 841
f 804 814 851
f 814 815 852
f 815 816 853
f 816 818 854
f 818 819 855
f 819 817 856
f 820 857 817
f 820 821 843
f 804 851 840
f 814 852 851
f 815 853 852
f 816 854 853
f 818 855 854
f 819 856 855
f 817 857 856
f 820 843 857
f 822 823 858
f 824 859 825
f 825 860 829
f 822 861 824
f 826 827 862
f 823 826 863
f 827 828 864
f 829 865 830
f 830 866 831
f 831 867 832
f 832 868 833
f 833 869 834
f 834 870 842
f 828 835 871
f 835 836 872
f 836 837 873
f 837 838 874
f 838 839 875
f 839 840 876
f 841 877 843
f 842 878 844
f 844 879 845
f 845 880 846
f 846 881 847
f 847 882 848
f 848 883 849
f 849 884 850
f 850 885 841
f 840 851 886
f 851 852 887
f 852 853 888
f 853 854 889
f 854 855 890
f 855 856 891
f 856 857 892
f 857 843 893
f 822 858 861
f 829 860 865
f 824 861 859
f 825 859 860
f 823 863 858
f 826 862 863
f 827 864 862
f 830 865 866
f 831 866 867
f 832 867 868
f 833 868 869
f 834 869 870
f 842 870 878
f 844 878 879
f 828 871 864
f 835 872 871
f 836 873 872
f 837 874 873
f 838 875 874
f 839 876 875
f 840 886 876
f 857 893 892
f 841 885 877
f 843 877 893
f 859 894 860
f 860 895 865
f 863 862 896
f 862 864 897
f 861 858 898
f 859 861 899
f 858 863 900
f 861 898 899
f 860 894 895
f 859 899 894
f 863 896 900
f 858 900 898
f 862 897 896
f 899 898 901
f 894 899 901
f 900 901 898
f 865 902 866
f 866 903 867
f 867 904 868
f 868 905 869
f 869 906 870
f 870 907 878
f 878 908 879
f 879 909 880
f 910 881 880
f 895 902 865
f 866 902 903
f 867 903 904
f 868 904 905
f 869 905 906
f 894 901 895
f 895 901 902
f 902 901 903
f 903 901 904
f 904 901 905
f 905 901 906
f 906 901 907
f 907 901 908
f 908 901 909
f 870 906 907
f 878 907 908
f 879 908 909
f 909 910 880
f 864 871 911
f 871 872 912
f 872 873 913
f 873 874 914
f 874 875 915
f 875 876 916
f 876 886 917
f 886 887 918
f 919 887 888
f 864 911 897
f 871 912 911
f 872 913 912
f 873 914 913
f 900 896 901
f 896 897 901
f 897 911 901
f 911 912 901
f 912 913 901
f 913 914 901
f 914 915 901
f 915 916 901
f 916 917 901
f 874 915 914
f 875 916 915
f 876 917 916
f 886 918 917
f 918 887 919
f 920 882 881
f 921 883 882
f 922 884 883
f 885 884 923
f 924 888 889
f 925 889 890
f 926 890 891
f 877 927 893
f 885 928 877
f 892 893 929
f 892 930 891
f 909 901 910
f 910 901 920
f 901 921 920
f 901 922 921
f 901 923 922
f 917 918 901
f 918 919 901
f 901 919 924
f 901 924 925
f 901 925 926
f 901 928 923
f 901 927 928
f 901 930 929
f 901 926 930
f 901 929 927
f 910 920 881
f 920 921 882
f 921 922 883
f 885 923 928
f 922 923 884
f 926 891 930
f 919 888 924
f 924 889 925
f 925 890 926
f 877 928 927
f 893 927 929
f 892 929 930
f 845 879 880
f 846 880 881
f 847 881 882
f 848 882 883
f 849 883 884
f 850 884 885
f 851 887 886
f 852 888 887
f 853 889 888
f 854 890 889
f 855 891 890
f 856 892 891
f 931 932 933
f 934 933 935
f 931 936 932
f 933 932 935
f 935 932 937
f 934 938 939
f 939 940 941
f 941 942 943
f 943 944 945
f 934 935 938
f 939 938 940
f 941 940 942
f 935 946 938
f 938 947 940
f 940 948 942
f 943 942 944
f 931 949 936
f 950 951 952
f 949 950 953
f 934 954 933
f 931 954 949
f 949 954 950
f 931 933 954
f 951 954 955
f 955 954 956
f 951 955 957
f 955 956 958
f 950 954 951
f 949 953 936
f 950 952 953
f 953 952 959
f 936 960 932
f 936 953 961
f 936 961 960
f 935 937 946
f 932 960 937
f 953 962 961
f 953 959 962
f 951 957 952
f 955 958 957
f 956 963 958
f 952 957 964
f 952 964 959
f 957 958 965
f 957 965 964
f 958 966 965
f 958 963 967
f 958 967 966
f 934 939 954
f 939 941 954
f 941 943 954
f 943 945 954
f 945 968 954
f 968 969 954
f 945 970 968
f 954 969 971
f 954 971 972
f 954 972 973
f 938 946 974
f 938 974 947
f 940 947 948
f 942 948 975
f 945 944 970
f 942 975 944
f 944 975 976
f 944 977 970
f 944 976 977
f 970 978 979
f 970 977 978
f 979 978 980
f 981 980 982
f 983 982 984
f 983 984 985
f 956 986 963
f 986 987 988
f 954 986 956
f 954 987 986
f 954 989 987
f 954 990 989
f 954 991 990
f 987 989 992
f 989 990 993
f 990 991 994
f 986 988 963
f 987 992 988
f 963 995 967
f 963 988 995
f 988 996 995
f 988 992 996
f 992 997 996
f 992 993 997
f 993 998 997
f 993 999 998
f 989 993 992
f 990 994 993
f 991 1000 994
f 993 994 999
f 994 1001 999
f 1000 1002 1001
f 994 1000 1001
f 954 1003 1004
f 954 1005 1006
f 954 973 1005
f 954 1006 1007
f 954 1007 1003
f 954 1008 991
f 954 1004 1008
f 991 1008 1000
f 1008 1004 1009
f 1004 1003 1010
f 1003 1007 1011
f 1006 1012 1007
f 1013 985 1014
f 1015 1014 1016
f 1017 1018 1019
f 1012 1019 1020
f 1017 1016 1018
f 1015 1016 1017
f 1017 1019 1012
f 1008 1009 1000
f 1004 1010 1009
f 1009 1021 1002
f 1009 1022 1021
f 1000 1009 1002
f 1010 1023 1022
f 1011 1020 1023
f 1009 1010 1022
f 1010 1011 1023
f 1007 1012 1011
f 1006 1017 1012
f 1003 1011 1010
f 1011 1012 1020
f 968 979 969
f 969 981 971
f 971 983 972
f 972 1013 973
f 968 970 979
f 969 979 981
f 971 981 983
f 972 983 1013
f 979 980 981
f 981 982 983
f 983 985 1013
f 1005 973 1015
f 1005 1017 1006
f 973 1013 1015
f 1005 1015 1017
f 1015 1013 1014
f 1024 937 960
f 1025 946 937
f 1026 960 961
f 1027 961 962
f 1028 962 959
f 1029 964 965
f 1030 965 966
f 1031 966 967
f 1032 959 964
f 1028 959 1032
f 1024 960 1026
f 1025 1033 946
f 1024 1025 937
f 1026 961 1027
f 1028 1027 962
f 1032 964 1029
f 1029 965 1030
f 1030 966 1031
f 1033 974 946
f 1034 947 974
f 1035 948 947
f 1036 975 948
f 1037 976 975
f 1038 977 976
f 1039 978 977
f 1040 980 978
f 1041 982 980
f 1042 984 982
f 1043 985 984
f 1044 1014 985
f 1033 1034 974
f 1034 1035 947
f 1035 1036 948
f 1036 1037 975
f 1037 1038 976
f 1038 1039 977
f 1039 1040 978
f 1040 1041 980
f 1041 1042 982
f 1042 1043 984
f 1043 1044 985
f 1045 967 995
f 1046 995 996
f 1047 996 997
f 1048 997 998
f 1049 998 999
f 1050 999 1001
f 1031 967 1045
f 1045 995 1046
f 1046 996 1047
f 1047 997 1048
f 1048 998 1049
f 1049 999 1050
f 1050 1001 1051
f 1052 1023 1020
f 1053 1016 1014
f 1054 1018 1016
f 1055 1019 1018
f 1056 1020 1019
f 1051 1001 1002
f 1057 1002 1021
f 1058 1021 1022
f 1059 1022 1023
f 1044 1053 1014
f 1053 1054 1016
f 1056 1052 1020
f 1056 1019 1055
f 1054 1055 1018
f 1051 1002 1057
f 1057 1021 1058
f 1059 1058 1022
f 1059 1023 1052
f 1025 1060 1033
f 1033 1061 1034
f 1034 1062 1035
f 1035 1063 1036
f 1036 1064 1037
f 1033 1060 1061
f 1025 1065 1060
f 1034 1061 1062
f 1035 1062 1063
f 1036 1063 1064
f 1037 1064 1066
f 1026 1027 1067
f 1028 1068 1027
f 1028 1032 1069
f 1024 1026 1070
f 1024 1065 1025
f 1032 1029 1071
f 1029 1030 1072
f 1030 1031 1073
f 1037 1066 1038
f 1038 1074 1039
f 1039 1075 1040
f 1040 1076 1041
f 1031 1045 1077
f 1045 1046 1078
f 1046 1047 1079
f 1047 1048 1080
f 1048 1049 1081
f 1049 1050 1082
f 1050 1051 1083
f 1054 1084 1055
f 1056 1055 1085
f 1059 1086 1058
f 1051 1057 1087
f 1057 1058 1088
f 1056 1089 1052
f 1059 1052 1090
f 1026 1067 1070
f 1027 1068 1067
f 1028 1069 1068
f 1024 1070 1065
f 1032 1071 1069
f 1029 1072 1071
f 1030 1073 1072
f 1038 1066 1074
f 1039 1074 1075
f 1040 1075 1076
f 1031 1077 1073
f 1045 1078 1077
f 1046 1079 1078
f 1047 1080 1079
f 1048 1081 1080
f 1049 1082 1081
f 1050 1083 1082
f 1055 1084 1085
f 1051 1087 1083
f 1057 1088 1087
f 1058 1086 1088
f 1052 1089 1090
f 1056 1085 1089
f 1059 1090 1086
f 1041 1091 1042
f 1042 1092 1043
f 1043 1093 1044
f 1044 1094 1053
f 1053 1095 1054
f 1041 1076 1091
f 1042 1091 1092
f 1043 1092 1093
f 1044 1093 1094
f 1053 1094 1095
f 1054 1095 1084
f 1065 1070 1096
f 1065 1097 1060
f 1060 1098 1061
f 1061 1099 1062
f 1062 1100 1063
f 1063 1101 1064
f 1064 1102 1066
f 1066 1103 1074
f 1067 1068 1104
f 1070 1067 1105
f 1068 1069 1106
f 1069 1071 1107
f 1071 1072 1108
f 1072 1073 1109
f 1074 1110 1075
f 1073 1077 1111
f 1077 1078 1112
f 1078 1079 1113
f 1079 1080 1114
f 1080 1081 1115
f 1081 1082 1116
f 1082 1083 1117
f 1083 1087 1118
f 1087 1088 1119
f 1088 1086 1120
f 1085 1121 1089
f 1089 1122 1090
f 1086 1090 1123
f 1075 1124 1076
f 1076 1125 1091
f 1091 1126 1092
f 1092 1127 1093
f 1093 1128 1094
f 1094 1129 1095
f 1095 1130 1084
f 1085 1084 1131
f 1061 1098 1099
f 1060 1097 1098
f 1065 1096 1097
f 1062 1099 1100
f 1063 1100 1101
f 1064 1101 1102
f 1066 1102 1103
f 1074 1103 1110
f 1070 1105 1096
f 1067 1104 1105
f 1068 1106 1104
f 1069 1107 1106
f 1071 1108 1107
f 1072 1109 1108
f 1075 1110 1124
f 1073 1111 1109
f 1077 1112 1111
f 1078 1113 1112
f 1079 1114 1113
f 1080 1115 1114
f 1081 1116 1115
f 1082 1117 1116
f 1083 1118 1117
f 1087 1119 1118
f 1088 1120 1119
f 1089 1121 1122
f 1086 1123 1120
f 1090 1122 1123
f 1076 1124 1125
f 1091 1125 1126
f 1092 1126 1127
f 1093 1127 1128
f 1094 1128 1129
f 1095 1129 1130
f 1084 1130 1131
f 1085 1131 1121
f 1096 1132 1097
f 1098 1133 1099
f 1098 1097 1134
f 1099 1135 1100
f 1100 1136 1101
f 1101 1137 1102
f 1102 1138 1103
f 1103 1139 1110
f 1099 1133 1135
f 1098 1134 1133
f 1097 1132 1134
f 1100 1135 1136
f 1101 1136 1137
f 1102 1137 1138
f 1103 1138 1139
f 1110 1139 1140
f 1105 1104 1141
f 1096 1105 1142
f 1104 1106 1143
f 1106 1107 1144
f 1107 1108 1145
f 1108 1109 1146
f 1110 1140 1124
f 1109 1111 1147
f 1111 1112 1148
f 1112 1113 1149
f 1113 1114 1150
f 1114 1115 1151
f 1115 1116 1152
f 1116 1117 1153
f 1117 1118 1154
f 1118 1119 1155
f 1119 1120 1156
f 1122 1121 1157
f 1123 1158 1120
f 1122 1159 1123
f 1096 1142 1132
f 1105 1141 1142
f 1104 1143 1141
f 1106 1144 1143
f 1107 1145 1144
f 1108 1146 1145
f 1124 1140 1160
f 1109 1147 1146
f 1111 1148 1147
f 1112 1149 1148
f 1113 1150 1149
f 1114 1151 1150
f 1115 1152 1151
f 1116 1153 1152
f 1117 1154 1153
f 1118 1155 1154
f 1119 1156 1155
f 1122 1157 1159
f 1120 1158 1156
f 1123 1159 1158
f 1124 1160 1125
f 1125 1161 1126
f 1126 1162 1127
f 1127 1163 1128
f 1128 1164 1129
f 1129 1165 1130
f 1130 1166 1131
f 1131 1167 1121
f 1125 1160 1161
f 1126 1161 1162
f 1127 1162 1163
f 1128 1163 1164
f 1129 1164 1165
f 1130 1165 1166
f 1131 1166 1167
f 1121 1167 1157
f 1132 1168 1134
f 1134 1169 1133
f 1135 1133 1170
f 1135 1171 1136
f 1136 1172 1137
f 1137 1173 1138
f 1138 1174 1139
f 1139 1175 1140
f 1132 1142 1176
f 1141 1143 1177
f 1142 1141 1178
f 1143 1144 1179
f 1144 1145 1180
f 1145 1146 1181
f 1140 1182 1160
f 1146 1147 1183
f 1147 1148 1184
f 1148 1149 1185
f 1149 1150 1186
f 1150 1151 1187
f 1151 1152 1188
f 1152 1153 1189
f 1153 1154 1190
f 1155 1156 1191
f 1154 1155 1192
f 1159 1157 1193
f 1159 1194 1158
f 1158 1195 1156
f 1160 1196 1161
f 1161 1197 1162
f 1162 1198 1163
f 1163 1199 1164
f 1164 1200 1165
f 1166 1165 1201
f 1166 1202 1167
f 1167 1203 1157
f 1133 1169 1170
f 1135 1170 1171
f 1136 1171 1172
f 1137 1172 1173
f 1138 1173 1174
f 1139 1174 1175
f 1132 1176 1168
f 1142 1178 1176
f 1141 1177 1178
f 1134 1168 1169
f 1143 1179 1177
f 1144 1180 1179
f 1145 1181 1180
f 1140 1175 1182
f 1160 1182 1196
f 1161 1196 1197
f 1146 1183 1181
f 1147 1184 1183
f 1148 1185 1184
f 1149 1186 1185
f 1150 1187 1186
f 1151 1188 1187
f 1152 1189 1188
f 1157 1203 1193
f 1153 1190 1189
f 1154 1192 1190
f 1155 1191 1192
f 1156 1195 1191
f 1158 1194 1195
f 1159 1193 1194
f 1169 1168 1204
f 1170 1205 1171
f 1170 1169 1206
f 1176 1207 1168
f 1176 1178 1208
f 1178 1177 1209
f 1179 1210 1177
f 1179 1180 1211
f 1180 1181 1212
f 1168 1207 1204
f 1176 1208 1207
f 1169 1204 1206
f 1170 1206 1205
f 1178 1209 1208
f 1177 1210 1209
f 1179 1211 1210
f 1180 1212 1211
f 1181 1213 1212
f 1204 1207 1214
f 1204 1214 1206
f 1208 1209 1214
f 1208 1214 1207
f 1209 1210 1214
f 1210 1211 1214
f 1211 1212 1214
f 1212 1213 1214
f 1214 1213 1215
f 1171 1216 1172
f 1172 1217 1173
f 1173 1218 1174
f 1174 1219 1175
f 1175 1220 1182
f 1182 1221 1196
f 1196 1222 1197
f 1197 1223 1198
f 1224 1199 1198
f 1225 1200 1199
f 1226 1201 1200
f 1171 1205 1216
f 1172 1216 1217
f 1173 1217 1218
f 1174 1218 1219
f 1175 1219 1220
f 1182 1220 1221
f 1196 1221 1222
f 1197 1222 1223
f 1206 1214 1205
f 1205 1214 1216
f 1216 1214 1217
f 1217 1214 1218
f 1218 1214 1219
f 1219 1214 1220
f 1220 1214 1221
f 1221 1214 1222
f 1214 1223 1222
f 1214 1224 1223
f 1214 1225 1224
f 1214 1226 1225
f 1214 1227 1226
f 1214 1228 1227
f 1214 1229 1228
f 1223 1224 1198
f 1224 1225 1199
f 1225 1226 1200
f 1226 1227 1201
f 1181 1183 1213
f 1183 1184 1215
f 1184 1185 1230
f 1185 1186 1231
f 1186 1187 1232
f 1187 1188 1233
f 1188 1189 1234
f 1183 1215 1213
f 1184 1230 1215
f 1185 1231 1230
f 1186 1232 1231
f 1187 1233 1232
f 1188 1234 1233
f 1214 1215 1230
f 1214 1230 1231
f 1214 1231 1232
f 1227 1202 1201
f 1203 1202 1228
f 1195 1194 1235
f 1193 1236 1194
f 1203 1229 1193
f 1189 1190 1237
f 1190 1192 1238
f 1191 1239 1192
f 1191 1195 1240
f 1189 1237 1234
f 1190 1238 1237
f 1192 1239 1238
f 1191 1240 1239
f 1214 1232 1233
f 1214 1233 1234
f 1214 1234 1237
f 1214 1238 1239
f 1214 1237 1238
f 1214 1240 1235
f 1214 1236 1229
f 1214 1235 1236
f 1214 1239 1240
f 1203 1228 1229
f 1193 1229 1236
f 1227 1228 1202
f 1194 1236 1235
f 1195 1235 1240
f 1162 1197 1198
f 1163 1198 1199
f 1164 1199 1200
f 1165 1200 1201
f 1166 1201 1202
f 1167 1202 1203
