# sionna2 mesh — x500v2__gear_cf.obj
# group=gear_cf  verts=394  tris=780
v -0.006453 0.102841 -0.183350
v -0.006374 0.114941 -0.221780
v -0.006145 0.115180 -0.223289
v -0.006453 0.114969 -0.221605
v -0.004687 0.113790 -0.223730
v -0.002461 0.112722 -0.224069
v -0.004687 0.101158 -0.183884
v -0.000000 0.112315 -0.224198
v -0.002461 0.100090 -0.184223
v -0.003628 0.115180 -0.223289
v -0.001623 0.115180 -0.223289
v -0.000000 0.115180 -0.223289
v -0.004687 0.126092 -0.219830
v -0.006145 0.124702 -0.220271
v -0.006140 0.124696 -0.220235
v -0.003628 0.124702 -0.220271
v -0.002461 0.127160 -0.219491
v -0.001623 0.124702 -0.220271
v 0.000000 0.127567 -0.219362
v 0.000000 0.124702 -0.220271
v -0.008000 0.107309 -0.181934
v -0.007726 0.117002 -0.217735
v -0.007573 0.116300 -0.218438
v -0.007994 0.118396 -0.217025
v -0.008000 0.118432 -0.217019
v -0.007573 0.109655 -0.181190
v -0.007738 0.119941 -0.216780
v -0.007573 0.104963 -0.182678
v -0.006765 0.115186 -0.220235
v -0.007318 0.115896 -0.218841
v -0.007573 0.120991 -0.216946
v -0.006453 0.111777 -0.180518
v -0.007347 0.121486 -0.217025
v -0.006787 0.122880 -0.217735
v -0.006453 0.123899 -0.218753
v -0.004687 0.113460 -0.179984
v -0.006396 0.123986 -0.218841
v -0.002461 0.114528 -0.179645
v 0.000000 0.114935 -0.179516
v -0.000000 0.099683 -0.184352
v -0.006453 0.090209 -0.143504
v -0.007573 0.092331 -0.142832
v -0.004687 0.088526 -0.144038
v -0.000000 0.087051 -0.144506
v -0.002461 0.087458 -0.144377
v -0.008000 0.094677 -0.142088
v -0.008000 0.082044 -0.102242
v -0.006453 0.077577 -0.103658
v -0.004687 0.075893 -0.104192
v -0.002461 0.074825 -0.104531
v -0.007573 0.079698 -0.102986
v -0.007573 0.084391 -0.101498
v -0.007573 0.097023 -0.141344
v -0.006453 0.086512 -0.100826
v -0.006453 0.099145 -0.140672
v -0.004687 0.100828 -0.140138
v -0.002461 0.101896 -0.139799
v 0.000000 0.102303 -0.139670
v -0.004687 0.088196 -0.100292
v -0.002461 0.089264 -0.099953
v 0.000000 0.089670 -0.099824
v -0.004687 0.063261 -0.064346
v -0.002461 0.062193 -0.064685
v -0.004687 0.050629 -0.024500
v -0.006453 0.052312 -0.023966
v -0.006453 0.064944 -0.063812
v -0.007573 0.054434 -0.023294
v -0.007573 0.067066 -0.063140
v -0.000000 0.061786 -0.064814
v -0.002461 0.049561 -0.024839
v -0.008000 0.056780 -0.022550
v -0.007573 0.059126 -0.021806
v -0.008000 0.069412 -0.062396
v -0.000000 0.049154 -0.024968
v 0.000000 0.056780 -0.022550
v -0.006453 0.061248 -0.021134
v -0.004687 0.062931 -0.020600
v -0.002461 0.063999 -0.020261
v 0.000000 0.064406 -0.020132
v -0.000000 0.074419 -0.104660
v -0.007573 0.071758 -0.061652
v -0.006453 0.073880 -0.060980
v -0.004687 0.075563 -0.060446
v -0.002461 0.076631 -0.060107
v 0.000000 0.077038 -0.059978
v 0.002461 0.112722 -0.224069
v 0.004687 0.113790 -0.223730
v 0.002461 0.100090 -0.184223
v 0.006145 0.115180 -0.223289
v 0.004687 0.101158 -0.183884
v 0.006374 0.114941 -0.221780
v 0.006453 0.114969 -0.221605
v 0.006453 0.102841 -0.183350
v 0.006765 0.115186 -0.220235
v 0.007318 0.115896 -0.218841
v 0.001623 0.115180 -0.223289
v 0.003628 0.115180 -0.223289
v 0.001623 0.124702 -0.220271
v 0.002461 0.127160 -0.219491
v 0.003628 0.124702 -0.220271
v 0.004687 0.126092 -0.219830
v 0.006145 0.124702 -0.220271
v 0.006140 0.124696 -0.220235
v 0.007573 0.116300 -0.218438
v 0.007573 0.104963 -0.182678
v 0.007726 0.117002 -0.217735
v 0.007573 0.109655 -0.181190
v 0.007573 0.120991 -0.216946
v 0.007347 0.121486 -0.217025
v 0.006787 0.122880 -0.217735
v 0.006453 0.123899 -0.218753
v 0.002461 0.114528 -0.179645
v 0.006453 0.111777 -0.180518
v 0.004687 0.113460 -0.179984
v 0.006396 0.123986 -0.218841
v 0.007994 0.118396 -0.217025
v 0.008000 0.107309 -0.181934
v 0.008000 0.118432 -0.217019
v 0.007738 0.119941 -0.216780
v 0.002461 0.087458 -0.144377
v 0.004687 0.088526 -0.144038
v 0.006453 0.090209 -0.143504
v 0.002461 0.074825 -0.104531
v 0.004687 0.075893 -0.104192
v 0.007573 0.092331 -0.142832
v 0.006453 0.077577 -0.103658
v 0.008000 0.094677 -0.142088
v 0.007573 0.079698 -0.102986
v 0.006453 0.099145 -0.140672
v 0.007573 0.084391 -0.101498
v 0.007573 0.097023 -0.141344
v 0.004687 0.100828 -0.140138
v 0.006453 0.086512 -0.100826
v 0.008000 0.082044 -0.102242
v 0.002461 0.101896 -0.139799
v 0.002461 0.089264 -0.099953
v 0.004687 0.088196 -0.100292
v 0.002461 0.062193 -0.064685
v 0.004687 0.063261 -0.064346
v 0.002461 0.049561 -0.024839
v 0.006453 0.064944 -0.063812
v 0.004687 0.050629 -0.024500
v 0.006453 0.052312 -0.023966
v 0.007573 0.067066 -0.063140
v 0.007573 0.054434 -0.023294
v 0.008000 0.069412 -0.062396
v 0.007573 0.059126 -0.021806
v 0.008000 0.056780 -0.022550
v 0.007573 0.071758 -0.061652
v 0.002461 0.063999 -0.020261
v 0.004687 0.062931 -0.020600
v 0.006453 0.061248 -0.021134
v 0.004687 0.075563 -0.060446
v 0.006453 0.073880 -0.060980
v 0.002461 0.076631 -0.060107
v -0.124000 0.118396 -0.226535
v -0.124000 0.117002 -0.225825
v -0.124000 0.119941 -0.221780
v -0.124000 0.115896 -0.224719
v -0.124000 0.119941 -0.226780
v -0.124000 0.115186 -0.223325
v -0.124000 0.114941 -0.221780
v -0.124000 0.115186 -0.220235
v -0.124000 0.115896 -0.218841
v -0.124000 0.117002 -0.217735
v -0.124000 0.118396 -0.217025
v -0.124000 0.119941 -0.216780
v -0.124000 0.121486 -0.226535
v -0.124000 0.122880 -0.225825
v -0.124000 0.123986 -0.224719
v -0.124000 0.124696 -0.223325
v -0.124000 0.124941 -0.221780
v -0.124000 0.124696 -0.220235
v -0.124000 0.121486 -0.217025
v -0.124000 0.122880 -0.217735
v -0.124000 0.123986 -0.218841
v 0.124000 0.115186 -0.223325
v 0.124000 0.117002 -0.225825
v 0.124000 0.115896 -0.224719
v 0.124000 0.118396 -0.226535
v 0.124000 0.119941 -0.226780
v 0.124000 0.121486 -0.226535
v 0.124000 0.122880 -0.225825
v 0.124000 0.123986 -0.224719
v 0.124000 0.124696 -0.223325
v 0.124000 0.124941 -0.221780
v 0.124000 0.114941 -0.221780
v 0.124000 0.115186 -0.220235
v 0.124000 0.115896 -0.218841
v 0.124000 0.122880 -0.217735
v 0.124000 0.121486 -0.217025
v 0.124000 0.124696 -0.220235
v 0.124000 0.123986 -0.218841
v 0.124000 0.117002 -0.217735
v 0.124000 0.118396 -0.217025
v 0.124000 0.119941 -0.216780
v 0.124000 0.119941 -0.221780
v -0.004687 -0.126092 -0.219830
v -0.006140 -0.124696 -0.220235
v -0.006145 -0.124702 -0.220271
v -0.003628 -0.124702 -0.220271
v -0.002461 -0.127160 -0.219491
v -0.001623 -0.124702 -0.220271
v -0.000000 -0.127567 -0.219362
v -0.000000 -0.124702 -0.220271
v -0.004687 -0.113790 -0.223730
v -0.003628 -0.115180 -0.223289
v -0.006145 -0.115180 -0.223289
v -0.002461 -0.112722 -0.224069
v 0.000000 -0.112315 -0.224198
v 0.000000 -0.115180 -0.223289
v -0.001623 -0.115180 -0.223289
v -0.008000 -0.107309 -0.181934
v -0.007738 -0.119941 -0.216780
v -0.007573 -0.120991 -0.216946
v -0.008000 -0.118432 -0.217019
v -0.007994 -0.118396 -0.217025
v -0.007573 -0.104963 -0.182678
v -0.007726 -0.117002 -0.217735
v -0.006453 -0.111777 -0.180518
v -0.006396 -0.123986 -0.218841
v -0.006453 -0.123899 -0.218753
v -0.004687 -0.113460 -0.179984
v -0.002461 -0.114528 -0.179645
v -0.007573 -0.109655 -0.181190
v -0.006787 -0.122880 -0.217735
v -0.007347 -0.121486 -0.217025
v -0.007573 -0.116300 -0.218438
v -0.006453 -0.102841 -0.183350
v -0.007318 -0.115896 -0.218841
v -0.004687 -0.101158 -0.183884
v -0.006374 -0.114941 -0.221780
v -0.006453 -0.114969 -0.221605
v -0.006765 -0.115186 -0.220235
v -0.002461 -0.100090 -0.184223
v 0.000000 -0.099683 -0.184352
v -0.000000 -0.114935 -0.179516
v -0.008000 -0.094677 -0.142088
v -0.006453 -0.099145 -0.140672
v -0.004687 -0.100828 -0.140138
v -0.007573 -0.097023 -0.141344
v -0.002461 -0.101896 -0.139799
v -0.007573 -0.092331 -0.142832
v -0.006453 -0.090209 -0.143504
v -0.004687 -0.088526 -0.144038
v -0.002461 -0.087458 -0.144377
v -0.000000 -0.102303 -0.139670
v -0.004687 -0.088196 -0.100292
v -0.002461 -0.089264 -0.099953
v 0.000000 -0.087051 -0.144506
v -0.008000 -0.082044 -0.102242
v -0.006453 -0.086512 -0.100826
v -0.007573 -0.084391 -0.101498
v -0.007573 -0.079698 -0.102986
v -0.006453 -0.077577 -0.103658
v -0.004687 -0.075893 -0.104192
v -0.002461 -0.074825 -0.104531
v 0.000000 -0.074419 -0.104660
v -0.000000 -0.089670 -0.099824
v -0.004687 -0.075563 -0.060446
v -0.007573 -0.071758 -0.061652
v -0.006453 -0.073880 -0.060980
v -0.002461 -0.076631 -0.060107
v -0.000000 -0.077038 -0.059978
v -0.008000 -0.069412 -0.062396
v -0.007573 -0.067066 -0.063140
v -0.006453 -0.064944 -0.063812
v -0.004687 -0.063261 -0.064346
v 0.000000 -0.061786 -0.064814
v -0.002461 -0.062193 -0.064685
v -0.008000 -0.056780 -0.022550
v -0.002461 -0.063999 -0.020261
v -0.006453 -0.061248 -0.021134
v -0.007573 -0.059126 -0.021806
v -0.004687 -0.062931 -0.020600
v -0.000000 -0.064406 -0.020132
v -0.007573 -0.054434 -0.023294
v -0.006453 -0.052312 -0.023966
v -0.004687 -0.050629 -0.024500
v -0.002461 -0.049561 -0.024839
v 0.000000 -0.049154 -0.024968
v -0.000000 -0.056780 -0.022550
v 0.001623 -0.124702 -0.220271
v 0.002461 -0.127160 -0.219491
v 0.003628 -0.124702 -0.220271
v 0.004687 -0.126092 -0.219830
v 0.006145 -0.124702 -0.220271
v 0.006140 -0.124696 -0.220235
v 0.001623 -0.115180 -0.223289
v 0.002461 -0.112722 -0.224069
v 0.004687 -0.113790 -0.223730
v 0.003628 -0.115180 -0.223289
v 0.006145 -0.115180 -0.223289
v 0.002461 -0.114528 -0.179645
v 0.004687 -0.113460 -0.179984
v 0.006396 -0.123986 -0.218841
v 0.006453 -0.123899 -0.218753
v 0.007573 -0.104963 -0.182678
v 0.006765 -0.115186 -0.220235
v 0.006453 -0.114969 -0.221605
v 0.006453 -0.111777 -0.180518
v 0.006787 -0.122880 -0.217735
v 0.007347 -0.121486 -0.217025
v 0.007573 -0.120991 -0.216946
v 0.007573 -0.109655 -0.181190
v 0.007738 -0.119941 -0.216780
v 0.007318 -0.115896 -0.218841
v 0.007573 -0.116300 -0.218438
v 0.008000 -0.118432 -0.217019
v 0.008000 -0.107309 -0.181934
v 0.007994 -0.118396 -0.217025
v 0.007726 -0.117002 -0.217735
v 0.002461 -0.100090 -0.184223
v 0.006453 -0.102841 -0.183350
v 0.004687 -0.101158 -0.183884
v 0.006374 -0.114941 -0.221780
v 0.002461 -0.101896 -0.139799
v 0.004687 -0.100828 -0.140138
v 0.006453 -0.099145 -0.140672
v 0.007573 -0.097023 -0.141344
v 0.002461 -0.087458 -0.144377
v 0.007573 -0.092331 -0.142832
v 0.004687 -0.088526 -0.144038
v 0.006453 -0.090209 -0.143504
v 0.008000 -0.094677 -0.142088
v 0.002461 -0.089264 -0.099953
v 0.004687 -0.088196 -0.100292
v 0.006453 -0.086512 -0.100826
v 0.007573 -0.084391 -0.101498
v 0.002461 -0.074825 -0.104531
v 0.004687 -0.075893 -0.104192
v 0.006453 -0.077577 -0.103658
v 0.007573 -0.079698 -0.102986
v 0.008000 -0.082044 -0.102242
v 0.002461 -0.076631 -0.060107
v 0.004687 -0.075563 -0.060446
v 0.006453 -0.073880 -0.060980
v 0.007573 -0.071758 -0.061652
v 0.007573 -0.067066 -0.063140
v 0.006453 -0.064944 -0.063812
v 0.002461 -0.062193 -0.064685
v 0.004687 -0.063261 -0.064346
v 0.008000 -0.069412 -0.062396
v 0.002461 -0.063999 -0.020261
v 0.004687 -0.062931 -0.020600
v 0.006453 -0.061248 -0.021134
v 0.007573 -0.059126 -0.021806
v 0.008000 -0.056780 -0.022550
v 0.002461 -0.049561 -0.024839
v 0.007573 -0.054434 -0.023294
v 0.006453 -0.052312 -0.023966
v 0.004687 -0.050629 -0.024500
v -0.124000 -0.122880 -0.225825
v -0.124000 -0.123986 -0.224719
v -0.124000 -0.119941 -0.221780
v -0.124000 -0.121486 -0.226535
v -0.124000 -0.119941 -0.226780
v -0.124000 -0.124696 -0.223325
v -0.124000 -0.124941 -0.221780
v -0.124000 -0.124696 -0.220235
v -0.124000 -0.123986 -0.218841
v -0.124000 -0.122880 -0.217735
v -0.124000 -0.121486 -0.217025
v -0.124000 -0.119941 -0.216780
v -0.124000 -0.118396 -0.226535
v -0.124000 -0.117002 -0.225825
v -0.124000 -0.115896 -0.224719
v -0.124000 -0.115186 -0.223325
v -0.124000 -0.114941 -0.221780
v -0.124000 -0.115186 -0.220235
v -0.124000 -0.118396 -0.217025
v -0.124000 -0.117002 -0.217735
v -0.124000 -0.115896 -0.218841
v 0.124000 -0.123986 -0.224719
v 0.124000 -0.124696 -0.223325
v 0.124000 -0.124941 -0.221780
v 0.124000 -0.122880 -0.225825
v 0.124000 -0.121486 -0.226535
v 0.124000 -0.119941 -0.226780
v 0.124000 -0.118396 -0.226535
v 0.124000 -0.117002 -0.225825
v 0.124000 -0.115896 -0.224719
v 0.124000 -0.124696 -0.220235
v 0.124000 -0.115186 -0.223325
v 0.124000 -0.123986 -0.218841
v 0.124000 -0.122880 -0.217735
v 0.124000 -0.121486 -0.217025
v 0.124000 -0.114941 -0.221780
v 0.124000 -0.115896 -0.218841
v 0.124000 -0.115186 -0.220235
v 0.124000 -0.117002 -0.217735
v 0.124000 -0.119941 -0.216780
v 0.124000 -0.118396 -0.217025
v 0.124000 -0.119941 -0.221780
f 1 2 3
f 1 4 2
f 5 6 7
f 1 3 5
f 6 8 9
f 5 3 10
f 5 10 6
f 6 11 8
f 8 11 12
f 6 10 11
f 13 14 15
f 13 16 14
f 17 18 16
f 13 17 16
f 17 19 18
f 19 20 18
f 21 22 23
f 21 24 22
f 21 25 24
f 26 27 25
f 28 29 4
f 28 23 30
f 28 30 29
f 26 31 27
f 32 33 31
f 32 34 33
f 32 35 34
f 36 37 35
f 13 15 36
f 36 15 37
f 13 38 17
f 17 39 19
f 28 4 1
f 1 5 7
f 7 6 9
f 9 8 40
f 21 23 28
f 21 26 25
f 26 32 31
f 32 36 35
f 13 36 38
f 17 38 39
f 1 41 42
f 7 43 41
f 40 44 45
f 43 9 45
f 46 42 47
f 41 43 48
f 43 45 49
f 45 44 50
f 42 41 51
f 46 52 53
f 53 54 55
f 21 28 46
f 1 7 41
f 7 9 43
f 28 1 42
f 9 40 45
f 21 53 26
f 26 55 32
f 32 56 36
f 36 57 38
f 38 58 39
f 21 46 53
f 28 42 46
f 26 53 55
f 32 55 56
f 36 56 57
f 38 57 58
f 55 59 56
f 56 60 57
f 57 61 58
f 62 63 64
f 65 66 62
f 67 68 66
f 63 69 70
f 71 72 73
f 65 62 64
f 64 63 70
f 70 69 74
f 67 66 65
f 67 71 68
f 67 65 75
f 65 64 75
f 64 70 75
f 70 74 75
f 67 75 71
f 71 75 72
f 72 75 76
f 76 75 77
f 77 75 78
f 78 75 79
f 45 50 49
f 44 80 50
f 46 47 52
f 43 49 48
f 41 48 51
f 42 51 47
f 53 52 54
f 55 54 59
f 56 59 60
f 57 60 61
f 51 73 47
f 63 50 80
f 62 49 50
f 48 49 66
f 51 48 68
f 47 81 52
f 47 73 81
f 48 66 68
f 62 66 49
f 62 50 63
f 63 80 69
f 51 68 73
f 52 81 82
f 54 82 83
f 52 82 54
f 54 83 59
f 59 84 60
f 60 85 61
f 59 83 84
f 60 84 85
f 71 73 68
f 72 81 73
f 76 82 81
f 77 83 82
f 83 78 84
f 84 79 85
f 72 76 81
f 76 77 82
f 77 78 83
f 84 78 79
f 8 86 40
f 86 87 88
f 87 89 90
f 90 89 91
f 90 91 92
f 93 92 94
f 93 94 95
f 8 96 86
f 8 12 96
f 86 97 87
f 86 96 97
f 87 97 89
f 19 98 20
f 19 99 98
f 99 100 98
f 99 101 100
f 101 102 100
f 101 103 102
f 93 95 104
f 105 104 106
f 107 108 109
f 107 110 111
f 107 109 110
f 19 112 99
f 101 113 103
f 99 114 101
f 113 111 115
f 113 115 103
f 105 106 116
f 117 116 118
f 117 118 119
f 117 119 108
f 40 86 88
f 88 87 90
f 90 92 93
f 93 104 105
f 105 116 117
f 19 39 112
f 99 112 114
f 107 117 108
f 113 107 111
f 101 114 113
f 40 88 44
f 44 88 120
f 120 90 121
f 93 122 121
f 44 120 80
f 120 121 123
f 121 122 124
f 122 125 126
f 125 127 128
f 129 130 131
f 132 133 129
f 127 131 134
f 88 90 120
f 90 93 121
f 93 105 122
f 105 117 125
f 39 135 112
f 113 131 107
f 112 132 114
f 114 129 113
f 107 127 117
f 105 125 122
f 107 131 127
f 113 129 131
f 39 58 135
f 112 135 132
f 114 132 129
f 117 127 125
f 58 136 135
f 135 137 132
f 69 138 74
f 138 139 140
f 139 141 142
f 143 141 144
f 145 144 146
f 74 138 140
f 140 139 142
f 142 141 143
f 143 144 145
f 147 148 149
f 145 146 148
f 74 140 75
f 75 140 142
f 75 142 143
f 75 143 145
f 75 150 79
f 75 151 150
f 75 152 151
f 75 145 148
f 75 148 147
f 75 147 152
f 80 120 123
f 121 124 123
f 122 126 124
f 125 128 126
f 58 61 136
f 135 136 137
f 131 130 134
f 129 133 130
f 132 137 133
f 127 134 128
f 69 80 123
f 138 123 124
f 139 124 126
f 126 128 141
f 128 134 144
f 130 146 134
f 69 123 138
f 138 124 139
f 139 126 141
f 128 144 141
f 130 149 146
f 137 153 154
f 133 154 149
f 134 146 144
f 61 155 136
f 133 149 130
f 137 154 133
f 136 153 137
f 61 85 155
f 136 155 153
f 155 151 153
f 147 149 154
f 152 154 153
f 85 150 155
f 148 146 149
f 85 79 150
f 155 150 151
f 151 152 153
f 152 147 154
f 156 157 158
f 157 159 158
f 160 156 158
f 159 161 158
f 161 162 158
f 162 163 158
f 158 163 164
f 158 164 165
f 158 165 166
f 158 166 167
f 160 158 168
f 168 158 169
f 169 158 170
f 170 158 171
f 171 158 172
f 158 173 172
f 158 174 175
f 158 167 174
f 158 175 176
f 158 176 173
f 165 24 166
f 166 25 167
f 161 2 162
f 162 29 163
f 163 30 164
f 164 22 165
f 175 174 33
f 176 175 34
f 167 27 174
f 173 176 37
f 165 22 24
f 166 24 25
f 167 25 27
f 161 3 2
f 162 2 4
f 162 4 29
f 159 177 161
f 156 178 157
f 157 179 159
f 160 180 156
f 163 29 30
f 164 30 23
f 164 23 22
f 160 168 181
f 168 169 182
f 169 170 183
f 170 171 184
f 171 172 185
f 172 173 186
f 175 33 34
f 174 27 31
f 174 31 33
f 176 35 37
f 173 37 15
f 173 15 14
f 176 34 35
f 161 177 3
f 173 14 186
f 177 10 3
f 186 14 16
f 177 11 10
f 177 12 11
f 177 96 12
f 157 178 179
f 159 179 177
f 156 180 178
f 160 181 180
f 177 97 96
f 177 89 97
f 177 91 89
f 187 92 91
f 187 94 92
f 188 95 94
f 189 104 95
f 189 106 104
f 168 182 181
f 169 183 182
f 170 184 183
f 171 185 184
f 186 16 18
f 172 186 185
f 186 18 20
f 186 20 98
f 186 98 100
f 186 100 102
f 190 110 109
f 191 108 119
f 191 109 108
f 192 103 115
f 192 102 103
f 193 115 111
f 193 111 110
f 194 116 106
f 195 118 116
f 196 119 118
f 177 187 91
f 187 188 94
f 188 189 95
f 189 194 106
f 186 102 192
f 190 109 191
f 193 110 190
f 196 191 119
f 192 115 193
f 194 195 116
f 195 196 118
f 180 197 178
f 178 197 179
f 181 197 180
f 179 197 177
f 177 197 187
f 187 197 188
f 197 189 188
f 197 194 189
f 197 195 194
f 197 196 195
f 181 182 197
f 182 183 197
f 183 184 197
f 184 185 197
f 185 186 197
f 197 186 192
f 197 190 191
f 197 191 196
f 197 193 190
f 197 192 193
f 198 199 200
f 198 200 201
f 198 201 202
f 202 201 203
f 202 203 204
f 204 203 205
f 206 207 208
f 206 209 207
f 210 211 212
f 209 210 212
f 209 212 207
f 213 214 215
f 213 216 214
f 213 217 216
f 218 219 217
f 220 221 199
f 220 222 221
f 198 202 223
f 220 199 198
f 202 204 224
f 225 226 222
f 225 227 226
f 225 215 227
f 218 228 219
f 229 230 228
f 231 232 233
f 229 234 230
f 229 233 234
f 206 208 231
f 231 208 232
f 206 235 209
f 209 236 210
f 220 198 223
f 225 222 220
f 213 215 225
f 223 202 224
f 224 204 237
f 213 218 217
f 218 229 228
f 229 231 233
f 206 231 235
f 209 235 236
f 213 225 238
f 220 223 239
f 223 224 240
f 225 220 241
f 224 237 242
f 213 243 218
f 218 244 229
f 229 245 231
f 231 246 235
f 213 238 243
f 223 240 239
f 240 224 242
f 237 247 242
f 218 243 244
f 220 239 241
f 225 241 238
f 240 242 248
f 242 247 249
f 235 250 236
f 229 244 245
f 231 245 246
f 235 246 250
f 241 251 238
f 239 240 252
f 241 239 253
f 238 254 243
f 243 255 244
f 244 256 245
f 245 257 246
f 246 258 250
f 238 251 254
f 240 248 252
f 239 252 253
f 241 253 251
f 242 249 248
f 247 259 249
f 244 255 256
f 245 256 257
f 243 254 255
f 246 257 258
f 248 249 260
f 253 252 261
f 252 248 262
f 249 259 263
f 260 249 263
f 259 264 263
f 251 253 265
f 251 266 254
f 254 267 255
f 255 268 256
f 257 269 258
f 256 270 257
f 251 265 266
f 252 262 261
f 248 260 262
f 253 261 265
f 254 266 267
f 255 267 268
f 256 268 270
f 257 270 269
f 261 271 265
f 263 264 272
f 262 260 273
f 261 262 274
f 260 263 275
f 262 273 274
f 260 275 273
f 275 263 272
f 272 264 276
f 265 277 266
f 266 278 267
f 267 279 268
f 268 280 270
f 270 281 269
f 265 271 277
f 261 274 271
f 266 277 278
f 267 278 279
f 268 279 280
f 270 280 281
f 274 273 282
f 271 274 282
f 271 282 277
f 273 275 282
f 275 272 282
f 272 276 282
f 277 282 278
f 278 282 279
f 279 282 280
f 280 282 281
f 204 205 283
f 204 283 284
f 284 285 286
f 284 283 285
f 286 285 287
f 286 287 288
f 210 289 211
f 210 290 289
f 290 291 292
f 290 292 289
f 291 293 292
f 204 284 237
f 284 286 294
f 286 288 295
f 295 288 296
f 295 296 297
f 298 299 300
f 301 297 302
f 301 302 303
f 301 303 304
f 305 304 306
f 298 307 299
f 298 308 307
f 305 306 309
f 310 309 311
f 310 311 312
f 310 312 308
f 210 313 290
f 291 314 293
f 290 315 291
f 314 316 293
f 314 300 316
f 237 284 294
f 294 286 295
f 295 297 301
f 301 304 305
f 305 309 310
f 210 236 313
f 290 313 315
f 291 315 314
f 314 298 300
f 298 310 308
f 237 294 247
f 294 295 317
f 295 301 318
f 301 305 319
f 305 310 320
f 236 321 313
f 314 322 298
f 313 323 315
f 315 324 314
f 298 325 310
f 247 294 317
f 317 295 318
f 301 319 318
f 298 322 325
f 305 320 319
f 310 325 320
f 247 317 259
f 317 318 326
f 318 319 327
f 313 321 323
f 236 250 321
f 315 323 324
f 314 324 322
f 319 320 328
f 320 325 329
f 250 330 321
f 321 331 323
f 323 332 324
f 324 333 322
f 322 334 325
f 259 317 326
f 318 327 326
f 319 328 327
f 320 329 328
f 323 331 332
f 322 333 334
f 324 332 333
f 325 334 329
f 250 258 330
f 321 330 331
f 259 326 264
f 326 327 335
f 327 328 336
f 328 329 337
f 264 326 335
f 335 327 336
f 329 334 338
f 332 339 333
f 331 340 332
f 258 341 330
f 330 342 331
f 334 333 343
f 328 337 336
f 329 338 337
f 333 339 343
f 258 269 341
f 330 341 342
f 331 342 340
f 332 340 339
f 334 343 338
f 264 335 276
f 335 336 344
f 336 337 345
f 337 338 346
f 338 343 347
f 339 348 343
f 276 335 344
f 344 336 345
f 337 346 345
f 338 347 346
f 269 349 341
f 340 350 339
f 340 342 351
f 341 352 342
f 339 350 348
f 340 351 350
f 269 281 349
f 341 349 352
f 342 352 351
f 343 348 347
f 276 344 282
f 344 345 282
f 282 345 346
f 282 346 347
f 282 347 348
f 282 348 350
f 282 349 281
f 282 352 349
f 282 351 352
f 282 350 351
f 353 354 355
f 356 353 355
f 356 355 357
f 354 358 355
f 358 359 355
f 359 360 355
f 355 360 361
f 355 361 362
f 355 362 363
f 355 363 364
f 357 355 365
f 365 355 366
f 366 355 367
f 367 355 368
f 368 355 369
f 355 370 369
f 355 371 372
f 355 372 373
f 355 364 371
f 355 373 370
f 372 371 217
f 371 364 216
f 359 200 360
f 360 221 361
f 361 226 362
f 362 227 363
f 363 214 364
f 368 369 232
f 369 370 234
f 370 373 230
f 373 372 219
f 372 217 219
f 364 214 216
f 371 216 217
f 359 201 200
f 359 203 201
f 353 374 354
f 354 375 358
f 358 376 359
f 359 205 203
f 359 283 205
f 359 285 283
f 356 377 353
f 356 357 378
f 361 221 222
f 360 200 199
f 360 199 221
f 361 222 226
f 362 226 227
f 363 227 215
f 363 215 214
f 368 232 208
f 368 208 207
f 369 233 232
f 369 234 233
f 368 207 212
f 357 365 379
f 365 366 380
f 366 367 381
f 367 368 382
f 368 212 211
f 368 211 289
f 368 289 292
f 373 219 228
f 373 228 230
f 370 230 234
f 359 287 285
f 368 292 293
f 359 383 287
f 368 293 384
f 354 374 375
f 358 375 376
f 359 376 383
f 353 377 374
f 356 378 377
f 357 379 378
f 383 288 287
f 383 296 288
f 385 297 296
f 385 302 297
f 386 303 302
f 387 304 303
f 387 306 304
f 365 380 379
f 366 381 380
f 367 382 381
f 368 384 382
f 384 293 316
f 388 316 300
f 388 300 299
f 389 308 312
f 389 307 308
f 390 299 307
f 391 312 311
f 392 309 306
f 393 311 309
f 383 385 296
f 385 386 302
f 386 387 303
f 387 392 306
f 384 316 388
f 388 299 390
f 390 307 389
f 389 312 391
f 391 311 393
f 393 309 392
f 377 394 374
f 378 394 377
f 378 379 394
f 374 394 375
f 375 394 376
f 376 394 383
f 394 385 383
f 394 386 385
f 394 387 386
f 394 392 387
f 379 380 394
f 380 381 394
f 381 382 394
f 382 384 394
f 384 388 394
f 394 388 390
f 394 391 393
f 394 389 391
f 394 393 392
f 394 390 389
