# sionna2 mesh — mini5pro__motor.obj
# group=motor  verts=1016  tris=2016
v 0.068414 0.111103 -0.004090
v 0.066129 0.110271 -0.002376
v 0.068059 0.112427 -0.004090
v 0.066888 0.108645 -0.002376
v 0.065665 0.112005 -0.002376
v 0.064163 0.107072 -0.000319
v 0.063173 0.109195 -0.000319
v 0.062567 0.111459 -0.000319
v 0.067917 0.107175 -0.002376
v 0.065507 0.105152 -0.000319
v 0.067164 0.103496 -0.000319
v 0.067939 0.113793 -0.004090
v 0.065508 0.113793 -0.002376
v 0.068059 0.115159 -0.004090
v 0.065665 0.115581 -0.002376
v 0.068414 0.116483 -0.004090
v 0.066129 0.117314 -0.002376
v 0.066888 0.118941 -0.002376
v 0.068993 0.117725 -0.004090
v 0.062362 0.113793 -0.000319
v 0.062567 0.116127 -0.000319
v 0.063173 0.118390 -0.000319
v 0.064163 0.120514 -0.000319
v 0.067917 0.120411 -0.002376
v 0.065507 0.122433 -0.000319
v 0.069186 0.121680 -0.002376
v 0.067164 0.124090 -0.000319
v 0.066612 0.102838 0.005337
v 0.063420 0.106643 0.005337
v 0.062367 0.108902 0.005337
v 0.064850 0.104601 0.005337
v 0.068654 0.101409 0.005337
v 0.061722 0.111310 0.005337
v 0.061504 0.113793 0.005337
v 0.061722 0.116276 0.005337
v 0.062367 0.118684 0.005337
v 0.063420 0.120943 0.005337
v 0.064850 0.122985 0.005337
v 0.066612 0.124747 0.005337
v 0.070749 0.107768 -0.004090
v 0.069186 0.105906 -0.002376
v 0.069779 0.108737 -0.004090
v 0.068993 0.109860 -0.004090
v 0.071872 0.106982 -0.004090
v 0.070656 0.104876 -0.002376
v 0.073114 0.106402 -0.004090
v 0.072283 0.104118 -0.002376
v 0.075804 0.113793 -0.004090
v 0.074016 0.103653 -0.002376
v 0.074439 0.106047 -0.004090
v 0.075804 0.105928 -0.004090
v 0.075804 0.103497 -0.002376
v 0.077170 0.106047 -0.004090
v 0.077592 0.103653 -0.002376
v 0.078494 0.106402 -0.004090
v 0.079326 0.104118 -0.002376
v 0.079737 0.106982 -0.004090
v 0.080860 0.107768 -0.004090
v 0.069083 0.102152 -0.000319
v 0.071207 0.101161 -0.000319
v 0.073470 0.100555 -0.000319
v 0.075804 0.100351 -0.000319
v 0.078138 0.100555 -0.000319
v 0.080402 0.101161 -0.000319
v 0.069779 0.118848 -0.004090
v 0.070749 0.119818 -0.004090
v 0.071872 0.120604 -0.004090
v 0.070656 0.122709 -0.002376
v 0.073114 0.121183 -0.004090
v 0.072283 0.123468 -0.002376
v 0.074439 0.121538 -0.004090
v 0.075804 0.121658 -0.004090
v 0.077170 0.121538 -0.004090
v 0.078494 0.121183 -0.004090
v 0.079737 0.120604 -0.004090
v 0.080860 0.119818 -0.004090
v 0.074016 0.123932 -0.002376
v 0.075804 0.124089 -0.002376
v 0.077592 0.123932 -0.002376
v 0.079326 0.123468 -0.002376
v 0.069083 0.125434 -0.000319
v 0.071207 0.126424 -0.000319
v 0.073470 0.127031 -0.000319
v 0.075804 0.127235 -0.000319
v 0.078138 0.127031 -0.000319
v 0.080952 0.104876 -0.002376
v 0.082422 0.105906 -0.002376
v 0.081829 0.108737 -0.004090
v 0.082616 0.109860 -0.004090
v 0.083195 0.111103 -0.004090
v 0.083692 0.107175 -0.002376
v 0.084721 0.108645 -0.002376
v 0.085479 0.110271 -0.002376
v 0.083550 0.112427 -0.004090
v 0.085944 0.112005 -0.002376
v 0.082525 0.102152 -0.000319
v 0.084445 0.103496 -0.000319
v 0.086101 0.105152 -0.000319
v 0.087445 0.107072 -0.000319
v 0.088436 0.109195 -0.000319
v 0.089042 0.111459 -0.000319
v 0.083669 0.113793 -0.004090
v 0.082616 0.117725 -0.004090
v 0.083195 0.116483 -0.004090
v 0.083550 0.115159 -0.004090
v 0.081829 0.118848 -0.004090
v 0.086100 0.113793 -0.002376
v 0.085944 0.115581 -0.002376
v 0.083692 0.120411 -0.002376
v 0.084721 0.118941 -0.002376
v 0.085479 0.117314 -0.002376
v 0.080952 0.122709 -0.002376
v 0.082422 0.121680 -0.002376
v 0.080402 0.126424 -0.000319
v 0.082525 0.125434 -0.000319
v 0.084445 0.124090 -0.000319
v 0.089246 0.113793 -0.000319
v 0.089042 0.116127 -0.000319
v 0.088436 0.118390 -0.000319
v 0.087445 0.120514 -0.000319
v 0.086101 0.122433 -0.000319
v 0.070913 0.100355 0.005337
v 0.073321 0.099710 0.005337
v 0.075804 0.099493 0.005337
v 0.078287 0.099710 0.005337
v 0.068654 0.126177 0.005337
v 0.070913 0.127230 0.005337
v 0.073321 0.127876 0.005337
v 0.075804 0.128093 0.005337
v 0.078287 0.127876 0.005337
v 0.080695 0.100355 0.005337
v 0.082954 0.101409 0.005337
v 0.084996 0.102838 0.005337
v 0.086759 0.104601 0.005337
v 0.088188 0.106643 0.005337
v 0.089242 0.108902 0.005337
v 0.089887 0.111310 0.005337
v 0.080695 0.127230 0.005337
v 0.082954 0.126177 0.005337
v 0.090104 0.113793 0.005337
v 0.089887 0.116276 0.005337
v 0.088188 0.120943 0.005337
v 0.089242 0.118684 0.005337
v 0.084996 0.124747 0.005337
v 0.086759 0.122985 0.005337
v 0.066980 0.103277 0.009965
v 0.063916 0.106929 0.009965
v 0.065288 0.104969 0.009965
v 0.062904 0.109098 0.009965
v 0.068940 0.101904 0.009965
v 0.062285 0.111409 0.009965
v 0.062076 0.113793 0.009965
v 0.062285 0.116177 0.009965
v 0.062904 0.118488 0.009965
v 0.063916 0.120657 0.009965
v 0.065288 0.122617 0.009965
v 0.066980 0.124309 0.009965
v 0.065897 0.108073 0.012193
v 0.065054 0.109880 0.012193
v 0.067041 0.106439 0.012193
v 0.068451 0.105029 0.012193
v 0.064538 0.111806 0.012193
v 0.070603 0.110790 0.013050
v 0.070161 0.111739 0.013050
v 0.064364 0.113793 0.012193
v 0.064538 0.115779 0.012193
v 0.065054 0.117706 0.012193
v 0.065897 0.119513 0.012193
v 0.067041 0.121146 0.012193
v 0.069890 0.112750 0.013050
v 0.069798 0.113793 0.013050
v 0.069890 0.114836 0.013050
v 0.070161 0.115847 0.013050
v 0.068451 0.122556 0.012193
v 0.071109 0.100893 0.009965
v 0.073420 0.100273 0.009965
v 0.075804 0.100065 0.009965
v 0.078188 0.100273 0.009965
v 0.068940 0.125682 0.009965
v 0.071109 0.126693 0.009965
v 0.073420 0.127312 0.009965
v 0.075804 0.127521 0.009965
v 0.078188 0.127312 0.009965
v 0.080500 0.100893 0.009965
v 0.082668 0.101904 0.009965
v 0.084628 0.103277 0.009965
v 0.086321 0.104969 0.009965
v 0.087693 0.106929 0.009965
v 0.088704 0.109098 0.009965
v 0.089324 0.111409 0.009965
v 0.080500 0.126693 0.009965
v 0.082668 0.125682 0.009965
v 0.089532 0.113793 0.009965
v 0.089324 0.116177 0.009965
v 0.088704 0.118488 0.009965
v 0.084628 0.124309 0.009965
v 0.086321 0.122617 0.009965
v 0.087693 0.120657 0.009965
v 0.070084 0.103885 0.012193
v 0.071892 0.103043 0.012193
v 0.073818 0.102527 0.012193
v 0.075804 0.102353 0.012193
v 0.077791 0.102527 0.012193
v 0.071944 0.109192 0.013050
v 0.071203 0.109932 0.013050
v 0.072801 0.108591 0.013050
v 0.073750 0.108149 0.013050
v 0.075804 0.113793 0.013050
v 0.079717 0.103043 0.012193
v 0.074761 0.107878 0.013050
v 0.075804 0.107787 0.013050
v 0.076847 0.107878 0.013050
v 0.077858 0.108149 0.013050
v 0.078807 0.108591 0.013050
v 0.079665 0.109192 0.013050
v 0.080405 0.109932 0.013050
v 0.070084 0.123700 0.012193
v 0.071892 0.124543 0.012193
v 0.073818 0.125059 0.012193
v 0.075804 0.125233 0.012193
v 0.077791 0.125059 0.012193
v 0.070603 0.116796 0.013050
v 0.071203 0.117653 0.013050
v 0.071944 0.118394 0.013050
v 0.072801 0.118994 0.013050
v 0.073750 0.119437 0.013050
v 0.074761 0.119708 0.013050
v 0.075804 0.119799 0.013050
v 0.076847 0.119708 0.013050
v 0.077858 0.119437 0.013050
v 0.079665 0.118394 0.013050
v 0.078807 0.118994 0.013050
v 0.080405 0.117653 0.013050
v 0.079717 0.124543 0.012193
v 0.081524 0.103885 0.012193
v 0.083158 0.105029 0.012193
v 0.084568 0.106439 0.012193
v 0.085712 0.108073 0.012193
v 0.086554 0.109880 0.012193
v 0.087071 0.111806 0.012193
v 0.081006 0.110790 0.013050
v 0.081448 0.111739 0.013050
v 0.081719 0.112750 0.013050
v 0.081524 0.123700 0.012193
v 0.087071 0.115779 0.012193
v 0.087244 0.113793 0.012193
v 0.086554 0.117706 0.012193
v 0.085712 0.119513 0.012193
v 0.083158 0.122556 0.012193
v 0.084568 0.121146 0.012193
v 0.081810 0.113793 0.013050
v 0.081006 0.116796 0.013050
v 0.081448 0.115847 0.013050
v 0.081719 0.114836 0.013050
v -0.082610 0.078874 0.014089
v -0.084715 0.077658 0.015803
v -0.083189 0.080116 0.014089
v -0.081823 0.077751 0.014089
v -0.083686 0.076188 0.015803
v -0.080854 0.076782 0.014089
v -0.082417 0.074919 0.015803
v -0.079731 0.075995 0.014089
v -0.080946 0.073890 0.015803
v -0.078488 0.075416 0.014089
v -0.079320 0.073131 0.015803
v -0.075798 0.082806 0.014089
v -0.085473 0.079285 0.015803
v -0.086096 0.074166 0.017860
v -0.087440 0.076085 0.017860
v -0.088430 0.078209 0.017860
v -0.085938 0.081019 0.015803
v -0.089036 0.080472 0.017860
v -0.084439 0.072509 0.017860
v -0.080396 0.070175 0.017860
v -0.082519 0.071165 0.017860
v -0.078133 0.069569 0.017860
v -0.083544 0.081441 0.014089
v -0.086094 0.082806 0.015803
v -0.083663 0.082806 0.014089
v -0.085938 0.084594 0.015803
v -0.083544 0.084172 0.014089
v -0.085473 0.086328 0.015803
v -0.083189 0.085496 0.014089
v -0.082610 0.086739 0.014089
v -0.084715 0.087954 0.015803
v -0.081823 0.087862 0.014089
v -0.080854 0.088831 0.014089
v -0.083686 0.089425 0.015803
v -0.082417 0.090694 0.015803
v -0.079731 0.089618 0.014089
v -0.080946 0.091723 0.015803
v -0.078488 0.090197 0.014089
v -0.079320 0.092482 0.015803
v -0.089240 0.082806 0.017860
v -0.089036 0.085141 0.017860
v -0.088430 0.087404 0.017860
v -0.087440 0.089527 0.017860
v -0.086096 0.091447 0.017860
v -0.084439 0.093104 0.017860
v -0.082519 0.094448 0.017860
v -0.080396 0.095438 0.017860
v -0.077586 0.092946 0.015803
v -0.077164 0.075061 0.014089
v -0.077586 0.072667 0.015803
v -0.075798 0.074941 0.014089
v -0.075798 0.072510 0.015803
v -0.074433 0.075061 0.014089
v -0.074011 0.072667 0.015803
v -0.073108 0.075416 0.014089
v -0.072277 0.073131 0.015803
v -0.071866 0.075995 0.014089
v -0.070650 0.073890 0.015803
v -0.070743 0.076782 0.014089
v -0.069180 0.074919 0.015803
v -0.069773 0.077751 0.014089
v -0.068987 0.078874 0.014089
v -0.067911 0.076188 0.015803
v -0.066882 0.077658 0.015803
v -0.068408 0.080116 0.014089
v -0.066123 0.079285 0.015803
v -0.075798 0.069364 0.017860
v -0.073464 0.069569 0.017860
v -0.071201 0.070175 0.017860
v -0.069077 0.071165 0.017860
v -0.067158 0.072509 0.017860
v -0.077164 0.090552 0.014089
v -0.075798 0.090671 0.014089
v -0.074433 0.090552 0.014089
v -0.073108 0.090197 0.014089
v -0.071866 0.089618 0.014089
v -0.075798 0.093102 0.015803
v -0.074011 0.092946 0.015803
v -0.068053 0.081441 0.014089
v -0.067933 0.082806 0.014089
v -0.068053 0.084172 0.014089
v -0.070743 0.088831 0.014089
v -0.069773 0.087862 0.014089
v -0.068987 0.086739 0.014089
v -0.068408 0.085496 0.014089
v -0.067911 0.089425 0.015803
v -0.066882 0.087954 0.015803
v -0.072277 0.092482 0.015803
v -0.070650 0.091723 0.015803
v -0.069180 0.090694 0.015803
v -0.078133 0.096044 0.017860
v -0.075798 0.096248 0.017860
v -0.073464 0.096044 0.017860
v -0.071201 0.095438 0.017860
v -0.067158 0.093104 0.017860
v -0.069077 0.094448 0.017860
v -0.089236 0.077916 0.023517
v -0.088183 0.075656 0.023517
v -0.086753 0.073615 0.023517
v -0.084990 0.071852 0.023517
v -0.082948 0.070422 0.023517
v -0.080689 0.069369 0.023517
v -0.078282 0.068724 0.023517
v -0.089881 0.080323 0.023517
v -0.090098 0.082806 0.023517
v -0.089881 0.085290 0.023517
v -0.089236 0.087697 0.023517
v -0.088183 0.089956 0.023517
v -0.086753 0.091998 0.023517
v -0.084990 0.093761 0.023517
v -0.082948 0.095191 0.023517
v -0.080689 0.096244 0.023517
v -0.075798 0.068506 0.023517
v -0.073315 0.068724 0.023517
v -0.070908 0.069369 0.023517
v -0.068648 0.070422 0.023517
v -0.066607 0.071852 0.023517
v -0.070908 0.096244 0.023517
v -0.068648 0.095191 0.023517
v -0.078282 0.096889 0.023517
v -0.075798 0.097106 0.023517
v -0.073315 0.096889 0.023517
v -0.065501 0.074166 0.017860
v -0.064157 0.076085 0.017860
v -0.063167 0.078209 0.017860
v -0.062561 0.080472 0.017860
v -0.065659 0.081019 0.015803
v -0.065502 0.082806 0.015803
v -0.065659 0.084594 0.015803
v -0.066123 0.086328 0.015803
v -0.064157 0.089527 0.017860
v -0.063167 0.087404 0.017860
v -0.062356 0.082806 0.017860
v -0.062561 0.085141 0.017860
v -0.065501 0.091447 0.017860
v -0.064844 0.073615 0.023517
v -0.063414 0.075656 0.023517
v -0.062361 0.077916 0.023517
v -0.061716 0.080323 0.023517
v -0.061498 0.082806 0.023517
v -0.061716 0.085290 0.023517
v -0.062361 0.087697 0.023517
v -0.064844 0.091998 0.023517
v -0.066607 0.093761 0.023517
v -0.063414 0.089956 0.023517
v -0.088699 0.078111 0.028145
v -0.087687 0.075942 0.028145
v -0.086315 0.073982 0.028145
v -0.084623 0.072290 0.028145
v -0.089318 0.080423 0.028145
v -0.082662 0.070918 0.028145
v -0.080494 0.069906 0.028145
v -0.078182 0.069287 0.028145
v -0.089526 0.082806 0.028145
v -0.089318 0.085190 0.028145
v -0.088699 0.087502 0.028145
v -0.087687 0.089670 0.028145
v -0.086315 0.091631 0.028145
v -0.084623 0.093323 0.028145
v -0.082662 0.094695 0.028145
v -0.080494 0.095707 0.028145
v -0.075798 0.069078 0.028145
v -0.073415 0.069287 0.028145
v -0.071103 0.069906 0.028145
v -0.068934 0.070918 0.028145
v -0.066974 0.072290 0.028145
v -0.071103 0.095707 0.028145
v -0.068934 0.094695 0.028145
v -0.085706 0.077086 0.030373
v -0.086548 0.078894 0.030373
v -0.084562 0.075453 0.030373
v -0.083152 0.074043 0.030373
v -0.081518 0.072899 0.030373
v -0.079711 0.072056 0.030373
v -0.087065 0.080820 0.030373
v -0.077785 0.071540 0.030373
v -0.079659 0.078206 0.031230
v -0.080399 0.078946 0.031230
v -0.081000 0.079803 0.031230
v -0.081442 0.080752 0.031230
v -0.078801 0.077605 0.031230
v -0.077853 0.077163 0.031230
v -0.087238 0.082806 0.030373
v -0.087065 0.084793 0.030373
v -0.086548 0.086719 0.030373
v -0.085706 0.088526 0.030373
v -0.084562 0.090160 0.030373
v -0.083152 0.091570 0.030373
v -0.081518 0.092714 0.030373
v -0.079711 0.093557 0.030373
v -0.078182 0.096326 0.028145
v -0.081713 0.081764 0.031230
v -0.081804 0.082806 0.031230
v -0.081713 0.083849 0.031230
v -0.081442 0.084861 0.031230
v -0.081000 0.085809 0.031230
v -0.080399 0.086667 0.031230
v -0.075798 0.082806 0.031230
v -0.079659 0.087407 0.031230
v -0.078801 0.088008 0.031230
v -0.075798 0.071366 0.030373
v -0.073812 0.071540 0.030373
v -0.071886 0.072056 0.030373
v -0.070078 0.072899 0.030373
v -0.068445 0.074043 0.030373
v -0.076841 0.076892 0.031230
v -0.075798 0.076800 0.031230
v -0.074755 0.076892 0.031230
v -0.073744 0.077163 0.031230
v -0.072795 0.077605 0.031230
v -0.071938 0.078206 0.031230
v -0.071198 0.078946 0.031230
v -0.067035 0.075453 0.030373
v -0.065891 0.077086 0.030373
v -0.070597 0.079803 0.031230
v -0.070155 0.080752 0.031230
v -0.077785 0.094073 0.030373
v -0.075798 0.096534 0.028145
v -0.075798 0.094246 0.030373
v -0.073415 0.096326 0.028145
v -0.073812 0.094073 0.030373
v -0.071886 0.093557 0.030373
v -0.070078 0.092714 0.030373
v -0.066974 0.093323 0.028145
v -0.077853 0.088450 0.031230
v -0.076841 0.088721 0.031230
v -0.075798 0.088812 0.031230
v -0.074755 0.088721 0.031230
v -0.073744 0.088450 0.031230
v -0.072795 0.088008 0.031230
v -0.071938 0.087407 0.031230
v -0.069884 0.081764 0.031230
v -0.069792 0.082806 0.031230
v -0.069884 0.083849 0.031230
v -0.070155 0.084861 0.031230
v -0.071198 0.086667 0.031230
v -0.070597 0.085809 0.031230
v -0.065048 0.078894 0.030373
v -0.064532 0.080820 0.030373
v -0.064358 0.082806 0.030373
v -0.065891 0.088526 0.030373
v -0.065048 0.086719 0.030373
v -0.064532 0.084793 0.030373
v -0.068445 0.091570 0.030373
v -0.067035 0.090160 0.030373
v -0.065282 0.073982 0.028145
v -0.063910 0.075942 0.028145
v -0.062898 0.078111 0.028145
v -0.062279 0.080423 0.028145
v -0.062898 0.087502 0.028145
v -0.062070 0.082806 0.028145
v -0.062279 0.085190 0.028145
v -0.065282 0.091631 0.028145
v -0.063910 0.089670 0.028145
v -0.078133 -0.096044 0.017860
v -0.078282 -0.096889 0.023517
v -0.080396 -0.095438 0.017860
v -0.080689 -0.096244 0.023517
v -0.075798 -0.096248 0.017860
v -0.075798 -0.097106 0.023517
v -0.073464 -0.096044 0.017860
v -0.073315 -0.096889 0.023517
v -0.070908 -0.096244 0.023517
v -0.085473 -0.086328 0.015803
v -0.085938 -0.084594 0.015803
v -0.083544 -0.084172 0.014089
v -0.086094 -0.082806 0.015803
v -0.083663 -0.082806 0.014089
v -0.085938 -0.081019 0.015803
v -0.083544 -0.081441 0.014089
v -0.085473 -0.079285 0.015803
v -0.083189 -0.080116 0.014089
v -0.080854 -0.088831 0.014089
v -0.082417 -0.090694 0.015803
v -0.081823 -0.087862 0.014089
v -0.079731 -0.089618 0.014089
v -0.080946 -0.091723 0.015803
v -0.078488 -0.090197 0.014089
v -0.079320 -0.092482 0.015803
v -0.083686 -0.089425 0.015803
v -0.082610 -0.086739 0.014089
v -0.084715 -0.087954 0.015803
v -0.083189 -0.085496 0.014089
v -0.075798 -0.082806 0.014089
v -0.082610 -0.078874 0.014089
v -0.086096 -0.091447 0.017860
v -0.087440 -0.089527 0.017860
v -0.084439 -0.093104 0.017860
v -0.088430 -0.087404 0.017860
v -0.089036 -0.085141 0.017860
v -0.089240 -0.082806 0.017860
v -0.089036 -0.080472 0.017860
v -0.082519 -0.094448 0.017860
v -0.084715 -0.077658 0.015803
v -0.081823 -0.077751 0.014089
v -0.083686 -0.076188 0.015803
v -0.080854 -0.076782 0.014089
v -0.082417 -0.074919 0.015803
v -0.079731 -0.075995 0.014089
v -0.080946 -0.073890 0.015803
v -0.078488 -0.075416 0.014089
v -0.079320 -0.073131 0.015803
v -0.088430 -0.078209 0.017860
v -0.087440 -0.076085 0.017860
v -0.086096 -0.074166 0.017860
v -0.084439 -0.072509 0.017860
v -0.082519 -0.071165 0.017860
v -0.080396 -0.070175 0.017860
v -0.077586 -0.072667 0.015803
v -0.077164 -0.090552 0.014089
v -0.077586 -0.092946 0.015803
v -0.075798 -0.090671 0.014089
v -0.075798 -0.093102 0.015803
v -0.074433 -0.090552 0.014089
v -0.074011 -0.092946 0.015803
v -0.073108 -0.090197 0.014089
v -0.072277 -0.092482 0.015803
v -0.071866 -0.089618 0.014089
v -0.070650 -0.091723 0.015803
v -0.070743 -0.088831 0.014089
v -0.069180 -0.090694 0.015803
v -0.069773 -0.087862 0.014089
v -0.067911 -0.089425 0.015803
v -0.066882 -0.087954 0.015803
v -0.068987 -0.086739 0.014089
v -0.068408 -0.085496 0.014089
v -0.068053 -0.084172 0.014089
v -0.067933 -0.082806 0.014089
v -0.068053 -0.081441 0.014089
v -0.068408 -0.080116 0.014089
v -0.068987 -0.078874 0.014089
v -0.066123 -0.086328 0.015803
v -0.071201 -0.095438 0.017860
v -0.069077 -0.094448 0.017860
v -0.067158 -0.093104 0.017860
v -0.077164 -0.075061 0.014089
v -0.075798 -0.074941 0.014089
v -0.074433 -0.075061 0.014089
v -0.073108 -0.075416 0.014089
v -0.071866 -0.075995 0.014089
v -0.075798 -0.072510 0.015803
v -0.074011 -0.072667 0.015803
v -0.070743 -0.076782 0.014089
v -0.069773 -0.077751 0.014089
v -0.072277 -0.073131 0.015803
v -0.070650 -0.073890 0.015803
v -0.069180 -0.074919 0.015803
v -0.066882 -0.077658 0.015803
v -0.067911 -0.076188 0.015803
v -0.078133 -0.069569 0.017860
v -0.075798 -0.069364 0.017860
v -0.073464 -0.069569 0.017860
v -0.071201 -0.070175 0.017860
v -0.069077 -0.071165 0.017860
v -0.067158 -0.072509 0.017860
v -0.088183 -0.089956 0.023517
v -0.084990 -0.093761 0.023517
v -0.086753 -0.091998 0.023517
v -0.089236 -0.087697 0.023517
v -0.089881 -0.085290 0.023517
v -0.090098 -0.082806 0.023517
v -0.082948 -0.095191 0.023517
v -0.089881 -0.080323 0.023517
v -0.089236 -0.077916 0.023517
v -0.088183 -0.075656 0.023517
v -0.086753 -0.073615 0.023517
v -0.084990 -0.071852 0.023517
v -0.082948 -0.070422 0.023517
v -0.080689 -0.069369 0.023517
v -0.078282 -0.068724 0.023517
v -0.068648 -0.095191 0.023517
v -0.066607 -0.093761 0.023517
v -0.075798 -0.068506 0.023517
v -0.073315 -0.068724 0.023517
v -0.070908 -0.069369 0.023517
v -0.068648 -0.070422 0.023517
v -0.065659 -0.084594 0.015803
v -0.065502 -0.082806 0.015803
v -0.065659 -0.081019 0.015803
v -0.066123 -0.079285 0.015803
v -0.065501 -0.091447 0.017860
v -0.064157 -0.089527 0.017860
v -0.063167 -0.087404 0.017860
v -0.062561 -0.085141 0.017860
v -0.062356 -0.082806 0.017860
v -0.062561 -0.080472 0.017860
v -0.063167 -0.078209 0.017860
v -0.064157 -0.076085 0.017860
v -0.065501 -0.074166 0.017860
v -0.064844 -0.091998 0.023517
v -0.063414 -0.089956 0.023517
v -0.062361 -0.087697 0.023517
v -0.061716 -0.085290 0.023517
v -0.061498 -0.082806 0.023517
v -0.061716 -0.080323 0.023517
v -0.066607 -0.071852 0.023517
v -0.064844 -0.073615 0.023517
v -0.063414 -0.075656 0.023517
v -0.062361 -0.077916 0.023517
v -0.078182 -0.096326 0.028145
v -0.080494 -0.095707 0.028145
v -0.075798 -0.096534 0.028145
v -0.073415 -0.096326 0.028145
v -0.071103 -0.095707 0.028145
v -0.087687 -0.089670 0.028145
v -0.084623 -0.093323 0.028145
v -0.086315 -0.091631 0.028145
v -0.088699 -0.087502 0.028145
v -0.089318 -0.085190 0.028145
v -0.089526 -0.082806 0.028145
v -0.089318 -0.080423 0.028145
v -0.082662 -0.094695 0.028145
v -0.088699 -0.078111 0.028145
v -0.087687 -0.075942 0.028145
v -0.086315 -0.073982 0.028145
v -0.084623 -0.072290 0.028145
v -0.082662 -0.070918 0.028145
v -0.080494 -0.069906 0.028145
v -0.078182 -0.069287 0.028145
v -0.068934 -0.094695 0.028145
v -0.066974 -0.093323 0.028145
v -0.075798 -0.069078 0.028145
v -0.073415 -0.069287 0.028145
v -0.071103 -0.069906 0.028145
v -0.068934 -0.070918 0.028145
v -0.085706 -0.088526 0.030373
v -0.083152 -0.091570 0.030373
v -0.084562 -0.090160 0.030373
v -0.086548 -0.086719 0.030373
v -0.087065 -0.084793 0.030373
v -0.087238 -0.082806 0.030373
v -0.081518 -0.092714 0.030373
v -0.079711 -0.093557 0.030373
v -0.087065 -0.080820 0.030373
v -0.081442 -0.084861 0.031230
v -0.081713 -0.083849 0.031230
v -0.081804 -0.082806 0.031230
v -0.081713 -0.081764 0.031230
v -0.086548 -0.078894 0.030373
v -0.077785 -0.094073 0.030373
v -0.080399 -0.086667 0.031230
v -0.079659 -0.087407 0.031230
v -0.078801 -0.088008 0.031230
v -0.077853 -0.088450 0.031230
v -0.081000 -0.085809 0.031230
v -0.081442 -0.080752 0.031230
v -0.075798 -0.082806 0.031230
v -0.081000 -0.079803 0.031230
v -0.080399 -0.078946 0.031230
v -0.085706 -0.077086 0.030373
v -0.084562 -0.075453 0.030373
v -0.083152 -0.074043 0.030373
v -0.081518 -0.072899 0.030373
v -0.079711 -0.072056 0.030373
v -0.079659 -0.078206 0.031230
v -0.078801 -0.077605 0.031230
v -0.075798 -0.094246 0.030373
v -0.073812 -0.094073 0.030373
v -0.071886 -0.093557 0.030373
v -0.070078 -0.092714 0.030373
v -0.068445 -0.091570 0.030373
v -0.076841 -0.088721 0.031230
v -0.075798 -0.088812 0.031230
v -0.074755 -0.088721 0.031230
v -0.073744 -0.088450 0.031230
v -0.072795 -0.088008 0.031230
v -0.071938 -0.087407 0.031230
v -0.071198 -0.086667 0.031230
v -0.067035 -0.090160 0.030373
v -0.065891 -0.088526 0.030373
v -0.070597 -0.085809 0.031230
v -0.070155 -0.084861 0.031230
v -0.069884 -0.083849 0.031230
v -0.069792 -0.082806 0.031230
v -0.069884 -0.081764 0.031230
v -0.070597 -0.079803 0.031230
v -0.071198 -0.078946 0.031230
v -0.070155 -0.080752 0.031230
v -0.065048 -0.086719 0.030373
v -0.064532 -0.084793 0.030373
v -0.064358 -0.082806 0.030373
v -0.064532 -0.080820 0.030373
v -0.077785 -0.071540 0.030373
v -0.075798 -0.071366 0.030373
v -0.073812 -0.071540 0.030373
v -0.071886 -0.072056 0.030373
v -0.070078 -0.072899 0.030373
v -0.066974 -0.072290 0.028145
v -0.077853 -0.077163 0.031230
v -0.076841 -0.076892 0.031230
v -0.075798 -0.076800 0.031230
v -0.074755 -0.076892 0.031230
v -0.073744 -0.077163 0.031230
v -0.072795 -0.077605 0.031230
v -0.071938 -0.078206 0.031230
v -0.068445 -0.074043 0.030373
v -0.067035 -0.075453 0.030373
v -0.065891 -0.077086 0.030373
v -0.065048 -0.078894 0.030373
v -0.065282 -0.091631 0.028145
v -0.063910 -0.089670 0.028145
v -0.062898 -0.087502 0.028145
v -0.062279 -0.085190 0.028145
v -0.062070 -0.082806 0.028145
v -0.062279 -0.080423 0.028145
v -0.062898 -0.078111 0.028145
v -0.063910 -0.075942 0.028145
v -0.065282 -0.073982 0.028145
v 0.068414 -0.116483 -0.004090
v 0.066129 -0.117314 -0.002376
v 0.068059 -0.115159 -0.004090
v 0.065665 -0.115581 -0.002376
v 0.067939 -0.113793 -0.004090
v 0.065508 -0.113793 -0.002376
v 0.068059 -0.112427 -0.004090
v 0.066888 -0.118941 -0.002376
v 0.065665 -0.112005 -0.002376
v 0.067917 -0.120411 -0.002376
v 0.065507 -0.122433 -0.000319
v 0.064163 -0.120514 -0.000319
v 0.067164 -0.124090 -0.000319
v 0.063173 -0.118390 -0.000319
v 0.062567 -0.116127 -0.000319
v 0.062362 -0.113793 -0.000319
v 0.062567 -0.111459 -0.000319
v 0.068414 -0.111103 -0.004090
v 0.066129 -0.110271 -0.002376
v 0.066888 -0.108645 -0.002376
v 0.068993 -0.109860 -0.004090
v 0.063173 -0.109195 -0.000319
v 0.064163 -0.107072 -0.000319
v 0.067917 -0.107175 -0.002376
v 0.065507 -0.105152 -0.000319
v 0.069186 -0.105906 -0.002376
v 0.067164 -0.103496 -0.000319
v 0.064850 -0.122985 0.005337
v 0.066612 -0.124747 0.005337
v 0.062367 -0.118684 0.005337
v 0.063420 -0.120943 0.005337
v 0.061722 -0.116276 0.005337
v 0.061504 -0.113793 0.005337
v 0.061722 -0.111310 0.005337
v 0.068654 -0.126177 0.005337
v 0.062367 -0.108902 0.005337
v 0.063420 -0.106643 0.005337
v 0.064850 -0.104601 0.005337
v 0.066612 -0.102838 0.005337
v 0.070749 -0.119818 -0.004090
v 0.069186 -0.121680 -0.002376
v 0.069779 -0.118848 -0.004090
v 0.071872 -0.120604 -0.004090
v 0.070656 -0.122709 -0.002376
v 0.073114 -0.121183 -0.004090
v 0.072283 -0.123468 -0.002376
v 0.074016 -0.123932 -0.002376
v 0.068993 -0.117725 -0.004090
v 0.075804 -0.113793 -0.004090
v 0.074439 -0.121538 -0.004090
v 0.075804 -0.121658 -0.004090
v 0.075804 -0.124089 -0.002376
v 0.077170 -0.121538 -0.004090
v 0.077592 -0.123932 -0.002376
v 0.078494 -0.121183 -0.004090
v 0.079326 -0.123468 -0.002376
v 0.079737 -0.120604 -0.004090
v 0.080860 -0.119818 -0.004090
v 0.071207 -0.126424 -0.000319
v 0.069083 -0.125434 -0.000319
v 0.073470 -0.127031 -0.000319
v 0.075804 -0.127235 -0.000319
v 0.078138 -0.127031 -0.000319
v 0.080402 -0.126424 -0.000319
v 0.069779 -0.108737 -0.004090
v 0.070749 -0.107768 -0.004090
v 0.071872 -0.106982 -0.004090
v 0.070656 -0.104876 -0.002376
v 0.073114 -0.106402 -0.004090
v 0.072283 -0.104118 -0.002376
v 0.074439 -0.106047 -0.004090
v 0.075804 -0.105928 -0.004090
v 0.074016 -0.103653 -0.002376
v 0.077170 -0.106047 -0.004090
v 0.078494 -0.106402 -0.004090
v 0.079737 -0.106982 -0.004090
v 0.080860 -0.107768 -0.004090
v 0.075804 -0.103497 -0.002376
v 0.077592 -0.103653 -0.002376
v 0.079326 -0.104118 -0.002376
v 0.069083 -0.102152 -0.000319
v 0.071207 -0.101161 -0.000319
v 0.073470 -0.100555 -0.000319
v 0.075804 -0.100351 -0.000319
v 0.078138 -0.100555 -0.000319
v 0.080952 -0.122709 -0.002376
v 0.082422 -0.121680 -0.002376
v 0.083692 -0.120411 -0.002376
v 0.081829 -0.118848 -0.004090
v 0.082616 -0.117725 -0.004090
v 0.083195 -0.116483 -0.004090
v 0.083550 -0.115159 -0.004090
v 0.083669 -0.113793 -0.004090
v 0.083195 -0.111103 -0.004090
v 0.083550 -0.112427 -0.004090
v 0.084721 -0.118941 -0.002376
v 0.085479 -0.117314 -0.002376
v 0.085944 -0.115581 -0.002376
v 0.086100 -0.113793 -0.002376
v 0.085944 -0.112005 -0.002376
v 0.082525 -0.125434 -0.000319
v 0.084445 -0.124090 -0.000319
v 0.086101 -0.122433 -0.000319
v 0.087445 -0.120514 -0.000319
v 0.088436 -0.118390 -0.000319
v 0.089042 -0.116127 -0.000319
v 0.089246 -0.113793 -0.000319
v 0.089042 -0.111459 -0.000319
v 0.081829 -0.108737 -0.004090
v 0.082616 -0.109860 -0.004090
v 0.080952 -0.104876 -0.002376
v 0.083692 -0.107175 -0.002376
v 0.085479 -0.110271 -0.002376
v 0.084721 -0.108645 -0.002376
v 0.082422 -0.105906 -0.002376
v 0.082525 -0.102152 -0.000319
v 0.084445 -0.103496 -0.000319
v 0.080402 -0.101161 -0.000319
v 0.088436 -0.109195 -0.000319
v 0.087445 -0.107072 -0.000319
v 0.086101 -0.105152 -0.000319
v 0.070913 -0.127230 0.005337
v 0.073321 -0.127876 0.005337
v 0.075804 -0.128093 0.005337
v 0.078287 -0.127876 0.005337
v 0.068654 -0.101409 0.005337
v 0.070913 -0.100355 0.005337
v 0.073321 -0.099710 0.005337
v 0.075804 -0.099493 0.005337
v 0.078287 -0.099710 0.005337
v 0.080695 -0.127230 0.005337
v 0.082954 -0.126177 0.005337
v 0.084996 -0.124747 0.005337
v 0.086759 -0.122985 0.005337
v 0.088188 -0.120943 0.005337
v 0.089242 -0.118684 0.005337
v 0.089887 -0.116276 0.005337
v 0.090104 -0.113793 0.005337
v 0.089887 -0.111310 0.005337
v 0.080695 -0.100355 0.005337
v 0.082954 -0.101409 0.005337
v 0.086759 -0.104601 0.005337
v 0.089242 -0.108902 0.005337
v 0.088188 -0.106643 0.005337
v 0.084996 -0.102838 0.005337
v 0.062285 -0.116177 0.009965
v 0.062076 -0.113793 0.009965
v 0.063916 -0.120657 0.009965
v 0.065288 -0.122617 0.009965
v 0.066980 -0.124309 0.009965
v 0.062904 -0.118488 0.009965
v 0.068940 -0.125682 0.009965
v 0.062285 -0.111409 0.009965
v 0.062904 -0.109098 0.009965
v 0.063916 -0.106929 0.009965
v 0.065288 -0.104969 0.009965
v 0.066980 -0.103277 0.009965
v 0.067041 -0.121146 0.012193
v 0.068451 -0.122556 0.012193
v 0.065897 -0.119513 0.012193
v 0.065054 -0.117706 0.012193
v 0.064538 -0.115779 0.012193
v 0.064364 -0.113793 0.012193
v 0.064538 -0.111806 0.012193
v 0.070161 -0.115847 0.013050
v 0.070603 -0.116796 0.013050
v 0.069890 -0.114836 0.013050
v 0.069798 -0.113793 0.013050
v 0.065054 -0.109880 0.012193
v 0.065897 -0.108073 0.012193
v 0.067041 -0.106439 0.012193
v 0.068451 -0.105029 0.012193
v 0.069890 -0.112750 0.013050
v 0.070161 -0.111739 0.013050
v 0.071109 -0.126693 0.009965
v 0.073420 -0.127312 0.009965
v 0.075804 -0.127521 0.009965
v 0.078188 -0.127312 0.009965
v 0.068940 -0.101904 0.009965
v 0.071109 -0.100893 0.009965
v 0.073420 -0.100273 0.009965
v 0.075804 -0.100065 0.009965
v 0.078188 -0.100273 0.009965
v 0.080500 -0.126693 0.009965
v 0.082668 -0.125682 0.009965
v 0.084628 -0.124309 0.009965
v 0.086321 -0.122617 0.009965
v 0.087693 -0.120657 0.009965
v 0.088704 -0.118488 0.009965
v 0.089324 -0.116177 0.009965
v 0.089532 -0.113793 0.009965
v 0.089324 -0.111409 0.009965
v 0.080500 -0.100893 0.009965
v 0.082668 -0.101904 0.009965
v 0.086321 -0.104969 0.009965
v 0.088704 -0.109098 0.009965
v 0.087693 -0.106929 0.009965
v 0.084628 -0.103277 0.009965
v 0.070084 -0.123700 0.012193
v 0.071892 -0.124543 0.012193
v 0.073818 -0.125059 0.012193
v 0.075804 -0.125233 0.012193
v 0.077791 -0.125059 0.012193
v 0.071944 -0.118394 0.013050
v 0.072801 -0.118994 0.013050
v 0.073750 -0.119437 0.013050
v 0.071203 -0.117653 0.013050
v 0.075804 -0.113793 0.013050
v 0.070603 -0.110790 0.013050
v 0.079717 -0.124543 0.012193
v 0.074761 -0.119708 0.013050
v 0.075804 -0.119799 0.013050
v 0.076847 -0.119708 0.013050
v 0.077858 -0.119437 0.013050
v 0.078807 -0.118994 0.013050
v 0.079665 -0.118394 0.013050
v 0.080405 -0.117653 0.013050
v 0.070084 -0.103885 0.012193
v 0.071892 -0.103043 0.012193
v 0.073818 -0.102527 0.012193
v 0.075804 -0.102353 0.012193
v 0.077791 -0.102527 0.012193
v 0.071203 -0.109932 0.013050
v 0.071944 -0.109192 0.013050
v 0.072801 -0.108591 0.013050
v 0.073750 -0.108149 0.013050
v 0.074761 -0.107878 0.013050
v 0.075804 -0.107787 0.013050
v 0.076847 -0.107878 0.013050
v 0.077858 -0.108149 0.013050
v 0.078807 -0.108591 0.013050
v 0.079665 -0.109192 0.013050
v 0.080405 -0.109932 0.013050
v 0.079717 -0.103043 0.012193
v 0.081524 -0.123700 0.012193
v 0.083158 -0.122556 0.012193
v 0.084568 -0.121146 0.012193
v 0.085712 -0.119513 0.012193
v 0.086554 -0.117706 0.012193
v 0.087071 -0.115779 0.012193
v 0.087071 -0.111806 0.012193
v 0.087244 -0.113793 0.012193
v 0.081006 -0.116796 0.013050
v 0.081448 -0.115847 0.013050
v 0.081719 -0.114836 0.013050
v 0.081810 -0.113793 0.013050
v 0.081448 -0.111739 0.013050
v 0.081006 -0.110790 0.013050
v 0.081719 -0.112750 0.013050
v 0.081524 -0.103885 0.012193
v 0.083158 -0.105029 0.012193
v 0.084568 -0.106439 0.012193
v 0.086554 -0.109880 0.012193
v 0.085712 -0.108073 0.012193
f 1 2 3
f 4 2 1
f 2 5 3
f 6 7 2
f 7 8 5
f 9 10 4
f 10 6 4
f 11 10 9
f 4 6 2
f 2 7 5
f 3 5 12
f 12 13 14
f 14 15 16
f 5 13 12
f 13 15 14
f 15 17 16
f 17 18 19
f 5 8 13
f 13 20 15
f 8 20 13
f 20 21 15
f 21 22 17
f 22 23 18
f 15 21 17
f 17 22 18
f 18 23 24
f 24 25 26
f 23 25 24
f 25 27 26
f 11 28 10
f 6 29 7
f 7 30 8
f 10 31 6
f 32 28 11
f 31 29 6
f 29 30 7
f 30 33 8
f 28 31 10
f 8 33 20
f 20 34 21
f 21 35 22
f 22 36 23
f 23 37 25
f 25 38 27
f 33 34 20
f 34 35 21
f 35 36 22
f 36 37 23
f 37 38 25
f 38 39 27
f 40 41 42
f 43 4 1
f 42 9 43
f 44 45 40
f 46 47 44
f 48 43 1
f 48 42 43
f 48 44 40
f 48 40 42
f 41 9 42
f 45 41 40
f 9 4 43
f 47 45 44
f 49 47 46
f 50 49 46
f 51 52 50
f 48 46 44
f 48 50 46
f 48 51 50
f 53 54 51
f 55 56 53
f 48 53 51
f 48 55 53
f 48 57 55
f 48 58 57
f 52 49 50
f 54 52 51
f 56 54 53
f 59 11 41
f 60 59 45
f 47 60 45
f 61 60 47
f 41 11 9
f 45 59 41
f 49 61 47
f 52 62 49
f 62 61 49
f 54 63 52
f 63 62 52
f 64 63 54
f 16 17 19
f 19 18 65
f 65 24 66
f 48 1 3
f 48 3 12
f 48 12 14
f 48 14 16
f 48 16 19
f 48 19 65
f 48 65 66
f 48 66 67
f 18 24 65
f 66 26 67
f 67 68 69
f 24 26 66
f 26 68 67
f 68 70 69
f 48 67 69
f 48 69 71
f 48 71 72
f 48 72 73
f 48 73 74
f 48 75 76
f 48 74 75
f 69 70 71
f 71 77 72
f 72 78 73
f 73 79 74
f 70 77 71
f 77 78 72
f 78 79 73
f 79 80 74
f 26 27 68
f 27 81 68
f 68 81 70
f 70 82 77
f 81 82 70
f 82 83 77
f 77 83 78
f 83 84 78
f 78 84 79
f 79 85 80
f 84 85 79
f 57 86 55
f 58 87 57
f 48 88 58
f 48 89 88
f 48 90 89
f 88 91 58
f 89 92 88
f 90 93 89
f 94 95 90
f 86 56 55
f 87 86 57
f 91 87 58
f 92 91 88
f 93 92 89
f 95 93 90
f 56 64 54
f 86 96 56
f 96 64 56
f 97 96 86
f 87 97 86
f 91 98 87
f 98 97 87
f 92 99 91
f 99 98 91
f 93 100 92
f 95 101 93
f 100 99 92
f 101 100 93
f 48 94 90
f 48 102 94
f 48 103 104
f 48 104 105
f 48 105 102
f 48 76 106
f 48 106 103
f 102 107 94
f 105 108 102
f 106 109 103
f 103 110 104
f 104 111 105
f 110 111 104
f 109 110 103
f 74 80 75
f 75 112 76
f 76 113 106
f 80 112 75
f 112 113 76
f 113 109 106
f 107 95 94
f 111 108 105
f 108 107 102
f 80 114 112
f 85 114 80
f 114 115 112
f 112 115 113
f 113 116 109
f 115 116 113
f 107 117 95
f 108 118 107
f 111 119 108
f 110 120 111
f 120 119 111
f 117 101 95
f 118 117 107
f 119 118 108
f 109 121 110
f 116 121 109
f 121 120 110
f 59 32 11
f 60 122 59
f 61 123 60
f 62 124 61
f 63 125 62
f 122 32 59
f 123 122 60
f 124 123 61
f 125 124 62
f 27 39 81
f 81 126 82
f 82 127 83
f 83 128 84
f 84 129 85
f 39 126 81
f 126 127 82
f 127 128 83
f 128 129 84
f 129 130 85
f 64 131 63
f 96 132 64
f 97 133 96
f 98 134 97
f 99 135 98
f 100 136 99
f 101 137 100
f 131 125 63
f 132 131 64
f 133 132 96
f 134 133 97
f 135 134 98
f 136 135 99
f 137 136 100
f 85 130 114
f 114 138 115
f 115 139 116
f 117 140 101
f 118 141 117
f 120 142 119
f 119 143 118
f 116 144 121
f 121 145 120
f 130 138 114
f 138 139 115
f 139 144 116
f 140 137 101
f 141 140 117
f 142 143 119
f 143 141 118
f 144 145 121
f 145 142 120
f 28 146 31
f 29 147 30
f 31 148 29
f 30 149 33
f 150 146 28
f 148 147 29
f 147 149 30
f 149 151 33
f 146 148 31
f 33 151 34
f 34 152 35
f 35 153 36
f 36 154 37
f 37 155 38
f 38 156 39
f 39 157 126
f 151 152 34
f 152 153 35
f 153 154 36
f 154 155 37
f 155 156 38
f 156 157 39
f 147 158 149
f 149 159 151
f 148 160 147
f 146 161 148
f 158 159 149
f 159 162 151
f 160 158 147
f 161 160 148
f 158 163 159
f 159 164 162
f 151 162 152
f 152 165 153
f 153 166 154
f 154 167 155
f 155 168 156
f 156 169 157
f 162 165 152
f 165 166 153
f 166 167 154
f 167 168 155
f 162 170 165
f 165 171 166
f 166 172 167
f 167 173 168
f 168 169 156
f 169 174 157
f 32 150 28
f 122 175 32
f 123 176 122
f 124 177 123
f 125 178 124
f 175 150 32
f 176 175 122
f 177 176 123
f 178 177 124
f 126 179 127
f 127 180 128
f 128 181 129
f 129 182 130
f 157 179 126
f 179 180 127
f 180 181 128
f 181 182 129
f 182 183 130
f 131 184 125
f 132 185 131
f 133 186 132
f 134 187 133
f 135 188 134
f 136 189 135
f 137 190 136
f 184 178 125
f 185 184 131
f 186 185 132
f 187 186 133
f 188 187 134
f 189 188 135
f 190 189 136
f 130 183 138
f 138 191 139
f 139 192 144
f 140 193 137
f 141 194 140
f 143 195 141
f 144 196 145
f 145 197 142
f 142 198 143
f 183 191 138
f 191 192 139
f 192 196 144
f 193 190 137
f 194 193 140
f 198 195 143
f 195 194 141
f 196 197 145
f 197 198 142
f 150 199 146
f 175 200 150
f 176 201 175
f 177 202 176
f 178 203 177
f 199 161 146
f 200 199 150
f 201 200 175
f 161 204 160
f 160 205 158
f 163 164 159
f 205 163 158
f 204 205 160
f 199 206 161
f 206 204 161
f 200 207 199
f 207 206 199
f 208 205 204
f 208 163 205
f 202 201 176
f 203 202 177
f 209 203 178
f 201 210 200
f 210 207 200
f 202 211 201
f 211 210 201
f 208 204 206
f 208 206 207
f 208 207 210
f 208 210 211
f 203 212 202
f 212 211 202
f 209 213 203
f 213 212 203
f 214 213 209
f 208 211 212
f 208 212 213
f 208 213 214
f 208 214 215
f 208 215 216
f 157 174 179
f 179 217 180
f 180 218 181
f 181 219 182
f 182 220 183
f 183 221 191
f 164 170 162
f 170 171 165
f 171 172 166
f 172 173 167
f 173 222 168
f 168 222 169
f 222 223 169
f 208 170 164
f 208 164 163
f 208 171 170
f 208 172 171
f 208 173 172
f 208 222 173
f 208 223 222
f 223 224 174
f 208 224 223
f 174 217 179
f 217 218 180
f 218 219 181
f 169 223 174
f 174 224 217
f 224 225 217
f 217 225 218
f 225 226 218
f 218 226 219
f 208 225 224
f 208 226 225
f 208 227 226
f 208 228 227
f 208 229 228
f 208 230 229
f 208 231 232
f 208 232 230
f 208 233 231
f 219 220 182
f 220 221 183
f 226 227 219
f 227 228 220
f 219 227 220
f 228 229 221
f 220 228 221
f 229 230 234
f 221 229 234
f 184 209 178
f 185 235 184
f 186 236 185
f 187 237 186
f 188 238 187
f 189 239 188
f 190 240 189
f 235 209 184
f 236 235 185
f 237 236 186
f 235 214 209
f 215 214 235
f 236 215 235
f 216 215 236
f 208 216 241
f 237 216 236
f 241 216 237
f 242 241 238
f 238 241 237
f 243 242 239
f 238 237 187
f 239 238 188
f 240 239 189
f 239 242 238
f 240 243 239
f 191 234 192
f 192 244 196
f 194 245 193
f 193 246 190
f 195 247 194
f 198 248 195
f 196 249 197
f 197 250 198
f 208 241 242
f 208 242 243
f 208 243 251
f 208 252 233
f 208 253 252
f 208 251 254
f 208 254 253
f 232 231 249
f 231 233 250
f 251 243 240
f 254 251 246
f 253 254 245
f 252 253 247
f 233 252 248
f 248 252 247
f 250 233 248
f 221 234 191
f 234 244 192
f 244 249 196
f 230 232 244
f 234 230 244
f 244 232 249
f 249 231 250
f 248 247 195
f 246 240 190
f 245 246 193
f 247 245 194
f 246 251 240
f 245 254 246
f 247 253 245
f 249 250 197
f 250 248 198
f 255 256 257
f 258 259 255
f 260 261 258
f 262 263 260
f 264 265 262
f 266 258 255
f 266 260 258
f 259 256 255
f 256 267 257
f 261 259 258
f 263 261 260
f 265 263 262
f 259 268 256
f 256 269 267
f 267 270 271
f 270 272 271
f 268 269 256
f 273 268 259
f 269 270 267
f 274 275 263
f 276 274 265
f 261 273 259
f 263 275 261
f 265 274 263
f 275 273 261
f 267 271 277
f 271 278 279
f 278 280 281
f 280 282 283
f 257 267 277
f 277 271 279
f 279 278 281
f 281 280 283
f 283 282 284
f 284 285 286
f 266 255 257
f 266 257 277
f 266 277 279
f 266 279 281
f 266 281 283
f 266 283 284
f 266 284 286
f 266 286 287
f 282 285 284
f 286 288 287
f 287 289 290
f 290 291 292
f 285 288 286
f 288 289 287
f 289 291 290
f 291 293 292
f 271 272 278
f 278 294 280
f 280 295 282
f 282 296 285
f 272 294 278
f 294 295 280
f 295 296 282
f 285 297 288
f 296 297 285
f 297 298 288
f 288 298 289
f 289 299 291
f 291 300 293
f 293 301 302
f 298 299 289
f 299 300 291
f 300 301 293
f 303 304 264
f 305 306 303
f 266 262 260
f 266 264 262
f 266 303 264
f 266 305 303
f 307 308 305
f 309 310 307
f 266 307 305
f 266 309 307
f 266 311 309
f 304 265 264
f 306 304 303
f 308 306 305
f 310 308 307
f 311 312 309
f 313 314 311
f 266 313 311
f 266 315 313
f 266 316 315
f 315 317 313
f 316 318 315
f 319 320 316
f 312 310 309
f 314 312 311
f 317 314 313
f 318 317 315
f 304 276 265
f 306 321 304
f 308 322 306
f 321 276 304
f 322 321 306
f 310 323 308
f 323 322 308
f 324 323 310
f 312 324 310
f 314 325 312
f 325 324 312
f 266 287 290
f 266 290 292
f 266 292 326
f 266 326 327
f 266 327 328
f 266 328 329
f 266 329 330
f 292 293 326
f 326 302 327
f 327 331 328
f 328 332 329
f 293 302 326
f 302 331 327
f 331 332 328
f 266 319 316
f 266 333 319
f 266 334 333
f 266 335 334
f 266 330 336
f 266 336 337
f 266 337 338
f 266 339 335
f 266 338 339
f 337 340 338
f 338 341 339
f 340 341 338
f 329 342 330
f 330 343 336
f 336 344 337
f 332 342 329
f 342 343 330
f 343 344 336
f 344 340 337
f 302 345 331
f 331 346 332
f 332 347 342
f 301 345 302
f 345 346 331
f 346 347 332
f 342 348 343
f 344 349 340
f 343 350 344
f 347 348 342
f 348 350 343
f 350 349 344
f 270 351 272
f 269 352 270
f 268 353 269
f 273 354 268
f 275 355 273
f 274 356 275
f 276 357 274
f 353 352 269
f 351 358 272
f 352 351 270
f 354 353 268
f 355 354 273
f 356 355 275
f 357 356 274
f 272 358 294
f 294 359 295
f 295 360 296
f 296 361 297
f 297 362 298
f 298 363 299
f 299 364 300
f 300 365 301
f 301 366 345
f 358 359 294
f 359 360 295
f 360 361 296
f 361 362 297
f 362 363 298
f 363 364 299
f 364 365 300
f 365 366 301
f 321 367 276
f 322 368 321
f 323 369 322
f 324 370 323
f 325 371 324
f 367 357 276
f 368 367 321
f 369 368 322
f 370 369 323
f 371 370 324
f 348 372 350
f 350 373 349
f 372 373 350
f 366 374 345
f 345 374 346
f 346 375 347
f 347 376 348
f 374 375 346
f 375 376 347
f 376 372 348
f 320 318 316
f 317 377 314
f 318 378 317
f 320 379 318
f 377 325 314
f 378 377 317
f 379 378 318
f 380 379 320
f 333 381 319
f 334 382 333
f 335 383 334
f 339 384 335
f 381 320 319
f 382 381 333
f 383 382 334
f 384 383 335
f 341 384 339
f 381 380 320
f 341 385 384
f 384 386 383
f 382 387 381
f 383 388 382
f 387 380 381
f 388 387 382
f 386 388 383
f 385 386 384
f 340 389 341
f 349 389 340
f 389 385 341
f 377 390 325
f 378 391 377
f 379 392 378
f 380 393 379
f 390 371 325
f 391 390 377
f 392 391 378
f 393 392 379
f 387 394 380
f 388 395 387
f 386 396 388
f 389 397 385
f 349 398 389
f 385 399 386
f 396 395 388
f 373 398 349
f 398 397 389
f 397 399 385
f 399 396 386
f 394 393 380
f 395 394 387
f 351 400 358
f 352 401 351
f 353 402 352
f 354 403 353
f 402 401 352
f 400 404 358
f 401 400 351
f 403 402 353
f 355 405 354
f 356 406 355
f 357 407 356
f 405 403 354
f 406 405 355
f 407 406 356
f 358 404 359
f 359 408 360
f 360 409 361
f 404 408 359
f 408 409 360
f 409 410 361
f 361 410 362
f 362 411 363
f 363 412 364
f 410 411 362
f 411 412 363
f 412 413 364
f 364 413 365
f 365 414 366
f 413 414 365
f 414 415 366
f 367 416 357
f 368 417 367
f 416 407 357
f 417 416 367
f 369 418 368
f 370 419 369
f 418 417 368
f 419 418 369
f 420 419 370
f 372 421 373
f 373 422 398
f 421 422 373
f 401 423 400
f 400 424 404
f 402 425 401
f 403 426 402
f 405 427 403
f 406 428 405
f 424 429 404
f 426 425 402
f 423 424 400
f 425 423 401
f 428 427 405
f 430 428 406
f 427 426 403
f 426 431 425
f 425 432 423
f 423 433 424
f 432 433 423
f 433 434 424
f 427 435 426
f 428 436 427
f 436 435 427
f 431 432 425
f 435 431 426
f 408 437 409
f 404 429 408
f 409 438 410
f 410 439 411
f 411 440 412
f 412 441 413
f 413 442 414
f 414 443 415
f 415 444 445
f 429 437 408
f 437 438 409
f 438 439 410
f 429 446 437
f 424 434 429
f 437 447 438
f 438 448 439
f 439 449 440
f 439 440 411
f 440 441 412
f 434 446 429
f 446 447 437
f 447 448 438
f 448 449 439
f 449 450 440
f 450 451 441
f 452 446 434
f 452 433 432
f 452 434 433
f 452 447 446
f 452 448 447
f 452 449 448
f 452 450 449
f 452 451 450
f 441 442 413
f 442 443 414
f 443 444 415
f 440 450 441
f 441 451 442
f 442 453 443
f 443 454 444
f 451 453 442
f 453 454 443
f 407 430 406
f 416 455 407
f 417 456 416
f 418 457 417
f 419 458 418
f 420 459 419
f 455 430 407
f 456 455 416
f 430 460 428
f 455 461 430
f 460 436 428
f 461 460 430
f 452 432 431
f 452 431 435
f 452 435 436
f 452 436 460
f 452 460 461
f 456 462 455
f 462 461 455
f 463 462 456
f 452 461 462
f 452 462 463
f 452 463 464
f 452 464 465
f 457 456 417
f 458 457 418
f 459 458 419
f 457 463 456
f 458 464 457
f 464 463 457
f 452 465 466
f 465 464 458
f 466 465 459
f 459 465 458
f 467 466 459
f 468 469 467
f 469 466 467
f 470 469 468
f 445 471 472
f 472 473 474
f 474 475 421
f 421 476 422
f 422 477 478
f 452 453 451
f 452 454 453
f 452 479 454
f 452 480 479
f 452 481 480
f 452 482 481
f 452 483 482
f 452 484 483
f 452 485 484
f 444 471 445
f 471 473 472
f 473 475 474
f 444 479 471
f 454 479 444
f 479 480 471
f 480 481 473
f 471 480 473
f 481 482 475
f 482 483 476
f 473 481 475
f 475 482 476
f 452 466 469
f 452 469 470
f 452 470 486
f 452 486 487
f 452 487 488
f 452 488 489
f 452 490 485
f 452 491 490
f 452 489 491
f 486 470 492
f 487 486 493
f 488 487 494
f 490 491 495
f 491 489 496
f 489 488 497
f 475 476 421
f 476 477 422
f 477 498 478
f 476 483 477
f 477 484 498
f 483 484 477
f 484 485 498
f 498 485 499
f 499 490 495
f 485 490 499
f 366 415 374
f 415 445 374
f 374 445 375
f 375 472 376
f 445 472 375
f 472 474 376
f 376 474 372
f 474 421 372
f 371 420 370
f 390 500 371
f 391 501 390
f 392 502 391
f 393 503 392
f 500 420 371
f 501 500 390
f 502 501 391
f 503 502 392
f 396 504 395
f 505 503 393
f 506 505 394
f 504 506 395
f 398 478 397
f 397 507 399
f 399 508 396
f 422 478 398
f 478 507 397
f 507 508 399
f 508 504 396
f 394 505 393
f 395 506 394
f 500 467 420
f 501 468 500
f 502 492 501
f 503 493 502
f 467 459 420
f 468 467 500
f 492 468 501
f 493 492 502
f 492 470 468
f 505 494 503
f 504 496 506
f 506 497 505
f 507 499 508
f 478 498 507
f 508 495 504
f 494 493 503
f 497 494 505
f 496 497 506
f 495 496 504
f 493 486 492
f 494 487 493
f 497 488 494
f 496 489 497
f 495 491 496
f 498 499 507
f 499 495 508
f 509 510 511
f 510 512 511
f 513 514 509
f 515 516 513
f 514 510 509
f 516 514 513
f 517 516 515
f 518 519 520
f 519 521 522
f 521 523 524
f 523 525 526
f 527 528 529
f 530 531 527
f 532 533 530
f 528 534 529
f 531 528 527
f 533 531 530
f 535 536 537
f 537 518 520
f 529 534 535
f 520 519 522
f 522 521 524
f 524 523 526
f 538 537 520
f 538 535 537
f 538 527 529
f 538 529 535
f 538 520 522
f 538 522 524
f 538 524 526
f 538 526 539
f 536 518 537
f 534 536 535
f 534 540 536
f 540 541 536
f 542 540 534
f 518 543 519
f 536 541 518
f 519 544 521
f 521 545 523
f 523 546 525
f 543 544 519
f 544 545 521
f 545 546 523
f 541 543 518
f 531 547 528
f 528 542 534
f 533 511 531
f 547 542 528
f 511 547 531
f 509 511 533
f 526 525 539
f 539 548 549
f 549 550 551
f 538 539 549
f 538 549 551
f 551 552 553
f 553 554 555
f 525 548 539
f 548 550 549
f 550 552 551
f 552 554 553
f 554 556 555
f 525 557 548
f 548 558 550
f 546 557 525
f 557 558 548
f 558 559 550
f 550 559 552
f 552 560 554
f 554 561 556
f 559 560 552
f 560 561 554
f 556 562 563
f 561 562 556
f 564 565 532
f 566 567 564
f 568 569 566
f 570 571 568
f 567 565 564
f 565 533 532
f 569 567 566
f 571 569 568
f 538 530 527
f 538 532 530
f 538 564 532
f 538 566 564
f 538 568 566
f 538 570 568
f 538 572 570
f 572 573 570
f 574 575 572
f 576 577 574
f 573 571 570
f 575 573 572
f 577 575 574
f 578 577 576
f 538 574 572
f 538 576 574
f 538 579 576
f 538 580 579
f 538 581 580
f 538 582 581
f 538 583 582
f 538 584 583
f 538 585 584
f 579 578 576
f 580 586 579
f 565 509 533
f 567 513 565
f 569 515 567
f 513 509 565
f 515 513 567
f 571 587 569
f 573 588 571
f 575 589 573
f 587 515 569
f 588 587 571
f 589 588 573
f 538 551 553
f 538 553 555
f 538 555 590
f 538 590 591
f 555 556 590
f 590 563 591
f 538 591 592
f 538 593 594
f 538 592 593
f 591 595 592
f 592 596 593
f 556 563 590
f 563 595 591
f 595 596 592
f 538 594 597
f 538 597 598
f 538 598 585
f 593 599 594
f 594 600 597
f 597 601 598
f 585 602 584
f 598 603 585
f 596 599 593
f 599 600 594
f 601 603 598
f 603 602 585
f 600 601 597
f 563 604 595
f 595 605 596
f 596 606 599
f 562 604 563
f 604 605 595
f 605 606 596
f 599 607 600
f 600 608 601
f 601 609 603
f 608 609 601
f 606 607 599
f 607 608 600
f 541 610 543
f 542 611 540
f 540 612 541
f 543 613 544
f 544 614 545
f 545 615 546
f 547 616 542
f 511 512 547
f 612 610 541
f 610 613 543
f 611 612 540
f 613 614 544
f 614 615 545
f 615 617 546
f 616 611 542
f 512 616 547
f 546 617 557
f 557 618 558
f 558 619 559
f 559 620 560
f 560 621 561
f 561 622 562
f 562 623 604
f 617 618 557
f 618 619 558
f 619 620 559
f 620 621 560
f 621 622 561
f 622 623 562
f 623 624 604
f 587 517 515
f 588 625 587
f 589 626 588
f 625 517 587
f 626 625 588
f 604 624 605
f 605 627 606
f 606 628 607
f 607 629 608
f 608 630 609
f 624 627 605
f 627 628 606
f 628 629 607
f 629 630 608
f 581 631 580
f 582 632 581
f 583 633 582
f 584 634 583
f 586 578 579
f 631 586 580
f 632 631 581
f 633 632 582
f 634 633 583
f 577 635 575
f 578 636 577
f 635 589 575
f 636 635 577
f 637 636 578
f 586 637 578
f 631 638 586
f 632 639 631
f 633 640 632
f 638 637 586
f 639 638 631
f 640 639 632
f 602 634 584
f 634 641 633
f 602 642 634
f 603 643 602
f 609 643 603
f 643 642 602
f 641 640 633
f 642 641 634
f 635 644 589
f 636 645 635
f 637 646 636
f 638 647 637
f 639 648 638
f 640 649 639
f 644 626 589
f 645 644 635
f 646 645 636
f 647 646 637
f 648 647 638
f 649 648 639
f 609 650 643
f 643 651 642
f 642 652 641
f 641 653 640
f 650 651 643
f 653 649 640
f 652 653 641
f 651 652 642
f 630 650 609
f 510 654 512
f 654 655 512
f 514 656 510
f 516 657 514
f 656 654 510
f 657 656 514
f 517 658 516
f 658 657 516
f 610 659 613
f 611 660 612
f 612 661 610
f 661 659 610
f 659 662 613
f 660 661 612
f 613 662 614
f 614 663 615
f 615 664 617
f 662 663 614
f 663 664 615
f 664 665 617
f 616 666 611
f 512 655 616
f 666 660 611
f 655 666 616
f 617 665 618
f 618 667 619
f 619 668 620
f 620 669 621
f 665 667 618
f 667 668 619
f 668 669 620
f 669 670 621
f 621 670 622
f 622 671 623
f 623 672 624
f 670 671 622
f 671 672 623
f 672 673 624
f 625 674 517
f 674 658 517
f 675 674 625
f 624 673 627
f 627 676 628
f 673 676 627
f 676 677 628
f 628 677 629
f 629 678 630
f 630 679 650
f 677 678 629
f 678 679 630
f 659 680 662
f 660 681 661
f 661 682 659
f 662 683 663
f 663 684 664
f 664 685 665
f 666 686 660
f 655 687 666
f 682 680 659
f 681 682 661
f 683 684 663
f 684 685 664
f 685 688 665
f 680 683 662
f 683 689 684
f 684 690 685
f 685 691 688
f 688 692 693
f 686 681 660
f 687 686 666
f 694 687 655
f 682 695 680
f 681 696 682
f 686 697 681
f 687 698 686
f 696 695 682
f 697 696 681
f 698 697 686
f 680 699 683
f 689 690 684
f 695 699 680
f 699 689 683
f 690 691 685
f 691 692 688
f 692 700 693
f 701 699 695
f 701 689 699
f 701 690 689
f 701 691 690
f 701 692 691
f 701 700 692
f 701 702 700
f 701 703 702
f 665 688 667
f 667 693 668
f 668 704 669
f 669 705 670
f 670 706 671
f 671 707 672
f 672 708 673
f 688 693 667
f 693 704 668
f 704 705 669
f 693 700 704
f 705 706 670
f 706 707 671
f 704 702 705
f 705 703 706
f 700 702 704
f 702 703 705
f 703 709 706
f 709 710 707
f 706 709 707
f 707 710 708
f 707 708 672
f 654 694 655
f 656 711 654
f 657 712 656
f 658 713 657
f 674 714 658
f 675 715 674
f 711 694 654
f 712 711 656
f 694 716 687
f 711 717 694
f 716 698 687
f 717 716 694
f 712 718 711
f 718 717 711
f 719 718 712
f 701 696 697
f 701 697 698
f 701 695 696
f 701 698 716
f 701 716 717
f 701 717 718
f 701 718 719
f 701 719 720
f 701 720 721
f 713 712 657
f 714 713 658
f 715 714 674
f 713 719 712
f 714 720 713
f 720 719 713
f 721 720 714
f 722 721 715
f 715 721 714
f 723 722 715
f 724 725 723
f 701 721 722
f 701 722 725
f 701 725 726
f 701 726 727
f 701 727 728
f 701 728 729
f 701 730 731
f 701 732 730
f 701 729 732
f 725 722 723
f 726 725 724
f 727 726 733
f 728 727 734
f 729 728 735
f 732 729 736
f 673 737 676
f 676 738 677
f 677 739 678
f 678 740 679
f 679 741 742
f 701 709 703
f 701 710 709
f 701 743 710
f 701 744 743
f 701 745 744
f 708 743 737
f 737 744 738
f 710 743 708
f 743 744 737
f 744 745 738
f 701 746 745
f 701 747 746
f 701 748 747
f 701 749 748
f 738 745 739
f 739 746 740
f 745 746 739
f 746 747 740
f 708 737 673
f 737 738 676
f 738 739 677
f 741 750 742
f 701 731 749
f 748 749 750
f 740 747 741
f 741 748 750
f 747 748 741
f 751 731 752
f 731 730 752
f 749 731 751
f 730 732 753
f 750 749 751
f 739 740 678
f 740 741 679
f 626 675 625
f 644 754 626
f 645 755 644
f 646 756 645
f 754 675 626
f 755 754 644
f 756 755 645
f 647 757 646
f 757 756 646
f 758 757 647
f 759 758 648
f 648 758 647
f 649 759 648
f 650 742 651
f 653 760 649
f 652 761 653
f 651 762 652
f 742 762 651
f 760 759 649
f 761 760 653
f 762 761 652
f 679 742 650
f 754 723 675
f 755 724 754
f 756 733 755
f 757 734 756
f 758 735 757
f 759 736 758
f 723 715 675
f 724 723 754
f 733 724 755
f 734 733 756
f 735 734 757
f 736 735 758
f 733 726 724
f 734 727 733
f 735 728 734
f 736 729 735
f 753 732 736
f 742 750 762
f 762 751 761
f 760 753 759
f 761 752 760
f 751 752 761
f 750 751 762
f 753 736 759
f 752 753 760
f 752 730 753
f 763 764 765
f 765 766 767
f 767 768 769
f 770 764 763
f 764 766 765
f 766 768 767
f 768 771 769
f 772 773 770
f 773 774 770
f 775 773 772
f 774 776 764
f 776 777 766
f 766 777 768
f 768 778 771
f 777 778 768
f 778 779 771
f 770 774 764
f 764 776 766
f 769 771 780
f 771 781 780
f 781 782 783
f 779 784 781
f 784 785 782
f 771 779 781
f 781 784 782
f 782 785 786
f 786 787 788
f 785 787 786
f 787 789 788
f 773 790 774
f 775 791 773
f 776 792 777
f 774 793 776
f 777 794 778
f 778 795 779
f 794 795 778
f 795 796 779
f 790 793 774
f 797 791 775
f 791 790 773
f 793 792 776
f 792 794 777
f 779 796 784
f 784 798 785
f 785 799 787
f 787 800 789
f 796 798 784
f 798 799 785
f 799 800 787
f 800 801 789
f 802 803 804
f 805 806 802
f 807 808 805
f 803 772 804
f 806 803 802
f 808 806 805
f 809 808 807
f 804 772 810
f 810 770 763
f 811 804 810
f 811 802 804
f 811 805 802
f 811 810 763
f 811 763 765
f 811 765 767
f 811 767 769
f 811 769 780
f 772 770 810
f 812 809 807
f 813 814 812
f 815 816 813
f 817 818 815
f 814 809 812
f 816 814 813
f 818 816 815
f 811 807 805
f 811 812 807
f 811 813 812
f 811 815 813
f 811 817 815
f 811 819 817
f 811 820 819
f 821 822 806
f 803 775 772
f 806 822 803
f 822 775 803
f 808 821 806
f 823 821 808
f 809 823 808
f 814 824 809
f 824 823 809
f 816 825 814
f 825 824 814
f 826 825 816
f 780 781 783
f 783 782 827
f 827 786 828
f 811 780 783
f 811 783 827
f 811 827 828
f 811 828 829
f 828 788 829
f 829 830 831
f 782 786 827
f 786 788 828
f 788 830 829
f 830 832 831
f 811 829 831
f 811 831 833
f 811 833 834
f 831 832 833
f 833 835 834
f 811 834 836
f 811 836 837
f 811 837 838
f 811 838 839
f 834 840 836
f 836 841 837
f 832 835 833
f 835 840 834
f 840 841 836
f 841 842 837
f 788 789 830
f 789 843 830
f 830 843 832
f 832 844 835
f 843 844 832
f 844 845 835
f 835 845 840
f 845 846 840
f 840 846 841
f 841 847 842
f 846 847 841
f 819 848 817
f 820 849 819
f 848 818 817
f 849 848 819
f 850 849 820
f 811 851 820
f 811 852 851
f 811 853 852
f 811 854 853
f 811 855 854
f 811 856 857
f 811 857 855
f 851 850 820
f 852 858 851
f 853 859 852
f 854 860 853
f 855 861 854
f 857 862 855
f 858 850 851
f 859 858 852
f 860 859 853
f 861 860 854
f 862 861 855
f 818 826 816
f 863 826 818
f 848 863 818
f 849 864 848
f 850 865 849
f 864 863 848
f 865 864 849
f 866 865 850
f 858 866 850
f 859 867 858
f 860 868 859
f 867 866 858
f 861 869 860
f 862 870 861
f 868 867 859
f 869 868 860
f 870 869 861
f 811 839 871
f 811 871 872
f 811 872 856
f 837 842 838
f 838 873 839
f 871 874 872
f 856 875 857
f 872 876 856
f 839 877 871
f 842 873 838
f 873 877 839
f 874 876 872
f 876 875 856
f 877 874 871
f 875 862 857
f 873 878 877
f 877 879 874
f 842 880 873
f 847 880 842
f 880 878 873
f 878 879 877
f 875 881 862
f 876 882 875
f 882 881 875
f 874 883 876
f 879 883 874
f 883 882 876
f 881 870 862
f 822 797 775
f 821 884 822
f 823 885 821
f 824 886 823
f 825 887 824
f 884 797 822
f 885 884 821
f 886 885 823
f 887 886 824
f 789 801 843
f 843 888 844
f 844 889 845
f 845 890 846
f 846 891 847
f 801 888 843
f 888 889 844
f 889 890 845
f 890 891 846
f 891 892 847
f 826 893 825
f 863 894 826
f 864 895 863
f 865 896 864
f 866 897 865
f 867 898 866
f 868 899 867
f 869 900 868
f 870 901 869
f 893 887 825
f 894 893 826
f 895 894 863
f 896 895 864
f 897 896 865
f 898 897 866
f 899 898 867
f 900 899 868
f 901 900 869
f 847 892 880
f 880 902 878
f 878 903 879
f 883 904 882
f 881 905 870
f 882 906 881
f 879 907 883
f 892 902 880
f 902 903 878
f 903 907 879
f 907 904 883
f 906 905 881
f 905 901 870
f 904 906 882
f 794 908 795
f 795 909 796
f 793 910 792
f 790 911 793
f 791 912 790
f 792 913 794
f 911 910 793
f 914 912 791
f 912 911 790
f 910 913 792
f 913 908 794
f 908 909 795
f 909 915 796
f 796 915 798
f 798 916 799
f 799 917 800
f 800 918 801
f 801 919 888
f 915 916 798
f 916 917 799
f 917 918 800
f 918 919 801
f 911 920 910
f 912 921 911
f 910 922 913
f 913 923 908
f 908 924 909
f 909 925 915
f 920 922 910
f 921 920 911
f 922 923 913
f 923 924 908
f 924 925 909
f 925 926 915
f 923 927 924
f 922 928 923
f 924 929 925
f 925 930 926
f 915 926 916
f 916 931 917
f 917 932 918
f 918 933 919
f 926 931 916
f 931 932 917
f 932 933 918
f 933 934 919
f 926 935 931
f 931 936 932
f 797 914 791
f 884 937 797
f 885 938 884
f 886 939 885
f 887 940 886
f 937 914 797
f 938 937 884
f 939 938 885
f 940 939 886
f 888 941 889
f 889 942 890
f 890 943 891
f 891 944 892
f 919 941 888
f 941 942 889
f 942 943 890
f 943 944 891
f 944 945 892
f 893 946 887
f 894 947 893
f 895 948 894
f 896 949 895
f 897 950 896
f 898 951 897
f 899 952 898
f 900 953 899
f 901 954 900
f 946 940 887
f 947 946 893
f 948 947 894
f 949 948 895
f 950 949 896
f 951 950 897
f 952 951 898
f 953 952 899
f 954 953 900
f 892 945 902
f 902 955 903
f 903 956 907
f 904 957 906
f 905 958 901
f 906 959 905
f 907 960 904
f 945 955 902
f 955 956 903
f 956 960 907
f 960 957 904
f 959 958 905
f 958 954 901
f 957 959 906
f 914 961 912
f 937 962 914
f 938 963 937
f 939 964 938
f 940 965 939
f 962 961 914
f 961 921 912
f 963 962 937
f 921 966 920
f 961 967 921
f 962 968 961
f 968 967 961
f 920 969 922
f 928 927 923
f 966 969 920
f 969 928 922
f 927 929 924
f 929 930 925
f 930 935 926
f 967 966 921
f 970 969 966
f 970 927 928
f 970 929 927
f 970 930 929
f 970 928 969
f 970 935 930
f 970 936 935
f 970 971 936
f 964 963 938
f 965 964 939
f 972 965 940
f 963 973 962
f 973 968 962
f 964 974 963
f 974 973 963
f 965 975 964
f 975 974 964
f 972 976 965
f 976 975 965
f 977 976 972
f 970 966 967
f 970 967 968
f 970 968 973
f 970 973 974
f 970 974 975
f 970 975 976
f 970 976 977
f 970 977 978
f 970 978 979
f 919 934 941
f 941 980 942
f 942 981 943
f 943 982 944
f 944 983 945
f 945 984 955
f 935 936 931
f 936 971 932
f 932 971 933
f 971 985 933
f 933 985 934
f 934 986 980
f 970 985 971
f 970 986 985
f 985 986 934
f 986 987 980
f 980 987 981
f 987 988 981
f 981 988 982
f 934 980 941
f 980 981 942
f 981 982 943
f 970 987 986
f 970 988 987
f 970 989 988
f 970 990 989
f 988 989 982
f 982 989 983
f 989 990 983
f 970 991 990
f 970 992 991
f 970 993 992
f 970 994 993
f 970 995 994
f 983 990 984
f 990 991 984
f 991 992 996
f 984 991 996
f 982 983 944
f 983 984 945
f 946 972 940
f 947 997 946
f 948 998 947
f 949 999 948
f 950 1000 949
f 951 1001 950
f 952 1002 951
f 954 1003 953
f 953 1004 952
f 997 972 946
f 998 997 947
f 999 998 948
f 997 977 972
f 978 977 997
f 998 978 997
f 999 979 998
f 979 978 998
f 970 979 1005
f 970 1005 1006
f 970 1006 1007
f 970 1007 1008
f 970 1009 1010
f 970 1008 1011
f 970 1011 1009
f 1005 979 999
f 1006 1005 1000
f 1000 1005 999
f 1007 1006 1001
f 1008 1007 1002
f 1011 1008 1004
f 1009 1011 1003
f 1000 999 949
f 1001 1000 950
f 1002 1001 951
f 1004 1002 952
f 1003 1004 953
f 1001 1006 1000
f 1002 1007 1001
f 1004 1008 1002
f 1003 1011 1004
f 955 996 956
f 956 1012 960
f 960 1013 957
f 957 1014 959
f 958 1015 954
f 959 1016 958
f 994 995 1014
f 970 1010 995
f 992 993 1012
f 996 992 1012
f 993 994 1013
f 1012 993 1013
f 1010 1009 1015
f 995 1010 1016
f 1014 995 1016
f 1016 1010 1015
f 1013 994 1014
f 984 996 955
f 996 1012 956
f 1012 1013 960
f 1016 1015 958
f 1013 1014 957
f 1014 1016 959
f 1015 1003 954
f 1015 1009 1003
