# sionna2 mesh — mini5pro__gear.obj
# group=gear  verts=609  tris=1210
v 0.074764 0.117481 -0.022933
v 0.076138 0.119053 -0.028610
v 0.076351 0.118043 -0.029021
v 0.075000 0.116366 -0.023387
v 0.073391 0.115908 -0.017256
v 0.074128 0.114877 -0.018978
v 0.073884 0.114982 -0.018734
v 0.073519 0.115425 -0.017549
v 0.075277 0.118468 -0.022304
v 0.075891 0.115563 -0.023486
v 0.074235 0.114831 -0.019086
v 0.073951 0.116987 -0.016569
v 0.074470 0.114729 -0.019321
v 0.074992 0.114322 -0.019499
v 0.075229 0.114169 -0.019510
v 0.075293 0.114128 -0.019513
v 0.074627 0.118003 -0.015874
v 0.075895 0.119397 -0.021669
v 0.073503 0.115445 -0.017497
v 0.073489 0.115445 -0.017445
v 0.072993 0.115435 -0.015605
v 0.072977 0.115435 -0.015548
v 0.073046 0.115727 -0.014365
v 0.073126 0.116065 -0.012998
v 0.072017 0.114336 -0.011579
v 0.072079 0.114406 -0.011833
v 0.072044 0.114341 -0.011680
v 0.072024 0.114304 -0.011592
v 0.072038 0.114333 -0.011574
v 0.072393 0.115034 -0.011299
v 0.072464 0.115179 -0.011039
v 0.072539 0.115324 -0.011052
v 0.072558 0.115363 -0.010922
v 0.072625 0.115507 -0.010833
v 0.072697 0.115544 -0.011438
v 0.072639 0.115499 -0.010832
v 0.072852 0.115760 -0.011813
v 0.072812 0.115786 -0.010642
v 0.073359 0.116609 -0.010079
v 0.073390 0.116573 -0.011197
v 0.073468 0.116678 -0.011271
v 0.073469 0.116679 -0.011272
v 0.073508 0.115439 -0.017513
v 0.073468 0.116678 -0.011274
v 0.075647 0.118660 -0.015241
v 0.074465 0.117322 -0.009393
v 0.078797 0.111799 -0.010642
v 0.075831 0.117097 -0.009068
v 0.080258 0.123771 -0.045641
v 0.080406 0.123072 -0.045926
v 0.078885 0.122198 -0.039964
v 0.080965 0.122568 -0.045988
v 0.079054 0.121395 -0.040291
v 0.079254 0.122909 -0.039511
v 0.080580 0.124390 -0.045247
v 0.079700 0.123578 -0.039054
v 0.080968 0.124972 -0.044849
v 0.079697 0.120817 -0.040362
v 0.077703 0.119719 -0.034656
v 0.077511 0.120626 -0.034287
v 0.077928 0.121429 -0.033776
v 0.078428 0.119066 -0.034737
v 0.077160 0.117315 -0.029111
v 0.076602 0.119948 -0.028040
v 0.077164 0.120790 -0.027464
v 0.078432 0.122184 -0.033259
v 0.080427 0.120330 -0.040362
v 0.080371 0.124011 -0.038637
v 0.079253 0.118516 -0.034737
v 0.081168 0.119862 -0.040350
v 0.079190 0.122673 -0.032788
v 0.080090 0.117988 -0.034723
v 0.078079 0.116702 -0.029111
v 0.078009 0.121335 -0.026939
v 0.079012 0.116113 -0.029096
v 0.080127 0.122519 -0.032566
v 0.079053 0.121163 -0.026691
v 0.081026 0.117833 -0.034501
v 0.080055 0.115941 -0.028848
v 0.079985 0.120575 -0.026676
v 0.080963 0.121991 -0.032552
v 0.081632 0.125343 -0.051318
v 0.081758 0.124748 -0.051561
v 0.082233 0.124320 -0.051613
v 0.081905 0.125870 -0.050983
v 0.082775 0.123959 -0.051613
v 0.083336 0.125099 -0.050897
v 0.082236 0.126366 -0.050643
v 0.081601 0.122145 -0.045988
v 0.083324 0.123612 -0.051604
v 0.081552 0.125349 -0.044486
v 0.082246 0.121737 -0.045977
v 0.082733 0.126687 -0.050334
v 0.082274 0.125230 -0.044314
v 0.082968 0.121618 -0.045806
v 0.081200 0.123875 -0.038440
v 0.081997 0.119726 -0.040153
v 0.081941 0.123407 -0.038428
v 0.082919 0.124823 -0.044304
v 0.083348 0.126586 -0.050189
v 0.083938 0.123511 -0.051459
v 0.083897 0.126239 -0.050180
v 0.084436 0.123832 -0.051150
v 0.083552 0.121995 -0.045443
v 0.084438 0.125878 -0.050180
v 0.084767 0.124328 -0.050810
v 0.084914 0.125449 -0.050232
v 0.085040 0.124855 -0.050475
v 0.083555 0.124399 -0.044304
v 0.083940 0.122578 -0.045045
v 0.084262 0.123197 -0.044650
v 0.084114 0.123896 -0.044366
v 0.082672 0.122920 -0.038428
v 0.082668 0.120159 -0.039736
v 0.083114 0.120828 -0.039279
v 0.083314 0.122342 -0.038499
v 0.083483 0.121539 -0.038826
v 0.081785 0.118322 -0.034030
v 0.081788 0.121441 -0.032552
v 0.080901 0.116486 -0.028323
v 0.080905 0.119962 -0.026676
v 0.082288 0.119078 -0.033513
v 0.082513 0.120788 -0.032633
v 0.082705 0.119881 -0.033001
v 0.081462 0.117328 -0.027747
v 0.081713 0.119234 -0.026766
v 0.081927 0.118223 -0.027177
v 0.076906 0.114888 -0.023486
v 0.076828 0.119998 -0.021090
v 0.077933 0.114238 -0.023469
v 0.075530 0.113976 -0.019524
v 0.076079 0.113610 -0.019524
v 0.076315 0.113457 -0.019513
v 0.076379 0.113416 -0.019510
v 0.077979 0.119808 -0.020817
v 0.076616 0.113263 -0.019499
v 0.077139 0.112856 -0.019321
v 0.077373 0.112755 -0.019086
v 0.079085 0.114049 -0.023196
v 0.077481 0.112709 -0.018978
v 0.077725 0.112603 -0.018734
v 0.079007 0.119158 -0.020800
v 0.078114 0.112156 -0.017543
v 0.080017 0.114650 -0.022617
v 0.080021 0.118483 -0.020800
v 0.080636 0.115579 -0.021982
v 0.079133 0.112813 -0.016910
v 0.076905 0.118452 -0.014943
v 0.078090 0.112160 -0.017549
v 0.078101 0.112147 -0.017513
v 0.078106 0.112141 -0.017497
v 0.078029 0.117742 -0.014924
v 0.077051 0.116326 -0.009048
v 0.078254 0.115525 -0.009048
v 0.078120 0.112141 -0.017445
v 0.078616 0.112150 -0.015605
v 0.078631 0.112151 -0.015548
v 0.079138 0.117004 -0.014924
v 0.078562 0.111858 -0.014365
v 0.078483 0.111520 -0.012998
v 0.078249 0.110977 -0.011204
v 0.079810 0.113829 -0.016216
v 0.080112 0.116126 -0.015033
v 0.080913 0.117680 -0.020899
v 0.078140 0.110907 -0.011274
v 0.078757 0.111826 -0.011813
v 0.078911 0.112041 -0.011438
v 0.079070 0.112262 -0.011052
v 0.078141 0.110907 -0.011271
v 0.078140 0.110906 -0.011272
v 0.078218 0.111013 -0.011197
v 0.078983 0.112079 -0.010450
v 0.078970 0.112086 -0.010832
v 0.079312 0.114572 -0.009166
v 0.079051 0.112222 -0.010922
v 0.079144 0.112407 -0.011039
v 0.079591 0.113250 -0.009704
v 0.080370 0.114908 -0.015528
v 0.079215 0.112552 -0.011299
v 0.079530 0.113180 -0.011833
v 0.079565 0.113244 -0.011680
v 0.079585 0.113281 -0.011592
v 0.079571 0.113253 -0.011574
v 0.081148 0.116565 -0.021353
v 0.066568 0.102731 -0.050475
v 0.066842 0.103258 -0.050810
v 0.068273 0.102487 -0.050897
v 0.066694 0.102136 -0.050232
v 0.067170 0.101707 -0.050180
v 0.067712 0.101347 -0.050180
v 0.067172 0.103754 -0.051150
v 0.067670 0.104075 -0.051459
v 0.068056 0.105590 -0.045443
v 0.067495 0.103690 -0.044366
v 0.067347 0.104389 -0.044650
v 0.067668 0.105008 -0.045045
v 0.068054 0.103187 -0.044304
v 0.068261 0.101000 -0.050189
v 0.068285 0.103974 -0.051604
v 0.068641 0.105967 -0.045806
v 0.068875 0.100899 -0.050334
v 0.069373 0.101220 -0.050643
v 0.068834 0.103627 -0.051613
v 0.069375 0.103266 -0.051613
v 0.069363 0.105848 -0.045977
v 0.068690 0.102763 -0.044304
v 0.069334 0.102355 -0.044314
v 0.068125 0.106047 -0.038826
v 0.069612 0.107860 -0.040153
v 0.068494 0.106758 -0.039279
v 0.068295 0.105244 -0.038499
v 0.068940 0.107427 -0.039736
v 0.068937 0.104666 -0.038428
v 0.069703 0.101716 -0.050983
v 0.069851 0.102837 -0.051561
v 0.069977 0.102242 -0.051318
v 0.070008 0.105441 -0.045988
v 0.070644 0.105017 -0.045988
v 0.070056 0.102237 -0.044486
v 0.070641 0.102613 -0.044849
v 0.071029 0.103196 -0.045247
v 0.071203 0.104514 -0.045926
v 0.071350 0.103815 -0.045641
v 0.070441 0.107723 -0.040350
v 0.069668 0.104179 -0.038428
v 0.070408 0.103711 -0.038440
v 0.071181 0.107255 -0.040362
v 0.071912 0.106769 -0.040362
v 0.071237 0.103574 -0.038637
v 0.069320 0.108507 -0.033513
v 0.068904 0.107704 -0.033001
v 0.069095 0.106798 -0.032633
v 0.069824 0.109263 -0.034030
v 0.070582 0.109752 -0.034501
v 0.069821 0.106145 -0.032552
v 0.071519 0.109598 -0.034723
v 0.070646 0.105595 -0.032552
v 0.071482 0.105067 -0.032566
v 0.069682 0.109362 -0.027177
v 0.070708 0.111100 -0.028323
v 0.070147 0.110257 -0.027747
v 0.069896 0.108352 -0.026766
v 0.070704 0.107624 -0.026676
v 0.071553 0.111645 -0.028848
v 0.072554 0.106190 -0.040291
v 0.072724 0.105387 -0.039964
v 0.071909 0.104007 -0.039054
v 0.072355 0.104677 -0.039511
v 0.072355 0.109069 -0.034737
v 0.073180 0.108520 -0.034737
v 0.072419 0.104912 -0.032788
v 0.073906 0.107866 -0.034656
v 0.073177 0.105401 -0.033259
v 0.073681 0.106157 -0.033776
v 0.074097 0.106960 -0.034287
v 0.072597 0.111473 -0.029096
v 0.071624 0.107011 -0.026676
v 0.072556 0.106422 -0.026691
v 0.073529 0.110884 -0.029111
v 0.074449 0.110271 -0.029111
v 0.073600 0.106250 -0.026939
v 0.074445 0.106795 -0.027464
v 0.075257 0.109543 -0.029021
v 0.075006 0.107638 -0.028040
v 0.075471 0.108532 -0.028610
v 0.070460 0.111020 -0.021353
v 0.070973 0.112007 -0.021982
v 0.071592 0.112936 -0.022617
v 0.070696 0.109906 -0.020899
v 0.071587 0.109103 -0.020800
v 0.071799 0.113757 -0.016216
v 0.071239 0.112678 -0.015528
v 0.071496 0.111460 -0.015033
v 0.072524 0.113537 -0.023196
v 0.073675 0.113347 -0.023469
v 0.072602 0.108427 -0.020800
v 0.072476 0.114772 -0.016910
v 0.073630 0.107778 -0.020817
v 0.073495 0.115429 -0.017543
v 0.074781 0.107588 -0.021090
v 0.074703 0.112698 -0.023486
v 0.075717 0.112022 -0.023486
v 0.075713 0.108189 -0.021669
v 0.076609 0.111219 -0.023387
v 0.076332 0.109118 -0.022304
v 0.072471 0.110582 -0.014924
v 0.073580 0.109843 -0.014924
v 0.073359 0.116609 -0.011204
v 0.072017 0.114336 -0.009704
v 0.072297 0.113014 -0.009166
v 0.073354 0.112061 -0.009048
v 0.072625 0.115507 -0.010450
v 0.074703 0.109133 -0.014943
v 0.075962 0.108926 -0.015241
v 0.074558 0.111259 -0.009048
v 0.075777 0.110489 -0.009068
v 0.076844 0.110105 -0.022933
v 0.076981 0.109583 -0.015874
v 0.077658 0.110599 -0.016569
v 0.078218 0.111677 -0.017256
v 0.077143 0.110264 -0.009393
v 0.078249 0.110977 -0.010079
v 0.078983 0.112079 -0.010833
v 0.079591 0.113250 -0.011579
v 0.074777 -0.116918 -0.023196
v 0.076149 -0.118543 -0.028848
v 0.076326 -0.119533 -0.028323
v 0.075395 -0.115929 -0.023469
v 0.073404 -0.115294 -0.017543
v 0.073967 -0.115107 -0.018734
v 0.074972 -0.118010 -0.022617
v 0.074158 -0.114922 -0.018978
v 0.074242 -0.114841 -0.019086
v 0.075591 -0.118939 -0.021982
v 0.073618 -0.116487 -0.016910
v 0.074426 -0.114663 -0.019321
v 0.075003 -0.114338 -0.019499
v 0.075235 -0.114178 -0.019510
v 0.075530 -0.113976 -0.019524
v 0.076390 -0.115231 -0.023486
v 0.074294 -0.117503 -0.016216
v 0.076304 -0.119792 -0.021353
v 0.075298 -0.114135 -0.019513
v 0.073401 -0.115278 -0.017513
v 0.073417 -0.115273 -0.017549
v 0.073393 -0.115280 -0.017497
v 0.073388 -0.115293 -0.017445
v 0.073205 -0.115754 -0.015605
v 0.073200 -0.115769 -0.015548
v 0.072675 -0.115389 -0.012998
v 0.072956 -0.115593 -0.014365
v 0.072264 -0.114964 -0.011204
v 0.072241 -0.114836 -0.011272
v 0.072241 -0.114837 -0.011274
v 0.072241 -0.114837 -0.011271
v 0.072309 -0.114949 -0.011197
v 0.072852 -0.115760 -0.011814
v 0.072991 -0.115985 -0.011438
v 0.073133 -0.116216 -0.011052
v 0.072812 -0.115786 -0.010642
v 0.072998 -0.116066 -0.010450
v 0.073010 -0.116056 -0.010832
v 0.073104 -0.116184 -0.010922
v 0.073239 -0.116341 -0.011039
v 0.073844 -0.117078 -0.009704
v 0.075074 -0.118435 -0.015528
v 0.073345 -0.116462 -0.011299
v 0.073803 -0.116995 -0.011833
v 0.073849 -0.117052 -0.011680
v 0.073876 -0.117084 -0.011592
v 0.073855 -0.117060 -0.011574
v 0.075804 -0.113793 -0.010642
v 0.076298 -0.118667 -0.015033
v 0.075172 -0.117330 -0.009166
v 0.080266 -0.123418 -0.045806
v 0.080389 -0.124103 -0.045443
v 0.078894 -0.121793 -0.040153
v 0.079339 -0.121081 -0.040350
v 0.080654 -0.122798 -0.045977
v 0.079034 -0.122580 -0.039736
v 0.080777 -0.124685 -0.045045
v 0.079480 -0.123249 -0.039279
v 0.080056 -0.120578 -0.040362
v 0.077521 -0.120168 -0.034501
v 0.077680 -0.121057 -0.034030
v 0.076710 -0.117646 -0.029096
v 0.078024 -0.119363 -0.034723
v 0.078184 -0.121812 -0.033513
v 0.077612 -0.117013 -0.029111
v 0.078764 -0.122506 -0.033001
v 0.076887 -0.120376 -0.027747
v 0.079994 -0.123863 -0.038826
v 0.078834 -0.118795 -0.034737
v 0.081224 -0.125220 -0.044650
v 0.079659 -0.118246 -0.034737
v 0.080787 -0.120091 -0.040362
v 0.080800 -0.124016 -0.038499
v 0.080542 -0.117828 -0.034656
v 0.077534 -0.121149 -0.027177
v 0.079675 -0.122679 -0.032633
v 0.078532 -0.116400 -0.029111
v 0.079515 -0.115935 -0.029021
v 0.080557 -0.122261 -0.032552
v 0.078549 -0.121342 -0.026766
v 0.080530 -0.116127 -0.028610
v 0.081638 -0.125043 -0.051459
v 0.081743 -0.125626 -0.051150
v 0.081969 -0.124515 -0.051604
v 0.082073 -0.126122 -0.050810
v 0.081278 -0.122360 -0.045988
v 0.082454 -0.126577 -0.050475
v 0.082500 -0.124142 -0.051613
v 0.083336 -0.125099 -0.050897
v 0.081914 -0.121936 -0.045988
v 0.083042 -0.123781 -0.051613
v 0.083051 -0.126690 -0.050232
v 0.081926 -0.125353 -0.044366
v 0.082594 -0.121614 -0.045926
v 0.081568 -0.119721 -0.040291
v 0.083630 -0.126416 -0.050180
v 0.082606 -0.125031 -0.044304
v 0.081581 -0.123646 -0.038428
v 0.083242 -0.124608 -0.044304
v 0.082374 -0.119874 -0.039964
v 0.083621 -0.123507 -0.051561
v 0.084218 -0.123620 -0.051318
v 0.084172 -0.126056 -0.050180
v 0.083296 -0.121747 -0.045641
v 0.083743 -0.122282 -0.045247
v 0.084599 -0.124076 -0.050983
v 0.084703 -0.125683 -0.050189
v 0.084929 -0.124572 -0.050643
v 0.085034 -0.125155 -0.050334
v 0.084131 -0.122865 -0.044849
v 0.084254 -0.123549 -0.044486
v 0.083866 -0.124170 -0.044314
v 0.082312 -0.123160 -0.038428
v 0.082888 -0.120488 -0.039511
v 0.083029 -0.122657 -0.038440
v 0.083334 -0.121157 -0.039054
v 0.083475 -0.121944 -0.038637
v 0.081452 -0.118000 -0.034287
v 0.082032 -0.118694 -0.033776
v 0.081382 -0.121711 -0.032552
v 0.079532 -0.120876 -0.026676
v 0.082192 -0.121143 -0.032566
v 0.080452 -0.120263 -0.026676
v 0.081177 -0.116901 -0.028040
v 0.082536 -0.119450 -0.033259
v 0.082695 -0.120338 -0.032788
v 0.081355 -0.119630 -0.026691
v 0.081738 -0.117743 -0.027464
v 0.081915 -0.118733 -0.026939
v 0.077405 -0.114555 -0.023486
v 0.076079 -0.113610 -0.019524
v 0.076311 -0.113451 -0.019513
v 0.076373 -0.113407 -0.019510
v 0.076606 -0.113248 -0.019499
v 0.077423 -0.120004 -0.020899
v 0.077183 -0.112922 -0.019321
v 0.077367 -0.112745 -0.019086
v 0.077450 -0.112664 -0.018978
v 0.078489 -0.114042 -0.023387
v 0.077642 -0.112479 -0.018734
v 0.078192 -0.112313 -0.017549
v 0.079608 -0.114254 -0.022933
v 0.078508 -0.119491 -0.020800
v 0.078686 -0.112381 -0.017256
v 0.079522 -0.118815 -0.020800
v 0.080322 -0.115107 -0.022304
v 0.079466 -0.113313 -0.016569
v 0.077483 -0.118106 -0.014924
v 0.076459 -0.116721 -0.009048
v 0.077662 -0.115919 -0.009048
v 0.078592 -0.117367 -0.014924
v 0.078843 -0.115091 -0.009068
v 0.079345 -0.112621 -0.010079
v 0.078797 -0.111799 -0.010642
v 0.079577 -0.113917 -0.009393
v 0.077764 -0.110507 -0.011579
v 0.077759 -0.110534 -0.011680
v 0.077733 -0.110501 -0.011592
v 0.077754 -0.110525 -0.011574
v 0.077806 -0.110591 -0.011833
v 0.078263 -0.111123 -0.011299
v 0.078370 -0.111245 -0.011039
v 0.078208 -0.112308 -0.017513
v 0.078216 -0.112305 -0.017497
v 0.078221 -0.112292 -0.017445
v 0.078403 -0.111831 -0.015605
v 0.078409 -0.111817 -0.015548
v 0.078652 -0.111993 -0.014365
v 0.078933 -0.112196 -0.012998
v 0.080517 -0.118117 -0.020817
v 0.080143 -0.114329 -0.015874
v 0.081136 -0.117128 -0.021090
v 0.080356 -0.115522 -0.015241
v 0.079680 -0.116604 -0.014943
v 0.079367 -0.112749 -0.011274
v 0.078475 -0.111369 -0.011052
v 0.078505 -0.111402 -0.010922
v 0.078611 -0.111519 -0.010833
v 0.078618 -0.111600 -0.011438
v 0.078757 -0.111826 -0.011813
v 0.078598 -0.111529 -0.010832
v 0.079300 -0.112636 -0.011197
v 0.079368 -0.112750 -0.011272
v 0.079367 -0.112748 -0.011271
v 0.080940 -0.116036 -0.021669
v 0.066679 -0.103014 -0.050643
v 0.068273 -0.102487 -0.050897
v 0.067010 -0.103510 -0.050983
v 0.067391 -0.103965 -0.051318
v 0.067865 -0.105304 -0.045247
v 0.066575 -0.102431 -0.050334
v 0.066905 -0.101903 -0.050189
v 0.067437 -0.101530 -0.050180
v 0.067355 -0.104036 -0.044486
v 0.067477 -0.104721 -0.044849
v 0.067742 -0.103416 -0.044314
v 0.068367 -0.102978 -0.044304
v 0.067988 -0.104078 -0.051561
v 0.068567 -0.103804 -0.051613
v 0.068313 -0.105839 -0.045641
v 0.067978 -0.101169 -0.050180
v 0.068557 -0.100895 -0.050232
v 0.069109 -0.103444 -0.051613
v 0.069014 -0.105971 -0.045926
v 0.069155 -0.101008 -0.050475
v 0.069003 -0.102554 -0.044304
v 0.069683 -0.102232 -0.044366
v 0.068134 -0.105642 -0.038637
v 0.069235 -0.107712 -0.039964
v 0.068275 -0.106428 -0.039054
v 0.068580 -0.104929 -0.038440
v 0.068721 -0.107097 -0.039511
v 0.069297 -0.104426 -0.038428
v 0.069640 -0.103071 -0.051604
v 0.069694 -0.105650 -0.045988
v 0.069536 -0.101464 -0.050810
v 0.069970 -0.102543 -0.051459
v 0.069866 -0.101960 -0.051150
v 0.070331 -0.105226 -0.045988
v 0.070385 -0.102365 -0.044650
v 0.070832 -0.102900 -0.045045
v 0.070955 -0.104788 -0.045977
v 0.071220 -0.103483 -0.045443
v 0.071343 -0.104167 -0.045806
v 0.070041 -0.107865 -0.040291
v 0.070027 -0.103939 -0.038428
v 0.070808 -0.103570 -0.038499
v 0.070822 -0.107495 -0.040362
v 0.071552 -0.107008 -0.040362
v 0.071615 -0.103722 -0.038826
v 0.072128 -0.104337 -0.039279
v 0.069073 -0.108135 -0.033259
v 0.068914 -0.107247 -0.032788
v 0.069417 -0.106442 -0.032566
v 0.069576 -0.108891 -0.033776
v 0.070227 -0.105874 -0.032552
v 0.070156 -0.109585 -0.034287
v 0.071067 -0.109758 -0.034656
v 0.071052 -0.105324 -0.032552
v 0.071934 -0.104907 -0.032633
v 0.069693 -0.108853 -0.026939
v 0.069870 -0.109843 -0.027464
v 0.070254 -0.107955 -0.026691
v 0.070432 -0.110685 -0.028040
v 0.071157 -0.107322 -0.026676
v 0.071078 -0.111458 -0.028610
v 0.072076 -0.106709 -0.026676
v 0.072269 -0.106505 -0.040350
v 0.072715 -0.105792 -0.040153
v 0.072574 -0.105006 -0.039736
v 0.071949 -0.109340 -0.034737
v 0.072774 -0.108790 -0.034737
v 0.072845 -0.105079 -0.033001
v 0.073584 -0.108222 -0.034723
v 0.073425 -0.105773 -0.033513
v 0.073928 -0.106529 -0.034030
v 0.074087 -0.107417 -0.034501
v 0.072093 -0.111651 -0.029021
v 0.073060 -0.106244 -0.026766
v 0.073077 -0.111185 -0.029111
v 0.073996 -0.110573 -0.029111
v 0.074074 -0.106436 -0.027177
v 0.074721 -0.107210 -0.027747
v 0.074899 -0.109939 -0.029096
v 0.075282 -0.108052 -0.028323
v 0.075460 -0.109042 -0.028848
v 0.070473 -0.110458 -0.021090
v 0.071287 -0.112479 -0.022304
v 0.070668 -0.111550 -0.021669
v 0.071466 -0.113257 -0.015874
v 0.071091 -0.109469 -0.020817
v 0.072087 -0.108770 -0.020800
v 0.071252 -0.112063 -0.015241
v 0.071928 -0.110982 -0.014943
v 0.072000 -0.113332 -0.022933
v 0.073119 -0.113544 -0.023387
v 0.074204 -0.113030 -0.023486
v 0.072143 -0.114273 -0.016569
v 0.073101 -0.108095 -0.020800
v 0.072922 -0.115205 -0.017256
v 0.074185 -0.107581 -0.020899
v 0.075218 -0.112355 -0.023486
v 0.075304 -0.107793 -0.021353
v 0.076214 -0.111656 -0.023469
v 0.076018 -0.108646 -0.021982
v 0.076637 -0.109575 -0.022617
v 0.073017 -0.110218 -0.014924
v 0.074125 -0.109480 -0.014924
v 0.072032 -0.113669 -0.009393
v 0.072766 -0.112495 -0.009068
v 0.072264 -0.114964 -0.010079
v 0.073947 -0.111666 -0.009048
v 0.072998 -0.116066 -0.010833
v 0.073844 -0.117078 -0.011579
v 0.075311 -0.108919 -0.015033
v 0.076534 -0.109150 -0.015528
v 0.075150 -0.110865 -0.009048
v 0.076437 -0.110256 -0.009166
v 0.076832 -0.110667 -0.023196
v 0.077314 -0.110083 -0.016216
v 0.077991 -0.111098 -0.016910
v 0.078204 -0.112292 -0.017543
v 0.077764 -0.110507 -0.009704
v 0.078611 -0.111519 -0.010450
v 0.079345 -0.112621 -0.011204
f 1 2 3
f 1 3 4
f 1 4 5
f 4 6 7
f 7 8 4
f 1 9 2
f 4 10 6
f 10 11 6
f 1 12 9
f 10 13 11
f 10 14 13
f 10 15 14
f 10 16 15
f 17 18 9
f 5 19 20
f 5 21 22
f 5 22 23
f 5 20 21
f 5 23 12
f 12 23 24
f 25 26 27
f 25 27 28
f 25 28 29
f 25 30 26
f 25 29 31
f 25 32 30
f 25 31 33
f 25 34 32
f 25 33 34
f 34 35 32
f 34 33 36
f 34 37 35
f 34 38 37
f 34 36 38
f 39 40 38
f 39 41 40
f 39 42 41
f 4 19 5
f 8 43 4
f 4 43 19
f 1 5 12
f 12 17 9
f 12 44 17
f 17 45 18
f 12 24 44
f 17 44 42
f 39 17 42
f 39 46 17
f 17 46 45
f 39 38 47
f 46 48 45
f 39 47 46
f 49 50 51
f 50 52 53
f 50 53 51
f 49 51 54
f 55 54 56
f 49 54 55
f 55 56 57
f 52 58 53
f 59 60 53
f 60 61 51
f 59 3 2
f 62 63 3
f 59 2 60
f 59 62 3
f 60 64 61
f 61 65 66
f 59 53 58
f 60 51 53
f 61 54 51
f 59 58 62
f 66 56 54
f 62 58 67
f 57 56 68
f 69 67 70
f 62 67 69
f 56 71 68
f 69 70 72
f 61 66 54
f 66 71 56
f 62 69 63
f 63 69 73
f 66 74 71
f 73 69 72
f 73 72 75
f 71 76 68
f 71 77 76
f 72 78 75
f 78 79 75
f 76 80 81
f 82 83 49
f 83 84 50
f 82 55 85
f 83 50 49
f 82 49 55
f 50 84 52
f 55 57 85
f 52 84 86
f 82 87 83
f 82 85 87
f 83 87 84
f 85 88 87
f 89 86 90
f 57 88 85
f 52 86 89
f 57 91 88
f 89 90 92
f 91 93 88
f 91 94 93
f 52 89 58
f 89 92 67
f 57 68 91
f 89 67 58
f 67 92 70
f 70 92 95
f 91 96 94
f 70 95 97
f 94 98 99
f 84 87 86
f 88 93 87
f 86 87 90
f 93 100 87
f 90 101 92
f 90 87 101
f 87 100 102
f 95 101 103
f 93 94 100
f 92 101 95
f 100 99 102
f 95 103 104
f 87 103 101
f 87 102 105
f 87 106 103
f 87 105 107
f 87 108 106
f 87 107 108
f 103 106 104
f 102 109 105
f 106 110 104
f 108 111 110
f 107 112 111
f 106 108 110
f 108 107 111
f 105 112 107
f 100 94 99
f 95 104 97
f 99 109 102
f 99 113 109
f 104 114 97
f 110 115 114
f 104 110 114
f 110 111 115
f 109 116 112
f 105 109 112
f 112 117 111
f 91 68 96
f 72 70 97
f 76 96 68
f 72 97 78
f 96 81 98
f 96 98 94
f 99 98 113
f 78 97 114
f 78 114 118
f 98 119 113
f 114 115 118
f 76 81 96
f 81 119 98
f 78 118 79
f 118 120 79
f 81 121 119
f 115 122 118
f 113 119 123
f 118 122 120
f 122 124 125
f 119 126 123
f 123 127 124
f 109 113 116
f 111 117 115
f 112 116 117
f 115 117 122
f 113 123 116
f 116 124 117
f 122 117 124
f 116 123 124
f 60 2 64
f 4 3 63
f 4 63 10
f 2 9 64
f 10 73 128
f 64 18 65
f 61 64 65
f 66 65 74
f 10 63 73
f 129 74 65
f 73 75 128
f 128 75 130
f 64 9 18
f 18 129 65
f 10 128 16
f 128 131 16
f 128 132 131
f 128 133 132
f 128 134 133
f 129 135 74
f 128 130 134
f 130 136 134
f 130 137 136
f 130 138 137
f 139 140 138
f 139 141 140
f 74 77 71
f 130 75 79
f 130 79 139
f 76 77 80
f 79 120 139
f 74 135 77
f 135 142 77
f 130 139 138
f 143 141 139
f 143 139 144
f 77 142 80
f 80 142 145
f 139 120 144
f 80 145 121
f 144 146 147
f 18 45 129
f 129 45 148
f 129 148 135
f 143 149 141
f 143 150 149
f 143 151 150
f 135 148 152
f 45 48 148
f 46 47 48
f 48 153 148
f 148 153 152
f 48 47 153
f 152 153 154
f 153 47 154
f 143 147 151
f 147 155 151
f 135 152 142
f 143 144 147
f 147 156 155
f 147 157 156
f 152 158 142
f 147 159 157
f 147 160 159
f 161 147 162
f 142 158 145
f 146 162 147
f 145 163 164
f 145 158 163
f 161 160 147
f 161 165 160
f 152 154 158
f 161 162 166
f 162 167 166
f 162 168 167
f 161 169 170
f 161 170 165
f 161 171 169
f 161 166 47
f 161 47 171
f 172 47 173
f 154 174 158
f 172 173 175
f 172 175 176
f 172 176 177
f 154 47 174
f 172 177 47
f 174 47 177
f 158 174 163
f 162 178 179
f 162 179 168
f 178 180 179
f 178 181 180
f 178 182 181
f 163 177 178
f 177 182 178
f 177 176 183
f 163 174 177
f 177 183 182
f 81 80 121
f 122 125 120
f 119 121 126
f 144 120 125
f 125 127 146
f 124 127 125
f 123 126 127
f 126 184 127
f 144 125 146
f 145 164 121
f 146 127 184
f 126 164 184
f 121 164 126
f 146 184 162
f 164 178 184
f 184 178 162
f 164 163 178
f 185 186 187
f 188 185 187
f 188 187 189
f 189 187 190
f 186 191 187
f 191 192 187
f 186 193 191
f 188 189 194
f 188 195 185
f 185 196 186
f 189 190 197
f 185 195 196
f 188 194 195
f 186 196 193
f 190 187 198
f 192 199 187
f 191 200 192
f 187 201 198
f 187 202 201
f 187 199 203
f 187 203 204
f 192 205 199
f 190 198 206
f 191 193 200
f 198 201 207
f 192 200 205
f 189 197 194
f 195 194 208
f 190 206 197
f 198 207 206
f 193 209 200
f 195 210 196
f 194 197 211
f 196 212 193
f 197 206 213
f 196 210 212
f 193 212 209
f 187 214 202
f 187 204 215
f 187 215 216
f 187 216 214
f 199 217 203
f 203 218 204
f 201 202 219
f 201 219 207
f 199 205 217
f 202 214 220
f 202 220 219
f 203 217 218
f 214 216 221
f 204 222 215
f 216 215 223
f 214 221 220
f 204 218 222
f 215 222 223
f 216 223 221
f 200 224 205
f 206 207 225
f 207 219 226
f 200 209 224
f 205 227 217
f 217 228 218
f 205 224 227
f 219 220 229
f 217 227 228
f 195 208 210
f 194 211 208
f 197 213 211
f 208 230 210
f 208 211 231
f 211 213 232
f 211 232 231
f 208 231 230
f 206 225 213
f 207 226 225
f 210 233 212
f 212 234 209
f 213 225 235
f 212 233 234
f 219 229 226
f 209 236 224
f 225 226 237
f 209 234 236
f 226 229 238
f 213 235 232
f 210 230 233
f 231 232 239
f 230 240 233
f 231 241 230
f 232 235 242
f 225 237 235
f 226 238 237
f 235 237 243
f 233 244 234
f 233 240 244
f 218 245 222
f 222 246 223
f 220 221 247
f 221 223 248
f 218 228 245
f 221 248 247
f 223 246 248
f 222 245 246
f 220 247 229
f 224 249 227
f 227 250 228
f 224 236 249
f 229 247 251
f 227 249 250
f 228 252 245
f 247 248 253
f 248 246 254
f 245 255 246
f 228 250 252
f 229 251 238
f 234 256 236
f 237 238 257
f 238 251 258
f 234 244 256
f 247 253 251
f 248 254 253
f 236 259 249
f 236 256 259
f 249 260 250
f 251 253 261
f 249 259 260
f 246 255 254
f 245 252 255
f 253 254 262
f 250 263 252
f 254 255 264
f 252 265 255
f 250 260 263
f 252 263 265
f 231 239 241
f 232 242 239
f 239 242 266
f 230 241 240
f 235 243 242
f 237 257 243
f 239 267 241
f 241 268 240
f 242 243 269
f 239 266 267
f 242 269 266
f 243 270 269
f 241 267 268
f 266 271 267
f 266 269 272
f 266 272 271
f 269 273 272
f 238 258 257
f 240 274 244
f 251 261 258
f 244 275 256
f 244 274 275
f 243 257 270
f 257 258 276
f 257 276 270
f 240 268 274
f 267 277 268
f 258 261 278
f 258 278 276
f 268 279 274
f 274 11 275
f 274 279 7
f 253 262 261
f 254 264 262
f 261 262 280
f 256 281 259
f 256 275 281
f 259 282 260
f 255 265 264
f 262 264 283
f 260 284 263
f 264 265 285
f 259 281 282
f 260 282 284
f 261 280 278
f 274 6 11
f 274 7 6
f 275 15 281
f 275 11 13
f 275 13 14
f 275 14 15
f 262 283 280
f 264 285 283
f 281 15 16
f 281 16 131
f 281 133 282
f 281 131 132
f 281 132 133
f 269 270 273
f 270 276 286
f 270 286 273
f 267 271 277
f 276 278 287
f 276 287 286
f 268 277 279
f 277 19 279
f 277 20 19
f 277 22 21
f 271 288 277
f 277 23 22
f 277 24 23
f 277 21 20
f 272 273 289
f 272 289 28
f 272 30 271
f 273 286 290
f 272 27 26
f 272 28 27
f 272 26 30
f 271 30 32
f 273 290 289
f 289 29 28
f 289 31 29
f 286 287 291
f 271 35 37
f 271 37 288
f 271 32 35
f 277 288 24
f 288 44 24
f 289 292 31
f 292 33 31
f 292 36 33
f 286 291 290
f 292 38 36
f 288 37 38
f 288 38 40
f 288 40 41
f 288 42 44
f 288 41 42
f 278 280 293
f 278 293 287
f 279 8 7
f 279 43 8
f 279 19 43
f 280 294 293
f 280 283 294
f 287 293 295
f 287 295 291
f 289 47 292
f 289 290 47
f 293 294 296
f 293 296 295
f 292 47 38
f 290 291 47
f 291 295 47
f 263 297 265
f 263 284 297
f 265 297 285
f 283 285 298
f 285 297 299
f 282 133 134
f 282 134 136
f 282 140 284
f 282 136 137
f 282 137 138
f 282 138 140
f 284 300 297
f 284 140 141
f 284 141 149
f 283 298 294
f 285 299 298
f 297 300 299
f 298 299 165
f 284 150 151
f 284 149 150
f 284 151 300
f 294 298 301
f 294 301 296
f 295 296 47
f 298 302 301
f 298 165 170
f 298 170 302
f 296 301 47
f 299 160 165
f 301 302 47
f 300 151 155
f 300 155 156
f 299 300 159
f 300 156 157
f 300 157 159
f 299 159 160
f 302 170 169
f 302 169 171
f 302 171 47
f 303 166 167
f 303 47 166
f 303 173 47
f 303 167 168
f 303 168 304
f 303 304 175
f 304 176 175
f 303 175 173
f 304 168 179
f 304 179 180
f 304 183 176
f 304 180 181
f 304 181 182
f 304 182 183
f 305 306 307
f 305 308 306
f 305 309 310
f 305 311 309
f 305 310 312
f 305 312 313
f 305 307 311
f 305 313 308
f 311 314 315
f 308 313 316
f 308 316 317
f 308 317 318
f 308 319 320
f 321 314 322
f 308 318 323
f 308 323 319
f 309 324 325
f 309 326 324
f 309 315 326
f 315 327 326
f 315 328 327
f 315 329 328
f 315 330 331
f 315 331 329
f 315 321 332
f 332 333 334
f 332 335 333
f 332 336 335
f 315 332 330
f 332 334 330
f 332 321 337
f 321 338 337
f 321 339 338
f 332 340 336
f 332 337 340
f 341 342 343
f 341 340 342
f 341 343 344
f 341 344 345
f 311 315 309
f 309 325 310
f 315 314 321
f 321 322 346
f 321 347 339
f 321 346 347
f 346 348 347
f 346 349 348
f 346 350 349
f 346 345 350
f 345 344 351
f 345 351 350
f 341 352 340
f 341 345 352
f 346 353 345
f 345 353 354
f 345 354 352
f 355 356 357
f 355 358 359
f 356 360 357
f 355 357 358
f 361 362 360
f 356 361 360
f 359 358 363
f 364 360 365
f 364 306 366
f 365 307 306
f 364 365 306
f 364 366 367
f 365 368 307
f 367 366 369
f 368 370 371
f 367 358 357
f 364 357 360
f 364 367 357
f 365 360 362
f 368 362 372
f 367 373 358
f 358 373 363
f 374 372 362
f 363 375 376
f 363 373 375
f 372 377 370
f 375 378 376
f 365 362 368
f 368 372 370
f 379 370 380
f 367 369 373
f 369 381 373
f 373 381 375
f 375 381 382
f 370 377 380
f 380 383 384
f 375 382 378
f 378 382 385
f 386 387 355
f 386 359 388
f 387 389 356
f 386 355 359
f 387 356 355
f 359 390 388
f 356 389 361
f 361 391 374
f 390 392 388
f 386 393 387
f 386 388 393
f 387 393 389
f 388 392 393
f 389 393 391
f 392 394 395
f 361 389 391
f 390 394 392
f 374 396 397
f 374 391 396
f 395 394 398
f 359 363 390
f 390 376 394
f 361 374 362
f 390 363 376
f 374 397 372
f 376 399 394
f 399 398 394
f 397 400 401
f 377 397 401
f 402 401 403
f 399 404 398
f 392 395 393
f 391 393 396
f 395 398 405
f 395 405 393
f 393 400 396
f 393 405 406
f 393 407 400
f 408 406 405
f 396 400 397
f 398 408 405
f 401 400 407
f 408 409 406
f 393 406 410
f 393 411 407
f 393 410 412
f 393 412 413
f 393 413 411
f 406 409 410
f 403 407 411
f 410 409 414
f 412 414 415
f 413 415 416
f 410 414 412
f 412 415 413
f 413 416 411
f 398 404 408
f 401 407 403
f 403 416 417
f 408 404 418
f 408 418 409
f 416 415 419
f 409 420 414
f 409 418 420
f 403 411 416
f 414 421 415
f 372 397 377
f 376 378 399
f 380 377 402
f 402 417 383
f 399 378 422
f 377 401 402
f 402 403 417
f 399 422 404
f 422 423 404
f 404 423 418
f 424 417 419
f 380 402 383
f 383 417 424
f 383 424 425
f 378 385 422
f 424 426 427
f 422 428 423
f 424 419 426
f 418 423 429
f 426 430 431
f 423 432 429
f 429 433 430
f 416 419 417
f 415 421 419
f 414 420 421
f 418 429 420
f 419 421 426
f 420 430 421
f 420 429 430
f 426 421 430
f 311 307 371
f 306 308 366
f 366 308 320
f 371 379 314
f 366 320 369
f 368 371 307
f 371 370 379
f 322 379 384
f 320 434 369
f 369 434 381
f 311 371 314
f 314 379 322
f 320 319 435
f 320 435 436
f 320 436 437
f 320 438 434
f 320 437 438
f 322 384 439
f 434 438 440
f 434 440 441
f 434 441 442
f 434 442 443
f 443 442 444
f 443 444 445
f 379 380 384
f 434 443 381
f 443 382 381
f 443 446 382
f 383 425 384
f 382 446 385
f 439 384 425
f 439 425 447
f 443 448 446
f 447 425 427
f 447 427 449
f 446 450 385
f 446 451 450
f 346 322 439
f 346 439 353
f 439 447 353
f 447 452 353
f 354 353 452
f 354 452 453
f 354 453 352
f 453 454 352
f 453 452 455
f 454 456 352
f 453 455 454
f 457 458 352
f 456 459 352
f 460 461 462
f 460 462 463
f 460 464 461
f 460 465 464
f 460 463 466
f 447 449 452
f 443 445 467
f 443 467 468
f 443 468 448
f 448 468 469
f 446 448 451
f 452 449 455
f 448 469 470
f 448 470 471
f 448 471 472
f 448 472 451
f 451 472 473
f 449 474 455
f 450 451 475
f 476 477 478
f 474 478 455
f 451 479 475
f 454 455 478
f 451 473 479
f 460 480 465
f 460 466 481
f 460 482 480
f 460 481 482
f 482 483 480
f 482 484 483
f 482 481 485
f 482 485 458
f 457 352 459
f 454 478 456
f 482 458 484
f 457 486 458
f 478 477 456
f 475 479 487
f 475 487 457
f 475 457 459
f 475 459 477
f 457 488 486
f 457 487 488
f 456 477 459
f 424 427 425
f 426 431 427
f 422 385 428
f 385 450 428
f 428 489 432
f 430 433 431
f 423 428 432
f 429 432 433
f 432 476 433
f 449 427 431
f 449 431 474
f 428 450 489
f 431 433 474
f 432 489 476
f 474 433 476
f 450 475 489
f 474 476 478
f 489 477 476
f 489 475 477
f 490 491 492
f 492 491 493
f 492 493 494
f 490 495 491
f 495 496 491
f 496 497 491
f 490 498 495
f 490 492 499
f 495 500 496
f 490 499 498
f 495 498 500
f 492 494 499
f 496 501 497
f 493 491 502
f 502 491 503
f 493 502 504
f 497 505 491
f 505 506 491
f 503 491 507
f 502 503 508
f 491 506 509
f 493 504 494
f 497 510 505
f 502 508 504
f 505 511 506
f 496 500 501
f 498 499 512
f 497 501 510
f 504 508 513
f 499 494 514
f 498 515 500
f 494 504 516
f 494 516 514
f 500 517 501
f 504 513 516
f 491 518 507
f 503 507 519
f 491 509 520
f 491 521 518
f 491 520 522
f 491 522 521
f 507 518 523
f 503 519 508
f 506 524 509
f 507 523 519
f 509 525 520
f 506 511 524
f 518 521 526
f 520 527 522
f 522 528 521
f 518 526 523
f 509 524 525
f 520 525 527
f 521 528 526
f 522 527 528
f 505 510 511
f 508 519 529
f 501 530 510
f 508 529 513
f 510 531 511
f 519 523 532
f 523 526 533
f 519 532 529
f 511 534 524
f 524 535 525
f 523 533 532
f 499 514 512
f 498 512 515
f 500 515 517
f 514 516 536
f 512 514 537
f 512 538 515
f 514 536 537
f 512 537 538
f 501 517 530
f 510 530 531
f 516 513 539
f 515 540 517
f 513 529 541
f 513 541 539
f 511 531 534
f 529 532 542
f 517 543 530
f 529 542 541
f 530 544 531
f 516 539 536
f 515 538 540
f 537 536 545
f 536 539 546
f 537 547 538
f 517 540 543
f 530 543 544
f 539 541 548
f 538 549 540
f 541 542 550
f 540 551 543
f 526 528 552
f 527 553 528
f 525 554 527
f 526 552 533
f 525 535 554
f 528 553 552
f 527 554 553
f 524 534 535
f 532 533 555
f 533 552 556
f 532 555 542
f 531 557 534
f 533 556 555
f 552 553 558
f 534 559 535
f 535 560 554
f 552 558 556
f 554 561 553
f 553 561 558
f 542 562 550
f 531 544 557
f 542 555 562
f 543 563 544
f 534 557 559
f 535 559 560
f 555 556 564
f 555 564 562
f 556 558 565
f 544 566 557
f 556 565 564
f 554 560 561
f 557 567 559
f 558 561 568
f 559 569 560
f 561 560 570
f 558 568 565
f 561 570 568
f 560 569 570
f 536 546 545
f 539 548 546
f 537 545 547
f 545 546 571
f 548 550 572
f 541 550 548
f 538 547 549
f 540 549 551
f 548 573 546
f 548 572 573
f 573 572 574
f 545 575 547
f 546 573 571
f 545 571 575
f 547 576 549
f 547 575 576
f 571 573 577
f 573 574 577
f 571 578 575
f 550 562 579
f 543 551 563
f 562 564 580
f 562 580 579
f 564 581 580
f 544 563 566
f 550 579 572
f 572 579 582
f 549 583 551
f 549 576 583
f 579 580 584
f 551 585 563
f 551 583 585
f 564 565 581
f 565 586 581
f 557 566 567
f 559 567 569
f 563 587 566
f 565 568 586
f 568 588 586
f 566 589 567
f 568 570 588
f 567 590 569
f 580 581 312
f 580 312 310
f 580 310 325
f 581 313 312
f 581 316 313
f 581 317 316
f 563 585 587
f 581 586 317
f 586 318 317
f 586 323 318
f 586 319 323
f 586 435 319
f 566 587 589
f 567 589 590
f 571 577 578
f 572 582 574
f 574 582 334
f 575 591 576
f 575 578 591
f 579 584 582
f 584 580 326
f 324 580 325
f 580 324 326
f 584 326 327
f 582 584 331
f 582 331 330
f 584 327 328
f 584 329 331
f 584 328 329
f 576 592 583
f 576 591 592
f 577 574 593
f 577 594 578
f 574 334 333
f 574 333 595
f 574 595 593
f 577 593 594
f 595 333 335
f 595 335 336
f 582 330 334
f 578 596 591
f 595 336 340
f 597 340 337
f 578 594 596
f 597 337 338
f 597 338 339
f 597 342 340
f 597 343 342
f 597 339 598
f 597 598 343
f 598 344 343
f 598 339 347
f 593 595 352
f 583 599 585
f 583 592 599
f 585 600 587
f 585 599 600
f 598 347 348
f 598 351 344
f 595 340 352
f 598 348 349
f 598 349 350
f 598 350 351
f 591 596 601
f 593 352 594
f 594 352 596
f 591 601 592
f 596 352 601
f 601 352 602
f 592 602 599
f 592 601 602
f 569 603 570
f 570 603 588
f 586 588 435
f 588 436 435
f 588 437 436
f 588 603 441
f 588 438 437
f 588 440 438
f 588 441 440
f 569 590 603
f 587 604 589
f 589 605 590
f 603 442 441
f 603 444 442
f 603 606 444
f 590 606 603
f 587 600 604
f 590 605 606
f 606 445 444
f 589 604 605
f 602 352 607
f 599 607 600
f 599 602 607
f 604 465 480
f 607 352 608
f 608 352 458
f 600 465 604
f 600 462 461
f 600 461 464
f 600 464 465
f 600 607 462
f 607 463 462
f 607 466 463
f 606 467 445
f 606 468 467
f 606 605 468
f 605 469 468
f 605 470 469
f 605 471 470
f 605 472 471
f 604 609 605
f 605 473 472
f 604 483 484
f 604 484 609
f 604 480 483
f 605 609 473
f 609 479 473
f 607 608 466
f 608 481 466
f 608 485 481
f 608 458 485
f 609 484 458
f 609 458 486
f 609 486 488
f 609 488 487
f 609 487 479
