# sionna2 mesh — mini5pro__canopy.obj
# group=canopy  verts=1122  tris=2240
v -0.062979 0.020675 0.011423
v -0.062979 0.021189 0.009717
v -0.066544 0.016378 0.009880
v -0.066544 0.015847 0.011087
v -0.062979 0.019369 0.012454
v -0.066544 0.014770 0.011752
v -0.062979 0.017803 0.012985
v -0.066544 0.013551 0.012093
v -0.062979 0.016197 0.013308
v -0.066544 0.012311 0.012308
v -0.062979 0.014581 0.013529
v -0.066544 0.011065 0.012456
v -0.062979 0.012960 0.013683
v -0.066544 0.009817 0.012560
v -0.062979 0.011338 0.013791
v -0.066544 0.008568 0.012632
v -0.062979 0.009713 0.013867
v -0.066544 0.007317 0.012683
v -0.062979 0.008089 0.013920
v -0.066544 0.006067 0.012718
v -0.062979 0.006464 0.013951
v -0.066544 0.004816 0.012739
v -0.062979 0.004839 0.013969
v -0.066544 0.003565 0.012750
v -0.062979 0.003214 0.013977
v -0.066544 0.002314 0.012755
v -0.062979 0.001588 0.013982
v -0.066544 0.001063 0.012759
v -0.062979 -0.000037 0.013985
v -0.066544 -0.000187 0.012761
v -0.062979 -0.001662 0.013982
v -0.066544 -0.001438 0.012758
v -0.062979 -0.003287 0.013977
v -0.066544 -0.002689 0.012754
v -0.062979 -0.004912 0.013969
v -0.066544 -0.003940 0.012748
v -0.062979 -0.006538 0.013949
v -0.066544 -0.005191 0.012733
v -0.062979 -0.008163 0.013917
v -0.066544 -0.006442 0.012709
v -0.062979 -0.009787 0.013862
v -0.066544 -0.007692 0.012668
v -0.062979 -0.011411 0.013783
v -0.066544 -0.008942 0.012611
v -0.062979 -0.013034 0.013672
v -0.066544 -0.010191 0.012531
v -0.062979 -0.014654 0.013514
v -0.066544 -0.011439 0.012415
v -0.062979 -0.016270 0.013287
v -0.066544 -0.012684 0.012250
v -0.062979 -0.017877 0.012954
v -0.066544 -0.013925 0.012009
v -0.062979 -0.019436 0.012393
v -0.066544 -0.015131 0.011592
v -0.062979 -0.020703 0.011316
v -0.066544 -0.016084 0.010749
v -0.062979 -0.021189 0.009586
v -0.066544 -0.016378 0.009422
v -0.062979 -0.020675 0.007880
v -0.066544 -0.015847 0.008216
v -0.062979 -0.019369 0.006848
v -0.066544 -0.014770 0.007551
v -0.062979 -0.017803 0.006318
v -0.066544 -0.013551 0.007210
v -0.062979 -0.016197 0.005995
v -0.066544 -0.012311 0.006995
v -0.062979 -0.014581 0.005774
v -0.066544 -0.011065 0.006846
v -0.062979 -0.012960 0.005620
v -0.066544 -0.009817 0.006743
v -0.062979 -0.011338 0.005512
v -0.066544 -0.008568 0.006671
v -0.062979 -0.009713 0.005435
v -0.066544 -0.007317 0.006620
v -0.062979 -0.008089 0.005383
v -0.066544 -0.006067 0.006585
v -0.062979 -0.006464 0.005352
v -0.066544 -0.004816 0.006564
v -0.062979 -0.004839 0.005333
v -0.066544 -0.003565 0.006552
v -0.062979 -0.003214 0.005325
v -0.066544 -0.002314 0.006547
v -0.062979 -0.001588 0.005320
v -0.066544 -0.001063 0.006544
v -0.062979 0.000037 0.005318
v -0.066544 0.000187 0.006542
v -0.062979 0.001662 0.005321
v -0.066544 0.001438 0.006545
v -0.062979 0.003287 0.005326
v -0.066544 0.002689 0.006548
v -0.062979 0.004912 0.005334
v -0.066544 0.003940 0.006555
v -0.062979 0.006538 0.005353
v -0.066544 0.005191 0.006569
v -0.062979 0.008163 0.005386
v -0.066544 0.006442 0.006594
v -0.062979 0.009787 0.005441
v -0.066544 0.007692 0.006634
v -0.062979 0.011411 0.005519
v -0.066544 0.008942 0.006691
v -0.062979 0.013034 0.005630
v -0.066544 0.010191 0.006772
v -0.062979 0.014654 0.005789
v -0.066544 0.011439 0.006888
v -0.062979 0.016270 0.006015
v -0.066544 0.012684 0.007052
v -0.062979 0.017877 0.006349
v -0.066544 0.013925 0.007294
v -0.062979 0.019436 0.006909
v -0.066544 0.015131 0.007711
v -0.062979 0.020703 0.007986
v -0.066544 0.016084 0.008554
v -0.058272 0.023742 0.011739
v -0.058272 0.024291 0.009704
v -0.058272 0.022288 0.013020
v -0.058272 0.020502 0.013698
v -0.058272 0.018656 0.014106
v -0.058272 0.016797 0.014384
v -0.058272 0.014932 0.014578
v -0.058272 0.013064 0.014714
v -0.058272 0.011194 0.014810
v -0.058272 0.009323 0.014876
v -0.058272 0.007452 0.014915
v -0.058272 0.005581 0.014938
v -0.058272 0.003710 0.014948
v -0.058272 0.001838 0.014954
v -0.058272 -0.000033 0.014958
v -0.058272 -0.001905 0.014954
v -0.058272 -0.003776 0.014948
v -0.058272 -0.005647 0.014937
v -0.058272 -0.007519 0.014914
v -0.058272 -0.009390 0.014873
v -0.058272 -0.011260 0.014805
v -0.058272 -0.013130 0.014707
v -0.058272 -0.014998 0.014569
v -0.058272 -0.016863 0.014371
v -0.058272 -0.018722 0.014088
v -0.058272 -0.020567 0.013670
v -0.058272 -0.022345 0.012966
v -0.058272 -0.023765 0.011650
v -0.058272 -0.024291 0.009598
v -0.058272 -0.023742 0.007564
v -0.058272 -0.022288 0.006283
v -0.058272 -0.020502 0.005605
v -0.058272 -0.018656 0.005197
v -0.058272 -0.016797 0.004919
v -0.058272 -0.014932 0.004725
v -0.058272 -0.013064 0.004589
v -0.058272 -0.011194 0.004493
v -0.058272 -0.009323 0.004427
v -0.058272 -0.007452 0.004387
v -0.058272 -0.005581 0.004364
v -0.058272 -0.003710 0.004355
v -0.058272 -0.001838 0.004348
v -0.058272 0.000033 0.004345
v -0.058272 0.001905 0.004349
v -0.058272 0.003776 0.004355
v -0.058272 0.005647 0.004365
v -0.058272 0.007519 0.004389
v -0.058272 0.009390 0.004430
v -0.058272 0.011260 0.004497
v -0.058272 0.013130 0.004595
v -0.058272 0.014998 0.004734
v -0.058272 0.016863 0.004932
v -0.058272 0.018722 0.005214
v -0.058272 0.020567 0.005633
v -0.058272 0.022345 0.006337
v -0.058272 0.023765 0.007652
v -0.053570 0.026336 0.012004
v -0.053570 0.026921 0.009697
v -0.053570 0.024755 0.013488
v -0.053570 0.022783 0.014289
v -0.053570 0.020735 0.014769
v -0.053570 0.018671 0.015095
v -0.053570 0.016599 0.015322
v -0.053570 0.014523 0.015482
v -0.053570 0.012445 0.015594
v -0.053570 0.010367 0.015672
v -0.053570 0.008287 0.015717
v -0.053570 0.006207 0.015744
v -0.053570 0.004128 0.015756
v -0.053570 0.002048 0.015763
v -0.053570 -0.000032 0.015767
v -0.053570 -0.002112 0.015763
v -0.053570 -0.004191 0.015756
v -0.053570 -0.006271 0.015744
v -0.053570 -0.008351 0.015716
v -0.053570 -0.010430 0.015669
v -0.053570 -0.012509 0.015590
v -0.053570 -0.014587 0.015476
v -0.053570 -0.016663 0.015314
v -0.053570 -0.018734 0.015084
v -0.053570 -0.020799 0.014754
v -0.053570 -0.022846 0.014265
v -0.053570 -0.024810 0.013442
v -0.053570 -0.026361 0.011927
v -0.053570 -0.026921 0.009605
v -0.053570 -0.026336 0.007299
v -0.053570 -0.024755 0.005814
v -0.053570 -0.022783 0.005013
v -0.053570 -0.020735 0.004533
v -0.053570 -0.018671 0.004208
v -0.053570 -0.016599 0.003980
v -0.053570 -0.014523 0.003821
v -0.053570 -0.012445 0.003708
v -0.053570 -0.010367 0.003631
v -0.053570 -0.008287 0.003585
v -0.053570 -0.006207 0.003558
v -0.053570 -0.004128 0.003547
v -0.053570 -0.002048 0.003540
v -0.053570 0.000032 0.003536
v -0.053570 0.002112 0.003540
v -0.053570 0.004191 0.003547
v -0.053570 0.006271 0.003559
v -0.053570 0.008351 0.003587
v -0.053570 0.010430 0.003633
v -0.053570 0.012509 0.003712
v -0.053570 0.014587 0.003827
v -0.053570 0.016663 0.003988
v -0.053570 0.018734 0.004219
v -0.053570 0.020799 0.004549
v -0.053570 0.022846 0.005038
v -0.053570 0.024810 0.005861
v -0.053570 0.026361 0.007376
v -0.048894 0.028496 0.012215
v -0.048894 0.029109 0.009688
v -0.048894 0.026809 0.013865
v -0.048894 0.024684 0.014767
v -0.048894 0.022469 0.015305
v -0.048894 0.020234 0.015670
v -0.048894 0.017990 0.015924
v -0.048894 0.015741 0.016103
v -0.048894 0.013491 0.016229
v -0.048894 0.011239 0.016315
v -0.048894 0.008986 0.016367
v -0.048894 0.006733 0.016397
v -0.048894 0.004480 0.016410
v -0.048894 0.002227 0.016418
v -0.048894 -0.000026 0.016422
v -0.048894 -0.002279 0.016417
v -0.048894 -0.004532 0.016409
v -0.048894 -0.006785 0.016396
v -0.048894 -0.009038 0.016366
v -0.048894 -0.011290 0.016314
v -0.048894 -0.013542 0.016226
v -0.048894 -0.015793 0.016098
v -0.048894 -0.018041 0.015918
v -0.048894 -0.020285 0.015661
v -0.048894 -0.022520 0.015293
v -0.048894 -0.024735 0.014748
v -0.048894 -0.026854 0.013829
v -0.048894 -0.028517 0.012154
v -0.048894 -0.029109 0.009615
v -0.048894 -0.028496 0.007088
v -0.048894 -0.026809 0.005437
v -0.048894 -0.024684 0.004536
v -0.048894 -0.022469 0.003997
v -0.048894 -0.020234 0.003633
v -0.048894 -0.017990 0.003378
v -0.048894 -0.015741 0.003200
v -0.048894 -0.013491 0.003074
v -0.048894 -0.011239 0.002987
v -0.048894 -0.008986 0.002936
v -0.048894 -0.006733 0.002906
v -0.048894 -0.004480 0.002893
v -0.048894 -0.002227 0.002885
v -0.048894 0.000026 0.002881
v -0.048894 0.002279 0.002885
v -0.048894 0.004532 0.002893
v -0.048894 0.006785 0.002906
v -0.048894 0.009038 0.002937
v -0.048894 0.011290 0.002989
v -0.048894 0.013542 0.003077
v -0.048894 0.015793 0.003204
v -0.048894 0.018041 0.003385
v -0.048894 0.020285 0.003642
v -0.048894 0.022520 0.004010
v -0.048894 0.024735 0.004555
v -0.048894 0.026854 0.005474
v -0.048894 0.028517 0.007149
v -0.044218 0.030208 0.012378
v -0.044218 0.030845 0.009679
v -0.044218 0.028437 0.014157
v -0.044218 0.026190 0.015135
v -0.044218 0.023842 0.015719
v -0.044218 0.021471 0.016113
v -0.044218 0.019091 0.016389
v -0.044218 0.016706 0.016582
v -0.044218 0.014319 0.016719
v -0.044218 0.011930 0.016813
v -0.044218 0.009540 0.016868
v -0.044218 0.007150 0.016900
v -0.044218 0.004760 0.016914
v -0.044218 0.002370 0.016923
v -0.044218 -0.000020 0.016928
v -0.044218 -0.002410 0.016923
v -0.044218 -0.004800 0.016914
v -0.044218 -0.007190 0.016900
v -0.044218 -0.009580 0.016867
v -0.044218 -0.011970 0.016811
v -0.044218 -0.014358 0.016717
v -0.044218 -0.016746 0.016579
v -0.044218 -0.019131 0.016384
v -0.044218 -0.021511 0.016107
v -0.044218 -0.023881 0.015710
v -0.044218 -0.026229 0.015121
v -0.044218 -0.028472 0.014130
v -0.044218 -0.030226 0.012332
v -0.044218 -0.030845 0.009623
v -0.044218 -0.030208 0.006925
v -0.044218 -0.028437 0.005146
v -0.044218 -0.026190 0.004167
v -0.044218 -0.023842 0.003584
v -0.044218 -0.021471 0.003189
v -0.044218 -0.019091 0.002914
v -0.044218 -0.016706 0.002720
v -0.044218 -0.014319 0.002584
v -0.044218 -0.011930 0.002490
v -0.044218 -0.009540 0.002435
v -0.044218 -0.007150 0.002402
v -0.044218 -0.004760 0.002388
v -0.044218 -0.002370 0.002380
v -0.044218 0.000020 0.002375
v -0.044218 0.002410 0.002380
v -0.044218 0.004800 0.002388
v -0.044218 0.007190 0.002403
v -0.044218 0.009580 0.002436
v -0.044218 0.011970 0.002492
v -0.044218 0.014358 0.002586
v -0.044218 0.016746 0.002724
v -0.044218 0.019131 0.002918
v -0.044218 0.021511 0.003196
v -0.044218 0.023881 0.003592
v -0.044218 0.026229 0.004181
v -0.044218 0.028472 0.005173
v -0.044218 0.030226 0.006971
v -0.039542 0.031486 0.012495
v -0.039542 0.032142 0.009671
v -0.039542 0.029651 0.014367
v -0.039542 0.027312 0.015401
v -0.039542 0.024865 0.016017
v -0.039542 0.022394 0.016432
v -0.039542 0.019913 0.016723
v -0.039542 0.017426 0.016927
v -0.039542 0.014936 0.017071
v -0.039542 0.012446 0.017170
v -0.039542 0.009954 0.017228
v -0.039542 0.007462 0.017262
v -0.039542 0.004970 0.017277
v -0.039542 0.002478 0.017286
v -0.039542 -0.000014 0.017291
v -0.039542 -0.002506 0.017286
v -0.039542 -0.004998 0.017277
v -0.039542 -0.007490 0.017262
v -0.039542 -0.009982 0.017228
v -0.039542 -0.012474 0.017169
v -0.039542 -0.014965 0.017069
v -0.039542 -0.017454 0.016925
v -0.039542 -0.019941 0.016720
v -0.039542 -0.022422 0.016428
v -0.039542 -0.024893 0.016011
v -0.039542 -0.027340 0.015391
v -0.039542 -0.029677 0.014349
v -0.039542 -0.031500 0.012464
v -0.039542 -0.032142 0.009632
v -0.039542 -0.031486 0.006808
v -0.039542 -0.029651 0.004936
v -0.039542 -0.027312 0.003902
v -0.039542 -0.024865 0.003286
v -0.039542 -0.022394 0.002870
v -0.039542 -0.019913 0.002580
v -0.039542 -0.017426 0.002376
v -0.039542 -0.014936 0.002232
v -0.039542 -0.012446 0.002133
v -0.039542 -0.009954 0.002075
v -0.039542 -0.007462 0.002040
v -0.039542 -0.004970 0.002025
v -0.039542 -0.002478 0.002016
v -0.039542 0.000014 0.002011
v -0.039542 0.002506 0.002017
v -0.039542 0.004998 0.002026
v -0.039542 0.007490 0.002041
v -0.039542 0.009982 0.002075
v -0.039542 0.012474 0.002134
v -0.039542 0.014965 0.002233
v -0.039542 0.017454 0.002378
v -0.039542 0.019941 0.002583
v -0.039542 0.022422 0.002875
v -0.039542 0.024893 0.003292
v -0.039542 0.027340 0.003911
v -0.039542 0.029677 0.004954
v -0.039542 0.031500 0.006839
v -0.034866 0.032342 0.012569
v -0.034866 0.033011 0.009663
v -0.034866 0.030463 0.014499
v -0.034866 0.028062 0.015568
v -0.034866 0.025549 0.016204
v -0.034866 0.023011 0.016633
v -0.034866 0.020462 0.016933
v -0.034866 0.017907 0.017143
v -0.034866 0.015350 0.017292
v -0.034866 0.012791 0.017394
v -0.034866 0.010231 0.017454
v -0.034866 0.007672 0.017490
v -0.034866 0.005112 0.017505
v -0.034866 0.002552 0.017514
v -0.034866 -0.000008 0.017520
v -0.034866 -0.002569 0.017514
v -0.034866 -0.005129 0.017505
v -0.034866 -0.007689 0.017489
v -0.034866 -0.010248 0.017454
v -0.034866 -0.012808 0.017393
v -0.034866 -0.015367 0.017291
v -0.034866 -0.017924 0.017142
v -0.034866 -0.020478 0.016931
v -0.034866 -0.023027 0.016631
v -0.034866 -0.025566 0.016201
v -0.034866 -0.028079 0.015563
v -0.034866 -0.030479 0.014490
v -0.034866 -0.032351 0.012551
v -0.034866 -0.033011 0.009640
v -0.034866 -0.032342 0.006734
v -0.034866 -0.030463 0.004804
v -0.034866 -0.028062 0.003735
v -0.034866 -0.025549 0.003099
v -0.034866 -0.023011 0.002670
v -0.034866 -0.020462 0.002370
v -0.034866 -0.017907 0.002159
v -0.034866 -0.015350 0.002011
v -0.034866 -0.012791 0.001909
v -0.034866 -0.010231 0.001849
v -0.034866 -0.007672 0.001813
v -0.034866 -0.005112 0.001798
v -0.034866 -0.002552 0.001789
v -0.034866 0.000008 0.001783
v -0.034866 0.002569 0.001789
v -0.034866 0.005129 0.001798
v -0.034866 0.007689 0.001813
v -0.034866 0.010248 0.001849
v -0.034866 0.012808 0.001909
v -0.034866 0.015367 0.002012
v -0.034866 0.017924 0.002161
v -0.034866 0.020478 0.002371
v -0.034866 0.023027 0.002672
v -0.034866 0.025566 0.003102
v -0.034866 0.028079 0.003740
v -0.034866 0.030479 0.004813
v -0.034866 0.032351 0.006752
v -0.030190 0.032789 0.012601
v -0.030190 0.033466 0.009655
v -0.030190 0.030885 0.014558
v -0.030190 0.028452 0.015641
v -0.030190 0.025904 0.016286
v -0.030190 0.023331 0.016721
v -0.030190 0.020747 0.017025
v -0.030190 0.018157 0.017238
v -0.030190 0.015565 0.017388
v -0.030190 0.012971 0.017492
v -0.030190 0.010377 0.017553
v -0.030190 0.007782 0.017589
v -0.030190 0.005187 0.017604
v -0.030190 0.002592 0.017614
v -0.030190 -0.000003 0.017619
v -0.030190 -0.002598 0.017614
v -0.030190 -0.005193 0.017604
v -0.030190 -0.007788 0.017589
v -0.030190 -0.010383 0.017553
v -0.030190 -0.012978 0.017492
v -0.030190 -0.015571 0.017388
v -0.030190 -0.018164 0.017238
v -0.030190 -0.020753 0.017024
v -0.030190 -0.023337 0.016720
v -0.030190 -0.025910 0.016286
v -0.030190 -0.028458 0.015641
v -0.030190 -0.030892 0.014557
v -0.030190 -0.032794 0.012596
v -0.030190 -0.033466 0.009648
v -0.030190 -0.032789 0.006702
v -0.030190 -0.030885 0.004745
v -0.030190 -0.028452 0.003661
v -0.030190 -0.025904 0.003016
v -0.030190 -0.023331 0.002582
v -0.030190 -0.020747 0.002278
v -0.030190 -0.018157 0.002065
v -0.030190 -0.015565 0.001914
v -0.030190 -0.012971 0.001811
v -0.030190 -0.010377 0.001750
v -0.030190 -0.007782 0.001714
v -0.030190 -0.005187 0.001698
v -0.030190 -0.002592 0.001689
v -0.030190 0.000003 0.001684
v -0.030190 0.002598 0.001689
v -0.030190 0.005193 0.001698
v -0.030190 0.007788 0.001714
v -0.030190 0.010383 0.001750
v -0.030190 0.012978 0.001811
v -0.030190 0.015571 0.001914
v -0.030190 0.018164 0.002065
v -0.030190 0.020753 0.002278
v -0.030190 0.023337 0.002582
v -0.030190 0.025910 0.003017
v -0.030190 0.028458 0.003662
v -0.030190 0.030892 0.004746
v -0.030190 0.032794 0.006707
v -0.025514 0.032838 0.012593
v -0.025514 0.033518 0.009648
v -0.025514 0.030930 0.014547
v -0.025514 0.028492 0.015627
v -0.025514 0.025941 0.016269
v -0.025514 0.023364 0.016702
v -0.025514 0.020777 0.017005
v -0.025514 0.018184 0.017217
v -0.025514 0.015589 0.017367
v -0.025514 0.012992 0.017470
v -0.025514 0.010395 0.017531
v -0.025514 0.007797 0.017567
v -0.025514 0.005198 0.017582
v -0.025514 0.002600 0.017592
v -0.025514 0.000002 0.017597
v -0.025514 -0.002596 0.017592
v -0.025514 -0.005194 0.017582
v -0.025514 -0.007792 0.017567
v -0.025514 -0.010390 0.017531
v -0.025514 -0.012988 0.017470
v -0.025514 -0.015585 0.017368
v -0.025514 -0.018180 0.017218
v -0.025514 -0.020773 0.017006
v -0.025514 -0.023360 0.016703
v -0.025514 -0.025936 0.016271
v -0.025514 -0.028488 0.015630
v -0.025514 -0.030928 0.014553
v -0.025514 -0.032839 0.012600
v -0.025514 -0.033518 0.009655
v -0.025514 -0.032838 0.006710
v -0.025514 -0.030930 0.004756
v -0.025514 -0.028492 0.003676
v -0.025514 -0.025941 0.003034
v -0.025514 -0.023364 0.002601
v -0.025514 -0.020777 0.002298
v -0.025514 -0.018184 0.002086
v -0.025514 -0.015589 0.001936
v -0.025514 -0.012992 0.001833
v -0.025514 -0.010395 0.001772
v -0.025514 -0.007797 0.001736
v -0.025514 -0.005198 0.001720
v -0.025514 -0.002600 0.001711
v -0.025514 -0.000002 0.001705
v -0.025514 0.002596 0.001711
v -0.025514 0.005194 0.001720
v -0.025514 0.007792 0.001736
v -0.025514 0.010390 0.001772
v -0.025514 0.012988 0.001832
v -0.025514 0.015585 0.001935
v -0.025514 0.018180 0.002085
v -0.025514 0.020773 0.002297
v -0.025514 0.023360 0.002600
v -0.025514 0.025936 0.003032
v -0.025514 0.028488 0.003673
v -0.025514 0.030928 0.004750
v -0.025514 0.032839 0.006702
v -0.020838 0.032504 0.012546
v -0.020838 0.033180 0.009640
v -0.020838 0.030610 0.014469
v -0.020838 0.028195 0.015528
v -0.020838 0.025670 0.016158
v -0.020838 0.023120 0.016582
v -0.020838 0.020561 0.016879
v -0.020838 0.017996 0.017088
v -0.020838 0.015428 0.017235
v -0.020838 0.012859 0.017336
v -0.020838 0.010289 0.017396
v -0.020838 0.007718 0.017431
v -0.020838 0.005148 0.017446
v -0.020838 0.002578 0.017455
v -0.020838 0.000007 0.017461
v -0.020838 -0.002563 0.017455
v -0.020838 -0.005134 0.017446
v -0.020838 -0.007704 0.017431
v -0.020838 -0.010274 0.017396
v -0.020838 -0.012844 0.017337
v -0.020838 -0.015414 0.017236
v -0.020838 -0.017981 0.017089
v -0.020838 -0.020546 0.016881
v -0.020838 -0.023106 0.016585
v -0.020838 -0.025655 0.016162
v -0.020838 -0.028181 0.015535
v -0.020838 -0.030599 0.014482
v -0.020838 -0.032500 0.012566
v -0.020838 -0.033180 0.009662
v -0.020838 -0.032504 0.006756
v -0.020838 -0.030610 0.004834
v -0.020838 -0.028195 0.003775
v -0.020838 -0.025670 0.003145
v -0.020838 -0.023120 0.002721
v -0.020838 -0.020561 0.002424
v -0.020838 -0.017996 0.002215
v -0.020838 -0.015428 0.002068
v -0.020838 -0.012859 0.001967
v -0.020838 -0.010289 0.001907
v -0.020838 -0.007718 0.001872
v -0.020838 -0.005148 0.001857
v -0.020838 -0.002578 0.001847
v -0.020838 -0.000007 0.001842
v -0.020838 0.002563 0.001847
v -0.020838 0.005134 0.001857
v -0.020838 0.007704 0.001872
v -0.020838 0.010274 0.001907
v -0.020838 0.012844 0.001966
v -0.020838 0.015414 0.002067
v -0.020838 0.017981 0.002214
v -0.020838 0.020546 0.002421
v -0.020838 0.023106 0.002717
v -0.020838 0.025655 0.003141
v -0.020838 0.028181 0.003768
v -0.020838 0.030599 0.004821
v -0.020838 0.032500 0.006737
v -0.016163 0.031797 0.012464
v -0.016163 0.032464 0.009634
v -0.016163 0.029937 0.014327
v -0.016163 0.027572 0.015350
v -0.016163 0.025102 0.015958
v -0.016163 0.022609 0.016368
v -0.016163 0.020106 0.016655
v -0.016163 0.017598 0.016856
v -0.016163 0.015088 0.016998
v -0.016163 0.012576 0.017096
v -0.016163 0.010064 0.017153
v -0.016163 0.007551 0.017188
v -0.016163 0.005038 0.017202
v -0.016163 0.002525 0.017211
v -0.016163 0.000012 0.017216
v -0.016163 -0.002501 0.017211
v -0.016163 -0.005014 0.017202
v -0.016163 -0.007527 0.017188
v -0.016163 -0.010040 0.017154
v -0.016163 -0.012552 0.017097
v -0.016163 -0.015064 0.017000
v -0.016163 -0.017574 0.016858
v -0.016163 -0.020082 0.016658
v -0.016163 -0.022585 0.016372
v -0.016163 -0.025078 0.015964
v -0.016163 -0.027549 0.015360
v -0.016163 -0.029917 0.014347
v -0.016163 -0.031789 0.012494
v -0.016163 -0.032464 0.009669
v -0.016163 -0.031797 0.006839
v -0.016163 -0.029937 0.004975
v -0.016163 -0.027572 0.003953
v -0.016163 -0.025102 0.003345
v -0.016163 -0.022609 0.002935
v -0.016163 -0.020106 0.002648
v -0.016163 -0.017598 0.002447
v -0.016163 -0.015088 0.002305
v -0.016163 -0.012576 0.002207
v -0.016163 -0.010064 0.002149
v -0.016163 -0.007551 0.002115
v -0.016163 -0.005038 0.002100
v -0.016163 -0.002525 0.002091
v -0.016163 -0.000012 0.002086
v -0.016163 0.002501 0.002091
v -0.016163 0.005014 0.002100
v -0.016163 0.007527 0.002115
v -0.016163 0.010040 0.002149
v -0.016163 0.012552 0.002206
v -0.016163 0.015064 0.002303
v -0.016163 0.017574 0.002444
v -0.016163 0.020082 0.002645
v -0.016163 0.022585 0.002930
v -0.016163 0.025078 0.003338
v -0.016163 0.027549 0.003942
v -0.016163 0.029917 0.004956
v -0.016163 0.031789 0.006808
v -0.011487 0.030731 0.012346
v -0.011487 0.031382 0.009627
v -0.011487 0.028924 0.014126
v -0.011487 0.026635 0.015097
v -0.011487 0.024247 0.015675
v -0.011487 0.021839 0.016064
v -0.011487 0.019422 0.016337
v -0.011487 0.017000 0.016528
v -0.011487 0.014576 0.016663
v -0.011487 0.012150 0.016756
v -0.011487 0.009724 0.016811
v -0.011487 0.007297 0.016844
v -0.011487 0.004870 0.016858
v -0.011487 0.002444 0.016866
v -0.011487 0.000017 0.016871
v -0.011487 -0.002410 0.016867
v -0.011487 -0.004837 0.016858
v -0.011487 -0.007264 0.016844
v -0.011487 -0.009690 0.016812
v -0.011487 -0.012117 0.016758
v -0.011487 -0.014542 0.016666
v -0.011487 -0.016967 0.016531
v -0.011487 -0.019389 0.016341
v -0.011487 -0.021806 0.016071
v -0.011487 -0.024214 0.015683
v -0.011487 -0.026602 0.015111
v -0.011487 -0.028895 0.014152
v -0.011487 -0.030718 0.012388
v -0.011487 -0.031382 0.009676
v -0.011487 -0.030731 0.006956
v -0.011487 -0.028924 0.005177
v -0.011487 -0.026635 0.004205
v -0.011487 -0.024247 0.003628
v -0.011487 -0.021839 0.003238
v -0.011487 -0.019422 0.002966
v -0.011487 -0.017000 0.002774
v -0.011487 -0.014576 0.002639
v -0.011487 -0.012150 0.002546
v -0.011487 -0.009724 0.002491
v -0.011487 -0.007297 0.002459
v -0.011487 -0.004870 0.002445
v -0.011487 -0.002444 0.002436
v -0.011487 -0.000017 0.002431
v -0.011487 0.002410 0.002436
v -0.011487 0.004837 0.002445
v -0.011487 0.007264 0.002458
v -0.011487 0.009690 0.002490
v -0.011487 0.012117 0.002545
v -0.011487 0.014542 0.002637
v -0.011487 0.016967 0.002771
v -0.011487 0.019389 0.002961
v -0.011487 0.021806 0.003232
v -0.011487 0.024214 0.003619
v -0.011487 0.026602 0.004192
v -0.011487 0.028895 0.005151
v -0.011487 0.030718 0.006915
v -0.006811 0.029317 0.012196
v -0.006811 0.029948 0.009621
v -0.006811 0.027582 0.013869
v -0.006811 0.025395 0.014775
v -0.006811 0.023117 0.015314
v -0.006811 0.020821 0.015678
v -0.006811 0.018517 0.015933
v -0.006811 0.016209 0.016112
v -0.006811 0.013898 0.016238
v -0.006811 0.011586 0.016325
v -0.006811 0.009273 0.016376
v -0.006811 0.006960 0.016407
v -0.006811 0.004647 0.016420
v -0.006811 0.002334 0.016428
v -0.006811 0.000021 0.016433
v -0.006811 -0.002292 0.016428
v -0.006811 -0.004605 0.016420
v -0.006811 -0.006918 0.016407
v -0.006811 -0.009231 0.016377
v -0.006811 -0.011543 0.016326
v -0.006811 -0.013855 0.016240
v -0.006811 -0.016166 0.016115
v -0.006811 -0.018475 0.015938
v -0.006811 -0.020779 0.015686
v -0.006811 -0.023075 0.015324
v -0.006811 -0.025353 0.014791
v -0.006811 -0.027545 0.013900
v -0.006811 -0.029300 0.012247
v -0.006811 -0.029948 0.009682
v -0.006811 -0.029317 0.007107
v -0.006811 -0.027582 0.005434
v -0.006811 -0.025395 0.004528
v -0.006811 -0.023117 0.003989
v -0.006811 -0.020821 0.003624
v -0.006811 -0.018517 0.003370
v -0.006811 -0.016209 0.003191
v -0.006811 -0.013898 0.003065
v -0.006811 -0.011586 0.002978
v -0.006811 -0.009273 0.002926
v -0.006811 -0.006960 0.002896
v -0.006811 -0.004647 0.002883
v -0.006811 -0.002334 0.002875
v -0.006811 -0.000021 0.002870
v -0.006811 0.002292 0.002875
v -0.006811 0.004605 0.002883
v -0.006811 0.006918 0.002895
v -0.006811 0.009231 0.002925
v -0.006811 0.011543 0.002976
v -0.006811 0.013855 0.003062
v -0.006811 0.016166 0.003187
v -0.006811 0.018475 0.003364
v -0.006811 0.020779 0.003617
v -0.006811 0.023075 0.003978
v -0.006811 0.025353 0.004511
v -0.006811 0.027545 0.005403
v -0.006811 0.029300 0.007056
v -0.002135 0.027569 0.012014
v -0.002135 0.028172 0.009614
v -0.002135 0.025925 0.013558
v -0.002135 0.023863 0.014388
v -0.002135 0.021722 0.014881
v -0.002135 0.019564 0.015215
v -0.002135 0.017400 0.015448
v -0.002135 0.015231 0.015612
v -0.002135 0.013060 0.015728
v -0.002135 0.010888 0.015808
v -0.002135 0.008716 0.015855
v -0.002135 0.006544 0.015883
v -0.002135 0.004371 0.015895
v -0.002135 0.002198 0.015902
v -0.002135 0.000026 0.015907
v -0.002135 -0.002147 0.015903
v -0.002135 -0.004320 0.015895
v -0.002135 -0.006492 0.015884
v -0.002135 -0.008665 0.015856
v -0.002135 -0.010837 0.015809
v -0.002135 -0.013009 0.015731
v -0.002135 -0.015180 0.015616
v -0.002135 -0.017349 0.015455
v -0.002135 -0.019514 0.015224
v -0.002135 -0.021671 0.014893
v -0.002135 -0.023812 0.014406
v -0.002135 -0.025880 0.013594
v -0.002135 -0.027547 0.012075
v -0.002135 -0.028172 0.009688
v -0.002135 -0.027569 0.007289
v -0.002135 -0.025925 0.005744
v -0.002135 -0.023863 0.004915
v -0.002135 -0.021722 0.004421
v -0.002135 -0.019564 0.004088
v -0.002135 -0.017400 0.003854
v -0.002135 -0.015231 0.003691
v -0.002135 -0.013060 0.003575
v -0.002135 -0.010888 0.003495
v -0.002135 -0.008716 0.003448
v -0.002135 -0.006544 0.003420
v -0.002135 -0.004371 0.003408
v -0.002135 -0.002198 0.003400
v -0.002135 -0.000026 0.003396
v -0.002135 0.002147 0.003400
v -0.002135 0.004320 0.003407
v -0.002135 0.006492 0.003419
v -0.002135 0.008665 0.003447
v -0.002135 0.010837 0.003493
v -0.002135 0.013009 0.003572
v -0.002135 0.015180 0.003686
v -0.002135 0.017349 0.003848
v -0.002135 0.019514 0.004079
v -0.002135 0.021671 0.004410
v -0.002135 0.023812 0.004896
v -0.002135 0.025880 0.005709
v -0.002135 0.027547 0.007228
v 0.002541 0.025499 0.011802
v 0.002541 0.026068 0.009609
v 0.002541 0.023964 0.013198
v 0.002541 0.022052 0.013940
v 0.002541 0.020072 0.014381
v 0.002541 0.018078 0.014681
v 0.002541 0.016078 0.014890
v 0.002541 0.014075 0.015036
v 0.002541 0.012070 0.015140
v 0.002541 0.010064 0.015212
v 0.002541 0.008057 0.015254
v 0.002541 0.006050 0.015280
v 0.002541 0.004043 0.015290
v 0.002541 0.002037 0.015297
v 0.002541 0.000030 0.015301
v 0.002541 -0.001977 0.015297
v 0.002541 -0.003984 0.015291
v 0.002541 -0.005991 0.015280
v 0.002541 -0.007998 0.015256
v 0.002541 -0.010004 0.015214
v 0.002541 -0.012010 0.015144
v 0.002541 -0.014015 0.015041
v 0.002541 -0.016019 0.014897
v 0.002541 -0.018019 0.014690
v 0.002541 -0.020013 0.014395
v 0.002541 -0.021993 0.013961
v 0.002541 -0.023910 0.013238
v 0.002541 -0.025472 0.011872
v 0.002541 -0.026068 0.009694
v 0.002541 -0.025499 0.007501
v 0.002541 -0.023964 0.006104
v 0.002541 -0.022052 0.005363
v 0.002541 -0.020072 0.004921
v 0.002541 -0.018078 0.004622
v 0.002541 -0.016078 0.004413
v 0.002541 -0.014075 0.004266
v 0.002541 -0.012070 0.004163
v 0.002541 -0.010064 0.004091
v 0.002541 -0.008057 0.004048
v 0.002541 -0.006050 0.004023
v 0.002541 -0.004043 0.004012
v 0.002541 -0.002037 0.004006
v 0.002541 -0.000030 0.004002
v 0.002541 0.001977 0.004005
v 0.002541 0.003984 0.004012
v 0.002541 0.005991 0.004023
v 0.002541 0.007998 0.004047
v 0.002541 0.010004 0.004089
v 0.002541 0.012010 0.004159
v 0.002541 0.014015 0.004261
v 0.002541 0.016019 0.004406
v 0.002541 0.018019 0.004612
v 0.002541 0.020013 0.004908
v 0.002541 0.021993 0.005342
v 0.002541 0.023910 0.006065
v 0.002541 0.025472 0.007431
v 0.007217 0.023119 0.011562
v 0.007217 0.023648 0.009603
v 0.007217 0.021711 0.012792
v 0.007217 0.019973 0.013436
v 0.007217 0.018178 0.013820
v 0.007217 0.016372 0.014081
v 0.007217 0.014561 0.014263
v 0.007217 0.012748 0.014391
v 0.007217 0.010932 0.014481
v 0.007217 0.009117 0.014544
v 0.007217 0.007300 0.014581
v 0.007217 0.005484 0.014603
v 0.007217 0.003667 0.014613
v 0.007217 0.001850 0.014619
v 0.007217 0.000034 0.014622
v 0.007217 -0.001783 0.014619
v 0.007217 -0.003600 0.014613
v 0.007217 -0.005416 0.014604
v 0.007217 -0.007233 0.014583
v 0.007217 -0.009049 0.014546
v 0.007217 -0.010865 0.014485
v 0.007217 -0.012680 0.014396
v 0.007217 -0.014494 0.014271
v 0.007217 -0.016305 0.014091
v 0.007217 -0.018111 0.013835
v 0.007217 -0.019905 0.013459
v 0.007217 -0.021650 0.012835
v 0.007217 -0.023087 0.011640
v 0.007217 -0.023648 0.009700
v 0.007217 -0.023119 0.007740
v 0.007217 -0.021711 0.006511
v 0.007217 -0.019973 0.005867
v 0.007217 -0.018178 0.005483
v 0.007217 -0.016372 0.005222
v 0.007217 -0.014561 0.005039
v 0.007217 -0.012748 0.004912
v 0.007217 -0.010932 0.004821
v 0.007217 -0.009117 0.004759
v 0.007217 -0.007300 0.004721
v 0.007217 -0.005484 0.004699
v 0.007217 -0.003667 0.004690
v 0.007217 -0.001850 0.004684
v 0.007217 -0.000034 0.004681
v 0.007217 0.001783 0.004684
v 0.007217 0.003600 0.004690
v 0.007217 0.005416 0.004699
v 0.007217 0.007233 0.004720
v 0.007217 0.009049 0.004756
v 0.007217 0.010865 0.004818
v 0.007217 0.012680 0.004906
v 0.007217 0.014494 0.005032
v 0.007217 0.016305 0.005211
v 0.007217 0.018111 0.005468
v 0.007217 0.019905 0.005844
v 0.007217 0.021650 0.006467
v 0.007217 0.023087 0.007663
v 0.011919 0.020458 0.011298
v 0.011919 0.020942 0.009600
v 0.011919 0.019194 0.012345
v 0.011919 0.017650 0.012883
v 0.011919 0.016062 0.013205
v 0.011919 0.014466 0.013424
v 0.011919 0.012866 0.013577
v 0.011919 0.011264 0.013685
v 0.011919 0.009660 0.013760
v 0.011919 0.008056 0.013813
v 0.011919 0.006452 0.013845
v 0.011919 0.004847 0.013863
v 0.011919 0.003243 0.013871
v 0.011919 0.001638 0.013876
v 0.011919 0.000033 0.013879
v 0.011919 -0.001571 0.013877
v 0.011919 -0.003176 0.013872
v 0.011919 -0.004781 0.013864
v 0.011919 -0.006385 0.013846
v 0.011919 -0.007990 0.013815
v 0.011919 -0.009594 0.013764
v 0.011919 -0.011197 0.013690
v 0.011919 -0.012800 0.013585
v 0.011919 -0.014400 0.013435
v 0.011919 -0.015996 0.013219
v 0.011919 -0.017583 0.012905
v 0.011919 -0.019132 0.012388
v 0.011919 -0.020425 0.011379
v 0.011919 -0.020942 0.009702
v 0.011919 -0.020458 0.008004
v 0.011919 -0.019194 0.006958
v 0.011919 -0.017650 0.006419
v 0.011919 -0.016062 0.006098
v 0.011919 -0.014466 0.005879
v 0.011919 -0.012866 0.005725
v 0.011919 -0.011264 0.005618
v 0.011919 -0.009660 0.005542
v 0.011919 -0.008056 0.005490
v 0.011919 -0.006452 0.005458
v 0.011919 -0.004847 0.005439
v 0.011919 -0.003243 0.005431
v 0.011919 -0.001638 0.005426
v 0.011919 -0.000033 0.005423
v 0.011919 0.001571 0.005426
v 0.011919 0.003176 0.005431
v 0.011919 0.004781 0.005439
v 0.011919 0.006385 0.005457
v 0.011919 0.007990 0.005487
v 0.011919 0.009594 0.005538
v 0.011919 0.011197 0.005613
v 0.011919 0.012800 0.005718
v 0.011919 0.014400 0.005868
v 0.011919 0.015996 0.006083
v 0.011919 0.017583 0.006397
v 0.011919 0.019132 0.006915
v 0.011919 0.020425 0.007924
v 0.016626 0.017518 0.011008
v 0.016626 0.017949 0.009595
v 0.016626 0.016417 0.011858
v 0.016626 0.015088 0.012284
v 0.016626 0.013729 0.012539
v 0.016626 0.012365 0.012714
v 0.016626 0.010997 0.012836
v 0.016626 0.009628 0.012922
v 0.016626 0.008258 0.012982
v 0.016626 0.006888 0.013024
v 0.016626 0.005518 0.013050
v 0.016626 0.004147 0.013065
v 0.016626 0.002776 0.013071
v 0.016626 0.001405 0.013075
v 0.016626 0.000035 0.013078
v 0.016626 -0.001336 0.013075
v 0.016626 -0.002707 0.013071
v 0.016626 -0.004077 0.013065
v 0.016626 -0.005448 0.013051
v 0.016626 -0.006819 0.013027
v 0.016626 -0.008189 0.012986
v 0.016626 -0.009559 0.012927
v 0.016626 -0.010928 0.012844
v 0.016626 -0.012296 0.012725
v 0.016626 -0.013660 0.012554
v 0.016626 -0.015018 0.012305
v 0.016626 -0.016349 0.011900
v 0.016626 -0.017480 0.011094
v 0.016626 -0.017949 0.009708
v 0.016626 -0.017518 0.008295
v 0.016626 -0.016417 0.007445
v 0.016626 -0.015088 0.007019
v 0.016626 -0.013729 0.006764
v 0.016626 -0.012365 0.006589
v 0.016626 -0.010997 0.006467
v 0.016626 -0.009628 0.006381
v 0.016626 -0.008258 0.006321
v 0.016626 -0.006888 0.006278
v 0.016626 -0.005518 0.006253
v 0.016626 -0.004147 0.006238
v 0.016626 -0.002776 0.006232
v 0.016626 -0.001405 0.006228
v 0.016626 -0.000035 0.006225
v 0.016626 0.001336 0.006227
v 0.016626 0.002707 0.006231
v 0.016626 0.004077 0.006237
v 0.016626 0.005448 0.006252
v 0.016626 0.006819 0.006276
v 0.016626 0.008189 0.006317
v 0.016626 0.009559 0.006376
v 0.016626 0.010928 0.006459
v 0.016626 0.012296 0.006578
v 0.016626 0.013660 0.006749
v 0.016626 0.015018 0.006998
v 0.016626 0.016349 0.007402
v 0.016626 0.017480 0.008208
v 0.020191 0.013450 0.010544
v 0.020191 0.013703 0.009464
v 0.020191 0.012636 0.011216
v 0.020191 0.011621 0.011538
v 0.020191 0.010584 0.011725
v 0.020191 0.009545 0.011854
v 0.020191 0.008504 0.011944
v 0.020191 0.007461 0.012007
v 0.020191 0.006418 0.012052
v 0.020191 0.005375 0.012083
v 0.020191 0.004332 0.012103
v 0.020191 0.003288 0.012114
v 0.020191 0.002244 0.012119
v 0.020191 0.001201 0.012122
v 0.020191 0.000157 0.012124
v 0.020191 -0.000886 0.012123
v 0.020191 -0.001930 0.012120
v 0.020191 -0.002973 0.012116
v 0.020191 -0.004017 0.012107
v 0.020191 -0.005061 0.012090
v 0.020191 -0.006104 0.012063
v 0.020191 -0.007147 0.012023
v 0.020191 -0.008190 0.011966
v 0.020191 -0.009231 0.011886
v 0.020191 -0.010271 0.011769
v 0.020191 -0.011306 0.011601
v 0.020191 -0.012328 0.011335
v 0.020191 -0.013240 0.010814
v 0.020191 -0.013703 0.009839
v 0.020191 -0.013450 0.008758
v 0.020191 -0.012636 0.008087
v 0.020191 -0.011621 0.007765
v 0.020191 -0.010584 0.007578
v 0.020191 -0.009545 0.007449
v 0.020191 -0.008504 0.007359
v 0.020191 -0.007461 0.007295
v 0.020191 -0.006418 0.007251
v 0.020191 -0.005375 0.007220
v 0.020191 -0.004332 0.007200
v 0.020191 -0.003288 0.007189
v 0.020191 -0.002244 0.007184
v 0.020191 -0.001201 0.007181
v 0.020191 -0.000157 0.007179
v 0.020191 0.000886 0.007180
v 0.020191 0.001930 0.007183
v 0.020191 0.002973 0.007187
v 0.020191 0.004017 0.007196
v 0.020191 0.005061 0.007212
v 0.020191 0.006104 0.007240
v 0.020191 0.007147 0.007280
v 0.020191 0.008190 0.007336
v 0.020191 0.009231 0.007417
v 0.020191 0.010271 0.007533
v 0.020191 0.011306 0.007702
v 0.020191 0.012328 0.007967
v 0.020191 0.013240 0.008489
v -0.067691 0.000000 0.009651
v 0.021339 0.000000 0.009651
f 1 2 3
f 4 1 3
f 5 1 4
f 6 5 4
f 7 5 6
f 8 7 6
f 9 7 8
f 10 9 8
f 11 9 10
f 12 11 10
f 13 11 12
f 14 13 12
f 15 13 14
f 16 15 14
f 17 15 16
f 18 17 16
f 19 17 18
f 20 19 18
f 21 19 20
f 22 21 20
f 23 21 22
f 24 23 22
f 25 23 24
f 26 25 24
f 27 25 26
f 28 27 26
f 29 27 28
f 30 29 28
f 31 29 30
f 32 31 30
f 33 31 32
f 34 33 32
f 35 33 34
f 36 35 34
f 37 35 36
f 38 37 36
f 39 37 38
f 40 39 38
f 41 39 40
f 42 41 40
f 43 41 42
f 44 43 42
f 45 43 44
f 46 45 44
f 47 45 46
f 48 47 46
f 49 47 48
f 50 49 48
f 51 49 50
f 52 51 50
f 53 51 52
f 54 53 52
f 55 53 54
f 56 55 54
f 57 55 56
f 58 57 56
f 59 57 58
f 60 59 58
f 61 59 60
f 62 61 60
f 63 61 62
f 64 63 62
f 65 63 64
f 66 65 64
f 67 65 66
f 68 67 66
f 69 67 68
f 70 69 68
f 71 69 70
f 72 71 70
f 73 71 72
f 74 73 72
f 75 73 74
f 76 75 74
f 77 75 76
f 78 77 76
f 79 77 78
f 80 79 78
f 81 79 80
f 82 81 80
f 83 81 82
f 84 83 82
f 85 83 84
f 86 85 84
f 87 85 86
f 88 87 86
f 89 87 88
f 90 89 88
f 91 89 90
f 92 91 90
f 93 91 92
f 94 93 92
f 95 93 94
f 96 95 94
f 97 95 96
f 98 97 96
f 99 97 98
f 100 99 98
f 101 99 100
f 102 101 100
f 103 101 102
f 104 103 102
f 105 103 104
f 106 105 104
f 107 105 106
f 108 107 106
f 109 107 108
f 110 109 108
f 111 109 110
f 112 111 110
f 2 111 112
f 3 2 112
f 113 114 2
f 1 113 2
f 115 113 1
f 5 115 1
f 116 115 5
f 7 116 5
f 117 116 7
f 9 117 7
f 118 117 9
f 11 118 9
f 119 118 11
f 13 119 11
f 120 119 13
f 15 120 13
f 121 120 15
f 17 121 15
f 122 121 17
f 19 122 17
f 123 122 19
f 21 123 19
f 124 123 21
f 23 124 21
f 125 124 23
f 25 125 23
f 126 125 25
f 27 126 25
f 127 126 27
f 29 127 27
f 128 127 29
f 31 128 29
f 129 128 31
f 33 129 31
f 130 129 33
f 35 130 33
f 131 130 35
f 37 131 35
f 132 131 37
f 39 132 37
f 133 132 39
f 41 133 39
f 134 133 41
f 43 134 41
f 135 134 43
f 45 135 43
f 136 135 45
f 47 136 45
f 137 136 47
f 49 137 47
f 138 137 49
f 51 138 49
f 139 138 51
f 53 139 51
f 140 139 53
f 55 140 53
f 141 140 55
f 57 141 55
f 142 141 57
f 59 142 57
f 143 142 59
f 61 143 59
f 144 143 61
f 63 144 61
f 145 144 63
f 65 145 63
f 146 145 65
f 67 146 65
f 147 146 67
f 69 147 67
f 148 147 69
f 71 148 69
f 149 148 71
f 73 149 71
f 150 149 73
f 75 150 73
f 151 150 75
f 77 151 75
f 152 151 77
f 79 152 77
f 153 152 79
f 81 153 79
f 154 153 81
f 83 154 81
f 155 154 83
f 85 155 83
f 156 155 85
f 87 156 85
f 157 156 87
f 89 157 87
f 158 157 89
f 91 158 89
f 159 158 91
f 93 159 91
f 160 159 93
f 95 160 93
f 161 160 95
f 97 161 95
f 162 161 97
f 99 162 97
f 163 162 99
f 101 163 99
f 164 163 101
f 103 164 101
f 165 164 103
f 105 165 103
f 166 165 105
f 107 166 105
f 167 166 107
f 109 167 107
f 168 167 109
f 111 168 109
f 114 168 111
f 2 114 111
f 169 170 114
f 113 169 114
f 171 169 113
f 115 171 113
f 172 171 115
f 116 172 115
f 173 172 116
f 117 173 116
f 174 173 117
f 118 174 117
f 175 174 118
f 119 175 118
f 176 175 119
f 120 176 119
f 177 176 120
f 121 177 120
f 178 177 121
f 122 178 121
f 179 178 122
f 123 179 122
f 180 179 123
f 124 180 123
f 181 180 124
f 125 181 124
f 182 181 125
f 126 182 125
f 183 182 126
f 127 183 126
f 184 183 127
f 128 184 127
f 185 184 128
f 129 185 128
f 186 185 129
f 130 186 129
f 187 186 130
f 131 187 130
f 188 187 131
f 132 188 131
f 189 188 132
f 133 189 132
f 190 189 133
f 134 190 133
f 191 190 134
f 135 191 134
f 192 191 135
f 136 192 135
f 193 192 136
f 137 193 136
f 194 193 137
f 138 194 137
f 195 194 138
f 139 195 138
f 196 195 139
f 140 196 139
f 197 196 140
f 141 197 140
f 198 197 141
f 142 198 141
f 199 198 142
f 143 199 142
f 200 199 143
f 144 200 143
f 201 200 144
f 145 201 144
f 202 201 145
f 146 202 145
f 203 202 146
f 147 203 146
f 204 203 147
f 148 204 147
f 205 204 148
f 149 205 148
f 206 205 149
f 150 206 149
f 207 206 150
f 151 207 150
f 208 207 151
f 152 208 151
f 209 208 152
f 153 209 152
f 210 209 153
f 154 210 153
f 211 210 154
f 155 211 154
f 212 211 155
f 156 212 155
f 213 212 156
f 157 213 156
f 214 213 157
f 158 214 157
f 215 214 158
f 159 215 158
f 216 215 159
f 160 216 159
f 217 216 160
f 161 217 160
f 218 217 161
f 162 218 161
f 219 218 162
f 163 219 162
f 220 219 163
f 164 220 163
f 221 220 164
f 165 221 164
f 222 221 165
f 166 222 165
f 223 222 166
f 167 223 166
f 224 223 167
f 168 224 167
f 170 224 168
f 114 170 168
f 225 226 170
f 169 225 170
f 227 225 169
f 171 227 169
f 228 227 171
f 172 228 171
f 229 228 172
f 173 229 172
f 230 229 173
f 174 230 173
f 231 230 174
f 175 231 174
f 232 231 175
f 176 232 175
f 233 232 176
f 177 233 176
f 234 233 177
f 178 234 177
f 235 234 178
f 179 235 178
f 236 235 179
f 180 236 179
f 237 236 180
f 181 237 180
f 238 237 181
f 182 238 181
f 239 238 182
f 183 239 182
f 240 239 183
f 184 240 183
f 241 240 184
f 185 241 184
f 242 241 185
f 186 242 185
f 243 242 186
f 187 243 186
f 244 243 187
f 188 244 187
f 245 244 188
f 189 245 188
f 246 245 189
f 190 246 189
f 247 246 190
f 191 247 190
f 248 247 191
f 192 248 191
f 249 248 192
f 193 249 192
f 250 249 193
f 194 250 193
f 251 250 194
f 195 251 194
f 252 251 195
f 196 252 195
f 253 252 196
f 197 253 196
f 254 253 197
f 198 254 197
f 255 254 198
f 199 255 198
f 256 255 199
f 200 256 199
f 257 256 200
f 201 257 200
f 258 257 201
f 202 258 201
f 259 258 202
f 203 259 202
f 260 259 203
f 204 260 203
f 261 260 204
f 205 261 204
f 262 261 205
f 206 262 205
f 263 262 206
f 207 263 206
f 264 263 207
f 208 264 207
f 265 264 208
f 209 265 208
f 266 265 209
f 210 266 209
f 267 266 210
f 211 267 210
f 268 267 211
f 212 268 211
f 269 268 212
f 213 269 212
f 270 269 213
f 214 270 213
f 271 270 214
f 215 271 214
f 272 271 215
f 216 272 215
f 273 272 216
f 217 273 216
f 274 273 217
f 218 274 217
f 275 274 218
f 219 275 218
f 276 275 219
f 220 276 219
f 277 276 220
f 221 277 220
f 278 277 221
f 222 278 221
f 279 278 222
f 223 279 222
f 280 279 223
f 224 280 223
f 226 280 224
f 170 226 224
f 281 282 226
f 225 281 226
f 283 281 225
f 227 283 225
f 284 283 227
f 228 284 227
f 285 284 228
f 229 285 228
f 286 285 229
f 230 286 229
f 287 286 230
f 231 287 230
f 288 287 231
f 232 288 231
f 289 288 232
f 233 289 232
f 290 289 233
f 234 290 233
f 291 290 234
f 235 291 234
f 292 291 235
f 236 292 235
f 293 292 236
f 237 293 236
f 294 293 237
f 238 294 237
f 295 294 238
f 239 295 238
f 296 295 239
f 240 296 239
f 297 296 240
f 241 297 240
f 298 297 241
f 242 298 241
f 299 298 242
f 243 299 242
f 300 299 243
f 244 300 243
f 301 300 244
f 245 301 244
f 302 301 245
f 246 302 245
f 303 302 246
f 247 303 246
f 304 303 247
f 248 304 247
f 305 304 248
f 249 305 248
f 306 305 249
f 250 306 249
f 307 306 250
f 251 307 250
f 308 307 251
f 252 308 251
f 309 308 252
f 253 309 252
f 310 309 253
f 254 310 253
f 311 310 254
f 255 311 254
f 312 311 255
f 256 312 255
f 313 312 256
f 257 313 256
f 314 313 257
f 258 314 257
f 315 314 258
f 259 315 258
f 316 315 259
f 260 316 259
f 317 316 260
f 261 317 260
f 318 317 261
f 262 318 261
f 319 318 262
f 263 319 262
f 320 319 263
f 264 320 263
f 321 320 264
f 265 321 264
f 322 321 265
f 266 322 265
f 323 322 266
f 267 323 266
f 324 323 267
f 268 324 267
f 325 324 268
f 269 325 268
f 326 325 269
f 270 326 269
f 327 326 270
f 271 327 270
f 328 327 271
f 272 328 271
f 329 328 272
f 273 329 272
f 330 329 273
f 274 330 273
f 331 330 274
f 275 331 274
f 332 331 275
f 276 332 275
f 333 332 276
f 277 333 276
f 334 333 277
f 278 334 277
f 335 334 278
f 279 335 278
f 336 335 279
f 280 336 279
f 282 336 280
f 226 282 280
f 337 338 282
f 281 337 282
f 339 337 281
f 283 339 281
f 340 339 283
f 284 340 283
f 341 340 284
f 285 341 284
f 342 341 285
f 286 342 285
f 343 342 286
f 287 343 286
f 344 343 287
f 288 344 287
f 345 344 288
f 289 345 288
f 346 345 289
f 290 346 289
f 347 346 290
f 291 347 290
f 348 347 291
f 292 348 291
f 349 348 292
f 293 349 292
f 350 349 293
f 294 350 293
f 351 350 294
f 295 351 294
f 352 351 295
f 296 352 295
f 353 352 296
f 297 353 296
f 354 353 297
f 298 354 297
f 355 354 298
f 299 355 298
f 356 355 299
f 300 356 299
f 357 356 300
f 301 357 300
f 358 357 301
f 302 358 301
f 359 358 302
f 303 359 302
f 360 359 303
f 304 360 303
f 361 360 304
f 305 361 304
f 362 361 305
f 306 362 305
f 363 362 306
f 307 363 306
f 364 363 307
f 308 364 307
f 365 364 308
f 309 365 308
f 366 365 309
f 310 366 309
f 367 366 310
f 311 367 310
f 368 367 311
f 312 368 311
f 369 368 312
f 313 369 312
f 370 369 313
f 314 370 313
f 371 370 314
f 315 371 314
f 372 371 315
f 316 372 315
f 373 372 316
f 317 373 316
f 374 373 317
f 318 374 317
f 375 374 318
f 319 375 318
f 376 375 319
f 320 376 319
f 377 376 320
f 321 377 320
f 378 377 321
f 322 378 321
f 379 378 322
f 323 379 322
f 380 379 323
f 324 380 323
f 381 380 324
f 325 381 324
f 382 381 325
f 326 382 325
f 383 382 326
f 327 383 326
f 384 383 327
f 328 384 327
f 385 384 328
f 329 385 328
f 386 385 329
f 330 386 329
f 387 386 330
f 331 387 330
f 388 387 331
f 332 388 331
f 389 388 332
f 333 389 332
f 390 389 333
f 334 390 333
f 391 390 334
f 335 391 334
f 392 391 335
f 336 392 335
f 338 392 336
f 282 338 336
f 393 394 338
f 337 393 338
f 395 393 337
f 339 395 337
f 396 395 339
f 340 396 339
f 397 396 340
f 341 397 340
f 398 397 341
f 342 398 341
f 399 398 342
f 343 399 342
f 400 399 343
f 344 400 343
f 401 400 344
f 345 401 344
f 402 401 345
f 346 402 345
f 403 402 346
f 347 403 346
f 404 403 347
f 348 404 347
f 405 404 348
f 349 405 348
f 406 405 349
f 350 406 349
f 407 406 350
f 351 407 350
f 408 407 351
f 352 408 351
f 409 408 352
f 353 409 352
f 410 409 353
f 354 410 353
f 411 410 354
f 355 411 354
f 412 411 355
f 356 412 355
f 413 412 356
f 357 413 356
f 414 413 357
f 358 414 357
f 415 414 358
f 359 415 358
f 416 415 359
f 360 416 359
f 417 416 360
f 361 417 360
f 418 417 361
f 362 418 361
f 419 418 362
f 363 419 362
f 420 419 363
f 364 420 363
f 421 420 364
f 365 421 364
f 422 421 365
f 366 422 365
f 423 422 366
f 367 423 366
f 424 423 367
f 368 424 367
f 425 424 368
f 369 425 368
f 426 425 369
f 370 426 369
f 427 426 370
f 371 427 370
f 428 427 371
f 372 428 371
f 429 428 372
f 373 429 372
f 430 429 373
f 374 430 373
f 431 430 374
f 375 431 374
f 432 431 375
f 376 432 375
f 433 432 376
f 377 433 376
f 434 433 377
f 378 434 377
f 435 434 378
f 379 435 378
f 436 435 379
f 380 436 379
f 437 436 380
f 381 437 380
f 438 437 381
f 382 438 381
f 439 438 382
f 383 439 382
f 440 439 383
f 384 440 383
f 441 440 384
f 385 441 384
f 442 441 385
f 386 442 385
f 443 442 386
f 387 443 386
f 444 443 387
f 388 444 387
f 445 444 388
f 389 445 388
f 446 445 389
f 390 446 389
f 447 446 390
f 391 447 390
f 448 447 391
f 392 448 391
f 394 448 392
f 338 394 392
f 449 450 394
f 393 449 394
f 451 449 393
f 395 451 393
f 452 451 395
f 396 452 395
f 453 452 396
f 397 453 396
f 454 453 397
f 398 454 397
f 455 454 398
f 399 455 398
f 456 455 399
f 400 456 399
f 457 456 400
f 401 457 400
f 458 457 401
f 402 458 401
f 459 458 402
f 403 459 402
f 460 459 403
f 404 460 403
f 461 460 404
f 405 461 404
f 462 461 405
f 406 462 405
f 463 462 406
f 407 463 406
f 464 463 407
f 408 464 407
f 465 464 408
f 409 465 408
f 466 465 409
f 410 466 409
f 467 466 410
f 411 467 410
f 468 467 411
f 412 468 411
f 469 468 412
f 413 469 412
f 470 469 413
f 414 470 413
f 471 470 414
f 415 471 414
f 472 471 415
f 416 472 415
f 473 472 416
f 417 473 416
f 474 473 417
f 418 474 417
f 475 474 418
f 419 475 418
f 476 475 419
f 420 476 419
f 477 476 420
f 421 477 420
f 478 477 421
f 422 478 421
f 479 478 422
f 423 479 422
f 480 479 423
f 424 480 423
f 481 480 424
f 425 481 424
f 482 481 425
f 426 482 425
f 483 482 426
f 427 483 426
f 484 483 427
f 428 484 427
f 485 484 428
f 429 485 428
f 486 485 429
f 430 486 429
f 487 486 430
f 431 487 430
f 488 487 431
f 432 488 431
f 489 488 432
f 433 489 432
f 490 489 433
f 434 490 433
f 491 490 434
f 435 491 434
f 492 491 435
f 436 492 435
f 493 492 436
f 437 493 436
f 494 493 437
f 438 494 437
f 495 494 438
f 439 495 438
f 496 495 439
f 440 496 439
f 497 496 440
f 441 497 440
f 498 497 441
f 442 498 441
f 499 498 442
f 443 499 442
f 500 499 443
f 444 500 443
f 501 500 444
f 445 501 444
f 502 501 445
f 446 502 445
f 503 502 446
f 447 503 446
f 504 503 447
f 448 504 447
f 450 504 448
f 394 450 448
f 505 506 450
f 449 505 450
f 507 505 449
f 451 507 449
f 508 507 451
f 452 508 451
f 509 508 452
f 453 509 452
f 510 509 453
f 454 510 453
f 511 510 454
f 455 511 454
f 512 511 455
f 456 512 455
f 513 512 456
f 457 513 456
f 514 513 457
f 458 514 457
f 515 514 458
f 459 515 458
f 516 515 459
f 460 516 459
f 517 516 460
f 461 517 460
f 518 517 461
f 462 518 461
f 519 518 462
f 463 519 462
f 520 519 463
f 464 520 463
f 521 520 464
f 465 521 464
f 522 521 465
f 466 522 465
f 523 522 466
f 467 523 466
f 524 523 467
f 468 524 467
f 525 524 468
f 469 525 468
f 526 525 469
f 470 526 469
f 527 526 470
f 471 527 470
f 528 527 471
f 472 528 471
f 529 528 472
f 473 529 472
f 530 529 473
f 474 530 473
f 531 530 474
f 475 531 474
f 532 531 475
f 476 532 475
f 533 532 476
f 477 533 476
f 534 533 477
f 478 534 477
f 535 534 478
f 479 535 478
f 536 535 479
f 480 536 479
f 537 536 480
f 481 537 480
f 538 537 481
f 482 538 481
f 539 538 482
f 483 539 482
f 540 539 483
f 484 540 483
f 541 540 484
f 485 541 484
f 542 541 485
f 486 542 485
f 543 542 486
f 487 543 486
f 544 543 487
f 488 544 487
f 545 544 488
f 489 545 488
f 546 545 489
f 490 546 489
f 547 546 490
f 491 547 490
f 548 547 491
f 492 548 491
f 549 548 492
f 493 549 492
f 550 549 493
f 494 550 493
f 551 550 494
f 495 551 494
f 552 551 495
f 496 552 495
f 553 552 496
f 497 553 496
f 554 553 497
f 498 554 497
f 555 554 498
f 499 555 498
f 556 555 499
f 500 556 499
f 557 556 500
f 501 557 500
f 558 557 501
f 502 558 501
f 559 558 502
f 503 559 502
f 560 559 503
f 504 560 503
f 506 560 504
f 450 506 504
f 561 562 506
f 505 561 506
f 563 561 505
f 507 563 505
f 564 563 507
f 508 564 507
f 565 564 508
f 509 565 508
f 566 565 509
f 510 566 509
f 567 566 510
f 511 567 510
f 568 567 511
f 512 568 511
f 569 568 512
f 513 569 512
f 570 569 513
f 514 570 513
f 571 570 514
f 515 571 514
f 572 571 515
f 516 572 515
f 573 572 516
f 517 573 516
f 574 573 517
f 518 574 517
f 575 574 518
f 519 575 518
f 576 575 519
f 520 576 519
f 577 576 520
f 521 577 520
f 578 577 521
f 522 578 521
f 579 578 522
f 523 579 522
f 580 579 523
f 524 580 523
f 581 580 524
f 525 581 524
f 582 581 525
f 526 582 525
f 583 582 526
f 527 583 526
f 584 583 527
f 528 584 527
f 585 584 528
f 529 585 528
f 586 585 529
f 530 586 529
f 587 586 530
f 531 587 530
f 588 587 531
f 532 588 531
f 589 588 532
f 533 589 532
f 590 589 533
f 534 590 533
f 591 590 534
f 535 591 534
f 592 591 535
f 536 592 535
f 593 592 536
f 537 593 536
f 594 593 537
f 538 594 537
f 595 594 538
f 539 595 538
f 596 595 539
f 540 596 539
f 597 596 540
f 541 597 540
f 598 597 541
f 542 598 541
f 599 598 542
f 543 599 542
f 600 599 543
f 544 600 543
f 601 600 544
f 545 601 544
f 602 601 545
f 546 602 545
f 603 602 546
f 547 603 546
f 604 603 547
f 548 604 547
f 605 604 548
f 549 605 548
f 606 605 549
f 550 606 549
f 607 606 550
f 551 607 550
f 608 607 551
f 552 608 551
f 609 608 552
f 553 609 552
f 610 609 553
f 554 610 553
f 611 610 554
f 555 611 554
f 612 611 555
f 556 612 555
f 613 612 556
f 557 613 556
f 614 613 557
f 558 614 557
f 615 614 558
f 559 615 558
f 616 615 559
f 560 616 559
f 562 616 560
f 506 562 560
f 617 618 562
f 561 617 562
f 619 617 561
f 563 619 561
f 620 619 563
f 564 620 563
f 621 620 564
f 565 621 564
f 622 621 565
f 566 622 565
f 623 622 566
f 567 623 566
f 624 623 567
f 568 624 567
f 625 624 568
f 569 625 568
f 626 625 569
f 570 626 569
f 627 626 570
f 571 627 570
f 628 627 571
f 572 628 571
f 629 628 572
f 573 629 572
f 630 629 573
f 574 630 573
f 631 630 574
f 575 631 574
f 632 631 575
f 576 632 575
f 633 632 576
f 577 633 576
f 634 633 577
f 578 634 577
f 635 634 578
f 579 635 578
f 636 635 579
f 580 636 579
f 637 636 580
f 581 637 580
f 638 637 581
f 582 638 581
f 639 638 582
f 583 639 582
f 640 639 583
f 584 640 583
f 641 640 584
f 585 641 584
f 642 641 585
f 586 642 585
f 643 642 586
f 587 643 586
f 644 643 587
f 588 644 587
f 645 644 588
f 589 645 588
f 646 645 589
f 590 646 589
f 647 646 590
f 591 647 590
f 648 647 591
f 592 648 591
f 649 648 592
f 593 649 592
f 650 649 593
f 594 650 593
f 651 650 594
f 595 651 594
f 652 651 595
f 596 652 595
f 653 652 596
f 597 653 596
f 654 653 597
f 598 654 597
f 655 654 598
f 599 655 598
f 656 655 599
f 600 656 599
f 657 656 600
f 601 657 600
f 658 657 601
f 602 658 601
f 659 658 602
f 603 659 602
f 660 659 603
f 604 660 603
f 661 660 604
f 605 661 604
f 662 661 605
f 606 662 605
f 663 662 606
f 607 663 606
f 664 663 607
f 608 664 607
f 665 664 608
f 609 665 608
f 666 665 609
f 610 666 609
f 667 666 610
f 611 667 610
f 668 667 611
f 612 668 611
f 669 668 612
f 613 669 612
f 670 669 613
f 614 670 613
f 671 670 614
f 615 671 614
f 672 671 615
f 616 672 615
f 618 672 616
f 562 618 616
f 673 674 618
f 617 673 618
f 675 673 617
f 619 675 617
f 676 675 619
f 620 676 619
f 677 676 620
f 621 677 620
f 678 677 621
f 622 678 621
f 679 678 622
f 623 679 622
f 680 679 623
f 624 680 623
f 681 680 624
f 625 681 624
f 682 681 625
f 626 682 625
f 683 682 626
f 627 683 626
f 684 683 627
f 628 684 627
f 685 684 628
f 629 685 628
f 686 685 629
f 630 686 629
f 687 686 630
f 631 687 630
f 688 687 631
f 632 688 631
f 689 688 632
f 633 689 632
f 690 689 633
f 634 690 633
f 691 690 634
f 635 691 634
f 692 691 635
f 636 692 635
f 693 692 636
f 637 693 636
f 694 693 637
f 638 694 637
f 695 694 638
f 639 695 638
f 696 695 639
f 640 696 639
f 697 696 640
f 641 697 640
f 698 697 641
f 642 698 641
f 699 698 642
f 643 699 642
f 700 699 643
f 644 700 643
f 701 700 644
f 645 701 644
f 702 701 645
f 646 702 645
f 703 702 646
f 647 703 646
f 704 703 647
f 648 704 647
f 705 704 648
f 649 705 648
f 706 705 649
f 650 706 649
f 707 706 650
f 651 707 650
f 708 707 651
f 652 708 651
f 709 708 652
f 653 709 652
f 710 709 653
f 654 710 653
f 711 710 654
f 655 711 654
f 712 711 655
f 656 712 655
f 713 712 656
f 657 713 656
f 714 713 657
f 658 714 657
f 715 714 658
f 659 715 658
f 716 715 659
f 660 716 659
f 717 716 660
f 661 717 660
f 718 717 661
f 662 718 661
f 719 718 662
f 663 719 662
f 720 719 663
f 664 720 663
f 721 720 664
f 665 721 664
f 722 721 665
f 666 722 665
f 723 722 666
f 667 723 666
f 724 723 667
f 668 724 667
f 725 724 668
f 669 725 668
f 726 725 669
f 670 726 669
f 727 726 670
f 671 727 670
f 728 727 671
f 672 728 671
f 674 728 672
f 618 674 672
f 729 730 674
f 673 729 674
f 731 729 673
f 675 731 673
f 732 731 675
f 676 732 675
f 733 732 676
f 677 733 676
f 734 733 677
f 678 734 677
f 735 734 678
f 679 735 678
f 736 735 679
f 680 736 679
f 737 736 680
f 681 737 680
f 738 737 681
f 682 738 681
f 739 738 682
f 683 739 682
f 740 739 683
f 684 740 683
f 741 740 684
f 685 741 684
f 742 741 685
f 686 742 685
f 743 742 686
f 687 743 686
f 744 743 687
f 688 744 687
f 745 744 688
f 689 745 688
f 746 745 689
f 690 746 689
f 747 746 690
f 691 747 690
f 748 747 691
f 692 748 691
f 749 748 692
f 693 749 692
f 750 749 693
f 694 750 693
f 751 750 694
f 695 751 694
f 752 751 695
f 696 752 695
f 753 752 696
f 697 753 696
f 754 753 697
f 698 754 697
f 755 754 698
f 699 755 698
f 756 755 699
f 700 756 699
f 757 756 700
f 701 757 700
f 758 757 701
f 702 758 701
f 759 758 702
f 703 759 702
f 760 759 703
f 704 760 703
f 761 760 704
f 705 761 704
f 762 761 705
f 706 762 705
f 763 762 706
f 707 763 706
f 764 763 707
f 708 764 707
f 765 764 708
f 709 765 708
f 766 765 709
f 710 766 709
f 767 766 710
f 711 767 710
f 768 767 711
f 712 768 711
f 769 768 712
f 713 769 712
f 770 769 713
f 714 770 713
f 771 770 714
f 715 771 714
f 772 771 715
f 716 772 715
f 773 772 716
f 717 773 716
f 774 773 717
f 718 774 717
f 775 774 718
f 719 775 718
f 776 775 719
f 720 776 719
f 777 776 720
f 721 777 720
f 778 777 721
f 722 778 721
f 779 778 722
f 723 779 722
f 780 779 723
f 724 780 723
f 781 780 724
f 725 781 724
f 782 781 725
f 726 782 725
f 783 782 726
f 727 783 726
f 784 783 727
f 728 784 727
f 730 784 728
f 674 730 728
f 785 786 730
f 729 785 730
f 787 785 729
f 731 787 729
f 788 787 731
f 732 788 731
f 789 788 732
f 733 789 732
f 790 789 733
f 734 790 733
f 791 790 734
f 735 791 734
f 792 791 735
f 736 792 735
f 793 792 736
f 737 793 736
f 794 793 737
f 738 794 737
f 795 794 738
f 739 795 738
f 796 795 739
f 740 796 739
f 797 796 740
f 741 797 740
f 798 797 741
f 742 798 741
f 799 798 742
f 743 799 742
f 800 799 743
f 744 800 743
f 801 800 744
f 745 801 744
f 802 801 745
f 746 802 745
f 803 802 746
f 747 803 746
f 804 803 747
f 748 804 747
f 805 804 748
f 749 805 748
f 806 805 749
f 750 806 749
f 807 806 750
f 751 807 750
f 808 807 751
f 752 808 751
f 809 808 752
f 753 809 752
f 810 809 753
f 754 810 753
f 811 810 754
f 755 811 754
f 812 811 755
f 756 812 755
f 813 812 756
f 757 813 756
f 814 813 757
f 758 814 757
f 815 814 758
f 759 815 758
f 816 815 759
f 760 816 759
f 817 816 760
f 761 817 760
f 818 817 761
f 762 818 761
f 819 818 762
f 763 819 762
f 820 819 763
f 764 820 763
f 821 820 764
f 765 821 764
f 822 821 765
f 766 822 765
f 823 822 766
f 767 823 766
f 824 823 767
f 768 824 767
f 825 824 768
f 769 825 768
f 826 825 769
f 770 826 769
f 827 826 770
f 771 827 770
f 828 827 771
f 772 828 771
f 829 828 772
f 773 829 772
f 830 829 773
f 774 830 773
f 831 830 774
f 775 831 774
f 832 831 775
f 776 832 775
f 833 832 776
f 777 833 776
f 834 833 777
f 778 834 777
f 835 834 778
f 779 835 778
f 836 835 779
f 780 836 779
f 837 836 780
f 781 837 780
f 838 837 781
f 782 838 781
f 839 838 782
f 783 839 782
f 840 839 783
f 784 840 783
f 786 840 784
f 730 786 784
f 841 842 786
f 785 841 786
f 843 841 785
f 787 843 785
f 844 843 787
f 788 844 787
f 845 844 788
f 789 845 788
f 846 845 789
f 790 846 789
f 847 846 790
f 791 847 790
f 848 847 791
f 792 848 791
f 849 848 792
f 793 849 792
f 850 849 793
f 794 850 793
f 851 850 794
f 795 851 794
f 852 851 795
f 796 852 795
f 853 852 796
f 797 853 796
f 854 853 797
f 798 854 797
f 855 854 798
f 799 855 798
f 856 855 799
f 800 856 799
f 857 856 800
f 801 857 800
f 858 857 801
f 802 858 801
f 859 858 802
f 803 859 802
f 860 859 803
f 804 860 803
f 861 860 804
f 805 861 804
f 862 861 805
f 806 862 805
f 863 862 806
f 807 863 806
f 864 863 807
f 808 864 807
f 865 864 808
f 809 865 808
f 866 865 809
f 810 866 809
f 867 866 810
f 811 867 810
f 868 867 811
f 812 868 811
f 869 868 812
f 813 869 812
f 870 869 813
f 814 870 813
f 871 870 814
f 815 871 814
f 872 871 815
f 816 872 815
f 873 872 816
f 817 873 816
f 874 873 817
f 818 874 817
f 875 874 818
f 819 875 818
f 876 875 819
f 820 876 819
f 877 876 820
f 821 877 820
f 878 877 821
f 822 878 821
f 879 878 822
f 823 879 822
f 880 879 823
f 824 880 823
f 881 880 824
f 825 881 824
f 882 881 825
f 826 882 825
f 883 882 826
f 827 883 826
f 884 883 827
f 828 884 827
f 885 884 828
f 829 885 828
f 886 885 829
f 830 886 829
f 887 886 830
f 831 887 830
f 888 887 831
f 832 888 831
f 889 888 832
f 833 889 832
f 890 889 833
f 834 890 833
f 891 890 834
f 835 891 834
f 892 891 835
f 836 892 835
f 893 892 836
f 837 893 836
f 894 893 837
f 838 894 837
f 895 894 838
f 839 895 838
f 896 895 839
f 840 896 839
f 842 896 840
f 786 842 840
f 897 898 842
f 841 897 842
f 899 897 841
f 843 899 841
f 900 899 843
f 844 900 843
f 901 900 844
f 845 901 844
f 902 901 845
f 846 902 845
f 903 902 846
f 847 903 846
f 904 903 847
f 848 904 847
f 905 904 848
f 849 905 848
f 906 905 849
f 850 906 849
f 907 906 850
f 851 907 850
f 908 907 851
f 852 908 851
f 909 908 852
f 853 909 852
f 910 909 853
f 854 910 853
f 911 910 854
f 855 911 854
f 912 911 855
f 856 912 855
f 913 912 856
f 857 913 856
f 914 913 857
f 858 914 857
f 915 914 858
f 859 915 858
f 916 915 859
f 860 916 859
f 917 916 860
f 861 917 860
f 918 917 861
f 862 918 861
f 919 918 862
f 863 919 862
f 920 919 863
f 864 920 863
f 921 920 864
f 865 921 864
f 922 921 865
f 866 922 865
f 923 922 866
f 867 923 866
f 924 923 867
f 868 924 867
f 925 924 868
f 869 925 868
f 926 925 869
f 870 926 869
f 927 926 870
f 871 927 870
f 928 927 871
f 872 928 871
f 929 928 872
f 873 929 872
f 930 929 873
f 874 930 873
f 931 930 874
f 875 931 874
f 932 931 875
f 876 932 875
f 933 932 876
f 877 933 876
f 934 933 877
f 878 934 877
f 935 934 878
f 879 935 878
f 936 935 879
f 880 936 879
f 937 936 880
f 881 937 880
f 938 937 881
f 882 938 881
f 939 938 882
f 883 939 882
f 940 939 883
f 884 940 883
f 941 940 884
f 885 941 884
f 942 941 885
f 886 942 885
f 943 942 886
f 887 943 886
f 944 943 887
f 888 944 887
f 945 944 888
f 889 945 888
f 946 945 889
f 890 946 889
f 947 946 890
f 891 947 890
f 948 947 891
f 892 948 891
f 949 948 892
f 893 949 892
f 950 949 893
f 894 950 893
f 951 950 894
f 895 951 894
f 952 951 895
f 896 952 895
f 898 952 896
f 842 898 896
f 953 954 898
f 897 953 898
f 955 953 897
f 899 955 897
f 956 955 899
f 900 956 899
f 957 956 900
f 901 957 900
f 958 957 901
f 902 958 901
f 959 958 902
f 903 959 902
f 960 959 903
f 904 960 903
f 961 960 904
f 905 961 904
f 962 961 905
f 906 962 905
f 963 962 906
f 907 963 906
f 964 963 907
f 908 964 907
f 965 964 908
f 909 965 908
f 966 965 909
f 910 966 909
f 967 966 910
f 911 967 910
f 968 967 911
f 912 968 911
f 969 968 912
f 913 969 912
f 970 969 913
f 914 970 913
f 971 970 914
f 915 971 914
f 972 971 915
f 916 972 915
f 973 972 916
f 917 973 916
f 974 973 917
f 918 974 917
f 975 974 918
f 919 975 918
f 976 975 919
f 920 976 919
f 977 976 920
f 921 977 920
f 978 977 921
f 922 978 921
f 979 978 922
f 923 979 922
f 980 979 923
f 924 980 923
f 981 980 924
f 925 981 924
f 982 981 925
f 926 982 925
f 983 982 926
f 927 983 926
f 984 983 927
f 928 984 927
f 985 984 928
f 929 985 928
f 986 985 929
f 930 986 929
f 987 986 930
f 931 987 930
f 988 987 931
f 932 988 931
f 989 988 932
f 933 989 932
f 990 989 933
f 934 990 933
f 991 990 934
f 935 991 934
f 992 991 935
f 936 992 935
f 993 992 936
f 937 993 936
f 994 993 937
f 938 994 937
f 995 994 938
f 939 995 938
f 996 995 939
f 940 996 939
f 997 996 940
f 941 997 940
f 998 997 941
f 942 998 941
f 999 998 942
f 943 999 942
f 1000 999 943
f 944 1000 943
f 1001 1000 944
f 945 1001 944
f 1002 1001 945
f 946 1002 945
f 1003 1002 946
f 947 1003 946
f 1004 1003 947
f 948 1004 947
f 1005 1004 948
f 949 1005 948
f 1006 1005 949
f 950 1006 949
f 1007 1006 950
f 951 1007 950
f 1008 1007 951
f 952 1008 951
f 954 1008 952
f 898 954 952
f 1009 1010 954
f 953 1009 954
f 1011 1009 953
f 955 1011 953
f 1012 1011 955
f 956 1012 955
f 1013 1012 956
f 957 1013 956
f 1014 1013 957
f 958 1014 957
f 1015 1014 958
f 959 1015 958
f 1016 1015 959
f 960 1016 959
f 1017 1016 960
f 961 1017 960
f 1018 1017 961
f 962 1018 961
f 1019 1018 962
f 963 1019 962
f 1020 1019 963
f 964 1020 963
f 1021 1020 964
f 965 1021 964
f 1022 1021 965
f 966 1022 965
f 1023 1022 966
f 967 1023 966
f 1024 1023 967
f 968 1024 967
f 1025 1024 968
f 969 1025 968
f 1026 1025 969
f 970 1026 969
f 1027 1026 970
f 971 1027 970
f 1028 1027 971
f 972 1028 971
f 1029 1028 972
f 973 1029 972
f 1030 1029 973
f 974 1030 973
f 1031 1030 974
f 975 1031 974
f 1032 1031 975
f 976 1032 975
f 1033 1032 976
f 977 1033 976
f 1034 1033 977
f 978 1034 977
f 1035 1034 978
f 979 1035 978
f 1036 1035 979
f 980 1036 979
f 1037 1036 980
f 981 1037 980
f 1038 1037 981
f 982 1038 981
f 1039 1038 982
f 983 1039 982
f 1040 1039 983
f 984 1040 983
f 1041 1040 984
f 985 1041 984
f 1042 1041 985
f 986 1042 985
f 1043 1042 986
f 987 1043 986
f 1044 1043 987
f 988 1044 987
f 1045 1044 988
f 989 1045 988
f 1046 1045 989
f 990 1046 989
f 1047 1046 990
f 991 1047 990
f 1048 1047 991
f 992 1048 991
f 1049 1048 992
f 993 1049 992
f 1050 1049 993
f 994 1050 993
f 1051 1050 994
f 995 1051 994
f 1052 1051 995
f 996 1052 995
f 1053 1052 996
f 997 1053 996
f 1054 1053 997
f 998 1054 997
f 1055 1054 998
f 999 1055 998
f 1056 1055 999
f 1000 1056 999
f 1057 1056 1000
f 1001 1057 1000
f 1058 1057 1001
f 1002 1058 1001
f 1059 1058 1002
f 1003 1059 1002
f 1060 1059 1003
f 1004 1060 1003
f 1061 1060 1004
f 1005 1061 1004
f 1062 1061 1005
f 1006 1062 1005
f 1063 1062 1006
f 1007 1063 1006
f 1064 1063 1007
f 1008 1064 1007
f 1010 1064 1008
f 954 1010 1008
f 1065 1066 1010
f 1009 1065 1010
f 1067 1065 1009
f 1011 1067 1009
f 1068 1067 1011
f 1012 1068 1011
f 1069 1068 1012
f 1013 1069 1012
f 1070 1069 1013
f 1014 1070 1013
f 1071 1070 1014
f 1015 1071 1014
f 1072 1071 1015
f 1016 1072 1015
f 1073 1072 1016
f 1017 1073 1016
f 1074 1073 1017
f 1018 1074 1017
f 1075 1074 1018
f 1019 1075 1018
f 1076 1075 1019
f 1020 1076 1019
f 1077 1076 1020
f 1021 1077 1020
f 1078 1077 1021
f 1022 1078 1021
f 1079 1078 1022
f 1023 1079 1022
f 1080 1079 1023
f 1024 1080 1023
f 1081 1080 1024
f 1025 1081 1024
f 1082 1081 1025
f 1026 1082 1025
f 1083 1082 1026
f 1027 1083 1026
f 1084 1083 1027
f 1028 1084 1027
f 1085 1084 1028
f 1029 1085 1028
f 1086 1085 1029
f 1030 1086 1029
f 1087 1086 1030
f 1031 1087 1030
f 1088 1087 1031
f 1032 1088 1031
f 1089 1088 1032
f 1033 1089 1032
f 1090 1089 1033
f 1034 1090 1033
f 1091 1090 1034
f 1035 1091 1034
f 1092 1091 1035
f 1036 1092 1035
f 1093 1092 1036
f 1037 1093 1036
f 1094 1093 1037
f 1038 1094 1037
f 1095 1094 1038
f 1039 1095 1038
f 1096 1095 1039
f 1040 1096 1039
f 1097 1096 1040
f 1041 1097 1040
f 1098 1097 1041
f 1042 1098 1041
f 1099 1098 1042
f 1043 1099 1042
f 1100 1099 1043
f 1044 1100 1043
f 1101 1100 1044
f 1045 1101 1044
f 1102 1101 1045
f 1046 1102 1045
f 1103 1102 1046
f 1047 1103 1046
f 1104 1103 1047
f 1048 1104 1047
f 1105 1104 1048
f 1049 1105 1048
f 1106 1105 1049
f 1050 1106 1049
f 1107 1106 1050
f 1051 1107 1050
f 1108 1107 1051
f 1052 1108 1051
f 1109 1108 1052
f 1053 1109 1052
f 1110 1109 1053
f 1054 1110 1053
f 1111 1110 1054
f 1055 1111 1054
f 1112 1111 1055
f 1056 1112 1055
f 1113 1112 1056
f 1057 1113 1056
f 1114 1113 1057
f 1058 1114 1057
f 1115 1114 1058
f 1059 1115 1058
f 1116 1115 1059
f 1060 1116 1059
f 1117 1116 1060
f 1061 1117 1060
f 1118 1117 1061
f 1062 1118 1061
f 1119 1118 1062
f 1063 1119 1062
f 1120 1119 1063
f 1064 1120 1063
f 1066 1120 1064
f 1010 1066 1064
f 4 3 1121
f 6 4 1121
f 8 6 1121
f 10 8 1121
f 12 10 1121
f 14 12 1121
f 16 14 1121
f 18 16 1121
f 20 18 1121
f 22 20 1121
f 24 22 1121
f 26 24 1121
f 28 26 1121
f 30 28 1121
f 32 30 1121
f 34 32 1121
f 36 34 1121
f 38 36 1121
f 40 38 1121
f 42 40 1121
f 44 42 1121
f 46 44 1121
f 48 46 1121
f 50 48 1121
f 52 50 1121
f 54 52 1121
f 56 54 1121
f 58 56 1121
f 60 58 1121
f 62 60 1121
f 64 62 1121
f 66 64 1121
f 68 66 1121
f 70 68 1121
f 72 70 1121
f 74 72 1121
f 76 74 1121
f 78 76 1121
f 80 78 1121
f 82 80 1121
f 84 82 1121
f 86 84 1121
f 88 86 1121
f 90 88 1121
f 92 90 1121
f 94 92 1121
f 96 94 1121
f 98 96 1121
f 100 98 1121
f 102 100 1121
f 104 102 1121
f 106 104 1121
f 108 106 1121
f 110 108 1121
f 112 110 1121
f 3 112 1121
f 1122 1066 1065
f 1122 1065 1067
f 1122 1067 1068
f 1122 1068 1069
f 1122 1069 1070
f 1122 1070 1071
f 1122 1071 1072
f 1122 1072 1073
f 1122 1073 1074
f 1122 1074 1075
f 1122 1075 1076
f 1122 1076 1077
f 1122 1077 1078
f 1122 1078 1079
f 1122 1079 1080
f 1122 1080 1081
f 1122 1081 1082
f 1122 1082 1083
f 1122 1083 1084
f 1122 1084 1085
f 1122 1085 1086
f 1122 1086 1087
f 1122 1087 1088
f 1122 1088 1089
f 1122 1089 1090
f 1122 1090 1091
f 1122 1091 1092
f 1122 1092 1093
f 1122 1093 1094
f 1122 1094 1095
f 1122 1095 1096
f 1122 1096 1097
f 1122 1097 1098
f 1122 1098 1099
f 1122 1099 1100
f 1122 1100 1101
f 1122 1101 1102
f 1122 1102 1103
f 1122 1103 1104
f 1122 1104 1105
f 1122 1105 1106
f 1122 1106 1107
f 1122 1107 1108
f 1122 1108 1109
f 1122 1109 1110
f 1122 1110 1111
f 1122 1111 1112
f 1122 1112 1113
f 1122 1113 1114
f 1122 1114 1115
f 1122 1115 1116
f 1122 1116 1117
f 1122 1117 1118
f 1122 1118 1119
f 1122 1119 1120
f 1122 1120 1066
