# sionna2 mesh — mini5pro__camera.obj
# group=camera  verts=1151  tris=2282
v 0.060888 -0.015000 0.010306
v 0.066375 -0.014899 0.010306
v 0.066322 -0.015000 0.010306
v 0.066784 -0.014373 0.010306
v 0.067763 -0.013284 0.010306
v 0.060888 -0.015000 0.015292
v 0.066539 -0.015000 0.011054
v 0.067381 -0.015000 0.013651
v 0.067902 -0.015000 0.014682
v 0.068298 -0.015000 0.015292
v 0.068709 -0.014501 0.015292
v 0.069178 -0.014032 0.015292
v 0.090888 -0.015000 0.010306
v 0.079130 -0.015000 0.010306
v 0.079077 -0.014899 0.010306
v 0.078071 -0.015000 0.013651
v 0.078913 -0.015000 0.011054
v 0.090888 -0.015000 0.015292
v 0.077550 -0.015000 0.014682
v 0.077154 -0.015000 0.015292
v 0.075469 -0.003117 0.010306
v 0.075848 -0.012073 0.010306
v 0.075469 -0.005600 0.010306
v 0.076822 -0.012631 0.010306
v 0.075469 -0.005600 0.015292
v 0.069468 -0.013846 0.015292
v 0.071187 -0.013077 0.015292
v 0.071756 -0.012966 0.015292
v 0.073696 -0.012966 0.015292
v 0.074265 -0.013077 0.015292
v 0.075984 -0.013846 0.015292
v 0.079469 -0.005600 0.015292
v 0.068630 -0.012631 0.010306
v 0.069604 -0.012073 0.010306
v 0.071026 -0.011604 0.010306
v 0.073625 -0.002263 0.010306
v 0.074663 -0.002956 0.010306
v 0.071827 -0.011463 0.010306
v 0.073625 -0.011463 0.010306
v 0.074426 -0.011604 0.010306
v 0.060888 0.015000 0.015292
v 0.060888 0.015000 0.010306
v 0.072932 -0.001225 0.010306
v 0.075469 0.005600 0.015292
v 0.078668 -0.014373 0.010306
v 0.079469 -0.005600 0.010306
v 0.077689 -0.013284 0.010306
v 0.076743 -0.014501 0.015292
v 0.076274 -0.014032 0.015292
v 0.079469 -0.002616 0.010306
v 0.081069 -0.002616 0.010306
v 0.079469 -0.001816 0.015292
v 0.081069 0.002616 0.010306
v 0.081069 -0.001816 0.015292
v 0.081069 0.001816 0.015292
v 0.090888 0.015000 0.010306
v 0.068298 0.015000 0.015292
v 0.071187 0.013077 0.015292
v 0.069468 0.013846 0.015292
v 0.068709 0.014501 0.015292
v 0.069178 0.014032 0.015292
v 0.072688 0.000000 0.010306
v 0.072932 0.001225 0.010306
v 0.073625 0.002263 0.010306
v 0.074663 0.002956 0.010306
v 0.075469 0.005600 0.010306
v 0.075469 0.003117 0.010306
v 0.071827 0.011463 0.010306
v 0.068630 0.012631 0.010306
v 0.069604 0.012073 0.010306
v 0.071026 0.011604 0.010306
v 0.067763 0.013284 0.010306
v 0.073625 0.011463 0.010306
v 0.074426 0.011604 0.010306
v 0.075848 0.012073 0.010306
v 0.071756 0.012966 0.015292
v 0.073696 0.012966 0.015292
v 0.074265 0.013077 0.015292
v 0.075984 0.013846 0.015292
v 0.076274 0.014032 0.015292
v 0.079469 0.005600 0.015292
v 0.079469 0.001816 0.015292
v 0.090888 0.015000 0.015292
v 0.079469 0.005600 0.010306
v 0.079469 0.002616 0.010306
v 0.076822 0.012631 0.010306
v 0.077689 0.013284 0.010306
v 0.078668 0.014373 0.010306
v 0.079077 0.014899 0.010306
v 0.076743 0.014501 0.015292
v 0.077154 0.015000 0.015292
v 0.066375 0.014899 0.010306
v 0.066784 0.014373 0.010306
v 0.066322 0.015000 0.010306
v 0.066539 0.015000 0.011054
v 0.067381 0.015000 0.013651
v 0.067902 0.015000 0.014682
v 0.079130 0.015000 0.010306
v 0.078913 0.015000 0.011054
v 0.078071 0.015000 0.013651
v 0.077550 0.015000 0.014682
v 0.074663 -0.002956 0.007812
v 0.073625 -0.002263 0.007812
v 0.075469 -0.003117 0.007812
v 0.072932 -0.001225 0.007812
v 0.072688 0.000000 0.007812
v 0.072932 0.001225 0.007812
v 0.073625 0.002263 0.007812
v 0.074663 0.002956 0.007812
v 0.075469 0.003117 0.007812
v 0.063888 -0.010000 -0.033742
v 0.063888 0.010000 -0.033742
v 0.087888 -0.010000 -0.033742
v 0.087888 -0.005049 -0.022955
v 0.087888 -0.006183 -0.020029
v 0.087888 -0.001848 -0.026612
v 0.087888 -0.003570 -0.025201
v 0.087888 0.000000 -0.027094
v 0.087888 0.001848 -0.026612
v 0.063888 -0.010000 0.007812
v 0.063888 0.010000 0.007812
v 0.087888 -0.006897 -0.016622
v 0.087888 -0.010000 0.007812
v 0.087888 -0.007140 -0.012965
v 0.087888 -0.006897 -0.009308
v 0.079469 -0.005600 0.007812
v 0.075469 -0.005600 0.007812
v 0.087888 -0.006183 -0.005901
v 0.087888 -0.005049 -0.002975
v 0.087888 -0.003570 -0.000729
v 0.087888 -0.001848 0.000682
v 0.087888 0.010000 0.007812
v 0.079469 -0.002016 0.007812
v 0.081069 -0.002016 0.007812
v 0.081069 0.002016 0.007812
v 0.087888 0.010000 -0.033742
v 0.087888 0.003570 -0.025201
v 0.087888 0.005049 -0.022955
v 0.087888 0.006183 -0.020029
v 0.087888 0.006897 -0.016622
v 0.087888 0.007140 -0.012965
v 0.087888 0.006897 -0.009308
v 0.075469 0.005600 0.007812
v 0.079469 0.005600 0.007812
v 0.087888 0.000000 0.001164
v 0.087888 0.003570 -0.000729
v 0.087888 0.005049 -0.002975
v 0.087888 0.001848 0.000682
v 0.079469 0.002016 0.007812
v 0.087888 0.006183 -0.005901
v 0.095688 -0.003570 -0.025201
v 0.095688 -0.001848 -0.026612
v 0.095688 0.000000 -0.027094
v 0.095688 -0.007140 -0.012965
v 0.095688 -0.006897 -0.016622
v 0.095688 -0.006897 -0.009308
v 0.095688 -0.006183 -0.020029
v 0.095688 -0.005049 -0.022955
v 0.095688 0.000000 -0.012965
v 0.095688 -0.006183 -0.005901
v 0.095688 -0.005049 -0.002975
v 0.095688 -0.003570 -0.000729
v 0.095688 -0.001848 0.000682
v 0.095688 0.000000 0.001164
v 0.095688 0.001848 -0.026612
v 0.095688 0.003570 -0.025201
v 0.095688 0.005049 -0.022955
v 0.095688 0.006183 -0.020029
v 0.095688 0.006897 -0.016622
v 0.095688 0.007140 -0.012965
v 0.095688 0.001848 0.000682
v 0.095688 0.003570 -0.000729
v 0.095688 0.005049 -0.002975
v 0.095688 0.006897 -0.009308
v 0.095688 0.006183 -0.005901
v 0.067220 -0.022227 -0.004443
v 0.065825 -0.020903 -0.002007
v 0.067110 -0.020109 -0.006121
v 0.069323 -0.023526 -0.006032
v 0.070254 -0.025296 -0.003053
v 0.068024 -0.024330 -0.001871
v 0.071441 -0.024374 -0.006252
v 0.072726 -0.025629 -0.003461
v 0.072726 -0.023030 -0.008604
v 0.074011 -0.024374 -0.006252
v 0.075198 -0.025296 -0.003053
v 0.076129 -0.023526 -0.006032
v 0.077428 -0.024330 -0.001871
v 0.070647 -0.022295 -0.008794
v 0.072726 -0.021010 -0.010366
v 0.068726 -0.021296 -0.007945
v 0.070623 -0.020124 -0.010194
v 0.074805 -0.022295 -0.008794
v 0.074829 -0.020124 -0.010194
v 0.076726 -0.021296 -0.007945
v 0.065921 -0.018824 -0.003461
v 0.067110 -0.017539 -0.006121
v 0.065825 -0.016745 -0.002007
v 0.067220 -0.015421 -0.004443
v 0.068520 -0.018824 -0.008604
v 0.072726 -0.018824 -0.010968
v 0.070623 -0.017524 -0.010194
v 0.068726 -0.016352 -0.007945
v 0.072726 -0.016638 -0.010366
v 0.074829 -0.017524 -0.010194
v 0.076932 -0.018824 -0.008604
v 0.076726 -0.016352 -0.007945
v 0.070647 -0.015353 -0.008794
v 0.072726 -0.014618 -0.008604
v 0.074805 -0.015353 -0.008794
v 0.069323 -0.014122 -0.006032
v 0.071441 -0.013274 -0.006252
v 0.068024 -0.013318 -0.001871
v 0.076129 -0.014122 -0.006032
v 0.074011 -0.013274 -0.006252
v 0.078232 -0.022227 -0.004443
v 0.078342 -0.020109 -0.006121
v 0.079627 -0.020903 -0.002007
v 0.078342 -0.017539 -0.006121
v 0.079531 -0.018824 -0.003461
v 0.079627 -0.016745 -0.002007
v 0.078232 -0.015421 -0.004443
v 0.077428 -0.013318 -0.001871
v 0.070254 -0.012352 -0.003053
v 0.072726 -0.012019 -0.003461
v 0.075198 -0.012352 -0.003053
v 0.067176 -0.024440 0.002319
v 0.066254 -0.022824 -0.000030
v 0.067176 -0.024440 0.007405
v 0.065921 -0.023030 0.004862
v 0.065118 -0.020927 0.002290
v 0.065030 -0.018824 0.000536
v 0.066254 -0.022824 0.009754
v 0.065118 -0.020927 0.007434
v 0.064726 -0.018824 0.004862
v 0.071426 -0.026432 0.000701
v 0.069255 -0.025725 0.000748
v 0.070540 -0.026520 0.004862
v 0.074026 -0.026432 0.000701
v 0.076197 -0.025725 0.000748
v 0.072726 -0.026824 0.004862
v 0.074912 -0.026520 0.004862
v 0.068520 -0.025629 0.004862
v 0.069255 -0.025725 0.008976
v 0.071426 -0.026432 0.009023
v 0.076932 -0.025629 0.004862
v 0.074026 -0.026432 0.009023
v 0.076197 -0.025725 0.008976
v 0.068024 -0.024330 0.011595
v 0.067220 -0.022227 0.014167
v 0.065825 -0.020903 0.011730
v 0.065030 -0.018824 0.009188
v 0.067110 -0.020109 0.015845
v 0.070254 -0.025296 0.012777
v 0.072726 -0.025629 0.013184
v 0.075198 -0.025296 0.012777
v 0.077428 -0.024330 0.011595
v 0.069323 -0.023526 0.015756
v 0.071441 -0.024374 0.015976
v 0.074011 -0.024374 0.015976
v 0.076129 -0.023526 0.015756
v 0.072726 -0.023030 0.018328
v 0.068726 -0.021296 0.017669
v 0.070647 -0.022295 0.018518
v 0.074805 -0.022295 0.018518
v 0.076726 -0.021296 0.017669
v 0.065118 -0.016721 0.002290
v 0.065118 -0.016721 0.007434
v 0.066254 -0.014824 -0.000030
v 0.067176 -0.013208 0.002319
v 0.065921 -0.014618 0.004862
v 0.066254 -0.014824 0.009754
v 0.067176 -0.013208 0.007405
v 0.065921 -0.018824 0.013184
v 0.065825 -0.016745 0.011730
v 0.067110 -0.017539 0.015845
v 0.067220 -0.015421 0.014167
v 0.068520 -0.018824 0.018328
v 0.068726 -0.016352 0.017669
v 0.070647 -0.015353 0.018518
v 0.069323 -0.014122 0.015756
v 0.071441 -0.013274 0.015976
v 0.072726 -0.014618 0.018328
v 0.076726 -0.016352 0.017669
v 0.076129 -0.014122 0.015756
v 0.074805 -0.015353 0.018518
v 0.074011 -0.013274 0.015976
v 0.078276 -0.024440 0.002319
v 0.079198 -0.022824 -0.000030
v 0.078276 -0.024440 0.007405
v 0.079531 -0.023030 0.004862
v 0.080334 -0.020927 0.002290
v 0.080422 -0.018824 0.000536
v 0.079198 -0.022824 0.009754
v 0.080334 -0.020927 0.007434
v 0.080726 -0.018824 0.004862
v 0.078232 -0.022227 0.014167
v 0.079627 -0.020903 0.011730
v 0.080422 -0.018824 0.009188
v 0.078342 -0.020109 0.015845
v 0.080334 -0.016721 0.002290
v 0.080334 -0.016721 0.007434
v 0.079198 -0.014824 -0.000030
v 0.078276 -0.013208 0.002319
v 0.079531 -0.014618 0.004862
v 0.079198 -0.014824 0.009754
v 0.078276 -0.013208 0.007405
v 0.079531 -0.018824 0.013184
v 0.079627 -0.016745 0.011730
v 0.078342 -0.017539 0.015845
v 0.076932 -0.018824 0.018328
v 0.078232 -0.015421 0.014167
v 0.072726 -0.021010 0.020090
v 0.070623 -0.020124 0.019917
v 0.074829 -0.020124 0.019917
v 0.072726 -0.018824 0.020692
v 0.070623 -0.017524 0.019917
v 0.072726 -0.016638 0.020090
v 0.074829 -0.017524 0.019917
v 0.069255 -0.011923 0.000748
v 0.071426 -0.011216 0.000701
v 0.070540 -0.011128 0.004862
v 0.074026 -0.011216 0.000701
v 0.076197 -0.011923 0.000748
v 0.072726 -0.010824 0.004862
v 0.074912 -0.011128 0.004862
v 0.068520 -0.012019 0.004862
v 0.069255 -0.011923 0.008976
v 0.071426 -0.011216 0.009023
v 0.076932 -0.012019 0.004862
v 0.074026 -0.011216 0.009023
v 0.076197 -0.011923 0.008976
v 0.069323 0.014122 -0.006032
v 0.070254 0.012352 -0.003053
v 0.068024 0.013318 -0.001871
v 0.071441 0.013274 -0.006252
v 0.072726 0.012019 -0.003461
v 0.074011 0.013274 -0.006252
v 0.075198 0.012352 -0.003053
v 0.076129 0.014122 -0.006032
v 0.077428 0.013318 -0.001871
v 0.067220 0.015421 -0.004443
v 0.065825 0.016745 -0.002007
v 0.067110 0.017539 -0.006121
v 0.065921 0.018824 -0.003461
v 0.067110 0.020109 -0.006121
v 0.065825 0.020903 -0.002007
v 0.070647 0.015353 -0.008794
v 0.072726 0.016638 -0.010366
v 0.072726 0.014618 -0.008604
v 0.068726 0.016352 -0.007945
v 0.070623 0.017524 -0.010194
v 0.074805 0.015353 -0.008794
v 0.074829 0.017524 -0.010194
v 0.076726 0.016352 -0.007945
v 0.068520 0.018824 -0.008604
v 0.072726 0.018824 -0.010968
v 0.068726 0.021296 -0.007945
v 0.070623 0.020124 -0.010194
v 0.072726 0.021010 -0.010366
v 0.076932 0.018824 -0.008604
v 0.074829 0.020124 -0.010194
v 0.076726 0.021296 -0.007945
v 0.067220 0.022227 -0.004443
v 0.070647 0.022295 -0.008794
v 0.072726 0.023030 -0.008604
v 0.074805 0.022295 -0.008794
v 0.069323 0.023526 -0.006032
v 0.071441 0.024374 -0.006252
v 0.068024 0.024330 -0.001871
v 0.074011 0.024374 -0.006252
v 0.076129 0.023526 -0.006032
v 0.070254 0.025296 -0.003053
v 0.072726 0.025629 -0.003461
v 0.075198 0.025296 -0.003053
v 0.077428 0.024330 -0.001871
v 0.078232 0.015421 -0.004443
v 0.078342 0.017539 -0.006121
v 0.079627 0.016745 -0.002007
v 0.079531 0.018824 -0.003461
v 0.078342 0.020109 -0.006121
v 0.079627 0.020903 -0.002007
v 0.078232 0.022227 -0.004443
v 0.071426 0.011216 0.000701
v 0.070540 0.011128 0.004862
v 0.069255 0.011923 0.000748
v 0.067176 0.013208 0.002319
v 0.074026 0.011216 0.000701
v 0.072726 0.010824 0.004862
v 0.076197 0.011923 0.000748
v 0.074912 0.011128 0.004862
v 0.068520 0.012019 0.004862
v 0.069255 0.011923 0.008976
v 0.071426 0.011216 0.009023
v 0.067176 0.013208 0.007405
v 0.076932 0.012019 0.004862
v 0.074026 0.011216 0.009023
v 0.076197 0.011923 0.008976
v 0.071441 0.013274 0.015976
v 0.074011 0.013274 0.015976
v 0.078276 0.013208 0.002319
v 0.078276 0.013208 0.007405
v 0.066254 0.014824 -0.000030
v 0.065118 0.016721 0.002290
v 0.065921 0.014618 0.004862
v 0.066254 0.014824 0.009754
v 0.065118 0.016721 0.007434
v 0.065030 0.018824 0.000536
v 0.064726 0.018824 0.004862
v 0.065030 0.018824 0.009188
v 0.065118 0.020927 0.002290
v 0.065118 0.020927 0.007434
v 0.065825 0.016745 0.011730
v 0.067220 0.015421 0.014167
v 0.067110 0.017539 0.015845
v 0.065921 0.018824 0.013184
v 0.065825 0.020903 0.011730
v 0.067110 0.020109 0.015845
v 0.069323 0.014122 0.015756
v 0.068726 0.016352 0.017669
v 0.070647 0.015353 0.018518
v 0.072726 0.014618 0.018328
v 0.076129 0.014122 0.015756
v 0.074805 0.015353 0.018518
v 0.076726 0.016352 0.017669
v 0.068520 0.018824 0.018328
v 0.068726 0.021296 0.017669
v 0.066254 0.022824 -0.000030
v 0.065921 0.023030 0.004862
v 0.067176 0.024440 0.002319
v 0.066254 0.022824 0.009754
v 0.067176 0.024440 0.007405
v 0.069255 0.025725 0.000748
v 0.071426 0.026432 0.000701
v 0.070540 0.026520 0.004862
v 0.076197 0.025725 0.000748
v 0.074026 0.026432 0.000701
v 0.072726 0.026824 0.004862
v 0.074912 0.026520 0.004862
v 0.068520 0.025629 0.004862
v 0.069255 0.025725 0.008976
v 0.071426 0.026432 0.009023
v 0.076932 0.025629 0.004862
v 0.074026 0.026432 0.009023
v 0.076197 0.025725 0.008976
v 0.067220 0.022227 0.014167
v 0.068024 0.024330 0.011595
v 0.069323 0.023526 0.015756
v 0.070647 0.022295 0.018518
v 0.071441 0.024374 0.015976
v 0.072726 0.023030 0.018328
v 0.074805 0.022295 0.018518
v 0.074011 0.024374 0.015976
v 0.076726 0.021296 0.017669
v 0.076129 0.023526 0.015756
v 0.070254 0.025296 0.012777
v 0.072726 0.025629 0.013184
v 0.075198 0.025296 0.012777
v 0.077428 0.024330 0.011595
v 0.079198 0.014824 -0.000030
v 0.080334 0.016721 0.002290
v 0.079531 0.014618 0.004862
v 0.079198 0.014824 0.009754
v 0.080334 0.016721 0.007434
v 0.080422 0.018824 0.000536
v 0.080726 0.018824 0.004862
v 0.080422 0.018824 0.009188
v 0.080334 0.020927 0.002290
v 0.080334 0.020927 0.007434
v 0.079627 0.016745 0.011730
v 0.078232 0.015421 0.014167
v 0.078342 0.017539 0.015845
v 0.079531 0.018824 0.013184
v 0.079627 0.020903 0.011730
v 0.076932 0.018824 0.018328
v 0.078342 0.020109 0.015845
v 0.079198 0.022824 -0.000030
v 0.079531 0.023030 0.004862
v 0.078276 0.024440 0.002319
v 0.078276 0.024440 0.007405
v 0.079198 0.022824 0.009754
v 0.078232 0.022227 0.014167
v 0.072726 0.016638 0.020090
v 0.070623 0.017524 0.019917
v 0.074829 0.017524 0.019917
v 0.072726 0.018824 0.020692
v 0.070623 0.020124 0.019917
v 0.072726 0.021010 0.020090
v 0.074829 0.020124 0.019917
v -0.049902 -0.023848 0.016394
v -0.050901 -0.024277 0.020195
v -0.052132 -0.022882 0.017576
v -0.048715 -0.022926 0.013196
v -0.047430 -0.024181 0.015987
v -0.046145 -0.022926 0.013196
v -0.044958 -0.023848 0.016394
v -0.048730 -0.024984 0.020148
v -0.046130 -0.024984 0.020148
v -0.049509 -0.020847 0.010653
v -0.050833 -0.022078 0.013415
v -0.047430 -0.021582 0.010843
v -0.047430 -0.019562 0.009082
v -0.045351 -0.020847 0.010653
v -0.051430 -0.019848 0.011502
v -0.052936 -0.020779 0.015005
v -0.053902 -0.021376 0.019418
v -0.054331 -0.019455 0.017441
v -0.042728 -0.022882 0.017576
v -0.043959 -0.024277 0.020195
v -0.044027 -0.022078 0.013415
v -0.043430 -0.019848 0.011502
v -0.041924 -0.020779 0.015005
v -0.040958 -0.021376 0.019418
v -0.040529 -0.019455 0.017441
v -0.051636 -0.017376 0.010843
v -0.049533 -0.018676 0.009254
v -0.053046 -0.018661 0.013327
v -0.053046 -0.016091 0.013327
v -0.045327 -0.018676 0.009254
v -0.047430 -0.017376 0.008479
v -0.049533 -0.016076 0.009254
v -0.045327 -0.016076 0.009254
v -0.054235 -0.017376 0.015987
v -0.055126 -0.017376 0.019984
v -0.051430 -0.014904 0.011502
v -0.047430 -0.015190 0.009082
v -0.049509 -0.013905 0.010653
v -0.045351 -0.013905 0.010653
v -0.047430 -0.013170 0.010843
v -0.050833 -0.012674 0.013415
v -0.054331 -0.015297 0.017441
v -0.052936 -0.013973 0.015005
v -0.053902 -0.013376 0.019418
v -0.043224 -0.017376 0.010843
v -0.041814 -0.018661 0.013327
v -0.041814 -0.016091 0.013327
v -0.040625 -0.017376 0.015987
v -0.039734 -0.017376 0.019984
v -0.043430 -0.014904 0.011502
v -0.044027 -0.012674 0.013415
v -0.041924 -0.013973 0.015005
v -0.040529 -0.015297 0.017441
v -0.040958 -0.013376 0.019418
v -0.049616 -0.025072 0.024309
v -0.051636 -0.024181 0.024309
v -0.052980 -0.022992 0.021767
v -0.047430 -0.025376 0.024309
v -0.045244 -0.025072 0.024309
v -0.050901 -0.024277 0.028424
v -0.052980 -0.022992 0.026852
v -0.048730 -0.024984 0.028471
v -0.046130 -0.024984 0.028471
v -0.054235 -0.021582 0.024309
v -0.055038 -0.019479 0.021738
v -0.053902 -0.021376 0.029201
v -0.052132 -0.022882 0.031042
v -0.055038 -0.019479 0.026881
v -0.043224 -0.024181 0.024309
v -0.041880 -0.022992 0.021767
v -0.043959 -0.024277 0.028424
v -0.041880 -0.022992 0.026852
v -0.040625 -0.021582 0.024309
v -0.039822 -0.019479 0.021738
v -0.042728 -0.022882 0.031042
v -0.040958 -0.021376 0.029201
v -0.039822 -0.019479 0.026881
v -0.049902 -0.023848 0.032225
v -0.047430 -0.024181 0.032632
v -0.044958 -0.023848 0.032225
v -0.048715 -0.022926 0.035423
v -0.046145 -0.022926 0.035423
v -0.050833 -0.022078 0.035204
v -0.052936 -0.020779 0.033614
v -0.054331 -0.019455 0.031178
v -0.051430 -0.019848 0.037116
v -0.049509 -0.020847 0.037966
v -0.047430 -0.021582 0.037776
v -0.045351 -0.020847 0.037966
v -0.047430 -0.019562 0.039537
v -0.044027 -0.022078 0.035204
v -0.041924 -0.020779 0.033614
v -0.040529 -0.019455 0.031178
v -0.043430 -0.019848 0.037116
v -0.055430 -0.017376 0.024309
v -0.055126 -0.017376 0.028635
v -0.055038 -0.015273 0.021738
v -0.054235 -0.013170 0.024309
v -0.055038 -0.015273 0.026881
v -0.054331 -0.015297 0.031178
v -0.053902 -0.013376 0.029201
v -0.039430 -0.017376 0.024309
v -0.039734 -0.017376 0.028635
v -0.039822 -0.015273 0.021738
v -0.040625 -0.013170 0.024309
v -0.039822 -0.015273 0.026881
v -0.040529 -0.015297 0.031178
v -0.040958 -0.013376 0.029201
v -0.053046 -0.018661 0.035292
v -0.054235 -0.017376 0.032632
v -0.053046 -0.016091 0.035292
v -0.051636 -0.017376 0.037776
v -0.049533 -0.018676 0.039365
v -0.045327 -0.018676 0.039365
v -0.047430 -0.017376 0.040140
v -0.049533 -0.016076 0.039365
v -0.045327 -0.016076 0.039365
v -0.052936 -0.013973 0.033614
v -0.051430 -0.014904 0.037116
v -0.050833 -0.012674 0.035204
v -0.047430 -0.015190 0.039537
v -0.049509 -0.013905 0.037966
v -0.045351 -0.013905 0.037966
v -0.047430 -0.013170 0.037776
v -0.041814 -0.018661 0.035292
v -0.040625 -0.017376 0.032632
v -0.041814 -0.016091 0.035292
v -0.043224 -0.017376 0.037776
v -0.041924 -0.013973 0.033614
v -0.043430 -0.014904 0.037116
v -0.044027 -0.012674 0.035204
v -0.048715 -0.011826 0.013196
v -0.046145 -0.011826 0.013196
v -0.052132 -0.011870 0.017576
v -0.049902 -0.010904 0.016394
v -0.050901 -0.010475 0.020195
v -0.047430 -0.010571 0.015987
v -0.044958 -0.010904 0.016394
v -0.048730 -0.009768 0.020148
v -0.046130 -0.009768 0.020148
v -0.042728 -0.011870 0.017576
v -0.043959 -0.010475 0.020195
v -0.052980 -0.011760 0.021767
v -0.051636 -0.010571 0.024309
v -0.049616 -0.009680 0.024309
v -0.052980 -0.011760 0.026852
v -0.052132 -0.011870 0.031042
v -0.050901 -0.010475 0.028424
v -0.047430 -0.009376 0.024309
v -0.045244 -0.009680 0.024309
v -0.048730 -0.009768 0.028471
v -0.046130 -0.009768 0.028471
v -0.041880 -0.011760 0.021767
v -0.043224 -0.010571 0.024309
v -0.041880 -0.011760 0.026852
v -0.042728 -0.011870 0.031042
v -0.043959 -0.010475 0.028424
v -0.049902 -0.010904 0.032225
v -0.048715 -0.011826 0.035423
v -0.047430 -0.010571 0.032632
v -0.044958 -0.010904 0.032225
v -0.046145 -0.011826 0.035423
v -0.047430 0.013170 0.010843
v -0.048715 0.011826 0.013196
v -0.049509 0.013905 0.010653
v -0.050833 0.012674 0.013415
v -0.046145 0.011826 0.013196
v -0.045351 0.013905 0.010653
v -0.052132 0.011870 0.017576
v -0.049902 0.010904 0.016394
v -0.050901 0.010475 0.020195
v -0.052936 0.013973 0.015005
v -0.053902 0.013376 0.019418
v -0.047430 0.010571 0.015987
v -0.044958 0.010904 0.016394
v -0.048730 0.009768 0.020148
v -0.046130 0.009768 0.020148
v -0.044027 0.012674 0.013415
v -0.042728 0.011870 0.017576
v -0.043959 0.010475 0.020195
v -0.041924 0.013973 0.015005
v -0.040958 0.013376 0.019418
v -0.049616 0.009680 0.024309
v -0.047430 0.009376 0.024309
v -0.045244 0.009680 0.024309
v -0.048730 0.009768 0.028471
v -0.046130 0.009768 0.028471
v -0.050901 0.010475 0.028424
v -0.052980 0.011760 0.021767
v -0.051636 0.010571 0.024309
v -0.054235 0.013170 0.024309
v -0.052980 0.011760 0.026852
v -0.052132 0.011870 0.031042
v -0.053902 0.013376 0.029201
v -0.043959 0.010475 0.028424
v -0.041880 0.011760 0.021767
v -0.043224 0.010571 0.024309
v -0.040625 0.013170 0.024309
v -0.041880 0.011760 0.026852
v -0.042728 0.011870 0.031042
v -0.040958 0.013376 0.029201
v -0.047430 0.010571 0.032632
v -0.049902 0.010904 0.032225
v -0.052936 0.013973 0.033614
v -0.050833 0.012674 0.035204
v -0.044958 0.010904 0.032225
v -0.048715 0.011826 0.035423
v -0.046145 0.011826 0.035423
v -0.049509 0.013905 0.037966
v -0.047430 0.013170 0.037776
v -0.045351 0.013905 0.037966
v -0.041924 0.013973 0.033614
v -0.044027 0.012674 0.035204
v -0.051430 0.014904 0.011502
v -0.051636 0.017376 0.010843
v -0.049533 0.016076 0.009254
v -0.053046 0.016091 0.013327
v -0.047430 0.015190 0.009082
v -0.045327 0.016076 0.009254
v -0.047430 0.017376 0.008479
v -0.054331 0.015297 0.017441
v -0.054235 0.017376 0.015987
v -0.055126 0.017376 0.019984
v -0.053046 0.018661 0.013327
v -0.051430 0.019848 0.011502
v -0.049533 0.018676 0.009254
v -0.045327 0.018676 0.009254
v -0.049509 0.020847 0.010653
v -0.047430 0.019562 0.009082
v -0.045351 0.020847 0.010653
v -0.054331 0.019455 0.017441
v -0.052936 0.020779 0.015005
v -0.043430 0.014904 0.011502
v -0.043224 0.017376 0.010843
v -0.041814 0.016091 0.013327
v -0.040529 0.015297 0.017441
v -0.040625 0.017376 0.015987
v -0.039734 0.017376 0.019984
v -0.041814 0.018661 0.013327
v -0.043430 0.019848 0.011502
v -0.041924 0.020779 0.015005
v -0.040529 0.019455 0.017441
v -0.047430 0.021582 0.010843
v -0.050833 0.022078 0.013415
v -0.048715 0.022926 0.013196
v -0.046145 0.022926 0.013196
v -0.053902 0.021376 0.019418
v -0.052132 0.022882 0.017576
v -0.049902 0.023848 0.016394
v -0.047430 0.024181 0.015987
v -0.050901 0.024277 0.020195
v -0.044958 0.023848 0.016394
v -0.048730 0.024984 0.020148
v -0.046130 0.024984 0.020148
v -0.044027 0.022078 0.013415
v -0.042728 0.022882 0.017576
v -0.040958 0.021376 0.019418
v -0.043959 0.024277 0.020195
v -0.055038 0.015273 0.021738
v -0.055430 0.017376 0.024309
v -0.055038 0.015273 0.026881
v -0.054331 0.015297 0.031178
v -0.055126 0.017376 0.028635
v -0.055038 0.019479 0.021738
v -0.055038 0.019479 0.026881
v -0.054331 0.019455 0.031178
v -0.053902 0.021376 0.029201
v -0.039822 0.015273 0.021738
v -0.039430 0.017376 0.024309
v -0.039822 0.015273 0.026881
v -0.040529 0.015297 0.031178
v -0.039734 0.017376 0.028635
v -0.039822 0.019479 0.021738
v -0.039822 0.019479 0.026881
v -0.040529 0.019455 0.031178
v -0.040958 0.021376 0.029201
v -0.054235 0.017376 0.032632
v -0.053046 0.016091 0.035292
v -0.051430 0.014904 0.037116
v -0.051636 0.017376 0.037776
v -0.049533 0.016076 0.039365
v -0.047430 0.015190 0.039537
v -0.045327 0.016076 0.039365
v -0.047430 0.017376 0.040140
v -0.053046 0.018661 0.035292
v -0.052936 0.020779 0.033614
v -0.051430 0.019848 0.037116
v -0.049533 0.018676 0.039365
v -0.045327 0.018676 0.039365
v -0.049509 0.020847 0.037966
v -0.047430 0.019562 0.039537
v -0.045351 0.020847 0.037966
v -0.041814 0.016091 0.035292
v -0.040625 0.017376 0.032632
v -0.043430 0.014904 0.037116
v -0.043224 0.017376 0.037776
v -0.041814 0.018661 0.035292
v -0.041924 0.020779 0.033614
v -0.043430 0.019848 0.037116
v -0.054235 0.021582 0.024309
v -0.052980 0.022992 0.021767
v -0.052980 0.022992 0.026852
v -0.051636 0.024181 0.024309
v -0.052132 0.022882 0.031042
v -0.050901 0.024277 0.028424
v -0.049616 0.025072 0.024309
v -0.047430 0.025376 0.024309
v -0.045244 0.025072 0.024309
v -0.048730 0.024984 0.028471
v -0.046130 0.024984 0.028471
v -0.041880 0.022992 0.021767
v -0.040625 0.021582 0.024309
v -0.041880 0.022992 0.026852
v -0.043224 0.024181 0.024309
v -0.042728 0.022882 0.031042
v -0.043959 0.024277 0.028424
v -0.050833 0.022078 0.035204
v -0.049902 0.023848 0.032225
v -0.048715 0.022926 0.035423
v -0.046145 0.022926 0.035423
v -0.047430 0.024181 0.032632
v -0.047430 0.021582 0.037776
v -0.044958 0.023848 0.032225
v -0.044027 0.022078 0.035204
v 0.010304 -0.020779 -0.040097
v 0.011108 -0.022882 -0.037525
v 0.009338 -0.021376 -0.035684
v 0.008909 -0.019455 -0.037661
v 0.013338 -0.023848 -0.038707
v 0.014525 -0.022926 -0.041906
v 0.015810 -0.024181 -0.039114
v 0.012339 -0.024277 -0.034906
v 0.014510 -0.024984 -0.034953
v 0.017095 -0.022926 -0.041906
v 0.018282 -0.023848 -0.038707
v 0.017110 -0.024984 -0.034953
v 0.019281 -0.024277 -0.034906
v 0.020512 -0.022882 -0.037525
v 0.012407 -0.022078 -0.041686
v 0.013731 -0.020847 -0.044448
v 0.015810 -0.019562 -0.046020
v 0.015810 -0.021582 -0.044258
v 0.011810 -0.019848 -0.043599
v 0.017889 -0.020847 -0.044448
v 0.019213 -0.022078 -0.041686
v 0.019810 -0.019848 -0.043599
v 0.021316 -0.020779 -0.040097
v 0.010260 -0.022992 -0.033335
v 0.009005 -0.021582 -0.030792
v 0.010260 -0.022992 -0.028249
v 0.008202 -0.019479 -0.033364
v 0.008202 -0.019479 -0.028220
v 0.009338 -0.021376 -0.025900
v 0.011108 -0.022882 -0.024059
v 0.013624 -0.025072 -0.030792
v 0.011604 -0.024181 -0.030792
v 0.015810 -0.025376 -0.030792
v 0.017996 -0.025072 -0.030792
v 0.020016 -0.024181 -0.030792
v 0.012339 -0.024277 -0.026678
v 0.014510 -0.024984 -0.026631
v 0.013338 -0.023848 -0.022877
v 0.017110 -0.024984 -0.026631
v 0.019281 -0.024277 -0.026678
v 0.015810 -0.024181 -0.022469
v 0.018282 -0.023848 -0.022877
v 0.010194 -0.018661 -0.041775
v 0.010194 -0.016091 -0.041775
v 0.011604 -0.017376 -0.044258
v 0.009005 -0.017376 -0.039114
v 0.008114 -0.017376 -0.035118
v 0.008909 -0.015297 -0.037661
v 0.010304 -0.013973 -0.040097
v 0.009338 -0.013376 -0.035684
v 0.013707 -0.018676 -0.045847
v 0.015810 -0.017376 -0.046622
v 0.013707 -0.016076 -0.045847
v 0.017913 -0.018676 -0.045847
v 0.020016 -0.017376 -0.044258
v 0.017913 -0.016076 -0.045847
v 0.011810 -0.014904 -0.043599
v 0.015810 -0.015190 -0.046020
v 0.013731 -0.013905 -0.044448
v 0.015810 -0.013170 -0.044258
v 0.012407 -0.012674 -0.041686
v 0.019810 -0.014904 -0.043599
v 0.017889 -0.013905 -0.044448
v 0.019213 -0.012674 -0.041686
v 0.021316 -0.013973 -0.040097
v 0.007810 -0.017376 -0.030792
v 0.008909 -0.019455 -0.023923
v 0.008114 -0.017376 -0.026466
v 0.008202 -0.015273 -0.033364
v 0.008202 -0.015273 -0.028220
v 0.009005 -0.013170 -0.030792
v 0.008909 -0.015297 -0.023923
v 0.009338 -0.013376 -0.025900
v 0.010304 -0.020779 -0.021487
v 0.014525 -0.022926 -0.019678
v 0.020512 -0.022882 -0.024059
v 0.017095 -0.022926 -0.019678
v 0.012407 -0.022078 -0.019898
v 0.011810 -0.019848 -0.017985
v 0.019213 -0.022078 -0.019898
v 0.021316 -0.020779 -0.021487
v 0.019810 -0.019848 -0.017985
v 0.013731 -0.020847 -0.017136
v 0.015810 -0.021582 -0.017326
v 0.015810 -0.019562 -0.015564
v 0.017889 -0.020847 -0.017136
v 0.010194 -0.018661 -0.019809
v 0.009005 -0.017376 -0.022469
v 0.010194 -0.016091 -0.019809
v 0.011604 -0.017376 -0.017326
v 0.010304 -0.013973 -0.021487
v 0.013707 -0.018676 -0.015736
v 0.015810 -0.017376 -0.014962
v 0.013707 -0.016076 -0.015736
v 0.017913 -0.018676 -0.015736
v 0.020016 -0.017376 -0.017326
v 0.017913 -0.016076 -0.015736
v 0.011810 -0.014904 -0.017985
v 0.012407 -0.012674 -0.019898
v 0.019810 -0.014904 -0.017985
v 0.021316 -0.013973 -0.021487
v 0.019213 -0.012674 -0.019898
v 0.015810 -0.015190 -0.015564
v 0.013731 -0.013905 -0.017136
v 0.015810 -0.013170 -0.017326
v 0.017889 -0.013905 -0.017136
v 0.011108 -0.011870 -0.037525
v 0.014525 -0.011826 -0.041906
v 0.017095 -0.011826 -0.041906
v 0.013338 -0.010904 -0.038707
v 0.015810 -0.010571 -0.039114
v 0.012339 -0.010475 -0.034906
v 0.014510 -0.009768 -0.034953
v 0.018282 -0.010904 -0.038707
v 0.020512 -0.011870 -0.037525
v 0.017110 -0.009768 -0.034953
v 0.019281 -0.010475 -0.034906
v 0.010260 -0.011760 -0.033335
v 0.010260 -0.011760 -0.028249
v 0.011108 -0.011870 -0.024059
v 0.011604 -0.010571 -0.030792
v 0.013624 -0.009680 -0.030792
v 0.017996 -0.009680 -0.030792
v 0.020016 -0.010571 -0.030792
v 0.012339 -0.010475 -0.026678
v 0.013338 -0.010904 -0.022877
v 0.014510 -0.009768 -0.026631
v 0.019281 -0.010475 -0.026678
v 0.017110 -0.009768 -0.026631
v 0.018282 -0.010904 -0.022877
v 0.015810 -0.009376 -0.030792
v 0.015810 -0.010571 -0.022469
v 0.014525 -0.011826 -0.019678
v 0.020512 -0.011870 -0.024059
v 0.017095 -0.011826 -0.019678
v 0.022282 -0.021376 -0.035684
v 0.022711 -0.019455 -0.037661
v 0.021360 -0.022992 -0.033335
v 0.021360 -0.022992 -0.028249
v 0.022615 -0.021582 -0.030792
v 0.023418 -0.019479 -0.033364
v 0.023418 -0.019479 -0.028220
v 0.022282 -0.021376 -0.025900
v 0.021426 -0.018661 -0.041775
v 0.021426 -0.016091 -0.041775
v 0.022615 -0.017376 -0.039114
v 0.023506 -0.017376 -0.035118
v 0.022711 -0.015297 -0.037661
v 0.022282 -0.013376 -0.035684
v 0.023810 -0.017376 -0.030792
v 0.022711 -0.019455 -0.023923
v 0.023506 -0.017376 -0.026466
v 0.023418 -0.015273 -0.033364
v 0.023418 -0.015273 -0.028220
v 0.022615 -0.013170 -0.030792
v 0.022711 -0.015297 -0.023923
v 0.022282 -0.013376 -0.025900
v 0.021426 -0.018661 -0.019809
v 0.022615 -0.017376 -0.022469
v 0.021426 -0.016091 -0.019809
v 0.021360 -0.011760 -0.033335
v 0.021360 -0.011760 -0.028249
v 0.011108 0.011870 -0.037525
v 0.009338 0.013376 -0.035684
v 0.010304 0.013973 -0.040097
v 0.015810 0.010571 -0.039114
v 0.017110 0.009768 -0.034953
v 0.014510 0.009768 -0.034953
v 0.012407 0.012674 -0.041686
v 0.013731 0.013905 -0.044448
v 0.014525 0.011826 -0.041906
v 0.015810 0.013170 -0.044258
v 0.017095 0.011826 -0.041906
v 0.017889 0.013905 -0.044448
v 0.019213 0.012674 -0.041686
v 0.013338 0.010904 -0.038707
v 0.012339 0.010475 -0.034906
v 0.018282 0.010904 -0.038707
v 0.019281 0.010475 -0.034906
v 0.020512 0.011870 -0.037525
v 0.010260 0.011760 -0.033335
v 0.009005 0.013170 -0.030792
v 0.010260 0.011760 -0.028249
v 0.009338 0.013376 -0.025900
v 0.011108 0.011870 -0.024059
v 0.013624 0.009680 -0.030792
v 0.015810 0.009376 -0.030792
v 0.017996 0.009680 -0.030792
v 0.014510 0.009768 -0.026631
v 0.012339 0.010475 -0.026678
v 0.017110 0.009768 -0.026631
v 0.019281 0.010475 -0.026678
v 0.015810 0.010571 -0.022469
v 0.011604 0.010571 -0.030792
v 0.020016 0.010571 -0.030792
v 0.013338 0.010904 -0.022877
v 0.018282 0.010904 -0.022877
v 0.010304 0.013973 -0.021487
v 0.014525 0.011826 -0.019678
v 0.012407 0.012674 -0.019898
v 0.020512 0.011870 -0.024059
v 0.017095 0.011826 -0.019678
v 0.019213 0.012674 -0.019898
v 0.013731 0.013905 -0.017136
v 0.015810 0.013170 -0.017326
v 0.017889 0.013905 -0.017136
v 0.008909 0.015297 -0.037661
v 0.010194 0.016091 -0.041775
v 0.009005 0.017376 -0.039114
v 0.008114 0.017376 -0.035118
v 0.010194 0.018661 -0.041775
v 0.011604 0.017376 -0.044258
v 0.008909 0.019455 -0.037661
v 0.010304 0.020779 -0.040097
v 0.015810 0.015190 -0.046020
v 0.013707 0.016076 -0.045847
v 0.011810 0.014904 -0.043599
v 0.015810 0.017376 -0.046622
v 0.017913 0.016076 -0.045847
v 0.019810 0.014904 -0.043599
v 0.021316 0.013973 -0.040097
v 0.020016 0.017376 -0.044258
v 0.013707 0.018676 -0.045847
v 0.011810 0.019848 -0.043599
v 0.015810 0.019562 -0.046020
v 0.013731 0.020847 -0.044448
v 0.017913 0.018676 -0.045847
v 0.017889 0.020847 -0.044448
v 0.019810 0.019848 -0.043599
v 0.008202 0.015273 -0.033364
v 0.008202 0.015273 -0.028220
v 0.007810 0.017376 -0.030792
v 0.008909 0.015297 -0.023923
v 0.008114 0.017376 -0.026466
v 0.008202 0.019479 -0.033364
v 0.009338 0.021376 -0.035684
v 0.008202 0.019479 -0.028220
v 0.008909 0.019455 -0.023923
v 0.009338 0.021376 -0.025900
v 0.011108 0.022882 -0.037525
v 0.015810 0.021582 -0.044258
v 0.012407 0.022078 -0.041686
v 0.014525 0.022926 -0.041906
v 0.017095 0.022926 -0.041906
v 0.019213 0.022078 -0.041686
v 0.021316 0.020779 -0.040097
v 0.013338 0.023848 -0.038707
v 0.015810 0.024181 -0.039114
v 0.018282 0.023848 -0.038707
v 0.020512 0.022882 -0.037525
v 0.012339 0.024277 -0.034906
v 0.014510 0.024984 -0.034953
v 0.017110 0.024984 -0.034953
v 0.019281 0.024277 -0.034906
v 0.009005 0.021582 -0.030792
v 0.010260 0.022992 -0.033335
v 0.010260 0.022992 -0.028249
v 0.011108 0.022882 -0.024059
v 0.011604 0.024181 -0.030792
v 0.012339 0.024277 -0.026678
v 0.013624 0.025072 -0.030792
v 0.015810 0.025376 -0.030792
v 0.017996 0.025072 -0.030792
v 0.020016 0.024181 -0.030792
v 0.014510 0.024984 -0.026631
v 0.013338 0.023848 -0.022877
v 0.017110 0.024984 -0.026631
v 0.019281 0.024277 -0.026678
v 0.015810 0.024181 -0.022469
v 0.018282 0.023848 -0.022877
v 0.009005 0.017376 -0.022469
v 0.010194 0.016091 -0.019809
v 0.010194 0.018661 -0.019809
v 0.010304 0.020779 -0.021487
v 0.011604 0.017376 -0.017326
v 0.011810 0.014904 -0.017985
v 0.021316 0.013973 -0.021487
v 0.019810 0.014904 -0.017985
v 0.013707 0.016076 -0.015736
v 0.015810 0.015190 -0.015564
v 0.015810 0.017376 -0.014962
v 0.017913 0.016076 -0.015736
v 0.020016 0.017376 -0.017326
v 0.011810 0.019848 -0.017985
v 0.013707 0.018676 -0.015736
v 0.013731 0.020847 -0.017136
v 0.015810 0.019562 -0.015564
v 0.017913 0.018676 -0.015736
v 0.019810 0.019848 -0.017985
v 0.017889 0.020847 -0.017136
v 0.012407 0.022078 -0.019898
v 0.014525 0.022926 -0.019678
v 0.021316 0.020779 -0.021487
v 0.019213 0.022078 -0.019898
v 0.020512 0.022882 -0.024059
v 0.017095 0.022926 -0.019678
v 0.015810 0.021582 -0.017326
v 0.022282 0.013376 -0.035684
v 0.021360 0.011760 -0.033335
v 0.021360 0.011760 -0.028249
v 0.022615 0.013170 -0.030792
v 0.022282 0.013376 -0.025900
v 0.021426 0.016091 -0.041775
v 0.022711 0.015297 -0.037661
v 0.022615 0.017376 -0.039114
v 0.023506 0.017376 -0.035118
v 0.021426 0.018661 -0.041775
v 0.022711 0.019455 -0.037661
v 0.023418 0.015273 -0.033364
v 0.023418 0.015273 -0.028220
v 0.023810 0.017376 -0.030792
v 0.022711 0.015297 -0.023923
v 0.023506 0.017376 -0.026466
v 0.023418 0.019479 -0.033364
v 0.022282 0.021376 -0.035684
v 0.023418 0.019479 -0.028220
v 0.022711 0.019455 -0.023923
v 0.022282 0.021376 -0.025900
v 0.022615 0.021582 -0.030792
v 0.021360 0.022992 -0.033335
v 0.021360 0.022992 -0.028249
v 0.021426 0.016091 -0.019809
v 0.022615 0.017376 -0.022469
v 0.021426 0.018661 -0.019809
v 0.075469 -0.005600 0.017677
v 0.075469 0.005600 0.017677
v 0.079469 -0.002513 0.009285
v 0.079469 -0.005600 0.017677
v 0.079469 0.005600 0.017677
v 0.079469 -0.001041 0.016317
v 0.079469 0.000000 0.016727
v 0.079469 0.001041 0.016317
v 0.079469 0.002513 0.009285
v 0.081069 -0.002513 0.009285
v 0.081069 -0.001041 0.016317
v 0.081069 0.000000 0.016727
v 0.081069 0.002513 0.009285
v 0.081069 0.001041 0.016317
f 1 2 3
f 1 4 2
f 1 5 4
f 1 3 6
f 6 3 7
f 6 7 8
f 6 8 9
f 6 9 10
f 6 10 11
f 6 11 12
f 13 14 15
f 13 16 17
f 13 17 14
f 18 19 16
f 18 20 19
f 13 18 16
f 1 21 5
f 22 23 24
f 6 12 25
f 12 26 25
f 26 27 25
f 27 28 25
f 28 29 25
f 29 30 25
f 31 32 30
f 5 21 33
f 34 33 21
f 34 21 35
f 1 36 37
f 1 37 21
f 35 23 38
f 39 38 23
f 40 23 22
f 40 39 23
f 35 21 23
f 30 32 25
f 1 6 41
f 1 42 43
f 1 43 36
f 6 25 44
f 15 45 46
f 47 46 45
f 47 24 46
f 13 15 46
f 48 20 32
f 48 32 49
f 49 32 31
f 18 32 20
f 24 23 46
f 13 46 50
f 13 50 51
f 18 52 32
f 13 51 53
f 18 54 52
f 18 55 54
f 13 56 18
f 1 41 42
f 6 57 41
f 6 58 59
f 6 60 57
f 6 59 61
f 6 61 60
f 6 44 58
f 43 42 62
f 42 63 62
f 42 64 63
f 65 66 67
f 65 68 66
f 42 65 64
f 65 69 70
f 65 70 71
f 65 72 69
f 65 71 68
f 68 73 66
f 73 74 66
f 75 66 74
f 42 72 65
f 58 44 76
f 76 44 77
f 78 77 44
f 78 44 79
f 80 79 44
f 55 81 82
f 13 53 56
f 18 83 55
f 18 56 83
f 75 84 66
f 56 53 85
f 56 85 84
f 80 44 81
f 83 81 55
f 75 86 84
f 86 87 84
f 87 88 84
f 88 89 84
f 56 84 89
f 80 81 90
f 81 91 90
f 83 91 81
f 42 92 93
f 42 94 92
f 42 93 72
f 42 95 94
f 42 96 95
f 42 41 96
f 41 97 96
f 41 57 97
f 56 89 98
f 83 98 99
f 83 99 100
f 83 100 101
f 83 101 91
f 56 98 83
f 102 37 36
f 103 102 36
f 103 36 43
f 102 104 37
f 37 104 21
f 103 43 105
f 105 62 106
f 105 43 62
f 106 63 107
f 106 62 63
f 107 63 64
f 107 64 108
f 108 64 65
f 108 65 109
f 109 67 110
f 109 65 67
f 111 112 113
f 113 114 115
f 113 116 117
f 113 117 114
f 113 118 116
f 113 119 118
f 111 113 120
f 111 120 121
f 113 115 122
f 113 122 123
f 120 113 123
f 123 122 124
f 123 124 125
f 120 126 127
f 120 105 121
f 120 127 102
f 120 102 103
f 120 103 105
f 102 127 104
f 123 125 128
f 123 128 129
f 120 123 126
f 123 129 130
f 123 130 131
f 123 131 132
f 123 133 126
f 123 134 133
f 123 135 134
f 112 136 113
f 113 136 119
f 136 137 119
f 136 138 137
f 136 139 138
f 111 121 112
f 112 121 132
f 112 132 136
f 136 140 139
f 136 141 140
f 136 142 141
f 136 132 142
f 105 106 121
f 121 106 107
f 121 107 108
f 121 108 109
f 121 109 143
f 109 110 143
f 121 143 144
f 132 131 145
f 132 146 147
f 132 145 148
f 132 148 146
f 123 132 135
f 132 149 135
f 132 144 149
f 132 150 142
f 132 147 150
f 121 144 132
f 151 117 116
f 152 116 118
f 151 116 152
f 152 118 153
f 154 124 122
f 155 154 122
f 156 125 124
f 154 156 124
f 157 115 114
f 158 114 117
f 158 157 114
f 151 158 117
f 155 122 115
f 155 115 157
f 158 159 157
f 155 157 159
f 155 159 154
f 151 159 158
f 151 152 159
f 152 153 159
f 154 159 156
f 156 159 160
f 160 128 125
f 161 129 128
f 156 160 125
f 160 161 128
f 160 159 161
f 161 159 162
f 162 159 163
f 163 159 164
f 162 130 129
f 161 162 129
f 163 131 130
f 164 145 131
f 162 163 130
f 163 164 131
f 153 118 119
f 165 119 137
f 153 119 165
f 165 137 166
f 153 165 159
f 165 166 159
f 166 167 159
f 166 137 138
f 167 138 139
f 166 138 167
f 167 139 168
f 168 139 140
f 167 168 159
f 168 169 159
f 159 169 170
f 168 140 169
f 159 171 164
f 159 172 171
f 159 173 172
f 159 170 174
f 159 174 175
f 174 142 150
f 175 150 147
f 159 175 173
f 175 174 150
f 175 147 173
f 169 140 141
f 169 141 170
f 170 141 142
f 170 142 174
f 171 148 145
f 172 146 148
f 164 171 145
f 171 172 148
f 173 147 146
f 172 173 146
f 176 177 178
f 179 180 181
f 179 182 180
f 182 183 180
f 182 184 185
f 182 185 183
f 183 185 186
f 185 187 186
f 187 188 186
f 189 190 184
f 189 191 192
f 189 192 190
f 193 184 190
f 193 190 194
f 193 194 195
f 179 191 189
f 176 191 179
f 182 189 184
f 179 189 182
f 176 179 181
f 176 178 191
f 185 184 193
f 185 193 187
f 187 193 195
f 178 177 196
f 178 196 197
f 196 198 197
f 197 198 199
f 192 191 200
f 192 201 190
f 192 202 201
f 192 200 202
f 202 200 203
f 202 204 201
f 190 201 194
f 194 201 205
f 194 206 195
f 194 205 206
f 201 204 205
f 205 207 206
f 191 178 200
f 178 197 200
f 197 203 200
f 202 203 208
f 202 208 204
f 208 209 204
f 205 204 210
f 204 209 210
f 205 210 207
f 197 199 203
f 208 203 211
f 199 211 203
f 208 212 209
f 208 211 212
f 199 213 211
f 210 214 207
f 210 209 215
f 209 212 215
f 210 215 214
f 187 195 216
f 187 216 188
f 195 217 216
f 216 217 218
f 195 206 217
f 217 206 219
f 217 219 220
f 217 220 218
f 207 219 206
f 220 219 221
f 207 222 219
f 207 214 222
f 219 222 221
f 214 223 222
f 211 213 224
f 211 224 212
f 212 224 225
f 212 225 215
f 215 225 226
f 214 215 226
f 214 226 223
f 227 228 181
f 227 229 230
f 176 181 228
f 176 228 177
f 228 231 177
f 177 231 232
f 227 230 228
f 228 230 231
f 229 233 230
f 230 233 234
f 231 234 235
f 230 234 231
f 183 236 180
f 180 236 237
f 237 236 238
f 180 237 181
f 227 181 237
f 183 239 236
f 183 186 239
f 186 240 239
f 236 239 241
f 239 240 242
f 186 188 240
f 227 237 243
f 237 238 243
f 236 241 238
f 243 238 244
f 229 243 244
f 238 241 245
f 227 243 229
f 239 242 241
f 240 246 242
f 241 242 247
f 242 246 248
f 229 249 233
f 233 249 250
f 233 250 251
f 234 233 251
f 234 251 252
f 251 250 253
f 238 245 244
f 244 245 254
f 245 255 254
f 229 244 249
f 244 254 249
f 241 247 245
f 242 248 247
f 247 248 256
f 245 247 255
f 247 256 255
f 248 257 256
f 254 258 249
f 254 255 259
f 254 259 258
f 256 260 255
f 259 255 260
f 256 257 261
f 256 261 260
f 259 260 262
f 250 249 258
f 250 258 263
f 258 264 263
f 258 259 264
f 259 262 264
f 250 263 253
f 260 265 262
f 260 261 265
f 261 266 265
f 196 177 232
f 196 232 198
f 232 267 198
f 231 235 232
f 234 252 235
f 232 235 267
f 235 268 267
f 235 252 268
f 199 198 269
f 198 267 269
f 199 269 213
f 269 270 213
f 267 268 271
f 269 267 271
f 268 272 271
f 269 271 270
f 271 273 270
f 271 272 273
f 251 274 252
f 268 252 275
f 252 274 275
f 251 253 274
f 274 253 276
f 274 276 275
f 268 275 272
f 275 3 272
f 275 7 3
f 275 277 7
f 277 8 7
f 272 3 2
f 272 2 4
f 272 4 273
f 273 4 5
f 276 277 275
f 263 278 253
f 253 278 276
f 276 278 279
f 277 9 8
f 277 279 9
f 276 279 277
f 279 10 9
f 279 11 10
f 279 280 281
f 281 12 11
f 281 26 12
f 281 282 26
f 279 281 11
f 283 282 280
f 281 280 282
f 284 285 286
f 285 31 287
f 285 49 31
f 285 48 49
f 283 286 287
f 283 287 282
f 284 48 285
f 285 287 286
f 240 188 288
f 188 289 288
f 240 288 246
f 248 246 290
f 246 288 290
f 288 291 290
f 216 289 188
f 216 218 289
f 289 218 292
f 218 293 292
f 288 289 291
f 289 292 291
f 290 291 294
f 291 295 294
f 291 292 295
f 292 296 295
f 248 290 257
f 290 294 257
f 257 294 297
f 294 298 297
f 295 298 294
f 295 299 298
f 261 257 297
f 261 297 266
f 298 300 297
f 266 297 300
f 220 293 218
f 220 221 293
f 293 221 301
f 292 293 296
f 295 296 299
f 293 301 296
f 296 301 302
f 296 302 299
f 222 303 221
f 221 303 301
f 222 223 303
f 303 223 304
f 301 305 302
f 303 305 301
f 302 305 306
f 303 304 305
f 305 304 307
f 305 307 306
f 298 299 308
f 302 309 299
f 299 309 308
f 308 310 300
f 298 308 300
f 266 300 311
f 300 310 311
f 308 309 310
f 284 311 310
f 302 306 309
f 309 17 312
f 312 17 16
f 309 306 14
f 309 14 17
f 306 15 14
f 306 45 15
f 306 307 45
f 307 47 45
f 310 309 312
f 312 16 19
f 284 312 19
f 284 310 312
f 284 19 20
f 284 20 48
f 262 313 264
f 263 264 314
f 264 313 314
f 262 265 313
f 265 315 313
f 266 315 265
f 263 314 278
f 314 313 316
f 278 314 317
f 314 316 317
f 278 317 279
f 317 316 318
f 313 315 316
f 315 319 316
f 266 311 315
f 311 319 315
f 316 319 318
f 284 319 311
f 279 317 280
f 317 318 280
f 283 280 318
f 319 286 318
f 283 318 286
f 284 286 319
f 213 320 224
f 225 224 321
f 224 320 321
f 270 320 213
f 320 322 321
f 225 323 226
f 226 323 324
f 226 324 223
f 225 321 323
f 321 325 323
f 324 323 326
f 270 273 327
f 270 327 320
f 273 328 327
f 320 327 322
f 321 322 325
f 327 328 322
f 322 329 325
f 323 325 326
f 324 326 330
f 325 331 326
f 326 332 330
f 273 5 328
f 328 5 33
f 328 33 34
f 328 34 35
f 322 328 329
f 328 35 329
f 329 35 38
f 332 40 22
f 332 22 24
f 325 329 331
f 329 38 39
f 329 39 331
f 331 39 40
f 326 331 332
f 332 331 40
f 282 27 26
f 282 28 27
f 282 29 28
f 287 30 29
f 287 31 30
f 282 287 29
f 324 304 223
f 304 330 307
f 324 330 304
f 332 307 330
f 332 47 307
f 332 24 47
f 333 334 335
f 336 337 334
f 336 334 333
f 338 339 337
f 336 338 337
f 338 340 339
f 340 341 339
f 342 343 344
f 344 343 345
f 344 345 346
f 346 345 347
f 348 349 350
f 348 351 352
f 348 352 349
f 349 353 350
f 349 354 353
f 353 354 355
f 336 333 348
f 336 348 350
f 342 333 335
f 348 333 351
f 342 351 333
f 342 344 351
f 336 350 338
f 338 350 353
f 338 353 340
f 353 355 340
f 351 356 352
f 349 352 357
f 356 358 359
f 352 359 357
f 352 356 359
f 357 359 360
f 349 357 354
f 355 354 361
f 354 357 362
f 357 360 362
f 354 362 361
f 362 363 361
f 344 356 351
f 344 346 356
f 346 358 356
f 346 347 364
f 359 358 365
f 359 365 360
f 365 366 360
f 360 367 362
f 362 367 363
f 360 366 367
f 346 364 358
f 365 358 368
f 364 368 358
f 365 369 366
f 365 368 369
f 364 370 368
f 367 366 371
f 367 372 363
f 367 371 372
f 368 370 373
f 368 373 369
f 369 373 374
f 366 369 371
f 369 374 371
f 371 374 375
f 371 375 372
f 372 375 376
f 340 377 341
f 340 355 377
f 355 378 377
f 377 378 379
f 355 361 378
f 378 380 379
f 378 361 381
f 363 381 361
f 378 381 380
f 381 382 380
f 363 383 381
f 381 383 382
f 363 372 383
f 372 376 383
f 384 385 386
f 335 334 386
f 337 384 334
f 384 386 334
f 387 335 386
f 337 388 384
f 384 388 389
f 388 390 391
f 337 339 388
f 388 339 390
f 339 341 390
f 386 385 392
f 384 389 385
f 385 393 392
f 385 389 394
f 387 386 392
f 387 392 395
f 395 392 393
f 388 391 389
f 390 396 391
f 389 391 397
f 391 396 398
f 385 394 393
f 394 71 393
f 394 68 71
f 393 70 69
f 395 393 72
f 393 69 72
f 393 71 70
f 389 397 394
f 394 397 73
f 394 73 68
f 397 74 73
f 391 398 397
f 397 398 74
f 398 75 74
f 398 86 75
f 399 59 58
f 399 58 76
f 399 76 77
f 400 77 78
f 400 78 79
f 399 77 400
f 390 341 401
f 390 401 396
f 396 401 402
f 398 396 402
f 398 402 87
f 398 87 86
f 342 335 403
f 387 403 335
f 342 403 343
f 403 404 343
f 387 405 403
f 387 395 405
f 395 406 405
f 403 405 404
f 405 407 404
f 405 406 407
f 345 343 408
f 343 404 408
f 345 408 347
f 404 407 409
f 404 409 408
f 407 410 409
f 408 409 411
f 409 410 412
f 395 72 93
f 395 93 406
f 406 93 92
f 406 92 94
f 407 406 413
f 406 94 413
f 413 94 95
f 414 95 96
f 413 95 414
f 413 414 415
f 407 413 410
f 413 416 410
f 410 416 417
f 413 415 416
f 415 418 416
f 416 418 417
f 419 60 61
f 419 61 59
f 399 419 59
f 419 420 60
f 399 421 419
f 399 422 421
f 414 96 97
f 414 97 420
f 420 97 57
f 420 57 60
f 419 421 420
f 414 420 415
f 400 79 423
f 423 79 80
f 423 80 90
f 399 400 422
f 400 424 422
f 400 423 424
f 423 90 425
f 423 425 424
f 415 420 426
f 415 426 418
f 418 426 427
f 408 411 347
f 347 411 428
f 364 347 428
f 364 428 370
f 409 412 411
f 411 412 429
f 428 411 429
f 428 429 430
f 412 431 429
f 429 431 432
f 428 430 370
f 429 432 430
f 370 433 373
f 430 433 370
f 374 373 434
f 373 433 434
f 433 435 434
f 375 436 376
f 374 437 375
f 374 434 437
f 375 437 436
f 434 438 437
f 437 439 436
f 430 432 440
f 430 440 433
f 433 440 435
f 434 435 438
f 440 441 435
f 432 441 440
f 435 442 438
f 437 438 439
f 436 439 443
f 438 444 439
f 439 445 443
f 410 417 412
f 412 417 431
f 417 446 431
f 431 446 447
f 418 446 417
f 432 431 447
f 418 427 446
f 446 448 447
f 446 427 448
f 427 449 448
f 448 449 450
f 451 450 449
f 451 452 453
f 454 455 452
f 453 452 455
f 432 447 441
f 447 456 441
f 441 456 442
f 435 441 442
f 442 456 457
f 445 458 459
f 438 442 444
f 444 458 445
f 439 444 445
f 444 457 458
f 442 457 444
f 447 448 456
f 456 450 457
f 456 448 450
f 458 457 453
f 450 453 457
f 458 455 459
f 458 453 455
f 451 453 450
f 377 460 341
f 341 460 401
f 377 379 460
f 460 379 461
f 401 460 462
f 401 462 402
f 402 462 463
f 460 461 462
f 462 461 464
f 462 464 463
f 380 465 379
f 379 465 461
f 380 382 465
f 461 466 464
f 461 465 466
f 464 466 467
f 465 468 466
f 466 469 467
f 402 88 87
f 402 463 88
f 463 89 88
f 463 98 89
f 464 470 463
f 471 100 99
f 470 471 99
f 463 470 98
f 470 99 98
f 471 101 100
f 425 101 471
f 470 472 471
f 425 90 91
f 425 91 101
f 425 471 472
f 464 467 470
f 470 467 473
f 467 474 473
f 470 473 472
f 425 472 475
f 472 473 476
f 473 474 476
f 472 476 475
f 454 475 476
f 465 382 468
f 382 477 468
f 383 477 382
f 383 376 477
f 466 468 469
f 468 478 469
f 477 479 478
f 477 478 468
f 478 480 481
f 469 478 481
f 477 376 479
f 436 479 376
f 478 479 480
f 479 443 480
f 436 443 479
f 445 480 443
f 467 469 474
f 469 481 474
f 474 481 482
f 481 459 482
f 476 474 482
f 454 476 482
f 455 482 459
f 454 482 455
f 480 459 481
f 445 459 480
f 422 483 421
f 420 421 484
f 421 483 484
f 422 424 483
f 483 424 485
f 425 485 424
f 420 484 426
f 483 486 484
f 426 487 427
f 426 484 487
f 484 486 487
f 486 488 487
f 483 485 486
f 425 475 485
f 485 489 486
f 486 489 488
f 475 489 485
f 454 489 475
f 427 487 449
f 487 488 449
f 451 449 488
f 488 489 452
f 454 452 489
f 451 488 452
f 490 491 492
f 490 493 494
f 494 495 496
f 490 494 497
f 494 496 498
f 499 493 500
f 501 495 493
f 499 502 501
f 501 502 503
f 499 501 493
f 499 500 504
f 501 503 495
f 500 492 505
f 490 492 500
f 500 505 504
f 505 506 507
f 492 506 505
f 490 500 493
f 494 493 495
f 496 508 509
f 495 503 510
f 503 511 510
f 495 510 496
f 510 512 508
f 496 510 508
f 510 511 512
f 508 512 513
f 512 514 513
f 504 515 516
f 504 517 515
f 515 517 518
f 499 516 502
f 503 502 519
f 516 520 502
f 502 520 519
f 499 504 516
f 515 521 516
f 516 521 520
f 520 522 519
f 505 507 517
f 517 507 523
f 505 517 504
f 517 523 518
f 507 524 523
f 515 525 521
f 515 518 525
f 520 521 526
f 520 526 522
f 521 527 526
f 526 528 522
f 526 527 529
f 526 529 528
f 525 527 521
f 525 530 527
f 523 531 518
f 518 531 532
f 523 524 531
f 525 518 532
f 525 532 530
f 531 533 532
f 503 519 511
f 519 534 511
f 511 534 535
f 519 522 534
f 534 536 535
f 512 511 535
f 512 535 514
f 535 536 537
f 535 537 514
f 514 537 538
f 534 522 539
f 534 539 536
f 522 528 539
f 528 540 539
f 536 541 542
f 539 541 536
f 539 540 541
f 537 536 542
f 537 542 538
f 541 543 542
f 491 544 545
f 491 545 546
f 490 497 491
f 494 498 497
f 491 497 544
f 497 547 544
f 497 498 547
f 498 548 547
f 545 544 549
f 545 549 550
f 547 551 544
f 547 548 552
f 549 544 551
f 547 552 551
f 492 491 546
f 492 546 506
f 546 553 506
f 506 553 554
f 546 550 553
f 545 550 546
f 550 555 553
f 549 556 550
f 550 556 555
f 553 557 554
f 553 555 557
f 496 509 498
f 498 509 548
f 509 558 548
f 509 559 558
f 548 558 560
f 558 561 560
f 552 548 560
f 508 559 509
f 508 513 559
f 559 513 562
f 513 563 562
f 558 559 561
f 559 562 561
f 560 561 564
f 561 565 564
f 561 562 565
f 562 563 566
f 562 566 565
f 549 567 556
f 549 551 567
f 551 568 567
f 551 552 568
f 552 569 568
f 567 568 570
f 568 569 571
f 567 572 556
f 556 572 573
f 555 573 574
f 555 556 573
f 567 570 572
f 568 571 570
f 573 572 575
f 572 570 576
f 570 571 577
f 570 577 576
f 572 576 575
f 571 578 577
f 576 577 579
f 577 578 579
f 552 560 569
f 560 564 569
f 569 564 580
f 571 569 580
f 564 581 580
f 565 581 564
f 565 582 581
f 571 580 578
f 580 583 578
f 581 583 580
f 507 506 554
f 507 554 524
f 554 584 524
f 554 557 584
f 555 574 557
f 557 574 585
f 557 585 584
f 531 524 586
f 524 584 586
f 531 586 533
f 586 587 533
f 584 588 586
f 584 585 588
f 585 589 588
f 586 588 587
f 588 589 590
f 588 590 587
f 514 563 513
f 514 538 563
f 563 538 591
f 563 591 566
f 565 566 582
f 566 592 582
f 566 591 592
f 542 593 538
f 538 593 591
f 542 543 593
f 593 543 594
f 591 593 595
f 591 595 592
f 592 595 596
f 593 594 595
f 595 597 596
f 595 594 597
f 573 598 574
f 574 598 599
f 585 574 599
f 599 598 600
f 573 575 598
f 575 601 598
f 575 602 601
f 598 601 600
f 576 602 575
f 576 579 602
f 578 603 579
f 602 579 604
f 579 603 604
f 601 602 605
f 602 604 605
f 604 603 606
f 585 599 589
f 599 600 589
f 589 600 607
f 589 607 590
f 601 608 600
f 601 605 608
f 607 600 608
f 607 608 609
f 604 610 605
f 604 606 610
f 608 611 609
f 608 605 611
f 605 610 611
f 610 606 612
f 610 613 611
f 610 612 613
f 581 582 614
f 615 616 614
f 582 615 614
f 592 615 582
f 581 614 583
f 583 614 617
f 578 583 603
f 583 617 603
f 614 616 617
f 603 617 606
f 618 616 596
f 592 596 615
f 615 596 616
f 618 596 597
f 617 616 619
f 617 619 606
f 619 620 612
f 618 619 616
f 618 620 619
f 606 619 612
f 527 621 529
f 527 530 621
f 528 529 622
f 529 621 622
f 532 623 530
f 532 533 623
f 530 623 624
f 623 625 624
f 530 624 621
f 621 624 626
f 621 626 622
f 622 626 627
f 624 628 626
f 626 629 627
f 528 622 540
f 622 627 540
f 541 540 630
f 540 627 630
f 541 630 543
f 630 627 631
f 623 533 632
f 533 587 632
f 623 632 625
f 632 633 625
f 625 633 634
f 624 625 628
f 632 587 635
f 587 590 635
f 590 636 635
f 632 635 633
f 635 637 633
f 633 637 634
f 635 636 637
f 626 628 629
f 625 634 628
f 628 634 638
f 628 638 629
f 629 638 639
f 634 640 638
f 638 641 639
f 637 640 634
f 638 640 641
f 630 642 543
f 627 629 631
f 630 631 642
f 631 639 643
f 642 631 643
f 642 594 543
f 642 644 594
f 644 645 597
f 643 639 646
f 642 643 644
f 644 643 646
f 644 646 645
f 644 597 594
f 629 639 631
f 641 646 639
f 607 636 590
f 607 609 636
f 636 609 647
f 637 636 647
f 647 609 648
f 637 647 640
f 640 647 649
f 641 649 650
f 647 648 649
f 649 648 651
f 649 651 650
f 611 648 609
f 611 613 648
f 612 651 613
f 648 613 651
f 640 649 641
f 618 597 645
f 645 650 620
f 651 620 650
f 618 645 620
f 646 650 645
f 641 650 646
f 612 620 651
f 652 653 654
f 655 654 653
f 652 656 653
f 652 657 656
f 658 659 660
f 655 658 661
f 655 659 658
f 658 662 661
f 659 653 663
f 663 653 656
f 663 656 664
f 659 663 665
f 663 664 666
f 655 653 659
f 656 657 667
f 664 668 669
f 656 667 664
f 667 670 668
f 664 667 668
f 668 670 671
f 663 666 665
f 665 672 660
f 665 673 672
f 665 666 673
f 666 674 673
f 672 673 675
f 673 674 676
f 672 675 677
f 673 676 675
f 658 660 678
f 672 679 660
f 660 679 678
f 658 678 662
f 662 678 680
f 659 665 660
f 672 677 679
f 678 679 681
f 679 677 681
f 677 682 681
f 678 681 680
f 680 681 683
f 683 681 682
f 666 669 674
f 676 674 684
f 664 669 666
f 668 685 669
f 674 669 686
f 669 685 686
f 668 671 685
f 685 671 687
f 674 686 684
f 685 688 686
f 686 688 684
f 684 688 689
f 685 687 688
f 688 690 689
f 688 687 690
f 675 676 691
f 677 692 682
f 683 682 693
f 682 692 694
f 682 694 693
f 675 692 677
f 675 691 692
f 676 695 691
f 692 691 696
f 691 697 696
f 691 695 697
f 692 696 694
f 694 696 698
f 696 699 698
f 696 697 699
f 697 700 699
f 676 684 695
f 684 689 695
f 690 701 689
f 695 689 702
f 697 695 702
f 689 701 702
f 697 702 700
f 703 704 705
f 703 706 704
f 654 705 707
f 652 654 707
f 652 707 657
f 707 708 657
f 655 703 654
f 703 705 654
f 705 709 707
f 707 709 708
f 655 661 703
f 703 661 706
f 662 710 661
f 661 710 706
f 706 710 711
f 710 712 711
f 706 713 704
f 704 714 715
f 704 713 714
f 705 704 715
f 705 715 709
f 709 716 708
f 715 717 718
f 709 715 718
f 709 718 716
f 718 719 716
f 714 717 715
f 706 711 713
f 711 712 720
f 711 720 713
f 713 720 721
f 714 713 721
f 667 657 722
f 657 708 722
f 722 708 723
f 722 723 724
f 667 722 670
f 722 724 670
f 670 724 725
f 671 670 725
f 724 726 725
f 725 726 727
f 708 716 723
f 724 723 728
f 723 716 729
f 716 719 729
f 723 729 728
f 724 728 726
f 729 730 728
f 728 730 731
f 726 731 727
f 728 731 726
f 718 717 732
f 718 732 719
f 714 733 717
f 717 734 732
f 732 735 719
f 717 733 734
f 732 734 735
f 714 721 733
f 720 736 721
f 721 736 737
f 721 737 733
f 733 737 738
f 733 738 734
f 734 739 735
f 737 740 738
f 734 738 739
f 735 739 741
f 738 742 739
f 739 743 741
f 729 719 744
f 735 744 719
f 729 744 730
f 730 745 746
f 735 741 744
f 730 744 745
f 744 741 745
f 731 730 746
f 745 741 747
f 662 748 710
f 662 680 748
f 710 748 712
f 748 749 712
f 680 750 748
f 680 683 750
f 683 751 750
f 748 750 749
f 750 752 749
f 750 751 752
f 712 749 753
f 720 712 753
f 720 753 736
f 749 752 754
f 753 749 754
f 752 755 754
f 754 755 756
f 671 725 757
f 671 757 687
f 725 727 757
f 757 727 758
f 687 757 759
f 687 759 690
f 690 759 760
f 757 758 759
f 759 758 761
f 759 761 760
f 727 762 758
f 731 762 727
f 731 746 762
f 758 763 761
f 762 763 758
f 761 763 764
f 763 765 764
f 683 693 751
f 752 751 766
f 693 767 751
f 751 767 766
f 694 768 693
f 693 768 767
f 768 769 767
f 768 770 769
f 694 698 768
f 768 698 770
f 698 771 770
f 699 771 698
f 699 700 771
f 771 700 772
f 770 771 773
f 771 772 773
f 752 766 755
f 767 774 766
f 766 774 755
f 755 774 775
f 767 769 774
f 769 776 774
f 774 776 775
f 769 777 776
f 770 777 769
f 770 773 777
f 773 772 778
f 776 777 779
f 777 780 779
f 773 780 777
f 773 778 780
f 780 778 781
f 701 760 782
f 690 760 701
f 761 783 760
f 760 783 782
f 702 784 700
f 702 701 784
f 701 782 784
f 784 772 700
f 784 782 785
f 784 785 772
f 782 783 786
f 764 787 786
f 761 764 783
f 783 764 786
f 782 786 785
f 772 785 778
f 785 786 788
f 786 787 788
f 785 788 778
f 788 781 778
f 753 789 736
f 737 736 790
f 737 790 740
f 736 789 790
f 753 754 789
f 754 756 789
f 790 789 791
f 790 791 792
f 789 756 791
f 756 793 791
f 791 793 794
f 790 792 740
f 740 792 795
f 738 740 742
f 739 742 743
f 740 795 742
f 742 795 796
f 742 796 743
f 743 796 797
f 791 794 792
f 792 794 795
f 795 798 796
f 799 797 796
f 794 798 795
f 798 799 796
f 745 800 746
f 745 747 800
f 762 746 801
f 800 801 746
f 800 802 801
f 800 803 802
f 802 804 765
f 802 805 804
f 762 801 763
f 763 801 765
f 802 765 801
f 741 743 747
f 743 797 747
f 747 797 803
f 800 747 803
f 797 805 803
f 802 803 805
f 799 805 797
f 755 775 756
f 756 775 793
f 775 806 793
f 793 806 807
f 806 808 807
f 808 809 810
f 776 806 775
f 776 779 806
f 779 811 808
f 811 781 809
f 780 811 779
f 780 781 811
f 806 779 808
f 811 809 808
f 794 793 807
f 794 807 798
f 798 807 810
f 798 810 799
f 799 810 812
f 808 810 807
f 809 812 810
f 765 804 787
f 804 812 813
f 809 813 812
f 787 804 813
f 764 765 787
f 788 813 781
f 788 787 813
f 809 781 813
f 805 812 804
f 799 812 805
f 814 815 816
f 814 816 817
f 818 819 820
f 818 821 815
f 818 820 822
f 818 822 821
f 820 823 824
f 820 824 825
f 820 825 822
f 824 826 825
f 824 827 826
f 828 829 819
f 829 830 831
f 828 832 829
f 814 832 828
f 819 829 831
f 819 831 823
f 823 833 834
f 831 830 833
f 823 831 833
f 834 833 835
f 834 835 836
f 818 815 828
f 814 828 815
f 818 828 819
f 820 819 823
f 824 823 834
f 824 834 827
f 815 837 816
f 837 838 816
f 837 839 838
f 816 838 840
f 838 841 840
f 838 839 842
f 839 843 842
f 838 842 841
f 821 822 844
f 821 844 845
f 837 821 845
f 822 846 844
f 822 825 846
f 825 826 847
f 846 825 847
f 826 848 847
f 845 844 849
f 839 845 849
f 844 846 850
f 844 850 849
f 849 850 851
f 846 847 852
f 846 852 850
f 847 848 853
f 847 853 852
f 850 852 854
f 852 853 855
f 815 821 837
f 837 845 839
f 839 849 843
f 856 857 858
f 814 817 856
f 856 817 859
f 856 859 857
f 817 860 859
f 859 861 857
f 857 861 862
f 859 860 861
f 861 863 862
f 864 832 858
f 829 864 830
f 829 832 864
f 864 865 830
f 814 856 832
f 856 858 832
f 864 858 866
f 864 866 865
f 833 830 867
f 830 865 867
f 833 867 835
f 867 868 835
f 867 865 869
f 867 869 868
f 858 870 866
f 865 866 871
f 857 870 858
f 866 872 871
f 866 870 872
f 872 873 871
f 857 862 870
f 872 870 874
f 862 874 870
f 865 871 869
f 868 869 875
f 871 876 869
f 871 873 876
f 869 876 875
f 876 877 875
f 875 877 878
f 816 840 817
f 817 840 860
f 840 841 879
f 840 879 860
f 842 880 841
f 841 880 881
f 879 841 881
f 860 879 882
f 861 860 882
f 879 883 882
f 861 882 863
f 882 884 863
f 882 883 884
f 879 881 883
f 881 885 883
f 883 886 884
f 883 885 886
f 842 843 887
f 842 887 880
f 849 851 843
f 850 854 851
f 851 854 888
f 852 855 854
f 853 889 855
f 854 855 890
f 851 891 843
f 887 843 891
f 851 888 891
f 887 891 892
f 855 889 893
f 854 890 888
f 855 893 890
f 893 894 895
f 891 888 896
f 891 896 892
f 888 897 896
f 896 897 898
f 888 890 897
f 890 893 899
f 890 899 897
f 893 895 899
f 897 899 898
f 887 900 880
f 880 900 901
f 881 880 901
f 900 902 901
f 900 903 902
f 881 901 885
f 901 902 885
f 885 902 904
f 885 904 886
f 887 892 900
f 900 892 903
f 892 905 903
f 896 905 892
f 896 898 905
f 905 898 906
f 905 907 903
f 905 906 907
f 899 895 908
f 895 909 908
f 899 908 898
f 898 908 906
f 908 910 906
f 908 909 910
f 902 911 904
f 904 911 912
f 913 914 915
f 902 903 911
f 903 907 911
f 906 916 907
f 911 917 912
f 907 917 911
f 907 916 917
f 917 916 918
f 909 913 910
f 906 910 916
f 910 913 919
f 913 915 919
f 916 910 919
f 916 919 918
f 862 863 920
f 872 874 921
f 872 921 873
f 876 873 922
f 921 922 873
f 876 922 877
f 862 920 874
f 874 920 923
f 874 923 921
f 921 923 924
f 920 925 923
f 923 926 924
f 923 925 926
f 922 927 877
f 877 927 928
f 921 924 922
f 922 924 927
f 924 929 927
f 927 930 928
f 927 929 930
f 924 926 929
f 863 884 931
f 920 863 931
f 931 884 932
f 884 886 932
f 932 886 933
f 920 931 925
f 931 934 925
f 931 932 934
f 925 934 935
f 930 936 937
f 932 938 934
f 934 938 935
f 932 933 938
f 938 939 940
f 937 936 941
f 941 942 943
f 925 935 926
f 926 935 944
f 926 944 929
f 930 929 936
f 929 944 936
f 935 940 944
f 938 940 935
f 944 942 936
f 944 940 942
f 941 936 942
f 940 945 942
f 904 933 886
f 933 912 939
f 904 912 933
f 912 946 939
f 938 933 939
f 940 939 945
f 946 945 939
f 915 947 943
f 948 915 943
f 942 945 943
f 941 943 947
f 948 943 945
f 946 948 945
f 917 946 912
f 917 918 946
f 919 948 918
f 946 918 948
f 919 915 948
f 834 836 827
f 827 836 949
f 836 950 949
f 826 951 848
f 848 952 853
f 826 827 951
f 827 949 951
f 951 949 953
f 848 951 952
f 951 953 952
f 949 954 953
f 953 954 955
f 953 956 952
f 853 952 889
f 952 956 889
f 953 955 956
f 835 957 836
f 835 868 957
f 868 958 957
f 836 957 950
f 957 959 950
f 957 958 959
f 950 959 960
f 868 875 958
f 875 878 958
f 959 958 961
f 958 878 961
f 959 961 960
f 961 878 962
f 949 950 954
f 950 960 954
f 954 963 955
f 954 960 963
f 956 955 964
f 955 965 964
f 963 965 955
f 961 966 960
f 960 966 963
f 963 966 967
f 961 962 966
f 966 962 968
f 966 968 967
f 963 967 965
f 965 967 969
f 967 968 970
f 967 970 969
f 893 889 894
f 956 894 889
f 956 964 894
f 894 964 971
f 895 894 971
f 964 972 971
f 965 972 964
f 971 972 973
f 895 971 909
f 909 971 973
f 965 969 972
f 972 969 973
f 969 914 973
f 969 970 914
f 913 973 914
f 909 973 913
f 877 928 878
f 878 928 962
f 962 974 968
f 928 974 962
f 974 975 968
f 930 974 928
f 930 937 974
f 937 975 974
f 968 975 970
f 975 947 970
f 937 941 975
f 941 947 975
f 914 970 947
f 915 914 947
f 976 977 978
f 979 980 981
f 982 983 984
f 984 983 985
f 984 985 986
f 985 987 986
f 986 987 988
f 984 979 989
f 989 990 976
f 989 979 981
f 989 981 990
f 982 989 976
f 982 976 978
f 982 984 989
f 984 986 979
f 986 991 979
f 979 991 980
f 991 992 980
f 991 993 992
f 986 988 991
f 988 993 991
f 976 994 977
f 994 995 977
f 994 996 995
f 995 996 997
f 996 998 997
f 981 999 990
f 981 1000 999
f 981 980 1000
f 980 992 1001
f 980 1001 1000
f 999 1000 1002
f 999 1002 1003
f 1000 1001 1004
f 1000 1004 1002
f 1001 1005 1004
f 1002 1004 1006
f 976 990 994
f 999 1007 990
f 994 990 1007
f 994 1007 996
f 1001 992 1008
f 999 1003 1007
f 996 1007 1003
f 996 1003 998
f 1002 1009 1003
f 1001 1008 1005
f 1004 1005 1010
f 997 998 1011
f 1003 1009 998
f 1002 1006 1009
f 1009 1006 1012
f 1009 1013 998
f 998 1013 1011
f 1009 1012 1013
f 1004 1010 1006
f 1005 1014 1010
f 1006 1010 1015
f 1012 1006 1015
f 1010 1014 1016
f 1010 1016 1015
f 1013 1012 1017
f 1012 1018 1017
f 1012 1015 1018
f 1015 1019 1018
f 1015 1016 1019
f 977 1020 978
f 1021 978 1020
f 1021 1020 1022
f 1020 1023 1022
f 1021 1024 1025
f 1021 1022 1024
f 1022 1023 1026
f 1024 1022 1026
f 1024 1026 1027
f 985 983 1028
f 983 1029 1028
f 983 1030 1029
f 982 1030 983
f 982 978 1030
f 1021 1030 978
f 1030 1025 1029
f 1029 1031 1028
f 1021 1025 1030
f 985 1028 987
f 987 1028 1032
f 987 1032 1033
f 988 987 1033
f 988 1033 1034
f 1028 1031 1032
f 1033 1032 1035
f 1029 1025 1036
f 1029 1036 1031
f 1025 1037 1036
f 1036 1038 1031
f 1036 1039 1038
f 1036 1037 1039
f 1024 1037 1025
f 1024 1027 1037
f 1032 1031 1040
f 1032 1040 1035
f 1031 1038 1040
f 1038 1041 1040
f 1035 1040 1042
f 1040 1041 1042
f 977 995 1043
f 977 1043 1020
f 995 1044 1043
f 1043 1045 1023
f 1020 1043 1023
f 1043 1044 1045
f 995 997 1044
f 997 1046 1044
f 1044 1047 1045
f 1044 1046 1047
f 1023 1045 1048
f 1026 1023 1048
f 1026 1048 1049
f 1045 1050 1048
f 1045 1047 1050
f 1047 1051 1050
f 1050 1051 1052
f 1026 1049 1027
f 1027 1049 1053
f 1038 1039 1054
f 1037 1055 1039
f 1037 1027 1055
f 1039 1056 1054
f 1039 1055 1056
f 1038 1054 1041
f 1054 1057 1041
f 1042 1041 1058
f 1042 1058 1059
f 1056 1057 1054
f 1041 1057 1058
f 1027 1053 1055
f 1055 1053 1060
f 1055 1060 1056
f 1056 1061 1057
f 1057 1062 1058
f 1058 1062 1063
f 1056 1060 1061
f 1053 1064 1060
f 1060 1065 1061
f 1060 1064 1065
f 1057 1061 1062
f 1061 1066 1062
f 1061 1065 1066
f 1062 1067 1063
f 1062 1066 1067
f 1048 1068 1049
f 1048 1050 1068
f 1053 1049 1069
f 1049 1068 1069
f 1068 1070 1069
f 1050 1052 1068
f 1068 1052 1070
f 1052 1071 1070
f 1053 1069 1064
f 1069 1070 1072
f 1070 1071 1073
f 1064 1074 1065
f 1069 1072 1064
f 1064 1072 1074
f 1065 1074 1075
f 1065 1075 1066
f 1066 1076 1067
f 1066 1075 1076
f 1067 1076 1077
f 1070 1073 1072
f 1072 1073 1074
f 1074 1078 1075
f 1074 1073 1078
f 1073 1079 1078
f 1076 1075 1080
f 1075 1078 1080
f 1077 1076 1081
f 1076 1080 1081
f 1078 1082 1080
f 1080 1083 1081
f 997 1011 1046
f 1047 1046 1084
f 1011 1085 1046
f 1046 1085 1084
f 1047 1084 1051
f 1085 1086 1084
f 1084 1086 1051
f 1051 1086 1087
f 1085 1088 1086
f 1013 1089 1011
f 1011 1089 1085
f 1016 1090 1091
f 1013 1017 1089
f 1089 1017 1092
f 1018 1093 1017
f 1017 1093 1092
f 1085 1089 1088
f 1089 1092 1088
f 1092 1093 1094
f 1016 1091 1019
f 1019 1091 1095
f 1018 1019 1093
f 1019 1095 1093
f 1091 1096 1095
f 1093 1095 1094
f 1086 1097 1087
f 1092 1098 1088
f 1092 1094 1098
f 1086 1088 1097
f 1088 1098 1097
f 1097 1098 1099
f 1098 1094 1100
f 1098 1100 1099
f 1095 1101 1094
f 1095 1096 1101
f 1096 1102 1101
f 1102 1103 1101
f 1094 1101 1100
f 1100 1101 1103
f 1052 1051 1087
f 1052 1087 1071
f 1097 1104 1087
f 1071 1104 1079
f 1087 1104 1071
f 1104 1105 1079
f 1102 1106 1107
f 1107 1108 1083
f 1105 1109 1082
f 1109 1107 1083
f 1097 1099 1104
f 1105 1099 1110
f 1100 1110 1099
f 1104 1099 1105
f 1109 1110 1103
f 1102 1107 1103
f 1100 1103 1110
f 1105 1110 1109
f 1109 1103 1107
f 1073 1071 1079
f 1078 1079 1082
f 1105 1082 1079
f 1080 1082 1083
f 1081 1083 1108
f 1109 1083 1082
f 988 1034 993
f 993 1034 1111
f 992 993 1112
f 992 1112 1008
f 1008 1112 1113
f 993 1111 1112
f 1112 1111 1114
f 1112 1114 1113
f 1008 1113 1005
f 1005 1113 1014
f 1114 1115 1113
f 1113 1115 1014
f 1115 1090 1014
f 1016 1014 1090
f 1033 1116 1034
f 1033 1035 1116
f 1111 1034 1117
f 1116 1117 1034
f 1116 1118 1117
f 1117 1118 1119
f 1035 1120 1116
f 1035 1042 1120
f 1042 1059 1120
f 1116 1120 1118
f 1118 1121 1119
f 1120 1121 1118
f 1120 1059 1121
f 1111 1122 1114
f 1111 1117 1122
f 1114 1122 1123
f 1117 1119 1122
f 1122 1119 1124
f 1122 1124 1123
f 1114 1123 1115
f 1115 1123 1125
f 1123 1124 1126
f 1123 1126 1125
f 1119 1127 1124
f 1121 1127 1119
f 1121 1128 1127
f 1124 1127 1129
f 1124 1129 1126
f 1126 1129 1130
f 1129 1131 1130
f 1121 1059 1128
f 1059 1063 1128
f 1058 1063 1059
f 1127 1128 1132
f 1127 1132 1129
f 1063 1133 1128
f 1128 1133 1132
f 1067 1133 1063
f 1132 1133 1134
f 1077 1134 1133
f 1129 1132 1131
f 1132 1134 1131
f 1131 1134 1108
f 1081 1108 1134
f 1067 1077 1133
f 1077 1081 1134
f 1115 1125 1090
f 1091 1090 1135
f 1126 1136 1125
f 1090 1125 1135
f 1125 1136 1135
f 1091 1135 1096
f 1126 1130 1136
f 1135 1136 1137
f 1136 1130 1137
f 1130 1106 1137
f 1102 1137 1106
f 1096 1135 1137
f 1096 1137 1102
f 1131 1106 1130
f 1131 1108 1106
f 1107 1106 1108
f 127 23 21
f 127 21 104
f 1138 1139 25
f 127 126 23
f 126 46 23
f 133 46 126
f 1140 46 133
f 1140 50 46
f 1138 25 32
f 1138 32 1141
f 1141 32 52
f 1138 1141 1142
f 1141 52 1143
f 1141 1143 1144
f 1139 44 25
f 143 110 67
f 143 67 66
f 1141 1144 1142
f 1145 82 81
f 1138 1142 1139
f 1144 1145 1142
f 1146 149 144
f 1146 144 85
f 84 85 144
f 144 143 84
f 143 66 84
f 1145 81 1142
f 1139 1142 44
f 1142 81 44
f 1140 1147 50
f 1147 51 50
f 1140 133 134
f 1140 134 1147
f 1147 134 51
f 134 135 51
f 1143 52 54
f 1148 54 55
f 1143 54 1148
f 1143 1148 1144
f 1148 1149 1144
f 1150 51 135
f 1150 53 51
f 1146 1150 149
f 1150 135 149
f 1146 85 53
f 1146 53 1150
f 1151 55 82
f 1144 1149 1145
f 1148 55 1149
f 1149 1151 1145
f 1145 1151 82
f 1149 55 1151
