# sionna2 mesh — mini5pro__battery.obj
# group=battery  verts=24  tris=44
v -0.042766 -0.022977 -0.014916
v -0.042766 -0.022977 -0.004679
v -0.042766 0.022977 -0.004679
v 0.026211 -0.022977 -0.014916
v -0.042766 0.022977 -0.014916
v -0.042766 0.022977 0.017255
v -0.042766 -0.022977 0.000000
v -0.042766 -0.022977 0.017255
v 0.026211 -0.022977 0.000000
v -0.042766 0.022977 0.000000
v 0.026211 0.022977 -0.004679
v 0.026211 0.022977 0.017255
v 0.026211 -0.022977 -0.004679
v 0.026211 0.022977 -0.014916
v 0.026211 -0.022977 0.017255
v 0.026211 0.022977 0.000000
v -0.042766 -0.025201 -0.004679
v -0.042766 -0.025201 0.000000
v 0.037248 -0.025201 -0.004679
v -0.042766 0.025201 -0.004679
v -0.042766 0.025201 0.000000
v 0.037248 0.025201 0.000000
v 0.037248 -0.025201 0.000000
v 0.037248 0.025201 -0.004679
f 1 2 3
f 1 4 2
f 1 5 4
f 6 2 7
f 8 6 7
f 8 7 9
f 1 3 5
f 10 3 2
f 5 3 11
f 6 10 2
f 8 12 6
f 6 12 10
f 4 13 2
f 4 14 13
f 8 9 15
f 8 15 12
f 15 9 16
f 5 14 4
f 5 11 14
f 14 11 13
f 12 16 10
f 15 16 12
f 17 7 2
f 17 18 7
f 17 2 13
f 17 19 18
f 18 9 7
f 20 3 21
f 21 3 10
f 20 11 3
f 20 21 22
f 21 10 22
f 17 13 19
f 18 23 9
f 18 19 23
f 19 13 24
f 19 24 23
f 23 16 9
f 20 24 11
f 22 10 16
f 20 22 24
f 24 13 11
f 23 24 22
f 23 22 16
