# sionna2 mesh — mini5pro__accent.obj
# group=accent  verts=68  tris=128
v 0.052393 0.088038 -0.007251
v 0.052393 0.091034 0.002143
v 0.052393 0.091034 -0.008025
v 0.052393 0.094031 -0.007251
v 0.052393 0.085498 -0.005047
v 0.052393 0.096571 -0.005047
v 0.052393 0.083800 -0.001748
v 0.052393 0.098268 -0.001748
v 0.052393 0.083204 0.002143
v 0.052393 0.098864 0.002143
v 0.068893 0.085498 -0.005047
v 0.068893 0.088038 -0.007251
v 0.068893 0.091034 -0.008025
v 0.068893 0.094031 -0.007251
v 0.068893 0.096571 -0.005047
v 0.068893 0.083800 -0.001748
v 0.068893 0.098268 -0.001748
v 0.068893 0.083204 0.002143
v 0.052393 0.083800 0.006034
v 0.052393 0.098268 0.006034
v 0.052393 0.085498 0.009332
v 0.052393 0.096571 0.009332
v 0.052393 0.088038 0.011536
v 0.052393 0.094031 0.011536
v 0.052393 0.091034 0.012310
v 0.068893 0.098864 0.002143
v 0.068893 0.083800 0.006034
v 0.068893 0.098268 0.006034
v 0.068893 0.085498 0.009332
v 0.068893 0.088038 0.011536
v 0.068893 0.096571 0.009332
v 0.068893 0.091034 0.012310
v 0.068893 0.094031 0.011536
v 0.068893 0.091034 0.002143
v 0.052393 -0.094031 -0.007251
v 0.052393 -0.091034 0.002143
v 0.052393 -0.091034 -0.008025
v 0.052393 -0.088038 -0.007251
v 0.052393 -0.096571 -0.005047
v 0.052393 -0.085498 -0.005047
v 0.052393 -0.098268 -0.001748
v 0.052393 -0.083800 -0.001748
v 0.052393 -0.098864 0.002143
v 0.052393 -0.083204 0.002143
v 0.068893 -0.094031 -0.007251
v 0.068893 -0.091034 -0.008025
v 0.068893 -0.096571 -0.005047
v 0.068893 -0.088038 -0.007251
v 0.068893 -0.085498 -0.005047
v 0.068893 -0.098268 -0.001748
v 0.068893 -0.083800 -0.001748
v 0.068893 -0.098864 0.002143
v 0.052393 -0.098268 0.006034
v 0.052393 -0.083800 0.006034
v 0.052393 -0.096571 0.009332
v 0.052393 -0.085498 0.009332
v 0.052393 -0.094031 0.011536
v 0.052393 -0.088038 0.011536
v 0.052393 -0.091034 0.012310
v 0.068893 -0.083204 0.002143
v 0.068893 -0.098268 0.006034
v 0.068893 -0.083800 0.006034
v 0.068893 -0.096571 0.009332
v 0.068893 -0.094031 0.011536
v 0.068893 -0.091034 0.012310
v 0.068893 -0.088038 0.011536
v 0.068893 -0.085498 0.009332
v 0.068893 -0.091034 0.002143
f 1 2 3
f 3 2 4
f 5 2 1
f 4 2 6
f 7 2 5
f 6 2 8
f 9 2 7
f 8 2 10
f 5 1 11
f 1 3 12
f 3 4 13
f 4 6 14
f 6 8 15
f 7 5 16
f 8 10 17
f 9 7 18
f 19 2 9
f 10 2 20
f 21 2 19
f 20 2 22
f 23 2 21
f 22 2 24
f 25 2 23
f 24 2 25
f 10 20 26
f 19 9 27
f 20 22 28
f 21 19 29
f 23 21 30
f 22 24 31
f 25 23 32
f 24 25 33
f 12 3 13
f 13 4 14
f 11 1 12
f 14 6 15
f 16 5 11
f 18 7 16
f 15 8 17
f 17 10 26
f 12 13 34
f 13 14 34
f 11 12 34
f 14 15 34
f 16 11 34
f 15 17 34
f 18 16 34
f 17 26 34
f 27 9 18
f 29 19 27
f 26 20 28
f 28 22 31
f 30 21 29
f 31 24 33
f 32 23 30
f 33 25 32
f 27 18 34
f 26 28 34
f 29 27 34
f 28 31 34
f 30 29 34
f 31 33 34
f 32 30 34
f 33 32 34
f 35 36 37
f 37 36 38
f 39 36 35
f 38 36 40
f 41 36 39
f 40 36 42
f 43 36 41
f 42 36 44
f 35 37 45
f 37 38 46
f 39 35 47
f 38 40 48
f 40 42 49
f 41 39 50
f 42 44 51
f 43 41 52
f 53 36 43
f 44 36 54
f 55 36 53
f 54 36 56
f 57 36 55
f 56 36 58
f 59 36 57
f 58 36 59
f 44 54 60
f 53 43 61
f 54 56 62
f 55 53 63
f 57 55 64
f 59 57 65
f 58 59 66
f 56 58 67
f 45 37 46
f 46 38 48
f 47 35 45
f 48 40 49
f 50 39 47
f 52 41 50
f 49 42 51
f 51 44 60
f 45 46 68
f 46 48 68
f 47 45 68
f 48 49 68
f 50 47 68
f 49 51 68
f 52 50 68
f 51 60 68
f 61 43 52
f 63 53 61
f 60 54 62
f 62 56 67
f 64 55 63
f 67 58 66
f 65 57 64
f 66 59 65
f 61 52 68
f 60 62 68
f 63 61 68
f 62 67 68
f 64 63 68
f 67 66 68
f 65 64 68
f 66 65 68
