v -0.141680 -0.168354 -0.001425
v -0.135479 -0.173270 -0.002581
v -0.132488 -0.175754 -0.000739
v -0.118193 -0.151492 -0.000732
v -0.114921 -0.150206 -0.000477
v -0.097154 -0.113390 -0.000925
v -0.085935 -0.097672 -0.002124
v -0.070020 -0.092626 -0.004153
v -0.079208 -0.108966 -0.001494
v -0.068974 -0.045822 -0.026548
v -0.095359 -0.026543 -0.036764
v -0.101306 -0.012836 -0.034812
v -0.095327 -0.010500 -0.038984
v -0.088014 -0.022435 -0.037770
v -0.083583 -0.029372 -0.036433
v -0.086479 -0.012693 -0.039146
v -0.088152 -0.004195 -0.039163
v -0.074419 -0.000841 -0.040363
v -0.080884 -0.023948 -0.038299
v -0.101317 -0.039031 -0.019314
v -0.095474 -0.041621 -0.023962
v -0.099948 -0.035565 -0.029496
v -0.087960 -0.035471 -0.032344
v -0.072940 -0.036371 -0.034602
v -0.073944 -0.041089 -0.030890
v -0.095594 -0.044162 -0.015663
v -0.095623 -0.044762 -0.011459
v -0.076367 -0.084301 -0.003550
v -0.095550 -0.045230 -0.004227
v -0.049510 -0.048843 -0.026909
v -0.046132 -0.047128 -0.029273
v -0.068715 -0.031646 -0.037700
v -0.054948 -0.036673 -0.036523
v -0.066821 -0.019345 -0.040146
v -0.065619 -0.009749 -0.040958
v -0.056593 -0.014163 -0.041185
v -0.058066 0.010378 -0.041243
v -0.040672 -0.025768 -0.040345
v -0.052753 -0.031790 -0.038365
v -0.055198 -0.025504 -0.040087
v -0.047246 -0.006984 -0.041576
v -0.035065 -0.013450 -0.041607
v -0.059787 -0.042220 -0.032080
v -0.030171 -0.046110 -0.032390
v -0.017566 -0.046426 -0.032097
v -0.009565 -0.052688 -0.024203
v -0.005926 -0.049271 -0.029948
v -0.037781 -0.022709 -0.040806
v -0.036986 -0.036861 -0.037363
v -0.034806 -0.030425 -0.039432
v -0.035274 0.001118 -0.041757
v -0.028085 -0.019262 -0.041354
v -0.018416 -0.000018 -0.041893
v -0.019324 -0.025670 -0.040633
v 0.007553 -0.018437 -0.042090
v -0.021905 -0.039194 -0.036634
v -0.009772 -0.033744 -0.039064
v -0.015279 -0.040000 -0.036361
v -0.007896 -0.005829 -0.042138
v -0.012312 -0.002332 -0.041959
v -0.004825 -0.013564 -0.041933
v -0.054589 -0.051195 -0.018735
v -0.038448 -0.053807 -0.013004
v -0.045015 -0.053180 -0.012197
v -0.057922 -0.076216 -0.007173
v -0.066015 -0.050761 -0.007394
v -0.068353 -0.069718 -0.002887
v -0.056994 -0.052165 -0.003051
v -0.058054 -0.052055 0.002390
v -0.051573 -0.069939 -0.008685
v -0.044685 -0.074094 -0.002948
v -0.046019 -0.053118 -0.011931
v -0.046103 -0.058893 -0.011056
v -0.058878 -0.063531 -0.008103
v -0.052753 -0.052512 -0.010015
v -0.051419 -0.052661 -0.010312
v -0.048223 -0.052886 -0.011519
v -0.055187 -0.052320 -0.006656
v -0.043995 -0.060575 -0.011056
v -0.031054 -0.054922 -0.010235
v -0.052190 -0.079945 -0.004974
v -0.020314 -0.054023 -0.020288
v -0.035243 -0.054058 -0.012719
v -0.005261 -0.054612 -0.019405
v -0.032382 -0.054459 -0.011526
v -0.031870 -0.054634 -0.011256
v -0.024618 -0.055117 -0.010725
v -0.028752 -0.056127 -0.005706
v -0.031419 -0.054660 -0.010572
v -0.012190 -0.055928 -0.009546
v -0.144363 -0.166622 0.003384
v -0.130667 -0.177494 0.002557
v -0.125883 -0.147567 0.000467
v -0.130359 -0.178191 0.008702
v -0.137100 -0.157503 0.004025
v -0.144777 -0.166508 0.006314
v -0.103204 -0.144330 0.004763
v -0.111695 -0.155213 0.005736
v -0.123711 -0.146728 -0.000200
v -0.095034 -0.133039 0.002710
v -0.122310 -0.140150 0.002634
v -0.133474 -0.151703 0.007370
v -0.139972 -0.160937 0.011951
v -0.143926 -0.167716 0.013523
v -0.131733 -0.177450 0.013582
v -0.133678 -0.176082 0.016145
v -0.140317 -0.170836 0.016902
v -0.135997 -0.174285 0.016793
v -0.134186 -0.175647 0.016746
v -0.129845 -0.155089 0.018787
v -0.129526 -0.150467 0.017178
v -0.102785 -0.144167 0.015362
v -0.112362 -0.153483 0.017317
v -0.127879 -0.145028 0.013828
v -0.124314 -0.158360 0.019293
v -0.117743 -0.136854 0.019697
v -0.108074 -0.140064 0.021179
v -0.106182 -0.142347 0.020355
v -0.116878 -0.142116 0.020755
v -0.116820 -0.129735 0.008399
v -0.096874 -0.132764 0.001043
v -0.091815 -0.131929 0.008423
v -0.101966 -0.144331 0.011316
v -0.086496 -0.125229 0.014447
v -0.092981 -0.127455 0.020655
v -0.108175 -0.132932 -0.000519
v -0.099551 -0.119741 -0.000833
v -0.104115 -0.120683 0.000094
v -0.107840 -0.123003 0.001262
v -0.100121 -0.109019 0.004936
v -0.097400 -0.126294 -0.000714
v -0.095420 -0.127625 -0.000235
v -0.098180 -0.109890 0.001292
v -0.092356 -0.097372 0.008923
v -0.080415 -0.114352 0.000962
v -0.071661 -0.107543 0.005154
v -0.088677 -0.095955 0.001359
v -0.069196 -0.102130 0.000301
v -0.113057 -0.125528 0.014980
v -0.102352 -0.118016 0.020778
v -0.080662 -0.115898 0.018023
v -0.100174 -0.108042 0.012555
v -0.115746 -0.130783 0.017714
v -0.098094 -0.107186 0.017191
v -0.070385 -0.106744 0.010307
v -0.076058 -0.106272 0.020643
v -0.087807 -0.102930 0.021516
v -0.082490 -0.086789 0.016025
v -0.086601 -0.097743 0.020546
v -0.109208 -0.132377 0.021449
v -0.100158 -0.131610 0.021491
v -0.101531 -0.122631 0.021834
v -0.093225 -0.119720 0.021946
v -0.093850 -0.112879 0.021909
v -0.083822 -0.110770 0.021696
v -0.084305 -0.104602 0.021674
v -0.095511 -0.045122 0.009096
v -0.085300 -0.088844 0.004775
v -0.095550 -0.044778 0.013684
v -0.085987 -0.089344 0.011449
v -0.076101 -0.087982 0.020622
v -0.087611 -0.044858 0.021552
v -0.101317 -0.039626 0.021011
v -0.095432 -0.044268 0.019407
v -0.068779 -0.045719 0.028024
v -0.095443 -0.042138 0.025569
v -0.101317 -0.024234 0.036472
v -0.095440 -0.040004 0.029396
v -0.095516 -0.035303 0.034613
v -0.101306 0.009107 0.038311
v -0.095487 -0.022743 0.040143
v -0.095611 -0.012865 0.041388
v -0.068862 -0.040453 0.034127
v -0.070540 -0.036201 0.036866
v -0.095629 -0.028268 0.038189
v -0.074239 -0.026775 0.040236
v -0.087824 -0.000232 0.041571
v -0.069553 -0.023820 0.041236
v -0.095656 -0.018802 0.040732
v -0.064030 -0.016385 0.042417
v -0.068608 -0.008663 0.042539
v -0.068090 -0.102792 0.003229
v -0.058910 -0.092322 0.011902
v -0.053136 -0.082876 0.015022
v -0.060895 -0.090216 0.018059
v -0.056331 -0.081235 0.018547
v -0.083276 -0.085565 0.006114
v -0.066348 -0.063057 0.004334
v -0.070449 -0.068870 0.008757
v -0.057372 -0.052097 0.007544
v -0.055097 -0.052162 0.011856
v -0.048489 -0.079840 0.000500
v -0.046994 -0.078904 0.006244
v -0.068869 -0.073128 0.017593
v -0.072814 -0.086485 0.020719
v -0.061063 -0.075405 0.019102
v -0.062169 -0.083425 0.019747
v -0.069280 -0.068380 0.012139
v -0.061038 -0.059954 0.013384
v -0.052517 -0.052269 0.013943
v -0.065182 -0.050634 0.013311
v -0.057418 -0.062447 0.016987
v -0.044476 -0.073328 0.011996
v -0.053569 -0.081657 0.016187
v -0.041825 -0.065090 0.015209
v -0.046072 -0.063486 0.016731
v -0.041361 -0.059284 0.015554
v -0.043377 -0.053156 0.015240
v -0.037432 -0.053820 0.014505
v -0.054845 -0.061003 0.017180
v -0.045543 -0.055910 0.015831
v -0.047670 -0.052691 0.015571
v -0.047651 -0.054227 0.015831
v -0.027671 -0.056065 0.001077
v -0.029493 -0.055119 -0.002649
v -0.028392 -0.055161 0.003482
v -0.038490 -0.067394 0.008976
v -0.028035 -0.055266 0.005201
v -0.020049 -0.054681 0.019475
v -0.011583 -0.056203 0.006261
v -0.031235 -0.054705 0.011009
v -0.033785 -0.054317 0.013248
v -0.010987 -0.055701 0.012996
v -0.004077 -0.054464 0.019580
v -0.046039 -0.049860 0.026541
v -0.052489 -0.051494 0.019872
v -0.046172 -0.044336 0.033775
v -0.059787 -0.035120 0.038275
v -0.051994 -0.004877 0.043023
v -0.028091 -0.044558 0.034239
v -0.028143 -0.040893 0.036673
v -0.053421 -0.031370 0.040248
v -0.027916 -0.035280 0.039243
v -0.044639 -0.026330 0.041540
v -0.051827 -0.014796 0.042779
v -0.045720 -0.020186 0.042363
v -0.032581 -0.017340 0.042607
v -0.030914 -0.004845 0.042903
v -0.024618 -0.050782 0.026988
v -0.011676 -0.050116 0.028601
v -0.000388 -0.046838 0.031549
v -0.018208 -0.037562 0.038263
v -0.021019 -0.028955 0.040717
v -0.021002 -0.024852 0.041442
v -0.024827 -0.018824 0.042249
v -0.013748 -0.017034 0.041937
v -0.004461 -0.014299 0.041425
v -0.014065 -0.007540 0.042175
v 0.002393 -0.004287 0.041058
v -0.101306 0.014225 -0.034682
v -0.095377 0.006886 -0.038950
v -0.098800 0.019224 -0.037118
v -0.099558 0.033035 -0.031958
v -0.082781 0.017314 -0.039159
v -0.073855 0.003795 -0.040377
v -0.071688 0.013029 -0.040380
v -0.071929 0.023642 -0.039212
v -0.087064 0.026885 -0.036925
v -0.084917 0.023870 -0.037764
v -0.076641 0.042634 -0.029759
v -0.073104 0.042659 -0.029639
v -0.095348 0.039810 -0.027951
v -0.086514 0.044438 -0.021341
v -0.095482 0.044628 -0.014721
v -0.086628 0.046797 -0.007923
v -0.087785 0.046519 0.001713
v -0.073529 0.049485 0.012419
v -0.076501 0.082354 -0.002442
v -0.126682 0.153515 -0.001027
v -0.140267 0.169458 -0.002479
v -0.133152 0.175187 -0.001778
v -0.079905 0.108609 -0.001876
v -0.051177 0.025495 -0.040213
v -0.062183 0.035190 -0.036621
v -0.052436 0.039919 -0.034855
v -0.052983 0.016978 -0.041188
v -0.044321 0.017483 -0.041369
v -0.025358 0.032345 -0.039219
v -0.045720 0.032166 -0.038566
v -0.033649 0.041327 -0.035217
v -0.061416 0.045006 -0.029311
v -0.040551 0.048363 -0.028098
v -0.042299 0.051781 -0.021761
v -0.037259 0.018238 -0.041388
v -0.017748 0.013755 -0.041727
v -0.015600 0.021972 -0.041168
v -0.018730 0.028968 -0.039996
v -0.028904 0.043715 -0.034130
v -0.011350 0.016054 -0.041737
v -0.012414 0.027354 -0.040606
v -0.019888 0.043232 -0.034452
v -0.008161 0.041506 -0.035967
v -0.028974 0.050444 -0.026789
v -0.013685 0.051591 -0.027092
v -0.060917 0.051337 -0.011648
v -0.059767 0.050198 -0.019053
v -0.048716 0.052372 -0.015567
v -0.037856 0.053825 -0.012905
v -0.055241 0.052318 -0.006532
v -0.055717 0.052307 -0.006215
v -0.064199 0.051202 0.002193
v -0.067665 0.093942 -0.003780
v -0.063340 0.092140 -0.003271
v -0.067910 0.072134 -0.004607
v -0.062833 0.069615 -0.007050
v -0.070649 0.085005 -0.005014
v -0.059675 0.090471 -0.001219
v -0.051353 0.054619 -0.010407
v -0.049916 0.052760 -0.010921
v -0.047504 0.052964 -0.011730
v -0.052762 0.052560 -0.009114
v -0.053696 0.052459 -0.008135
v -0.045155 0.053184 -0.012127
v -0.046668 0.064737 -0.009885
v -0.041166 0.065452 -0.008688
v -0.033990 0.054285 -0.012521
v -0.031478 0.054646 -0.010863
v -0.017584 0.053287 -0.021669
v -0.029597 0.055721 -0.007641
v -0.030037 0.055016 -0.005080
v -0.028043 0.055221 0.005035
v -0.027791 0.056340 -0.001634
v -0.024618 0.055383 -0.005154
v -0.007558 0.055646 -0.014670
v 0.004206 0.056085 -0.010937
v -0.102993 0.000000 0.001716
v -0.101312 0.040702 -0.010191
v -0.095537 0.045413 0.008153
v -0.076350 0.077254 0.002423
v -0.085712 0.088544 0.009569
v -0.095352 0.043982 0.021669
v -0.087178 0.044867 0.021444
v -0.067584 0.066111 0.011736
v -0.072378 0.074578 0.015592
v -0.075767 0.083322 0.019464
v -0.095665 0.039577 0.029644
v -0.099181 0.013551 0.041071
v -0.095333 0.009484 0.041910
v -0.101340 0.035708 0.029433
v -0.095260 0.034605 0.034935
v -0.095438 0.035689 0.034159
v -0.095442 0.026592 0.039088
v -0.087753 0.004798 0.041530
v -0.087437 0.005714 0.041625
v -0.086331 0.011872 0.041639
v -0.074032 0.020863 0.041357
v -0.071163 0.010534 0.042352
v -0.064272 0.042480 0.033166
v -0.095619 0.029057 0.037866
v -0.075375 0.030593 0.039003
v -0.070944 0.046355 0.026510
v -0.111497 0.134232 -0.000379
v -0.107910 0.125546 0.000396
v -0.106041 0.117184 0.003878
v -0.112346 0.128414 0.019419
v -0.123557 0.144277 0.000971
v -0.143604 0.167064 0.001587
v -0.126578 0.142843 0.007739
v -0.130497 0.177691 0.003384
v -0.144955 0.166600 0.009543
v -0.115674 0.153144 -0.000200
v -0.108807 0.138612 -0.000470
v -0.113426 0.155028 0.002538
v -0.121960 0.137599 0.005256
v -0.112384 0.150903 0.000681
v -0.117696 0.162764 0.006311
v -0.129751 0.147366 0.012880
v -0.124187 0.146983 0.019515
v -0.142478 0.169044 0.016045
v -0.130699 0.178116 0.011319
v -0.134256 0.175654 0.016528
v -0.139182 0.171743 0.016935
v -0.112798 0.124413 0.012749
v -0.125089 0.142707 0.015867
v -0.119830 0.156148 0.019691
v -0.110309 0.141663 0.021274
v -0.115921 0.154371 0.019136
v -0.112944 0.156713 0.013724
v -0.115843 0.157286 0.017278
v -0.092473 0.100595 0.001833
v -0.090966 0.096304 0.005372
v -0.089479 0.107453 -0.001610
v -0.092456 0.105944 -0.000834
v -0.090842 0.119179 -0.001029
v -0.098005 0.133558 0.000693
v -0.093002 0.131313 0.003701
v -0.077377 0.110395 0.000555
v -0.091488 0.097480 0.014937
v -0.096194 0.102438 0.010886
v -0.094678 0.104309 0.018482
v -0.084939 0.123197 0.015176
v -0.100268 0.135324 0.020603
v -0.074187 0.087575 0.020652
v -0.073649 0.097202 0.021128
v -0.077874 0.112726 0.017944
v -0.077787 0.106521 0.021097
v -0.084837 0.124019 0.010230
v -0.103970 0.136292 -0.000293
v -0.098789 0.140550 0.009686
v -0.104782 0.145072 0.017714
v -0.104709 0.125644 0.021832
v -0.093290 0.108003 0.021600
v -0.090709 0.123243 0.021051
v -0.090490 0.103535 0.021061
v -0.083325 0.105385 0.021674
v -0.093478 0.122037 0.021932
v -0.057408 0.052126 -0.001288
v -0.057745 0.052104 0.000337
v -0.071289 0.069752 0.009255
v -0.052066 0.084177 0.001940
v -0.044350 0.074615 0.010307
v -0.057446 0.052040 0.007419
v -0.060709 0.063247 0.016446
v -0.072288 0.048767 0.018648
v -0.054540 0.074533 0.018735
v -0.061091 0.084066 0.019620
v -0.051779 0.079794 0.015982
v -0.053847 0.052201 0.013051
v -0.058121 0.062447 0.017127
v -0.046112 0.052850 0.015438
v -0.038057 0.059524 0.014368
v -0.050326 0.052585 0.015390
v -0.046538 0.055116 0.015831
v -0.042323 0.058481 0.015831
v -0.052399 0.085392 0.006230
v -0.027843 0.055708 0.002687
v -0.028969 0.054995 0.008161
v -0.017359 0.055827 -0.003196
v -0.011766 0.056085 0.006649
v -0.032459 0.054550 0.012068
v -0.037417 0.053802 0.014622
v -0.024618 0.055117 0.011585
v -0.037370 0.053057 0.020148
v -0.016419 0.053583 0.022502
v 0.004094 0.055061 0.017765
v -0.008558 0.054199 0.020283
v -0.063392 0.022093 0.041792
v -0.056226 0.000011 0.042956
v -0.056223 0.004068 0.042930
v -0.054598 0.012010 0.042891
v -0.064647 0.036616 0.037240
v -0.056653 0.037660 0.037341
v -0.056208 0.029964 0.040425
v -0.059787 0.023591 0.041614
v -0.045058 0.013786 0.042905
v -0.035091 0.016445 0.042687
v -0.035928 0.000193 0.043005
v -0.045720 0.043419 0.034129
v -0.041002 0.040423 0.036719
v -0.037672 0.023760 0.042061
v -0.038712 0.024465 0.041850
v -0.035069 0.030065 0.040776
v -0.066821 0.046920 0.026131
v -0.052930 0.048710 0.026708
v -0.045292 0.049619 0.027323
v -0.020968 0.004680 0.042584
v -0.021650 0.011735 0.042524
v -0.028870 0.042607 0.035533
v -0.028236 0.035147 0.039166
v -0.021124 0.024797 0.041406
v -0.014041 0.000008 0.042226
v -0.006777 0.014313 0.041641
v -0.010592 0.020774 0.041381
v -0.000015 0.004210 0.041230
v 0.003452 0.014766 0.040766
v -0.019869 0.043568 0.034857
v 0.000673 0.041709 0.035308
v -0.000017 0.043427 0.034067
v -0.010040 0.032679 0.039475
v -0.006675 0.029762 0.039862
v -0.028054 0.049426 0.029073
v -0.012135 0.049568 0.029221
v -0.059901 0.093519 0.003509
v -0.081021 0.118318 0.005310
v -0.070747 0.107178 0.008468
v -0.063916 0.098689 0.010860
v -0.059806 0.092851 0.013417
v -0.057113 0.087439 0.015709
v 0.063761 -0.093280 -0.002646
v 0.073613 -0.103514 -0.001838
v 0.031425 -0.043650 -0.036120
v 0.028276 -0.050831 -0.029433
v 0.062339 -0.052768 -0.026000
v 0.011677 -0.031730 -0.040209
v 0.019376 -0.019806 -0.042333
v 0.009980 -0.037792 -0.038268
v 0.016709 -0.039327 -0.037781
v 0.008550 0.008502 -0.042387
v 0.012889 -0.010943 -0.042522
v 0.034601 -0.037465 -0.039518
v 0.028975 -0.027088 -0.041848
v 0.027948 -0.000070 -0.043218
v 0.032003 -0.015869 -0.043198
v 0.054109 -0.046089 -0.035566
v 0.068849 -0.046744 -0.033590
v 0.049778 -0.050608 -0.030446
v 0.052403 -0.033822 -0.041657
v 0.066648 -0.022749 -0.043844
v 0.038686 -0.040542 -0.038251
v 0.057127 -0.035827 -0.041294
v 0.047871 -0.015507 -0.044089
v 0.039635 -0.000487 -0.043833
v 0.053815 -0.021546 -0.044017
v 0.062188 -0.036834 -0.040708
v 0.058520 -0.010022 -0.044623
v 0.071210 -0.018045 -0.043883
v 0.069167 -0.011285 -0.044374
v 0.011566 -0.054941 -0.019455
v 0.034418 -0.055872 -0.011841
v 0.007293 -0.056144 -0.010514
v 0.005715 -0.056338 0.002163
v 0.026626 -0.055960 -0.012326
v 0.030080 -0.056110 -0.007766
v 0.032221 -0.055977 -0.010205
v 0.028566 -0.056157 -0.004596
v 0.027892 -0.056179 -0.001002
v 0.048978 -0.055219 -0.018754
v 0.038515 -0.055823 -0.012351
v 0.067030 -0.053531 -0.014338
v 0.050042 -0.073319 -0.007642
v 0.056094 -0.075935 -0.007242
v 0.053067 -0.083660 -0.001115
v 0.040635 -0.068767 -0.004323
v 0.040030 -0.055804 -0.012323
v 0.048180 -0.073522 -0.006715
v 0.045720 -0.055761 -0.011652
v 0.050857 -0.059263 -0.010448
v 0.048785 -0.055638 -0.011249
v 0.061207 -0.054618 -0.014339
v 0.052021 -0.055614 -0.010211
v 0.054717 -0.067429 -0.008685
v 0.062224 -0.076860 -0.006615
v 0.060309 -0.067389 -0.007746
v 0.071263 -0.094655 -0.003785
v 0.070094 -0.080894 -0.005303
v 0.071760 -0.077132 -0.003636
v 0.060528 -0.062564 -0.006631
v 0.054904 -0.055273 -0.008403
v 0.078183 -0.049571 -0.002379
v 0.062568 -0.060408 -0.003073
v 0.057316 -0.055035 -0.005894
v 0.058297 -0.054895 -0.004025
v 0.063404 -0.053987 0.002696
v 0.089798 -0.118616 -0.000977
v 0.077537 -0.090399 -0.003736
v 0.083583 -0.092201 -0.001530
v 0.093083 -0.107866 -0.001124
v 0.101646 -0.122792 -0.000677
v 0.127424 -0.152551 -0.000735
v 0.134720 -0.173891 -0.002244
v 0.130016 -0.162025 -0.001551
v 0.141152 -0.168804 -0.001670
v 0.138715 -0.170693 -0.002575
v 0.143614 -0.167047 0.001029
v 0.079215 -0.046248 -0.027606
v 0.081748 -0.017687 -0.042662
v 0.071776 -0.033577 -0.041087
v 0.078075 -0.035903 -0.039359
v 0.094671 -0.032634 -0.033767
v 0.077926 -0.000024 -0.043701
v 0.095295 -0.013998 -0.039863
v 0.087981 -0.005828 -0.041757
v 0.095070 -0.032454 -0.032598
v 0.095341 -0.018961 -0.039073
v 0.101312 -0.014346 -0.035298
v 0.100395 -0.032372 -0.023773
v 0.092769 -0.039889 -0.018637
v 0.091824 -0.040904 -0.010606
v 0.076726 -0.080411 -0.000799
v 0.101311 -0.029054 -0.013874
v 0.077849 -0.112268 0.001703
v 0.081188 -0.118603 0.005535
v 0.067738 -0.102863 0.004775
v 0.067359 -0.102791 0.011270
v 0.069717 -0.101608 0.018262
v 0.076917 -0.106125 0.021055
v 0.077539 -0.111036 0.018855
v 0.070108 -0.095355 0.020724
v 0.013281 -0.056335 0.001768
v 0.038837 -0.069203 0.002334
v 0.028206 -0.056117 0.002883
v 0.015534 -0.055947 0.009756
v 0.028892 -0.055916 0.006462
v 0.035739 -0.065116 0.005015
v 0.031410 -0.055403 0.010897
v 0.019706 -0.054461 0.017805
v 0.024618 -0.055053 0.014388
v 0.035665 -0.054752 0.013909
v 0.039810 -0.069559 -0.001102
v 0.055514 -0.088285 0.002699
v 0.041574 -0.071466 0.009320
v 0.066929 -0.064213 0.002893
v 0.070706 -0.068813 0.007156
v 0.059024 -0.054818 -0.002639
v 0.059814 -0.054427 0.003519
v 0.059772 -0.054395 0.004469
v 0.065665 -0.063013 0.009608
v 0.058818 -0.054005 0.007837
v 0.059030 -0.054207 0.008404
v 0.057713 -0.090655 0.012657
v 0.049477 -0.073720 0.016848
v 0.060810 -0.081055 0.019749
v 0.044434 -0.072207 0.013388
v 0.038496 -0.061804 0.013731
v 0.045912 -0.053595 0.015517
v 0.048647 -0.053467 0.015554
v 0.052490 -0.053119 0.014916
v 0.042123 -0.060782 0.015874
v 0.041104 -0.054077 0.015197
v 0.049273 -0.058778 0.016569
v 0.067984 -0.067783 0.013686
v 0.068573 -0.090673 0.020801
v 0.058153 -0.069778 0.018442
v 0.068292 -0.093490 0.020681
v 0.069658 -0.076258 0.018754
v 0.061652 -0.059617 0.011996
v 0.060194 -0.060489 0.014640
v 0.062880 -0.050150 0.017019
v 0.058378 -0.061723 0.016605
v 0.064003 -0.073054 0.018938
v 0.001347 -0.051557 0.026293
v 0.019899 -0.045106 0.031126
v 0.038035 -0.051163 0.022781
v 0.003517 -0.041051 0.035049
v 0.002520 -0.031623 0.038815
v 0.042855 -0.042444 0.029747
v 0.020569 -0.036930 0.035202
v 0.031351 -0.031473 0.035594
v 0.013983 -0.028925 0.038136
v 0.014007 -0.024815 0.038813
v 0.012944 -0.019266 0.039584
v 0.011277 -0.001311 0.040222
v 0.018121 -0.014587 0.039273
v 0.014043 -0.012419 0.039774
v 0.043117 -0.024707 0.035014
v 0.045471 -0.020524 0.035021
v 0.045282 -0.016544 0.035337
v 0.035844 -0.012263 0.036966
v 0.032438 -0.007401 0.037565
v 0.035838 0.000104 0.037095
v 0.049837 -0.051559 0.019898
v 0.064280 -0.044513 0.023407
v 0.052753 -0.040028 0.028805
v 0.068578 -0.030110 0.028363
v 0.071529 -0.036426 0.024666
v 0.063897 -0.035127 0.027918
v 0.063817 -0.019584 0.030961
v 0.072156 -0.012013 0.028796
v 0.066821 -0.007743 0.030549
v 0.063466 0.001710 0.031622
v 0.047364 -0.035082 0.031978
v 0.052753 -0.028240 0.032507
v 0.049843 -0.012038 0.034636
v 0.050334 -0.001733 0.034657
v 0.062407 -0.013356 0.031756
v 0.113993 -0.157635 0.005100
v 0.105674 -0.144131 0.001331
v 0.107769 -0.140959 -0.000241
v 0.106250 -0.136214 -0.000393
v 0.094372 -0.135294 0.009782
v 0.110124 -0.154040 0.009131
v 0.099672 -0.141293 0.012680
v 0.111193 -0.153590 0.015890
v 0.105728 -0.144579 0.018767
v 0.083491 -0.114270 -0.000971
v 0.062602 -0.097485 0.007530
v 0.083031 -0.121797 0.009457
v 0.090081 -0.100876 -0.000345
v 0.088956 -0.093894 0.004366
v 0.094617 -0.128264 0.000094
v 0.093152 -0.129425 0.001783
v 0.090576 -0.115546 -0.001301
v 0.107117 -0.126212 -0.000035
v 0.102343 -0.114834 0.001856
v 0.098638 -0.139304 0.005788
v 0.102612 -0.111895 0.005639
v 0.104409 -0.113622 0.008253
v 0.091472 -0.099686 0.001638
v 0.095483 -0.135917 0.014914
v 0.079691 -0.116110 0.016559
v 0.096980 -0.136749 0.016839
v 0.093944 -0.129371 0.020156
v 0.083659 -0.095322 0.020814
v 0.092493 -0.105696 0.020950
v 0.087347 -0.092381 0.015147
v 0.078897 -0.084809 0.017933
v 0.107769 -0.117707 0.011329
v 0.103237 -0.112466 0.014303
v 0.095148 -0.104335 0.018023
v 0.104682 -0.120912 0.020979
v 0.097981 -0.109640 0.019273
v 0.112319 -0.152530 0.001729
v 0.130461 -0.177777 0.004146
v 0.113691 -0.151464 0.000161
v 0.121483 -0.159180 -0.000906
v 0.131182 -0.176984 0.001222
v 0.130408 -0.178156 0.008730
v 0.112841 -0.136995 -0.000464
v 0.115348 -0.135143 0.000475
v 0.122220 -0.138891 0.003760
v 0.119169 -0.133509 0.006165
v 0.132802 -0.175490 -0.001524
v 0.135795 -0.157621 0.001669
v 0.144830 -0.166536 0.007292
v 0.134000 -0.152625 0.006953
v 0.127122 -0.148891 0.000709
v 0.129344 -0.147307 0.004732
v 0.130917 -0.177967 0.011708
v 0.131882 -0.177387 0.014285
v 0.124415 -0.167536 0.016061
v 0.123757 -0.163907 0.017940
v 0.120391 -0.157169 0.019492
v 0.109885 -0.143900 0.020884
v 0.124669 -0.160589 0.019083
v 0.123695 -0.152525 0.019750
v 0.129083 -0.156090 0.018965
v 0.142329 -0.169160 0.015837
v 0.129105 -0.146512 0.013053
v 0.144231 -0.167382 0.012319
v 0.131643 -0.155361 0.018033
v 0.136007 -0.174279 0.016823
v 0.138095 -0.172610 0.017161
v 0.129117 -0.147989 0.015333
v 0.118821 -0.138486 0.019728
v 0.113616 -0.128632 0.003020
v 0.125575 -0.141198 0.010801
v 0.114865 -0.127772 0.014141
v 0.117604 -0.132902 0.016564
v 0.113068 -0.129265 0.018959
v 0.104893 -0.135822 0.021449
v 0.085699 -0.114678 0.021646
v 0.083325 -0.105385 0.021674
v 0.097090 -0.126177 0.021834
v 0.098847 -0.124774 0.021834
v 0.091398 -0.109713 0.021855
v 0.104997 -0.126132 0.021646
v 0.112639 -0.136419 0.021179
v 0.085915 -0.089025 0.005888
v 0.092293 -0.097292 0.010620
v 0.076239 -0.047891 0.012416
v 0.093633 -0.037985 0.006029
v 0.085069 -0.088555 0.012976
v 0.099606 -0.029673 0.007701
v 0.083771 -0.041892 0.012112
v 0.080882 -0.040619 0.016384
v 0.083203 -0.035977 0.018502
v 0.095093 -0.023471 0.016286
v 0.095215 -0.017720 0.017675
v 0.095211 -0.029703 0.013038
v 0.101318 -0.017773 0.011138
v 0.095282 -0.014289 0.018075
v 0.095328 -0.008464 0.018398
v 0.095328 -0.002864 0.018490
v 0.095329 0.000324 0.018509
v 0.080882 -0.027755 0.023212
v 0.074244 -0.030468 0.025853
v 0.077909 -0.020077 0.026038
v 0.080882 -0.010442 0.025338
v 0.080882 -0.006962 0.025398
v 0.080897 -0.000477 0.025443
v 0.083508 -0.010792 0.024196
v 0.016293 0.028422 -0.041088
v 0.008274 0.016285 -0.042157
v 0.022378 0.035250 -0.039569
v 0.021555 0.027218 -0.041478
v 0.013874 0.041530 -0.036686
v 0.020601 0.015593 -0.042658
v 0.042847 0.031955 -0.041719
v 0.022612 0.047081 -0.033125
v 0.015740 0.052626 -0.025778
v 0.031049 0.052410 -0.026788
v 0.050506 0.002242 -0.044419
v 0.026921 0.015528 -0.042922
v 0.065847 0.020970 -0.044301
v 0.045699 0.014372 -0.043978
v 0.056620 0.019722 -0.044165
v 0.045685 0.026947 -0.042800
v 0.058268 0.034817 -0.041555
v 0.046338 0.039604 -0.039409
v 0.025682 0.042752 -0.036411
v 0.038686 0.044304 -0.036067
v 0.063692 0.045838 -0.035293
v 0.070947 0.012051 -0.044245
v 0.064764 0.021545 -0.043891
v 0.041505 0.049465 -0.031755
v 0.026716 0.054320 -0.022052
v 0.056593 0.051626 -0.029343
v 0.067696 0.049704 -0.029412
v 0.003223 0.054797 -0.019368
v 0.030298 0.055790 -0.013822
v 0.026766 0.056018 -0.011758
v 0.034918 0.055880 -0.011712
v 0.028226 0.056190 -0.002664
v 0.030943 0.056047 -0.009115
v 0.045042 0.054764 -0.020648
v 0.039096 0.055842 -0.012436
v 0.059553 0.054758 -0.017354
v 0.029570 0.056109 -0.007483
v 0.052034 0.055546 -0.010314
v 0.056133 0.055148 -0.007316
v 0.045712 0.055762 -0.011653
v 0.051023 0.060729 -0.010097
v 0.050821 0.075594 -0.007015
v 0.069333 0.077145 -0.005222
v 0.076183 0.081025 -0.001972
v 0.062745 0.054346 -0.004374
v 0.058756 0.054835 -0.003190
v 0.055743 0.073742 -0.007732
v 0.073217 0.100721 -0.002387
v 0.074887 0.091141 -0.003925
v 0.064921 0.098693 0.001839
v 0.086611 0.125478 0.004602
v 0.083545 0.017328 -0.042410
v 0.095179 0.008656 -0.040210
v 0.095254 0.018331 -0.039262
v 0.078749 0.031544 -0.040701
v 0.070558 0.034995 -0.041000
v 0.095643 0.032931 -0.033273
v 0.080217 0.044742 -0.030254
v 0.095330 -0.001357 -0.040209
v 0.101305 0.003216 -0.035936
v 0.101313 0.016331 -0.034776
v 0.095281 0.026294 -0.036806
v 0.099733 0.025981 -0.034246
v 0.068472 0.052473 -0.020583
v 0.102993 0.000000 -0.011895
v 0.101306 0.028123 -0.021350
v 0.094658 0.037731 -0.021280
v 0.101305 0.028449 -0.005577
v 0.094721 0.037933 -0.006634
v 0.077452 0.049175 -0.018178
v 0.082985 0.046520 -0.004011
v 0.085613 0.107448 -0.002176
v 0.092933 0.106733 -0.000971
v 0.093942 0.121972 -0.000966
v 0.109005 0.129937 -0.000147
v 0.131593 0.176522 -0.000601
v 0.021825 0.054436 0.018821
v 0.010065 0.056341 0.002981
v 0.045026 0.075220 -0.001864
v 0.027930 0.056129 0.002660
v 0.041498 0.072263 0.006570
v 0.013454 0.055231 0.015988
v 0.030317 0.055717 0.009099
v 0.034356 0.054919 0.013442
v 0.042523 0.067781 0.014800
v 0.054685 0.088121 0.006669
v 0.059626 0.054652 0.000144
v 0.059521 0.054337 0.005329
v 0.076601 0.076582 0.006871
v 0.055255 0.053178 0.014499
v 0.080371 0.083354 0.002050
v 0.079548 0.081215 0.012576
v 0.038903 0.054239 0.014867
v 0.049378 0.066709 0.017512
v 0.048499 0.053274 0.015720
v 0.046250 0.051846 0.020319
v 0.057493 0.089059 0.014911
v 0.053380 0.053233 0.014167
v 0.064685 0.066175 0.015637
v 0.075448 0.039320 0.021823
v 0.078447 0.081035 0.015126
v 0.061317 0.087249 0.019336
v 0.069801 0.081326 0.020270
v 0.036406 0.044376 0.029240
v 0.012577 0.003660 0.040054
v 0.017584 0.008269 0.039438
v 0.022270 0.009636 0.038899
v 0.017584 0.016534 0.039181
v 0.007018 0.031698 0.038307
v 0.011254 0.043346 0.033129
v 0.025335 0.041497 0.032783
v 0.011173 0.024981 0.039167
v 0.017584 0.024781 0.038407
v 0.035017 0.013903 0.037054
v 0.024653 0.014608 0.038434
v 0.037695 0.020635 0.036258
v 0.040629 0.005315 0.036352
v 0.032319 0.031826 0.035245
v 0.030659 0.041533 0.031933
v 0.025872 0.029564 0.036718
v 0.019545 0.050072 0.026357
v 0.004344 0.050199 0.027680
v 0.038318 0.049690 0.024266
v 0.057714 0.034901 0.029954
v 0.054671 0.042345 0.027362
v 0.068570 0.020560 0.029525
v 0.071766 0.001628 0.029053
v 0.066821 0.007740 0.030549
v 0.068155 0.042961 0.022753
v 0.057625 0.026959 0.031690
v 0.064456 0.030180 0.029213
v 0.048326 0.004496 0.035060
v 0.052753 0.020195 0.033556
v 0.050751 0.013048 0.034439
v 0.054420 0.014983 0.033632
v 0.043460 0.026997 0.034518
v 0.038686 0.036638 0.032786
v 0.052753 0.024223 0.033130
v 0.052910 0.045870 0.025214
v 0.057865 0.091745 0.009955
v 0.080970 0.114360 0.019943
v 0.094186 0.037378 0.003119
v 0.101305 0.020837 0.009186
v 0.100895 0.029818 0.000247
v 0.095328 0.032296 0.010125
v 0.095096 0.020981 0.017060
v 0.092465 0.035880 0.010534
v 0.100897 -0.002857 0.013687
v 0.101308 0.012469 0.012235
v 0.095330 0.007779 0.018427
v 0.095334 0.012750 0.018156
v 0.095196 0.028071 0.014140
v 0.074031 0.050570 0.006189
v 0.080882 0.046582 0.005144
v 0.085300 0.088844 0.004775
v 0.067414 0.052104 0.009620
v 0.073916 0.045368 0.017175
v 0.103471 0.115016 0.018569
v 0.085475 0.097460 0.020940
v 0.080878 0.011045 0.025350
v 0.088014 0.010041 0.022012
v 0.094496 0.013004 0.018884
v 0.068612 0.015036 0.029920
v 0.080882 0.027755 0.023210
v 0.077281 0.028289 0.025017
v 0.093108 0.133841 0.010340
v 0.099830 0.108785 0.004724
v 0.099567 0.110549 0.002171
v 0.104643 0.113745 0.008187
v 0.099174 0.132284 -0.000319
v 0.109853 0.127393 0.000569
v 0.079767 0.101745 0.021742
v 0.081726 0.120022 0.013056
v 0.095102 0.131366 0.019957
v 0.102187 0.118007 0.020877
v 0.106998 0.117458 0.015025
v 0.106510 0.142491 0.000382
v 0.098541 0.137968 0.003728
v 0.101352 0.143657 0.010336
v 0.118147 0.131399 0.009774
v 0.115695 0.142427 -0.000560
v 0.120089 0.154580 -0.000808
v 0.128621 0.150687 0.000549
v 0.134383 0.174131 -0.002151
v 0.139786 0.169810 -0.002031
v 0.122704 0.138573 0.005406
v 0.108343 0.150233 0.004107
v 0.109301 0.152666 0.006074
v 0.144269 0.166671 0.004013
v 0.144587 0.166567 0.005095
v 0.142138 0.168064 -0.001151
v 0.130599 0.178142 0.010631
v 0.127796 0.144857 0.013724
v 0.133420 0.156678 0.017793
v 0.124543 0.151848 0.019750
v 0.108933 0.151094 0.015822
v 0.118714 0.157690 0.019158
v 0.132509 0.176911 0.014631
v 0.139873 0.161780 0.013617
v 0.144810 0.166792 0.010510
v 0.142714 0.168793 0.015476
v 0.136132 0.174164 0.016944
v 0.133874 0.175930 0.016221
v 0.136803 0.173644 0.016823
v 0.139816 0.171239 0.016823
v 0.141279 0.170037 0.016356
v 0.088445 0.117199 0.021670
v 0.100658 0.121568 0.021947
v 0.096661 0.126252 0.021746
v 0.108939 0.140815 0.021131
v 0.114320 0.136811 0.020987
g body
f 12 13 11
f 11 13 16
f 11 22 12
f 11 19 15
f 11 14 19
f 17 18 16
f 11 16 14
f 13 17 16
f 14 16 19
f 11 15 22
f 22 21 20
f 15 23 22
f 15 24 23
f 23 24 22
f 22 24 25
f 22 25 21
f 25 10 21
f 26 10 27
f 29 66 157
f 21 26 20
f 12 22 326
f 22 20 326
f 10 26 21
f 26 27 20
f 27 29 20
f 29 163 20
f 31 44 62
f 25 24 32
f 24 15 32
f 32 15 19
f 32 40 39
f 32 19 34
f 19 35 34
f 19 16 35
f 32 34 36
f 16 18 35
f 34 35 36
f 32 36 40
f 35 37 36
f 38 50 49
f 32 39 33
f 39 40 38
f 39 38 33
f 31 33 49
f 38 49 33
f 36 41 40
f 40 42 38
f 40 41 42
f 32 10 25
f 32 33 10
f 33 43 10
f 30 43 33
f 10 43 30
f 30 33 31
f 44 45 82
f 46 45 47
f 82 45 46
f 38 48 50
f 50 48 52
f 50 54 49
f 50 52 54
f 31 49 44
f 44 49 56
f 44 56 45
f 38 42 48
f 48 42 52
f 41 51 42
f 42 51 53
f 42 60 52
f 42 53 60
f 54 57 49
f 57 54 55
f 56 49 57
f 56 57 58
f 45 56 58
f 52 59 54
f 52 60 59
f 54 59 61
f 54 61 55
f 30 62 10
f 10 62 27
f 62 29 27
f 30 31 62
f 62 82 63
f 75 62 76
f 62 64 72
f 62 77 76
f 62 72 77
f 62 63 64
f 62 66 29
f 62 75 66
f 75 78 66
f 66 78 68
f 66 69 190
f 66 68 69
f 75 76 78
f 44 82 62
f 82 83 63
f 82 85 83
f 82 86 85
f 86 82 87
f 82 46 84
f 84 90 82
f 87 89 86
f 87 215 89
f 87 218 215
f 87 82 218
f 82 90 218
f 159 162 164
f 20 163 326
f 29 157 163
f 157 159 163
f 159 164 163
f 163 167 326
f 164 166 163
f 164 162 166
f 166 168 163
f 168 169 163
f 163 169 167
f 167 170 326
f 166 162 168
f 162 169 168
f 162 165 169
f 169 165 173
f 169 175 167
f 175 171 167
f 171 179 167
f 179 172 167
f 167 172 170
f 170 172 338
f 173 174 169
f 169 174 175
f 175 176 171
f 175 174 176
f 171 176 179
f 176 178 179
f 338 172 177
f 179 180 172
f 172 181 177
f 172 180 181
f 66 201 157
f 66 190 201
f 157 201 159
f 201 190 191
f 201 191 226
f 226 191 200
f 226 200 212
f 201 162 159
f 201 226 162
f 226 212 208
f 226 208 219
f 219 208 209
f 219 225 226
f 218 216 215
f 218 90 219
f 90 220 219
f 220 511 223
f 219 221 218
f 219 222 221
f 219 209 222
f 220 223 219
f 223 224 219
f 162 226 165
f 226 225 165
f 165 225 173
f 225 227 173
f 174 173 227
f 174 227 228
f 174 228 232
f 176 174 232
f 227 232 228
f 232 178 176
f 232 234 180
f 178 180 179
f 178 232 180
f 235 181 180
f 229 438 181
f 181 235 229
f 227 231 232
f 227 230 231
f 232 233 234
f 231 233 232
f 233 242 234
f 234 244 237
f 180 236 235
f 180 234 236
f 236 237 235
f 234 237 236
f 235 237 229
f 229 237 238
f 238 447 229
f 225 219 239
f 225 239 227
f 227 240 230
f 239 219 240
f 227 239 240
f 219 224 240
f 240 241 230
f 234 242 243
f 243 244 234
f 237 246 238
f 237 245 246
f 244 245 237
f 238 246 248
f 248 461 238
f 230 241 231
f 241 242 231
f 231 242 233
f 242 625 243
f 243 625 244
f 244 625 246
f 245 244 246
f 246 247 248
f 246 631 247
f 248 247 249
f 248 249 461
f 13 12 251
f 13 251 17
f 12 250 251
f 250 252 251
f 252 253 258
f 18 17 255
f 17 254 256
f 17 256 255
f 251 254 17
f 252 258 251
f 251 258 254
f 258 259 254
f 254 259 257
f 253 260 258
f 259 258 257
f 260 261 258
f 12 326 250
f 262 263 253
f 253 263 260
f 250 326 252
f 252 326 253
f 253 327 262
f 327 264 262
f 253 326 327
f 262 264 263
f 327 328 264
f 263 265 260
f 264 265 263
f 264 328 266
f 264 266 265
f 18 255 35
f 255 256 35
f 35 256 37
f 256 254 273
f 254 257 273
f 37 276 36
f 256 273 37
f 273 276 37
f 258 274 257
f 258 261 274
f 257 274 273
f 36 276 41
f 41 277 51
f 41 276 277
f 276 273 278
f 276 278 277
f 273 274 279
f 274 275 280
f 279 280 273
f 279 274 280
f 273 280 288
f 274 261 281
f 274 281 275
f 281 282 275
f 261 296 281
f 281 296 283
f 275 282 280
f 280 282 288
f 281 283 282
f 277 284 51
f 51 284 285
f 277 278 284
f 284 286 285
f 278 287 284
f 284 287 286
f 273 288 278
f 288 291 278
f 53 289 60
f 53 51 289
f 51 285 289
f 285 286 289
f 60 289 59
f 59 290 763
f 289 290 59
f 286 287 290
f 287 278 290
f 289 286 290
f 278 291 292
f 278 292 290
f 290 292 766
f 292 294 766
f 282 283 288
f 288 293 291
f 288 283 293
f 291 293 294
f 291 294 292
f 293 318 294
f 294 789 770
f 260 296 261
f 260 295 296
f 260 265 295
f 296 311 297
f 296 297 283
f 297 311 309
f 297 310 313
f 297 309 310
f 297 313 283
f 283 313 298
f 283 298 316
f 265 301 295
f 296 295 311
f 295 312 311
f 295 299 312
f 265 267 301
f 295 300 299
f 295 301 408
f 295 407 300
f 295 408 407
f 283 316 324
f 283 324 293
f 293 324 318
f 316 317 324
f 318 324 294
f 294 325 789
f 294 324 325
f 317 320 323
f 317 428 324
f 317 323 428
f 323 320 321
f 323 321 428
f 324 428 429
f 324 429 839
f 326 339 327
f 327 331 328
f 327 339 331
f 328 414 266
f 266 414 265
f 328 331 332
f 328 351 414
f 328 332 351
f 326 337 339
f 326 170 337
f 339 336 331
f 336 332 331
f 336 340 348
f 170 338 337
f 338 345 337
f 339 340 341
f 337 342 339
f 339 349 340
f 339 341 336
f 339 342 349
f 338 177 343
f 338 343 344
f 181 343 177
f 344 345 338
f 337 345 346
f 181 344 343
f 344 347 345
f 336 341 340
f 340 350 348
f 337 346 342
f 342 346 349
f 340 349 350
f 346 437 349
f 349 437 350
f 332 336 351
f 301 412 408
f 265 414 267
f 301 267 412
f 267 418 412
f 267 422 418
f 267 414 422
f 422 433 420
f 422 455 433
f 433 431 420
f 321 429 428
f 321 427 432
f 321 432 429
f 429 435 843
f 432 427 430
f 433 430 431
f 430 433 434
f 430 434 432
f 432 434 429
f 429 434 436
f 429 436 435
f 348 351 336
f 181 438 344
f 344 439 347
f 347 440 345
f 346 345 437
f 344 438 439
f 347 439 440
f 440 445 345
f 345 445 437
f 350 441 348
f 441 442 348
f 348 442 449
f 350 443 441
f 350 437 443
f 437 444 443
f 444 450 443
f 437 450 444
f 441 443 442
f 438 229 439
f 439 229 440
f 445 446 437
f 437 446 450
f 229 447 440
f 440 447 445
f 447 456 445
f 445 457 446
f 348 449 448
f 450 451 443
f 443 451 452
f 442 443 449
f 443 452 449
f 452 459 449
f 351 453 414
f 414 453 454
f 454 422 414
f 453 351 348
f 453 348 454
f 422 454 455
f 454 348 455
f 348 448 455
f 455 448 449
f 455 449 458
f 445 456 457
f 447 238 456
f 238 461 456
f 457 462 446
f 446 462 450
f 450 463 460
f 450 462 463
f 449 459 458
f 458 469 466
f 451 460 452
f 451 450 460
f 460 469 452
f 452 469 459
f 458 459 469
f 456 249 464
f 461 249 456
f 456 464 457
f 464 462 457
f 462 465 463
f 463 873 470
f 466 469 467
f 460 463 469
f 469 470 467
f 463 470 469
f 470 870 467
f 455 471 433
f 433 472 434
f 433 471 472
f 455 458 471
f 471 466 472
f 436 434 883
f 472 883 434
f 471 458 466
f 472 466 467
f 472 467 468
f 481 482 47
f 46 47 84
f 508 84 47
f 508 47 482
f 482 496 483
f 57 55 484
f 57 484 58
f 58 484 486
f 45 58 486
f 45 486 47
f 486 484 487
f 47 486 487
f 47 487 481
f 59 488 61
f 61 488 55
f 55 489 485
f 484 55 485
f 55 488 489
f 484 485 491
f 484 491 490
f 487 484 481
f 481 484 490
f 481 490 499
f 491 485 493
f 489 492 485
f 485 492 493
f 491 493 501
f 493 492 502
f 481 494 482
f 482 494 496
f 494 495 496
f 496 495 483
f 495 555 483
f 497 491 503
f 490 491 497
f 503 498 497
f 490 497 499
f 497 500 499
f 481 499 500
f 481 500 494
f 494 500 504
f 491 501 503
f 493 502 501
f 501 502 772
f 501 772 505
f 501 505 503
f 497 498 500
f 500 498 504
f 504 498 557
f 494 504 557
f 494 557 495
f 503 505 498
f 498 505 507
f 498 507 506
f 84 508 90
f 482 483 508
f 508 512 510
f 512 517 509
f 90 508 510
f 220 90 510
f 220 510 511
f 511 510 579
f 512 509 514
f 512 514 513
f 512 513 515
f 510 512 579
f 512 515 579
f 579 515 516
f 483 517 508
f 517 518 509
f 517 524 518
f 517 526 524
f 512 508 517
f 517 530 528
f 517 528 526
f 517 483 530
f 483 529 530
f 483 519 529
f 529 538 530
f 529 519 538
f 519 541 538
f 519 542 541
f 519 594 542
f 519 539 543
f 519 543 594
f 557 498 556
f 557 556 558
f 495 557 558
f 498 506 556
f 506 507 556
f 507 560 556
f 556 561 558
f 558 561 564
f 556 560 562
f 556 562 820
f 562 560 820
f 558 564 559
f 559 565 563
f 556 820 561
f 564 561 565
f 559 564 565
f 561 820 565
f 820 821 565
f 558 559 495
f 495 559 555
f 555 559 563
f 555 563 566
f 563 565 566
f 566 570 567
f 566 565 826
f 565 821 826
f 483 555 519
f 555 567 519
f 555 566 567
f 519 567 568
f 519 568 539
f 567 570 568
f 566 826 570
f 568 570 741
f 539 568 741
f 570 826 743
f 579 223 511
f 579 582 223
f 579 516 581
f 579 581 582
f 581 583 582
f 582 583 585
f 582 224 223
f 582 586 224
f 586 621 224
f 582 587 586
f 582 585 587
f 587 585 588
f 587 588 586
f 586 588 623
f 623 588 609
f 543 595 594
f 543 596 595
f 539 740 543
f 543 598 596
f 543 599 598
f 543 740 599
f 641 609 605
f 641 605 607
f 599 641 607
f 599 618 641
f 599 740 618
f 618 740 642
f 621 240 224
f 240 621 241
f 621 622 241
f 586 623 621
f 621 623 622
f 242 241 624
f 241 622 624
f 242 624 625
f 624 622 625
f 625 622 627
f 627 628 625
f 622 626 627
f 628 629 625
f 625 630 631
f 629 630 625
f 633 634 247
f 246 625 631
f 631 633 247
f 247 634 249
f 632 866 249
f 249 633 632
f 249 634 633
f 627 651 628
f 628 630 629
f 635 631 630
f 628 635 630
f 631 635 636
f 631 636 633
f 633 639 632
f 639 868 632
f 633 638 639
f 633 636 637
f 633 637 638
f 639 640 868
f 609 641 623
f 623 641 622
f 641 642 622
f 641 618 642
f 622 642 626
f 626 643 651
f 642 643 626
f 643 642 651
f 651 642 646
f 642 645 646
f 651 646 644
f 644 646 756
f 645 756 646
f 644 757 647
f 655 757 648
f 647 757 655
f 650 648 888
f 648 649 655
f 649 650 655
f 649 648 650
f 626 651 627
f 651 644 628
f 628 652 635
f 628 644 652
f 638 637 639
f 639 637 653
f 653 654 639
f 639 654 640
f 652 644 635
f 644 636 635
f 647 637 636
f 644 647 636
f 647 655 637
f 637 655 653
f 653 655 654
f 893 655 650
f 654 655 893
f 539 741 740
f 740 741 744
f 741 743 744
f 570 743 741
f 749 743 750
f 743 826 750
f 750 826 909
f 744 743 745
f 749 746 743
f 740 744 642
f 642 744 745
f 745 746 642
f 743 746 745
f 749 747 756
f 746 749 756
f 750 747 749
f 747 750 748
f 750 751 748
f 750 909 752
f 750 752 751
f 909 754 753
f 751 752 761
f 752 909 761
f 909 753 761
f 753 754 761
f 746 645 642
f 746 756 645
f 756 755 644
f 747 755 756
f 747 644 755
f 747 748 644
f 748 757 644
f 648 757 761
f 648 761 758
f 648 758 759
f 648 759 760
f 757 748 751
f 757 751 761
f 758 761 759
f 759 761 760
f 648 760 888
f 59 763 488
f 290 762 763
f 488 767 489
f 488 763 767
f 762 766 764
f 763 762 765
f 762 764 765
f 290 766 762
f 766 780 764
f 766 769 780
f 489 767 492
f 763 765 767
f 767 773 492
f 767 765 768
f 765 764 768
f 767 768 777
f 294 769 766
f 294 770 769
f 769 770 771
f 780 769 785
f 769 771 785
f 771 786 785
f 492 772 502
f 492 773 772
f 773 775 772
f 767 777 773
f 773 776 775
f 773 777 776
f 772 775 776
f 772 774 505
f 777 768 779
f 764 780 768
f 777 779 778
f 777 778 776
f 768 780 779
f 780 781 779
f 772 776 774
f 505 774 783
f 776 784 774
f 505 783 507
f 507 783 560
f 776 778 817
f 776 817 816
f 776 816 784
f 784 816 774
f 778 779 782
f 778 782 817
f 782 819 817
f 780 785 781
f 781 785 779
f 779 785 787
f 779 787 782
f 785 786 787
f 786 795 787
f 787 788 782
f 782 788 819
f 787 825 788
f 770 789 771
f 789 325 791
f 771 789 786
f 789 790 786
f 789 791 790
f 786 790 796
f 790 792 796
f 324 839 325
f 325 839 791
f 790 791 794
f 790 794 792
f 791 798 794
f 791 839 793
f 791 793 798
f 786 796 795
f 795 797 787
f 795 796 797
f 796 801 797
f 797 801 799
f 787 797 825
f 797 799 800
f 797 800 806
f 797 914 825
f 797 806 914
f 806 800 807
f 560 783 813
f 783 774 813
f 560 813 814
f 560 814 820
f 813 815 814
f 774 816 813
f 816 823 813
f 813 823 815
f 817 818 816
f 817 819 818
f 816 824 823
f 816 818 824
f 820 814 821
f 821 814 822
f 814 815 822
f 815 823 822
f 819 828 818
f 821 822 826
f 822 824 826
f 823 824 822
f 827 824 818
f 788 825 819
f 824 827 826
f 826 827 829
f 827 818 828
f 827 828 829
f 826 829 905
f 828 832 830
f 829 828 830
f 830 832 905
f 829 830 905
f 825 831 819
f 819 831 828
f 831 825 832
f 831 832 828
f 825 914 832
f 429 843 839
f 839 843 838
f 793 839 841
f 839 844 841
f 839 838 844
f 844 838 845
f 838 857 845
f 838 884 857
f 806 807 848
f 806 848 917
f 917 848 849
f 914 806 917
f 917 849 851
f 857 854 845
f 857 856 854
f 857 859 856
f 857 851 859
f 851 918 917
f 857 890 851
f 851 890 861
f 851 861 918
f 249 866 464
f 464 866 462
f 462 866 465
f 463 465 873
f 866 867 465
f 465 867 868
f 465 869 873
f 868 869 465
f 468 467 871
f 467 872 871
f 870 881 467
f 467 881 872
f 470 873 870
f 874 870 873
f 632 868 866
f 866 868 867
f 868 875 876
f 868 876 869
f 869 876 873
f 873 877 874
f 873 876 877
f 876 875 877
f 640 878 868
f 868 878 875
f 881 879 872
f 881 897 879
f 872 879 880
f 881 870 874
f 877 881 874
f 436 883 435
f 883 882 435
f 435 882 843
f 472 468 883
f 883 468 871
f 883 871 872
f 883 872 882
f 843 882 838
f 882 884 838
f 872 880 882
f 880 865 882
f 882 865 884
f 880 898 885
f 880 886 865
f 880 885 886
f 889 896 650
f 888 889 650
f 889 924 896
f 889 888 924
f 926 890 885
f 891 892 885
f 892 887 926
f 926 885 892
f 891 887 892
f 886 885 890
f 875 878 893
f 640 654 878
f 875 893 895
f 895 896 875
f 875 896 877
f 654 893 878
f 877 894 897
f 877 896 894
f 879 897 885
f 881 877 897
f 880 879 898
f 879 885 898
f 897 891 885
f 897 899 891
f 897 894 899
f 893 650 895
f 895 650 896
f 896 924 894
f 887 899 894
f 887 894 924
f 887 891 899
f 884 886 857
f 857 886 900
f 884 865 886
f 857 900 890
f 900 886 890
f 832 903 905
f 903 915 914
f 903 914 908
f 826 910 909
f 826 905 904
f 826 904 910
f 905 903 908
f 905 913 904
f 905 908 906
f 905 906 913
f 754 922 761
f 912 923 922
f 908 918 861
f 913 908 861
f 909 910 754
f 904 913 910
f 910 907 923
f 910 913 907
f 910 911 754
f 910 912 911
f 754 911 922
f 911 912 922
f 910 923 912
f 906 908 913
f 913 861 907
f 914 915 832
f 903 832 915
f 917 908 914
f 917 918 908
f 888 760 921
f 887 921 923
f 887 923 926
f 761 922 921
f 761 921 760
f 907 926 923
f 921 922 923
f 888 921 924
f 924 921 887
f 925 861 926
f 926 861 890
f 907 925 926
f 907 861 925
f 840 798 793
f 802 801 796
f 792 794 798
f 802 799 801
f 796 792 803
f 796 808 802
f 796 803 808
f 802 804 799
f 792 798 803
f 798 840 803
f 803 840 809
f 805 800 799
f 805 852 800
f 804 805 799
f 852 807 800
f 803 809 808
f 802 808 804
f 808 810 804
f 808 809 810
f 840 811 809
f 809 811 812
f 804 929 805
f 809 833 810
f 804 810 834
f 804 834 929
f 810 833 834
f 809 835 833
f 835 809 931
f 833 835 836
f 943 945 946
f 840 793 841
f 840 841 842
f 842 841 844
f 842 844 846
f 846 844 845
f 840 842 847
f 847 842 858
f 847 858 901
f 850 849 848
f 807 852 848
f 848 852 850
f 850 853 849
f 853 862 849
f 862 851 849
f 840 847 811
f 855 854 856
f 846 845 854
f 846 854 855
f 842 846 858
f 846 863 858
f 846 855 863
f 860 859 851
f 862 860 851
f 860 856 859
f 860 864 856
f 856 864 855
f 860 920 864
f 855 864 863
f 847 901 811
f 811 901 812
f 812 901 858
f 858 902 934
f 858 863 902
f 863 864 933
f 805 916 852
f 850 937 853
f 852 916 850
f 853 937 919
f 853 919 862
f 860 862 920
f 929 928 805
f 805 930 916
f 805 928 930
f 916 930 850
f 809 812 939
f 809 939 931
f 939 812 927
f 927 812 934
f 834 833 932
f 833 836 932
f 834 932 929
f 932 950 929
f 835 931 836
f 930 928 941
f 858 934 812
f 864 920 933
f 863 933 902
f 862 919 920
f 902 935 934
f 850 930 937
f 919 936 920
f 930 941 937
f 919 972 936
f 931 939 938
f 931 938 943
f 927 940 939
f 939 940 948
f 927 934 940
f 934 935 957
f 940 934 957
f 935 958 957
f 935 971 958
f 929 950 947
f 928 929 941
f 941 954 937
f 937 955 919
f 836 931 942
f 836 944 932
f 939 945 938
f 931 943 946
f 931 946 942
f 945 943 938
f 939 948 945
f 942 946 836
f 932 944 950
f 948 940 949
f 950 951 947
f 929 947 941
f 945 948 837
f 837 948 949
f 949 953 837
f 946 952 836
f 952 944 836
f 947 951 941
f 951 961 941
f 944 952 950
f 945 953 946
f 946 953 952
f 837 953 945
f 952 953 950
f 950 953 951
f 951 953 961
f 940 957 949
f 919 955 972
f 937 954 955
f 971 972 956
f 971 956 958
f 955 956 972
f 949 957 953
f 953 957 958
f 958 956 963
f 958 963 964
f 941 961 954
f 954 961 960
f 954 960 955
f 955 960 962
f 953 959 964
f 953 958 959
f 953 964 963
f 960 961 962
f 953 962 961
f 953 966 967
f 953 965 966
f 953 963 965
f 953 967 962
f 965 963 955
f 956 955 963
f 958 964 959
f 962 967 955
f 965 955 966
f 966 955 967
f 933 920 969
f 933 968 902
f 902 968 935
f 933 970 968
f 933 969 970
f 968 970 935
f 920 936 969
f 970 969 971
f 936 972 969
f 970 971 935
f 969 972 971
f 270 271 269
f 271 361 269
f 268 383 382
f 382 272 306
f 382 384 272
f 272 387 302
f 314 298 313
f 314 316 298
f 300 305 299
f 305 302 310
f 310 302 313
f 302 303 313
f 382 305 304
f 300 304 305
f 300 268 304
f 300 329 268
f 382 306 305
f 382 304 268
f 305 306 302
f 308 310 309
f 308 311 305
f 308 309 311
f 305 311 312
f 305 312 299
f 308 305 310
f 314 315 316
f 303 314 313
f 303 315 314
f 303 307 315
f 319 320 317
f 315 317 316
f 315 319 317
f 319 322 320
f 322 321 320
f 272 302 306
f 303 302 387
f 329 330 381
f 330 409 333
f 354 373 358
f 269 356 270
f 356 357 270
f 357 358 360
f 358 373 360
f 270 357 359
f 270 359 271
f 271 359 365
f 357 360 359
f 359 360 369
f 354 357 356
f 357 354 364
f 269 361 362
f 353 354 269
f 353 269 352
f 354 356 269
f 269 362 352
f 357 364 358
f 354 358 364
f 271 365 361
f 365 359 363
f 359 366 363
f 359 370 366
f 373 367 360
f 367 374 360
f 374 369 360
f 369 368 376
f 359 369 372
f 359 372 371
f 359 371 370
f 369 376 372
f 371 372 375
f 367 373 374
f 355 374 373
f 369 355 368
f 374 355 369
f 368 401 376
f 355 401 368
f 370 379 378
f 370 378 366
f 371 375 379
f 370 371 379
f 372 376 375
f 375 377 379
f 381 389 354
f 380 353 352
f 382 383 352
f 380 354 353
f 380 381 354
f 352 362 382
f 384 362 398
f 382 362 384
f 383 380 352
f 384 365 385
f 272 385 386
f 380 268 329
f 380 383 268
f 329 381 380
f 330 389 381
f 384 385 272
f 272 386 387
f 387 386 474
f 474 397 475
f 389 388 373
f 354 389 373
f 388 390 373
f 390 355 373
f 390 404 355
f 404 402 355
f 330 333 389
f 333 388 389
f 333 334 388
f 388 334 335
f 388 335 390
f 390 335 404
f 404 335 393
f 475 397 391
f 395 403 396
f 391 400 395
f 400 392 395
f 392 403 395
f 361 398 362
f 361 365 398
f 384 398 365
f 363 385 365
f 385 366 386
f 363 366 385
f 386 366 474
f 474 366 399
f 474 399 397
f 366 378 399
f 397 399 378
f 397 378 391
f 391 378 400
f 377 375 400
f 375 376 392
f 375 392 400
f 378 379 400
f 377 400 379
f 355 402 401
f 376 401 406
f 403 392 376
f 376 406 403
f 404 393 402
f 401 405 396
f 402 393 394
f 402 394 405
f 405 394 396
f 402 405 401
f 401 396 406
f 396 403 406
f 329 409 330
f 329 407 408
f 409 408 412
f 300 407 329
f 329 408 409
f 315 473 410
f 319 315 410
f 319 410 425
f 322 319 425
f 425 411 322
f 413 334 333
f 333 412 418
f 413 418 422
f 409 412 333
f 333 418 413
f 425 477 411
f 335 334 419
f 413 419 334
f 419 415 335
f 415 393 335
f 415 416 393
f 419 422 420
f 419 420 423
f 423 420 424
f 424 420 431
f 421 431 430
f 421 424 431
f 413 422 419
f 419 423 415
f 423 424 415
f 421 415 424
f 411 478 417
f 421 417 415
f 417 416 415
f 322 426 321
f 426 322 411
f 426 411 321
f 411 427 321
f 417 427 411
f 417 421 427
f 421 430 427
f 307 303 474
f 474 303 387
f 315 307 473
f 307 474 473
f 410 473 425
f 473 474 475
f 475 476 425
f 473 475 425
f 391 476 475
f 391 395 476
f 476 395 477
f 425 476 477
f 477 395 478
f 411 477 478
f 478 396 417
f 395 396 478
f 394 393 416
f 394 416 396
f 416 417 396
f 2 1 4
f 2 4 5
f 2 5 100
f 127 9 131
f 127 6 9
f 8 6 7
f 7 65 8
f 8 9 6
f 7 28 65
f 7 137 28
f 9 8 81
f 81 63 83
f 73 64 63
f 28 74 65
f 28 67 74
f 8 65 81
f 9 81 71
f 9 71 192
f 74 67 78
f 67 68 78
f 65 70 81
f 71 81 214
f 73 65 74
f 72 73 74
f 79 70 65
f 73 79 65
f 81 70 79
f 72 64 73
f 74 76 77
f 74 77 72
f 74 78 76
f 73 63 79
f 81 79 63
f 81 83 85
f 81 85 80
f 80 85 86
f 80 86 89
f 80 89 88
f 80 88 81
f 81 88 214
f 88 89 215
f 1 2 91
f 1 91 93
f 2 3 91
f 3 92 91
f 91 104 96
f 95 91 96
f 92 94 91
f 91 94 105
f 1 93 99
f 91 95 93
f 96 114 102
f 2 100 3
f 3 98 92
f 3 97 98
f 92 123 94
f 92 98 123
f 93 95 101
f 95 96 101
f 1 99 126
f 93 101 129
f 1 126 4
f 4 121 5
f 99 93 126
f 101 96 102
f 101 102 129
f 91 107 104
f 91 108 107
f 96 104 103
f 91 105 106
f 91 106 109
f 91 109 108
f 104 107 110
f 108 109 115
f 108 115 107
f 103 114 96
f 103 104 114
f 104 111 114
f 104 110 111
f 94 113 105
f 94 112 113
f 94 123 112
f 105 109 106
f 105 113 109
f 107 115 110
f 102 114 120
f 111 110 116
f 109 117 115
f 110 115 119
f 110 119 116
f 111 116 114
f 114 116 139
f 113 118 109
f 115 117 119
f 109 118 117
f 118 151 117
f 119 150 116
f 102 120 129
f 130 129 120
f 114 139 120
f 116 143 139
f 143 116 140
f 4 131 121
f 5 121 100
f 4 126 131
f 3 100 97
f 97 122 98
f 98 122 123
f 97 100 122
f 123 124 112
f 113 112 125
f 113 125 118
f 124 141 112
f 93 127 126
f 93 129 127
f 129 128 127
f 131 132 121
f 126 127 131
f 6 128 129
f 127 128 6
f 6 129 133
f 129 130 133
f 131 9 132
f 132 135 121
f 7 133 130
f 6 133 7
f 7 130 137
f 130 120 134
f 121 135 182
f 121 136 100
f 121 182 136
f 9 135 132
f 9 138 135
f 100 136 122
f 122 136 145
f 137 130 158
f 130 134 158
f 120 139 134
f 142 139 143
f 143 140 144
f 112 141 125
f 118 125 151
f 139 142 134
f 134 142 160
f 142 143 160
f 160 143 144
f 144 140 149
f 122 145 123
f 123 145 124
f 141 146 125
f 125 146 155
f 124 185 141
f 144 148 160
f 145 183 124
f 124 184 185
f 148 144 149
f 149 147 161
f 141 185 146
f 119 117 150
f 116 150 140
f 150 117 152
f 150 152 140
f 151 153 117
f 117 153 152
f 152 149 140
f 151 125 155
f 152 153 154
f 152 154 149
f 151 155 153
f 149 154 147
f 154 153 147
f 153 156 147
f 153 155 156
f 147 156 161
f 155 195 156
f 155 146 195
f 156 195 161
f 137 158 67
f 137 67 28
f 67 158 187
f 187 158 134
f 134 160 187
f 187 160 188
f 160 189 188
f 160 148 198
f 160 198 189
f 148 149 194
f 135 138 182
f 9 192 138
f 138 192 182
f 182 145 136
f 182 193 145
f 124 183 184
f 146 197 195
f 185 186 146
f 186 197 146
f 67 187 68
f 187 188 68
f 68 188 69
f 188 190 69
f 188 189 190
f 190 189 198
f 198 191 190
f 71 214 192
f 192 214 193
f 192 193 182
f 145 193 183
f 193 217 183
f 214 217 193
f 148 194 198
f 196 195 197
f 149 161 194
f 194 161 195
f 184 204 185
f 202 194 195
f 197 206 210
f 195 196 210
f 196 197 210
f 186 206 197
f 198 194 199
f 198 199 191
f 199 194 200
f 194 202 200
f 199 200 191
f 202 195 210
f 183 203 184
f 183 217 203
f 203 205 184
f 204 205 185
f 206 186 185
f 205 206 185
f 184 205 204
f 210 213 212
f 210 212 200
f 203 217 205
f 207 209 206
f 205 222 209
f 205 209 207
f 211 206 208
f 211 208 212
f 206 209 208
f 211 210 206
f 202 210 200
f 205 207 206
f 211 213 210
f 211 212 213
f 88 215 214
f 214 215 216
f 214 218 217
f 217 218 221
f 214 216 218
f 217 221 205
f 205 221 222
f 479 480 571
f 523 513 514
f 523 515 513
f 589 516 515
f 523 589 515
f 580 516 589
f 525 523 514
f 520 479 525
f 525 522 523
f 525 509 518
f 525 514 509
f 524 520 525
f 524 525 518
f 527 524 526
f 524 527 520
f 527 521 520
f 527 526 528
f 527 528 530
f 527 531 521
f 520 521 479
f 531 527 532
f 531 532 521
f 532 527 533
f 480 479 521
f 479 522 525
f 480 521 534
f 532 535 534
f 521 532 534
f 532 533 535
f 535 537 536
f 535 536 545
f 540 738 569
f 527 530 533
f 533 530 538
f 533 538 537
f 537 538 541
f 535 533 537
f 537 541 540
f 540 541 542
f 540 542 594
f 537 540 536
f 480 534 665
f 534 544 665
f 535 545 534
f 534 545 544
f 545 672 544
f 545 547 672
f 545 546 547
f 547 546 668
f 672 548 659
f 547 548 672
f 698 549 695
f 695 549 551
f 695 550 702
f 695 551 550
f 550 551 553
f 551 549 553
f 549 552 553
f 546 545 536
f 546 536 569
f 540 569 536
f 479 590 522
f 479 573 590
f 479 571 572
f 479 572 573
f 666 574 600
f 590 573 666
f 600 577 575
f 666 679 574
f 600 574 680
f 600 680 577
f 516 580 584
f 584 581 516
f 591 583 581
f 584 591 581
f 603 585 583
f 591 603 583
f 603 604 585
f 604 588 585
f 580 591 584
f 523 522 590
f 589 666 580
f 589 590 666
f 523 590 589
f 580 666 591
f 600 591 666
f 540 594 592
f 592 594 595
f 592 595 596
f 540 592 738
f 596 598 597
f 597 598 599
f 593 596 597
f 592 596 593
f 591 600 603
f 601 614 612
f 601 612 602
f 603 601 604
f 604 608 588
f 601 608 604
f 608 610 609
f 608 609 588
f 610 605 609
f 606 605 610
f 606 607 605
f 601 602 608
f 608 602 610
f 606 610 620
f 610 613 620
f 606 619 607
f 575 603 600
f 576 601 603
f 575 576 603
f 576 578 601
f 578 614 601
f 610 602 613
f 613 602 620
f 611 619 615
f 611 615 686
f 597 599 616
f 617 607 619
f 616 607 617
f 616 599 607
f 597 616 611
f 616 617 611
f 606 620 619
f 611 617 619
f 619 620 615
f 656 657 692
f 658 657 544
f 658 694 657
f 657 694 692
f 675 656 661
f 657 656 675
f 675 661 660
f 660 661 662
f 662 663 679
f 664 713 682
f 679 663 664
f 664 712 713
f 665 571 480
f 665 671 571
f 571 671 675
f 544 670 665
f 572 667 666
f 571 675 572
f 572 660 667
f 572 675 660
f 668 546 678
f 546 669 678
f 573 572 666
f 676 669 739
f 665 670 671
f 657 670 544
f 658 544 672
f 657 671 670
f 671 657 675
f 659 658 672
f 548 673 698
f 547 673 548
f 673 547 674
f 668 678 547
f 547 678 674
f 678 669 674
f 674 669 676
f 676 739 677
f 666 667 679
f 679 681 680
f 667 662 679
f 667 660 662
f 680 681 682
f 682 577 680
f 682 731 577
f 574 679 680
f 739 742 685
f 575 577 731
f 575 731 576
f 602 612 683
f 685 686 689
f 686 683 689
f 689 683 684
f 677 739 687
f 664 681 679
f 664 682 681
f 689 691 690
f 690 691 684
f 739 685 688
f 687 739 688
f 688 685 689
f 689 684 691
f 692 694 696
f 695 696 694
f 692 696 693
f 656 697 661
f 656 693 697
f 695 694 658
f 659 695 658
f 656 692 693
f 548 698 659
f 698 673 699
f 659 698 695
f 698 699 549
f 549 700 706
f 549 725 700
f 700 701 707
f 701 726 705
f 695 702 696
f 550 704 702
f 702 704 696
f 550 553 704
f 553 552 704
f 552 554 704
f 554 552 703
f 696 704 693
f 693 704 697
f 704 705 726
f 554 705 704
f 704 726 718
f 704 718 719
f 549 706 552
f 552 706 700
f 552 700 703
f 703 700 707
f 703 707 554
f 554 707 705
f 701 705 707
f 662 708 709
f 661 697 708
f 661 708 662
f 662 709 663
f 663 709 710
f 726 727 718
f 663 711 664
f 663 710 711
f 711 712 664
f 712 714 713
f 737 724 736
f 713 714 722
f 713 715 737
f 713 722 715
f 716 737 715
f 716 720 737
f 728 729 724
f 728 724 723
f 737 720 724
f 704 708 697
f 704 709 708
f 704 719 717
f 704 721 709
f 704 717 722
f 704 722 721
f 719 720 717
f 710 709 711
f 721 712 711
f 709 721 711
f 721 714 712
f 721 722 714
f 715 722 716
f 717 716 722
f 717 720 716
f 718 723 719
f 719 723 724
f 718 728 723
f 719 724 720
f 674 699 673
f 549 699 725
f 674 725 699
f 725 676 700
f 674 676 725
f 677 701 700
f 676 677 700
f 677 687 701
f 687 726 701
f 726 688 727
f 718 727 728
f 687 688 726
f 688 689 727
f 689 728 727
f 690 729 728
f 690 724 729
f 689 690 728
f 730 713 737
f 731 735 576
f 578 576 732
f 614 732 735
f 578 732 614
f 614 735 612
f 576 735 732
f 612 735 683
f 731 682 733
f 730 733 682
f 731 733 734
f 731 734 735
f 734 736 735
f 735 736 690
f 735 690 684
f 713 730 682
f 737 734 733
f 730 737 733
f 734 737 736
f 690 736 724
f 683 735 684
f 546 569 738
f 546 738 669
f 738 611 739
f 592 593 738
f 593 597 738
f 669 738 739
f 597 611 738
f 739 611 742
f 685 742 611
f 685 611 686
f 602 683 620
f 620 683 615
f 686 615 683
