v 0.047929 -0.030455 -0.058299
v 0.031309 -0.039538 -0.038674
v 0.025401 -0.038338 -0.031053
v 0.029111 -0.038804 -0.026560
v 0.036232 -0.038211 -0.033654
v 0.023237 -0.034676 -0.039828
v 0.021696 -0.031451 -0.037184
v 0.025290 -0.024753 -0.040473
v 0.029294 -0.035740 -0.043711
v 0.026769 -0.035991 -0.041970
v 0.026035 -0.028438 -0.045616
v 0.033697 -0.035402 -0.043433
v 0.033211 -0.028133 -0.045363
v 0.029582 -0.025638 -0.044406
v 0.037076 -0.028971 -0.042452
v 0.022589 -0.034356 -0.028746
v 0.025145 -0.034250 -0.024733
v 0.026215 -0.030582 -0.022522
v 0.020955 -0.030508 -0.030420
v 0.023982 -0.025104 -0.028625
v 0.032944 -0.033851 -0.021643
v 0.032215 -0.029559 -0.020812
v 0.034626 -0.025405 -0.024865
v 0.037026 -0.028060 -0.025431
v 0.052629 -0.050000 -0.015420
v 0.051946 -0.041211 -0.030776
v 0.045580 -0.036810 -0.025195
v 0.037500 -0.030701 -0.041642
v 0.041124 -0.029768 -0.039868
v 0.050122 -0.038426 -0.043378
v 0.038694 -0.034348 -0.037743
v 0.039388 -0.032738 -0.030629
v 0.035887 -0.036895 -0.028417
v 0.037684 -0.031467 -0.025999
v 0.038746 -0.026283 -0.032918
v 0.037023 -0.024847 -0.037396
v 0.038416 -0.026993 -0.012843
v 0.037878 -0.026201 -0.029833
v 0.050613 -0.014330 -0.078250
v 0.039368 -0.014979 -0.059508
v 0.041727 -0.004014 -0.069262
v 0.032201 -0.022943 -0.040003
v 0.033509 -0.014757 -0.038109
v 0.027850 -0.021967 -0.030052
v 0.032489 -0.021296 -0.032663
v 0.035329 -0.023045 -0.033594
v 0.028495 -0.023847 -0.026029
v 0.032043 -0.024457 -0.025049
v 0.032716 0.002802 -0.045078
v 0.031020 -0.004524 -0.016170
v 0.038942 -0.023750 -0.045046
v -0.016115 -0.034454 0.028558
v -0.012323 -0.035217 0.025826
v -0.013634 -0.030424 0.022033
v -0.008745 -0.031528 0.022110
v -0.018567 -0.029467 0.028991
v -0.016531 -0.028185 0.024583
v -0.014546 -0.024239 0.024131
v -0.019293 -0.025473 0.033594
v -0.010577 -0.027833 0.021068
v -0.010199 -0.025880 0.021885
v -0.004868 -0.033499 0.025585
v -0.004727 -0.035041 0.028994
v -0.005376 -0.029728 0.023318
v -0.005417 -0.026986 0.022730
v -0.002350 -0.027187 0.027633
v -0.015782 -0.035458 0.032604
v -0.016152 -0.034546 0.038597
v -0.018522 -0.031952 0.034561
v -0.011552 -0.037335 0.032433
v -0.008466 -0.037438 0.035357
v -0.013785 -0.034211 0.042174
v -0.009402 -0.035421 0.041250
v -0.014027 -0.033630 0.041970
v -0.019341 -0.029512 0.034341
v -0.017598 -0.029649 0.040574
v -0.014699 -0.031121 0.043441
v -0.015489 -0.026942 0.043483
v -0.009269 -0.031052 0.045867
v -0.009415 -0.032068 0.044787
v -0.009101 -0.027828 0.046293
v -0.007473 -0.036676 0.030313
v -0.003077 -0.034148 0.036298
v -0.000772 -0.029481 0.032991
v -0.005487 -0.034275 0.040669
v -0.001203 -0.027508 0.035436
v -0.005699 -0.025559 0.043441
v -0.002741 -0.028720 0.040866
v -0.003881 -0.029785 0.042038
v -0.016658 -0.021790 0.031138
v -0.010892 -0.020874 0.025888
v -0.010199 -0.020684 0.027195
v -0.007423 -0.021933 0.025629
v -0.003744 -0.023367 0.027986
v -0.017320 -0.022506 0.034646
v -0.014595 -0.020488 0.035209
v -0.010324 -0.019092 0.034486
v -0.015438 -0.023087 0.040802
v -0.009261 -0.023294 0.044178
v -0.010996 -0.021259 0.041250
v -0.012980 -0.021059 0.039680
v -0.008737 -0.019780 0.030394
v -0.005803 -0.020488 0.031979
v -0.007910 -0.020242 0.038317
v -0.006294 -0.020576 0.036757
v -0.003087 -0.022711 0.032573
v -0.003079 -0.023435 0.038125
v -0.007860 -0.024435 0.044094
v -0.004005 -0.024512 0.040748
v 0.030597 -0.030701 -0.021422
v 0.051557 -0.040260 -0.012513
v 0.053659 -0.041754 -0.014906
v 0.049132 -0.034378 0.003411
v 0.051657 -0.031857 0.011138
v 0.034926 -0.018868 -0.015030
v 0.043578 -0.017912 0.015891
v 0.039125 -0.008744 0.011991
v 0.064270 -0.026209 0.029774
v 0.050438 -0.005784 0.029427
v 0.047274 0.017686 -0.072362
v 0.035198 0.006159 -0.052810
v 0.040646 0.004829 -0.066614
v 0.041501 0.015263 -0.062987
v 0.043003 0.030943 -0.047908
v 0.031902 0.009685 -0.027599
v 0.027335 0.022116 -0.036243
v 0.029334 0.024911 -0.043543
v 0.025022 0.023392 -0.029692
v 0.033486 0.023215 -0.040028
v 0.031173 0.021576 -0.028332
v 0.032591 0.025277 -0.023257
v 0.036335 0.023205 -0.031156
v 0.038058 0.026445 -0.038382
v 0.035814 0.023376 -0.033763
v 0.045577 0.026802 -0.058174
v 0.025085 0.028545 -0.042927
v 0.023006 0.028980 -0.041125
v 0.023127 0.032895 -0.040910
v 0.026527 0.037131 -0.040446
v 0.031289 0.030377 -0.046614
v 0.035335 0.029333 -0.044436
v 0.029294 0.035740 -0.043711
v 0.035461 0.037357 -0.040755
v 0.021259 0.031380 -0.027110
v 0.023946 0.030133 -0.024244
v 0.025116 0.038409 -0.031843
v 0.031221 0.032655 -0.020420
v 0.026769 0.025411 -0.025217
v 0.033353 0.028794 -0.021896
v 0.032098 0.037253 -0.024179
v 0.030597 0.036972 -0.024673
v 0.027973 0.039359 -0.030037
v 0.032519 0.040054 -0.032829
v 0.035691 0.038144 -0.031801
v 0.038253 0.030701 -0.039993
v 0.036486 0.037075 -0.037313
v 0.039444 0.033141 -0.035362
v 0.039723 0.030701 -0.031418
v 0.037996 0.029392 -0.026613
v 0.039254 0.030701 -0.030268
v 0.037878 0.035201 -0.037355
v 0.038281 0.034135 -0.028940
v 0.036791 0.034529 -0.026439
v 0.052534 0.041487 -0.033549
v 0.050594 0.040666 -0.025195
v 0.045044 0.036451 -0.022847
v 0.053684 0.050000 -0.037738
v -0.015716 0.022271 0.027665
v -0.010199 0.021499 0.025406
v -0.011075 0.023124 0.023155
v -0.006073 0.021374 0.027947
v -0.004123 0.024706 0.025472
v -0.015631 0.020950 0.034331
v -0.017794 0.023515 0.035548
v -0.010199 0.019271 0.029769
v -0.009039 0.018992 0.033594
v -0.010199 0.019581 0.036931
v -0.013756 0.022633 0.042238
v -0.017149 0.025792 0.040836
v -0.011007 0.021624 0.042252
v -0.003003 0.022601 0.036646
v -0.001828 0.024767 0.030417
v -0.004867 0.022174 0.039646
v -0.003102 0.025135 0.039964
v -0.015931 0.027590 0.023916
v -0.018433 0.027532 0.028419
v -0.013824 0.032421 0.023691
v -0.017106 0.032772 0.027962
v -0.011010 0.027010 0.021428
v -0.010423 0.031290 0.021730
v -0.010878 0.033870 0.023906
v -0.010293 0.036472 0.027489
v -0.005253 0.029495 0.022747
v -0.004624 0.027639 0.023914
v -0.002800 0.029649 0.026613
v -0.006371 0.033630 0.025217
v -0.008753 0.034584 0.025049
v -0.018962 0.025874 0.033594
v -0.018962 0.030805 0.033594
v -0.019099 0.029495 0.036550
v -0.012474 0.025495 0.045073
v -0.017286 0.029106 0.041189
v -0.012547 0.028400 0.045672
v -0.015153 0.032381 0.042430
v -0.017096 0.034067 0.036475
v -0.014951 0.036260 0.033744
v -0.014104 0.036104 0.030430
v -0.010989 0.036981 0.038783
v -0.010983 0.032068 0.044787
v -0.009402 0.035421 0.041250
v -0.002760 0.033278 0.030117
v -0.001203 0.029171 0.035436
v -0.005975 0.025962 0.044267
v -0.006278 0.029790 0.044582
v -0.002911 0.030503 0.040583
v -0.003881 0.029785 0.042038
v -0.007471 0.036912 0.031427
v -0.006294 0.036104 0.036757
v -0.003261 0.034068 0.036510
v -0.005467 0.035996 0.033594
v -0.008406 0.035378 0.041915
v -0.002918 0.032840 0.037355
v 0.033379 -0.001587 -0.002156
v 0.035694 0.012958 0.002974
v 0.037669 0.024665 -0.015146
v 0.038371 0.018353 0.003277
v 0.044004 0.003767 0.021646
v 0.053914 0.009464 0.031820
v 0.052326 0.020956 0.024243
v 0.030597 0.030701 -0.021422
v 0.045288 0.030711 0.001824
v 0.052071 0.036661 0.001444
v 0.052126 0.050000 -0.019762
v 0.064054 -0.038286 -0.062409
v 0.067417 -0.029161 -0.076294
v 0.071885 -0.037493 -0.065729
v 0.087234 -0.034262 -0.063685
v 0.078546 -0.025573 -0.079567
v 0.056670 -0.040086 -0.049838
v 0.062240 -0.042323 -0.050004
v 0.064582 -0.044827 -0.042774
v 0.064863 -0.050000 -0.043906
v 0.053201 -0.050000 -0.034160
v 0.058142 -0.043216 -0.040632
v 0.069895 -0.046191 -0.041516
v 0.086790 -0.043964 -0.038906
v 0.092504 -0.036947 -0.052889
v 0.076798 -0.047006 -0.032042
v 0.076117 -0.050000 -0.033424
v 0.088716 -0.044054 -0.029890
v 0.059441 -0.019530 -0.080752
v 0.059405 -0.002046 -0.087077
v 0.071761 -0.010330 -0.088563
v 0.086509 -0.009513 -0.085237
v 0.090426 -0.012831 -0.080316
v 0.099190 -0.023914 -0.060799
v 0.103666 -0.029859 -0.035285
v 0.101915 -0.027323 -0.048454
v 0.095017 -0.040479 -0.022155
v 0.118621 -0.026440 -0.058114
v 0.097220 -0.011388 -0.074651
v 0.099233 -0.019889 -0.064642
v 0.102279 -0.011677 -0.065351
v 0.105699 -0.006036 -0.060533
v 0.122621 -0.018547 -0.061437
v 0.118621 -0.014816 -0.066071
v 0.118621 -0.016696 -0.061405
v 0.118621 -0.009185 -0.061573
v 0.122621 -0.010004 -0.058839
v 0.122621 -0.008123 -0.056295
v 0.105920 -0.024147 -0.038956
v 0.118621 -0.022730 -0.054627
v 0.118621 -0.023937 -0.042610
v 0.122621 -0.023500 -0.049539
v 0.122621 -0.023084 -0.045986
v 0.122621 -0.021877 -0.042782
v 0.122621 -0.019996 -0.040239
v 0.110908 -0.012860 -0.033311
v 0.110614 -0.015268 -0.030921
v 0.118621 -0.022957 -0.037391
v 0.118621 -0.019034 -0.036086
v 0.118621 -0.015000 -0.033310
v 0.122621 -0.016544 -0.038117
v 0.118121 -0.017000 -0.028576
v 0.108094 -0.003604 -0.055015
v 0.110593 -0.003204 -0.045911
v 0.111576 -0.006070 -0.038661
v 0.118621 -0.006500 -0.049539
v 0.122621 -0.006479 -0.051075
v 0.118621 -0.007287 -0.040938
v 0.122621 -0.009187 -0.040986
v 0.122621 -0.006916 -0.045986
v 0.118621 -0.004154 -0.056705
v 0.118621 -0.002961 -0.046993
v 0.112226 -0.007956 -0.028584
v 0.118621 -0.009426 -0.034800
v 0.122621 -0.012373 -0.038606
v 0.126621 -0.002409 -0.025692
v 0.066003 -0.046646 -0.007792
v 0.060337 -0.043808 -0.008540
v 0.070302 -0.050000 -0.009245
v 0.070289 -0.042802 0.004263
v 0.073159 -0.046908 -0.011635
v 0.077417 -0.047955 -0.022263
v 0.080721 -0.045434 -0.008355
v 0.064346 -0.026548 0.027501
v 0.062530 -0.036231 0.014506
v 0.077505 -0.032200 0.021873
v 0.071990 -0.033388 0.020497
v 0.085968 -0.038376 0.006937
v 0.097816 -0.017848 0.019935
v 0.065255 -0.006390 0.038604
v 0.082030 -0.022975 0.029825
v 0.079304 -0.007105 0.037519
v 0.094520 -0.004737 0.029026
v 0.091779 -0.041084 -0.016767
v 0.097868 -0.035817 -0.013122
v 0.095259 -0.035702 -0.004495
v 0.098227 -0.034265 -0.007668
v 0.103607 -0.030722 -0.007969
v 0.101201 -0.030922 -0.009273
v 0.093074 -0.037214 -0.002959
v 0.092934 -0.035802 0.000753
v 0.092547 -0.035921 0.001648
v 0.097274 -0.036595 -0.003436
v 0.100299 -0.037240 0.000805
v 0.093620 -0.034106 0.010028
v 0.092142 -0.032436 0.009081
v 0.100997 -0.036527 0.006800
v 0.098585 -0.034398 0.011097
v 0.093549 -0.029156 0.012357
v 0.105155 -0.033786 -0.001887
v 0.106765 -0.026066 -0.001213
v 0.104406 -0.030411 0.010100
v 0.103200 -0.026942 0.011569
v 0.107487 -0.028055 0.003982
v 0.097822 -0.029698 0.014000
v 0.097940 -0.026965 0.014015
v 0.096900 -0.024811 0.012735
v 0.103953 -0.026070 -0.006864
v 0.106202 -0.023901 -0.009711
v 0.104518 -0.023350 -0.002910
v 0.103692 -0.023036 0.008275
v 0.103651 -0.021386 0.003207
v 0.104154 -0.022021 0.003635
v 0.109292 -0.017033 -0.009696
v 0.126621 -0.013259 -0.010293
v 0.118121 -0.013360 -0.009123
v 0.126621 -0.010164 -0.018576
v 0.118121 -0.005272 0.010138
v 0.126621 -0.009591 0.005030
v 0.092415 -0.014678 0.026775
v 0.099697 -0.022385 0.010764
v 0.101975 -0.016566 0.013154
v 0.102147 -0.007620 0.017447
v 0.104990 -0.016000 0.017439
v 0.096465 -0.014482 0.023267
v 0.105470 -0.001301 0.014326
v 0.118121 -0.017000 0.013348
v 0.060783 0.013426 -0.084832
v 0.061244 0.028774 -0.074750
v 0.069509 0.020863 -0.083127
v 0.072552 0.006541 -0.089382
v 0.085635 0.009126 -0.084871
v 0.081562 0.019475 -0.082342
v 0.086664 0.025788 -0.074567
v 0.059859 0.038262 -0.059943
v 0.066751 0.039146 -0.061886
v 0.076790 0.031062 -0.073412
v 0.077352 0.036061 -0.067382
v 0.080408 0.042986 -0.052826
v 0.050687 0.037710 -0.047302
v 0.059684 0.043522 -0.042160
v 0.058454 0.043278 -0.040785
v 0.068568 0.047069 -0.042226
v 0.072533 0.047522 -0.039734
v 0.085686 0.043038 -0.043538
v 0.075001 0.046651 -0.035537
v 0.078035 0.048596 -0.025803
v 0.077490 0.047063 -0.025195
v 0.087828 0.044011 -0.029245
v 0.093166 0.011089 -0.078279
v 0.106293 0.005284 -0.059362
v 0.098547 0.011281 -0.072297
v 0.102337 0.011437 -0.065286
v 0.099224 0.027252 -0.057725
v 0.099799 0.017911 -0.065283
v 0.118621 0.015040 -0.066034
v 0.122621 0.010325 -0.059541
v 0.118621 0.015899 -0.061561
v 0.122621 0.016544 -0.060960
v 0.118621 0.021245 -0.062941
v 0.122621 0.021164 -0.057640
v 0.104637 0.025615 -0.041730
v 0.107922 0.022414 -0.036224
v 0.109642 0.002874 -0.049806
v 0.111427 0.004847 -0.040525
v 0.118621 0.002588 -0.056481
v 0.119154 0.006991 -0.054816
v 0.122621 0.006500 -0.049539
v 0.118621 0.011453 -0.037640
v 0.122621 0.007270 -0.044450
v 0.122621 0.010982 -0.039269
v 0.112853 0.002647 -0.028595
v 0.110983 0.012525 -0.033336
v 0.110192 0.016986 -0.028554
v 0.118121 -0.003362 -0.026154
v 0.118621 0.007186 -0.036981
v 0.122621 0.023084 -0.053091
v 0.118621 0.021931 -0.038606
v 0.118621 0.025062 -0.044438
v 0.122621 0.023443 -0.047360
v 0.109282 0.017931 -0.033807
v 0.118621 0.013150 -0.033415
v 0.122621 0.015000 -0.038043
v 0.122621 0.019675 -0.039536
v 0.118121 0.017000 -0.028576
v 0.118621 0.018799 -0.034054
v 0.100311 0.026988 -0.054315
v 0.094305 0.037606 -0.043344
v 0.101139 0.027046 -0.051294
v 0.100870 0.034145 -0.032573
v 0.102427 0.031803 -0.027754
v 0.118621 0.026823 -0.053269
v 0.058403 0.001845 0.035553
v 0.067381 0.011998 0.037058
v 0.068750 0.024762 0.030173
v 0.082676 0.010872 0.035435
v 0.080611 0.024395 0.029016
v 0.055291 0.042370 -0.012526
v 0.063471 0.044562 -0.007267
v 0.056588 0.040020 0.001806
v 0.055483 0.050000 -0.012145
v 0.060473 0.050000 -0.008475
v 0.064019 0.041664 0.003497
v 0.075991 0.047590 -0.017228
v 0.072791 0.046378 -0.011501
v 0.068980 0.050000 -0.008324
v 0.081226 0.046757 -0.020774
v 0.087638 0.043622 -0.012185
v 0.076909 0.041964 0.004313
v 0.086953 0.036314 0.009871
v 0.054615 0.027920 0.019014
v 0.062760 0.031979 0.020271
v 0.062305 0.036036 0.013787
v 0.066071 0.028232 0.025826
v 0.070788 0.039487 0.011632
v 0.078551 0.032955 0.019904
v 0.093385 0.029810 0.012240
v 0.092014 0.033591 0.007659
v 0.104695 0.027026 -0.012076
v 0.104372 0.025679 -0.006530
v 0.106676 0.025423 -0.000268
v 0.104359 0.022298 -0.000763
v 0.103439 0.021431 0.003687
v 0.102344 0.021581 0.008378
v 0.099473 0.022753 0.010936
v 0.098884 0.024602 0.013311
v 0.126621 0.009591 -0.020258
v 0.118121 0.010745 0.003750
v 0.126621 -0.001700 0.009912
v 0.126621 0.007832 0.007452
v 0.109141 0.017076 -0.009552
v 0.118121 0.011964 -0.016501
v 0.126621 0.013206 -0.007107
v 0.097327 0.003854 0.024924
v 0.101956 0.006174 0.017439
v 0.105470 0.000000 0.014676
v 0.105118 0.000132 0.014321
v 0.105470 0.001301 0.014326
v 0.101097 0.011351 0.017496
v 0.099175 0.016044 0.017626
v 0.085348 0.009384 0.035676
v 0.097235 0.024459 0.012563
v 0.091707 0.023057 0.022627
v 0.101710 0.016974 0.013123
v 0.104419 0.015804 0.015657
v 0.118121 0.017000 0.013348
v 0.103858 0.026530 -0.007458
v 0.102526 0.028976 -0.008607
v 0.105371 0.032275 -0.004332
v 0.097868 0.035817 -0.013122
v 0.101493 0.030937 -0.009264
v 0.097387 0.035366 -0.007098
v 0.101230 0.034732 -0.005863
v 0.090881 0.038832 -0.002411
v 0.094684 0.037040 0.001921
v 0.093406 0.036039 -0.000618
v 0.096236 0.035265 -0.005912
v 0.099263 0.037335 0.002840
v 0.094084 0.032282 0.011596
v 0.091929 0.034525 0.006648
v 0.106990 0.029708 0.004901
v 0.102410 0.025559 0.011527
v 0.104403 0.029736 0.010484
v 0.099089 0.034736 0.010652
v 0.105132 0.034989 0.002755
v 0.100692 0.035621 0.007766
v 0.105192 0.032840 0.005441
v 0.094867 0.027028 0.013501
v 0.095374 0.026460 0.013012
v 0.099114 0.030320 0.013575
v 0.100249 0.032245 0.012180
g camera
f 243 25 26
f 25 112 26
f 167 165 233
f 165 433 233
f 242 244 241
f 242 241 245
f 242 243 244
f 243 26 244
f 243 242 25
f 242 248 249
f 242 245 248
f 242 249 304
f 249 248 304
f 242 299 25
f 25 300 112
f 25 299 300
f 242 301 299
f 242 303 301
f 301 303 299
f 242 304 303
f 374 167 375
f 374 164 167
f 165 167 164
f 375 167 376
f 378 376 379
f 167 379 376
f 165 430 433
f 233 433 167
f 167 433 434
f 430 431 433
f 433 431 434
f 167 434 438
f 167 438 436
f 434 431 438
f 437 438 431
f 167 436 379
f 380 379 436
f 437 436 438
f 1 239 30
f 30 26 27
f 26 112 27
f 1 29 51
f 1 30 29
f 30 27 29
f 29 27 37
f 40 39 1
f 40 41 39
f 39 41 122
f 43 49 40
f 40 49 121
f 43 50 49
f 40 51 43
f 1 51 40
f 51 29 43
f 43 29 37
f 43 37 115
f 40 121 41
f 27 112 111
f 27 113 37
f 111 113 27
f 113 114 116
f 43 115 50
f 50 117 223
f 37 116 115
f 50 115 116
f 113 116 37
f 50 116 117
f 116 114 118
f 117 119 227
f 116 119 117
f 116 312 119
f 39 122 120
f 39 120 252
f 41 121 122
f 120 122 123
f 122 121 123
f 123 124 120
f 124 135 120
f 49 50 125
f 49 125 134
f 49 134 121
f 123 121 134
f 123 134 124
f 135 372 120
f 135 124 372
f 372 124 164
f 124 134 166
f 124 166 164
f 164 166 165
f 223 224 50
f 125 50 224
f 125 224 134
f 134 224 225
f 224 226 225
f 117 224 223
f 117 227 224
f 227 119 228
f 227 228 224
f 228 119 425
f 228 229 224
f 224 229 226
f 226 229 231
f 225 231 134
f 134 231 166
f 225 226 231
f 231 232 166
f 166 430 165
f 430 166 432
f 232 432 166
f 229 443 231
f 234 235 236
f 1 39 234
f 234 39 235
f 39 251 235
f 234 236 245
f 235 238 236
f 236 238 237
f 1 234 239
f 239 240 244
f 234 240 239
f 239 244 30
f 241 244 240
f 234 245 240
f 240 245 241
f 30 244 26
f 245 246 248
f 236 247 245
f 246 245 247
f 236 237 247
f 246 250 248
f 250 259 248
f 248 305 304
f 248 259 305
f 39 252 251
f 251 253 235
f 235 253 238
f 251 252 253
f 252 363 253
f 253 254 238
f 254 255 238
f 237 238 261
f 238 255 261
f 237 256 247
f 246 247 257
f 256 258 247
f 247 258 257
f 257 258 271
f 246 257 250
f 250 257 259
f 237 261 256
f 256 261 262
f 261 263 262
f 255 254 261
f 261 264 263
f 257 271 279
f 257 279 346
f 278 295 279
f 285 396 286
f 287 286 404
f 278 287 295
f 287 404 295
f 112 300 111
f 111 300 113
f 300 299 302
f 299 303 305
f 299 305 302
f 300 302 113
f 113 302 307
f 114 113 307
f 304 305 303
f 259 316 305
f 305 310 302
f 305 322 310
f 307 306 114
f 307 309 306
f 302 308 307
f 302 310 308
f 307 308 309
f 306 309 308
f 308 118 306
f 308 310 313
f 310 331 311
f 310 311 313
f 118 114 306
f 116 118 312
f 312 425 119
f 308 313 118
f 311 357 313
f 118 313 312
f 312 313 314
f 313 352 315
f 313 315 314
f 314 315 473
f 316 259 317
f 305 316 317
f 305 317 322
f 317 318 322
f 317 319 318
f 319 317 321
f 317 259 341
f 257 341 259
f 317 341 321
f 341 340 321
f 322 318 323
f 322 323 310
f 323 324 310
f 310 324 328
f 310 328 331
f 331 339 311
f 257 346 341
f 340 341 342
f 341 346 342
f 342 346 344
f 344 346 354
f 344 311 353
f 344 354 311
f 339 353 311
f 357 311 355
f 313 357 352
f 352 357 315
f 357 355 315
f 120 360 252
f 252 360 363
f 120 361 360
f 360 361 362
f 360 362 363
f 253 363 254
f 363 364 254
f 363 362 365
f 363 365 364
f 364 365 382
f 120 372 361
f 372 367 361
f 361 367 368
f 361 368 370
f 362 361 369
f 362 369 365
f 361 370 369
f 365 369 366
f 366 369 370
f 370 371 366
f 366 371 386
f 367 372 373
f 372 164 374
f 372 374 373
f 367 373 375
f 373 374 375
f 367 375 368
f 368 375 371
f 375 376 371
f 370 368 371
f 371 376 378
f 371 377 386
f 371 439 377
f 371 378 379
f 371 379 439
f 379 380 439
f 439 381 377
f 364 382 254
f 254 382 384
f 261 254 384
f 264 261 383
f 261 384 383
f 264 383 285
f 285 383 396
f 383 384 385
f 365 366 382
f 382 366 384
f 366 386 384
f 384 386 387
f 384 387 385
f 286 396 397
f 286 397 404
f 397 405 404
f 404 405 406
f 405 413 406
f 395 406 413
f 395 463 406
f 386 420 419
f 419 422 421
f 420 422 419
f 421 422 394
f 394 422 395
f 395 422 423
f 377 420 386
f 377 381 420
f 422 420 381
f 422 381 440
f 425 312 228
f 228 312 426
f 229 427 446
f 228 426 229
f 229 426 427
f 314 473 312
f 312 473 426
f 473 428 426
f 428 429 426
f 426 429 427
f 428 475 429
f 428 473 475
f 231 432 232
f 430 432 431
f 432 435 431
f 431 447 437
f 432 445 435
f 431 435 447
f 380 436 439
f 436 437 439
f 437 441 439
f 381 439 440
f 439 441 440
f 447 441 437
f 440 442 486
f 441 442 440
f 231 443 432
f 443 444 432
f 229 444 443
f 229 446 444
f 444 445 432
f 445 444 447
f 446 447 444
f 435 445 447
f 446 427 447
f 427 429 448
f 447 448 442
f 427 448 447
f 429 449 450
f 475 449 429
f 429 450 442
f 448 429 442
f 441 447 442
f 395 451 463
f 463 451 452
f 452 454 463
f 463 455 476
f 463 454 455
f 476 455 456
f 476 456 457
f 466 473 315
f 466 471 473
f 315 355 467
f 315 467 471
f 466 315 471
f 472 475 473
f 471 472 473
f 472 457 475
f 474 475 457
f 476 472 477
f 476 457 472
f 486 489 482
f 489 484 482
f 395 482 451
f 451 482 480
f 451 480 479
f 452 451 479
f 423 482 395
f 423 422 482
f 483 480 482
f 484 483 482
f 486 488 489
f 486 442 488
f 488 442 492
f 492 442 450
f 422 440 482
f 440 486 482
f 449 475 500
f 475 474 501
f 475 501 500
f 279 284 346
f 279 295 284
f 284 295 404
f 284 404 417
f 284 417 407
f 284 359 346
f 284 407 348
f 284 348 359
f 346 359 354
f 348 350 359
f 469 354 478
f 359 478 354
f 404 406 417
f 407 417 464
f 350 460 478
f 406 463 478
f 417 406 478
f 417 478 464
f 463 476 478
f 464 478 460
f 476 477 478
f 478 477 469
f 359 350 478
f 407 347 348
f 407 349 347
f 407 298 349
f 348 351 350
f 348 347 351
f 347 349 351
f 351 349 461
f 350 351 461
f 407 459 298
f 407 464 459
f 298 459 349
f 349 459 465
f 459 464 465
f 350 462 460
f 349 462 461
f 350 461 462
f 349 465 462
f 460 462 465
f 464 460 465
f 256 260 258
f 258 273 271
f 258 260 273
f 256 262 260
f 262 263 266
f 262 266 260
f 260 267 272
f 260 266 267
f 263 268 266
f 263 264 268
f 264 285 293
f 264 293 268
f 266 268 267
f 260 272 273
f 271 280 279
f 271 273 280
f 279 280 281
f 279 281 278
f 278 281 282
f 278 282 296
f 273 281 280
f 281 296 282
f 285 286 294
f 285 294 293
f 286 287 294
f 290 287 296
f 287 290 294
f 268 293 294
f 268 294 288
f 288 294 290
f 278 296 287
f 290 296 281
f 272 267 265
f 267 268 265
f 268 269 265
f 268 270 269
f 272 265 274
f 272 274 273
f 273 274 275
f 274 265 275
f 273 275 276
f 273 276 277
f 273 277 283
f 275 265 276
f 276 265 277
f 273 283 281
f 277 265 283
f 265 297 283
f 281 283 297
f 270 268 289
f 268 288 289
f 288 290 289
f 269 270 265
f 270 289 265
f 265 289 292
f 291 281 297
f 290 281 291
f 289 290 292
f 290 291 292
f 265 292 291
f 265 291 297
f 385 387 388
f 386 392 387
f 386 419 392
f 385 388 398
f 383 385 398
f 398 390 399
f 388 390 398
f 387 392 388
f 388 392 390
f 392 424 411
f 383 398 396
f 396 398 397
f 397 398 408
f 398 399 401
f 398 401 408
f 397 408 405
f 405 408 414
f 408 401 414
f 394 395 410
f 405 418 413
f 405 414 418
f 395 413 418
f 395 418 410
f 401 418 414
f 410 418 401
f 419 421 424
f 392 419 424
f 421 394 411
f 421 411 424
f 394 410 411
f 390 389 399
f 389 390 391
f 391 393 389
f 391 390 393
f 390 392 393
f 399 400 402
f 399 389 400
f 400 389 402
f 399 402 401
f 401 402 403
f 402 389 403
f 403 389 415
f 389 416 415
f 392 411 393
f 393 411 409
f 411 412 409
f 393 409 389
f 389 409 412
f 410 401 416
f 411 410 412
f 410 416 412
f 389 412 416
f 401 403 415
f 401 415 416
f 356 311 354
f 356 355 311
f 356 354 469
f 356 467 355
f 356 469 477
f 356 477 467
f 477 471 467
f 477 472 471
f 318 319 325
f 319 321 320
f 321 340 320
f 320 340 333
f 318 324 323
f 324 318 325
f 325 326 324
f 324 326 329
f 327 328 324
f 324 329 327
f 329 330 327
f 328 327 331
f 325 319 326
f 326 319 332
f 320 332 319
f 326 332 329
f 329 334 330
f 332 336 329
f 329 336 334
f 332 320 333
f 332 333 336
f 333 340 342
f 334 336 335
f 336 343 335
f 327 330 337
f 327 337 331
f 331 337 338
f 331 338 339
f 334 337 330
f 337 335 338
f 334 335 337
f 335 353 338
f 333 342 344
f 333 344 336
f 336 344 345
f 335 343 353
f 343 345 344
f 343 344 353
f 336 345 343
f 338 353 339
f 454 452 453
f 454 453 455
f 457 456 458
f 458 456 494
f 453 456 455
f 474 457 458
f 479 480 481
f 480 483 481
f 479 481 452
f 483 484 485
f 485 497 483
f 500 491 449
f 488 492 487
f 488 484 489
f 488 487 484
f 484 487 490
f 450 449 491
f 491 492 450
f 487 492 496
f 487 496 490
f 491 496 492
f 452 481 453
f 453 481 493
f 494 456 495
f 456 453 493
f 493 495 456
f 485 484 497
f 484 490 497
f 483 497 481
f 493 481 497
f 495 496 503
f 495 497 496
f 496 498 490
f 490 498 497
f 496 497 498
f 495 493 499
f 495 499 497
f 493 497 499
f 501 474 458
f 500 501 458
f 500 502 491
f 502 496 491
f 502 503 496
f 494 495 458
f 500 458 502
f 458 495 502
f 495 503 502
f 3 2 4
f 2 5 4
f 5 33 4
f 6 7 11
f 6 9 10
f 2 10 9
f 2 6 10
f 2 9 12
f 6 11 9
f 9 11 12
f 11 13 12
f 13 15 12
f 11 8 14
f 14 13 11
f 2 3 6
f 3 16 6
f 6 16 7
f 7 19 11
f 7 16 19
f 19 20 11
f 11 20 8
f 17 19 16
f 17 18 19
f 19 18 20
f 3 17 16
f 3 4 17
f 18 17 4
f 18 4 21
f 4 33 21
f 18 22 20
f 22 47 20
f 22 23 48
f 22 24 23
f 12 31 2
f 12 15 28
f 12 28 31
f 13 36 15
f 5 2 31
f 5 31 32
f 5 32 33
f 33 32 21
f 21 32 34
f 22 21 34
f 28 15 31
f 31 35 32
f 15 35 31
f 15 36 35
f 32 24 34
f 35 24 32
f 22 34 24
f 24 38 23
f 38 35 23
f 35 38 24
f 13 14 42
f 8 45 14
f 13 42 36
f 20 44 8
f 8 44 45
f 14 45 42
f 42 45 36
f 20 47 44
f 22 48 47
f 44 47 48
f 44 48 45
f 23 45 48
f 45 46 36
f 46 35 36
f 46 45 35
f 45 23 35
f 21 22 110
f 21 110 18
f 18 110 22
f 127 129 126
f 126 130 128
f 126 129 132
f 126 132 130
f 130 131 148
f 132 131 130
f 129 133 132
f 126 137 127
f 136 127 137
f 136 140 127
f 136 137 140
f 129 127 141
f 141 133 129
f 127 140 141
f 137 138 140
f 138 142 140
f 138 139 142
f 142 143 140
f 128 144 137
f 126 128 137
f 144 138 137
f 144 128 145
f 130 148 128
f 128 148 145
f 144 146 138
f 139 138 146
f 145 147 144
f 145 148 131
f 131 149 145
f 147 150 144
f 150 151 144
f 144 151 146
f 147 163 150
f 151 150 153
f 142 139 143
f 139 153 143
f 139 146 153
f 146 152 153
f 143 153 156
f 151 152 146
f 151 153 152
f 154 153 150
f 141 155 133
f 140 143 141
f 155 141 143
f 143 156 161
f 132 133 158
f 133 155 157
f 133 157 158
f 131 132 159
f 158 159 132
f 149 131 159
f 158 160 159
f 149 159 147
f 155 143 157
f 143 161 157
f 156 157 161
f 154 162 157
f 156 154 157
f 158 157 162
f 162 163 147
f 160 162 159
f 160 158 162
f 159 162 147
f 163 162 150
f 154 150 162
f 153 154 156
f 145 149 230
f 145 230 147
f 149 147 230
f 52 54 53
f 53 54 55
f 53 55 62
f 52 56 54
f 56 57 54
f 57 56 59
f 59 58 57
f 54 57 60
f 57 58 60
f 60 58 61
f 53 63 82
f 53 62 63
f 55 64 62
f 54 60 55
f 55 60 64
f 61 65 60
f 60 65 64
f 62 64 65
f 65 66 62
f 62 66 84
f 65 94 66
f 67 69 52
f 56 52 75
f 52 69 75
f 68 76 69
f 67 68 69
f 53 70 52
f 67 52 70
f 53 82 70
f 67 70 68
f 70 71 68
f 72 74 68
f 68 74 77
f 68 71 72
f 71 73 72
f 74 72 77
f 72 73 80
f 69 76 75
f 56 75 59
f 68 77 76
f 76 77 78
f 75 76 59
f 76 78 59
f 59 78 98
f 77 79 78
f 72 79 77
f 78 79 81
f 72 80 79
f 78 81 99
f 70 82 71
f 82 63 71
f 63 83 71
f 62 84 63
f 63 84 83
f 73 71 85
f 71 83 85
f 73 85 80
f 80 85 79
f 85 83 88
f 84 86 83
f 83 86 88
f 66 94 84
f 84 106 86
f 81 87 108
f 85 88 89
f 85 89 79
f 79 89 81
f 89 88 81
f 107 109 88
f 86 107 88
f 87 81 88
f 87 88 109
f 59 90 58
f 61 58 91
f 90 91 58
f 91 92 93
f 61 91 65
f 91 93 65
f 92 102 93
f 93 103 94
f 65 93 94
f 59 95 90
f 95 96 90
f 95 98 96
f 96 97 90
f 90 97 91
f 92 91 102
f 91 97 102
f 59 98 95
f 98 100 101
f 78 99 98
f 99 100 98
f 96 98 101
f 96 101 97
f 97 101 100
f 97 100 104
f 93 102 103
f 102 97 103
f 105 103 97
f 104 105 97
f 84 94 106
f 86 106 107
f 94 103 106
f 106 103 107
f 105 107 103
f 99 107 104
f 81 108 99
f 87 99 108
f 100 99 104
f 105 104 107
f 99 109 107
f 87 109 99
f 168 185 170
f 168 169 175
f 168 170 169
f 169 171 175
f 170 172 169
f 171 169 172
f 171 172 182
f 168 175 173
f 168 173 174
f 168 174 198
f 173 178 174
f 173 175 176
f 176 177 173
f 174 178 179
f 179 178 201
f 173 180 178
f 173 177 180
f 178 180 201
f 177 176 181
f 171 182 175
f 175 182 176
f 176 182 181
f 180 177 183
f 177 181 183
f 180 213 201
f 180 183 213
f 183 184 213
f 168 186 185
f 186 188 185
f 187 185 188
f 170 185 189
f 185 190 189
f 185 187 190
f 190 187 191
f 187 192 191
f 188 192 187
f 188 207 192
f 191 192 197
f 170 189 193
f 170 193 172
f 193 194 172
f 189 190 193
f 194 195 172
f 172 195 182
f 193 195 194
f 191 197 190
f 193 190 196
f 190 197 196
f 196 197 192
f 196 192 211
f 192 217 211
f 196 211 193
f 195 193 211
f 168 198 186
f 198 200 186
f 174 179 198
f 198 179 200
f 186 200 199
f 188 186 199
f 200 179 202
f 201 203 179
f 200 202 204
f 179 203 202
f 203 204 202
f 204 203 209
f 199 205 188
f 188 205 206
f 199 200 205
f 188 206 207
f 207 206 192
f 192 206 208
f 192 208 217
f 200 204 205
f 209 208 204
f 209 210 208
f 206 205 208
f 205 204 208
f 208 210 221
f 183 181 184
f 182 212 181
f 181 212 184
f 182 211 212
f 195 211 182
f 201 213 203
f 203 214 209
f 203 213 214
f 209 214 221
f 212 215 184
f 184 215 213
f 213 215 216
f 213 216 214
f 214 216 215
f 208 221 217
f 217 218 220
f 221 218 217
f 211 219 212
f 212 222 215
f 212 219 222
f 217 220 211
f 211 220 219
f 218 219 220
f 209 221 210
f 218 221 219
f 215 222 219
f 221 215 219
f 214 215 221
f 358 468 469
f 358 469 468
f 468 470 469
f 468 469 470
