v -0.078083 0.010207 0.023256
v -0.077643 0.001101 0.023883
v -0.077532 -0.029668 0.018368
v -0.077438 -0.012560 0.011052
v -0.078083 0.009459 0.012004
v -0.077582 0.011381 0.011372
v -0.078103 0.024657 0.014098
v -0.077116 0.028443 0.021269
v -0.077636 0.014779 0.023716
v -0.077900 -0.009140 0.023610
v -0.077755 -0.023738 0.022657
v -0.077477 -0.027412 0.013685
v -0.077784 -0.021739 0.012339
v -0.073114 -0.008664 0.009751
v -0.073394 0.030790 0.012025
v -0.066551 0.038765 0.017725
v -0.063021 0.041014 0.020480
v -0.063821 0.036873 0.024577
v -0.066576 0.025828 0.026417
v -0.063332 0.027904 0.027195
v -0.066550 0.015568 0.027175
v -0.062293 0.011279 0.028318
v -0.066551 0.002955 0.027327
v -0.066543 -0.000549 0.027336
v -0.063646 -0.011597 0.028010
v -0.066586 -0.019957 0.026940
v -0.061200 -0.024113 0.028078
v -0.066724 -0.029073 0.025866
v -0.062158 -0.037222 0.025178
v -0.060800 -0.044340 0.018207
v -0.064401 -0.032894 0.009411
v -0.064213 -0.021973 0.007796
v -0.063423 0.005755 0.007174
v -0.066551 0.012088 0.008023
v -0.060888 0.018114 0.006788
v -0.066551 0.021108 0.008412
v -0.065611 0.037822 0.012256
v -0.059996 -0.030024 0.007735
v -0.059996 -0.020017 0.006786
v -0.063430 -0.006046 0.007176
v -0.062609 0.032012 0.008552
v -0.053477 0.036133 0.027891
v -0.049537 0.035894 0.028797
v -0.050306 0.028470 0.029707
v -0.048405 0.021037 0.030549
v -0.053482 -0.006233 0.029991
v -0.049310 -0.009127 0.030650
v -0.053510 -0.017080 0.029842
v -0.050347 -0.025474 0.029987
v -0.048799 -0.035390 0.029042
v -0.053415 -0.042856 0.009734
v -0.050810 -0.037876 0.007008
v -0.053477 -0.025324 0.005867
v -0.050694 -0.012804 0.004868
v -0.053477 -0.003583 0.005272
v -0.049931 0.000125 0.004691
v -0.053477 0.007291 0.005287
v -0.047003 0.013471 0.004330
v -0.052769 0.021058 0.005378
v -0.050497 0.033489 0.006158
v -0.053477 0.039757 0.008449
v -0.051783 0.044826 0.010415
v -0.054062 0.045599 0.023591
v -0.050318 0.011506 0.030480
v -0.051592 -0.042748 0.026330
v -0.036582 -0.053183 0.014788
v -0.044229 -0.048717 0.010665
v -0.049810 -0.022470 0.005033
v -0.045137 0.042648 0.028497
v -0.037672 0.005184 0.031824
v -0.040440 -0.004033 0.031588
v -0.040440 -0.016064 0.031478
v -0.037306 -0.021076 0.031615
v -0.040440 -0.028086 0.030905
v -0.036543 -0.035731 0.030572
v -0.037732 -0.046416 0.027586
v -0.037300 -0.039343 0.005545
v -0.039865 -0.031310 0.004524
v -0.038113 -0.020543 0.003681
v -0.037399 -0.011414 0.003452
v -0.042719 0.017263 0.003990
v -0.037313 0.027757 0.004007
v -0.040440 0.036074 0.005314
v -0.045166 0.047151 0.009064
v -0.030907 0.048445 0.027136
v -0.038078 0.033603 0.030869
v -0.037300 0.014442 0.031778
v -0.030039 -0.047981 0.007668
v -0.031561 0.039211 0.005088
v -0.021948 0.040952 0.029956
v -0.027391 -0.000736 0.032198
v -0.022468 -0.005331 0.032209
v -0.034516 -0.016845 0.031964
v -0.027420 -0.025712 0.031757
v -0.027402 -0.033393 0.031069
v -0.030810 -0.043306 0.029363
v -0.024941 -0.052284 0.024273
v -0.023485 -0.027945 0.003596
v -0.027402 -0.008348 0.003104
v -0.024677 -0.003085 0.003041
v -0.029038 0.008603 0.003034
v -0.024771 0.021242 0.003272
v -0.027402 0.029229 0.003798
v -0.021183 0.032904 0.004017
v -0.023773 0.047109 0.006919
v -0.030637 0.052236 0.012550
v -0.026959 0.054599 0.018253
v -0.013066 0.050354 0.025718
v -0.023820 0.022335 0.031953
v -0.021934 0.014769 0.032188
v -0.018318 -0.031146 0.031406
v -0.020806 -0.013863 0.003110
v -0.020883 -0.000003 0.003117
v -0.010210 0.038990 0.029668
v -0.018161 0.031919 0.031272
v -0.014364 0.020691 0.031673
v -0.011272 0.006812 0.031724
v -0.011010 -0.007554 0.031712
v -0.014364 -0.012397 0.031852
v -0.011921 -0.018359 0.031626
v -0.010946 -0.028045 0.031135
v -0.016642 -0.048015 0.007770
v -0.016329 -0.038273 0.004751
v -0.011725 -0.027689 0.004046
v -0.011261 -0.001278 0.003528
v -0.010307 0.011190 0.003643
v -0.017187 0.014385 0.003286
v -0.010044 0.021198 0.003864
v -0.013387 0.042047 0.005835
v -0.012785 0.047851 0.007929
v -0.004088 0.051238 0.020166
v -0.007846 0.044319 0.027911
v -0.010353 0.021956 0.031408
v -0.004119 0.013110 0.031080
v -0.007846 -0.032306 0.030403
v -0.012121 -0.046957 0.027906
v -0.004622 -0.051941 0.018077
v -0.007846 -0.048037 0.009328
v -0.000778 -0.045447 0.008933
v -0.007768 -0.030874 0.004711
v -0.007846 -0.016192 0.003931
v -0.001688 -0.013877 0.004436
v -0.005508 0.033523 0.005172
v -0.003851 0.045859 0.026911
v 0.001861 0.034348 0.029103
v -0.001327 0.019545 0.030615
v 0.001737 0.006401 0.030478
v -0.001315 -0.000674 0.030830
v 0.003091 -0.008188 0.030301
v -0.001327 -0.011685 0.030780
v 0.000856 -0.019349 0.030404
v -0.001327 -0.027292 0.030188
v 0.002242 -0.030221 0.029558
v -0.001327 -0.038935 0.028578
v 0.002611 -0.042784 0.027077
v 0.002878 -0.036200 0.006715
v 0.002329 -0.026535 0.005403
v -0.001327 -0.019545 0.004659
v -0.001327 -0.007835 0.004468
v 0.004808 -0.004737 0.005164
v 0.001738 0.000705 0.004778
v 0.004598 0.012382 0.005180
v 0.000556 0.016350 0.004759
v -0.001327 0.023393 0.004830
v 0.001837 0.027623 0.005455
v 0.003261 0.038608 0.007137
v -0.001327 0.046369 0.009630
v 0.000050 0.048424 0.011775
v 0.005192 0.044255 0.025139
v 0.012383 0.040579 0.025186
v 0.005297 0.028420 0.029221
v 0.002647 0.020417 0.030138
v 0.011285 0.012446 0.029107
v 0.008888 -0.017334 0.029355
v 0.005192 -0.044200 0.025200
v 0.001720 -0.048225 0.013044
v 0.005192 -0.040807 0.008395
v 0.005297 -0.028420 0.006053
v 0.012021 -0.009837 0.006250
v 0.014805 0.043406 0.015042
v 0.017684 0.041796 0.020323
v 0.011711 0.034915 0.027125
v 0.017863 0.031305 0.026562
v 0.015425 0.023431 0.028005
v 0.011711 0.017508 0.028882
v 0.011711 0.007029 0.029046
v 0.017556 0.004176 0.028105
v 0.014739 -0.000607 0.028589
v 0.015253 -0.009876 0.028463
v 0.014651 -0.012254 0.028538
v 0.014749 -0.022202 0.028169
v 0.011775 -0.030047 0.027968
v 0.019749 -0.032041 0.026067
v 0.011711 -0.038259 0.026219
v 0.011711 -0.044959 0.017699
v 0.018791 -0.039222 0.011240
v 0.015072 -0.030202 0.007890
v 0.011711 -0.017508 0.006391
v 0.011722 0.000595 0.006207
v 0.016097 0.007109 0.006938
v 0.009487 0.018500 0.006044
v 0.011989 0.028734 0.007158
v 0.011711 0.034833 0.008126
v 0.010391 0.041086 0.009725
v 0.023918 0.034468 0.023935
v 0.018363 0.024656 0.027284
v 0.024140 0.010436 0.026820
v 0.021637 -0.014724 0.027211
v 0.018229 -0.035422 0.009897
v 0.018363 -0.024656 0.007990
v 0.015644 -0.017959 0.007044
v 0.024140 -0.010436 0.008454
v 0.018229 0.012856 0.007398
v 0.020422 0.022178 0.008165
v 0.019830 0.032915 0.009488
v 0.021699 0.038195 0.012791
v 0.030214 0.034217 0.019365
v 0.029220 0.025669 0.024712
v 0.028817 0.019160 0.025546
v 0.024748 0.014650 0.026574
v 0.028523 0.001732 0.025963
v 0.027923 -0.000427 0.026090
v 0.027922 -0.007776 0.026063
v 0.027939 -0.018094 0.025774
v 0.024881 -0.025043 0.025852
v 0.033009 -0.025171 0.023852
v 0.024748 -0.031966 0.024514
v 0.018750 -0.039947 0.022751
v 0.022777 -0.038993 0.015565
v 0.023238 -0.034870 0.011135
v 0.029220 -0.025669 0.010562
v 0.028817 -0.019159 0.009728
v 0.024748 -0.014650 0.008700
v 0.024748 -0.005893 0.008570
v 0.028524 -0.001733 0.009311
v 0.027923 0.000427 0.009183
v 0.024748 0.008704 0.008587
v 0.028581 0.018258 0.009652
v 0.030145 0.026515 0.010873
v 0.029327 0.033004 0.012907
v 0.037585 0.026348 0.021860
v 0.037551 0.017633 0.023571
v 0.037513 -0.010269 0.023939
v 0.031303 -0.030681 0.022524
v 0.042172 -0.024034 0.019793
v 0.037676 -0.028911 0.016315
v 0.031303 -0.028334 0.011798
v 0.031472 -0.019699 0.010426
v 0.028836 0.008711 0.009408
v 0.035699 0.013748 0.010865
v 0.031432 0.022089 0.010642
v 0.031303 0.032670 0.014612
v 0.038212 0.027990 0.015079
v 0.042533 0.022961 0.019555
v 0.042566 0.019429 0.021480
v 0.037865 0.013258 0.023719
v 0.042762 0.008876 0.022262
v 0.037714 0.007605 0.023922
v 0.037865 -0.001195 0.023898
v 0.037865 -0.006546 0.023875
v 0.037865 -0.014417 0.023672
v 0.042703 -0.015129 0.021980
v 0.037865 -0.021924 0.022910
v 0.037865 -0.024097 0.022438
v 0.037782 -0.025979 0.013285
v 0.042562 -0.014781 0.013115
v 0.037865 -0.013258 0.011555
v 0.042762 -0.008876 0.013011
v 0.037714 -0.007605 0.011352
v 0.037865 0.001195 0.011375
v 0.037865 0.006546 0.011398
v 0.037882 0.017308 0.011764
v 0.037865 0.021924 0.012363
v 0.042722 0.019420 0.013967
v 0.042836 0.005719 0.022137
v 0.042835 -0.007906 0.022127
v 0.042840 -0.019974 0.014663
v 0.042836 -0.005719 0.013137
v 0.042835 0.007906 0.013146
v 0.042839 0.020695 0.015054
v -0.079683 0.000000 0.017637
v 0.044435 0.000000 0.017637
g canopy
f 2 9 1
f 6 14 4
f 5 6 4
f 7 15 6
f 8 15 7
f 17 16 8
f 18 17 8
f 20 18 8
f 19 20 8
f 9 19 8
f 20 19 9
f 21 20 9
f 22 21 9
f 2 22 9
f 23 22 2
f 24 23 2
f 25 24 2
f 10 25 2
f 26 25 10
f 11 26 10
f 27 26 11
f 28 27 11
f 29 28 11
f 30 29 11
f 3 30 11
f 12 30 3
f 31 30 12
f 13 31 12
f 32 31 13
f 4 32 13
f 40 4 14
f 6 40 14
f 33 40 6
f 34 33 6
f 35 34 6
f 36 35 6
f 41 36 6
f 15 41 6
f 37 41 15
f 16 37 15
f 8 16 15
f 22 20 21
f 24 22 23
f 25 22 24
f 26 27 25
f 29 27 28
f 31 51 30
f 32 38 31
f 4 39 32
f 34 35 33
f 41 59 35
f 36 41 35
f 16 17 37
f 18 63 17
f 42 63 18
f 20 42 18
f 43 42 20
f 44 43 20
f 45 44 20
f 22 45 20
f 64 45 22
f 47 64 22
f 46 47 22
f 25 46 22
f 47 46 25
f 48 47 25
f 27 48 25
f 49 48 27
f 50 49 27
f 65 50 27
f 29 65 27
f 30 65 29
f 67 66 30
f 51 67 30
f 52 51 31
f 38 52 31
f 32 52 38
f 53 52 32
f 68 53 32
f 39 68 32
f 4 68 39
f 54 68 4
f 40 54 4
f 55 54 40
f 56 55 40
f 33 56 40
f 57 56 33
f 58 57 33
f 35 58 33
f 60 59 41
f 61 60 41
f 62 61 41
f 37 62 41
f 63 62 37
f 17 63 37
f 42 43 63
f 49 47 48
f 68 78 52
f 53 68 52
f 55 56 54
f 57 58 56
f 59 81 58
f 35 59 58
f 62 84 60
f 61 62 60
f 63 84 62
f 69 107 63
f 43 69 63
f 44 69 43
f 45 69 44
f 87 86 45
f 64 87 45
f 70 87 64
f 47 70 64
f 71 70 47
f 93 71 47
f 72 93 47
f 73 72 47
f 49 73 47
f 74 73 49
f 75 74 49
f 50 75 49
f 76 75 50
f 65 76 50
f 30 76 65
f 52 67 51
f 77 67 52
f 78 77 52
f 79 78 68
f 54 79 68
f 80 79 54
f 56 80 54
f 58 80 56
f 82 81 59
f 60 82 59
f 83 82 60
f 84 83 60
f 63 107 84
f 69 85 107
f 86 85 69
f 45 86 69
f 71 93 70
f 72 73 93
f 74 75 73
f 76 96 75
f 30 97 76
f 66 97 30
f 77 88 67
f 58 101 80
f 81 101 58
f 82 101 81
f 83 89 82
f 84 89 83
f 107 106 84
f 86 90 85
f 115 90 86
f 109 115 86
f 110 109 86
f 87 110 86
f 70 110 87
f 91 110 70
f 93 91 70
f 92 91 93
f 94 93 73
f 75 94 73
f 95 94 75
f 96 95 75
f 97 96 76
f 88 66 67
f 123 88 77
f 78 123 77
f 98 123 78
f 79 98 78
f 112 98 79
f 80 112 79
f 99 112 80
f 100 99 80
f 101 100 80
f 82 102 101
f 103 102 82
f 104 103 82
f 89 104 82
f 84 105 89
f 106 105 84
f 85 108 107
f 90 108 85
f 91 92 110
f 111 92 93
f 94 111 93
f 95 111 94
f 96 111 95
f 136 111 96
f 97 136 96
f 88 122 66
f 123 122 88
f 99 100 112
f 101 113 100
f 102 127 101
f 103 104 102
f 89 105 104
f 107 130 105
f 106 107 105
f 108 131 107
f 115 114 90
f 109 133 115
f 116 133 109
f 110 116 109
f 92 117 110
f 118 117 92
f 119 118 92
f 120 119 92
f 111 120 92
f 66 137 97
f 122 137 66
f 98 124 123
f 112 124 98
f 125 112 100
f 113 125 100
f 101 125 113
f 126 125 101
f 127 126 101
f 128 127 102
f 104 128 102
f 105 129 104
f 130 129 105
f 132 144 108
f 114 132 108
f 90 114 108
f 110 133 116
f 134 133 110
f 117 134 110
f 120 118 119
f 111 121 120
f 136 135 121
f 111 136 121
f 97 137 136
f 122 138 137
f 139 138 122
f 123 139 122
f 124 140 123
f 112 141 124
f 142 141 112
f 125 142 112
f 128 126 127
f 143 128 104
f 129 143 104
f 130 143 129
f 107 168 130
f 131 168 107
f 144 131 108
f 114 144 132
f 145 144 114
f 115 145 114
f 172 145 115
f 133 172 115
f 146 172 133
f 134 146 133
f 117 147 134
f 148 147 117
f 118 148 117
f 149 148 118
f 150 149 118
f 151 150 118
f 120 151 118
f 121 151 120
f 152 151 121
f 153 152 121
f 135 153 121
f 136 153 135
f 154 153 136
f 155 154 136
f 137 155 136
f 139 176 137
f 138 139 137
f 157 156 123
f 140 157 123
f 124 157 140
f 158 157 124
f 142 158 124
f 141 142 124
f 125 159 142
f 160 159 125
f 161 160 125
f 126 161 125
f 162 161 126
f 163 162 126
f 128 163 126
f 164 163 128
f 165 164 128
f 143 165 128
f 130 166 143
f 167 166 130
f 168 167 130
f 144 169 131
f 170 169 144
f 145 170 144
f 172 171 145
f 134 172 146
f 173 172 134
f 147 173 134
f 148 149 147
f 151 149 150
f 153 174 151
f 152 153 151
f 154 155 153
f 137 175 155
f 156 177 139
f 123 156 139
f 157 178 156
f 142 157 158
f 160 179 142
f 159 160 142
f 165 201 163
f 164 165 163
f 143 166 165
f 168 204 166
f 167 168 166
f 181 180 131
f 170 181 131
f 169 170 131
f 145 182 170
f 183 182 145
f 184 183 145
f 171 184 145
f 172 184 171
f 185 184 172
f 173 185 172
f 147 186 173
f 187 186 147
f 188 187 147
f 149 188 147
f 189 188 149
f 190 189 149
f 174 190 149
f 151 174 149
f 153 191 174
f 192 191 153
f 155 192 153
f 193 192 155
f 194 193 155
f 228 194 155
f 175 228 155
f 137 228 175
f 195 228 137
f 196 195 137
f 176 196 137
f 139 196 176
f 177 196 139
f 156 196 177
f 197 196 156
f 178 197 156
f 211 197 178
f 157 211 178
f 198 211 157
f 179 198 157
f 142 179 157
f 199 179 160
f 161 199 160
f 200 199 161
f 162 200 161
f 163 201 162
f 202 201 165
f 166 202 165
f 203 202 166
f 204 203 166
f 180 204 168
f 131 180 168
f 183 205 170
f 182 183 170
f 184 206 183
f 173 184 185
f 187 207 173
f 186 187 173
f 208 190 174
f 191 208 174
f 192 193 191
f 228 193 194
f 195 229 228
f 196 229 195
f 230 229 196
f 209 230 196
f 197 209 196
f 211 210 197
f 179 211 198
f 212 211 179
f 199 200 179
f 213 200 162
f 201 213 162
f 250 213 201
f 214 250 201
f 202 214 201
f 215 214 202
f 203 215 202
f 204 215 203
f 216 215 204
f 180 216 204
f 181 216 180
f 205 217 181
f 170 205 181
f 219 218 183
f 206 219 183
f 184 219 206
f 220 219 184
f 207 220 184
f 173 207 184
f 222 221 187
f 188 222 187
f 223 222 188
f 189 223 188
f 208 223 189
f 190 208 189
f 191 224 208
f 225 224 191
f 193 225 191
f 226 225 193
f 227 226 193
f 228 227 193
f 197 230 209
f 231 230 197
f 232 231 197
f 210 232 197
f 211 232 210
f 233 232 211
f 212 233 211
f 179 234 212
f 235 234 179
f 236 235 179
f 200 236 179
f 249 236 200
f 237 249 200
f 250 237 200
f 213 250 200
f 239 238 214
f 215 239 214
f 240 239 215
f 216 240 215
f 217 240 216
f 181 217 216
f 205 241 217
f 218 241 205
f 183 218 205
f 219 242 218
f 207 219 220
f 221 258 207
f 187 221 207
f 208 243 223
f 224 243 208
f 225 226 224
f 244 226 227
f 228 244 227
f 245 244 228
f 246 245 228
f 229 246 228
f 265 246 229
f 230 265 229
f 247 265 230
f 231 247 230
f 232 248 231
f 212 232 233
f 235 269 212
f 234 235 212
f 250 249 237
f 214 238 250
f 239 251 238
f 217 252 240
f 254 253 217
f 241 254 217
f 218 255 241
f 242 255 218
f 219 256 242
f 257 256 219
f 258 257 219
f 207 258 219
f 259 258 221
f 222 259 221
f 223 259 222
f 260 259 223
f 243 260 223
f 224 261 243
f 262 261 224
f 226 262 224
f 263 262 226
f 264 263 226
f 245 264 226
f 244 245 226
f 231 265 247
f 266 265 231
f 248 266 231
f 267 266 248
f 232 267 248
f 268 267 232
f 269 268 232
f 212 269 232
f 270 269 235
f 236 270 235
f 249 270 236
f 271 270 249
f 250 271 249
f 238 272 250
f 251 272 238
f 273 272 251
f 239 273 251
f 274 273 239
f 253 274 239
f 240 253 239
f 252 253 240
f 217 253 252
f 255 254 241
f 242 257 255
f 256 257 242
f 258 275 257
f 276 275 258
f 259 276 258
f 260 276 259
f 243 276 260
f 261 276 243
f 262 276 261
f 264 262 263
f 245 262 264
f 277 245 246
f 265 277 246
f 266 277 265
f 267 268 266
f 269 278 268
f 279 278 269
f 270 279 269
f 271 279 270
f 250 279 271
f 272 279 250
f 274 279 272
f 273 274 272
f 253 280 274
f 254 280 253
f 9 8 281
f 1 9 281
f 2 1 281
f 10 2 281
f 11 10 281
f 3 11 281
f 12 3 281
f 13 12 281
f 4 13 281
f 5 4 281
f 6 5 281
f 7 6 281
f 8 7 281
f 282 254 255
f 282 255 257
f 282 257 275
f 282 275 276
f 282 276 262
f 282 262 245
f 282 245 277
f 282 277 266
f 282 266 268
f 282 268 278
f 282 278 279
f 282 279 274
f 282 274 280
f 282 280 254
