v 0.123312 -0.158162 -0.068574
v 0.123643 -0.152954 -0.066207
v 0.125051 -0.152715 -0.066628
v 0.126768 -0.155641 -0.068692
v 0.130684 -0.159147 -0.053271
v 0.121261 -0.155497 -0.066510
v 0.129848 -0.158377 -0.039412
v 0.128722 -0.162922 -0.050561
v 0.128448 -0.164338 -0.025681
v 0.127586 -0.160468 -0.037764
v 0.129817 -0.162048 -0.050561
v 0.126416 -0.154201 -0.067862
v 0.136509 -0.169910 -0.023236
v 0.132222 -0.162694 -0.045256
v 0.131206 -0.158495 -0.045071
v 0.130032 -0.157351 -0.045552
v 0.125895 -0.163515 -0.045982
v 0.126658 -0.165253 -0.035258
v 0.134338 -0.169221 0.000187
v 0.126226 -0.163485 -0.049970
v 0.126955 -0.162852 -0.052956
v 0.133231 -0.172255 -0.023212
v 0.129885 -0.160857 -0.031528
v 0.138747 -0.167190 -0.022846
v 0.134060 -0.170622 -0.023733
v 0.137295 -0.175878 -0.023554
v 0.138064 -0.164824 -0.010435
v 0.133160 -0.174940 -0.013290
v 0.132804 -0.175917 -0.003099
v 0.133083 -0.175903 -0.002538
v 0.133416 -0.176320 -0.002865
v 0.133435 -0.176302 -0.002864
v 0.131335 -0.172960 -0.000461
v 0.135377 -0.174249 -0.017321
v 0.135654 -0.178518 -0.004685
v 0.134892 -0.177802 -0.004142
v 0.134418 -0.177268 -0.005688
v 0.133616 -0.176507 -0.003032
v 0.137565 -0.172325 -0.002538
v 0.121870 0.157133 -0.067557
v 0.122138 0.154205 -0.066226
v 0.124101 0.157775 -0.068692
v 0.124584 0.152516 -0.066356
v 0.126780 0.155120 -0.068445
v 0.126454 0.157836 -0.047252
v 0.129261 0.162492 -0.050561
v 0.128214 0.159967 -0.037764
v 0.131384 0.165226 -0.041501
v 0.130709 0.160409 -0.031171
v 0.132374 0.160010 -0.031675
v 0.133657 0.160652 -0.032855
v 0.131696 0.162202 -0.049107
v 0.128135 0.160851 -0.038168
v 0.126405 0.162873 -0.034757
v 0.129974 0.162098 -0.028277
v 0.130489 0.169470 -0.031880
v 0.130486 0.171604 -0.015658
v 0.133002 0.162410 -0.043859
v 0.135469 0.163201 -0.034549
v 0.132159 0.169032 -0.032065
v 0.136364 0.173701 -0.019481
v 0.136834 0.176740 -0.023811
v 0.137273 0.169276 -0.023064
v 0.135212 0.177803 -0.012679
v 0.132405 0.174335 -0.012641
v 0.131632 0.173719 -0.004142
v 0.133143 0.175856 -0.004429
v 0.131243 0.172529 -0.000234
v 0.131639 0.173697 -0.004153
v 0.132613 0.175250 -0.003032
v 0.132751 0.175487 -0.002865
v 0.132773 0.175472 -0.002864
v 0.133083 0.175903 -0.002538
v 0.133961 0.175256 -0.013679
v 0.139384 0.166363 -0.001649
v 0.140953 -0.182014 -0.040089
v 0.145314 -0.182602 -0.050561
v 0.143119 -0.179926 -0.041501
v 0.146450 -0.179292 -0.045020
v 0.148480 -0.190024 -0.068157
v 0.146197 -0.185380 -0.057945
v 0.151312 -0.186653 -0.068695
v 0.153843 -0.189441 -0.066382
v 0.150689 -0.192159 -0.066289
v 0.150304 -0.185403 -0.047595
v 0.152924 -0.187156 -0.067848
v 0.149233 -0.186371 -0.047252
v 0.147545 -0.184183 -0.037764
v 0.149076 -0.181204 -0.035797
v 0.138020 -0.180296 -0.026456
v 0.140924 -0.177250 -0.032441
v 0.137888 -0.168831 -0.023353
v 0.136566 -0.163848 -0.028561
v 0.141176 -0.174680 -0.028133
v 0.136323 -0.178329 -0.000146
v 0.141900 -0.172396 -0.023212
v 0.144649 -0.183180 -0.030210
v 0.144169 -0.179806 -0.018789
v 0.137227 -0.164139 -0.020672
v 0.141153 -0.169491 -0.013859
v 0.140216 -0.166850 -0.004153
v 0.141515 -0.168144 -0.003032
v 0.144165 -0.172248 -0.000058
v 0.140239 -0.166848 -0.004142
v 0.143333 -0.171081 -0.012129
v 0.146282 -0.179434 -0.022561
v 0.143017 -0.169964 -0.003499
v 0.141988 -0.168795 -0.004429
v 0.141696 -0.168349 -0.002864
v 0.141715 -0.168331 -0.002865
v 0.139050 -0.166070 -0.000113
v 0.142047 -0.168747 -0.002538
v 0.145857 -0.181994 -0.028277
v 0.147563 -0.177823 -0.029624
v 0.145747 -0.175638 -0.014439
v 0.141600 0.183354 -0.041990
v 0.134506 0.177658 -0.002167
v 0.143747 0.179425 -0.041501
v 0.145248 0.187022 -0.043005
v 0.148411 0.189355 -0.068507
v 0.146815 0.185032 -0.057325
v 0.152114 0.188370 -0.067780
v 0.144346 0.177584 -0.038353
v 0.148834 0.189015 -0.053515
v 0.150863 0.192025 -0.066285
v 0.151293 0.186737 -0.068656
v 0.153638 0.189866 -0.066257
v 0.146917 0.184684 -0.037764
v 0.149710 0.183255 -0.040863
v 0.150765 0.183452 -0.047224
v 0.141405 0.183625 -0.037456
v 0.141624 0.176691 -0.032441
v 0.132116 0.159522 -0.044112
v 0.138457 0.168083 -0.023212
v 0.135844 0.173714 -0.016858
v 0.140315 0.182311 -0.020501
v 0.145157 0.182553 -0.028277
v 0.142665 0.182402 -0.022309
v 0.142728 0.173852 0.000170
v 0.140060 0.166980 -0.012113
v 0.140757 0.169923 -0.015534
v 0.141784 0.168268 -0.002720
v 0.141642 0.169144 -0.011214
v 0.143838 0.171882 -0.000358
v 0.143493 0.170978 -0.004162
v 0.143499 0.170932 -0.004142
v 0.142047 0.168747 -0.002538
v 0.142358 0.169178 -0.002864
v 0.142380 0.169164 -0.002865
v 0.142518 0.169401 -0.003032
v 0.147153 0.177346 -0.030597
v 0.150943 0.185142 -0.037736
v 0.145023 0.173558 -0.010645
g gear
f 62 135 74
f 66 69 70
f 66 71 69
f 66 70 71
f 71 67 69
f 71 70 72
f 71 72 73
f 71 73 67
f 74 117 64
f 117 73 75
f 120 116 131
f 121 135 62
f 116 62 74
f 116 74 131
f 62 120 121
f 116 120 62
f 118 126 123
f 121 126 118
f 121 118 135
f 135 118 132
f 132 118 123
f 136 119 117
f 131 122 120
f 121 120 126
f 131 117 122
f 122 119 125
f 124 127 125
f 120 122 126
f 123 126 122
f 122 125 127
f 127 130 122
f 122 117 119
f 119 124 125
f 123 122 141
f 119 138 124
f 124 128 127
f 122 143 141
f 124 138 128
f 138 137 128
f 128 152 127
f 143 122 151
f 152 129 127
f 129 153 130
f 127 129 130
f 122 130 151
f 74 64 131
f 135 132 123
f 131 64 117
f 135 123 141
f 136 138 119
f 138 139 137
f 137 139 152
f 151 153 142
f 136 117 138
f 117 75 139
f 117 139 138
f 144 75 147
f 139 75 144
f 151 142 143
f 144 147 148
f 144 148 150
f 144 150 145
f 153 145 142
f 153 144 145
f 128 137 152
f 130 153 151
f 139 144 152
f 152 144 129
f 129 144 153
f 40 42 41
f 40 41 54
f 40 54 68
f 41 44 43
f 41 42 44
f 44 133 43
f 40 60 42
f 43 49 45
f 40 65 56
f 40 56 60
f 42 60 46
f 43 133 51
f 42 46 52
f 68 57 40
f 43 45 41
f 41 45 53
f 43 50 49
f 43 51 50
f 45 49 47
f 41 53 54
f 40 57 65
f 45 47 53
f 47 49 55
f 42 58 44
f 42 52 58
f 60 48 46
f 46 48 52
f 58 59 44
f 44 59 133
f 60 61 48
f 48 63 52
f 48 61 63
f 52 63 58
f 47 55 53
f 53 68 54
f 53 55 68
f 55 49 75
f 55 75 68
f 65 74 56
f 63 134 58
f 56 135 60
f 56 74 135
f 60 135 61
f 61 135 63
f 68 69 57
f 57 117 65
f 65 117 74
f 57 69 67
f 57 67 117
f 68 70 69
f 68 72 70
f 68 73 72
f 117 67 73
f 50 51 75
f 50 75 49
f 68 75 73
f 58 134 59
f 59 134 143
f 133 59 140
f 63 141 134
f 63 135 141
f 133 140 51
f 59 143 140
f 134 141 143
f 140 143 142
f 51 140 142
f 51 142 75
f 142 147 75
f 146 142 145
f 149 147 142
f 149 148 147
f 149 150 148
f 146 150 149
f 146 149 142
f 146 145 150
f 34 26 76
f 90 37 29
f 95 30 32
f 95 32 38
f 90 29 34
f 95 38 35
f 95 39 30
f 80 90 76
f 80 37 90
f 26 81 76
f 26 78 81
f 81 78 77
f 77 78 94
f 26 91 78
f 91 94 78
f 76 81 80
f 81 82 80
f 80 82 83
f 37 80 84
f 81 77 82
f 82 77 94
f 84 95 35
f 94 79 82
f 80 83 84
f 79 86 82
f 83 82 86
f 84 85 87
f 86 89 83
f 84 83 85
f 84 35 37
f 95 84 97
f 97 84 87
f 88 87 85
f 97 87 88
f 88 85 113
f 85 89 106
f 105 114 86
f 83 89 85
f 34 76 90
f 26 34 91
f 34 94 91
f 94 34 100
f 94 100 96
f 94 96 79
f 96 100 79
f 79 100 86
f 97 113 98
f 86 100 105
f 95 103 39
f 103 112 39
f 104 101 102
f 104 110 101
f 104 102 110
f 97 98 95
f 95 98 103
f 100 107 105
f 103 98 106
f 105 107 103
f 110 108 101
f 110 112 108
f 110 102 109
f 110 109 112
f 103 107 112
f 103 106 115
f 88 113 97
f 85 106 113
f 105 103 114
f 114 115 89
f 86 114 89
f 98 113 106
f 114 103 115
f 89 115 106
f 6 2 1
f 6 1 18
f 6 9 2
f 1 17 18
f 2 3 1
f 1 3 12
f 1 20 17
f 1 21 20
f 1 12 4
f 1 4 21
f 4 5 14
f 4 12 5
f 4 14 11
f 4 8 21
f 2 16 3
f 4 11 8
f 2 23 7
f 9 10 2
f 2 7 16
f 3 16 15
f 2 10 23
f 9 19 10
f 3 15 12
f 8 11 25
f 11 14 13
f 8 25 21
f 11 13 25
f 15 93 12
f 12 93 5
f 16 99 15
f 93 24 5
f 5 24 14
f 10 19 23
f 6 18 33
f 20 21 28
f 21 25 22
f 21 22 28
f 20 28 17
f 17 28 29
f 15 99 93
f 7 27 16
f 14 92 13
f 14 24 92
f 22 25 34
f 25 13 34
f 13 92 34
f 16 27 99
f 6 33 9
f 17 29 18
f 22 34 28
f 19 111 23
f 18 29 33
f 33 29 30
f 9 33 19
f 31 30 29
f 31 32 30
f 31 38 32
f 28 34 29
f 23 111 7
f 7 111 27
f 36 37 35
f 31 29 36
f 31 36 38
f 36 29 37
f 36 35 38
f 33 30 39
f 33 39 19
f 19 39 111
f 92 24 34
f 24 100 34
f 93 100 24
f 99 107 93
f 27 101 99
f 93 107 100
f 27 111 101
f 99 108 107
f 111 39 112
f 111 102 101
f 99 101 108
f 111 109 102
f 111 112 109
f 107 108 112
