v -0.143562 -0.183437 0.009869
v -0.150259 -0.173492 0.009860
v -0.148179 -0.184973 0.013246
v -0.147898 -0.179477 0.009865
v -0.148039 -0.165060 0.009860
v -0.142819 -0.160899 0.009873
v -0.138729 -0.184847 0.009873
v -0.135638 -0.184711 0.009875
v -0.124865 -0.188131 0.014444
v -0.128588 -0.181149 0.009869
v -0.126197 -0.177701 0.009873
v -0.125017 -0.173314 0.009869
v -0.120540 -0.183208 0.014351
v -0.138594 -0.159792 0.009873
v -0.134245 -0.160196 0.009873
v -0.131081 -0.161599 0.009875
v -0.125401 -0.169136 0.009873
v -0.128625 -0.163481 0.009873
v -0.126586 -0.166278 0.009875
v -0.157351 -0.181817 0.017272
v -0.149853 -0.190128 0.017295
v -0.158823 -0.166878 0.017272
v -0.144578 -0.194521 0.018469
v -0.145619 -0.151037 0.017143
v -0.126866 -0.153375 0.017286
v -0.117899 -0.181335 0.017295
v -0.116002 -0.174133 0.017376
v -0.116709 -0.166586 0.017295
v -0.158729 -0.181981 0.036018
v -0.159985 -0.166118 0.036018
v -0.152868 -0.155269 0.036351
v -0.146577 -0.151876 0.039449
v -0.141548 -0.149742 0.028465
v -0.124164 -0.191461 0.028453
v -0.133038 -0.149638 0.035552
v -0.121541 -0.155651 0.018984
v -0.115087 -0.179148 0.034804
v -0.147171 -0.192572 0.037642
v -0.133057 -0.194854 0.036694
v -0.122007 -0.188010 0.037607
v -0.125551 -0.155951 0.041096
v -0.121880 -0.156767 0.037607
v -0.148511 -0.187033 0.042290
v -0.134730 -0.190970 0.042020
v -0.145907 -0.177141 0.043683
v -0.146938 -0.174681 0.043684
v -0.157050 -0.170119 0.042125
v -0.147178 -0.171333 0.043684
v -0.146259 -0.168105 0.043684
v -0.138532 -0.154965 0.043044
v -0.135347 -0.152138 0.041096
v -0.139238 -0.181810 0.043683
v -0.137565 -0.181957 0.043683
v -0.135893 -0.181810 0.043683
v -0.143371 -0.180296 0.043684
v -0.134271 -0.181376 0.043683
v -0.119881 -0.181752 0.041380
v -0.131482 -0.179908 0.043684
v -0.128872 -0.176545 0.043684
v -0.136468 -0.162586 0.043685
v -0.131900 -0.164496 0.043684
v -0.134380 -0.154258 0.041992
v -0.128515 -0.169031 0.043683
v -0.129224 -0.167510 0.043683
v -0.130187 -0.166134 0.043683
v -0.119996 -0.162705 0.041331
v -0.118070 -0.178015 0.041096
v -0.115551 -0.172325 0.037596
v -0.115318 -0.166802 0.036013
v -0.120993 -0.166796 0.042765
v -0.147906 0.165168 0.009873
v -0.148179 0.159677 0.013246
v -0.150259 0.171158 0.009860
v -0.148039 0.179591 0.009860
v -0.137203 0.159704 0.009869
v -0.132312 0.160899 0.009873
v -0.128721 0.163385 0.009873
v -0.126197 0.166949 0.009873
v -0.125268 0.169900 0.009875
v -0.142434 0.150127 0.018516
v -0.143668 0.161267 0.009864
v -0.141907 0.184205 0.009869
v -0.135385 0.184784 0.009869
v -0.129448 0.182025 0.009869
v -0.125034 0.172072 0.009875
v -0.125686 0.176667 0.009869
v -0.151900 0.154501 0.019029
v -0.144737 0.151999 0.017401
v -0.159177 0.166250 0.017208
v -0.155678 0.184714 0.017272
v -0.128074 0.152540 0.017272
v -0.137853 0.195084 0.017143
v -0.121030 0.186473 0.017286
v -0.115103 0.168656 0.017143
v -0.160085 0.166491 0.036018
v -0.158566 0.182331 0.036018
v -0.150365 0.191342 0.036013
v -0.142290 0.194748 0.036351
v -0.131738 0.149745 0.035107
v -0.121288 0.156050 0.028463
v -0.134162 0.195089 0.036018
v -0.129722 0.193874 0.028465
v -0.122301 0.189710 0.035552
v -0.119227 0.157914 0.036332
v -0.114436 0.171807 0.035552
v -0.116150 0.180760 0.036018
v -0.153251 0.156766 0.037607
v -0.144874 0.152502 0.040812
v -0.153909 0.165106 0.042443
v -0.134730 0.153681 0.042020
v -0.140860 0.163275 0.043683
v -0.146632 0.168455 0.043684
v -0.143231 0.164496 0.043684
v -0.155392 0.171131 0.042443
v -0.153670 0.182138 0.042020
v -0.147051 0.173998 0.043683
v -0.146616 0.175619 0.043683
v -0.145907 0.177141 0.043683
v -0.137293 0.189555 0.043014
v -0.145113 0.189112 0.041997
v -0.139238 0.162840 0.043683
v -0.137565 0.162694 0.043683
v -0.135893 0.162840 0.043683
v -0.134271 0.163275 0.043683
v -0.125330 0.160052 0.042755
v -0.123582 0.161614 0.042599
v -0.139238 0.181810 0.043683
v -0.132520 0.180635 0.043684
v -0.130822 0.188503 0.042779
v -0.125551 0.188699 0.041096
v -0.127953 0.171333 0.043684
v -0.128080 0.173998 0.043683
v -0.125773 0.186379 0.041992
v -0.123330 0.182399 0.042697
v -0.116878 0.164796 0.037596
v -0.118500 0.183333 0.037596
v -0.120405 0.167350 0.042443
v -0.119273 0.175182 0.042001
v 0.124837 -0.172606 0.009862
v 0.129730 -0.182227 0.009869
v 0.134245 -0.184455 0.009873
v 0.138594 -0.184859 0.009873
v 0.126180 -0.177852 0.009864
v 0.116852 -0.181268 0.018382
v 0.119953 -0.184888 0.017399
v 0.126197 -0.166949 0.009873
v 0.130208 -0.161916 0.009860
v 0.138621 -0.159622 0.009860
v 0.115642 -0.169029 0.017418
v 0.142819 -0.183751 0.009873
v 0.146410 -0.181266 0.009873
v 0.148934 -0.177701 0.009873
v 0.150087 -0.173489 0.009873
v 0.149445 -0.167984 0.009869
v 0.145683 -0.162626 0.009869
v 0.128510 -0.192314 0.017272
v 0.142196 -0.194521 0.018149
v 0.155678 -0.184714 0.017272
v 0.129512 -0.151037 0.017143
v 0.159824 -0.168364 0.018006
v 0.151619 -0.155173 0.017248
v 0.118666 -0.185252 0.036728
v 0.114409 -0.170106 0.036018
v 0.119760 -0.158936 0.039864
v 0.127515 -0.193369 0.035107
v 0.124766 -0.153308 0.036013
v 0.136456 -0.149099 0.036678
v 0.147294 -0.193186 0.028463
v 0.155842 -0.187184 0.035834
v 0.160330 -0.175728 0.036018
v 0.139570 -0.149395 0.028463
v 0.145409 -0.150776 0.028465
v 0.151058 -0.153793 0.036013
v 0.156582 -0.159526 0.036013
v 0.119432 -0.176755 0.042008
v 0.139370 -0.194662 0.037642
v 0.158354 -0.169080 0.040279
v 0.125381 -0.185057 0.042624
v 0.129686 -0.188361 0.042443
v 0.127783 -0.172935 0.043685
v 0.137187 -0.190417 0.042359
v 0.133886 -0.181638 0.043684
v 0.125001 -0.159041 0.042352
v 0.129224 -0.167510 0.043683
v 0.130839 -0.165387 0.043684
v 0.132700 -0.156058 0.042820
v 0.135644 -0.154807 0.042624
v 0.149343 -0.187054 0.042020
v 0.140688 -0.181532 0.043684
v 0.143756 -0.179703 0.043683
v 0.144944 -0.178516 0.043683
v 0.146966 -0.175098 0.043685
v 0.154077 -0.185401 0.040379
v 0.155632 -0.175511 0.041992
v 0.143756 -0.164947 0.043683
v 0.144944 -0.166134 0.043683
v 0.140860 -0.163275 0.043683
v 0.142381 -0.163984 0.043683
v 0.147051 -0.170653 0.043683
v 0.146386 -0.168378 0.043684
v 0.140751 -0.154258 0.041992
v 0.151387 -0.159165 0.042041
v 0.135385 0.159866 0.009869
v 0.140755 0.160161 0.009873
v 0.119007 0.161364 0.017401
v 0.121546 0.155540 0.019216
v 0.116852 0.163383 0.018382
v 0.126402 0.164974 0.009850
v 0.125411 0.175626 0.009870
v 0.127866 0.180443 0.009869
v 0.132312 0.183751 0.009873
v 0.136537 0.184859 0.009873
v 0.114861 0.174288 0.018070
v 0.144723 0.161985 0.009873
v 0.147828 0.165057 0.009873
v 0.149695 0.169005 0.009873
v 0.150097 0.172072 0.009875
v 0.149730 0.175514 0.009873
v 0.146506 0.181169 0.009873
v 0.148545 0.178372 0.009875
v 0.141876 0.184216 0.009869
v 0.130226 0.151400 0.017248
v 0.129512 0.193613 0.017143
v 0.147057 0.152540 0.017272
v 0.157554 0.163270 0.017272
v 0.149954 0.190438 0.017272
v 0.159762 0.176956 0.018149
v 0.116565 0.182331 0.036018
v 0.131609 0.150091 0.028463
v 0.125407 0.191219 0.038663
v 0.132042 0.194573 0.036013
v 0.142015 0.149195 0.035834
v 0.155842 0.157467 0.035834
v 0.158967 0.168085 0.039774
v 0.143772 0.194745 0.036018
v 0.158981 0.180760 0.036018
v 0.154071 0.188233 0.036013
v 0.115881 0.166669 0.037642
v 0.124590 0.154054 0.037642
v 0.143197 0.150962 0.037607
v 0.156749 0.161101 0.037620
v 0.119589 0.164494 0.042125
v 0.129041 0.167651 0.043684
v 0.133203 0.163549 0.043685
v 0.128165 0.175098 0.043685
v 0.122516 0.183370 0.042008
v 0.128080 0.170653 0.043683
v 0.132844 0.181027 0.043686
v 0.133048 0.190167 0.041997
v 0.138763 0.153278 0.042041
v 0.139865 0.162798 0.043685
v 0.147166 0.169469 0.043689
v 0.151181 0.160407 0.042359
v 0.141197 0.181536 0.043686
v 0.146090 0.176999 0.043684
v 0.139422 0.190636 0.041997
v 0.147135 0.188175 0.042001
v 0.155407 0.176843 0.041997
v 0.155911 0.172325 0.041992
v 0.156158 0.180498 0.041096
g motor
f 208 204 203
f 206 205 208
f 207 213 208
f 205 207 208
f 208 209 210
f 208 213 209
f 208 210 211
f 208 211 212
f 208 212 221
f 208 214 204
f 208 215 214
f 208 216 215
f 208 220 218
f 208 221 219
f 208 219 220
f 208 217 216
f 208 218 217
f 208 222 206
f 203 222 208
f 204 224 203
f 224 222 203
f 209 213 210
f 210 223 211
f 213 223 210
f 211 223 212
f 212 223 221
f 214 224 204
f 225 224 214
f 215 225 214
f 216 225 215
f 227 225 216
f 221 226 219
f 223 226 221
f 220 227 218
f 217 227 216
f 218 227 217
f 219 226 220
f 226 227 220
f 205 206 207
f 213 228 223
f 224 232 222
f 225 233 224
f 223 235 226
f 226 237 227
f 229 206 222
f 232 229 222
f 228 230 223
f 230 231 223
f 231 235 223
f 233 232 224
f 234 233 225
f 227 234 225
f 235 237 226
f 237 236 227
f 206 238 207
f 207 238 213
f 239 238 206
f 213 238 228
f 229 239 206
f 232 239 229
f 233 240 232
f 234 241 233
f 236 234 227
f 237 260 236
f 238 242 228
f 242 246 228
f 239 242 238
f 232 250 239
f 240 250 232
f 228 246 230
f 231 249 235
f 233 250 240
f 241 253 233
f 235 257 237
f 236 258 234
f 250 242 239
f 243 247 242
f 244 243 242
f 250 244 242
f 247 243 244
f 251 244 250
f 247 244 251
f 230 249 231
f 249 256 235
f 242 245 246
f 247 245 242
f 245 248 246
f 246 248 230
f 247 248 245
f 247 254 248
f 230 248 249
f 249 248 256
f 248 254 256
f 253 250 233
f 234 253 241
f 253 251 250
f 247 251 253
f 247 253 252
f 234 252 253
f 256 257 235
f 258 259 234
f 260 258 236
f 257 260 237
f 247 255 254
f 247 252 255
f 255 252 258
f 254 255 260
f 256 254 257
f 257 254 260
f 259 252 234
f 258 252 259
f 260 255 258
f 81 71 73
f 81 72 71
f 75 80 81
f 80 88 81
f 81 73 74
f 81 74 82
f 81 76 75
f 81 77 76
f 81 78 77
f 81 79 78
f 81 82 83
f 81 83 84
f 81 84 86
f 81 85 79
f 81 86 85
f 71 89 73
f 87 89 71
f 81 87 72
f 88 87 81
f 72 87 71
f 73 89 74
f 89 90 74
f 74 90 82
f 90 92 82
f 76 91 75
f 91 80 75
f 77 91 76
f 94 91 77
f 78 94 77
f 82 92 83
f 83 92 84
f 84 93 86
f 92 93 84
f 79 94 78
f 85 94 79
f 86 94 85
f 93 94 86
f 88 80 87
f 89 96 90
f 90 97 92
f 91 99 80
f 94 100 91
f 92 103 93
f 87 95 89
f 95 96 89
f 96 97 90
f 97 98 92
f 100 99 91
f 98 101 92
f 101 102 92
f 102 103 92
f 93 106 94
f 104 100 94
f 105 104 94
f 106 105 94
f 103 106 93
f 87 107 95
f 80 108 87
f 108 107 87
f 99 108 80
f 100 104 99
f 102 101 103
f 101 130 103
f 105 135 104
f 103 136 106
f 107 108 95
f 95 114 96
f 96 115 97
f 97 120 98
f 99 110 108
f 104 110 99
f 98 119 101
f 103 134 136
f 109 114 95
f 108 109 95
f 110 121 108
f 108 112 109
f 113 112 108
f 109 112 114
f 111 113 108
f 121 111 108
f 114 115 96
f 115 120 97
f 120 119 98
f 114 116 115
f 116 117 115
f 117 118 115
f 118 119 115
f 112 116 114
f 112 117 116
f 112 118 117
f 112 119 118
f 115 119 120
f 125 110 104
f 126 125 104
f 122 121 110
f 123 122 110
f 112 111 121
f 112 113 111
f 112 121 122
f 112 122 123
f 112 123 124
f 124 123 110
f 125 124 110
f 112 124 125
f 112 125 126
f 112 126 137
f 112 137 131
f 119 129 101
f 129 130 101
f 130 133 103
f 133 134 103
f 112 127 119
f 112 129 127
f 112 128 129
f 112 134 128
f 112 131 132
f 112 132 134
f 127 129 119
f 129 128 130
f 138 131 137
f 132 131 138
f 134 132 138
f 130 128 133
f 133 128 134
f 135 137 104
f 105 137 135
f 106 138 105
f 136 134 106
f 137 126 104
f 138 137 105
f 134 138 106
f 1 3 4
f 4 2 5
f 4 5 6
f 4 7 1
f 4 8 7
f 4 9 8
f 4 13 9
f 4 10 13
f 4 11 10
f 4 12 11
f 4 17 12
f 12 27 11
f 4 6 14
f 4 14 15
f 4 16 18
f 4 18 19
f 4 15 16
f 4 19 17
f 21 20 4
f 4 20 2
f 20 22 2
f 3 21 4
f 1 21 3
f 7 23 1
f 23 21 1
f 2 22 5
f 22 24 5
f 5 24 6
f 6 24 14
f 8 23 7
f 9 23 8
f 26 13 10
f 11 26 10
f 14 24 15
f 15 25 16
f 24 25 15
f 18 36 19
f 19 36 17
f 25 36 18
f 16 25 18
f 27 26 11
f 28 27 12
f 17 28 12
f 36 28 17
f 21 23 20
f 20 29 22
f 22 30 24
f 9 34 23
f 13 34 9
f 24 35 25
f 23 29 20
f 29 30 22
f 30 31 24
f 31 32 24
f 32 33 24
f 34 39 23
f 33 35 24
f 35 36 25
f 26 37 13
f 27 37 26
f 28 69 27
f 37 34 13
f 69 37 27
f 36 69 28
f 23 38 29
f 39 38 23
f 40 39 34
f 33 32 35
f 32 51 35
f 35 41 36
f 41 42 36
f 37 40 34
f 67 57 37
f 68 67 37
f 69 68 37
f 36 66 69
f 42 66 36
f 38 43 29
f 29 47 30
f 30 47 31
f 39 44 38
f 40 57 39
f 43 47 29
f 44 43 38
f 44 52 43
f 52 55 43
f 43 55 47
f 55 45 47
f 45 46 47
f 46 48 47
f 55 46 45
f 55 48 46
f 47 32 31
f 50 51 32
f 47 50 32
f 48 49 47
f 49 50 47
f 55 49 48
f 55 50 49
f 57 44 39
f 53 52 44
f 54 53 44
f 56 54 44
f 58 56 44
f 55 52 53
f 55 53 54
f 55 54 56
f 55 56 58
f 55 58 59
f 55 59 70
f 57 58 44
f 67 70 57
f 59 58 57
f 70 59 57
f 51 62 35
f 62 41 35
f 41 66 42
f 55 60 50
f 50 60 51
f 55 65 61
f 55 61 60
f 55 63 64
f 55 64 65
f 55 70 63
f 60 61 41
f 51 60 62
f 62 60 41
f 41 61 66
f 66 64 70
f 65 64 66
f 64 63 70
f 61 65 66
f 37 57 40
f 69 70 68
f 70 67 68
f 66 70 69
f 143 144 139
f 140 145 143
f 143 141 140
f 143 142 141
f 143 150 142
f 145 144 143
f 144 149 139
f 143 139 146
f 139 149 146
f 143 146 147
f 143 147 148
f 143 151 150
f 143 152 151
f 143 153 152
f 143 154 153
f 143 155 154
f 143 148 155
f 140 156 145
f 141 156 140
f 142 157 141
f 157 156 141
f 146 149 147
f 149 159 147
f 147 159 148
f 150 157 142
f 151 158 150
f 158 157 150
f 152 158 151
f 153 160 152
f 160 158 152
f 148 161 155
f 159 161 148
f 155 161 154
f 154 160 153
f 161 160 154
f 145 162 144
f 149 164 159
f 144 163 149
f 163 164 149
f 156 165 145
f 158 169 157
f 160 170 158
f 159 171 161
f 161 174 160
f 165 162 145
f 157 165 156
f 164 166 159
f 166 167 159
f 167 171 159
f 169 168 157
f 170 169 158
f 171 172 161
f 172 173 161
f 173 174 161
f 144 162 163
f 157 176 165
f 168 176 157
f 169 176 168
f 170 193 169
f 171 167 172
f 172 167 173
f 160 177 170
f 174 177 160
f 162 175 163
f 175 164 163
f 165 179 162
f 176 181 165
f 164 183 166
f 166 183 167
f 169 188 176
f 193 188 169
f 167 202 173
f 174 202 177
f 173 202 174
f 179 178 162
f 178 175 162
f 181 179 165
f 175 180 164
f 178 180 175
f 179 182 178
f 181 182 179
f 189 182 181
f 182 180 178
f 183 186 167
f 186 187 167
f 187 201 167
f 180 183 164
f 184 185 183
f 182 183 180
f 182 184 183
f 182 185 184
f 182 186 185
f 185 186 183
f 182 187 186
f 182 198 197
f 182 197 187
f 188 181 176
f 194 193 170
f 177 194 170
f 188 189 181
f 190 189 188
f 182 189 190
f 182 190 191
f 182 191 192
f 182 192 199
f 191 190 188
f 192 191 188
f 199 192 177
f 193 192 188
f 194 192 193
f 177 192 194
f 201 202 167
f 182 196 195
f 182 200 196
f 182 195 198
f 182 199 200
f 187 197 202
f 198 195 202
f 197 198 202
f 200 199 177
f 196 200 202
f 195 196 202
f 201 187 202
f 202 200 177
