v 0.092085 0.046811 0.048677
v 0.091969 0.046869 0.048661
v 0.091802 0.046953 0.048656
v 0.091636 0.047036 0.048648
v 0.091469 0.047120 0.048636
v 0.091303 0.047203 0.048621
v 0.091470 0.047119 0.048736
v 0.091160 0.047274 0.048743
v 0.090653 0.047528 0.048721
v 0.090620 0.047545 0.048564
v 0.090681 0.047514 0.048540
v 0.089822 0.047944 0.048349
v 0.089985 0.047863 0.048388
v 0.090077 0.047817 0.048630
v 0.099955 0.050129 0.049478
v 0.099559 0.050327 0.049437
v 0.098981 0.050616 0.049413
v 0.099632 0.050288 0.049518
v 0.107439 0.061888 0.050286
v 0.110435 0.068405 0.050967
v 0.113194 0.070890 0.051176
v 0.114742 0.080008 0.051863
v 0.097250 0.051483 0.049271
v 0.098403 0.050906 0.049378
v 0.097826 0.051195 0.049330
v 0.098949 0.050673 0.049621
v 0.097071 0.051573 0.049701
v 0.096056 0.052033 0.049118
v 0.095974 0.052113 0.049671
v 0.103541 0.055511 0.049756
v 0.097978 0.058598 0.049022
v 0.100906 0.058481 0.050035
v 0.096929 0.051642 0.049691
v 0.094101 0.052918 0.048762
v 0.094265 0.052829 0.049517
v 0.092439 0.053782 0.049156
v 0.103902 0.062669 0.049778
v 0.100316 0.062814 0.050024
v 0.102952 0.063984 0.049574
v 0.111613 0.076246 0.050723
v 0.110135 0.082326 0.049868
v 0.105268 0.068817 0.050626
v 0.103751 0.070573 0.049277
v 0.099925 0.067106 0.048661
v 0.106575 0.080554 0.048985
v 0.105493 0.076996 0.050379
v 0.103694 0.074030 0.050138
v 0.106337 0.069830 0.050763
v 0.107102 0.066948 0.050768
v 0.119134 0.080960 0.052208
v 0.121464 0.089575 0.052458
v 0.112578 0.075405 0.050995
v 0.118164 0.090024 0.052484
v 0.117502 0.089037 0.051444
v 0.111602 0.080647 0.050471
v 0.111456 0.087991 0.049685
v 0.122244 0.110224 0.050850
v 0.120107 0.109836 0.050077
v 0.115379 0.085955 0.052017
v 0.110873 0.084847 0.051180
v 0.120151 0.099517 0.051333
v 0.121794 0.104518 0.051382
v 0.113919 0.089704 0.051687
v 0.118623 0.099651 0.052334
v 0.121473 0.111751 0.052418
v 0.093283 0.061707 0.047750
v 0.089659 0.048026 0.048309
v 0.089122 0.048293 0.048259
v 0.092124 0.054050 0.048275
v 0.090373 0.054075 0.047919
v 0.092688 0.053767 0.048416
v 0.090459 0.054818 0.048435
v 0.098306 0.070026 0.047888
v 0.089968 0.055581 0.047947
v 0.102237 0.075153 0.048332
v 0.106952 0.089949 0.047810
v 0.101141 0.085544 0.046784
v 0.093083 0.063602 0.047675
v 0.097927 0.074703 0.047917
v 0.100423 0.078292 0.048478
v 0.107935 0.086352 0.048692
v 0.104745 0.096463 0.046318
v 0.104890 0.093469 0.047814
v 0.111756 0.099184 0.048264
v 0.107852 0.098305 0.046860
v 0.114155 0.107953 0.047903
v 0.109273 0.107003 0.046139
v 0.102019 0.085947 0.047728
v 0.110301 0.107246 0.048233
v 0.091921 0.054152 0.048981
v 0.096001 0.066015 0.048762
v 0.098610 0.066920 0.049460
v 0.104188 0.080917 0.049604
v 0.104269 0.084260 0.049178
v 0.106956 0.089155 0.049583
v 0.112426 0.094692 0.049179
v 0.110902 0.103003 0.049288
v 0.112069 0.098094 0.050456
v 0.115300 0.102753 0.051131
v 0.124373 0.110484 0.051627
v 0.133875 0.130852 0.052886
v 0.142373 0.152604 0.051547
v 0.119061 0.119109 0.048306
v 0.128060 0.138255 0.049445
v 0.113526 0.115385 0.046492
v 0.119406 0.137213 0.045719
v 0.123726 0.130472 0.048665
v 0.126420 0.145934 0.047648
v 0.116489 0.127237 0.048389
v 0.130010 0.151893 0.048362
v 0.134616 0.161335 0.048697
v 0.133067 0.161965 0.048372
v 0.133646 0.163908 0.048372
v 0.121551 0.116278 0.049789
v 0.114773 0.107656 0.050409
v 0.128417 0.130048 0.050801
v 0.130372 0.137707 0.050508
v 0.132694 0.136117 0.051652
v 0.126670 0.135817 0.052312
v 0.114804 0.115276 0.049363
v 0.119742 0.124337 0.050544
v 0.123139 0.138159 0.050461
v 0.133816 0.154499 0.049374
v 0.136792 0.153745 0.050293
v 0.135520 0.141194 0.051839
v 0.135461 0.155352 0.051425
v 0.133810 0.156372 0.051018
v 0.138942 0.153919 0.050786
v 0.142246 0.159601 0.050911
v 0.141539 0.159955 0.050986
v 0.139976 0.160738 0.050985
v 0.126518 0.147804 0.050320
v 0.136498 0.161236 0.049505
v 0.139563 0.160945 0.050297
v 0.133082 0.156932 0.048869
v 0.137329 0.161294 0.050858
v 0.129267 0.144860 0.051829
v 0.138856 0.161277 0.050179
v 0.124089 0.090044 0.053137
v 0.126297 0.093254 0.053542
v 0.120929 0.090222 0.052876
v 0.121912 0.098528 0.051997
v 0.124794 0.113507 0.053253
v 0.132053 0.113375 0.053904
v 0.132939 0.113331 0.054884
v 0.136036 0.126276 0.055507
v 0.134242 0.110663 0.054702
v 0.142548 0.126331 0.056190
v 0.135108 0.110542 0.055043
v 0.144409 0.128204 0.056578
v 0.137354 0.125668 0.054660
v 0.138390 0.125253 0.055957
v 0.142027 0.131952 0.056031
v 0.128299 0.113263 0.054082
v 0.128877 0.115414 0.052689
v 0.127406 0.116224 0.053788
v 0.137233 0.130073 0.054135
v 0.131917 0.132403 0.054339
v 0.135656 0.130700 0.055349
v 0.138530 0.133460 0.055511
v 0.142756 0.137571 0.054383
v 0.144844 0.141384 0.054105
v 0.140627 0.132190 0.054840
v 0.143926 0.151439 0.051983
v 0.136693 0.135414 0.053180
v 0.140549 0.153027 0.051989
v 0.137934 0.154301 0.051796
v 0.139164 0.139394 0.054581
v 0.124644 0.117607 0.052994
v 0.127081 0.131113 0.052892
v 0.130502 0.133095 0.053871
v 0.135305 0.141333 0.053809
v 0.131312 0.147091 0.052028
v 0.142757 0.168800 0.060388
v 0.109863 0.114061 0.046061
v 0.114073 0.130159 0.045199
v 0.117053 0.134825 0.045130
v 0.117476 0.142866 0.044673
v 0.115430 0.134845 0.045763
v 0.121595 0.146189 0.048160
v 0.126044 0.160169 0.046595
v 0.122628 0.152318 0.047506
v 0.128938 0.157727 0.047419
v 0.131711 0.164877 0.047649
v 0.129375 0.166050 0.047173
v 0.133145 0.164159 0.048183
v 0.132429 0.164517 0.047913
v 0.129751 0.164185 0.048372
v 0.125141 0.172069 0.048394
v 0.124559 0.146683 0.049628
v 0.133047 0.162138 0.050011
v 0.128509 0.159222 0.048959
v 0.130098 0.157863 0.049852
v 0.131331 0.163522 0.057082
v 0.128913 0.175983 0.058307
v 0.136569 0.165469 0.060418
v 0.131901 0.169705 0.060387
v 0.131308 0.171845 0.060388
v 0.145277 0.162314 0.050310
v 0.158765 0.202357 0.044743
v 0.154081 0.192649 0.045624
v 0.157396 0.208934 0.045247
v 0.145745 0.178610 0.047235
v 0.143420 0.179774 0.047649
v 0.145471 0.180328 0.048308
v 0.142702 0.180133 0.047913
v 0.141986 0.180492 0.048183
v 0.162500 0.221146 0.045087
v 0.164707 0.232367 0.047151
v 0.141794 0.182677 0.050141
v 0.152086 0.193371 0.048188
v 0.149486 0.176596 0.050981
v 0.143628 0.170843 0.060387
v 0.143806 0.172229 0.060387
v 0.143671 0.173620 0.060387
v 0.143230 0.174946 0.060387
v 0.142158 0.176602 0.060388
v 0.137565 0.172325 0.048372
v 0.141485 0.180743 0.048372
v 0.141666 0.182919 0.048459
v 0.134287 0.183638 0.048378
v 0.145051 0.202977 0.049797
v 0.164729 0.239996 0.048734
v 0.161982 0.233870 0.047048
v 0.158056 0.231923 0.048404
v 0.145573 0.214143 0.051234
v 0.156705 0.235376 0.049494
v 0.140243 0.183269 0.049017
v 0.143759 0.189995 0.048567
v 0.146515 0.196121 0.050999
v 0.137753 0.183495 0.049769
v 0.138236 0.189711 0.050191
v 0.136190 0.183390 0.049984
v 0.146460 0.204509 0.052571
v 0.138888 0.198396 0.051305
v 0.138974 0.189765 0.051577
v 0.135155 0.183913 0.050985
v 0.135265 0.184043 0.050817
v 0.154802 0.216029 0.050290
v 0.161798 0.236070 0.049604
v 0.154078 0.226765 0.051779
v 0.146749 0.209720 0.052996
v 0.157451 0.232657 0.051086
v 0.157661 0.245189 0.052056
v 0.132490 0.185296 0.050813
v 0.139385 0.210125 0.052995
v 0.141243 0.217638 0.053324
v 0.153094 0.236763 0.051080
v 0.145802 0.232082 0.053114
v 0.169431 0.245632 0.046197
v 0.173581 0.257859 0.046739
v 0.164121 0.243674 0.047697
v 0.167200 0.254173 0.048097
v 0.173717 0.260959 0.047904
v 0.171191 0.266897 0.048507
v 0.171519 0.255495 0.046792
v 0.178552 0.271904 0.047307
v 0.174286 0.268085 0.048968
v 0.181592 0.282814 0.048525
v 0.174434 0.270376 0.047994
v 0.178124 0.276497 0.048801
v 0.176158 0.278380 0.048515
v 0.183701 0.285525 0.047726
v 0.179374 0.285680 0.048548
v 0.186302 0.296168 0.048146
v 0.183571 0.290318 0.048133
v 0.183007 0.290600 0.048275
v 0.185888 0.296416 0.048234
v 0.185635 0.296543 0.048271
v 0.185472 0.296625 0.048309
v 0.184734 0.289632 0.048388
v 0.182442 0.290883 0.048416
v 0.160982 0.239544 0.050434
v 0.163172 0.250385 0.050812
v 0.162451 0.248981 0.049128
v 0.172009 0.263397 0.049205
v 0.170416 0.264319 0.049859
v 0.169201 0.265140 0.050295
v 0.177974 0.282115 0.049494
v 0.185323 0.296687 0.048652
v 0.182411 0.290908 0.049205
v 0.185309 0.296706 0.048349
v 0.184592 0.297065 0.048514
v 0.184511 0.297106 0.048564
v 0.183994 0.297365 0.048602
v 0.184543 0.297090 0.048725
v 0.183828 0.297448 0.048621
v 0.183662 0.297531 0.048636
v 0.183495 0.297614 0.048648
v 0.183329 0.297698 0.048656
v 0.183162 0.297781 0.048661
v 0.183506 0.297609 0.048728
v 0.183046 0.297839 0.048672
v 0.162352 0.255039 0.049953
v 0.157811 0.244664 0.050292
v 0.163863 0.259073 0.049907
v 0.168842 0.268328 0.049401
v 0.163372 0.264301 0.050523
v 0.162113 0.254257 0.051407
v 0.153693 0.243132 0.051562
v 0.154057 0.249452 0.052026
v 0.159487 0.253700 0.051991
v 0.167308 0.266163 0.050815
v 0.165987 0.266444 0.051085
v 0.159274 0.258935 0.051218
v 0.167526 0.275038 0.050887
v 0.158185 0.255843 0.052274
v 0.163418 0.270548 0.050859
v 0.157148 0.265854 0.052014
v 0.155943 0.255536 0.051896
v 0.158266 0.259388 0.052229
v 0.166368 0.275917 0.050946
v 0.154381 0.260572 0.052499
v 0.160702 0.269110 0.051627
v 0.171484 0.276611 0.049494
v 0.175978 0.280600 0.049792
v 0.175200 0.282412 0.049103
v 0.171205 0.272683 0.050328
v 0.170605 0.276093 0.050538
v 0.171498 0.281607 0.049734
v 0.165961 0.270103 0.050278
v 0.181902 0.291234 0.049332
v 0.177482 0.286346 0.048969
v 0.180944 0.291633 0.049495
v 0.179847 0.292203 0.049628
v 0.173328 0.287219 0.049590
v 0.179477 0.292340 0.049049
v 0.178456 0.292880 0.049200
v 0.179086 0.292595 0.049677
v 0.177881 0.293168 0.049271
v 0.177755 0.293233 0.049700
v 0.177305 0.293456 0.049330
v 0.176728 0.293745 0.049378
v 0.175981 0.286861 0.049922
v 0.174141 0.286444 0.050045
v 0.164251 0.271456 0.050721
v 0.166537 0.277073 0.050463
v 0.168405 0.284203 0.050151
v 0.172368 0.289626 0.049772
v 0.176150 0.294034 0.049413
v 0.176616 0.293803 0.049643
v 0.175572 0.294324 0.049437
v 0.175176 0.294522 0.049478
v 0.175750 0.294234 0.049556
v 0.165209 0.277738 0.050856
v 0.162560 0.275083 0.051089
v 0.139812 0.183609 0.051156
v 0.143662 0.210614 0.054087
v 0.140910 0.211944 0.054924
v 0.139402 0.209697 0.054877
v 0.135446 0.181286 0.058809
v 0.149777 0.226330 0.053162
v 0.139848 0.178171 0.060388
v 0.137662 0.178566 0.060387
v 0.132747 0.176292 0.060387
v 0.133381 0.206702 0.054944
v 0.130163 0.212476 0.056017
v 0.134462 0.211873 0.055816
v 0.130777 0.197886 0.052924
v 0.131928 0.214253 0.055777
v 0.139040 0.218317 0.054176
v 0.137062 0.211984 0.054015
v 0.149049 0.233118 0.053641
v 0.156333 0.244174 0.052341
v 0.147708 0.242012 0.053958
v 0.146999 0.235375 0.054099
v 0.138310 0.212999 0.055488
v 0.143905 0.229162 0.054618
v 0.133426 0.218549 0.055964
v 0.138624 0.219637 0.054393
v 0.146451 0.246228 0.053942
v 0.135089 0.220160 0.056189
v 0.132827 0.221064 0.056405
v 0.137187 0.219372 0.055871
v 0.139759 0.233491 0.055046
v 0.153127 0.247496 0.053081
v 0.153386 0.252109 0.053007
v 0.148073 0.243006 0.053284
v 0.149147 0.249489 0.053315
v 0.149619 0.249253 0.053508
v 0.157528 0.260965 0.052275
v -0.044883 0.076261 0.048661
v -0.044765 0.076405 0.048656
v -0.044647 0.076549 0.048648
v -0.044966 0.076161 0.048677
v -0.044529 0.076693 0.048636
v -0.044411 0.076837 0.048621
v -0.044125 0.077185 0.048572
v -0.044417 0.076829 0.048744
v -0.043926 0.077427 0.048564
v -0.043682 0.077724 0.048456
v -0.043360 0.078116 0.048349
v -0.043949 0.077398 0.048721
v -0.053164 0.082929 0.048978
v -0.048748 0.081782 0.048553
v -0.051754 0.085626 0.048346
v -0.068884 0.098807 0.048816
v -0.053505 0.075991 0.049478
v -0.053224 0.076333 0.049437
v -0.052214 0.077524 0.049680
v -0.052813 0.076832 0.049413
v -0.059264 0.079621 0.049773
v -0.058246 0.081467 0.049983
v -0.065793 0.083654 0.050370
v -0.063886 0.084859 0.050061
v -0.066183 0.087938 0.050707
v -0.069474 0.089773 0.050993
v -0.076449 0.090989 0.051456
v -0.051585 0.078328 0.049271
v -0.052403 0.077332 0.049378
v -0.051994 0.077830 0.049330
v -0.054988 0.080305 0.049443
v -0.051947 0.077645 0.049664
v -0.056921 0.085956 0.049918
v -0.050363 0.079816 0.049025
v -0.049315 0.080844 0.049500
v -0.048119 0.082519 0.049123
v -0.057125 0.089004 0.049613
v -0.065758 0.090252 0.049821
v -0.071286 0.095444 0.050026
v -0.062654 0.085590 0.049856
v -0.073185 0.092532 0.050773
v -0.064880 0.092022 0.050418
v -0.057897 0.086544 0.049096
v -0.073870 0.100716 0.049516
v -0.065741 0.097026 0.049824
v -0.064671 0.090622 0.050490
v -0.088370 0.099893 0.052769
v -0.090564 0.103495 0.052707
v -0.079111 0.097695 0.051867
v -0.083128 0.100994 0.051524
v -0.091701 0.107482 0.052357
v -0.082180 0.103979 0.051918
v -0.079824 0.102149 0.050614
v -0.083361 0.111134 0.049390
v -0.082732 0.112406 0.050673
v -0.088722 0.111901 0.050688
v -0.077166 0.100241 0.051455
v -0.081631 0.110449 0.050807
v -0.091460 0.111393 0.051527
v -0.105093 0.122756 0.052566
v -0.092385 0.112332 0.052814
v -0.043244 0.078257 0.048309
v -0.042912 0.078660 0.048225
v -0.047946 0.082758 0.048275
v -0.049711 0.087026 0.047821
v -0.043127 0.078399 0.048481
v -0.046175 0.084464 0.047881
v -0.047323 0.085701 0.047968
v -0.068926 0.101178 0.048257
v -0.060299 0.091770 0.048602
v -0.059802 0.093806 0.048069
v -0.059944 0.095623 0.048715
v -0.056876 0.095248 0.047483
v -0.075394 0.111602 0.047046
v -0.065246 0.102382 0.047159
v -0.046902 0.084451 0.048415
v -0.084171 0.116104 0.048201
v -0.070560 0.108109 0.046878
v -0.067050 0.104452 0.048003
v -0.073507 0.109263 0.048678
v -0.088773 0.127954 0.046022
v -0.086675 0.126181 0.047487
v -0.092713 0.124623 0.048289
v -0.060179 0.098550 0.047417
v -0.080309 0.120493 0.046190
v -0.086233 0.125370 0.046099
v -0.054441 0.088228 0.049253
v -0.058181 0.094218 0.048634
v -0.072981 0.103870 0.050060
v -0.084019 0.119044 0.049164
v -0.086286 0.114463 0.049328
v -0.095340 0.122200 0.049864
v -0.098645 0.135565 0.049351
v -0.082275 0.109079 0.051237
v -0.103478 0.124876 0.051593
v -0.129010 0.148103 0.052047
v -0.134872 0.151321 0.051862
v -0.098767 0.131216 0.048223
v -0.095198 0.133584 0.046308
v -0.103903 0.146425 0.045200
v -0.086363 0.127701 0.046018
v -0.103043 0.137927 0.047546
v -0.096141 0.137720 0.047173
v -0.139839 0.160426 0.048383
v -0.120932 0.156310 0.048070
v -0.121760 0.154577 0.048765
v -0.131483 0.162685 0.048373
v -0.129405 0.164498 0.048446
v -0.130561 0.166230 0.048372
v -0.101444 0.127694 0.050190
v -0.096855 0.130239 0.050388
v -0.117420 0.144772 0.050333
v -0.126103 0.155381 0.049733
v -0.103892 0.130151 0.052605
v -0.114454 0.137963 0.051431
v -0.102291 0.133650 0.051333
v -0.113366 0.144372 0.052245
v -0.115378 0.146093 0.052287
v -0.110525 0.149145 0.049757
v -0.113015 0.154848 0.048529
v -0.108436 0.142041 0.051193
v -0.131278 0.154939 0.050779
v -0.136564 0.158922 0.050914
v -0.122025 0.145947 0.051247
v -0.126439 0.154232 0.052053
v -0.136164 0.159408 0.050986
v -0.135055 0.160759 0.050985
v -0.129813 0.156469 0.051664
v -0.128064 0.158286 0.049479
v -0.118144 0.153205 0.050962
v -0.127909 0.159233 0.049229
v -0.134042 0.161824 0.050065
v -0.131847 0.162760 0.049432
v -0.131620 0.163077 0.050654
v -0.131013 0.163223 0.049132
v -0.130478 0.163820 0.050375
v -0.128942 0.165234 0.049823
v -0.123372 0.154531 0.051611
v -0.133838 0.162013 0.050884
v -0.134095 0.161928 0.050888
v -0.087918 0.102727 0.052763
v -0.096265 0.105882 0.053619
v -0.101090 0.109839 0.054095
v -0.087806 0.104874 0.052688
v -0.094772 0.111158 0.053329
v -0.096748 0.121682 0.052407
v -0.109622 0.117771 0.054663
v -0.107808 0.120148 0.053815
v -0.121671 0.132173 0.054980
v -0.121300 0.133103 0.054628
v -0.109860 0.116595 0.054995
v -0.122638 0.127818 0.056110
v -0.125911 0.129438 0.056557
v -0.108086 0.120451 0.054704
v -0.119505 0.128565 0.056022
v -0.117317 0.131162 0.055515
v -0.101991 0.123309 0.053326
v -0.102146 0.126635 0.052824
v -0.118203 0.134242 0.053582
v -0.121281 0.136628 0.053678
v -0.113778 0.135840 0.054179
v -0.108633 0.127015 0.054234
v -0.120236 0.137855 0.055021
v -0.130234 0.137435 0.054939
v -0.122664 0.141760 0.052631
v -0.132498 0.143421 0.053575
v -0.128996 0.138933 0.054316
v -0.132440 0.153295 0.052015
v -0.126713 0.140300 0.054811
v -0.131066 0.155065 0.051865
v -0.115167 0.140323 0.053662
v -0.117187 0.141612 0.053783
v -0.122336 0.145568 0.053617
v -0.120388 0.147424 0.052958
v -0.135390 0.162115 0.055581
v -0.133107 0.161754 0.051593
v -0.140235 0.166576 0.060388
v -0.136828 0.166093 0.060388
v -0.103968 0.147151 0.045081
v -0.109761 0.149561 0.046201
v -0.107754 0.154569 0.044835
v -0.107288 0.152270 0.046611
v -0.120425 0.162911 0.046403
v -0.116499 0.161775 0.046431
v -0.129188 0.167902 0.047649
v -0.130205 0.166663 0.048183
v -0.129697 0.167282 0.047913
v -0.122124 0.164847 0.047959
v -0.127601 0.169837 0.047181
v -0.127115 0.168067 0.048372
v -0.123577 0.163233 0.049152
v -0.125318 0.162388 0.049863
v -0.127013 0.169516 0.055669
v -0.133545 0.167427 0.060390
v -0.131982 0.169536 0.060387
v -0.131502 0.170849 0.060387
v -0.131325 0.172235 0.060387
v -0.131654 0.174431 0.060388
v -0.148766 0.168985 0.048375
v -0.147561 0.174785 0.047207
v -0.166807 0.189887 0.044846
v -0.160442 0.183689 0.045876
v -0.147793 0.175794 0.048222
v -0.151817 0.179823 0.048409
v -0.145943 0.176749 0.047649
v -0.153291 0.185502 0.047616
v -0.145434 0.177369 0.047913
v -0.144926 0.177988 0.048183
v -0.166289 0.195896 0.049282
v -0.178327 0.203742 0.045430
v -0.166270 0.191908 0.047537
v -0.160259 0.192847 0.050547
v -0.147614 0.177455 0.048859
v -0.149022 0.183703 0.050444
v -0.141162 0.162210 0.055638
v -0.148819 0.171557 0.055583
v -0.142501 0.168505 0.060387
v -0.143227 0.169699 0.060387
v -0.143670 0.171025 0.060387
v -0.143806 0.172416 0.060387
v -0.143500 0.174364 0.060388
v -0.132495 0.182477 0.048372
v -0.144570 0.178421 0.048372
v -0.145625 0.180302 0.048468
v -0.148620 0.183715 0.048500
v -0.139172 0.183994 0.048378
v -0.160417 0.193278 0.047390
v -0.148970 0.186188 0.048984
v -0.155710 0.193247 0.048959
v -0.125919 0.175759 0.048384
v -0.170107 0.199652 0.045963
v -0.172118 0.199096 0.045189
v -0.173906 0.204056 0.048616
v -0.162753 0.200472 0.048815
v -0.184732 0.216198 0.048356
v -0.182969 0.216872 0.047114
v -0.186311 0.216367 0.045957
v -0.173190 0.211128 0.048581
v -0.181289 0.218386 0.048140
v -0.144457 0.181237 0.049019
v -0.146071 0.179528 0.049887
v -0.144344 0.181092 0.050483
v -0.141981 0.182546 0.049837
v -0.142256 0.182474 0.049731
v -0.153355 0.192349 0.052008
v -0.146133 0.186883 0.051442
v -0.141036 0.182723 0.050888
v -0.141134 0.182690 0.050887
v -0.138465 0.185853 0.050911
v -0.146606 0.188506 0.050049
v -0.159199 0.202133 0.050546
v -0.140343 0.183566 0.050963
v -0.139503 0.184590 0.050993
v -0.138967 0.185242 0.050986
v -0.140711 0.183094 0.049915
v -0.142778 0.182123 0.050747
v -0.143475 0.191588 0.051197
v -0.156685 0.206535 0.052613
v -0.170296 0.205646 0.050743
v -0.178795 0.220669 0.049652
v -0.184925 0.224204 0.050903
v -0.164090 0.206425 0.053024
v -0.160263 0.198983 0.052285
v -0.162582 0.210667 0.051943
v -0.174882 0.218664 0.052470
v -0.140794 0.193243 0.051738
v -0.173758 0.221182 0.051335
v -0.159670 0.211218 0.052981
v -0.173756 0.225425 0.052378
v -0.193945 0.223243 0.046338
v -0.203029 0.233324 0.046653
v -0.198889 0.230461 0.047803
v -0.209597 0.241756 0.048012
v -0.199318 0.232408 0.046982
v -0.192832 0.228792 0.047723
v -0.202847 0.238703 0.047775
v -0.206730 0.240586 0.047366
v -0.209978 0.242214 0.047140
v -0.200456 0.236240 0.049377
v -0.204127 0.243090 0.048647
v -0.225606 0.256977 0.047961
v -0.222556 0.255035 0.047746
v -0.208799 0.244611 0.049281
v -0.203481 0.238886 0.047702
v -0.228580 0.259604 0.047897
v -0.232249 0.265953 0.048227
v -0.227586 0.261405 0.048133
v -0.227185 0.261892 0.048275
v -0.232003 0.266252 0.048271
v -0.231887 0.266393 0.048309
v -0.227333 0.261606 0.048972
v -0.231743 0.266569 0.048597
v -0.187327 0.222508 0.049573
v -0.190492 0.229853 0.050648
v -0.187466 0.228448 0.049244
v -0.192053 0.232886 0.049145
v -0.200516 0.240236 0.050354
v -0.188689 0.230166 0.051194
v -0.213217 0.249111 0.049261
v -0.228146 0.260389 0.048488
v -0.218014 0.256172 0.049685
v -0.226563 0.262625 0.048489
v -0.231771 0.266534 0.048349
v -0.231205 0.267223 0.048564
v -0.230737 0.267793 0.048755
v -0.231263 0.267153 0.048514
v -0.230838 0.267670 0.048602
v -0.230720 0.267814 0.048621
v -0.230602 0.267957 0.048636
v -0.230484 0.268101 0.048648
v -0.230366 0.268245 0.048656
v -0.230247 0.268389 0.048661
v -0.230165 0.268489 0.048672
v -0.192662 0.236065 0.049822
v -0.185131 0.231291 0.050677
v -0.200884 0.247088 0.050270
v -0.204509 0.244750 0.048974
v -0.204252 0.245771 0.049267
v -0.203705 0.247107 0.049668
v -0.184600 0.230423 0.052220
v -0.194123 0.240203 0.051663
v -0.183810 0.233463 0.051535
v -0.191293 0.241771 0.051373
v -0.195696 0.239563 0.051275
v -0.205009 0.248294 0.050744
v -0.197621 0.246760 0.050870
v -0.193875 0.243384 0.051976
v -0.181956 0.235156 0.052316
v -0.187931 0.239982 0.052615
v -0.181011 0.239501 0.053215
v -0.201636 0.250903 0.050684
v -0.201018 0.252550 0.050967
v -0.189336 0.246870 0.052505
v -0.196085 0.251599 0.051769
v -0.201216 0.251394 0.051379
v -0.190897 0.247779 0.052273
v -0.200205 0.253836 0.051195
v -0.213301 0.250897 0.048479
v -0.217826 0.258037 0.049002
v -0.213195 0.255135 0.049303
v -0.212091 0.253869 0.050267
v -0.211960 0.250895 0.049924
v -0.210197 0.255629 0.050601
v -0.216911 0.259611 0.050055
v -0.219249 0.256753 0.048582
v -0.226267 0.262996 0.049364
v -0.224668 0.264917 0.049049
v -0.225721 0.263675 0.049495
v -0.225313 0.264171 0.049571
v -0.216867 0.259596 0.049324
v -0.223954 0.265826 0.049200
v -0.224606 0.265066 0.049669
v -0.223546 0.266323 0.049271
v -0.223458 0.266433 0.049700
v -0.223137 0.266820 0.049330
v -0.222728 0.267319 0.049378
v -0.222809 0.267207 0.049635
v -0.205697 0.252702 0.050958
v -0.209584 0.255856 0.049992
v -0.214891 0.263638 0.049782
v -0.215695 0.260463 0.049545
v -0.210973 0.262100 0.050185
v -0.205155 0.258070 0.050800
v -0.215927 0.265373 0.049745
v -0.222318 0.267818 0.049413
v -0.222443 0.267666 0.049617
v -0.221907 0.268318 0.049437
v -0.221626 0.268660 0.049478
v -0.222034 0.268164 0.049556
v -0.213634 0.261698 0.050164
v -0.207420 0.255280 0.050834
v -0.143876 0.181871 0.051775
v -0.155580 0.208606 0.055377
v -0.139741 0.182536 0.055581
v -0.129936 0.179878 0.055638
v -0.171781 0.219116 0.053300
v -0.142028 0.176738 0.060388
v -0.140192 0.177987 0.060387
v -0.136507 0.180732 0.059250
v -0.133684 0.177335 0.060390
v -0.150154 0.202437 0.054476
v -0.144728 0.197618 0.053307
v -0.150278 0.210037 0.055845
v -0.141091 0.196591 0.052629
v -0.152782 0.212985 0.055224
v -0.149782 0.211266 0.055326
v -0.147106 0.212044 0.056005
v -0.154334 0.207410 0.053402
v -0.158963 0.206499 0.054339
v -0.162662 0.217688 0.053665
v -0.168169 0.223777 0.053469
v -0.174230 0.228432 0.053897
v -0.153476 0.212755 0.056116
v -0.158271 0.212814 0.055355
v -0.175528 0.233541 0.053955
v -0.166222 0.223802 0.053965
v -0.165035 0.226789 0.054763
v -0.149820 0.215718 0.056481
v -0.159619 0.221449 0.055635
v -0.152937 0.218646 0.056439
v -0.166681 0.223077 0.054671
v -0.171183 0.232596 0.054385
v -0.179361 0.229424 0.053121
v -0.179854 0.231727 0.053258
v -0.177344 0.233614 0.053727
v -0.186110 0.241700 0.052881
v -0.180343 0.237119 0.053004
v -0.092085 -0.046811 0.048677
v -0.091969 -0.046869 0.048661
v -0.091802 -0.046953 0.048656
v -0.091636 -0.047036 0.048648
v -0.091469 -0.047120 0.048636
v -0.091303 -0.047203 0.048621
v -0.091470 -0.047119 0.048736
v -0.091160 -0.047274 0.048743
v -0.090653 -0.047528 0.048721
v -0.090620 -0.047545 0.048564
v -0.090681 -0.047514 0.048540
v -0.089822 -0.047944 0.048349
v -0.089985 -0.047863 0.048388
v -0.090077 -0.047817 0.048630
v -0.099955 -0.050129 0.049478
v -0.099559 -0.050327 0.049437
v -0.098981 -0.050616 0.049413
v -0.099632 -0.050288 0.049518
v -0.107439 -0.061888 0.050286
v -0.110435 -0.068405 0.050967
v -0.113194 -0.070890 0.051176
v -0.114742 -0.080008 0.051863
v -0.097250 -0.051483 0.049271
v -0.098403 -0.050906 0.049378
v -0.097826 -0.051195 0.049330
v -0.098949 -0.050673 0.049621
v -0.097071 -0.051573 0.049701
v -0.096056 -0.052033 0.049118
v -0.095974 -0.052113 0.049671
v -0.103541 -0.055511 0.049756
v -0.097978 -0.058598 0.049022
v -0.100906 -0.058481 0.050035
v -0.096929 -0.051642 0.049691
v -0.094101 -0.052918 0.048762
v -0.094265 -0.052829 0.049517
v -0.092439 -0.053782 0.049156
v -0.103902 -0.062669 0.049778
v -0.100316 -0.062814 0.050024
v -0.102952 -0.063984 0.049574
v -0.111613 -0.076246 0.050723
v -0.110135 -0.082326 0.049868
v -0.105268 -0.068817 0.050626
v -0.103751 -0.070573 0.049277
v -0.099925 -0.067106 0.048661
v -0.106575 -0.080554 0.048985
v -0.105493 -0.076996 0.050379
v -0.103694 -0.074030 0.050138
v -0.106337 -0.069830 0.050763
v -0.107102 -0.066948 0.050768
v -0.119134 -0.080960 0.052208
v -0.121464 -0.089575 0.052458
v -0.112578 -0.075405 0.050995
v -0.118164 -0.090024 0.052484
v -0.117502 -0.089037 0.051444
v -0.111602 -0.080647 0.050471
v -0.111456 -0.087991 0.049685
v -0.122244 -0.110224 0.050850
v -0.120107 -0.109836 0.050077
v -0.115379 -0.085955 0.052017
v -0.110873 -0.084847 0.051180
v -0.120151 -0.099517 0.051333
v -0.121794 -0.104518 0.051382
v -0.113919 -0.089704 0.051687
v -0.118623 -0.099651 0.052334
v -0.121473 -0.111751 0.052418
v -0.093283 -0.061707 0.047750
v -0.089659 -0.048026 0.048309
v -0.089122 -0.048293 0.048259
v -0.092124 -0.054050 0.048275
v -0.090373 -0.054075 0.047919
v -0.092688 -0.053767 0.048416
v -0.090459 -0.054818 0.048435
v -0.098306 -0.070026 0.047888
v -0.089968 -0.055581 0.047947
v -0.102237 -0.075153 0.048332
v -0.106952 -0.089949 0.047810
v -0.101141 -0.085544 0.046784
v -0.093083 -0.063602 0.047675
v -0.097927 -0.074703 0.047917
v -0.100423 -0.078292 0.048478
v -0.107935 -0.086352 0.048692
v -0.104745 -0.096463 0.046318
v -0.104890 -0.093469 0.047814
v -0.111756 -0.099184 0.048264
v -0.107852 -0.098305 0.046860
v -0.114155 -0.107953 0.047903
v -0.109273 -0.107003 0.046139
v -0.102019 -0.085947 0.047728
v -0.110301 -0.107246 0.048233
v -0.091921 -0.054152 0.048981
v -0.096001 -0.066015 0.048762
v -0.098610 -0.066920 0.049460
v -0.104188 -0.080917 0.049604
v -0.104269 -0.084260 0.049178
v -0.106956 -0.089155 0.049583
v -0.112426 -0.094692 0.049179
v -0.110902 -0.103003 0.049288
v -0.112069 -0.098094 0.050456
v -0.115300 -0.102753 0.051131
v -0.124373 -0.110484 0.051627
v -0.133875 -0.130852 0.052886
v -0.142373 -0.152604 0.051547
v -0.119061 -0.119109 0.048306
v -0.128060 -0.138255 0.049445
v -0.113526 -0.115385 0.046492
v -0.119406 -0.137213 0.045719
v -0.123726 -0.130472 0.048665
v -0.126420 -0.145934 0.047648
v -0.116489 -0.127237 0.048389
v -0.130010 -0.151893 0.048362
v -0.134616 -0.161335 0.048697
v -0.133067 -0.161965 0.048372
v -0.133646 -0.163908 0.048372
v -0.121551 -0.116278 0.049789
v -0.114773 -0.107656 0.050409
v -0.128417 -0.130048 0.050801
v -0.130372 -0.137707 0.050508
v -0.132694 -0.136117 0.051652
v -0.126670 -0.135817 0.052312
v -0.114804 -0.115276 0.049363
v -0.119742 -0.124337 0.050544
v -0.123139 -0.138159 0.050461
v -0.133816 -0.154499 0.049374
v -0.136792 -0.153745 0.050293
v -0.135520 -0.141194 0.051839
v -0.135461 -0.155352 0.051425
v -0.133810 -0.156372 0.051018
v -0.138942 -0.153919 0.050786
v -0.142246 -0.159601 0.050911
v -0.141539 -0.159955 0.050986
v -0.139976 -0.160738 0.050985
v -0.126518 -0.147804 0.050320
v -0.137389 -0.161155 0.049764
v -0.136706 -0.161216 0.049561
v -0.139563 -0.160945 0.050297
v -0.133082 -0.156932 0.048869
v -0.134975 -0.161374 0.049044
v -0.137043 -0.161328 0.050823
v -0.134476 -0.161711 0.050399
v -0.129267 -0.144860 0.051829
v -0.138857 -0.161331 0.050191
v -0.138355 -0.161389 0.050884
v -0.124089 -0.090044 0.053137
v -0.126297 -0.093254 0.053542
v -0.120929 -0.090222 0.052876
v -0.121912 -0.098528 0.051997
v -0.124794 -0.113507 0.053253
v -0.132053 -0.113375 0.053904
v -0.132939 -0.113331 0.054884
v -0.136036 -0.126276 0.055507
v -0.134242 -0.110663 0.054702
v -0.142548 -0.126331 0.056190
v -0.135108 -0.110542 0.055043
v -0.144409 -0.128204 0.056578
v -0.137354 -0.125668 0.054660
v -0.138390 -0.125253 0.055957
v -0.142027 -0.131952 0.056031
v -0.128299 -0.113263 0.054082
v -0.128877 -0.115414 0.052689
v -0.127406 -0.116224 0.053788
v -0.137233 -0.130073 0.054135
v -0.131917 -0.132403 0.054339
v -0.135656 -0.130700 0.055349
v -0.138530 -0.133460 0.055511
v -0.142756 -0.137571 0.054383
v -0.144844 -0.141384 0.054105
v -0.140627 -0.132190 0.054840
v -0.143926 -0.151439 0.051983
v -0.136693 -0.135414 0.053180
v -0.140549 -0.153027 0.051989
v -0.137934 -0.154301 0.051796
v -0.139164 -0.139394 0.054581
v -0.124644 -0.117607 0.052994
v -0.127081 -0.131113 0.052892
v -0.130502 -0.133095 0.053871
v -0.135305 -0.141333 0.053809
v -0.131312 -0.147091 0.052028
v -0.143813 -0.163169 0.055544
v -0.142757 -0.168800 0.060388
v -0.137974 -0.165667 0.060396
v -0.109863 -0.114061 0.046061
v -0.114073 -0.130159 0.045199
v -0.117053 -0.134825 0.045130
v -0.117476 -0.142866 0.044673
v -0.115430 -0.134845 0.045763
v -0.121595 -0.146189 0.048160
v -0.126044 -0.160169 0.046595
v -0.122628 -0.152318 0.047506
v -0.128938 -0.157727 0.047419
v -0.131711 -0.164877 0.047649
v -0.129375 -0.166050 0.047173
v -0.133145 -0.164159 0.048183
v -0.132429 -0.164517 0.047913
v -0.129751 -0.164185 0.048372
v -0.125141 -0.172069 0.048394
v -0.124559 -0.146683 0.049628
v -0.132514 -0.162371 0.049798
v -0.128509 -0.159222 0.048959
v -0.130098 -0.157863 0.049852
v -0.134939 -0.162052 0.055610
v -0.129030 -0.167001 0.057461
v -0.128913 -0.175983 0.058307
v -0.132626 -0.168510 0.060387
v -0.131901 -0.169705 0.060387
v -0.131308 -0.171845 0.060388
v -0.144482 -0.162380 0.048383
v -0.149156 -0.173830 0.048375
v -0.157575 -0.201597 0.044669
v -0.154081 -0.192649 0.045624
v -0.157294 -0.207236 0.045076
v -0.145725 -0.178622 0.047319
v -0.144143 -0.179412 0.047404
v -0.143420 -0.179774 0.047649
v -0.145471 -0.180328 0.048308
v -0.142702 -0.180133 0.047913
v -0.141986 -0.180492 0.048183
v -0.146744 -0.191414 0.047622
v -0.161528 -0.216686 0.045038
v -0.164707 -0.232367 0.047151
v -0.156355 -0.201355 0.046886
v -0.142688 -0.182246 0.049789
v -0.148198 -0.185402 0.048274
v -0.153249 -0.203588 0.049349
v -0.148158 -0.176201 0.055583
v -0.143628 -0.170843 0.060387
v -0.143806 -0.172229 0.060387
v -0.143671 -0.173620 0.060387
v -0.143230 -0.174946 0.060387
v -0.142158 -0.176602 0.060388
v -0.137565 -0.172325 0.048372
v -0.141485 -0.180743 0.048372
v -0.141666 -0.182919 0.048459
v -0.134287 -0.183638 0.048378
v -0.156182 -0.218132 0.047113
v -0.157223 -0.219398 0.046862
v -0.146592 -0.207030 0.049752
v -0.164729 -0.239996 0.048734
v -0.161982 -0.233870 0.047048
v -0.158056 -0.231923 0.048404
v -0.148194 -0.214218 0.050109
v -0.156705 -0.235376 0.049494
v -0.140986 -0.183030 0.048758
v -0.140242 -0.183269 0.049016
v -0.142403 -0.188616 0.048858
v -0.140307 -0.183059 0.050476
v -0.146515 -0.196121 0.050999
v -0.139310 -0.183352 0.049306
v -0.137739 -0.183496 0.049766
v -0.138236 -0.189711 0.050191
v -0.143246 -0.190185 0.050965
v -0.137673 -0.183356 0.050853
v -0.136507 -0.183235 0.050888
v -0.148834 -0.206281 0.051859
v -0.136303 -0.183374 0.049934
v -0.137696 -0.198108 0.051562
v -0.144126 -0.201286 0.049896
v -0.138974 -0.189765 0.051577
v -0.135155 -0.183913 0.050985
v -0.133592 -0.184695 0.050986
v -0.134882 -0.191341 0.051985
v -0.141094 -0.207717 0.052021
v -0.154802 -0.216029 0.050290
v -0.161798 -0.236070 0.049604
v -0.154078 -0.226765 0.051779
v -0.146749 -0.209720 0.052996
v -0.144489 -0.215216 0.051807
v -0.157451 -0.232657 0.051086
v -0.157661 -0.245189 0.052056
v -0.132490 -0.185296 0.050813
v -0.139385 -0.210125 0.052995
v -0.141243 -0.217638 0.053324
v -0.153094 -0.236763 0.051080
v -0.145802 -0.232082 0.053114
v -0.166811 -0.240929 0.046261
v -0.167282 -0.237879 0.046057
v -0.173581 -0.257859 0.046739
v -0.164121 -0.243674 0.047697
v -0.167200 -0.254173 0.048097
v -0.173717 -0.260959 0.047904
v -0.171191 -0.266897 0.048507
v -0.171519 -0.255495 0.046792
v -0.178552 -0.271904 0.047307
v -0.174286 -0.268085 0.048968
v -0.181592 -0.282814 0.048525
v -0.174434 -0.270376 0.047994
v -0.178124 -0.276497 0.048801
v -0.176158 -0.278380 0.048515
v -0.183701 -0.285525 0.047726
v -0.179374 -0.285680 0.048548
v -0.186302 -0.296168 0.048146
v -0.183571 -0.290318 0.048133
v -0.183007 -0.290600 0.048275
v -0.185888 -0.296416 0.048234
v -0.185635 -0.296543 0.048271
v -0.185472 -0.296625 0.048309
v -0.184734 -0.289632 0.048388
v -0.182442 -0.290883 0.048416
v -0.160982 -0.239544 0.050434
v -0.163172 -0.250385 0.050812
v -0.162451 -0.248981 0.049128
v -0.172009 -0.263397 0.049205
v -0.170416 -0.264319 0.049859
v -0.169201 -0.265140 0.050295
v -0.177974 -0.282115 0.049494
v -0.185323 -0.296687 0.048652
v -0.182411 -0.290908 0.049205
v -0.185309 -0.296706 0.048349
v -0.184592 -0.297065 0.048514
v -0.184511 -0.297106 0.048564
v -0.183994 -0.297365 0.048602
v -0.184543 -0.297090 0.048725
v -0.183828 -0.297448 0.048621
v -0.183662 -0.297531 0.048636
v -0.183495 -0.297614 0.048648
v -0.183329 -0.297698 0.048656
v -0.183162 -0.297781 0.048661
v -0.183506 -0.297609 0.048728
v -0.183046 -0.297839 0.048672
v -0.162352 -0.255039 0.049953
v -0.157811 -0.244664 0.050292
v -0.163863 -0.259073 0.049907
v -0.168842 -0.268328 0.049401
v -0.163372 -0.264301 0.050523
v -0.162113 -0.254257 0.051407
v -0.153693 -0.243132 0.051562
v -0.154057 -0.249452 0.052026
v -0.159487 -0.253700 0.051991
v -0.167308 -0.266163 0.050815
v -0.165987 -0.266444 0.051085
v -0.159274 -0.258935 0.051218
v -0.167526 -0.275038 0.050887
v -0.158185 -0.255843 0.052274
v -0.163418 -0.270548 0.050859
v -0.157148 -0.265854 0.052014
v -0.155943 -0.255536 0.051896
v -0.158266 -0.259388 0.052229
v -0.166368 -0.275917 0.050946
v -0.154381 -0.260572 0.052499
v -0.160702 -0.269110 0.051627
v -0.171484 -0.276611 0.049494
v -0.175978 -0.280600 0.049792
v -0.175200 -0.282412 0.049103
v -0.171205 -0.272683 0.050328
v -0.170605 -0.276093 0.050538
v -0.171498 -0.281607 0.049734
v -0.165961 -0.270103 0.050278
v -0.181902 -0.291234 0.049332
v -0.177482 -0.286346 0.048969
v -0.180944 -0.291633 0.049495
v -0.179847 -0.292203 0.049628
v -0.173328 -0.287219 0.049590
v -0.179477 -0.292340 0.049049
v -0.178456 -0.292880 0.049200
v -0.179086 -0.292595 0.049677
v -0.177881 -0.293168 0.049271
v -0.177755 -0.293233 0.049700
v -0.177305 -0.293456 0.049330
v -0.176728 -0.293745 0.049378
v -0.175981 -0.286861 0.049922
v -0.174141 -0.286444 0.050045
v -0.164251 -0.271456 0.050721
v -0.166537 -0.277073 0.050463
v -0.168405 -0.284203 0.050151
v -0.172368 -0.289626 0.049772
v -0.176150 -0.294034 0.049413
v -0.176616 -0.293803 0.049643
v -0.175572 -0.294324 0.049437
v -0.175176 -0.294522 0.049478
v -0.175750 -0.294234 0.049556
v -0.165209 -0.277738 0.050856
v -0.162560 -0.275083 0.051089
v -0.139447 -0.183612 0.051775
v -0.143662 -0.210614 0.054087
v -0.140910 -0.211944 0.054924
v -0.139402 -0.209697 0.054877
v -0.135400 -0.182538 0.055581
v -0.133179 -0.179574 0.059250
v -0.149777 -0.226330 0.053162
v -0.139848 -0.178171 0.060388
v -0.137662 -0.178566 0.060387
v -0.132747 -0.176292 0.060387
v -0.133381 -0.206702 0.054944
v -0.130163 -0.212476 0.056017
v -0.134462 -0.211873 0.055816
v -0.130777 -0.197886 0.052924
v -0.131928 -0.214253 0.055777
v -0.139040 -0.218317 0.054176
v -0.137062 -0.211984 0.054015
v -0.149049 -0.233118 0.053641
v -0.156333 -0.244174 0.052341
v -0.147708 -0.242012 0.053958
v -0.146999 -0.235375 0.054099
v -0.138310 -0.212999 0.055488
v -0.143905 -0.229162 0.054618
v -0.133426 -0.218549 0.055964
v -0.138624 -0.219637 0.054393
v -0.146451 -0.246228 0.053942
v -0.135089 -0.220160 0.056189
v -0.132827 -0.221064 0.056405
v -0.137187 -0.219372 0.055871
v -0.139759 -0.233491 0.055046
v -0.153127 -0.247496 0.053081
v -0.153386 -0.252109 0.053007
v -0.148073 -0.243006 0.053284
v -0.149147 -0.249489 0.053315
v -0.149619 -0.249253 0.053508
v -0.157528 -0.260965 0.052275
v 0.044883 -0.076261 0.048661
v 0.044765 -0.076405 0.048656
v 0.044647 -0.076549 0.048648
v 0.044966 -0.076161 0.048677
v 0.044529 -0.076693 0.048636
v 0.044411 -0.076837 0.048621
v 0.044125 -0.077185 0.048572
v 0.044417 -0.076829 0.048744
v 0.043926 -0.077427 0.048564
v 0.043682 -0.077724 0.048456
v 0.043360 -0.078116 0.048349
v 0.043949 -0.077398 0.048721
v 0.053164 -0.082929 0.048978
v 0.048748 -0.081782 0.048553
v 0.051754 -0.085626 0.048346
v 0.068884 -0.098807 0.048816
v 0.053505 -0.075991 0.049478
v 0.053224 -0.076333 0.049437
v 0.052214 -0.077524 0.049680
v 0.052813 -0.076832 0.049413
v 0.059264 -0.079621 0.049773
v 0.058246 -0.081467 0.049983
v 0.065793 -0.083654 0.050370
v 0.063886 -0.084859 0.050061
v 0.066183 -0.087938 0.050707
v 0.069474 -0.089773 0.050993
v 0.076449 -0.090989 0.051456
v 0.051585 -0.078328 0.049271
v 0.052403 -0.077332 0.049378
v 0.051994 -0.077830 0.049330
v 0.054988 -0.080305 0.049443
v 0.051947 -0.077645 0.049664
v 0.056921 -0.085956 0.049918
v 0.050363 -0.079816 0.049025
v 0.049315 -0.080844 0.049500
v 0.048119 -0.082519 0.049123
v 0.057125 -0.089004 0.049613
v 0.065758 -0.090252 0.049821
v 0.071286 -0.095444 0.050026
v 0.062654 -0.085590 0.049856
v 0.073185 -0.092532 0.050773
v 0.064880 -0.092022 0.050418
v 0.057897 -0.086544 0.049096
v 0.073870 -0.100716 0.049516
v 0.065741 -0.097026 0.049824
v 0.064671 -0.090622 0.050490
v 0.088370 -0.099893 0.052769
v 0.090564 -0.103495 0.052707
v 0.079111 -0.097695 0.051867
v 0.083128 -0.100994 0.051524
v 0.091701 -0.107482 0.052357
v 0.082180 -0.103979 0.051918
v 0.079824 -0.102149 0.050614
v 0.083361 -0.111134 0.049390
v 0.082732 -0.112406 0.050673
v 0.088722 -0.111901 0.050688
v 0.077166 -0.100241 0.051455
v 0.081631 -0.110449 0.050807
v 0.091460 -0.111393 0.051527
v 0.105093 -0.122756 0.052566
v 0.092385 -0.112332 0.052814
v 0.043244 -0.078257 0.048309
v 0.042912 -0.078660 0.048225
v 0.047946 -0.082758 0.048275
v 0.049711 -0.087026 0.047821
v 0.043127 -0.078399 0.048481
v 0.046175 -0.084464 0.047881
v 0.047323 -0.085701 0.047968
v 0.068926 -0.101178 0.048257
v 0.060299 -0.091770 0.048602
v 0.059802 -0.093806 0.048069
v 0.059944 -0.095623 0.048715
v 0.056876 -0.095248 0.047483
v 0.075394 -0.111602 0.047046
v 0.065246 -0.102382 0.047159
v 0.046902 -0.084451 0.048415
v 0.084171 -0.116104 0.048201
v 0.070560 -0.108109 0.046878
v 0.067050 -0.104452 0.048003
v 0.073507 -0.109263 0.048678
v 0.088773 -0.127954 0.046022
v 0.086675 -0.126181 0.047487
v 0.092713 -0.124623 0.048289
v 0.060179 -0.098550 0.047417
v 0.080309 -0.120493 0.046190
v 0.086233 -0.125370 0.046099
v 0.054441 -0.088228 0.049253
v 0.058181 -0.094218 0.048634
v 0.072981 -0.103870 0.050060
v 0.084019 -0.119044 0.049164
v 0.086286 -0.114463 0.049328
v 0.095340 -0.122200 0.049864
v 0.098645 -0.135565 0.049351
v 0.082275 -0.109079 0.051237
v 0.103478 -0.124876 0.051593
v 0.129010 -0.148103 0.052047
v 0.134872 -0.151321 0.051862
v 0.098767 -0.131216 0.048223
v 0.095198 -0.133584 0.046308
v 0.103903 -0.146425 0.045200
v 0.086363 -0.127701 0.046018
v 0.103043 -0.137927 0.047546
v 0.096141 -0.137720 0.047173
v 0.139839 -0.160426 0.048383
v 0.120932 -0.156310 0.048070
v 0.121760 -0.154577 0.048765
v 0.131483 -0.162685 0.048373
v 0.129405 -0.164498 0.048446
v 0.130561 -0.166230 0.048372
v 0.101444 -0.127694 0.050190
v 0.096855 -0.130239 0.050388
v 0.117420 -0.144772 0.050333
v 0.126103 -0.155381 0.049733
v 0.103892 -0.130151 0.052605
v 0.114454 -0.137963 0.051431
v 0.102291 -0.133650 0.051333
v 0.113366 -0.144372 0.052245
v 0.115378 -0.146093 0.052287
v 0.110525 -0.149145 0.049757
v 0.113015 -0.154848 0.048529
v 0.108436 -0.142041 0.051193
v 0.131278 -0.154939 0.050779
v 0.136564 -0.158922 0.050914
v 0.122025 -0.145947 0.051247
v 0.126439 -0.154232 0.052053
v 0.136164 -0.159408 0.050986
v 0.135055 -0.160759 0.050985
v 0.129813 -0.156469 0.051664
v 0.128064 -0.158286 0.049479
v 0.118144 -0.153205 0.050962
v 0.127909 -0.159233 0.049229
v 0.134042 -0.161824 0.050065
v 0.131847 -0.162760 0.049432
v 0.131620 -0.163077 0.050654
v 0.131013 -0.163223 0.049132
v 0.130478 -0.163820 0.050375
v 0.128942 -0.165234 0.049823
v 0.123372 -0.154531 0.051611
v 0.133838 -0.162013 0.050884
v 0.134095 -0.161928 0.050888
v 0.087918 -0.102727 0.052763
v 0.096265 -0.105882 0.053619
v 0.101090 -0.109839 0.054095
v 0.087806 -0.104874 0.052688
v 0.094772 -0.111158 0.053329
v 0.096748 -0.121682 0.052407
v 0.109622 -0.117771 0.054663
v 0.107808 -0.120148 0.053815
v 0.121671 -0.132173 0.054980
v 0.121300 -0.133103 0.054628
v 0.109860 -0.116595 0.054995
v 0.122638 -0.127818 0.056110
v 0.125911 -0.129438 0.056557
v 0.108086 -0.120451 0.054704
v 0.119505 -0.128565 0.056022
v 0.117317 -0.131162 0.055515
v 0.101991 -0.123309 0.053326
v 0.102146 -0.126635 0.052824
v 0.118203 -0.134242 0.053582
v 0.121281 -0.136628 0.053678
v 0.113778 -0.135840 0.054179
v 0.108633 -0.127015 0.054234
v 0.120236 -0.137855 0.055021
v 0.130234 -0.137435 0.054939
v 0.122664 -0.141760 0.052631
v 0.132498 -0.143421 0.053575
v 0.128996 -0.138933 0.054316
v 0.132440 -0.153295 0.052015
v 0.126713 -0.140300 0.054811
v 0.131066 -0.155065 0.051865
v 0.115167 -0.140323 0.053662
v 0.117187 -0.141612 0.053783
v 0.122336 -0.145568 0.053617
v 0.120388 -0.147424 0.052958
v 0.135390 -0.162115 0.055581
v 0.133107 -0.161754 0.051593
v 0.140235 -0.166576 0.060388
v 0.136828 -0.166093 0.060388
v 0.103968 -0.147151 0.045081
v 0.109761 -0.149561 0.046201
v 0.107754 -0.154569 0.044835
v 0.107288 -0.152270 0.046611
v 0.120425 -0.162911 0.046403
v 0.116499 -0.161775 0.046431
v 0.129188 -0.167902 0.047649
v 0.130205 -0.166663 0.048183
v 0.129697 -0.167282 0.047913
v 0.122124 -0.164847 0.047959
v 0.127601 -0.169837 0.047181
v 0.127115 -0.168067 0.048372
v 0.123577 -0.163233 0.049152
v 0.125318 -0.162388 0.049863
v 0.127013 -0.169516 0.055669
v 0.133545 -0.167427 0.060390
v 0.131982 -0.169536 0.060387
v 0.131502 -0.170849 0.060387
v 0.131325 -0.172235 0.060387
v 0.131654 -0.174431 0.060388
v 0.148766 -0.168985 0.048375
v 0.147561 -0.174785 0.047207
v 0.166807 -0.189887 0.044846
v 0.160442 -0.183689 0.045876
v 0.147793 -0.175794 0.048222
v 0.151817 -0.179823 0.048409
v 0.145943 -0.176749 0.047649
v 0.153291 -0.185502 0.047616
v 0.145434 -0.177369 0.047913
v 0.144926 -0.177988 0.048183
v 0.166289 -0.195896 0.049282
v 0.178327 -0.203742 0.045430
v 0.166270 -0.191908 0.047537
v 0.160259 -0.192847 0.050547
v 0.147614 -0.177455 0.048859
v 0.149022 -0.183703 0.050444
v 0.141162 -0.162210 0.055638
v 0.148819 -0.171557 0.055583
v 0.142501 -0.168505 0.060387
v 0.143227 -0.169699 0.060387
v 0.143670 -0.171025 0.060387
v 0.143806 -0.172416 0.060387
v 0.143500 -0.174364 0.060388
v 0.132495 -0.182477 0.048372
v 0.144570 -0.178421 0.048372
v 0.145625 -0.180302 0.048468
v 0.148620 -0.183715 0.048500
v 0.139172 -0.183994 0.048378
v 0.160417 -0.193278 0.047390
v 0.148970 -0.186188 0.048984
v 0.155710 -0.193247 0.048959
v 0.125919 -0.175759 0.048384
v 0.170107 -0.199652 0.045963
v 0.172118 -0.199096 0.045189
v 0.173906 -0.204056 0.048616
v 0.162753 -0.200472 0.048815
v 0.184732 -0.216198 0.048356
v 0.182969 -0.216872 0.047114
v 0.186311 -0.216367 0.045957
v 0.173190 -0.211128 0.048581
v 0.181289 -0.218386 0.048140
v 0.144457 -0.181237 0.049019
v 0.146071 -0.179528 0.049887
v 0.144344 -0.181092 0.050483
v 0.141981 -0.182546 0.049837
v 0.142256 -0.182474 0.049731
v 0.153355 -0.192349 0.052008
v 0.146133 -0.186883 0.051442
v 0.141036 -0.182723 0.050888
v 0.141134 -0.182690 0.050887
v 0.138465 -0.185853 0.050911
v 0.146606 -0.188506 0.050049
v 0.159199 -0.202133 0.050546
v 0.140343 -0.183566 0.050963
v 0.139503 -0.184590 0.050993
v 0.138967 -0.185242 0.050986
v 0.140711 -0.183094 0.049915
v 0.142778 -0.182123 0.050747
v 0.143475 -0.191588 0.051197
v 0.156685 -0.206535 0.052613
v 0.170296 -0.205646 0.050743
v 0.178795 -0.220669 0.049652
v 0.184925 -0.224204 0.050903
v 0.164090 -0.206425 0.053024
v 0.160263 -0.198983 0.052285
v 0.162582 -0.210667 0.051943
v 0.174882 -0.218664 0.052470
v 0.140794 -0.193243 0.051738
v 0.173758 -0.221182 0.051335
v 0.159670 -0.211218 0.052981
v 0.173756 -0.225425 0.052378
v 0.193945 -0.223243 0.046338
v 0.203029 -0.233324 0.046653
v 0.198889 -0.230461 0.047803
v 0.209597 -0.241756 0.048012
v 0.199318 -0.232408 0.046982
v 0.192832 -0.228792 0.047723
v 0.202847 -0.238703 0.047775
v 0.206730 -0.240586 0.047366
v 0.209978 -0.242214 0.047140
v 0.200456 -0.236240 0.049377
v 0.204127 -0.243090 0.048647
v 0.225606 -0.256977 0.047961
v 0.222556 -0.255035 0.047746
v 0.208799 -0.244611 0.049281
v 0.203481 -0.238886 0.047702
v 0.228580 -0.259604 0.047897
v 0.232249 -0.265953 0.048227
v 0.227586 -0.261405 0.048133
v 0.227185 -0.261892 0.048275
v 0.232003 -0.266252 0.048271
v 0.231887 -0.266393 0.048309
v 0.227333 -0.261606 0.048972
v 0.231743 -0.266569 0.048597
v 0.187327 -0.222508 0.049573
v 0.190492 -0.229853 0.050648
v 0.187466 -0.228448 0.049244
v 0.192053 -0.232886 0.049145
v 0.200516 -0.240236 0.050354
v 0.188689 -0.230166 0.051194
v 0.213217 -0.249111 0.049261
v 0.228146 -0.260389 0.048488
v 0.218014 -0.256172 0.049685
v 0.226563 -0.262625 0.048489
v 0.231771 -0.266534 0.048349
v 0.231205 -0.267223 0.048564
v 0.230737 -0.267793 0.048755
v 0.231263 -0.267153 0.048514
v 0.230838 -0.267670 0.048602
v 0.230720 -0.267814 0.048621
v 0.230602 -0.267957 0.048636
v 0.230484 -0.268101 0.048648
v 0.230366 -0.268245 0.048656
v 0.230247 -0.268389 0.048661
v 0.230165 -0.268489 0.048672
v 0.192662 -0.236065 0.049822
v 0.185131 -0.231291 0.050677
v 0.200884 -0.247088 0.050270
v 0.204509 -0.244750 0.048974
v 0.204252 -0.245771 0.049267
v 0.203705 -0.247107 0.049668
v 0.184600 -0.230423 0.052220
v 0.194123 -0.240203 0.051663
v 0.183810 -0.233463 0.051535
v 0.191293 -0.241771 0.051373
v 0.195696 -0.239563 0.051275
v 0.205009 -0.248294 0.050744
v 0.197621 -0.246760 0.050870
v 0.193875 -0.243384 0.051976
v 0.181956 -0.235156 0.052316
v 0.187931 -0.239982 0.052615
v 0.181011 -0.239501 0.053215
v 0.201636 -0.250903 0.050684
v 0.201018 -0.252550 0.050967
v 0.189336 -0.246870 0.052505
v 0.196085 -0.251599 0.051769
v 0.201216 -0.251394 0.051379
v 0.190897 -0.247779 0.052273
v 0.200205 -0.253836 0.051195
v 0.213301 -0.250897 0.048479
v 0.217826 -0.258037 0.049002
v 0.213195 -0.255135 0.049303
v 0.212091 -0.253869 0.050267
v 0.211960 -0.250895 0.049924
v 0.210197 -0.255629 0.050601
v 0.216911 -0.259611 0.050055
v 0.219249 -0.256753 0.048582
v 0.226267 -0.262996 0.049364
v 0.224668 -0.264917 0.049049
v 0.225721 -0.263675 0.049495
v 0.225313 -0.264171 0.049571
v 0.216867 -0.259596 0.049324
v 0.223954 -0.265826 0.049200
v 0.224606 -0.265066 0.049669
v 0.223546 -0.266323 0.049271
v 0.223458 -0.266433 0.049700
v 0.223137 -0.266820 0.049330
v 0.222728 -0.267319 0.049378
v 0.222809 -0.267207 0.049635
v 0.205697 -0.252702 0.050958
v 0.209584 -0.255856 0.049992
v 0.214891 -0.263638 0.049782
v 0.215695 -0.260463 0.049545
v 0.210973 -0.262100 0.050185
v 0.205155 -0.258070 0.050800
v 0.215927 -0.265373 0.049745
v 0.222318 -0.267818 0.049413
v 0.222443 -0.267666 0.049617
v 0.221907 -0.268318 0.049437
v 0.221626 -0.268660 0.049478
v 0.222034 -0.268164 0.049556
v 0.213634 -0.261698 0.050164
v 0.207420 -0.255280 0.050834
v 0.143876 -0.181871 0.051775
v 0.155580 -0.208606 0.055377
v 0.139741 -0.182536 0.055581
v 0.129936 -0.179878 0.055638
v 0.171781 -0.219116 0.053300
v 0.142028 -0.176738 0.060388
v 0.140192 -0.177987 0.060387
v 0.136507 -0.180732 0.059250
v 0.133684 -0.177335 0.060390
v 0.150154 -0.202437 0.054476
v 0.144728 -0.197618 0.053307
v 0.150278 -0.210037 0.055845
v 0.141091 -0.196591 0.052629
v 0.152782 -0.212985 0.055224
v 0.149782 -0.211266 0.055326
v 0.147106 -0.212044 0.056005
v 0.154334 -0.207410 0.053402
v 0.158963 -0.206499 0.054339
v 0.162662 -0.217688 0.053665
v 0.168169 -0.223777 0.053469
v 0.174230 -0.228432 0.053897
v 0.153476 -0.212755 0.056116
v 0.158271 -0.212814 0.055355
v 0.175528 -0.233541 0.053955
v 0.166222 -0.223802 0.053965
v 0.165035 -0.226789 0.054763
v 0.149820 -0.215718 0.056481
v 0.159619 -0.221449 0.055635
v 0.152937 -0.218646 0.056439
v 0.166681 -0.223077 0.054671
v 0.171183 -0.232596 0.054385
v 0.179361 -0.229424 0.053121
v 0.179854 -0.231727 0.053258
v 0.177344 -0.233614 0.053727
v 0.186110 -0.241700 0.052881
v 0.180343 -0.237119 0.053004
g prop
f 199 111 218
f 111 112 113
f 111 113 218
f 199 138 111
f 111 138 133
f 199 136 138
f 194 191 136
f 199 194 136
f 199 174 196
f 199 196 194
f 218 113 188
f 189 218 188
f 194 188 191
f 189 188 194
f 189 194 195
f 197 196 198
f 194 196 197
f 194 197 198
f 198 196 195
f 194 198 195
f 199 218 212
f 212 218 205
f 218 219 205
f 212 205 210
f 212 210 347
f 199 212 213
f 199 213 174
f 212 214 213
f 212 215 214
f 212 347 353
f 215 212 216
f 216 212 217
f 174 213 196
f 213 214 196
f 214 215 196
f 212 353 217
f 215 216 196
f 216 217 196
f 217 353 196
f 218 220 219
f 218 221 220
f 220 221 231
f 218 189 221
f 220 231 228
f 221 233 231
f 351 347 233
f 221 351 233
f 189 195 221
f 221 195 351
f 354 353 347
f 196 353 354
f 196 354 351
f 354 347 351
f 196 351 355
f 196 355 195
f 195 355 351
f 200 229 202
f 203 211 205
f 201 203 204
f 203 219 204
f 204 206 201
f 203 205 219
f 204 219 206
f 201 206 207
f 206 219 207
f 201 207 229
f 203 201 211
f 201 229 200
f 200 211 201
f 208 200 202
f 208 209 200
f 211 210 205
f 211 230 210
f 207 219 220
f 207 220 229
f 229 220 228
f 208 250 209
f 208 224 250
f 202 222 226
f 209 223 200
f 224 208 225
f 202 226 208
f 226 225 208
f 228 231 229
f 230 234 210
f 229 231 232
f 211 234 230
f 229 222 202
f 229 232 235
f 229 235 222
f 236 347 210
f 234 236 210
f 237 233 347
f 233 232 231
f 237 238 233
f 237 347 238
f 236 238 347
f 238 245 233
f 234 348 349
f 232 233 235
f 211 239 234
f 200 240 211
f 211 240 239
f 200 223 240
f 239 241 234
f 240 273 239
f 225 248 227
f 225 226 248
f 234 241 242
f 222 235 226
f 235 246 226
f 239 243 241
f 239 273 243
f 241 244 364
f 233 359 235
f 233 245 359
f 238 359 245
f 248 226 247
f 247 249 248
f 248 249 300
f 250 251 254
f 250 224 252
f 250 254 209
f 209 254 276
f 209 276 223
f 224 225 252
f 250 252 253
f 225 227 252
f 253 256 250
f 250 256 251
f 251 259 254
f 256 253 260
f 253 255 260
f 251 257 259
f 251 256 257
f 259 261 254
f 254 261 258
f 257 271 259
f 256 260 257
f 257 260 262
f 257 262 263
f 260 255 262
f 257 263 271
f 263 265 271
f 263 268 265
f 262 264 263
f 263 266 268
f 263 264 266
f 264 267 266
f 264 272 267
f 268 266 269
f 266 267 270
f 266 270 269
f 267 282 270
f 267 272 282
f 271 265 280
f 265 268 284
f 265 284 280
f 277 240 223
f 240 274 273
f 252 227 275
f 252 275 253
f 227 248 275
f 240 277 274
f 254 258 276
f 223 276 277
f 253 275 255
f 277 278 274
f 277 318 278
f 274 278 318
f 273 274 243
f 243 274 241
f 258 279 276
f 258 261 279
f 261 259 279
f 259 271 280
f 259 281 279
f 259 280 281
f 255 297 262
f 272 264 283
f 283 264 323
f 272 283 282
f 268 269 284
f 269 270 284
f 270 282 284
f 282 283 284
f 281 280 286
f 280 284 286
f 284 283 285
f 284 285 287
f 284 287 288
f 284 288 289
f 284 292 286
f 283 323 327
f 283 328 285
f 284 289 290
f 284 290 291
f 284 291 293
f 284 293 292
f 275 248 295
f 275 295 294
f 295 248 294
f 275 296 255
f 275 294 296
f 255 296 297
f 294 298 296
f 296 298 297
f 321 298 336
f 274 299 241
f 241 299 244
f 294 248 300
f 244 302 364
f 300 301 294
f 298 294 301
f 300 249 301
f 364 302 307
f 274 304 299
f 318 303 274
f 274 303 304
f 299 304 244
f 244 304 302
f 301 305 298
f 302 304 306
f 302 306 307
f 307 306 312
f 301 249 310
f 307 311 377
f 305 310 298
f 305 301 310
f 298 310 308
f 336 298 308
f 308 313 309
f 307 312 311
f 308 310 313
f 377 311 381
f 312 381 311
f 309 346 308
f 314 309 381
f 314 346 309
f 262 297 315
f 262 317 264
f 276 279 316
f 315 317 262
f 318 319 303
f 276 316 277
f 277 316 318
f 316 325 318
f 315 320 317
f 315 297 298
f 315 298 321
f 315 336 320
f 321 336 315
f 318 334 335
f 319 318 335
f 319 335 306
f 279 281 322
f 279 322 324
f 279 324 316
f 317 323 264
f 323 317 327
f 316 324 325
f 286 322 281
f 286 324 322
f 286 325 324
f 283 327 328
f 285 330 287
f 287 332 288
f 286 292 331
f 286 329 325
f 318 325 329
f 327 317 326
f 327 326 328
f 317 320 326
f 328 326 330
f 326 332 330
f 332 326 333
f 285 328 330
f 287 330 332
f 288 332 333
f 288 333 289
f 289 340 290
f 290 342 291
f 292 293 344
f 291 343 293
f 286 331 329
f 292 341 331
f 289 333 340
f 290 340 342
f 291 342 343
f 293 343 344
f 292 344 341
f 318 329 334
f 334 329 335
f 329 331 335
f 331 341 335
f 319 304 303
f 319 306 304
f 336 308 337
f 337 308 338
f 320 336 337
f 320 337 338
f 326 320 338
f 306 335 339
f 339 338 345
f 339 345 312
f 338 346 345
f 333 326 340
f 326 342 340
f 339 341 344
f 339 344 343
f 326 339 342
f 339 343 342
f 335 341 339
f 338 339 326
f 306 339 312
f 338 308 346
f 345 314 381
f 312 345 381
f 345 346 314
f 234 350 236
f 234 242 348
f 234 349 350
f 238 236 358
f 238 358 356
f 236 350 367
f 236 367 358
f 242 241 348
f 241 352 348
f 241 364 352
f 238 356 357
f 235 362 246
f 238 357 359
f 359 360 235
f 235 360 362
f 359 357 360
f 356 358 357
f 360 357 369
f 226 246 247
f 352 349 348
f 246 362 247
f 247 362 361
f 352 364 363
f 352 363 349
f 247 361 249
f 361 370 249
f 349 363 366
f 350 349 367
f 349 366 367
f 366 368 367
f 367 374 358
f 366 365 368
f 362 360 361
f 370 378 249
f 369 373 370
f 373 375 370
f 370 371 378
f 370 375 371
f 360 370 361
f 370 360 369
f 367 368 374
f 358 374 372
f 358 372 373
f 369 357 373
f 358 373 357
f 368 365 374
f 372 374 375
f 372 375 373
f 374 365 371
f 371 375 374
f 364 307 363
f 307 376 363
f 363 376 366
f 310 249 378
f 376 377 366
f 307 377 376
f 377 365 366
f 310 378 371
f 377 380 365
f 310 371 379
f 313 310 379
f 381 309 313
f 377 381 380
f 380 381 313
f 379 371 313
f 380 313 371
f 380 371 365
f 1 10 2
f 2 10 3
f 3 10 4
f 1 7 10
f 4 10 5
f 5 10 6
f 6 10 11
f 7 8 10
f 10 8 9
f 11 10 13
f 12 13 10
f 12 10 67
f 10 68 67
f 12 71 13
f 11 13 34
f 10 9 14
f 10 14 68
f 13 71 34
f 34 71 31
f 15 16 30
f 16 17 30
f 15 30 18
f 17 24 30
f 30 49 18
f 30 19 20
f 30 20 49
f 19 39 40
f 19 40 21
f 19 21 20
f 15 2 16
f 15 18 1
f 16 3 17
f 17 4 24
f 18 26 1
f 16 2 3
f 15 1 2
f 17 3 4
f 4 5 24
f 1 26 7
f 5 25 24
f 6 23 25
f 28 23 11
f 7 26 27
f 8 27 33
f 30 24 25
f 25 23 30
f 28 30 23
f 28 31 30
f 30 31 37
f 26 32 27
f 27 32 33
f 33 38 29
f 5 6 25
f 6 11 23
f 7 27 8
f 8 29 9
f 28 11 34
f 8 33 29
f 9 29 35
f 9 36 14
f 9 35 36
f 31 28 34
f 35 92 36
f 35 29 38
f 19 30 37
f 31 39 37
f 39 43 40
f 19 37 39
f 18 48 26
f 18 49 48
f 32 26 42
f 26 48 42
f 33 32 38
f 32 42 38
f 42 46 38
f 31 43 39
f 31 44 43
f 44 45 43
f 35 38 92
f 38 47 92
f 38 46 47
f 42 48 46
f 21 52 50
f 21 50 20
f 50 141 20
f 51 50 52
f 20 141 22
f 20 22 49
f 21 40 52
f 52 40 51
f 22 53 59
f 40 54 51
f 40 43 55
f 41 55 43
f 43 56 41
f 45 56 43
f 56 61 41
f 56 57 61
f 57 56 58
f 55 54 40
f 49 63 48
f 48 60 46
f 55 41 54
f 48 63 60
f 22 59 49
f 49 59 63
f 46 60 99
f 41 142 54
f 41 61 142
f 59 53 63
f 53 64 63
f 60 63 99
f 61 57 62
f 63 64 65
f 12 67 69
f 70 67 68
f 70 69 67
f 14 90 68
f 12 69 71
f 68 90 72
f 68 74 70
f 68 72 74
f 69 70 31
f 69 31 71
f 31 70 44
f 66 70 74
f 66 73 70
f 72 91 74
f 66 74 78
f 91 78 74
f 70 73 44
f 44 73 75
f 75 73 76
f 66 78 73
f 78 77 73
f 78 79 77
f 91 79 78
f 91 80 79
f 73 85 76
f 75 81 44
f 45 44 81
f 75 76 81
f 73 77 85
f 77 82 85
f 88 77 79
f 88 79 80
f 88 80 83
f 85 84 76
f 85 86 84
f 87 105 85
f 88 82 77
f 88 83 82
f 82 87 85
f 82 83 175
f 83 89 175
f 14 36 90
f 72 90 91
f 90 36 91
f 36 92 91
f 91 92 80
f 92 93 80
f 47 93 92
f 94 93 95
f 81 96 45
f 47 46 93
f 46 95 93
f 93 94 80
f 80 94 83
f 94 95 83
f 81 76 96
f 96 76 58
f 56 45 96
f 96 58 56
f 76 84 58
f 84 86 58
f 95 46 97
f 95 97 83
f 83 97 89
f 46 98 97
f 98 46 99
f 115 98 99
f 63 65 99
f 61 144 142
f 144 61 155
f 62 100 61
f 100 155 61
f 62 57 100
f 100 57 155
f 58 101 57
f 82 175 87
f 105 87 177
f 177 106 105
f 85 105 86
f 86 105 103
f 105 107 103
f 105 106 107
f 89 97 179
f 175 89 179
f 179 97 109
f 103 107 104
f 106 108 107
f 108 110 107
f 108 183 110
f 110 111 135
f 110 186 112
f 186 113 112
f 110 112 111
f 86 114 58
f 58 114 101
f 114 116 101
f 86 103 114
f 103 116 114
f 103 104 116
f 116 104 117
f 99 65 115
f 65 170 119
f 115 119 121
f 65 119 115
f 116 118 101
f 117 118 116
f 165 101 118
f 98 120 97
f 97 120 109
f 109 120 115
f 115 121 109
f 98 115 120
f 121 122 109
f 109 122 180
f 119 122 121
f 117 123 124
f 128 124 138
f 128 138 134
f 129 134 138
f 118 124 125
f 165 124 128
f 165 118 125
f 165 125 124
f 102 165 128
f 117 124 118
f 167 126 168
f 164 102 129
f 164 131 166
f 134 102 128
f 164 129 130
f 164 130 131
f 129 102 134
f 129 138 130
f 166 131 167
f 130 138 131
f 167 131 136
f 107 110 104
f 117 104 123
f 110 123 104
f 123 110 135
f 123 135 133
f 122 132 190
f 123 133 138
f 124 123 138
f 135 111 133
f 173 127 191
f 127 136 191
f 173 191 193
f 122 119 132
f 119 137 132
f 193 137 173
f 137 193 132
f 167 136 126
f 131 138 136
f 126 136 127
f 51 140 139
f 50 51 139
f 50 139 141
f 140 51 147
f 141 139 140
f 141 140 146
f 22 141 53
f 54 142 51
f 141 154 53
f 64 53 143
f 140 147 149
f 140 149 145
f 51 144 147
f 51 142 144
f 141 146 154
f 147 148 149
f 147 144 148
f 145 149 152
f 140 145 146
f 148 150 149
f 149 150 152
f 144 151 148
f 145 152 146
f 151 163 148
f 150 153 152
f 53 154 143
f 144 155 151
f 64 143 65
f 65 143 169
f 154 156 143
f 143 156 158
f 156 154 158
f 57 157 155
f 57 101 157
f 155 157 151
f 151 157 163
f 154 159 158
f 154 146 159
f 152 153 146
f 146 160 159
f 146 153 160
f 164 162 161
f 150 162 164
f 148 162 150
f 163 161 148
f 148 161 162
f 150 164 153
f 163 157 165
f 164 161 102
f 102 161 163
f 166 168 153
f 166 153 164
f 163 165 102
f 101 165 157
f 166 167 168
f 153 168 160
f 159 160 172
f 65 169 170
f 169 143 170
f 143 171 170
f 158 171 143
f 171 119 170
f 168 126 172
f 160 168 172
f 173 158 159
f 173 159 172
f 127 173 172
f 171 158 173
f 119 171 137
f 171 173 137
f 126 127 172
f 175 176 177
f 87 175 177
f 179 176 175
f 176 179 177
f 177 178 106
f 177 179 178
f 178 179 182
f 179 180 182
f 109 180 179
f 178 183 106
f 178 181 183
f 178 182 181
f 108 106 183
f 183 184 187
f 185 113 184
f 181 184 183
f 181 185 184
f 110 183 186
f 183 187 186
f 187 113 186
f 184 113 187
f 185 188 113
f 192 188 182
f 181 182 185
f 185 182 188
f 180 190 182
f 122 190 180
f 182 190 132
f 192 132 193
f 182 132 192
f 193 191 188
f 192 193 188
f 485 603 488
f 488 490 489
f 488 603 490
f 485 513 556
f 485 488 513
f 488 514 513
f 488 489 516
f 488 516 514
f 556 513 521
f 556 521 520
f 557 515 517
f 557 517 518
f 485 556 596
f 556 520 557
f 557 518 574
f 556 559 596
f 556 557 559
f 557 574 575
f 596 559 558
f 557 575 559
f 559 575 558
f 603 571 490
f 611 571 603
f 574 518 571
f 611 574 571
f 611 756 574
f 574 576 575
f 574 577 576
f 575 576 558
f 576 577 558
f 577 578 558
f 578 579 558
f 574 578 577
f 574 579 578
f 579 761 558
f 574 756 579
f 579 756 761
f 485 580 603
f 580 584 603
f 603 584 604
f 485 597 580
f 580 597 584
f 597 594 584
f 753 622 594
f 485 596 597
f 597 753 594
f 596 598 597
f 596 558 598
f 597 598 599
f 597 599 600
f 597 758 753
f 600 601 597
f 601 602 597
f 598 558 599
f 599 558 600
f 597 602 758
f 600 558 601
f 601 558 602
f 602 558 758
f 603 604 605
f 603 605 607
f 605 621 607
f 607 621 625
f 607 625 624
f 607 624 636
f 753 623 622
f 753 629 637
f 755 636 628
f 755 628 629
f 607 636 755
f 603 607 756
f 611 603 756
f 753 755 629
f 607 755 760
f 607 760 756
f 760 755 753
f 759 753 758
f 558 759 758
f 558 760 759
f 759 760 753
f 558 761 760
f 756 760 761
f 582 583 592
f 583 586 581
f 583 587 586
f 581 586 604
f 586 587 588
f 581 604 584
f 585 584 594
f 585 594 593
f 586 588 604
f 587 589 588
f 588 589 604
f 581 584 583
f 584 585 583
f 583 582 587
f 585 593 583
f 583 593 590
f 583 590 592
f 582 592 591
f 591 613 582
f 582 613 587
f 613 612 587
f 587 612 608
f 593 594 595
f 595 594 622
f 589 605 604
f 589 587 605
f 587 606 605
f 606 609 605
f 608 610 587
f 587 610 609
f 606 587 609
f 610 608 615
f 591 651 613
f 592 614 591
f 612 615 608
f 612 619 615
f 591 616 651
f 591 614 616
f 612 613 617
f 613 618 617
f 612 617 619
f 617 620 619
f 609 621 605
f 595 622 623
f 609 625 621
f 625 631 624
f 595 626 593
f 593 626 644
f 610 615 632
f 609 610 632
f 609 631 625
f 627 623 753
f 595 623 627
f 627 753 637
f 633 629 628
f 595 627 626
f 631 636 624
f 636 630 628
f 609 632 631
f 633 628 634
f 634 628 635
f 633 637 629
f 635 628 630
f 636 638 630
f 633 634 765
f 634 635 765
f 635 630 765
f 633 765 637
f 630 638 647
f 630 647 765
f 631 632 639
f 627 762 626
f 627 637 762
f 631 639 636
f 590 640 592
f 614 640 616
f 614 592 640
f 640 642 616
f 616 642 674
f 590 593 643
f 615 619 632
f 620 641 619
f 619 641 632
f 632 641 645
f 632 645 639
f 641 648 645
f 644 643 593
f 590 643 640
f 643 646 640
f 640 646 642
f 646 701 642
f 637 765 763
f 636 639 638
f 645 649 639
f 639 649 769
f 645 648 649
f 649 650 772
f 648 650 649
f 651 618 613
f 651 652 618
f 618 652 655
f 651 654 652
f 651 653 654
f 651 616 653
f 617 618 620
f 618 656 620
f 655 656 618
f 620 656 641
f 656 655 658
f 652 659 655
f 656 658 665
f 652 662 659
f 652 654 662
f 655 659 658
f 653 660 664
f 653 664 654
f 656 665 657
f 657 719 661
f 659 662 663
f 659 663 658
f 662 666 663
f 658 657 665
f 658 663 657
f 657 663 719
f 719 663 726
f 654 681 662
f 662 681 666
f 663 666 667
f 663 667 668
f 663 668 726
f 726 668 669
f 726 669 683
f 666 681 667
f 667 670 668
f 668 671 669
f 668 670 671
f 669 671 684
f 673 681 672
f 669 684 683
f 681 673 667
f 667 673 685
f 616 674 653
f 653 674 675
f 653 675 660
f 674 642 675
f 656 676 641
f 641 676 648
f 676 677 648
f 656 657 676
f 657 677 676
f 657 661 677
f 660 723 664
f 677 661 698
f 675 678 660
f 660 678 723
f 642 679 675
f 679 642 701
f 664 680 654
f 654 680 681
f 680 682 681
f 681 682 672
f 680 664 682
f 726 683 720
f 687 720 683
f 683 684 687
f 667 685 670
f 670 685 671
f 671 685 684
f 684 685 687
f 685 673 686
f 685 688 687
f 685 689 688
f 685 690 689
f 685 691 690
f 687 728 720
f 687 688 732
f 685 692 691
f 685 693 692
f 685 694 693
f 685 686 694
f 677 695 648
f 695 696 648
f 695 697 696
f 677 698 695
f 698 699 695
f 695 699 700
f 695 700 697
f 678 706 723
f 648 696 650
f 696 703 650
f 701 702 679
f 697 703 696
f 679 702 705
f 703 772 650
f 701 708 702
f 679 705 675
f 675 705 706
f 678 675 706
f 706 705 702
f 697 704 703
f 702 739 706
f 697 707 704
f 702 708 739
f 703 709 772
f 703 704 709
f 708 710 716
f 704 711 788
f 714 711 704
f 712 714 704
f 707 712 704
f 697 712 707
f 712 713 714
f 716 715 751
f 716 710 715
f 713 717 714
f 715 787 717
f 713 718 717
f 718 715 717
f 698 719 699
f 661 719 698
f 719 720 699
f 720 700 699
f 720 721 700
f 719 726 720
f 723 706 722
f 664 723 682
f 723 722 725
f 731 742 740
f 721 697 700
f 721 731 697
f 731 740 697
f 706 724 725
f 706 725 722
f 725 724 738
f 724 739 752
f 672 682 727
f 682 729 727
f 720 728 731
f 682 730 729
f 682 733 730
f 672 727 673
f 673 727 729
f 673 729 730
f 673 730 686
f 687 732 728
f 688 689 734
f 689 690 736
f 686 730 733
f 723 725 682
f 682 725 733
f 720 731 721
f 728 742 731
f 728 732 742
f 732 734 742
f 742 734 741
f 741 734 736
f 736 737 741
f 688 734 732
f 689 736 734
f 690 737 736
f 690 691 737
f 691 692 746
f 692 693 748
f 686 750 694
f 693 694 749
f 686 733 735
f 686 735 738
f 691 746 737
f 692 748 746
f 693 749 748
f 694 750 749
f 686 738 747
f 686 747 750
f 733 725 735
f 735 725 738
f 706 739 724
f 740 712 697
f 740 713 712
f 740 742 713
f 742 741 713
f 724 751 738
f 751 752 716
f 724 752 751
f 741 743 744
f 743 751 744
f 737 746 741
f 741 746 748
f 751 750 747
f 751 749 750
f 741 748 745
f 751 745 749
f 745 748 749
f 738 751 747
f 743 745 751
f 743 741 745
f 739 708 752
f 752 708 716
f 741 718 713
f 741 744 718
f 744 715 718
f 751 715 744
f 626 762 754
f 626 754 770
f 626 770 644
f 637 763 762
f 644 770 643
f 643 757 646
f 639 769 638
f 762 763 764
f 647 638 765
f 638 767 765
f 638 766 767
f 638 769 766
f 763 765 764
f 762 774 754
f 762 764 774
f 765 767 779
f 765 779 768
f 765 779 764
f 765 768 779
f 769 649 766
f 771 766 649
f 643 770 757
f 646 757 701
f 757 784 701
f 770 754 757
f 771 649 772
f 757 785 784
f 754 773 757
f 757 773 785
f 754 774 775
f 771 777 766
f 772 777 771
f 754 782 773
f 772 778 777
f 773 782 776
f 773 776 786
f 767 766 779
f 777 779 766
f 774 764 781
f 764 779 781
f 774 781 780
f 775 782 754
f 775 774 782
f 782 774 776
f 779 777 781
f 777 778 781
f 774 783 776
f 774 780 783
f 778 783 781
f 780 781 783
f 701 784 708
f 708 784 785
f 708 785 710
f 709 778 772
f 709 704 778
f 704 788 778
f 710 785 773
f 710 773 787
f 710 787 715
f 773 786 787
f 788 783 778
f 788 711 783
f 787 714 717
f 786 714 787
f 711 714 783
f 714 786 776
f 714 776 783
f 385 382 390
f 382 383 390
f 383 384 390
f 385 390 389
f 391 390 388
f 384 386 390
f 386 387 390
f 387 388 390
f 390 393 389
f 391 388 394
f 392 390 391
f 392 443 390
f 390 443 444
f 392 391 396
f 390 447 393
f 391 394 395
f 391 395 396
f 395 394 396
f 394 451 396
f 398 402 399
f 399 402 401
f 398 400 402
f 400 403 402
f 401 402 410
f 402 403 406
f 402 404 405
f 402 406 404
f 402 405 421
f 405 408 421
f 421 408 422
f 404 407 408
f 405 404 408
f 404 406 407
f 398 399 382
f 398 385 400
f 399 401 383
f 401 410 384
f 399 383 382
f 398 382 385
f 401 384 383
f 384 410 386
f 385 389 400
f 386 410 411
f 387 411 409
f 412 388 409
f 389 413 400
f 402 411 410
f 411 402 409
f 412 409 402
f 402 421 412
f 424 415 412
f 424 412 419
f 400 413 403
f 414 423 413
f 386 411 387
f 387 409 388
f 389 393 413
f 412 415 388
f 415 394 388
f 393 416 413
f 393 447 416
f 447 417 416
f 424 394 415
f 413 416 414
f 416 417 468
f 416 468 418
f 416 418 414
f 412 421 419
f 424 419 420
f 421 422 419
f 403 413 427
f 403 427 406
f 424 425 451
f 394 424 451
f 420 425 424
f 451 425 397
f 414 418 426
f 414 426 423
f 423 427 413
f 407 430 408
f 428 408 522
f 429 422 408
f 419 422 431
f 419 431 420
f 408 430 522
f 429 431 422
f 522 430 525
f 431 429 432
f 430 433 525
f 397 425 435
f 420 434 425
f 426 470 423
f 423 470 436
f 425 437 435
f 425 434 437
f 435 437 441
f 434 420 431
f 406 427 438
f 406 438 407
f 407 438 433
f 434 431 432
f 407 433 430
f 438 427 475
f 436 439 423
f 423 439 427
f 434 432 440
f 437 434 440
f 440 432 441
f 529 441 432
f 427 439 475
f 440 441 437
f 438 475 433
f 433 475 527
f 442 433 527
f 392 445 443
f 446 444 443
f 444 448 447
f 446 443 445
f 390 444 447
f 392 396 445
f 447 457 417
f 444 446 448
f 447 448 457
f 446 445 396
f 449 457 448
f 446 396 452
f 446 449 448
f 446 454 449
f 446 456 454
f 396 451 452
f 456 446 452
f 451 450 452
f 397 450 451
f 450 456 452
f 454 465 457
f 450 455 456
f 454 456 465
f 454 457 449
f 469 457 465
f 469 465 453
f 450 458 455
f 450 435 458
f 456 459 465
f 456 455 459
f 460 453 465
f 462 455 458
f 462 458 464
f 465 459 466
f 455 466 459
f 455 467 466
f 467 482 466
f 467 462 482
f 460 465 466
f 460 482 461
f 460 466 482
f 455 462 467
f 482 463 461
f 417 457 468
f 468 457 469
f 453 418 468
f 468 469 453
f 453 461 418
f 453 460 461
f 397 435 450
f 418 461 426
f 461 471 426
f 471 461 463
f 435 472 458
f 458 472 473
f 435 473 472
f 471 470 426
f 436 470 471
f 471 474 436
f 436 475 439
f 435 476 473
f 435 441 476
f 476 540 496
f 462 464 479
f 462 481 482
f 462 480 481
f 462 479 483
f 462 483 480
f 480 483 481
f 463 484 471
f 484 474 471
f 483 561 481
f 561 487 486
f 487 516 486
f 486 516 489
f 486 489 567
f 567 489 490
f 458 473 491
f 476 491 473
f 458 491 464
f 464 491 496
f 464 496 479
f 436 474 492
f 479 493 483
f 479 496 493
f 493 496 494
f 476 496 491
f 527 495 539
f 436 492 475
f 527 475 497
f 492 497 475
f 540 546 496
f 495 527 498
f 497 498 527
f 492 474 497
f 493 561 483
f 474 500 497
f 484 500 474
f 497 502 498
f 500 502 497
f 498 502 500
f 494 510 493
f 503 513 494
f 503 504 513
f 494 496 505
f 496 546 505
f 505 546 494
f 477 478 503
f 494 546 503
f 546 477 503
f 478 549 508
f 504 503 478
f 478 507 504
f 478 508 507
f 504 507 521
f 549 551 520
f 507 508 521
f 551 509 520
f 549 520 508
f 493 487 561
f 493 510 487
f 487 512 516
f 487 510 512
f 501 511 500
f 512 510 514
f 494 513 510
f 510 513 514
f 504 521 513
f 516 512 514
f 511 573 518
f 517 511 518
f 517 519 511
f 511 519 555
f 555 519 517
f 511 555 499
f 506 555 517
f 511 498 500
f 499 498 511
f 509 506 557
f 508 520 521
f 509 557 520
f 506 517 515
f 506 515 557
f 428 523 429
f 408 428 429
f 429 523 524
f 428 522 526
f 428 526 523
f 429 524 432
f 432 524 529
f 525 526 522
f 433 442 525
f 525 442 526
f 524 523 535
f 523 526 535
f 524 528 529
f 529 533 441
f 528 533 529
f 528 524 532
f 524 535 532
f 528 532 534
f 535 534 532
f 528 534 533
f 535 536 534
f 535 537 536
f 536 537 534
f 442 538 526
f 476 441 540
f 533 530 441
f 441 530 540
f 526 538 535
f 538 543 535
f 442 527 538
f 527 539 538
f 538 542 543
f 540 531 541
f 540 530 531
f 535 543 537
f 543 542 537
f 537 544 534
f 542 544 537
f 548 545 547
f 545 549 547
f 533 545 530
f 534 545 533
f 531 530 548
f 530 545 548
f 545 534 549
f 546 548 478
f 478 548 547
f 478 547 549
f 546 531 548
f 549 534 550
f 546 541 531
f 540 541 546
f 546 478 477
f 550 506 509
f 551 550 509
f 534 544 550
f 544 506 550
f 539 495 538
f 538 495 552
f 538 552 542
f 552 553 542
f 542 553 544
f 495 498 552
f 552 498 499
f 550 551 549
f 544 554 506
f 555 544 553
f 555 554 544
f 506 554 555
f 552 555 553
f 499 555 552
f 482 560 562
f 481 560 482
f 463 482 562
f 463 562 484
f 560 481 561
f 560 561 562
f 562 563 484
f 500 484 563
f 562 561 564
f 563 562 565
f 564 570 562
f 562 570 565
f 486 564 561
f 563 501 500
f 563 565 501
f 565 569 501
f 564 568 566
f 570 566 490
f 570 564 566
f 486 567 564
f 564 567 568
f 568 567 490
f 566 568 490
f 570 490 571
f 572 569 571
f 565 570 569
f 570 571 569
f 501 569 511
f 569 572 511
f 511 572 573
f 572 571 518
f 572 518 573
f 994 899 1018
f 899 900 901
f 899 901 1018
f 994 966 929
f 994 929 899
f 899 929 921
f 899 921 922
f 899 922 925
f 966 930 929
f 988 926 930
f 988 927 926
f 988 985 927
f 966 988 930
f 966 967 968
f 966 968 988
f 1018 901 982
f 983 1018 982
f 988 982 985
f 983 982 989
f 988 989 982
f 983 989 990
f 988 968 989
f 989 968 991
f 991 968 992
f 992 968 993
f 989 991 992
f 989 992 993
f 993 968 990
f 989 993 990
f 994 1018 995
f 995 1018 1002
f 1018 1019 1002
f 994 995 1012
f 995 1002 1012
f 1012 1002 1009
f 994 1012 966
f 1012 1009 1160
f 966 1012 1013
f 966 1013 967
f 1012 1014 1013
f 1012 1015 1014
f 1012 1160 1167
f 1015 1012 1016
f 1016 1012 1017
f 967 1013 968
f 1013 1014 968
f 1014 1015 968
f 1012 1167 1017
f 1015 1016 968
f 1016 1017 968
f 1017 1167 968
f 1018 1020 1019
f 1018 1021 1020
f 1020 1031 1030
f 1020 1021 1035
f 1018 983 1021
f 1020 1035 1031
f 1021 1036 1035
f 1021 1042 1036
f 1160 1009 1033
f 1164 1040 1042
f 1164 1039 1040
f 1021 1164 1042
f 983 990 1021
f 1160 1039 1164
f 1021 1165 1164
f 1021 990 1165
f 1165 1160 1164
f 1168 1167 1160
f 968 1167 1168
f 968 1168 1165
f 1168 1160 1165
f 968 1165 1169
f 968 1169 990
f 990 1169 1165
f 996 1008 997
f 996 1005 998
f 997 999 1000
f 999 1010 1002
f 997 1000 1001
f 999 1019 1000
f 1000 1019 1001
f 1001 1003 997
f 999 1002 1019
f 1001 1019 1003
f 997 1003 1004
f 1003 1019 1004
f 997 1004 1032
f 999 997 1010
f 997 1005 996
f 1008 1011 997
f 997 1011 1010
f 996 1006 1008
f 1006 996 998
f 1006 1007 1008
f 1010 1009 1002
f 1010 1034 1009
f 1004 1019 1020
f 1004 1020 1032
f 1032 1020 1030
f 997 1032 1005
f 1005 1032 998
f 998 1032 1022
f 998 1022 1006
f 1022 1023 1006
f 1006 1063 1007
f 1006 1062 1063
f 1006 1023 1026
f 1006 1026 1062
f 1022 1024 1028
f 1007 1025 1008
f 1026 1023 1027
f 1022 1028 1023
f 1028 1027 1023
f 1032 1030 1031
f 1031 1035 1032
f 1034 1033 1009
f 1034 1038 1033
f 1032 1035 1036
f 1032 1036 1037
f 1010 1041 1034
f 1010 1011 1041
f 1032 1044 1022
f 1044 1024 1022
f 1032 1037 1043
f 1032 1043 1044
f 1045 1160 1033
f 1038 1045 1033
f 1045 1039 1160
f 1046 1040 1039
f 1034 1041 1038
f 1041 1053 1038
f 1042 1037 1036
f 1042 1040 1057
f 1046 1047 1040
f 1046 1039 1048
f 1045 1048 1039
f 1047 1057 1040
f 1046 1048 1047
f 1047 1048 1057
f 1043 1049 1044
f 1038 1161 1162
f 1037 1042 1043
f 1043 1058 1049
f 1011 1050 1041
f 1008 1051 1011
f 1011 1051 1050
f 1008 1025 1051
f 1050 1052 1041
f 1024 1044 1028
f 1028 1054 1027
f 1051 1086 1050
f 1027 1060 1029
f 1027 1054 1060
f 1041 1052 1053
f 1028 1044 1054
f 1044 1049 1054
f 1049 1058 1054
f 1050 1055 1052
f 1050 1086 1055
f 1052 1056 1178
f 1042 1173 1043
f 1042 1057 1173
f 1048 1173 1057
f 1060 1054 1059
f 1059 1061 1060
f 1060 1061 1113
f 1063 1062 1064
f 1063 1064 1067
f 1062 1026 1065
f 1063 1067 1007
f 1007 1067 1089
f 1007 1089 1025
f 1026 1027 1065
f 1062 1065 1066
f 1027 1029 1065
f 1066 1069 1062
f 1062 1069 1064
f 1064 1072 1067
f 1069 1066 1073
f 1066 1068 1073
f 1064 1070 1072
f 1064 1069 1070
f 1072 1074 1067
f 1067 1074 1071
f 1070 1084 1072
f 1069 1073 1070
f 1070 1073 1075
f 1070 1075 1076
f 1073 1068 1075
f 1070 1076 1084
f 1076 1078 1084
f 1076 1081 1078
f 1075 1077 1076
f 1076 1079 1081
f 1076 1077 1079
f 1077 1080 1079
f 1077 1085 1080
f 1081 1079 1082
f 1079 1080 1083
f 1079 1083 1082
f 1080 1095 1083
f 1080 1085 1095
f 1084 1078 1093
f 1078 1081 1097
f 1078 1097 1093
f 1090 1051 1025
f 1051 1087 1086
f 1065 1029 1088
f 1065 1088 1066
f 1029 1060 1088
f 1051 1090 1087
f 1067 1071 1089
f 1025 1089 1090
f 1066 1088 1068
f 1090 1091 1087
f 1090 1131 1091
f 1087 1091 1131
f 1086 1087 1055
f 1055 1087 1052
f 1071 1092 1089
f 1071 1074 1092
f 1074 1072 1092
f 1072 1084 1093
f 1072 1094 1092
f 1072 1093 1094
f 1068 1110 1075
f 1085 1077 1096
f 1096 1077 1136
f 1085 1096 1095
f 1081 1082 1097
f 1082 1083 1097
f 1083 1095 1097
f 1095 1096 1097
f 1094 1093 1099
f 1093 1097 1099
f 1097 1096 1098
f 1097 1098 1100
f 1097 1100 1101
f 1097 1101 1102
f 1097 1105 1099
f 1096 1136 1140
f 1096 1141 1098
f 1097 1102 1103
f 1097 1103 1104
f 1097 1104 1106
f 1097 1106 1105
f 1088 1060 1108
f 1088 1108 1107
f 1108 1060 1107
f 1088 1109 1068
f 1088 1107 1109
f 1068 1109 1110
f 1107 1111 1109
f 1109 1111 1110
f 1134 1111 1149
f 1087 1112 1052
f 1052 1112 1056
f 1107 1060 1113
f 1056 1115 1178
f 1113 1114 1107
f 1111 1107 1114
f 1113 1061 1114
f 1178 1115 1120
f 1087 1117 1112
f 1131 1116 1087
f 1087 1116 1117
f 1112 1117 1056
f 1056 1117 1115
f 1114 1118 1111
f 1115 1117 1119
f 1115 1119 1120
f 1120 1119 1125
f 1114 1061 1123
f 1120 1124 1191
f 1118 1123 1111
f 1118 1114 1123
f 1111 1123 1121
f 1149 1111 1121
f 1121 1126 1122
f 1120 1125 1124
f 1121 1123 1126
f 1191 1124 1195
f 1125 1195 1124
f 1122 1159 1121
f 1127 1122 1195
f 1127 1159 1122
f 1075 1110 1128
f 1075 1130 1077
f 1089 1092 1129
f 1128 1130 1075
f 1131 1132 1116
f 1089 1129 1090
f 1090 1129 1131
f 1129 1138 1131
f 1128 1133 1130
f 1128 1110 1111
f 1128 1111 1134
f 1128 1149 1133
f 1134 1149 1128
f 1131 1147 1148
f 1132 1131 1148
f 1132 1148 1119
f 1092 1094 1135
f 1092 1135 1137
f 1092 1137 1129
f 1130 1136 1077
f 1136 1130 1140
f 1129 1137 1138
f 1099 1135 1094
f 1099 1137 1135
f 1099 1138 1137
f 1096 1140 1141
f 1098 1143 1100
f 1100 1145 1101
f 1099 1105 1144
f 1099 1142 1138
f 1131 1138 1142
f 1140 1130 1139
f 1140 1139 1141
f 1130 1133 1139
f 1141 1139 1143
f 1139 1145 1143
f 1145 1139 1146
f 1098 1141 1143
f 1100 1143 1145
f 1101 1145 1146
f 1101 1146 1102
f 1102 1153 1103
f 1103 1155 1104
f 1105 1106 1157
f 1104 1156 1106
f 1099 1144 1142
f 1105 1154 1144
f 1102 1146 1153
f 1103 1153 1155
f 1104 1155 1156
f 1106 1156 1157
f 1105 1157 1154
f 1131 1142 1147
f 1147 1142 1148
f 1142 1144 1148
f 1144 1154 1148
f 1132 1117 1116
f 1132 1119 1117
f 1149 1121 1150
f 1150 1121 1151
f 1133 1149 1150
f 1133 1150 1151
f 1139 1133 1151
f 1119 1148 1152
f 1152 1151 1158
f 1152 1158 1125
f 1151 1159 1158
f 1146 1139 1153
f 1139 1155 1153
f 1152 1154 1157
f 1152 1157 1156
f 1139 1152 1155
f 1152 1156 1155
f 1148 1154 1152
f 1151 1152 1139
f 1119 1152 1125
f 1151 1121 1159
f 1158 1127 1195
f 1125 1158 1195
f 1158 1159 1127
f 1038 1163 1045
f 1038 1053 1161
f 1038 1162 1163
f 1048 1045 1172
f 1048 1172 1170
f 1045 1163 1181
f 1045 1181 1172
f 1053 1052 1161
f 1052 1166 1161
f 1052 1178 1166
f 1048 1170 1171
f 1043 1176 1058
f 1048 1171 1173
f 1173 1174 1043
f 1043 1174 1176
f 1173 1171 1174
f 1170 1172 1171
f 1174 1171 1183
f 1054 1058 1059
f 1166 1162 1161
f 1058 1176 1059
f 1059 1176 1175
f 1166 1178 1177
f 1166 1177 1162
f 1059 1175 1061
f 1175 1184 1061
f 1162 1177 1180
f 1163 1162 1181
f 1162 1180 1181
f 1180 1182 1181
f 1181 1188 1172
f 1180 1179 1182
f 1176 1174 1175
f 1184 1192 1061
f 1183 1187 1184
f 1187 1189 1184
f 1184 1185 1192
f 1184 1189 1185
f 1174 1184 1175
f 1184 1174 1183
f 1181 1182 1188
f 1172 1188 1186
f 1172 1186 1187
f 1183 1171 1187
f 1172 1187 1171
f 1182 1179 1188
f 1186 1188 1189
f 1186 1189 1187
f 1188 1179 1185
f 1185 1189 1188
f 1178 1120 1177
f 1120 1190 1177
f 1177 1190 1180
f 1123 1061 1192
f 1190 1191 1180
f 1120 1191 1190
f 1191 1179 1180
f 1123 1192 1185
f 1191 1194 1179
f 1123 1185 1193
f 1126 1123 1193
f 1195 1122 1126
f 1191 1195 1194
f 1194 1195 1126
f 1193 1185 1126
f 1194 1126 1185
f 1194 1185 1179
f 789 798 790
f 790 798 791
f 791 798 792
f 789 795 798
f 792 798 793
f 793 798 794
f 794 798 799
f 795 796 798
f 798 796 797
f 799 798 801
f 800 801 798
f 800 798 855
f 798 856 855
f 800 859 801
f 799 801 822
f 798 797 802
f 798 802 856
f 801 859 822
f 822 859 819
f 803 804 818
f 804 805 818
f 803 818 806
f 805 812 818
f 818 837 806
f 818 807 808
f 818 808 837
f 807 827 828
f 807 828 809
f 807 809 808
f 803 790 804
f 803 806 789
f 804 791 805
f 805 792 812
f 806 814 789
f 804 790 791
f 803 789 790
f 805 791 792
f 792 793 812
f 789 814 795
f 793 813 812
f 794 811 813
f 816 811 799
f 795 814 815
f 796 815 821
f 818 812 813
f 813 811 818
f 816 818 811
f 816 819 818
f 818 819 825
f 814 820 815
f 815 820 821
f 821 826 817
f 793 794 813
f 794 799 811
f 795 815 796
f 796 817 797
f 816 799 822
f 796 821 817
f 797 817 823
f 797 824 802
f 797 823 824
f 819 816 822
f 823 880 824
f 823 817 826
f 807 818 825
f 819 827 825
f 827 831 828
f 807 825 827
f 806 836 814
f 806 837 836
f 820 814 830
f 814 836 830
f 821 820 826
f 820 830 826
f 830 834 826
f 819 831 827
f 819 832 831
f 832 833 831
f 823 826 880
f 826 835 880
f 826 834 835
f 830 836 834
f 809 840 838
f 809 838 808
f 838 933 808
f 839 838 840
f 808 933 810
f 808 810 837
f 809 828 840
f 840 828 839
f 810 841 847
f 828 842 839
f 828 831 843
f 829 843 831
f 831 844 829
f 833 844 831
f 844 849 829
f 844 845 849
f 845 844 846
f 843 842 828
f 837 851 836
f 836 848 834
f 843 829 842
f 836 851 848
f 810 847 837
f 837 847 851
f 834 848 887
f 829 934 842
f 829 849 934
f 847 841 851
f 841 852 851
f 848 851 887
f 849 845 850
f 851 852 853
f 800 855 857
f 858 855 856
f 858 857 855
f 802 878 856
f 800 857 859
f 856 878 860
f 856 862 858
f 856 860 862
f 857 858 819
f 857 819 859
f 819 858 832
f 854 858 862
f 854 861 858
f 860 879 862
f 854 862 866
f 879 866 862
f 858 861 832
f 832 861 863
f 863 861 864
f 854 866 861
f 866 865 861
f 866 867 865
f 879 867 866
f 879 868 867
f 861 873 864
f 863 869 832
f 833 832 869
f 863 864 869
f 861 865 873
f 865 870 873
f 876 865 867
f 876 867 868
f 876 868 871
f 873 872 864
f 873 874 872
f 875 893 873
f 876 870 865
f 876 871 870
f 870 875 873
f 870 871 969
f 871 877 969
f 802 824 878
f 860 878 879
f 878 824 879
f 824 880 879
f 879 880 868
f 880 881 868
f 835 881 880
f 882 881 883
f 869 884 833
f 835 834 881
f 834 883 881
f 881 882 868
f 868 882 871
f 882 883 871
f 869 864 884
f 884 864 846
f 844 833 884
f 884 846 844
f 864 872 846
f 872 874 846
f 883 834 885
f 883 885 871
f 871 885 877
f 834 886 885
f 886 834 887
f 903 886 887
f 851 853 887
f 849 936 934
f 936 849 947
f 850 888 849
f 888 947 849
f 850 845 888
f 888 845 947
f 846 889 845
f 870 969 875
f 893 875 971
f 971 894 893
f 873 893 874
f 874 893 891
f 893 895 891
f 893 894 895
f 877 885 973
f 969 877 973
f 973 885 897
f 891 895 892
f 894 896 895
f 896 898 895
f 896 977 898
f 898 899 924
f 898 980 900
f 980 901 900
f 898 900 899
f 874 902 846
f 846 902 889
f 902 904 889
f 874 891 902
f 891 904 902
f 891 892 904
f 904 892 905
f 887 853 903
f 853 962 907
f 903 907 909
f 853 907 903
f 904 906 889
f 905 906 904
f 957 889 906
f 886 908 885
f 885 908 897
f 897 908 903
f 903 909 897
f 886 903 908
f 909 910 897
f 897 910 974
f 907 910 909
f 905 911 912
f 916 912 929
f 916 929 923
f 917 923 929
f 906 912 913
f 957 912 916
f 957 906 913
f 957 913 912
f 890 957 916
f 905 912 906
f 959 914 960
f 956 890 917
f 956 919 958
f 923 890 916
f 956 917 918
f 956 918 919
f 917 890 923
f 917 929 918
f 958 919 959
f 918 929 919
f 959 919 930
f 895 898 892
f 905 892 911
f 898 911 892
f 911 898 924
f 911 924 922
f 910 920 984
f 911 922 921
f 912 911 921
f 912 921 929
f 924 899 925
f 922 924 925
f 965 915 927
f 915 926 927
f 965 927 985
f 965 985 987
f 910 907 920
f 907 928 920
f 987 928 965
f 928 987 920
f 959 926 914
f 919 929 930
f 959 930 926
f 914 926 915
f 839 932 931
f 838 839 931
f 838 931 933
f 932 839 939
f 933 931 932
f 933 932 938
f 810 933 841
f 842 934 839
f 933 946 841
f 852 841 935
f 932 939 941
f 932 941 937
f 839 936 939
f 839 934 936
f 933 938 946
f 939 940 941
f 939 936 940
f 937 941 944
f 932 937 938
f 940 942 941
f 941 942 944
f 936 943 940
f 937 944 938
f 943 955 940
f 942 945 944
f 841 946 935
f 936 947 943
f 852 935 853
f 853 935 961
f 946 948 935
f 935 948 950
f 948 946 950
f 845 949 947
f 845 889 949
f 947 949 943
f 943 949 955
f 946 951 950
f 946 938 951
f 944 945 938
f 938 952 951
f 938 945 952
f 956 954 953
f 942 954 956
f 940 954 942
f 955 953 940
f 940 953 954
f 942 956 945
f 955 949 957
f 956 953 890
f 890 953 955
f 958 960 945
f 958 945 956
f 955 957 890
f 889 957 949
f 958 959 960
f 945 960 952
f 951 952 964
f 853 961 962
f 961 935 962
f 935 963 962
f 950 963 935
f 963 907 962
f 960 914 964
f 952 960 964
f 965 950 951
f 965 951 964
f 915 965 964
f 963 950 965
f 907 963 928
f 963 965 928
f 914 915 964
f 969 970 971
f 875 969 971
f 973 970 969
f 970 973 971
f 971 972 894
f 971 973 972
f 972 973 976
f 973 974 976
f 897 974 973
f 972 977 894
f 972 975 977
f 972 976 975
f 896 894 977
f 977 978 981
f 979 901 978
f 975 978 977
f 975 979 978
f 898 977 980
f 977 981 980
f 981 901 980
f 978 901 981
f 979 982 901
f 986 982 976
f 975 976 979
f 979 976 982
f 974 984 976
f 910 984 974
f 976 984 920
f 986 920 987
f 976 920 986
f 987 985 982
f 986 987 982
f 1299 1417 1302
f 1302 1304 1303
f 1302 1417 1304
f 1299 1327 1370
f 1299 1302 1327
f 1302 1328 1327
f 1302 1303 1330
f 1302 1330 1328
f 1370 1327 1335
f 1370 1335 1334
f 1371 1329 1331
f 1371 1331 1332
f 1299 1370 1410
f 1370 1334 1371
f 1371 1332 1388
f 1370 1373 1410
f 1370 1371 1373
f 1371 1388 1389
f 1410 1373 1372
f 1371 1389 1373
f 1373 1389 1372
f 1417 1385 1304
f 1425 1385 1417
f 1388 1332 1385
f 1425 1388 1385
f 1425 1570 1388
f 1388 1390 1389
f 1388 1391 1390
f 1389 1390 1372
f 1390 1391 1372
f 1391 1392 1372
f 1392 1393 1372
f 1388 1392 1391
f 1388 1393 1392
f 1393 1575 1372
f 1388 1570 1393
f 1393 1570 1575
f 1299 1394 1417
f 1394 1398 1417
f 1417 1398 1418
f 1299 1411 1394
f 1394 1411 1398
f 1411 1408 1398
f 1567 1436 1408
f 1299 1410 1411
f 1411 1567 1408
f 1410 1412 1411
f 1410 1372 1412
f 1411 1412 1413
f 1411 1413 1414
f 1411 1572 1567
f 1414 1415 1411
f 1415 1416 1411
f 1412 1372 1413
f 1413 1372 1414
f 1411 1416 1572
f 1414 1372 1415
f 1415 1372 1416
f 1416 1372 1572
f 1417 1418 1419
f 1417 1419 1421
f 1419 1435 1421
f 1421 1435 1439
f 1421 1439 1438
f 1421 1438 1450
f 1567 1437 1436
f 1567 1443 1451
f 1569 1450 1442
f 1569 1442 1443
f 1421 1450 1569
f 1417 1421 1570
f 1425 1417 1570
f 1567 1569 1443
f 1421 1569 1574
f 1421 1574 1570
f 1574 1569 1567
f 1573 1567 1572
f 1372 1573 1572
f 1372 1574 1573
f 1573 1574 1567
f 1372 1575 1574
f 1570 1574 1575
f 1396 1397 1406
f 1397 1400 1395
f 1397 1401 1400
f 1395 1400 1418
f 1400 1401 1402
f 1395 1418 1398
f 1399 1398 1408
f 1399 1408 1407
f 1400 1402 1418
f 1401 1403 1402
f 1402 1403 1418
f 1395 1398 1397
f 1398 1399 1397
f 1397 1396 1401
f 1399 1407 1397
f 1397 1407 1404
f 1397 1404 1406
f 1396 1406 1405
f 1405 1427 1396
f 1396 1427 1401
f 1427 1426 1401
f 1401 1426 1422
f 1407 1408 1409
f 1409 1408 1436
f 1403 1419 1418
f 1403 1401 1419
f 1401 1420 1419
f 1420 1423 1419
f 1422 1424 1401
f 1401 1424 1423
f 1420 1401 1423
f 1424 1422 1429
f 1405 1465 1427
f 1406 1428 1405
f 1426 1429 1422
f 1426 1433 1429
f 1405 1430 1465
f 1405 1428 1430
f 1426 1427 1431
f 1427 1432 1431
f 1426 1431 1433
f 1431 1434 1433
f 1423 1435 1419
f 1409 1436 1437
f 1423 1439 1435
f 1439 1445 1438
f 1409 1440 1407
f 1407 1440 1458
f 1424 1429 1446
f 1423 1424 1446
f 1423 1445 1439
f 1441 1437 1567
f 1409 1437 1441
f 1441 1567 1451
f 1447 1443 1442
f 1409 1441 1440
f 1445 1450 1438
f 1450 1444 1442
f 1423 1446 1445
f 1447 1442 1448
f 1448 1442 1449
f 1447 1451 1443
f 1449 1442 1444
f 1450 1452 1444
f 1447 1448 1579
f 1448 1449 1579
f 1449 1444 1579
f 1447 1579 1451
f 1444 1452 1461
f 1444 1461 1579
f 1445 1446 1453
f 1441 1576 1440
f 1441 1451 1576
f 1445 1453 1450
f 1404 1454 1406
f 1428 1454 1430
f 1428 1406 1454
f 1454 1456 1430
f 1430 1456 1488
f 1404 1407 1457
f 1429 1433 1446
f 1434 1455 1433
f 1433 1455 1446
f 1446 1455 1459
f 1446 1459 1453
f 1455 1462 1459
f 1458 1457 1407
f 1404 1457 1454
f 1457 1460 1454
f 1454 1460 1456
f 1460 1515 1456
f 1451 1579 1577
f 1450 1453 1452
f 1459 1463 1453
f 1453 1463 1583
f 1459 1462 1463
f 1463 1464 1586
f 1462 1464 1463
f 1465 1432 1427
f 1465 1466 1432
f 1432 1466 1469
f 1465 1468 1466
f 1465 1467 1468
f 1465 1430 1467
f 1431 1432 1434
f 1432 1470 1434
f 1469 1470 1432
f 1434 1470 1455
f 1470 1469 1472
f 1466 1473 1469
f 1470 1472 1479
f 1466 1476 1473
f 1466 1468 1476
f 1469 1473 1472
f 1467 1474 1478
f 1467 1478 1468
f 1470 1479 1471
f 1471 1533 1475
f 1473 1476 1477
f 1473 1477 1472
f 1476 1480 1477
f 1472 1471 1479
f 1472 1477 1471
f 1471 1477 1533
f 1533 1477 1540
f 1468 1495 1476
f 1476 1495 1480
f 1477 1480 1481
f 1477 1481 1482
f 1477 1482 1540
f 1540 1482 1483
f 1540 1483 1497
f 1480 1495 1481
f 1481 1484 1482
f 1482 1485 1483
f 1482 1484 1485
f 1483 1485 1498
f 1487 1495 1486
f 1483 1498 1497
f 1495 1487 1481
f 1481 1487 1499
f 1430 1488 1467
f 1467 1488 1489
f 1467 1489 1474
f 1488 1456 1489
f 1470 1490 1455
f 1455 1490 1462
f 1490 1491 1462
f 1470 1471 1490
f 1471 1491 1490
f 1471 1475 1491
f 1474 1537 1478
f 1491 1475 1512
f 1489 1492 1474
f 1474 1492 1537
f 1456 1493 1489
f 1493 1456 1515
f 1478 1494 1468
f 1468 1494 1495
f 1494 1496 1495
f 1495 1496 1486
f 1494 1478 1496
f 1540 1497 1534
f 1501 1534 1497
f 1497 1498 1501
f 1481 1499 1484
f 1484 1499 1485
f 1485 1499 1498
f 1498 1499 1501
f 1499 1487 1500
f 1499 1502 1501
f 1499 1503 1502
f 1499 1504 1503
f 1499 1505 1504
f 1501 1542 1534
f 1501 1502 1546
f 1499 1506 1505
f 1499 1507 1506
f 1499 1508 1507
f 1499 1500 1508
f 1491 1509 1462
f 1509 1510 1462
f 1509 1511 1510
f 1491 1512 1509
f 1512 1513 1509
f 1509 1513 1514
f 1509 1514 1511
f 1492 1520 1537
f 1462 1510 1464
f 1510 1517 1464
f 1515 1516 1493
f 1511 1517 1510
f 1493 1516 1519
f 1517 1586 1464
f 1515 1522 1516
f 1493 1519 1489
f 1489 1519 1520
f 1492 1489 1520
f 1520 1519 1516
f 1511 1518 1517
f 1516 1553 1520
f 1511 1521 1518
f 1516 1522 1553
f 1517 1523 1586
f 1517 1518 1523
f 1522 1524 1530
f 1518 1525 1602
f 1528 1525 1518
f 1526 1528 1518
f 1521 1526 1518
f 1511 1526 1521
f 1526 1527 1528
f 1530 1529 1565
f 1530 1524 1529
f 1527 1531 1528
f 1529 1601 1531
f 1527 1532 1531
f 1532 1529 1531
f 1512 1533 1513
f 1475 1533 1512
f 1533 1534 1513
f 1534 1514 1513
f 1534 1535 1514
f 1533 1540 1534
f 1537 1520 1536
f 1478 1537 1496
f 1537 1536 1539
f 1545 1556 1554
f 1535 1511 1514
f 1535 1545 1511
f 1545 1554 1511
f 1520 1538 1539
f 1520 1539 1536
f 1539 1538 1552
f 1538 1553 1566
f 1486 1496 1541
f 1496 1543 1541
f 1534 1542 1545
f 1496 1544 1543
f 1496 1547 1544
f 1486 1541 1487
f 1487 1541 1543
f 1487 1543 1544
f 1487 1544 1500
f 1501 1546 1542
f 1502 1503 1548
f 1503 1504 1550
f 1500 1544 1547
f 1537 1539 1496
f 1496 1539 1547
f 1534 1545 1535
f 1542 1556 1545
f 1542 1546 1556
f 1546 1548 1556
f 1556 1548 1555
f 1555 1548 1550
f 1550 1551 1555
f 1502 1548 1546
f 1503 1550 1548
f 1504 1551 1550
f 1504 1505 1551
f 1505 1506 1560
f 1506 1507 1562
f 1500 1564 1508
f 1507 1508 1563
f 1500 1547 1549
f 1500 1549 1552
f 1505 1560 1551
f 1506 1562 1560
f 1507 1563 1562
f 1508 1564 1563
f 1500 1552 1561
f 1500 1561 1564
f 1547 1539 1549
f 1549 1539 1552
f 1520 1553 1538
f 1554 1526 1511
f 1554 1527 1526
f 1554 1556 1527
f 1556 1555 1527
f 1538 1565 1552
f 1565 1566 1530
f 1538 1566 1565
f 1555 1557 1558
f 1557 1565 1558
f 1551 1560 1555
f 1555 1560 1562
f 1565 1564 1561
f 1565 1563 1564
f 1555 1562 1559
f 1565 1559 1563
f 1559 1562 1563
f 1552 1565 1561
f 1557 1559 1565
f 1557 1555 1559
f 1553 1522 1566
f 1566 1522 1530
f 1555 1532 1527
f 1555 1558 1532
f 1558 1529 1532
f 1565 1529 1558
f 1440 1576 1568
f 1440 1568 1584
f 1440 1584 1458
f 1451 1577 1576
f 1458 1584 1457
f 1457 1571 1460
f 1453 1583 1452
f 1576 1577 1578
f 1461 1452 1579
f 1452 1581 1579
f 1452 1580 1581
f 1452 1583 1580
f 1577 1579 1578
f 1576 1588 1568
f 1576 1578 1588
f 1579 1581 1593
f 1579 1593 1582
f 1579 1593 1578
f 1579 1582 1593
f 1583 1463 1580
f 1585 1580 1463
f 1457 1584 1571
f 1460 1571 1515
f 1571 1598 1515
f 1584 1568 1571
f 1585 1463 1586
f 1571 1599 1598
f 1568 1587 1571
f 1571 1587 1599
f 1568 1588 1589
f 1585 1591 1580
f 1586 1591 1585
f 1568 1596 1587
f 1586 1592 1591
f 1587 1596 1590
f 1587 1590 1600
f 1581 1580 1593
f 1591 1593 1580
f 1588 1578 1595
f 1578 1593 1595
f 1588 1595 1594
f 1589 1596 1568
f 1589 1588 1596
f 1596 1588 1590
f 1593 1591 1595
f 1591 1592 1595
f 1588 1597 1590
f 1588 1594 1597
f 1592 1597 1595
f 1594 1595 1597
f 1515 1598 1522
f 1522 1598 1599
f 1522 1599 1524
f 1523 1592 1586
f 1523 1518 1592
f 1518 1602 1592
f 1524 1599 1587
f 1524 1587 1601
f 1524 1601 1529
f 1587 1600 1601
f 1602 1597 1592
f 1602 1525 1597
f 1601 1528 1531
f 1600 1528 1601
f 1525 1528 1597
f 1528 1600 1590
f 1528 1590 1597
f 1199 1196 1204
f 1196 1197 1204
f 1197 1198 1204
f 1199 1204 1203
f 1205 1204 1202
f 1198 1200 1204
f 1200 1201 1204
f 1201 1202 1204
f 1204 1207 1203
f 1205 1202 1208
f 1206 1204 1205
f 1206 1257 1204
f 1204 1257 1258
f 1206 1205 1210
f 1204 1261 1207
f 1205 1208 1209
f 1205 1209 1210
f 1209 1208 1210
f 1208 1265 1210
f 1212 1216 1213
f 1213 1216 1215
f 1212 1214 1216
f 1214 1217 1216
f 1215 1216 1224
f 1216 1217 1220
f 1216 1218 1219
f 1216 1220 1218
f 1216 1219 1235
f 1219 1222 1235
f 1235 1222 1236
f 1218 1221 1222
f 1219 1218 1222
f 1218 1220 1221
f 1212 1213 1196
f 1212 1199 1214
f 1213 1215 1197
f 1215 1224 1198
f 1213 1197 1196
f 1212 1196 1199
f 1215 1198 1197
f 1198 1224 1200
f 1199 1203 1214
f 1200 1224 1225
f 1201 1225 1223
f 1226 1202 1223
f 1203 1227 1214
f 1216 1225 1224
f 1225 1216 1223
f 1226 1223 1216
f 1216 1235 1226
f 1238 1229 1226
f 1238 1226 1233
f 1214 1227 1217
f 1228 1237 1227
f 1200 1225 1201
f 1201 1223 1202
f 1203 1207 1227
f 1226 1229 1202
f 1229 1208 1202
f 1207 1230 1227
f 1207 1261 1230
f 1261 1231 1230
f 1238 1208 1229
f 1227 1230 1228
f 1230 1231 1282
f 1230 1282 1232
f 1230 1232 1228
f 1226 1235 1233
f 1238 1233 1234
f 1235 1236 1233
f 1217 1227 1241
f 1217 1241 1220
f 1238 1239 1265
f 1208 1238 1265
f 1234 1239 1238
f 1265 1239 1211
f 1228 1232 1240
f 1228 1240 1237
f 1237 1241 1227
f 1221 1244 1222
f 1242 1222 1336
f 1243 1236 1222
f 1233 1236 1245
f 1233 1245 1234
f 1222 1244 1336
f 1243 1245 1236
f 1336 1244 1339
f 1245 1243 1246
f 1244 1247 1339
f 1211 1239 1249
f 1234 1248 1239
f 1240 1284 1237
f 1237 1284 1250
f 1239 1251 1249
f 1239 1248 1251
f 1249 1251 1255
f 1248 1234 1245
f 1220 1241 1252
f 1220 1252 1221
f 1221 1252 1247
f 1248 1245 1246
f 1221 1247 1244
f 1252 1241 1289
f 1250 1253 1237
f 1237 1253 1241
f 1248 1246 1254
f 1251 1248 1254
f 1254 1246 1255
f 1343 1255 1246
f 1241 1253 1289
f 1254 1255 1251
f 1252 1289 1247
f 1247 1289 1341
f 1256 1247 1341
f 1206 1259 1257
f 1260 1258 1257
f 1258 1262 1261
f 1260 1257 1259
f 1204 1258 1261
f 1206 1210 1259
f 1261 1271 1231
f 1258 1260 1262
f 1261 1262 1271
f 1260 1259 1210
f 1263 1271 1262
f 1260 1210 1266
f 1260 1263 1262
f 1260 1268 1263
f 1260 1270 1268
f 1210 1265 1266
f 1270 1260 1266
f 1265 1264 1266
f 1211 1264 1265
f 1264 1270 1266
f 1268 1279 1271
f 1264 1269 1270
f 1268 1270 1279
f 1268 1271 1263
f 1283 1271 1279
f 1283 1279 1267
f 1264 1272 1269
f 1264 1249 1272
f 1270 1273 1279
f 1270 1269 1273
f 1274 1267 1279
f 1276 1269 1272
f 1276 1272 1278
f 1279 1273 1280
f 1269 1280 1273
f 1269 1281 1280
f 1281 1296 1280
f 1281 1276 1296
f 1274 1279 1280
f 1274 1296 1275
f 1274 1280 1296
f 1269 1276 1281
f 1296 1277 1275
f 1231 1271 1282
f 1282 1271 1283
f 1267 1232 1282
f 1282 1283 1267
f 1267 1275 1232
f 1267 1274 1275
f 1211 1249 1264
f 1232 1275 1240
f 1275 1285 1240
f 1285 1275 1277
f 1249 1286 1272
f 1272 1286 1287
f 1249 1287 1286
f 1285 1284 1240
f 1250 1284 1285
f 1285 1288 1250
f 1250 1289 1253
f 1249 1290 1287
f 1249 1255 1290
f 1290 1354 1310
f 1276 1278 1293
f 1276 1295 1296
f 1276 1294 1295
f 1276 1293 1297
f 1276 1297 1294
f 1294 1297 1295
f 1277 1298 1285
f 1298 1288 1285
f 1297 1375 1295
f 1375 1301 1300
f 1301 1330 1300
f 1300 1330 1303
f 1300 1303 1381
f 1381 1303 1304
f 1272 1287 1305
f 1290 1305 1287
f 1272 1305 1278
f 1278 1305 1310
f 1278 1310 1293
f 1250 1288 1306
f 1293 1307 1297
f 1293 1310 1307
f 1307 1310 1308
f 1290 1310 1305
f 1341 1309 1353
f 1250 1306 1289
f 1341 1289 1311
f 1306 1311 1289
f 1354 1360 1310
f 1309 1341 1312
f 1311 1312 1341
f 1306 1288 1311
f 1307 1375 1297
f 1288 1314 1311
f 1298 1314 1288
f 1311 1316 1312
f 1314 1316 1311
f 1312 1316 1314
f 1308 1324 1307
f 1317 1327 1308
f 1317 1318 1327
f 1308 1310 1319
f 1310 1360 1319
f 1319 1360 1308
f 1291 1292 1317
f 1308 1360 1317
f 1360 1291 1317
f 1292 1363 1322
f 1318 1317 1292
f 1292 1321 1318
f 1292 1322 1321
f 1318 1321 1335
f 1363 1365 1334
f 1321 1322 1335
f 1365 1323 1334
f 1363 1334 1322
f 1307 1301 1375
f 1307 1324 1301
f 1301 1326 1330
f 1301 1324 1326
f 1315 1325 1314
f 1326 1324 1328
f 1308 1327 1324
f 1324 1327 1328
f 1318 1335 1327
f 1330 1326 1328
f 1325 1387 1332
f 1331 1325 1332
f 1331 1333 1325
f 1325 1333 1369
f 1369 1333 1331
f 1325 1369 1313
f 1320 1369 1331
f 1325 1312 1314
f 1313 1312 1325
f 1323 1320 1371
f 1322 1334 1335
f 1323 1371 1334
f 1320 1331 1329
f 1320 1329 1371
f 1242 1337 1243
f 1222 1242 1243
f 1243 1337 1338
f 1242 1336 1340
f 1242 1340 1337
f 1243 1338 1246
f 1246 1338 1343
f 1339 1340 1336
f 1247 1256 1339
f 1339 1256 1340
f 1338 1337 1349
f 1337 1340 1349
f 1338 1342 1343
f 1343 1347 1255
f 1342 1347 1343
f 1342 1338 1346
f 1338 1349 1346
f 1342 1346 1348
f 1349 1348 1346
f 1342 1348 1347
f 1349 1350 1348
f 1349 1351 1350
f 1350 1351 1348
f 1256 1352 1340
f 1290 1255 1354
f 1347 1344 1255
f 1255 1344 1354
f 1340 1352 1349
f 1352 1357 1349
f 1256 1341 1352
f 1341 1353 1352
f 1352 1356 1357
f 1354 1345 1355
f 1354 1344 1345
f 1349 1357 1351
f 1357 1356 1351
f 1351 1358 1348
f 1356 1358 1351
f 1362 1359 1361
f 1359 1363 1361
f 1347 1359 1344
f 1348 1359 1347
f 1345 1344 1362
f 1344 1359 1362
f 1359 1348 1363
f 1360 1362 1292
f 1292 1362 1361
f 1292 1361 1363
f 1360 1345 1362
f 1363 1348 1364
f 1360 1355 1345
f 1354 1355 1360
f 1360 1292 1291
f 1364 1320 1323
f 1365 1364 1323
f 1348 1358 1364
f 1358 1320 1364
f 1353 1309 1352
f 1352 1309 1366
f 1352 1366 1356
f 1366 1367 1356
f 1356 1367 1358
f 1309 1312 1366
f 1366 1312 1313
f 1364 1365 1363
f 1358 1368 1320
f 1369 1358 1367
f 1369 1368 1358
f 1320 1368 1369
f 1366 1369 1367
f 1313 1369 1366
f 1296 1374 1376
f 1295 1374 1296
f 1277 1296 1376
f 1277 1376 1298
f 1374 1295 1375
f 1374 1375 1376
f 1376 1377 1298
f 1314 1298 1377
f 1376 1375 1378
f 1377 1376 1379
f 1378 1384 1376
f 1376 1384 1379
f 1300 1378 1375
f 1377 1315 1314
f 1377 1379 1315
f 1379 1383 1315
f 1378 1382 1380
f 1384 1380 1304
f 1384 1378 1380
f 1300 1381 1378
f 1378 1381 1382
f 1382 1381 1304
f 1380 1382 1304
f 1384 1304 1385
f 1386 1383 1385
f 1379 1384 1383
f 1384 1385 1383
f 1315 1383 1325
f 1383 1386 1325
f 1325 1386 1387
f 1386 1385 1332
f 1386 1332 1387
