v -0.099375 -0.037346 -0.042445
v 0.063353 -0.043905 -0.046992
v -0.128674 -0.178043 0.004498
v -0.144984 -0.167450 0.020059
v -0.105654 -0.115537 0.025686
v -0.048899 -0.053254 -0.010896
v -0.100192 -0.026013 0.051991
v -0.026426 -0.056784 0.007950
v -0.054125 -0.058884 0.019878
v -0.035658 -0.054616 0.019137
v -0.045895 -0.049559 0.041588
v -0.145138 0.166666 0.000604
v -0.102102 0.040139 -0.040934
v -0.049546 0.033713 -0.046661
v -0.040336 0.055098 -0.017968
v -0.101924 0.035482 0.041950
v -0.059666 0.053375 0.000776
v -0.131519 0.178673 0.006744
v -0.122318 0.159870 0.026601
v -0.027232 0.056030 0.005390
v -0.047325 0.052889 0.023537
v 0.036911 0.053065 0.036509
v 0.146889 -0.165014 0.014478
v 0.101171 -0.030093 0.013508
v 0.055471 -0.058352 -0.013943
v 0.130820 -0.174616 0.000522
v 0.092356 -0.099029 0.003836
v 0.037941 -0.055456 0.023062
v 0.089153 -0.092085 0.012515
v 0.133743 -0.175932 0.020277
v 0.026240 -0.058481 0.016046
v 0.071023 -0.082119 0.025831
v 0.061335 -0.014601 0.040371
v 0.053520 0.056082 -0.015505
v 0.095165 -0.028532 -0.049689
v 0.087697 0.042986 -0.045949
v 0.085552 0.121802 0.025655
v 0.095879 0.037888 0.015119
v 0.055403 0.053688 0.020712
v 0.131225 0.173304 0.003737
v 0.146579 0.166011 0.015032
g body
f 1 7 13
f 1 2 25
f 1 25 6
f 25 10 6
f 1 11 7
f 1 6 11
f 11 6 10
f 11 10 31
f 1 13 14
f 13 15 14
f 1 14 2
f 15 13 17
f 15 22 34
f 15 21 22
f 7 16 13
f 13 16 17
f 7 22 16
f 17 16 21
f 16 22 21
f 2 14 35
f 10 25 31
f 2 35 25
f 25 35 24
f 28 11 31
f 33 7 11
f 11 28 33
f 28 24 33
f 25 24 28
f 14 15 36
f 14 36 35
f 15 34 36
f 36 39 38
f 35 36 24
f 24 36 38
f 36 34 39
f 7 33 22
f 39 22 38
f 24 38 33
f 22 33 38
f 22 40 34
f 34 40 41
f 37 22 39
f 22 37 40
f 34 41 39
f 37 41 40
f 39 41 37
f 15 17 18
f 20 21 15
f 17 12 18
f 12 19 18
f 12 17 19
f 21 19 17
f 15 18 20
f 20 18 19
f 20 19 21
f 8 6 10
f 3 4 6
f 6 4 5
f 3 5 4
f 6 8 3
f 5 8 9
f 5 9 6
f 9 10 6
f 8 5 3
f 9 8 10
f 25 26 31
f 25 28 32
f 28 31 32
f 26 29 23
f 26 30 31
f 23 30 26
f 26 27 29
f 32 23 29
f 31 30 23
f 23 32 31
f 26 25 27
f 27 25 29
f 32 29 25
