v 0.092085 0.046811 0.048677
v 0.091969 0.046869 0.048661
v 0.091802 0.046953 0.048656
v 0.091636 0.047036 0.048648
v 0.091469 0.047120 0.048636
v 0.090620 0.047545 0.048564
v 0.099955 0.050129 0.049478
v 0.099559 0.050327 0.049437
v 0.098981 0.050616 0.049413
v 0.098011 0.055609 0.049416
v 0.098403 0.050906 0.049378
v 0.090441 0.047709 0.048981
v 0.089148 0.049991 0.047304
v 0.137590 0.172159 0.050761
v 0.184511 0.297106 0.048564
v 0.183662 0.297531 0.048636
v 0.183495 0.297614 0.048648
v 0.183329 0.297698 0.048656
v 0.183162 0.297781 0.048661
v 0.183046 0.297839 0.048672
v 0.186026 0.296238 0.048115
v 0.178876 0.295597 0.050632
v 0.174802 0.288332 0.049483
v 0.176728 0.293745 0.049378
v 0.174983 0.294365 0.049412
v 0.176150 0.294034 0.049413
v 0.175572 0.294324 0.049437
v 0.175176 0.294522 0.049478
v 0.151063 0.251764 0.053115
v -0.044883 0.076261 0.048661
v -0.044765 0.076405 0.048656
v -0.044647 0.076549 0.048648
v -0.044966 0.076161 0.048677
v -0.044529 0.076693 0.048636
v -0.043937 0.077413 0.048538
v -0.043926 0.077427 0.048564
v -0.053505 0.075991 0.049478
v -0.053224 0.076333 0.049437
v -0.052813 0.076832 0.049413
v -0.057349 0.080573 0.049759
v -0.052403 0.077332 0.049378
v -0.043393 0.078198 0.049015
v -0.042074 0.079783 0.048117
v -0.061312 0.094294 0.048607
v -0.231658 0.266005 0.047998
v -0.231205 0.267223 0.048564
v -0.230602 0.267957 0.048636
v -0.230484 0.268101 0.048648
v -0.230366 0.268245 0.048656
v -0.230247 0.268389 0.048661
v -0.227624 0.270507 0.049199
v -0.146375 0.180912 0.050672
v -0.231157 0.267235 0.048913
v -0.222728 0.267319 0.049378
v -0.222318 0.267818 0.049413
v -0.221907 0.268318 0.049437
v -0.221626 0.268660 0.049478
v -0.219185 0.266080 0.049625
v -0.092085 -0.046811 0.048677
v -0.091969 -0.046869 0.048661
v -0.091802 -0.046953 0.048656
v -0.091636 -0.047036 0.048648
v -0.091469 -0.047120 0.048636
v -0.090620 -0.047545 0.048564
v -0.099955 -0.050129 0.049478
v -0.099559 -0.050327 0.049437
v -0.098981 -0.050616 0.049413
v -0.098011 -0.055609 0.049416
v -0.098403 -0.050906 0.049378
v -0.090441 -0.047709 0.048981
v -0.089148 -0.049991 0.047304
v -0.137590 -0.172159 0.050761
v -0.184511 -0.297106 0.048564
v -0.183662 -0.297531 0.048636
v -0.183495 -0.297614 0.048648
v -0.183329 -0.297698 0.048656
v -0.183162 -0.297781 0.048661
v -0.183046 -0.297839 0.048672
v -0.186026 -0.296238 0.048115
v -0.178876 -0.295597 0.050632
v -0.174802 -0.288332 0.049483
v -0.176728 -0.293745 0.049378
v -0.174983 -0.294365 0.049412
v -0.176150 -0.294034 0.049413
v -0.175572 -0.294324 0.049437
v -0.175176 -0.294522 0.049478
v -0.151063 -0.251764 0.053115
v 0.044883 -0.076261 0.048661
v 0.044765 -0.076405 0.048656
v 0.044647 -0.076549 0.048648
v 0.044966 -0.076161 0.048677
v 0.044529 -0.076693 0.048636
v 0.043937 -0.077413 0.048538
v 0.043926 -0.077427 0.048564
v 0.053505 -0.075991 0.049478
v 0.053224 -0.076333 0.049437
v 0.052813 -0.076832 0.049413
v 0.057349 -0.080573 0.049759
v 0.052403 -0.077332 0.049378
v 0.043393 -0.078198 0.049015
v 0.042074 -0.079783 0.048117
v 0.061312 -0.094294 0.048607
v 0.231658 -0.266005 0.047998
v 0.231205 -0.267223 0.048564
v 0.230602 -0.267957 0.048636
v 0.230484 -0.268101 0.048648
v 0.230366 -0.268245 0.048656
v 0.230247 -0.268389 0.048661
v 0.227624 -0.270507 0.049199
v 0.146375 -0.180912 0.050672
v 0.231157 -0.267235 0.048913
v 0.222728 -0.267319 0.049378
v 0.222318 -0.267818 0.049413
v 0.221907 -0.268318 0.049437
v 0.221626 -0.268660 0.049478
v 0.219185 -0.266080 0.049625
g prop
f 14 21 22
f 22 21 15
f 15 21 16
f 15 16 17
f 15 17 18
f 15 18 19
f 15 19 20
f 15 20 22
f 14 29 21
f 21 23 16
f 16 23 24
f 16 24 17
f 17 26 18
f 18 27 19
f 22 20 25
f 19 28 20
f 17 24 26
f 18 26 27
f 19 27 28
f 20 28 25
f 23 21 29
f 25 29 22
f 24 23 26
f 23 27 26
f 23 25 27
f 25 28 27
f 29 25 23
f 14 22 29
f 1 6 2
f 2 6 3
f 3 6 4
f 1 12 6
f 4 6 5
f 5 6 13
f 6 12 13
f 7 8 10
f 8 9 10
f 9 11 10
f 7 2 8
f 7 10 1
f 8 3 9
f 9 4 11
f 10 12 1
f 8 2 3
f 7 1 2
f 9 3 4
f 4 5 11
f 5 10 11
f 5 13 10
f 10 13 14
f 12 10 13
f 10 14 13
f 45 53 46
f 46 47 45
f 46 48 47
f 46 49 48
f 46 50 49
f 46 51 50
f 46 53 51
f 45 47 58
f 45 51 53
f 45 58 52
f 47 54 58
f 47 48 54
f 48 49 55
f 49 50 56
f 50 51 57
f 48 55 54
f 49 56 55
f 50 57 56
f 54 55 58
f 58 55 56
f 58 57 51
f 58 56 57
f 51 45 58
f 58 45 52
f 33 30 36
f 30 31 36
f 31 32 36
f 33 36 42
f 32 34 36
f 34 35 36
f 36 35 43
f 37 40 38
f 38 40 39
f 37 42 40
f 39 40 41
f 37 38 30
f 37 33 42
f 38 39 31
f 39 41 32
f 38 31 30
f 37 30 33
f 39 32 31
f 32 41 34
f 34 41 40
f 34 40 35
f 40 44 35
f 44 40 42
f 44 43 35
f 36 43 42
f 44 42 43
f 72 79 80
f 80 79 73
f 73 79 74
f 73 74 75
f 73 75 76
f 73 76 77
f 73 77 78
f 73 78 80
f 72 87 79
f 79 81 74
f 74 81 82
f 74 82 75
f 75 84 76
f 76 85 77
f 80 78 83
f 77 86 78
f 75 82 84
f 76 84 85
f 77 85 86
f 78 86 83
f 81 79 87
f 83 87 80
f 82 81 84
f 81 85 84
f 81 83 85
f 83 86 85
f 87 83 81
f 72 80 87
f 59 64 60
f 60 64 61
f 61 64 62
f 59 70 64
f 62 64 63
f 63 64 71
f 64 70 71
f 65 66 68
f 66 67 68
f 67 69 68
f 65 60 66
f 65 68 59
f 66 61 67
f 67 62 69
f 68 70 59
f 66 60 61
f 65 59 60
f 67 61 62
f 62 63 69
f 63 68 69
f 63 71 68
f 68 71 72
f 70 68 71
f 68 72 71
f 103 111 104
f 104 105 103
f 104 106 105
f 104 107 106
f 104 108 107
f 104 109 108
f 104 111 109
f 103 105 116
f 103 109 111
f 103 116 110
f 105 112 116
f 105 106 112
f 106 107 113
f 107 108 114
f 108 109 115
f 106 113 112
f 107 114 113
f 108 115 114
f 112 113 116
f 116 113 114
f 116 115 109
f 116 114 115
f 109 103 116
f 116 103 110
f 91 88 94
f 88 89 94
f 89 90 94
f 91 94 100
f 90 92 94
f 92 93 94
f 94 93 101
f 95 98 96
f 96 98 97
f 95 100 98
f 97 98 99
f 95 96 88
f 95 91 100
f 96 97 89
f 97 99 90
f 96 89 88
f 95 88 91
f 97 90 89
f 90 99 92
f 92 99 98
f 92 98 93
f 98 102 93
f 102 98 100
f 102 101 93
f 94 101 100
f 102 100 101
