v 0.138645 -0.166252 -0.000053
v 0.131903 -0.166286 -0.045634
v 0.137952 -0.164720 -0.010927
v 0.122691 0.158049 -0.068357
v 0.121455 0.154865 -0.066281
v 0.126531 0.154032 -0.068138
v 0.126454 0.157836 -0.047252
v 0.128214 0.159967 -0.037764
v 0.130709 0.160409 -0.031171
v 0.128135 0.160851 -0.038168
v 0.129974 0.162098 -0.028277
v 0.130486 0.171604 -0.015658
v 0.142654 0.178870 -0.045651
v 0.131632 0.173719 -0.004142
v 0.134035 0.177792 -0.003829
v 0.131243 0.172529 -0.000234
v 0.131639 0.173697 -0.004153
v 0.132613 0.175250 -0.003032
v 0.132751 0.175487 -0.002865
v 0.132773 0.175472 -0.002864
v 0.133083 0.175903 -0.002538
v 0.139715 0.166267 -0.001687
v 0.151803 -0.188935 -0.068174
v 0.139312 -0.175223 -0.004325
v 0.140216 -0.166850 -0.004153
v 0.141515 -0.168144 -0.003032
v 0.140239 -0.166848 -0.004142
v 0.141696 -0.168349 -0.002864
v 0.141715 -0.168331 -0.002865
v 0.142047 -0.168747 -0.002538
v 0.143722 0.172822 0.000043
v 0.141784 0.168268 -0.002720
v 0.143493 0.170978 -0.004162
v 0.143499 0.170932 -0.004142
v 0.142047 0.168747 -0.002538
v 0.142358 0.169178 -0.002864
v 0.142380 0.169164 -0.002865
v 0.142518 0.169401 -0.003032
g gear
f 14 17 18
f 14 19 17
f 14 18 19
f 19 15 17
f 19 18 20
f 19 20 21
f 19 21 15
f 15 21 22
f 13 15 31
f 15 22 31
f 31 22 35
f 31 35 36
f 31 36 38
f 31 38 33
f 13 33 32
f 13 31 33
f 4 6 5
f 4 5 16
f 6 9 7
f 6 4 13
f 16 12 4
f 6 7 5
f 5 7 10
f 7 9 8
f 4 12 15
f 7 8 10
f 8 9 11
f 8 11 10
f 10 16 5
f 10 11 16
f 11 9 22
f 11 22 16
f 15 13 4
f 16 17 12
f 12 17 15
f 16 18 17
f 16 20 18
f 16 21 20
f 6 22 9
f 16 22 21
f 6 13 22
f 22 13 32
f 32 35 22
f 34 32 33
f 37 35 32
f 37 36 35
f 37 38 36
f 34 38 37
f 34 37 32
f 34 33 38
f 2 23 24
f 2 24 23
f 27 25 26
f 27 29 25
f 27 26 29
f 29 24 25
f 29 30 24
f 29 26 28
f 29 28 30
f 2 1 3
f 3 24 2
f 2 24 1
f 3 25 24
f 3 1 25
f 1 24 30
f 1 26 25
f 1 28 26
f 1 30 28
