v -0.085265 0.027775 0.015561
v -0.084103 -0.030455 0.017200
v -0.020247 0.049258 0.004173
v -0.028504 -0.056972 0.030699
v -0.019067 -0.046078 0.003962
v -0.030860 0.052803 0.029752
v 0.043270 0.032470 0.018237
v 0.040768 0.004851 0.011266
v 0.041108 0.007809 0.024090
v 0.020710 -0.039013 0.010870
v 0.036221 0.009975 0.024347
v 0.045772 -0.024678 0.015883
g canopy
f 2 6 1
f 1 5 2
f 6 3 1
f 2 4 6
f 5 4 2
f 1 3 5
f 6 7 3
f 4 7 6
f 3 8 5
f 5 10 4
f 5 12 10
f 8 12 5
f 11 7 4
f 9 11 4
f 12 9 4
f 10 12 4
f 7 8 3
f 9 7 11
f 7 9 12
f 7 12 8
