v -0.130344 -0.161139 0.003582
v -0.154069 -0.189665 0.011707
v -0.161000 -0.161631 0.037140
v -0.119176 -0.189563 0.035798
v -0.115474 -0.166845 0.035490
v -0.145751 0.155186 0.007119
v -0.129621 0.196752 0.012061
v -0.157918 0.184737 0.036945
v -0.119826 0.154064 0.036917
v 0.122707 -0.176585 0.005227
v 0.133223 -0.147411 0.037967
v 0.136332 -0.197787 0.036517
v 0.163661 -0.172743 0.013999
v 0.115565 0.161805 0.012080
v 0.157983 0.186419 0.011170
v 0.143759 0.148477 0.035997
v 0.131606 0.196363 0.036547
g motor
f 15 16 14
f 14 17 15
f 16 17 14
f 17 16 15
f 6 8 7
f 7 9 6
f 6 9 8
f 8 9 7
f 2 3 1
f 1 4 2
f 5 4 1
f 4 3 2
f 3 5 1
f 3 4 5
f 13 12 10
f 10 11 13
f 10 12 11
f 13 11 12
