v 0.065828 -0.047547 -0.045000
v 0.034109 -0.019092 -0.062498
v -0.014167 -0.029460 0.018892
v -0.011904 -0.026622 0.049451
v -0.000974 -0.029344 0.025269
v 0.062819 0.034172 -0.081370
v -0.004349 0.026815 0.020475
v -0.014573 0.022040 0.046354
v -0.010933 0.039548 0.034130
v 0.045511 0.016269 0.030933
v 0.091630 -0.036383 -0.070226
v 0.120208 -0.025558 -0.046704
v 0.060698 -0.048363 -0.001078
v 0.105739 -0.034008 0.003304
v 0.118025 -0.011274 -0.024212
v 0.088605 -0.032583 0.021524
v 0.120426 0.004209 0.012372
v 0.049619 0.046651 -0.017083
v 0.080664 0.048815 -0.029157
v 0.115868 0.000333 -0.056223
v 0.116169 0.011700 -0.029836
v 0.110717 0.022912 -0.053508
v 0.103839 0.034967 -0.003035
v 0.102171 -0.018834 0.015234
v 0.097450 0.024962 0.020648
g camera
f 1 13 2
f 2 13 10
f 2 18 6
f 2 10 18
f 2 11 1
f 1 11 13
f 2 6 11
f 11 15 24
f 13 16 10
f 16 24 25
f 13 11 16
f 11 14 16
f 11 24 14
f 6 18 19
f 11 6 22
f 20 11 22
f 15 20 21
f 6 19 22
f 22 19 23
f 16 25 10
f 25 18 10
f 18 25 23
f 19 18 23
f 25 21 23
f 22 23 21
f 15 17 24
f 21 25 17
f 17 25 24
f 15 21 17
f 11 20 12
f 11 12 15
f 20 15 12
f 20 22 21
f 24 16 14
f 3 5 4
f 3 4 5
f 8 9 7
f 8 7 9
