v -0.063234 -0.036605 0.009378
v -0.063234 0.036605 -0.006019
v 0.038756 -0.036605 -0.021416
v 0.038756 -0.036605 0.024775
v 0.038756 0.036605 -0.021416
v 0.038756 0.036605 0.024775
v -0.063234 -0.040148 -0.002240
v -0.063234 0.040148 -0.004479
v 0.055075 -0.040148 -0.004479
v 0.055075 0.040148 -0.002240
v -0.101393 0.035642 -0.034634
v -0.098990 -0.041262 -0.033418
v 0.093553 -0.005248 -0.046802
v -0.052806 -0.044706 -0.035701
v -0.059916 -0.052762 -0.005245
v -0.140419 -0.171074 -0.000598
v -0.133294 -0.165344 0.024574
v -0.029812 -0.057695 -0.008026
v -0.098282 -0.032216 0.042113
v -0.038180 -0.055322 0.020216
v -0.030484 0.056520 -0.012735
v -0.077961 0.092231 0.023839
v -0.134382 0.174670 0.021256
v -0.141835 0.168322 -0.001787
v -0.097349 0.133505 0.000597
v -0.062123 0.052938 0.009171
v -0.033003 0.055340 0.019990
v -0.095883 0.040950 0.038268
v 0.039053 -0.056650 -0.014865
v 0.089309 -0.102224 -0.001005
v 0.092441 -0.039468 -0.039797
v 0.043629 -0.054331 0.018245
v 0.074009 -0.111415 0.001033
v 0.065216 -0.056446 0.006616
v 0.020054 -0.037753 0.038382
v 0.062872 -0.020566 0.032993
v 0.029567 0.032015 0.037452
v 0.135937 -0.174043 -0.003975
v 0.092625 -0.102205 0.019928
v 0.145549 -0.165832 0.007646
v 0.134370 -0.173830 0.021563
v 0.101781 -0.026064 0.012622
v 0.087669 0.044768 -0.039136
v 0.038865 0.056275 -0.015082
v 0.099320 0.021393 -0.037879
v 0.127896 0.178225 0.016676
v 0.054744 0.054087 0.019345
v 0.098443 0.036038 0.008554
v 0.077981 0.018299 0.028417
v 0.134694 0.163710 0.002622
v 0.142296 0.165735 0.018645
v 0.065828 -0.047547 -0.045000
v 0.034109 -0.019092 -0.062498
v -0.014167 -0.029460 0.018892
v -0.011904 -0.026622 0.049451
v -0.000974 -0.029344 0.025269
v 0.062819 0.034172 -0.081370
v -0.004349 0.026815 0.020475
v -0.014573 0.022040 0.046354
v -0.010933 0.039548 0.034130
v 0.045511 0.016269 0.030933
v 0.091630 -0.036383 -0.070226
v 0.120208 -0.025558 -0.046704
v 0.060698 -0.048363 -0.001078
v 0.105739 -0.034008 0.003304
v 0.118025 -0.011274 -0.024212
v 0.088605 -0.032583 0.021524
v 0.120426 0.004209 0.012372
v 0.049619 0.046651 -0.017083
v 0.080664 0.048815 -0.029157
v 0.115868 0.000333 -0.056223
v 0.116169 0.011700 -0.029836
v 0.110717 0.022912 -0.053508
v 0.103839 0.034967 -0.003035
v 0.102171 -0.018834 0.015234
v 0.097450 0.024962 0.020648
v -0.085265 0.027775 0.015561
v -0.084103 -0.030455 0.017200
v -0.020247 0.049258 0.004173
v -0.028504 -0.056972 0.030699
v -0.019067 -0.046078 0.003962
v -0.030860 0.052803 0.029752
v 0.043270 0.032470 0.018237
v 0.040768 0.004851 0.011266
v 0.041108 0.007809 0.024090
v 0.020710 -0.039013 0.010870
v 0.036221 0.009975 0.024347
v 0.045772 -0.024678 0.015883
v 0.138645 -0.166252 -0.000053
v 0.131903 -0.166286 -0.045634
v 0.137952 -0.164720 -0.010927
v 0.122691 0.158049 -0.068357
v 0.121455 0.154865 -0.066281
v 0.126531 0.154032 -0.068138
v 0.126454 0.157836 -0.047252
v 0.128214 0.159967 -0.037764
v 0.130709 0.160409 -0.031171
v 0.128135 0.160851 -0.038168
v 0.129974 0.162098 -0.028277
v 0.130486 0.171604 -0.015658
v 0.142654 0.178870 -0.045651
v 0.131632 0.173719 -0.004142
v 0.134035 0.177792 -0.003829
v 0.131243 0.172529 -0.000234
v 0.131639 0.173697 -0.004153
v 0.132613 0.175250 -0.003032
v 0.132751 0.175487 -0.002865
v 0.132773 0.175472 -0.002864
v 0.133083 0.175903 -0.002538
v 0.139715 0.166267 -0.001687
v 0.151803 -0.188935 -0.068174
v 0.139312 -0.175223 -0.004325
v 0.140216 -0.166850 -0.004153
v 0.141515 -0.168144 -0.003032
v 0.140239 -0.166848 -0.004142
v 0.141696 -0.168349 -0.002864
v 0.141715 -0.168331 -0.002865
v 0.142047 -0.168747 -0.002538
v 0.143722 0.172822 0.000043
v 0.141784 0.168268 -0.002720
v 0.143493 0.170978 -0.004162
v 0.143499 0.170932 -0.004142
v 0.142047 0.168747 -0.002538
v 0.142358 0.169178 -0.002864
v 0.142380 0.169164 -0.002865
v 0.142518 0.169401 -0.003032
v -0.130344 -0.161139 0.003582
v -0.154069 -0.189665 0.011707
v -0.161000 -0.161631 0.037140
v -0.119176 -0.189563 0.035798
v -0.115474 -0.166845 0.035490
v -0.145751 0.155186 0.007119
v -0.129621 0.196752 0.012061
v -0.157918 0.184737 0.036945
v -0.119826 0.154064 0.036917
v 0.122707 -0.176585 0.005227
v 0.133223 -0.147411 0.037967
v 0.136332 -0.197787 0.036517
v 0.163661 -0.172743 0.013999
v 0.115565 0.161805 0.012080
v 0.157983 0.186419 0.011170
v 0.143759 0.148477 0.035997
v 0.131606 0.196363 0.036547
v -0.034677 -0.031882 0.019316
v -0.034677 -0.031882 0.024355
v -0.034677 0.031882 0.019316
v -0.034677 0.031882 0.024355
v 0.042836 -0.031882 0.019316
v 0.042836 -0.031882 0.024355
v 0.042836 0.031882 0.019316
v 0.042836 0.031882 0.024355
v 0.092085 0.046811 0.048677
v 0.091969 0.046869 0.048661
v 0.091802 0.046953 0.048656
v 0.091636 0.047036 0.048648
v 0.091469 0.047120 0.048636
v 0.090620 0.047545 0.048564
v 0.099955 0.050129 0.049478
v 0.099559 0.050327 0.049437
v 0.098981 0.050616 0.049413
v 0.098011 0.055609 0.049416
v 0.098403 0.050906 0.049378
v 0.090441 0.047709 0.048981
v 0.089148 0.049991 0.047304
v 0.137590 0.172159 0.050761
v 0.184511 0.297106 0.048564
v 0.183662 0.297531 0.048636
v 0.183495 0.297614 0.048648
v 0.183329 0.297698 0.048656
v 0.183162 0.297781 0.048661
v 0.183046 0.297839 0.048672
v 0.186026 0.296238 0.048115
v 0.178876 0.295597 0.050632
v 0.174802 0.288332 0.049483
v 0.176728 0.293745 0.049378
v 0.174983 0.294365 0.049412
v 0.176150 0.294034 0.049413
v 0.175572 0.294324 0.049437
v 0.175176 0.294522 0.049478
v 0.151063 0.251764 0.053115
v -0.044883 0.076261 0.048661
v -0.044765 0.076405 0.048656
v -0.044647 0.076549 0.048648
v -0.044966 0.076161 0.048677
v -0.044529 0.076693 0.048636
v -0.043937 0.077413 0.048538
v -0.043926 0.077427 0.048564
v -0.053505 0.075991 0.049478
v -0.053224 0.076333 0.049437
v -0.052813 0.076832 0.049413
v -0.057349 0.080573 0.049759
v -0.052403 0.077332 0.049378
v -0.043393 0.078198 0.049015
v -0.042074 0.079783 0.048117
v -0.061312 0.094294 0.048607
v -0.231658 0.266005 0.047998
v -0.231205 0.267223 0.048564
v -0.230602 0.267957 0.048636
v -0.230484 0.268101 0.048648
v -0.230366 0.268245 0.048656
v -0.230247 0.268389 0.048661
v -0.227624 0.270507 0.049199
v -0.146375 0.180912 0.050672
v -0.231157 0.267235 0.048913
v -0.222728 0.267319 0.049378
v -0.222318 0.267818 0.049413
v -0.221907 0.268318 0.049437
v -0.221626 0.268660 0.049478
v -0.219185 0.266080 0.049625
v -0.092085 -0.046811 0.048677
v -0.091969 -0.046869 0.048661
v -0.091802 -0.046953 0.048656
v -0.091636 -0.047036 0.048648
v -0.091469 -0.047120 0.048636
v -0.090620 -0.047545 0.048564
v -0.099955 -0.050129 0.049478
v -0.099559 -0.050327 0.049437
v -0.098981 -0.050616 0.049413
v -0.098011 -0.055609 0.049416
v -0.098403 -0.050906 0.049378
v -0.090441 -0.047709 0.048981
v -0.089148 -0.049991 0.047304
v -0.137590 -0.172159 0.050761
v -0.184511 -0.297106 0.048564
v -0.183662 -0.297531 0.048636
v -0.183495 -0.297614 0.048648
v -0.183329 -0.297698 0.048656
v -0.183162 -0.297781 0.048661
v -0.183046 -0.297839 0.048672
v -0.186026 -0.296238 0.048115
v -0.178876 -0.295597 0.050632
v -0.174802 -0.288332 0.049483
v -0.176728 -0.293745 0.049378
v -0.174983 -0.294365 0.049412
v -0.176150 -0.294034 0.049413
v -0.175572 -0.294324 0.049437
v -0.175176 -0.294522 0.049478
v -0.151063 -0.251764 0.053115
v 0.044883 -0.076261 0.048661
v 0.044765 -0.076405 0.048656
v 0.044647 -0.076549 0.048648
v 0.044966 -0.076161 0.048677
v 0.044529 -0.076693 0.048636
v 0.043937 -0.077413 0.048538
v 0.043926 -0.077427 0.048564
v 0.053505 -0.075991 0.049478
v 0.053224 -0.076333 0.049437
v 0.052813 -0.076832 0.049413
v 0.057349 -0.080573 0.049759
v 0.052403 -0.077332 0.049378
v 0.043393 -0.078198 0.049015
v 0.042074 -0.079783 0.048117
v 0.061312 -0.094294 0.048607
v 0.231658 -0.266005 0.047998
v 0.231205 -0.267223 0.048564
v 0.230602 -0.267957 0.048636
v 0.230484 -0.268101 0.048648
v 0.230366 -0.268245 0.048656
v 0.230247 -0.268389 0.048661
v 0.227624 -0.270507 0.049199
v 0.146375 -0.180912 0.050672
v 0.231157 -0.267235 0.048913
v 0.222728 -0.267319 0.049378
v 0.222318 -0.267818 0.049413
v 0.221907 -0.268318 0.049437
v 0.221626 -0.268660 0.049478
v 0.219185 -0.266080 0.049625
g target
f 2 3 1
f 1 6 2
f 4 1 3
f 4 6 1
f 5 3 2
f 2 6 5
f 5 4 3
f 6 4 5
f 8 9 7
f 7 10 8
f 9 10 7
f 10 9 8
f 14 12 13
f 14 15 12
f 12 19 11
f 15 19 12
f 15 20 19
f 19 20 35
f 32 35 20
f 11 13 12
f 13 11 43
f 11 21 43
f 11 26 21
f 11 28 26
f 11 19 28
f 28 27 26
f 27 28 37
f 29 14 31
f 14 13 31
f 14 29 20
f 31 34 29
f 34 31 42
f 29 32 20
f 32 34 35
f 37 35 36
f 34 42 35
f 42 36 35
f 21 44 43
f 31 13 45
f 13 43 45
f 31 45 42
f 45 43 42
f 42 43 48
f 27 47 21
f 21 47 44
f 43 44 47
f 48 43 47
f 35 37 19
f 19 37 28
f 37 36 49
f 27 37 47
f 37 49 47
f 48 49 42
f 48 47 49
f 36 42 49
f 44 47 46
f 50 44 46
f 47 44 51
f 44 50 51
f 46 51 50
f 47 51 46
f 26 25 21
f 24 23 25
f 25 26 24
f 22 23 24
f 26 22 24
f 21 25 23
f 26 27 22
f 22 27 21
f 21 23 22
f 18 15 14
f 18 14 20
f 16 18 17
f 16 15 18
f 15 16 17
f 17 20 15
f 18 20 17
f 30 33 29
f 30 29 34
f 33 32 29
f 41 32 33
f 30 38 33
f 33 38 41
f 40 41 38
f 40 39 41
f 32 41 39
f 30 34 38
f 34 32 40
f 38 34 40
f 40 32 39
f 52 64 53
f 53 64 61
f 53 69 57
f 53 61 69
f 53 62 52
f 52 62 64
f 53 57 62
f 62 66 75
f 64 67 61
f 67 75 76
f 64 62 67
f 62 65 67
f 62 75 65
f 57 69 70
f 62 57 73
f 71 62 73
f 66 71 72
f 57 70 73
f 73 70 74
f 67 76 61
f 76 69 61
f 69 76 74
f 70 69 74
f 76 72 74
f 73 74 72
f 66 68 75
f 72 76 68
f 68 76 75
f 66 72 68
f 62 71 63
f 62 63 66
f 71 66 63
f 71 73 72
f 75 67 65
f 54 56 55
f 54 55 56
f 59 60 58
f 59 58 60
f 78 82 77
f 77 81 78
f 82 79 77
f 78 80 82
f 81 80 78
f 77 79 81
f 82 83 79
f 80 83 82
f 79 84 81
f 81 86 80
f 81 88 86
f 84 88 81
f 87 83 80
f 85 87 80
f 88 85 80
f 86 88 80
f 83 84 79
f 85 83 87
f 83 85 88
f 83 88 84
f 102 105 106
f 102 107 105
f 102 106 107
f 107 103 105
f 107 106 108
f 107 108 109
f 107 109 103
f 103 109 110
f 101 103 119
f 103 110 119
f 119 110 123
f 119 123 124
f 119 124 126
f 119 126 121
f 101 121 120
f 101 119 121
f 92 94 93
f 92 93 104
f 94 97 95
f 94 92 101
f 104 100 92
f 94 95 93
f 93 95 98
f 95 97 96
f 92 100 103
f 95 96 98
f 96 97 99
f 96 99 98
f 98 104 93
f 98 99 104
f 99 97 110
f 99 110 104
f 103 101 92
f 104 105 100
f 100 105 103
f 104 106 105
f 104 108 106
f 104 109 108
f 94 110 97
f 104 110 109
f 94 101 110
f 110 101 120
f 120 123 110
f 122 120 121
f 125 123 120
f 125 124 123
f 125 126 124
f 122 126 125
f 122 125 120
f 122 121 126
f 90 111 112
f 90 112 111
f 115 113 114
f 115 117 113
f 115 114 117
f 117 112 113
f 117 118 112
f 117 114 116
f 117 116 118
f 90 89 91
f 91 112 90
f 90 112 89
f 91 113 112
f 91 89 113
f 89 112 118
f 89 114 113
f 89 116 114
f 89 118 116
f 141 142 140
f 140 143 141
f 142 143 140
f 143 142 141
f 132 134 133
f 133 135 132
f 132 135 134
f 134 135 133
f 128 129 127
f 127 130 128
f 131 130 127
f 130 129 128
f 129 131 127
f 129 130 131
f 139 138 136
f 136 137 139
f 136 138 137
f 139 137 138
f 145 147 144
f 148 145 144
f 144 147 146
f 146 148 144
f 145 151 147
f 149 145 148
f 149 151 145
f 147 151 146
f 150 148 146
f 146 151 150
f 150 149 148
f 151 149 150
f 165 172 173
f 173 172 166
f 166 172 167
f 166 167 168
f 166 168 169
f 166 169 170
f 166 170 171
f 166 171 173
f 165 180 172
f 172 174 167
f 167 174 175
f 167 175 168
f 168 177 169
f 169 178 170
f 173 171 176
f 170 179 171
f 168 175 177
f 169 177 178
f 170 178 179
f 171 179 176
f 174 172 180
f 176 180 173
f 175 174 177
f 174 178 177
f 174 176 178
f 176 179 178
f 180 176 174
f 165 173 180
f 152 157 153
f 153 157 154
f 154 157 155
f 152 163 157
f 155 157 156
f 156 157 164
f 157 163 164
f 158 159 161
f 159 160 161
f 160 162 161
f 158 153 159
f 158 161 152
f 159 154 160
f 160 155 162
f 161 163 152
f 159 153 154
f 158 152 153
f 160 154 155
f 155 156 162
f 156 161 162
f 156 164 161
f 161 164 165
f 163 161 164
f 161 165 164
f 196 204 197
f 197 198 196
f 197 199 198
f 197 200 199
f 197 201 200
f 197 202 201
f 197 204 202
f 196 198 209
f 196 202 204
f 196 209 203
f 198 205 209
f 198 199 205
f 199 200 206
f 200 201 207
f 201 202 208
f 199 206 205
f 200 207 206
f 201 208 207
f 205 206 209
f 209 206 207
f 209 208 202
f 209 207 208
f 202 196 209
f 209 196 203
f 184 181 187
f 181 182 187
f 182 183 187
f 184 187 193
f 183 185 187
f 185 186 187
f 187 186 194
f 188 191 189
f 189 191 190
f 188 193 191
f 190 191 192
f 188 189 181
f 188 184 193
f 189 190 182
f 190 192 183
f 189 182 181
f 188 181 184
f 190 183 182
f 183 192 185
f 185 192 191
f 185 191 186
f 191 195 186
f 195 191 193
f 195 194 186
f 187 194 193
f 195 193 194
f 223 230 231
f 231 230 224
f 224 230 225
f 224 225 226
f 224 226 227
f 224 227 228
f 224 228 229
f 224 229 231
f 223 238 230
f 230 232 225
f 225 232 233
f 225 233 226
f 226 235 227
f 227 236 228
f 231 229 234
f 228 237 229
f 226 233 235
f 227 235 236
f 228 236 237
f 229 237 234
f 232 230 238
f 234 238 231
f 233 232 235
f 232 236 235
f 232 234 236
f 234 237 236
f 238 234 232
f 223 231 238
f 210 215 211
f 211 215 212
f 212 215 213
f 210 221 215
f 213 215 214
f 214 215 222
f 215 221 222
f 216 217 219
f 217 218 219
f 218 220 219
f 216 211 217
f 216 219 210
f 217 212 218
f 218 213 220
f 219 221 210
f 217 211 212
f 216 210 211
f 218 212 213
f 213 214 220
f 214 219 220
f 214 222 219
f 219 222 223
f 221 219 222
f 219 223 222
f 254 262 255
f 255 256 254
f 255 257 256
f 255 258 257
f 255 259 258
f 255 260 259
f 255 262 260
f 254 256 267
f 254 260 262
f 254 267 261
f 256 263 267
f 256 257 263
f 257 258 264
f 258 259 265
f 259 260 266
f 257 264 263
f 258 265 264
f 259 266 265
f 263 264 267
f 267 264 265
f 267 266 260
f 267 265 266
f 260 254 267
f 267 254 261
f 242 239 245
f 239 240 245
f 240 241 245
f 242 245 251
f 241 243 245
f 243 244 245
f 245 244 252
f 246 249 247
f 247 249 248
f 246 251 249
f 248 249 250
f 246 247 239
f 246 242 251
f 247 248 240
f 248 250 241
f 247 240 239
f 246 239 242
f 248 241 240
f 241 250 243
f 243 250 249
f 243 249 244
f 249 253 244
f 253 249 251
f 253 252 244
f 245 252 251
f 253 251 252
