# sionna2 mesh — matrice4e__canopy.obj
# group=canopy  verts=1228  tris=2452
v -0.050917 -0.043658 0.010230
v -0.045960 -0.048581 0.008988
v -0.050917 -0.047908 0.011127
v -0.050917 -0.039332 0.009632
v -0.045960 -0.043775 0.008284
v -0.055878 -0.045023 0.013606
v -0.059636 -0.036565 0.016186
v -0.059636 -0.034316 0.014829
v -0.055878 -0.047637 0.015662
v -0.059636 -0.037511 0.018293
v -0.055878 -0.041537 0.012429
v -0.050917 -0.051841 0.012628
v -0.045960 -0.057596 0.011820
v -0.050917 -0.054670 0.015163
v -0.045960 -0.053289 0.010052
v -0.055878 -0.048503 0.018573
v -0.045960 -0.060616 0.014745
v -0.050917 -0.055582 0.018591
v -0.055878 -0.037832 0.011727
v -0.041032 -0.057766 0.009187
v -0.036103 -0.055923 0.007212
v -0.036103 -0.061308 0.008520
v -0.041032 -0.062381 0.011175
v -0.041032 -0.065566 0.014412
v -0.045960 -0.061577 0.018598
v -0.036103 -0.066168 0.010679
v -0.036103 -0.069491 0.014154
v -0.041032 -0.066568 0.018611
v -0.041032 -0.052679 0.007986
v -0.045960 -0.038931 0.007791
v -0.041032 -0.047475 0.007193
v -0.041032 -0.042227 0.006641
v -0.036103 -0.050403 0.006351
v -0.036103 -0.044834 0.005752
v -0.041032 -0.036957 0.006252
v -0.036103 -0.039242 0.005331
v -0.059636 -0.036990 0.020534
v -0.055878 -0.047654 0.021483
v -0.059636 -0.035079 0.022141
v -0.055878 -0.045132 0.023581
v -0.055878 -0.041704 0.024824
v -0.059636 -0.032421 0.023063
v -0.050917 -0.054687 0.022013
v -0.050917 -0.051933 0.024581
v -0.045960 -0.060645 0.022452
v -0.045960 -0.057691 0.025407
v -0.050917 -0.048055 0.026136
v -0.045960 -0.053430 0.027218
v -0.050917 -0.043812 0.027057
v -0.055878 -0.038005 0.025556
v -0.055878 -0.034247 0.026040
v -0.050917 -0.039487 0.027668
v -0.045960 -0.048729 0.028304
v -0.045960 -0.043924 0.029021
v -0.050917 -0.035133 0.028095
v -0.041032 -0.065594 0.022813
v -0.036103 -0.070529 0.018623
v -0.036103 -0.069515 0.023097
v -0.041032 -0.062460 0.026074
v -0.041032 -0.057879 0.028094
v -0.036103 -0.066231 0.026592
v -0.036103 -0.061395 0.028774
v -0.041032 -0.052799 0.029314
v -0.045960 -0.039081 0.029520
v -0.041032 -0.047595 0.030116
v -0.041032 -0.042348 0.030674
v -0.045960 -0.034220 0.029871
v -0.036103 -0.056014 0.030095
v -0.036103 -0.050496 0.030964
v -0.055878 -0.034074 0.011255
v -0.050917 -0.034976 0.009214
v -0.055878 -0.030295 0.010925
v -0.050917 -0.030606 0.008920
v -0.045960 -0.034070 0.007445
v -0.055878 -0.026505 0.010693
v -0.055878 -0.022710 0.010529
v -0.050917 -0.026228 0.008713
v -0.055878 -0.018912 0.010418
v -0.050917 -0.021846 0.008573
v -0.050917 -0.017462 0.008491
v -0.045960 -0.029199 0.007202
v -0.045960 -0.024323 0.007038
v -0.045960 -0.019444 0.006942
v -0.059636 -0.031563 0.014072
v -0.059636 -0.028698 0.013610
v -0.059636 -0.025805 0.013296
v -0.059636 -0.022899 0.013076
v -0.059636 -0.019986 0.012921
v -0.059636 -0.017071 0.012812
v -0.060846 0.000000 0.018664
v -0.055878 -0.015113 0.010354
v -0.050917 -0.013077 0.008442
v -0.055878 -0.011313 0.010315
v -0.050917 -0.008692 0.008422
v -0.045960 -0.014565 0.006884
v -0.045960 -0.009685 0.006860
v -0.055878 -0.007513 0.010299
v -0.055878 -0.003712 0.010289
v -0.050917 -0.004306 0.008410
v -0.055878 0.000088 0.010284
v -0.050917 0.000079 0.008403
v -0.045960 -0.004804 0.006845
v -0.045960 0.000076 0.006837
v -0.059636 -0.014154 0.012739
v -0.059636 -0.011236 0.012697
v -0.059636 -0.008317 0.012672
v -0.059636 -0.005399 0.012662
v -0.059636 -0.002480 0.012655
v -0.059636 0.000438 0.012652
v -0.041032 -0.031677 0.005980
v -0.041032 -0.026391 0.005797
v -0.041032 -0.021102 0.005688
v -0.036103 -0.033638 0.005036
v -0.036103 -0.028028 0.004838
v -0.036103 -0.022414 0.004720
v -0.036103 -0.016800 0.004649
v -0.041032 -0.015811 0.005623
v -0.041032 -0.010521 0.005596
v -0.041032 -0.005230 0.005580
v -0.041032 0.000061 0.005571
v -0.036103 -0.011184 0.004619
v -0.036103 -0.005569 0.004602
v -0.036103 0.000047 0.004593
v -0.059636 -0.029566 0.023596
v -0.059636 -0.026676 0.023946
v -0.055878 -0.030470 0.026380
v -0.059636 -0.023772 0.024191
v -0.059636 -0.020861 0.024364
v -0.055878 -0.026681 0.026619
v -0.059636 -0.017946 0.024485
v -0.055878 -0.022886 0.026788
v -0.050917 -0.030763 0.028395
v -0.050917 -0.026385 0.028606
v -0.055878 -0.019088 0.026903
v -0.050917 -0.022003 0.028750
v -0.045960 -0.029350 0.030118
v -0.045960 -0.024474 0.030285
v -0.050917 -0.017619 0.028834
v -0.059636 -0.015030 0.024570
v -0.059636 -0.012112 0.024621
v -0.059636 -0.009194 0.024651
v -0.059636 -0.006275 0.024665
v -0.059636 -0.003357 0.024672
v -0.059636 -0.000438 0.024677
v -0.055878 -0.015289 0.026971
v -0.055878 -0.011489 0.027012
v -0.055878 -0.007689 0.027029
v -0.055878 -0.003888 0.027039
v -0.055878 -0.000088 0.027045
v -0.050917 -0.013235 0.028885
v -0.050917 -0.008850 0.028906
v -0.045960 -0.019595 0.030384
v -0.045960 -0.014716 0.030443
v -0.050917 -0.004464 0.028919
v -0.050917 -0.000079 0.028926
v -0.045960 -0.009836 0.030469
v -0.045960 -0.004956 0.030483
v -0.041032 -0.037079 0.031067
v -0.041032 -0.031799 0.031343
v -0.045960 -0.000076 0.030492
v -0.031174 -0.063945 0.008039
v -0.031174 -0.058336 0.006655
v -0.031174 -0.068990 0.010319
v -0.026245 -0.065704 0.007735
v -0.026245 -0.070876 0.010090
v -0.026245 -0.059945 0.006304
v -0.031174 -0.072422 0.013967
v -0.026245 -0.074385 0.013848
v -0.031174 -0.073489 0.018635
v -0.031174 -0.052582 0.005745
v -0.031174 -0.046775 0.005114
v -0.031174 -0.040943 0.004669
v -0.031174 -0.035099 0.004357
v -0.026245 -0.054035 0.005364
v -0.026245 -0.048069 0.004712
v -0.026245 -0.042078 0.004253
v -0.026245 -0.036074 0.003932
v -0.021316 -0.066614 0.007599
v -0.021316 -0.071856 0.009986
v -0.021316 -0.054785 0.005197
v -0.021316 -0.060776 0.006149
v -0.016387 -0.066702 0.007623
v -0.016387 -0.071956 0.010001
v -0.011458 -0.065995 0.007799
v -0.016387 -0.060854 0.006180
v -0.016387 -0.054855 0.005232
v -0.011458 -0.060206 0.006387
v -0.021316 -0.075411 0.013794
v -0.026245 -0.075474 0.018647
v -0.016387 -0.075527 0.013804
v -0.011458 -0.071208 0.010131
v -0.021316 -0.076514 0.018658
v -0.011458 -0.074762 0.013874
v -0.016387 -0.076636 0.018669
v -0.021316 -0.048738 0.004537
v -0.021316 -0.042665 0.004072
v -0.021316 -0.036579 0.003746
v -0.016387 -0.048802 0.004574
v -0.011458 -0.054270 0.005458
v -0.011458 -0.048282 0.004814
v -0.016387 -0.042722 0.004111
v -0.016387 -0.036630 0.003786
v -0.011458 -0.042268 0.004360
v -0.011458 -0.036242 0.004041
v -0.031174 -0.072441 0.023308
v -0.026245 -0.074400 0.023450
v -0.031174 -0.069037 0.026971
v -0.031174 -0.064007 0.029267
v -0.031174 -0.058401 0.030660
v -0.026245 -0.070908 0.027218
v -0.026245 -0.065743 0.029582
v -0.026245 -0.059985 0.031018
v -0.021316 -0.075421 0.023525
v -0.011458 -0.075868 0.018680
v -0.016387 -0.075531 0.023537
v -0.021316 -0.071871 0.027339
v -0.021316 -0.066629 0.029729
v -0.021316 -0.060791 0.031179
v -0.016387 -0.071956 0.027340
v -0.011458 -0.074760 0.023487
v -0.016387 -0.066694 0.029715
v -0.011458 -0.071192 0.027226
v -0.016387 -0.060845 0.031154
v -0.011458 -0.065966 0.029548
v -0.031174 -0.029248 0.004149
v -0.031174 -0.023393 0.004024
v -0.031174 -0.017537 0.003949
v -0.026245 -0.030063 0.003716
v -0.026245 -0.024048 0.003588
v -0.026245 -0.018031 0.003510
v -0.031174 -0.011680 0.003918
v -0.031174 -0.005824 0.003900
v -0.031174 0.000033 0.003890
v -0.026245 -0.012014 0.003478
v -0.026245 -0.005997 0.003459
v -0.026245 0.000020 0.003449
v -0.021316 -0.030486 0.003527
v -0.021316 -0.024389 0.003397
v -0.021316 -0.018290 0.003318
v -0.016387 -0.030530 0.003569
v -0.011458 -0.030209 0.003828
v -0.016387 -0.024427 0.003439
v -0.016387 -0.018322 0.003360
v -0.011458 -0.024172 0.003700
v -0.011458 -0.018134 0.003623
v -0.021316 -0.012191 0.003286
v -0.021316 -0.006092 0.003267
v -0.021316 0.000007 0.003256
v -0.016387 -0.012216 0.003328
v -0.016387 -0.006111 0.003309
v -0.011458 -0.012095 0.003591
v -0.016387 -0.000005 0.003298
v -0.011458 -0.006056 0.003573
v -0.011458 -0.000017 0.003562
v -0.036103 -0.044928 0.031566
v -0.036103 -0.039336 0.031990
v -0.041032 -0.026513 0.031528
v -0.036103 -0.033732 0.032288
v -0.036103 -0.028122 0.032488
v -0.041032 -0.021224 0.031638
v -0.036103 -0.022508 0.032607
v -0.041032 -0.015933 0.031705
v -0.041032 -0.010643 0.031733
v -0.041032 -0.005352 0.031749
v -0.037759 -0.016571 0.032352
v -0.037808 -0.014731 0.032352
v -0.037628 -0.018617 0.032352
v -0.037907 -0.011046 0.032352
v -0.037937 -0.009073 0.032352
v -0.041032 -0.000061 0.031758
v -0.037991 -0.005544 0.032352
v -0.038009 -0.003496 0.032352
v -0.038041 -0.000053 0.032352
v -0.031174 -0.052648 0.031574
v -0.031174 -0.046841 0.032208
v -0.031174 -0.041010 0.032655
v -0.026245 -0.054074 0.031960
v -0.026245 -0.048109 0.032613
v -0.026245 -0.042118 0.033073
v -0.031174 -0.035165 0.032968
v -0.021316 -0.054799 0.032131
v -0.011458 -0.060173 0.030953
v -0.016387 -0.054845 0.032100
v -0.021316 -0.048752 0.032792
v -0.021316 -0.042680 0.033257
v -0.026245 -0.036114 0.033396
v -0.021316 -0.036593 0.033583
v -0.016387 -0.048792 0.032757
v -0.011458 -0.054236 0.031877
v -0.016387 -0.042712 0.033219
v -0.016387 -0.036619 0.033544
v -0.011458 -0.048248 0.032520
v -0.011458 -0.042234 0.032973
v -0.031174 -0.029314 0.033178
v -0.036103 -0.020878 0.032628
v -0.034855 -0.022749 0.032783
v -0.034507 -0.023192 0.032824
v -0.034666 -0.023033 0.032805
v -0.031174 -0.026541 0.033238
v -0.026471 -0.029798 0.033597
v -0.030356 -0.027244 0.033297
v -0.026245 -0.030103 0.033612
v -0.026245 -0.029946 0.033615
v -0.026245 -0.029947 0.033615
v -0.025717 -0.030145 0.033632
v -0.030715 -0.027008 0.033269
v -0.021424 -0.031764 0.033752
v -0.021316 -0.031777 0.033756
v -0.020828 -0.031839 0.033750
v -0.020170 -0.031922 0.033742
v -0.016418 -0.032398 0.033694
v -0.016387 -0.032394 0.033694
v -0.015858 -0.032334 0.033667
v -0.014909 -0.032225 0.033620
v -0.011458 -0.036208 0.033290
v -0.055878 0.003888 0.010290
v -0.050917 0.004464 0.008410
v -0.055878 0.007689 0.010300
v -0.050917 0.008850 0.008422
v -0.045960 0.004956 0.006846
v -0.045960 0.009836 0.006860
v -0.055878 0.011489 0.010317
v -0.050917 0.013235 0.008444
v -0.050917 0.017619 0.008495
v -0.055878 0.015289 0.010358
v -0.055878 0.019088 0.010425
v -0.050917 0.022003 0.008579
v -0.045960 0.014716 0.006885
v -0.045960 0.019595 0.006945
v -0.059636 0.003357 0.012657
v -0.059636 0.006275 0.012664
v -0.059636 0.009194 0.012678
v -0.059636 0.012112 0.012708
v -0.059636 0.015030 0.012759
v -0.055878 0.022886 0.010541
v -0.059636 0.017946 0.012843
v -0.059636 0.020861 0.012965
v -0.059636 0.023772 0.013138
v -0.059636 0.026676 0.013383
v -0.059636 0.029566 0.013733
v -0.050917 0.026385 0.008723
v -0.055878 0.026681 0.010710
v -0.050917 0.030763 0.008934
v -0.045960 0.024474 0.007044
v -0.045960 0.029350 0.007210
v -0.050917 0.035133 0.009234
v -0.055878 0.030470 0.010949
v -0.050917 0.039487 0.009661
v -0.045960 0.034220 0.007458
v -0.045960 0.039081 0.007809
v -0.055878 0.034247 0.011288
v -0.059636 0.032421 0.014266
v -0.059636 0.035079 0.015188
v -0.059636 0.036990 0.016795
v -0.055878 0.038005 0.011773
v -0.055878 0.041704 0.012505
v -0.055878 0.045132 0.013748
v -0.041032 0.005352 0.005580
v -0.041032 0.010643 0.005596
v -0.041032 0.015933 0.005624
v -0.041032 0.021224 0.005691
v -0.036103 0.005663 0.004603
v -0.036103 0.011278 0.004620
v -0.036103 0.016894 0.004650
v -0.036103 0.022508 0.004722
v -0.041032 0.026513 0.005801
v -0.041032 0.031799 0.005986
v -0.041032 0.037079 0.006262
v -0.036103 0.028122 0.004841
v -0.036103 0.033732 0.005041
v -0.036103 0.039336 0.005338
v -0.041032 0.042348 0.006655
v -0.059636 0.002480 0.024674
v -0.059636 0.005399 0.024667
v -0.059636 0.008317 0.024657
v -0.059636 0.011236 0.024632
v -0.059636 0.014154 0.024590
v -0.059636 0.017071 0.024517
v -0.059636 0.019986 0.024408
v -0.059636 0.022899 0.024253
v -0.059636 0.025805 0.024033
v -0.059636 0.028698 0.023719
v -0.055878 0.003712 0.027040
v -0.055878 0.007513 0.027030
v -0.055878 0.011313 0.027014
v -0.055878 0.015113 0.026975
v -0.055878 0.018912 0.026910
v -0.050917 0.004306 0.028919
v -0.050917 0.008692 0.028907
v -0.045960 0.004804 0.030483
v -0.050917 0.013077 0.028887
v -0.050917 0.017462 0.028838
v -0.045960 0.009685 0.030469
v -0.045960 0.014565 0.030445
v -0.059636 0.037511 0.019036
v -0.059636 0.036565 0.021143
v -0.059636 0.031563 0.023257
v -0.059636 0.034316 0.022500
v -0.055878 0.041537 0.024900
v -0.055878 0.022710 0.026800
v -0.055878 0.026505 0.026636
v -0.055878 0.030295 0.026404
v -0.055878 0.034074 0.026074
v -0.055878 0.037832 0.025602
v -0.050917 0.021846 0.028756
v -0.050917 0.026228 0.028616
v -0.050917 0.030606 0.028409
v -0.045960 0.019444 0.030387
v -0.045960 0.024323 0.030290
v -0.045960 0.029199 0.030127
v -0.050917 0.034976 0.028115
v -0.050917 0.039332 0.027697
v -0.045960 0.034070 0.029884
v -0.045960 0.038931 0.029538
v -0.041032 0.026391 0.031532
v -0.041032 0.031677 0.031349
v -0.041032 0.036957 0.031077
v -0.045960 0.043924 0.008308
v -0.050917 0.043812 0.010272
v -0.045960 0.048729 0.009025
v -0.055878 0.047654 0.015846
v -0.050917 0.048055 0.011193
v -0.050917 0.051933 0.012748
v -0.045960 0.053430 0.010111
v -0.045960 0.057691 0.011922
v -0.050917 0.054687 0.015316
v -0.050917 0.055582 0.018738
v -0.045960 0.060645 0.014877
v -0.041032 0.047595 0.007212
v -0.041032 0.052799 0.008015
v -0.041032 0.057879 0.009235
v -0.036103 0.044928 0.005763
v -0.036103 0.050496 0.006365
v -0.036103 0.056014 0.007233
v -0.036103 0.061395 0.008555
v -0.036103 0.066231 0.010737
v -0.041032 0.062460 0.011255
v -0.045960 0.061577 0.018731
v -0.041032 0.065594 0.014516
v -0.036103 0.069515 0.014232
v -0.041032 0.066568 0.018718
v -0.036103 0.070529 0.018706
v -0.055878 0.048503 0.018756
v -0.055878 0.047637 0.021667
v -0.055878 0.045023 0.023722
v -0.050917 0.054670 0.022166
v -0.050917 0.051841 0.024701
v -0.045960 0.060616 0.022584
v -0.050917 0.043658 0.027099
v -0.050917 0.047908 0.026202
v -0.045960 0.048581 0.028341
v -0.045960 0.043775 0.029045
v -0.045960 0.053289 0.027277
v -0.045960 0.057596 0.025509
v -0.041032 0.042227 0.030688
v -0.041032 0.047475 0.030136
v -0.041032 0.057766 0.028142
v -0.041032 0.052679 0.029343
v -0.036103 0.050403 0.030978
v -0.036103 0.055923 0.030117
v -0.041032 0.065566 0.022917
v -0.036103 0.069491 0.023175
v -0.041032 0.062381 0.026154
v -0.036103 0.066168 0.026650
v -0.036103 0.061308 0.028809
v -0.031174 0.005890 0.003900
v -0.031174 0.011747 0.003918
v -0.031174 0.017604 0.003950
v -0.026245 0.006037 0.003459
v -0.026245 0.012054 0.003478
v -0.026245 0.018071 0.003510
v -0.031174 0.023460 0.004025
v -0.031174 0.029314 0.004151
v -0.031174 0.035165 0.004361
v -0.031174 0.041010 0.004674
v -0.026245 0.024088 0.003588
v -0.026245 0.030103 0.003717
v -0.026245 0.036114 0.003933
v -0.026245 0.042118 0.004256
v -0.021316 0.006106 0.003267
v -0.021316 0.012206 0.003286
v -0.021316 0.018305 0.003318
v -0.016387 0.006100 0.003309
v -0.016387 0.012206 0.003328
v -0.011458 0.006022 0.003573
v -0.016387 0.018311 0.003360
v -0.011458 0.012061 0.003591
v -0.011458 0.018099 0.003623
v -0.021316 0.024403 0.003397
v -0.021316 0.030500 0.003527
v -0.021316 0.036593 0.003746
v -0.016387 0.024416 0.003438
v -0.016387 0.030520 0.003568
v -0.011458 0.024137 0.003699
v -0.011458 0.030174 0.003826
v -0.016387 0.036619 0.003785
v -0.011458 0.036208 0.004039
v -0.031174 0.046841 0.005121
v -0.031174 0.052648 0.005755
v -0.031174 0.058401 0.006669
v -0.026245 0.048109 0.004716
v -0.026245 0.054074 0.005369
v -0.026245 0.059985 0.006311
v -0.031174 0.064007 0.008062
v -0.031174 0.069037 0.010358
v -0.026245 0.065743 0.007747
v -0.026245 0.070908 0.010111
v -0.031174 0.072441 0.014021
v -0.031174 0.073489 0.018694
v -0.026245 0.074400 0.013879
v -0.026245 0.075474 0.018682
v -0.021316 0.042680 0.004072
v -0.021316 0.048752 0.004537
v -0.021316 0.054799 0.005198
v -0.021316 0.060791 0.006150
v -0.016387 0.042712 0.004110
v -0.016387 0.048792 0.004572
v -0.011458 0.042234 0.004356
v -0.011458 0.048248 0.004809
v -0.016387 0.054845 0.005229
v -0.016387 0.060845 0.006175
v -0.011458 0.054236 0.005452
v -0.021316 0.066629 0.007600
v -0.021316 0.071871 0.009990
v -0.016387 0.066694 0.007614
v -0.011458 0.060173 0.006376
v -0.011458 0.065966 0.007781
v -0.016387 0.071956 0.009989
v -0.011458 0.071192 0.010103
v -0.021316 0.075421 0.013804
v -0.021316 0.076514 0.018671
v -0.016387 0.075531 0.013792
v -0.011458 0.074760 0.013842
v -0.016387 0.076636 0.018660
v -0.031174 0.072422 0.023362
v -0.026245 0.074385 0.023481
v -0.031174 0.058336 0.030674
v -0.031174 0.063945 0.029290
v -0.031174 0.068990 0.027010
v -0.026245 0.059945 0.031025
v -0.026245 0.065704 0.029594
v -0.026245 0.070876 0.027239
v -0.021316 0.075411 0.023535
v -0.016387 0.075527 0.023525
v -0.011458 0.075868 0.018649
v -0.011458 0.074762 0.023455
v -0.021316 0.060776 0.031180
v -0.021316 0.066614 0.029730
v -0.021316 0.071856 0.027343
v -0.016387 0.060854 0.031149
v -0.016387 0.066702 0.029705
v -0.011458 0.060206 0.030942
v -0.016387 0.071956 0.027327
v -0.011458 0.071208 0.027198
v -0.011458 0.065995 0.029530
v -0.041032 0.005230 0.031749
v -0.041032 0.010521 0.031733
v -0.041032 0.015811 0.031706
v -0.038023 0.002009 0.032352
v -0.037993 0.005439 0.032352
v -0.037962 0.007437 0.032352
v -0.041032 0.021102 0.031641
v -0.037909 0.010941 0.032352
v -0.037860 0.012834 0.032352
v -0.037764 0.016466 0.032352
v -0.037660 0.018159 0.032352
v -0.036103 0.022414 0.032609
v -0.037631 0.018612 0.032352
v -0.036103 0.020878 0.032628
v -0.036103 0.028028 0.032491
v -0.036103 0.033638 0.032293
v -0.036103 0.039242 0.031998
v -0.036103 0.044834 0.031576
v -0.035485 0.021803 0.032706
v -0.034921 0.022649 0.032776
v -0.034787 0.022851 0.032791
v -0.034666 0.023033 0.032805
v -0.032792 0.024915 0.033038
v -0.031174 0.029248 0.033180
v -0.031174 0.026541 0.033238
v -0.031174 0.035099 0.032972
v -0.031014 0.026703 0.033249
v -0.030715 0.027008 0.033270
v -0.029689 0.027682 0.033349
v -0.026711 0.029640 0.033579
v -0.026245 0.030063 0.033613
v -0.026245 0.036074 0.033397
v -0.031174 0.040943 0.032660
v -0.026245 0.029946 0.033615
v -0.026245 0.029947 0.033615
v -0.026169 0.029975 0.033618
v -0.025845 0.030097 0.033628
v -0.022189 0.031476 0.033730
v -0.021316 0.036579 0.033583
v -0.026245 0.042078 0.033076
v -0.021991 0.031551 0.033736
v -0.021424 0.031765 0.033751
v -0.021316 0.031777 0.033755
v -0.017770 0.032227 0.033711
v -0.016387 0.036630 0.033543
v -0.016993 0.032325 0.033701
v -0.016418 0.032398 0.033694
v -0.016387 0.032394 0.033694
v -0.012823 0.031987 0.033513
v -0.031174 0.046775 0.032215
v -0.031174 0.052582 0.031584
v -0.026245 0.048069 0.032616
v -0.026245 0.054035 0.031965
v -0.021316 0.042665 0.033257
v -0.021316 0.048738 0.032792
v -0.021316 0.054785 0.032132
v -0.016387 0.042722 0.033218
v -0.016387 0.048802 0.032755
v -0.011458 0.036242 0.033288
v -0.011458 0.042268 0.032969
v -0.016387 0.054855 0.032097
v -0.011458 0.048282 0.032515
v -0.011458 0.054270 0.031871
v -0.006529 -0.064523 0.008119
v -0.006529 -0.069638 0.010368
v -0.006529 -0.058856 0.006760
v -0.001600 -0.062311 0.008574
v -0.001600 -0.067274 0.010710
v -0.001600 -0.056831 0.007289
v -0.006529 -0.073143 0.014002
v -0.001600 -0.070698 0.014187
v -0.006529 -0.074238 0.018690
v -0.006529 -0.053052 0.005865
v -0.006529 -0.047198 0.005243
v -0.006529 -0.041321 0.004805
v -0.006529 -0.035431 0.004497
v -0.001600 -0.051224 0.006440
v -0.001600 -0.045573 0.005849
v -0.001600 -0.039899 0.005434
v -0.001600 -0.034213 0.005142
v 0.003329 -0.059388 0.009159
v 0.003329 -0.054156 0.007964
v 0.008257 -0.055781 0.009864
v 0.003329 -0.064144 0.011155
v 0.003329 -0.067454 0.014426
v -0.001600 -0.071773 0.018700
v 0.008257 -0.060275 0.011695
v 0.008257 -0.063441 0.014717
v 0.003329 -0.068502 0.018709
v 0.003329 -0.048811 0.007173
v 0.003329 -0.043426 0.006622
v 0.003329 -0.038020 0.006234
v 0.008257 -0.050857 0.008775
v 0.008257 -0.045836 0.008053
v 0.008257 -0.035703 0.007194
v 0.008257 -0.040779 0.007549
v -0.006529 -0.073135 0.023378
v -0.001600 -0.070684 0.023212
v -0.006529 -0.069606 0.027003
v -0.006529 -0.064472 0.029237
v -0.006529 -0.058800 0.030585
v -0.001600 -0.067226 0.026674
v -0.001600 -0.062239 0.028788
v -0.001600 -0.056753 0.030061
v -0.006529 -0.052995 0.031474
v 0.003329 -0.067435 0.022991
v 0.008257 -0.064451 0.018718
v 0.008257 -0.063415 0.022717
v 0.003329 -0.064080 0.026242
v 0.003329 -0.059294 0.028209
v 0.008257 -0.060195 0.025712
v 0.008257 -0.055666 0.027508
v 0.003329 -0.054057 0.029390
v -0.001600 -0.051146 0.030902
v 0.003329 -0.048712 0.030172
v 0.008257 -0.050739 0.028582
v 0.008257 -0.045716 0.029295
v 0.003329 -0.043326 0.030719
v 0.008257 -0.040658 0.029794
v 0.003329 -0.037919 0.031103
v -0.006529 -0.029535 0.004291
v -0.006529 -0.023635 0.004168
v -0.006529 -0.017734 0.004094
v -0.001600 -0.028521 0.004945
v -0.001600 -0.022826 0.004829
v -0.001600 -0.017130 0.004758
v -0.006529 -0.011832 0.004063
v -0.006529 -0.005931 0.004045
v -0.006529 -0.000029 0.004035
v -0.001600 -0.011433 0.004729
v -0.001600 -0.005737 0.004712
v -0.001600 -0.000040 0.004702
v 0.003329 -0.032603 0.005962
v 0.003329 -0.027182 0.005778
v 0.003329 -0.021757 0.005669
v 0.003329 -0.016330 0.005603
v 0.008257 -0.030618 0.006944
v 0.008257 -0.025529 0.006775
v 0.008257 -0.020436 0.006676
v 0.008257 -0.015343 0.006616
v 0.003329 -0.010904 0.005576
v 0.003329 -0.005477 0.005560
v 0.003329 -0.000050 0.005551
v 0.008257 -0.010249 0.006591
v 0.008257 -0.005155 0.006576
v 0.008257 -0.000061 0.006567
v 0.008257 -0.035582 0.030145
v 0.008257 -0.030497 0.030391
v 0.003329 -0.032503 0.031373
v 0.013186 -0.055699 0.012324
v 0.013186 -0.058687 0.015057
v 0.013186 -0.046961 0.009712
v 0.013186 -0.051517 0.010683
v 0.013186 -0.042322 0.009068
v 0.013186 -0.037653 0.008617
v 0.018115 -0.038293 0.010208
v 0.018115 -0.050444 0.013037
v 0.018115 -0.046625 0.011608
v 0.018115 -0.053219 0.015443
v 0.013186 -0.059650 0.018727
v 0.018115 -0.042493 0.010767
v 0.023072 -0.044573 0.013824
v 0.023072 -0.047105 0.015868
v 0.018115 -0.054125 0.018735
v 0.023072 -0.041163 0.012628
v 0.023072 -0.037505 0.011925
v 0.028033 -0.035141 0.013738
v 0.028033 -0.038095 0.014683
v 0.028033 -0.040340 0.016341
v 0.013186 -0.058653 0.022393
v 0.013186 -0.055603 0.025094
v 0.018115 -0.053178 0.022022
v 0.023072 -0.047947 0.018739
v 0.018115 -0.050332 0.024391
v 0.023072 -0.047064 0.021602
v 0.013186 -0.051383 0.026695
v 0.018115 -0.046472 0.025774
v 0.013186 -0.046823 0.027647
v 0.013186 -0.042183 0.028282
v 0.013186 -0.037513 0.028727
v 0.018115 -0.042336 0.026594
v 0.018115 -0.038135 0.027144
v 0.023072 -0.044460 0.023606
v 0.023072 -0.041010 0.024753
v 0.023072 -0.037349 0.025436
v 0.028033 -0.041105 0.018750
v 0.028033 -0.040291 0.021140
v 0.028033 -0.037964 0.022746
v 0.013186 -0.032967 0.008300
v 0.013186 -0.028274 0.008077
v 0.018115 -0.034068 0.009816
v 0.018115 -0.029830 0.009541
v 0.018115 -0.025585 0.009347
v 0.013186 -0.023576 0.007925
v 0.013186 -0.018876 0.007836
v 0.018115 -0.021336 0.009214
v 0.018115 -0.017086 0.009136
v 0.023072 -0.026325 0.010899
v 0.023072 -0.022580 0.010737
v 0.023072 -0.018832 0.010625
v 0.023072 -0.033795 0.011458
v 0.023072 -0.030066 0.011130
v 0.013186 -0.014175 0.007783
v 0.013186 -0.009473 0.007760
v 0.018115 -0.012835 0.009090
v 0.018115 -0.008583 0.009070
v 0.013186 -0.004772 0.007747
v 0.013186 -0.000070 0.007739
v 0.018115 -0.004331 0.009059
v 0.018115 -0.000080 0.009052
v 0.023072 -0.015082 0.010560
v 0.023072 -0.011331 0.010521
v 0.023072 -0.007581 0.010504
v 0.023072 -0.003830 0.010494
v 0.023072 -0.000079 0.010488
v 0.028033 -0.032009 0.013181
v 0.028033 -0.025657 0.012549
v 0.028033 -0.028840 0.012810
v 0.028033 -0.022466 0.012366
v 0.028033 -0.019271 0.012237
v 0.028033 -0.016074 0.012148
v 0.031791 -0.029282 0.015846
v 0.031791 -0.027028 0.015135
v 0.031791 -0.024640 0.014724
v 0.031791 -0.030934 0.017133
v 0.031791 -0.022229 0.014452
v 0.031791 -0.019808 0.014261
v 0.031791 -0.017382 0.014127
v 0.028033 -0.012877 0.012096
v 0.028033 -0.009678 0.012065
v 0.028033 -0.006479 0.012051
v 0.028033 -0.003281 0.012044
v 0.028033 -0.000082 0.012039
v 0.031791 -0.014953 0.014033
v 0.031791 -0.012523 0.013966
v 0.031791 -0.010092 0.013927
v 0.031791 -0.007661 0.013903
v 0.033001 0.000000 0.018664
v 0.031791 -0.005230 0.013892
v 0.031791 -0.002798 0.013887
v 0.031791 -0.000367 0.013883
v 0.013186 -0.032827 0.029039
v 0.013186 -0.028133 0.029259
v 0.018115 -0.033909 0.027529
v 0.018115 -0.029671 0.027800
v 0.008257 -0.025407 0.030558
v 0.013186 -0.023435 0.029408
v 0.008257 -0.020315 0.030656
v 0.013186 -0.018735 0.029496
v 0.018115 -0.025425 0.027991
v 0.018115 -0.021177 0.028120
v 0.023072 -0.033639 0.025895
v 0.023072 -0.029909 0.026216
v 0.023072 -0.026168 0.026442
v 0.023072 -0.022422 0.026601
v 0.008257 -0.015221 0.030714
v 0.013186 -0.014034 0.029548
v 0.008257 -0.010127 0.030739
v 0.013186 -0.009333 0.029570
v 0.018115 -0.016926 0.028195
v 0.018115 -0.012675 0.028240
v 0.008257 -0.005033 0.030753
v 0.013186 -0.004631 0.029583
v 0.008257 0.000061 0.030762
v 0.013186 0.000070 0.029590
v 0.018115 -0.008424 0.028259
v 0.018115 -0.004172 0.028271
v 0.023072 -0.018674 0.026709
v 0.023072 -0.014924 0.026772
v 0.023072 -0.011173 0.026810
v 0.018115 0.000080 0.028277
v 0.023072 -0.007423 0.026826
v 0.023072 -0.003672 0.026835
v 0.028033 -0.034979 0.023643
v 0.031791 -0.031389 0.018974
v 0.031791 -0.030545 0.020685
v 0.031791 -0.028616 0.021751
v 0.031791 -0.026304 0.022338
v 0.028033 -0.031846 0.024180
v 0.031791 -0.023912 0.022698
v 0.028033 -0.028677 0.024543
v 0.031791 -0.021499 0.022944
v 0.031791 -0.019076 0.023115
v 0.028033 -0.025494 0.024797
v 0.028033 -0.022302 0.024975
v 0.031791 -0.016649 0.023235
v 0.028033 -0.019107 0.025100
v 0.031791 -0.014220 0.023320
v 0.031791 -0.011790 0.023377
v 0.031791 -0.009359 0.023411
v 0.031791 -0.006927 0.023430
v 0.031791 -0.004496 0.023438
v 0.031791 -0.002064 0.023444
v 0.031791 0.000367 0.023446
v 0.028033 -0.015910 0.025186
v 0.028033 -0.012712 0.025236
v 0.028033 -0.009514 0.025266
v 0.028033 -0.006315 0.025278
v 0.028033 -0.003117 0.025286
v 0.023072 0.000079 0.026841
v 0.028033 0.000082 0.025290
v -0.006529 -0.047141 0.032094
v -0.006529 -0.041264 0.032529
v -0.001600 -0.045494 0.031489
v -0.001600 -0.039819 0.031902
v -0.006529 -0.035374 0.032835
v -0.011458 -0.031831 0.033444
v -0.011403 -0.031825 0.033439
v -0.010971 -0.031667 0.033402
v -0.010282 -0.031415 0.033343
v -0.006555 -0.030054 0.033023
v -0.006529 -0.030037 0.033021
v -0.001600 -0.034133 0.032192
v -0.006311 -0.029895 0.032995
v -0.006178 -0.029809 0.032980
v -0.001600 -0.028442 0.032387
v -0.005253 -0.029209 0.032871
v -0.002577 -0.027477 0.032540
v 0.003329 -0.027081 0.031555
v -0.001600 -0.026683 0.032422
v -0.001142 -0.026226 0.032352
v -0.000818 -0.023435 0.032352
v -0.002052 -0.027138 0.032475
v -0.002013 -0.027098 0.032471
v 0.003329 -0.021656 0.031662
v -0.000718 -0.022551 0.032352
v -0.000409 -0.018164 0.032352
v 0.003329 -0.016230 0.031727
v -0.000318 -0.016837 0.032352
v -0.000197 -0.012742 0.032352
v 0.003329 -0.010803 0.031753
v -0.000153 -0.011192 0.032352
v -0.000085 -0.007239 0.032352
v 0.003329 -0.005376 0.031769
v -0.000056 -0.005569 0.032352
v -0.000018 -0.001699 0.032352
v 0.003329 0.000050 0.031778
v -0.000001 0.000043 0.032352
v -0.006529 0.005873 0.004045
v -0.006529 0.011775 0.004063
v -0.006529 0.017676 0.004093
v -0.001600 0.005657 0.004712
v -0.001600 0.011354 0.004728
v -0.001600 0.017051 0.004757
v -0.001600 0.022747 0.004827
v -0.006529 0.023577 0.004167
v -0.006529 0.029477 0.004289
v -0.006529 0.035374 0.004494
v -0.006529 0.041264 0.004799
v -0.001600 0.028442 0.004942
v -0.001600 0.034133 0.005137
v -0.001600 0.039819 0.005427
v 0.003329 0.005376 0.005560
v 0.003329 0.010803 0.005575
v 0.003329 0.016230 0.005602
v 0.003329 0.021656 0.005667
v 0.008257 0.005033 0.006576
v 0.008257 0.010127 0.006590
v 0.008257 0.015221 0.006615
v 0.008257 0.020315 0.006673
v 0.003329 0.027081 0.005774
v 0.003329 0.032503 0.005956
v 0.003329 0.037919 0.006226
v 0.008257 0.025407 0.006771
v 0.008257 0.030497 0.006938
v 0.008257 0.035582 0.007184
v 0.008257 0.040658 0.007535
v 0.008257 0.035703 0.030135
v 0.003329 0.038020 0.031095
v 0.008257 0.030618 0.030385
v -0.006529 0.047141 0.005235
v -0.006529 0.052995 0.005854
v -0.006529 0.058800 0.006744
v -0.001600 0.045494 0.005840
v -0.001600 0.051146 0.006427
v -0.001600 0.056753 0.007268
v -0.006529 0.064472 0.008092
v -0.006529 0.069606 0.010326
v -0.001600 0.062239 0.008541
v -0.001600 0.067226 0.010655
v -0.006529 0.073135 0.013951
v -0.006529 0.074238 0.018639
v -0.001600 0.070684 0.014117
v -0.001600 0.071773 0.018629
v 0.003329 0.043326 0.006610
v 0.003329 0.048712 0.007157
v 0.003329 0.054057 0.007939
v 0.003329 0.059294 0.009120
v 0.008257 0.045716 0.008034
v 0.008257 0.050739 0.008747
v 0.008257 0.055666 0.009821
v 0.003329 0.064080 0.011087
v 0.003329 0.067435 0.014338
v 0.003329 0.068502 0.018620
v 0.008257 0.060195 0.011617
v 0.008257 0.063415 0.014612
v 0.008257 0.064451 0.018611
v -0.006529 0.058856 0.030569
v -0.001600 0.051224 0.030889
v -0.001600 0.056831 0.030040
v -0.006529 0.073143 0.023327
v -0.001600 0.070698 0.023142
v -0.006529 0.064523 0.029210
v -0.006529 0.069638 0.026961
v -0.001600 0.062311 0.028754
v -0.001600 0.067274 0.026618
v 0.003329 0.048811 0.030156
v 0.003329 0.043426 0.030707
v 0.003329 0.054156 0.029365
v 0.008257 0.040779 0.029780
v 0.008257 0.045836 0.029276
v 0.008257 0.050857 0.028554
v 0.003329 0.059388 0.028170
v 0.008257 0.055781 0.027465
v 0.003329 0.067454 0.022902
v 0.008257 0.063441 0.022611
v 0.008257 0.060275 0.025634
v 0.003329 0.064144 0.026174
v 0.013186 0.004631 0.007746
v 0.013186 0.009333 0.007759
v 0.018115 0.004172 0.009058
v 0.018115 0.008424 0.009070
v 0.013186 0.014034 0.007781
v 0.013186 0.018735 0.007833
v 0.018115 0.012675 0.009089
v 0.018115 0.016926 0.009134
v 0.023072 0.003672 0.010494
v 0.023072 0.007423 0.010503
v 0.018115 0.021177 0.009209
v 0.023072 0.011173 0.010519
v 0.023072 0.014924 0.010557
v 0.023072 0.018674 0.010620
v 0.013186 0.023435 0.007921
v 0.013186 0.028133 0.008069
v 0.018115 0.025425 0.009338
v 0.013186 0.032827 0.008290
v 0.013186 0.037513 0.008602
v 0.018115 0.029671 0.009529
v 0.018115 0.033909 0.009800
v 0.023072 0.022422 0.010728
v 0.023072 0.026168 0.010887
v 0.018115 0.038135 0.010185
v 0.023072 0.029909 0.011113
v 0.023072 0.033639 0.011434
v 0.028033 0.003117 0.012043
v 0.028033 0.006315 0.012051
v 0.028033 0.009514 0.012063
v 0.028033 0.012712 0.012093
v 0.028033 0.015910 0.012143
v 0.028033 0.019107 0.012229
v 0.031791 0.002064 0.013885
v 0.031791 0.004496 0.013891
v 0.031791 0.006927 0.013899
v 0.031791 0.009359 0.013918
v 0.031791 0.011790 0.013952
v 0.031791 0.014220 0.014009
v 0.031791 0.016649 0.014094
v 0.031791 0.019076 0.014214
v 0.031791 0.021499 0.014385
v 0.031791 0.023912 0.014631
v 0.031791 0.026304 0.014991
v 0.031791 0.028616 0.015578
v 0.028033 0.022302 0.012354
v 0.028033 0.025494 0.012532
v 0.028033 0.028677 0.012786
v 0.023072 0.037349 0.011893
v 0.028033 0.031846 0.013149
v 0.023072 0.041010 0.012575
v 0.028033 0.034979 0.013686
v 0.028033 0.037964 0.014583
v 0.031791 0.030545 0.016644
v 0.028033 0.040291 0.016189
v 0.008257 0.005155 0.030753
v 0.013186 0.004772 0.029582
v 0.008257 0.010249 0.030738
v 0.013186 0.009473 0.029569
v 0.018115 0.004331 0.028270
v 0.008257 0.015343 0.030713
v 0.013186 0.014175 0.029546
v 0.008257 0.020436 0.030653
v 0.013186 0.018876 0.029493
v 0.018115 0.008583 0.028259
v 0.018115 0.012835 0.028239
v 0.023072 0.003830 0.026835
v 0.018115 0.017086 0.028192
v 0.023072 0.007581 0.026825
v 0.023072 0.011331 0.026808
v 0.023072 0.015082 0.026769
v 0.018115 0.021336 0.028115
v 0.008257 0.025529 0.030554
v 0.013186 0.023576 0.029404
v 0.013186 0.028274 0.029252
v 0.013186 0.032967 0.029029
v 0.013186 0.037653 0.028711
v 0.018115 0.025585 0.027982
v 0.018115 0.029830 0.027788
v 0.018115 0.034068 0.027512
v 0.013186 0.042322 0.028261
v 0.023072 0.018832 0.026704
v 0.023072 0.022580 0.026592
v 0.023072 0.026325 0.026430
v 0.023072 0.030066 0.026199
v 0.018115 0.038293 0.027121
v 0.023072 0.033795 0.025871
v 0.018115 0.042493 0.026562
v 0.031791 0.002798 0.023442
v 0.031791 0.005230 0.023436
v 0.031791 0.007661 0.023426
v 0.031791 0.010092 0.023402
v 0.031791 0.012523 0.023362
v 0.031791 0.014953 0.023296
v 0.031791 0.017382 0.023202
v 0.031791 0.019808 0.023068
v 0.031791 0.022229 0.022877
v 0.031791 0.024640 0.022604
v 0.031791 0.027028 0.022194
v 0.031791 0.029282 0.021482
v 0.028033 0.022466 0.024963
v 0.028033 0.003281 0.025285
v 0.028033 0.006479 0.025278
v 0.028033 0.009678 0.025264
v 0.028033 0.012877 0.025233
v 0.028033 0.016074 0.025181
v 0.028033 0.019271 0.025092
v 0.031791 0.031389 0.018355
v 0.031791 0.030934 0.020196
v 0.028033 0.025657 0.024780
v 0.028033 0.028840 0.024519
v 0.028033 0.032009 0.024148
v 0.028033 0.041105 0.018579
v 0.028033 0.040340 0.020988
v 0.028033 0.035141 0.023591
v 0.028033 0.038095 0.022646
v 0.023072 0.037505 0.025404
v 0.023072 0.041163 0.024701
v 0.013186 0.042183 0.009047
v 0.013186 0.046823 0.009682
v 0.018115 0.042336 0.010734
v 0.013186 0.051383 0.010634
v 0.013186 0.055603 0.012235
v 0.018115 0.046472 0.011555
v 0.018115 0.050332 0.012938
v 0.013186 0.058653 0.014936
v 0.018115 0.053178 0.015307
v 0.023072 0.044460 0.013722
v 0.018115 0.054125 0.018594
v 0.023072 0.047064 0.015727
v 0.013186 0.059650 0.018602
v 0.023072 0.047947 0.018590
v 0.013186 0.058687 0.022272
v 0.018115 0.053219 0.021886
v 0.018115 0.050444 0.024291
v 0.023072 0.047105 0.021461
v 0.023072 0.044573 0.023505
v 0.013186 0.046961 0.027617
v 0.013186 0.051517 0.026646
v 0.013186 0.055699 0.025004
v 0.018115 0.046625 0.025721
v -0.011878 0.031879 0.033465
v -0.011458 0.031831 0.033444
v -0.011403 0.031825 0.033439
v -0.007041 0.030232 0.033064
v -0.006529 0.035431 0.032832
v -0.001600 0.028521 0.032384
v -0.005396 0.029302 0.032888
v -0.002101 0.027169 0.032480
v -0.006842 0.030159 0.033047
v -0.006555 0.030054 0.033023
v -0.006529 0.030037 0.033021
v -0.001600 0.034213 0.032187
v -0.006529 0.041321 0.032524
v -0.000041 0.003938 0.032352
v 0.003329 0.005477 0.031769
v -0.000058 0.005655 0.032352
v -0.000127 0.009653 0.032352
v 0.003329 0.010904 0.031753
v -0.000154 0.011278 0.032352
v -0.000280 0.015462 0.032352
v 0.003329 0.016330 0.031726
v -0.000323 0.016923 0.032352
v -0.000655 0.021580 0.032352
v 0.003329 0.021757 0.031660
v -0.000729 0.022637 0.032352
v -0.001149 0.026233 0.032352
v -0.001600 0.026683 0.032421
v -0.002052 0.027138 0.032474
v 0.003329 0.027182 0.031551
v 0.003329 0.032603 0.031367
v -0.001600 0.039899 0.031895
v -0.006529 0.047198 0.032086
v -0.006529 0.053052 0.031464
v -0.001600 0.045573 0.031479
v -0.037934 -0.018146 0.032352
v -0.040325 -0.012499 0.032352
v -0.036500 -0.016937 0.043412
v -0.038732 -0.011666 0.043412
v -0.041798 -0.006372 0.032352
v -0.042295 0.000000 0.032352
v -0.040106 -0.005947 0.043412
v -0.040570 0.000000 0.043412
v -0.033496 -0.021556 0.043412
v -0.029836 -0.025347 0.043412
v -0.025661 -0.028164 0.043412
v -0.021130 -0.029899 0.043412
v -0.016418 -0.030485 0.043412
v -0.011706 -0.029899 0.043412
v -0.024086 -0.014484 0.054473
v -0.021700 -0.016094 0.054473
v -0.026177 -0.012318 0.054473
v -0.027893 -0.009678 0.054473
v -0.029169 -0.006666 0.054473
v -0.029954 -0.003398 0.054473
v -0.030219 0.000000 0.054473
v -0.019111 -0.017085 0.054473
v -0.016418 -0.017420 0.054473
v -0.013726 -0.017085 0.054473
v -0.016418 0.000000 0.058159
v -0.041798 0.006372 0.032352
v -0.040106 0.005947 0.043412
v -0.040325 0.012499 0.032352
v -0.037934 0.018146 0.032352
v -0.038732 0.011666 0.043412
v -0.036500 0.016937 0.043412
v -0.033496 0.021556 0.043412
v -0.029836 0.025347 0.043412
v -0.025661 0.028164 0.043412
v -0.021130 0.029899 0.043412
v -0.016418 0.030485 0.043412
v -0.029954 0.003398 0.054473
v -0.029169 0.006666 0.054473
v -0.027893 0.009678 0.054473
v -0.026177 0.012318 0.054473
v -0.024086 0.014484 0.054473
v -0.021700 0.016094 0.054473
v -0.019111 0.017085 0.054473
v -0.016418 0.017420 0.054473
v -0.013726 0.017085 0.054473
v -0.011706 0.029899 0.043412
v -0.007176 -0.028164 0.043412
v -0.003000 -0.025347 0.043412
v 0.001880 -0.023096 0.032352
v 0.005098 -0.018146 0.032352
v 0.000660 -0.021556 0.043412
v 0.003663 -0.016937 0.043412
v 0.007489 -0.012499 0.032352
v 0.008962 -0.006372 0.032352
v 0.009459 0.000000 0.032352
v 0.005895 -0.011666 0.043412
v 0.007270 -0.005947 0.043412
v 0.007734 0.000000 0.043412
v -0.011137 -0.016094 0.054473
v -0.008751 -0.014484 0.054473
v -0.006659 -0.012318 0.054473
v -0.004943 -0.009678 0.054473
v -0.003668 -0.006666 0.054473
v -0.002882 -0.003398 0.054473
v -0.002617 0.000000 0.054473
v -0.007176 0.028164 0.043412
v -0.003000 0.025347 0.043412
v 0.008962 0.006372 0.032352
v 0.007489 0.012499 0.032352
v 0.005098 0.018146 0.032352
v 0.007270 0.005947 0.043412
v 0.003663 0.016937 0.043412
v 0.005895 0.011666 0.043412
v 0.000660 0.021556 0.043412
v 0.001880 0.023096 0.032352
v -0.011137 0.016094 0.054473
v -0.008751 0.014484 0.054473
v -0.006659 0.012318 0.054473
v -0.004943 0.009678 0.054473
v -0.003668 0.006666 0.054473
v -0.002882 0.003398 0.054473
f 1 2 3
f 1 4 5
f 6 7 8
f 9 10 7
f 6 9 7
f 11 6 8
f 6 3 12
f 12 13 14
f 15 12 3
f 6 12 9
f 12 14 9
f 16 9 14
f 14 17 18
f 1 3 11
f 11 3 6
f 1 11 19
f 1 19 4
f 20 21 22
f 20 22 23
f 13 23 17
f 14 13 17
f 17 24 25
f 24 26 27
f 24 27 28
f 17 23 24
f 20 23 13
f 23 22 26
f 23 26 24
f 2 15 3
f 2 29 15
f 1 5 2
f 4 30 5
f 2 5 31
f 32 5 30
f 20 15 29
f 2 31 29
f 20 29 21
f 29 33 21
f 29 31 33
f 32 34 31
f 31 34 33
f 32 35 36
f 32 36 34
f 32 31 5
f 32 30 35
f 15 13 12
f 20 13 15
f 16 37 10
f 16 10 9
f 16 38 37
f 38 39 37
f 38 40 39
f 40 41 42
f 16 14 18
f 16 18 38
f 18 25 43
f 18 43 38
f 38 43 40
f 43 44 40
f 43 45 44
f 44 46 47
f 47 48 49
f 40 44 41
f 41 44 47
f 47 49 50
f 41 47 50
f 49 51 50
f 49 52 51
f 49 53 52
f 52 54 55
f 18 17 25
f 25 28 45
f 25 45 43
f 45 56 46
f 28 27 57
f 28 57 56
f 57 58 56
f 24 28 25
f 28 56 45
f 46 59 48
f 46 56 59
f 59 60 48
f 56 58 59
f 59 58 61
f 59 61 60
f 60 61 62
f 44 45 46
f 47 46 48
f 49 48 53
f 60 53 48
f 53 63 54
f 52 53 54
f 54 64 55
f 54 65 64
f 64 66 67
f 60 63 53
f 54 63 65
f 60 62 63
f 63 62 68
f 63 68 65
f 65 68 69
f 64 65 66
f 65 69 66
f 4 70 71
f 72 73 71
f 4 71 30
f 73 74 71
f 75 76 77
f 75 77 73
f 76 78 79
f 76 79 77
f 79 78 80
f 73 77 81
f 77 79 82
f 79 80 83
f 19 84 85
f 70 85 86
f 11 84 19
f 19 85 70
f 72 70 86
f 11 8 84
f 72 86 87
f 75 87 88
f 76 88 89
f 72 87 75
f 75 88 76
f 76 89 78
f 84 8 90
f 8 7 90
f 84 90 85
f 4 19 70
f 72 71 70
f 72 75 73
f 78 91 80
f 91 92 80
f 91 93 92
f 93 94 92
f 80 92 95
f 92 94 96
f 93 97 94
f 97 98 99
f 97 99 94
f 98 100 101
f 98 101 99
f 94 99 102
f 99 101 103
f 78 89 104
f 91 104 105
f 93 105 106
f 78 104 91
f 91 105 93
f 85 90 86
f 86 90 87
f 87 90 88
f 88 90 89
f 89 90 104
f 97 106 107
f 98 107 108
f 108 109 100
f 93 106 97
f 97 107 98
f 98 108 100
f 104 90 105
f 105 90 106
f 106 90 107
f 107 90 108
f 108 90 109
f 30 71 74
f 73 81 74
f 30 74 35
f 110 74 81
f 82 111 81
f 82 83 112
f 77 82 81
f 79 83 82
f 35 74 110
f 110 81 111
f 35 110 113
f 35 113 36
f 110 114 113
f 82 112 111
f 110 111 114
f 111 115 114
f 111 112 115
f 112 116 115
f 83 95 117
f 95 96 118
f 80 95 83
f 92 96 95
f 96 102 119
f 102 103 120
f 94 102 96
f 99 103 102
f 83 117 112
f 95 118 117
f 117 121 116
f 112 117 116
f 117 118 121
f 96 119 118
f 102 120 119
f 118 122 121
f 118 119 122
f 119 123 122
f 119 120 123
f 40 42 39
f 41 124 42
f 7 10 90
f 10 37 90
f 37 39 90
f 39 42 90
f 42 124 90
f 124 50 125
f 41 50 124
f 50 51 125
f 51 126 127
f 51 127 125
f 127 126 128
f 128 129 130
f 128 126 129
f 130 129 131
f 52 126 51
f 126 55 129
f 52 55 126
f 129 55 132
f 64 132 55
f 132 67 133
f 129 132 131
f 131 132 133
f 131 133 134
f 133 135 134
f 133 136 135
f 135 137 138
f 124 125 90
f 125 127 90
f 127 128 90
f 128 130 90
f 130 139 90
f 139 140 90
f 140 141 90
f 141 142 90
f 142 143 90
f 143 144 90
f 130 131 139
f 139 134 140
f 140 145 141
f 139 131 134
f 140 134 145
f 141 145 146
f 141 146 142
f 142 147 143
f 143 148 144
f 142 146 147
f 143 147 148
f 144 148 149
f 135 145 134
f 145 138 146
f 135 138 145
f 146 150 147
f 146 138 150
f 147 150 151
f 138 152 150
f 150 153 151
f 147 151 148
f 148 151 154
f 148 154 149
f 149 154 155
f 151 156 154
f 154 157 155
f 64 67 132
f 133 67 136
f 67 158 136
f 135 136 137
f 138 137 152
f 136 159 137
f 66 158 67
f 150 152 153
f 151 153 156
f 154 156 157
f 155 157 160
f 22 161 26
f 162 22 21
f 26 161 163
f 162 161 22
f 163 164 165
f 163 161 164
f 162 166 161
f 166 164 161
f 26 163 27
f 163 167 27
f 27 167 57
f 163 165 167
f 165 168 167
f 167 168 169
f 33 170 21
f 162 21 170
f 33 171 170
f 33 34 171
f 34 36 172
f 34 172 171
f 36 173 172
f 162 170 174
f 175 170 171
f 162 174 166
f 175 174 170
f 171 172 176
f 175 171 176
f 172 177 176
f 165 164 178
f 165 178 179
f 166 180 181
f 164 181 178
f 166 181 164
f 179 178 182
f 179 182 183
f 183 182 184
f 181 185 178
f 181 186 185
f 185 182 178
f 185 187 182
f 165 179 168
f 179 188 168
f 168 188 189
f 179 183 188
f 183 190 188
f 183 191 190
f 188 190 192
f 190 193 194
f 166 174 180
f 175 195 174
f 174 195 180
f 175 176 196
f 175 196 195
f 176 197 196
f 181 180 186
f 180 198 186
f 195 198 180
f 185 186 199
f 198 200 186
f 195 196 201
f 195 201 198
f 196 197 202
f 196 202 201
f 198 201 203
f 201 202 204
f 57 169 58
f 167 169 57
f 169 205 58
f 169 189 205
f 168 189 169
f 189 206 205
f 58 205 61
f 205 207 61
f 61 207 62
f 62 208 68
f 62 207 208
f 208 209 68
f 205 206 207
f 206 210 207
f 207 210 208
f 208 211 209
f 210 211 208
f 211 212 209
f 209 69 68
f 189 188 192
f 189 192 206
f 192 213 206
f 190 194 192
f 192 194 213
f 194 214 215
f 194 215 213
f 206 213 210
f 213 216 210
f 210 216 211
f 211 216 217
f 211 217 212
f 212 217 218
f 213 215 216
f 215 219 216
f 215 220 219
f 216 219 217
f 217 219 221
f 219 222 221
f 217 221 218
f 221 223 218
f 221 224 223
f 36 113 173
f 113 114 225
f 113 225 173
f 114 115 226
f 114 226 225
f 115 227 226
f 172 173 177
f 173 225 228
f 173 228 177
f 225 226 229
f 226 227 230
f 225 229 228
f 226 230 229
f 115 116 227
f 116 121 231
f 116 231 227
f 121 122 232
f 122 123 233
f 121 232 231
f 122 233 232
f 227 231 234
f 227 234 230
f 231 235 234
f 231 232 235
f 232 233 236
f 232 236 235
f 176 177 197
f 177 237 197
f 177 228 237
f 228 229 238
f 228 238 237
f 229 230 239
f 229 239 238
f 197 240 202
f 197 237 240
f 202 240 241
f 237 238 242
f 237 242 240
f 238 239 243
f 238 243 242
f 240 242 244
f 242 243 245
f 230 246 239
f 230 234 246
f 234 247 246
f 234 235 247
f 235 236 248
f 235 248 247
f 239 249 243
f 239 246 249
f 246 250 249
f 243 249 251
f 246 247 250
f 247 248 252
f 247 252 250
f 249 250 253
f 250 252 254
f 66 69 255
f 66 255 158
f 158 255 256
f 137 257 152
f 136 158 159
f 158 256 159
f 159 256 258
f 159 258 257
f 257 258 259
f 137 159 257
f 152 257 260
f 257 259 260
f 260 259 261
f 260 261 262
f 152 260 153
f 153 262 156
f 156 263 157
f 157 264 160
f 260 262 153
f 156 262 263
f 262 265 266
f 262 261 267
f 262 267 265
f 262 266 263
f 263 266 268
f 263 268 269
f 157 263 264
f 160 264 270
f 263 269 264
f 264 269 271
f 264 271 272
f 264 272 270
f 270 272 273
f 69 274 255
f 209 274 69
f 255 274 275
f 255 275 256
f 256 275 276
f 209 212 274
f 274 277 275
f 212 277 274
f 277 278 275
f 278 276 275
f 276 279 280
f 278 279 276
f 212 218 277
f 218 223 281
f 223 282 283
f 277 218 281
f 277 281 278
f 278 281 284
f 278 284 279
f 279 284 285
f 279 285 286
f 285 287 286
f 281 283 284
f 223 283 281
f 284 283 288
f 283 289 288
f 284 288 285
f 285 288 290
f 285 290 287
f 290 291 287
f 288 292 290
f 290 293 291
f 256 276 258
f 258 280 259
f 276 280 258
f 259 280 294
f 259 294 261
f 261 295 267
f 261 296 295
f 261 294 296
f 294 297 298
f 294 298 296
f 294 299 297
f 280 286 294
f 294 300 301
f 279 286 280
f 294 286 302
f 294 302 300
f 302 303 300
f 302 304 303
f 302 305 304
f 294 306 299
f 294 301 306
f 286 287 302
f 302 287 305
f 287 307 305
f 287 308 307
f 287 309 308
f 287 310 309
f 287 291 310
f 291 311 310
f 291 312 311
f 291 313 312
f 291 314 313
f 291 315 314
f 100 316 317
f 100 317 101
f 316 318 319
f 316 319 317
f 101 317 320
f 317 319 321
f 318 322 323
f 318 323 319
f 322 324 323
f 322 325 324
f 325 326 327
f 325 327 324
f 319 323 328
f 323 324 329
f 316 109 330
f 318 330 331
f 322 331 332
f 100 109 316
f 316 330 318
f 318 331 322
f 109 90 330
f 330 90 331
f 331 90 332
f 332 90 333
f 333 90 334
f 325 332 333
f 326 333 334
f 335 334 336
f 322 332 325
f 325 333 326
f 326 334 335
f 334 90 336
f 336 90 337
f 337 90 338
f 338 90 339
f 339 90 340
f 326 335 341
f 326 341 327
f 335 342 343
f 335 343 341
f 324 327 344
f 327 341 345
f 342 346 343
f 347 348 346
f 341 343 349
f 343 346 350
f 342 336 337
f 347 337 338
f 338 339 351
f 335 336 342
f 342 337 347
f 340 90 352
f 352 90 353
f 353 90 354
f 339 340 355
f 340 352 356
f 347 338 351
f 339 355 351
f 355 340 356
f 352 353 357
f 342 347 346
f 347 351 348
f 103 320 358
f 320 321 359
f 101 320 103
f 317 321 320
f 321 328 360
f 328 329 361
f 319 328 321
f 323 329 328
f 103 358 120
f 320 359 358
f 120 362 123
f 120 358 362
f 358 363 362
f 358 359 363
f 321 360 359
f 328 361 360
f 359 364 363
f 359 360 364
f 360 365 364
f 329 344 366
f 324 344 329
f 327 345 344
f 344 345 367
f 341 349 345
f 343 350 349
f 368 345 349
f 329 366 361
f 344 367 366
f 360 361 365
f 361 366 369
f 361 369 365
f 367 345 368
f 366 367 370
f 366 370 369
f 367 368 371
f 367 371 370
f 368 349 372
f 144 373 90
f 90 373 374
f 90 374 375
f 90 375 376
f 90 376 377
f 90 377 378
f 90 378 379
f 90 379 380
f 90 380 381
f 90 381 382
f 144 149 373
f 373 383 374
f 374 384 375
f 149 383 373
f 374 383 384
f 375 384 385
f 375 385 376
f 376 386 377
f 377 387 378
f 376 385 386
f 377 386 387
f 149 155 383
f 155 388 383
f 383 388 384
f 384 389 385
f 384 388 389
f 155 160 388
f 388 390 389
f 385 391 386
f 385 389 391
f 386 392 387
f 386 391 392
f 389 393 391
f 391 394 392
f 354 90 395
f 90 396 395
f 90 382 397
f 90 398 396
f 90 397 398
f 398 397 399
f 378 400 379
f 379 401 380
f 380 402 381
f 378 387 400
f 379 400 401
f 380 401 402
f 381 403 382
f 382 404 397
f 381 402 403
f 382 403 404
f 397 404 399
f 387 405 400
f 387 392 405
f 400 405 406
f 400 406 401
f 401 406 407
f 392 408 405
f 405 409 406
f 406 410 407
f 401 407 402
f 403 402 411
f 403 412 404
f 402 407 411
f 403 411 412
f 411 407 413
f 411 414 412
f 160 390 388
f 389 390 393
f 391 393 394
f 392 394 408
f 405 408 409
f 406 409 410
f 410 409 415
f 407 410 413
f 411 413 414
f 410 416 413
f 413 417 414
f 346 348 418
f 348 419 420
f 352 357 356
f 353 354 421
f 353 421 357
f 351 355 419
f 355 356 422
f 351 419 348
f 355 422 419
f 356 357 423
f 356 423 422
f 419 422 424
f 422 423 425
f 357 421 426
f 357 426 423
f 421 427 426
f 423 426 428
f 346 418 350
f 348 420 418
f 349 350 372
f 350 418 429
f 419 424 420
f 418 420 430
f 420 424 431
f 368 372 432
f 368 432 371
f 372 433 432
f 372 350 429
f 372 429 433
f 418 430 429
f 420 431 430
f 429 430 434
f 429 434 433
f 430 435 434
f 430 431 435
f 424 422 425
f 423 428 425
f 431 436 435
f 424 425 437
f 426 438 428
f 425 428 439
f 424 437 431
f 425 439 437
f 431 437 436
f 437 439 440
f 437 440 436
f 439 428 441
f 439 442 440
f 354 395 443
f 354 443 421
f 395 444 443
f 395 396 444
f 396 398 445
f 398 399 445
f 396 445 444
f 421 443 427
f 443 446 427
f 426 427 438
f 444 446 443
f 444 445 447
f 444 447 446
f 427 446 448
f 404 449 399
f 404 412 449
f 445 399 450
f 399 449 450
f 450 449 451
f 412 452 449
f 445 450 447
f 447 450 453
f 446 447 454
f 412 414 452
f 449 452 451
f 414 455 452
f 452 456 451
f 450 451 453
f 447 453 454
f 454 453 457
f 453 451 458
f 417 455 414
f 452 455 456
f 451 456 458
f 453 458 457
f 456 459 458
f 458 460 457
f 458 459 460
f 427 448 438
f 428 438 441
f 446 454 448
f 438 448 461
f 438 461 441
f 439 441 442
f 441 462 442
f 441 461 462
f 448 454 463
f 454 457 463
f 448 463 461
f 461 463 464
f 463 465 464
f 463 457 465
f 457 460 465
f 461 464 462
f 123 362 466
f 362 363 467
f 123 466 233
f 362 467 466
f 363 364 468
f 363 468 467
f 233 466 469
f 233 469 236
f 466 470 469
f 466 467 470
f 467 468 471
f 467 471 470
f 364 365 472
f 365 369 473
f 364 472 468
f 365 473 472
f 369 370 474
f 370 371 475
f 369 474 473
f 370 475 474
f 468 472 476
f 472 473 477
f 468 476 471
f 472 477 476
f 473 474 478
f 473 478 477
f 474 479 478
f 236 469 480
f 236 480 248
f 469 481 480
f 469 470 481
f 470 482 481
f 470 471 482
f 248 480 483
f 252 248 483
f 480 484 483
f 252 483 485
f 480 481 484
f 481 486 484
f 481 482 486
f 483 484 487
f 484 486 488
f 471 476 489
f 471 489 482
f 476 477 490
f 476 490 489
f 477 491 490
f 477 478 491
f 482 489 492
f 482 492 486
f 489 490 493
f 489 493 492
f 486 492 494
f 492 493 495
f 490 496 493
f 490 491 496
f 493 496 497
f 371 432 498
f 371 498 475
f 432 433 499
f 432 499 498
f 433 500 499
f 433 434 500
f 474 475 479
f 475 498 501
f 475 501 479
f 498 499 502
f 499 500 503
f 498 502 501
f 499 503 502
f 434 435 504
f 435 436 505
f 434 504 500
f 435 505 504
f 500 504 506
f 500 506 503
f 504 507 506
f 504 505 507
f 436 440 508
f 436 508 505
f 440 509 508
f 505 508 510
f 505 510 507
f 508 511 510
f 478 479 512
f 478 512 491
f 479 501 513
f 479 513 512
f 501 514 513
f 501 502 514
f 502 515 514
f 491 512 516
f 491 516 496
f 512 513 517
f 512 517 516
f 496 516 518
f 516 517 519
f 513 520 517
f 513 514 520
f 514 521 520
f 517 520 522
f 502 503 515
f 503 523 515
f 503 506 523
f 506 507 524
f 506 524 523
f 514 515 521
f 515 525 521
f 520 521 526
f 515 523 525
f 521 525 527
f 523 528 525
f 523 524 528
f 525 528 529
f 507 530 524
f 507 510 530
f 510 531 530
f 524 532 528
f 524 530 532
f 528 532 533
f 530 534 532
f 440 442 509
f 442 535 509
f 442 462 535
f 508 509 511
f 509 536 511
f 509 535 536
f 460 537 465
f 464 465 538
f 465 537 538
f 464 538 539
f 462 464 539
f 462 539 535
f 538 537 540
f 538 541 539
f 538 540 541
f 535 539 542
f 535 542 536
f 541 542 539
f 510 511 531
f 511 543 531
f 511 536 543
f 530 531 534
f 534 531 544
f 532 534 545
f 531 543 544
f 534 544 546
f 541 540 547
f 541 547 548
f 536 549 543
f 536 542 549
f 541 548 542
f 542 548 549
f 548 547 550
f 548 550 551
f 551 550 552
f 543 553 544
f 543 549 553
f 544 553 554
f 548 551 549
f 549 551 553
f 551 555 553
f 160 270 390
f 390 556 393
f 393 557 394
f 394 558 408
f 270 556 390
f 393 556 557
f 270 559 556
f 270 273 559
f 556 559 560
f 556 560 561
f 556 561 557
f 394 557 558
f 558 562 408
f 557 561 563
f 557 563 564
f 557 564 558
f 558 564 565
f 558 566 562
f 558 565 566
f 408 562 409
f 409 562 415
f 562 567 415
f 562 566 568
f 562 568 569
f 562 569 567
f 415 570 416
f 415 567 570
f 410 415 416
f 413 416 417
f 416 570 571
f 416 571 417
f 417 571 572
f 417 572 455
f 455 572 573
f 456 455 573
f 456 573 459
f 567 569 574
f 567 574 575
f 567 575 570
f 570 575 576
f 570 576 577
f 570 577 578
f 570 578 579
f 579 578 580
f 570 579 571
f 571 581 572
f 571 579 581
f 579 580 582
f 579 582 583
f 579 583 584
f 579 584 585
f 579 586 581
f 581 587 588
f 579 585 586
f 586 585 589
f 586 589 590
f 586 590 591
f 586 591 592
f 581 586 587
f 586 592 593
f 586 593 587
f 587 594 595
f 587 593 594
f 594 593 596
f 594 596 597
f 594 597 598
f 594 598 599
f 594 599 600
f 600 599 601
f 600 601 602
f 600 602 603
f 600 603 604
f 572 588 573
f 573 605 459
f 581 588 572
f 573 588 605
f 460 459 606
f 459 605 606
f 460 606 537
f 588 595 605
f 587 595 588
f 605 595 607
f 605 607 606
f 606 608 537
f 606 607 608
f 608 540 537
f 594 609 595
f 595 609 607
f 607 609 610
f 608 610 611
f 608 607 610
f 608 611 540
f 594 600 609
f 600 612 609
f 609 612 610
f 610 612 613
f 600 614 612
f 612 615 613
f 611 610 613
f 611 616 547
f 611 613 616
f 616 613 617
f 616 618 550
f 540 611 547
f 616 550 547
f 183 184 191
f 191 184 619
f 191 619 620
f 185 199 187
f 182 187 184
f 621 619 184
f 187 621 184
f 620 619 622
f 620 622 623
f 621 624 619
f 619 624 622
f 190 191 193
f 191 620 193
f 620 625 193
f 193 625 214
f 620 623 625
f 623 626 625
f 625 626 627
f 186 200 199
f 187 199 628
f 187 628 621
f 200 629 199
f 199 629 628
f 198 203 200
f 201 204 203
f 200 203 630
f 200 630 629
f 203 631 630
f 621 628 632
f 628 629 633
f 628 633 632
f 621 632 624
f 629 634 633
f 630 634 629
f 630 635 634
f 623 622 636
f 622 624 637
f 622 637 636
f 636 638 639
f 623 639 626
f 626 639 640
f 626 640 641
f 623 636 639
f 640 639 642
f 638 642 639
f 640 643 644
f 640 642 643
f 632 645 624
f 624 645 637
f 632 633 646
f 633 634 647
f 633 647 646
f 632 646 645
f 636 637 648
f 637 645 649
f 636 648 638
f 637 649 648
f 646 647 650
f 646 651 645
f 645 651 649
f 646 650 651
f 194 193 214
f 625 627 214
f 214 627 220
f 215 214 220
f 627 652 220
f 626 641 627
f 627 641 652
f 652 641 653
f 219 220 222
f 220 652 222
f 652 654 222
f 221 222 224
f 222 654 224
f 223 224 282
f 224 654 655
f 224 655 282
f 655 656 282
f 652 653 654
f 653 657 654
f 654 657 655
f 655 657 658
f 655 658 656
f 656 658 659
f 656 659 660
f 641 644 653
f 640 644 641
f 644 661 653
f 644 662 661
f 643 662 644
f 662 663 661
f 653 661 657
f 664 658 657
f 661 664 657
f 665 659 658
f 664 665 658
f 661 663 664
f 664 666 665
f 664 663 666
f 666 667 665
f 659 668 669
f 665 668 659
f 668 670 669
f 665 667 668
f 668 671 670
f 668 667 671
f 670 671 672
f 670 672 673
f 674 675 673
f 672 674 673
f 202 241 204
f 203 204 631
f 204 676 631
f 204 241 676
f 240 244 241
f 242 245 244
f 241 244 677
f 241 677 676
f 244 245 678
f 244 678 677
f 630 631 635
f 631 676 679
f 631 679 635
f 676 677 680
f 676 680 679
f 677 678 681
f 677 681 680
f 243 251 245
f 249 253 251
f 245 682 678
f 245 251 682
f 251 683 682
f 250 254 253
f 251 253 683
f 253 254 684
f 253 684 683
f 678 685 681
f 678 682 685
f 682 686 685
f 682 683 686
f 683 684 687
f 683 687 686
f 634 635 688
f 635 679 689
f 634 688 647
f 635 689 688
f 679 680 690
f 679 690 689
f 680 691 690
f 647 688 692
f 688 693 692
f 647 692 650
f 688 689 693
f 689 690 694
f 689 694 693
f 690 695 694
f 680 681 691
f 681 685 696
f 681 696 691
f 685 686 697
f 686 687 698
f 685 697 696
f 686 698 697
f 690 691 695
f 691 696 699
f 691 699 695
f 696 697 700
f 697 698 701
f 696 700 699
f 697 701 700
f 674 702 675
f 702 703 704
f 642 705 643
f 643 705 706
f 643 706 662
f 648 707 638
f 638 707 708
f 648 649 709
f 648 709 707
f 649 651 710
f 649 710 709
f 707 709 711
f 638 708 642
f 642 708 705
f 706 705 712
f 708 713 705
f 706 714 715
f 708 707 716
f 705 713 712
f 706 712 714
f 712 717 714
f 714 718 719
f 708 716 713
f 707 711 716
f 712 713 720
f 716 721 713
f 714 717 718
f 712 720 717
f 713 721 720
f 720 722 717
f 717 723 718
f 717 722 723
f 718 723 724
f 662 715 663
f 706 715 662
f 663 715 725
f 663 725 666
f 666 725 726
f 715 719 725
f 725 727 726
f 714 719 715
f 719 728 727
f 725 719 727
f 727 729 726
f 727 730 729
f 666 726 667
f 667 726 731
f 726 729 731
f 732 733 731
f 667 731 671
f 671 731 733
f 671 733 672
f 672 733 734
f 674 734 735
f 672 734 674
f 733 736 734
f 734 737 735
f 729 732 731
f 732 736 733
f 729 738 732
f 732 739 736
f 736 740 737
f 734 736 737
f 718 728 719
f 727 728 730
f 718 724 728
f 724 741 728
f 728 741 730
f 729 730 738
f 730 742 738
f 730 741 742
f 738 743 739
f 742 743 738
f 732 738 739
f 739 740 736
f 651 650 744
f 651 744 710
f 692 745 650
f 650 745 744
f 709 710 746
f 710 744 747
f 744 745 748
f 692 693 749
f 692 749 745
f 693 694 750
f 693 750 749
f 745 749 751
f 749 750 752
f 709 746 711
f 710 747 746
f 744 748 747
f 746 747 753
f 745 751 748
f 749 752 751
f 747 748 754
f 748 751 755
f 716 711 756
f 746 757 711
f 694 695 758
f 694 758 750
f 695 699 759
f 695 759 758
f 750 758 760
f 758 759 761
f 699 700 762
f 699 762 759
f 700 701 763
f 700 763 762
f 759 762 764
f 762 763 765
f 750 760 752
f 758 761 760
f 751 752 766
f 752 760 767
f 760 761 768
f 759 764 761
f 762 765 764
f 761 764 769
f 764 765 770
f 716 756 721
f 711 757 756
f 746 753 757
f 720 721 771
f 720 771 722
f 756 757 772
f 756 773 721
f 721 773 771
f 756 772 773
f 747 754 753
f 748 755 754
f 753 774 757
f 757 774 772
f 753 754 775
f 754 755 776
f 753 775 774
f 754 776 775
f 724 723 777
f 722 778 723
f 722 771 779
f 723 778 777
f 722 779 778
f 724 777 780
f 773 781 771
f 773 772 782
f 772 774 783
f 771 781 779
f 773 782 781
f 772 783 782
f 752 767 766
f 760 768 767
f 761 769 768
f 764 770 769
f 751 766 755
f 755 766 784
f 755 784 776
f 766 767 785
f 766 785 784
f 767 768 786
f 768 769 787
f 767 786 785
f 768 787 786
f 769 770 788
f 769 788 787
f 774 775 789
f 775 776 790
f 776 784 791
f 784 785 792
f 774 789 783
f 775 790 789
f 776 791 790
f 784 792 791
f 777 778 793
f 779 793 778
f 779 781 793
f 781 782 793
f 782 783 793
f 783 789 793
f 785 786 794
f 786 787 795
f 787 788 796
f 785 794 792
f 786 795 794
f 787 796 795
f 789 790 793
f 790 791 793
f 791 792 793
f 792 794 793
f 794 795 793
f 795 796 793
f 674 735 702
f 702 735 797
f 702 797 703
f 703 797 798
f 735 799 797
f 797 800 798
f 703 798 801
f 801 798 802
f 801 802 803
f 803 802 804
f 798 805 802
f 802 806 804
f 807 799 737
f 808 800 799
f 735 737 799
f 797 799 800
f 798 800 805
f 802 805 806
f 800 809 805
f 805 810 806
f 803 804 811
f 811 804 812
f 811 812 813
f 813 812 814
f 804 815 812
f 812 816 814
f 813 814 817
f 817 814 818
f 817 818 819
f 818 820 819
f 814 821 818
f 818 822 820
f 806 815 804
f 812 815 816
f 814 816 821
f 806 823 815
f 815 824 816
f 816 825 821
f 818 821 822
f 822 826 820
f 821 827 822
f 822 828 826
f 739 743 829
f 724 780 741
f 741 830 742
f 780 830 741
f 742 830 831
f 742 831 743
f 832 829 743
f 833 834 829
f 831 832 743
f 832 833 829
f 777 793 780
f 780 793 830
f 830 793 831
f 831 793 832
f 834 835 836
f 833 835 834
f 835 837 836
f 837 838 839
f 840 838 841
f 740 807 737
f 807 808 799
f 739 829 740
f 740 834 807
f 740 829 834
f 807 836 808
f 807 834 836
f 808 809 800
f 805 809 810
f 806 810 823
f 808 836 839
f 839 840 809
f 808 839 809
f 840 842 810
f 840 810 809
f 842 823 810
f 837 839 836
f 839 838 840
f 840 841 842
f 832 793 833
f 833 793 835
f 835 793 837
f 837 793 838
f 838 793 841
f 841 793 843
f 843 793 844
f 844 793 845
f 845 793 846
f 846 793 847
f 847 793 848
f 848 793 849
f 815 823 824
f 816 824 825
f 850 824 823
f 842 850 823
f 850 851 824
f 851 825 824
f 851 852 825
f 852 827 825
f 853 828 827
f 852 853 827
f 854 855 828
f 853 854 828
f 854 856 855
f 821 825 827
f 822 827 828
f 828 855 826
f 843 850 842
f 844 851 850
f 851 845 852
f 841 843 842
f 843 844 850
f 844 845 851
f 846 853 852
f 847 854 853
f 848 856 854
f 845 846 852
f 846 847 853
f 847 848 854
f 848 849 856
f 282 656 289
f 283 282 289
f 288 289 292
f 656 660 289
f 289 660 292
f 292 660 857
f 290 292 293
f 291 293 315
f 292 857 293
f 293 857 858
f 293 858 315
f 660 659 669
f 660 669 857
f 857 669 859
f 857 859 858
f 858 860 861
f 858 859 860
f 670 859 669
f 859 673 860
f 670 673 859
f 860 673 675
f 315 862 314
f 315 863 862
f 315 864 863
f 315 861 864
f 858 861 315
f 861 865 864
f 861 866 865
f 861 867 866
f 860 868 861
f 861 868 867
f 868 869 867
f 868 870 869
f 871 872 870
f 868 871 870
f 871 873 872
f 860 675 868
f 704 871 868
f 675 704 868
f 704 874 871
f 874 875 871
f 874 876 875
f 874 877 876
f 871 878 873
f 871 879 878
f 871 875 879
f 880 881 877
f 880 882 881
f 874 880 877
f 702 704 675
f 704 703 874
f 874 801 880
f 880 803 883
f 874 703 801
f 880 801 803
f 883 884 882
f 880 883 882
f 883 885 884
f 883 886 885
f 886 887 885
f 886 888 887
f 886 889 888
f 889 890 888
f 889 891 890
f 892 893 891
f 889 892 891
f 883 811 886
f 803 811 883
f 886 811 813
f 886 813 889
f 889 817 892
f 889 813 817
f 817 819 892
f 252 485 254
f 483 487 485
f 254 485 894
f 254 894 684
f 485 895 894
f 484 488 487
f 485 487 895
f 487 896 895
f 487 488 896
f 684 894 897
f 684 897 687
f 894 898 897
f 894 895 898
f 895 899 898
f 895 896 899
f 896 900 899
f 486 494 488
f 492 495 494
f 488 494 901
f 488 901 896
f 494 495 902
f 494 902 901
f 493 497 495
f 495 903 902
f 495 497 903
f 497 904 903
f 896 901 900
f 901 902 905
f 901 905 900
f 902 903 906
f 902 906 905
f 903 907 906
f 687 897 908
f 897 898 909
f 687 908 698
f 897 909 908
f 898 899 910
f 898 910 909
f 899 911 910
f 698 908 912
f 908 909 913
f 698 912 701
f 908 913 912
f 909 910 914
f 909 914 913
f 910 915 914
f 899 900 911
f 900 905 916
f 900 916 911
f 905 906 917
f 906 907 918
f 905 917 916
f 906 918 917
f 910 911 915
f 911 916 919
f 911 919 915
f 916 920 919
f 916 917 920
f 917 918 921
f 917 921 920
f 918 922 921
f 923 924 925
f 496 518 497
f 516 519 518
f 497 518 904
f 518 519 926
f 518 926 904
f 517 522 519
f 520 526 522
f 519 522 927
f 519 927 926
f 522 928 927
f 903 904 907
f 904 929 907
f 904 926 929
f 926 927 930
f 926 930 929
f 927 928 931
f 927 931 930
f 522 526 928
f 521 527 526
f 526 932 928
f 526 527 932
f 527 933 932
f 525 529 527
f 527 529 933
f 928 932 934
f 928 934 931
f 932 935 934
f 932 933 935
f 528 533 529
f 529 936 933
f 529 533 936
f 532 545 533
f 533 937 936
f 933 938 935
f 933 936 938
f 936 939 938
f 907 929 940
f 918 907 940
f 929 941 940
f 929 930 941
f 930 931 942
f 930 942 941
f 931 943 942
f 918 940 922
f 940 941 944
f 940 944 922
f 941 942 945
f 942 943 946
f 941 945 944
f 942 946 945
f 931 934 943
f 934 935 947
f 934 947 943
f 935 948 947
f 935 938 948
f 938 949 948
f 943 947 950
f 947 948 951
f 946 943 950
f 947 951 950
f 948 952 951
f 953 954 955
f 534 546 545
f 533 545 937
f 545 956 937
f 545 546 956
f 936 937 939
f 937 957 939
f 937 956 957
f 551 552 555
f 555 552 953
f 555 953 958
f 544 554 546
f 546 959 956
f 546 554 959
f 553 555 554
f 555 958 554
f 554 958 959
f 958 953 955
f 958 955 960
f 958 960 959
f 959 960 961
f 956 961 957
f 956 959 961
f 962 954 963
f 955 954 962
f 955 962 964
f 923 963 924
f 962 963 965
f 923 965 963
f 962 965 966
f 962 966 964
f 964 967 968
f 964 966 967
f 969 968 967
f 938 939 949
f 939 970 949
f 939 957 970
f 948 949 952
f 949 971 952
f 949 970 971
f 970 972 971
f 973 961 968
f 955 964 960
f 968 961 960
f 964 968 960
f 973 957 961
f 973 970 957
f 973 968 969
f 973 972 970
f 973 969 972
f 701 912 974
f 701 974 763
f 912 913 975
f 912 975 974
f 763 974 976
f 974 975 977
f 913 914 978
f 913 978 975
f 914 915 979
f 914 979 978
f 975 978 980
f 978 979 981
f 763 976 765
f 974 977 976
f 765 976 982
f 976 977 983
f 975 980 977
f 978 981 980
f 979 984 981
f 977 980 985
f 980 981 986
f 981 984 987
f 915 919 988
f 915 988 979
f 919 920 989
f 919 989 988
f 979 988 984
f 988 989 990
f 920 921 991
f 920 991 989
f 921 922 992
f 921 992 991
f 989 991 993
f 991 992 994
f 988 990 984
f 989 993 990
f 984 990 995
f 990 993 996
f 991 994 993
f 992 997 994
f 993 994 998
f 994 997 999
f 765 982 770
f 976 983 982
f 977 985 983
f 980 986 985
f 981 987 986
f 770 982 1000
f 770 1000 788
f 982 1001 1000
f 982 983 1001
f 983 985 1002
f 983 1002 1001
f 985 986 1003
f 985 1003 1002
f 986 987 1004
f 986 1004 1003
f 987 1005 1004
f 788 1000 1006
f 1000 1001 1007
f 1001 1002 1008
f 788 1006 796
f 1000 1007 1006
f 1001 1008 1007
f 1002 1009 1008
f 796 1006 793
f 1006 1007 793
f 1007 1008 793
f 1008 1009 793
f 1009 1010 793
f 1010 1011 793
f 1002 1003 1009
f 1003 1004 1010
f 1004 1005 1011
f 1009 1003 1010
f 1004 1011 1010
f 1005 1012 1011
f 1011 1012 793
f 1012 1013 793
f 1013 1014 793
f 1014 1015 793
f 1015 1016 793
f 1016 1017 793
f 984 995 987
f 990 996 995
f 993 998 996
f 987 995 1005
f 995 996 1018
f 995 1018 1005
f 996 998 1019
f 996 1019 1018
f 998 1020 1019
f 994 999 998
f 997 1021 999
f 998 999 1020
f 999 1022 1020
f 999 1021 1022
f 1021 1023 1024
f 1021 1024 1022
f 1024 1023 1025
f 1005 1018 1012
f 1013 1018 1019
f 1019 1020 1014
f 1020 1022 1015
f 1012 1018 1013
f 1013 1019 1014
f 1017 1026 793
f 1020 1015 1014
f 1015 1022 1016
f 1022 1024 1016
f 1024 1025 1017
f 1025 1027 1026
f 1024 1017 1016
f 1025 1026 1017
f 819 820 1028
f 1028 820 1029
f 1028 1029 1030
f 1030 1029 1031
f 820 826 1029
f 1029 1032 1031
f 1030 1031 1033
f 1033 1031 1034
f 1033 1034 1035
f 1035 1034 1036
f 1031 1037 1034
f 1034 1038 1036
f 1029 826 1032
f 1031 1032 1037
f 826 855 1032
f 1032 1039 1037
f 1034 1037 1038
f 1036 1038 1040
f 1037 1041 1038
f 1038 1042 1040
f 1040 1043 1044
f 1035 1036 1045
f 1045 1036 1046
f 1045 1046 925
f 925 1046 1047
f 1036 1040 1046
f 1046 1044 1047
f 923 925 1047
f 923 1047 1048
f 923 1048 965
f 965 1048 1049
f 1047 1050 1048
f 1048 1051 1049
f 1049 1052 1053
f 1040 1044 1046
f 1047 1044 1050
f 1044 1054 1050
f 1050 1055 1051
f 1051 1056 1052
f 1057 1058 1052
f 1059 1060 1058
f 1048 1050 1051
f 1049 1051 1052
f 1058 1053 1052
f 793 1061 849
f 793 1062 1061
f 793 1063 1062
f 793 1064 1063
f 793 1065 1064
f 793 1066 1065
f 793 1067 1066
f 793 1068 1067
f 793 1069 1068
f 793 1070 1069
f 793 1071 1070
f 793 1072 1071
f 1066 1067 1073
f 856 1039 855
f 856 1074 1039
f 1074 1041 1039
f 1075 1042 1041
f 1074 1075 1041
f 1075 1076 1042
f 1032 855 1039
f 1037 1039 1041
f 1040 1042 1043
f 1044 1043 1054
f 1076 1043 1042
f 1076 1077 1043
f 1077 1054 1043
f 1077 1078 1054
f 1038 1041 1042
f 849 1074 856
f 1061 1075 1074
f 1062 1076 1075
f 849 1061 1074
f 1061 1062 1075
f 1062 1063 1076
f 1063 1077 1076
f 1064 1078 1077
f 1065 1079 1078
f 1066 1073 1079
f 1063 1064 1077
f 1064 1065 1078
f 1065 1066 1079
f 1026 1080 793
f 1080 1081 793
f 793 1081 1072
f 1067 1068 1082
f 1068 1069 1083
f 1069 1070 1084
f 1080 1027 1085
f 1085 1086 1081
f 1026 1027 1080
f 1080 1085 1081
f 1070 1087 1084
f 1071 1088 1087
f 1072 1086 1088
f 1081 1086 1072
f 1071 1072 1088
f 1071 1087 1070
f 1050 1054 1055
f 1051 1055 1056
f 1079 1073 1056
f 1078 1055 1054
f 1079 1056 1055
f 1078 1079 1055
f 1057 1073 1082
f 1057 1056 1073
f 1057 1052 1056
f 1057 1059 1058
f 1089 1060 1059
f 1089 1059 1083
f 1059 1082 1083
f 1089 1083 1084
f 1057 1082 1059
f 1089 1084 1090
f 1084 1087 1090
f 1067 1082 1073
f 1068 1083 1082
f 1069 1084 1083
f 922 944 1091
f 922 1091 992
f 944 945 1092
f 944 1092 1091
f 992 1091 997
f 1091 1092 1093
f 945 946 1094
f 945 1094 1092
f 997 1091 1093
f 946 950 1095
f 946 1095 1094
f 1092 1094 1096
f 1094 1095 1097
f 1095 1098 1099
f 1092 1096 1093
f 997 1093 1021
f 1093 1096 1023
f 1096 1097 1100
f 1094 1097 1096
f 1095 1099 1097
f 1099 1098 1101
f 1097 1099 1102
f 950 1098 1095
f 950 951 1098
f 951 1103 1098
f 1021 1093 1023
f 1096 1100 1023
f 1097 1102 1100
f 1025 1023 1100
f 1025 1100 1027
f 1102 1085 1027
f 1100 1102 1027
f 1099 1104 1102
f 1101 1098 1103
f 1103 1105 1106
f 1101 1103 1106
f 1099 1101 1104
f 1106 1105 1107
f 1101 1106 1108
f 1106 1107 1109
f 1110 1060 1111
f 966 1049 1053
f 965 1049 966
f 966 1053 967
f 967 1053 1110
f 1058 1110 1053
f 969 1110 1111
f 972 969 1111
f 972 1111 1112
f 1112 1111 1113
f 1112 1107 1105
f 969 967 1110
f 1058 1060 1110
f 1113 1111 1060
f 1089 1113 1060
f 1113 1090 1107
f 1112 1113 1107
f 952 1105 1103
f 951 952 1103
f 952 971 1105
f 971 1112 1105
f 971 972 1112
f 1102 1104 1085
f 1104 1108 1086
f 1104 1086 1085
f 1088 1086 1108
f 1088 1109 1087
f 1088 1108 1109
f 1101 1108 1104
f 1106 1109 1108
f 1089 1090 1113
f 1107 1090 1109
f 1087 1109 1090
f 614 604 1114
f 614 1114 1115
f 614 1115 1116
f 600 604 614
f 614 1116 1117
f 614 1118 615
f 614 1117 1118
f 1119 1120 1121
f 1118 1117 1122
f 1118 1122 1123
f 1118 1123 1124
f 1118 1124 1120
f 1118 1120 1119
f 1118 1119 1125
f 1118 1125 1126
f 892 1127 893
f 892 1128 1127
f 1128 1129 1127
f 1128 1130 1129
f 1128 1131 1130
f 1131 1132 1130
f 1131 1133 1132
f 1131 1134 1133
f 1134 1135 1133
f 1134 1136 1135
f 892 819 1128
f 1128 1028 1131
f 1128 819 1028
f 1131 1028 1030
f 1131 1030 1134
f 1134 1033 1137
f 1134 1030 1033
f 1137 1138 1136
f 1137 1139 1138
f 1119 1140 1139
f 1137 1119 1139
f 1119 1141 1140
f 1119 1121 1141
f 1134 1137 1136
f 1137 1142 1119
f 1142 1125 1119
f 1143 1144 1125
f 1142 1143 1125
f 1143 924 1144
f 1137 1035 1142
f 1142 1045 1143
f 1033 1035 1137
f 1142 1035 1045
f 1143 925 924
f 1143 1045 925
f 612 614 615
f 613 615 617
f 1118 1126 615
f 617 1126 1145
f 615 1126 617
f 616 617 618
f 618 617 1145
f 618 1145 1146
f 618 1146 552
f 1146 953 552
f 1145 1126 1144
f 1125 1144 1126
f 1145 1144 1147
f 1145 1147 1146
f 1146 1147 954
f 1146 954 953
f 550 618 552
f 924 1147 1144
f 1147 963 954
f 924 963 1147
f 1148 265 267
f 1148 1149 265
f 1149 266 265
f 1149 268 266
f 1149 269 268
f 1148 1150 1149
f 1149 1151 1152
f 1152 1153 272
f 1149 1152 269
f 1152 271 269
f 1152 272 271
f 1153 273 272
f 1152 1154 1153
f 1150 1151 1149
f 1154 1155 1153
f 1152 1151 1154
f 1148 267 1156
f 1156 295 296
f 1156 267 295
f 1157 297 299
f 1156 296 298
f 1156 298 297
f 300 303 301
f 1158 303 304
f 1158 304 305
f 1157 306 301
f 1157 299 306
f 1158 301 303
f 1157 1156 297
f 1157 301 1158
f 1148 1156 1150
f 1159 305 307
f 1159 307 308
f 1159 308 309
f 1160 309 310
f 1160 310 311
f 1160 312 313
f 1160 311 312
f 1161 313 314
f 1158 305 1159
f 1159 309 1160
f 1160 313 1161
f 1157 1162 1156
f 1157 1158 1163
f 1150 1156 1164
f 1150 1165 1151
f 1151 1166 1154
f 1154 1167 1155
f 1154 1166 1167
f 1151 1165 1166
f 1167 1168 1155
f 1150 1164 1165
f 1156 1162 1164
f 1158 1159 1169
f 1158 1169 1163
f 1159 1160 1170
f 1160 1161 1171
f 1159 1170 1169
f 1160 1171 1170
f 1157 1163 1162
f 1162 1163 1172
f 1165 1172 1166
f 1164 1172 1165
f 1167 1166 1172
f 1167 1172 1168
f 1164 1162 1172
f 1169 1172 1163
f 1169 1170 1172
f 1170 1171 1172
f 1153 1173 559
f 1153 559 273
f 1173 560 559
f 1173 561 560
f 1173 563 561
f 1153 1155 1173
f 1173 1174 1175
f 1173 1175 563
f 1175 564 563
f 1175 565 564
f 1175 1176 565
f 1176 566 565
f 1176 568 566
f 1175 1177 1176
f 1173 1155 1174
f 1175 1174 1177
f 1177 1178 1176
f 1176 1178 568
f 1178 569 568
f 1178 574 569
f 1178 575 574
f 1178 576 575
f 1179 577 576
f 1179 578 577
f 1179 580 578
f 1179 582 580
f 1180 583 582
f 1180 584 583
f 1180 585 584
f 1181 589 585
f 1181 590 589
f 1181 591 590
f 1181 592 591
f 1178 1179 576
f 1179 1180 582
f 1180 1181 585
f 1181 593 592
f 1181 596 593
f 1182 597 596
f 1182 598 597
f 1182 599 598
f 1182 601 599
f 1183 602 601
f 1183 603 602
f 1183 604 603
f 1181 1182 596
f 1182 1183 601
f 1155 1168 1174
f 1174 1184 1177
f 1174 1168 1184
f 1177 1184 1185
f 1177 1185 1178
f 1178 1186 1179
f 1178 1185 1186
f 1179 1186 1187
f 1180 1187 1188
f 1179 1187 1180
f 1180 1188 1181
f 1168 1172 1184
f 1184 1172 1185
f 1185 1172 1186
f 1186 1172 1187
f 1187 1172 1188
f 1188 1172 1189
f 1172 1190 1189
f 1172 1191 1190
f 1172 1192 1191
f 1181 1189 1182
f 1181 1188 1189
f 1182 1189 1190
f 1182 1190 1183
f 1183 1191 1193
f 1183 1190 1191
f 1191 1192 1193
f 1161 314 862
f 1161 862 863
f 1161 863 864
f 1194 864 865
f 1194 865 866
f 1194 866 867
f 1194 867 869
f 1195 869 870
f 1195 870 872
f 1195 872 873
f 1195 873 878
f 1195 878 879
f 1161 864 1194
f 1194 869 1195
f 1196 876 877
f 1196 877 881
f 1197 881 882
f 1196 881 1197
f 1198 879 875
f 1198 875 876
f 1196 1198 876
f 1196 1197 1199
f 1195 879 1198
f 1196 1199 1198
f 1197 882 884
f 1200 884 885
f 1200 885 887
f 1201 887 888
f 1201 888 890
f 1202 890 891
f 1202 891 893
f 1197 884 1200
f 1200 887 1201
f 1197 1200 1203
f 1201 890 1202
f 1200 1201 1204
f 1201 1202 1205
f 1197 1203 1199
f 1200 1204 1203
f 1201 1205 1204
f 1161 1194 1206
f 1161 1206 1171
f 1194 1207 1206
f 1194 1195 1207
f 1195 1198 1208
f 1195 1208 1207
f 1198 1209 1208
f 1172 1171 1206
f 1172 1206 1207
f 1172 1207 1208
f 1172 1208 1209
f 1172 1209 1210
f 1172 1210 1211
f 1172 1211 1212
f 1198 1199 1209
f 1199 1203 1210
f 1199 1210 1209
f 1203 1204 1211
f 1203 1211 1210
f 1204 1212 1211
f 1204 1205 1212
f 1117 1116 1122
f 1183 1114 604
f 1193 1115 1114
f 1193 1116 1115
f 1193 1122 1116
f 1213 1121 1120
f 1214 1141 1121
f 1214 1140 1141
f 1213 1123 1122
f 1213 1124 1123
f 1213 1120 1124
f 1183 1193 1114
f 1193 1213 1122
f 1213 1214 1121
f 1202 893 1127
f 1215 1127 1129
f 1216 1129 1130
f 1216 1130 1132
f 1217 1132 1133
f 1217 1133 1135
f 1202 1127 1215
f 1215 1129 1216
f 1202 1215 1218
f 1216 1132 1217
f 1216 1217 1219
f 1215 1216 1220
f 1217 1221 1219
f 1202 1218 1205
f 1215 1220 1218
f 1216 1219 1220
f 1222 1135 1136
f 1222 1136 1138
f 1222 1138 1139
f 1222 1217 1135
f 1214 1139 1140
f 1222 1139 1214
f 1222 1221 1217
f 1222 1214 1221
f 1214 1223 1224
f 1219 1225 1226
f 1221 1224 1225
f 1172 1225 1224
f 1172 1227 1226
f 1172 1226 1225
f 1172 1223 1192
f 1172 1224 1223
f 1172 1212 1228
f 1172 1228 1227
f 1193 1192 1213
f 1213 1192 1223
f 1213 1223 1214
f 1221 1214 1224
f 1218 1220 1227
f 1220 1226 1227
f 1218 1227 1228
f 1205 1228 1212
f 1221 1225 1219
f 1220 1219 1226
f 1205 1218 1228
