# sionna2 mesh — matrice4e__pcb.obj
# group=pcb  verts=30  tris=52
v -0.012968 0.000000 0.046177
v -0.016418 0.000000 0.046177
v -0.013627 0.002560 0.046177
v -0.012968 0.000000 0.092262
v -0.013627 0.002560 0.092262
v -0.016418 0.000000 0.092262
v -0.015352 0.004142 0.046177
v -0.015352 0.004142 0.092262
v -0.017484 0.004142 0.046177
v -0.017484 0.004142 0.092262
v -0.019209 0.002560 0.046177
v -0.019209 0.002560 0.092262
v -0.019868 0.000000 0.046177
v -0.019868 0.000000 0.092262
v -0.019209 -0.002560 0.046177
v -0.019209 -0.002560 0.092262
v -0.017484 -0.004142 0.046177
v -0.017484 -0.004142 0.092262
v -0.015352 -0.004142 0.046177
v -0.015352 -0.004142 0.092262
v -0.013627 -0.002560 0.046177
v -0.013627 -0.002560 0.092262
v -0.027911 -0.045623 0.018042
v -0.027911 0.045623 0.018042
v -0.027911 -0.045623 0.014309
v 0.034478 -0.045623 0.014309
v -0.027911 0.045623 0.014309
v 0.034478 0.045623 0.018042
v 0.034478 -0.045623 0.018042
v 0.034478 0.045623 0.014309
f 1 2 3
f 1 3 4
f 4 3 5
f 4 5 6
f 3 2 7
f 3 7 5
f 5 7 8
f 5 8 6
f 7 2 9
f 7 9 8
f 8 9 10
f 8 10 6
f 9 2 11
f 9 11 10
f 10 11 12
f 10 12 6
f 11 2 13
f 11 13 12
f 12 13 14
f 12 14 6
f 13 2 15
f 13 15 14
f 14 15 16
f 14 16 6
f 15 2 17
f 15 17 16
f 16 17 18
f 16 18 6
f 17 2 19
f 17 19 18
f 18 19 20
f 18 20 6
f 19 2 21
f 19 21 20
f 20 21 22
f 20 22 6
f 21 2 1
f 21 1 22
f 22 1 4
f 22 4 6
f 23 24 25
f 26 23 25
f 25 24 27
f 27 26 25
f 23 28 24
f 29 23 26
f 29 28 23
f 24 28 27
f 30 26 27
f 27 28 30
f 30 29 26
f 28 29 30
