# sionna2 mesh — matrice4e__motor.obj
# group=motor  verts=1016  tris=2016
v 0.133737 0.176601 -0.008509
v 0.131979 0.175126 -0.006879
v 0.132994 0.177661 -0.008509
v 0.131007 0.176514 -0.006879
v 0.133177 0.173928 -0.006879
v 0.132112 0.180084 -0.008509
v 0.129852 0.179686 -0.006879
v 0.132000 0.181374 -0.008509
v 0.129705 0.181374 -0.006879
v 0.132112 0.182663 -0.008509
v 0.132447 0.178834 -0.008509
v 0.130291 0.178049 -0.006879
v 0.129852 0.183062 -0.006879
v 0.132447 0.183913 -0.008509
v 0.130291 0.184698 -0.006879
v 0.132994 0.185086 -0.008509
v 0.131007 0.186234 -0.006879
v 0.133737 0.186147 -0.008509
v 0.131979 0.187622 -0.006879
v 0.134652 0.187062 -0.008509
v 0.133177 0.188820 -0.006879
v 0.139425 0.181374 -0.008509
v 0.134652 0.175686 -0.008509
v 0.135712 0.174944 -0.008509
v 0.136885 0.174397 -0.008509
v 0.138135 0.174062 -0.008509
v 0.139425 0.173949 -0.008509
v 0.140714 0.174062 -0.008509
v 0.141964 0.174397 -0.008509
v 0.143137 0.174944 -0.008509
v 0.144197 0.175686 -0.008509
v 0.145113 0.176601 -0.008509
v 0.134565 0.172956 -0.006879
v 0.137737 0.171802 -0.006879
v 0.136100 0.172240 -0.006879
v 0.139425 0.171654 -0.006879
v 0.141113 0.171802 -0.006879
v 0.142749 0.172240 -0.006879
v 0.144285 0.172956 -0.006879
v 0.135712 0.187804 -0.008509
v 0.136885 0.188351 -0.008509
v 0.138135 0.188686 -0.008509
v 0.139425 0.188799 -0.008509
v 0.140714 0.188686 -0.008509
v 0.141964 0.188351 -0.008509
v 0.143137 0.187804 -0.008509
v 0.144197 0.187062 -0.008509
v 0.145113 0.186147 -0.008509
v 0.134565 0.189792 -0.006879
v 0.136100 0.190508 -0.006879
v 0.137737 0.190946 -0.006879
v 0.139425 0.191094 -0.006879
v 0.141113 0.190946 -0.006879
v 0.142749 0.190508 -0.006879
v 0.145855 0.177661 -0.008509
v 0.146402 0.178834 -0.008509
v 0.146737 0.180084 -0.008509
v 0.146850 0.181374 -0.008509
v 0.146737 0.182663 -0.008509
v 0.146402 0.183913 -0.008509
v 0.145673 0.173928 -0.006879
v 0.146871 0.175126 -0.006879
v 0.147842 0.176514 -0.006879
v 0.148558 0.178049 -0.006879
v 0.148997 0.179686 -0.006879
v 0.149145 0.181374 -0.006879
v 0.148997 0.183062 -0.006879
v 0.145855 0.185086 -0.008509
v 0.144285 0.189792 -0.006879
v 0.145673 0.188820 -0.006879
v 0.147842 0.186234 -0.006879
v 0.148558 0.184698 -0.006879
v 0.146871 0.187622 -0.006879
v 0.126927 0.179170 -0.004923
v 0.126735 0.181374 -0.004923
v 0.128435 0.175029 -0.004923
v 0.129704 0.173217 -0.004923
v 0.133080 0.170384 -0.004923
v 0.131268 0.171653 -0.004923
v 0.127500 0.177034 -0.004923
v 0.126927 0.183577 -0.004923
v 0.127500 0.185714 -0.004923
v 0.128435 0.187719 -0.004923
v 0.129704 0.189531 -0.004923
v 0.131268 0.191095 -0.004923
v 0.133080 0.192364 -0.004923
v 0.137221 0.168877 -0.004923
v 0.135084 0.169449 -0.004923
v 0.139425 0.168684 -0.004923
v 0.141628 0.168877 -0.004923
v 0.143765 0.169449 -0.004923
v 0.135084 0.193299 -0.004923
v 0.137221 0.193871 -0.004923
v 0.139425 0.194064 -0.004923
v 0.141628 0.193871 -0.004923
v 0.145770 0.170384 -0.004923
v 0.147582 0.171653 -0.004923
v 0.149146 0.173217 -0.004923
v 0.150415 0.175029 -0.004923
v 0.151349 0.177034 -0.004923
v 0.151922 0.179170 -0.004923
v 0.152115 0.181374 -0.004923
v 0.151922 0.183577 -0.004923
v 0.149146 0.189531 -0.004923
v 0.143765 0.193299 -0.004923
v 0.145770 0.192364 -0.004923
v 0.147582 0.191095 -0.004923
v 0.151349 0.185714 -0.004923
v 0.150415 0.187719 -0.004923
v 0.134807 0.168688 0.000455
v 0.132675 0.169683 0.000455
v 0.127733 0.174624 0.000455
v 0.126130 0.179030 0.000455
v 0.125925 0.181374 0.000455
v 0.126739 0.176757 0.000455
v 0.130747 0.171032 0.000455
v 0.129083 0.172696 0.000455
v 0.126130 0.183718 0.000455
v 0.126739 0.185991 0.000455
v 0.127733 0.188124 0.000455
v 0.129083 0.190051 0.000455
v 0.130747 0.191715 0.000455
v 0.132675 0.193065 0.000455
v 0.137080 0.168079 0.000455
v 0.139425 0.167874 0.000455
v 0.141769 0.168079 0.000455
v 0.144042 0.168688 0.000455
v 0.146175 0.169683 0.000455
v 0.148102 0.171032 0.000455
v 0.134807 0.194060 0.000455
v 0.137080 0.194669 0.000455
v 0.139425 0.194874 0.000455
v 0.141769 0.194669 0.000455
v 0.149766 0.172696 0.000455
v 0.151116 0.174624 0.000455
v 0.152111 0.176757 0.000455
v 0.152720 0.179030 0.000455
v 0.152925 0.181374 0.000455
v 0.144042 0.194060 0.000455
v 0.146175 0.193065 0.000455
v 0.152720 0.183718 0.000455
v 0.152111 0.185991 0.000455
v 0.151116 0.188124 0.000455
v 0.148102 0.191715 0.000455
v 0.149766 0.190051 0.000455
v 0.132945 0.170150 0.004855
v 0.134992 0.169195 0.004855
v 0.129497 0.173043 0.004855
v 0.128201 0.174894 0.004855
v 0.126662 0.179123 0.004855
v 0.126465 0.181374 0.004855
v 0.127246 0.176941 0.004855
v 0.131094 0.171446 0.004855
v 0.126662 0.183624 0.004855
v 0.127246 0.185806 0.004855
v 0.128201 0.187854 0.004855
v 0.129497 0.189704 0.004855
v 0.131094 0.191302 0.004855
v 0.132945 0.192598 0.004855
v 0.137174 0.168611 0.004855
v 0.139425 0.168414 0.004855
v 0.141675 0.168611 0.004855
v 0.143857 0.169195 0.004855
v 0.145905 0.170150 0.004855
v 0.147755 0.171446 0.004855
v 0.134992 0.193552 0.004855
v 0.137174 0.194137 0.004855
v 0.139425 0.194334 0.004855
v 0.141675 0.194137 0.004855
v 0.149353 0.173043 0.004855
v 0.150648 0.174894 0.004855
v 0.151603 0.176941 0.004855
v 0.152188 0.179123 0.004855
v 0.152385 0.181374 0.004855
v 0.143857 0.193552 0.004855
v 0.145905 0.192598 0.004855
v 0.152188 0.183624 0.004855
v 0.151603 0.185806 0.004855
v 0.150648 0.187854 0.004855
v 0.147755 0.191302 0.004855
v 0.149353 0.189704 0.004855
v 0.130072 0.175974 0.006974
v 0.129276 0.177680 0.006974
v 0.128789 0.179498 0.006974
v 0.128625 0.181374 0.006974
v 0.132483 0.173101 0.006974
v 0.131151 0.174432 0.006974
v 0.134025 0.172021 0.006974
v 0.128789 0.183249 0.006974
v 0.129276 0.185068 0.006974
v 0.130072 0.186774 0.006974
v 0.131151 0.188316 0.006974
v 0.132483 0.189647 0.006974
v 0.134025 0.190727 0.006974
v 0.135081 0.177729 0.007789
v 0.135780 0.177030 0.007789
v 0.134514 0.178539 0.007789
v 0.134097 0.179435 0.007789
v 0.133841 0.180389 0.007789
v 0.133755 0.181374 0.007789
v 0.133841 0.182358 0.007789
v 0.134097 0.183313 0.007789
v 0.134514 0.184209 0.007789
v 0.135081 0.185018 0.007789
v 0.135731 0.171225 0.006974
v 0.137549 0.170738 0.006974
v 0.139425 0.170574 0.006974
v 0.141300 0.170738 0.006974
v 0.143119 0.171225 0.006974
v 0.144825 0.172021 0.006974
v 0.135731 0.191523 0.006974
v 0.137549 0.192010 0.006974
v 0.139425 0.192174 0.006974
v 0.141300 0.192010 0.006974
v 0.143119 0.191523 0.006974
v 0.146367 0.173101 0.006974
v 0.147698 0.174432 0.006974
v 0.148778 0.175974 0.006974
v 0.149573 0.177680 0.006974
v 0.150061 0.179498 0.006974
v 0.150225 0.181374 0.006974
v 0.150061 0.183249 0.006974
v 0.144825 0.190727 0.006974
v 0.146367 0.189647 0.006974
v 0.147698 0.188316 0.006974
v 0.148778 0.186774 0.006974
v 0.149573 0.185068 0.006974
v 0.137485 0.176046 0.007789
v 0.136590 0.176463 0.007789
v 0.138440 0.175790 0.007789
v 0.139425 0.175704 0.007789
v 0.139425 0.181374 0.007789
v 0.140409 0.175790 0.007789
v 0.141364 0.176046 0.007789
v 0.142260 0.176463 0.007789
v 0.143069 0.177030 0.007789
v 0.143768 0.177729 0.007789
v 0.144335 0.178539 0.007789
v 0.144753 0.179435 0.007789
v 0.145009 0.180389 0.007789
v 0.145095 0.181374 0.007789
v 0.145009 0.182358 0.007789
v 0.144753 0.183313 0.007789
v 0.135780 0.185717 0.007789
v 0.136590 0.186284 0.007789
v 0.137485 0.186702 0.007789
v 0.138440 0.186958 0.007789
v 0.139425 0.187044 0.007789
v 0.140409 0.186958 0.007789
v 0.141364 0.186702 0.007789
v 0.143768 0.185018 0.007789
v 0.143069 0.185717 0.007789
v 0.142260 0.186284 0.007789
v 0.144335 0.184209 0.007789
v -0.139471 0.144787 -0.012742
v -0.141675 0.144980 -0.012742
v -0.141159 0.147905 -0.014698
v -0.137268 0.144980 -0.012742
v -0.139471 0.147757 -0.014698
v -0.135131 0.145553 -0.012742
v -0.137783 0.147905 -0.014698
v -0.143811 0.145553 -0.012742
v -0.144089 0.144791 -0.007364
v -0.145816 0.146487 -0.012742
v -0.141815 0.144182 -0.007364
v -0.139471 0.143977 -0.007364
v -0.137127 0.144182 -0.007364
v -0.134854 0.144791 -0.007364
v -0.133126 0.146487 -0.012742
v -0.132721 0.145786 -0.007364
v -0.144244 0.151789 -0.016328
v -0.145719 0.150031 -0.014698
v -0.145159 0.152705 -0.016328
v -0.143184 0.151047 -0.016328
v -0.144331 0.149060 -0.014698
v -0.139471 0.157477 -0.016328
v -0.145901 0.153765 -0.016328
v -0.146448 0.154938 -0.016328
v -0.146783 0.156188 -0.016328
v -0.146896 0.157477 -0.016328
v -0.146783 0.158767 -0.016328
v -0.148605 0.154153 -0.014698
v -0.146917 0.151229 -0.014698
v -0.147889 0.152617 -0.014698
v -0.149044 0.155789 -0.014698
v -0.149191 0.157477 -0.014698
v -0.142796 0.148344 -0.014698
v -0.146448 0.160017 -0.016328
v -0.145901 0.161190 -0.016328
v -0.145159 0.162250 -0.016328
v -0.149044 0.159165 -0.014698
v -0.148605 0.160802 -0.014698
v -0.147889 0.162337 -0.014698
v -0.146917 0.163725 -0.014698
v -0.144244 0.163165 -0.016328
v -0.145719 0.164923 -0.014698
v -0.143184 0.163908 -0.016328
v -0.144331 0.165895 -0.014698
v -0.142011 0.150500 -0.016328
v -0.140761 0.150165 -0.016328
v -0.139471 0.150052 -0.016328
v -0.138182 0.150165 -0.016328
v -0.136932 0.150500 -0.016328
v -0.136147 0.148344 -0.014698
v -0.135759 0.151047 -0.016328
v -0.134611 0.149060 -0.014698
v -0.134699 0.151789 -0.016328
v -0.133223 0.150031 -0.014698
v -0.133783 0.152705 -0.016328
v -0.133041 0.153765 -0.016328
v -0.132494 0.154938 -0.016328
v -0.132159 0.156188 -0.016328
v -0.132046 0.157477 -0.016328
v -0.132159 0.158767 -0.016328
v -0.142011 0.164455 -0.016328
v -0.140761 0.164790 -0.016328
v -0.139471 0.164902 -0.016328
v -0.138182 0.164790 -0.016328
v -0.142796 0.166611 -0.014698
v -0.141159 0.167050 -0.014698
v -0.139471 0.167197 -0.014698
v -0.136932 0.164455 -0.016328
v -0.135759 0.163908 -0.016328
v -0.134699 0.163165 -0.016328
v -0.133783 0.162250 -0.016328
v -0.133041 0.161190 -0.016328
v -0.132494 0.160017 -0.016328
v -0.134611 0.165895 -0.014698
v -0.133223 0.164923 -0.014698
v -0.137783 0.167050 -0.014698
v -0.136147 0.166611 -0.014698
v -0.149192 0.149320 -0.012742
v -0.150461 0.151132 -0.012742
v -0.151396 0.153137 -0.012742
v -0.151968 0.155274 -0.012742
v -0.152161 0.157477 -0.012742
v -0.147628 0.147756 -0.012742
v -0.151968 0.159681 -0.012742
v -0.151396 0.161818 -0.012742
v -0.150461 0.163822 -0.012742
v -0.149192 0.165634 -0.012742
v -0.147628 0.167198 -0.012742
v -0.145816 0.168467 -0.012742
v -0.143811 0.169402 -0.012742
v -0.141675 0.169975 -0.012742
v -0.139471 0.170167 -0.012742
v -0.137268 0.169975 -0.012742
v -0.135131 0.169402 -0.012742
v -0.133126 0.168467 -0.012742
v -0.132025 0.151229 -0.014698
v -0.131053 0.152617 -0.014698
v -0.130337 0.154153 -0.014698
v -0.129899 0.155789 -0.014698
v -0.129751 0.157477 -0.014698
v -0.129899 0.159165 -0.014698
v -0.131053 0.162337 -0.014698
v -0.130337 0.160802 -0.014698
v -0.132025 0.163725 -0.014698
v -0.131314 0.147756 -0.012742
v -0.129750 0.149320 -0.012742
v -0.128481 0.151132 -0.012742
v -0.127547 0.153137 -0.012742
v -0.126974 0.155274 -0.012742
v -0.126781 0.157477 -0.012742
v -0.126974 0.159681 -0.012742
v -0.127547 0.161818 -0.012742
v -0.129750 0.165634 -0.012742
v -0.128481 0.163822 -0.012742
v -0.131314 0.167198 -0.012742
v -0.151163 0.150727 -0.007364
v -0.148149 0.147136 -0.007364
v -0.149813 0.148800 -0.007364
v -0.152157 0.152860 -0.007364
v -0.152766 0.155133 -0.007364
v -0.152971 0.157477 -0.007364
v -0.146221 0.145786 -0.007364
v -0.152766 0.159822 -0.007364
v -0.152157 0.162095 -0.007364
v -0.151163 0.164227 -0.007364
v -0.149813 0.166155 -0.007364
v -0.148149 0.167819 -0.007364
v -0.146221 0.169169 -0.007364
v -0.144089 0.170163 -0.007364
v -0.141815 0.170772 -0.007364
v -0.139471 0.170977 -0.007364
v -0.137127 0.170772 -0.007364
v -0.134854 0.170163 -0.007364
v -0.130794 0.147136 -0.007364
v -0.129130 0.148800 -0.007364
v -0.127780 0.150727 -0.007364
v -0.126785 0.152860 -0.007364
v -0.126176 0.155133 -0.007364
v -0.125971 0.157477 -0.007364
v -0.132721 0.169169 -0.007364
v -0.130794 0.167819 -0.007364
v -0.129130 0.166155 -0.007364
v -0.126785 0.162095 -0.007364
v -0.127780 0.164227 -0.007364
v -0.126176 0.159822 -0.007364
v -0.143904 0.145299 -0.002964
v -0.141722 0.144714 -0.002964
v -0.139471 0.144517 -0.002964
v -0.137221 0.144714 -0.002964
v -0.135039 0.145299 -0.002964
v -0.145951 0.146254 -0.002964
v -0.132991 0.146254 -0.002964
v -0.150695 0.150997 -0.002964
v -0.147802 0.147549 -0.002964
v -0.149399 0.149147 -0.002964
v -0.151650 0.153045 -0.002964
v -0.152234 0.155227 -0.002964
v -0.152431 0.157477 -0.002964
v -0.152234 0.159728 -0.002964
v -0.151650 0.161910 -0.002964
v -0.150695 0.163957 -0.002964
v -0.149399 0.165808 -0.002964
v -0.147802 0.167405 -0.002964
v -0.145951 0.168701 -0.002964
v -0.143904 0.169656 -0.002964
v -0.137221 0.170240 -0.002964
v -0.135039 0.169656 -0.002964
v -0.141722 0.170240 -0.002964
v -0.139471 0.170437 -0.002964
v -0.131141 0.147549 -0.002964
v -0.129543 0.149147 -0.002964
v -0.128248 0.150997 -0.002964
v -0.127293 0.153045 -0.002964
v -0.126708 0.155227 -0.002964
v -0.126511 0.157477 -0.002964
v -0.132991 0.168701 -0.002964
v -0.131141 0.167405 -0.002964
v -0.127293 0.161910 -0.002964
v -0.128248 0.163957 -0.002964
v -0.126708 0.159728 -0.002964
v -0.129543 0.165808 -0.002964
v -0.141347 0.146841 -0.000845
v -0.139471 0.146677 -0.000845
v -0.137596 0.146841 -0.000845
v -0.135777 0.147329 -0.000845
v -0.148824 0.152077 -0.000845
v -0.147745 0.150535 -0.000845
v -0.149620 0.153784 -0.000845
v -0.150107 0.155602 -0.000845
v -0.150271 0.157477 -0.000845
v -0.146413 0.149204 -0.000845
v -0.144871 0.148124 -0.000845
v -0.143165 0.147329 -0.000845
v -0.150107 0.159353 -0.000845
v -0.149620 0.161171 -0.000845
v -0.148824 0.162877 -0.000845
v -0.147745 0.164419 -0.000845
v -0.146413 0.165751 -0.000845
v -0.144871 0.166830 -0.000845
v -0.143165 0.167626 -0.000845
v -0.134071 0.148124 -0.000845
v -0.141347 0.168113 -0.000845
v -0.139471 0.168277 -0.000845
v -0.137596 0.168113 -0.000845
v -0.135777 0.167626 -0.000845
v -0.134071 0.166830 -0.000845
v -0.132529 0.149204 -0.000845
v -0.131198 0.150535 -0.000845
v -0.130118 0.152077 -0.000845
v -0.129323 0.153784 -0.000845
v -0.128835 0.155602 -0.000845
v -0.128671 0.157477 -0.000845
v -0.128835 0.159353 -0.000845
v -0.132529 0.165751 -0.000845
v -0.131198 0.164419 -0.000845
v -0.129323 0.161171 -0.000845
v -0.130118 0.162877 -0.000845
v -0.145055 0.156493 -0.000030
v -0.145141 0.157477 -0.000030
v -0.143815 0.153833 -0.000030
v -0.143116 0.153134 -0.000030
v -0.142306 0.152567 -0.000030
v -0.144382 0.154642 -0.000030
v -0.144799 0.155538 -0.000030
v -0.145055 0.158462 -0.000030
v -0.144799 0.159417 -0.000030
v -0.144382 0.160312 -0.000030
v -0.143815 0.161122 -0.000030
v -0.143116 0.161821 -0.000030
v -0.142306 0.162388 -0.000030
v -0.140456 0.151893 -0.000030
v -0.141410 0.152149 -0.000030
v -0.139471 0.151807 -0.000030
v -0.138487 0.151893 -0.000030
v -0.137532 0.152149 -0.000030
v -0.136636 0.152567 -0.000030
v -0.135827 0.153134 -0.000030
v -0.139471 0.157477 -0.000030
v -0.135128 0.153833 -0.000030
v -0.134561 0.154642 -0.000030
v -0.134143 0.155538 -0.000030
v -0.133887 0.156493 -0.000030
v -0.133801 0.157477 -0.000030
v -0.133887 0.158462 -0.000030
v -0.141410 0.162805 -0.000030
v -0.140456 0.163061 -0.000030
v -0.139471 0.163147 -0.000030
v -0.138487 0.163061 -0.000030
v -0.137532 0.162805 -0.000030
v -0.136636 0.162388 -0.000030
v -0.135827 0.161821 -0.000030
v -0.135128 0.161122 -0.000030
v -0.134561 0.160312 -0.000030
v -0.134143 0.159417 -0.000030
v -0.139471 -0.157477 -0.016328
v -0.145159 -0.162250 -0.016328
v -0.145901 -0.161190 -0.016328
v -0.146448 -0.160017 -0.016328
v -0.146783 -0.158767 -0.016328
v -0.146917 -0.163725 -0.014698
v -0.148605 -0.160802 -0.014698
v -0.149044 -0.159165 -0.014698
v -0.146896 -0.157477 -0.016328
v -0.147889 -0.162337 -0.014698
v -0.144244 -0.163165 -0.016328
v -0.145719 -0.164923 -0.014698
v -0.143184 -0.163908 -0.016328
v -0.144331 -0.165895 -0.014698
v -0.142796 -0.166611 -0.014698
v -0.146783 -0.156188 -0.016328
v -0.146448 -0.154938 -0.016328
v -0.145901 -0.153765 -0.016328
v -0.145159 -0.152705 -0.016328
v -0.149191 -0.157477 -0.014698
v -0.149044 -0.155789 -0.014698
v -0.148605 -0.154153 -0.014698
v -0.147889 -0.152617 -0.014698
v -0.146917 -0.151229 -0.014698
v -0.144244 -0.151789 -0.016328
v -0.145719 -0.150031 -0.014698
v -0.143184 -0.151047 -0.016328
v -0.144331 -0.149060 -0.014698
v -0.142011 -0.164455 -0.016328
v -0.140761 -0.164790 -0.016328
v -0.141159 -0.167050 -0.014698
v -0.139471 -0.164902 -0.016328
v -0.139471 -0.167197 -0.014698
v -0.138182 -0.164790 -0.016328
v -0.137783 -0.167050 -0.014698
v -0.136932 -0.164455 -0.016328
v -0.136147 -0.166611 -0.014698
v -0.135759 -0.163908 -0.016328
v -0.134611 -0.165895 -0.014698
v -0.134699 -0.163165 -0.016328
v -0.133783 -0.162250 -0.016328
v -0.133041 -0.161190 -0.016328
v -0.132494 -0.160017 -0.016328
v -0.132159 -0.158767 -0.016328
v -0.133223 -0.164923 -0.014698
v -0.142011 -0.150500 -0.016328
v -0.140761 -0.150165 -0.016328
v -0.139471 -0.150052 -0.016328
v -0.138182 -0.150165 -0.016328
v -0.142796 -0.148344 -0.014698
v -0.141159 -0.147905 -0.014698
v -0.139471 -0.147757 -0.014698
v -0.136932 -0.150500 -0.016328
v -0.135759 -0.151047 -0.016328
v -0.134699 -0.151789 -0.016328
v -0.132046 -0.157477 -0.016328
v -0.132159 -0.156188 -0.016328
v -0.132494 -0.154938 -0.016328
v -0.133041 -0.153765 -0.016328
v -0.133783 -0.152705 -0.016328
v -0.137783 -0.147905 -0.014698
v -0.136147 -0.148344 -0.014698
v -0.133223 -0.150031 -0.014698
v -0.134611 -0.149060 -0.014698
v -0.150461 -0.163822 -0.012742
v -0.151396 -0.161818 -0.012742
v -0.151968 -0.159681 -0.012742
v -0.149192 -0.165634 -0.012742
v -0.147628 -0.167198 -0.012742
v -0.145816 -0.168467 -0.012742
v -0.143811 -0.169402 -0.012742
v -0.152161 -0.157477 -0.012742
v -0.151968 -0.155274 -0.012742
v -0.151396 -0.153137 -0.012742
v -0.150461 -0.151132 -0.012742
v -0.149192 -0.149320 -0.012742
v -0.147628 -0.147756 -0.012742
v -0.145816 -0.146487 -0.012742
v -0.143811 -0.145553 -0.012742
v -0.141675 -0.169975 -0.012742
v -0.139471 -0.170167 -0.012742
v -0.137268 -0.169975 -0.012742
v -0.135131 -0.169402 -0.012742
v -0.133126 -0.168467 -0.012742
v -0.141675 -0.144980 -0.012742
v -0.139471 -0.144787 -0.012742
v -0.137268 -0.144980 -0.012742
v -0.135131 -0.145553 -0.012742
v -0.133126 -0.146487 -0.012742
v -0.132025 -0.163725 -0.014698
v -0.131053 -0.162337 -0.014698
v -0.130337 -0.160802 -0.014698
v -0.129899 -0.159165 -0.014698
v -0.129751 -0.157477 -0.014698
v -0.132025 -0.151229 -0.014698
v -0.131053 -0.152617 -0.014698
v -0.130337 -0.154153 -0.014698
v -0.129899 -0.155789 -0.014698
v -0.131314 -0.167198 -0.012742
v -0.129750 -0.165634 -0.012742
v -0.128481 -0.163822 -0.012742
v -0.127547 -0.161818 -0.012742
v -0.126974 -0.159681 -0.012742
v -0.126781 -0.157477 -0.012742
v -0.127547 -0.153137 -0.012742
v -0.128481 -0.151132 -0.012742
v -0.131314 -0.147756 -0.012742
v -0.129750 -0.149320 -0.012742
v -0.126974 -0.155274 -0.012742
v -0.149813 -0.166155 -0.007364
v -0.148149 -0.167819 -0.007364
v -0.151163 -0.164227 -0.007364
v -0.152157 -0.162095 -0.007364
v -0.152766 -0.159822 -0.007364
v -0.146221 -0.169169 -0.007364
v -0.144089 -0.170163 -0.007364
v -0.152971 -0.157477 -0.007364
v -0.152766 -0.155133 -0.007364
v -0.152157 -0.152860 -0.007364
v -0.151163 -0.150727 -0.007364
v -0.149813 -0.148800 -0.007364
v -0.148149 -0.147136 -0.007364
v -0.141815 -0.170772 -0.007364
v -0.139471 -0.170977 -0.007364
v -0.137127 -0.170772 -0.007364
v -0.134854 -0.170163 -0.007364
v -0.132721 -0.169169 -0.007364
v -0.130794 -0.167819 -0.007364
v -0.129130 -0.166155 -0.007364
v -0.127780 -0.164227 -0.007364
v -0.126785 -0.162095 -0.007364
v -0.126176 -0.159822 -0.007364
v -0.132721 -0.145786 -0.007364
v -0.129130 -0.148800 -0.007364
v -0.130794 -0.147136 -0.007364
v -0.126785 -0.152860 -0.007364
v -0.125971 -0.157477 -0.007364
v -0.126176 -0.155133 -0.007364
v -0.127780 -0.150727 -0.007364
v -0.146221 -0.145786 -0.007364
v -0.144089 -0.144791 -0.007364
v -0.141815 -0.144182 -0.007364
v -0.139471 -0.143977 -0.007364
v -0.137127 -0.144182 -0.007364
v -0.134854 -0.144791 -0.007364
v -0.139471 -0.170437 -0.002964
v -0.137221 -0.170240 -0.002964
v -0.149399 -0.165808 -0.002964
v -0.147802 -0.167405 -0.002964
v -0.150695 -0.163957 -0.002964
v -0.151650 -0.161910 -0.002964
v -0.152234 -0.159728 -0.002964
v -0.145951 -0.168701 -0.002964
v -0.143904 -0.169656 -0.002964
v -0.152431 -0.157477 -0.002964
v -0.152234 -0.155227 -0.002964
v -0.151650 -0.153045 -0.002964
v -0.150695 -0.150997 -0.002964
v -0.149399 -0.149147 -0.002964
v -0.147802 -0.147549 -0.002964
v -0.141722 -0.170240 -0.002964
v -0.135039 -0.169656 -0.002964
v -0.145951 -0.146254 -0.002964
v -0.132991 -0.168701 -0.002964
v -0.131141 -0.167405 -0.002964
v -0.129543 -0.165808 -0.002964
v -0.128248 -0.163957 -0.002964
v -0.127293 -0.161910 -0.002964
v -0.126708 -0.159728 -0.002964
v -0.132991 -0.146254 -0.002964
v -0.131141 -0.147549 -0.002964
v -0.127293 -0.153045 -0.002964
v -0.126511 -0.157477 -0.002964
v -0.126708 -0.155227 -0.002964
v -0.129543 -0.149147 -0.002964
v -0.128248 -0.150997 -0.002964
v -0.143904 -0.145299 -0.002964
v -0.141722 -0.144714 -0.002964
v -0.139471 -0.144517 -0.002964
v -0.137221 -0.144714 -0.002964
v -0.135039 -0.145299 -0.002964
v -0.147745 -0.164419 -0.000845
v -0.149620 -0.161171 -0.000845
v -0.150107 -0.159353 -0.000845
v -0.148824 -0.162877 -0.000845
v -0.144871 -0.166830 -0.000845
v -0.146413 -0.165751 -0.000845
v -0.143165 -0.167626 -0.000845
v -0.150271 -0.157477 -0.000845
v -0.150107 -0.155602 -0.000845
v -0.149620 -0.153784 -0.000845
v -0.148824 -0.152077 -0.000845
v -0.147745 -0.150535 -0.000845
v -0.146413 -0.149204 -0.000845
v -0.144871 -0.148124 -0.000845
v -0.143165 -0.147329 -0.000845
v -0.141347 -0.168113 -0.000845
v -0.139471 -0.168277 -0.000845
v -0.137596 -0.168113 -0.000845
v -0.135777 -0.167626 -0.000845
v -0.134071 -0.166830 -0.000845
v -0.135777 -0.147329 -0.000845
v -0.141347 -0.146841 -0.000845
v -0.137596 -0.146841 -0.000845
v -0.134071 -0.148124 -0.000845
v -0.132529 -0.165751 -0.000845
v -0.131198 -0.164419 -0.000845
v -0.130118 -0.162877 -0.000845
v -0.129323 -0.161171 -0.000845
v -0.128835 -0.159353 -0.000845
v -0.128671 -0.157477 -0.000845
v -0.131198 -0.150535 -0.000845
v -0.132529 -0.149204 -0.000845
v -0.128835 -0.155602 -0.000845
v -0.129323 -0.153784 -0.000845
v -0.130118 -0.152077 -0.000845
v -0.145055 -0.158462 -0.000030
v -0.142306 -0.162388 -0.000030
v -0.144382 -0.160312 -0.000030
v -0.143815 -0.161122 -0.000030
v -0.144799 -0.159417 -0.000030
v -0.143116 -0.161821 -0.000030
v -0.145141 -0.157477 -0.000030
v -0.145055 -0.156493 -0.000030
v -0.144799 -0.155538 -0.000030
v -0.144382 -0.154642 -0.000030
v -0.143815 -0.153833 -0.000030
v -0.143116 -0.153134 -0.000030
v -0.142306 -0.152567 -0.000030
v -0.141410 -0.162805 -0.000030
v -0.140456 -0.163061 -0.000030
v -0.139471 -0.163147 -0.000030
v -0.138487 -0.163061 -0.000030
v -0.137532 -0.162805 -0.000030
v -0.136636 -0.162388 -0.000030
v -0.135827 -0.161821 -0.000030
v -0.139471 -0.157477 -0.000030
v -0.135128 -0.161122 -0.000030
v -0.134561 -0.160312 -0.000030
v -0.134143 -0.159417 -0.000030
v -0.133887 -0.158462 -0.000030
v -0.141410 -0.152149 -0.000030
v -0.140456 -0.151893 -0.000030
v -0.139471 -0.146677 -0.000845
v -0.139471 -0.151807 -0.000030
v -0.138487 -0.151893 -0.000030
v -0.137532 -0.152149 -0.000030
v -0.136636 -0.152567 -0.000030
v -0.135827 -0.153134 -0.000030
v -0.135128 -0.153833 -0.000030
v -0.134561 -0.154642 -0.000030
v -0.133801 -0.157477 -0.000030
v -0.133887 -0.156493 -0.000030
v -0.134143 -0.155538 -0.000030
v 0.133737 -0.186147 -0.008509
v 0.131979 -0.187622 -0.006879
v 0.132994 -0.185086 -0.008509
v 0.131007 -0.186234 -0.006879
v 0.132447 -0.183913 -0.008509
v 0.130291 -0.184698 -0.006879
v 0.132112 -0.182663 -0.008509
v 0.129852 -0.183062 -0.006879
v 0.133177 -0.188820 -0.006879
v 0.132000 -0.181374 -0.008509
v 0.129705 -0.181374 -0.006879
v 0.132112 -0.180084 -0.008509
v 0.129852 -0.179686 -0.006879
v 0.132447 -0.178834 -0.008509
v 0.130291 -0.178049 -0.006879
v 0.132994 -0.177661 -0.008509
v 0.131007 -0.176514 -0.006879
v 0.133737 -0.176601 -0.008509
v 0.131979 -0.175126 -0.006879
v 0.134652 -0.175686 -0.008509
v 0.133177 -0.173928 -0.006879
v 0.139425 -0.181374 -0.008509
v 0.134652 -0.187062 -0.008509
v 0.136885 -0.188351 -0.008509
v 0.135712 -0.187804 -0.008509
v 0.138135 -0.188686 -0.008509
v 0.139425 -0.188799 -0.008509
v 0.140714 -0.188686 -0.008509
v 0.141964 -0.188351 -0.008509
v 0.143137 -0.187804 -0.008509
v 0.144197 -0.187062 -0.008509
v 0.145113 -0.186147 -0.008509
v 0.136100 -0.190508 -0.006879
v 0.137737 -0.190946 -0.006879
v 0.134565 -0.189792 -0.006879
v 0.139425 -0.191094 -0.006879
v 0.141113 -0.190946 -0.006879
v 0.142749 -0.190508 -0.006879
v 0.144285 -0.189792 -0.006879
v 0.135712 -0.174944 -0.008509
v 0.136885 -0.174397 -0.008509
v 0.138135 -0.174062 -0.008509
v 0.140714 -0.174062 -0.008509
v 0.141964 -0.174397 -0.008509
v 0.143137 -0.174944 -0.008509
v 0.144197 -0.175686 -0.008509
v 0.145113 -0.176601 -0.008509
v 0.139425 -0.173949 -0.008509
v 0.134565 -0.172956 -0.006879
v 0.136100 -0.172240 -0.006879
v 0.137737 -0.171802 -0.006879
v 0.139425 -0.171654 -0.006879
v 0.142749 -0.172240 -0.006879
v 0.141113 -0.171802 -0.006879
v 0.145855 -0.185086 -0.008509
v 0.146402 -0.183913 -0.008509
v 0.145673 -0.188820 -0.006879
v 0.146871 -0.187622 -0.006879
v 0.147842 -0.186234 -0.006879
v 0.148558 -0.184698 -0.006879
v 0.146737 -0.182663 -0.008509
v 0.148997 -0.183062 -0.006879
v 0.146850 -0.181374 -0.008509
v 0.146737 -0.180084 -0.008509
v 0.146402 -0.178834 -0.008509
v 0.145855 -0.177661 -0.008509
v 0.149145 -0.181374 -0.006879
v 0.148997 -0.179686 -0.006879
v 0.147842 -0.176514 -0.006879
v 0.148558 -0.178049 -0.006879
v 0.144285 -0.172956 -0.006879
v 0.145673 -0.173928 -0.006879
v 0.146871 -0.175126 -0.006879
v 0.131268 -0.191095 -0.004923
v 0.133080 -0.192364 -0.004923
v 0.128435 -0.187719 -0.004923
v 0.129704 -0.189531 -0.004923
v 0.127500 -0.185714 -0.004923
v 0.126927 -0.183577 -0.004923
v 0.126735 -0.181374 -0.004923
v 0.126927 -0.179170 -0.004923
v 0.127500 -0.177034 -0.004923
v 0.128435 -0.175029 -0.004923
v 0.129704 -0.173217 -0.004923
v 0.131268 -0.171653 -0.004923
v 0.133080 -0.170384 -0.004923
v 0.135084 -0.193299 -0.004923
v 0.137221 -0.193871 -0.004923
v 0.139425 -0.194064 -0.004923
v 0.141628 -0.193871 -0.004923
v 0.143765 -0.193299 -0.004923
v 0.135084 -0.169449 -0.004923
v 0.137221 -0.168877 -0.004923
v 0.139425 -0.168684 -0.004923
v 0.141628 -0.168877 -0.004923
v 0.145770 -0.192364 -0.004923
v 0.147582 -0.191095 -0.004923
v 0.149146 -0.189531 -0.004923
v 0.150415 -0.187719 -0.004923
v 0.151349 -0.185714 -0.004923
v 0.151922 -0.183577 -0.004923
v 0.143765 -0.169449 -0.004923
v 0.145770 -0.170384 -0.004923
v 0.147582 -0.171653 -0.004923
v 0.149146 -0.173217 -0.004923
v 0.152115 -0.181374 -0.004923
v 0.151922 -0.179170 -0.004923
v 0.151349 -0.177034 -0.004923
v 0.150415 -0.175029 -0.004923
v 0.126130 -0.183718 0.000455
v 0.127733 -0.188124 0.000455
v 0.126739 -0.185991 0.000455
v 0.129083 -0.190051 0.000455
v 0.130747 -0.191715 0.000455
v 0.132675 -0.193065 0.000455
v 0.125925 -0.181374 0.000455
v 0.126130 -0.179030 0.000455
v 0.126739 -0.176757 0.000455
v 0.127733 -0.174624 0.000455
v 0.129083 -0.172696 0.000455
v 0.130747 -0.171032 0.000455
v 0.134807 -0.194060 0.000455
v 0.132675 -0.169683 0.000455
v 0.137080 -0.194669 0.000455
v 0.139425 -0.194874 0.000455
v 0.141769 -0.194669 0.000455
v 0.144042 -0.194060 0.000455
v 0.146175 -0.193065 0.000455
v 0.148102 -0.191715 0.000455
v 0.149766 -0.190051 0.000455
v 0.151116 -0.188124 0.000455
v 0.152111 -0.185991 0.000455
v 0.152720 -0.183718 0.000455
v 0.146175 -0.169683 0.000455
v 0.152925 -0.181374 0.000455
v 0.152720 -0.179030 0.000455
v 0.152111 -0.176757 0.000455
v 0.149766 -0.172696 0.000455
v 0.148102 -0.171032 0.000455
v 0.151116 -0.174624 0.000455
v 0.134807 -0.168688 0.000455
v 0.137080 -0.168079 0.000455
v 0.139425 -0.167874 0.000455
v 0.141769 -0.168079 0.000455
v 0.144042 -0.168688 0.000455
v 0.129497 -0.189704 0.004855
v 0.126662 -0.183624 0.004855
v 0.128201 -0.187854 0.004855
v 0.127246 -0.185806 0.004855
v 0.131094 -0.191302 0.004855
v 0.132945 -0.192598 0.004855
v 0.126465 -0.181374 0.004855
v 0.126662 -0.179123 0.004855
v 0.127246 -0.176941 0.004855
v 0.128201 -0.174894 0.004855
v 0.129497 -0.173043 0.004855
v 0.131094 -0.171446 0.004855
v 0.134992 -0.193552 0.004855
v 0.132945 -0.170150 0.004855
v 0.137174 -0.194137 0.004855
v 0.139425 -0.194334 0.004855
v 0.141675 -0.194137 0.004855
v 0.143857 -0.193552 0.004855
v 0.145905 -0.192598 0.004855
v 0.147755 -0.191302 0.004855
v 0.149353 -0.189704 0.004855
v 0.150648 -0.187854 0.004855
v 0.151603 -0.185806 0.004855
v 0.152188 -0.183624 0.004855
v 0.152385 -0.181374 0.004855
v 0.152188 -0.179123 0.004855
v 0.151603 -0.176941 0.004855
v 0.147755 -0.171446 0.004855
v 0.149353 -0.173043 0.004855
v 0.150648 -0.174894 0.004855
v 0.145905 -0.170150 0.004855
v 0.134992 -0.169195 0.004855
v 0.137174 -0.168611 0.004855
v 0.139425 -0.168414 0.004855
v 0.141675 -0.168611 0.004855
v 0.143857 -0.169195 0.004855
v 0.130072 -0.186774 0.006974
v 0.129276 -0.185068 0.006974
v 0.128789 -0.183249 0.006974
v 0.132483 -0.189647 0.006974
v 0.134025 -0.190727 0.006974
v 0.131151 -0.188316 0.006974
v 0.128625 -0.181374 0.006974
v 0.128789 -0.179498 0.006974
v 0.129276 -0.177680 0.006974
v 0.130072 -0.175974 0.006974
v 0.131151 -0.174432 0.006974
v 0.132483 -0.173101 0.006974
v 0.134025 -0.172021 0.006974
v 0.134514 -0.184209 0.007789
v 0.134097 -0.183313 0.007789
v 0.135081 -0.185018 0.007789
v 0.135780 -0.185717 0.007789
v 0.133841 -0.182358 0.007789
v 0.133755 -0.181374 0.007789
v 0.133841 -0.180389 0.007789
v 0.134097 -0.179435 0.007789
v 0.134514 -0.178539 0.007789
v 0.135081 -0.177729 0.007789
v 0.135731 -0.191523 0.006974
v 0.137549 -0.192010 0.006974
v 0.139425 -0.192174 0.006974
v 0.141300 -0.192010 0.006974
v 0.143119 -0.191523 0.006974
v 0.135731 -0.171225 0.006974
v 0.144825 -0.190727 0.006974
v 0.146367 -0.189647 0.006974
v 0.147698 -0.188316 0.006974
v 0.148778 -0.186774 0.006974
v 0.149573 -0.185068 0.006974
v 0.150061 -0.183249 0.006974
v 0.150225 -0.181374 0.006974
v 0.144825 -0.172021 0.006974
v 0.146367 -0.173101 0.006974
v 0.143119 -0.171225 0.006974
v 0.147698 -0.174432 0.006974
v 0.150061 -0.179498 0.006974
v 0.149573 -0.177680 0.006974
v 0.148778 -0.175974 0.006974
v 0.136590 -0.186284 0.007789
v 0.137485 -0.186702 0.007789
v 0.138440 -0.186958 0.007789
v 0.139425 -0.181374 0.007789
v 0.139425 -0.187044 0.007789
v 0.140409 -0.186958 0.007789
v 0.141364 -0.186702 0.007789
v 0.142260 -0.186284 0.007789
v 0.143069 -0.185717 0.007789
v 0.143768 -0.185018 0.007789
v 0.144335 -0.184209 0.007789
v 0.144753 -0.183313 0.007789
v 0.135780 -0.177030 0.007789
v 0.136590 -0.176463 0.007789
v 0.137485 -0.176046 0.007789
v 0.138440 -0.175790 0.007789
v 0.137549 -0.170738 0.006974
v 0.139425 -0.170574 0.006974
v 0.139425 -0.175704 0.007789
v 0.140409 -0.175790 0.007789
v 0.141364 -0.176046 0.007789
v 0.145009 -0.182358 0.007789
v 0.145095 -0.181374 0.007789
v 0.145009 -0.180389 0.007789
v 0.144753 -0.179435 0.007789
v 0.144335 -0.178539 0.007789
v 0.143069 -0.177030 0.007789
v 0.142260 -0.176463 0.007789
v 0.143768 -0.177729 0.007789
v 0.141300 -0.170738 0.006974
f 1 2 3
f 2 4 3
f 5 2 1
f 6 7 8
f 8 9 10
f 3 4 11
f 11 12 6
f 4 12 11
f 12 7 6
f 7 9 8
f 9 13 10
f 10 13 14
f 14 15 16
f 16 17 18
f 18 19 20
f 13 15 14
f 15 17 16
f 17 19 18
f 19 21 20
f 22 3 11
f 22 23 1
f 22 1 3
f 22 11 6
f 22 6 8
f 22 8 10
f 22 10 14
f 22 24 23
f 22 25 24
f 22 26 25
f 22 27 26
f 22 28 27
f 22 29 28
f 22 30 29
f 22 31 30
f 22 32 31
f 24 33 23
f 23 5 1
f 26 34 25
f 25 35 24
f 35 33 24
f 33 5 23
f 34 35 25
f 36 34 26
f 27 36 26
f 28 37 27
f 29 38 28
f 30 39 29
f 37 36 27
f 38 37 28
f 39 38 29
f 22 14 16
f 22 16 18
f 22 18 20
f 22 20 40
f 22 40 41
f 22 41 42
f 22 42 43
f 22 43 44
f 22 44 45
f 22 46 47
f 22 47 48
f 22 45 46
f 20 21 40
f 40 49 41
f 41 50 42
f 42 51 43
f 21 49 40
f 49 50 41
f 50 51 42
f 43 52 44
f 44 53 45
f 45 54 46
f 51 52 43
f 52 53 44
f 53 54 45
f 22 55 32
f 22 56 55
f 22 57 56
f 22 58 57
f 22 59 58
f 22 60 59
f 31 61 30
f 32 62 31
f 61 39 30
f 62 61 31
f 63 62 32
f 55 63 32
f 56 64 55
f 57 65 56
f 58 66 57
f 59 67 58
f 64 63 55
f 65 64 56
f 66 65 57
f 67 66 58
f 22 48 68
f 22 68 60
f 46 69 47
f 47 70 48
f 68 71 60
f 60 72 59
f 48 73 68
f 69 70 47
f 72 67 59
f 71 72 60
f 73 71 68
f 70 73 48
f 54 69 46
f 7 74 9
f 9 75 13
f 4 76 12
f 2 77 4
f 33 78 5
f 5 79 2
f 12 80 7
f 13 81 15
f 15 82 17
f 17 83 19
f 19 84 21
f 21 85 49
f 76 80 12
f 80 74 7
f 74 75 9
f 75 81 13
f 79 77 2
f 77 76 4
f 78 79 5
f 81 82 15
f 82 83 17
f 83 84 19
f 84 85 21
f 85 86 49
f 87 88 35
f 89 87 34
f 90 89 36
f 91 90 37
f 35 88 33
f 34 87 35
f 36 89 34
f 37 90 36
f 38 91 37
f 49 86 50
f 50 92 51
f 51 93 52
f 52 94 53
f 53 95 54
f 39 96 38
f 61 97 39
f 62 98 61
f 63 99 62
f 64 100 63
f 65 101 64
f 66 102 65
f 67 103 66
f 73 104 71
f 54 105 69
f 69 106 70
f 70 107 73
f 72 108 67
f 71 109 72
f 88 78 33
f 86 92 50
f 92 93 51
f 93 94 52
f 94 95 53
f 95 105 54
f 96 91 38
f 97 96 39
f 98 97 61
f 99 98 62
f 100 99 63
f 101 100 64
f 102 101 65
f 103 102 66
f 105 106 69
f 106 107 70
f 107 104 73
f 104 109 71
f 109 108 72
f 108 103 67
f 110 111 78
f 76 112 80
f 74 113 75
f 75 114 81
f 80 115 74
f 79 116 77
f 77 117 76
f 78 111 79
f 81 118 82
f 82 119 83
f 83 120 84
f 84 121 85
f 85 122 86
f 86 123 92
f 112 115 80
f 117 112 76
f 115 113 74
f 113 114 75
f 116 117 77
f 111 116 79
f 114 118 81
f 118 119 82
f 119 120 83
f 120 121 84
f 121 122 85
f 122 123 86
f 88 110 78
f 87 124 88
f 89 125 87
f 90 126 89
f 91 127 90
f 96 128 91
f 124 110 88
f 125 124 87
f 126 125 89
f 127 126 90
f 128 127 91
f 129 128 96
f 92 130 93
f 93 131 94
f 94 132 95
f 95 133 105
f 97 129 96
f 98 134 97
f 99 135 98
f 100 136 99
f 101 137 100
f 102 138 101
f 105 139 106
f 106 140 107
f 103 141 102
f 108 142 103
f 109 143 108
f 107 144 104
f 104 145 109
f 123 130 92
f 130 131 93
f 131 132 94
f 132 133 95
f 133 139 105
f 134 129 97
f 135 134 98
f 136 135 99
f 137 136 100
f 138 137 101
f 141 138 102
f 139 140 106
f 140 144 107
f 145 143 109
f 142 141 103
f 143 142 108
f 144 145 104
f 111 146 116
f 147 146 111
f 117 148 112
f 112 149 115
f 113 150 114
f 114 151 118
f 115 152 113
f 116 153 117
f 118 154 119
f 119 155 120
f 120 156 121
f 121 157 122
f 122 158 123
f 123 159 130
f 149 152 115
f 148 149 112
f 150 151 114
f 152 150 113
f 153 148 117
f 146 153 116
f 151 154 118
f 154 155 119
f 155 156 120
f 156 157 121
f 157 158 122
f 158 159 123
f 110 147 111
f 124 160 110
f 125 161 124
f 126 162 125
f 127 163 126
f 128 164 127
f 160 147 110
f 161 160 124
f 162 161 125
f 163 162 126
f 164 163 127
f 165 164 128
f 130 166 131
f 131 167 132
f 132 168 133
f 133 169 139
f 129 165 128
f 134 170 129
f 135 171 134
f 136 172 135
f 137 173 136
f 138 174 137
f 139 175 140
f 140 176 144
f 141 177 138
f 142 178 141
f 143 179 142
f 144 180 145
f 145 181 143
f 159 166 130
f 166 167 131
f 167 168 132
f 168 169 133
f 169 175 139
f 170 165 129
f 171 170 134
f 172 171 135
f 173 172 136
f 174 173 137
f 177 174 138
f 175 176 140
f 176 180 144
f 181 179 143
f 178 177 141
f 179 178 142
f 180 181 145
f 149 182 152
f 152 183 150
f 150 184 151
f 151 185 154
f 182 183 152
f 183 184 150
f 184 185 151
f 153 186 148
f 148 187 149
f 146 188 153
f 186 187 148
f 187 182 149
f 188 186 153
f 154 189 155
f 155 190 156
f 185 189 154
f 189 190 155
f 156 191 157
f 190 191 156
f 191 192 157
f 157 192 158
f 158 193 159
f 192 193 158
f 193 194 159
f 187 195 182
f 186 196 187
f 182 197 183
f 183 198 184
f 184 199 185
f 185 200 189
f 195 197 182
f 197 198 183
f 198 199 184
f 199 200 185
f 200 201 189
f 189 201 190
f 190 202 191
f 191 203 192
f 192 204 193
f 201 202 190
f 202 203 191
f 203 204 192
f 147 205 146
f 160 206 147
f 206 205 147
f 207 206 160
f 161 207 160
f 162 208 161
f 163 209 162
f 208 207 161
f 209 208 162
f 164 210 163
f 205 188 146
f 159 194 166
f 166 211 167
f 167 212 168
f 194 211 166
f 211 212 167
f 168 213 169
f 169 214 175
f 212 213 168
f 213 214 169
f 214 215 175
f 165 216 164
f 210 209 163
f 216 210 164
f 217 216 165
f 170 217 165
f 171 218 170
f 172 219 171
f 218 217 170
f 219 218 171
f 173 220 172
f 174 221 173
f 220 219 172
f 221 220 173
f 222 221 174
f 175 215 176
f 176 223 180
f 180 224 181
f 215 223 176
f 223 224 180
f 224 225 181
f 181 225 179
f 179 226 178
f 177 222 174
f 178 227 177
f 225 226 179
f 226 227 178
f 227 222 177
f 205 228 188
f 188 229 186
f 206 230 205
f 196 195 187
f 229 196 186
f 228 229 188
f 230 228 205
f 231 230 206
f 232 199 198
f 232 198 197
f 232 200 199
f 232 201 200
f 232 202 201
f 232 195 196
f 232 197 195
f 232 196 229
f 232 229 228
f 232 228 230
f 207 231 206
f 208 233 207
f 209 234 208
f 233 231 207
f 234 233 208
f 235 234 209
f 232 230 231
f 232 231 233
f 232 233 234
f 232 234 235
f 232 235 236
f 232 236 237
f 232 237 238
f 232 238 239
f 232 239 240
f 232 240 241
f 232 241 242
f 232 242 243
f 193 244 194
f 232 203 202
f 204 244 193
f 244 245 194
f 232 204 203
f 232 244 204
f 232 245 244
f 232 246 245
f 232 247 246
f 245 246 211
f 246 247 212
f 194 245 211
f 211 246 212
f 212 247 213
f 232 248 247
f 232 249 248
f 232 250 249
f 247 248 213
f 248 249 214
f 232 251 252
f 232 253 250
f 232 252 253
f 232 254 251
f 232 243 254
f 249 250 215
f 250 253 223
f 213 248 214
f 214 249 215
f 215 250 223
f 210 235 209
f 216 236 210
f 217 237 216
f 218 238 217
f 236 235 210
f 237 236 216
f 219 239 218
f 238 237 217
f 239 238 218
f 240 239 219
f 241 240 220
f 242 241 221
f 220 240 219
f 221 241 220
f 222 242 221
f 224 252 225
f 227 243 222
f 226 254 227
f 225 251 226
f 251 254 226
f 253 252 224
f 252 251 225
f 254 243 227
f 243 242 222
f 223 253 224
f 255 256 257
f 258 255 259
f 260 258 261
f 262 263 264
f 256 265 262
f 255 266 256
f 258 267 255
f 260 268 258
f 269 270 260
f 271 272 273
f 274 275 271
f 276 273 277
f 276 278 279
f 276 277 278
f 276 279 280
f 276 280 281
f 278 282 279
f 273 283 277
f 277 284 278
f 279 285 280
f 280 286 281
f 285 286 280
f 272 283 273
f 275 272 271
f 287 275 274
f 284 282 278
f 283 284 277
f 282 285 279
f 276 281 288
f 276 288 289
f 276 289 290
f 281 291 288
f 288 292 289
f 289 293 290
f 290 294 295
f 295 296 297
f 286 291 281
f 291 292 288
f 292 293 289
f 293 294 290
f 294 296 295
f 296 298 297
f 299 287 274
f 300 257 299
f 301 259 300
f 276 274 271
f 276 271 273
f 276 299 274
f 276 300 299
f 276 301 300
f 276 302 301
f 302 261 301
f 303 304 302
f 305 306 303
f 307 308 305
f 276 303 302
f 276 305 303
f 276 307 305
f 276 309 307
f 276 310 309
f 276 311 310
f 276 312 311
f 276 313 312
f 276 314 313
f 257 287 299
f 259 257 300
f 261 259 301
f 304 261 302
f 306 304 303
f 308 306 305
f 276 290 295
f 276 295 297
f 276 297 315
f 276 315 316
f 276 316 317
f 276 317 318
f 297 298 315
f 315 319 316
f 316 320 317
f 317 321 318
f 276 318 322
f 276 322 323
f 276 323 324
f 276 324 325
f 276 325 326
f 276 327 314
f 276 326 327
f 323 328 324
f 324 329 325
f 318 330 322
f 322 331 323
f 298 319 315
f 319 320 316
f 320 321 317
f 321 330 318
f 330 331 322
f 331 328 323
f 328 329 324
f 332 333 284
f 282 334 285
f 284 333 282
f 285 335 286
f 286 336 291
f 334 335 285
f 335 336 286
f 333 334 282
f 283 332 284
f 272 337 283
f 275 264 272
f 287 262 275
f 264 337 272
f 337 332 283
f 262 264 275
f 291 338 292
f 292 339 293
f 293 340 294
f 336 338 291
f 338 339 292
f 339 340 293
f 340 341 294
f 294 341 296
f 296 342 298
f 298 343 319
f 341 342 296
f 342 343 298
f 343 344 319
f 257 256 287
f 259 255 257
f 256 262 287
f 261 258 259
f 304 260 261
f 306 269 304
f 269 260 304
f 319 344 320
f 320 345 321
f 321 346 330
f 344 345 320
f 345 346 321
f 330 347 331
f 331 348 328
f 346 347 330
f 347 348 331
f 348 349 328
f 309 350 307
f 310 351 309
f 311 352 310
f 312 353 311
f 313 354 312
f 350 308 307
f 351 350 309
f 352 351 310
f 353 352 311
f 354 353 312
f 355 354 313
f 326 356 327
f 327 357 314
f 325 358 326
f 314 355 313
f 329 358 325
f 358 356 326
f 357 355 314
f 356 357 327
f 308 359 306
f 350 360 308
f 351 361 350
f 359 269 306
f 360 359 308
f 361 360 350
f 352 362 351
f 353 363 352
f 354 364 353
f 362 361 351
f 363 362 352
f 364 363 353
f 365 364 354
f 357 366 355
f 358 367 356
f 356 368 357
f 367 368 356
f 328 349 329
f 329 369 358
f 349 369 329
f 369 367 358
f 355 365 354
f 366 365 355
f 368 366 357
f 333 370 334
f 337 371 332
f 332 372 333
f 334 373 335
f 335 374 336
f 336 375 338
f 264 376 337
f 338 377 339
f 339 378 340
f 340 379 341
f 341 380 342
f 342 381 343
f 343 382 344
f 344 383 345
f 345 384 346
f 346 385 347
f 347 386 348
f 348 387 349
f 359 388 269
f 360 389 359
f 361 390 360
f 362 391 361
f 363 392 362
f 364 393 363
f 349 394 369
f 369 395 367
f 367 396 368
f 366 397 365
f 368 398 366
f 365 399 364
f 263 376 264
f 265 263 262
f 266 265 256
f 267 266 255
f 268 267 258
f 270 268 260
f 263 400 376
f 265 401 263
f 266 402 265
f 267 403 266
f 268 404 267
f 400 405 376
f 401 400 263
f 402 401 265
f 403 402 266
f 404 403 267
f 406 404 268
f 270 406 268
f 370 373 334
f 371 372 332
f 372 370 333
f 373 374 335
f 374 375 336
f 376 371 337
f 375 377 338
f 377 378 339
f 378 379 340
f 379 380 341
f 380 381 342
f 381 382 343
f 382 383 344
f 383 384 345
f 386 387 348
f 384 385 346
f 385 386 347
f 388 270 269
f 389 388 359
f 390 389 360
f 391 390 361
f 392 391 362
f 393 392 363
f 399 393 364
f 387 394 349
f 394 395 369
f 395 396 367
f 398 397 366
f 397 399 365
f 396 398 368
f 370 407 373
f 371 408 372
f 372 409 370
f 373 410 374
f 374 411 375
f 375 412 377
f 376 405 371
f 377 413 378
f 378 414 379
f 379 415 380
f 380 416 381
f 381 417 382
f 382 418 383
f 383 419 384
f 386 420 387
f 387 421 394
f 408 409 372
f 409 407 370
f 410 411 374
f 407 410 373
f 411 412 375
f 405 408 371
f 412 413 377
f 413 414 378
f 414 415 379
f 415 416 380
f 416 417 381
f 417 418 382
f 418 419 383
f 419 422 384
f 423 420 386
f 420 421 387
f 384 422 385
f 385 423 386
f 422 423 385
f 388 424 270
f 389 425 388
f 390 426 389
f 391 427 390
f 392 428 391
f 393 429 392
f 394 430 395
f 395 431 396
f 397 432 399
f 398 433 397
f 399 434 393
f 396 435 398
f 424 406 270
f 425 424 388
f 426 425 389
f 427 426 390
f 428 427 391
f 429 428 392
f 434 429 393
f 421 430 394
f 430 431 395
f 431 435 396
f 432 434 399
f 433 432 397
f 435 433 398
f 401 436 400
f 402 437 401
f 403 438 402
f 404 439 403
f 437 436 401
f 438 437 402
f 407 440 410
f 409 441 407
f 410 442 411
f 411 443 412
f 412 444 413
f 408 445 409
f 405 446 408
f 400 447 405
f 441 440 407
f 442 443 411
f 443 444 412
f 440 442 410
f 446 445 408
f 445 441 409
f 447 446 405
f 413 448 414
f 414 449 415
f 415 450 416
f 416 451 417
f 417 452 418
f 418 453 419
f 444 448 413
f 448 449 414
f 449 450 415
f 450 451 416
f 451 452 417
f 452 453 418
f 453 454 419
f 406 455 404
f 436 447 400
f 439 438 403
f 455 439 404
f 419 454 422
f 422 456 423
f 423 457 420
f 420 458 421
f 421 459 430
f 454 456 422
f 456 457 423
f 457 458 420
f 458 459 421
f 459 460 430
f 424 461 406
f 425 462 424
f 426 463 425
f 427 464 426
f 428 465 427
f 429 466 428
f 461 455 406
f 462 461 424
f 463 462 425
f 464 463 426
f 465 464 427
f 466 465 428
f 467 466 429
f 430 460 431
f 431 468 435
f 435 469 433
f 434 467 429
f 432 470 434
f 433 471 432
f 469 471 433
f 460 468 431
f 468 469 435
f 470 467 434
f 471 470 432
f 443 472 444
f 444 473 448
f 441 474 440
f 445 475 441
f 446 476 445
f 440 477 442
f 442 478 443
f 476 475 445
f 477 478 442
f 478 472 443
f 472 473 444
f 474 477 440
f 475 474 441
f 448 479 449
f 449 480 450
f 450 481 451
f 451 482 452
f 452 483 453
f 453 484 454
f 473 479 448
f 479 480 449
f 480 481 450
f 481 482 451
f 482 483 452
f 483 484 453
f 436 485 447
f 447 486 446
f 437 487 436
f 438 488 437
f 439 489 438
f 455 490 439
f 461 491 455
f 486 476 446
f 485 486 447
f 487 485 436
f 488 487 437
f 492 475 476
f 492 474 475
f 492 476 486
f 492 478 477
f 492 472 478
f 492 477 474
f 492 473 472
f 492 479 473
f 492 486 485
f 492 485 487
f 492 487 488
f 489 488 438
f 490 489 439
f 491 490 455
f 493 491 461
f 492 488 489
f 492 489 490
f 492 490 491
f 492 491 493
f 492 493 494
f 492 494 495
f 492 495 496
f 492 496 497
f 492 497 498
f 454 499 456
f 456 500 457
f 457 501 458
f 458 502 459
f 459 503 460
f 460 504 468
f 484 499 454
f 492 480 479
f 492 481 480
f 492 482 481
f 492 483 482
f 492 484 483
f 492 499 484
f 492 500 499
f 492 501 500
f 492 502 501
f 499 500 456
f 500 501 457
f 503 504 460
f 505 506 469
f 504 505 468
f 492 503 502
f 492 504 503
f 492 507 506
f 492 505 504
f 492 506 505
f 492 508 507
f 492 498 508
f 501 502 458
f 502 503 459
f 462 493 461
f 463 494 462
f 464 495 463
f 465 496 464
f 466 497 465
f 494 493 462
f 495 494 463
f 496 495 464
f 497 496 465
f 498 497 466
f 468 505 469
f 469 506 471
f 467 498 466
f 470 508 467
f 471 507 470
f 507 508 470
f 508 498 467
f 506 507 471
f 509 510 511
f 509 512 513
f 509 511 512
f 510 514 511
f 512 515 513
f 513 516 517
f 511 518 512
f 519 520 510
f 521 522 519
f 522 520 519
f 523 522 521
f 520 514 510
f 514 518 511
f 518 515 512
f 515 516 513
f 509 513 517
f 509 517 524
f 509 524 525
f 509 525 526
f 509 526 527
f 517 528 524
f 524 529 525
f 525 530 526
f 526 531 527
f 527 532 533
f 533 534 535
f 516 528 517
f 528 529 524
f 529 530 525
f 530 531 526
f 531 532 527
f 532 534 533
f 534 536 535
f 537 523 521
f 538 539 537
f 540 541 538
f 509 521 519
f 509 537 521
f 509 519 510
f 509 538 537
f 509 540 538
f 509 542 540
f 542 543 540
f 544 545 542
f 546 547 544
f 509 544 542
f 509 546 544
f 509 548 546
f 509 549 548
f 509 550 549
f 509 551 550
f 509 552 551
f 548 553 546
f 539 523 537
f 541 539 538
f 543 541 540
f 545 543 542
f 547 545 544
f 553 547 546
f 509 527 533
f 509 533 535
f 509 535 554
f 509 554 555
f 509 555 556
f 509 556 557
f 535 536 554
f 554 558 555
f 555 559 556
f 556 560 557
f 509 557 561
f 509 561 562
f 509 562 563
f 509 564 552
f 509 565 564
f 509 566 565
f 509 567 566
f 509 563 568
f 509 568 567
f 557 569 561
f 561 570 562
f 563 571 568
f 562 572 563
f 536 558 554
f 558 559 555
f 559 560 556
f 560 569 557
f 569 570 561
f 570 572 562
f 572 571 563
f 518 573 515
f 515 574 516
f 516 575 528
f 574 575 516
f 573 574 515
f 576 573 518
f 520 577 514
f 522 578 520
f 523 579 522
f 577 576 514
f 578 577 520
f 579 578 522
f 514 576 518
f 528 580 529
f 529 581 530
f 530 582 531
f 575 580 528
f 580 581 529
f 581 582 530
f 582 583 531
f 531 583 532
f 583 584 532
f 532 584 534
f 534 585 536
f 536 586 558
f 584 585 534
f 585 586 536
f 586 587 558
f 539 588 523
f 541 589 539
f 588 579 523
f 589 588 539
f 590 589 541
f 543 590 541
f 545 591 543
f 547 592 545
f 591 590 543
f 592 591 545
f 558 587 559
f 559 593 560
f 560 594 569
f 569 595 570
f 570 596 572
f 595 596 570
f 596 597 572
f 549 598 548
f 550 599 549
f 551 600 550
f 552 601 551
f 598 553 548
f 599 598 549
f 600 599 550
f 601 600 551
f 602 601 552
f 568 603 567
f 567 604 566
f 566 605 565
f 564 602 552
f 565 606 564
f 603 604 567
f 606 602 564
f 605 606 565
f 604 605 566
f 571 603 568
f 553 607 547
f 598 608 553
f 607 592 547
f 608 607 553
f 599 609 598
f 600 610 599
f 609 608 598
f 601 611 600
f 610 609 599
f 611 610 600
f 612 611 601
f 605 613 606
f 604 614 605
f 571 615 603
f 572 597 571
f 603 616 604
f 597 615 571
f 615 616 603
f 616 614 604
f 602 612 601
f 606 617 602
f 617 612 602
f 613 617 606
f 614 613 605
f 576 618 573
f 577 619 576
f 573 620 574
f 574 621 575
f 575 622 580
f 578 623 577
f 579 624 578
f 580 625 581
f 581 626 582
f 582 627 583
f 583 628 584
f 584 629 585
f 585 630 586
f 588 631 579
f 589 632 588
f 590 633 589
f 591 634 590
f 592 635 591
f 607 636 592
f 608 637 607
f 609 638 608
f 610 639 609
f 611 640 610
f 597 641 615
f 616 642 614
f 615 643 616
f 613 644 617
f 612 645 611
f 617 646 612
f 614 647 613
f 587 593 559
f 593 594 560
f 594 595 569
f 586 648 587
f 587 649 593
f 593 650 594
f 594 651 595
f 595 652 596
f 596 653 597
f 632 631 588
f 633 632 589
f 618 620 573
f 619 618 576
f 620 621 574
f 621 622 575
f 623 619 577
f 624 623 578
f 622 625 580
f 625 626 581
f 626 627 582
f 627 628 583
f 628 629 584
f 629 630 585
f 630 648 586
f 631 624 579
f 634 633 590
f 635 634 591
f 636 635 592
f 637 636 607
f 638 637 608
f 639 638 609
f 640 639 610
f 645 640 611
f 641 643 615
f 643 642 616
f 646 645 612
f 644 646 617
f 642 647 614
f 647 644 613
f 632 654 631
f 633 655 632
f 655 654 632
f 618 656 620
f 619 657 618
f 620 658 621
f 621 659 622
f 622 660 625
f 623 661 619
f 624 662 623
f 625 663 626
f 626 664 627
f 627 665 628
f 628 666 629
f 629 667 630
f 630 668 648
f 631 669 624
f 634 670 633
f 656 658 620
f 657 656 618
f 658 659 621
f 659 660 622
f 661 657 619
f 662 661 623
f 660 663 625
f 663 664 626
f 664 665 627
f 665 666 628
f 666 667 629
f 667 668 630
f 668 671 648
f 669 662 624
f 654 669 631
f 670 655 633
f 672 670 634
f 635 672 634
f 636 673 635
f 637 674 636
f 638 675 637
f 639 676 638
f 640 677 639
f 641 678 643
f 643 679 642
f 644 680 646
f 645 681 640
f 646 682 645
f 642 683 647
f 647 684 644
f 673 672 635
f 674 673 636
f 675 674 637
f 676 675 638
f 677 676 639
f 681 677 640
f 678 679 643
f 679 683 642
f 680 682 646
f 684 680 644
f 682 681 645
f 683 684 647
f 648 649 587
f 649 650 593
f 650 651 594
f 651 652 595
f 652 653 596
f 653 641 597
f 648 671 649
f 649 685 650
f 650 686 651
f 651 687 652
f 652 688 653
f 653 689 641
f 671 685 649
f 685 686 650
f 686 687 651
f 687 688 652
f 688 689 653
f 689 678 641
f 656 690 658
f 659 691 660
f 660 692 663
f 658 693 659
f 661 694 657
f 657 695 656
f 662 696 661
f 691 692 660
f 693 691 659
f 690 693 658
f 695 690 656
f 694 695 657
f 696 694 661
f 663 697 664
f 664 698 665
f 665 699 666
f 666 700 667
f 667 701 668
f 668 702 671
f 671 703 685
f 692 697 663
f 697 698 664
f 698 699 665
f 699 700 666
f 700 701 667
f 701 702 668
f 702 703 671
f 703 704 685
f 669 705 662
f 654 706 669
f 655 707 654
f 670 708 655
f 672 709 670
f 705 696 662
f 706 705 669
f 707 706 654
f 708 707 655
f 709 708 670
f 689 710 678
f 704 711 686
f 712 710 689
f 710 713 678
f 673 714 672
f 674 715 673
f 675 716 674
f 676 717 675
f 677 718 676
f 714 709 672
f 715 714 673
f 716 715 674
f 717 716 675
f 718 717 676
f 719 718 677
f 678 713 679
f 683 720 684
f 679 721 683
f 681 719 677
f 682 722 681
f 680 723 682
f 684 724 680
f 713 721 679
f 721 720 683
f 720 724 684
f 722 719 681
f 723 722 682
f 724 723 680
f 692 725 697
f 694 726 695
f 693 727 691
f 690 728 693
f 691 729 692
f 695 730 690
f 727 729 691
f 729 725 692
f 728 727 693
f 730 728 690
f 726 730 695
f 697 731 698
f 698 732 699
f 699 733 700
f 700 734 701
f 701 735 702
f 702 736 703
f 703 737 704
f 725 731 697
f 731 732 698
f 732 733 699
f 733 734 700
f 734 735 701
f 735 736 702
f 736 737 703
f 696 738 694
f 705 739 696
f 706 740 705
f 707 741 706
f 708 742 707
f 709 743 708
f 714 744 709
f 739 738 696
f 740 739 705
f 741 740 706
f 738 726 694
f 745 729 727
f 745 725 729
f 745 727 728
f 745 728 730
f 745 730 726
f 745 726 738
f 745 738 739
f 745 739 740
f 745 740 741
f 742 741 707
f 743 742 708
f 744 743 709
f 746 744 714
f 745 741 742
f 745 742 743
f 745 743 744
f 745 744 746
f 745 746 747
f 745 747 748
f 745 748 749
f 704 750 711
f 711 751 752
f 752 753 712
f 712 754 710
f 710 755 713
f 713 756 721
f 745 731 725
f 745 732 731
f 745 733 732
f 745 734 733
f 745 735 734
f 745 736 735
f 745 737 736
f 745 750 737
f 745 751 750
f 745 753 751
f 745 754 753
f 737 750 704
f 750 751 711
f 751 753 752
f 757 758 720
f 745 759 758
f 745 755 754
f 745 756 755
f 745 757 756
f 745 758 757
f 745 749 760
f 745 760 761
f 745 761 762
f 745 762 759
f 753 754 712
f 754 755 710
f 755 756 713
f 756 757 721
f 715 746 714
f 716 747 715
f 717 748 716
f 718 749 717
f 747 746 715
f 748 747 716
f 749 748 717
f 760 749 718
f 719 760 718
f 722 761 719
f 723 762 722
f 724 759 723
f 721 757 720
f 720 758 724
f 761 760 719
f 762 761 722
f 759 762 723
f 758 759 724
f 685 704 686
f 686 711 687
f 687 752 688
f 688 712 689
f 711 752 687
f 752 712 688
f 763 764 765
f 765 766 767
f 767 768 769
f 766 768 767
f 768 770 769
f 764 766 765
f 771 764 763
f 769 770 772
f 772 773 774
f 774 775 776
f 776 777 778
f 778 779 780
f 770 773 772
f 773 775 774
f 775 777 776
f 777 779 778
f 780 781 782
f 779 781 780
f 781 783 782
f 784 765 767
f 784 785 763
f 784 763 765
f 784 786 787
f 784 788 786
f 784 787 785
f 784 789 788
f 784 790 789
f 784 791 790
f 784 792 791
f 784 793 792
f 784 794 793
f 786 795 787
f 788 796 786
f 795 797 787
f 796 795 786
f 798 796 788
f 785 771 763
f 787 797 785
f 797 771 785
f 789 798 788
f 790 799 789
f 791 800 790
f 799 798 789
f 800 799 790
f 801 800 791
f 792 801 791
f 784 767 769
f 784 769 772
f 784 772 774
f 784 774 776
f 784 776 778
f 784 778 780
f 784 780 782
f 784 782 802
f 784 802 803
f 784 803 804
f 784 805 806
f 784 806 807
f 784 807 808
f 784 808 809
f 784 804 810
f 784 810 805
f 782 783 802
f 802 811 803
f 803 812 804
f 804 813 810
f 783 811 802
f 811 812 803
f 812 813 804
f 810 814 805
f 806 815 807
f 805 816 806
f 813 814 810
f 814 816 805
f 816 815 806
f 784 817 794
f 784 818 817
f 819 801 792
f 793 819 792
f 794 820 793
f 817 821 794
f 818 822 817
f 823 824 818
f 820 819 793
f 821 820 794
f 822 821 817
f 824 822 818
f 784 823 818
f 784 825 823
f 784 826 825
f 784 827 826
f 784 828 827
f 784 809 828
f 825 829 823
f 826 830 825
f 828 831 827
f 827 832 826
f 832 830 826
f 831 832 827
f 807 833 808
f 808 834 809
f 809 835 828
f 833 834 808
f 815 833 807
f 834 835 809
f 835 831 828
f 829 824 823
f 830 829 825
f 771 836 764
f 797 837 771
f 766 838 768
f 764 839 766
f 768 840 770
f 770 841 773
f 773 842 775
f 775 843 777
f 777 844 779
f 779 845 781
f 781 846 783
f 783 847 811
f 838 840 768
f 840 841 770
f 836 839 764
f 837 836 771
f 839 838 766
f 841 842 773
f 842 843 775
f 843 844 777
f 844 845 779
f 845 846 781
f 846 847 783
f 847 848 811
f 795 849 797
f 796 850 795
f 798 851 796
f 799 852 798
f 800 853 799
f 811 848 812
f 812 854 813
f 813 855 814
f 814 856 816
f 816 857 815
f 801 858 800
f 819 859 801
f 820 860 819
f 821 861 820
f 822 862 821
f 824 863 822
f 815 864 833
f 833 865 834
f 834 866 835
f 835 867 831
f 829 868 824
f 830 869 829
f 832 870 830
f 831 871 832
f 850 849 795
f 849 837 797
f 851 850 796
f 852 851 798
f 853 852 799
f 848 854 812
f 858 853 800
f 859 858 801
f 860 859 819
f 861 860 820
f 862 861 821
f 863 862 822
f 864 865 833
f 865 866 834
f 866 867 835
f 871 870 832
f 868 863 824
f 869 868 829
f 870 869 830
f 867 871 831
f 854 855 813
f 855 856 814
f 856 857 816
f 857 864 815
f 841 872 842
f 838 873 840
f 840 874 841
f 839 875 838
f 836 876 839
f 837 877 836
f 842 878 843
f 843 879 844
f 844 880 845
f 845 881 846
f 846 882 847
f 847 883 848
f 874 872 841
f 873 874 840
f 875 873 838
f 876 875 839
f 877 876 836
f 884 877 837
f 872 878 842
f 878 879 843
f 879 880 844
f 880 881 845
f 881 882 846
f 882 883 847
f 848 885 854
f 883 885 848
f 849 884 837
f 850 886 849
f 851 887 850
f 852 888 851
f 853 889 852
f 858 890 853
f 859 891 858
f 860 892 859
f 861 893 860
f 862 894 861
f 863 895 862
f 865 896 866
f 868 897 863
f 869 898 868
f 870 899 869
f 867 900 871
f 866 901 867
f 871 902 870
f 886 884 849
f 887 886 850
f 888 887 851
f 889 888 852
f 890 889 853
f 891 890 858
f 892 891 859
f 893 892 860
f 894 893 861
f 895 894 862
f 897 895 863
f 896 901 866
f 898 897 868
f 899 898 869
f 900 902 871
f 901 900 867
f 902 899 870
f 854 903 855
f 855 904 856
f 856 905 857
f 857 906 864
f 864 907 865
f 885 903 854
f 903 904 855
f 904 905 856
f 905 906 857
f 906 907 864
f 907 896 865
f 875 908 873
f 872 909 878
f 873 910 874
f 874 911 872
f 876 912 875
f 877 913 876
f 878 914 879
f 879 915 880
f 880 916 881
f 881 917 882
f 882 918 883
f 883 919 885
f 910 911 874
f 908 910 873
f 911 909 872
f 912 908 875
f 913 912 876
f 920 913 877
f 909 914 878
f 914 915 879
f 915 916 880
f 916 917 881
f 917 918 882
f 918 919 883
f 885 921 903
f 919 921 885
f 884 920 877
f 886 922 884
f 887 923 886
f 888 924 887
f 889 925 888
f 890 926 889
f 891 927 890
f 892 928 891
f 893 929 892
f 894 930 893
f 895 931 894
f 897 932 895
f 898 933 897
f 899 934 898
f 901 935 900
f 900 936 902
f 902 937 899
f 922 920 884
f 923 922 886
f 924 923 887
f 925 924 888
f 926 925 889
f 927 926 890
f 928 927 891
f 929 928 892
f 930 929 893
f 931 930 894
f 932 931 895
f 938 935 901
f 933 932 897
f 934 933 898
f 936 937 902
f 935 936 900
f 937 934 899
f 903 939 904
f 904 940 905
f 905 941 906
f 906 942 907
f 907 943 896
f 896 938 901
f 921 939 903
f 939 940 904
f 940 941 905
f 941 942 906
f 942 943 907
f 943 938 896
f 910 944 911
f 911 945 909
f 909 946 914
f 944 945 911
f 945 946 909
f 912 947 908
f 913 948 912
f 947 949 908
f 948 947 912
f 908 949 910
f 949 944 910
f 914 950 915
f 915 951 916
f 946 950 914
f 950 951 915
f 951 952 916
f 916 952 917
f 917 953 918
f 918 954 919
f 919 955 921
f 952 953 917
f 953 954 918
f 954 955 919
f 955 956 921
f 944 957 945
f 945 958 946
f 949 959 944
f 947 960 949
f 958 961 946
f 959 957 944
f 957 958 945
f 946 961 950
f 950 962 951
f 951 963 952
f 952 964 953
f 961 962 950
f 962 963 951
f 963 964 952
f 964 965 953
f 965 966 954
f 953 965 954
f 954 966 955
f 920 967 913
f 922 968 920
f 968 967 920
f 967 948 913
f 969 968 922
f 923 969 922
f 924 970 923
f 925 971 924
f 970 969 923
f 971 970 924
f 956 972 939
f 926 973 925
f 927 974 926
f 973 971 925
f 974 973 926
f 975 974 927
f 928 975 927
f 929 976 928
f 930 977 929
f 931 978 930
f 976 975 928
f 977 976 929
f 978 977 930
f 979 978 931
f 938 980 935
f 935 981 936
f 982 980 938
f 980 981 935
f 981 983 936
f 932 979 931
f 933 984 932
f 934 985 933
f 986 985 934
f 984 979 932
f 985 984 933
f 936 983 937
f 937 986 934
f 983 986 937
f 948 987 947
f 967 988 948
f 968 989 967
f 960 959 949
f 987 960 947
f 988 987 948
f 990 958 957
f 989 988 967
f 991 989 968
f 990 960 987
f 990 957 959
f 990 959 960
f 990 987 988
f 990 988 989
f 969 991 968
f 970 992 969
f 971 993 970
f 992 991 969
f 990 989 991
f 990 991 992
f 990 992 993
f 993 992 970
f 994 993 971
f 990 993 994
f 990 994 995
f 990 995 996
f 990 996 997
f 990 997 998
f 990 961 958
f 990 962 961
f 990 963 962
f 990 964 963
f 990 965 964
f 990 966 965
f 990 999 966
f 990 1000 999
f 990 1001 1000
f 990 1002 1001
f 955 999 956
f 956 1000 972
f 972 1001 1003
f 1003 1002 1004
f 966 999 955
f 999 1000 956
f 1000 1001 972
f 1001 1002 1003
f 990 1005 1002
f 990 1006 1005
f 990 1007 1006
f 990 998 1008
f 990 1008 1009
f 990 1009 1010
f 990 1010 1011
f 990 1011 1012
f 990 1013 1014
f 990 1015 1013
f 990 1014 1007
f 990 1012 1015
f 1004 1005 1016
f 1016 1006 982
f 982 1007 980
f 1002 1005 1004
f 1005 1006 1016
f 1006 1007 982
f 1007 1014 980
f 973 994 971
f 974 995 973
f 975 996 974
f 976 997 975
f 977 998 976
f 995 994 973
f 996 995 974
f 997 996 975
f 998 997 976
f 1008 998 977
f 978 1008 977
f 985 1011 984
f 986 1012 985
f 1015 1012 986
f 1009 1008 978
f 1010 1009 979
f 1011 1010 984
f 1012 1011 985
f 980 1014 981
f 981 1013 983
f 983 1015 986
f 1014 1013 981
f 1013 1015 983
f 979 1009 978
f 984 1010 979
f 921 956 939
f 939 972 940
f 940 1003 941
f 972 1003 940
f 941 1004 942
f 942 1016 943
f 1003 1004 941
f 1004 1016 942
f 1016 982 943
f 943 982 938
