# sionna2 mesh — matrice4e__camera.obj
# group=camera  verts=1202  tris=2380
v 0.097182 -0.016383 0.043489
v 0.097182 -0.016383 0.015432
v 0.101593 -0.019260 0.015432
v 0.093682 -0.011903 0.043489
v 0.093682 -0.011903 0.015432
v 0.101593 -0.019260 0.043489
v 0.091434 -0.006258 0.043489
v 0.091434 -0.006258 0.015432
v 0.090660 0.000000 0.043489
v 0.090660 0.000000 0.015432
v 0.091434 0.006258 0.043489
v 0.091434 0.006258 0.015432
v 0.106483 0.000000 0.043489
v 0.106483 -0.020251 0.015432
v 0.106483 -0.020251 0.043489
v 0.111372 -0.019260 0.015432
v 0.111372 -0.019260 0.043489
v 0.115783 -0.016383 0.015432
v 0.115783 -0.016383 0.043489
v 0.119284 -0.011903 0.015432
v 0.119284 -0.011903 0.043489
v 0.121532 -0.006258 0.015432
v 0.121532 -0.006258 0.043489
v 0.122306 0.000000 0.015432
v 0.122306 0.000000 0.043489
v 0.121532 0.006258 0.015432
v 0.121532 0.006258 0.043489
v 0.093682 0.011903 0.043489
v 0.093682 0.011903 0.015432
v 0.097182 0.016383 0.043489
v 0.097182 0.016383 0.015432
v 0.101593 0.019260 0.043489
v 0.101593 0.019260 0.015432
v 0.115783 0.016383 0.043489
v 0.115783 0.016383 0.015432
v 0.111372 0.019260 0.015432
v 0.119284 0.011903 0.015432
v 0.119284 0.011903 0.043489
v 0.111372 0.019260 0.043489
v 0.106483 0.020251 0.043489
v 0.106483 0.020251 0.015432
v 0.074581 -0.042189 -0.040683
v 0.138384 -0.042189 -0.040683
v 0.074581 -0.042189 0.008394
v 0.074581 -0.042181 0.008395
v 0.074581 -0.039898 0.009037
v 0.074596 -0.042189 0.008396
v 0.074877 -0.042189 0.008451
v 0.075071 -0.042189 0.008535
v 0.076777 -0.042189 0.009455
v 0.078059 -0.042189 0.010460
v 0.078234 -0.042189 0.010633
v 0.078456 -0.042189 0.010957
v 0.079441 -0.042189 0.012518
v 0.079710 -0.042189 0.013188
v 0.080174 -0.042189 0.014745
v 0.080261 -0.042189 0.015432
v 0.074581 0.042189 -0.040683
v 0.074581 0.034811 0.014207
v 0.138384 -0.036774 -0.022915
v 0.138384 -0.039589 -0.019153
v 0.138384 -0.041056 -0.014862
v 0.138384 -0.028104 -0.027702
v 0.138384 -0.032840 -0.025844
v 0.138384 -0.022951 -0.028338
v 0.138384 -0.017798 -0.027702
v 0.138384 -0.042189 0.015432
v 0.138384 -0.041056 -0.010390
v 0.138384 -0.039589 -0.006099
v 0.138384 -0.013062 -0.025844
v 0.138384 -0.009889 -0.025844
v 0.138384 -0.005153 -0.027702
v 0.138384 0.000000 -0.028338
v 0.138384 -0.011475 -0.024663
v 0.138384 0.042189 -0.040683
v 0.138384 -0.017798 0.002450
v 0.138384 -0.013062 0.000592
v 0.138384 -0.009889 0.000592
v 0.138384 -0.011475 -0.000589
v 0.080253 -0.042083 0.015432
v 0.080147 -0.041357 0.015432
v 0.079930 -0.040631 0.015432
v 0.079258 -0.038877 0.015432
v 0.075510 -0.034944 0.015432
v 0.074581 -0.034555 0.015432
v 0.077825 -0.036655 0.015432
v 0.078177 -0.037054 0.015432
v 0.078506 -0.037527 0.015432
v 0.076575 -0.035545 0.015432
v 0.074581 -0.039558 0.009166
v 0.074581 -0.038764 0.009640
v 0.074581 -0.037384 0.010532
v 0.074581 -0.036652 0.011232
v 0.074581 -0.035894 0.012146
v 0.074581 -0.035199 0.013361
v 0.074581 -0.034811 0.014207
v 0.074581 0.034555 0.015432
v 0.138384 -0.036774 -0.002337
v 0.138384 -0.032840 0.000592
v 0.138384 -0.028104 0.002450
v 0.138384 -0.022951 0.003086
v 0.138384 -0.005153 0.002450
v 0.138384 0.000000 0.003086
v 0.138384 0.042189 0.015432
v 0.074581 0.042189 0.008394
v 0.074581 0.037384 0.010532
v 0.074581 0.038764 0.009640
v 0.074581 0.035199 0.013361
v 0.074581 0.035894 0.012146
v 0.074581 0.036652 0.011232
v 0.074581 0.039558 0.009166
v 0.074581 0.039898 0.009037
v 0.074581 0.042181 0.008395
v 0.074596 0.042189 0.008396
v 0.074877 0.042189 0.008451
v 0.138384 0.005153 -0.027702
v 0.138384 0.017798 -0.027702
v 0.138384 0.009889 -0.025844
v 0.138384 0.011475 -0.024663
v 0.138384 0.013062 -0.025844
v 0.138384 0.022951 -0.028338
v 0.138384 0.028104 -0.027702
v 0.138384 0.005153 0.002450
v 0.138384 0.009889 0.000592
v 0.138384 0.013062 0.000592
v 0.138384 0.011475 -0.000589
v 0.138384 0.032840 -0.025844
v 0.138384 0.036774 -0.022915
v 0.138384 0.039589 -0.019153
v 0.138384 0.041056 -0.014862
v 0.138384 0.041056 -0.010390
v 0.138384 0.039589 -0.006099
v 0.075510 0.034944 0.015432
v 0.076575 0.035545 0.015432
v 0.077825 0.036655 0.015432
v 0.078177 0.037054 0.015432
v 0.078506 0.037527 0.015432
v 0.079258 0.038877 0.015432
v 0.079930 0.040631 0.015432
v 0.080147 0.041357 0.015432
v 0.080253 0.042083 0.015432
v 0.075071 0.042189 0.008535
v 0.076777 0.042189 0.009455
v 0.078059 0.042189 0.010460
v 0.078234 0.042189 0.010633
v 0.078456 0.042189 0.010957
v 0.079441 0.042189 0.012518
v 0.079710 0.042189 0.013188
v 0.080174 0.042189 0.014745
v 0.080261 0.042189 0.015432
v 0.138384 0.017798 0.002450
v 0.138384 0.022951 0.003086
v 0.138384 0.028104 0.002450
v 0.138384 0.032840 0.000592
v 0.138384 0.036774 -0.002337
v 0.155611 -0.039589 -0.019153
v 0.155611 -0.036774 -0.022915
v 0.155611 -0.032840 -0.025844
v 0.155611 -0.028104 -0.027702
v 0.155611 -0.022951 -0.028338
v 0.155611 -0.022951 -0.012626
v 0.155611 -0.041056 -0.014862
v 0.155611 -0.041056 -0.010390
v 0.155611 -0.039589 -0.006099
v 0.155611 -0.036774 -0.002337
v 0.155611 -0.032840 0.000592
v 0.155611 -0.028104 0.002450
v 0.155611 -0.022951 0.003086
v 0.155611 -0.017798 -0.027702
v 0.155611 -0.013062 -0.025844
v 0.155611 -0.011475 -0.024663
v 0.155611 -0.009127 -0.022915
v 0.155611 -0.011475 -0.017128
v 0.155611 -0.006313 -0.019153
v 0.155611 -0.016903 -0.008124
v 0.155611 -0.017272 -0.007954
v 0.155611 -0.014592 -0.009347
v 0.155611 -0.011475 -0.014043
v 0.155611 -0.011475 -0.011209
v 0.155611 -0.016638 -0.006099
v 0.155611 -0.013062 0.000592
v 0.155611 -0.017798 0.002450
v 0.155611 -0.011475 -0.004084
v 0.155611 -0.013303 -0.001949
v 0.155611 -0.011475 -0.000589
v 0.155611 -0.007183 -0.017972
v 0.155611 -0.009889 -0.025844
v 0.155611 -0.005153 -0.027702
v 0.155611 0.000000 -0.012626
v 0.155611 0.000000 -0.028338
v 0.155611 0.005153 -0.027702
v 0.155611 -0.009889 0.000592
v 0.155611 0.006313 -0.019153
v 0.155611 0.004846 -0.014862
v 0.155611 0.004846 -0.010390
v 0.155611 0.006313 -0.006099
v 0.155611 -0.005153 0.002450
v 0.155611 0.000000 0.003086
v 0.155611 0.005153 0.002450
v 0.155611 0.009889 -0.025844
v 0.155611 0.011475 -0.024663
v 0.155611 0.009127 -0.022915
v 0.155611 0.009889 0.000592
v 0.155611 0.011475 -0.000589
v 0.155611 0.009127 -0.002337
v 0.155611 0.013062 -0.025844
v 0.155611 0.017798 -0.027702
v 0.155611 0.022951 -0.012626
v 0.155611 0.022951 -0.028338
v 0.155611 0.028104 -0.027702
v 0.155611 0.032840 -0.025844
v 0.155611 0.036774 -0.022915
v 0.155611 0.013062 0.000592
v 0.155611 0.017798 0.002450
v 0.155611 0.039589 -0.019153
v 0.155611 0.022951 0.003086
v 0.155611 0.028104 0.002450
v 0.155611 0.039589 -0.006099
v 0.155611 0.036774 -0.002337
v 0.155611 0.032840 0.000592
v 0.155611 0.041056 -0.014862
v 0.155611 0.041056 -0.010390
v 0.130303 0.054437 -0.020108
v 0.130303 0.058216 -0.019367
v 0.150720 0.054437 -0.020108
v 0.150720 0.050658 -0.019367
v 0.130303 0.047628 -0.017291
v 0.150720 0.045946 -0.014291
v 0.130303 0.045946 -0.014291
v 0.150720 0.045946 -0.010961
v 0.130303 0.045946 -0.010961
v 0.150720 0.047628 -0.017291
v 0.150720 0.047628 -0.007961
v 0.130303 0.047628 -0.007961
v 0.130303 0.054437 -0.012626
v 0.130303 0.050658 -0.019367
v 0.130303 0.061247 -0.017291
v 0.130303 0.062929 -0.014291
v 0.150720 0.058216 -0.019367
v 0.150720 0.061247 -0.017291
v 0.130303 0.062929 -0.010961
v 0.130303 0.061247 -0.007961
v 0.150720 0.062929 -0.014291
v 0.150720 0.062929 -0.010961
v 0.150720 0.054437 -0.012626
v 0.150720 0.061247 -0.007961
v 0.130303 0.050658 -0.005885
v 0.130303 0.054437 -0.005144
v 0.150720 0.050658 -0.005885
v 0.150720 0.054437 -0.005144
v 0.130303 0.058216 -0.005885
v 0.150720 0.058216 -0.005885
v 0.068365 -0.050677 0.012834
v 0.069609 -0.049693 0.010621
v 0.070500 -0.051860 0.012205
v 0.071636 -0.050731 0.010504
v 0.072866 -0.049085 0.009254
v 0.074095 -0.050731 0.010504
v 0.072866 -0.052268 0.011988
v 0.070876 -0.048185 0.009152
v 0.069037 -0.046961 0.009604
v 0.070853 -0.045525 0.008408
v 0.072866 -0.046611 0.008317
v 0.074855 -0.048185 0.009152
v 0.067596 -0.048101 0.011466
v 0.067490 -0.045507 0.010574
v 0.066261 -0.046480 0.012762
v 0.066353 -0.043933 0.011988
v 0.066261 -0.041387 0.012762
v 0.067490 -0.042359 0.010574
v 0.068840 -0.043933 0.009254
v 0.070853 -0.042341 0.008408
v 0.072866 -0.043933 0.007996
v 0.074878 -0.045525 0.008408
v 0.069037 -0.040905 0.009604
v 0.070876 -0.039682 0.009152
v 0.072866 -0.041255 0.008317
v 0.072866 -0.038782 0.009254
v 0.067596 -0.039765 0.011466
v 0.069609 -0.038174 0.010621
v 0.066671 -0.048832 0.013813
v 0.065584 -0.046509 0.015046
v 0.067554 -0.050812 0.015062
v 0.066353 -0.049085 0.016414
v 0.065584 -0.046509 0.017781
v 0.069543 -0.052386 0.014226
v 0.071622 -0.053252 0.014201
v 0.074109 -0.053252 0.014201
v 0.070773 -0.053359 0.016414
v 0.068840 -0.052268 0.016414
v 0.069543 -0.052386 0.018601
v 0.067554 -0.050812 0.017766
v 0.072866 -0.053732 0.016414
v 0.071622 -0.053252 0.018626
v 0.066671 -0.048832 0.019015
v 0.066261 -0.046480 0.020066
v 0.067596 -0.048101 0.021361
v 0.068365 -0.050677 0.019994
v 0.070500 -0.051860 0.020622
v 0.074109 -0.053252 0.018626
v 0.072866 -0.052268 0.020839
v 0.069609 -0.049693 0.022206
v 0.071636 -0.050731 0.022323
v 0.074095 -0.050731 0.022323
v 0.067490 -0.045507 0.022253
v 0.069037 -0.046961 0.023223
v 0.065501 -0.043933 0.014114
v 0.065209 -0.043933 0.016414
v 0.065584 -0.041357 0.015046
v 0.066671 -0.039034 0.013813
v 0.065584 -0.041357 0.017781
v 0.066353 -0.038782 0.016414
v 0.065501 -0.043933 0.018714
v 0.066353 -0.043933 0.020839
v 0.066261 -0.041387 0.020066
v 0.066671 -0.039034 0.019015
v 0.067490 -0.042359 0.022253
v 0.067596 -0.039765 0.021361
v 0.069037 -0.040905 0.023223
v 0.069609 -0.038174 0.022206
v 0.068365 -0.037190 0.012834
v 0.070500 -0.036006 0.012205
v 0.071636 -0.037135 0.010504
v 0.074095 -0.037135 0.010504
v 0.072866 -0.035598 0.011988
v 0.067554 -0.037054 0.015062
v 0.069543 -0.035480 0.014226
v 0.067554 -0.037054 0.017766
v 0.068840 -0.035598 0.016414
v 0.071622 -0.034614 0.014201
v 0.074109 -0.034614 0.014201
v 0.070773 -0.034507 0.016414
v 0.069543 -0.035480 0.018601
v 0.072866 -0.034134 0.016414
v 0.071622 -0.034614 0.018626
v 0.068365 -0.037190 0.019994
v 0.070500 -0.036006 0.020622
v 0.071636 -0.037135 0.022323
v 0.072866 -0.035598 0.020839
v 0.074095 -0.037135 0.022323
v 0.074109 -0.034614 0.018626
v 0.075231 -0.051860 0.012205
v 0.076122 -0.049693 0.010621
v 0.077366 -0.050677 0.012834
v 0.076694 -0.046961 0.009604
v 0.078135 -0.048101 0.011466
v 0.078241 -0.045507 0.010574
v 0.079470 -0.046480 0.012762
v 0.076891 -0.043933 0.009254
v 0.074878 -0.042341 0.008408
v 0.079378 -0.043933 0.011988
v 0.078241 -0.042359 0.010574
v 0.076188 -0.052386 0.014226
v 0.078177 -0.050812 0.015062
v 0.079060 -0.048832 0.013813
v 0.074958 -0.053359 0.016414
v 0.076891 -0.052268 0.016414
v 0.076188 -0.052386 0.018601
v 0.078177 -0.050812 0.017766
v 0.079378 -0.049085 0.016414
v 0.080147 -0.046509 0.015046
v 0.080147 -0.046509 0.017781
v 0.075231 -0.051860 0.020622
v 0.077366 -0.050677 0.019994
v 0.079060 -0.048832 0.019015
v 0.076122 -0.049693 0.022206
v 0.079470 -0.046480 0.020066
v 0.078135 -0.048101 0.021361
v 0.076694 -0.046961 0.023223
v 0.078241 -0.045507 0.022253
v 0.080230 -0.043933 0.014114
v 0.080522 -0.043933 0.016414
v 0.080147 -0.041357 0.017781
v 0.079378 -0.038782 0.016414
v 0.080230 -0.043933 0.018714
v 0.079378 -0.043933 0.020839
v 0.079470 -0.041387 0.020066
v 0.078241 -0.042359 0.022253
v 0.079060 -0.039034 0.019015
v 0.078135 -0.039765 0.021361
v 0.076122 -0.038174 0.022206
v 0.076694 -0.040905 0.023223
v 0.076891 -0.035598 0.016414
v 0.078177 -0.037054 0.017766
v 0.074958 -0.034507 0.016414
v 0.076188 -0.035480 0.018601
v 0.075231 -0.036006 0.020622
v 0.077366 -0.037190 0.019994
v 0.072866 -0.049085 0.023574
v 0.070876 -0.048185 0.023675
v 0.070853 -0.045525 0.024419
v 0.072866 -0.046611 0.024511
v 0.074855 -0.048185 0.023675
v 0.068840 -0.043933 0.023574
v 0.070853 -0.042341 0.024419
v 0.072866 -0.043933 0.024831
v 0.074878 -0.045525 0.024419
v 0.070876 -0.039682 0.023675
v 0.072866 -0.041255 0.024511
v 0.074878 -0.042341 0.024419
v 0.072866 -0.038782 0.023574
v 0.074855 -0.039682 0.023675
v 0.076891 -0.043933 0.023574
v 0.068365 0.037190 0.012834
v 0.069609 0.038174 0.010621
v 0.070500 0.036006 0.012205
v 0.071636 0.037135 0.010504
v 0.072866 0.035598 0.011988
v 0.074095 0.037135 0.010504
v 0.070876 0.039682 0.009152
v 0.069037 0.040905 0.009604
v 0.070853 0.042341 0.008408
v 0.072866 0.041255 0.008317
v 0.072866 0.038782 0.009254
v 0.067596 0.039765 0.011466
v 0.067490 0.042359 0.010574
v 0.066261 0.041387 0.012762
v 0.066353 0.043933 0.011988
v 0.066261 0.046480 0.012762
v 0.067490 0.045507 0.010574
v 0.068840 0.043933 0.009254
v 0.070853 0.045525 0.008408
v 0.072866 0.043933 0.007996
v 0.069037 0.046961 0.009604
v 0.070876 0.048185 0.009152
v 0.072866 0.046611 0.008317
v 0.074878 0.045525 0.008408
v 0.072866 0.049085 0.009254
v 0.074855 0.048185 0.009152
v 0.067596 0.048101 0.011466
v 0.069609 0.049693 0.010621
v 0.066671 0.039034 0.013813
v 0.065584 0.041357 0.015046
v 0.067554 0.037054 0.015062
v 0.066353 0.038782 0.016414
v 0.065584 0.041357 0.017781
v 0.069543 0.035480 0.014226
v 0.071622 0.034614 0.014201
v 0.074109 0.034614 0.014201
v 0.070773 0.034507 0.016414
v 0.068840 0.035598 0.016414
v 0.069543 0.035480 0.018601
v 0.067554 0.037054 0.017766
v 0.072866 0.034134 0.016414
v 0.071622 0.034614 0.018626
v 0.066671 0.039034 0.019015
v 0.066261 0.041387 0.020066
v 0.067596 0.039765 0.021361
v 0.068365 0.037190 0.019994
v 0.070500 0.036006 0.020622
v 0.074109 0.034614 0.018626
v 0.072866 0.035598 0.020839
v 0.069609 0.038174 0.022206
v 0.071636 0.037135 0.022323
v 0.074095 0.037135 0.022323
v 0.069037 0.040905 0.023223
v 0.067490 0.042359 0.022253
v 0.065501 0.043933 0.014114
v 0.065209 0.043933 0.016414
v 0.065584 0.046509 0.015046
v 0.066671 0.048832 0.013813
v 0.065584 0.046509 0.017781
v 0.066353 0.049085 0.016414
v 0.065501 0.043933 0.018714
v 0.066353 0.043933 0.020839
v 0.066261 0.046480 0.020066
v 0.066671 0.048832 0.019015
v 0.067490 0.045507 0.022253
v 0.067596 0.048101 0.021361
v 0.069037 0.046961 0.023223
v 0.069609 0.049693 0.022206
v 0.068365 0.050677 0.012834
v 0.070500 0.051860 0.012205
v 0.071636 0.050731 0.010504
v 0.074095 0.050731 0.010504
v 0.072866 0.052268 0.011988
v 0.067554 0.050812 0.015062
v 0.069543 0.052386 0.014226
v 0.068840 0.052268 0.016414
v 0.067554 0.050812 0.017766
v 0.071622 0.053252 0.014201
v 0.074109 0.053252 0.014201
v 0.070773 0.053359 0.016414
v 0.069543 0.052386 0.018601
v 0.072866 0.053732 0.016414
v 0.071622 0.053252 0.018626
v 0.068365 0.050677 0.019994
v 0.070500 0.051860 0.020622
v 0.071636 0.050731 0.022323
v 0.072866 0.052268 0.020839
v 0.074095 0.050731 0.022323
v 0.074109 0.053252 0.018626
v 0.074878 0.042341 0.008408
v 0.076891 0.043933 0.009254
v 0.078241 0.042359 0.010574
v 0.079378 0.043933 0.011988
v 0.078241 0.045507 0.010574
v 0.076694 0.046961 0.009604
v 0.076122 0.049693 0.010621
v 0.078135 0.048101 0.011466
v 0.079470 0.046480 0.012762
v 0.074958 0.034507 0.016414
v 0.076891 0.035598 0.016414
v 0.076188 0.035480 0.018601
v 0.078177 0.037054 0.017766
v 0.079378 0.038782 0.016414
v 0.080147 0.041357 0.017781
v 0.075231 0.036006 0.020622
v 0.077366 0.037190 0.019994
v 0.076122 0.038174 0.022206
v 0.079060 0.039034 0.019015
v 0.079470 0.041387 0.020066
v 0.078135 0.039765 0.021361
v 0.076694 0.040905 0.023223
v 0.078241 0.042359 0.022253
v 0.080230 0.043933 0.014114
v 0.080522 0.043933 0.016414
v 0.080147 0.046509 0.015046
v 0.079060 0.048832 0.013813
v 0.080147 0.046509 0.017781
v 0.079378 0.049085 0.016414
v 0.080230 0.043933 0.018714
v 0.079378 0.043933 0.020839
v 0.078241 0.045507 0.022253
v 0.079470 0.046480 0.020066
v 0.079060 0.048832 0.019015
v 0.078135 0.048101 0.021361
v 0.076122 0.049693 0.022206
v 0.076694 0.046961 0.023223
v 0.075231 0.051860 0.012205
v 0.077366 0.050677 0.012834
v 0.076188 0.052386 0.014226
v 0.078177 0.050812 0.015062
v 0.076891 0.052268 0.016414
v 0.078177 0.050812 0.017766
v 0.074958 0.053359 0.016414
v 0.076188 0.052386 0.018601
v 0.075231 0.051860 0.020622
v 0.077366 0.050677 0.019994
v 0.070876 0.039682 0.023675
v 0.070853 0.042341 0.024419
v 0.072866 0.038782 0.023574
v 0.072866 0.041255 0.024511
v 0.074855 0.039682 0.023675
v 0.068840 0.043933 0.023574
v 0.070853 0.045525 0.024419
v 0.072866 0.043933 0.024831
v 0.074878 0.042341 0.024419
v 0.070876 0.048185 0.023675
v 0.072866 0.046611 0.024511
v 0.074878 0.045525 0.024419
v 0.072866 0.049085 0.023574
v 0.074855 0.048185 0.023675
v 0.076891 0.043933 0.023574
v -0.058882 -0.046961 0.010867
v -0.060323 -0.048101 0.012729
v -0.060429 -0.045507 0.011837
v -0.057044 -0.048185 0.010415
v -0.058310 -0.049693 0.011884
v -0.056284 -0.050731 0.011767
v -0.055054 -0.049085 0.010516
v -0.057067 -0.045525 0.009671
v -0.055054 -0.046611 0.009579
v -0.053824 -0.050731 0.011767
v -0.053064 -0.048185 0.010415
v -0.051797 -0.049693 0.011884
v -0.053041 -0.045525 0.009671
v -0.051226 -0.046961 0.010867
v -0.049785 -0.048101 0.012729
v -0.049679 -0.045507 0.011837
v -0.059079 -0.043933 0.010516
v -0.060429 -0.042359 0.011837
v -0.057067 -0.042341 0.009671
v -0.055054 -0.043933 0.009259
v -0.058882 -0.040905 0.010867
v -0.060323 -0.039765 0.012729
v -0.057044 -0.039682 0.010415
v -0.055054 -0.041255 0.009579
v -0.058310 -0.038174 0.011884
v -0.053041 -0.042341 0.009671
v -0.051029 -0.043933 0.010516
v -0.049679 -0.042359 0.011837
v -0.053064 -0.039682 0.010415
v -0.055054 -0.038782 0.010516
v -0.051226 -0.040905 0.010867
v -0.049785 -0.039765 0.012729
v -0.051797 -0.038174 0.011884
v -0.057420 -0.051860 0.013468
v -0.055054 -0.052268 0.013251
v -0.056298 -0.053252 0.015464
v -0.059554 -0.050677 0.014096
v -0.058376 -0.052386 0.015489
v -0.060366 -0.050812 0.016324
v -0.061248 -0.048832 0.015075
v -0.057146 -0.053359 0.017676
v -0.059079 -0.052268 0.017676
v -0.055054 -0.053732 0.017676
v -0.061659 -0.046480 0.014024
v -0.061567 -0.049085 0.017676
v -0.062336 -0.046509 0.016309
v -0.052688 -0.051860 0.013468
v -0.053810 -0.053252 0.015464
v -0.050554 -0.050677 0.014096
v -0.051732 -0.052386 0.015489
v -0.052962 -0.053359 0.017676
v -0.051029 -0.052268 0.017676
v -0.049742 -0.050812 0.016324
v -0.048860 -0.048832 0.015075
v -0.048449 -0.046480 0.014024
v -0.060366 -0.050812 0.019028
v -0.058376 -0.052386 0.019864
v -0.056298 -0.053252 0.019889
v -0.059554 -0.050677 0.021256
v -0.061248 -0.048832 0.020277
v -0.057420 -0.051860 0.021885
v -0.055054 -0.052268 0.022101
v -0.058310 -0.049693 0.023469
v -0.062336 -0.046509 0.019044
v -0.060323 -0.048101 0.022624
v -0.061659 -0.046480 0.021328
v -0.053810 -0.053252 0.019889
v -0.051732 -0.052386 0.019864
v -0.049742 -0.050812 0.019028
v -0.048541 -0.049085 0.017676
v -0.052688 -0.051860 0.021885
v -0.050554 -0.050677 0.021256
v -0.048860 -0.048832 0.020277
v -0.051797 -0.049693 0.023469
v -0.049785 -0.048101 0.022624
v -0.061567 -0.043933 0.013251
v -0.062419 -0.043933 0.015376
v -0.061659 -0.041387 0.014024
v -0.062710 -0.043933 0.017676
v -0.062336 -0.041357 0.016309
v -0.061248 -0.039034 0.015075
v -0.061567 -0.038782 0.017676
v -0.048541 -0.043933 0.013251
v -0.048449 -0.041387 0.014024
v -0.062419 -0.043933 0.019976
v -0.062336 -0.041357 0.019044
v -0.061567 -0.043933 0.022101
v -0.060429 -0.045507 0.023516
v -0.061659 -0.041387 0.021328
v -0.061248 -0.039034 0.020277
v -0.060429 -0.042359 0.023516
v -0.060323 -0.039765 0.022624
v -0.047772 -0.046509 0.016309
v -0.047772 -0.046509 0.019044
v -0.048449 -0.046480 0.021328
v -0.047689 -0.043933 0.015376
v -0.047398 -0.043933 0.017676
v -0.047772 -0.041357 0.016309
v -0.048860 -0.039034 0.015075
v -0.048541 -0.038782 0.017676
v -0.047689 -0.043933 0.019976
v -0.047772 -0.041357 0.019044
v -0.048541 -0.043933 0.022101
v -0.049679 -0.045507 0.023516
v -0.048449 -0.041387 0.021328
v -0.048860 -0.039034 0.020277
v -0.049679 -0.042359 0.023516
v -0.049785 -0.039765 0.022624
v -0.056284 -0.037135 0.011767
v -0.053824 -0.037135 0.011767
v -0.059554 -0.037190 0.014096
v -0.057420 -0.036006 0.013468
v -0.055054 -0.035598 0.013251
v -0.058376 -0.035480 0.015489
v -0.060366 -0.037054 0.016324
v -0.059079 -0.035598 0.017676
v -0.056298 -0.034614 0.015464
v -0.057146 -0.034507 0.017676
v -0.055054 -0.034134 0.017676
v -0.052688 -0.036006 0.013468
v -0.050554 -0.037190 0.014096
v -0.051732 -0.035480 0.015489
v -0.049742 -0.037054 0.016324
v -0.051029 -0.035598 0.017676
v -0.053810 -0.034614 0.015464
v -0.052962 -0.034507 0.017676
v -0.060366 -0.037054 0.019028
v -0.058376 -0.035480 0.019864
v -0.059554 -0.037190 0.021256
v -0.057420 -0.036006 0.021885
v -0.058310 -0.038174 0.023469
v -0.056298 -0.034614 0.019889
v -0.055054 -0.035598 0.022101
v -0.049742 -0.037054 0.019028
v -0.051732 -0.035480 0.019864
v -0.050554 -0.037190 0.021256
v -0.052688 -0.036006 0.021885
v -0.051797 -0.038174 0.023469
v -0.053810 -0.034614 0.019889
v -0.056284 -0.050731 0.023586
v -0.058882 -0.046961 0.024486
v -0.057044 -0.048185 0.024938
v -0.055054 -0.049085 0.024836
v -0.057067 -0.045525 0.025682
v -0.055054 -0.046611 0.025773
v -0.053824 -0.050731 0.023586
v -0.053064 -0.048185 0.024938
v -0.051226 -0.046961 0.024486
v -0.053041 -0.045525 0.025682
v -0.059079 -0.043933 0.024836
v -0.057067 -0.042341 0.025682
v -0.055054 -0.043933 0.026094
v -0.058882 -0.040905 0.024486
v -0.057044 -0.039682 0.024938
v -0.055054 -0.041255 0.025773
v -0.051029 -0.043933 0.024836
v -0.053041 -0.042341 0.025682
v -0.051226 -0.040905 0.024486
v -0.053064 -0.039682 0.024938
v -0.055054 -0.038782 0.024836
v -0.056284 -0.037135 0.023586
v -0.053824 -0.037135 0.023586
v -0.058882 0.040905 0.010867
v -0.060323 0.039765 0.012729
v -0.060429 0.042359 0.011837
v -0.056284 0.037135 0.011767
v -0.057044 0.039682 0.010415
v -0.055054 0.038782 0.010516
v -0.058310 0.038174 0.011884
v -0.057067 0.042341 0.009671
v -0.053824 0.037135 0.011767
v -0.053064 0.039682 0.010415
v -0.051797 0.038174 0.011884
v -0.055054 0.041255 0.009579
v -0.053041 0.042341 0.009671
v -0.051226 0.040905 0.010867
v -0.049785 0.039765 0.012729
v -0.049679 0.042359 0.011837
v -0.059079 0.043933 0.010516
v -0.060429 0.045507 0.011837
v -0.057067 0.045525 0.009671
v -0.055054 0.043933 0.009259
v -0.058882 0.046961 0.010867
v -0.060323 0.048101 0.012729
v -0.057044 0.048185 0.010415
v -0.055054 0.046611 0.009579
v -0.058310 0.049693 0.011884
v -0.053041 0.045525 0.009671
v -0.051029 0.043933 0.010516
v -0.049679 0.045507 0.011837
v -0.055054 0.049085 0.010516
v -0.053064 0.048185 0.010415
v -0.051226 0.046961 0.010867
v -0.051797 0.049693 0.011884
v -0.049785 0.048101 0.012729
v -0.057420 0.036006 0.013468
v -0.055054 0.035598 0.013251
v -0.056298 0.034614 0.015464
v -0.059554 0.037190 0.014096
v -0.058376 0.035480 0.015489
v -0.060366 0.037054 0.016324
v -0.057146 0.034507 0.017676
v -0.059079 0.035598 0.017676
v -0.055054 0.034134 0.017676
v -0.061248 0.039034 0.015075
v -0.061659 0.041387 0.014024
v -0.061567 0.038782 0.017676
v -0.062336 0.041357 0.016309
v -0.052688 0.036006 0.013468
v -0.053810 0.034614 0.015464
v -0.050554 0.037190 0.014096
v -0.051732 0.035480 0.015489
v -0.052962 0.034507 0.017676
v -0.051029 0.035598 0.017676
v -0.049742 0.037054 0.016324
v -0.048860 0.039034 0.015075
v -0.060366 0.037054 0.019028
v -0.058376 0.035480 0.019864
v -0.056298 0.034614 0.019889
v -0.059554 0.037190 0.021256
v -0.057420 0.036006 0.021885
v -0.055054 0.035598 0.022101
v -0.058310 0.038174 0.023469
v -0.061248 0.039034 0.020277
v -0.062336 0.041357 0.019044
v -0.060323 0.039765 0.022624
v -0.061659 0.041387 0.021328
v -0.053810 0.034614 0.019889
v -0.051732 0.035480 0.019864
v -0.049742 0.037054 0.019028
v -0.052688 0.036006 0.021885
v -0.050554 0.037190 0.021256
v -0.051797 0.038174 0.023469
v -0.048541 0.038782 0.017676
v -0.048860 0.039034 0.020277
v -0.049785 0.039765 0.022624
v -0.061567 0.043933 0.013251
v -0.062419 0.043933 0.015376
v -0.062710 0.043933 0.017676
v -0.061659 0.046480 0.014024
v -0.061248 0.048832 0.015075
v -0.062336 0.046509 0.016309
v -0.061567 0.049085 0.017676
v -0.048449 0.041387 0.014024
v -0.048541 0.043933 0.013251
v -0.048449 0.046480 0.014024
v -0.062419 0.043933 0.019976
v -0.060429 0.042359 0.023516
v -0.061567 0.043933 0.022101
v -0.062336 0.046509 0.019044
v -0.061248 0.048832 0.020277
v -0.061659 0.046480 0.021328
v -0.060429 0.045507 0.023516
v -0.060323 0.048101 0.022624
v -0.047772 0.041357 0.016309
v -0.047772 0.041357 0.019044
v -0.048449 0.041387 0.021328
v -0.047689 0.043933 0.015376
v -0.047398 0.043933 0.017676
v -0.048860 0.048832 0.015075
v -0.047772 0.046509 0.016309
v -0.048541 0.049085 0.017676
v -0.047689 0.043933 0.019976
v -0.049679 0.042359 0.023516
v -0.048541 0.043933 0.022101
v -0.047772 0.046509 0.019044
v -0.048860 0.048832 0.020277
v -0.048449 0.046480 0.021328
v -0.049679 0.045507 0.023516
v -0.049785 0.048101 0.022624
v -0.056284 0.050731 0.011767
v -0.053824 0.050731 0.011767
v -0.059554 0.050677 0.014096
v -0.057420 0.051860 0.013468
v -0.055054 0.052268 0.013251
v -0.058376 0.052386 0.015489
v -0.060366 0.050812 0.016324
v -0.059079 0.052268 0.017676
v -0.056298 0.053252 0.015464
v -0.057146 0.053359 0.017676
v -0.055054 0.053732 0.017676
v -0.052688 0.051860 0.013468
v -0.050554 0.050677 0.014096
v -0.051732 0.052386 0.015489
v -0.049742 0.050812 0.016324
v -0.051029 0.052268 0.017676
v -0.053810 0.053252 0.015464
v -0.052962 0.053359 0.017676
v -0.060366 0.050812 0.019028
v -0.058376 0.052386 0.019864
v -0.059554 0.050677 0.021256
v -0.057420 0.051860 0.021885
v -0.058310 0.049693 0.023469
v -0.056298 0.053252 0.019889
v -0.055054 0.052268 0.022101
v -0.049742 0.050812 0.019028
v -0.051732 0.052386 0.019864
v -0.050554 0.050677 0.021256
v -0.052688 0.051860 0.021885
v -0.051797 0.049693 0.023469
v -0.053810 0.053252 0.019889
v -0.056284 0.037135 0.023586
v -0.058882 0.040905 0.024486
v -0.057044 0.039682 0.024938
v -0.055054 0.038782 0.024836
v -0.057067 0.042341 0.025682
v -0.053824 0.037135 0.023586
v -0.053064 0.039682 0.024938
v -0.051226 0.040905 0.024486
v -0.053041 0.042341 0.025682
v -0.055054 0.041255 0.025773
v -0.059079 0.043933 0.024836
v -0.057067 0.045525 0.025682
v -0.055054 0.043933 0.026094
v -0.058882 0.046961 0.024486
v -0.057044 0.048185 0.024938
v -0.055054 0.046611 0.025773
v -0.051029 0.043933 0.024836
v -0.053041 0.045525 0.025682
v -0.051226 0.046961 0.024486
v -0.053064 0.048185 0.024938
v -0.055054 0.049085 0.024836
v -0.056284 0.050731 0.023586
v -0.053824 0.050731 0.023586
v 0.011692 -0.040538 -0.030094
v 0.010923 -0.037962 -0.031462
v 0.012936 -0.039554 -0.032307
v 0.014203 -0.038046 -0.033776
v 0.014963 -0.040593 -0.032424
v 0.016192 -0.038946 -0.033675
v 0.017422 -0.040593 -0.032424
v 0.018182 -0.038046 -0.033776
v 0.019449 -0.039554 -0.032307
v 0.013826 -0.041722 -0.030723
v 0.016192 -0.042130 -0.030940
v 0.018558 -0.041722 -0.030723
v 0.012870 -0.042248 -0.028702
v 0.010881 -0.040674 -0.027866
v 0.012167 -0.042130 -0.026514
v 0.009998 -0.038694 -0.029115
v 0.009679 -0.038946 -0.026514
v 0.010881 -0.040674 -0.025162
v 0.012870 -0.042248 -0.024327
v 0.009998 -0.038694 -0.023913
v 0.014948 -0.043114 -0.028727
v 0.014100 -0.043220 -0.026514
v 0.017436 -0.043114 -0.028727
v 0.016192 -0.043593 -0.026514
v 0.019514 -0.042248 -0.028702
v 0.018285 -0.043220 -0.026514
v 0.014948 -0.043114 -0.024302
v 0.017436 -0.043114 -0.024302
v 0.019514 -0.042248 -0.024327
v 0.011692 -0.040538 -0.022934
v 0.012936 -0.039554 -0.020722
v 0.010923 -0.037962 -0.021567
v 0.013826 -0.041722 -0.022306
v 0.016192 -0.042130 -0.022089
v 0.018558 -0.041722 -0.022306
v 0.014963 -0.040593 -0.020605
v 0.014203 -0.038046 -0.019253
v 0.016192 -0.038946 -0.019354
v 0.017422 -0.040593 -0.020605
v 0.019449 -0.039554 -0.020722
v 0.018182 -0.038046 -0.019253
v 0.012364 -0.036823 -0.033324
v 0.009587 -0.036341 -0.030167
v 0.010817 -0.035369 -0.032354
v 0.012167 -0.033795 -0.033675
v 0.010817 -0.032221 -0.032354
v 0.012364 -0.030767 -0.033324
v 0.009679 -0.033795 -0.030940
v 0.009587 -0.031248 -0.030167
v 0.016192 -0.036472 -0.034611
v 0.014180 -0.035387 -0.034520
v 0.018205 -0.035387 -0.034520
v 0.020021 -0.036823 -0.033324
v 0.014180 -0.032203 -0.034520
v 0.016192 -0.033795 -0.034932
v 0.016192 -0.031117 -0.034611
v 0.018205 -0.032203 -0.034520
v 0.020218 -0.033795 -0.033675
v 0.010923 -0.029627 -0.031462
v 0.012936 -0.028035 -0.032307
v 0.009998 -0.028895 -0.029115
v 0.011692 -0.027051 -0.030094
v 0.014203 -0.029543 -0.033776
v 0.016192 -0.028643 -0.033675
v 0.014963 -0.026997 -0.032424
v 0.018182 -0.029543 -0.033776
v 0.020021 -0.030767 -0.033324
v 0.017422 -0.026997 -0.032424
v 0.019449 -0.028035 -0.032307
v 0.013826 -0.025867 -0.030723
v 0.016192 -0.025459 -0.030940
v 0.018558 -0.025867 -0.030723
v 0.008911 -0.036370 -0.027882
v 0.008911 -0.036370 -0.025147
v 0.008536 -0.033795 -0.026514
v 0.008827 -0.033795 -0.028815
v 0.008911 -0.031219 -0.027882
v 0.008827 -0.033795 -0.024214
v 0.008911 -0.031219 -0.025147
v 0.009587 -0.036341 -0.022862
v 0.012364 -0.036823 -0.019705
v 0.010817 -0.035369 -0.020675
v 0.009679 -0.033795 -0.022089
v 0.009587 -0.031248 -0.022862
v 0.010817 -0.032221 -0.020675
v 0.012167 -0.033795 -0.019354
v 0.012364 -0.030767 -0.019705
v 0.009679 -0.028643 -0.026514
v 0.009998 -0.028895 -0.023913
v 0.010881 -0.026916 -0.027866
v 0.012870 -0.025342 -0.028702
v 0.012167 -0.025459 -0.026514
v 0.010881 -0.026916 -0.025162
v 0.012870 -0.025342 -0.024327
v 0.014948 -0.024476 -0.028727
v 0.014100 -0.024369 -0.026514
v 0.017436 -0.024476 -0.028727
v 0.019514 -0.025342 -0.028702
v 0.018285 -0.024369 -0.026514
v 0.014948 -0.024476 -0.024302
v 0.019514 -0.025342 -0.024327
v 0.017436 -0.024476 -0.024302
v 0.010923 -0.029627 -0.021567
v 0.011692 -0.027051 -0.022934
v 0.012936 -0.028035 -0.020722
v 0.014203 -0.029543 -0.019253
v 0.014963 -0.026997 -0.020605
v 0.016192 -0.028643 -0.019354
v 0.017422 -0.026997 -0.020605
v 0.018182 -0.029543 -0.019253
v 0.013826 -0.025867 -0.022306
v 0.016192 -0.025459 -0.022089
v 0.018558 -0.025867 -0.022306
v 0.019449 -0.028035 -0.020722
v 0.020693 -0.040538 -0.030094
v 0.021461 -0.037962 -0.031462
v 0.021504 -0.040674 -0.027866
v 0.020218 -0.042130 -0.026514
v 0.022386 -0.038694 -0.029115
v 0.022705 -0.038946 -0.026514
v 0.021504 -0.040674 -0.025162
v 0.022386 -0.038694 -0.023913
v 0.020693 -0.040538 -0.022934
v 0.021461 -0.037962 -0.021567
v 0.022797 -0.036341 -0.030167
v 0.021567 -0.035369 -0.032354
v 0.021567 -0.032221 -0.032354
v 0.022705 -0.033795 -0.030940
v 0.022797 -0.031248 -0.030167
v 0.021461 -0.029627 -0.031462
v 0.020693 -0.027051 -0.030094
v 0.022386 -0.028895 -0.029115
v 0.023474 -0.036370 -0.027882
v 0.023474 -0.036370 -0.025147
v 0.023849 -0.033795 -0.026514
v 0.023557 -0.033795 -0.028815
v 0.023474 -0.031219 -0.027882
v 0.023557 -0.033795 -0.024214
v 0.023474 -0.031219 -0.025147
v 0.022797 -0.036341 -0.022862
v 0.020021 -0.036823 -0.019705
v 0.021567 -0.035369 -0.020675
v 0.022705 -0.033795 -0.022089
v 0.022797 -0.031248 -0.022862
v 0.021567 -0.032221 -0.020675
v 0.020218 -0.033795 -0.019354
v 0.020021 -0.030767 -0.019705
v 0.022705 -0.028643 -0.026514
v 0.022386 -0.028895 -0.023913
v 0.021504 -0.026916 -0.027866
v 0.020218 -0.025459 -0.026514
v 0.021504 -0.026916 -0.025162
v 0.021461 -0.029627 -0.021567
v 0.020693 -0.027051 -0.022934
v 0.016192 -0.036472 -0.018417
v 0.014180 -0.035387 -0.018509
v 0.018205 -0.035387 -0.018509
v 0.014180 -0.032203 -0.018509
v 0.016192 -0.033795 -0.018097
v 0.016192 -0.031117 -0.018417
v 0.018205 -0.032203 -0.018509
v 0.016192 -0.023996 -0.026514
v 0.013826 0.025867 -0.030723
v 0.014963 0.026997 -0.032424
v 0.016192 0.025459 -0.030940
v 0.017422 0.026997 -0.032424
v 0.018558 0.025867 -0.030723
v 0.011692 0.027051 -0.030094
v 0.010923 0.029627 -0.031462
v 0.012936 0.028035 -0.032307
v 0.012364 0.030767 -0.033324
v 0.009998 0.028895 -0.029115
v 0.009587 0.031248 -0.030167
v 0.010817 0.032221 -0.032354
v 0.012167 0.033795 -0.033675
v 0.009679 0.033795 -0.030940
v 0.014203 0.029543 -0.033776
v 0.016192 0.028643 -0.033675
v 0.016192 0.031117 -0.034611
v 0.018182 0.029543 -0.033776
v 0.019449 0.028035 -0.032307
v 0.014180 0.032203 -0.034520
v 0.016192 0.033795 -0.034932
v 0.018205 0.032203 -0.034520
v 0.020021 0.030767 -0.033324
v 0.012870 0.025342 -0.028702
v 0.010881 0.026916 -0.027866
v 0.012167 0.025459 -0.026514
v 0.010881 0.026916 -0.025162
v 0.012870 0.025342 -0.024327
v 0.014948 0.024476 -0.028727
v 0.014100 0.024369 -0.026514
v 0.017436 0.024476 -0.028727
v 0.016192 0.023996 -0.026514
v 0.019514 0.025342 -0.028702
v 0.018285 0.024369 -0.026514
v 0.014948 0.024476 -0.024302
v 0.017436 0.024476 -0.024302
v 0.019514 0.025342 -0.024327
v 0.011692 0.027051 -0.022934
v 0.013826 0.025867 -0.022306
v 0.016192 0.025459 -0.022089
v 0.018558 0.025867 -0.022306
v 0.014963 0.026997 -0.020605
v 0.017422 0.026997 -0.020605
v 0.009679 0.028643 -0.026514
v 0.008911 0.031219 -0.027882
v 0.009998 0.028895 -0.023913
v 0.008911 0.031219 -0.025147
v 0.008536 0.033795 -0.026514
v 0.008827 0.033795 -0.028815
v 0.008827 0.033795 -0.024214
v 0.010923 0.029627 -0.021567
v 0.009587 0.031248 -0.022862
v 0.012936 0.028035 -0.020722
v 0.012364 0.030767 -0.019705
v 0.009679 0.033795 -0.022089
v 0.010817 0.032221 -0.020675
v 0.012167 0.033795 -0.019354
v 0.014203 0.029543 -0.019253
v 0.016192 0.028643 -0.019354
v 0.019449 0.028035 -0.020722
v 0.018182 0.029543 -0.019253
v 0.020693 0.027051 -0.030094
v 0.021461 0.029627 -0.031462
v 0.022386 0.028895 -0.029115
v 0.022797 0.031248 -0.030167
v 0.020218 0.033795 -0.033675
v 0.021567 0.032221 -0.032354
v 0.022705 0.033795 -0.030940
v 0.021504 0.026916 -0.027866
v 0.020218 0.025459 -0.026514
v 0.021504 0.026916 -0.025162
v 0.020693 0.027051 -0.022934
v 0.022705 0.028643 -0.026514
v 0.023474 0.031219 -0.027882
v 0.022386 0.028895 -0.023913
v 0.023474 0.031219 -0.025147
v 0.023557 0.033795 -0.028815
v 0.023849 0.033795 -0.026514
v 0.023557 0.033795 -0.024214
v 0.021461 0.029627 -0.021567
v 0.022797 0.031248 -0.022862
v 0.020021 0.030767 -0.019705
v 0.022705 0.033795 -0.022089
v 0.021567 0.032221 -0.020675
v 0.020218 0.033795 -0.019354
v 0.016192 0.031117 -0.018417
v 0.014180 0.032203 -0.018509
v 0.016192 0.033795 -0.018097
v 0.018205 0.032203 -0.018509
v 0.010817 0.035369 -0.032354
v 0.012364 0.036823 -0.033324
v 0.009587 0.036341 -0.030167
v 0.010923 0.037962 -0.031462
v 0.012936 0.039554 -0.032307
v 0.009998 0.038694 -0.029115
v 0.011692 0.040538 -0.030094
v 0.014180 0.035387 -0.034520
v 0.016192 0.036472 -0.034611
v 0.014203 0.038046 -0.033776
v 0.018205 0.035387 -0.034520
v 0.018182 0.038046 -0.033776
v 0.020021 0.036823 -0.033324
v 0.016192 0.038946 -0.033675
v 0.014963 0.040593 -0.032424
v 0.017422 0.040593 -0.032424
v 0.019449 0.039554 -0.032307
v 0.013826 0.041722 -0.030723
v 0.018558 0.041722 -0.030723
v 0.016192 0.042130 -0.030940
v 0.008911 0.036370 -0.027882
v 0.008911 0.036370 -0.025147
v 0.009679 0.038946 -0.026514
v 0.010881 0.040674 -0.027866
v 0.009998 0.038694 -0.023913
v 0.010881 0.040674 -0.025162
v 0.009587 0.036341 -0.022862
v 0.010817 0.035369 -0.020675
v 0.012364 0.036823 -0.019705
v 0.010923 0.037962 -0.021567
v 0.011692 0.040538 -0.022934
v 0.012936 0.039554 -0.020722
v 0.014203 0.038046 -0.019253
v 0.014963 0.040593 -0.020605
v 0.016192 0.038946 -0.019354
v 0.013826 0.041722 -0.022306
v 0.017422 0.040593 -0.020605
v 0.018182 0.038046 -0.019253
v 0.019449 0.039554 -0.020722
v 0.018558 0.041722 -0.022306
v 0.012870 0.042248 -0.028702
v 0.012167 0.042130 -0.026514
v 0.012870 0.042248 -0.024327
v 0.014948 0.043114 -0.028727
v 0.014100 0.043220 -0.026514
v 0.017436 0.043114 -0.028727
v 0.019514 0.042248 -0.028702
v 0.018285 0.043220 -0.026514
v 0.016192 0.043593 -0.026514
v 0.014948 0.043114 -0.024302
v 0.017436 0.043114 -0.024302
v 0.019514 0.042248 -0.024327
v 0.016192 0.042130 -0.022089
v 0.021567 0.035369 -0.032354
v 0.022797 0.036341 -0.030167
v 0.021461 0.037962 -0.031462
v 0.022386 0.038694 -0.029115
v 0.020693 0.040538 -0.030094
v 0.023474 0.036370 -0.027882
v 0.023474 0.036370 -0.025147
v 0.022705 0.038946 -0.026514
v 0.021504 0.040674 -0.027866
v 0.021504 0.040674 -0.025162
v 0.022386 0.038694 -0.023913
v 0.022797 0.036341 -0.022862
v 0.021567 0.035369 -0.020675
v 0.020021 0.036823 -0.019705
v 0.021461 0.037962 -0.021567
v 0.020693 0.040538 -0.022934
v 0.020218 0.042130 -0.026514
v 0.014180 0.035387 -0.018509
v 0.016192 0.036472 -0.018417
v 0.018205 0.035387 -0.018509
f 1 2 3
f 4 5 2
f 1 3 6
f 4 7 5
f 4 2 1
f 7 8 5
f 9 10 8
f 11 12 10
f 7 9 8
f 4 1 13
f 4 13 7
f 9 11 10
f 7 13 9
f 9 13 11
f 6 3 14
f 15 14 16
f 17 16 18
f 19 18 20
f 21 20 22
f 6 14 15
f 15 16 17
f 17 18 19
f 1 6 13
f 6 15 13
f 15 17 13
f 17 19 13
f 19 20 21
f 23 22 24
f 25 24 26
f 19 21 13
f 21 22 23
f 21 23 13
f 23 24 25
f 25 26 27
f 13 23 25
f 13 25 27
f 28 29 12
f 30 31 29
f 32 33 31
f 11 28 12
f 13 28 11
f 13 30 28
f 28 30 29
f 30 32 31
f 34 35 36
f 27 26 37
f 38 37 35
f 13 32 30
f 13 34 39
f 13 38 34
f 34 36 39
f 13 40 32
f 13 39 40
f 27 37 38
f 13 27 38
f 38 35 34
f 40 41 33
f 39 36 41
f 32 40 33
f 40 39 41
f 42 43 44
f 42 44 45
f 42 45 46
f 43 47 44
f 43 48 47
f 43 49 48
f 43 50 49
f 43 51 50
f 43 52 51
f 43 53 52
f 43 54 53
f 43 55 54
f 43 56 55
f 43 57 56
f 42 58 43
f 42 46 59
f 43 60 61
f 43 61 62
f 43 63 64
f 43 65 63
f 43 66 65
f 43 64 60
f 43 67 57
f 43 62 67
f 67 62 68
f 67 68 69
f 43 70 66
f 43 71 70
f 43 72 71
f 43 73 72
f 70 71 74
f 43 75 73
f 76 77 78
f 77 79 78
f 80 57 3
f 80 3 81
f 81 3 82
f 83 82 2
f 84 8 85
f 86 87 5
f 88 2 87
f 83 2 88
f 89 5 84
f 86 5 89
f 82 3 2
f 3 57 14
f 90 59 46
f 90 91 59
f 91 92 59
f 84 5 8
f 92 93 59
f 93 94 59
f 94 95 59
f 95 96 59
f 96 85 97
f 8 10 85
f 87 2 5
f 10 12 85
f 12 97 85
f 67 14 57
f 67 16 14
f 67 18 16
f 67 69 98
f 67 98 99
f 67 99 100
f 67 100 101
f 67 101 76
f 67 20 18
f 67 22 20
f 67 76 102
f 76 78 102
f 67 102 103
f 67 103 104
f 67 104 22
f 42 105 58
f 42 106 107
f 42 108 109
f 42 59 108
f 42 110 106
f 42 109 110
f 42 107 111
f 42 111 112
f 42 112 113
f 42 113 105
f 58 105 114
f 58 114 115
f 58 115 104
f 58 75 43
f 75 116 73
f 116 117 118
f 119 118 120
f 118 117 120
f 75 117 116
f 75 121 117
f 75 122 121
f 123 124 125
f 124 126 125
f 58 104 75
f 75 127 122
f 75 128 127
f 75 129 128
f 75 130 129
f 75 131 130
f 75 104 131
f 104 132 131
f 96 97 59
f 12 29 133
f 12 133 97
f 29 134 133
f 29 135 134
f 29 136 135
f 31 137 136
f 31 138 137
f 31 139 138
f 31 140 139
f 31 141 140
f 29 31 136
f 31 33 141
f 141 33 41
f 141 41 36
f 104 115 142
f 104 142 143
f 104 143 144
f 104 144 145
f 104 145 146
f 104 146 147
f 104 147 148
f 104 148 149
f 104 149 150
f 104 150 141
f 104 24 22
f 104 26 24
f 104 37 26
f 104 35 37
f 104 36 35
f 123 125 151
f 104 103 123
f 104 123 151
f 104 151 152
f 104 152 153
f 104 141 36
f 104 153 154
f 104 154 155
f 104 155 132
f 156 61 60
f 157 60 64
f 156 60 157
f 158 157 64
f 158 64 63
f 159 63 65
f 158 63 159
f 159 65 160
f 158 161 157
f 159 160 161
f 158 159 161
f 162 62 61
f 156 162 61
f 163 68 62
f 162 163 62
f 164 69 68
f 163 164 68
f 156 157 161
f 156 161 162
f 162 161 163
f 163 161 164
f 164 165 69
f 164 161 165
f 165 98 69
f 166 99 98
f 165 166 98
f 165 161 166
f 166 167 99
f 166 161 167
f 167 161 168
f 160 65 66
f 160 66 169
f 160 169 161
f 169 170 161
f 169 66 70
f 170 70 74
f 169 70 170
f 170 74 171
f 170 171 161
f 171 172 161
f 173 172 174
f 161 175 176
f 161 177 175
f 173 161 172
f 173 178 161
f 161 178 179
f 161 179 177
f 161 176 180
f 161 180 181
f 161 182 168
f 161 181 182
f 180 183 184
f 181 77 76
f 185 79 77
f 180 184 181
f 181 185 77
f 184 185 181
f 173 174 186
f 167 100 99
f 168 101 100
f 167 168 100
f 182 76 101
f 168 182 101
f 182 181 76
f 171 74 71
f 171 71 187
f 171 187 172
f 187 71 72
f 188 72 73
f 187 72 188
f 187 189 172
f 187 188 189
f 190 73 116
f 188 73 190
f 190 116 191
f 188 190 189
f 190 191 189
f 177 189 180
f 175 177 180
f 175 180 176
f 192 78 79
f 183 185 184
f 183 192 185
f 185 192 79
f 173 189 178
f 172 189 174
f 173 186 189
f 186 174 189
f 178 189 179
f 179 189 177
f 189 193 194
f 189 194 195
f 189 195 196
f 180 189 183
f 183 189 192
f 192 197 78
f 189 197 192
f 189 198 197
f 189 199 198
f 197 102 78
f 197 198 102
f 198 103 102
f 199 123 103
f 198 199 103
f 191 116 118
f 200 118 119
f 191 118 200
f 200 119 201
f 189 191 200
f 200 202 193
f 200 201 202
f 189 200 193
f 189 196 203
f 203 124 123
f 204 126 124
f 189 203 199
f 196 205 203
f 203 204 124
f 205 204 203
f 199 203 123
f 201 119 120
f 206 120 117
f 206 201 120
f 206 117 207
f 202 201 208
f 206 208 201
f 206 207 208
f 207 117 121
f 209 121 122
f 207 121 209
f 209 122 210
f 207 209 208
f 209 210 208
f 210 122 127
f 210 127 211
f 210 211 208
f 211 212 208
f 193 208 194
f 194 208 195
f 195 208 196
f 202 208 193
f 196 208 205
f 205 208 204
f 204 208 213
f 213 125 126
f 204 213 126
f 213 214 125
f 213 208 214
f 208 212 215
f 214 208 216
f 208 217 216
f 208 218 219
f 208 219 220
f 220 154 153
f 208 220 217
f 211 127 128
f 212 128 129
f 211 128 212
f 212 129 215
f 215 129 130
f 208 215 221
f 215 130 221
f 208 221 222
f 208 222 218
f 221 130 131
f 221 131 222
f 222 131 132
f 218 132 155
f 218 222 132
f 219 155 154
f 220 219 154
f 218 155 219
f 214 151 125
f 216 152 151
f 217 153 152
f 214 216 151
f 216 217 152
f 217 220 153
f 223 224 225
f 223 225 226
f 227 228 229
f 229 230 231
f 227 232 228
f 229 228 230
f 231 230 233
f 231 233 234
f 227 229 235
f 227 235 236
f 236 235 223
f 227 236 232
f 236 223 226
f 229 231 235
f 231 234 235
f 223 235 224
f 224 235 237
f 237 235 238
f 224 237 239
f 237 238 240
f 235 241 238
f 235 242 241
f 238 241 243
f 241 242 244
f 232 236 226
f 232 245 228
f 232 226 245
f 226 225 245
f 228 245 230
f 230 245 233
f 224 239 225
f 237 240 239
f 240 238 243
f 225 239 245
f 239 240 245
f 240 243 245
f 241 244 243
f 245 243 244
f 245 244 246
f 234 247 235
f 235 247 248
f 234 249 247
f 247 250 248
f 235 248 251
f 235 251 242
f 251 248 252
f 251 246 242
f 234 233 249
f 247 249 250
f 233 245 249
f 245 250 249
f 251 252 246
f 252 248 250
f 242 246 244
f 245 252 250
f 245 246 252
f 253 254 255
f 256 257 258
f 256 259 255
f 256 255 254
f 256 258 259
f 260 261 262
f 260 262 263
f 260 263 257
f 263 264 257
f 260 254 261
f 253 265 254
f 261 265 266
f 254 265 261
f 267 266 265
f 260 257 256
f 260 256 254
f 267 268 266
f 268 269 270
f 261 271 262
f 262 271 272
f 263 262 273
f 263 273 274
f 262 272 273
f 261 266 271
f 266 270 271
f 268 270 266
f 272 271 275
f 272 275 276
f 272 276 277
f 273 272 277
f 273 277 45
f 277 276 278
f 277 278 46
f 271 270 275
f 270 279 275
f 269 279 270
f 276 275 280
f 275 279 280
f 281 267 265
f 281 282 267
f 281 283 284
f 281 284 282
f 284 285 282
f 253 255 286
f 253 286 283
f 281 253 283
f 259 287 255
f 255 287 286
f 259 288 287
f 286 289 290
f 290 289 291
f 286 290 283
f 290 292 283
f 284 283 292
f 286 287 289
f 287 293 289
f 287 288 293
f 289 293 294
f 281 265 253
f 284 292 295
f 284 295 285
f 285 295 296
f 295 297 296
f 290 291 292
f 291 298 292
f 292 298 295
f 291 299 298
f 289 294 291
f 293 300 294
f 291 294 299
f 294 300 301
f 298 299 302
f 294 301 299
f 301 303 299
f 299 303 302
f 301 304 303
f 295 298 297
f 298 302 297
f 296 297 305
f 297 306 305
f 297 302 306
f 267 307 268
f 267 282 307
f 268 307 269
f 282 308 307
f 282 285 308
f 307 308 309
f 269 307 309
f 269 310 279
f 269 309 310
f 308 311 309
f 309 312 310
f 309 311 312
f 285 313 308
f 285 296 313
f 308 313 311
f 296 314 313
f 296 305 314
f 313 314 315
f 313 315 311
f 311 316 312
f 311 315 316
f 314 317 315
f 315 318 316
f 314 305 317
f 315 317 318
f 318 317 319
f 318 319 320
f 279 321 280
f 280 321 322
f 276 323 278
f 276 280 323
f 278 323 324
f 280 322 323
f 323 322 325
f 323 325 324
f 310 312 326
f 279 310 321
f 310 326 321
f 321 327 322
f 321 326 327
f 312 328 326
f 326 329 327
f 326 328 329
f 322 330 325
f 322 327 330
f 325 330 331
f 329 332 327
f 329 333 332
f 327 332 330
f 330 332 334
f 330 334 331
f 332 335 334
f 312 316 328
f 328 316 336
f 329 328 333
f 328 336 333
f 333 336 337
f 318 336 316
f 318 320 336
f 336 320 337
f 337 320 338
f 337 338 339
f 339 338 340
f 332 333 335
f 334 335 341
f 333 337 335
f 335 339 341
f 335 337 339
f 259 258 342
f 258 343 342
f 342 343 344
f 263 274 264
f 264 274 345
f 257 264 258
f 264 343 258
f 264 345 343
f 343 345 346
f 344 343 346
f 345 347 346
f 346 347 348
f 345 274 349
f 273 350 274
f 273 47 350
f 274 350 349
f 350 50 349
f 345 349 347
f 348 347 351
f 349 352 347
f 349 50 352
f 347 352 351
f 351 352 53
f 273 45 44
f 273 44 47
f 350 47 48
f 350 48 49
f 277 46 45
f 350 49 50
f 278 90 46
f 352 50 51
f 352 51 52
f 352 52 53
f 351 53 54
f 259 342 288
f 342 353 288
f 342 344 353
f 344 354 353
f 344 355 354
f 288 353 356
f 293 288 356
f 353 357 356
f 293 356 300
f 356 357 358
f 353 354 357
f 357 354 359
f 354 360 359
f 344 346 355
f 346 348 355
f 355 348 361
f 355 360 354
f 355 361 360
f 360 361 362
f 356 358 300
f 300 358 363
f 357 359 358
f 358 364 363
f 358 359 364
f 359 365 364
f 301 300 363
f 363 364 366
f 301 363 304
f 363 366 304
f 359 360 365
f 360 362 365
f 362 367 365
f 368 369 366
f 364 365 368
f 364 368 366
f 365 367 368
f 367 370 368
f 368 370 369
f 348 351 371
f 348 371 361
f 351 55 371
f 361 371 372
f 361 372 362
f 371 57 372
f 351 54 55
f 371 55 56
f 371 56 57
f 372 57 80
f 372 80 373
f 373 80 81
f 373 81 82
f 374 82 83
f 373 82 374
f 362 372 375
f 362 375 367
f 372 373 375
f 367 375 376
f 367 376 370
f 375 377 376
f 376 378 370
f 375 373 377
f 373 374 379
f 373 379 377
f 380 381 382
f 376 377 378
f 377 380 378
f 380 382 378
f 377 379 380
f 278 91 90
f 278 324 91
f 324 92 91
f 324 93 92
f 324 94 93
f 325 94 324
f 325 95 94
f 383 86 89
f 374 83 88
f 374 88 384
f 383 87 86
f 384 88 87
f 383 384 87
f 325 331 95
f 331 96 95
f 331 85 96
f 385 84 85
f 331 385 85
f 334 385 331
f 383 89 84
f 334 341 385
f 383 84 385
f 383 385 386
f 383 386 384
f 386 387 388
f 374 384 379
f 384 388 379
f 384 386 388
f 387 381 388
f 387 340 381
f 339 340 387
f 380 379 388
f 380 388 381
f 385 341 386
f 341 387 386
f 339 387 341
f 303 304 389
f 302 390 306
f 306 390 391
f 303 390 302
f 303 389 390
f 390 392 391
f 389 392 390
f 389 393 392
f 306 394 305
f 306 391 394
f 305 394 317
f 394 391 395
f 392 396 391
f 392 397 396
f 391 396 395
f 394 319 317
f 394 395 319
f 319 395 398
f 319 398 320
f 398 395 399
f 396 399 395
f 396 400 399
f 398 399 401
f 401 399 402
f 398 338 320
f 398 401 338
f 401 340 338
f 304 366 393
f 389 304 393
f 366 369 393
f 393 397 392
f 393 369 397
f 369 403 397
f 396 397 400
f 403 400 397
f 369 370 403
f 403 370 378
f 403 382 400
f 402 399 400
f 402 400 382
f 402 382 381
f 403 378 382
f 402 381 340
f 401 402 340
f 404 405 406
f 407 408 406
f 407 406 405
f 407 409 408
f 410 411 412
f 410 413 414
f 414 413 112
f 404 415 405
f 411 415 416
f 410 405 411
f 405 415 411
f 410 414 407
f 410 407 405
f 407 414 409
f 417 418 416
f 418 419 420
f 411 421 412
f 412 421 422
f 410 412 413
f 412 423 413
f 413 423 113
f 412 422 423
f 411 416 421
f 415 417 416
f 416 420 421
f 418 420 416
f 422 421 424
f 422 424 425
f 423 422 426
f 423 426 427
f 422 425 426
f 425 428 426
f 426 428 429
f 421 420 424
f 420 430 424
f 425 424 431
f 424 430 431
f 419 430 420
f 432 417 415
f 432 433 417
f 432 434 435
f 432 435 433
f 435 436 433
f 404 406 437
f 404 437 434
f 406 408 438
f 406 438 437
f 408 439 438
f 437 440 441
f 441 440 442
f 437 441 434
f 434 441 443
f 438 444 440
f 437 438 440
f 438 439 444
f 440 444 445
f 432 415 404
f 432 404 434
f 435 434 443
f 435 443 446
f 435 446 436
f 446 447 436
f 446 448 447
f 441 442 443
f 442 449 443
f 442 450 449
f 440 445 442
f 444 451 445
f 442 445 450
f 445 451 452
f 449 450 453
f 445 452 450
f 450 452 454
f 450 454 453
f 452 455 454
f 443 449 446
f 446 449 448
f 449 453 448
f 448 456 457
f 448 453 456
f 417 433 458
f 417 458 418
f 433 436 459
f 433 459 458
f 418 458 419
f 419 458 460
f 419 461 430
f 419 460 461
f 458 459 460
f 459 462 460
f 460 463 461
f 460 462 463
f 436 447 464
f 459 436 464
f 447 457 465
f 464 447 465
f 459 464 462
f 464 466 462
f 462 467 463
f 462 466 467
f 464 465 466
f 465 468 466
f 466 469 467
f 448 457 447
f 465 457 468
f 466 468 469
f 469 468 470
f 469 470 471
f 430 472 431
f 431 472 473
f 425 474 428
f 425 431 474
f 428 474 475
f 431 473 474
f 474 473 476
f 474 476 475
f 461 463 477
f 430 461 472
f 461 477 472
f 472 478 473
f 472 477 478
f 477 479 478
f 463 480 477
f 477 480 479
f 473 481 476
f 473 478 481
f 476 481 482
f 478 479 483
f 479 484 483
f 478 483 481
f 481 483 485
f 481 485 482
f 483 486 485
f 463 467 480
f 480 467 487
f 480 484 479
f 480 487 484
f 484 487 488
f 469 487 467
f 469 471 487
f 487 471 488
f 488 471 489
f 488 489 490
f 489 491 490
f 483 484 486
f 485 486 492
f 484 488 486
f 486 490 492
f 486 488 490
f 408 409 110
f 408 110 109
f 409 106 110
f 414 112 111
f 414 107 409
f 409 107 106
f 414 111 107
f 413 113 112
f 423 105 113
f 423 493 114
f 423 114 105
f 493 115 114
f 493 142 115
f 493 143 142
f 493 494 143
f 423 427 493
f 493 427 494
f 494 495 143
f 495 144 143
f 495 145 144
f 495 146 145
f 495 496 146
f 496 147 146
f 494 497 495
f 495 497 496
f 427 498 494
f 426 429 427
f 427 429 498
f 429 499 498
f 498 499 500
f 494 498 497
f 496 497 501
f 498 500 497
f 497 500 501
f 408 109 108
f 408 108 439
f 439 108 59
f 439 59 97
f 439 97 502
f 444 439 502
f 502 97 133
f 503 133 134
f 444 502 451
f 502 133 503
f 502 503 504
f 503 134 135
f 503 135 136
f 503 136 505
f 506 136 137
f 506 137 138
f 505 136 506
f 506 138 139
f 506 139 507
f 502 504 451
f 451 504 508
f 503 505 504
f 504 509 508
f 504 505 509
f 452 451 508
f 508 509 510
f 452 508 455
f 508 510 455
f 505 506 511
f 505 511 509
f 506 507 511
f 511 507 512
f 513 514 510
f 509 511 513
f 509 513 510
f 511 512 513
f 513 515 514
f 496 148 147
f 516 149 148
f 496 516 148
f 516 150 149
f 517 141 150
f 507 139 140
f 507 140 141
f 517 507 141
f 516 517 150
f 496 501 516
f 501 518 516
f 500 519 501
f 501 519 518
f 516 518 517
f 517 518 520
f 518 519 521
f 518 521 520
f 507 522 512
f 517 522 507
f 512 523 515
f 513 512 515
f 522 523 512
f 523 524 515
f 517 520 522
f 522 520 525
f 520 521 526
f 520 526 525
f 527 528 529
f 522 525 523
f 523 525 524
f 525 526 527
f 525 527 524
f 527 529 524
f 428 475 429
f 429 475 499
f 499 475 530
f 476 530 475
f 499 530 531
f 500 499 531
f 530 532 531
f 500 531 519
f 519 531 533
f 531 532 533
f 533 532 534
f 519 533 521
f 521 533 535
f 533 534 535
f 476 482 530
f 530 482 532
f 482 536 532
f 485 536 482
f 532 536 534
f 485 492 536
f 536 537 534
f 535 534 537
f 537 538 539
f 521 535 526
f 535 539 526
f 535 537 539
f 538 528 539
f 538 491 528
f 490 491 538
f 527 526 539
f 527 539 528
f 536 492 537
f 492 538 537
f 490 538 492
f 453 540 456
f 456 540 541
f 454 540 453
f 454 542 540
f 454 455 542
f 542 543 540
f 542 544 543
f 456 545 457
f 456 541 545
f 457 545 468
f 545 541 546
f 540 543 541
f 541 543 547
f 543 548 547
f 541 547 546
f 545 470 468
f 545 546 470
f 470 549 471
f 470 546 549
f 547 550 546
f 547 551 550
f 549 546 550
f 549 550 552
f 552 550 553
f 549 489 471
f 549 552 489
f 552 491 489
f 455 510 544
f 542 455 544
f 510 514 544
f 544 514 548
f 514 554 548
f 544 548 543
f 547 548 551
f 554 551 548
f 514 515 554
f 554 515 524
f 554 529 551
f 553 529 528
f 553 550 551
f 553 551 529
f 554 524 529
f 553 528 491
f 552 553 491
f 555 556 557
f 555 558 559
f 560 558 561
f 560 559 558
f 555 562 558
f 558 562 563
f 555 559 556
f 560 561 564
f 564 561 565
f 564 565 566
f 558 563 561
f 561 563 565
f 563 567 565
f 565 568 566
f 565 567 568
f 568 569 566
f 568 570 569
f 555 557 571
f 571 557 572
f 555 571 562
f 562 571 573
f 562 573 574
f 571 572 575
f 575 572 576
f 571 575 573
f 573 575 577
f 573 577 578
f 575 579 577
f 575 576 579
f 563 562 574
f 563 574 567
f 567 574 580
f 568 567 581
f 568 581 570
f 567 580 581
f 581 582 570
f 573 578 574
f 574 578 580
f 578 583 580
f 577 584 578
f 578 584 583
f 581 580 585
f 580 583 585
f 581 585 582
f 585 586 582
f 583 587 585
f 585 587 586
f 588 589 590
f 588 591 559
f 560 589 588
f 560 588 559
f 588 592 591
f 591 592 593
f 591 593 594
f 588 590 592
f 592 595 596
f 592 590 595
f 590 597 595
f 593 592 596
f 556 559 591
f 556 591 594
f 556 598 557
f 556 594 598
f 593 599 594
f 598 594 600
f 594 599 600
f 589 601 602
f 560 564 589
f 589 564 601
f 564 566 601
f 601 566 603
f 601 603 604
f 589 602 590
f 601 604 602
f 590 602 597
f 602 604 605
f 602 605 597
f 604 606 605
f 604 603 607
f 603 608 607
f 604 607 606
f 566 569 603
f 569 608 603
f 569 570 609
f 593 596 610
f 593 610 599
f 596 595 611
f 595 597 612
f 595 612 611
f 596 611 610
f 610 611 613
f 610 613 614
f 611 612 615
f 612 616 615
f 613 611 615
f 613 615 617
f 599 610 614
f 600 599 618
f 599 614 618
f 613 619 614
f 614 620 618
f 614 619 620
f 597 605 621
f 597 621 612
f 605 622 621
f 605 606 622
f 607 623 606
f 607 624 623
f 606 623 622
f 612 621 616
f 621 622 625
f 621 625 616
f 622 626 625
f 622 623 626
f 623 627 626
f 626 628 625
f 626 627 629
f 598 630 557
f 598 631 630
f 557 630 572
f 630 631 632
f 598 600 631
f 600 633 631
f 631 633 634
f 630 632 572
f 572 632 576
f 632 635 576
f 632 631 634
f 632 634 635
f 634 636 635
f 570 582 637
f 582 586 638
f 600 618 633
f 618 639 633
f 633 639 640
f 618 620 639
f 620 641 639
f 620 642 641
f 639 641 643
f 633 640 634
f 634 640 636
f 640 644 636
f 639 643 640
f 641 645 643
f 640 643 644
f 643 646 644
f 569 609 608
f 607 608 624
f 609 647 608
f 608 647 624
f 623 624 627
f 647 648 624
f 624 648 627
f 627 648 649
f 629 627 649
f 570 637 609
f 609 637 650
f 637 638 650
f 609 650 647
f 647 650 651
f 650 652 651
f 582 638 637
f 586 653 638
f 638 652 650
f 638 653 652
f 652 653 654
f 647 651 648
f 648 651 655
f 651 656 655
f 648 655 649
f 649 655 657
f 658 649 657
f 655 659 657
f 651 652 656
f 652 654 656
f 656 654 660
f 655 656 659
f 661 657 659
f 656 660 659
f 662 659 660
f 577 663 584
f 577 579 663
f 663 664 584
f 583 584 664
f 583 664 587
f 576 665 579
f 576 635 665
f 579 665 666
f 579 666 663
f 663 666 667
f 666 665 668
f 635 669 665
f 635 636 669
f 665 669 668
f 669 670 668
f 666 671 667
f 666 668 671
f 670 672 668
f 668 672 671
f 671 672 673
f 663 667 664
f 664 674 587
f 664 667 674
f 586 587 675
f 586 675 653
f 674 675 587
f 674 676 675
f 675 677 653
f 675 676 677
f 677 676 678
f 667 679 674
f 667 671 679
f 674 679 676
f 671 673 679
f 679 680 676
f 679 673 680
f 678 676 680
f 669 636 681
f 636 644 681
f 669 681 670
f 670 681 682
f 644 683 681
f 646 683 644
f 681 683 682
f 683 684 682
f 683 685 684
f 670 682 672
f 672 686 673
f 672 682 686
f 684 686 682
f 684 687 686
f 677 688 654
f 677 678 688
f 678 689 688
f 688 690 660
f 662 660 690
f 690 689 691
f 688 689 690
f 690 691 692
f 673 693 680
f 673 686 693
f 680 693 689
f 678 680 689
f 686 687 693
f 691 689 693
f 687 691 693
f 677 654 653
f 688 660 654
f 615 616 694
f 615 694 617
f 613 617 619
f 620 619 642
f 619 695 642
f 617 696 695
f 694 696 617
f 694 697 696
f 619 617 695
f 695 696 698
f 696 699 698
f 694 616 700
f 616 625 700
f 625 628 700
f 694 700 697
f 700 628 701
f 700 701 697
f 626 629 628
f 628 702 701
f 628 629 702
f 629 649 658
f 629 658 702
f 701 702 703
f 696 697 699
f 697 701 699
f 701 703 699
f 642 695 704
f 642 645 641
f 642 704 645
f 695 698 704
f 698 705 704
f 698 706 705
f 643 645 646
f 645 707 646
f 645 704 707
f 704 705 707
f 705 708 707
f 646 707 685
f 685 707 708
f 705 709 708
f 702 710 703
f 658 710 702
f 658 657 661
f 658 661 710
f 699 706 698
f 699 703 706
f 703 711 706
f 703 710 711
f 661 659 662
f 661 662 712
f 710 712 711
f 711 712 713
f 661 712 710
f 662 692 712
f 692 713 712
f 705 706 709
f 706 711 709
f 709 711 713
f 708 709 714
f 709 713 714
f 646 685 683
f 685 708 715
f 715 708 714
f 685 715 684
f 684 715 687
f 715 714 716
f 716 713 692
f 716 714 713
f 715 716 687
f 691 716 692
f 687 716 691
f 662 690 692
f 717 718 719
f 720 721 722
f 720 723 721
f 717 724 721
f 717 721 723
f 717 723 718
f 720 722 725
f 725 722 726
f 725 726 727
f 721 728 722
f 722 728 726
f 726 729 730
f 726 730 727
f 730 731 727
f 730 732 731
f 717 719 733
f 733 719 734
f 717 733 724
f 721 724 728
f 724 733 735
f 724 735 736
f 733 734 737
f 737 734 738
f 733 737 735
f 735 737 739
f 735 739 740
f 737 741 739
f 737 738 741
f 724 736 728
f 728 736 729
f 726 728 729
f 729 736 742
f 730 729 743
f 730 743 732
f 729 742 743
f 743 744 732
f 735 740 736
f 736 740 742
f 739 745 740
f 740 745 746
f 742 740 746
f 743 742 747
f 743 747 744
f 742 746 747
f 746 748 747
f 747 748 749
f 747 749 744
f 750 751 752
f 750 753 723
f 720 751 750
f 720 750 723
f 750 754 753
f 753 754 755
f 750 752 754
f 754 756 757
f 752 758 756
f 754 752 756
f 755 754 757
f 718 723 753
f 718 753 759
f 718 759 760
f 753 755 759
f 755 761 759
f 760 759 762
f 759 761 762
f 751 763 764
f 720 725 751
f 725 763 751
f 725 727 763
f 763 727 765
f 763 765 766
f 751 764 752
f 763 766 764
f 752 764 758
f 764 767 758
f 764 766 767
f 766 768 767
f 766 765 769
f 766 769 768
f 727 731 765
f 731 770 765
f 765 770 769
f 755 757 771
f 756 772 757
f 756 758 773
f 756 773 772
f 757 772 771
f 771 772 774
f 772 773 775
f 773 776 775
f 774 772 775
f 774 775 777
f 755 771 761
f 761 771 778
f 761 779 762
f 761 778 779
f 771 774 778
f 774 780 778
f 778 781 779
f 778 780 781
f 758 767 782
f 758 782 773
f 767 783 782
f 767 768 783
f 769 784 768
f 768 784 783
f 773 782 776
f 782 783 785
f 782 785 776
f 783 786 785
f 783 784 786
f 786 787 785
f 769 788 784
f 784 789 786
f 786 789 790
f 719 760 791
f 718 760 719
f 719 791 734
f 760 792 791
f 760 762 792
f 762 793 792
f 791 794 734
f 791 792 794
f 734 794 738
f 794 795 738
f 794 792 796
f 792 793 796
f 794 796 795
f 796 797 795
f 731 732 798
f 732 744 799
f 744 749 800
f 762 779 793
f 793 779 801
f 779 781 801
f 781 802 803
f 781 803 801
f 793 804 796
f 793 801 804
f 796 804 797
f 804 805 797
f 801 806 804
f 801 803 806
f 803 807 806
f 804 806 805
f 806 808 805
f 731 798 770
f 769 770 788
f 798 809 770
f 770 809 788
f 784 788 789
f 788 809 810
f 788 810 789
f 789 810 811
f 790 789 811
f 732 799 798
f 798 799 812
f 798 812 809
f 809 812 813
f 744 800 799
f 799 800 812
f 749 814 800
f 800 815 812
f 812 815 813
f 800 814 815
f 815 814 816
f 809 813 810
f 813 817 810
f 810 817 811
f 818 811 819
f 811 817 819
f 813 815 820
f 813 820 817
f 815 816 820
f 820 816 821
f 817 820 822
f 817 822 819
f 823 819 822
f 820 821 822
f 824 822 821
f 739 825 745
f 739 741 825
f 746 745 826
f 746 826 748
f 825 826 745
f 738 827 741
f 738 795 827
f 741 827 828
f 741 828 825
f 825 828 829
f 828 827 830
f 795 831 827
f 795 797 831
f 827 831 830
f 831 832 830
f 828 833 829
f 828 830 833
f 830 832 834
f 830 834 833
f 833 834 835
f 825 829 826
f 826 836 748
f 826 829 836
f 749 748 837
f 749 837 814
f 836 837 748
f 836 838 837
f 837 839 814
f 837 838 839
f 839 838 840
f 836 829 841
f 829 833 841
f 836 841 838
f 833 835 841
f 841 842 838
f 841 835 842
f 838 842 840
f 797 805 843
f 831 797 843
f 831 843 832
f 832 843 844
f 805 845 843
f 808 845 805
f 843 845 844
f 845 846 844
f 845 847 846
f 832 844 834
f 834 848 835
f 834 844 848
f 846 848 844
f 846 849 848
f 839 850 816
f 839 840 850
f 840 851 850
f 850 852 821
f 824 821 852
f 852 851 853
f 850 851 852
f 852 853 854
f 835 855 842
f 835 848 855
f 842 855 851
f 842 851 840
f 848 849 855
f 853 851 855
f 853 855 849
f 839 816 814
f 850 821 816
f 775 776 856
f 775 856 777
f 774 777 780
f 780 857 802
f 856 858 777
f 856 859 858
f 780 777 857
f 777 858 857
f 857 858 860
f 856 776 861
f 776 785 861
f 785 787 861
f 856 861 859
f 861 787 862
f 861 862 859
f 786 790 787
f 787 790 863
f 790 818 863
f 787 863 862
f 862 863 864
f 858 859 865
f 859 862 865
f 780 802 781
f 802 857 866
f 802 807 803
f 802 866 807
f 857 860 866
f 858 865 860
f 860 867 866
f 860 868 867
f 807 866 869
f 806 807 808
f 807 869 808
f 866 867 869
f 808 869 847
f 867 870 869
f 847 869 870
f 867 871 870
f 790 811 818
f 863 872 864
f 818 872 863
f 818 819 823
f 818 823 872
f 860 865 868
f 865 864 868
f 862 864 865
f 864 873 868
f 864 872 873
f 872 874 873
f 823 874 872
f 824 854 874
f 823 822 824
f 823 824 874
f 873 874 875
f 854 875 874
f 867 868 871
f 868 873 871
f 870 871 876
f 875 876 871
f 873 875 871
f 808 847 845
f 847 870 877
f 877 870 876
f 847 877 846
f 846 877 849
f 878 875 854
f 878 876 875
f 877 878 849
f 853 878 854
f 853 849 878
f 877 876 878
f 824 852 854
f 879 880 881
f 881 882 883
f 883 882 884
f 883 884 885
f 885 884 886
f 885 886 887
f 888 883 889
f 888 881 883
f 879 881 888
f 883 885 889
f 889 885 890
f 890 885 887
f 879 891 892
f 892 891 893
f 879 892 894
f 892 895 894
f 892 893 896
f 893 897 896
f 892 896 895
f 896 898 895
f 899 900 891
f 899 901 902
f 901 903 904
f 899 902 900
f 900 905 897
f 900 902 905
f 901 904 902
f 902 904 906
f 902 906 905
f 904 907 906
f 888 899 891
f 879 888 891
f 888 889 899
f 889 890 901
f 889 901 899
f 890 903 901
f 893 891 900
f 893 900 897
f 896 897 908
f 896 908 898
f 908 909 910
f 905 911 897
f 908 897 911
f 905 912 911
f 906 907 913
f 905 906 912
f 906 913 912
f 911 912 914
f 908 911 909
f 911 914 909
f 909 914 915
f 914 916 915
f 912 913 917
f 914 912 917
f 913 918 917
f 914 917 916
f 917 919 916
f 917 918 919
f 881 880 920
f 880 894 921
f 879 894 880
f 880 922 920
f 880 921 922
f 923 920 922
f 923 922 924
f 923 924 925
f 922 926 924
f 921 926 922
f 926 927 924
f 881 920 882
f 882 928 884
f 882 929 928
f 882 920 929
f 886 884 928
f 886 928 930
f 886 930 931
f 923 932 929
f 928 929 933
f 929 932 933
f 923 929 920
f 932 934 933
f 923 925 932
f 928 933 930
f 933 935 930
f 930 935 936
f 933 934 935
f 924 937 925
f 924 927 937
f 937 938 925
f 927 939 937
f 937 940 938
f 937 939 940
f 932 941 934
f 932 925 941
f 925 938 941
f 941 942 934
f 941 943 942
f 935 934 944
f 935 944 945
f 934 942 944
f 944 942 946
f 941 938 943
f 942 943 946
f 944 946 947
f 938 948 943
f 940 948 938
f 943 948 949
f 943 949 946
f 946 950 947
f 946 949 950
f 951 894 895
f 921 894 951
f 951 952 953
f 952 895 898
f 951 895 952
f 951 953 954
f 954 953 955
f 921 954 926
f 921 951 954
f 926 954 927
f 954 955 927
f 952 956 953
f 953 957 955
f 953 956 957
f 898 910 958
f 908 910 898
f 952 898 958
f 909 959 910
f 958 910 960
f 910 959 960
f 952 958 956
f 958 961 956
f 957 956 962
f 956 961 962
f 958 960 961
f 961 960 963
f 960 959 964
f 960 964 963
f 961 963 962
f 963 964 965
f 909 915 959
f 927 955 939
f 955 966 939
f 955 957 966
f 957 967 966
f 940 939 968
f 940 968 969
f 939 966 968
f 968 970 969
f 966 971 968
f 968 971 970
f 966 967 971
f 971 972 970
f 940 969 948
f 948 969 973
f 948 973 949
f 969 974 973
f 949 975 950
f 949 973 975
f 950 975 976
f 976 975 977
f 970 974 969
f 970 972 974
f 972 978 974
f 979 977 980
f 957 962 967
f 962 981 967
f 967 981 982
f 963 981 962
f 963 965 981
f 981 983 982
f 981 965 983
f 971 967 982
f 971 982 972
f 983 965 984
f 985 984 986
f 987 986 988
f 972 989 978
f 982 989 972
f 989 990 978
f 991 979 980
f 990 980 978
f 990 991 980
f 982 983 989
f 983 985 989
f 983 984 985
f 985 990 989
f 985 987 990
f 987 992 991
f 985 986 987
f 987 988 992
f 987 991 990
f 890 887 993
f 887 994 993
f 890 993 903
f 993 995 903
f 903 995 996
f 993 997 995
f 995 997 998
f 904 903 996
f 995 999 996
f 904 996 907
f 996 999 907
f 995 998 999
f 999 998 1000
f 999 1001 907
f 913 907 1001
f 999 1000 1001
f 913 1001 918
f 1001 1002 918
f 886 931 887
f 887 931 994
f 993 994 997
f 994 1003 997
f 931 1004 994
f 994 1004 1003
f 930 936 931
f 931 936 1004
f 936 1005 1004
f 935 945 936
f 936 945 1005
f 1004 1005 1006
f 1003 1004 1006
f 1005 1007 1006
f 944 947 945
f 1005 945 1008
f 1005 1008 1007
f 945 947 1008
f 1008 947 1009
f 1008 1010 1007
f 1008 1009 1010
f 950 1009 947
f 997 1011 998
f 1003 1011 997
f 998 1012 1000
f 1011 1012 998
f 1011 1013 1012
f 1003 1006 1014
f 1003 1014 1011
f 1011 1014 1013
f 1006 1007 1014
f 1014 1007 1015
f 1014 1015 1013
f 1012 1013 1016
f 1013 1015 1017
f 1013 1017 1016
f 1001 1000 1002
f 1000 1018 1002
f 1012 1018 1000
f 918 1002 1019
f 919 918 1019
f 1018 1020 1002
f 1002 1020 1019
f 1012 1016 1018
f 1018 1016 1021
f 1017 1022 1016
f 1016 1022 1021
f 1018 1021 1020
f 1020 1021 1023
f 1020 1024 1019
f 1020 1023 1024
f 1023 1021 1022
f 1023 1025 1024
f 1007 1010 1015
f 1010 1026 1015
f 1015 1026 1017
f 1017 1026 1027
f 1009 976 1028
f 1009 1028 1010
f 1010 1028 1026
f 950 976 1009
f 1028 976 1029
f 1026 1028 1030
f 1028 1029 1030
f 1026 1030 1027
f 976 977 1029
f 1030 1029 979
f 1029 977 979
f 1027 1031 1022
f 1027 1032 1031
f 1017 1027 1022
f 1023 1022 1031
f 1023 1031 1025
f 1031 1032 992
f 1031 992 1025
f 988 1025 992
f 1030 979 1032
f 1030 1032 1027
f 991 1032 979
f 991 992 1032
f 915 916 1033
f 915 1034 959
f 915 1033 1034
f 916 919 1033
f 919 1019 1035
f 919 1035 1033
f 964 959 1034
f 964 1034 1036
f 1033 1037 1034
f 1034 1037 1036
f 964 1036 965
f 1036 1037 1038
f 1033 1035 1037
f 1037 1035 1039
f 1035 1024 1039
f 1037 1039 1038
f 1036 984 965
f 1036 1038 984
f 984 1038 986
f 1039 988 1038
f 1039 1025 988
f 1038 988 986
f 1035 1019 1024
f 1039 1024 1025
f 973 1040 975
f 973 974 1040
f 974 978 1040
f 975 1040 977
f 1040 980 977
f 1040 978 980
f 1041 1042 1043
f 1043 1044 1045
f 1046 1047 1048
f 1047 1049 1048
f 1047 1050 1051
f 1046 1050 1047
f 1052 1053 1049
f 1047 1052 1049
f 1047 1051 1052
f 1051 1054 1052
f 1055 1042 1048
f 1055 1048 1049
f 1055 1056 1042
f 1055 1057 1056
f 1056 1044 1042
f 1058 1059 1044
f 1058 1044 1056
f 1058 1056 1057
f 1041 1048 1042
f 1041 1046 1048
f 1043 1042 1044
f 1045 1044 1059
f 1055 1060 1057
f 1055 1049 1060
f 1060 1061 1057
f 1049 1053 1060
f 1058 1057 1062
f 1058 1062 1063
f 1057 1061 1062
f 1064 1065 1046
f 1066 1065 1064
f 1066 1067 1065
f 1066 1068 1067
f 1041 1069 1064
f 1041 1064 1046
f 1041 1043 1069
f 1069 1070 1064
f 1069 1071 1072
f 1043 1045 1071
f 1043 1071 1069
f 1045 1073 1071
f 1071 1073 1074
f 1069 1072 1070
f 1070 1072 1075
f 1066 1064 1070
f 1066 1070 1068
f 1070 1075 1068
f 1071 1074 1072
f 1072 1074 1076
f 1072 1076 1075
f 1074 1077 1076
f 1067 1068 1078
f 1075 1079 1068
f 1068 1079 1078
f 1075 1080 1079
f 1076 1077 1081
f 1075 1076 1080
f 1076 1081 1080
f 1079 1080 1082
f 1080 1081 1083
f 1046 1065 1050
f 1065 1084 1050
f 1050 1084 1085
f 1065 1067 1084
f 1067 1086 1084
f 1084 1086 1087
f 1085 1088 1089
f 1051 1050 1085
f 1051 1085 1089
f 1051 1089 1054
f 1085 1087 1088
f 1087 1090 1088
f 1084 1087 1085
f 1067 1078 1086
f 1086 1091 1092
f 1078 1091 1086
f 1078 1093 1091
f 1091 1093 1094
f 1087 1086 1092
f 1087 1092 1090
f 1092 1095 1090
f 1091 1096 1092
f 1091 1094 1096
f 1092 1096 1095
f 1096 1094 1097
f 1079 1093 1078
f 1079 1082 1093
f 1093 1082 1098
f 1093 1098 1094
f 1082 1099 1098
f 1080 1083 1082
f 1081 1100 1083
f 1082 1083 1099
f 1083 1100 1101
f 1083 1101 1099
f 1058 1063 1059
f 1045 1059 1102
f 1059 1103 1102
f 1059 1063 1103
f 1102 1103 1104
f 1103 1105 1104
f 1062 1106 1063
f 1063 1106 1107
f 1103 1063 1107
f 1103 1107 1105
f 1107 1108 1105
f 1045 1102 1073
f 1073 1102 1109
f 1073 1109 1110
f 1074 1073 1110
f 1110 1109 1111
f 1074 1110 1077
f 1110 1111 1077
f 1111 1112 1077
f 1081 1077 1112
f 1102 1104 1109
f 1109 1104 1113
f 1104 1114 1113
f 1109 1113 1111
f 1111 1113 1115
f 1113 1116 1115
f 1105 1114 1104
f 1105 1117 1114
f 1105 1108 1117
f 1114 1117 1118
f 1113 1114 1116
f 1114 1118 1116
f 1116 1118 1119
f 1111 1115 1112
f 1112 1115 1120
f 1115 1121 1120
f 1081 1112 1100
f 1112 1120 1100
f 1100 1120 1122
f 1101 1100 1122
f 1116 1121 1115
f 1116 1119 1121
f 1121 1119 1123
f 1120 1121 1124
f 1120 1124 1122
f 1121 1123 1124
f 1124 1125 1122
f 1098 1099 1126
f 1099 1101 1126
f 1098 1127 1094
f 1098 1126 1127
f 1094 1127 1097
f 1127 1126 1128
f 1101 1122 1129
f 1101 1129 1126
f 1126 1129 1128
f 1129 1122 1125
f 1052 1130 1053
f 1053 1130 1131
f 1052 1054 1130
f 1130 1054 1132
f 1130 1133 1131
f 1130 1132 1133
f 1133 1134 1131
f 1132 1135 1133
f 1133 1135 1136
f 1133 1136 1134
f 1060 1053 1137
f 1060 1137 1061
f 1137 1138 1061
f 1053 1131 1137
f 1137 1139 1138
f 1137 1131 1139
f 1061 1138 1140
f 1062 1061 1140
f 1062 1140 1106
f 1140 1138 1141
f 1140 1141 1142
f 1131 1134 1139
f 1138 1139 1143
f 1139 1144 1143
f 1139 1134 1144
f 1138 1143 1141
f 1141 1143 1145
f 1143 1144 1145
f 1141 1145 1146
f 1134 1147 1144
f 1136 1147 1134
f 1145 1148 1146
f 1144 1147 1149
f 1144 1149 1145
f 1145 1149 1148
f 1089 1088 1150
f 1054 1089 1132
f 1132 1089 1150
f 1132 1150 1135
f 1150 1088 1151
f 1088 1090 1151
f 1150 1151 1152
f 1150 1152 1135
f 1136 1135 1153
f 1135 1152 1153
f 1151 1154 1152
f 1153 1152 1155
f 1152 1154 1155
f 1151 1090 1156
f 1090 1095 1156
f 1151 1156 1154
f 1096 1157 1095
f 1156 1095 1157
f 1096 1097 1157
f 1157 1097 1158
f 1156 1157 1159
f 1157 1158 1159
f 1156 1159 1154
f 1154 1159 1160
f 1155 1154 1160
f 1159 1158 1161
f 1160 1159 1161
f 1161 1158 1162
f 1163 1162 1164
f 1160 1161 1165
f 1161 1163 1165
f 1161 1162 1163
f 1166 1164 1167
f 1166 1168 1169
f 1163 1164 1166
f 1166 1167 1168
f 1136 1153 1170
f 1153 1171 1170
f 1153 1155 1171
f 1155 1172 1171
f 1136 1170 1147
f 1147 1170 1173
f 1147 1173 1149
f 1170 1174 1173
f 1149 1175 1148
f 1149 1173 1175
f 1148 1175 1176
f 1175 1177 1176
f 1173 1178 1175
f 1171 1174 1170
f 1171 1172 1174
f 1174 1172 1179
f 1173 1174 1178
f 1174 1179 1178
f 1177 1180 1181
f 1175 1178 1177
f 1178 1180 1177
f 1178 1179 1180
f 1155 1160 1172
f 1172 1165 1179
f 1160 1165 1172
f 1179 1165 1182
f 1180 1169 1181
f 1179 1182 1180
f 1180 1182 1169
f 1163 1182 1165
f 1166 1169 1182
f 1163 1166 1182
f 1140 1142 1106
f 1106 1142 1183
f 1107 1106 1183
f 1107 1183 1108
f 1183 1184 1108
f 1142 1185 1183
f 1183 1185 1184
f 1141 1146 1142
f 1142 1146 1185
f 1184 1185 1186
f 1185 1187 1186
f 1185 1146 1187
f 1148 1187 1146
f 1108 1184 1117
f 1184 1188 1117
f 1117 1188 1118
f 1184 1186 1188
f 1188 1189 1118
f 1118 1189 1119
f 1188 1190 1189
f 1187 1191 1186
f 1186 1191 1190
f 1188 1186 1190
f 1191 1192 1190
f 1192 1193 1190
f 1189 1190 1193
f 1189 1194 1119
f 1119 1194 1123
f 1189 1193 1194
f 1124 1123 1195
f 1194 1195 1123
f 1195 1196 1125
f 1124 1195 1125
f 1194 1197 1195
f 1195 1197 1196
f 1194 1193 1197
f 1193 1198 1197
f 1192 1198 1193
f 1197 1168 1196
f 1167 1196 1168
f 1198 1168 1197
f 1169 1168 1198
f 1148 1176 1187
f 1187 1176 1191
f 1191 1176 1199
f 1177 1199 1176
f 1191 1199 1192
f 1192 1199 1181
f 1177 1181 1199
f 1192 1181 1198
f 1169 1198 1181
f 1127 1200 1097
f 1097 1200 1158
f 1127 1128 1200
f 1200 1128 1201
f 1200 1162 1158
f 1200 1201 1162
f 1128 1202 1201
f 1129 1202 1128
f 1129 1125 1202
f 1202 1196 1167
f 1202 1167 1201
f 1201 1164 1162
f 1201 1167 1164
f 1202 1125 1196
