# sionna2 mesh — matrice4e__accent.obj
# group=accent  verts=162  tris=320
v -0.007711 0.019400 0.037176
v -0.009140 0.017782 0.038678
v -0.006930 0.019531 0.039607
v -0.010121 0.015582 0.040066
v -0.008239 0.017631 0.041154
v -0.005867 0.018947 0.041853
v -0.010577 0.012968 0.041234
v -0.009093 0.014769 0.042674
v -0.010475 0.010138 0.042093
v -0.009211 0.011887 0.043665
v -0.007492 0.013503 0.044743
v -0.006857 0.016538 0.043613
v -0.004605 0.017692 0.043742
v -0.005449 0.014862 0.045244
v -0.003238 0.015862 0.045132
v -0.005563 0.020611 0.037176
v -0.004621 0.020493 0.039635
v -0.003238 0.021026 0.037176
v -0.003238 0.019400 0.042093
v -0.001872 0.017692 0.043742
v -0.000610 0.018947 0.041853
v -0.001856 0.020493 0.039635
v -0.000914 0.020611 0.037176
v 0.000453 0.019531 0.039607
v 0.001234 0.019400 0.037176
v -0.006930 0.019531 0.034746
v -0.004621 0.020493 0.034718
v -0.005867 0.018947 0.032500
v -0.001856 0.020493 0.034718
v 0.000453 0.019531 0.034746
v -0.000610 0.018947 0.032500
v -0.003238 0.019400 0.032259
v -0.004605 0.017692 0.030610
v -0.001872 0.017692 0.030610
v -0.003238 0.015862 0.029221
v -0.009140 0.017782 0.035674
v -0.008239 0.017631 0.033198
v -0.010121 0.015582 0.034286
v -0.006857 0.016538 0.030740
v -0.005449 0.014862 0.029108
v -0.007492 0.013503 0.029610
v -0.009093 0.014769 0.031679
v -0.010577 0.012968 0.033118
v -0.009211 0.011887 0.030688
v -0.010475 0.010138 0.032259
v -0.010475 0.015862 0.037176
v -0.011329 0.013000 0.035657
v -0.011422 0.010138 0.034621
v -0.011746 0.010138 0.037176
v -0.011329 0.013000 0.038696
v -0.011422 0.010138 0.039732
v 0.002664 0.017782 0.038678
v 0.001762 0.017631 0.041154
v 0.003644 0.015582 0.040066
v 0.000380 0.016538 0.043613
v -0.001028 0.014862 0.045244
v 0.001015 0.013503 0.044743
v 0.002616 0.014769 0.042674
v 0.004100 0.012968 0.041234
v 0.002734 0.011887 0.043665
v 0.003998 0.010138 0.042093
v -0.003238 0.013114 0.046173
v -0.005475 0.011907 0.046071
v -0.003238 0.010138 0.046529
v -0.007711 0.010138 0.045132
v -0.009211 0.008390 0.043665
v -0.007492 0.006774 0.044743
v -0.005475 0.008370 0.046071
v -0.003238 0.007163 0.046173
v -0.005449 0.005414 0.045244
v -0.003238 0.004415 0.045132
v -0.010577 0.007309 0.041234
v -0.011329 0.007276 0.038696
v -0.010121 0.004695 0.040066
v -0.011329 0.007276 0.035657
v -0.010577 0.007309 0.033118
v -0.010121 0.004695 0.034286
v -0.010475 0.004415 0.037176
v -0.009140 0.002495 0.038678
v -0.009140 0.002495 0.035674
v -0.007711 0.000877 0.037176
v -0.009211 0.008390 0.030688
v -0.007711 0.010138 0.029221
v -0.007492 0.006774 0.029610
v -0.005475 0.011907 0.028281
v -0.003238 0.013114 0.028180
v -0.003238 0.010138 0.027824
v -0.005475 0.008370 0.028281
v -0.005449 0.005414 0.029108
v -0.003238 0.007163 0.028180
v -0.003238 0.004415 0.029221
v -0.001028 0.014862 0.029108
v 0.000380 0.016538 0.030740
v 0.001015 0.013503 0.029610
v 0.001762 0.017631 0.033198
v 0.002664 0.017782 0.035674
v 0.003644 0.015582 0.034286
v 0.002616 0.014769 0.031679
v 0.002734 0.011887 0.030688
v 0.004100 0.012968 0.033118
v 0.003998 0.010138 0.032259
v 0.001234 0.000877 0.037176
v 0.002664 0.002495 0.038678
v 0.000453 0.000746 0.039607
v 0.003644 0.004695 0.040066
v 0.001762 0.002646 0.041154
v -0.000610 0.001330 0.041853
v 0.004100 0.007309 0.041234
v 0.002616 0.005508 0.042674
v 0.002734 0.008390 0.043665
v 0.001015 0.006774 0.044743
v 0.000380 0.003739 0.043613
v -0.001872 0.002585 0.043742
v -0.001028 0.005414 0.045244
v -0.000914 -0.000335 0.037176
v -0.001856 -0.000216 0.039635
v -0.003238 -0.000749 0.037176
v -0.003238 0.000877 0.042093
v -0.004605 0.002585 0.043742
v -0.005867 0.001330 0.041853
v -0.004621 -0.000216 0.039635
v -0.005563 -0.000335 0.037176
v -0.006930 0.000746 0.039607
v 0.000453 0.000746 0.034746
v -0.001856 -0.000216 0.034718
v -0.000610 0.001330 0.032500
v -0.004621 -0.000216 0.034718
v -0.006930 0.000746 0.034746
v -0.005867 0.001330 0.032500
v -0.003238 0.000877 0.032259
v -0.001872 0.002585 0.030610
v -0.004605 0.002585 0.030610
v 0.002664 0.002495 0.035674
v 0.001762 0.002646 0.033198
v 0.003644 0.004695 0.034286
v 0.000380 0.003739 0.030740
v -0.001028 0.005414 0.029108
v 0.001015 0.006774 0.029610
v 0.002616 0.005508 0.031679
v 0.004100 0.007309 0.033118
v 0.002734 0.008390 0.030688
v 0.003998 0.004415 0.037176
v 0.004852 0.007276 0.035657
v 0.004945 0.010138 0.034621
v 0.005269 0.010138 0.037176
v 0.004852 0.007276 0.038696
v 0.004945 0.010138 0.039732
v -0.001002 0.008370 0.046071
v 0.001234 0.010138 0.045132
v -0.001002 0.011907 0.046071
v -0.008239 0.002646 0.041154
v -0.006857 0.003739 0.043613
v -0.009093 0.005508 0.042674
v -0.006857 0.003739 0.030740
v -0.008239 0.002646 0.033198
v -0.009093 0.005508 0.031679
v 0.001234 0.010138 0.029221
v -0.001002 0.008370 0.028281
v -0.001002 0.011907 0.028281
v 0.004852 0.013000 0.038696
v 0.004852 0.013000 0.035657
v 0.003998 0.015862 0.037176
f 1 2 3
f 2 4 5
f 3 5 6
f 2 5 3
f 4 7 8
f 7 9 10
f 8 10 11
f 7 10 8
f 6 12 13
f 12 11 14
f 13 14 15
f 12 14 13
f 4 8 5
f 8 11 12
f 5 12 6
f 8 12 5
f 1 3 16
f 3 6 17
f 16 17 18
f 3 17 16
f 6 13 19
f 13 15 20
f 19 20 21
f 13 20 19
f 18 22 23
f 22 21 24
f 23 24 25
f 22 24 23
f 6 19 17
f 19 21 22
f 17 22 18
f 19 22 17
f 1 16 26
f 16 18 27
f 26 27 28
f 16 27 26
f 18 23 29
f 23 25 30
f 29 30 31
f 23 30 29
f 28 32 33
f 32 31 34
f 33 34 35
f 32 34 33
f 18 29 27
f 29 31 32
f 27 32 28
f 29 32 27
f 1 26 36
f 26 28 37
f 36 37 38
f 26 37 36
f 28 33 39
f 33 35 40
f 39 40 41
f 33 40 39
f 38 42 43
f 42 41 44
f 43 44 45
f 42 44 43
f 28 39 37
f 39 41 42
f 37 42 38
f 39 42 37
f 1 36 2
f 36 38 46
f 2 46 4
f 36 46 2
f 38 43 47
f 43 45 48
f 47 48 49
f 43 48 47
f 4 50 7
f 50 49 51
f 7 51 9
f 50 51 7
f 38 47 46
f 47 49 50
f 46 50 4
f 47 50 46
f 25 24 52
f 24 21 53
f 52 53 54
f 24 53 52
f 21 20 55
f 20 15 56
f 55 56 57
f 20 56 55
f 54 58 59
f 58 57 60
f 59 60 61
f 58 60 59
f 21 55 53
f 55 57 58
f 53 58 54
f 55 58 53
f 15 14 62
f 14 11 63
f 62 63 64
f 14 63 62
f 11 10 65
f 10 9 66
f 65 66 67
f 10 66 65
f 64 68 69
f 68 67 70
f 69 70 71
f 68 70 69
f 11 65 63
f 65 67 68
f 63 68 64
f 65 68 63
f 9 51 72
f 51 49 73
f 72 73 74
f 51 73 72
f 49 48 75
f 48 45 76
f 75 76 77
f 48 76 75
f 74 78 79
f 78 77 80
f 79 80 81
f 78 80 79
f 49 75 73
f 75 77 78
f 73 78 74
f 75 78 73
f 45 44 82
f 44 41 83
f 82 83 84
f 44 83 82
f 41 40 85
f 40 35 86
f 85 86 87
f 40 86 85
f 84 88 89
f 88 87 90
f 89 90 91
f 88 90 89
f 41 85 83
f 85 87 88
f 83 88 84
f 85 88 83
f 35 34 92
f 34 31 93
f 92 93 94
f 34 93 92
f 31 30 95
f 30 25 96
f 95 96 97
f 30 96 95
f 94 98 99
f 98 97 100
f 99 100 101
f 98 100 99
f 31 95 93
f 95 97 98
f 93 98 94
f 95 98 93
f 102 103 104
f 103 105 106
f 104 106 107
f 103 106 104
f 105 108 109
f 108 61 110
f 109 110 111
f 108 110 109
f 107 112 113
f 112 111 114
f 113 114 71
f 112 114 113
f 105 109 106
f 109 111 112
f 106 112 107
f 109 112 106
f 102 104 115
f 104 107 116
f 115 116 117
f 104 116 115
f 107 113 118
f 113 71 119
f 118 119 120
f 113 119 118
f 117 121 122
f 121 120 123
f 122 123 81
f 121 123 122
f 107 118 116
f 118 120 121
f 116 121 117
f 118 121 116
f 102 115 124
f 115 117 125
f 124 125 126
f 115 125 124
f 117 122 127
f 122 81 128
f 127 128 129
f 122 128 127
f 126 130 131
f 130 129 132
f 131 132 91
f 130 132 131
f 117 127 125
f 127 129 130
f 125 130 126
f 127 130 125
f 102 124 133
f 124 126 134
f 133 134 135
f 124 134 133
f 126 131 136
f 131 91 137
f 136 137 138
f 131 137 136
f 135 139 140
f 139 138 141
f 140 141 101
f 139 141 140
f 126 136 134
f 136 138 139
f 134 139 135
f 136 139 134
f 102 133 103
f 133 135 142
f 103 142 105
f 133 142 103
f 135 140 143
f 140 101 144
f 143 144 145
f 140 144 143
f 105 146 108
f 146 145 147
f 108 147 61
f 146 147 108
f 135 143 142
f 143 145 146
f 142 146 105
f 143 146 142
f 71 114 69
f 114 111 148
f 69 148 64
f 114 148 69
f 111 110 149
f 110 61 60
f 149 60 57
f 110 60 149
f 64 150 62
f 150 57 56
f 62 56 15
f 150 56 62
f 111 149 148
f 149 57 150
f 148 150 64
f 149 150 148
f 81 123 79
f 123 120 151
f 79 151 74
f 123 151 79
f 120 119 152
f 119 71 70
f 152 70 67
f 119 70 152
f 74 153 72
f 153 67 66
f 72 66 9
f 153 66 72
f 120 152 151
f 152 67 153
f 151 153 74
f 152 153 151
f 91 132 89
f 132 129 154
f 89 154 84
f 132 154 89
f 129 128 155
f 128 81 80
f 155 80 77
f 128 80 155
f 84 156 82
f 156 77 76
f 82 76 45
f 156 76 82
f 129 155 154
f 155 77 156
f 154 156 84
f 155 156 154
f 101 141 99
f 141 138 157
f 99 157 94
f 141 157 99
f 138 137 158
f 137 91 90
f 158 90 87
f 137 90 158
f 94 159 92
f 159 87 86
f 92 86 35
f 159 86 92
f 138 158 157
f 158 87 159
f 157 159 94
f 158 159 157
f 61 147 59
f 147 145 160
f 59 160 54
f 147 160 59
f 145 144 161
f 144 101 100
f 161 100 97
f 144 100 161
f 54 162 52
f 162 97 96
f 52 96 25
f 162 96 52
f 145 161 160
f 161 97 162
f 160 162 54
f 161 162 160
