# sionna2 mesh — matrice4e__gear.obj
# group=gear  verts=1444  tris=2872
v 0.129577 0.174751 -0.054478
v 0.129614 0.174974 -0.054525
v 0.129597 0.174750 -0.054481
v 0.129591 0.174655 -0.054462
v 0.129811 0.176162 -0.054778
v 0.129773 0.175938 -0.054731
v 0.129796 0.175997 -0.054471
v 0.132825 0.178977 -0.055747
v 0.132833 0.178949 -0.055743
v 0.132638 0.178892 -0.055704
v 0.132996 0.178997 -0.055776
v 0.131522 0.178388 -0.055447
v 0.131668 0.178454 -0.055481
v 0.131535 0.178369 -0.055445
v 0.131417 0.178293 -0.055414
v 0.131421 0.178299 -0.055399
v 0.131654 0.178505 -0.055176
v 0.130465 0.177430 -0.055113
v 0.130869 0.177797 -0.055241
v 0.130357 0.177220 -0.055057
v 0.138571 0.172969 -0.055447
v 0.138385 0.172608 -0.055352
v 0.138608 0.173193 -0.055495
v 0.137917 0.171701 -0.055113
v 0.137512 0.171334 -0.054985
v 0.138025 0.171910 -0.055168
v 0.138076 0.171968 -0.054997
v 0.135683 0.178874 -0.056143
v 0.135671 0.178839 -0.056135
v 0.135429 0.178922 -0.056115
v 0.135892 0.178764 -0.056152
v 0.136977 0.178190 -0.056202
v 0.136620 0.178379 -0.056185
v 0.136620 0.178379 -0.056185
v 0.138805 0.174380 -0.055747
v 0.138768 0.174156 -0.055700
v 0.138784 0.174380 -0.055745
v 0.138791 0.174475 -0.055763
v 0.137971 0.177115 -0.056143
v 0.138042 0.176968 -0.056125
v 0.137946 0.177098 -0.056136
v 0.137797 0.177304 -0.056153
v 0.136938 0.178139 -0.056186
v 0.137224 0.177924 -0.056187
v 0.137294 0.177963 -0.055928
v 0.130411 0.172016 -0.054082
v 0.130585 0.171827 -0.054072
v 0.130595 0.171853 -0.053927
v 0.130436 0.172033 -0.054089
v 0.130340 0.172163 -0.054100
v 0.131404 0.170941 -0.054024
v 0.131158 0.171207 -0.054038
v 0.131444 0.170992 -0.054039
v 0.131762 0.170752 -0.054040
v 0.134127 0.169987 -0.054239
v 0.133884 0.170033 -0.054212
v 0.134127 0.170027 -0.054246
v 0.134404 0.170020 -0.054285
v 0.132699 0.170257 -0.054082
v 0.132490 0.170367 -0.054073
v 0.132711 0.170292 -0.054091
v 0.132501 0.170397 -0.053887
v 0.132953 0.170209 -0.054110
v 0.132999 0.170235 -0.053882
v 0.130373 0.172206 -0.053779
v 0.129997 0.176523 -0.054873
v 0.130002 0.176536 -0.054803
v 0.132241 0.180000 -0.048820
v 0.135557 0.170154 -0.054478
v 0.135549 0.170182 -0.054482
v 0.135744 0.170238 -0.054521
v 0.135386 0.170134 -0.054449
v 0.136860 0.170743 -0.054778
v 0.136714 0.170677 -0.054744
v 0.136847 0.170762 -0.054780
v 0.136965 0.170837 -0.054811
v 0.138202 0.179784 -0.049645
v 0.139944 0.174078 -0.048820
v 0.138661 0.173330 -0.055353
v 0.138798 0.174064 -0.055422
v 0.136389 0.178599 -0.055885
v 0.139288 0.178609 -0.049581
v 0.137375 0.177933 -0.055794
v 0.139974 0.177177 -0.049410
v 0.138057 0.176955 -0.056093
v 0.138578 0.176018 -0.055742
v 0.138643 0.175849 -0.055776
v 0.138661 0.175801 -0.055720
v 0.138662 0.175797 -0.055718
v 0.137558 0.177746 -0.055759
v 0.137452 0.177865 -0.055756
v 0.133076 0.179070 -0.055515
v 0.134255 0.179144 -0.055987
v 0.134498 0.179098 -0.056013
v 0.134255 0.179104 -0.055979
v 0.133978 0.179111 -0.055940
v 0.135228 0.180826 -0.049410
v 0.133881 0.179172 -0.055615
v 0.133665 0.180643 -0.049149
v 0.132630 0.178915 -0.055561
v 0.131973 0.178675 -0.055113
v 0.136788 0.180531 -0.049581
v 0.134620 0.179136 -0.055806
v 0.135210 0.179060 -0.055743
v 0.136023 0.178748 -0.055999
v 0.140200 0.175620 -0.049149
v 0.138828 0.174565 -0.055562
v 0.138768 0.175224 -0.055520
v 0.130116 0.176026 -0.047761
v 0.129663 0.174565 -0.053876
v 0.130341 0.174469 -0.047500
v 0.131027 0.173037 -0.047329
v 0.130367 0.172252 -0.053683
v 0.131116 0.171290 -0.053895
v 0.132113 0.171862 -0.047265
v 0.131988 0.170696 -0.053715
v 0.132267 0.170560 -0.053670
v 0.133528 0.171115 -0.047329
v 0.133309 0.170211 -0.053685
v 0.133810 0.170095 -0.053877
v 0.133547 0.170170 -0.053683
v 0.130371 0.177568 -0.048090
v 0.131086 0.178953 -0.048455
v 0.130351 0.177214 -0.054951
v 0.130930 0.177865 -0.055166
v 0.130241 0.177007 -0.054758
v 0.129704 0.175398 -0.054179
v 0.129793 0.173346 -0.054121
v 0.129803 0.173333 -0.054098
v 0.129790 0.173378 -0.054113
v 0.129671 0.174526 -0.053845
v 0.129791 0.175918 -0.054277
v 0.129775 0.175799 -0.054185
v 0.136650 0.171003 -0.047761
v 0.139229 0.172693 -0.048455
v 0.138163 0.172110 -0.054921
v 0.138281 0.172335 -0.054964
v 0.138074 0.171646 -0.048090
v 0.137170 0.171016 -0.054627
v 0.137452 0.171266 -0.054492
v 0.135088 0.170820 -0.047500
v 0.135165 0.170164 -0.053880
v 0.136024 0.170383 -0.054225
v 0.136309 0.170521 -0.054115
v 0.134652 0.170095 -0.053877
v 0.134885 0.170138 -0.053765
v 0.135015 0.170154 -0.053779
v 0.131696 0.178542 -0.055089
v 0.131735 0.178565 -0.055069
v 0.134505 0.182310 -0.042550
v 0.139428 0.181378 -0.043088
v 0.136201 0.182508 -0.042833
v 0.137893 0.182188 -0.043018
v 0.141317 0.175188 -0.042194
v 0.141350 0.178550 -0.042833
v 0.141594 0.176860 -0.042550
v 0.140605 0.180103 -0.043018
v 0.131644 0.174059 -0.040576
v 0.132821 0.172784 -0.040506
v 0.134356 0.171973 -0.040576
v 0.130932 0.178973 -0.041401
v 0.130655 0.177301 -0.041045
v 0.130899 0.175612 -0.040761
v 0.139289 0.172549 -0.041401
v 0.136048 0.171654 -0.040761
v 0.137744 0.171852 -0.041045
v 0.132960 0.181612 -0.042194
v 0.131707 0.180476 -0.041797
v 0.140542 0.173685 -0.041797
v 0.135345 0.183976 -0.035951
v 0.138998 0.183845 -0.036456
v 0.137173 0.184190 -0.036257
v 0.142989 0.178101 -0.035951
v 0.142690 0.176298 -0.035567
v 0.141923 0.181597 -0.036456
v 0.140653 0.182971 -0.036532
v 0.142725 0.179922 -0.036257
v 0.133530 0.173705 -0.033748
v 0.131458 0.176754 -0.034023
v 0.131194 0.178576 -0.034328
v 0.131493 0.180379 -0.034712
v 0.132260 0.175080 -0.033823
v 0.135185 0.172832 -0.033823
v 0.138837 0.172700 -0.034328
v 0.137009 0.172487 -0.034023
v 0.132329 0.181999 -0.035140
v 0.133680 0.183224 -0.035567
v 0.141854 0.174677 -0.035140
v 0.140503 0.173453 -0.034712
v 0.140103 0.185502 -0.029894
v 0.136185 0.185643 -0.029352
v 0.138146 0.185872 -0.029680
v 0.144063 0.177407 -0.028940
v 0.141878 0.184565 -0.029975
v 0.144100 0.181295 -0.029680
v 0.143240 0.183091 -0.029894
v 0.144383 0.179341 -0.029352
v 0.132016 0.177897 -0.027284
v 0.131733 0.179851 -0.027612
v 0.136013 0.173690 -0.027070
v 0.137970 0.173320 -0.027284
v 0.132876 0.176101 -0.027070
v 0.134238 0.174627 -0.026989
v 0.132950 0.183523 -0.028482
v 0.134399 0.184836 -0.028940
v 0.132053 0.181785 -0.028023
v 0.141717 0.174356 -0.028023
v 0.143166 0.175669 -0.028482
v 0.139931 0.173549 -0.027612
v 0.137025 0.187310 -0.022753
v 0.139119 0.187554 -0.023103
v 0.145436 0.178517 -0.022314
v 0.144557 0.184585 -0.023332
v 0.141208 0.187159 -0.023332
v 0.143103 0.186159 -0.023418
v 0.145476 0.182667 -0.023103
v 0.145778 0.180582 -0.022753
v 0.132574 0.179040 -0.020545
v 0.138931 0.174153 -0.020545
v 0.133493 0.177123 -0.020316
v 0.134947 0.175549 -0.020230
v 0.136842 0.174548 -0.020316
v 0.135118 0.186448 -0.022314
v 0.133571 0.185046 -0.021824
v 0.132614 0.183190 -0.021335
v 0.132272 0.181126 -0.020895
v 0.142931 0.175259 -0.021335
v 0.141024 0.174398 -0.020895
v 0.144478 0.176661 -0.021824
v 0.137866 0.188976 -0.016154
v 0.140091 0.189236 -0.016527
v 0.142313 0.188816 -0.016770
v 0.144328 0.187752 -0.016861
v 0.146851 0.184040 -0.016527
v 0.147172 0.181822 -0.016154
v 0.146809 0.179627 -0.015687
v 0.145874 0.186079 -0.016770
v 0.133132 0.180183 -0.013807
v 0.134109 0.178144 -0.013563
v 0.135655 0.176470 -0.013472
v 0.137670 0.175406 -0.013563
v 0.134193 0.186569 -0.015167
v 0.132811 0.182401 -0.014179
v 0.133175 0.184596 -0.014646
v 0.135838 0.188060 -0.015687
v 0.144146 0.176162 -0.014646
v 0.139892 0.174986 -0.013807
v 0.142118 0.175246 -0.014179
v 0.145791 0.177654 -0.015167
v 0.138706 0.190643 -0.009556
v 0.141064 0.190918 -0.009950
v 0.143418 0.190473 -0.010208
v 0.148181 0.180736 -0.009060
v 0.148567 0.183062 -0.009556
v 0.147191 0.187573 -0.010208
v 0.145553 0.189346 -0.010305
v 0.148227 0.185412 -0.009950
v 0.134725 0.179165 -0.006810
v 0.136364 0.177392 -0.006713
v 0.138499 0.176265 -0.006810
v 0.133735 0.186002 -0.007957
v 0.133350 0.183675 -0.007462
v 0.134814 0.188092 -0.008509
v 0.136557 0.189672 -0.009060
v 0.133690 0.181326 -0.007068
v 0.143211 0.176095 -0.007462
v 0.145360 0.177066 -0.007957
v 0.147103 0.178646 -0.008509
v 0.140853 0.175820 -0.007068
v 0.140958 0.183369 -0.008509
v 0.129670 0.174565 -0.056397
v 0.129721 0.173330 -0.055876
v 0.129491 0.174565 -0.055113
v 0.129721 0.175801 -0.055876
v 0.129721 0.173330 -0.054349
v 0.129721 0.175801 -0.054349
v 0.134191 0.173281 -0.059633
v 0.134191 0.172094 -0.059110
v 0.132969 0.172526 -0.059167
v 0.131841 0.173113 -0.058914
v 0.132192 0.171803 -0.058347
v 0.130956 0.172566 -0.057875
v 0.133436 0.171305 -0.058412
v 0.134946 0.171305 -0.058412
v 0.132955 0.173802 -0.059582
v 0.131720 0.174565 -0.059110
v 0.132955 0.175329 -0.059582
v 0.134191 0.174565 -0.059812
v 0.134191 0.175850 -0.059633
v 0.132969 0.176605 -0.059167
v 0.131841 0.176018 -0.058914
v 0.134191 0.177036 -0.059110
v 0.130891 0.173810 -0.058373
v 0.130891 0.175320 -0.058373
v 0.130956 0.176564 -0.057875
v 0.132192 0.177328 -0.058347
v 0.133436 0.177826 -0.058412
v 0.134946 0.177826 -0.058412
v 0.135412 0.172526 -0.059167
v 0.136190 0.171803 -0.058347
v 0.136541 0.173113 -0.058914
v 0.137425 0.172566 -0.057875
v 0.135426 0.173802 -0.059582
v 0.135426 0.175329 -0.059582
v 0.135412 0.176605 -0.059167
v 0.136662 0.174565 -0.059110
v 0.136541 0.176018 -0.058914
v 0.136190 0.177328 -0.058347
v 0.137425 0.176564 -0.057875
v 0.137491 0.173810 -0.058373
v 0.137491 0.175320 -0.058373
v 0.131428 0.171331 -0.057111
v 0.132739 0.170763 -0.057462
v 0.134191 0.170567 -0.057583
v 0.130389 0.172215 -0.056565
v 0.130136 0.173344 -0.057152
v 0.132152 0.170511 -0.056334
v 0.130930 0.171266 -0.055867
v 0.133427 0.170095 -0.056348
v 0.134954 0.170095 -0.056348
v 0.130193 0.174565 -0.057583
v 0.130136 0.175787 -0.057152
v 0.131428 0.177800 -0.057111
v 0.132739 0.178368 -0.057462
v 0.134191 0.178563 -0.057583
v 0.130389 0.176915 -0.056565
v 0.132152 0.178620 -0.056334
v 0.130930 0.177865 -0.055867
v 0.133427 0.179035 -0.056348
v 0.134954 0.179035 -0.056348
v 0.135643 0.170763 -0.057462
v 0.136954 0.171331 -0.057111
v 0.136230 0.170511 -0.056334
v 0.137993 0.172215 -0.056565
v 0.138245 0.173344 -0.057152
v 0.137452 0.171266 -0.055867
v 0.138661 0.173330 -0.055876
v 0.135643 0.178368 -0.057462
v 0.136954 0.177800 -0.057111
v 0.138189 0.174565 -0.057583
v 0.138245 0.175787 -0.057152
v 0.136230 0.178620 -0.056334
v 0.138712 0.174565 -0.056397
v 0.137993 0.176915 -0.056565
v 0.137452 0.177865 -0.055867
v 0.138661 0.175801 -0.055876
v 0.130193 0.172094 -0.055113
v 0.131720 0.170567 -0.055113
v 0.134191 0.169865 -0.055113
v 0.132907 0.170044 -0.055113
v 0.130930 0.171266 -0.054358
v 0.130193 0.177036 -0.055113
v 0.131720 0.178563 -0.055113
v 0.135475 0.170044 -0.055113
v 0.136662 0.170567 -0.055113
v 0.138189 0.172094 -0.055113
v 0.132152 0.170511 -0.053891
v 0.133427 0.170095 -0.053877
v 0.134954 0.170095 -0.053877
v -0.142345 0.154017 -0.055447
v -0.143977 0.156349 -0.050266
v -0.142414 0.154306 -0.055510
v -0.142556 0.154678 -0.055307
v -0.142221 0.153799 -0.055333
v -0.143615 0.154829 -0.049937
v -0.142155 0.153627 -0.054999
v -0.142058 0.153459 -0.054916
v -0.141931 0.153270 -0.054955
v -0.142677 0.155408 -0.055747
v -0.142648 0.155411 -0.055743
v -0.142635 0.155234 -0.055710
v -0.142662 0.155601 -0.055780
v -0.143860 0.157918 -0.050527
v -0.142576 0.156866 -0.055942
v -0.142573 0.156847 -0.055970
v -0.143275 0.159394 -0.050698
v -0.142588 0.156977 -0.055769
v -0.142556 0.157149 -0.055672
v -0.142442 0.157447 -0.055692
v -0.142034 0.158194 -0.056143
v -0.142164 0.157867 -0.056105
v -0.142652 0.155191 -0.055559
v -0.142750 0.155914 -0.055376
v -0.142276 0.153946 -0.055423
v -0.142205 0.153786 -0.055384
v -0.141605 0.152797 -0.055113
v -0.141808 0.153132 -0.055204
v -0.141347 0.152614 -0.055039
v -0.141147 0.152437 -0.054976
v -0.140484 0.151915 -0.054778
v -0.140590 0.151999 -0.054810
v -0.140477 0.151926 -0.054779
v -0.140435 0.151900 -0.054768
v -0.140377 0.151875 -0.054754
v -0.139143 0.151418 -0.054478
v -0.139308 0.151479 -0.054515
v -0.139140 0.151431 -0.054480
v -0.139100 0.151419 -0.054471
v -0.139061 0.151414 -0.054464
v -0.139048 0.151424 -0.054347
v -0.137705 0.151351 -0.054239
v -0.138033 0.151366 -0.054293
v -0.137707 0.151375 -0.054243
v -0.142806 0.153497 -0.049572
v -0.137599 0.151379 -0.054227
v -0.136299 0.151719 -0.054082
v -0.136569 0.151648 -0.054112
v -0.136307 0.151739 -0.054087
v -0.136218 0.151769 -0.054079
v -0.136221 0.151803 -0.053889
v -0.135055 0.152491 -0.054024
v -0.135513 0.152207 -0.054045
v -0.135089 0.152529 -0.054036
v -0.134956 0.152631 -0.054033
v -0.134848 0.152749 -0.054037
v -0.134138 0.153633 -0.054082
v -0.134282 0.153454 -0.054073
v -0.134228 0.153529 -0.054078
v -0.134167 0.153649 -0.054090
v -0.134009 0.153960 -0.054120
v -0.134332 0.153478 -0.053723
v -0.142006 0.158178 -0.056135
v -0.141945 0.158298 -0.056147
v -0.141891 0.158373 -0.056152
v -0.141118 0.159336 -0.056202
v -0.141324 0.159079 -0.056188
v -0.141351 0.159206 -0.055873
v -0.141217 0.159196 -0.056192
v -0.141084 0.159298 -0.056189
v -0.140660 0.159620 -0.056180
v -0.140655 0.159641 -0.056132
v -0.139873 0.160108 -0.056143
v -0.139865 0.160089 -0.056138
v -0.139954 0.160058 -0.056147
v -0.139604 0.160179 -0.056113
v -0.138468 0.160476 -0.055987
v -0.138466 0.160452 -0.055982
v -0.138574 0.160449 -0.055998
v -0.138140 0.160461 -0.055932
v -0.137030 0.160409 -0.055747
v -0.137072 0.160408 -0.055754
v -0.137111 0.160413 -0.055761
v -0.137033 0.160397 -0.055746
v -0.136865 0.160348 -0.055710
v -0.135689 0.159912 -0.055447
v -0.135737 0.159928 -0.055457
v -0.135795 0.159952 -0.055471
v -0.135696 0.159901 -0.055446
v -0.135583 0.159829 -0.055415
v -0.135654 0.159917 -0.055222
v -0.134568 0.159030 -0.055113
v -0.134826 0.159213 -0.055186
v -0.135026 0.159390 -0.055249
v -0.134365 0.158695 -0.055021
v -0.142274 0.160642 -0.050762
v -0.140914 0.161485 -0.050698
v -0.139984 0.160056 -0.056104
v -0.140270 0.159949 -0.055924
v -0.139379 0.161888 -0.050527
v -0.139120 0.160410 -0.055706
v -0.138600 0.160459 -0.055944
v -0.137807 0.161814 -0.050266
v -0.137851 0.160543 -0.055494
v -0.133496 0.156419 -0.054478
v -0.133524 0.156416 -0.054482
v -0.133538 0.156593 -0.054515
v -0.133511 0.156226 -0.054446
v -0.133827 0.157810 -0.054778
v -0.133896 0.157882 -0.054802
v -0.133967 0.158041 -0.054842
v -0.133758 0.157521 -0.054716
v -0.133770 0.157551 -0.054598
v -0.136342 0.161271 -0.049937
v -0.136757 0.160407 -0.055186
v -0.135117 0.160307 -0.049572
v -0.135643 0.159924 -0.055113
v -0.135625 0.159913 -0.055085
v -0.135559 0.159862 -0.055059
v -0.141581 0.152533 -0.049207
v -0.139862 0.151696 -0.054317
v -0.141027 0.152331 -0.054663
v -0.140116 0.151990 -0.048878
v -0.138892 0.151457 -0.053878
v -0.138670 0.151444 -0.053877
v -0.138544 0.151916 -0.048617
v -0.138865 0.151458 -0.053854
v -0.138829 0.151457 -0.053843
v -0.137530 0.151444 -0.053877
v -0.137402 0.151493 -0.053749
v -0.137221 0.151543 -0.053712
v -0.136687 0.151651 -0.053884
v -0.137009 0.152319 -0.048446
v -0.136119 0.151890 -0.053754
v -0.135895 0.152031 -0.053728
v -0.135649 0.153162 -0.048382
v -0.134648 0.154410 -0.048446
v -0.134014 0.154014 -0.053939
v -0.133768 0.154683 -0.053885
v -0.133609 0.154980 -0.054206
v -0.134063 0.155885 -0.048617
v -0.133605 0.154987 -0.054214
v -0.133946 0.157454 -0.048878
v -0.133731 0.157340 -0.054231
v -0.133602 0.156814 -0.054208
v -0.133687 0.157147 -0.054133
v -0.134308 0.158974 -0.049207
v -0.134345 0.158673 -0.054850
v -0.134145 0.158349 -0.054689
v -0.133594 0.155838 -0.053782
v -0.133571 0.156059 -0.053890
v -0.133585 0.155966 -0.053796
v -0.133591 0.155914 -0.053771
v -0.144886 0.155642 -0.044428
v -0.144008 0.154196 -0.044031
v -0.145151 0.158993 -0.045067
v -0.145278 0.157291 -0.044784
v -0.144517 0.160594 -0.045252
v -0.143430 0.161947 -0.045322
v -0.141955 0.162862 -0.045252
v -0.142679 0.153150 -0.043635
v -0.141089 0.152561 -0.043279
v -0.139384 0.152481 -0.042995
v -0.137718 0.152918 -0.042810
v -0.140289 0.163299 -0.045067
v -0.138584 0.163219 -0.044784
v -0.136995 0.162630 -0.044428
v -0.135666 0.161584 -0.044031
v -0.134788 0.160139 -0.043635
v -0.135157 0.155186 -0.042810
v -0.134522 0.156787 -0.042995
v -0.134396 0.158490 -0.043279
v -0.145758 0.161794 -0.039807
v -0.144587 0.163253 -0.039883
v -0.142996 0.164239 -0.039807
v -0.136243 0.153833 -0.042740
v -0.141200 0.164710 -0.039608
v -0.145209 0.154896 -0.038491
v -0.143776 0.153768 -0.038063
v -0.146579 0.158232 -0.039302
v -0.146156 0.156454 -0.038918
v -0.146442 0.160067 -0.039608
v -0.142063 0.153133 -0.037679
v -0.140224 0.153047 -0.037374
v -0.138428 0.153517 -0.037174
v -0.136838 0.154504 -0.037099
v -0.139362 0.164624 -0.039302
v -0.137648 0.163989 -0.038918
v -0.135269 0.161303 -0.038063
v -0.136215 0.162861 -0.038491
v -0.134982 0.157689 -0.037374
v -0.135666 0.155963 -0.037174
v -0.134845 0.159525 -0.037679
v -0.147733 0.161142 -0.034148
v -0.147880 0.159173 -0.033820
v -0.147426 0.157267 -0.033408
v -0.146999 0.162993 -0.034362
v -0.145743 0.164559 -0.034443
v -0.144037 0.165617 -0.034362
v -0.142111 0.166121 -0.034148
v -0.140139 0.166029 -0.033820
v -0.138301 0.165348 -0.033408
v -0.136764 0.164138 -0.032950
v -0.146411 0.155595 -0.032950
v -0.144874 0.154385 -0.032491
v -0.143036 0.153704 -0.032080
v -0.141064 0.153612 -0.031752
v -0.139138 0.154117 -0.031538
v -0.137432 0.155175 -0.031457
v -0.135295 0.160560 -0.032080
v -0.136176 0.156740 -0.031538
v -0.135442 0.158591 -0.031752
v -0.135749 0.162467 -0.032491
v -0.145971 0.155003 -0.026920
v -0.144009 0.154276 -0.026480
v -0.149024 0.162217 -0.028688
v -0.149181 0.160115 -0.028338
v -0.148240 0.164193 -0.028917
v -0.146899 0.165864 -0.029003
v -0.145078 0.166994 -0.028917
v -0.143021 0.167533 -0.028688
v -0.148696 0.158079 -0.027899
v -0.147612 0.156294 -0.027409
v -0.140916 0.167434 -0.028338
v -0.138954 0.166707 -0.027899
v -0.135901 0.159493 -0.026130
v -0.136229 0.163631 -0.026920
v -0.137313 0.165416 -0.027409
v -0.135745 0.161595 -0.026480
v -0.150315 0.163291 -0.023229
v -0.149482 0.165393 -0.023472
v -0.148055 0.167170 -0.023563
v -0.141904 0.154177 -0.026130
v -0.139847 0.154716 -0.025901
v -0.138026 0.155846 -0.025815
v -0.136685 0.157517 -0.025901
v -0.146119 0.168371 -0.023472
v -0.143932 0.168944 -0.023229
v -0.141694 0.168839 -0.022856
v -0.147069 0.155620 -0.021348
v -0.144982 0.154847 -0.020881
v -0.150481 0.161056 -0.022856
v -0.149966 0.158891 -0.022389
v -0.148814 0.156994 -0.021869
v -0.142744 0.154743 -0.020508
v -0.137862 0.166693 -0.021869
v -0.136710 0.164795 -0.021348
v -0.140557 0.155316 -0.020265
v -0.138621 0.156517 -0.020174
v -0.136361 0.160395 -0.020508
v -0.137194 0.158294 -0.020265
v -0.136195 0.162630 -0.020881
v -0.149212 0.168475 -0.018124
v -0.151782 0.161998 -0.017374
v -0.151236 0.159704 -0.016879
v -0.151606 0.164366 -0.017769
v -0.150723 0.166592 -0.018027
v -0.139607 0.168066 -0.022389
v -0.147160 0.169748 -0.018027
v -0.144843 0.170355 -0.017769
v -0.142471 0.170244 -0.017374
v -0.140260 0.169425 -0.016879
v -0.138412 0.167970 -0.016328
v -0.145956 0.155419 -0.015281
v -0.150015 0.157693 -0.016328
v -0.148167 0.156238 -0.015776
v -0.144213 0.162832 -0.016328
v -0.143584 0.155308 -0.014887
v -0.141266 0.155915 -0.014629
v -0.137704 0.159071 -0.014629
v -0.136644 0.163665 -0.015281
v -0.137190 0.165959 -0.015776
v -0.136821 0.161298 -0.014887
v -0.139215 0.157188 -0.014532
v -0.139322 0.155150 -0.059582
v -0.138086 0.154629 -0.059633
v -0.139308 0.153874 -0.059167
v -0.140436 0.154461 -0.058914
v -0.138086 0.153443 -0.059110
v -0.141321 0.153915 -0.057875
v -0.141386 0.155159 -0.058373
v -0.140085 0.153151 -0.058347
v -0.138841 0.152653 -0.058412
v -0.137331 0.152653 -0.058412
v -0.136851 0.155150 -0.059582
v -0.136865 0.153874 -0.059167
v -0.135736 0.154461 -0.058914
v -0.136087 0.153151 -0.058347
v -0.134852 0.153915 -0.057875
v -0.134787 0.155159 -0.058373
v -0.142141 0.154692 -0.057152
v -0.140849 0.152679 -0.057111
v -0.139539 0.152111 -0.057462
v -0.138086 0.151916 -0.057583
v -0.141889 0.153564 -0.056565
v -0.140126 0.151859 -0.056334
v -0.141347 0.152614 -0.055867
v -0.142556 0.154678 -0.055876
v -0.138850 0.151444 -0.056348
v -0.137323 0.151444 -0.056348
v -0.136634 0.152111 -0.057462
v -0.135324 0.152679 -0.057111
v -0.134032 0.154692 -0.057152
v -0.136047 0.151859 -0.056334
v -0.134284 0.153564 -0.056565
v -0.134826 0.152614 -0.055867
v -0.133616 0.154678 -0.055876
v -0.140557 0.155914 -0.059110
v -0.139322 0.156677 -0.059582
v -0.140436 0.157366 -0.058914
v -0.138086 0.155914 -0.059812
v -0.139308 0.157953 -0.059167
v -0.138086 0.157198 -0.059633
v -0.138086 0.158385 -0.059110
v -0.141386 0.156669 -0.058373
v -0.141321 0.157913 -0.057875
v -0.140085 0.158676 -0.058347
v -0.138841 0.159174 -0.058412
v -0.137331 0.159174 -0.058412
v -0.136851 0.156677 -0.059582
v -0.136865 0.157953 -0.059167
v -0.135615 0.155914 -0.059110
v -0.135736 0.157366 -0.058914
v -0.136087 0.158676 -0.058347
v -0.134787 0.156669 -0.058373
v -0.134852 0.157913 -0.057875
v -0.142084 0.155914 -0.057583
v -0.142141 0.157135 -0.057152
v -0.140849 0.159148 -0.057111
v -0.139539 0.159716 -0.057462
v -0.138086 0.159912 -0.057583
v -0.142607 0.155914 -0.056397
v -0.141889 0.158264 -0.056565
v -0.142556 0.157149 -0.055876
v -0.140126 0.159968 -0.056334
v -0.138850 0.160384 -0.056348
v -0.137323 0.160384 -0.056348
v -0.136634 0.159716 -0.057462
v -0.135324 0.159148 -0.057111
v -0.134088 0.155914 -0.057583
v -0.134032 0.157135 -0.057152
v -0.136047 0.159968 -0.056334
v -0.134284 0.158264 -0.056565
v -0.133565 0.155914 -0.056397
v -0.133616 0.157149 -0.055876
v -0.134826 0.159213 -0.055867
v -0.140557 0.151916 -0.055113
v -0.142084 0.153443 -0.055113
v -0.139371 0.151392 -0.055113
v -0.138086 0.151214 -0.055113
v -0.136802 0.151392 -0.055113
v -0.135615 0.151916 -0.055113
v -0.134088 0.153443 -0.055113
v -0.134826 0.152614 -0.054358
v -0.133616 0.154678 -0.054349
v -0.133386 0.155914 -0.055113
v -0.138850 0.151444 -0.053877
v -0.137323 0.151444 -0.053877
v -0.136047 0.151859 -0.053891
v -0.134088 0.158385 -0.055113
v -0.135615 0.159912 -0.055113
v -0.133616 0.157149 -0.054349
v -0.133565 0.155914 -0.053828
v -0.142677 -0.155408 -0.055747
v -0.142648 -0.155411 -0.055743
v -0.142662 -0.155601 -0.055780
v -0.142635 -0.155234 -0.055710
v -0.142034 -0.158194 -0.056143
v -0.141891 -0.158373 -0.056152
v -0.143275 -0.159394 -0.050698
v -0.143860 -0.157918 -0.050527
v -0.142164 -0.157867 -0.056105
v -0.142574 -0.156842 -0.055967
v -0.142573 -0.156847 -0.055970
v -0.142588 -0.156977 -0.055769
v -0.142442 -0.157447 -0.055692
v -0.142556 -0.157149 -0.055672
v -0.143977 -0.156349 -0.050266
v -0.142750 -0.155914 -0.055376
v -0.143615 -0.154829 -0.049937
v -0.142652 -0.155191 -0.055559
v -0.142556 -0.154678 -0.055307
v -0.142345 -0.154017 -0.055447
v -0.142414 -0.154306 -0.055510
v -0.142806 -0.153497 -0.049572
v -0.142221 -0.153799 -0.055333
v -0.142006 -0.158178 -0.056135
v -0.141945 -0.158298 -0.056147
v -0.141118 -0.159336 -0.056202
v -0.141351 -0.159206 -0.055873
v -0.141324 -0.159079 -0.056188
v -0.141217 -0.159196 -0.056192
v -0.141084 -0.159298 -0.056189
v -0.140660 -0.159620 -0.056180
v -0.140655 -0.159641 -0.056132
v -0.139873 -0.160108 -0.056143
v -0.139954 -0.160058 -0.056147
v -0.139865 -0.160089 -0.056138
v -0.139604 -0.160179 -0.056113
v -0.138468 -0.160476 -0.055987
v -0.138574 -0.160449 -0.055998
v -0.138466 -0.160452 -0.055982
v -0.138140 -0.160461 -0.055932
v -0.137030 -0.160409 -0.055747
v -0.137111 -0.160413 -0.055761
v -0.137072 -0.160408 -0.055754
v -0.137033 -0.160397 -0.055746
v -0.136865 -0.160348 -0.055710
v -0.135689 -0.159912 -0.055447
v -0.135795 -0.159952 -0.055471
v -0.135737 -0.159928 -0.055457
v -0.135696 -0.159901 -0.055446
v -0.135583 -0.159829 -0.055415
v -0.135654 -0.159917 -0.055222
v -0.134568 -0.159030 -0.055113
v -0.135026 -0.159390 -0.055249
v -0.134826 -0.159213 -0.055186
v -0.134365 -0.158695 -0.055021
v -0.142274 -0.160642 -0.050762
v -0.139984 -0.160056 -0.056104
v -0.140270 -0.159949 -0.055924
v -0.140914 -0.161485 -0.050698
v -0.138600 -0.160459 -0.055944
v -0.139120 -0.160410 -0.055706
v -0.139379 -0.161888 -0.050527
v -0.137851 -0.160543 -0.055494
v -0.133827 -0.157810 -0.054778
v -0.133967 -0.158041 -0.054842
v -0.133896 -0.157882 -0.054802
v -0.133758 -0.157521 -0.054716
v -0.133770 -0.157551 -0.054598
v -0.133496 -0.156419 -0.054478
v -0.133538 -0.156593 -0.054515
v -0.133524 -0.156416 -0.054482
v -0.133511 -0.156226 -0.054446
v -0.137807 -0.161814 -0.050266
v -0.136757 -0.160407 -0.055186
v -0.136342 -0.161271 -0.049937
v -0.135643 -0.159924 -0.055113
v -0.135559 -0.159862 -0.055059
v -0.135625 -0.159913 -0.055085
v -0.135117 -0.160307 -0.049572
v -0.142276 -0.153946 -0.055423
v -0.142205 -0.153786 -0.055384
v -0.141605 -0.152797 -0.055113
v -0.141347 -0.152614 -0.055039
v -0.141808 -0.153132 -0.055204
v -0.141147 -0.152437 -0.054976
v -0.140484 -0.151915 -0.054778
v -0.140477 -0.151926 -0.054779
v -0.140590 -0.151999 -0.054810
v -0.140377 -0.151875 -0.054754
v -0.140435 -0.151900 -0.054768
v -0.139143 -0.151418 -0.054478
v -0.139140 -0.151431 -0.054480
v -0.139308 -0.151479 -0.054515
v -0.139061 -0.151414 -0.054464
v -0.139100 -0.151419 -0.054471
v -0.139048 -0.151424 -0.054347
v -0.137705 -0.151351 -0.054239
v -0.137707 -0.151375 -0.054243
v -0.138033 -0.151366 -0.054293
v -0.142155 -0.153627 -0.054999
v -0.141931 -0.153270 -0.054955
v -0.137599 -0.151379 -0.054227
v -0.137530 -0.151444 -0.053877
v -0.136299 -0.151719 -0.054082
v -0.136307 -0.151739 -0.054087
v -0.136569 -0.151648 -0.054112
v -0.136218 -0.151769 -0.054079
v -0.136221 -0.151803 -0.053889
v -0.135055 -0.152491 -0.054024
v -0.135089 -0.152529 -0.054036
v -0.135513 -0.152207 -0.054045
v -0.134848 -0.152749 -0.054037
v -0.134956 -0.152631 -0.054033
v -0.134138 -0.153633 -0.054082
v -0.134228 -0.153529 -0.054078
v -0.134282 -0.153454 -0.054073
v -0.134009 -0.153960 -0.054120
v -0.134167 -0.153649 -0.054090
v -0.134014 -0.154014 -0.053939
v -0.134332 -0.153478 -0.053723
v -0.134345 -0.158673 -0.054850
v -0.134145 -0.158349 -0.054689
v -0.134308 -0.158974 -0.049207
v -0.133731 -0.157340 -0.054231
v -0.133602 -0.156814 -0.054208
v -0.133946 -0.157454 -0.048878
v -0.133687 -0.157147 -0.054133
v -0.133571 -0.156059 -0.053890
v -0.134063 -0.155885 -0.048617
v -0.133605 -0.154997 -0.054209
v -0.133605 -0.154987 -0.054214
v -0.133594 -0.155838 -0.053782
v -0.133591 -0.155914 -0.053771
v -0.133585 -0.155966 -0.053796
v -0.133768 -0.154683 -0.053885
v -0.142058 -0.153459 -0.054916
v -0.141581 -0.152533 -0.049207
v -0.141027 -0.152331 -0.054663
v -0.140116 -0.151990 -0.048878
v -0.139862 -0.151696 -0.054317
v -0.138544 -0.151916 -0.048617
v -0.138892 -0.151457 -0.053878
v -0.138670 -0.151444 -0.053877
v -0.138829 -0.151457 -0.053843
v -0.138865 -0.151458 -0.053854
v -0.135649 -0.153162 -0.048382
v -0.136119 -0.151890 -0.053754
v -0.135895 -0.152031 -0.053728
v -0.137009 -0.152319 -0.048446
v -0.136687 -0.151651 -0.053884
v -0.137221 -0.151543 -0.053712
v -0.137402 -0.151493 -0.053749
v -0.134648 -0.154410 -0.048446
v -0.145151 -0.158993 -0.045067
v -0.144517 -0.160594 -0.045252
v -0.145278 -0.157291 -0.044784
v -0.144886 -0.155642 -0.044428
v -0.143430 -0.161947 -0.045322
v -0.144008 -0.154196 -0.044031
v -0.141955 -0.162862 -0.045252
v -0.140289 -0.163299 -0.045067
v -0.138584 -0.163219 -0.044784
v -0.136995 -0.162630 -0.044428
v -0.135666 -0.161584 -0.044031
v -0.134788 -0.160139 -0.043635
v -0.134522 -0.156787 -0.042995
v -0.134396 -0.158490 -0.043279
v -0.142679 -0.153150 -0.043635
v -0.141089 -0.152561 -0.043279
v -0.137718 -0.152918 -0.042810
v -0.139384 -0.152481 -0.042995
v -0.135157 -0.155186 -0.042810
v -0.145758 -0.161794 -0.039807
v -0.144587 -0.163253 -0.039883
v -0.146442 -0.160067 -0.039608
v -0.142996 -0.164239 -0.039807
v -0.136243 -0.153833 -0.042740
v -0.146579 -0.158232 -0.039302
v -0.146156 -0.156454 -0.038918
v -0.145209 -0.154896 -0.038491
v -0.143776 -0.153768 -0.038063
v -0.141200 -0.164710 -0.039608
v -0.139362 -0.164624 -0.039302
v -0.137648 -0.163989 -0.038918
v -0.136215 -0.162861 -0.038491
v -0.135269 -0.161303 -0.038063
v -0.134845 -0.159525 -0.037679
v -0.134982 -0.157689 -0.037374
v -0.142063 -0.153133 -0.037679
v -0.140224 -0.153047 -0.037374
v -0.138428 -0.153517 -0.037174
v -0.136838 -0.154504 -0.037099
v -0.135666 -0.155963 -0.037174
v -0.146999 -0.162993 -0.034362
v -0.144037 -0.165617 -0.034362
v -0.145743 -0.164559 -0.034443
v -0.147733 -0.161142 -0.034148
v -0.147880 -0.159173 -0.033820
v -0.147426 -0.157267 -0.033408
v -0.146411 -0.155595 -0.032950
v -0.142111 -0.166121 -0.034148
v -0.140139 -0.166029 -0.033820
v -0.138301 -0.165348 -0.033408
v -0.144874 -0.154385 -0.032491
v -0.143036 -0.153704 -0.032080
v -0.136764 -0.164138 -0.032950
v -0.135749 -0.162467 -0.032491
v -0.135442 -0.158591 -0.031752
v -0.136176 -0.156740 -0.031538
v -0.135295 -0.160560 -0.032080
v -0.137432 -0.155175 -0.031457
v -0.141064 -0.153612 -0.031752
v -0.139138 -0.154117 -0.031538
v -0.143021 -0.167533 -0.028688
v -0.146119 -0.168371 -0.023472
v -0.145078 -0.166994 -0.028917
v -0.140916 -0.167434 -0.028338
v -0.143932 -0.168944 -0.023229
v -0.149024 -0.162217 -0.028688
v -0.149181 -0.160115 -0.028338
v -0.148696 -0.158079 -0.027899
v -0.146899 -0.165864 -0.029003
v -0.148240 -0.164193 -0.028917
v -0.147612 -0.156294 -0.027409
v -0.145971 -0.155003 -0.026920
v -0.144009 -0.154276 -0.026480
v -0.138954 -0.166707 -0.027899
v -0.137313 -0.165416 -0.027409
v -0.136229 -0.163631 -0.026920
v -0.135745 -0.161595 -0.026480
v -0.141904 -0.154177 -0.026130
v -0.150481 -0.161056 -0.022856
v -0.149482 -0.165393 -0.023472
v -0.150315 -0.163291 -0.023229
v -0.148055 -0.167170 -0.023563
v -0.135901 -0.159493 -0.026130
v -0.136685 -0.157517 -0.025901
v -0.138026 -0.155846 -0.025815
v -0.139847 -0.154716 -0.025901
v -0.141694 -0.168839 -0.022856
v -0.139607 -0.168066 -0.022389
v -0.149212 -0.168475 -0.018124
v -0.147160 -0.169748 -0.018027
v -0.144843 -0.170355 -0.017769
v -0.142471 -0.170244 -0.017374
v -0.137862 -0.166693 -0.021869
v -0.140260 -0.169425 -0.016879
v -0.149966 -0.158891 -0.022389
v -0.148814 -0.156994 -0.021869
v -0.147069 -0.155620 -0.021348
v -0.144982 -0.154847 -0.020881
v -0.142744 -0.154743 -0.020508
v -0.138621 -0.156517 -0.020174
v -0.136710 -0.164795 -0.021348
v -0.136195 -0.162630 -0.020881
v -0.136361 -0.160395 -0.020508
v -0.137194 -0.158294 -0.020265
v -0.140557 -0.155316 -0.020265
v -0.150723 -0.166592 -0.018027
v -0.151606 -0.164366 -0.017769
v -0.151782 -0.161998 -0.017374
v -0.151236 -0.159704 -0.016879
v -0.150015 -0.157693 -0.016328
v -0.144213 -0.162832 -0.016328
v -0.138412 -0.167970 -0.016328
v -0.148167 -0.156238 -0.015776
v -0.145956 -0.155419 -0.015281
v -0.143584 -0.155308 -0.014887
v -0.141266 -0.155915 -0.014629
v -0.137704 -0.159071 -0.014629
v -0.137190 -0.165959 -0.015776
v -0.136644 -0.163665 -0.015281
v -0.136821 -0.161298 -0.014887
v -0.139215 -0.157188 -0.014532
v -0.140436 -0.157366 -0.058914
v -0.140557 -0.155914 -0.059110
v -0.139322 -0.156677 -0.059582
v -0.139322 -0.155150 -0.059582
v -0.140436 -0.154461 -0.058914
v -0.138086 -0.157198 -0.059633
v -0.139308 -0.157953 -0.059167
v -0.138086 -0.155914 -0.059812
v -0.138086 -0.154629 -0.059633
v -0.138086 -0.158385 -0.059110
v -0.141386 -0.156669 -0.058373
v -0.141386 -0.155159 -0.058373
v -0.141321 -0.157913 -0.057875
v -0.140085 -0.158676 -0.058347
v -0.138841 -0.159174 -0.058412
v -0.137331 -0.159174 -0.058412
v -0.136851 -0.156677 -0.059582
v -0.136865 -0.157953 -0.059167
v -0.136851 -0.155150 -0.059582
v -0.135615 -0.155914 -0.059110
v -0.135736 -0.157366 -0.058914
v -0.135736 -0.154461 -0.058914
v -0.136087 -0.158676 -0.058347
v -0.134787 -0.156669 -0.058373
v -0.134787 -0.155159 -0.058373
v -0.134852 -0.157913 -0.057875
v -0.140849 -0.159148 -0.057111
v -0.139539 -0.159716 -0.057462
v -0.142141 -0.157135 -0.057152
v -0.142084 -0.155914 -0.057583
v -0.142141 -0.154692 -0.057152
v -0.138086 -0.159912 -0.057583
v -0.141889 -0.158264 -0.056565
v -0.140126 -0.159968 -0.056334
v -0.142607 -0.155914 -0.056397
v -0.142556 -0.157149 -0.055876
v -0.138850 -0.160384 -0.056348
v -0.137323 -0.160384 -0.056348
v -0.136634 -0.159716 -0.057462
v -0.135324 -0.159148 -0.057111
v -0.134032 -0.157135 -0.057152
v -0.134088 -0.155914 -0.057583
v -0.134032 -0.154692 -0.057152
v -0.136047 -0.159968 -0.056334
v -0.134284 -0.158264 -0.056565
v -0.134826 -0.159213 -0.055867
v -0.133565 -0.155914 -0.056397
v -0.133616 -0.157149 -0.055876
v -0.139308 -0.153874 -0.059167
v -0.138086 -0.153443 -0.059110
v -0.141321 -0.153915 -0.057875
v -0.140085 -0.153151 -0.058347
v -0.138841 -0.152653 -0.058412
v -0.137331 -0.152653 -0.058412
v -0.136865 -0.153874 -0.059167
v -0.136087 -0.153151 -0.058347
v -0.134852 -0.153915 -0.057875
v -0.140849 -0.152679 -0.057111
v -0.139539 -0.152111 -0.057462
v -0.138086 -0.151916 -0.057583
v -0.141889 -0.153564 -0.056565
v -0.140126 -0.151859 -0.056334
v -0.142556 -0.154678 -0.055876
v -0.141347 -0.152614 -0.055867
v -0.138850 -0.151444 -0.056348
v -0.137323 -0.151444 -0.056348
v -0.136634 -0.152111 -0.057462
v -0.135324 -0.152679 -0.057111
v -0.136047 -0.151859 -0.056334
v -0.134284 -0.153564 -0.056565
v -0.134826 -0.152614 -0.055867
v -0.133616 -0.154678 -0.055876
v -0.134088 -0.158385 -0.055113
v -0.133386 -0.155914 -0.055113
v -0.135615 -0.159912 -0.055113
v -0.133616 -0.157149 -0.054349
v -0.133565 -0.155914 -0.053828
v -0.133616 -0.154678 -0.054349
v -0.142084 -0.153443 -0.055113
v -0.140557 -0.151916 -0.055113
v -0.139371 -0.151392 -0.055113
v -0.138086 -0.151214 -0.055113
v -0.136802 -0.151392 -0.055113
v -0.135615 -0.151916 -0.055113
v -0.134088 -0.153443 -0.055113
v -0.134826 -0.152614 -0.054358
v -0.138850 -0.151444 -0.053877
v -0.136047 -0.151859 -0.053891
v -0.137323 -0.151444 -0.053877
v 0.129811 -0.176162 -0.054778
v 0.129796 -0.175997 -0.054471
v 0.129773 -0.175938 -0.054731
v 0.129577 -0.174751 -0.054478
v 0.129597 -0.174750 -0.054481
v 0.129614 -0.174974 -0.054525
v 0.129591 -0.174655 -0.054462
v 0.129663 -0.174565 -0.053876
v 0.132825 -0.178977 -0.055747
v 0.132996 -0.178997 -0.055776
v 0.133076 -0.179070 -0.055515
v 0.134255 -0.179144 -0.055987
v 0.134255 -0.179104 -0.055979
v 0.134498 -0.179098 -0.056013
v 0.133978 -0.179111 -0.055940
v 0.133665 -0.180643 -0.049149
v 0.132241 -0.180000 -0.048820
v 0.132630 -0.178915 -0.055561
v 0.133881 -0.179172 -0.055615
v 0.135228 -0.180826 -0.049410
v 0.135683 -0.178874 -0.056143
v 0.135429 -0.178922 -0.056115
v 0.134620 -0.179136 -0.055806
v 0.135210 -0.179060 -0.055743
v 0.135892 -0.178764 -0.056152
v 0.136788 -0.180531 -0.049581
v 0.136023 -0.178748 -0.055999
v 0.136977 -0.178190 -0.056202
v 0.136620 -0.178379 -0.056185
v 0.136389 -0.178599 -0.055885
v 0.132638 -0.178892 -0.055704
v 0.132833 -0.178949 -0.055743
v 0.131522 -0.178388 -0.055447
v 0.131535 -0.178369 -0.055445
v 0.131668 -0.178454 -0.055481
v 0.131417 -0.178293 -0.055414
v 0.131421 -0.178299 -0.055399
v 0.131654 -0.178505 -0.055176
v 0.130465 -0.177430 -0.055113
v 0.130357 -0.177220 -0.055057
v 0.130869 -0.177797 -0.055241
v 0.135671 -0.178839 -0.056135
v 0.136620 -0.178379 -0.056185
v 0.136938 -0.178139 -0.056186
v 0.137224 -0.177924 -0.056187
v 0.137294 -0.177963 -0.055928
v 0.137971 -0.177115 -0.056143
v 0.137797 -0.177304 -0.056153
v 0.137946 -0.177098 -0.056136
v 0.138042 -0.176968 -0.056125
v 0.138805 -0.174380 -0.055747
v 0.138791 -0.174475 -0.055763
v 0.138784 -0.174380 -0.055745
v 0.138768 -0.174156 -0.055700
v 0.138571 -0.172969 -0.055447
v 0.138608 -0.173193 -0.055495
v 0.138385 -0.172608 -0.055352
v 0.137917 -0.171701 -0.055113
v 0.138025 -0.171910 -0.055168
v 0.137512 -0.171334 -0.054985
v 0.138076 -0.171968 -0.054997
v 0.129997 -0.176523 -0.054873
v 0.130002 -0.176536 -0.054803
v 0.130411 -0.172016 -0.054082
v 0.130436 -0.172033 -0.054089
v 0.130340 -0.172163 -0.054100
v 0.130585 -0.171827 -0.054072
v 0.130595 -0.171853 -0.053927
v 0.131404 -0.170941 -0.054024
v 0.131444 -0.170992 -0.054039
v 0.131158 -0.171207 -0.054038
v 0.131762 -0.170752 -0.054040
v 0.132699 -0.170257 -0.054082
v 0.132711 -0.170292 -0.054091
v 0.132490 -0.170367 -0.054073
v 0.132501 -0.170397 -0.053887
v 0.132953 -0.170209 -0.054110
v 0.132999 -0.170235 -0.053882
v 0.134127 -0.169987 -0.054239
v 0.134127 -0.170027 -0.054246
v 0.133884 -0.170033 -0.054212
v 0.134404 -0.170020 -0.054285
v 0.130373 -0.172206 -0.053779
v 0.138202 -0.179784 -0.049645
v 0.137558 -0.177746 -0.055759
v 0.137375 -0.177933 -0.055794
v 0.137452 -0.177865 -0.055756
v 0.139288 -0.178609 -0.049581
v 0.138057 -0.176955 -0.056093
v 0.138578 -0.176018 -0.055742
v 0.138623 -0.175901 -0.055766
v 0.139974 -0.177177 -0.049410
v 0.138643 -0.175849 -0.055776
v 0.138661 -0.175801 -0.055720
v 0.138768 -0.175224 -0.055520
v 0.140200 -0.175620 -0.049149
v 0.138661 -0.173330 -0.055353
v 0.139944 -0.174078 -0.048820
v 0.135557 -0.170154 -0.054478
v 0.135744 -0.170238 -0.054521
v 0.135549 -0.170182 -0.054482
v 0.135386 -0.170134 -0.054449
v 0.136860 -0.170743 -0.054778
v 0.136847 -0.170762 -0.054780
v 0.136714 -0.170677 -0.054744
v 0.136965 -0.170837 -0.054811
v 0.138828 -0.174565 -0.055562
v 0.138798 -0.174064 -0.055422
v 0.130116 -0.176026 -0.047761
v 0.131696 -0.178542 -0.055089
v 0.131735 -0.178565 -0.055069
v 0.131973 -0.178675 -0.055113
v 0.131086 -0.178953 -0.048455
v 0.130930 -0.177865 -0.055166
v 0.130371 -0.177568 -0.048090
v 0.130351 -0.177214 -0.054951
v 0.130241 -0.177007 -0.054758
v 0.129791 -0.175918 -0.054277
v 0.129704 -0.175398 -0.054179
v 0.129775 -0.175799 -0.054185
v 0.130341 -0.174469 -0.047500
v 0.129671 -0.174526 -0.053845
v 0.129793 -0.173346 -0.054121
v 0.129803 -0.173333 -0.054098
v 0.129809 -0.173320 -0.054093
v 0.131027 -0.173037 -0.047329
v 0.130367 -0.172252 -0.053683
v 0.132113 -0.171862 -0.047265
v 0.131116 -0.171290 -0.053895
v 0.135088 -0.170820 -0.047500
v 0.133528 -0.171115 -0.047329
v 0.131988 -0.170696 -0.053715
v 0.132267 -0.170560 -0.053670
v 0.133810 -0.170095 -0.053877
v 0.133309 -0.170211 -0.053685
v 0.133547 -0.170170 -0.053683
v 0.138074 -0.171646 -0.048090
v 0.138281 -0.172335 -0.054964
v 0.139229 -0.172693 -0.048455
v 0.138163 -0.172110 -0.054921
v 0.137452 -0.171266 -0.054492
v 0.137170 -0.171016 -0.054627
v 0.136650 -0.171003 -0.047761
v 0.134652 -0.170095 -0.053877
v 0.136309 -0.170521 -0.054115
v 0.136024 -0.170383 -0.054225
v 0.135165 -0.170164 -0.053880
v 0.135015 -0.170154 -0.053779
v 0.134885 -0.170138 -0.053765
v 0.134505 -0.182310 -0.042550
v 0.132960 -0.181612 -0.042194
v 0.137893 -0.182188 -0.043018
v 0.139428 -0.181378 -0.043088
v 0.136201 -0.182508 -0.042833
v 0.140605 -0.180103 -0.043018
v 0.141350 -0.178550 -0.042833
v 0.141594 -0.176860 -0.042550
v 0.131707 -0.180476 -0.041797
v 0.130932 -0.178973 -0.041401
v 0.130655 -0.177301 -0.041045
v 0.130899 -0.175612 -0.040761
v 0.131644 -0.174059 -0.040576
v 0.132821 -0.172784 -0.040506
v 0.134356 -0.171973 -0.040576
v 0.139289 -0.172549 -0.041401
v 0.137744 -0.171852 -0.041045
v 0.136048 -0.171654 -0.040761
v 0.141317 -0.175188 -0.042194
v 0.140542 -0.173685 -0.041797
v 0.133680 -0.183224 -0.035567
v 0.138998 -0.183845 -0.036456
v 0.135345 -0.183976 -0.035951
v 0.137173 -0.184190 -0.036257
v 0.140653 -0.182971 -0.036532
v 0.141923 -0.181597 -0.036456
v 0.142725 -0.179922 -0.036257
v 0.142989 -0.178101 -0.035951
v 0.131493 -0.180379 -0.034712
v 0.132329 -0.181999 -0.035140
v 0.131194 -0.178576 -0.034328
v 0.131458 -0.176754 -0.034023
v 0.132260 -0.175080 -0.033823
v 0.133530 -0.173705 -0.033748
v 0.135185 -0.172832 -0.033823
v 0.137009 -0.172487 -0.034023
v 0.138837 -0.172700 -0.034328
v 0.140503 -0.173453 -0.034712
v 0.142690 -0.176298 -0.035567
v 0.141854 -0.174677 -0.035140
v 0.134399 -0.184836 -0.028940
v 0.138146 -0.185872 -0.029680
v 0.136185 -0.185643 -0.029352
v 0.140103 -0.185502 -0.029894
v 0.141878 -0.184565 -0.029975
v 0.143240 -0.183091 -0.029894
v 0.144100 -0.181295 -0.029680
v 0.144383 -0.179341 -0.029352
v 0.132053 -0.181785 -0.028023
v 0.132950 -0.183523 -0.028482
v 0.131733 -0.179851 -0.027612
v 0.132016 -0.177897 -0.027284
v 0.132876 -0.176101 -0.027070
v 0.137970 -0.173320 -0.027284
v 0.139931 -0.173549 -0.027612
v 0.134238 -0.174627 -0.026989
v 0.136013 -0.173690 -0.027070
v 0.144063 -0.177407 -0.028940
v 0.143166 -0.175669 -0.028482
v 0.141717 -0.174356 -0.028023
v 0.139119 -0.187554 -0.023103
v 0.135118 -0.186448 -0.022314
v 0.137025 -0.187310 -0.022753
v 0.141208 -0.187159 -0.023332
v 0.143103 -0.186159 -0.023418
v 0.144557 -0.184585 -0.023332
v 0.145476 -0.182667 -0.023103
v 0.145778 -0.180582 -0.022753
v 0.133571 -0.185046 -0.021824
v 0.132614 -0.183190 -0.021335
v 0.132272 -0.181126 -0.020895
v 0.132574 -0.179040 -0.020545
v 0.138931 -0.174153 -0.020545
v 0.133493 -0.177123 -0.020316
v 0.134947 -0.175549 -0.020230
v 0.136842 -0.174548 -0.020316
v 0.144478 -0.176661 -0.021824
v 0.142931 -0.175259 -0.021335
v 0.141024 -0.174398 -0.020895
v 0.145436 -0.178517 -0.022314
v 0.135838 -0.188060 -0.015687
v 0.137866 -0.188976 -0.016154
v 0.140091 -0.189236 -0.016527
v 0.142313 -0.188816 -0.016770
v 0.144328 -0.187752 -0.016861
v 0.145874 -0.186079 -0.016770
v 0.146851 -0.184040 -0.016527
v 0.147172 -0.181822 -0.016154
v 0.134193 -0.186569 -0.015167
v 0.133175 -0.184596 -0.014646
v 0.132811 -0.182401 -0.014179
v 0.133132 -0.180183 -0.013807
v 0.134109 -0.178144 -0.013563
v 0.135655 -0.176470 -0.013472
v 0.137670 -0.175406 -0.013563
v 0.139892 -0.174986 -0.013807
v 0.146809 -0.179627 -0.015687
v 0.142118 -0.175246 -0.014179
v 0.144146 -0.176162 -0.014646
v 0.145791 -0.177654 -0.015167
v 0.136557 -0.189672 -0.009060
v 0.138706 -0.190643 -0.009556
v 0.141064 -0.190918 -0.009950
v 0.143418 -0.190473 -0.010208
v 0.145553 -0.189346 -0.010305
v 0.147191 -0.187573 -0.010208
v 0.148227 -0.185412 -0.009950
v 0.148567 -0.183062 -0.009556
v 0.133735 -0.186002 -0.007957
v 0.133350 -0.183675 -0.007462
v 0.134814 -0.188092 -0.008509
v 0.133690 -0.181326 -0.007068
v 0.134725 -0.179165 -0.006810
v 0.136364 -0.177392 -0.006713
v 0.138499 -0.176265 -0.006810
v 0.148181 -0.180736 -0.009060
v 0.147103 -0.178646 -0.008509
v 0.143211 -0.176095 -0.007462
v 0.145360 -0.177066 -0.007957
v 0.140853 -0.175820 -0.007068
v 0.140958 -0.183369 -0.008509
v 0.129670 -0.174565 -0.056397
v 0.129721 -0.175801 -0.055876
v 0.129491 -0.174565 -0.055113
v 0.129721 -0.173330 -0.055876
v 0.129721 -0.175801 -0.054349
v 0.129721 -0.173330 -0.054349
v 0.134191 -0.175850 -0.059633
v 0.134191 -0.177036 -0.059110
v 0.132969 -0.176605 -0.059167
v 0.132955 -0.175329 -0.059582
v 0.131720 -0.174565 -0.059110
v 0.132955 -0.173802 -0.059582
v 0.134191 -0.174565 -0.059812
v 0.134191 -0.173281 -0.059633
v 0.132969 -0.172526 -0.059167
v 0.131841 -0.176018 -0.058914
v 0.131841 -0.173113 -0.058914
v 0.132192 -0.177328 -0.058347
v 0.130956 -0.176564 -0.057875
v 0.130891 -0.175320 -0.058373
v 0.130891 -0.173810 -0.058373
v 0.130956 -0.172566 -0.057875
v 0.133436 -0.177826 -0.058412
v 0.134946 -0.177826 -0.058412
v 0.134191 -0.172094 -0.059110
v 0.132192 -0.171803 -0.058347
v 0.133436 -0.171305 -0.058412
v 0.134946 -0.171305 -0.058412
v 0.135412 -0.176605 -0.059167
v 0.135426 -0.175329 -0.059582
v 0.135426 -0.173802 -0.059582
v 0.135412 -0.172526 -0.059167
v 0.136662 -0.174565 -0.059110
v 0.136541 -0.176018 -0.058914
v 0.136541 -0.173113 -0.058914
v 0.136190 -0.177328 -0.058347
v 0.137425 -0.176564 -0.057875
v 0.137491 -0.175320 -0.058373
v 0.137491 -0.173810 -0.058373
v 0.137425 -0.172566 -0.057875
v 0.136190 -0.171803 -0.058347
v 0.131428 -0.177800 -0.057111
v 0.132739 -0.178368 -0.057462
v 0.130193 -0.174565 -0.057583
v 0.130136 -0.175787 -0.057152
v 0.130136 -0.173344 -0.057152
v 0.134191 -0.178563 -0.057583
v 0.130389 -0.176915 -0.056565
v 0.132152 -0.178620 -0.056334
v 0.130930 -0.177865 -0.055867
v 0.133427 -0.179035 -0.056348
v 0.134954 -0.179035 -0.056348
v 0.131428 -0.171331 -0.057111
v 0.132739 -0.170763 -0.057462
v 0.134191 -0.170567 -0.057583
v 0.130389 -0.172215 -0.056565
v 0.132152 -0.170511 -0.056334
v 0.130930 -0.171266 -0.055867
v 0.133427 -0.170095 -0.056348
v 0.134954 -0.170095 -0.056348
v 0.135643 -0.178368 -0.057462
v 0.136954 -0.177800 -0.057111
v 0.138189 -0.174565 -0.057583
v 0.138245 -0.175787 -0.057152
v 0.138245 -0.173344 -0.057152
v 0.136230 -0.178620 -0.056334
v 0.137993 -0.176915 -0.056565
v 0.137452 -0.177865 -0.055867
v 0.138661 -0.175801 -0.055876
v 0.138712 -0.174565 -0.056397
v 0.135643 -0.170763 -0.057462
v 0.136954 -0.171331 -0.057111
v 0.136230 -0.170511 -0.056334
v 0.137993 -0.172215 -0.056565
v 0.137452 -0.171266 -0.055867
v 0.138661 -0.173330 -0.055876
v 0.130193 -0.177036 -0.055113
v 0.131720 -0.178563 -0.055113
v 0.130193 -0.172094 -0.055113
v 0.131720 -0.170567 -0.055113
v 0.132907 -0.170044 -0.055113
v 0.134191 -0.169865 -0.055113
v 0.130930 -0.171266 -0.054358
v 0.135475 -0.170044 -0.055113
v 0.136662 -0.170567 -0.055113
v 0.138189 -0.172094 -0.055113
v 0.132152 -0.170511 -0.053891
v 0.133427 -0.170095 -0.053877
v 0.134954 -0.170095 -0.053877
f 1 2 3
f 1 3 4
f 5 6 7
f 8 9 10
f 8 11 9
f 12 13 14
f 12 14 15
f 12 15 16
f 12 17 13
f 18 19 20
f 21 22 23
f 24 25 26
f 24 26 27
f 28 29 30
f 28 31 29
f 32 33 34
f 35 36 37
f 35 37 38
f 39 40 41
f 39 41 42
f 32 43 33
f 32 44 43
f 32 45 44
f 46 47 48
f 46 49 47
f 46 50 49
f 51 52 53
f 51 53 54
f 55 56 57
f 55 57 58
f 59 60 61
f 59 62 60
f 59 61 63
f 59 63 64
f 46 65 50
f 5 66 6
f 5 67 66
f 12 16 68
f 69 70 71
f 69 72 70
f 73 74 75
f 73 75 76
f 32 34 77
f 35 78 36
f 21 23 78
f 78 23 79
f 78 80 36
f 78 79 80
f 77 34 81
f 32 82 45
f 82 83 45
f 39 84 40
f 84 85 40
f 84 86 85
f 84 87 86
f 84 88 87
f 84 89 88
f 39 42 82
f 82 42 90
f 82 91 83
f 82 90 91
f 8 92 11
f 93 94 95
f 93 95 96
f 93 96 97
f 97 96 98
f 8 10 99
f 99 10 100
f 12 99 17
f 99 100 101
f 8 97 92
f 97 98 92
f 93 102 94
f 102 103 94
f 102 104 103
f 28 30 102
f 102 30 104
f 28 77 31
f 77 105 31
f 77 81 105
f 35 38 106
f 106 38 107
f 106 107 108
f 106 108 89
f 1 4 109
f 109 4 110
f 46 111 65
f 46 48 112
f 111 113 65
f 112 48 114
f 51 54 115
f 115 54 116
f 115 116 117
f 51 112 52
f 112 114 52
f 59 115 62
f 59 64 118
f 115 117 62
f 118 64 119
f 55 118 56
f 118 120 56
f 118 121 120
f 118 119 121
f 1 122 2
f 18 20 123
f 123 20 124
f 68 125 19
f 68 16 125
f 18 68 19
f 5 123 67
f 5 7 122
f 123 124 126
f 123 126 67
f 122 127 2
f 111 128 129
f 111 130 128
f 111 129 113
f 109 131 130
f 109 110 131
f 122 7 132
f 122 133 127
f 122 132 133
f 73 134 74
f 21 135 22
f 24 27 135
f 135 27 136
f 135 136 137
f 135 137 22
f 73 76 138
f 138 76 139
f 138 140 25
f 138 139 140
f 24 138 25
f 69 141 72
f 55 58 141
f 141 142 72
f 69 71 134
f 134 71 143
f 134 144 74
f 134 143 144
f 141 58 145
f 141 145 146
f 141 146 147
f 141 147 142
f 32 77 82
f 39 82 84
f 18 123 68
f 5 122 123
f 1 109 122
f 69 134 141
f 24 135 138
f 73 138 134
f 99 148 17
f 99 149 148
f 99 101 149
f 93 97 102
f 28 102 77
f 12 68 99
f 8 99 97
f 35 106 78
f 21 78 135
f 84 106 89
f 51 115 112
f 59 118 115
f 55 141 118
f 46 112 111
f 109 130 111
f 99 68 150
f 102 151 77
f 99 152 97
f 97 153 102
f 106 154 78
f 84 82 155
f 84 156 106
f 77 157 82
f 115 158 112
f 115 118 159
f 118 141 160
f 122 109 161
f 109 111 162
f 111 112 163
f 138 135 164
f 134 165 141
f 134 138 166
f 109 162 161
f 138 164 166
f 123 167 68
f 122 168 123
f 97 152 153
f 102 153 151
f 123 168 167
f 68 167 150
f 122 161 168
f 99 150 152
f 78 169 135
f 84 155 156
f 135 169 164
f 106 156 154
f 78 154 169
f 77 151 157
f 82 157 155
f 118 160 159
f 115 159 158
f 111 163 162
f 112 158 163
f 141 165 160
f 134 166 165
f 150 167 170
f 152 171 153
f 152 150 172
f 155 173 156
f 156 174 154
f 151 175 157
f 153 176 151
f 155 157 177
f 159 160 178
f 163 158 179
f 163 180 162
f 161 162 181
f 159 182 158
f 165 183 160
f 166 164 184
f 165 166 185
f 162 180 181
f 161 186 168
f 168 187 167
f 150 170 172
f 152 172 171
f 168 186 187
f 167 187 170
f 161 181 186
f 154 188 169
f 164 169 189
f 155 177 173
f 164 189 184
f 154 174 188
f 156 173 174
f 169 188 189
f 153 171 176
f 151 176 175
f 157 175 177
f 160 183 178
f 158 182 179
f 163 179 180
f 159 178 182
f 165 185 183
f 166 184 185
f 172 190 171
f 187 191 170
f 172 170 192
f 173 193 174
f 171 194 176
f 175 195 177
f 176 196 175
f 173 177 197
f 179 182 198
f 180 179 199
f 183 185 200
f 184 201 185
f 182 178 202
f 178 183 203
f 181 204 186
f 187 186 205
f 181 180 206
f 170 191 192
f 172 192 190
f 186 204 205
f 180 199 206
f 181 206 204
f 187 205 191
f 189 188 207
f 174 208 188
f 189 209 184
f 173 197 193
f 174 193 208
f 189 207 209
f 188 208 207
f 171 190 194
f 177 195 197
f 176 194 196
f 175 196 195
f 179 198 199
f 178 203 202
f 182 202 198
f 183 200 203
f 184 209 201
f 185 201 200
f 205 210 191
f 191 211 192
f 193 197 212
f 194 213 196
f 192 214 190
f 194 190 215
f 196 216 195
f 195 217 197
f 198 202 218
f 201 209 219
f 203 220 202
f 203 200 221
f 200 201 222
f 205 204 223
f 204 206 224
f 206 199 225
f 198 226 199
f 191 210 211
f 206 225 224
f 204 224 223
f 205 223 210
f 208 227 207
f 209 207 228
f 208 193 229
f 208 229 227
f 207 227 228
f 193 212 229
f 190 214 215
f 192 211 214
f 194 215 213
f 195 216 217
f 196 213 216
f 197 217 212
f 203 221 220
f 202 220 218
f 200 222 221
f 201 219 222
f 198 218 226
f 199 226 225
f 223 230 210
f 211 210 231
f 209 228 219
f 211 232 214
f 214 233 215
f 213 234 216
f 216 235 217
f 212 217 236
f 215 237 213
f 220 238 218
f 220 221 239
f 221 222 240
f 222 219 241
f 225 242 224
f 226 218 243
f 226 244 225
f 223 224 245
f 210 230 231
f 225 244 242
f 223 245 230
f 224 242 245
f 227 229 246
f 219 228 247
f 228 227 248
f 212 249 229
f 227 246 248
f 212 236 249
f 229 249 246
f 211 231 232
f 214 232 233
f 213 237 234
f 216 234 235
f 215 233 237
f 217 235 236
f 220 239 238
f 219 247 241
f 222 241 240
f 221 240 239
f 218 238 243
f 226 243 244
f 230 245 250
f 228 248 247
f 230 251 231
f 232 231 252
f 235 253 236
f 235 234 254
f 233 255 237
f 232 256 233
f 234 237 257
f 239 240 258
f 240 241 259
f 241 247 260
f 244 243 261
f 238 262 243
f 244 263 242
f 242 264 245
f 239 265 238
f 244 261 263
f 242 263 264
f 245 264 250
f 246 266 248
f 249 267 246
f 249 236 268
f 247 248 269
f 249 268 267
f 231 251 252
f 230 250 251
f 232 252 256
f 234 257 254
f 233 256 255
f 237 255 257
f 235 254 253
f 236 253 268
f 240 259 258
f 241 260 259
f 238 265 262
f 243 262 261
f 239 258 265
f 264 270 250
f 264 263 270
f 262 270 261
f 265 270 262
f 265 258 270
f 259 270 258
f 259 260 270
f 263 261 270
f 247 269 260
f 248 266 269
f 246 267 266
f 266 267 270
f 269 266 270
f 260 269 270
f 251 250 270
f 252 270 256
f 251 270 252
f 257 270 254
f 268 253 270
f 270 253 254
f 256 270 255
f 255 270 257
f 268 270 267
f 271 272 273
f 271 273 274
f 272 275 273
f 274 273 276
f 274 276 6
f 273 275 131
f 273 4 3
f 273 3 2
f 273 2 276
f 273 110 4
f 276 7 6
f 275 129 128
f 130 275 128
f 275 130 131
f 273 131 110
f 276 2 127
f 276 132 7
f 276 133 132
f 276 127 133
f 277 278 279
f 280 281 282
f 279 281 280
f 279 283 281
f 279 278 283
f 278 284 283
f 285 286 287
f 277 285 288
f 277 279 285
f 288 285 287
f 288 287 289
f 289 287 290
f 285 279 280
f 285 280 286
f 287 286 291
f 287 291 290
f 289 290 292
f 286 280 293
f 286 294 291
f 286 293 294
f 280 282 293
f 291 294 295
f 291 295 296
f 290 291 296
f 290 296 297
f 290 297 292
f 292 297 298
f 277 299 278
f 278 299 284
f 299 300 284
f 299 301 300
f 301 302 300
f 277 288 303
f 277 303 299
f 288 289 304
f 288 304 303
f 289 305 304
f 303 304 306
f 303 301 299
f 303 306 301
f 304 305 307
f 304 307 306
f 289 292 305
f 292 298 305
f 305 298 308
f 305 308 307
f 307 308 309
f 306 310 301
f 306 307 311
f 306 311 310
f 301 310 302
f 307 309 311
f 281 312 282
f 281 313 312
f 281 283 313
f 283 284 314
f 283 314 313
f 282 312 315
f 282 315 316
f 313 317 312
f 316 315 272
f 312 318 315
f 314 319 313
f 313 319 317
f 314 320 319
f 293 282 316
f 293 321 294
f 294 322 295
f 293 316 321
f 294 321 322
f 296 295 323
f 296 323 324
f 296 324 297
f 297 325 298
f 297 324 325
f 321 316 271
f 321 271 322
f 295 322 326
f 295 326 323
f 324 323 327
f 322 274 326
f 323 326 328
f 325 324 329
f 324 327 329
f 325 329 330
f 284 300 331
f 284 331 314
f 300 332 331
f 300 302 332
f 314 331 320
f 331 332 333
f 331 333 320
f 302 334 332
f 302 335 334
f 332 334 336
f 335 337 334
f 298 338 308
f 298 325 338
f 308 338 339
f 310 335 302
f 310 311 340
f 311 309 341
f 310 340 335
f 311 341 340
f 308 339 309
f 325 330 338
f 338 342 339
f 338 330 342
f 339 342 33
f 340 343 335
f 340 341 343
f 309 344 341
f 309 339 344
f 339 33 43
f 339 43 44
f 339 345 344
f 341 344 346
f 312 317 318
f 315 347 272
f 315 318 347
f 317 348 318
f 319 320 349
f 317 319 350
f 272 347 275
f 318 351 347
f 318 348 351
f 319 349 350
f 317 350 348
f 316 272 271
f 322 271 274
f 323 328 327
f 326 274 352
f 326 352 328
f 327 328 15
f 327 15 14
f 327 14 13
f 327 9 329
f 327 10 9
f 327 100 10
f 327 353 100
f 274 66 352
f 328 352 20
f 328 19 125
f 328 20 19
f 328 16 15
f 328 125 16
f 327 13 353
f 353 13 17
f 353 101 100
f 274 6 66
f 352 66 67
f 352 126 124
f 352 124 20
f 352 67 126
f 353 17 148
f 353 149 101
f 353 148 149
f 320 333 354
f 333 336 355
f 332 336 333
f 334 356 336
f 334 337 356
f 320 354 349
f 333 355 354
f 355 76 75
f 355 75 74
f 336 26 25
f 336 356 26
f 337 22 356
f 336 140 355
f 336 25 140
f 355 139 76
f 356 27 26
f 356 22 137
f 356 136 27
f 356 137 136
f 330 30 29
f 330 29 342
f 342 29 31
f 342 31 105
f 342 34 33
f 342 81 34
f 342 105 81
f 335 343 337
f 341 346 343
f 343 36 337
f 343 38 37
f 343 37 36
f 337 36 80
f 343 107 38
f 343 346 108
f 343 108 107
f 346 88 89
f 346 86 87
f 346 87 88
f 346 89 108
f 344 41 40
f 344 42 41
f 344 345 42
f 339 44 345
f 344 85 346
f 344 40 85
f 345 44 45
f 345 90 42
f 345 45 83
f 345 91 90
f 345 83 91
f 346 85 86
f 337 23 22
f 337 79 23
f 337 80 79
f 347 49 50
f 347 351 47
f 347 47 49
f 348 357 351
f 351 114 48
f 347 50 65
f 347 65 275
f 275 113 129
f 351 48 47
f 351 53 52
f 351 54 53
f 351 52 114
f 351 357 54
f 350 349 358
f 349 57 56
f 349 58 57
f 349 56 358
f 348 350 357
f 350 61 60
f 350 63 61
f 350 60 357
f 350 358 63
f 275 65 113
f 357 116 54
f 357 117 116
f 357 60 62
f 357 62 117
f 358 64 63
f 358 119 64
f 358 56 120
f 358 120 121
f 358 121 119
f 349 354 359
f 349 359 58
f 354 71 70
f 354 70 72
f 354 72 359
f 354 355 143
f 355 74 144
f 354 143 71
f 355 144 143
f 359 145 58
f 359 72 142
f 355 140 139
f 359 146 145
f 359 142 147
f 359 147 146
f 329 96 95
f 329 95 330
f 329 9 11
f 329 11 92
f 329 98 96
f 329 92 98
f 330 95 94
f 330 94 103
f 330 103 104
f 330 104 30
f 360 361 362
f 361 363 362
f 360 364 365
f 365 364 366
f 365 366 367
f 365 367 368
f 369 370 371
f 369 372 370
f 369 373 372
f 373 374 375
f 376 377 374
f 376 378 377
f 376 379 378
f 380 381 376
f 376 381 379
f 369 371 361
f 361 371 382
f 373 383 372
f 361 382 363
f 373 375 383
f 360 362 384
f 360 384 385
f 360 385 364
f 386 387 388
f 386 388 389
f 386 368 387
f 390 391 392
f 390 393 394
f 390 392 393
f 395 396 397
f 395 398 399
f 395 397 398
f 395 399 400
f 401 402 403
f 386 389 404
f 386 365 368
f 401 403 405
f 406 407 408
f 406 408 409
f 406 409 410
f 411 412 413
f 411 414 415
f 411 413 414
f 416 417 418
f 416 418 419
f 416 419 420
f 416 421 417
f 380 422 381
f 380 423 422
f 380 424 423
f 425 426 427
f 425 428 426
f 425 429 428
f 425 430 429
f 425 431 430
f 432 433 434
f 432 435 433
f 436 437 438
f 436 439 437
f 440 441 442
f 440 443 441
f 440 444 443
f 445 446 447
f 445 448 446
f 445 449 448
f 445 450 449
f 451 452 453
f 451 454 452
f 380 455 424
f 455 427 424
f 425 427 455
f 425 456 431
f 432 434 456
f 456 434 457
f 456 458 431
f 456 457 458
f 432 459 435
f 459 460 435
f 459 461 460
f 436 438 459
f 459 438 461
f 436 462 439
f 462 463 439
f 464 465 466
f 464 467 465
f 468 469 470
f 468 471 469
f 468 472 471
f 440 442 462
f 462 442 463
f 440 473 444
f 473 474 444
f 445 447 473
f 473 447 474
f 445 475 450
f 475 476 450
f 475 477 476
f 475 478 477
f 451 453 475
f 475 453 478
f 360 365 361
f 386 404 365
f 373 376 374
f 380 376 455
f 369 361 373
f 390 394 479
f 479 394 480
f 479 480 396
f 404 389 481
f 390 404 391
f 404 481 391
f 395 479 396
f 395 400 482
f 482 400 483
f 482 484 402
f 401 482 402
f 401 405 485
f 482 483 486
f 482 486 487
f 482 487 484
f 485 405 488
f 485 488 489
f 485 489 490
f 406 485 407
f 485 491 407
f 485 490 491
f 406 410 492
f 492 410 493
f 492 493 494
f 411 492 412
f 492 494 412
f 411 415 495
f 495 415 421
f 416 495 421
f 416 420 496
f 496 420 497
f 496 498 499
f 496 497 498
f 395 482 479
f 390 479 404
f 401 485 482
f 406 492 485
f 411 495 492
f 416 496 495
f 496 499 500
f 425 455 456
f 432 456 459
f 436 459 462
f 500 499 501
f 464 500 467
f 464 466 502
f 468 502 472
f 502 503 472
f 502 466 504
f 502 504 505
f 502 505 503
f 506 507 454
f 451 506 454
f 506 508 507
f 468 470 506
f 506 470 508
f 445 473 475
f 500 501 509
f 500 510 467
f 500 511 510
f 500 509 512
f 500 512 511
f 440 462 473
f 468 506 502
f 451 475 506
f 464 502 500
f 365 404 513
f 404 479 514
f 373 361 515
f 361 365 516
f 373 517 376
f 376 518 455
f 361 516 515
f 376 517 518
f 373 515 517
f 455 518 519
f 482 520 479
f 482 485 521
f 485 492 522
f 492 495 523
f 455 519 456
f 456 524 459
f 459 525 462
f 462 526 473
f 456 519 524
f 459 524 525
f 475 473 527
f 475 528 506
f 496 500 529
f 502 530 500
f 502 506 531
f 404 514 513
f 479 520 514
f 365 513 516
f 515 532 517
f 517 533 518
f 518 534 519
f 482 521 520
f 485 522 521
f 495 496 535
f 492 523 522
f 495 535 523
f 496 529 535
f 462 525 526
f 475 527 528
f 502 531 530
f 506 528 531
f 473 526 527
f 519 536 524
f 500 530 529
f 514 520 537
f 520 521 538
f 520 538 537
f 516 513 539
f 514 540 513
f 516 541 515
f 517 532 533
f 518 533 534
f 513 540 539
f 516 539 541
f 515 541 532
f 514 537 540
f 521 522 542
f 522 523 543
f 523 535 544
f 535 529 545
f 524 546 525
f 525 547 526
f 527 548 528
f 526 549 527
f 519 534 536
f 524 536 546
f 525 546 547
f 531 550 530
f 529 530 551
f 528 552 531
f 526 547 549
f 527 549 548
f 541 539 553
f 539 540 554
f 537 555 540
f 541 556 532
f 532 557 533
f 533 558 534
f 521 542 538
f 522 543 542
f 523 544 543
f 535 545 544
f 530 550 551
f 528 548 552
f 531 552 550
f 529 551 545
f 534 559 536
f 536 560 546
f 546 561 547
f 547 562 549
f 537 538 563
f 538 542 564
f 538 564 563
f 542 565 564
f 539 554 553
f 540 555 554
f 537 563 555
f 532 556 557
f 541 553 556
f 533 557 558
f 534 558 559
f 542 543 565
f 543 544 566
f 544 545 567
f 543 566 565
f 544 567 566
f 545 568 567
f 536 559 560
f 546 560 561
f 552 548 569
f 551 550 570
f 545 551 568
f 552 571 550
f 549 572 548
f 547 561 562
f 551 570 568
f 550 571 570
f 552 569 571
f 549 562 572
f 548 572 569
f 564 565 573
f 565 566 574
f 554 575 553
f 554 555 576
f 553 577 556
f 556 578 557
f 557 579 558
f 558 580 559
f 555 563 581
f 554 576 575
f 553 575 577
f 556 577 578
f 564 582 563
f 557 578 579
f 558 579 580
f 559 583 560
f 560 584 561
f 559 580 583
f 560 583 584
f 571 569 585
f 572 562 586
f 561 587 562
f 569 572 588
f 565 574 573
f 563 582 581
f 555 581 576
f 564 573 582
f 575 576 589
f 575 590 577
f 577 591 578
f 566 567 592
f 567 568 593
f 566 592 574
f 567 593 592
f 561 584 587
f 570 594 568
f 570 571 595
f 572 586 588
f 562 587 586
f 568 594 593
f 570 595 594
f 571 585 595
f 569 588 585
f 578 596 579
f 579 597 580
f 580 598 583
f 573 574 599
f 574 592 600
f 581 601 576
f 581 582 602
f 573 603 582
f 575 589 590
f 577 590 591
f 581 602 601
f 582 603 602
f 573 599 603
f 576 601 589
f 592 593 604
f 584 605 587
f 586 587 606
f 593 594 607
f 594 595 608
f 585 588 609
f 585 610 595
f 586 611 588
f 587 605 606
f 574 600 599
f 592 604 600
f 590 612 591
f 601 602 613
f 602 603 614
f 601 615 589
f 589 616 590
f 593 607 604
f 594 608 607
f 595 610 608
f 585 609 610
f 586 606 611
f 588 611 609
f 578 591 596
f 579 596 597
f 580 597 598
f 584 583 617
f 583 598 617
f 584 617 605
f 591 618 596
f 596 619 597
f 597 620 598
f 598 621 617
f 605 617 622
f 600 604 623
f 603 599 624
f 602 614 613
f 603 624 614
f 601 613 615
f 589 615 616
f 590 616 612
f 600 625 599
f 599 625 624
f 615 613 626
f 614 626 613
f 616 615 626
f 616 626 612
f 600 623 625
f 604 627 623
f 626 618 612
f 604 607 627
f 607 608 628
f 610 609 629
f 611 606 630
f 605 631 606
f 611 632 609
f 608 610 633
f 605 622 631
f 609 632 629
f 611 630 632
f 606 631 630
f 614 624 626
f 624 625 626
f 626 625 623
f 626 623 627
f 626 627 628
f 607 628 627
f 608 633 628
f 610 629 633
f 626 628 633
f 626 633 629
f 626 629 632
f 626 622 621
f 626 631 622
f 626 632 630
f 626 630 631
f 591 612 618
f 596 618 619
f 597 619 620
f 626 619 618
f 626 620 619
f 598 620 621
f 617 621 622
f 626 621 620
f 634 635 636
f 634 636 637
f 635 638 636
f 637 639 640
f 637 641 639
f 636 642 641
f 636 641 637
f 636 638 642
f 638 643 642
f 635 644 645
f 635 645 638
f 644 646 645
f 645 643 638
f 645 647 643
f 645 646 647
f 646 648 647
f 646 649 648
f 640 639 650
f 641 651 639
f 641 652 651
f 641 642 652
f 642 643 653
f 642 653 652
f 639 651 654
f 639 654 650
f 652 655 651
f 651 656 654
f 650 654 657
f 652 653 658
f 652 658 655
f 653 659 658
f 643 647 660
f 643 660 653
f 647 648 661
f 647 661 660
f 649 662 648
f 653 660 659
f 660 663 659
f 660 661 663
f 648 664 661
f 648 662 664
f 661 664 665
f 662 666 664
f 634 637 667
f 668 667 669
f 634 668 670
f 634 667 668
f 668 671 672
f 634 670 635
f 668 672 670
f 668 669 671
f 672 671 673
f 667 637 640
f 667 640 674
f 667 674 669
f 669 674 675
f 669 675 676
f 671 669 676
f 671 676 677
f 671 677 673
f 673 677 678
f 670 644 635
f 670 672 679
f 670 679 644
f 679 672 680
f 644 679 681
f 672 673 680
f 644 681 646
f 679 680 682
f 679 682 681
f 681 649 646
f 680 683 682
f 681 682 684
f 682 683 685
f 680 673 678
f 680 678 683
f 681 684 649
f 682 685 684
f 640 686 674
f 674 687 675
f 640 650 686
f 674 686 687
f 676 675 688
f 676 688 689
f 676 689 677
f 677 690 678
f 677 689 690
f 686 650 691
f 686 691 687
f 675 687 692
f 687 693 692
f 675 692 688
f 689 688 694
f 688 692 426
f 688 426 428
f 688 428 429
f 688 429 430
f 688 430 694
f 689 695 690
f 689 694 695
f 690 695 696
f 678 697 683
f 678 690 697
f 683 698 685
f 683 697 698
f 649 684 699
f 684 685 700
f 649 699 662
f 684 700 699
f 690 696 697
f 697 701 698
f 697 696 701
f 685 702 700
f 699 703 662
f 699 700 703
f 700 702 704
f 685 698 702
f 698 705 702
f 650 657 691
f 657 371 370
f 657 382 371
f 657 384 362
f 657 362 363
f 657 363 382
f 691 693 687
f 691 375 693
f 691 657 370
f 691 370 372
f 691 383 375
f 691 372 383
f 693 375 374
f 693 374 377
f 693 377 378
f 693 378 379
f 655 706 656
f 651 655 656
f 654 707 385
f 654 656 707
f 654 384 657
f 654 385 384
f 655 658 708
f 658 659 709
f 706 391 481
f 706 708 393
f 706 392 391
f 706 393 392
f 708 394 393
f 656 388 387
f 656 389 388
f 656 387 707
f 707 364 385
f 656 706 389
f 707 366 364
f 707 387 368
f 707 368 367
f 707 367 366
f 706 481 389
f 655 708 706
f 658 709 708
f 708 709 398
f 659 663 710
f 663 665 711
f 661 665 663
f 662 703 666
f 664 712 665
f 664 666 712
f 659 710 709
f 663 711 710
f 665 713 711
f 665 712 713
f 666 714 712
f 666 715 714
f 708 480 394
f 708 396 480
f 708 398 397
f 708 397 396
f 709 399 398
f 709 400 399
f 709 716 400
f 709 405 403
f 709 403 402
f 709 402 484
f 716 483 400
f 709 484 716
f 716 486 483
f 716 484 487
f 716 487 486
f 709 710 717
f 710 408 407
f 710 711 718
f 710 409 408
f 711 713 718
f 709 717 405
f 710 407 717
f 710 718 409
f 713 412 718
f 712 417 713
f 712 418 417
f 712 419 418
f 712 714 420
f 712 420 419
f 713 413 412
f 713 414 413
f 713 415 414
f 713 417 421
f 713 421 415
f 714 501 499
f 714 497 420
f 714 499 498
f 714 498 497
f 717 488 405
f 717 489 488
f 717 407 491
f 717 491 490
f 717 490 489
f 718 410 409
f 718 493 410
f 718 412 494
f 718 494 493
f 692 381 422
f 692 693 381
f 693 379 381
f 692 423 424
f 692 422 423
f 692 427 426
f 692 424 427
f 694 430 431
f 694 431 458
f 694 458 457
f 694 457 434
f 694 434 433
f 694 433 695
f 695 433 435
f 695 461 438
f 695 438 437
f 695 437 696
f 696 437 439
f 695 435 460
f 695 460 461
f 696 439 463
f 696 441 701
f 698 701 705
f 696 442 441
f 701 441 443
f 701 443 444
f 696 463 442
f 701 444 474
f 701 446 705
f 701 447 446
f 703 700 704
f 703 715 666
f 703 704 715
f 702 719 704
f 702 705 719
f 701 474 447
f 705 446 448
f 705 448 449
f 705 450 720
f 720 450 476
f 720 478 453
f 720 476 477
f 720 477 478
f 704 719 469
f 704 469 471
f 704 721 715
f 704 471 721
f 719 470 469
f 705 720 453
f 705 453 452
f 705 454 719
f 705 452 454
f 705 449 450
f 719 454 507
f 719 507 508
f 719 508 470
f 715 465 467
f 715 466 465
f 715 721 466
f 715 722 714
f 715 467 722
f 721 471 472
f 714 722 501
f 722 467 510
f 721 472 503
f 721 505 504
f 721 503 505
f 721 504 466
f 722 509 501
f 722 510 511
f 722 511 512
f 722 512 509
f 723 724 725
f 723 726 724
f 727 728 729
f 727 730 731
f 730 732 733
f 730 733 734
f 730 735 731
f 730 734 736
f 730 736 735
f 737 738 732
f 737 725 738
f 723 725 737
f 723 739 726
f 739 740 726
f 739 741 740
f 742 743 739
f 739 743 741
f 742 744 745
f 727 746 747
f 727 747 728
f 748 749 750
f 748 751 752
f 748 752 753
f 748 750 751
f 748 753 754
f 727 731 746
f 755 756 757
f 755 757 758
f 759 760 761
f 759 761 762
f 763 764 765
f 763 765 766
f 763 766 767
f 768 769 770
f 768 770 771
f 768 771 772
f 768 772 773
f 774 775 776
f 774 776 777
f 748 754 778
f 729 728 749
f 748 729 749
f 755 778 756
f 778 779 756
f 778 754 780
f 778 780 779
f 755 758 781
f 759 781 760
f 781 782 760
f 781 758 783
f 781 783 782
f 759 762 784
f 763 784 764
f 784 762 785
f 784 785 764
f 786 787 788
f 786 788 789
f 786 789 790
f 791 792 793
f 791 793 794
f 763 767 795
f 795 767 796
f 795 796 769
f 768 795 769
f 768 773 797
f 797 773 798
f 797 799 775
f 797 798 800
f 797 800 799
f 774 797 775
f 774 777 801
f 742 802 743
f 742 803 802
f 742 745 803
f 804 805 806
f 804 807 805
f 808 809 810
f 808 811 812
f 808 812 809
f 813 814 815
f 813 816 817
f 813 817 814
f 813 818 816
f 819 820 821
f 744 822 745
f 804 806 744
f 744 806 823
f 819 824 820
f 819 825 824
f 826 827 828
f 826 829 827
f 826 830 829
f 831 832 833
f 831 834 835
f 831 835 832
f 836 837 838
f 836 839 840
f 836 841 839
f 836 840 837
f 836 838 842
f 727 729 730
f 730 737 732
f 723 737 739
f 742 739 744
f 759 784 781
f 763 795 784
f 748 778 729
f 755 781 778
f 801 777 843
f 801 843 844
f 801 844 787
f 786 801 787
f 786 790 845
f 845 790 846
f 845 847 792
f 791 845 792
f 791 794 848
f 845 846 849
f 845 849 847
f 848 794 850
f 851 852 853
f 768 797 795
f 774 801 797
f 848 854 852
f 848 855 854
f 848 856 855
f 848 850 856
f 851 853 857
f 786 845 801
f 791 848 845
f 848 852 851
f 744 823 858
f 744 858 822
f 804 859 807
f 859 860 807
f 859 810 860
f 808 810 859
f 808 861 811
f 861 862 811
f 861 815 862
f 813 815 861
f 813 863 818
f 819 821 863
f 863 864 818
f 863 821 865
f 863 865 866
f 863 866 867
f 863 867 864
f 831 833 868
f 826 868 830
f 868 869 830
f 868 833 870
f 868 870 869
f 819 871 825
f 826 828 871
f 871 828 872
f 871 873 874
f 871 874 825
f 871 872 873
f 836 842 875
f 831 875 834
f 875 842 834
f 851 857 841
f 836 851 841
f 804 744 859
f 808 859 861
f 813 861 863
f 819 863 871
f 826 871 868
f 836 875 851
f 831 868 875
f 729 876 730
f 729 778 877
f 730 878 737
f 737 879 739
f 730 876 878
f 729 877 876
f 778 880 877
f 739 881 744
f 781 880 778
f 781 784 882
f 784 795 883
f 795 797 884
f 781 882 880
f 784 883 882
f 795 884 883
f 797 801 885
f 801 845 886
f 845 848 887
f 851 875 888
f 848 851 889
f 744 890 859
f 859 891 861
f 863 892 871
f 861 893 863
f 868 894 875
f 737 878 879
f 880 895 877
f 880 882 896
f 876 877 897
f 739 879 881
f 744 881 890
f 797 885 884
f 801 886 885
f 845 887 886
f 848 889 887
f 851 888 889
f 882 883 898
f 875 894 888
f 859 890 891
f 861 891 893
f 871 899 868
f 863 893 892
f 871 892 899
f 868 899 894
f 880 896 895
f 882 898 896
f 876 900 878
f 878 901 879
f 876 897 900
f 877 895 897
f 878 900 901
f 879 901 902
f 879 902 881
f 881 903 890
f 881 902 903
f 883 884 904
f 884 885 905
f 885 886 906
f 886 887 907
f 887 889 908
f 883 904 898
f 884 905 904
f 885 906 905
f 886 907 906
f 887 908 907
f 889 888 909
f 888 894 910
f 890 911 891
f 891 912 893
f 893 913 892
f 892 914 899
f 894 899 915
f 895 896 916
f 898 904 917
f 898 918 896
f 895 919 897
f 897 920 900
f 900 921 901
f 901 922 902
f 890 903 911
f 889 909 908
f 888 910 909
f 894 915 910
f 904 905 923
f 905 906 924
f 906 907 925
f 891 911 912
f 893 912 913
f 892 913 914
f 899 914 915
f 897 919 920
f 900 920 921
f 896 918 916
f 895 916 919
f 898 917 918
f 904 923 917
f 901 921 922
f 902 926 903
f 903 927 911
f 902 922 926
f 903 926 927
f 905 924 923
f 906 925 924
f 907 908 928
f 908 909 929
f 907 928 925
f 915 930 910
f 915 914 931
f 909 910 932
f 908 929 928
f 914 933 931
f 915 931 930
f 909 932 929
f 910 930 932
f 911 934 912
f 912 935 913
f 913 933 914
f 911 927 934
f 912 934 935
f 913 935 933
f 936 937 938
f 936 939 940
f 919 916 941
f 919 942 920
f 920 943 921
f 918 917 944
f 918 945 916
f 917 923 938
f 919 941 942
f 916 945 941
f 921 946 922
f 920 942 943
f 918 944 945
f 917 938 944
f 923 936 938
f 922 947 926
f 926 948 927
f 923 924 936
f 924 925 939
f 925 928 949
f 924 939 936
f 928 929 950
f 929 932 951
f 930 952 932
f 927 953 934
f 921 943 946
f 922 946 947
f 941 954 942
f 945 944 955
f 945 956 941
f 944 938 957
f 926 947 948
f 927 948 953
f 925 949 939
f 928 950 949
f 929 951 950
f 932 952 951
f 930 931 958
f 931 933 959
f 930 958 952
f 933 960 959
f 931 959 958
f 934 961 935
f 935 960 933
f 934 953 961
f 935 961 960
f 938 937 957
f 936 940 937
f 939 949 962
f 939 962 940
f 949 963 962
f 957 937 964
f 937 940 965
f 940 962 966
f 962 963 967
f 963 968 969
f 945 955 956
f 944 957 955
f 942 970 943
f 943 971 946
f 946 972 947
f 941 956 954
f 942 954 970
f 943 970 971
f 946 971 972
f 947 973 948
f 948 974 953
f 949 950 963
f 950 951 968
f 950 968 963
f 960 961 975
f 951 952 976
f 952 958 977
f 951 976 968
f 958 959 978
f 960 979 959
f 953 980 961
f 957 981 955
f 947 972 973
f 955 982 956
f 956 983 954
f 954 984 970
f 970 985 971
f 948 973 974
f 961 980 975
f 960 975 979
f 952 977 976
f 958 978 977
f 959 979 978
f 953 974 980
f 957 964 981
f 937 965 964
f 940 966 965
f 962 967 966
f 965 966 986
f 966 967 986
f 963 969 967
f 968 987 969
f 967 969 986
f 955 981 982
f 956 982 983
f 971 988 972
f 954 983 984
f 970 984 985
f 972 989 973
f 981 986 982
f 964 986 981
f 982 986 983
f 983 986 984
f 971 985 988
f 964 965 986
f 972 988 989
f 973 989 990
f 974 990 991
f 973 990 974
f 974 991 980
f 975 992 979
f 968 976 987
f 976 977 993
f 977 978 994
f 979 995 978
f 980 996 975
f 976 993 987
f 977 994 993
f 978 995 994
f 984 986 985
f 985 986 988
f 986 989 988
f 986 990 989
f 986 991 990
f 969 987 986
f 987 993 986
f 986 993 994
f 986 994 995
f 980 991 996
f 975 996 992
f 986 996 991
f 986 992 996
f 986 995 992
f 979 992 995
f 997 998 999
f 1000 998 1001
f 1002 1003 999
f 999 1000 1004
f 999 998 1000
f 1002 999 1004
f 1000 1005 1004
f 1003 997 999
f 1002 1006 1003
f 997 1007 998
f 998 1008 1001
f 998 1007 1008
f 997 1009 1007
f 997 1010 1009
f 1003 1011 1010
f 1003 1006 1011
f 1006 1012 1011
f 1003 1010 997
f 1002 1013 1014
f 1002 1004 1013
f 1004 1015 1013
f 1004 1005 1015
f 1013 1015 1016
f 1002 1014 1006
f 1014 1013 1017
f 1017 1013 1016
f 1015 1018 1016
f 1014 1012 1006
f 1014 1019 1012
f 1014 1017 1019
f 1017 1016 1020
f 1016 1018 1021
f 1017 1022 1019
f 1016 1021 1020
f 1017 1020 1022
f 1010 1023 1009
f 1010 1024 1023
f 1009 1025 1007
f 1007 1026 1008
f 1007 1025 1026
f 1008 1026 1027
f 1010 1011 1024
f 1011 1028 1024
f 1011 1012 1028
f 1009 1023 1029
f 1024 1030 1023
f 1023 750 1029
f 1023 751 750
f 1023 752 751
f 1023 753 752
f 1023 1030 753
f 1009 1029 1025
f 1026 1025 1031
f 1026 1031 1027
f 1025 1029 1032
f 1024 1028 1033
f 1024 1033 1030
f 1028 1034 1033
f 1012 1035 1028
f 1012 1019 1035
f 1019 1022 1036
f 1019 1036 1035
f 1022 1020 1037
f 1020 1021 1038
f 1020 1038 1037
f 1021 1039 1038
f 1028 1035 1034
f 1035 1036 1040
f 1035 1040 1034
f 1022 1041 1036
f 1036 1041 1042
f 1022 1037 1041
f 1038 1043 1037
f 1038 1039 1043
f 1037 1044 1041
f 1000 1045 1005
f 1000 1001 1045
f 1005 1045 1046
f 1001 1008 1047
f 1001 1047 1048
f 1045 1001 1048
f 1045 1048 1049
f 1045 1049 1046
f 1046 1049 1050
f 1005 1051 1015
f 1005 1046 1051
f 1015 1051 1018
f 1051 1046 1050
f 1051 1050 1052
f 1051 1052 1018
f 1018 1052 1053
f 1018 1053 1021
f 1008 1027 1047
f 1048 1047 1054
f 1048 1054 1055
f 1048 1055 1049
f 1049 1056 1050
f 1049 1055 1056
f 1047 1027 1057
f 1047 1057 1054
f 1055 1054 1058
f 1027 1059 1057
f 1054 1057 1060
f 1055 1061 1056
f 1055 1058 1061
f 1056 1061 1062
f 1050 1063 1052
f 1050 1056 1063
f 1052 1064 1053
f 1052 1063 1064
f 1021 1053 1039
f 1063 1065 1064
f 1056 1062 1063
f 1063 1062 1065
f 1053 1066 1039
f 1053 1064 1066
f 1064 1067 1066
f 1039 1066 1068
f 1025 1032 1031
f 1031 1032 733
f 1031 733 732
f 1032 734 733
f 1032 736 734
f 1032 735 736
f 1031 732 738
f 1031 724 1059
f 1031 725 724
f 1031 738 725
f 1027 1031 1059
f 1059 724 726
f 1059 726 740
f 1059 740 741
f 1059 741 743
f 1059 743 802
f 1029 728 747
f 1029 747 746
f 1029 750 749
f 1029 749 728
f 1030 754 753
f 1030 780 754
f 1030 779 780
f 1029 746 731
f 1029 731 1032
f 1032 731 735
f 1030 756 779
f 1030 757 756
f 1030 1033 757
f 1033 758 757
f 1033 760 782
f 1033 761 760
f 1033 1034 761
f 1034 762 761
f 1033 783 758
f 1033 782 783
f 1034 785 762
f 1034 1040 765
f 1036 1042 1040
f 1034 765 764
f 1040 766 765
f 1040 767 766
f 1034 764 785
f 1040 796 767
f 1040 1042 770
f 1040 770 769
f 1041 1069 1042
f 1037 1043 1044
f 1041 1044 1069
f 1043 1070 1044
f 1043 1068 1070
f 1040 769 796
f 1042 771 770
f 1042 772 771
f 1042 1071 773
f 1071 798 773
f 1071 775 799
f 1071 800 798
f 1071 799 800
f 1042 773 772
f 1042 775 1071
f 1042 776 775
f 1042 777 776
f 1042 1069 777
f 1069 843 777
f 1069 844 843
f 1069 787 844
f 1044 788 1069
f 1044 789 788
f 1044 1070 1072
f 1069 788 787
f 1044 1072 789
f 1072 790 789
f 1070 793 792
f 1072 1070 792
f 1070 794 793
f 1070 1073 794
f 1070 1074 1073
f 1072 846 790
f 1072 849 846
f 1072 847 849
f 1072 792 847
f 1073 850 794
f 1074 853 1073
f 1073 853 852
f 1073 856 850
f 1073 855 856
f 1073 852 854
f 1073 854 855
f 1054 1060 1058
f 1057 1059 802
f 1057 802 803
f 1057 803 1075
f 1057 1075 1060
f 1058 1060 1076
f 1058 1077 1061
f 1061 1078 1062
f 1075 803 745
f 1060 1075 806
f 1060 806 805
f 1060 805 807
f 1060 807 1076
f 1075 745 822
f 1075 823 806
f 1075 822 858
f 1075 858 823
f 1076 807 860
f 1076 860 810
f 1076 812 1077
f 1076 810 809
f 1076 809 812
f 1077 812 811
f 1058 1076 1077
f 1061 1077 1078
f 1077 817 1078
f 1064 1065 1067
f 1062 1079 1065
f 1065 1080 1067
f 1039 1068 1043
f 1066 1067 1081
f 1066 1081 1068
f 1062 1078 1079
f 1065 1079 1080
f 1067 1080 1082
f 1067 1082 1081
f 1068 1081 1074
f 1068 1074 1070
f 1077 811 862
f 1077 862 815
f 1077 814 817
f 1077 815 814
f 1078 817 816
f 1078 816 818
f 1078 818 1083
f 1078 820 824
f 1078 821 820
f 1078 865 821
f 1083 818 864
f 1078 1083 865
f 1083 864 867
f 1083 866 865
f 1083 867 866
f 1082 1084 833
f 1079 1078 1085
f 1079 828 827
f 1079 1084 1080
f 1079 827 829
f 1080 1084 1082
f 1078 824 1085
f 1079 1085 828
f 1079 829 1084
f 1081 838 837
f 1081 1082 838
f 1081 839 1074
f 1081 840 839
f 1081 837 840
f 1082 833 832
f 1082 832 835
f 1082 835 834
f 1082 842 838
f 1082 834 842
f 1074 857 853
f 1074 841 857
f 1074 839 841
f 1085 824 825
f 1085 825 874
f 1085 872 828
f 1085 873 872
f 1085 874 873
f 1084 829 830
f 1084 830 869
f 1084 870 833
f 1084 869 870
f 1086 1087 1088
f 1089 1090 1091
f 1089 1092 1090
f 1089 1093 1092
f 1094 1095 1096
f 1097 1098 1099
f 1097 1100 1098
f 1097 1101 1100
f 1094 1096 1101
f 1094 1102 1103
f 1101 1104 1100
f 1101 1096 1104
f 1097 1099 1105
f 1106 1105 1107
f 1105 1099 1108
f 1105 1108 1109
f 1105 1109 1107
f 1106 1110 1111
f 1111 1110 1112
f 1113 1111 1114
f 1111 1112 1115
f 1111 1115 1114
f 1094 1103 1116
f 1094 1116 1117
f 1094 1117 1095
f 1118 1119 1120
f 1118 1121 1119
f 1118 1122 1121
f 1118 1120 1123
f 1124 1125 1126
f 1106 1107 1127
f 1106 1127 1110
f 1113 1114 1128
f 1113 1128 1129
f 1113 1129 1130
f 1113 1130 1131
f 1132 1133 1134
f 1132 1134 1135
f 1136 1137 1138
f 1136 1138 1139
f 1140 1141 1142
f 1143 1144 1145
f 1143 1146 1144
f 1086 1147 1148
f 1086 1088 1147
f 1149 1150 1151
f 1149 1152 1150
f 1149 1153 1152
f 1154 1155 1156
f 1154 1157 1155
f 1158 1159 1160
f 1158 1160 1161
f 1158 1162 1159
f 1158 1163 1162
f 1164 1165 1166
f 1164 1167 1165
f 1149 1151 1168
f 1113 1131 1169
f 1169 1170 1133
f 1132 1169 1133
f 1169 1131 1171
f 1169 1171 1172
f 1169 1172 1170
f 1132 1135 1173
f 1173 1135 1174
f 1173 1174 1175
f 1173 1175 1176
f 1177 1176 1178
f 1177 1178 1179
f 1177 1179 1180
f 1140 1181 1141
f 1181 1182 1141
f 1140 1142 1183
f 1184 1185 1186
f 1184 1186 1187
f 1188 1189 1190
f 1188 1191 1189
f 1136 1177 1137
f 1177 1180 1192
f 1177 1192 1137
f 1136 1139 1181
f 1181 1139 1193
f 1181 1193 1182
f 1089 1091 1194
f 1102 1123 1195
f 1102 1195 1196
f 1102 1196 1197
f 1102 1197 1103
f 1106 1111 1105
f 1113 1169 1111
f 1118 1102 1198
f 1094 1101 1102
f 1097 1105 1101
f 1124 1126 1198
f 1198 1126 1199
f 1118 1198 1122
f 1198 1199 1122
f 1118 1123 1102
f 1200 1201 1125
f 1086 1148 1200
f 1200 1202 1201
f 1124 1200 1125
f 1200 1148 1202
f 1086 1194 1087
f 1194 1203 1087
f 1194 1091 1204
f 1194 1205 1203
f 1194 1204 1205
f 1089 1206 1093
f 1206 1207 1093
f 1206 1208 1207
f 1206 1209 1208
f 1206 1210 1209
f 1149 1168 1211
f 1211 1212 1210
f 1211 1168 1212
f 1149 1213 1153
f 1213 1214 1153
f 1213 1156 1214
f 1154 1156 1213
f 1164 1166 1215
f 1154 1216 1157
f 1158 1161 1216
f 1216 1217 1157
f 1216 1218 1217
f 1216 1161 1218
f 1158 1215 1163
f 1215 1166 1219
f 1215 1220 1163
f 1215 1219 1221
f 1215 1221 1220
f 1132 1173 1169
f 1184 1222 1185
f 1183 1142 1223
f 1143 1183 1146
f 1143 1145 1224
f 1183 1225 1146
f 1183 1223 1225
f 1224 1226 1227
f 1188 1224 1191
f 1224 1227 1191
f 1188 1190 1222
f 1224 1145 1226
f 1164 1228 1167
f 1228 1229 1167
f 1184 1187 1228
f 1222 1230 1231
f 1222 1231 1185
f 1228 1187 1232
f 1228 1232 1233
f 1228 1234 1229
f 1228 1233 1234
f 1222 1190 1230
f 1124 1198 1200
f 1086 1200 1194
f 1089 1194 1206
f 1143 1224 1183
f 1184 1228 1222
f 1188 1222 1224
f 1173 1176 1177
f 1136 1181 1177
f 1140 1183 1181
f 1101 1105 1235
f 1101 1236 1102
f 1111 1169 1237
f 1169 1173 1238
f 1105 1111 1239
f 1206 1211 1210
f 1149 1211 1213
f 1154 1213 1216
f 1158 1216 1215
f 1164 1215 1228
f 1173 1177 1240
f 1177 1181 1241
f 1181 1183 1242
f 1102 1243 1198
f 1105 1239 1235
f 1111 1237 1239
f 1169 1238 1237
f 1101 1235 1236
f 1102 1236 1243
f 1198 1243 1244
f 1200 1198 1244
f 1200 1245 1194
f 1194 1246 1206
f 1206 1247 1211
f 1211 1248 1213
f 1213 1249 1216
f 1228 1250 1222
f 1228 1215 1251
f 1216 1252 1215
f 1200 1244 1245
f 1228 1251 1250
f 1173 1240 1238
f 1183 1224 1253
f 1177 1241 1240
f 1222 1254 1224
f 1181 1242 1241
f 1183 1253 1242
f 1224 1254 1253
f 1222 1250 1254
f 1235 1255 1236
f 1237 1238 1256
f 1239 1257 1235
f 1239 1237 1258
f 1194 1245 1246
f 1206 1246 1247
f 1211 1247 1248
f 1213 1248 1249
f 1216 1249 1252
f 1215 1252 1251
f 1238 1240 1259
f 1240 1241 1260
f 1241 1242 1261
f 1242 1253 1262
f 1243 1263 1244
f 1243 1236 1264
f 1239 1258 1257
f 1237 1256 1258
f 1236 1255 1264
f 1243 1264 1263
f 1244 1263 1265
f 1235 1257 1255
f 1244 1265 1245
f 1245 1266 1246
f 1246 1267 1247
f 1247 1268 1248
f 1248 1269 1249
f 1252 1249 1270
f 1252 1271 1251
f 1251 1272 1250
f 1251 1271 1272
f 1238 1259 1256
f 1240 1260 1259
f 1241 1261 1260
f 1253 1254 1273
f 1254 1250 1274
f 1242 1262 1261
f 1253 1273 1262
f 1254 1274 1273
f 1250 1272 1274
f 1255 1257 1275
f 1258 1256 1276
f 1258 1277 1257
f 1245 1265 1266
f 1246 1266 1267
f 1247 1267 1268
f 1248 1268 1269
f 1249 1269 1270
f 1252 1270 1271
f 1256 1259 1278
f 1259 1260 1279
f 1260 1261 1280
f 1261 1262 1281
f 1262 1273 1282
f 1263 1264 1283
f 1255 1284 1264
f 1263 1285 1265
f 1258 1276 1277
f 1256 1278 1276
f 1255 1275 1284
f 1263 1283 1285
f 1264 1284 1283
f 1257 1277 1275
f 1265 1286 1266
f 1266 1287 1267
f 1269 1288 1270
f 1271 1270 1289
f 1267 1290 1268
f 1268 1291 1269
f 1259 1279 1278
f 1260 1280 1279
f 1261 1281 1280
f 1262 1282 1281
f 1273 1274 1292
f 1272 1293 1274
f 1272 1271 1294
f 1273 1292 1282
f 1274 1293 1292
f 1271 1289 1294
f 1272 1294 1293
f 1276 1278 1295
f 1275 1277 1296
f 1277 1276 1297
f 1265 1285 1286
f 1266 1286 1287
f 1267 1287 1290
f 1268 1290 1291
f 1269 1291 1288
f 1270 1288 1289
f 1279 1298 1278
f 1279 1280 1299
f 1280 1281 1300
f 1281 1282 1301
f 1282 1292 1302
f 1275 1303 1284
f 1284 1304 1283
f 1283 1305 1285
f 1276 1295 1297
f 1275 1296 1303
f 1284 1303 1304
f 1283 1304 1305
f 1277 1297 1296
f 1285 1306 1286
f 1291 1307 1288
f 1286 1308 1287
f 1287 1309 1290
f 1290 1310 1291
f 1278 1298 1295
f 1279 1299 1298
f 1280 1300 1299
f 1281 1301 1300
f 1282 1302 1301
f 1293 1294 1311
f 1289 1312 1294
f 1288 1313 1289
f 1293 1314 1292
f 1294 1312 1311
f 1292 1314 1302
f 1293 1311 1314
f 1285 1305 1306
f 1296 1297 1315
f 1295 1316 1297
f 1286 1306 1308
f 1287 1308 1309
f 1290 1309 1310
f 1291 1310 1307
f 1295 1298 1317
f 1298 1299 1318
f 1299 1300 1319
f 1300 1301 1320
f 1301 1302 1321
f 1302 1314 1322
f 1288 1307 1313
f 1289 1313 1312
f 1296 1323 1303
f 1303 1324 1304
f 1304 1325 1305
f 1305 1326 1306
f 1295 1317 1316
f 1303 1323 1324
f 1304 1324 1325
f 1296 1315 1323
f 1297 1316 1315
f 1306 1327 1308
f 1308 1328 1309
f 1309 1329 1310
f 1310 1330 1307
f 1298 1318 1317
f 1299 1319 1318
f 1300 1320 1319
f 1301 1321 1320
f 1302 1322 1321
f 1314 1331 1322
f 1307 1332 1313
f 1313 1333 1312
f 1314 1311 1331
f 1312 1334 1311
f 1311 1334 1331
f 1312 1333 1334
f 1305 1325 1326
f 1306 1326 1327
f 1316 1335 1315
f 1316 1317 1336
f 1308 1327 1328
f 1310 1329 1330
f 1309 1328 1329
f 1318 1337 1317
f 1318 1319 1338
f 1319 1320 1339
f 1320 1321 1340
f 1321 1322 1341
f 1322 1331 1342
f 1307 1330 1332
f 1313 1332 1333
f 1323 1343 1324
f 1324 1344 1325
f 1323 1315 1345
f 1323 1345 1343
f 1325 1346 1326
f 1326 1347 1327
f 1315 1335 1345
f 1316 1336 1335
f 1327 1348 1328
f 1328 1349 1329
f 1317 1337 1336
f 1318 1338 1337
f 1319 1339 1338
f 1320 1340 1339
f 1321 1341 1340
f 1331 1334 1350
f 1322 1342 1341
f 1331 1350 1342
f 1334 1351 1350
f 1330 1352 1332
f 1334 1333 1351
f 1333 1332 1353
f 1329 1354 1330
f 1333 1353 1351
f 1324 1343 1344
f 1325 1344 1346
f 1326 1346 1347
f 1335 1336 1355
f 1335 1355 1345
f 1345 1355 1343
f 1343 1355 1344
f 1344 1355 1346
f 1346 1355 1347
f 1347 1355 1348
f 1348 1355 1349
f 1327 1347 1348
f 1328 1348 1349
f 1329 1349 1354
f 1337 1355 1336
f 1337 1338 1355
f 1338 1339 1355
f 1339 1340 1355
f 1340 1341 1355
f 1341 1342 1355
f 1355 1342 1350
f 1355 1350 1351
f 1355 1351 1353
f 1330 1354 1352
f 1332 1352 1353
f 1355 1353 1352
f 1355 1352 1354
f 1349 1355 1354
f 1356 1357 1358
f 1356 1358 1359
f 1357 1360 1358
f 1357 1088 1360
f 1359 1358 1361
f 1358 1360 1091
f 1358 1090 1092
f 1358 1091 1090
f 1360 1088 1087
f 1358 1092 1093
f 1358 1207 1361
f 1360 1087 1203
f 1360 1204 1091
f 1360 1203 1205
f 1360 1205 1204
f 1358 1093 1207
f 1361 1208 1209
f 1361 1209 1210
f 1361 1207 1208
f 1362 1363 1364
f 1365 1366 1367
f 1368 1365 1367
f 1368 1362 1365
f 1362 1364 1365
f 1368 1367 1369
f 1367 1370 1369
f 1365 1371 1366
f 1365 1364 1371
f 1367 1366 1372
f 1367 1372 1370
f 1371 1373 1374
f 1366 1371 1375
f 1366 1375 1376
f 1366 1376 1372
f 1371 1374 1375
f 1372 1376 1377
f 1364 1373 1371
f 1364 1378 1373
f 1363 1379 1378
f 1364 1363 1378
f 1369 1370 1380
f 1372 1377 1381
f 1370 1372 1381
f 1370 1381 1382
f 1370 1382 1380
f 1380 1382 1383
f 1362 1384 1363
f 1368 1385 1362
f 1368 1386 1385
f 1362 1385 1384
f 1368 1369 1386
f 1369 1387 1386
f 1385 1386 1388
f 1385 1389 1384
f 1385 1388 1389
f 1386 1390 1388
f 1386 1387 1390
f 1363 1384 1379
f 1384 1391 1379
f 1384 1389 1391
f 1389 1392 1391
f 1388 1393 1389
f 1388 1394 1393
f 1388 1390 1394
f 1389 1393 1392
f 1390 1395 1394
f 1369 1380 1387
f 1380 1383 1387
f 1387 1383 1396
f 1387 1396 1390
f 1390 1396 1395
f 1373 1397 1374
f 1373 1398 1397
f 1375 1399 1376
f 1375 1374 1400
f 1376 1401 1377
f 1375 1400 1399
f 1376 1399 1401
f 1373 1378 1398
f 1378 1379 1402
f 1378 1402 1398
f 1374 1397 1403
f 1374 1403 1400
f 1398 1404 1397
f 1397 1405 1403
f 1400 1403 1357
f 1399 1400 1356
f 1399 1356 1401
f 1402 1406 1398
f 1398 1406 1404
f 1402 1407 1406
f 1381 1377 1408
f 1381 1408 1409
f 1381 1409 1382
f 1382 1410 1383
f 1382 1409 1410
f 1377 1401 1411
f 1377 1411 1408
f 1409 1408 1412
f 1401 1359 1411
f 1408 1411 1413
f 1410 1409 1414
f 1409 1412 1414
f 1410 1414 1415
f 1379 1391 1416
f 1379 1416 1402
f 1391 1417 1416
f 1391 1392 1417
f 1393 1394 1418
f 1393 1419 1392
f 1394 1395 1420
f 1393 1418 1419
f 1394 1420 1418
f 1402 1416 1407
f 1416 1417 1421
f 1416 1421 1407
f 1417 1128 1421
f 1392 1422 1417
f 1392 1419 1422
f 1417 1129 1128
f 1417 1130 1129
f 1417 1422 1423
f 1419 1424 1422
f 1418 1425 1419
f 1418 1420 1425
f 1383 1426 1396
f 1383 1410 1426
f 1396 1426 1427
f 1396 1427 1395
f 1410 1415 1426
f 1426 1428 1427
f 1426 1415 1428
f 1395 1429 1420
f 1395 1427 1429
f 1427 1430 1429
f 1420 1429 1431
f 1406 1098 1100
f 1406 1407 1098
f 1406 1095 1117
f 1406 1096 1095
f 1406 1100 1104
f 1406 1104 1096
f 1407 1099 1098
f 1407 1108 1099
f 1407 1109 1108
f 1407 1107 1109
f 1397 1404 1405
f 1403 1432 1357
f 1403 1405 1432
f 1404 1121 1405
f 1404 1119 1121
f 1404 1120 1119
f 1400 1357 1356
f 1401 1356 1359
f 1404 1406 1117
f 1404 1117 1116
f 1404 1116 1103
f 1404 1103 1433
f 1405 1199 1126
f 1405 1126 1125
f 1357 1432 1147
f 1405 1125 1432
f 1405 1121 1122
f 1405 1122 1199
f 1404 1433 1120
f 1433 1123 1120
f 1433 1103 1197
f 1357 1147 1088
f 1432 1125 1201
f 1432 1201 1202
f 1432 1202 1148
f 1432 1148 1147
f 1433 1195 1123
f 1433 1197 1196
f 1433 1196 1195
f 1408 1413 1412
f 1411 1359 1434
f 1411 1434 1413
f 1412 1413 1435
f 1412 1436 1414
f 1414 1437 1415
f 1359 1361 1434
f 1413 1434 1438
f 1413 1438 1435
f 1412 1435 1436
f 1414 1436 1437
f 1407 1127 1107
f 1407 1421 1127
f 1421 1110 1127
f 1421 1112 1110
f 1421 1128 1114
f 1421 1114 1115
f 1421 1115 1112
f 1417 1423 1130
f 1422 1133 1423
f 1422 1135 1134
f 1422 1134 1133
f 1422 1174 1135
f 1422 1424 1174
f 1423 1131 1130
f 1423 1133 1170
f 1423 1171 1131
f 1423 1172 1171
f 1423 1170 1172
f 1424 1175 1174
f 1419 1425 1424
f 1420 1431 1425
f 1425 1180 1424
f 1425 1137 1192
f 1424 1179 1178
f 1424 1178 1176
f 1424 1176 1175
f 1424 1180 1179
f 1425 1192 1180
f 1425 1431 1139
f 1425 1138 1137
f 1425 1139 1138
f 1431 1193 1139
f 1431 1142 1141
f 1431 1141 1182
f 1431 1182 1193
f 1415 1439 1428
f 1428 1440 1430
f 1427 1428 1430
f 1429 1430 1441
f 1429 1441 1431
f 1428 1439 1440
f 1440 1189 1191
f 1440 1190 1189
f 1415 1437 1439
f 1430 1144 1441
f 1430 1145 1144
f 1431 1441 1142
f 1430 1440 1226
f 1430 1226 1145
f 1440 1191 1227
f 1441 1223 1142
f 1441 1144 1146
f 1441 1225 1223
f 1441 1146 1225
f 1434 1151 1150
f 1434 1150 1152
f 1434 1152 1438
f 1435 1438 1442
f 1434 1361 1168
f 1434 1168 1151
f 1361 1210 1212
f 1438 1152 1153
f 1438 1153 1214
f 1438 1156 1155
f 1438 1155 1157
f 1438 1214 1156
f 1438 1157 1442
f 1435 1442 1436
f 1436 1160 1159
f 1436 1159 1162
f 1436 1442 1160
f 1436 1162 1443
f 1436 1443 1437
f 1437 1166 1165
f 1437 1165 1167
f 1437 1443 1166
f 1361 1212 1168
f 1442 1157 1217
f 1442 1217 1218
f 1442 1161 1160
f 1442 1218 1161
f 1443 1162 1163
f 1443 1163 1220
f 1443 1219 1166
f 1443 1221 1219
f 1443 1220 1221
f 1439 1186 1185
f 1439 1187 1186
f 1439 1444 1187
f 1439 1231 1440
f 1440 1230 1190
f 1439 1185 1231
f 1440 1231 1230
f 1444 1167 1229
f 1444 1232 1187
f 1437 1444 1439
f 1437 1167 1444
f 1440 1227 1226
f 1444 1229 1234
f 1444 1233 1232
f 1444 1234 1233
