# sionna2 mesh — mavic4pro__canopy.obj
# group=canopy  verts=34  tris=64
v 0.071501 0.000000 0.005197
v 0.065281 0.014748 0.005197
v 0.027533 0.007374 0.034492
v 0.030643 0.000000 0.034492
v 0.047567 0.027251 0.005197
v 0.018676 0.013626 0.034492
v 0.021057 0.035606 0.005197
v 0.005421 0.017803 0.034492
v -0.010214 0.038539 0.005197
v -0.010214 0.019270 0.034492
v -0.041485 0.035606 0.005197
v -0.025850 0.017803 0.034492
v -0.067996 0.027251 0.005197
v -0.039105 0.013626 0.034492
v -0.085709 0.014748 0.005197
v -0.047962 0.007374 0.034492
v -0.091930 0.000000 0.005197
v -0.051072 0.000000 0.034492
v -0.085709 -0.014748 0.005197
v -0.047962 -0.007374 0.034492
v -0.067996 -0.027251 0.005197
v -0.039105 -0.013626 0.034492
v -0.041485 -0.035606 0.005197
v -0.025850 -0.017803 0.034492
v -0.010214 -0.038539 0.005197
v -0.010214 -0.019270 0.034492
v 0.021057 -0.035606 0.005197
v 0.005421 -0.017803 0.034492
v 0.047567 -0.027251 0.005197
v 0.018676 -0.013626 0.034492
v 0.065281 -0.014748 0.005197
v 0.027533 -0.007374 0.034492
v -0.010214 0.000000 0.005197
v -0.010214 0.000000 0.034492
f 1 2 3
f 1 3 4
f 2 5 6
f 2 6 3
f 5 7 8
f 5 8 6
f 7 9 10
f 7 10 8
f 9 11 12
f 9 12 10
f 11 13 14
f 11 14 12
f 13 15 16
f 13 16 14
f 15 17 18
f 15 18 16
f 17 19 20
f 17 20 18
f 19 21 22
f 19 22 20
f 21 23 24
f 21 24 22
f 23 25 26
f 23 26 24
f 25 27 28
f 25 28 26
f 27 29 30
f 27 30 28
f 29 31 32
f 29 32 30
f 31 1 4
f 31 4 32
f 33 2 1
f 34 4 3
f 33 5 2
f 34 3 6
f 33 7 5
f 34 6 8
f 33 9 7
f 34 8 10
f 33 11 9
f 34 10 12
f 33 13 11
f 34 12 14
f 33 15 13
f 34 14 16
f 33 17 15
f 34 16 18
f 33 19 17
f 34 18 20
f 33 21 19
f 34 20 22
f 33 23 21
f 34 22 24
f 33 25 23
f 34 24 26
f 33 27 25
f 34 26 28
f 33 29 27
f 34 28 30
f 33 31 29
f 34 30 32
f 33 1 31
f 34 32 4
