# sionna2 mesh — mavic4pro__gear.obj
# group=gear  verts=602  tris=1196
v 0.136448 0.178364 -0.026506
v 0.139061 0.179058 -0.038143
v 0.136674 0.176567 -0.027422
v 0.135020 0.174294 -0.018868
v 0.134673 0.174480 -0.018436
v 0.134186 0.175192 -0.016306
v 0.137391 0.179854 -0.025235
v 0.138856 0.180687 -0.037313
v 0.134040 0.176042 -0.015699
v 0.137981 0.175170 -0.027622
v 0.135572 0.173999 -0.019556
v 0.135229 0.174182 -0.019130
v 0.135071 0.177670 -0.014310
v 0.136723 0.172988 -0.019919
v 0.136346 0.173279 -0.019897
v 0.136778 0.172945 -0.019922
v 0.136278 0.179183 -0.012907
v 0.138495 0.181237 -0.023952
v 0.131632 0.173719 -0.004893
v 0.131638 0.173668 -0.004919
v 0.131665 0.173711 -0.004882
v 0.131740 0.173823 -0.005377
v 0.131676 0.173725 -0.005087
v 0.132262 0.174675 -0.004420
v 0.132415 0.174929 -0.003853
v 0.132575 0.175185 -0.003846
v 0.132613 0.175250 -0.003582
v 0.132751 0.175487 -0.003385
v 0.133143 0.175856 -0.005232
v 0.132876 0.175540 -0.004580
v 0.132773 0.175472 -0.003383
v 0.133083 0.175903 -0.002998
v 0.134138 0.175262 -0.016097
v 0.134132 0.175270 -0.016072
v 0.134149 0.175245 -0.016147
v 0.133325 0.175320 -0.012491
v 0.133293 0.175322 -0.012350
v 0.133450 0.175787 -0.010061
v 0.133624 0.176309 -0.007500
v 0.134254 0.177229 -0.004279
v 0.134061 0.177128 -0.001862
v 0.135909 0.178100 -0.000475
v 0.134108 0.177064 -0.004119
v 0.137565 0.172325 -0.002998
v 0.137981 0.180079 -0.011629
v 0.138045 0.177552 0.000180
v 0.146221 0.186528 -0.070307
v 0.147041 0.185652 -0.070432
v 0.143834 0.184038 -0.059586
v 0.146079 0.187655 -0.069732
v 0.143671 0.185333 -0.058926
v 0.144350 0.186406 -0.058010
v 0.146670 0.188590 -0.068935
v 0.144776 0.183032 -0.059730
v 0.145146 0.187402 -0.057086
v 0.142511 0.180411 -0.049027
v 0.140246 0.177791 -0.038325
v 0.141263 0.183010 -0.048119
v 0.141447 0.181548 -0.048865
v 0.139711 0.182038 -0.036160
v 0.142031 0.184222 -0.047085
v 0.145870 0.182158 -0.059730
v 0.143747 0.179425 -0.049027
v 0.146982 0.181313 -0.059706
v 0.142929 0.185347 -0.046041
v 0.145003 0.178471 -0.049000
v 0.144196 0.186014 -0.045090
v 0.146268 0.187993 -0.056244
v 0.141624 0.176691 -0.038325
v 0.140712 0.183292 -0.034996
v 0.143024 0.175628 -0.038294
v 0.142124 0.184036 -0.033936
v 0.145661 0.185638 -0.044640
v 0.143757 0.183616 -0.033435
v 0.146468 0.178094 -0.048551
v 0.144656 0.175208 -0.037793
v 0.148487 0.189978 -0.080539
v 0.148608 0.189019 -0.081028
v 0.149306 0.188273 -0.081135
v 0.147363 0.189457 -0.068131
v 0.148990 0.190774 -0.079860
v 0.151157 0.189351 -0.079686
v 0.150117 0.187625 -0.081135
v 0.147993 0.184892 -0.070432
v 0.150941 0.186999 -0.081117
v 0.149580 0.191512 -0.079175
v 0.148340 0.189971 -0.067397
v 0.148962 0.184156 -0.070411
v 0.150412 0.191950 -0.078551
v 0.149469 0.189681 -0.067051
v 0.150091 0.183866 -0.070065
v 0.147565 0.187660 -0.055846
v 0.148279 0.180980 -0.059308
v 0.151068 0.184380 -0.069332
v 0.149401 0.181571 -0.058465
v 0.148677 0.186815 -0.055821
v 0.150437 0.188946 -0.067030
v 0.151902 0.186752 -0.080822
v 0.151373 0.191703 -0.078256
v 0.152197 0.191077 -0.078238
v 0.152734 0.187190 -0.080198
v 0.153008 0.190429 -0.078238
v 0.153324 0.187928 -0.079512
v 0.153827 0.188724 -0.078834
v 0.153706 0.189683 -0.078345
v 0.151390 0.188185 -0.067030
v 0.151760 0.185248 -0.068527
v 0.152352 0.186182 -0.067730
v 0.152210 0.187309 -0.067155
v 0.150197 0.182567 -0.057541
v 0.149771 0.185941 -0.055821
v 0.150876 0.183640 -0.056625
v 0.150713 0.184935 -0.055965
v 0.146917 0.184684 -0.044613
v 0.147735 0.178761 -0.047599
v 0.148153 0.183697 -0.044613
v 0.146069 0.175952 -0.036733
v 0.145157 0.182553 -0.033405
v 0.148633 0.179887 -0.046555
v 0.146535 0.181453 -0.033405
v 0.149217 0.182561 -0.044776
v 0.149401 0.181099 -0.045521
v 0.147070 0.177206 -0.035569
v 0.147720 0.180186 -0.033586
v 0.147925 0.178557 -0.034417
v 0.139500 0.173958 -0.027622
v 0.141044 0.172785 -0.027589
v 0.140053 0.182057 -0.022782
v 0.137154 0.172654 -0.019944
v 0.137977 0.171997 -0.019944
v 0.138353 0.171706 -0.019922
v 0.138408 0.171663 -0.019919
v 0.138784 0.171372 -0.019897
v 0.141853 0.181595 -0.022230
v 0.139559 0.170652 -0.019556
v 0.139901 0.170469 -0.019130
v 0.142845 0.172322 -0.027036
v 0.140111 0.170356 -0.018868
v 0.140458 0.170171 -0.018436
v 0.141033 0.169436 -0.016279
v 0.143397 0.180422 -0.022196
v 0.144403 0.173142 -0.025867
v 0.144916 0.179209 -0.022196
v 0.145507 0.174525 -0.024583
v 0.142736 0.170332 -0.015001
v 0.146450 0.176015 -0.023313
v 0.143943 0.171845 -0.013598
v 0.139949 0.179573 -0.011025
v 0.140945 0.169459 -0.016306
v 0.140982 0.169405 -0.016147
v 0.140999 0.169381 -0.016072
v 0.140993 0.169389 -0.016097
v 0.141637 0.178291 -0.010988
v 0.139877 0.176160 0.000220
v 0.141070 0.167523 -0.004134
v 0.140877 0.167421 -0.004279
v 0.141506 0.168342 -0.007500
v 0.141023 0.167587 -0.004119
v 0.142047 0.168747 -0.002998
v 0.141679 0.174721 0.000220
v 0.142380 0.169164 -0.002612
v 0.143231 0.173064 -0.000017
v 0.143499 0.170932 -0.001104
v 0.141806 0.169331 -0.012491
v 0.141837 0.169329 -0.012350
v 0.141681 0.168863 -0.010061
v 0.143298 0.176965 -0.010988
v 0.144727 0.175438 -0.011207
v 0.146224 0.177812 -0.022396
v 0.144974 0.173473 -0.012208
v 0.142869 0.169976 -0.004420
v 0.141988 0.168795 -0.005232
v 0.142255 0.169110 -0.004580
v 0.142556 0.169465 -0.003846
v 0.142358 0.169178 -0.003383
v 0.142518 0.169401 -0.003582
v 0.142716 0.169721 -0.003853
v 0.143466 0.170939 -0.004882
v 0.143492 0.170983 -0.004919
v 0.143455 0.170926 -0.005087
v 0.143391 0.170828 -0.005377
v 0.121425 0.154967 -0.078345
v 0.121304 0.155927 -0.078834
v 0.123974 0.155300 -0.079686
v 0.122123 0.154221 -0.078238
v 0.122934 0.153574 -0.078238
v 0.121807 0.156722 -0.079512
v 0.122397 0.157461 -0.080198
v 0.123229 0.157898 -0.080822
v 0.124063 0.160270 -0.069332
v 0.122921 0.157341 -0.067155
v 0.122779 0.158468 -0.067730
v 0.123371 0.159403 -0.068527
v 0.123741 0.156465 -0.067030
v 0.123758 0.152948 -0.078256
v 0.124719 0.152701 -0.078551
v 0.124190 0.157651 -0.081117
v 0.125040 0.160784 -0.070065
v 0.125551 0.153138 -0.079175
v 0.126141 0.153877 -0.079860
v 0.125014 0.157025 -0.081135
v 0.125825 0.156378 -0.081135
v 0.126169 0.160494 -0.070411
v 0.124694 0.155705 -0.067030
v 0.125662 0.154969 -0.067051
v 0.126852 0.163670 -0.059308
v 0.124255 0.161010 -0.056625
v 0.124418 0.159716 -0.055965
v 0.124934 0.162083 -0.057541
v 0.125729 0.163080 -0.058465
v 0.125359 0.158709 -0.055821
v 0.126523 0.155632 -0.081028
v 0.126644 0.154672 -0.080539
v 0.127138 0.159759 -0.070432
v 0.128090 0.158998 -0.070432
v 0.128461 0.156061 -0.068935
v 0.128910 0.158122 -0.070307
v 0.126791 0.154679 -0.067397
v 0.127768 0.155193 -0.068131
v 0.129052 0.156995 -0.069732
v 0.128149 0.163337 -0.059706
v 0.126454 0.157836 -0.055821
v 0.127566 0.156991 -0.055846
v 0.129261 0.162492 -0.059730
v 0.130355 0.161619 -0.059730
v 0.128863 0.156658 -0.056244
v 0.129985 0.157248 -0.057086
v 0.126497 0.164764 -0.046555
v 0.125730 0.163552 -0.045521
v 0.125914 0.162090 -0.044776
v 0.127396 0.165889 -0.047599
v 0.126978 0.160953 -0.044613
v 0.128663 0.166556 -0.048551
v 0.130128 0.166180 -0.049000
v 0.128214 0.159967 -0.044613
v 0.129470 0.159013 -0.044640
v 0.127206 0.166094 -0.034417
v 0.128061 0.167445 -0.035569
v 0.127411 0.164464 -0.033586
v 0.129062 0.168699 -0.036733
v 0.128596 0.163197 -0.033405
v 0.130475 0.169442 -0.037793
v 0.129974 0.162098 -0.033405
v 0.131297 0.160612 -0.059586
v 0.131460 0.159318 -0.058926
v 0.130780 0.158245 -0.058010
v 0.131384 0.165226 -0.049027
v 0.132620 0.164239 -0.049027
v 0.130935 0.158636 -0.045090
v 0.132202 0.159303 -0.046041
v 0.133684 0.163103 -0.048865
v 0.133100 0.160429 -0.047085
v 0.133868 0.161641 -0.048119
v 0.132107 0.169023 -0.038294
v 0.131374 0.161034 -0.033435
v 0.133507 0.167959 -0.038325
v 0.133006 0.160615 -0.033936
v 0.134885 0.166860 -0.038325
v 0.134419 0.161358 -0.034996
v 0.135420 0.162612 -0.036160
v 0.136070 0.165593 -0.038143
v 0.136275 0.163963 -0.037313
v 0.128681 0.168635 -0.023313
v 0.129624 0.170125 -0.024583
v 0.130728 0.171508 -0.025867
v 0.128907 0.166838 -0.022396
v 0.130215 0.165441 -0.022196
v 0.130157 0.171177 -0.012208
v 0.132286 0.172328 -0.027036
v 0.134087 0.171866 -0.027589
v 0.131734 0.164229 -0.022196
v 0.131187 0.172806 -0.013598
v 0.132395 0.174318 -0.015001
v 0.133278 0.163056 -0.022230
v 0.134098 0.175214 -0.016279
v 0.135078 0.162593 -0.022782
v 0.136636 0.163413 -0.023952
v 0.135631 0.170693 -0.027622
v 0.137150 0.169480 -0.027622
v 0.138457 0.168083 -0.027422
v 0.137740 0.164796 -0.025235
v 0.138683 0.166286 -0.026506
v 0.130404 0.169213 -0.011207
v 0.131833 0.167686 -0.010988
v 0.133494 0.166360 -0.010988
v 0.134061 0.177128 -0.004134
v 0.131632 0.173719 -0.001104
v 0.131900 0.171587 -0.000017
v 0.133451 0.169930 0.000220
v 0.132751 0.175487 -0.002612
v 0.135182 0.165077 -0.011025
v 0.137150 0.164572 -0.011629
v 0.138853 0.165468 -0.012907
v 0.135254 0.168491 0.000220
v 0.137086 0.167099 0.000180
v 0.141091 0.168609 -0.015699
v 0.140060 0.166980 -0.014310
v 0.139222 0.166550 -0.000475
v 0.141070 0.167523 -0.001862
v 0.143499 0.170932 -0.004893
v 0.142380 0.169164 -0.003385
v 0.136393 -0.177473 -0.027036
v 0.137243 -0.175820 -0.027589
v 0.138806 -0.179879 -0.037793
v 0.134824 -0.174668 -0.018436
v 0.135082 -0.174371 -0.018868
v 0.133980 -0.175067 -0.016279
v 0.139218 -0.181421 -0.036733
v 0.136847 -0.179173 -0.025867
v 0.135237 -0.174192 -0.019130
v 0.135492 -0.173899 -0.019556
v 0.137951 -0.180557 -0.024583
v 0.134477 -0.176926 -0.015001
v 0.136365 -0.173303 -0.019897
v 0.136733 -0.173000 -0.019919
v 0.136787 -0.172956 -0.019922
v 0.137154 -0.172654 -0.019944
v 0.132106 -0.174679 -0.004134
v 0.132050 -0.174468 -0.004279
v 0.132808 -0.175286 -0.007500
v 0.132179 -0.174647 -0.004119
v 0.133083 -0.175903 -0.002998
v 0.133143 -0.175856 -0.005232
v 0.133416 -0.176320 -0.002612
v 0.133435 -0.176302 -0.003383
v 0.133616 -0.176507 -0.003582
v 0.133933 -0.175021 -0.016072
v 0.133943 -0.175017 -0.016097
v 0.133961 -0.175010 -0.016147
v 0.134021 -0.174986 -0.016306
v 0.133697 -0.175827 -0.012349
v 0.133706 -0.175797 -0.012491
v 0.133277 -0.175572 -0.010061
v 0.135684 -0.178438 -0.013598
v 0.139195 -0.181806 -0.023313
v 0.137044 -0.179804 -0.012208
v 0.134100 -0.176977 -0.004420
v 0.133391 -0.176186 -0.004580
v 0.133671 -0.176558 -0.003846
v 0.134814 -0.177674 -0.005377
v 0.133885 -0.176770 -0.003853
v 0.134892 -0.177802 -0.001104
v 0.134907 -0.177772 -0.004882
v 0.134943 -0.177808 -0.004919
v 0.137565 -0.172325 -0.002998
v 0.134896 -0.177759 -0.005087
v 0.139014 -0.179999 -0.011207
v 0.137031 -0.178013 -0.000017
v 0.146045 -0.187096 -0.070065
v 0.146330 -0.188163 -0.069332
v 0.143632 -0.184690 -0.059308
v 0.144244 -0.183499 -0.059706
v 0.146578 -0.186059 -0.070411
v 0.143959 -0.185915 -0.058465
v 0.147022 -0.189030 -0.068527
v 0.144754 -0.186912 -0.057541
v 0.145314 -0.182602 -0.059730
v 0.141219 -0.182284 -0.048551
v 0.141588 -0.183668 -0.047599
v 0.139577 -0.178380 -0.038294
v 0.141910 -0.180939 -0.049000
v 0.142487 -0.184793 -0.046555
v 0.140924 -0.177250 -0.038325
v 0.143119 -0.179926 -0.049027
v 0.144355 -0.178939 -0.049027
v 0.146409 -0.181729 -0.059730
v 0.145650 -0.187812 -0.056625
v 0.143499 -0.185810 -0.045521
v 0.146949 -0.187940 -0.055965
v 0.145699 -0.178154 -0.048865
v 0.140219 -0.182675 -0.035569
v 0.142301 -0.176150 -0.038325
v 0.141347 -0.183808 -0.034417
v 0.144965 -0.185955 -0.044776
v 0.143799 -0.175275 -0.038143
v 0.146309 -0.185169 -0.044613
v 0.142982 -0.183969 -0.033586
v 0.145434 -0.175436 -0.037313
v 0.148458 -0.189502 -0.080822
v 0.148700 -0.190410 -0.080198
v 0.147510 -0.185278 -0.070432
v 0.148911 -0.188619 -0.081117
v 0.149290 -0.191149 -0.079512
v 0.149705 -0.187954 -0.081135
v 0.151157 -0.189351 -0.079686
v 0.148462 -0.184518 -0.070432
v 0.150516 -0.187307 -0.081135
v 0.149954 -0.191816 -0.078834
v 0.147802 -0.189814 -0.067730
v 0.150916 -0.191911 -0.078345
v 0.149498 -0.183912 -0.070307
v 0.148933 -0.189925 -0.067155
v 0.147598 -0.181033 -0.059586
v 0.148897 -0.181161 -0.058926
v 0.150628 -0.184024 -0.069732
v 0.149968 -0.189320 -0.067030
v 0.148139 -0.187244 -0.055821
v 0.150921 -0.188559 -0.067030
v 0.149793 -0.182061 -0.058010
v 0.151398 -0.186791 -0.081028
v 0.151798 -0.191395 -0.078238
v 0.152360 -0.186886 -0.080539
v 0.152609 -0.190748 -0.078238
v 0.151409 -0.184807 -0.068935
v 0.153024 -0.187553 -0.079860
v 0.153402 -0.190083 -0.078256
v 0.153856 -0.189200 -0.078551
v 0.153614 -0.188292 -0.079175
v 0.152101 -0.185675 -0.068131
v 0.152386 -0.186741 -0.067397
v 0.151853 -0.187778 -0.067051
v 0.149233 -0.186371 -0.055821
v 0.150588 -0.183058 -0.057086
v 0.150303 -0.185474 -0.055846
v 0.150916 -0.184283 -0.056244
v 0.147165 -0.178298 -0.048119
v 0.148177 -0.179315 -0.047085
v 0.147545 -0.184183 -0.044613
v 0.144479 -0.183094 -0.033405
v 0.146562 -0.176569 -0.036160
v 0.148754 -0.183169 -0.044640
v 0.145857 -0.181994 -0.033405
v 0.149076 -0.180440 -0.046041
v 0.149445 -0.181824 -0.045090
v 0.147204 -0.180865 -0.033435
v 0.147563 -0.177823 -0.034996
v 0.147975 -0.179365 -0.033936
v 0.138729 -0.174574 -0.027622
v 0.140248 -0.173361 -0.027622
v 0.141900 -0.172396 -0.027422
v 0.137977 -0.171997 -0.019944
v 0.138344 -0.171695 -0.019922
v 0.138398 -0.171650 -0.019919
v 0.138766 -0.171348 -0.019897
v 0.139639 -0.170752 -0.019556
v 0.140998 -0.181984 -0.022396
v 0.139894 -0.170459 -0.019130
v 0.140049 -0.170279 -0.018868
v 0.140307 -0.169982 -0.018436
v 0.141109 -0.169665 -0.016306
v 0.143702 -0.172573 -0.026506
v 0.144946 -0.173823 -0.025235
v 0.142650 -0.181018 -0.022196
v 0.141971 -0.169711 -0.015699
v 0.144169 -0.179806 -0.022196
v 0.145655 -0.178560 -0.022230
v 0.143330 -0.171077 -0.014310
v 0.144538 -0.172589 -0.012907
v 0.146050 -0.175206 -0.023952
v 0.141170 -0.169641 -0.016147
v 0.141188 -0.169634 -0.016097
v 0.141197 -0.169630 -0.016072
v 0.140820 -0.178943 -0.010988
v 0.141425 -0.168854 -0.012491
v 0.141434 -0.168823 -0.012349
v 0.138990 -0.176868 0.000220
v 0.140792 -0.175429 0.000220
v 0.142481 -0.177617 -0.010988
v 0.142556 -0.173951 0.000180
v 0.143025 -0.169972 -0.001862
v 0.142047 -0.168747 -0.002998
v 0.143564 -0.171990 -0.000475
v 0.140239 -0.166848 -0.004893
v 0.140235 -0.166892 -0.005087
v 0.140188 -0.166843 -0.004919
v 0.140224 -0.166879 -0.004882
v 0.140317 -0.166976 -0.005377
v 0.141031 -0.167674 -0.004420
v 0.141246 -0.167880 -0.003853
v 0.141460 -0.168093 -0.003846
v 0.141515 -0.168144 -0.003582
v 0.141715 -0.168331 -0.003385
v 0.141853 -0.169079 -0.010061
v 0.142323 -0.169365 -0.007500
v 0.146505 -0.176907 -0.022782
v 0.144105 -0.176255 -0.011025
v 0.145034 -0.174448 -0.011629
v 0.143081 -0.170182 -0.004279
v 0.141988 -0.168795 -0.005232
v 0.141740 -0.168465 -0.004580
v 0.141696 -0.168349 -0.003383
v 0.142952 -0.170003 -0.004119
v 0.121517 -0.156359 -0.079175
v 0.121275 -0.155451 -0.078551
v 0.123974 -0.155300 -0.079686
v 0.122107 -0.157097 -0.079860
v 0.122771 -0.157764 -0.080539
v 0.123722 -0.159843 -0.068935
v 0.121728 -0.154568 -0.078256
v 0.122522 -0.153903 -0.078238
v 0.123333 -0.153255 -0.078238
v 0.122745 -0.157909 -0.067397
v 0.123030 -0.158976 -0.068131
v 0.123278 -0.156872 -0.067051
v 0.124210 -0.156091 -0.067030
v 0.123733 -0.157859 -0.081028
v 0.124615 -0.157344 -0.081135
v 0.124502 -0.160627 -0.069732
v 0.124215 -0.152740 -0.078345
v 0.125426 -0.156696 -0.081135
v 0.126220 -0.156031 -0.081117
v 0.125633 -0.160738 -0.070307
v 0.125177 -0.152835 -0.078834
v 0.125841 -0.153502 -0.079512
v 0.125163 -0.155331 -0.067030
v 0.126198 -0.154725 -0.067155
v 0.124543 -0.161593 -0.057086
v 0.124215 -0.160368 -0.056244
v 0.124828 -0.159177 -0.055846
v 0.125338 -0.162589 -0.058010
v 0.125898 -0.158280 -0.055821
v 0.126669 -0.160133 -0.070432
v 0.126673 -0.155148 -0.080822
v 0.126431 -0.154240 -0.080198
v 0.127621 -0.159372 -0.070432
v 0.128553 -0.158591 -0.070411
v 0.128801 -0.156488 -0.069332
v 0.127329 -0.154837 -0.067730
v 0.128109 -0.155620 -0.068527
v 0.129086 -0.157554 -0.070065
v 0.126234 -0.163489 -0.058926
v 0.127532 -0.163617 -0.059586
v 0.126992 -0.157406 -0.055821
v 0.128182 -0.156711 -0.055965
v 0.128722 -0.162922 -0.059730
v 0.129817 -0.162048 -0.059730
v 0.129480 -0.156839 -0.056625
v 0.130377 -0.157739 -0.057541
v 0.131172 -0.158735 -0.058465
v 0.126055 -0.164210 -0.046041
v 0.125686 -0.162826 -0.045090
v 0.126377 -0.161481 -0.044640
v 0.126954 -0.165335 -0.047085
v 0.127586 -0.160468 -0.044613
v 0.127966 -0.166352 -0.048119
v 0.128822 -0.159481 -0.044613
v 0.129432 -0.166497 -0.048865
v 0.130166 -0.158696 -0.044776
v 0.127156 -0.165285 -0.033936
v 0.127568 -0.166827 -0.034996
v 0.127927 -0.163786 -0.033435
v 0.128569 -0.168082 -0.036160
v 0.129274 -0.162656 -0.033405
v 0.129697 -0.169215 -0.037313
v 0.130652 -0.161557 -0.033405
v 0.130887 -0.161151 -0.059706
v 0.131499 -0.159960 -0.059308
v 0.130776 -0.165711 -0.049027
v 0.132012 -0.164725 -0.049027
v 0.131632 -0.158840 -0.045521
v 0.132644 -0.159857 -0.046555
v 0.133221 -0.163711 -0.049000
v 0.133543 -0.160982 -0.047599
v 0.133912 -0.162366 -0.048551
v 0.131332 -0.169376 -0.038143
v 0.132149 -0.160681 -0.033586
v 0.132829 -0.168500 -0.038325
v 0.133784 -0.160842 -0.034417
v 0.134207 -0.167401 -0.038325
v 0.134912 -0.161975 -0.035569
v 0.135554 -0.166271 -0.038294
v 0.135913 -0.163230 -0.036733
v 0.136325 -0.164772 -0.037793
v 0.129081 -0.169444 -0.023952
v 0.128626 -0.167744 -0.022782
v 0.130185 -0.170828 -0.025235
v 0.129476 -0.166091 -0.022230
v 0.130962 -0.164845 -0.022196
v 0.130097 -0.170202 -0.011629
v 0.131429 -0.172077 -0.026506
v 0.133231 -0.172255 -0.027422
v 0.130593 -0.172062 -0.012907
v 0.131800 -0.173574 -0.014310
v 0.132481 -0.163632 -0.022196
v 0.133160 -0.174940 -0.015699
v 0.134133 -0.162667 -0.022396
v 0.134883 -0.171289 -0.027622
v 0.136402 -0.170077 -0.027622
v 0.135936 -0.162844 -0.023313
v 0.137180 -0.164094 -0.024583
v 0.137888 -0.168831 -0.027589
v 0.138284 -0.165477 -0.025867
v 0.138738 -0.167178 -0.027036
v 0.139447 -0.166212 -0.013598
v 0.131026 -0.168395 -0.011025
v 0.132650 -0.167033 -0.010988
v 0.134311 -0.165707 -0.010988
v 0.131567 -0.172661 -0.000475
v 0.132575 -0.170700 0.000180
v 0.132106 -0.174679 -0.001862
v 0.134338 -0.169221 0.000220
v 0.133416 -0.176320 -0.003385
v 0.136117 -0.164652 -0.011207
v 0.138087 -0.164846 -0.012208
v 0.134892 -0.177802 -0.004893
v 0.136141 -0.167783 0.000220
v 0.138100 -0.166637 -0.000017
v 0.141151 -0.169584 -0.016279
v 0.140654 -0.167724 -0.015001
v 0.143025 -0.169972 -0.004134
v 0.140239 -0.166848 -0.001104
v 0.141715 -0.168331 -0.002612
f 1 2 3
f 3 4 5
f 3 5 6
f 1 7 8
f 1 3 9
f 10 11 12
f 10 12 4
f 1 13 7
f 3 10 4
f 10 14 15
f 10 15 11
f 10 16 14
f 17 18 7
f 19 20 21
f 19 22 23
f 19 23 20
f 19 24 22
f 19 21 25
f 19 26 24
f 19 25 27
f 19 28 26
f 19 27 28
f 28 29 30
f 28 30 26
f 28 27 31
f 28 31 32
f 28 32 29
f 9 33 34
f 3 35 33
f 3 6 35
f 3 33 9
f 1 9 13
f 9 34 36
f 9 36 37
f 9 37 38
f 9 38 13
f 13 38 39
f 13 17 7
f 13 39 40
f 41 13 40
f 41 17 13
f 41 42 17
f 41 43 32
f 41 40 43
f 41 32 44
f 17 42 45
f 41 44 42
f 42 46 45
f 42 44 46
f 47 48 49
f 50 47 51
f 47 49 51
f 50 52 53
f 50 51 52
f 48 54 49
f 53 52 55
f 56 57 2
f 58 59 8
f 59 2 8
f 58 8 60
f 59 56 2
f 58 60 61
f 59 49 54
f 58 49 59
f 58 61 51
f 58 51 49
f 61 52 51
f 59 54 56
f 56 54 62
f 63 62 64
f 52 65 55
f 56 62 63
f 63 64 66
f 55 67 68
f 61 65 52
f 56 63 57
f 57 63 69
f 61 70 65
f 69 63 66
f 69 66 71
f 72 67 65
f 55 65 67
f 67 73 68
f 67 74 73
f 66 75 71
f 75 76 71
f 50 77 78
f 50 78 47
f 47 79 48
f 50 53 77
f 53 80 81
f 47 78 79
f 53 81 77
f 77 82 78
f 78 82 79
f 77 81 82
f 48 79 83
f 84 83 85
f 80 86 81
f 48 83 84
f 80 87 86
f 84 85 88
f 86 87 89
f 89 87 90
f 48 84 54
f 84 88 62
f 53 55 80
f 84 62 54
f 80 68 87
f 62 88 64
f 64 88 91
f 92 90 87
f 64 91 93
f 93 94 95
f 90 96 97
f 79 82 83
f 81 86 82
f 83 82 85
f 86 89 82
f 85 98 88
f 89 99 82
f 85 82 98
f 82 99 100
f 91 98 101
f 88 98 91
f 89 90 99
f 97 100 99
f 91 101 94
f 82 101 98
f 82 100 102
f 82 103 101
f 82 104 103
f 82 102 105
f 94 101 103
f 82 105 104
f 100 106 102
f 94 103 107
f 104 108 107
f 105 109 108
f 103 104 107
f 104 105 108
f 102 109 105
f 90 97 99
f 93 91 94
f 97 106 100
f 94 107 95
f 107 110 95
f 97 111 106
f 107 108 110
f 109 112 108
f 106 113 109
f 102 106 109
f 80 55 68
f 68 92 87
f 66 64 93
f 66 93 75
f 68 73 92
f 92 114 96
f 92 96 90
f 97 96 111
f 75 95 115
f 93 95 75
f 115 95 110
f 116 111 96
f 92 73 114
f 75 115 76
f 115 117 76
f 73 118 114
f 115 119 117
f 114 120 116
f 114 116 96
f 115 110 119
f 116 121 111
f 112 122 119
f 113 121 122
f 119 122 123
f 116 124 121
f 121 125 122
f 106 111 113
f 108 112 110
f 109 113 112
f 110 112 119
f 111 121 113
f 113 122 112
f 1 8 2
f 3 57 10
f 3 2 57
f 8 7 60
f 61 60 70
f 10 57 69
f 10 69 126
f 60 18 70
f 126 69 71
f 126 71 127
f 70 128 72
f 60 7 18
f 10 126 16
f 126 129 16
f 126 130 129
f 126 131 130
f 126 132 131
f 127 133 132
f 18 128 70
f 72 128 134
f 126 127 132
f 127 135 133
f 127 136 135
f 127 137 136
f 137 138 136
f 137 139 138
f 140 139 137
f 70 72 65
f 72 74 67
f 127 71 76
f 127 76 137
f 73 74 118
f 76 117 137
f 72 134 74
f 134 141 74
f 140 137 142
f 137 117 142
f 74 141 118
f 118 141 143
f 142 123 144
f 118 143 120
f 142 144 145
f 144 146 147
f 17 45 18
f 18 45 128
f 128 45 148
f 128 148 134
f 140 149 139
f 140 150 149
f 140 151 152
f 140 152 150
f 140 145 151
f 134 148 153
f 45 46 148
f 46 44 154
f 46 154 148
f 155 156 157
f 155 158 156
f 155 159 158
f 154 153 148
f 154 44 160
f 161 44 159
f 154 160 153
f 160 44 162
f 161 163 44
f 162 44 163
f 134 153 141
f 140 142 145
f 145 164 151
f 145 165 164
f 145 166 165
f 145 157 166
f 155 145 147
f 153 167 141
f 144 147 145
f 141 167 143
f 143 168 169
f 146 170 147
f 169 168 170
f 143 167 168
f 147 170 171
f 155 157 145
f 155 147 172
f 153 160 167
f 147 173 172
f 147 174 173
f 147 171 174
f 155 172 159
f 161 159 175
f 161 175 176
f 161 176 177
f 161 177 163
f 160 162 167
f 163 178 179
f 163 177 178
f 170 180 181
f 168 163 170
f 170 181 171
f 170 179 180
f 170 163 179
f 167 162 168
f 168 162 163
f 114 118 120
f 119 123 117
f 116 120 124
f 142 117 123
f 123 125 144
f 125 124 146
f 122 125 123
f 121 124 125
f 143 169 120
f 125 146 144
f 120 169 124
f 124 169 146
f 146 169 170
f 182 183 184
f 182 184 185
f 185 184 186
f 183 187 184
f 187 188 184
f 188 189 184
f 187 190 188
f 182 185 191
f 182 192 183
f 183 193 187
f 185 186 194
f 183 192 193
f 182 191 192
f 187 193 190
f 186 184 195
f 184 196 195
f 184 189 197
f 188 198 189
f 184 199 196
f 184 200 199
f 184 197 201
f 184 201 202
f 189 203 197
f 186 195 204
f 188 190 198
f 195 196 205
f 189 198 203
f 185 194 191
f 186 204 194
f 195 205 204
f 190 206 198
f 192 191 207
f 191 194 208
f 192 209 193
f 193 210 190
f 194 204 211
f 193 209 210
f 184 202 212
f 184 213 200
f 184 212 213
f 197 214 201
f 201 215 202
f 200 213 216
f 212 202 217
f 196 199 218
f 196 218 205
f 197 203 214
f 199 200 219
f 199 219 218
f 201 214 215
f 212 220 213
f 200 216 219
f 213 220 216
f 202 215 217
f 212 217 220
f 198 221 203
f 204 205 222
f 190 210 206
f 205 218 223
f 198 206 221
f 203 224 214
f 214 225 215
f 218 219 226
f 203 221 224
f 219 216 227
f 214 224 225
f 192 207 209
f 191 208 207
f 194 211 208
f 207 228 209
f 207 208 229
f 208 211 230
f 204 222 211
f 205 223 222
f 209 231 210
f 211 222 232
f 210 233 206
f 210 231 233
f 218 226 223
f 206 234 221
f 219 227 226
f 222 223 235
f 223 226 236
f 206 233 234
f 208 230 229
f 207 229 228
f 211 232 230
f 209 228 231
f 222 235 232
f 229 230 237
f 228 229 238
f 230 232 239
f 223 236 235
f 228 240 231
f 232 235 241
f 231 242 233
f 235 236 243
f 231 240 242
f 215 244 217
f 217 245 220
f 216 220 246
f 215 225 244
f 216 246 227
f 220 245 246
f 217 244 245
f 221 247 224
f 224 248 225
f 226 227 249
f 221 234 247
f 227 246 250
f 224 247 248
f 225 251 244
f 246 245 252
f 244 253 245
f 225 248 251
f 244 251 253
f 245 253 252
f 226 249 236
f 227 250 249
f 233 254 234
f 236 249 255
f 233 242 254
f 246 252 250
f 234 256 247
f 234 254 256
f 249 250 257
f 247 258 248
f 250 252 259
f 247 256 258
f 252 253 260
f 248 261 251
f 251 262 253
f 248 258 261
f 253 262 260
f 251 261 262
f 229 237 238
f 230 239 237
f 228 238 240
f 232 241 239
f 235 243 241
f 237 239 263
f 238 237 264
f 238 265 240
f 239 241 266
f 239 266 263
f 241 267 266
f 237 263 264
f 266 268 263
f 236 255 243
f 240 269 242
f 249 257 255
f 250 259 257
f 242 270 254
f 242 269 270
f 241 243 267
f 243 255 271
f 243 271 267
f 238 264 265
f 240 265 269
f 263 272 264
f 264 273 265
f 255 274 271
f 255 257 274
f 265 275 269
f 252 260 259
f 257 259 276
f 259 260 277
f 254 278 256
f 254 270 278
f 256 279 258
f 256 278 279
f 258 280 261
f 260 262 281
f 261 282 262
f 258 279 280
f 257 276 274
f 259 277 276
f 269 12 270
f 269 5 4
f 269 275 5
f 269 4 12
f 270 14 278
f 270 12 11
f 270 11 15
f 260 281 277
f 270 15 14
f 278 14 16
f 278 16 129
f 278 131 279
f 278 129 130
f 278 130 131
f 266 267 283
f 267 271 284
f 267 284 283
f 266 283 268
f 263 268 272
f 264 272 273
f 268 24 272
f 271 274 285
f 271 285 284
f 265 273 275
f 273 36 34
f 273 37 36
f 272 286 273
f 273 38 37
f 273 39 38
f 268 283 287
f 268 23 22
f 268 20 23
f 283 284 288
f 268 22 24
f 268 287 20
f 283 288 287
f 272 30 29
f 272 24 26
f 272 26 30
f 272 29 286
f 273 286 39
f 284 285 289
f 287 21 20
f 287 25 21
f 284 289 288
f 287 290 25
f 290 27 25
f 290 31 27
f 290 32 31
f 286 29 32
f 274 276 291
f 274 291 285
f 273 34 275
f 275 6 5
f 33 275 34
f 275 33 35
f 275 35 6
f 276 277 292
f 276 292 291
f 277 293 292
f 285 291 294
f 286 40 39
f 286 32 43
f 285 294 289
f 286 43 40
f 290 44 32
f 287 288 44
f 287 44 290
f 288 289 44
f 289 294 44
f 291 292 295
f 291 295 294
f 294 295 44
f 261 280 282
f 262 282 281
f 281 293 277
f 282 280 296
f 281 282 297
f 279 138 280
f 279 131 132
f 279 132 133
f 279 133 135
f 279 135 136
f 279 136 138
f 280 138 139
f 149 280 139
f 281 297 293
f 282 296 297
f 280 149 150
f 280 150 152
f 280 152 296
f 296 152 151
f 297 296 166
f 296 151 164
f 296 164 165
f 296 165 166
f 297 166 157
f 292 293 298
f 292 298 295
f 295 298 44
f 298 299 44
f 293 297 299
f 293 299 298
f 297 157 156
f 297 156 299
f 299 156 158
f 299 158 159
f 299 159 44
f 300 171 181
f 300 181 180
f 300 180 179
f 300 179 178
f 301 159 172
f 301 172 173
f 301 173 174
f 301 175 159
f 301 176 175
f 300 176 301
f 300 301 174
f 300 177 176
f 300 174 171
f 300 178 177
f 302 303 304
f 302 305 306
f 302 307 305
f 302 308 309
f 302 309 307
f 302 310 303
f 302 306 310
f 303 310 311
f 309 312 313
f 303 311 314
f 303 314 315
f 303 315 316
f 303 316 317
f 318 319 320
f 318 320 313
f 318 321 319
f 318 322 321
f 318 323 322
f 324 322 325
f 324 325 326
f 307 327 328
f 307 328 329
f 307 329 330
f 307 330 305
f 307 313 327
f 309 313 307
f 313 331 332
f 313 332 327
f 313 333 331
f 313 320 333
f 318 313 334
f 313 312 334
f 334 335 336
f 334 336 337
f 318 334 323
f 334 338 323
f 334 339 338
f 334 337 339
f 336 340 337
f 324 326 341
f 324 341 342
f 342 343 344
f 342 341 343
f 324 345 322
f 324 342 345
f 336 346 340
f 336 344 346
f 336 342 344
f 336 347 342
f 342 348 345
f 342 347 348
f 349 350 351
f 349 352 353
f 350 354 351
f 349 351 352
f 355 356 354
f 353 352 357
f 358 359 304
f 358 304 360
f 359 308 304
f 358 360 361
f 359 362 308
f 361 360 363
f 361 352 351
f 358 361 351
f 358 354 359
f 358 351 354
f 359 354 356
f 361 364 352
f 352 364 357
f 357 365 366
f 362 356 367
f 357 364 365
f 368 367 369
f 365 370 366
f 359 356 362
f 362 368 371
f 361 363 364
f 363 372 364
f 373 368 374
f 372 365 364
f 372 375 365
f 362 367 368
f 368 369 374
f 365 375 370
f 374 376 377
f 370 375 378
f 349 379 380
f 349 353 379
f 353 381 382
f 349 380 350
f 350 383 355
f 353 382 379
f 350 380 383
f 381 384 382
f 379 382 385
f 379 385 380
f 380 385 383
f 384 386 387
f 355 383 388
f 381 386 384
f 355 388 389
f 389 388 390
f 387 386 391
f 389 390 392
f 353 357 381
f 381 366 386
f 350 355 354
f 355 389 356
f 381 357 366
f 389 392 367
f 366 393 386
f 393 391 386
f 391 394 395
f 369 392 396
f 393 394 391
f 397 396 398
f 395 394 399
f 382 384 385
f 383 385 388
f 384 387 385
f 388 385 390
f 387 391 400
f 387 400 385
f 390 385 401
f 400 402 385
f 395 402 400
f 390 401 392
f 391 395 400
f 396 401 403
f 395 404 402
f 385 402 405
f 385 403 401
f 385 406 403
f 385 407 406
f 385 405 408
f 402 404 405
f 385 408 407
f 398 403 406
f 405 404 409
f 407 410 411
f 408 409 410
f 405 409 408
f 408 410 407
f 406 407 411
f 392 401 396
f 396 403 398
f 395 399 404
f 398 411 412
f 404 399 413
f 411 410 414
f 404 413 409
f 409 415 410
f 398 406 411
f 389 367 356
f 366 370 393
f 367 392 369
f 374 369 397
f 393 370 416
f 369 396 397
f 397 398 412
f 393 416 394
f 397 412 376
f 416 417 394
f 417 399 394
f 418 412 414
f 374 397 376
f 376 412 418
f 376 418 419
f 370 378 416
f 416 378 420
f 418 421 422
f 416 420 417
f 417 423 399
f 418 414 421
f 413 423 424
f 415 424 421
f 421 424 425
f 417 426 423
f 423 427 424
f 411 414 412
f 409 413 415
f 410 415 414
f 399 423 413
f 414 415 421
f 413 424 415
f 304 303 360
f 302 304 308
f 360 303 428
f 309 308 371
f 362 371 308
f 312 371 373
f 360 428 363
f 428 429 363
f 335 373 377
f 363 429 372
f 372 429 430
f 309 371 312
f 312 373 335
f 334 312 335
f 303 317 428
f 428 317 431
f 428 431 432
f 428 432 433
f 428 434 429
f 428 433 434
f 429 434 435
f 335 377 436
f 429 435 437
f 429 437 438
f 429 438 430
f 430 438 439
f 439 440 430
f 371 368 373
f 373 374 377
f 372 430 375
f 430 441 375
f 376 419 377
f 375 441 378
f 378 442 420
f 436 377 419
f 436 419 443
f 430 444 441
f 443 419 422
f 443 422 445
f 378 441 442
f 445 425 446
f 441 447 442
f 442 448 449
f 336 335 436
f 336 436 347
f 436 443 347
f 440 450 430
f 430 450 451
f 444 451 452
f 443 453 347
f 444 452 454
f 444 454 455
f 348 347 453
f 348 456 345
f 348 453 456
f 456 457 345
f 456 453 458
f 457 459 345
f 456 458 457
f 460 461 345
f 459 462 345
f 460 345 462
f 463 464 465
f 463 465 466
f 463 467 464
f 463 468 467
f 463 466 469
f 463 470 468
f 463 469 471
f 463 472 470
f 463 471 472
f 443 445 453
f 430 451 444
f 444 447 441
f 444 455 473
f 453 445 458
f 444 473 447
f 447 473 474
f 458 445 446
f 442 447 448
f 446 475 476
f 449 448 477
f 475 477 476
f 458 446 476
f 458 476 457
f 447 474 478
f 447 460 448
f 447 478 460
f 472 479 480
f 472 480 470
f 472 461 479
f 472 471 481
f 472 481 461
f 457 476 459
f 460 482 461
f 460 478 482
f 459 476 477
f 448 462 477
f 448 460 462
f 459 477 462
f 418 422 419
f 421 425 422
f 417 420 426
f 420 449 426
f 426 475 427
f 424 427 425
f 423 426 427
f 445 422 425
f 442 449 420
f 426 449 475
f 427 475 446
f 425 427 446
f 449 477 475
f 483 484 485
f 483 485 486
f 486 485 487
f 486 487 488
f 484 489 485
f 489 490 485
f 490 491 485
f 483 492 484
f 483 486 493
f 484 494 489
f 483 493 492
f 484 492 494
f 486 488 493
f 489 495 490
f 487 485 496
f 496 485 497
f 487 496 498
f 491 499 485
f 485 500 497
f 485 501 500
f 496 497 502
f 485 499 503
f 485 503 504
f 487 498 488
f 490 505 491
f 496 502 498
f 491 506 499
f 489 494 495
f 490 495 505
f 491 505 506
f 493 488 507
f 492 493 508
f 492 509 494
f 488 498 510
f 494 511 495
f 488 510 507
f 497 500 512
f 485 513 501
f 485 514 513
f 485 504 514
f 500 501 515
f 501 513 516
f 504 517 514
f 497 512 502
f 499 518 503
f 499 506 518
f 500 515 512
f 503 519 504
f 503 518 519
f 514 520 513
f 501 516 515
f 513 520 516
f 514 517 520
f 504 519 517
f 498 502 521
f 502 512 522
f 498 521 510
f 495 523 505
f 502 522 521
f 505 524 506
f 512 515 525
f 515 516 526
f 512 525 522
f 506 527 518
f 518 528 519
f 519 529 517
f 515 526 525
f 493 507 508
f 492 508 509
f 494 509 511
f 507 510 530
f 508 507 531
f 508 532 509
f 495 511 523
f 505 523 524
f 510 521 533
f 509 534 511
f 521 522 535
f 521 535 533
f 511 536 523
f 506 524 527
f 518 527 528
f 522 525 537
f 522 537 535
f 523 538 524
f 507 530 531
f 508 531 532
f 510 533 530
f 509 532 534
f 530 539 531
f 530 533 540
f 531 541 532
f 511 534 536
f 523 536 538
f 533 535 542
f 532 543 534
f 535 537 544
f 535 544 542
f 534 545 536
f 516 520 546
f 517 547 520
f 516 546 526
f 519 528 529
f 520 547 546
f 517 529 547
f 525 526 548
f 526 546 549
f 525 548 537
f 524 550 527
f 527 551 528
f 526 549 548
f 546 547 552
f 528 553 529
f 529 554 547
f 546 552 549
f 547 554 552
f 529 553 554
f 537 555 544
f 524 538 550
f 527 550 551
f 536 556 538
f 537 548 555
f 528 551 553
f 548 549 557
f 548 557 555
f 538 558 550
f 549 552 559
f 549 559 557
f 550 560 551
f 552 554 561
f 551 562 553
f 552 561 559
f 553 563 554
f 554 563 561
f 553 562 563
f 530 540 539
f 531 539 541
f 540 542 564
f 533 542 540
f 532 541 543
f 534 543 545
f 539 540 565
f 542 566 564
f 540 564 565
f 539 567 541
f 541 568 543
f 539 565 567
f 565 564 569
f 542 544 566
f 544 555 570
f 536 545 556
f 555 557 571
f 555 571 570
f 538 556 558
f 550 558 560
f 544 570 566
f 564 566 572
f 566 570 573
f 541 567 568
f 543 574 545
f 543 568 574
f 570 571 575
f 545 576 556
f 545 574 576
f 557 559 577
f 557 577 571
f 559 578 577
f 551 560 562
f 556 579 558
f 559 561 578
f 558 580 560
f 561 581 578
f 560 582 562
f 561 563 581
f 562 583 563
f 571 577 306
f 571 305 330
f 571 306 305
f 577 311 310
f 577 310 306
f 556 576 579
f 577 578 314
f 577 314 311
f 578 315 314
f 578 581 431
f 578 316 315
f 578 317 316
f 578 431 317
f 558 579 580
f 560 580 582
f 579 584 580
f 564 572 569
f 565 569 585
f 566 573 572
f 565 585 567
f 567 586 568
f 567 585 586
f 570 575 573
f 571 328 575
f 573 575 333
f 575 331 333
f 573 333 320
f 568 587 574
f 568 586 587
f 569 572 588
f 569 589 585
f 572 590 588
f 569 588 589
f 572 573 590
f 573 320 319
f 573 319 590
f 585 591 586
f 590 319 321
f 590 321 322
f 585 589 591
f 592 322 323
f 592 323 338
f 592 338 339
f 592 325 322
f 592 326 325
f 571 329 328
f 571 330 329
f 575 328 327
f 575 327 332
f 575 332 331
f 574 593 576
f 574 587 593
f 576 594 579
f 576 593 594
f 595 337 340
f 595 340 346
f 595 346 344
f 595 344 343
f 592 339 595
f 592 595 326
f 595 339 337
f 595 341 326
f 590 322 345
f 586 591 596
f 588 590 345
f 588 345 589
f 595 343 341
f 589 345 591
f 586 596 587
f 591 345 596
f 596 345 597
f 587 597 593
f 587 596 597
f 563 583 581
f 581 432 431
f 581 433 432
f 581 434 433
f 581 583 437
f 581 435 434
f 581 437 435
f 583 438 437
f 562 582 583
f 582 598 583
f 580 599 582
f 583 439 438
f 583 598 439
f 579 594 584
f 580 584 599
f 594 468 584
f 598 440 439
f 599 452 598
f 598 450 440
f 451 598 452
f 598 451 450
f 599 454 452
f 599 455 454
f 584 600 599
f 599 473 455
f 599 474 473
f 582 599 598
f 597 345 601
f 593 601 594
f 594 464 467
f 594 465 464
f 594 601 465
f 593 597 601
f 584 479 600
f 602 345 461
f 601 345 602
f 602 471 469
f 594 467 468
f 584 480 479
f 584 468 470
f 584 470 480
f 601 466 465
f 601 469 466
f 601 602 469
f 599 600 474
f 600 478 474
f 602 481 471
f 602 461 481
f 600 479 461
f 600 461 482
f 600 482 478
