# sionna2 mesh — mavic4pro__motor.obj
# group=motor  verts=1016  tris=2016
v 0.143019 0.146662 0.011504
v 0.141976 0.141545 0.015448
v 0.141460 0.147960 0.011504
v 0.139934 0.143244 0.015448
v 0.138088 0.145550 0.015448
v 0.140050 0.149721 0.011504
v 0.144152 0.140505 0.015448
v 0.144682 0.145867 0.011504
v 0.146397 0.145600 0.011504
v 0.146397 0.140154 0.015448
v 0.148111 0.145867 0.011504
v 0.148641 0.140505 0.015448
v 0.149774 0.146662 0.011504
v 0.150818 0.141545 0.015448
v 0.151334 0.147960 0.011504
v 0.152860 0.143244 0.015448
v 0.154706 0.145550 0.015448
v 0.137959 0.137141 0.020181
v 0.135549 0.140152 0.020181
v 0.136495 0.148393 0.015448
v 0.140625 0.134923 0.020181
v 0.143466 0.133564 0.020181
v 0.133469 0.143863 0.020181
v 0.146397 0.133107 0.020181
v 0.149327 0.133564 0.020181
v 0.152169 0.134923 0.020181
v 0.154835 0.137141 0.020181
v 0.157244 0.140152 0.020181
v 0.156299 0.148393 0.015448
v 0.159325 0.143863 0.020181
v 0.146397 0.163218 0.011504
v 0.138833 0.151893 0.011504
v 0.137845 0.154409 0.011504
v 0.137118 0.157192 0.011504
v 0.134250 0.155329 0.015448
v 0.136672 0.160158 0.011504
v 0.135202 0.151686 0.015448
v 0.136522 0.163218 0.011504
v 0.136672 0.166277 0.011504
v 0.137118 0.169243 0.011504
v 0.137845 0.172026 0.011504
v 0.138833 0.174542 0.011504
v 0.133667 0.159213 0.015448
v 0.133470 0.163218 0.015448
v 0.133667 0.167222 0.015448
v 0.134250 0.171106 0.015448
v 0.140050 0.176714 0.011504
v 0.141460 0.178475 0.011504
v 0.143019 0.179773 0.011504
v 0.135202 0.174749 0.015448
v 0.136495 0.178042 0.015448
v 0.138088 0.180885 0.015448
v 0.139934 0.183191 0.015448
v 0.141976 0.184890 0.015448
v 0.144682 0.180568 0.011504
v 0.144152 0.185931 0.015448
v 0.152744 0.149721 0.011504
v 0.153961 0.151893 0.011504
v 0.154948 0.154409 0.011504
v 0.155676 0.157192 0.011504
v 0.156121 0.160158 0.011504
v 0.156271 0.163218 0.011504
v 0.156121 0.166277 0.011504
v 0.155676 0.169243 0.011504
v 0.154948 0.172026 0.011504
v 0.153961 0.174542 0.011504
v 0.157591 0.151686 0.015448
v 0.158544 0.155329 0.015448
v 0.159127 0.159213 0.015448
v 0.159323 0.163218 0.015448
v 0.159127 0.167222 0.015448
v 0.158544 0.171106 0.015448
v 0.146397 0.180835 0.011504
v 0.148111 0.180568 0.011504
v 0.149774 0.179773 0.011504
v 0.151334 0.178475 0.011504
v 0.152744 0.176714 0.011504
v 0.146397 0.186281 0.015448
v 0.148641 0.185931 0.015448
v 0.150818 0.184890 0.015448
v 0.152860 0.183191 0.015448
v 0.154706 0.180885 0.015448
v 0.157591 0.174749 0.015448
v 0.156299 0.178042 0.015448
v 0.130538 0.152919 0.020181
v 0.131782 0.148162 0.020181
v 0.129777 0.157989 0.020181
v 0.129521 0.163218 0.020181
v 0.129777 0.168446 0.020181
v 0.130538 0.173516 0.020181
v 0.131782 0.178273 0.020181
v 0.133469 0.182572 0.020181
v 0.135549 0.186284 0.020181
v 0.137959 0.189294 0.020181
v 0.140625 0.191512 0.020181
v 0.143466 0.192871 0.020181
v 0.161012 0.148162 0.020181
v 0.162255 0.152919 0.020181
v 0.163016 0.157989 0.020181
v 0.163273 0.163218 0.020181
v 0.163016 0.168446 0.020181
v 0.162255 0.173516 0.020181
v 0.146397 0.193328 0.020181
v 0.149327 0.192871 0.020181
v 0.152169 0.191512 0.020181
v 0.154835 0.189294 0.020181
v 0.161012 0.178273 0.020181
v 0.157244 0.186284 0.020181
v 0.159325 0.182572 0.020181
v 0.132644 0.142627 0.033197
v 0.143279 0.131672 0.033197
v 0.137420 0.135477 0.033197
v 0.134857 0.138679 0.033197
v 0.140256 0.133117 0.033197
v 0.146397 0.131185 0.033197
v 0.149514 0.131672 0.033197
v 0.152537 0.133117 0.033197
v 0.155373 0.135477 0.033197
v 0.157937 0.138679 0.033197
v 0.160150 0.142627 0.033197
v 0.161945 0.147201 0.033197
v 0.130849 0.147201 0.033197
v 0.129526 0.152262 0.033197
v 0.128716 0.157655 0.033197
v 0.128443 0.163218 0.033197
v 0.128716 0.168780 0.033197
v 0.129526 0.174173 0.033197
v 0.130849 0.179234 0.033197
v 0.132644 0.183808 0.033197
v 0.134857 0.187756 0.033197
v 0.137420 0.190958 0.033197
v 0.140256 0.193318 0.033197
v 0.163267 0.152262 0.033197
v 0.164077 0.157655 0.033197
v 0.164350 0.163218 0.033197
v 0.164077 0.168780 0.033197
v 0.143279 0.194763 0.033197
v 0.146397 0.195250 0.033197
v 0.149514 0.194763 0.033197
v 0.152537 0.193318 0.033197
v 0.163267 0.174173 0.033197
v 0.161945 0.179234 0.033197
v 0.160150 0.183808 0.033197
v 0.155373 0.190958 0.033197
v 0.157937 0.187756 0.033197
v 0.133194 0.143451 0.043846
v 0.143404 0.132934 0.043846
v 0.135318 0.139661 0.043846
v 0.137779 0.136586 0.043846
v 0.140502 0.134321 0.043846
v 0.131471 0.147842 0.043846
v 0.146397 0.132466 0.043846
v 0.149390 0.132934 0.043846
v 0.152291 0.134321 0.043846
v 0.155014 0.136586 0.043846
v 0.157475 0.139661 0.043846
v 0.159600 0.143451 0.043846
v 0.161323 0.147842 0.043846
v 0.130201 0.152700 0.043846
v 0.129423 0.157878 0.043846
v 0.129162 0.163218 0.043846
v 0.129423 0.168557 0.043846
v 0.130201 0.173735 0.043846
v 0.131471 0.178593 0.043846
v 0.133194 0.182984 0.043846
v 0.135318 0.186774 0.043846
v 0.137779 0.189849 0.043846
v 0.140502 0.192114 0.043846
v 0.143404 0.193502 0.043846
v 0.162592 0.152700 0.043846
v 0.163370 0.157878 0.043846
v 0.163632 0.163218 0.043846
v 0.163370 0.168557 0.043846
v 0.162592 0.173735 0.043846
v 0.146397 0.193969 0.043846
v 0.149390 0.193502 0.043846
v 0.152291 0.192114 0.043846
v 0.159600 0.182984 0.043846
v 0.161323 0.178593 0.043846
v 0.157475 0.186774 0.043846
v 0.155014 0.189849 0.043846
v 0.135394 0.146745 0.048973
v 0.139215 0.141025 0.048973
v 0.137165 0.143587 0.048973
v 0.141484 0.139137 0.048973
v 0.143903 0.137981 0.048973
v 0.146397 0.137592 0.048973
v 0.148891 0.137981 0.048973
v 0.151309 0.139137 0.048973
v 0.153578 0.141025 0.048973
v 0.155629 0.143587 0.048973
v 0.157399 0.146745 0.048973
v 0.142627 0.151566 0.050945
v 0.145087 0.149968 0.050945
v 0.143818 0.150575 0.050945
v 0.146397 0.149764 0.050945
v 0.147706 0.149968 0.050945
v 0.148976 0.150575 0.050945
v 0.150167 0.151566 0.050945
v 0.151244 0.152911 0.050945
v 0.133958 0.150405 0.048973
v 0.132900 0.154453 0.048973
v 0.132252 0.158768 0.048973
v 0.132034 0.163218 0.048973
v 0.132252 0.167667 0.048973
v 0.132900 0.171982 0.048973
v 0.133958 0.176031 0.048973
v 0.135394 0.179690 0.048973
v 0.137165 0.182848 0.048973
v 0.139215 0.185410 0.048973
v 0.141484 0.187298 0.048973
v 0.158835 0.150405 0.048973
v 0.159893 0.154453 0.048973
v 0.160541 0.158768 0.048973
v 0.160759 0.163218 0.048973
v 0.160541 0.167667 0.048973
v 0.143903 0.188454 0.048973
v 0.146397 0.188844 0.048973
v 0.148891 0.188454 0.048973
v 0.151309 0.187298 0.048973
v 0.158835 0.176031 0.048973
v 0.159893 0.171982 0.048973
v 0.157399 0.179690 0.048973
v 0.153578 0.185410 0.048973
v 0.155629 0.182848 0.048973
v 0.141550 0.152911 0.050945
v 0.140620 0.154570 0.050945
v 0.139867 0.156491 0.050945
v 0.139311 0.158616 0.050945
v 0.146397 0.163218 0.050945
v 0.138971 0.160881 0.050945
v 0.138856 0.163218 0.050945
v 0.138971 0.165554 0.050945
v 0.139311 0.167819 0.050945
v 0.139867 0.169944 0.050945
v 0.140620 0.171865 0.050945
v 0.141550 0.173524 0.050945
v 0.142627 0.174869 0.050945
v 0.143818 0.175860 0.050945
v 0.152173 0.154570 0.050945
v 0.152927 0.156491 0.050945
v 0.153482 0.158616 0.050945
v 0.153823 0.160881 0.050945
v 0.153937 0.163218 0.050945
v 0.153823 0.165554 0.050945
v 0.153482 0.167819 0.050945
v 0.152927 0.169944 0.050945
v 0.151244 0.173524 0.050945
v 0.150167 0.174869 0.050945
v 0.152173 0.171865 0.050945
v 0.148976 0.175860 0.050945
v 0.145087 0.176467 0.050945
v 0.146397 0.176671 0.050945
v 0.147706 0.176467 0.050945
v -0.149774 0.146662 0.011504
v -0.150818 0.141545 0.015448
v -0.151334 0.147960 0.011504
v -0.148111 0.145867 0.011504
v -0.148641 0.140505 0.015448
v -0.146397 0.145600 0.011504
v -0.146397 0.140154 0.015448
v -0.144682 0.145867 0.011504
v -0.144152 0.140505 0.015448
v -0.152860 0.143244 0.015448
v -0.154706 0.145550 0.015448
v -0.152744 0.149721 0.011504
v -0.143019 0.146662 0.011504
v -0.141976 0.141545 0.015448
v -0.141460 0.147960 0.011504
v -0.139934 0.143244 0.015448
v -0.138088 0.145550 0.015448
v -0.154835 0.137141 0.020181
v -0.157244 0.140152 0.020181
v -0.156299 0.148393 0.015448
v -0.159325 0.143863 0.020181
v -0.152169 0.134923 0.020181
v -0.149327 0.133564 0.020181
v -0.146397 0.133107 0.020181
v -0.143466 0.133564 0.020181
v -0.140625 0.134923 0.020181
v -0.137959 0.137141 0.020181
v -0.135549 0.140152 0.020181
v -0.136495 0.148393 0.015448
v -0.133469 0.143863 0.020181
v -0.153961 0.151893 0.011504
v -0.154948 0.154409 0.011504
v -0.155676 0.157192 0.011504
v -0.158544 0.155329 0.015448
v -0.156121 0.160158 0.011504
v -0.157591 0.151686 0.015448
v -0.159127 0.159213 0.015448
v -0.156271 0.163218 0.011504
v -0.159323 0.163218 0.015448
v -0.156121 0.166277 0.011504
v -0.159127 0.167222 0.015448
v -0.155676 0.169243 0.011504
v -0.158544 0.171106 0.015448
v -0.154948 0.172026 0.011504
v -0.146397 0.163218 0.011504
v -0.153961 0.174542 0.011504
v -0.157591 0.174749 0.015448
v -0.156299 0.178042 0.015448
v -0.152744 0.176714 0.011504
v -0.151334 0.178475 0.011504
v -0.149774 0.179773 0.011504
v -0.148111 0.180568 0.011504
v -0.146397 0.180835 0.011504
v -0.144682 0.180568 0.011504
v -0.143019 0.179773 0.011504
v -0.154706 0.180885 0.015448
v -0.152860 0.183191 0.015448
v -0.150818 0.184890 0.015448
v -0.148641 0.185931 0.015448
v -0.146397 0.186281 0.015448
v -0.144152 0.185931 0.015448
v -0.140050 0.149721 0.011504
v -0.138833 0.151893 0.011504
v -0.137845 0.154409 0.011504
v -0.137118 0.157192 0.011504
v -0.135202 0.151686 0.015448
v -0.134250 0.155329 0.015448
v -0.136672 0.160158 0.011504
v -0.136522 0.163218 0.011504
v -0.136672 0.166277 0.011504
v -0.137118 0.169243 0.011504
v -0.137845 0.172026 0.011504
v -0.138833 0.174542 0.011504
v -0.133667 0.159213 0.015448
v -0.133470 0.163218 0.015448
v -0.133667 0.167222 0.015448
v -0.134250 0.171106 0.015448
v -0.141460 0.178475 0.011504
v -0.140050 0.176714 0.011504
v -0.141976 0.184890 0.015448
v -0.139934 0.183191 0.015448
v -0.138088 0.180885 0.015448
v -0.135202 0.174749 0.015448
v -0.136495 0.178042 0.015448
v -0.162255 0.152919 0.020181
v -0.161012 0.148162 0.020181
v -0.163016 0.157989 0.020181
v -0.163273 0.163218 0.020181
v -0.163016 0.168446 0.020181
v -0.162255 0.173516 0.020181
v -0.161012 0.178273 0.020181
v -0.159325 0.182572 0.020181
v -0.157244 0.186284 0.020181
v -0.154835 0.189294 0.020181
v -0.152169 0.191512 0.020181
v -0.149327 0.192871 0.020181
v -0.146397 0.193328 0.020181
v -0.143466 0.192871 0.020181
v -0.131782 0.148162 0.020181
v -0.130538 0.152919 0.020181
v -0.129777 0.157989 0.020181
v -0.129521 0.163218 0.020181
v -0.129777 0.168446 0.020181
v -0.130538 0.173516 0.020181
v -0.131782 0.178273 0.020181
v -0.135549 0.186284 0.020181
v -0.133469 0.182572 0.020181
v -0.140625 0.191512 0.020181
v -0.137959 0.189294 0.020181
v -0.160150 0.142627 0.033197
v -0.155373 0.135477 0.033197
v -0.157937 0.138679 0.033197
v -0.149514 0.131672 0.033197
v -0.146397 0.131185 0.033197
v -0.143279 0.131672 0.033197
v -0.152537 0.133117 0.033197
v -0.140256 0.133117 0.033197
v -0.137420 0.135477 0.033197
v -0.134857 0.138679 0.033197
v -0.132644 0.142627 0.033197
v -0.130849 0.147201 0.033197
v -0.161945 0.147201 0.033197
v -0.163267 0.152262 0.033197
v -0.164077 0.157655 0.033197
v -0.164350 0.163218 0.033197
v -0.164077 0.168780 0.033197
v -0.163267 0.174173 0.033197
v -0.161945 0.179234 0.033197
v -0.160150 0.183808 0.033197
v -0.157937 0.187756 0.033197
v -0.155373 0.190958 0.033197
v -0.152537 0.193318 0.033197
v -0.149514 0.194763 0.033197
v -0.146397 0.195250 0.033197
v -0.129526 0.152262 0.033197
v -0.128716 0.157655 0.033197
v -0.128443 0.163218 0.033197
v -0.128716 0.168780 0.033197
v -0.143279 0.194763 0.033197
v -0.140256 0.193318 0.033197
v -0.137420 0.190958 0.033197
v -0.134857 0.187756 0.033197
v -0.129526 0.174173 0.033197
v -0.130849 0.179234 0.033197
v -0.132644 0.183808 0.033197
v -0.159600 0.143451 0.043846
v -0.157475 0.139661 0.043846
v -0.155014 0.136586 0.043846
v -0.149390 0.132934 0.043846
v -0.146397 0.132466 0.043846
v -0.143404 0.132934 0.043846
v -0.152291 0.134321 0.043846
v -0.161323 0.147842 0.043846
v -0.140502 0.134321 0.043846
v -0.137779 0.136586 0.043846
v -0.135318 0.139661 0.043846
v -0.133194 0.143451 0.043846
v -0.131471 0.147842 0.043846
v -0.162592 0.152700 0.043846
v -0.163370 0.157878 0.043846
v -0.163632 0.163218 0.043846
v -0.163370 0.168557 0.043846
v -0.162592 0.173735 0.043846
v -0.161323 0.178593 0.043846
v -0.159600 0.182984 0.043846
v -0.157475 0.186774 0.043846
v -0.155014 0.189849 0.043846
v -0.152291 0.192114 0.043846
v -0.149390 0.193502 0.043846
v -0.146397 0.193969 0.043846
v -0.143404 0.193502 0.043846
v -0.130201 0.152700 0.043846
v -0.129423 0.157878 0.043846
v -0.129162 0.163218 0.043846
v -0.129423 0.168557 0.043846
v -0.130201 0.173735 0.043846
v -0.140502 0.192114 0.043846
v -0.135318 0.186774 0.043846
v -0.137779 0.189849 0.043846
v -0.133194 0.182984 0.043846
v -0.131471 0.178593 0.043846
v -0.157399 0.146745 0.048973
v -0.153578 0.141025 0.048973
v -0.155629 0.143587 0.048973
v -0.151309 0.139137 0.048973
v -0.148891 0.137981 0.048973
v -0.146397 0.137592 0.048973
v -0.143903 0.137981 0.048973
v -0.141484 0.139137 0.048973
v -0.139215 0.141025 0.048973
v -0.137165 0.143587 0.048973
v -0.135394 0.146745 0.048973
v -0.150167 0.151566 0.050945
v -0.147706 0.149968 0.050945
v -0.148976 0.150575 0.050945
v -0.146397 0.149764 0.050945
v -0.145087 0.149968 0.050945
v -0.143818 0.150575 0.050945
v -0.142627 0.151566 0.050945
v -0.141550 0.152911 0.050945
v -0.158835 0.150405 0.048973
v -0.159893 0.154453 0.048973
v -0.160541 0.158768 0.048973
v -0.160759 0.163218 0.048973
v -0.160541 0.167667 0.048973
v -0.159893 0.171982 0.048973
v -0.158835 0.176031 0.048973
v -0.157399 0.179690 0.048973
v -0.155629 0.182848 0.048973
v -0.153578 0.185410 0.048973
v -0.151309 0.187298 0.048973
v -0.148891 0.188454 0.048973
v -0.146397 0.188844 0.048973
v -0.133958 0.150405 0.048973
v -0.132900 0.154453 0.048973
v -0.132252 0.158768 0.048973
v -0.132034 0.163218 0.048973
v -0.132252 0.167667 0.048973
v -0.143903 0.188454 0.048973
v -0.141484 0.187298 0.048973
v -0.139215 0.185410 0.048973
v -0.137165 0.182848 0.048973
v -0.133958 0.176031 0.048973
v -0.132900 0.171982 0.048973
v -0.135394 0.179690 0.048973
v -0.151244 0.152911 0.050945
v -0.152173 0.154570 0.050945
v -0.152927 0.156491 0.050945
v -0.153482 0.158616 0.050945
v -0.153823 0.160881 0.050945
v -0.153937 0.163218 0.050945
v -0.153823 0.165554 0.050945
v -0.153482 0.167819 0.050945
v -0.146397 0.163218 0.050945
v -0.152927 0.169944 0.050945
v -0.152173 0.171865 0.050945
v -0.151244 0.173524 0.050945
v -0.150167 0.174869 0.050945
v -0.148976 0.175860 0.050945
v -0.147706 0.176467 0.050945
v -0.146397 0.176671 0.050945
v -0.145087 0.176467 0.050945
v -0.143818 0.175860 0.050945
v -0.142627 0.174869 0.050945
v -0.140620 0.154570 0.050945
v -0.139867 0.156491 0.050945
v -0.139311 0.158616 0.050945
v -0.138971 0.160881 0.050945
v -0.138856 0.163218 0.050945
v -0.138971 0.165554 0.050945
v -0.139311 0.167819 0.050945
v -0.139867 0.169944 0.050945
v -0.141550 0.173524 0.050945
v -0.140620 0.171865 0.050945
v -0.153961 -0.174542 0.011504
v -0.156299 -0.178042 0.015448
v -0.154948 -0.172026 0.011504
v -0.157591 -0.174749 0.015448
v -0.155676 -0.169243 0.011504
v -0.146397 -0.163218 0.011504
v -0.152744 -0.176714 0.011504
v -0.151334 -0.178475 0.011504
v -0.149774 -0.179773 0.011504
v -0.148111 -0.180568 0.011504
v -0.146397 -0.180835 0.011504
v -0.144682 -0.180568 0.011504
v -0.143019 -0.179773 0.011504
v -0.154706 -0.180885 0.015448
v -0.152860 -0.183191 0.015448
v -0.150818 -0.184890 0.015448
v -0.148641 -0.185931 0.015448
v -0.146397 -0.186281 0.015448
v -0.144152 -0.185931 0.015448
v -0.158544 -0.171106 0.015448
v -0.156121 -0.166277 0.011504
v -0.159127 -0.167222 0.015448
v -0.156271 -0.163218 0.011504
v -0.159323 -0.163218 0.015448
v -0.156121 -0.160158 0.011504
v -0.159127 -0.159213 0.015448
v -0.155676 -0.157192 0.011504
v -0.158544 -0.155329 0.015448
v -0.154948 -0.154409 0.011504
v -0.157591 -0.151686 0.015448
v -0.153961 -0.151893 0.011504
v -0.156299 -0.148393 0.015448
v -0.152744 -0.149721 0.011504
v -0.151334 -0.147960 0.011504
v -0.149774 -0.146662 0.011504
v -0.148111 -0.145867 0.011504
v -0.146397 -0.145600 0.011504
v -0.144682 -0.145867 0.011504
v -0.143019 -0.146662 0.011504
v -0.154706 -0.145550 0.015448
v -0.141460 -0.178475 0.011504
v -0.140050 -0.176714 0.011504
v -0.138833 -0.174542 0.011504
v -0.141976 -0.184890 0.015448
v -0.139934 -0.183191 0.015448
v -0.138088 -0.180885 0.015448
v -0.136495 -0.178042 0.015448
v -0.137845 -0.172026 0.011504
v -0.135202 -0.174749 0.015448
v -0.134250 -0.171106 0.015448
v -0.137118 -0.169243 0.011504
v -0.136672 -0.166277 0.011504
v -0.136522 -0.163218 0.011504
v -0.136672 -0.160158 0.011504
v -0.137118 -0.157192 0.011504
v -0.133667 -0.167222 0.015448
v -0.133470 -0.163218 0.015448
v -0.133667 -0.159213 0.015448
v -0.141460 -0.147960 0.011504
v -0.140050 -0.149721 0.011504
v -0.138833 -0.151893 0.011504
v -0.137845 -0.154409 0.011504
v -0.139934 -0.143244 0.015448
v -0.138088 -0.145550 0.015448
v -0.135202 -0.151686 0.015448
v -0.134250 -0.155329 0.015448
v -0.136495 -0.148393 0.015448
v -0.154835 -0.189294 0.020181
v -0.157244 -0.186284 0.020181
v -0.159325 -0.182572 0.020181
v -0.161012 -0.178273 0.020181
v -0.162255 -0.173516 0.020181
v -0.152169 -0.191512 0.020181
v -0.149327 -0.192871 0.020181
v -0.146397 -0.193328 0.020181
v -0.143466 -0.192871 0.020181
v -0.163016 -0.168446 0.020181
v -0.163273 -0.163218 0.020181
v -0.163016 -0.157989 0.020181
v -0.162255 -0.152919 0.020181
v -0.161012 -0.148162 0.020181
v -0.159325 -0.143863 0.020181
v -0.140625 -0.191512 0.020181
v -0.137959 -0.189294 0.020181
v -0.135549 -0.186284 0.020181
v -0.133469 -0.182572 0.020181
v -0.131782 -0.178273 0.020181
v -0.130538 -0.173516 0.020181
v -0.129777 -0.168446 0.020181
v -0.131782 -0.148162 0.020181
v -0.133469 -0.143863 0.020181
v -0.129521 -0.163218 0.020181
v -0.129777 -0.157989 0.020181
v -0.130538 -0.152919 0.020181
v -0.152860 -0.143244 0.015448
v -0.150818 -0.141545 0.015448
v -0.148641 -0.140505 0.015448
v -0.146397 -0.140154 0.015448
v -0.144152 -0.140505 0.015448
v -0.141976 -0.141545 0.015448
v -0.157244 -0.140152 0.020181
v -0.154835 -0.137141 0.020181
v -0.152169 -0.134923 0.020181
v -0.149327 -0.133564 0.020181
v -0.146397 -0.133107 0.020181
v -0.143466 -0.133564 0.020181
v -0.140625 -0.134923 0.020181
v -0.135549 -0.140152 0.020181
v -0.137959 -0.137141 0.020181
v -0.157937 -0.187756 0.033197
v -0.155373 -0.190958 0.033197
v -0.160150 -0.183808 0.033197
v -0.161945 -0.179234 0.033197
v -0.163267 -0.174173 0.033197
v -0.152537 -0.193318 0.033197
v -0.149514 -0.194763 0.033197
v -0.146397 -0.195250 0.033197
v -0.143279 -0.194763 0.033197
v -0.164077 -0.168780 0.033197
v -0.164350 -0.163218 0.033197
v -0.164077 -0.157655 0.033197
v -0.163267 -0.152262 0.033197
v -0.140256 -0.193318 0.033197
v -0.137420 -0.190958 0.033197
v -0.134857 -0.187756 0.033197
v -0.132644 -0.183808 0.033197
v -0.130849 -0.179234 0.033197
v -0.129526 -0.174173 0.033197
v -0.128716 -0.168780 0.033197
v -0.128443 -0.163218 0.033197
v -0.128716 -0.157655 0.033197
v -0.129526 -0.152262 0.033197
v -0.130849 -0.147201 0.033197
v -0.161945 -0.147201 0.033197
v -0.160150 -0.142627 0.033197
v -0.157937 -0.138679 0.033197
v -0.155373 -0.135477 0.033197
v -0.152537 -0.133117 0.033197
v -0.149514 -0.131672 0.033197
v -0.146397 -0.131185 0.033197
v -0.140256 -0.133117 0.033197
v -0.134857 -0.138679 0.033197
v -0.137420 -0.135477 0.033197
v -0.143279 -0.131672 0.033197
v -0.132644 -0.142627 0.033197
v -0.155014 -0.189849 0.043846
v -0.157475 -0.186774 0.043846
v -0.161323 -0.178593 0.043846
v -0.159600 -0.182984 0.043846
v -0.162592 -0.173735 0.043846
v -0.152291 -0.192114 0.043846
v -0.149390 -0.193502 0.043846
v -0.146397 -0.193969 0.043846
v -0.143404 -0.193502 0.043846
v -0.163370 -0.168557 0.043846
v -0.163632 -0.163218 0.043846
v -0.163370 -0.157878 0.043846
v -0.162592 -0.152700 0.043846
v -0.161323 -0.147842 0.043846
v -0.140502 -0.192114 0.043846
v -0.137779 -0.189849 0.043846
v -0.135318 -0.186774 0.043846
v -0.133194 -0.182984 0.043846
v -0.131471 -0.178593 0.043846
v -0.130201 -0.173735 0.043846
v -0.129423 -0.168557 0.043846
v -0.129162 -0.163218 0.043846
v -0.129423 -0.157878 0.043846
v -0.130201 -0.152700 0.043846
v -0.131471 -0.147842 0.043846
v -0.159600 -0.143451 0.043846
v -0.157475 -0.139661 0.043846
v -0.155014 -0.136586 0.043846
v -0.152291 -0.134321 0.043846
v -0.149390 -0.132934 0.043846
v -0.146397 -0.132466 0.043846
v -0.143404 -0.132934 0.043846
v -0.140502 -0.134321 0.043846
v -0.137779 -0.136586 0.043846
v -0.135318 -0.139661 0.043846
v -0.133194 -0.143451 0.043846
v -0.155629 -0.182848 0.048973
v -0.153578 -0.185410 0.048973
v -0.157399 -0.179690 0.048973
v -0.159893 -0.171982 0.048973
v -0.158835 -0.176031 0.048973
v -0.151309 -0.187298 0.048973
v -0.148891 -0.188454 0.048973
v -0.146397 -0.188844 0.048973
v -0.143903 -0.188454 0.048973
v -0.160541 -0.167667 0.048973
v -0.160759 -0.163218 0.048973
v -0.160541 -0.158768 0.048973
v -0.159893 -0.154453 0.048973
v -0.158835 -0.150405 0.048973
v -0.141484 -0.187298 0.048973
v -0.139215 -0.185410 0.048973
v -0.137165 -0.182848 0.048973
v -0.135394 -0.179690 0.048973
v -0.133958 -0.176031 0.048973
v -0.132900 -0.171982 0.048973
v -0.132252 -0.167667 0.048973
v -0.132034 -0.163218 0.048973
v -0.132252 -0.158768 0.048973
v -0.132900 -0.154453 0.048973
v -0.133958 -0.150405 0.048973
v -0.151244 -0.173524 0.050945
v -0.152927 -0.169944 0.050945
v -0.152173 -0.171865 0.050945
v -0.147706 -0.176467 0.050945
v -0.146397 -0.176671 0.050945
v -0.145087 -0.176467 0.050945
v -0.150167 -0.174869 0.050945
v -0.148976 -0.175860 0.050945
v -0.143818 -0.175860 0.050945
v -0.146397 -0.163218 0.050945
v -0.142627 -0.174869 0.050945
v -0.157399 -0.146745 0.048973
v -0.153482 -0.167819 0.050945
v -0.153823 -0.165554 0.050945
v -0.153937 -0.163218 0.050945
v -0.153823 -0.160881 0.050945
v -0.153482 -0.158616 0.050945
v -0.152927 -0.156491 0.050945
v -0.152173 -0.154570 0.050945
v -0.155629 -0.143587 0.048973
v -0.151244 -0.152911 0.050945
v -0.150167 -0.151566 0.050945
v -0.153578 -0.141025 0.048973
v -0.148976 -0.150575 0.050945
v -0.151309 -0.139137 0.048973
v -0.147706 -0.149968 0.050945
v -0.146397 -0.149764 0.050945
v -0.145087 -0.149968 0.050945
v -0.143818 -0.150575 0.050945
v -0.142627 -0.151566 0.050945
v -0.141550 -0.173524 0.050945
v -0.140620 -0.171865 0.050945
v -0.139867 -0.169944 0.050945
v -0.139311 -0.167819 0.050945
v -0.135394 -0.146745 0.048973
v -0.138971 -0.165554 0.050945
v -0.138856 -0.163218 0.050945
v -0.138971 -0.160881 0.050945
v -0.139311 -0.158616 0.050945
v -0.139867 -0.156491 0.050945
v -0.140620 -0.154570 0.050945
v -0.137165 -0.143587 0.048973
v -0.141550 -0.152911 0.050945
v -0.141484 -0.139137 0.048973
v -0.139215 -0.141025 0.048973
v -0.148891 -0.137981 0.048973
v -0.146397 -0.137592 0.048973
v -0.143903 -0.137981 0.048973
v 0.146397 -0.163218 0.011504
v 0.140050 -0.176714 0.011504
v 0.138833 -0.174542 0.011504
v 0.141460 -0.178475 0.011504
v 0.143019 -0.179773 0.011504
v 0.136495 -0.178042 0.015448
v 0.137845 -0.172026 0.011504
v 0.135202 -0.174749 0.015448
v 0.137118 -0.169243 0.011504
v 0.138088 -0.180885 0.015448
v 0.139934 -0.183191 0.015448
v 0.141976 -0.184890 0.015448
v 0.144152 -0.185931 0.015448
v 0.134250 -0.171106 0.015448
v 0.136672 -0.166277 0.011504
v 0.136522 -0.163218 0.011504
v 0.136672 -0.160158 0.011504
v 0.137118 -0.157192 0.011504
v 0.133667 -0.167222 0.015448
v 0.133470 -0.163218 0.015448
v 0.133667 -0.159213 0.015448
v 0.137845 -0.154409 0.011504
v 0.138833 -0.151893 0.011504
v 0.140050 -0.149721 0.011504
v 0.141460 -0.147960 0.011504
v 0.143019 -0.146662 0.011504
v 0.134250 -0.155329 0.015448
v 0.135202 -0.151686 0.015448
v 0.136495 -0.148393 0.015448
v 0.138088 -0.145550 0.015448
v 0.144682 -0.180568 0.011504
v 0.146397 -0.180835 0.011504
v 0.148111 -0.180568 0.011504
v 0.149774 -0.179773 0.011504
v 0.151334 -0.178475 0.011504
v 0.152744 -0.176714 0.011504
v 0.153961 -0.174542 0.011504
v 0.146397 -0.186281 0.015448
v 0.148641 -0.185931 0.015448
v 0.150818 -0.184890 0.015448
v 0.152860 -0.183191 0.015448
v 0.154706 -0.180885 0.015448
v 0.156299 -0.178042 0.015448
v 0.154948 -0.172026 0.011504
v 0.157591 -0.174749 0.015448
v 0.158544 -0.171106 0.015448
v 0.155676 -0.169243 0.011504
v 0.156121 -0.166277 0.011504
v 0.156271 -0.163218 0.011504
v 0.156121 -0.160158 0.011504
v 0.155676 -0.157192 0.011504
v 0.144682 -0.145867 0.011504
v 0.146397 -0.145600 0.011504
v 0.148111 -0.145867 0.011504
v 0.149774 -0.146662 0.011504
v 0.151334 -0.147960 0.011504
v 0.152744 -0.149721 0.011504
v 0.153961 -0.151893 0.011504
v 0.154948 -0.154409 0.011504
v 0.152860 -0.143244 0.015448
v 0.154706 -0.145550 0.015448
v 0.159127 -0.167222 0.015448
v 0.159323 -0.163218 0.015448
v 0.159127 -0.159213 0.015448
v 0.157591 -0.151686 0.015448
v 0.158544 -0.155329 0.015448
v 0.156299 -0.148393 0.015448
v 0.133469 -0.182572 0.020181
v 0.131782 -0.178273 0.020181
v 0.130538 -0.173516 0.020181
v 0.137959 -0.189294 0.020181
v 0.140625 -0.191512 0.020181
v 0.143466 -0.192871 0.020181
v 0.135549 -0.186284 0.020181
v 0.129777 -0.168446 0.020181
v 0.129521 -0.163218 0.020181
v 0.129777 -0.157989 0.020181
v 0.130538 -0.152919 0.020181
v 0.131782 -0.148162 0.020181
v 0.133469 -0.143863 0.020181
v 0.146397 -0.193328 0.020181
v 0.149327 -0.192871 0.020181
v 0.152169 -0.191512 0.020181
v 0.154835 -0.189294 0.020181
v 0.157244 -0.186284 0.020181
v 0.159325 -0.182572 0.020181
v 0.161012 -0.178273 0.020181
v 0.162255 -0.173516 0.020181
v 0.163016 -0.168446 0.020181
v 0.163273 -0.163218 0.020181
v 0.163016 -0.157989 0.020181
v 0.161012 -0.148162 0.020181
v 0.159325 -0.143863 0.020181
v 0.162255 -0.152919 0.020181
v 0.139934 -0.143244 0.015448
v 0.141976 -0.141545 0.015448
v 0.144152 -0.140505 0.015448
v 0.146397 -0.140154 0.015448
v 0.148641 -0.140505 0.015448
v 0.150818 -0.141545 0.015448
v 0.135549 -0.140152 0.020181
v 0.137959 -0.137141 0.020181
v 0.140625 -0.134923 0.020181
v 0.143466 -0.133564 0.020181
v 0.146397 -0.133107 0.020181
v 0.149327 -0.133564 0.020181
v 0.152169 -0.134923 0.020181
v 0.154835 -0.137141 0.020181
v 0.157244 -0.140152 0.020181
v 0.132644 -0.183808 0.033197
v 0.130849 -0.179234 0.033197
v 0.129526 -0.174173 0.033197
v 0.134857 -0.187756 0.033197
v 0.137420 -0.190958 0.033197
v 0.140256 -0.193318 0.033197
v 0.143279 -0.194763 0.033197
v 0.128716 -0.168780 0.033197
v 0.128443 -0.163218 0.033197
v 0.128716 -0.157655 0.033197
v 0.129526 -0.152262 0.033197
v 0.146397 -0.195250 0.033197
v 0.149514 -0.194763 0.033197
v 0.152537 -0.193318 0.033197
v 0.155373 -0.190958 0.033197
v 0.157937 -0.187756 0.033197
v 0.160150 -0.183808 0.033197
v 0.161945 -0.179234 0.033197
v 0.163267 -0.174173 0.033197
v 0.164077 -0.168780 0.033197
v 0.164350 -0.163218 0.033197
v 0.164077 -0.157655 0.033197
v 0.163267 -0.152262 0.033197
v 0.161945 -0.147201 0.033197
v 0.130849 -0.147201 0.033197
v 0.132644 -0.142627 0.033197
v 0.134857 -0.138679 0.033197
v 0.137420 -0.135477 0.033197
v 0.140256 -0.133117 0.033197
v 0.152537 -0.133117 0.033197
v 0.143279 -0.131672 0.033197
v 0.146397 -0.131185 0.033197
v 0.149514 -0.131672 0.033197
v 0.157937 -0.138679 0.033197
v 0.155373 -0.135477 0.033197
v 0.160150 -0.142627 0.033197
v 0.131471 -0.178593 0.043846
v 0.133194 -0.182984 0.043846
v 0.130201 -0.173735 0.043846
v 0.137779 -0.189849 0.043846
v 0.135318 -0.186774 0.043846
v 0.140502 -0.192114 0.043846
v 0.143404 -0.193502 0.043846
v 0.129423 -0.168557 0.043846
v 0.129162 -0.163218 0.043846
v 0.129423 -0.157878 0.043846
v 0.130201 -0.152700 0.043846
v 0.131471 -0.147842 0.043846
v 0.146397 -0.193969 0.043846
v 0.149390 -0.193502 0.043846
v 0.152291 -0.192114 0.043846
v 0.155014 -0.189849 0.043846
v 0.157475 -0.186774 0.043846
v 0.159600 -0.182984 0.043846
v 0.161323 -0.178593 0.043846
v 0.162592 -0.173735 0.043846
v 0.163370 -0.168557 0.043846
v 0.163632 -0.163218 0.043846
v 0.163370 -0.157878 0.043846
v 0.162592 -0.152700 0.043846
v 0.161323 -0.147842 0.043846
v 0.133194 -0.143451 0.043846
v 0.135318 -0.139661 0.043846
v 0.137779 -0.136586 0.043846
v 0.140502 -0.134321 0.043846
v 0.143404 -0.132934 0.043846
v 0.152291 -0.134321 0.043846
v 0.146397 -0.132466 0.043846
v 0.149390 -0.132934 0.043846
v 0.155014 -0.136586 0.043846
v 0.157475 -0.139661 0.043846
v 0.159600 -0.143451 0.043846
v 0.135394 -0.179690 0.048973
v 0.132900 -0.171982 0.048973
v 0.133958 -0.176031 0.048973
v 0.137165 -0.182848 0.048973
v 0.139215 -0.185410 0.048973
v 0.141484 -0.187298 0.048973
v 0.143903 -0.188454 0.048973
v 0.132252 -0.167667 0.048973
v 0.132034 -0.163218 0.048973
v 0.132252 -0.158768 0.048973
v 0.132900 -0.154453 0.048973
v 0.133958 -0.150405 0.048973
v 0.146397 -0.188844 0.048973
v 0.148891 -0.188454 0.048973
v 0.151309 -0.187298 0.048973
v 0.153578 -0.185410 0.048973
v 0.155629 -0.182848 0.048973
v 0.157399 -0.179690 0.048973
v 0.158835 -0.176031 0.048973
v 0.159893 -0.171982 0.048973
v 0.160541 -0.167667 0.048973
v 0.160759 -0.163218 0.048973
v 0.160541 -0.158768 0.048973
v 0.159893 -0.154453 0.048973
v 0.158835 -0.150405 0.048973
v 0.145087 -0.176467 0.050945
v 0.141550 -0.173524 0.050945
v 0.139867 -0.169944 0.050945
v 0.140620 -0.171865 0.050945
v 0.142627 -0.174869 0.050945
v 0.143818 -0.175860 0.050945
v 0.135394 -0.146745 0.048973
v 0.139311 -0.167819 0.050945
v 0.138971 -0.165554 0.050945
v 0.138856 -0.163218 0.050945
v 0.138971 -0.160881 0.050945
v 0.146397 -0.163218 0.050945
v 0.139311 -0.158616 0.050945
v 0.139867 -0.156491 0.050945
v 0.140620 -0.154570 0.050945
v 0.137165 -0.143587 0.048973
v 0.141550 -0.152911 0.050945
v 0.142627 -0.151566 0.050945
v 0.139215 -0.141025 0.048973
v 0.143818 -0.150575 0.050945
v 0.141484 -0.139137 0.048973
v 0.146397 -0.176671 0.050945
v 0.147706 -0.176467 0.050945
v 0.148976 -0.175860 0.050945
v 0.150167 -0.174869 0.050945
v 0.151244 -0.173524 0.050945
v 0.152173 -0.171865 0.050945
v 0.152927 -0.169944 0.050945
v 0.153482 -0.167819 0.050945
v 0.157399 -0.146745 0.048973
v 0.153823 -0.165554 0.050945
v 0.153937 -0.163218 0.050945
v 0.153823 -0.160881 0.050945
v 0.153482 -0.158616 0.050945
v 0.152927 -0.156491 0.050945
v 0.145087 -0.149968 0.050945
v 0.146397 -0.149764 0.050945
v 0.147706 -0.149968 0.050945
v 0.148976 -0.150575 0.050945
v 0.150167 -0.151566 0.050945
v 0.151244 -0.152911 0.050945
v 0.152173 -0.154570 0.050945
v 0.151309 -0.139137 0.048973
v 0.153578 -0.141025 0.048973
v 0.155629 -0.143587 0.048973
v 0.143903 -0.137981 0.048973
v 0.146397 -0.137592 0.048973
v 0.148891 -0.137981 0.048973
f 1 2 3
f 4 5 6
f 2 4 3
f 7 2 1
f 8 7 1
f 9 10 8
f 11 12 9
f 13 14 11
f 15 16 13
f 10 7 8
f 12 10 9
f 14 12 11
f 16 14 13
f 17 16 15
f 4 18 5
f 5 19 20
f 2 21 4
f 7 22 2
f 19 23 20
f 18 19 5
f 21 18 4
f 22 21 2
f 10 24 7
f 12 25 10
f 14 26 12
f 16 27 14
f 24 22 7
f 25 24 10
f 26 25 12
f 27 26 14
f 17 28 16
f 29 30 17
f 28 27 16
f 30 28 17
f 31 32 33
f 31 33 34
f 31 6 32
f 31 3 6
f 31 1 3
f 32 20 33
f 34 35 36
f 33 37 34
f 6 5 32
f 3 4 6
f 31 34 36
f 31 36 38
f 31 38 39
f 31 39 40
f 31 40 41
f 31 41 42
f 36 43 38
f 38 44 39
f 39 45 40
f 40 46 41
f 5 20 32
f 20 37 33
f 37 35 34
f 35 43 36
f 43 44 38
f 44 45 39
f 45 46 40
f 31 42 47
f 31 47 48
f 31 48 49
f 41 50 42
f 42 51 47
f 47 52 48
f 48 53 49
f 49 54 55
f 46 50 41
f 50 51 42
f 51 52 47
f 52 53 48
f 53 54 49
f 54 56 55
f 31 8 1
f 31 9 8
f 31 11 9
f 31 13 11
f 31 15 13
f 31 57 15
f 31 58 57
f 31 59 58
f 31 60 59
f 57 17 15
f 31 61 60
f 31 62 61
f 31 63 62
f 31 64 63
f 31 65 64
f 31 66 65
f 58 29 57
f 59 67 58
f 60 68 59
f 61 69 60
f 62 70 61
f 63 71 62
f 64 72 63
f 29 17 57
f 67 29 58
f 68 67 59
f 69 68 60
f 70 69 61
f 71 70 62
f 72 71 63
f 31 49 55
f 31 55 73
f 31 73 74
f 31 74 75
f 31 75 76
f 31 76 77
f 31 77 66
f 55 56 73
f 73 78 74
f 74 79 75
f 75 80 76
f 76 81 77
f 77 82 66
f 65 83 64
f 66 84 65
f 80 81 76
f 81 82 77
f 56 78 73
f 78 79 74
f 79 80 75
f 84 83 65
f 83 72 64
f 82 84 66
f 35 85 43
f 23 86 37
f 86 85 35
f 85 87 43
f 43 87 44
f 44 88 45
f 45 89 46
f 87 88 44
f 88 89 45
f 20 23 37
f 37 86 35
f 46 90 50
f 89 90 46
f 90 91 50
f 50 91 51
f 51 92 52
f 91 92 51
f 52 93 53
f 53 94 54
f 54 95 56
f 92 93 52
f 93 94 53
f 94 95 54
f 95 96 56
f 67 97 29
f 68 98 67
f 69 99 68
f 97 30 29
f 98 97 67
f 99 98 68
f 70 100 69
f 71 101 70
f 72 102 71
f 100 99 69
f 102 101 71
f 101 100 70
f 56 96 78
f 78 103 79
f 79 104 80
f 80 105 81
f 96 103 78
f 103 104 79
f 105 106 81
f 104 105 80
f 83 107 72
f 82 108 84
f 84 109 83
f 108 109 84
f 107 102 72
f 109 107 83
f 81 106 82
f 106 108 82
f 23 110 86
f 22 111 21
f 18 112 19
f 19 113 23
f 21 114 18
f 24 115 22
f 25 116 24
f 26 117 25
f 27 118 26
f 28 119 27
f 30 120 28
f 97 121 30
f 110 122 86
f 111 114 21
f 112 113 19
f 114 112 18
f 113 110 23
f 115 111 22
f 116 115 24
f 117 116 25
f 118 117 26
f 119 118 27
f 120 119 28
f 121 120 30
f 86 122 85
f 85 123 87
f 87 124 88
f 88 125 89
f 89 126 90
f 90 127 91
f 91 128 92
f 92 129 93
f 93 130 94
f 94 131 95
f 95 132 96
f 98 133 97
f 99 134 98
f 100 135 99
f 101 136 100
f 96 137 103
f 103 138 104
f 104 139 105
f 105 140 106
f 102 141 101
f 107 142 102
f 109 143 107
f 106 144 108
f 108 145 109
f 122 123 85
f 123 124 87
f 124 125 88
f 125 126 89
f 126 127 90
f 127 128 91
f 128 129 92
f 129 130 93
f 130 131 94
f 131 132 95
f 132 137 96
f 133 121 97
f 134 133 98
f 135 134 99
f 136 135 100
f 141 136 101
f 137 138 103
f 138 139 104
f 139 140 105
f 142 141 102
f 143 142 107
f 145 143 109
f 144 145 108
f 140 144 106
f 110 146 122
f 111 147 114
f 113 148 110
f 112 149 113
f 114 150 112
f 146 151 122
f 147 150 114
f 149 148 113
f 150 149 112
f 148 146 110
f 115 152 111
f 116 153 115
f 117 154 116
f 118 155 117
f 119 156 118
f 120 157 119
f 121 158 120
f 152 147 111
f 153 152 115
f 154 153 116
f 155 154 117
f 156 155 118
f 157 156 119
f 158 157 120
f 122 151 123
f 123 159 124
f 124 160 125
f 125 161 126
f 126 162 127
f 151 159 123
f 159 160 124
f 160 161 125
f 161 162 126
f 127 163 128
f 128 164 129
f 129 165 130
f 130 166 131
f 131 167 132
f 132 168 137
f 162 163 127
f 163 164 128
f 164 165 129
f 165 166 130
f 166 167 131
f 167 168 132
f 168 169 137
f 133 170 121
f 134 171 133
f 135 172 134
f 136 173 135
f 170 158 121
f 171 170 133
f 172 171 134
f 173 172 135
f 174 173 136
f 137 169 138
f 138 175 139
f 139 176 140
f 140 177 144
f 141 174 136
f 143 178 142
f 142 179 141
f 145 180 143
f 144 181 145
f 169 175 138
f 175 176 139
f 176 177 140
f 179 174 141
f 178 179 142
f 180 178 143
f 181 180 145
f 177 181 144
f 146 182 151
f 149 183 148
f 148 184 146
f 150 185 149
f 147 186 150
f 152 187 147
f 153 188 152
f 154 189 153
f 155 190 154
f 156 191 155
f 157 192 156
f 184 182 146
f 183 184 148
f 185 183 149
f 186 185 150
f 183 193 184
f 186 194 185
f 185 195 183
f 187 186 147
f 188 187 152
f 189 188 153
f 190 189 154
f 191 190 155
f 192 191 156
f 187 196 186
f 188 197 187
f 189 198 188
f 190 199 189
f 191 200 190
f 196 194 186
f 197 196 187
f 198 197 188
f 151 201 159
f 159 202 160
f 160 203 161
f 161 204 162
f 162 205 163
f 163 206 164
f 164 207 165
f 165 208 166
f 166 209 167
f 167 210 168
f 168 211 169
f 158 212 157
f 170 213 158
f 171 214 170
f 172 215 171
f 173 216 172
f 169 217 175
f 175 218 176
f 176 219 177
f 177 220 181
f 179 221 174
f 174 222 173
f 178 223 179
f 181 224 180
f 180 225 178
f 201 202 159
f 202 203 160
f 203 204 161
f 204 205 162
f 182 201 151
f 184 226 182
f 182 227 201
f 201 228 202
f 202 229 203
f 227 228 201
f 228 229 202
f 193 226 184
f 226 227 182
f 195 193 183
f 194 195 185
f 230 228 227
f 230 227 226
f 230 226 193
f 203 231 204
f 204 232 205
f 205 233 206
f 229 231 203
f 231 232 204
f 232 233 205
f 233 234 206
f 230 229 228
f 230 231 229
f 230 232 231
f 230 233 232
f 230 234 233
f 230 235 234
f 230 236 235
f 230 237 236
f 230 238 237
f 205 206 163
f 206 207 164
f 207 208 165
f 208 209 166
f 209 210 167
f 210 211 168
f 211 217 169
f 206 234 207
f 207 235 208
f 208 236 209
f 209 237 210
f 210 238 211
f 234 235 207
f 235 236 208
f 236 237 209
f 237 238 210
f 238 239 211
f 211 239 217
f 212 192 157
f 213 212 158
f 214 213 170
f 215 214 171
f 216 215 172
f 222 216 173
f 230 193 195
f 230 195 194
f 230 194 196
f 230 196 197
f 230 197 198
f 230 198 199
f 199 198 189
f 200 199 190
f 240 200 191
f 230 199 200
f 230 200 240
f 230 240 241
f 230 241 242
f 230 242 243
f 230 243 244
f 230 244 245
f 230 245 246
f 230 246 247
f 230 248 249
f 230 250 248
f 230 247 250
f 192 240 191
f 212 241 192
f 213 242 212
f 214 243 213
f 241 240 192
f 242 241 212
f 243 242 213
f 215 244 214
f 216 245 215
f 222 246 216
f 244 243 214
f 245 244 215
f 246 245 216
f 247 246 222
f 217 218 175
f 218 219 176
f 220 224 181
f 219 220 177
f 223 221 179
f 225 223 178
f 221 222 174
f 224 225 180
f 220 251 224
f 224 249 225
f 230 239 238
f 230 252 239
f 230 253 252
f 230 254 253
f 230 251 254
f 230 249 251
f 239 252 217
f 252 253 218
f 253 254 219
f 248 250 223
f 254 251 220
f 251 249 224
f 249 248 225
f 217 252 218
f 218 253 219
f 219 254 220
f 223 250 221
f 221 247 222
f 225 248 223
f 250 247 221
f 255 256 257
f 258 259 255
f 260 261 258
f 262 263 260
f 264 265 266
f 256 264 257
f 259 256 255
f 261 259 258
f 263 261 260
f 267 268 262
f 269 270 267
f 268 263 262
f 270 268 267
f 271 270 269
f 264 272 265
f 265 273 274
f 273 275 274
f 272 273 265
f 256 276 264
f 259 277 256
f 261 278 259
f 263 279 261
f 276 272 264
f 277 276 256
f 278 277 259
f 279 278 261
f 268 280 263
f 270 281 268
f 271 282 270
f 283 284 271
f 280 279 263
f 281 280 268
f 282 281 270
f 284 282 271
f 285 274 286
f 287 288 289
f 286 290 287
f 289 291 292
f 292 293 294
f 294 295 296
f 296 297 298
f 299 285 286
f 299 286 287
f 299 266 285
f 299 257 266
f 299 255 257
f 299 258 255
f 299 260 258
f 299 262 260
f 299 267 262
f 266 265 285
f 257 264 266
f 299 287 289
f 299 289 292
f 299 292 294
f 299 294 296
f 299 296 298
f 299 298 300
f 265 274 285
f 274 290 286
f 290 288 287
f 288 291 289
f 291 293 292
f 293 295 294
f 295 297 296
f 298 301 300
f 300 302 303
f 299 300 303
f 299 303 304
f 299 304 305
f 299 305 306
f 299 306 307
f 299 307 308
f 299 308 309
f 303 310 304
f 304 311 305
f 305 312 306
f 306 313 307
f 307 314 308
f 308 315 309
f 297 301 298
f 301 302 300
f 302 310 303
f 310 311 304
f 311 312 305
f 312 313 306
f 313 314 307
f 314 315 308
f 299 269 267
f 299 316 269
f 299 317 316
f 299 318 317
f 299 319 318
f 316 271 269
f 317 283 316
f 318 320 317
f 319 321 318
f 299 322 319
f 299 323 322
f 299 324 323
f 299 325 324
f 299 326 325
f 299 327 326
f 322 328 319
f 323 329 322
f 324 330 323
f 325 331 324
f 283 271 316
f 320 283 317
f 321 320 318
f 328 321 319
f 329 328 322
f 330 329 323
f 331 330 324
f 299 309 332
f 299 332 333
f 299 333 327
f 309 334 332
f 332 335 333
f 333 336 327
f 326 337 325
f 327 338 326
f 334 335 332
f 335 336 333
f 338 337 326
f 337 331 325
f 336 338 327
f 315 334 309
f 288 339 291
f 274 275 290
f 290 340 288
f 275 340 290
f 340 339 288
f 339 341 291
f 291 341 293
f 293 342 295
f 295 343 297
f 341 342 293
f 342 343 295
f 297 344 301
f 301 345 302
f 302 346 310
f 343 344 297
f 344 345 301
f 345 346 302
f 310 347 311
f 346 347 310
f 347 348 311
f 311 348 312
f 312 349 313
f 313 350 314
f 314 351 315
f 348 349 312
f 349 350 313
f 350 351 314
f 351 352 315
f 320 353 283
f 353 284 283
f 321 354 320
f 328 355 321
f 354 353 320
f 355 354 321
f 329 356 328
f 330 357 329
f 331 358 330
f 356 355 328
f 358 357 330
f 357 356 329
f 337 359 331
f 336 360 338
f 338 361 337
f 360 361 338
f 315 352 334
f 334 362 335
f 335 363 336
f 362 363 335
f 352 362 334
f 363 360 336
f 359 358 331
f 361 359 337
f 275 364 340
f 272 365 273
f 273 366 275
f 277 367 276
f 278 368 277
f 279 369 278
f 276 370 272
f 280 371 279
f 281 372 280
f 282 373 281
f 284 374 282
f 353 375 284
f 364 376 340
f 365 366 273
f 370 365 272
f 366 364 275
f 367 370 276
f 368 367 277
f 369 368 278
f 371 369 279
f 372 371 280
f 373 372 281
f 374 373 282
f 375 374 284
f 340 376 339
f 339 377 341
f 341 378 342
f 342 379 343
f 343 380 344
f 344 381 345
f 345 382 346
f 346 383 347
f 347 384 348
f 348 385 349
f 349 386 350
f 350 387 351
f 351 388 352
f 354 389 353
f 355 390 354
f 356 391 355
f 357 392 356
f 352 393 362
f 362 394 363
f 363 395 360
f 360 396 361
f 358 397 357
f 359 398 358
f 361 399 359
f 376 377 339
f 377 378 341
f 378 379 342
f 379 380 343
f 380 381 344
f 381 382 345
f 382 383 346
f 383 384 347
f 384 385 348
f 385 386 349
f 386 387 350
f 387 388 351
f 388 393 352
f 389 375 353
f 390 389 354
f 391 390 355
f 392 391 356
f 397 392 357
f 393 394 362
f 396 399 361
f 395 396 360
f 394 395 363
f 398 397 358
f 399 398 359
f 364 400 376
f 366 401 364
f 365 402 366
f 367 403 370
f 368 404 367
f 369 405 368
f 370 406 365
f 400 407 376
f 402 401 366
f 406 402 365
f 401 400 364
f 403 406 370
f 404 403 367
f 405 404 368
f 371 408 369
f 372 409 371
f 373 410 372
f 374 411 373
f 375 412 374
f 408 405 369
f 409 408 371
f 410 409 372
f 411 410 373
f 412 411 374
f 376 407 377
f 377 413 378
f 378 414 379
f 379 415 380
f 380 416 381
f 407 413 377
f 413 414 378
f 414 415 379
f 415 416 380
f 381 417 382
f 382 418 383
f 383 419 384
f 384 420 385
f 385 421 386
f 386 422 387
f 387 423 388
f 388 424 393
f 416 417 381
f 417 418 382
f 418 419 383
f 419 420 384
f 420 421 385
f 421 422 386
f 422 423 387
f 423 424 388
f 424 425 393
f 389 426 375
f 390 427 389
f 391 428 390
f 392 429 391
f 426 412 375
f 427 426 389
f 428 427 390
f 429 428 391
f 430 429 392
f 393 425 394
f 394 431 395
f 396 432 399
f 395 433 396
f 397 430 392
f 399 434 398
f 398 435 397
f 425 431 394
f 432 434 399
f 433 432 396
f 431 433 395
f 435 430 397
f 434 435 398
f 400 436 407
f 402 437 401
f 401 438 400
f 406 439 402
f 403 440 406
f 404 441 403
f 405 442 404
f 408 443 405
f 409 444 408
f 410 445 409
f 411 446 410
f 438 436 400
f 437 438 401
f 439 437 402
f 440 439 406
f 441 440 403
f 442 441 404
f 437 447 438
f 440 448 439
f 439 449 437
f 441 450 440
f 442 451 441
f 450 448 440
f 451 450 441
f 452 451 442
f 443 442 405
f 444 443 408
f 445 444 409
f 446 445 410
f 443 452 442
f 444 453 443
f 445 454 444
f 407 455 413
f 413 456 414
f 414 457 415
f 415 458 416
f 416 459 417
f 417 460 418
f 418 461 419
f 419 462 420
f 420 463 421
f 421 464 422
f 422 465 423
f 423 466 424
f 424 467 425
f 412 468 411
f 426 469 412
f 427 470 426
f 428 471 427
f 429 472 428
f 425 473 431
f 431 474 433
f 433 475 432
f 432 476 434
f 435 477 430
f 430 478 429
f 434 479 435
f 455 456 413
f 456 457 414
f 436 455 407
f 457 458 415
f 458 459 416
f 438 480 436
f 436 481 455
f 455 482 456
f 456 483 457
f 481 482 455
f 482 483 456
f 457 484 458
f 458 485 459
f 459 486 460
f 483 484 457
f 484 485 458
f 485 486 459
f 486 487 460
f 447 480 438
f 480 481 436
f 449 447 437
f 448 449 439
f 488 482 481
f 488 481 480
f 488 480 447
f 488 447 449
f 488 449 448
f 488 448 450
f 488 450 451
f 488 451 452
f 488 452 453
f 488 483 482
f 488 484 483
f 488 485 484
f 488 486 485
f 488 487 486
f 488 489 487
f 488 490 489
f 488 491 490
f 488 492 491
f 459 460 417
f 460 461 418
f 461 462 419
f 462 463 420
f 463 464 421
f 464 465 422
f 465 466 423
f 466 467 424
f 467 473 425
f 460 487 461
f 461 489 462
f 462 490 463
f 487 489 461
f 489 490 462
f 463 491 464
f 464 492 465
f 490 491 463
f 491 492 464
f 492 493 465
f 488 493 492
f 488 494 493
f 488 495 494
f 488 496 495
f 488 497 496
f 488 498 497
f 493 494 466
f 494 495 467
f 495 496 473
f 465 493 466
f 466 494 467
f 467 495 473
f 468 446 411
f 469 468 412
f 470 469 426
f 471 470 427
f 472 471 428
f 478 472 429
f 446 499 445
f 468 500 446
f 469 501 468
f 470 502 469
f 453 452 443
f 454 453 444
f 499 454 445
f 488 453 454
f 488 454 499
f 488 499 500
f 500 499 446
f 501 500 468
f 502 501 469
f 471 503 470
f 472 504 471
f 478 505 472
f 488 500 501
f 488 501 502
f 488 502 503
f 488 503 504
f 488 504 505
f 488 505 506
f 488 507 498
f 488 508 507
f 488 506 508
f 503 502 470
f 504 503 471
f 505 504 472
f 506 505 478
f 479 477 435
f 476 479 434
f 474 475 433
f 473 474 431
f 475 476 432
f 477 478 430
f 474 497 475
f 475 498 476
f 479 508 477
f 477 506 478
f 476 507 479
f 507 508 479
f 496 497 474
f 497 498 475
f 498 507 476
f 508 506 477
f 473 496 474
f 509 510 511
f 511 512 513
f 514 515 509
f 514 516 515
f 514 517 516
f 514 518 517
f 514 519 518
f 514 520 519
f 514 521 520
f 515 522 509
f 516 523 515
f 517 524 516
f 518 525 517
f 519 526 518
f 520 527 519
f 522 510 509
f 512 528 513
f 510 512 511
f 525 524 517
f 526 525 518
f 527 526 519
f 523 522 515
f 524 523 516
f 513 528 529
f 529 530 531
f 531 532 533
f 533 534 535
f 535 536 537
f 537 538 539
f 539 540 541
f 514 509 511
f 514 511 513
f 514 513 529
f 514 529 531
f 514 531 533
f 514 533 535
f 514 535 537
f 514 537 539
f 514 539 541
f 514 541 542
f 514 542 543
f 514 543 544
f 514 544 545
f 514 545 546
f 514 546 547
f 541 548 542
f 528 530 529
f 530 532 531
f 532 534 533
f 534 536 535
f 536 538 537
f 538 540 539
f 540 548 541
f 514 549 521
f 514 550 549
f 514 551 550
f 521 552 520
f 549 553 521
f 550 554 549
f 551 555 550
f 556 557 551
f 552 527 520
f 553 552 521
f 554 553 549
f 555 554 550
f 557 555 551
f 558 557 556
f 514 556 551
f 514 559 556
f 514 560 559
f 514 561 560
f 514 562 561
f 514 563 562
f 559 558 556
f 560 564 559
f 561 565 560
f 562 566 561
f 514 547 567
f 514 567 568
f 514 568 569
f 514 570 563
f 514 569 570
f 567 571 568
f 568 572 569
f 570 573 563
f 563 574 562
f 569 575 570
f 564 558 559
f 565 564 560
f 566 565 561
f 574 566 562
f 573 574 563
f 575 573 570
f 572 575 569
f 523 576 522
f 576 577 522
f 510 578 512
f 522 577 510
f 512 579 528
f 578 579 512
f 579 580 528
f 577 578 510
f 524 581 523
f 525 582 524
f 526 583 525
f 527 584 526
f 582 581 524
f 581 576 523
f 583 582 525
f 584 583 526
f 528 580 530
f 530 585 532
f 532 586 534
f 585 586 532
f 580 585 530
f 586 587 534
f 534 587 536
f 536 588 538
f 538 589 540
f 587 588 536
f 588 589 538
f 589 590 540
f 552 591 527
f 553 592 552
f 554 593 553
f 591 584 527
f 592 591 552
f 593 592 553
f 594 593 554
f 555 594 554
f 557 595 555
f 595 594 555
f 558 596 557
f 596 595 557
f 597 596 558
f 573 598 574
f 575 599 573
f 564 597 558
f 565 600 564
f 566 601 565
f 600 597 564
f 601 600 565
f 574 602 566
f 602 601 566
f 598 602 574
f 599 598 573
f 542 603 543
f 543 604 544
f 544 605 545
f 545 606 546
f 546 607 547
f 548 603 542
f 603 604 543
f 604 605 544
f 605 606 545
f 606 607 546
f 547 608 567
f 607 608 547
f 608 571 567
f 571 572 568
f 540 590 548
f 548 609 603
f 590 609 548
f 609 610 603
f 603 610 604
f 604 611 605
f 605 612 606
f 606 613 607
f 610 611 604
f 611 612 605
f 612 613 606
f 613 614 607
f 607 614 608
f 608 615 571
f 572 616 575
f 571 617 572
f 614 615 608
f 615 617 571
f 617 616 572
f 616 599 575
f 577 618 578
f 576 619 577
f 578 620 579
f 579 621 580
f 580 622 585
f 581 623 576
f 582 624 581
f 583 625 582
f 584 626 583
f 585 627 586
f 586 628 587
f 587 629 588
f 588 630 589
f 591 631 584
f 592 632 591
f 593 633 592
f 594 634 593
f 595 635 594
f 596 636 595
f 597 637 596
f 600 638 597
f 601 639 600
f 602 640 601
f 598 641 602
f 623 619 576
f 619 618 577
f 618 620 578
f 620 621 579
f 621 622 580
f 624 623 581
f 625 624 582
f 626 625 583
f 622 627 585
f 627 628 586
f 628 629 587
f 629 630 588
f 630 642 589
f 631 626 584
f 632 631 591
f 633 632 592
f 634 633 593
f 635 634 594
f 636 635 595
f 637 636 596
f 638 637 597
f 639 638 600
f 640 639 601
f 641 640 602
f 589 642 590
f 590 643 609
f 609 644 610
f 610 645 611
f 611 646 612
f 612 647 613
f 613 648 614
f 615 649 617
f 616 650 599
f 617 651 616
f 614 652 615
f 599 653 598
f 642 643 590
f 643 644 609
f 644 645 610
f 645 646 611
f 646 647 612
f 647 648 613
f 648 652 614
f 650 653 599
f 649 651 617
f 651 650 616
f 652 649 615
f 653 641 598
f 619 654 618
f 618 655 620
f 621 656 622
f 620 657 621
f 622 658 627
f 623 659 619
f 624 660 623
f 625 661 624
f 626 662 625
f 659 654 619
f 654 655 618
f 655 657 620
f 657 656 621
f 656 658 622
f 660 659 623
f 661 660 624
f 662 661 625
f 627 663 628
f 628 664 629
f 629 665 630
f 630 666 642
f 658 663 627
f 663 664 628
f 664 665 629
f 665 666 630
f 666 667 642
f 631 668 626
f 632 669 631
f 633 670 632
f 634 671 633
f 635 672 634
f 636 673 635
f 668 662 626
f 669 668 631
f 670 669 632
f 671 670 633
f 672 671 634
f 673 672 635
f 674 673 636
f 637 674 636
f 638 675 637
f 639 676 638
f 640 677 639
f 641 678 640
f 675 674 637
f 676 675 638
f 677 676 639
f 678 677 640
f 642 667 643
f 643 679 644
f 644 680 645
f 645 681 646
f 646 682 647
f 647 683 648
f 648 684 652
f 667 679 643
f 679 680 644
f 680 681 645
f 681 682 646
f 682 683 647
f 683 684 648
f 684 685 652
f 649 686 651
f 651 687 650
f 650 688 653
f 652 685 649
f 653 689 641
f 688 689 653
f 686 687 651
f 687 688 650
f 685 686 649
f 689 678 641
f 655 690 657
f 654 691 655
f 657 692 656
f 658 693 663
f 656 694 658
f 659 695 654
f 660 696 659
f 661 697 660
f 662 698 661
f 663 699 664
f 664 700 665
f 665 701 666
f 666 702 667
f 667 703 679
f 668 704 662
f 669 705 668
f 670 706 669
f 671 707 670
f 672 708 671
f 673 709 672
f 674 710 673
f 675 711 674
f 676 712 675
f 677 713 676
f 678 714 677
f 691 690 655
f 694 693 658
f 690 692 657
f 692 694 656
f 696 695 659
f 695 691 654
f 697 696 660
f 698 697 661
f 690 715 692
f 694 716 693
f 692 717 694
f 717 716 694
f 696 718 695
f 697 719 696
f 698 720 697
f 691 721 690
f 695 722 691
f 721 715 690
f 722 721 691
f 718 722 695
f 715 717 692
f 719 718 696
f 720 719 697
f 723 720 698
f 724 721 722
f 724 722 718
f 724 718 719
f 724 719 720
f 724 720 723
f 724 723 725
f 693 699 663
f 699 700 664
f 700 701 665
f 701 702 666
f 702 703 667
f 703 726 679
f 693 727 699
f 699 728 700
f 700 729 701
f 716 727 693
f 727 728 699
f 728 729 700
f 729 730 701
f 701 730 702
f 702 731 703
f 703 732 726
f 726 733 734
f 730 731 702
f 731 732 703
f 732 733 726
f 724 716 717
f 724 717 715
f 724 715 721
f 724 727 716
f 724 728 727
f 724 729 728
f 724 730 729
f 724 731 730
f 724 732 731
f 724 733 732
f 724 735 733
f 724 736 735
f 733 735 734
f 735 736 737
f 736 738 739
f 724 738 736
f 724 740 738
f 724 741 740
f 724 742 741
f 724 743 742
f 724 744 743
f 704 698 662
f 705 704 668
f 706 705 669
f 707 706 670
f 708 707 671
f 709 708 672
f 710 709 673
f 704 723 698
f 705 725 704
f 706 745 705
f 707 746 706
f 708 747 707
f 709 748 708
f 725 723 704
f 745 725 705
f 746 745 706
f 747 746 707
f 748 747 708
f 749 714 678
f 711 710 674
f 712 711 675
f 713 712 676
f 714 713 677
f 710 750 709
f 711 751 710
f 712 752 711
f 724 725 745
f 724 745 746
f 724 746 747
f 724 747 748
f 724 748 750
f 724 750 751
f 724 751 752
f 724 752 753
f 724 753 754
f 750 748 709
f 751 750 710
f 752 751 711
f 753 752 712
f 713 753 712
f 714 754 713
f 749 755 714
f 756 757 749
f 724 757 744
f 724 755 757
f 724 754 755
f 742 743 758
f 743 744 759
f 757 755 749
f 744 757 756
f 754 753 713
f 755 754 714
f 679 726 680
f 680 734 681
f 681 737 682
f 682 739 683
f 683 760 684
f 684 761 685
f 685 762 686
f 686 758 687
f 688 756 689
f 687 759 688
f 689 749 678
f 726 734 680
f 734 737 681
f 737 739 682
f 739 760 683
f 760 761 684
f 761 762 685
f 734 735 737
f 737 736 739
f 739 738 760
f 760 740 761
f 761 741 762
f 738 740 760
f 740 741 761
f 741 742 762
f 762 758 686
f 758 759 687
f 759 756 688
f 756 749 689
f 758 743 759
f 762 742 758
f 759 744 756
f 763 764 765
f 763 766 764
f 763 767 766
f 765 768 769
f 769 770 771
f 764 772 765
f 766 773 764
f 767 774 766
f 775 774 767
f 772 768 765
f 770 776 771
f 768 770 769
f 773 772 764
f 774 773 766
f 763 765 769
f 763 769 771
f 763 771 777
f 763 777 778
f 763 778 779
f 763 779 780
f 771 776 777
f 777 781 778
f 778 782 779
f 779 783 780
f 763 780 784
f 763 784 785
f 763 785 786
f 763 786 787
f 763 787 788
f 780 789 784
f 784 790 785
f 785 791 786
f 786 792 787
f 776 781 777
f 781 782 778
f 782 783 779
f 783 789 780
f 789 790 784
f 790 791 785
f 791 792 786
f 763 793 767
f 763 794 793
f 763 795 794
f 763 796 795
f 763 797 796
f 763 798 797
f 763 799 798
f 793 775 767
f 794 800 793
f 795 801 794
f 796 802 795
f 797 803 796
f 798 804 797
f 799 805 798
f 806 807 799
f 800 775 793
f 801 800 794
f 802 801 795
f 803 802 796
f 804 803 797
f 805 804 798
f 807 805 799
f 808 807 806
f 763 806 799
f 763 809 806
f 763 810 809
f 763 811 810
f 763 812 811
f 763 813 812
f 763 788 814
f 763 814 815
f 763 815 816
f 763 816 817
f 763 817 818
f 763 818 819
f 763 819 820
f 763 821 813
f 763 820 821
f 818 822 819
f 819 823 820
f 809 808 806
f 810 824 809
f 811 825 810
f 812 826 811
f 821 827 813
f 813 828 812
f 820 829 821
f 824 808 809
f 825 824 810
f 826 825 811
f 828 826 812
f 827 828 813
f 829 827 821
f 823 829 820
f 830 831 770
f 831 832 776
f 773 833 772
f 774 834 773
f 775 835 774
f 833 836 772
f 835 834 774
f 834 833 773
f 768 830 770
f 772 836 768
f 770 831 776
f 836 830 768
f 776 832 781
f 781 837 782
f 782 838 783
f 837 838 782
f 832 837 781
f 838 839 783
f 783 839 789
f 789 840 790
f 839 840 789
f 840 841 790
f 790 841 791
f 841 842 791
f 800 843 775
f 801 844 800
f 802 845 801
f 803 846 802
f 843 835 775
f 844 843 800
f 845 844 801
f 846 845 802
f 804 847 803
f 847 846 803
f 848 847 804
f 805 848 804
f 807 849 805
f 808 850 807
f 849 848 805
f 850 849 807
f 851 850 808
f 824 851 808
f 825 852 824
f 826 853 825
f 852 851 824
f 853 852 825
f 827 854 828
f 829 855 827
f 828 856 826
f 856 853 826
f 854 856 828
f 855 854 827
f 787 857 788
f 788 858 814
f 792 857 787
f 857 858 788
f 858 859 814
f 814 859 815
f 815 860 816
f 816 861 817
f 817 862 818
f 859 860 815
f 860 861 816
f 861 862 817
f 862 822 818
f 822 823 819
f 791 842 792
f 792 863 857
f 857 864 858
f 858 865 859
f 842 863 792
f 863 864 857
f 864 865 858
f 865 866 859
f 859 866 860
f 860 867 861
f 861 868 862
f 862 869 822
f 866 867 860
f 867 868 861
f 868 869 862
f 869 870 822
f 823 871 829
f 822 870 823
f 870 871 823
f 871 855 829
f 830 872 831
f 831 873 832
f 832 874 837
f 836 875 830
f 833 876 836
f 834 877 833
f 835 878 834
f 837 879 838
f 838 880 839
f 839 881 840
f 840 882 841
f 843 883 835
f 844 884 843
f 845 885 844
f 846 886 845
f 847 887 846
f 848 888 847
f 849 889 848
f 850 890 849
f 851 891 850
f 852 892 851
f 853 893 852
f 856 894 853
f 854 895 856
f 872 873 831
f 873 874 832
f 877 876 833
f 876 875 836
f 875 872 830
f 878 877 834
f 874 879 837
f 879 880 838
f 880 881 839
f 881 882 840
f 882 896 841
f 883 878 835
f 884 883 843
f 885 884 844
f 886 885 845
f 887 886 846
f 888 887 847
f 889 888 848
f 890 889 849
f 891 890 850
f 892 891 851
f 893 892 852
f 894 893 853
f 895 894 856
f 841 896 842
f 842 897 863
f 863 898 864
f 864 899 865
f 865 900 866
f 869 901 870
f 866 902 867
f 867 903 868
f 868 904 869
f 871 905 855
f 870 906 871
f 855 907 854
f 896 897 842
f 897 898 863
f 898 899 864
f 899 900 865
f 900 902 866
f 902 903 867
f 903 904 868
f 904 901 869
f 905 907 855
f 901 906 870
f 906 905 871
f 907 895 854
f 873 908 874
f 872 909 873
f 874 910 879
f 876 911 875
f 875 912 872
f 877 913 876
f 878 914 877
f 909 908 873
f 908 910 874
f 913 911 876
f 911 912 875
f 912 909 872
f 914 913 877
f 879 915 880
f 880 916 881
f 881 917 882
f 882 918 896
f 910 915 879
f 915 916 880
f 916 917 881
f 917 918 882
f 918 919 896
f 883 920 878
f 884 921 883
f 885 922 884
f 886 923 885
f 887 924 886
f 888 925 887
f 889 926 888
f 890 927 889
f 920 914 878
f 921 920 883
f 922 921 884
f 923 922 885
f 924 923 886
f 925 924 887
f 926 925 888
f 927 926 889
f 928 927 890
f 891 928 890
f 892 929 891
f 893 930 892
f 894 931 893
f 895 932 894
f 929 928 891
f 930 929 892
f 931 930 893
f 932 931 894
f 896 919 897
f 897 933 898
f 898 934 899
f 899 935 900
f 900 936 902
f 919 933 897
f 933 934 898
f 934 935 899
f 935 936 900
f 936 937 902
f 901 938 906
f 902 937 903
f 903 939 904
f 904 940 901
f 906 941 905
f 905 942 907
f 907 943 895
f 937 939 903
f 939 940 904
f 940 938 901
f 942 943 907
f 938 941 906
f 941 942 905
f 943 932 895
f 909 944 908
f 910 945 915
f 908 946 910
f 912 947 909
f 911 948 912
f 913 949 911
f 914 950 913
f 915 951 916
f 916 952 917
f 917 953 918
f 918 954 919
f 919 955 933
f 920 956 914
f 921 957 920
f 922 958 921
f 923 959 922
f 924 960 923
f 925 961 924
f 926 962 925
f 927 963 926
f 928 964 927
f 929 965 928
f 930 966 929
f 931 967 930
f 932 968 931
f 946 945 910
f 948 947 912
f 950 949 913
f 949 948 911
f 947 944 909
f 944 946 908
f 950 969 949
f 947 970 944
f 946 971 945
f 944 972 946
f 948 973 947
f 949 974 948
f 972 971 946
f 973 970 947
f 974 973 948
f 969 974 949
f 970 972 944
f 945 951 915
f 951 952 916
f 952 953 917
f 953 954 918
f 954 955 919
f 955 975 933
f 945 976 951
f 951 977 952
f 952 978 953
f 971 976 945
f 976 977 951
f 977 978 952
f 978 979 953
f 980 971 972
f 980 972 970
f 980 970 973
f 980 976 971
f 980 977 976
f 980 978 977
f 980 979 978
f 980 981 979
f 980 982 981
f 953 979 954
f 954 981 955
f 955 982 975
f 975 983 984
f 979 981 954
f 981 982 955
f 982 983 975
f 980 983 982
f 980 985 983
f 980 986 985
f 983 985 984
f 985 986 987
f 986 988 989
f 956 950 914
f 957 956 920
f 958 957 921
f 959 958 922
f 960 959 923
f 961 960 924
f 962 961 925
f 963 962 926
f 964 963 927
f 956 990 950
f 957 991 956
f 958 992 957
f 959 993 958
f 960 994 959
f 990 969 950
f 991 990 956
f 992 991 957
f 980 973 974
f 980 974 969
f 980 969 990
f 980 990 991
f 980 991 992
f 980 992 993
f 993 992 958
f 994 993 959
f 995 994 960
f 961 995 960
f 962 996 961
f 963 997 962
f 996 995 961
f 997 996 962
f 965 964 928
f 966 965 929
f 998 968 932
f 967 966 930
f 968 967 931
f 980 993 994
f 980 994 995
f 980 995 996
f 980 996 997
f 980 997 999
f 980 999 1000
f 980 1000 1001
f 980 1001 1002
f 980 1002 1003
f 980 988 986
f 980 1004 988
f 980 1005 1004
f 980 1006 1005
f 980 1007 1006
f 980 1008 1007
f 980 1009 1008
f 980 1010 1009
f 980 1003 1010
f 1006 1007 1011
f 1007 1008 1012
f 1009 1010 998
f 1008 1009 1013
f 964 999 963
f 965 1000 964
f 966 1001 965
f 999 997 963
f 1000 999 964
f 1001 1000 965
f 1002 1001 966
f 967 1002 966
f 968 1003 967
f 998 1010 968
f 1013 1009 998
f 1003 1002 967
f 1010 1003 968
f 933 975 934
f 934 984 935
f 935 987 936
f 936 989 937
f 937 1014 939
f 939 1015 940
f 940 1016 938
f 938 1011 941
f 942 1013 943
f 941 1012 942
f 943 998 932
f 975 984 934
f 984 987 935
f 987 989 936
f 989 1014 937
f 984 985 987
f 987 986 989
f 989 988 1014
f 1014 1015 939
f 1015 1016 940
f 1016 1011 938
f 1011 1012 941
f 1012 1013 942
f 1013 998 943
f 1014 1004 1015
f 1015 1005 1016
f 1011 1007 1012
f 1016 1006 1011
f 1012 1008 1013
f 988 1004 1014
f 1004 1005 1015
f 1005 1006 1016
