# sionna2 mesh — s1000plus__camera.obj
# group=camera  verts=97  tris=190
v -0.074893 -0.074893 -0.047461
v -0.074893 -0.074893 -0.040097
v -0.074893 0.074893 -0.040097
v 0.074893 -0.074893 -0.047461
v -0.006114 -0.014761 -0.047461
v -0.011298 -0.011298 -0.047461
v -0.014761 -0.006114 -0.047461
v -0.015977 0.000000 -0.047461
v -0.014761 0.006114 -0.047461
v -0.074893 0.074893 -0.047461
v -0.011298 0.011298 -0.047461
v -0.006114 0.014761 -0.047461
v 0.000000 0.015977 -0.047461
v 0.074893 0.074893 -0.040097
v 0.006114 0.014761 -0.047461
v 0.074893 0.074893 -0.047461
v 0.074893 -0.074893 -0.040097
v -0.000000 -0.015977 -0.047461
v 0.006114 -0.014761 -0.047461
v 0.011298 -0.011298 -0.047461
v 0.014761 -0.006114 -0.047461
v 0.011298 0.011298 -0.047461
v 0.015977 0.000000 -0.047461
v 0.014761 0.006114 -0.047461
v -0.014761 -0.006114 -0.051144
v -0.011298 -0.011298 -0.051144
v -0.006114 -0.014761 -0.051144
v -0.015977 0.000000 -0.051144
v -0.000000 -0.015977 -0.051144
v -0.014761 0.006114 -0.051144
v -0.011298 0.011298 -0.051144
v -0.006114 0.014761 -0.051144
v 0.000000 0.015977 -0.051144
v 0.006114 0.014761 -0.051144
v 0.006114 -0.014761 -0.051144
v 0.011298 -0.011298 -0.051144
v 0.014761 -0.006114 -0.051144
v 0.015977 0.000000 -0.051144
v 0.011298 0.011298 -0.051144
v 0.014761 0.006114 -0.051144
v -0.049929 -0.049929 -0.112516
v 0.049929 -0.049929 -0.112516
v -0.049929 -0.049929 -0.051144
v -0.049929 0.049929 -0.112516
v -0.049929 0.049929 -0.051144
v 0.049929 -0.049929 -0.051144
v 0.049929 0.049929 -0.051144
v 0.049929 -0.024596 -0.076429
v 0.049929 0.000000 -0.102696
v 0.049929 -0.006590 -0.101985
v 0.049929 -0.012732 -0.099901
v 0.049929 -0.018005 -0.096585
v 0.049929 -0.022052 -0.092263
v 0.049929 -0.024596 -0.087230
v 0.049929 0.006590 -0.101985
v 0.049929 -0.025464 -0.081830
v 0.049929 -0.022052 -0.071396
v 0.049929 -0.018005 -0.067075
v 0.049929 -0.012732 -0.063759
v 0.049929 -0.006590 -0.061674
v 0.049929 0.049929 -0.112516
v 0.049929 0.012732 -0.099901
v 0.049929 0.018005 -0.096585
v 0.049929 0.022052 -0.092263
v 0.049929 0.024596 -0.087230
v 0.049929 0.025464 -0.081830
v 0.049929 0.024596 -0.076429
v 0.049929 0.006590 -0.061674
v 0.049929 0.012732 -0.063759
v 0.049929 0.018005 -0.067075
v 0.049929 0.022052 -0.071396
v 0.049929 0.000000 -0.060963
v 0.082382 -0.018005 -0.096585
v 0.082382 -0.012732 -0.099901
v 0.082382 -0.006590 -0.101985
v 0.082382 0.000000 -0.102696
v 0.082382 0.000000 -0.081830
v 0.082382 -0.022052 -0.092263
v 0.082382 -0.024596 -0.087230
v 0.082382 -0.025464 -0.081830
v 0.082382 -0.024596 -0.076429
v 0.082382 -0.022052 -0.071396
v 0.082382 -0.018005 -0.067075
v 0.082382 -0.012732 -0.063759
v 0.082382 -0.006590 -0.061674
v 0.082382 0.000000 -0.060963
v 0.082382 0.006590 -0.101985
v 0.082382 0.012732 -0.099901
v 0.082382 0.018005 -0.096585
v 0.082382 0.022052 -0.092263
v 0.082382 0.024596 -0.087230
v 0.082382 0.025464 -0.081830
v 0.082382 0.024596 -0.076429
v 0.082382 0.022052 -0.071396
v 0.082382 0.006590 -0.061674
v 0.082382 0.012732 -0.063759
v 0.082382 0.018005 -0.067075
f 1 2 3
f 1 4 2
f 1 5 4
f 1 6 5
f 1 7 6
f 1 8 7
f 1 9 8
f 1 3 10
f 1 10 9
f 10 11 9
f 10 12 11
f 10 13 12
f 2 14 3
f 10 15 13
f 10 3 14
f 10 16 15
f 2 4 17
f 4 5 18
f 4 18 19
f 4 19 20
f 2 17 14
f 4 20 21
f 4 21 16
f 4 16 17
f 16 22 15
f 16 21 23
f 16 23 24
f 16 24 22
f 10 14 16
f 17 16 14
f 25 26 6
f 5 26 27
f 28 25 7
f 27 29 18
f 5 6 26
f 6 7 25
f 7 8 28
f 18 5 27
f 19 18 29
f 30 28 8
f 31 30 9
f 11 32 31
f 33 32 12
f 34 33 13
f 8 9 30
f 9 11 31
f 11 12 32
f 12 13 33
f 29 35 19
f 35 36 20
f 36 37 21
f 37 38 23
f 20 19 35
f 21 20 36
f 37 23 21
f 34 15 39
f 40 39 22
f 38 40 24
f 13 15 34
f 39 15 22
f 38 24 23
f 22 24 40
f 41 42 43
f 41 44 42
f 41 43 45
f 43 46 27
f 43 27 26
f 43 26 25
f 43 25 28
f 43 28 30
f 41 45 44
f 43 30 45
f 45 30 31
f 45 31 32
f 45 32 33
f 45 33 34
f 44 45 47
f 45 34 47
f 42 48 46
f 42 49 50
f 42 50 51
f 42 52 53
f 42 53 54
f 42 51 52
f 42 55 49
f 42 54 56
f 42 56 48
f 43 42 46
f 46 29 27
f 46 35 29
f 46 36 35
f 46 37 36
f 46 47 37
f 46 48 57
f 46 57 58
f 46 58 59
f 46 59 60
f 46 60 47
f 44 61 42
f 44 47 61
f 42 61 55
f 61 62 55
f 61 63 62
f 61 64 63
f 61 65 64
f 61 47 65
f 47 34 39
f 47 38 37
f 47 40 38
f 47 39 40
f 47 66 65
f 47 67 66
f 47 68 69
f 47 69 70
f 47 71 67
f 47 70 71
f 47 60 72
f 47 72 68
f 73 53 52
f 74 52 51
f 75 51 50
f 76 50 49
f 74 51 75
f 73 52 74
f 75 50 76
f 74 75 77
f 75 76 77
f 78 54 53
f 79 56 54
f 80 48 56
f 78 53 73
f 78 79 54
f 79 80 56
f 80 81 48
f 73 74 77
f 78 73 77
f 78 77 79
f 79 77 80
f 80 77 81
f 81 77 82
f 81 57 48
f 82 58 57
f 83 59 58
f 84 60 59
f 85 72 60
f 81 82 57
f 82 83 58
f 82 77 83
f 83 77 84
f 84 77 85
f 85 77 86
f 83 84 59
f 84 85 60
f 85 86 72
f 87 49 55
f 88 55 62
f 89 62 63
f 76 49 87
f 87 55 88
f 88 62 89
f 76 87 77
f 87 88 77
f 89 63 90
f 90 63 64
f 91 64 65
f 92 65 66
f 93 66 67
f 77 88 89
f 77 89 90
f 77 90 91
f 77 91 92
f 77 92 93
f 77 93 94
f 90 64 91
f 91 65 92
f 92 66 93
f 86 68 72
f 95 69 68
f 96 70 69
f 94 67 71
f 97 71 70
f 77 95 86
f 77 96 95
f 77 94 97
f 77 97 96
f 86 95 68
f 95 96 69
f 96 97 70
f 93 67 94
f 97 94 71
