# sionna2 mesh — s1000plus__canopy.obj
# group=canopy  verts=34  tris=64
v 0.087780 0.000000 0.017787
v 0.080144 0.044389 0.017787
v 0.033802 0.022195 0.118041
v 0.037620 0.000000 0.118041
v 0.058397 0.082021 0.017787
v 0.022928 0.041010 0.118041
v 0.025851 0.107165 0.017787
v 0.006655 0.053583 0.118041
v -0.012540 0.115995 0.017787
v -0.012540 0.057997 0.118041
v -0.050931 0.107165 0.017787
v -0.031735 0.053583 0.118041
v -0.083477 0.082021 0.017787
v -0.048008 0.041010 0.118041
v -0.105224 0.044389 0.017787
v -0.058882 0.022195 0.118041
v -0.112860 0.000000 0.017787
v -0.062700 0.000000 0.118041
v -0.105224 -0.044389 0.017787
v -0.058882 -0.022195 0.118041
v -0.083477 -0.082021 0.017787
v -0.048008 -0.041010 0.118041
v -0.050931 -0.107165 0.017787
v -0.031735 -0.053583 0.118041
v -0.012540 -0.115995 0.017787
v -0.012540 -0.057997 0.118041
v 0.025851 -0.107165 0.017787
v 0.006655 -0.053583 0.118041
v 0.058397 -0.082021 0.017787
v 0.022928 -0.041010 0.118041
v 0.080144 -0.044389 0.017787
v 0.033802 -0.022195 0.118041
v -0.012540 0.000000 0.017787
v -0.012540 0.000000 0.118041
f 1 2 3
f 1 3 4
f 2 5 6
f 2 6 3
f 5 7 8
f 5 8 6
f 7 9 10
f 7 10 8
f 9 11 12
f 9 12 10
f 11 13 14
f 11 14 12
f 13 15 16
f 13 16 14
f 15 17 18
f 15 18 16
f 17 19 20
f 17 20 18
f 19 21 22
f 19 22 20
f 21 23 24
f 21 24 22
f 23 25 26
f 23 26 24
f 25 27 28
f 25 28 26
f 27 29 30
f 27 30 28
f 29 31 32
f 29 32 30
f 31 1 4
f 31 4 32
f 33 2 1
f 34 4 3
f 33 5 2
f 34 3 6
f 33 7 5
f 34 6 8
f 33 9 7
f 34 8 10
f 33 11 9
f 34 10 12
f 33 13 11
f 34 12 14
f 33 15 13
f 34 14 16
f 33 17 15
f 34 16 18
f 33 19 17
f 34 18 20
f 33 21 19
f 34 20 22
f 33 23 21
f 34 22 24
f 33 25 23
f 34 24 26
f 33 27 25
f 34 26 28
f 33 29 27
f 34 28 30
f 33 31 29
f 34 30 32
f 33 1 31
f 34 32 4
