# sionna2 mesh — s1000plus__body.obj
# group=body  verts=60  tris=112
v 0.156750 0.000000 -0.082109
v 0.144818 0.059986 -0.082109
v 0.115854 0.047989 0.082109
v 0.125400 0.000000 0.082109
v 0.110839 0.110839 -0.082109
v 0.088671 0.088671 0.082109
v 0.059986 0.144818 -0.082109
v 0.047989 0.115854 0.082109
v 0.000000 0.156750 -0.082109
v 0.000000 0.125400 0.082109
v -0.059986 0.144818 -0.082109
v -0.047989 0.115854 0.082109
v -0.110839 0.110839 -0.082109
v -0.088671 0.088671 0.082109
v -0.144818 0.059986 -0.082109
v -0.115854 0.047989 0.082109
v -0.156750 0.000000 -0.082109
v -0.125400 0.000000 0.082109
v -0.144818 -0.059986 -0.082109
v -0.115854 -0.047989 0.082109
v -0.110839 -0.110839 -0.082109
v -0.088671 -0.088671 0.082109
v -0.059986 -0.144818 -0.082109
v -0.047989 -0.115854 0.082109
v -0.000000 -0.156750 -0.082109
v -0.000000 -0.125400 0.082109
v 0.059986 -0.144818 -0.082109
v 0.047989 -0.115854 0.082109
v 0.110839 -0.110839 -0.082109
v 0.088671 -0.088671 0.082109
v 0.144818 -0.059986 -0.082109
v 0.115854 -0.047989 0.082109
v 0.000000 0.000000 -0.082109
v 0.000000 0.000000 0.082109
v 0.191235 0.000000 -0.067329
v 0.184095 0.047025 -0.067329
v 0.158710 0.021161 0.050908
v 0.161923 0.000000 0.050908
v 0.164587 0.081450 -0.067329
v 0.149931 0.036652 0.050908
v 0.137940 0.094050 -0.067329
v 0.137940 0.042322 0.050908
v 0.111292 0.081450 -0.067329
v 0.125949 0.036652 0.050908
v 0.091785 0.047025 -0.067329
v 0.117170 0.021161 0.050908
v 0.084645 0.000000 -0.067329
v 0.113957 0.000000 0.050908
v 0.091785 -0.047025 -0.067329
v 0.117170 -0.021161 0.050908
v 0.111292 -0.081450 -0.067329
v 0.125949 -0.036652 0.050908
v 0.137940 -0.094050 -0.067329
v 0.137940 -0.042322 0.050908
v 0.164587 -0.081450 -0.067329
v 0.149931 -0.036652 0.050908
v 0.184095 -0.047025 -0.067329
v 0.158710 -0.021161 0.050908
v 0.137940 0.000000 -0.067329
v 0.137940 0.000000 0.050908
f 1 2 3
f 1 3 4
f 2 5 6
f 2 6 3
f 5 7 8
f 5 8 6
f 7 9 10
f 7 10 8
f 9 11 12
f 9 12 10
f 11 13 14
f 11 14 12
f 13 15 16
f 13 16 14
f 15 17 18
f 15 18 16
f 17 19 20
f 17 20 18
f 19 21 22
f 19 22 20
f 21 23 24
f 21 24 22
f 23 25 26
f 23 26 24
f 25 27 28
f 25 28 26
f 27 29 30
f 27 30 28
f 29 31 32
f 29 32 30
f 31 1 4
f 31 4 32
f 33 2 1
f 34 4 3
f 33 5 2
f 34 3 6
f 33 7 5
f 34 6 8
f 33 9 7
f 34 8 10
f 33 11 9
f 34 10 12
f 33 13 11
f 34 12 14
f 33 15 13
f 34 14 16
f 33 17 15
f 34 16 18
f 33 19 17
f 34 18 20
f 33 21 19
f 34 20 22
f 33 23 21
f 34 22 24
f 33 25 23
f 34 24 26
f 33 27 25
f 34 26 28
f 33 29 27
f 34 28 30
f 33 31 29
f 34 30 32
f 33 1 31
f 34 32 4
f 35 36 37
f 35 37 38
f 36 39 40
f 36 40 37
f 39 41 42
f 39 42 40
f 41 43 44
f 41 44 42
f 43 45 46
f 43 46 44
f 45 47 48
f 45 48 46
f 47 49 50
f 47 50 48
f 49 51 52
f 49 52 50
f 51 53 54
f 51 54 52
f 53 55 56
f 53 56 54
f 55 57 58
f 55 58 56
f 57 35 38
f 57 38 58
f 59 36 35
f 60 38 37
f 59 39 36
f 60 37 40
f 59 41 39
f 60 40 42
f 59 43 41
f 60 42 44
f 59 45 43
f 60 44 46
f 59 47 45
f 60 46 48
f 59 49 47
f 60 48 50
f 59 51 49
f 60 50 52
f 59 53 51
f 60 52 54
f 59 55 53
f 60 54 56
f 59 57 55
f 60 56 58
f 59 35 57
f 60 58 38
