# sionna2 mesh — s1000plus__gear.obj
# group=gear  verts=372  tris=704
v 0.201711 0.249546 -0.304363
v 0.201711 0.255416 -0.296846
v 0.201711 0.252330 -0.305682
v 0.201711 0.247337 -0.302307
v 0.201711 0.245919 -0.299717
v 0.201711 0.255416 -0.306137
v 0.229671 0.252330 -0.305682
v 0.229671 0.249546 -0.304363
v 0.229671 0.247337 -0.302307
v 0.229671 0.245919 -0.299717
v 0.201711 0.245430 -0.296846
v 0.201711 0.245919 -0.293975
v 0.201711 0.247337 -0.291385
v 0.201711 0.249546 -0.289329
v 0.201711 0.252330 -0.288010
v 0.229671 0.245430 -0.296846
v 0.229671 0.245919 -0.293975
v 0.229671 0.247337 -0.291385
v 0.229671 0.249546 -0.289329
v 0.201711 0.258501 -0.305682
v 0.201711 0.261285 -0.304363
v 0.201711 0.263494 -0.302307
v 0.201711 0.264912 -0.299717
v 0.229671 0.255416 -0.306137
v 0.229671 0.258501 -0.305682
v 0.229671 0.261285 -0.304363
v 0.229671 0.263494 -0.302307
v 0.201711 0.265401 -0.296846
v 0.201711 0.264912 -0.293975
v 0.201711 0.255416 -0.287555
v 0.201711 0.258501 -0.288010
v 0.201711 0.263494 -0.291385
v 0.201711 0.261285 -0.289329
v 0.229671 0.264912 -0.299717
v 0.229671 0.265401 -0.296846
v 0.229671 0.264912 -0.293975
v 0.229671 0.263494 -0.291385
v 0.229671 0.255416 -0.296846
v 0.229671 0.252330 -0.288010
v 0.229671 0.261285 -0.289329
v 0.229671 0.255416 -0.287555
v 0.229671 0.258501 -0.288010
v -0.229671 0.249546 -0.304363
v -0.229671 0.255416 -0.296846
v -0.229671 0.252330 -0.305682
v -0.229671 0.247337 -0.302307
v -0.229671 0.245919 -0.299717
v -0.229671 0.255416 -0.306137
v -0.201711 0.252330 -0.305682
v -0.201711 0.249546 -0.304363
v -0.201711 0.247337 -0.302307
v -0.201711 0.245919 -0.299717
v -0.229671 0.245430 -0.296846
v -0.229671 0.245919 -0.293975
v -0.229671 0.247337 -0.291385
v -0.229671 0.249546 -0.289329
v -0.229671 0.252330 -0.288010
v -0.201711 0.245430 -0.296846
v -0.201711 0.245919 -0.293975
v -0.201711 0.247337 -0.291385
v -0.201711 0.249546 -0.289329
v -0.229671 0.258501 -0.305682
v -0.229671 0.261285 -0.304363
v -0.229671 0.263494 -0.302307
v -0.229671 0.264912 -0.299717
v -0.201711 0.255416 -0.306137
v -0.201711 0.258501 -0.305682
v -0.201711 0.261285 -0.304363
v -0.201711 0.263494 -0.302307
v -0.229671 0.265401 -0.296846
v -0.229671 0.264912 -0.293975
v -0.229671 0.255416 -0.287555
v -0.229671 0.258501 -0.288010
v -0.229671 0.263494 -0.291385
v -0.229671 0.261285 -0.289329
v -0.201711 0.264912 -0.299717
v -0.201711 0.265401 -0.296846
v -0.201711 0.264912 -0.293975
v -0.201711 0.263494 -0.291385
v -0.201711 0.255416 -0.296846
v -0.201711 0.252330 -0.288010
v -0.201711 0.261285 -0.289329
v -0.201711 0.255416 -0.287555
v -0.201711 0.258501 -0.288010
v -0.016976 0.074893 -0.039487
v -0.016976 0.104850 -0.039487
v 0.016976 0.074893 -0.039487
v -0.016976 0.104850 -0.020905
v -0.016976 0.074893 -0.020905
v 0.016976 0.104850 -0.020905
v 0.016976 0.104850 -0.039487
v 0.016976 0.074893 -0.020905
v -0.022967 0.240437 -0.307995
v -0.022967 0.240437 -0.285697
v -0.022967 0.270394 -0.285697
v -0.022967 0.270394 -0.307995
v 0.022967 0.240437 -0.307995
v 0.022967 0.270394 -0.285697
v 0.022967 0.240437 -0.285697
v 0.022967 0.270394 -0.307995
v 0.201711 -0.261285 -0.304363
v 0.201711 -0.255416 -0.296846
v 0.201711 -0.258501 -0.305682
v 0.201711 -0.263494 -0.302307
v 0.201711 -0.264912 -0.299717
v 0.201711 -0.255416 -0.306137
v 0.201711 -0.252330 -0.305682
v 0.229671 -0.263494 -0.302307
v 0.229671 -0.264912 -0.299717
v 0.229671 -0.261285 -0.304363
v 0.229671 -0.258501 -0.305682
v 0.229671 -0.255416 -0.306137
v 0.201711 -0.265401 -0.296846
v 0.201711 -0.264912 -0.293975
v 0.201711 -0.263494 -0.291385
v 0.201711 -0.261285 -0.289329
v 0.201711 -0.258501 -0.288010
v 0.201711 -0.255416 -0.287555
v 0.201711 -0.252330 -0.288010
v 0.229671 -0.265401 -0.296846
v 0.229671 -0.264912 -0.293975
v 0.229671 -0.263494 -0.291385
v 0.229671 -0.261285 -0.289329
v 0.201711 -0.249546 -0.304363
v 0.201711 -0.247337 -0.302307
v 0.201711 -0.245919 -0.299717
v 0.229671 -0.252330 -0.305682
v 0.229671 -0.249546 -0.304363
v 0.229671 -0.247337 -0.302307
v 0.201711 -0.245430 -0.296846
v 0.201711 -0.245919 -0.293975
v 0.201711 -0.247337 -0.291385
v 0.201711 -0.249546 -0.289329
v 0.229671 -0.245919 -0.299717
v 0.229671 -0.245430 -0.296846
v 0.229671 -0.245919 -0.293975
v 0.229671 -0.247337 -0.291385
v 0.229671 -0.255416 -0.296846
v 0.229671 -0.258501 -0.288010
v 0.229671 -0.255416 -0.287555
v 0.229671 -0.252330 -0.288010
v 0.229671 -0.249546 -0.289329
v -0.229671 -0.261285 -0.304363
v -0.229671 -0.255416 -0.296846
v -0.229671 -0.258501 -0.305682
v -0.229671 -0.263494 -0.302307
v -0.229671 -0.264912 -0.299717
v -0.229671 -0.255416 -0.306137
v -0.229671 -0.252330 -0.305682
v -0.201711 -0.263494 -0.302307
v -0.201711 -0.264912 -0.299717
v -0.201711 -0.261285 -0.304363
v -0.201711 -0.258501 -0.305682
v -0.201711 -0.255416 -0.306137
v -0.229671 -0.265401 -0.296846
v -0.229671 -0.264912 -0.293975
v -0.229671 -0.263494 -0.291385
v -0.229671 -0.261285 -0.289329
v -0.229671 -0.258501 -0.288010
v -0.229671 -0.255416 -0.287555
v -0.229671 -0.252330 -0.288010
v -0.201711 -0.265401 -0.296846
v -0.201711 -0.264912 -0.293975
v -0.201711 -0.263494 -0.291385
v -0.201711 -0.261285 -0.289329
v -0.229671 -0.249546 -0.304363
v -0.229671 -0.247337 -0.302307
v -0.229671 -0.245919 -0.299717
v -0.201711 -0.252330 -0.305682
v -0.201711 -0.249546 -0.304363
v -0.201711 -0.247337 -0.302307
v -0.229671 -0.245430 -0.296846
v -0.229671 -0.245919 -0.293975
v -0.229671 -0.247337 -0.291385
v -0.229671 -0.249546 -0.289329
v -0.201711 -0.245919 -0.299717
v -0.201711 -0.245430 -0.296846
v -0.201711 -0.245919 -0.293975
v -0.201711 -0.247337 -0.291385
v -0.201711 -0.255416 -0.296846
v -0.201711 -0.258501 -0.288010
v -0.201711 -0.255416 -0.287555
v -0.201711 -0.252330 -0.288010
v -0.201711 -0.249546 -0.289329
v -0.016976 -0.104850 -0.039487
v 0.016976 -0.104850 -0.039487
v -0.016976 -0.104850 -0.020905
v -0.016976 -0.074893 -0.039487
v -0.016976 -0.074893 -0.020905
v 0.016976 -0.074893 -0.020905
v 0.016976 -0.104850 -0.020905
v 0.016976 -0.074893 -0.039487
v -0.022967 -0.270394 -0.307995
v -0.022967 -0.270394 -0.285697
v -0.022967 -0.240437 -0.285697
v -0.022967 -0.240437 -0.307995
v 0.022967 -0.270394 -0.307995
v 0.022967 -0.240437 -0.285697
v 0.022967 -0.270394 -0.285697
v 0.022967 -0.240437 -0.307995
v -0.003407 0.167650 -0.169712
v -0.003994 0.169044 -0.168689
v -0.000000 0.169757 -0.168166
v -0.001933 0.166767 -0.170360
v -0.000045 0.166621 -0.170468
v -0.003994 0.170541 -0.167591
v -0.003356 0.171923 -0.166577
v -0.001845 0.172761 -0.165962
v 0.000045 0.172893 -0.165865
v -0.003407 0.117722 -0.110807
v -0.003407 0.142686 -0.140260
v -0.001933 0.141802 -0.140908
v -0.001933 0.116838 -0.111456
v -0.000045 0.141656 -0.141015
v -0.001933 0.091874 -0.082003
v -0.003407 0.092758 -0.081355
v -0.000045 0.116692 -0.111563
v -0.000045 0.091728 -0.082111
v -0.003994 0.119116 -0.109785
v -0.003994 0.120613 -0.108686
v -0.003994 0.144080 -0.139237
v -0.003356 0.121994 -0.107672
v -0.003994 0.145577 -0.138139
v -0.001845 0.122833 -0.107057
v -0.003356 0.146959 -0.137125
v 0.000045 0.122965 -0.106960
v -0.001845 0.147797 -0.136510
v -0.003994 0.094151 -0.080332
v -0.003994 0.095648 -0.079234
v -0.003356 0.097030 -0.078220
v -0.001845 0.097868 -0.077605
v 0.000045 0.098001 -0.077508
v -0.001933 0.066910 -0.052551
v -0.000045 0.066764 -0.052658
v -0.001933 0.041945 -0.023099
v -0.003994 0.044223 -0.021428
v -0.003994 0.069187 -0.050880
v -0.003407 0.067793 -0.051903
v -0.003407 0.042829 -0.022450
v -0.003994 0.045720 -0.020329
v -0.003994 0.070684 -0.049782
v -0.003356 0.047101 -0.019315
v -0.003356 0.072066 -0.048768
v -0.001845 0.047940 -0.018700
v -0.001845 0.072904 -0.048153
v 0.000045 0.048072 -0.018603
v 0.000045 0.073036 -0.048056
v -0.000045 0.041799 -0.023206
v 0.000000 0.044936 -0.020905
v 0.000045 0.147929 -0.136413
v 0.001845 0.166753 -0.170371
v 0.003356 0.167591 -0.169755
v 0.003994 0.168973 -0.168742
v 0.003994 0.170470 -0.167643
v 0.001933 0.172747 -0.165972
v 0.003407 0.171864 -0.166621
v 0.001845 0.141789 -0.140918
v 0.001845 0.116824 -0.111466
v 0.003356 0.142627 -0.140303
v 0.003356 0.117663 -0.110851
v 0.003994 0.144009 -0.139289
v 0.001845 0.091860 -0.082014
v 0.003356 0.092698 -0.081398
v 0.003994 0.119044 -0.109837
v 0.003994 0.145506 -0.138191
v 0.003994 0.120541 -0.108739
v 0.003407 0.121935 -0.107716
v 0.001933 0.147783 -0.136520
v 0.001933 0.122819 -0.107067
v 0.003407 0.146899 -0.137168
v 0.003407 0.096971 -0.078264
v 0.001933 0.097855 -0.077615
v 0.003994 0.094080 -0.080385
v 0.003994 0.095577 -0.079286
v 0.001845 0.066896 -0.052561
v 0.003356 0.067734 -0.051946
v 0.001845 0.041932 -0.023109
v 0.003356 0.042770 -0.022494
v 0.003994 0.069116 -0.050932
v 0.001933 0.047926 -0.018710
v 0.001933 0.072890 -0.048163
v 0.003407 0.047042 -0.019359
v 0.003407 0.072007 -0.048811
v 0.003994 0.044152 -0.021480
v 0.003994 0.070613 -0.049834
v 0.003994 0.045649 -0.020382
v -0.003994 -0.170470 -0.167643
v -0.003994 -0.168973 -0.168742
v 0.000000 -0.169757 -0.168166
v -0.003407 -0.171864 -0.166621
v -0.001933 -0.172747 -0.165972
v -0.000045 -0.172893 -0.165865
v -0.003356 -0.167591 -0.169755
v -0.001845 -0.166753 -0.170371
v 0.000045 -0.166621 -0.170468
v -0.003994 -0.144009 -0.139289
v -0.003994 -0.145506 -0.138191
v -0.003407 -0.146899 -0.137168
v -0.001933 -0.147783 -0.136520
v -0.001845 -0.141789 -0.140918
v -0.003356 -0.142627 -0.140303
v 0.000045 -0.141656 -0.141015
v -0.000045 -0.147929 -0.136413
v -0.003994 -0.120541 -0.108739
v -0.003994 -0.119044 -0.109837
v -0.003407 -0.121935 -0.107716
v -0.001933 -0.122819 -0.107067
v -0.001845 -0.116824 -0.111466
v -0.003356 -0.117663 -0.110851
v 0.000045 -0.116692 -0.111563
v -0.000045 -0.122965 -0.106960
v -0.001845 -0.091860 -0.082014
v -0.003356 -0.092698 -0.081398
v 0.000045 -0.091728 -0.082111
v -0.003994 -0.095577 -0.079286
v -0.003994 -0.094080 -0.080385
v -0.001933 -0.097855 -0.077615
v -0.003407 -0.096971 -0.078264
v -0.000045 -0.098001 -0.077508
v -0.003994 -0.070613 -0.049834
v -0.003994 -0.069116 -0.050932
v -0.003356 -0.067734 -0.051946
v -0.003407 -0.072007 -0.048811
v -0.001933 -0.072890 -0.048163
v -0.001845 -0.066896 -0.052561
v 0.000045 -0.066764 -0.052658
v -0.000045 -0.073036 -0.048056
v -0.003356 -0.042770 -0.022494
v -0.003994 -0.044152 -0.021480
v -0.003994 -0.045649 -0.020382
v -0.003407 -0.047042 -0.019359
v -0.001933 -0.047926 -0.018710
v -0.001845 -0.041932 -0.023109
v 0.000045 -0.041799 -0.023206
v -0.000045 -0.048072 -0.018603
v -0.000000 -0.044936 -0.020905
v 0.003994 -0.169044 -0.168689
v 0.003994 -0.170541 -0.167591
v 0.003356 -0.171923 -0.166577
v 0.001845 -0.172761 -0.165962
v 0.001933 -0.166767 -0.170360
v 0.003407 -0.167650 -0.169712
v 0.003356 -0.146959 -0.137125
v 0.001845 -0.147797 -0.136510
v 0.003994 -0.145577 -0.138139
v 0.001933 -0.141802 -0.140908
v 0.003407 -0.142686 -0.140260
v 0.003994 -0.144080 -0.139237
v 0.003356 -0.121994 -0.107672
v 0.003994 -0.119116 -0.109785
v 0.003994 -0.120613 -0.108686
v 0.001845 -0.122833 -0.107057
v 0.001933 -0.116838 -0.111456
v 0.003407 -0.117722 -0.110807
v 0.003994 -0.094151 -0.080332
v 0.001933 -0.091874 -0.082003
v 0.003407 -0.092758 -0.081355
v 0.001845 -0.097868 -0.077605
v 0.003356 -0.097030 -0.078220
v 0.003994 -0.095648 -0.079234
v 0.003356 -0.072066 -0.048768
v 0.003994 -0.069187 -0.050880
v 0.003994 -0.070684 -0.049782
v 0.001845 -0.072904 -0.048153
v 0.001933 -0.066910 -0.052551
v 0.003407 -0.067793 -0.051903
v 0.003407 -0.042829 -0.022450
v 0.003994 -0.044223 -0.021428
v 0.001845 -0.047940 -0.018700
v 0.003356 -0.047101 -0.019315
v 0.003994 -0.045720 -0.020329
v 0.001933 -0.041945 -0.023099
f 1 2 3
f 1 4 2
f 4 5 2
f 3 6 7
f 1 3 8
f 1 9 4
f 4 10 5
f 5 11 2
f 11 12 2
f 12 13 2
f 13 14 2
f 2 14 15
f 5 16 11
f 11 17 12
f 12 18 13
f 13 19 14
f 3 2 6
f 6 2 20
f 20 2 21
f 21 2 22
f 22 2 23
f 6 20 24
f 20 21 25
f 21 22 26
f 22 23 27
f 23 2 28
f 2 29 28
f 2 15 30
f 2 30 31
f 2 32 29
f 2 33 32
f 2 31 33
f 23 28 34
f 28 29 35
f 29 32 36
f 32 33 37
f 1 8 9
f 3 7 8
f 4 9 10
f 8 7 38
f 8 38 9
f 9 38 10
f 5 10 16
f 11 16 17
f 12 17 18
f 13 18 19
f 10 38 16
f 16 38 17
f 17 38 18
f 18 38 19
f 38 39 19
f 6 24 7
f 20 25 24
f 21 26 25
f 22 27 26
f 23 34 27
f 7 24 38
f 24 25 38
f 25 26 38
f 26 27 38
f 27 34 38
f 28 35 34
f 29 36 35
f 32 37 36
f 37 33 40
f 34 35 38
f 38 35 36
f 38 41 39
f 38 42 41
f 38 36 37
f 38 37 40
f 38 40 42
f 14 39 15
f 15 41 30
f 30 42 31
f 31 40 33
f 14 19 39
f 15 39 41
f 30 41 42
f 31 42 40
f 43 44 45
f 43 46 44
f 46 47 44
f 45 48 49
f 43 45 50
f 43 51 46
f 46 52 47
f 47 53 44
f 53 54 44
f 54 55 44
f 55 56 44
f 44 56 57
f 47 58 53
f 53 59 54
f 54 60 55
f 55 61 56
f 45 44 48
f 48 44 62
f 62 44 63
f 63 44 64
f 64 44 65
f 48 62 66
f 62 63 67
f 63 64 68
f 64 65 69
f 65 44 70
f 44 71 70
f 44 57 72
f 44 72 73
f 44 74 71
f 44 75 74
f 44 73 75
f 65 70 76
f 70 71 77
f 71 74 78
f 74 75 79
f 43 50 51
f 45 49 50
f 46 51 52
f 50 49 80
f 50 80 51
f 51 80 52
f 47 52 58
f 53 58 59
f 54 59 60
f 55 60 61
f 52 80 58
f 58 80 59
f 59 80 60
f 60 80 61
f 80 81 61
f 48 66 49
f 62 67 66
f 63 68 67
f 64 69 68
f 65 76 69
f 49 66 80
f 66 67 80
f 67 68 80
f 68 69 80
f 69 76 80
f 70 77 76
f 71 78 77
f 74 79 78
f 79 75 82
f 76 77 80
f 80 77 78
f 80 83 81
f 80 84 83
f 80 78 79
f 80 79 82
f 80 82 84
f 56 81 57
f 57 83 72
f 72 84 73
f 73 82 75
f 56 61 81
f 57 81 83
f 72 83 84
f 73 84 82
f 85 86 87
f 85 88 86
f 85 89 88
f 85 87 89
f 89 90 88
f 86 88 90
f 86 91 87
f 89 87 92
f 89 92 90
f 87 91 92
f 91 90 92
f 86 90 91
f 93 94 95
f 93 95 96
f 93 97 94
f 93 96 97
f 96 95 98
f 94 98 95
f 94 97 99
f 96 100 97
f 96 98 100
f 97 100 99
f 100 98 99
f 94 99 98
f 101 102 103
f 104 102 101
f 104 105 102
f 103 102 106
f 106 102 107
f 104 101 108
f 104 109 105
f 101 103 110
f 103 106 111
f 106 107 112
f 105 113 102
f 113 114 102
f 114 115 102
f 115 116 102
f 102 116 117
f 102 117 118
f 102 118 119
f 105 120 113
f 113 121 114
f 114 122 115
f 115 123 116
f 102 124 107
f 102 125 124
f 102 126 125
f 107 124 127
f 124 125 128
f 125 126 129
f 102 130 126
f 102 131 130
f 102 132 131
f 102 133 132
f 102 119 133
f 126 130 134
f 130 131 135
f 131 132 136
f 132 133 137
f 101 110 108
f 104 108 109
f 103 111 110
f 106 112 111
f 110 111 138
f 108 110 138
f 108 138 109
f 111 112 138
f 112 127 138
f 105 109 120
f 113 120 121
f 114 121 122
f 115 122 123
f 109 138 120
f 120 138 121
f 121 138 122
f 122 138 123
f 138 139 123
f 138 140 139
f 138 141 140
f 107 127 112
f 124 128 127
f 125 129 128
f 126 134 129
f 138 127 128
f 138 128 129
f 138 129 134
f 130 135 134
f 131 136 135
f 132 137 136
f 137 133 142
f 138 134 135
f 138 135 136
f 138 136 137
f 138 137 142
f 138 142 141
f 116 139 117
f 117 140 118
f 118 141 119
f 119 142 133
f 116 123 139
f 117 139 140
f 118 140 141
f 119 141 142
f 143 144 145
f 146 144 143
f 146 147 144
f 145 144 148
f 148 144 149
f 146 143 150
f 146 151 147
f 143 145 152
f 145 148 153
f 148 149 154
f 147 155 144
f 155 156 144
f 156 157 144
f 157 158 144
f 144 158 159
f 144 159 160
f 144 160 161
f 147 162 155
f 155 163 156
f 156 164 157
f 157 165 158
f 144 166 149
f 144 167 166
f 144 168 167
f 149 166 169
f 166 167 170
f 167 168 171
f 144 172 168
f 144 173 172
f 144 174 173
f 144 175 174
f 144 161 175
f 168 172 176
f 172 173 177
f 173 174 178
f 174 175 179
f 143 152 150
f 146 150 151
f 145 153 152
f 148 154 153
f 152 153 180
f 150 152 180
f 150 180 151
f 153 154 180
f 154 169 180
f 147 151 162
f 155 162 163
f 156 163 164
f 157 164 165
f 151 180 162
f 162 180 163
f 163 180 164
f 164 180 165
f 180 181 165
f 180 182 181
f 180 183 182
f 149 169 154
f 166 170 169
f 167 171 170
f 168 176 171
f 180 169 170
f 180 170 171
f 180 171 176
f 172 177 176
f 173 178 177
f 174 179 178
f 179 175 184
f 180 176 177
f 180 177 178
f 180 178 179
f 180 179 184
f 180 184 183
f 158 181 159
f 159 182 160
f 160 183 161
f 161 184 175
f 158 165 181
f 159 181 182
f 160 182 183
f 161 183 184
f 185 186 187
f 185 188 186
f 185 189 188
f 185 187 189
f 187 190 189
f 188 189 190
f 187 186 191
f 188 192 186
f 187 191 190
f 188 190 192
f 186 192 191
f 192 190 191
f 193 194 195
f 193 195 196
f 193 197 194
f 193 196 197
f 196 195 198
f 194 198 195
f 194 197 199
f 196 200 197
f 196 198 200
f 197 200 199
f 200 198 199
f 194 199 198
f 201 202 203
f 204 201 203
f 204 203 205
f 202 206 203
f 206 207 203
f 207 208 203
f 208 209 203
f 210 211 212
f 213 212 214
f 213 215 216
f 217 218 215
f 210 219 211
f 213 210 212
f 213 214 217
f 219 220 221
f 220 222 223
f 222 224 225
f 224 226 227
f 213 216 210
f 213 217 215
f 210 228 219
f 219 229 220
f 220 230 222
f 222 231 224
f 224 232 226
f 233 234 235
f 236 237 238
f 233 239 238
f 240 241 237
f 242 243 241
f 244 245 243
f 245 246 247
f 233 235 239
f 234 248 235
f 236 239 249
f 236 249 240
f 235 249 239
f 248 249 235
f 240 249 242
f 242 249 244
f 244 249 246
f 236 238 239
f 236 240 237
f 240 242 241
f 242 244 243
f 244 246 245
f 215 238 216
f 233 215 218
f 233 238 215
f 233 218 234
f 216 238 237
f 228 237 241
f 229 241 243
f 230 243 245
f 231 245 247
f 216 237 228
f 228 241 229
f 229 243 230
f 230 245 231
f 231 247 232
f 210 216 228
f 219 228 229
f 220 229 230
f 222 230 231
f 224 231 232
f 201 211 221
f 204 212 211
f 205 214 212
f 201 221 202
f 204 211 201
f 204 205 212
f 202 223 206
f 206 225 207
f 207 227 208
f 208 250 209
f 202 221 223
f 206 223 225
f 207 225 227
f 208 227 250
f 219 221 211
f 220 223 221
f 222 225 223
f 224 227 225
f 227 226 250
f 205 203 251
f 251 203 252
f 252 203 253
f 253 203 254
f 203 255 256
f 203 209 255
f 203 256 254
f 217 214 257
f 258 257 259
f 260 259 261
f 218 258 262
f 260 263 262
f 217 257 258
f 258 259 260
f 260 261 264
f 264 265 266
f 267 268 269
f 226 269 250
f 267 266 270
f 217 258 218
f 258 260 262
f 260 264 263
f 267 269 271
f 226 272 269
f 264 266 273
f 267 274 266
f 234 275 248
f 275 276 277
f 278 276 279
f 280 281 247
f 282 283 281
f 284 279 285
f 286 285 283
f 248 275 277
f 248 277 249
f 277 278 249
f 249 278 284
f 249 284 286
f 249 286 282
f 249 280 246
f 249 282 280
f 277 276 278
f 246 280 247
f 280 282 281
f 278 279 284
f 284 285 286
f 282 286 283
f 234 218 262
f 275 262 263
f 234 262 275
f 275 263 276
f 273 279 276
f 274 285 279
f 232 247 281
f 272 281 283
f 271 283 285
f 263 273 276
f 273 274 279
f 271 285 274
f 232 281 272
f 271 272 283
f 226 232 272
f 269 272 271
f 264 273 263
f 266 274 273
f 267 271 274
f 214 251 257
f 252 259 257
f 253 261 259
f 205 251 214
f 251 252 257
f 252 253 259
f 255 270 256
f 209 268 255
f 253 254 261
f 256 265 254
f 209 250 268
f 255 268 270
f 254 265 261
f 256 270 265
f 267 270 268
f 264 261 265
f 266 265 270
f 269 268 250
f 287 288 289
f 287 289 290
f 290 289 291
f 291 289 292
f 288 293 289
f 294 289 293
f 294 295 289
f 287 296 288
f 287 290 297
f 290 291 298
f 291 292 299
f 294 293 300
f 288 301 293
f 294 302 295
f 287 297 296
f 290 298 297
f 291 299 298
f 292 303 299
f 293 301 300
f 294 300 302
f 288 296 301
f 297 298 304
f 296 297 305
f 298 299 306
f 303 307 299
f 300 301 308
f 296 309 301
f 300 310 302
f 296 305 309
f 297 304 305
f 301 309 308
f 300 308 310
f 298 306 304
f 303 311 307
f 299 307 306
f 308 309 312
f 305 313 309
f 308 314 310
f 304 306 315
f 305 304 316
f 307 311 317
f 307 318 306
f 309 313 312
f 308 312 314
f 305 316 313
f 304 315 316
f 306 318 315
f 307 317 318
f 311 319 317
f 315 318 320
f 316 315 321
f 316 322 313
f 317 323 318
f 317 319 324
f 312 313 325
f 312 326 314
f 315 320 321
f 316 321 322
f 318 323 320
f 317 324 323
f 319 327 324
f 313 322 325
f 312 325 326
f 321 328 322
f 321 320 329
f 320 323 330
f 323 324 331
f 324 327 332
f 322 333 325
f 325 334 326
f 322 328 333
f 320 330 329
f 321 329 328
f 323 331 330
f 324 332 331
f 327 335 332
f 325 333 334
f 331 332 336
f 332 335 336
f 329 330 336
f 329 336 328
f 328 336 333
f 333 336 334
f 330 331 336
f 289 337 338
f 289 339 340
f 292 289 340
f 289 338 339
f 289 295 341
f 289 341 342
f 289 342 337
f 339 338 343
f 292 340 303
f 340 339 344
f 337 345 338
f 295 346 341
f 341 347 342
f 337 342 348
f 303 340 344
f 339 343 344
f 338 345 343
f 337 348 345
f 295 302 346
f 341 346 347
f 342 347 348
f 343 345 349
f 348 347 350
f 348 351 345
f 303 344 311
f 344 343 352
f 302 353 346
f 346 354 347
f 345 351 349
f 348 350 351
f 302 310 353
f 346 353 354
f 347 354 350
f 311 344 352
f 343 349 352
f 350 354 355
f 310 356 353
f 353 357 354
f 311 352 319
f 352 349 358
f 349 351 359
f 350 360 351
f 310 314 356
f 353 356 357
f 319 352 358
f 349 359 358
f 351 360 359
f 354 357 355
f 350 355 360
f 359 360 361
f 355 357 362
f 355 363 360
f 319 358 327
f 358 359 364
f 314 365 356
f 356 366 357
f 357 366 362
f 355 362 363
f 327 358 364
f 359 361 364
f 360 363 361
f 314 326 365
f 356 365 366
f 366 365 367
f 366 368 362
f 327 364 335
f 364 361 369
f 361 363 370
f 362 371 363
f 326 372 365
f 335 364 369
f 361 370 369
f 362 368 371
f 366 367 368
f 363 371 370
f 326 334 372
f 365 372 367
f 335 369 336
f 369 370 336
f 336 372 334
f 336 367 372
f 336 371 368
f 336 368 367
f 370 371 336
