# sionna2 mesh — s1000plus__gear_cf.obj
# group=gear_cf  verts=390  tris=772
v -0.000000 0.248561 -0.300663
v -0.000461 0.248629 -0.300625
v -0.000000 0.248629 -0.300625
v 0.000000 0.262270 -0.293029
v 0.000000 0.262202 -0.293067
v -0.000462 0.262202 -0.293067
v -0.000182 0.261878 -0.292477
v -0.002458 0.215818 -0.248987
v -0.004680 0.216778 -0.248453
v -0.003863 0.247427 -0.296846
v -0.002542 0.247706 -0.298485
v -0.006444 0.218291 -0.247610
v -0.005872 0.247818 -0.294549
v -0.004680 0.247527 -0.296257
v -0.002458 0.247724 -0.298589
v -0.001162 0.247818 -0.299143
v -0.007562 0.220198 -0.246548
v -0.007562 0.249446 -0.292018
v -0.007222 0.248953 -0.292477
v -0.007989 0.222307 -0.245374
v -0.007865 0.250720 -0.290833
v -0.007989 0.251354 -0.290532
v -0.007562 0.224416 -0.244200
v -0.007679 0.252947 -0.289777
v -0.007562 0.253665 -0.289671
v -0.006444 0.248124 -0.293990
v -0.006444 0.226323 -0.243138
v -0.006734 0.255416 -0.289413
v -0.006444 0.256159 -0.289523
v 0.000000 0.229161 -0.241557
v -0.002373 0.260776 -0.291451
v -0.004680 0.227836 -0.242295
v -0.005104 0.257884 -0.289777
v -0.004680 0.258594 -0.290114
v -0.002458 0.228796 -0.241761
v -0.004527 0.258724 -0.290175
v -0.002883 0.260111 -0.290833
v -0.002458 0.260733 -0.291411
v -0.000000 0.215452 -0.249191
v -0.006444 0.185182 -0.196139
v -0.007562 0.187089 -0.195077
v -0.004680 0.183669 -0.196981
v -0.002458 0.182709 -0.197516
v -0.000000 0.182343 -0.197719
v -0.004680 0.150560 -0.145509
v -0.002458 0.149600 -0.146044
v -0.006444 0.152073 -0.144667
v -0.007562 0.153980 -0.143605
v -0.007989 0.189198 -0.193902
v -0.007989 0.156089 -0.142430
v -0.007562 0.158198 -0.141256
v -0.007562 0.191307 -0.192728
v -0.006444 0.160105 -0.140194
v -0.006444 0.193214 -0.191666
v -0.004680 0.161618 -0.139352
v -0.004680 0.194727 -0.190823
v -0.002458 0.162578 -0.138817
v -0.002458 0.195687 -0.190289
v 0.000000 0.162944 -0.138613
v 0.000000 0.196053 -0.190085
v -0.002458 0.116491 -0.094572
v -0.000000 0.149234 -0.146247
v -0.000000 0.116125 -0.094775
v -0.004680 0.117451 -0.094037
v -0.007562 0.120871 -0.092133
v -0.006444 0.118964 -0.093195
v -0.007562 0.087763 -0.040661
v -0.007989 0.122980 -0.090958
v -0.007989 0.089871 -0.039487
v -0.007562 0.091980 -0.038312
v -0.007562 0.125089 -0.089784
v -0.004680 0.084342 -0.042565
v -0.002458 0.083382 -0.043100
v -0.006444 0.085855 -0.041723
v -0.006444 0.093887 -0.037250
v -0.006444 0.126996 -0.088722
v -0.004680 0.095400 -0.036408
v -0.004680 0.128509 -0.087880
v -0.002458 0.096360 -0.035873
v -0.002458 0.129469 -0.087345
v 0.000000 0.096726 -0.035670
v 0.000000 0.129835 -0.087141
v -0.000000 0.083017 -0.043304
v 0.000000 0.089871 -0.039487
v 0.000461 0.248629 -0.300625
v 0.000462 0.262202 -0.293067
v 0.000182 0.261878 -0.292477
v 0.001162 0.247818 -0.299143
v 0.002370 0.247730 -0.298627
v 0.002458 0.215818 -0.248987
v 0.002458 0.247724 -0.298589
v 0.003863 0.247427 -0.296846
v 0.004525 0.247508 -0.296369
v 0.004680 0.247527 -0.296257
v 0.004680 0.216778 -0.248453
v 0.005872 0.247818 -0.294549
v 0.006444 0.248124 -0.293990
v 0.006444 0.218291 -0.247610
v 0.007222 0.248953 -0.292477
v 0.007562 0.249446 -0.292018
v 0.006444 0.226323 -0.243138
v 0.006444 0.256159 -0.289523
v 0.005104 0.257884 -0.289777
v 0.007562 0.224416 -0.244200
v 0.006734 0.255416 -0.289413
v 0.007562 0.220198 -0.246548
v 0.007865 0.250720 -0.290833
v 0.007989 0.251354 -0.290532
v 0.007989 0.222307 -0.245374
v 0.007679 0.252947 -0.289777
v 0.007562 0.253665 -0.289671
v 0.002458 0.228796 -0.241761
v 0.002458 0.260733 -0.291411
v 0.002542 0.260610 -0.291297
v 0.004680 0.227836 -0.242295
v 0.002883 0.260111 -0.290833
v 0.004680 0.258594 -0.290114
v 0.002458 0.182709 -0.197516
v 0.004680 0.183669 -0.196981
v 0.006444 0.185182 -0.196139
v 0.007562 0.187089 -0.195077
v 0.002458 0.149600 -0.146044
v 0.004680 0.150560 -0.145509
v 0.006444 0.152073 -0.144667
v 0.007989 0.189198 -0.193902
v 0.007562 0.153980 -0.143605
v 0.007562 0.191307 -0.192728
v 0.007989 0.156089 -0.142430
v 0.006444 0.193214 -0.191666
v 0.007562 0.158198 -0.141256
v 0.004680 0.194727 -0.190823
v 0.006444 0.160105 -0.140194
v 0.002458 0.162578 -0.138817
v 0.002458 0.195687 -0.190289
v 0.004680 0.161618 -0.139352
v 0.002458 0.116491 -0.094572
v 0.004680 0.117451 -0.094037
v 0.006444 0.118964 -0.093195
v 0.007562 0.120871 -0.092133
v 0.002458 0.083382 -0.043100
v 0.004680 0.084342 -0.042565
v 0.006444 0.085855 -0.041723
v 0.007989 0.122980 -0.090958
v 0.007562 0.087763 -0.040661
v 0.007562 0.125089 -0.089784
v 0.007989 0.089871 -0.039487
v 0.006444 0.126996 -0.088722
v 0.007562 0.091980 -0.038312
v 0.002458 0.096360 -0.035873
v 0.002458 0.129469 -0.087345
v 0.004680 0.095400 -0.036408
v 0.004680 0.128509 -0.087880
v 0.006444 0.093887 -0.037250
v -0.229671 0.252947 -0.303915
v -0.229671 0.250720 -0.302859
v -0.229671 0.255416 -0.296846
v -0.229671 0.248953 -0.301215
v -0.229671 0.255416 -0.304279
v -0.229671 0.247818 -0.299143
v -0.229671 0.247427 -0.296846
v -0.229671 0.247818 -0.294549
v -0.229671 0.257884 -0.303915
v -0.229671 0.260111 -0.302859
v -0.229671 0.261878 -0.301215
v -0.229671 0.263013 -0.299143
v -0.229671 0.263404 -0.296846
v -0.229671 0.263013 -0.294549
v -0.229671 0.248953 -0.292477
v -0.229671 0.250720 -0.290833
v -0.229671 0.252947 -0.289777
v -0.229671 0.255416 -0.289413
v -0.229671 0.257884 -0.289777
v -0.229671 0.260111 -0.290833
v -0.229671 0.261878 -0.292477
v 0.229671 0.248953 -0.301215
v 0.229671 0.250720 -0.302859
v 0.229671 0.252947 -0.303915
v 0.229671 0.255416 -0.304279
v 0.229671 0.257884 -0.303915
v 0.229671 0.260111 -0.302859
v 0.229671 0.261878 -0.301215
v 0.229671 0.263013 -0.299143
v 0.229671 0.263404 -0.296846
v 0.229671 0.263013 -0.294549
v 0.229671 0.247818 -0.299143
v 0.229671 0.247427 -0.296846
v 0.229671 0.261878 -0.292477
v 0.229671 0.247818 -0.294549
v 0.229671 0.248953 -0.292477
v 0.229671 0.250720 -0.290833
v 0.229671 0.252947 -0.289777
v 0.229671 0.255416 -0.289413
v 0.229671 0.260111 -0.290833
v 0.229671 0.257884 -0.289777
v 0.229671 0.255416 -0.296846
v 0.000000 -0.248561 -0.300663
v 0.000000 -0.248629 -0.300625
v -0.000461 -0.248629 -0.300625
v -0.000000 -0.262270 -0.293029
v -0.000462 -0.262202 -0.293067
v -0.000000 -0.262202 -0.293067
v -0.000182 -0.261878 -0.292477
v -0.002458 -0.228796 -0.241761
v -0.002458 -0.260733 -0.291411
v -0.006444 -0.226323 -0.243138
v -0.005104 -0.257884 -0.289777
v -0.004680 -0.258594 -0.290114
v -0.004680 -0.227836 -0.242295
v -0.002883 -0.260111 -0.290833
v -0.002542 -0.260610 -0.291297
v 0.000000 -0.215452 -0.249191
v -0.002458 -0.215818 -0.248987
v -0.003863 -0.247427 -0.296846
v -0.004525 -0.247508 -0.296369
v -0.004680 -0.247527 -0.296257
v -0.004680 -0.216778 -0.248453
v -0.005872 -0.247818 -0.294549
v -0.002458 -0.247724 -0.298589
v -0.002370 -0.247730 -0.298627
v -0.001162 -0.247818 -0.299143
v -0.007989 -0.222307 -0.245374
v -0.007679 -0.252947 -0.289777
v -0.007562 -0.253665 -0.289671
v -0.007989 -0.251354 -0.290532
v -0.007562 -0.220198 -0.246548
v -0.007865 -0.250720 -0.290833
v -0.007562 -0.249446 -0.292018
v -0.007562 -0.224416 -0.244200
v -0.006734 -0.255416 -0.289413
v -0.006444 -0.218291 -0.247610
v -0.007222 -0.248953 -0.292477
v -0.006444 -0.256159 -0.289523
v -0.006444 -0.248124 -0.293990
v -0.000000 -0.229161 -0.241557
v -0.006444 -0.193214 -0.191666
v -0.004680 -0.194727 -0.190823
v -0.002458 -0.195687 -0.190289
v -0.007562 -0.187089 -0.195077
v -0.004680 -0.183669 -0.196981
v -0.006444 -0.185182 -0.196139
v -0.002458 -0.182709 -0.197516
v 0.000000 -0.182343 -0.197719
v -0.007989 -0.189198 -0.193902
v -0.007562 -0.191307 -0.192728
v -0.000000 -0.196053 -0.190085
v -0.006444 -0.160105 -0.140194
v -0.004680 -0.161618 -0.139352
v -0.002458 -0.162578 -0.138817
v -0.006444 -0.152073 -0.144667
v -0.004680 -0.150560 -0.145509
v 0.000000 -0.149234 -0.146247
v -0.002458 -0.149600 -0.146044
v -0.007989 -0.156089 -0.142430
v -0.007562 -0.158198 -0.141256
v -0.007562 -0.153980 -0.143605
v -0.000000 -0.162944 -0.138613
v -0.006444 -0.126996 -0.088722
v -0.004680 -0.128509 -0.087880
v -0.002458 -0.129469 -0.087345
v -0.004680 -0.117451 -0.094037
v -0.002458 -0.116491 -0.094572
v 0.000000 -0.116125 -0.094775
v -0.007989 -0.122980 -0.090958
v -0.007562 -0.120871 -0.092133
v -0.007562 -0.125089 -0.089784
v -0.006444 -0.118964 -0.093195
v -0.000000 -0.129835 -0.087141
v -0.006444 -0.093887 -0.037250
v -0.004680 -0.095400 -0.036408
v -0.002458 -0.096360 -0.035873
v -0.007562 -0.087763 -0.040661
v -0.007562 -0.091980 -0.038312
v -0.007989 -0.089871 -0.039487
v -0.006444 -0.085855 -0.041723
v -0.004680 -0.084342 -0.042565
v -0.002458 -0.083382 -0.043100
v 0.000000 -0.083017 -0.043304
v -0.000000 -0.096726 -0.035670
v -0.000000 -0.089871 -0.039487
v 0.000461 -0.248629 -0.300625
v 0.000462 -0.262202 -0.293067
v 0.000182 -0.261878 -0.292477
v 0.002373 -0.260776 -0.291451
v 0.002458 -0.260733 -0.291411
v 0.002458 -0.228796 -0.241761
v 0.002883 -0.260111 -0.290833
v 0.004527 -0.258724 -0.290175
v 0.004680 -0.258594 -0.290114
v 0.004680 -0.227836 -0.242295
v 0.005104 -0.257884 -0.289777
v 0.006444 -0.256159 -0.289523
v 0.002458 -0.215818 -0.248987
v 0.001162 -0.247818 -0.299143
v 0.002458 -0.247724 -0.298589
v 0.002542 -0.247706 -0.298485
v 0.004680 -0.216778 -0.248453
v 0.003863 -0.247427 -0.296846
v 0.004680 -0.247527 -0.296257
v 0.006444 -0.218291 -0.247610
v 0.005872 -0.247818 -0.294549
v 0.007562 -0.220198 -0.246548
v 0.007222 -0.248953 -0.292477
v 0.006444 -0.248124 -0.293990
v 0.006444 -0.226323 -0.243138
v 0.006734 -0.255416 -0.289413
v 0.007562 -0.253665 -0.289671
v 0.007562 -0.249446 -0.292018
v 0.007989 -0.222307 -0.245374
v 0.007865 -0.250720 -0.290833
v 0.007989 -0.251354 -0.290532
v 0.007562 -0.224416 -0.244200
v 0.007679 -0.252947 -0.289777
v 0.002458 -0.195687 -0.190289
v 0.004680 -0.194727 -0.190823
v 0.006444 -0.193214 -0.191666
v 0.006444 -0.185182 -0.196139
v 0.002458 -0.182709 -0.197516
v 0.004680 -0.183669 -0.196981
v 0.007562 -0.187089 -0.195077
v 0.007562 -0.191307 -0.192728
v 0.007989 -0.189198 -0.193902
v 0.006444 -0.160105 -0.140194
v 0.002458 -0.162578 -0.138817
v 0.004680 -0.161618 -0.139352
v 0.006444 -0.152073 -0.144667
v 0.002458 -0.149600 -0.146044
v 0.004680 -0.150560 -0.145509
v 0.007989 -0.156089 -0.142430
v 0.007562 -0.158198 -0.141256
v 0.007562 -0.153980 -0.143605
v 0.002458 -0.129469 -0.087345
v 0.004680 -0.128509 -0.087880
v 0.006444 -0.126996 -0.088722
v 0.002458 -0.116491 -0.094572
v 0.004680 -0.117451 -0.094037
v 0.006444 -0.118964 -0.093195
v 0.007562 -0.125089 -0.089784
v 0.007989 -0.122980 -0.090958
v 0.007562 -0.120871 -0.092133
v 0.002458 -0.096360 -0.035873
v 0.006444 -0.093887 -0.037250
v 0.004680 -0.095400 -0.036408
v 0.006444 -0.085855 -0.041723
v 0.002458 -0.083382 -0.043100
v 0.004680 -0.084342 -0.042565
v 0.007989 -0.089871 -0.039487
v 0.007562 -0.087763 -0.040661
v 0.007562 -0.091980 -0.038312
v -0.229671 -0.257884 -0.303915
v -0.229671 -0.260111 -0.302859
v -0.229671 -0.255416 -0.296846
v -0.229671 -0.261878 -0.301215
v -0.229671 -0.255416 -0.304279
v -0.229671 -0.263013 -0.299143
v -0.229671 -0.263404 -0.296846
v -0.229671 -0.263013 -0.294549
v -0.229671 -0.252947 -0.303915
v -0.229671 -0.250720 -0.302859
v -0.229671 -0.248953 -0.301215
v -0.229671 -0.247818 -0.299143
v -0.229671 -0.247427 -0.296846
v -0.229671 -0.247818 -0.294549
v -0.229671 -0.261878 -0.292477
v -0.229671 -0.260111 -0.290833
v -0.229671 -0.257884 -0.289777
v -0.229671 -0.255416 -0.289413
v -0.229671 -0.252947 -0.289777
v -0.229671 -0.250720 -0.290833
v -0.229671 -0.248953 -0.292477
v 0.229671 -0.260111 -0.302859
v 0.229671 -0.261878 -0.301215
v 0.229671 -0.257884 -0.303915
v 0.229671 -0.263013 -0.299143
v 0.229671 -0.263404 -0.296846
v 0.229671 -0.255416 -0.304279
v 0.229671 -0.252947 -0.303915
v 0.229671 -0.250720 -0.302859
v 0.229671 -0.263013 -0.294549
v 0.229671 -0.248953 -0.301215
v 0.229671 -0.261878 -0.292477
v 0.229671 -0.247818 -0.299143
v 0.229671 -0.247427 -0.296846
v 0.229671 -0.260111 -0.290833
v 0.229671 -0.257884 -0.289777
v 0.229671 -0.255416 -0.289413
v 0.229671 -0.247818 -0.294549
v 0.229671 -0.248953 -0.292477
v 0.229671 -0.252947 -0.289777
v 0.229671 -0.250720 -0.290833
v 0.229671 -0.255416 -0.296846
f 1 2 3
f 4 5 6
f 4 6 7
f 8 2 1
f 9 10 11
f 12 13 14
f 9 14 10
f 8 11 15
f 8 15 16
f 8 16 2
f 17 18 19
f 20 21 18
f 20 22 21
f 23 24 22
f 23 25 24
f 12 26 13
f 17 19 26
f 27 28 25
f 27 29 28
f 30 7 31
f 4 7 30
f 32 33 29
f 32 34 33
f 35 36 34
f 35 37 36
f 35 38 37
f 30 31 38
f 17 26 12
f 12 14 9
f 9 11 8
f 8 1 39
f 20 18 17
f 20 23 22
f 23 27 25
f 27 32 29
f 32 35 34
f 35 30 38
f 12 40 41
f 9 42 40
f 42 8 43
f 39 44 43
f 42 43 45
f 43 44 46
f 40 42 47
f 41 40 48
f 49 41 50
f 49 51 52
f 52 53 54
f 54 55 56
f 56 57 58
f 58 59 60
f 17 12 41
f 9 8 42
f 8 39 43
f 12 9 40
f 20 17 49
f 20 52 23
f 23 54 27
f 27 56 32
f 32 58 35
f 35 60 30
f 17 41 49
f 20 49 52
f 23 52 54
f 27 54 56
f 32 56 58
f 35 58 60
f 61 62 63
f 64 46 61
f 65 47 66
f 66 45 64
f 65 66 67
f 68 65 69
f 68 70 71
f 64 61 72
f 61 63 73
f 66 64 74
f 71 75 76
f 76 77 78
f 78 79 80
f 80 81 82
f 74 64 72
f 66 74 67
f 73 63 83
f 72 61 73
f 74 72 84
f 67 74 84
f 69 67 84
f 72 73 84
f 73 83 84
f 69 84 70
f 70 84 75
f 75 84 77
f 77 84 79
f 79 84 81
f 65 67 69
f 68 69 70
f 71 70 75
f 76 75 77
f 78 77 79
f 80 79 81
f 42 45 47
f 44 62 46
f 43 46 45
f 40 47 48
f 41 48 50
f 49 50 51
f 52 51 53
f 54 53 55
f 56 55 57
f 58 57 59
f 64 45 46
f 61 46 62
f 65 48 47
f 68 50 48
f 71 51 50
f 66 47 45
f 76 53 51
f 78 55 53
f 55 80 57
f 57 82 59
f 68 48 65
f 68 71 50
f 71 76 51
f 76 78 53
f 78 80 55
f 80 82 57
f 1 3 85
f 4 86 5
f 4 87 86
f 1 85 39
f 39 85 88
f 39 88 89
f 90 89 91
f 90 91 92
f 90 92 93
f 90 93 94
f 95 94 96
f 95 96 97
f 98 97 99
f 98 99 100
f 101 102 103
f 104 105 102
f 106 100 107
f 106 107 108
f 109 108 110
f 109 110 111
f 104 111 105
f 4 112 87
f 112 113 87
f 112 114 113
f 115 116 114
f 115 117 116
f 101 103 117
f 39 89 90
f 90 94 95
f 95 97 98
f 98 100 106
f 115 101 117
f 101 104 102
f 4 30 112
f 112 115 114
f 106 108 109
f 104 109 111
f 44 90 118
f 118 95 119
f 98 120 119
f 106 121 120
f 44 118 62
f 118 119 122
f 119 120 123
f 120 121 124
f 121 125 126
f 125 127 128
f 129 130 127
f 131 132 129
f 60 133 134
f 134 135 131
f 39 90 44
f 90 95 118
f 95 98 119
f 98 106 120
f 106 109 121
f 104 125 109
f 101 127 104
f 30 134 112
f 112 131 115
f 115 129 101
f 115 131 129
f 101 129 127
f 30 60 134
f 112 134 131
f 109 125 121
f 104 127 125
f 63 122 136
f 136 123 137
f 137 124 138
f 138 126 139
f 63 136 83
f 136 137 140
f 137 138 141
f 138 139 142
f 139 143 144
f 145 146 143
f 147 148 145
f 82 149 150
f 150 151 152
f 152 153 147
f 83 136 140
f 140 137 141
f 141 138 142
f 139 144 142
f 83 140 84
f 84 140 141
f 84 141 142
f 84 142 144
f 84 144 146
f 84 149 81
f 84 151 149
f 84 146 148
f 84 148 153
f 84 153 151
f 147 153 148
f 152 151 153
f 82 81 149
f 150 149 151
f 143 146 144
f 145 148 146
f 62 118 122
f 119 123 122
f 120 124 123
f 121 126 124
f 129 132 130
f 131 135 132
f 60 59 133
f 134 133 135
f 125 128 126
f 127 130 128
f 63 62 122
f 136 122 123
f 137 123 124
f 138 124 126
f 139 126 128
f 143 128 130
f 145 130 132
f 150 133 59
f 133 152 135
f 147 132 135
f 152 147 135
f 147 145 132
f 82 150 59
f 150 152 133
f 139 128 143
f 145 143 130
f 154 155 156
f 155 157 156
f 154 156 158
f 157 159 156
f 159 160 156
f 160 161 156
f 158 156 162
f 162 156 163
f 163 156 164
f 164 156 165
f 165 156 166
f 156 167 166
f 156 161 168
f 156 168 169
f 156 169 170
f 156 170 171
f 156 171 172
f 156 173 174
f 156 172 173
f 156 174 167
f 159 10 160
f 157 16 159
f 160 13 161
f 161 19 168
f 168 21 169
f 169 22 170
f 170 25 171
f 173 172 36
f 172 171 29
f 174 173 31
f 160 10 14
f 157 3 2
f 157 85 3
f 157 2 16
f 155 175 157
f 154 176 155
f 154 158 177
f 159 15 11
f 159 11 10
f 159 16 15
f 158 162 178
f 162 163 179
f 163 164 180
f 164 165 181
f 165 166 182
f 166 167 183
f 160 14 13
f 161 13 26
f 161 26 19
f 168 18 21
f 168 19 18
f 169 21 22
f 170 22 24
f 170 24 25
f 171 25 28
f 172 29 33
f 172 33 34
f 172 34 36
f 171 28 29
f 173 36 37
f 167 174 184
f 174 31 7
f 174 7 6
f 173 38 31
f 173 37 38
f 174 6 184
f 157 175 85
f 155 176 175
f 175 88 85
f 154 177 176
f 158 178 177
f 185 89 88
f 185 91 89
f 185 92 91
f 162 179 178
f 163 180 179
f 164 181 180
f 165 182 181
f 166 183 182
f 186 93 92
f 186 94 93
f 167 184 183
f 184 6 5
f 184 5 86
f 187 86 87
f 187 113 114
f 187 87 113
f 187 114 116
f 186 96 94
f 188 97 96
f 188 99 97
f 189 100 99
f 189 107 100
f 190 108 107
f 191 110 108
f 192 111 110
f 192 105 111
f 193 117 103
f 194 103 102
f 194 102 105
f 193 116 117
f 175 185 88
f 185 186 92
f 186 188 96
f 188 189 99
f 189 190 107
f 190 191 108
f 191 192 110
f 184 86 187
f 187 116 193
f 193 103 194
f 194 105 192
f 177 195 176
f 176 195 175
f 177 178 195
f 175 195 185
f 185 195 186
f 186 195 188
f 178 179 195
f 179 180 195
f 180 181 195
f 181 182 195
f 182 183 195
f 195 183 184
f 195 189 188
f 195 190 189
f 195 191 190
f 195 192 191
f 195 194 192
f 195 187 193
f 195 193 194
f 195 184 187
f 196 197 198
f 199 200 201
f 199 202 200
f 203 204 202
f 203 202 199
f 205 206 207
f 208 207 209
f 208 209 210
f 203 210 204
f 196 198 211
f 212 213 214
f 212 214 215
f 216 215 217
f 212 218 213
f 212 219 218
f 211 220 219
f 211 198 220
f 221 222 223
f 221 224 222
f 225 226 224
f 225 227 226
f 228 223 229
f 230 231 227
f 228 229 232
f 205 232 206
f 216 217 233
f 230 233 231
f 221 225 224
f 221 223 228
f 208 210 203
f 203 199 234
f 228 232 205
f 205 207 208
f 216 212 215
f 230 216 233
f 212 211 219
f 225 230 227
f 205 208 235
f 208 203 236
f 203 234 237
f 221 238 225
f 230 239 216
f 225 240 230
f 216 241 212
f 212 242 211
f 221 228 243
f 228 205 244
f 228 244 243
f 221 243 238
f 236 203 237
f 234 245 237
f 205 235 244
f 208 236 235
f 225 238 240
f 216 239 241
f 230 240 239
f 212 241 242
f 235 236 246
f 236 237 247
f 237 245 248
f 238 249 240
f 240 250 239
f 241 251 242
f 239 252 241
f 243 244 253
f 244 235 254
f 243 255 238
f 243 253 255
f 244 254 253
f 237 248 247
f 245 256 248
f 235 246 254
f 236 247 246
f 240 249 250
f 239 250 252
f 241 252 251
f 238 255 249
f 246 247 257
f 247 248 258
f 248 256 259
f 249 260 250
f 250 261 252
f 252 262 251
f 253 254 263
f 255 253 264
f 254 246 265
f 255 266 249
f 254 265 263
f 253 263 264
f 258 248 259
f 256 267 259
f 246 257 265
f 247 258 257
f 250 260 261
f 252 261 262
f 255 264 266
f 249 266 260
f 257 258 268
f 258 259 269
f 259 267 270
f 263 271 264
f 265 257 272
f 263 265 273
f 264 274 266
f 266 275 260
f 260 276 261
f 261 277 262
f 263 273 271
f 265 272 273
f 269 259 270
f 270 267 278
f 257 268 272
f 268 258 269
f 264 271 274
f 266 274 275
f 260 275 276
f 261 276 277
f 273 272 279
f 272 268 279
f 268 269 279
f 269 270 279
f 270 278 279
f 273 279 271
f 274 279 275
f 271 279 274
f 275 279 276
f 276 279 277
f 196 280 197
f 199 201 281
f 199 281 282
f 199 282 234
f 234 282 283
f 234 283 284
f 285 284 286
f 285 286 287
f 285 287 288
f 289 288 290
f 289 290 291
f 196 292 280
f 292 293 280
f 292 294 293
f 292 295 294
f 296 297 295
f 296 298 297
f 299 300 298
f 301 302 303
f 304 291 305
f 304 305 306
f 299 303 300
f 301 307 302
f 308 309 307
f 308 310 309
f 311 306 312
f 311 312 310
f 234 284 285
f 289 291 304
f 285 288 289
f 304 306 311
f 301 308 307
f 311 310 308
f 196 211 292
f 292 296 295
f 296 299 298
f 299 301 303
f 285 289 313
f 289 304 314
f 304 311 315
f 234 285 245
f 296 316 299
f 211 317 292
f 292 318 296
f 299 319 301
f 311 308 320
f 301 321 308
f 313 289 314
f 245 285 313
f 304 315 314
f 311 320 315
f 308 321 320
f 301 319 321
f 211 242 317
f 292 317 318
f 296 318 316
f 299 316 319
f 315 320 322
f 245 313 256
f 313 314 323
f 314 315 324
f 318 325 316
f 242 326 317
f 317 327 318
f 319 328 321
f 321 329 320
f 316 330 319
f 256 313 323
f 314 324 323
f 315 322 324
f 320 329 322
f 319 330 328
f 321 328 329
f 317 326 327
f 242 251 326
f 318 327 325
f 316 325 330
f 323 324 331
f 256 323 267
f 324 322 332
f 322 329 333
f 251 334 326
f 326 335 327
f 327 336 325
f 329 328 337
f 330 338 328
f 325 339 330
f 267 323 331
f 322 333 332
f 331 324 332
f 328 338 337
f 330 339 338
f 329 337 333
f 326 334 335
f 251 262 334
f 327 335 336
f 325 336 339
f 267 331 278
f 331 332 340
f 333 337 341
f 332 333 342
f 335 343 336
f 262 344 334
f 334 345 335
f 339 346 338
f 336 347 339
f 337 338 348
f 278 331 340
f 340 332 342
f 342 333 341
f 339 347 346
f 337 348 341
f 338 346 348
f 334 344 345
f 262 277 344
f 335 345 343
f 336 343 347
f 278 340 279
f 279 340 342
f 279 348 346
f 279 341 348
f 279 342 341
f 277 279 344
f 279 345 344
f 279 346 347
f 279 343 345
f 279 347 343
f 349 350 351
f 350 352 351
f 353 349 351
f 352 354 351
f 354 355 351
f 355 356 351
f 353 351 357
f 357 351 358
f 358 351 359
f 359 351 360
f 360 351 361
f 351 362 361
f 351 356 363
f 351 363 364
f 351 364 365
f 351 365 366
f 351 366 367
f 351 368 369
f 351 367 368
f 351 369 362
f 360 361 213
f 359 360 220
f 356 200 363
f 364 206 365
f 365 229 366
f 363 209 364
f 361 362 217
f 362 369 231
f 366 222 367
f 368 367 224
f 369 368 226
f 361 215 214
f 361 214 213
f 349 370 350
f 350 371 352
f 353 372 349
f 352 373 354
f 354 374 355
f 353 357 375
f 357 358 376
f 358 359 377
f 359 220 198
f 360 218 219
f 360 213 218
f 360 219 220
f 364 209 207
f 365 206 232
f 364 207 206
f 365 232 229
f 361 217 215
f 362 233 217
f 369 226 227
f 369 227 231
f 362 231 233
f 366 223 222
f 367 222 224
f 366 229 223
f 368 224 226
f 355 378 356
f 363 202 204
f 363 204 210
f 356 201 200
f 356 281 201
f 363 200 202
f 363 210 209
f 359 198 379
f 356 380 281
f 350 370 371
f 352 371 373
f 349 372 370
f 353 375 372
f 354 373 374
f 355 374 378
f 357 376 375
f 358 377 376
f 359 379 377
f 379 198 197
f 379 197 280
f 379 280 293
f 381 293 294
f 381 294 295
f 381 295 297
f 382 297 298
f 356 378 380
f 380 282 281
f 380 283 282
f 383 284 283
f 383 286 284
f 383 287 286
f 384 288 287
f 384 290 288
f 384 291 290
f 385 305 291
f 382 298 300
f 386 300 303
f 387 302 307
f 387 307 309
f 386 303 302
f 388 312 306
f 388 310 312
f 385 306 305
f 389 309 310
f 379 293 381
f 381 297 382
f 380 383 283
f 383 384 287
f 384 385 291
f 382 300 386
f 386 302 387
f 385 388 306
f 389 310 388
f 387 309 389
f 372 390 370
f 370 390 371
f 375 390 372
f 371 390 373
f 373 390 374
f 374 390 378
f 375 376 390
f 376 377 390
f 377 379 390
f 379 381 390
f 381 382 390
f 390 382 386
f 390 380 378
f 390 383 380
f 390 384 383
f 390 385 384
f 390 388 385
f 390 387 389
f 390 389 388
f 390 386 387
