# sionna2 mesh — s1000plus__accent.obj
# group=accent  verts=106  tris=176
v 0.137396 0.072773 0.020905
v 0.163359 0.051803 0.020905
v 0.137396 0.051803 0.020905
v 0.163359 0.072773 0.020905
v 0.137396 0.051803 0.037628
v 0.137396 0.072773 0.037628
v 0.163359 0.051803 0.037628
v 0.163359 0.072773 0.037628
v 0.049307 0.160862 0.020905
v 0.075270 0.139892 0.020905
v 0.049307 0.139892 0.020905
v 0.075270 0.160862 0.020905
v 0.049307 0.139892 0.037628
v 0.049307 0.160862 0.037628
v 0.075270 0.139892 0.037628
v 0.075270 0.160862 0.037628
v -0.075270 0.160862 0.020905
v -0.049307 0.139892 0.020905
v -0.075270 0.139892 0.020905
v -0.049307 0.160862 0.020905
v -0.075270 0.139892 0.037628
v -0.075270 0.160862 0.037628
v -0.049307 0.139892 0.037628
v -0.049307 0.160862 0.037628
v -0.163359 0.072773 0.020905
v -0.137396 0.051803 0.020905
v -0.163359 0.051803 0.020905
v -0.137396 0.072773 0.020905
v -0.163359 0.051803 0.037628
v -0.163359 0.072773 0.037628
v -0.137396 0.072773 0.037628
v -0.137396 0.051803 0.037628
v -0.163359 -0.051803 0.020905
v -0.137396 -0.072773 0.020905
v -0.163359 -0.072773 0.020905
v -0.137396 -0.051803 0.020905
v -0.163359 -0.072773 0.037628
v -0.163359 -0.051803 0.037628
v -0.137396 -0.051803 0.037628
v -0.137396 -0.072773 0.037628
v -0.075270 -0.139892 0.020905
v -0.049307 -0.160862 0.020905
v -0.075270 -0.160862 0.020905
v -0.049307 -0.139892 0.020905
v -0.075270 -0.139892 0.037628
v -0.075270 -0.160862 0.037628
v -0.049307 -0.160862 0.037628
v -0.049307 -0.139892 0.037628
v 0.049307 -0.139892 0.020905
v 0.075270 -0.160862 0.020905
v 0.049307 -0.160862 0.020905
v 0.075270 -0.139892 0.020905
v 0.049307 -0.139892 0.037628
v 0.049307 -0.160862 0.037628
v 0.075270 -0.160862 0.037628
v 0.075270 -0.139892 0.037628
v 0.137396 -0.051803 0.020905
v 0.163359 -0.072773 0.020905
v 0.137396 -0.072773 0.020905
v 0.163359 -0.051803 0.020905
v 0.137396 -0.072773 0.037628
v 0.137396 -0.051803 0.037628
v 0.163359 -0.072773 0.037628
v 0.163359 -0.051803 0.037628
v 0.130813 0.000000 0.033912
v 0.149786 0.000000 0.033912
v 0.131741 -0.005863 0.033912
v 0.138634 -0.015349 0.033912
v 0.143923 -0.018044 0.033912
v 0.149786 -0.018973 0.033912
v 0.134436 -0.011152 0.033912
v 0.155649 -0.018044 0.033912
v 0.160938 -0.015349 0.033912
v 0.165135 -0.011152 0.033912
v 0.167830 -0.005863 0.033912
v 0.168758 0.000000 0.033912
v 0.134436 -0.011152 0.045061
v 0.130813 0.000000 0.045061
v 0.131741 -0.005863 0.045061
v 0.138634 -0.015349 0.045061
v 0.143923 -0.018044 0.045061
v 0.149786 -0.018973 0.045061
v 0.155649 -0.018044 0.045061
v 0.160938 -0.015349 0.045061
v 0.165135 -0.011152 0.045061
v 0.167830 -0.005863 0.045061
v 0.168758 0.000000 0.045061
v 0.149786 0.000000 0.045061
v 0.131741 0.005863 0.033912
v 0.134436 0.011152 0.033912
v 0.138634 0.015349 0.033912
v 0.143923 0.018044 0.033912
v 0.149786 0.018973 0.033912
v 0.155649 0.018044 0.033912
v 0.160938 0.015349 0.033912
v 0.167830 0.005863 0.033912
v 0.165135 0.011152 0.033912
v 0.131741 0.005863 0.045061
v 0.134436 0.011152 0.045061
v 0.138634 0.015349 0.045061
v 0.143923 0.018044 0.045061
v 0.149786 0.018973 0.045061
v 0.155649 0.018044 0.045061
v 0.167830 0.005863 0.045061
v 0.160938 0.015349 0.045061
v 0.165135 0.011152 0.045061
f 1 2 3
f 4 2 1
f 2 5 3
f 3 6 1
f 4 7 2
f 1 8 4
f 5 6 3
f 6 8 1
f 7 5 2
f 8 7 4
f 5 8 6
f 7 8 5
f 9 10 11
f 12 10 9
f 10 13 11
f 11 14 9
f 12 15 10
f 9 16 12
f 13 14 11
f 14 16 9
f 15 13 10
f 16 15 12
f 13 16 14
f 15 16 13
f 17 18 19
f 20 18 17
f 18 21 19
f 19 22 17
f 20 23 18
f 17 24 20
f 21 22 19
f 22 24 17
f 23 21 18
f 24 23 20
f 21 24 22
f 23 24 21
f 25 26 27
f 28 26 25
f 26 29 27
f 27 30 25
f 25 31 28
f 28 32 26
f 29 30 27
f 32 29 26
f 30 31 25
f 31 32 28
f 32 31 29
f 29 31 30
f 33 34 35
f 36 34 33
f 34 37 35
f 35 38 33
f 33 39 36
f 36 40 34
f 37 38 35
f 40 37 34
f 38 39 33
f 39 40 36
f 40 39 37
f 37 39 38
f 41 42 43
f 44 42 41
f 43 45 41
f 42 46 43
f 44 47 42
f 41 48 44
f 46 45 43
f 45 48 41
f 47 46 42
f 48 47 44
f 46 48 45
f 47 48 46
f 49 50 51
f 52 50 49
f 51 53 49
f 50 54 51
f 52 55 50
f 49 56 52
f 54 53 51
f 53 56 49
f 55 54 50
f 56 55 52
f 54 56 53
f 55 56 54
f 57 58 59
f 60 58 57
f 58 61 59
f 59 62 57
f 60 63 58
f 57 64 60
f 61 62 59
f 62 64 57
f 63 61 58
f 64 63 60
f 61 64 62
f 63 64 61
f 65 66 67
f 68 66 69
f 69 66 70
f 67 66 71
f 71 66 68
f 70 66 72
f 72 66 73
f 73 66 74
f 74 66 75
f 75 66 76
f 71 68 77
f 65 67 78
f 67 71 79
f 68 69 80
f 69 70 81
f 70 72 82
f 72 73 83
f 73 74 84
f 74 75 85
f 75 76 86
f 77 68 80
f 78 67 79
f 79 71 77
f 80 69 81
f 81 70 82
f 82 72 83
f 83 73 84
f 84 74 85
f 85 75 86
f 86 76 87
f 78 79 88
f 80 81 88
f 81 82 88
f 79 77 88
f 77 80 88
f 82 83 88
f 83 84 88
f 84 85 88
f 85 86 88
f 86 87 88
f 89 66 65
f 90 66 89
f 91 66 90
f 92 66 91
f 93 66 92
f 94 66 93
f 95 66 94
f 76 66 96
f 96 66 97
f 97 66 95
f 89 65 98
f 90 89 99
f 91 90 100
f 92 91 101
f 93 92 102
f 94 93 103
f 76 96 87
f 96 97 104
f 95 94 105
f 97 95 106
f 98 65 78
f 99 89 98
f 100 90 99
f 101 91 100
f 102 92 101
f 103 93 102
f 105 94 103
f 87 96 104
f 104 97 106
f 106 95 105
f 98 78 88
f 99 98 88
f 100 99 88
f 101 100 88
f 102 101 88
f 103 102 88
f 105 103 88
f 87 104 88
f 104 106 88
f 106 105 88
