v -0.134434 -0.172097 -0.001374
v -0.098414 -0.026361 -0.037071
v -0.098901 0.029451 -0.036619
v -0.099248 -0.044329 -0.021312
v -0.028207 -0.051466 -0.027256
v -0.064643 -0.012388 -0.040969
v -0.053233 -0.027662 -0.040762
v -0.043727 -0.022176 -0.041236
v 0.004006 -0.025298 -0.041600
v -0.075774 -0.085415 -0.003955
v -0.059214 -0.061352 -0.007844
v -0.053876 -0.052792 -0.010842
v -0.043995 -0.060575 -0.011056
v -0.031363 -0.054735 -0.010669
v -0.029310 -0.056159 -0.008755
v -0.047099 -0.053046 -0.012325
v -0.143011 -0.167462 0.000309
v -0.131034 -0.176952 -0.000730
v -0.092439 -0.131901 0.005732
v -0.146279 -0.166717 0.012007
v -0.133528 -0.175891 0.017422
v -0.118832 -0.137448 0.020494
v -0.077652 -0.113119 0.018941
v -0.080726 -0.106314 -0.002671
v -0.066054 -0.099344 0.000704
v -0.098180 -0.109890 0.001292
v -0.086976 -0.094116 0.019651
v -0.088656 -0.104316 0.022215
v -0.101026 -0.032386 0.037989
v -0.095539 -0.040282 0.030171
v -0.045728 -0.042436 0.035834
v -0.094520 -0.100139 0.006464
v -0.057702 -0.052037 0.010322
v -0.069280 -0.068380 0.012139
v -0.059012 -0.074608 0.019615
v -0.054845 -0.061003 0.017180
v -0.035992 -0.064242 0.010814
v -0.027317 -0.055821 0.002000
v -0.049350 -0.015229 0.043063
v -0.021481 -0.031574 0.040684
v -0.037981 -0.054616 0.016347
v 0.013435 -0.015844 0.039923
v -0.058895 0.023650 -0.040723
v -0.102165 0.040559 -0.022646
v -0.143896 0.166742 -0.000314
v -0.132501 0.175583 -0.000872
v -0.028015 0.018461 -0.041430
v -0.072788 0.041295 -0.033455
v 0.004046 0.024611 -0.041485
v -0.061871 0.067814 -0.007300
v -0.050462 0.077980 -0.005248
v -0.028081 0.056450 -0.004104
v -0.027960 0.055248 0.006384
v -0.035103 0.055447 -0.013053
v -0.056090 0.052496 -0.005565
v -0.058090 0.052051 0.005054
v -0.098151 0.044674 0.027162
v -0.084427 0.091436 0.019278
v -0.097743 0.013513 0.041256
v -0.095281 0.033170 0.037354
v -0.112253 0.136332 -0.000539
v -0.112957 0.126350 0.003922
v -0.096238 0.107294 0.020892
v -0.135395 0.175083 0.019431
v -0.108253 0.118252 0.012391
v -0.113451 0.147488 0.020854
v -0.115921 0.154371 0.019136
v -0.104481 0.145563 0.017660
v -0.079215 0.080930 0.002368
v -0.086979 0.113606 -0.001558
v -0.130570 0.177656 0.003793
v -0.099498 0.140615 0.006008
v -0.104951 0.130792 0.022036
v -0.083916 0.119457 0.019780
v -0.057446 0.052040 0.007419
v -0.053237 0.052780 0.014270
v -0.064624 0.085966 0.020546
v -0.038057 0.059524 0.014368
v -0.042323 0.058481 0.015831
v -0.046277 0.078093 0.008230
v -0.016654 0.054400 0.025727
v -0.032747 0.024999 0.042504
v -0.018232 -0.011892 0.042550
v -0.041888 0.054020 0.016826
v -0.015558 0.050327 0.032220
v -0.001075 0.021044 0.040948
v -0.012135 0.049568 0.029221
v -0.091101 0.131379 0.008520
v -0.051811 0.079991 0.015871
v 0.028208 -0.038673 -0.039013
v 0.066890 -0.044485 -0.039640
v 0.060757 0.007706 -0.045186
v 0.069430 -0.013344 -0.044324
v 0.030545 -0.056434 -0.010652
v 0.035394 -0.056221 -0.012161
v 0.057014 -0.055813 -0.007936
v 0.048155 -0.055728 -0.011682
v 0.086013 -0.098155 -0.001634
v 0.105759 -0.130229 -0.000498
v 0.140334 -0.169380 -0.003233
v 0.097626 -0.028163 -0.038911
v 0.101004 -0.028311 -0.031759
v 0.064678 -0.057751 0.000519
v 0.092118 -0.132322 0.007627
v 0.067738 -0.102863 0.004775
v 0.058739 -0.093416 0.009735
v 0.034956 -0.055343 0.016401
v 0.035739 -0.065116 0.005015
v 0.060341 -0.093590 0.002404
v 0.068473 -0.069869 0.016321
v 0.085209 -0.124326 0.014967
v 0.056719 -0.080465 0.019768
v 0.058260 -0.054514 0.012961
v -0.028495 -0.038667 0.039741
v 0.036644 -0.032295 0.034889
v 0.026174 0.003275 0.038611
v 0.045471 -0.020524 0.035021
v 0.071529 -0.036426 0.024666
v 0.054339 -0.019237 0.033639
v 0.059992 -0.041728 0.027213
v 0.066684 -0.022925 0.030444
v 0.049412 0.005512 0.034864
v 0.069442 -0.098308 -0.002472
v 0.091390 -0.097660 0.003351
v 0.130711 -0.177879 0.013864
v 0.082937 -0.115191 0.021112
v 0.092625 -0.102205 0.019928
v 0.123276 -0.150123 -0.001392
v 0.130518 -0.177588 0.002939
v 0.126195 -0.143761 0.003570
v 0.144893 -0.166661 0.009688
v 0.142699 -0.168860 0.016118
v 0.133595 -0.176189 0.016839
v 0.121575 -0.135866 0.010652
v 0.115359 -0.134374 0.020838
v 0.112040 -0.146120 0.020892
v 0.083325 -0.105385 0.021674
v 0.091398 -0.109713 0.021855
v 0.083956 -0.086553 0.012623
v 0.083771 -0.041892 0.012112
v 0.097242 -0.033253 0.009255
v 0.094635 -0.021980 0.017271
v 0.102476 -0.011380 0.012618
v 0.095265 0.008072 0.018539
v 0.074244 -0.030468 0.025853
v 0.082769 -0.010672 0.024543
v 0.050345 0.035750 -0.041212
v 0.074324 0.028213 -0.043229
v 0.031201 0.042985 -0.036953
v 0.098074 0.033199 -0.037638
v 0.031015 0.050435 -0.030406
v 0.062425 0.053836 -0.024787
v 0.016375 0.053022 -0.026399
v 0.034673 0.055943 -0.011626
v 0.050539 0.055703 -0.011654
v 0.029296 0.056154 -0.007255
v 0.065983 0.069485 -0.005960
v 0.098461 0.022292 -0.038266
v 0.101313 0.016331 -0.034776
v 0.077452 0.049175 -0.018178
v 0.142782 0.164914 0.005945
v 0.128260 0.179682 0.005461
v 0.067022 0.093927 -0.003640
v 0.027936 0.056121 0.002896
v 0.033510 0.055277 0.013681
v 0.059248 0.087685 0.018791
v 0.064210 0.099205 0.013685
v 0.059571 0.053810 0.010580
v 0.112161 0.124409 0.017420
v 0.058341 0.054901 -0.004178
v 0.082510 0.092236 0.021354
v 0.036406 0.044376 0.029240
v 0.050208 0.008616 0.035195
v 0.016149 0.036823 0.036651
v 0.041821 0.025798 0.035248
v 0.047492 0.053800 0.016380
v 0.057714 0.034901 0.029954
v 0.054571 0.043683 0.026616
v 0.073716 0.012937 0.028400
v 0.098397 0.035469 0.005333
v 0.087675 0.044877 0.005189
v 0.100434 0.022030 0.013045
v 0.085672 0.031429 0.022745
v 0.072751 0.046202 0.020296
v 0.118479 0.132011 0.008413
v 0.116068 0.159232 0.017563
v 0.087702 0.126430 0.004966
v 0.131257 0.176630 -0.000363
v 0.145100 0.166418 0.008466
v 0.138282 0.170737 -0.002072
v 0.142665 0.168715 0.016638
v 0.142585 0.168921 0.015607
v 0.136021 0.174264 0.016902
v 0.096071 0.120966 0.022186
v 0.110800 0.134900 0.021652
g body
f 2 4 44
f 2 3 6
f 5 2 7
f 6 7 2
f 5 4 2
f 5 12 4
f 12 5 16
f 4 12 33
f 5 14 16
f 5 38 14
f 4 29 44
f 4 30 29
f 30 31 29
f 29 39 59
f 29 114 39
f 33 30 4
f 33 41 30
f 30 41 31
f 29 31 114
f 114 40 39
f 31 41 107
f 107 114 31
f 39 40 83
f 2 44 3
f 44 57 3
f 3 43 6
f 3 48 43
f 6 43 7
f 7 43 47
f 43 49 47
f 8 7 49
f 7 47 49
f 43 48 49
f 49 48 149
f 48 153 149
f 48 54 153
f 3 57 48
f 48 55 54
f 48 57 55
f 57 56 55
f 44 59 57
f 44 29 59
f 59 60 57
f 57 75 56
f 57 76 75
f 53 81 54
f 53 84 81
f 59 82 60
f 59 39 82
f 39 83 82
f 60 82 85
f 76 57 84
f 57 60 84
f 84 60 85
f 86 85 82
f 86 174 85
f 85 87 84
f 87 81 84
f 87 85 174
f 94 5 91
f 8 9 90
f 8 90 7
f 5 7 90
f 5 90 91
f 90 9 91
f 9 92 91
f 91 92 93
f 5 94 38
f 91 95 94
f 95 91 97
f 91 96 97
f 91 93 101
f 102 101 143
f 91 101 96
f 101 103 96
f 101 102 103
f 103 102 141
f 102 143 141
f 94 41 38
f 94 107 41
f 40 114 115
f 114 120 115
f 115 42 40
f 83 40 42
f 42 115 117
f 42 117 119
f 107 113 114
f 113 120 114
f 121 120 145
f 118 145 120
f 173 121 179
f 120 121 115
f 42 119 116
f 116 119 121
f 121 122 116
f 121 117 115
f 121 119 117
f 122 121 173
f 103 141 113
f 113 141 140
f 113 140 120
f 120 140 141
f 141 142 145
f 143 142 141
f 143 144 146
f 141 118 120
f 141 145 118
f 145 142 121
f 121 146 179
f 121 142 143
f 121 143 146
f 49 149 147
f 49 147 8
f 149 153 151
f 9 8 92
f 8 147 92
f 149 151 147
f 92 148 93
f 93 148 101
f 92 147 148
f 147 150 148
f 147 151 152
f 147 152 150
f 151 153 152
f 153 154 152
f 153 54 154
f 152 154 155
f 154 54 156
f 152 155 170
f 101 148 158
f 148 150 158
f 101 158 159
f 101 159 143
f 159 158 143
f 158 150 143
f 143 150 180
f 152 160 150
f 160 152 180
f 160 180 150
f 152 181 180
f 81 165 54
f 156 54 164
f 54 165 164
f 152 170 168
f 152 168 184
f 181 152 184
f 176 184 168
f 42 116 83
f 83 116 82
f 82 116 86
f 86 173 174
f 116 173 86
f 174 173 175
f 87 174 81
f 81 176 165
f 174 172 81
f 81 172 176
f 174 178 172
f 174 177 178
f 184 177 183
f 178 177 184
f 173 116 122
f 174 183 177
f 174 175 183
f 173 179 175
f 183 175 179
f 176 172 178
f 176 178 184
f 143 180 182
f 180 181 184
f 143 182 144
f 182 183 144
f 180 184 182
f 146 144 179
f 182 184 183
f 179 144 183
f 155 154 163
f 163 157 155
f 156 163 154
f 157 170 155
f 157 163 161
f 163 156 164
f 164 165 166
f 163 164 167
f 168 170 169
f 169 171 168
f 163 167 187
f 166 165 176
f 164 166 167
f 171 176 168
f 176 171 166
f 167 166 186
f 170 157 169
f 161 185 157
f 157 185 169
f 163 187 190
f 167 186 187
f 187 188 190
f 161 189 185
f 163 190 161
f 188 162 190
f 190 162 161
f 161 162 189
f 187 186 188
f 169 191 195
f 195 191 186
f 188 186 162
f 186 191 193
f 186 193 162
f 185 189 169
f 191 169 192
f 169 189 192
f 162 192 189
f 162 191 192
f 162 193 191
f 171 194 166
f 166 194 186
f 171 169 194
f 169 195 194
f 194 195 186
f 70 72 54
f 70 50 55
f 50 70 54
f 55 50 54
f 52 53 54
f 51 52 54
f 51 54 72
f 55 56 69
f 45 71 46
f 46 71 70
f 71 45 64
f 45 46 61
f 69 62 45
f 69 45 61
f 45 62 65
f 71 64 72
f 65 63 45
f 63 64 45
f 64 73 66
f 63 73 64
f 64 68 72
f 66 67 64
f 70 55 61
f 70 61 46
f 55 69 61
f 70 71 72
f 69 58 65
f 62 69 65
f 58 63 65
f 56 58 69
f 88 72 68
f 67 66 68
f 67 68 64
f 74 68 66
f 66 73 74
f 58 77 63
f 73 77 74
f 63 77 73
f 52 51 80
f 58 75 76
f 56 75 58
f 76 84 58
f 84 77 58
f 78 79 84
f 84 79 77
f 78 77 79
f 78 89 77
f 52 80 53
f 89 53 80
f 89 78 53
f 78 84 53
f 88 51 72
f 88 74 80
f 51 88 80
f 68 74 88
f 80 74 89
f 77 89 74
f 24 10 15
f 24 15 25
f 16 10 11
f 15 10 13
f 11 12 16
f 10 16 13
f 15 13 16
f 15 16 14
f 15 14 38
f 1 18 17
f 17 18 21
f 17 21 20
f 18 23 21
f 20 21 22
f 22 27 20
f 18 1 19
f 18 19 23
f 17 24 1
f 17 20 24
f 24 20 26
f 20 32 26
f 1 24 25
f 10 26 32
f 24 26 10
f 1 25 19
f 20 27 32
f 19 37 23
f 22 28 27
f 21 28 22
f 21 23 28
f 28 23 35
f 28 35 27
f 32 11 10
f 32 27 34
f 11 32 12
f 32 33 12
f 33 32 34
f 25 15 37
f 25 37 19
f 34 27 33
f 27 35 33
f 37 35 23
f 36 35 41
f 36 41 33
f 35 36 33
f 37 41 35
f 15 38 37
f 37 38 41
f 95 109 94
f 97 123 95
f 98 123 96
f 123 109 95
f 123 97 96
f 98 96 103
f 98 99 123
f 123 105 109
f 123 104 105
f 109 105 111
f 94 106 108
f 108 107 94
f 108 106 107
f 106 112 107
f 106 109 111
f 94 109 106
f 110 103 113
f 106 111 112
f 107 110 113
f 126 112 111
f 107 112 110
f 128 129 123
f 123 129 104
f 105 104 111
f 99 128 123
f 99 98 128
f 111 104 125
f 111 125 126
f 128 100 129
f 100 131 129
f 100 134 131
f 128 130 100
f 100 130 134
f 104 129 125
f 134 127 131
f 125 133 126
f 133 136 126
f 136 133 135
f 131 125 129
f 131 133 125
f 131 132 133
f 135 133 132
f 131 135 132
f 124 128 98
f 128 124 130
f 124 139 130
f 139 134 130
f 131 127 135
f 139 127 134
f 112 137 138
f 126 137 112
f 126 138 137
f 112 138 127
f 126 136 135
f 126 135 138
f 138 135 127
f 98 103 124
f 103 110 139
f 124 103 139
f 139 110 127
f 112 127 110
