v 0.024866 -0.029679 -0.054050
v 0.036262 -0.040330 -0.041254
v 0.036513 -0.029112 -0.053625
v 0.035561 -0.023493 -0.047017
v 0.026003 -0.035138 -0.026191
v 0.028385 -0.039309 -0.034263
v 0.021942 -0.027545 -0.030927
v 0.024982 -0.023480 -0.036225
v 0.037878 -0.028247 -0.029166
v 0.031474 -0.021001 -0.037476
v -0.006507 -0.038794 0.035127
v -0.020798 -0.028784 0.032411
v -0.009257 -0.035418 0.051473
v -0.019410 -0.026396 0.048615
v -0.007765 -0.029286 0.053898
v -0.016293 -0.021834 0.025920
v -0.004752 -0.021765 0.030363
v -0.004728 -0.023110 0.051073
v -0.001114 -0.025588 0.037694
v 0.040966 0.026096 -0.044375
v 0.030274 0.036988 -0.053019
v 0.025237 0.037015 -0.056116
v 0.024054 0.033411 -0.026813
v 0.027111 0.020528 -0.032720
v 0.037271 0.035256 -0.031127
v 0.035068 0.038916 -0.037236
v 0.030597 0.032113 -0.025176
v -0.004510 0.018126 0.036626
v -0.019992 0.025730 0.030491
v -0.001822 0.023085 0.042337
v -0.003758 0.021924 0.042139
v -0.016049 0.033504 0.050894
v -0.009492 0.037245 0.028218
v -0.010779 0.026726 0.056254
v -0.005283 0.035239 0.047244
v -0.001952 0.033729 0.038508
v 0.052900 -0.024191 -0.041316
v 0.072504 -0.019440 -0.071408
v 0.067600 -0.030122 -0.015523
v 0.074886 -0.031422 -0.043332
v 0.045971 -0.007750 -0.043464
v 0.066015 0.007615 -0.079267
v 0.089378 -0.011349 -0.063841
v 0.092230 -0.016295 -0.011769
v 0.101686 -0.010181 -0.060341
v 0.102819 -0.007196 -0.056872
v 0.103989 -0.004094 -0.049099
v 0.103989 -0.012044 -0.039890
v 0.098854 -0.015648 -0.040364
v 0.104899 -0.013020 -0.028722
v 0.095142 -0.013797 -0.033596
v 0.106056 -0.009613 -0.017250
v 0.079172 -0.026066 -0.002525
v 0.063903 -0.025451 -0.004255
v 0.074990 -0.016000 0.020602
v 0.063448 -0.008391 0.016623
v 0.087289 -0.029348 0.004515
v 0.101504 -0.039353 -0.002074
v 0.099794 -0.022249 -0.014066
v 0.099712 -0.029531 0.018889
v 0.091127 -0.019197 -0.004431
v 0.108219 -0.032166 0.002003
v 0.099036 -0.024505 0.015780
v 0.099374 -0.020281 0.008476
v 0.080625 -0.016008 0.007752
v 0.095479 -0.019300 0.000065
v 0.104990 -0.016000 0.020602
v 0.105804 -0.002440 -0.003757
v 0.105297 -0.004453 0.012764
v 0.058143 0.020773 -0.057189
v 0.044683 0.000737 -0.028409
v 0.051547 0.008820 -0.001247
v 0.051734 0.021031 -0.022382
v 0.067974 0.030690 -0.045997
v 0.058417 0.025537 -0.029765
v 0.060234 0.024487 -0.010553
v 0.061878 0.028619 -0.019326
v 0.069735 0.029376 -0.016584
v 0.090557 0.009322 -0.061885
v 0.097855 0.006144 -0.033870
v 0.102744 0.005316 -0.057130
v 0.101691 0.018599 -0.049302
v 0.103989 0.011140 -0.056102
v 0.102353 0.015130 -0.046987
v 0.098976 -0.004850 -0.036439
v 0.103989 0.006223 -0.040794
v 0.103989 0.009480 -0.039357
v 0.096282 0.010174 -0.033636
v 0.103989 0.011697 -0.040030
v 0.103989 0.013826 -0.042895
v 0.101461 0.005108 -0.037553
v 0.104990 0.016000 -0.030523
v 0.095124 0.016327 -0.031828
v 0.082739 0.024286 -0.050411
v 0.080038 0.028949 -0.023534
v 0.075676 0.030663 -0.026781
v 0.093612 0.034790 -0.011169
v 0.071335 0.019596 0.009542
v 0.071974 0.007771 0.018499
v 0.074990 0.016000 0.020602
v 0.088470 0.016797 -0.000594
v 0.105695 0.003467 -0.004509
v 0.105735 0.009254 -0.022829
v 0.105165 0.002178 0.007018
v 0.105138 0.001950 0.016723
v 0.105470 0.003361 0.013221
v 0.100409 0.021073 0.013432
v 0.104990 0.016000 0.020602
v 0.104223 0.021339 -0.007699
v 0.086678 0.025269 0.003605
v 0.107950 0.024533 0.004698
v 0.106734 0.032540 -0.003427
v 0.100770 0.029307 0.017328
v 0.098131 0.038135 0.003275
v 0.094845 0.034524 0.012366
g camera
f 40 39 37
f 74 77 78
f 74 78 96
f 38 40 37
f 37 39 54
f 38 37 42
f 41 37 71
f 37 56 71
f 38 43 40
f 40 53 39
f 39 53 54
f 40 44 53
f 40 43 49
f 40 49 51
f 40 51 44
f 54 56 37
f 53 56 54
f 53 44 65
f 37 41 42
f 41 70 42
f 70 41 71
f 70 71 73
f 71 72 73
f 42 70 74
f 73 75 74
f 75 77 74
f 75 73 77
f 73 74 70
f 73 76 77
f 76 78 77
f 43 38 42
f 42 79 43
f 42 74 79
f 43 79 85
f 85 79 80
f 74 94 79
f 79 94 93
f 74 95 93
f 95 74 96
f 94 74 93
f 95 101 93
f 71 56 72
f 72 56 99
f 73 98 76
f 73 72 98
f 99 98 72
f 98 78 76
f 78 98 96
f 96 98 95
f 101 95 98
f 50 85 80
f 80 88 93
f 50 103 52
f 52 102 68
f 52 103 102
f 45 49 43
f 45 43 85
f 45 85 46
f 49 85 51
f 46 49 45
f 46 47 85
f 47 46 85
f 46 48 49
f 46 85 48
f 48 85 49
f 91 80 79
f 91 79 81
f 81 79 82
f 82 79 93
f 82 88 80
f 82 93 88
f 82 91 84
f 82 80 91
f 83 81 82
f 81 83 82
f 81 82 84
f 81 84 90
f 81 86 91
f 81 87 86
f 86 87 91
f 90 84 91
f 81 89 87
f 81 90 89
f 87 89 91
f 89 90 91
f 50 51 85
f 50 44 51
f 55 56 53
f 55 100 56
f 50 55 44
f 55 65 44
f 55 53 65
f 50 67 55
f 50 52 67
f 67 52 68
f 55 67 108
f 67 68 69
f 67 69 105
f 50 80 92
f 92 103 50
f 80 93 92
f 100 99 56
f 100 98 99
f 55 108 100
f 108 101 98
f 100 108 98
f 69 68 102
f 69 102 104
f 104 102 103
f 92 104 103
f 67 105 108
f 104 108 105
f 108 93 101
f 92 108 104
f 92 93 108
f 59 58 57
f 61 59 57
f 57 58 60
f 62 60 58
f 58 59 62
f 60 63 61
f 60 61 57
f 61 64 66
f 63 64 61
f 63 59 64
f 62 59 60
f 63 60 59
f 66 59 61
f 66 64 59
f 110 115 97
f 109 107 110
f 109 110 97
f 109 97 112
f 107 113 110
f 109 111 107
f 107 111 113
f 112 111 109
f 97 114 112
f 110 113 115
f 115 114 97
f 112 113 111
f 115 113 114
f 112 114 113
f 2 1 3
f 1 4 3
f 1 6 5
f 1 2 6
f 1 5 7
f 1 7 8
f 1 8 10
f 6 2 5
f 2 9 5
f 4 1 10
f 8 7 10
f 7 9 10
f 10 9 4
f 2 3 9
f 4 9 3
f 5 9 7
f 24 22 20
f 20 22 21
f 22 24 23
f 23 24 27
f 22 26 21
f 22 23 26
f 23 25 26
f 20 26 25
f 21 26 20
f 27 25 23
f 24 20 27
f 27 20 25
f 16 11 12
f 12 11 13
f 12 13 14
f 16 17 11
f 12 14 16
f 14 18 16
f 14 13 15
f 14 15 18
f 13 18 15
f 13 11 18
f 11 17 19
f 17 18 19
f 11 19 18
f 16 18 17
f 28 29 33
f 28 34 29
f 28 30 31
f 28 31 34
f 29 34 32
f 29 32 33
f 32 35 33
f 32 34 35
f 33 35 36
f 28 36 30
f 28 33 36
f 34 31 30
f 34 30 35
f 30 36 35
f 69 104 106
f 104 105 106
f 69 106 105
