v -0.063234 -0.036605 0.009378
v -0.063234 0.036605 -0.006019
v 0.038756 -0.036605 -0.021416
v 0.038756 -0.036605 0.024775
v 0.038756 0.036605 -0.021416
v 0.038756 0.036605 0.024775
v -0.063234 -0.040148 -0.002240
v -0.063234 0.040148 -0.004479
v 0.055075 -0.040148 -0.004479
v 0.055075 0.040148 -0.002240
v -0.134434 -0.172097 -0.001374
v -0.098414 -0.026361 -0.037071
v -0.098901 0.029451 -0.036619
v -0.099248 -0.044329 -0.021312
v -0.028207 -0.051466 -0.027256
v -0.064643 -0.012388 -0.040969
v -0.053233 -0.027662 -0.040762
v -0.043727 -0.022176 -0.041236
v 0.004006 -0.025298 -0.041600
v -0.075774 -0.085415 -0.003955
v -0.059214 -0.061352 -0.007844
v -0.053876 -0.052792 -0.010842
v -0.043995 -0.060575 -0.011056
v -0.031363 -0.054735 -0.010669
v -0.029310 -0.056159 -0.008755
v -0.047099 -0.053046 -0.012325
v -0.143011 -0.167462 0.000309
v -0.131034 -0.176952 -0.000730
v -0.092439 -0.131901 0.005732
v -0.146279 -0.166717 0.012007
v -0.133528 -0.175891 0.017422
v -0.118832 -0.137448 0.020494
v -0.077652 -0.113119 0.018941
v -0.080726 -0.106314 -0.002671
v -0.066054 -0.099344 0.000704
v -0.098180 -0.109890 0.001292
v -0.086976 -0.094116 0.019651
v -0.088656 -0.104316 0.022215
v -0.101026 -0.032386 0.037989
v -0.095539 -0.040282 0.030171
v -0.045728 -0.042436 0.035834
v -0.094520 -0.100139 0.006464
v -0.057702 -0.052037 0.010322
v -0.069280 -0.068380 0.012139
v -0.059012 -0.074608 0.019615
v -0.054845 -0.061003 0.017180
v -0.035992 -0.064242 0.010814
v -0.027317 -0.055821 0.002000
v -0.049350 -0.015229 0.043063
v -0.021481 -0.031574 0.040684
v -0.037981 -0.054616 0.016347
v 0.013435 -0.015844 0.039923
v -0.058895 0.023650 -0.040723
v -0.102165 0.040559 -0.022646
v -0.143896 0.166742 -0.000314
v -0.132501 0.175583 -0.000872
v -0.028015 0.018461 -0.041430
v -0.072788 0.041295 -0.033455
v 0.004046 0.024611 -0.041485
v -0.061871 0.067814 -0.007300
v -0.050462 0.077980 -0.005248
v -0.028081 0.056450 -0.004104
v -0.027960 0.055248 0.006384
v -0.035103 0.055447 -0.013053
v -0.056090 0.052496 -0.005565
v -0.058090 0.052051 0.005054
v -0.098151 0.044674 0.027162
v -0.084427 0.091436 0.019278
v -0.097743 0.013513 0.041256
v -0.095281 0.033170 0.037354
v -0.112253 0.136332 -0.000539
v -0.112957 0.126350 0.003922
v -0.096238 0.107294 0.020892
v -0.135395 0.175083 0.019431
v -0.108253 0.118252 0.012391
v -0.113451 0.147488 0.020854
v -0.115921 0.154371 0.019136
v -0.104481 0.145563 0.017660
v -0.079215 0.080930 0.002368
v -0.086979 0.113606 -0.001558
v -0.130570 0.177656 0.003793
v -0.099498 0.140615 0.006008
v -0.104951 0.130792 0.022036
v -0.083916 0.119457 0.019780
v -0.057446 0.052040 0.007419
v -0.053237 0.052780 0.014270
v -0.064624 0.085966 0.020546
v -0.038057 0.059524 0.014368
v -0.042323 0.058481 0.015831
v -0.046277 0.078093 0.008230
v -0.016654 0.054400 0.025727
v -0.032747 0.024999 0.042504
v -0.018232 -0.011892 0.042550
v -0.041888 0.054020 0.016826
v -0.015558 0.050327 0.032220
v -0.001075 0.021044 0.040948
v -0.012135 0.049568 0.029221
v -0.091101 0.131379 0.008520
v -0.051811 0.079991 0.015871
v 0.028208 -0.038673 -0.039013
v 0.066890 -0.044485 -0.039640
v 0.060757 0.007706 -0.045186
v 0.069430 -0.013344 -0.044324
v 0.030545 -0.056434 -0.010652
v 0.035394 -0.056221 -0.012161
v 0.057014 -0.055813 -0.007936
v 0.048155 -0.055728 -0.011682
v 0.086013 -0.098155 -0.001634
v 0.105759 -0.130229 -0.000498
v 0.140334 -0.169380 -0.003233
v 0.097626 -0.028163 -0.038911
v 0.101004 -0.028311 -0.031759
v 0.064678 -0.057751 0.000519
v 0.092118 -0.132322 0.007627
v 0.067738 -0.102863 0.004775
v 0.058739 -0.093416 0.009735
v 0.034956 -0.055343 0.016401
v 0.035739 -0.065116 0.005015
v 0.060341 -0.093590 0.002404
v 0.068473 -0.069869 0.016321
v 0.085209 -0.124326 0.014967
v 0.056719 -0.080465 0.019768
v 0.058260 -0.054514 0.012961
v -0.028495 -0.038667 0.039741
v 0.036644 -0.032295 0.034889
v 0.026174 0.003275 0.038611
v 0.045471 -0.020524 0.035021
v 0.071529 -0.036426 0.024666
v 0.054339 -0.019237 0.033639
v 0.059992 -0.041728 0.027213
v 0.066684 -0.022925 0.030444
v 0.049412 0.005512 0.034864
v 0.069442 -0.098308 -0.002472
v 0.091390 -0.097660 0.003351
v 0.130711 -0.177879 0.013864
v 0.082937 -0.115191 0.021112
v 0.092625 -0.102205 0.019928
v 0.123276 -0.150123 -0.001392
v 0.130518 -0.177588 0.002939
v 0.126195 -0.143761 0.003570
v 0.144893 -0.166661 0.009688
v 0.142699 -0.168860 0.016118
v 0.133595 -0.176189 0.016839
v 0.121575 -0.135866 0.010652
v 0.115359 -0.134374 0.020838
v 0.112040 -0.146120 0.020892
v 0.083325 -0.105385 0.021674
v 0.091398 -0.109713 0.021855
v 0.083956 -0.086553 0.012623
v 0.083771 -0.041892 0.012112
v 0.097242 -0.033253 0.009255
v 0.094635 -0.021980 0.017271
v 0.102476 -0.011380 0.012618
v 0.095265 0.008072 0.018539
v 0.074244 -0.030468 0.025853
v 0.082769 -0.010672 0.024543
v 0.050345 0.035750 -0.041212
v 0.074324 0.028213 -0.043229
v 0.031201 0.042985 -0.036953
v 0.098074 0.033199 -0.037638
v 0.031015 0.050435 -0.030406
v 0.062425 0.053836 -0.024787
v 0.016375 0.053022 -0.026399
v 0.034673 0.055943 -0.011626
v 0.050539 0.055703 -0.011654
v 0.029296 0.056154 -0.007255
v 0.065983 0.069485 -0.005960
v 0.098461 0.022292 -0.038266
v 0.101313 0.016331 -0.034776
v 0.077452 0.049175 -0.018178
v 0.142782 0.164914 0.005945
v 0.128260 0.179682 0.005461
v 0.067022 0.093927 -0.003640
v 0.027936 0.056121 0.002896
v 0.033510 0.055277 0.013681
v 0.059248 0.087685 0.018791
v 0.064210 0.099205 0.013685
v 0.059571 0.053810 0.010580
v 0.112161 0.124409 0.017420
v 0.058341 0.054901 -0.004178
v 0.082510 0.092236 0.021354
v 0.036406 0.044376 0.029240
v 0.050208 0.008616 0.035195
v 0.016149 0.036823 0.036651
v 0.041821 0.025798 0.035248
v 0.047492 0.053800 0.016380
v 0.057714 0.034901 0.029954
v 0.054571 0.043683 0.026616
v 0.073716 0.012937 0.028400
v 0.098397 0.035469 0.005333
v 0.087675 0.044877 0.005189
v 0.100434 0.022030 0.013045
v 0.085672 0.031429 0.022745
v 0.072751 0.046202 0.020296
v 0.118479 0.132011 0.008413
v 0.116068 0.159232 0.017563
v 0.087702 0.126430 0.004966
v 0.131257 0.176630 -0.000363
v 0.145100 0.166418 0.008466
v 0.138282 0.170737 -0.002072
v 0.142665 0.168715 0.016638
v 0.142585 0.168921 0.015607
v 0.136021 0.174264 0.016902
v 0.096071 0.120966 0.022186
v 0.110800 0.134900 0.021652
v 0.035602 -0.037380 -0.024095
v 0.019582 -0.031955 -0.030197
v 0.026377 -0.026640 -0.045298
v 0.031963 -0.041063 -0.038288
v 0.033109 -0.026782 -0.021574
v 0.041565 -0.031742 -0.030447
v 0.034642 -0.025931 -0.044705
v 0.065828 -0.047547 -0.045000
v 0.047451 -0.008592 -0.080065
v 0.030359 -0.020882 -0.030895
v 0.031732 -0.021877 -0.038437
v -0.015148 -0.022062 0.043433
v -0.009822 -0.021344 0.024658
v -0.005417 -0.026986 0.022730
v -0.015800 -0.032806 0.022060
v -0.003441 -0.034238 0.041632
v -0.014753 -0.032767 0.045360
v -0.000974 -0.029344 0.025269
v -0.014411 -0.019300 0.033096
v -0.003609 -0.023366 0.041212
v 0.030597 -0.030701 -0.021422
v 0.054587 -0.034940 0.018614
v 0.048952 0.028202 -0.071328
v 0.030466 0.019946 -0.036801
v 0.037809 0.023840 -0.039196
v 0.027814 0.034743 -0.047289
v 0.021806 0.028100 -0.026242
v 0.026010 0.038980 -0.031002
v 0.031865 0.034533 -0.021225
v 0.032296 0.026127 -0.022179
v 0.030934 0.041047 -0.036353
v 0.040128 0.032084 -0.030969
v 0.054748 0.043998 -0.010456
v -0.013001 0.027461 0.018918
v -0.017232 0.019781 0.036632
v -0.012400 0.024522 0.046414
v -0.000118 0.029660 0.028983
v -0.001918 0.025581 0.041137
v -0.010933 0.039548 0.034130
v -0.009843 0.032263 0.046173
v 0.037602 0.025187 0.005399
v 0.048321 0.004861 0.033515
v 0.030597 0.030701 -0.021422
v 0.055858 -0.044783 -0.009601
v 0.076351 -0.027040 -0.083455
v 0.099527 -0.034523 -0.050756
v 0.120536 -0.023850 -0.059132
v 0.118621 -0.010000 -0.065005
v 0.122621 -0.008836 -0.057640
v 0.119179 -0.021243 -0.037433
v 0.122621 -0.023521 -0.048003
v 0.113641 -0.007039 -0.032965
v 0.118621 -0.015000 -0.033310
v 0.119421 -0.005057 -0.044607
v 0.122621 -0.009187 -0.040986
v 0.122621 -0.012373 -0.038606
v 0.076040 -0.048374 -0.010384
v 0.091445 -0.035781 0.005207
v 0.103131 -0.031863 -0.010835
v 0.100486 -0.033081 0.013921
v 0.094472 -0.027511 0.013420
v 0.107928 -0.030802 -0.002802
v 0.103801 -0.020566 0.006912
v 0.126621 -0.014464 0.002019
v 0.080496 -0.024112 0.034462
v 0.099697 -0.022385 0.010764
v 0.103053 -0.013794 0.018061
v 0.118121 -0.011334 0.008704
v 0.078410 0.010788 -0.088552
v 0.059684 0.043522 -0.042160
v 0.049941 0.045677 -0.034584
v 0.077667 0.048208 -0.037196
v 0.076522 0.048049 -0.013008
v 0.084746 0.037218 -0.067082
v 0.100395 0.020568 -0.064727
v 0.107931 -0.000212 -0.060913
v 0.119901 0.024242 -0.058571
v 0.120067 0.007256 -0.062064
v 0.119042 0.009982 -0.036021
v 0.122621 0.010982 -0.039269
v 0.112107 0.010113 -0.031834
v 0.118121 -0.010998 -0.025328
v 0.119712 0.024614 -0.045752
v 0.122621 0.015000 -0.038043
v 0.122621 0.019675 -0.039536
v 0.118621 0.019420 -0.034780
v 0.103271 0.029323 -0.043652
v 0.072509 0.021703 0.033879
v 0.087638 0.043622 -0.012185
v 0.092846 0.036642 0.002030
v 0.059832 0.031068 0.020130
v 0.070966 0.038595 0.013807
v 0.104685 0.020270 0.004225
v 0.126621 0.003451 -0.026965
v 0.118121 0.012319 0.008500
v 0.126621 0.011763 0.004260
v 0.111271 0.018176 -0.029406
v 0.118121 0.010135 -0.026051
v 0.104493 -0.011215 0.014070
v 0.094284 0.016068 0.026595
v 0.102294 0.016206 0.014880
v 0.102911 0.028833 -0.009256
v 0.097536 0.035012 -0.007539
v 0.092242 0.032208 0.010162
v 0.108573 0.030913 0.003865
v 0.099168 0.034490 0.010976
v 0.100692 0.035621 0.007766
v 0.096902 0.025365 0.014234
v -0.077108 -0.026764 0.010327
v -0.079899 0.029547 0.021066
v -0.066260 -0.003763 0.027634
v -0.080812 -0.030879 0.019262
v -0.068009 -0.041374 0.018169
v -0.055486 0.012454 0.005394
v -0.059252 0.038654 0.008373
v -0.033677 0.053554 0.026021
v -0.049809 -0.009183 0.030582
v -0.051405 -0.023938 0.029949
v -0.040643 -0.042450 0.029233
v -0.050571 -0.000774 0.004781
v -0.045464 0.047094 0.009260
v -0.044889 0.021646 0.031159
v -0.051592 -0.042748 0.026330
v -0.027821 -0.047503 0.006827
v -0.026926 -0.034024 0.003492
v -0.038339 0.045610 0.004907
v -0.025371 -0.020717 0.032415
v -0.027420 -0.025712 0.031757
v -0.019181 -0.031269 0.031425
v -0.022135 -0.011930 0.003054
v -0.011411 0.037052 0.004655
v -0.022755 0.018675 0.032128
v -0.011810 -0.007549 0.003454
v -0.020365 0.047738 0.029306
v -0.013469 0.025920 0.003463
v -0.002976 -0.026189 0.030719
v 0.004684 -0.045540 0.010055
v -0.000745 -0.033926 0.005263
v -0.004808 0.050822 0.024235
v 0.008811 0.039758 0.027141
v -0.000447 0.022151 0.030712
v 0.002005 -0.006917 0.030451
v -0.001327 -0.011685 0.030780
v 0.008472 -0.002970 0.005604
v -0.018339 -0.058439 0.020767
v 0.009662 0.046206 0.011118
v 0.016459 -0.012764 0.028259
v -0.010720 -0.048514 0.028702
v 0.020710 -0.039013 0.010870
v 0.016097 0.007109 0.006938
v 0.020842 0.032179 0.008863
v 0.036849 0.029309 0.021013
v 0.018363 0.024656 0.027284
v 0.021993 -0.019246 0.008210
v 0.042207 0.025799 0.021218
v 0.036221 0.009975 0.024347
v 0.041975 0.002716 0.023383
v 0.029917 -0.026986 0.024407
v 0.029220 -0.025669 0.010562
v 0.042264 0.007497 0.012373
v 0.042556 -0.018248 0.021730
v 0.043178 -0.024618 0.014952
v 0.037870 0.018946 0.011876
v 0.042414 0.019394 0.013211
v 0.044271 0.007392 0.021003
v -0.079683 0.000000 0.017637
v 0.138645 -0.166252 -0.000053
v 0.131903 -0.166286 -0.045634
v 0.137952 -0.164720 -0.010927
v 0.122691 0.158049 -0.068357
v 0.121455 0.154865 -0.066281
v 0.126531 0.154032 -0.068138
v 0.126454 0.157836 -0.047252
v 0.128214 0.159967 -0.037764
v 0.130709 0.160409 -0.031171
v 0.128135 0.160851 -0.038168
v 0.129974 0.162098 -0.028277
v 0.130486 0.171604 -0.015658
v 0.142654 0.178870 -0.045651
v 0.131632 0.173719 -0.004142
v 0.134035 0.177792 -0.003829
v 0.131243 0.172529 -0.000234
v 0.131639 0.173697 -0.004153
v 0.132613 0.175250 -0.003032
v 0.132751 0.175487 -0.002865
v 0.132773 0.175472 -0.002864
v 0.133083 0.175903 -0.002538
v 0.139715 0.166267 -0.001687
v 0.151803 -0.188935 -0.068174
v 0.139312 -0.175223 -0.004325
v 0.140216 -0.166850 -0.004153
v 0.141515 -0.168144 -0.003032
v 0.140239 -0.166848 -0.004142
v 0.141696 -0.168349 -0.002864
v 0.141715 -0.168331 -0.002865
v 0.142047 -0.168747 -0.002538
v 0.143722 0.172822 0.000043
v 0.141784 0.168268 -0.002720
v 0.143493 0.170978 -0.004162
v 0.143499 0.170932 -0.004142
v 0.142047 0.168747 -0.002538
v 0.142358 0.169178 -0.002864
v 0.142380 0.169164 -0.002865
v 0.142518 0.169401 -0.003032
v -0.151456 -0.160322 0.008791
v -0.122779 -0.156160 0.013159
v -0.118657 -0.178512 0.011030
v -0.126585 -0.166276 0.008360
v -0.160510 -0.178863 0.014135
v -0.141439 -0.194431 0.013351
v -0.156463 -0.156290 0.031750
v -0.128275 -0.193564 0.033608
v -0.116052 -0.185287 0.023433
v -0.157714 -0.183144 0.035262
v -0.134123 -0.151051 0.035925
v -0.143989 -0.181143 0.036990
v -0.130679 -0.179598 0.036982
v -0.134710 -0.162725 0.036982
v -0.120876 -0.167938 0.036234
v -0.130187 -0.166134 0.036977
v -0.118045 -0.160904 0.033786
v -0.117861 -0.179258 0.034723
v -0.128059 0.151059 0.012852
v -0.159145 0.166485 0.011089
v -0.118249 0.187339 0.014536
v -0.161354 0.179370 0.034332
v -0.140688 0.197014 0.013801
v -0.136708 0.147956 0.033623
v -0.119199 0.157952 0.030720
v -0.143891 0.194341 0.035834
v -0.136955 0.162543 0.036979
v -0.115054 0.172850 0.035107
v -0.144470 0.175996 0.037374
v -0.125773 0.186379 0.035546
v -0.123690 0.182812 0.036212
v -0.118500 0.183333 0.031824
v 0.128097 -0.194209 0.013511
v 0.123100 -0.158322 0.009684
v 0.152930 -0.182608 0.010883
v 0.156843 -0.161417 0.013054
v 0.116009 -0.161917 0.033169
v 0.135291 -0.195941 0.033321
v 0.137738 -0.148810 0.030431
v 0.155836 -0.186255 0.033637
v 0.159586 -0.178736 0.032187
v 0.120039 -0.183885 0.035957
v 0.136097 -0.154843 0.036308
v 0.152845 -0.178518 0.036548
v 0.143386 -0.164440 0.036979
v 0.146772 -0.169203 0.036978
v 0.156488 -0.159350 0.033765
v 0.117484 0.184369 0.010892
v 0.132239 0.149662 0.012221
v 0.163738 0.178015 0.016791
v 0.146893 0.188977 0.009381
v 0.134782 0.149589 0.035708
v 0.147375 0.192242 0.033404
v 0.117598 0.167750 0.035382
v 0.124483 0.192346 0.035654
v 0.154952 0.158586 0.034772
v 0.155921 0.173671 0.035550
v 0.155297 0.181870 0.034761
v -0.034677 -0.031882 0.019316
v -0.034677 -0.031882 0.024355
v -0.034677 0.031882 0.019316
v -0.034677 0.031882 0.024355
v 0.042836 -0.031882 0.019316
v 0.042836 -0.031882 0.024355
v 0.042836 0.031882 0.019316
v 0.042836 0.031882 0.024355
v 0.092085 0.046811 0.048677
v 0.091969 0.046869 0.048661
v 0.091802 0.046953 0.048656
v 0.091636 0.047036 0.048648
v 0.091469 0.047120 0.048636
v 0.090620 0.047545 0.048564
v 0.090661 0.047524 0.048541
v 0.099955 0.050129 0.049478
v 0.099559 0.050327 0.049437
v 0.098981 0.050616 0.049413
v 0.104132 0.056926 0.049968
v 0.098403 0.050906 0.049378
v 0.097551 0.051333 0.049305
v 0.110735 0.084269 0.051151
v 0.107239 0.079982 0.049232
v 0.090441 0.047709 0.048981
v 0.139614 0.146483 0.052806
v 0.089108 0.048300 0.048244
v 0.102667 0.090405 0.046628
v 0.106184 0.102911 0.046417
v 0.088469 0.050881 0.048074
v 0.104933 0.083505 0.049545
v 0.124480 0.150501 0.046165
v 0.130923 0.163361 0.047912
v 0.134294 0.132421 0.055026
v 0.142446 0.159501 0.051018
v 0.143468 0.126567 0.056405
v 0.144893 0.127898 0.056802
v 0.135305 0.141333 0.053809
v 0.142387 0.170272 0.061666
v 0.120333 0.152370 0.045432
v 0.127107 0.141828 0.051655
v 0.131821 0.161491 0.050128
v 0.150669 0.167993 0.053030
v 0.145745 0.178610 0.047235
v 0.143420 0.179774 0.047649
v 0.144586 0.181510 0.049339
v 0.142702 0.180133 0.047913
v 0.141986 0.180492 0.048183
v 0.141485 0.180743 0.048372
v 0.126977 0.180346 0.052986
v 0.140166 0.183403 0.048984
v 0.136333 0.183949 0.050672
v 0.129307 0.191356 0.053317
v 0.153082 0.187925 0.045408
v 0.180935 0.282158 0.047731
v 0.186340 0.296180 0.048203
v 0.184432 0.297140 0.048563
v 0.171418 0.253634 0.046441
v 0.184511 0.297106 0.048564
v 0.183662 0.297531 0.048636
v 0.183495 0.297614 0.048648
v 0.183329 0.297698 0.048656
v 0.183162 0.297781 0.048661
v 0.183046 0.297839 0.048672
v 0.176500 0.286571 0.049897
v 0.186405 0.294226 0.048393
v 0.183302 0.297671 0.048940
v 0.174802 0.288332 0.049483
v 0.176728 0.293745 0.049378
v 0.161198 0.261527 0.050952
v 0.174983 0.294365 0.049412
v 0.176150 0.294034 0.049413
v 0.175572 0.294324 0.049437
v 0.175176 0.294522 0.049478
v 0.142700 0.211940 0.054670
v 0.135238 0.222458 0.055765
v 0.156570 0.262194 0.052301
v -0.044883 0.076261 0.048661
v -0.044765 0.076405 0.048656
v -0.044647 0.076549 0.048648
v -0.044966 0.076161 0.048677
v -0.044529 0.076693 0.048636
v -0.043937 0.077413 0.048538
v -0.043926 0.077427 0.048564
v -0.053505 0.075991 0.049478
v -0.053224 0.076333 0.049437
v -0.052813 0.076832 0.049413
v -0.053208 0.078557 0.049461
v -0.065533 0.086185 0.050533
v -0.052403 0.077332 0.049378
v -0.048929 0.081326 0.049432
v -0.125647 0.128935 0.056567
v -0.043322 0.078269 0.049081
v -0.042074 0.079783 0.048117
v -0.077888 0.114785 0.046804
v -0.104502 0.134889 0.048960
v -0.074912 0.114102 0.046740
v -0.084535 0.113399 0.050949
v -0.118009 0.134145 0.053532
v -0.134850 0.152186 0.051741
v -0.104913 0.147374 0.045201
v -0.112157 0.152999 0.049187
v -0.130235 0.164287 0.048699
v -0.129474 0.164058 0.050626
v -0.069144 0.089143 0.050574
v -0.121306 0.133327 0.054571
v -0.116044 0.130544 0.055344
v -0.118002 0.139385 0.054528
v -0.130893 0.139276 0.054480
v -0.128798 0.154724 0.052074
v -0.115558 0.140990 0.053606
v -0.108053 0.155276 0.044890
v -0.129260 0.167814 0.047684
v -0.125985 0.168466 0.048197
v -0.132898 0.161379 0.052647
v -0.150241 0.174336 0.047742
v -0.145388 0.177425 0.047937
v -0.171395 0.194338 0.044799
v -0.144396 0.181861 0.054028
v -0.144320 0.180925 0.048992
v -0.129935 0.184324 0.048794
v -0.208486 0.245254 0.048095
v -0.140870 0.183042 0.049840
v -0.157823 0.204015 0.051529
v -0.139169 0.185284 0.050791
v -0.193265 0.230516 0.050054
v -0.232252 0.265950 0.048218
v -0.231205 0.267223 0.048564
v -0.231292 0.267117 0.048517
v -0.230602 0.267957 0.048636
v -0.230484 0.268101 0.048648
v -0.230366 0.268245 0.048656
v -0.230247 0.268389 0.048661
v -0.227624 0.270507 0.049199
v -0.192209 0.239102 0.050696
v -0.197265 0.252662 0.051670
v -0.217024 0.259465 0.049329
v -0.230744 0.261977 0.047988
v -0.231157 0.267235 0.048913
v -0.222728 0.267319 0.049378
v -0.222318 0.267818 0.049413
v -0.221907 0.268318 0.049437
v -0.221626 0.268660 0.049478
v -0.219185 0.266080 0.049625
v -0.175212 0.226425 0.053590
v -0.149112 0.215546 0.056772
v -0.158271 0.212814 0.055355
v -0.168183 0.225334 0.053773
v -0.092085 -0.046811 0.048677
v -0.091969 -0.046869 0.048661
v -0.091802 -0.046953 0.048656
v -0.091636 -0.047036 0.048648
v -0.091469 -0.047120 0.048636
v -0.089808 -0.047999 0.048912
v -0.090620 -0.047545 0.048564
v -0.090661 -0.047524 0.048541
v -0.099955 -0.050129 0.049478
v -0.099559 -0.050327 0.049437
v -0.098981 -0.050616 0.049413
v -0.108262 -0.063600 0.050500
v -0.098403 -0.050906 0.049378
v -0.097551 -0.051333 0.049305
v -0.100390 -0.050409 0.049484
v -0.107510 -0.078470 0.050721
v -0.110189 -0.080314 0.050077
v -0.097603 -0.051104 0.049631
v -0.139614 -0.146483 0.052806
v -0.089108 -0.048300 0.048244
v -0.102667 -0.090405 0.046628
v -0.107345 -0.081226 0.049110
v -0.108280 -0.108465 0.045788
v -0.122104 -0.139442 0.049594
v -0.088469 -0.050881 0.048074
v -0.104933 -0.083505 0.049545
v -0.122236 -0.118181 0.052170
v -0.131566 -0.150372 0.049152
v -0.117694 -0.136102 0.045147
v -0.135051 -0.161686 0.049068
v -0.132078 -0.153132 0.051226
v -0.138852 -0.161175 0.050012
v -0.142446 -0.159501 0.051018
v -0.134910 -0.131803 0.055187
v -0.127829 -0.097339 0.053796
v -0.144754 -0.127891 0.056782
v -0.140992 -0.128429 0.055589
v -0.144844 -0.141384 0.054105
v -0.135305 -0.141333 0.053809
v -0.138282 -0.165184 0.060472
v -0.120333 -0.152370 0.045432
v -0.132429 -0.164517 0.047913
v -0.127107 -0.141828 0.051655
v -0.130352 -0.161948 0.051124
v -0.145277 -0.162314 0.050310
v -0.154714 -0.191244 0.045136
v -0.145745 -0.178610 0.047235
v -0.143420 -0.179774 0.047649
v -0.144586 -0.181510 0.049339
v -0.142702 -0.180133 0.047913
v -0.141986 -0.180492 0.048183
v -0.148754 -0.175838 0.054198
v -0.141387 -0.177771 0.060415
v -0.129368 -0.165189 0.047793
v -0.141485 -0.180743 0.048372
v -0.126977 -0.180346 0.052986
v -0.167144 -0.236227 0.045831
v -0.140166 -0.183403 0.048984
v -0.136904 -0.183921 0.050462
v -0.135153 -0.183975 0.050845
v -0.131633 -0.186049 0.050931
v -0.138890 -0.204333 0.052251
v -0.178162 -0.272449 0.047480
v -0.185835 -0.291262 0.048055
v -0.186340 -0.296180 0.048203
v -0.184428 -0.297142 0.048565
v -0.176865 -0.287903 0.049919
v -0.150215 -0.231105 0.051577
v -0.184511 -0.297106 0.048564
v -0.183828 -0.297448 0.048621
v -0.183662 -0.297531 0.048636
v -0.183495 -0.297614 0.048648
v -0.183329 -0.297698 0.048656
v -0.183162 -0.297781 0.048661
v -0.183046 -0.297839 0.048672
v -0.161824 -0.265469 0.051761
v -0.171498 -0.282216 0.050315
v -0.176181 -0.281400 0.048786
v -0.182012 -0.291226 0.049301
v -0.174402 -0.287558 0.049505
v -0.183302 -0.297671 0.048940
v -0.177305 -0.293456 0.049330
v -0.176728 -0.293745 0.049378
v -0.161198 -0.261527 0.050952
v -0.174983 -0.294365 0.049412
v -0.176150 -0.294034 0.049413
v -0.175572 -0.294324 0.049437
v -0.175176 -0.294522 0.049478
v -0.146111 -0.210417 0.053383
v -0.130438 -0.216453 0.056741
v -0.137358 -0.214619 0.055806
v -0.136124 -0.222175 0.055467
v -0.147666 -0.248502 0.053728
v -0.163816 -0.277649 0.050923
v 0.044883 -0.076261 0.048661
v 0.044765 -0.076405 0.048656
v 0.044647 -0.076549 0.048648
v 0.044966 -0.076161 0.048677
v 0.044529 -0.076693 0.048636
v 0.043937 -0.077413 0.048538
v 0.043926 -0.077427 0.048564
v 0.053505 -0.075991 0.049478
v 0.053224 -0.076333 0.049437
v 0.052813 -0.076832 0.049413
v 0.053629 -0.078904 0.049500
v 0.065533 -0.086185 0.050533
v 0.052403 -0.077332 0.049378
v 0.048929 -0.081326 0.049432
v 0.054704 -0.080893 0.049369
v 0.060291 -0.089279 0.049044
v 0.125647 -0.128935 0.056567
v 0.049926 -0.087966 0.047825
v 0.043322 -0.078269 0.049081
v 0.042074 -0.079783 0.048117
v 0.075775 -0.112699 0.046843
v 0.104502 -0.134889 0.048960
v 0.078084 -0.118050 0.046434
v 0.076707 -0.104160 0.050894
v 0.118009 -0.134145 0.053532
v 0.134850 -0.152186 0.051741
v 0.104913 -0.147374 0.045201
v 0.112157 -0.152999 0.049187
v 0.129636 -0.167342 0.047854
v 0.101444 -0.127694 0.050190
v 0.090354 -0.121119 0.050800
v 0.129474 -0.164058 0.050626
v 0.129879 -0.163945 0.048687
v 0.079468 -0.094945 0.051785
v 0.121306 -0.133327 0.054571
v 0.116044 -0.130544 0.055344
v 0.118002 -0.139385 0.054528
v 0.130893 -0.139276 0.054480
v 0.135781 -0.160500 0.050280
v 0.128798 -0.154724 0.052074
v 0.115558 -0.140990 0.053606
v 0.108053 -0.155276 0.044890
v 0.129260 -0.167814 0.047684
v 0.125985 -0.168466 0.048197
v 0.133299 -0.165427 0.061664
v 0.160567 -0.190956 0.049822
v 0.150307 -0.174092 0.047871
v 0.145388 -0.177425 0.047937
v 0.194417 -0.224107 0.046763
v 0.145139 -0.181243 0.051332
v 0.144665 -0.177585 0.060949
v 0.144570 -0.178421 0.048372
v 0.145615 -0.180419 0.048545
v 0.129935 -0.184324 0.048794
v 0.173231 -0.194710 0.044101
v 0.202412 -0.237414 0.047540
v 0.178586 -0.218681 0.049115
v 0.140870 -0.183042 0.049840
v 0.157706 -0.202664 0.051239
v 0.139169 -0.185284 0.050791
v 0.174945 -0.227462 0.052499
v 0.213792 -0.246955 0.048476
v 0.232252 -0.265950 0.048218
v 0.231103 -0.267332 0.048861
v 0.192900 -0.233766 0.050794
v 0.231205 -0.267223 0.048564
v 0.231363 -0.267031 0.048494
v 0.230720 -0.267814 0.048621
v 0.230602 -0.267957 0.048636
v 0.230484 -0.268101 0.048648
v 0.230366 -0.268245 0.048656
v 0.230247 -0.268389 0.048661
v 0.230165 -0.268489 0.048672
v 0.192209 -0.239102 0.050696
v 0.203767 -0.246491 0.049533
v 0.182411 -0.241530 0.053254
v 0.199465 -0.254100 0.051413
v 0.216767 -0.257352 0.049050
v 0.230744 -0.261977 0.047988
v 0.216441 -0.260771 0.049514
v 0.225497 -0.264110 0.049587
v 0.223137 -0.266820 0.049330
v 0.222728 -0.267319 0.049378
v 0.222277 -0.266840 0.049699
v 0.222318 -0.267818 0.049413
v 0.221907 -0.268318 0.049437
v 0.221626 -0.268660 0.049478
v 0.219095 -0.266014 0.049632
v 0.175212 -0.226425 0.053590
v 0.147106 -0.212044 0.056005
v 0.149208 -0.215415 0.056750
v 0.158271 -0.212814 0.055355
v 0.164061 -0.223230 0.054401
g target
f 2 3 1
f 1 6 2
f 4 1 3
f 4 6 1
f 5 3 2
f 2 6 5
f 5 4 3
f 6 4 5
f 8 9 7
f 7 10 8
f 9 10 7
f 10 9 8
f 12 14 54
f 12 13 16
f 15 12 17
f 16 17 12
f 15 14 12
f 15 22 14
f 22 15 26
f 14 22 43
f 15 24 26
f 15 48 24
f 14 39 54
f 14 40 39
f 40 41 39
f 39 49 69
f 39 124 49
f 43 40 14
f 43 51 40
f 40 51 41
f 39 41 124
f 124 50 49
f 41 51 117
f 117 124 41
f 49 50 93
f 12 54 13
f 54 67 13
f 13 53 16
f 13 58 53
f 16 53 17
f 17 53 57
f 53 59 57
f 18 17 59
f 17 57 59
f 53 58 59
f 59 58 159
f 58 163 159
f 58 64 163
f 13 67 58
f 58 65 64
f 58 67 65
f 67 66 65
f 54 69 67
f 54 39 69
f 69 70 67
f 67 85 66
f 67 86 85
f 63 91 64
f 63 94 91
f 69 92 70
f 69 49 92
f 49 93 92
f 70 92 95
f 86 67 94
f 67 70 94
f 94 70 95
f 96 95 92
f 96 184 95
f 95 97 94
f 97 91 94
f 97 95 184
f 104 15 101
f 18 19 100
f 18 100 17
f 15 17 100
f 15 100 101
f 100 19 101
f 19 102 101
f 101 102 103
f 15 104 48
f 101 105 104
f 105 101 107
f 101 106 107
f 101 103 111
f 112 111 153
f 101 111 106
f 111 113 106
f 111 112 113
f 113 112 151
f 112 153 151
f 104 51 48
f 104 117 51
f 50 124 125
f 124 130 125
f 125 52 50
f 93 50 52
f 52 125 127
f 52 127 129
f 117 123 124
f 123 130 124
f 131 130 155
f 128 155 130
f 183 131 189
f 130 131 125
f 52 129 126
f 126 129 131
f 131 132 126
f 131 127 125
f 131 129 127
f 132 131 183
f 113 151 123
f 123 151 150
f 123 150 130
f 130 150 151
f 151 152 155
f 153 152 151
f 153 154 156
f 151 128 130
f 151 155 128
f 155 152 131
f 131 156 189
f 131 152 153
f 131 153 156
f 59 159 157
f 59 157 18
f 159 163 161
f 19 18 102
f 18 157 102
f 159 161 157
f 102 158 103
f 103 158 111
f 102 157 158
f 157 160 158
f 157 161 162
f 157 162 160
f 161 163 162
f 163 164 162
f 163 64 164
f 162 164 165
f 164 64 166
f 162 165 180
f 111 158 168
f 158 160 168
f 111 168 169
f 111 169 153
f 169 168 153
f 168 160 153
f 153 160 190
f 162 170 160
f 170 162 190
f 170 190 160
f 162 191 190
f 91 175 64
f 166 64 174
f 64 175 174
f 162 180 178
f 162 178 194
f 191 162 194
f 186 194 178
f 52 126 93
f 93 126 92
f 92 126 96
f 96 183 184
f 126 183 96
f 184 183 185
f 97 184 91
f 91 186 175
f 184 182 91
f 91 182 186
f 184 188 182
f 184 187 188
f 194 187 193
f 188 187 194
f 183 126 132
f 184 193 187
f 184 185 193
f 183 189 185
f 193 185 189
f 186 182 188
f 186 188 194
f 153 190 192
f 190 191 194
f 153 192 154
f 192 193 154
f 190 194 192
f 156 154 189
f 192 194 193
f 189 154 193
f 165 164 173
f 173 167 165
f 166 173 164
f 167 180 165
f 167 173 171
f 173 166 174
f 174 175 176
f 173 174 177
f 178 180 179
f 179 181 178
f 173 177 197
f 176 175 186
f 174 176 177
f 181 186 178
f 186 181 176
f 177 176 196
f 180 167 179
f 171 195 167
f 167 195 179
f 173 197 200
f 177 196 197
f 197 198 200
f 171 199 195
f 173 200 171
f 198 172 200
f 200 172 171
f 171 172 199
f 197 196 198
f 179 201 205
f 205 201 196
f 198 196 172
f 196 201 203
f 196 203 172
f 195 199 179
f 201 179 202
f 179 199 202
f 172 202 199
f 172 201 202
f 172 203 201
f 181 204 176
f 176 204 196
f 181 179 204
f 179 205 204
f 204 205 196
f 80 82 64
f 80 60 65
f 60 80 64
f 65 60 64
f 62 63 64
f 61 62 64
f 61 64 82
f 65 66 79
f 55 81 56
f 56 81 80
f 81 55 74
f 55 56 71
f 79 72 55
f 79 55 71
f 55 72 75
f 81 74 82
f 75 73 55
f 73 74 55
f 74 83 76
f 73 83 74
f 74 78 82
f 76 77 74
f 80 65 71
f 80 71 56
f 65 79 71
f 80 81 82
f 79 68 75
f 72 79 75
f 68 73 75
f 66 68 79
f 98 82 78
f 77 76 78
f 77 78 74
f 84 78 76
f 76 83 84
f 68 87 73
f 83 87 84
f 73 87 83
f 62 61 90
f 68 85 86
f 66 85 68
f 86 94 68
f 94 87 68
f 88 89 94
f 94 89 87
f 88 87 89
f 88 99 87
f 62 90 63
f 99 63 90
f 99 88 63
f 88 94 63
f 98 61 82
f 98 84 90
f 61 98 90
f 78 84 98
f 90 84 99
f 87 99 84
f 34 20 25
f 34 25 35
f 26 20 21
f 25 20 23
f 21 22 26
f 20 26 23
f 25 23 26
f 25 26 24
f 25 24 48
f 11 28 27
f 27 28 31
f 27 31 30
f 28 33 31
f 30 31 32
f 32 37 30
f 28 11 29
f 28 29 33
f 27 34 11
f 27 30 34
f 34 30 36
f 30 42 36
f 11 34 35
f 20 36 42
f 34 36 20
f 11 35 29
f 30 37 42
f 29 47 33
f 32 38 37
f 31 38 32
f 31 33 38
f 38 33 45
f 38 45 37
f 42 21 20
f 42 37 44
f 21 42 22
f 42 43 22
f 43 42 44
f 35 25 47
f 35 47 29
f 44 37 43
f 37 45 43
f 47 45 33
f 46 45 51
f 46 51 43
f 45 46 43
f 47 51 45
f 25 48 47
f 47 48 51
f 105 119 104
f 107 133 105
f 108 133 106
f 133 119 105
f 133 107 106
f 108 106 113
f 108 109 133
f 133 115 119
f 133 114 115
f 119 115 121
f 104 116 118
f 118 117 104
f 118 116 117
f 116 122 117
f 116 119 121
f 104 119 116
f 120 113 123
f 116 121 122
f 117 120 123
f 136 122 121
f 117 122 120
f 138 139 133
f 133 139 114
f 115 114 121
f 109 138 133
f 109 108 138
f 121 114 135
f 121 135 136
f 138 110 139
f 110 141 139
f 110 144 141
f 138 140 110
f 110 140 144
f 114 139 135
f 144 137 141
f 135 143 136
f 143 146 136
f 146 143 145
f 141 135 139
f 141 143 135
f 141 142 143
f 145 143 142
f 141 145 142
f 134 138 108
f 138 134 140
f 134 149 140
f 149 144 140
f 141 137 145
f 149 137 144
f 122 147 148
f 136 147 122
f 136 148 147
f 122 148 137
f 136 146 145
f 136 145 148
f 148 145 137
f 108 113 134
f 113 120 149
f 134 113 149
f 149 120 137
f 122 137 120
f 213 262 249
f 276 238 278
f 276 278 277
f 213 249 216
f 214 216 228
f 249 227 216
f 216 247 246
f 216 227 247
f 216 276 228
f 216 246 276
f 238 276 246
f 247 296 246
f 216 214 250
f 216 250 213
f 250 251 213
f 213 251 262
f 214 274 250
f 251 250 281
f 251 257 268
f 249 262 227
f 227 262 270
f 262 266 270
f 227 270 247
f 270 272 305
f 262 251 263
f 251 264 263
f 262 263 266
f 251 268 264
f 268 270 271
f 268 304 270
f 266 271 270
f 214 228 274
f 228 279 274
f 228 276 275
f 228 275 277
f 275 276 277
f 228 277 279
f 279 277 278
f 274 279 250
f 250 279 280
f 281 250 280
f 257 281 286
f 279 292 280
f 279 278 292
f 292 278 294
f 270 305 247
f 247 305 293
f 238 297 278
f 246 297 238
f 278 295 294
f 247 293 296
f 296 297 246
f 293 297 296
f 305 309 293
f 293 309 295
f 297 293 295
f 278 297 295
f 302 298 306
f 306 298 305
f 302 308 307
f 298 302 307
f 292 308 302
f 292 294 308
f 294 295 308
f 309 305 313
f 305 298 313
f 257 287 268
f 287 257 286
f 287 286 303
f 287 273 268
f 268 273 304
f 273 300 304
f 286 302 303
f 303 302 300
f 302 306 300
f 300 306 304
f 287 299 269
f 287 269 273
f 287 303 299
f 269 299 301
f 299 303 301
f 273 301 300
f 273 269 301
f 303 300 301
f 251 252 255
f 251 281 253
f 251 253 252
f 281 257 253
f 251 255 257
f 257 255 258
f 255 257 258
f 257 259 253
f 259 257 255
f 253 254 252
f 252 256 255
f 256 252 255
f 252 261 255
f 254 253 259
f 254 259 252
f 260 255 261
f 259 255 260
f 252 259 260
f 252 260 261
f 281 280 283
f 280 292 282
f 280 282 283
f 281 283 286
f 286 283 284
f 286 291 302
f 286 284 291
f 292 302 288
f 292 288 282
f 302 291 288
f 284 283 285
f 285 283 289
f 283 290 289
f 282 288 283
f 291 284 290
f 291 290 288
f 283 288 290
f 284 285 289
f 284 289 290
f 272 270 304
f 272 304 306
f 306 305 272
f 263 264 265
f 264 267 265
f 265 267 268
f 263 265 266
f 268 271 265
f 264 268 267
f 265 271 266
f 313 298 310
f 307 310 298
f 308 310 307
f 309 311 295
f 308 295 310
f 311 312 295
f 295 312 310
f 311 310 312
f 313 311 309
f 310 311 313
f 207 208 209
f 208 212 209
f 209 206 207
f 209 212 211
f 209 211 206
f 210 206 211
f 208 215 212
f 207 215 208
f 207 210 215
f 215 211 212
f 215 210 211
f 206 210 226
f 206 226 207
f 207 226 210
f 230 235 229
f 229 231 230
f 229 232 231
f 229 235 232
f 232 233 231
f 236 231 233
f 232 234 233
f 234 236 233
f 235 230 237
f 235 237 234
f 230 231 237
f 231 236 237
f 236 234 237
f 232 235 248
f 232 248 234
f 235 234 248
f 218 219 220
f 220 219 223
f 220 221 222
f 220 222 217
f 220 223 221
f 221 225 222
f 222 225 217
f 217 224 220
f 224 218 220
f 219 218 223
f 224 217 225
f 218 224 223
f 225 223 224
f 221 223 225
f 239 242 240
f 240 242 243
f 241 240 243
f 244 242 239
f 240 241 245
f 240 244 239
f 240 245 244
f 241 243 245
f 244 243 242
f 245 243 244
f 317 316 315
f 320 319 314
f 315 320 314
f 327 321 315
f 316 327 315
f 322 327 316
f 323 322 316
f 317 323 316
f 324 323 317
f 328 324 317
f 318 328 317
f 314 318 317
f 319 325 314
f 321 326 320
f 315 321 320
f 320 331 319
f 332 327 322
f 323 332 322
f 324 332 323
f 318 324 328
f 314 350 318
f 329 350 314
f 330 329 314
f 325 330 314
f 319 330 325
f 326 331 320
f 327 339 321
f 318 353 324
f 350 353 318
f 319 331 330
f 321 331 326
f 327 337 339
f 332 337 327
f 324 333 332
f 334 333 324
f 353 334 324
f 331 335 330
f 336 340 331
f 333 334 332
f 331 338 335
f 321 351 331
f 339 344 321
f 337 346 339
f 332 346 337
f 334 341 332
f 335 343 330
f 340 338 331
f 351 336 331
f 334 353 341
f 329 342 350
f 330 342 329
f 338 343 335
f 344 351 321
f 345 344 339
f 346 345 339
f 332 347 346
f 348 347 332
f 341 348 332
f 340 349 338
f 341 347 348
f 330 343 342
f 338 349 343
f 336 356 340
f 345 351 344
f 352 362 346
f 347 352 346
f 341 352 347
f 342 354 350
f 354 342 343
f 343 359 354
f 349 359 343
f 340 356 349
f 351 356 336
f 346 358 345
f 353 352 341
f 356 355 349
f 345 357 351
f 358 360 345
f 346 360 358
f 361 360 346
f 362 361 346
f 353 362 352
f 363 362 353
f 350 363 353
f 359 364 354
f 355 365 349
f 356 365 355
f 351 369 356
f 345 360 357
f 354 367 350
f 364 367 354
f 349 365 359
f 369 368 356
f 357 360 351
f 361 370 360
f 363 366 362
f 367 366 363
f 350 367 363
f 359 367 364
f 365 367 359
f 356 368 365
f 351 360 369
f 362 370 361
f 369 365 368
f 317 315 371
f 314 317 371
f 315 314 371
f 370 362 366
f 370 366 367
f 370 367 365
f 370 365 369
f 370 369 360
f 385 388 389
f 385 390 388
f 385 389 390
f 390 386 388
f 390 389 391
f 390 391 392
f 390 392 386
f 386 392 393
f 384 386 402
f 386 393 402
f 402 393 406
f 402 406 407
f 402 407 409
f 402 409 404
f 384 404 403
f 384 402 404
f 375 377 376
f 375 376 387
f 377 380 378
f 377 375 384
f 387 383 375
f 377 378 376
f 376 378 381
f 378 380 379
f 375 383 386
f 378 379 381
f 379 380 382
f 379 382 381
f 381 387 376
f 381 382 387
f 382 380 393
f 382 393 387
f 386 384 375
f 387 388 383
f 383 388 386
f 387 389 388
f 387 391 389
f 387 392 391
f 377 393 380
f 387 393 392
f 377 384 393
f 393 384 403
f 403 406 393
f 405 403 404
f 408 406 403
f 408 407 406
f 408 409 407
f 405 409 408
f 405 408 403
f 405 404 409
f 373 394 395
f 373 395 394
f 398 396 397
f 398 400 396
f 398 397 400
f 400 395 396
f 400 401 395
f 400 397 399
f 400 399 401
f 373 372 374
f 374 395 373
f 373 395 372
f 374 396 395
f 374 372 396
f 372 395 401
f 372 397 396
f 372 399 397
f 372 401 399
f 457 459 458
f 457 460 459
f 459 465 458
f 457 464 460
f 465 461 458
f 464 462 460
f 462 459 460
f 458 463 457
f 461 463 458
f 457 463 464
f 461 464 463
f 466 465 459
f 461 465 464
f 467 466 459
f 462 467 459
f 462 464 467
f 466 464 465
f 467 464 466
f 429 430 428
f 429 432 430
f 429 431 432
f 430 437 428
f 434 433 428
f 437 434 428
f 429 433 431
f 428 433 429
f 432 435 430
f 430 441 437
f 430 440 441
f 438 431 433
f 436 438 433
f 431 435 432
f 431 438 435
f 437 433 434
f 437 436 433
f 438 436 437
f 435 439 430
f 439 440 430
f 438 437 440
f 435 438 439
f 439 438 440
f 441 440 437
f 410 412 415
f 410 411 413
f 410 413 412
f 415 414 410
f 413 411 412
f 414 416 410
f 412 417 415
f 410 420 411
f 415 419 414
f 419 416 414
f 416 420 410
f 418 417 412
f 426 418 412
f 411 426 412
f 417 419 415
f 420 426 411
f 426 427 418
f 418 427 417
f 417 421 419
f 421 420 419
f 419 420 416
f 422 421 417
f 421 422 424
f 427 422 417
f 424 422 427
f 421 423 420
f 421 425 423
f 421 424 425
f 420 423 426
f 425 424 426
f 423 425 426
f 426 424 427
f 443 444 442
f 443 445 444
f 442 446 443
f 444 449 442
f 445 450 444
f 443 448 445
f 447 451 442
f 446 448 443
f 449 447 442
f 450 449 444
f 448 456 445
f 442 451 446
f 445 456 450
f 453 451 447
f 446 452 448
f 451 452 446
f 451 454 452
f 456 453 450
f 449 453 447
f 451 453 455
f 455 453 456
f 450 453 449
f 452 456 448
f 451 455 454
f 452 454 456
f 454 455 456
f 469 471 468
f 472 469 468
f 468 471 470
f 470 472 468
f 469 475 471
f 473 469 472
f 473 475 469
f 471 475 470
f 474 472 470
f 470 475 474
f 474 473 472
f 475 473 474
f 509 508 499
f 509 505 508
f 516 499 508
f 508 505 516
f 509 499 512
f 499 515 512
f 509 512 518
f 509 518 505
f 499 517 515
f 499 516 517
f 516 518 517
f 505 518 516
f 510 520 512
f 520 510 511
f 510 515 511
f 511 513 520
f 510 512 515
f 511 515 513
f 520 513 514
f 513 515 514
f 514 515 517
f 514 517 520
f 520 517 518
f 541 518 512
f 520 541 512
f 520 531 541
f 520 524 531
f 518 519 520
f 521 523 532
f 532 523 522
f 524 521 531
f 522 523 525
f 532 522 533
f 522 525 533
f 525 523 526
f 525 526 527
f 523 521 534
f 525 527 528
f 525 528 529
f 525 529 530
f 525 530 533
f 524 536 521
f 531 543 541
f 524 542 536
f 521 532 531
f 533 531 532
f 523 534 526
f 526 534 535
f 526 535 527
f 527 538 528
f 528 539 529
f 533 530 537
f 529 540 530
f 527 535 538
f 528 538 539
f 529 539 540
f 530 540 537
f 521 536 543
f 534 521 543
f 537 543 531
f 535 534 538
f 534 539 538
f 534 537 539
f 537 540 539
f 531 533 537
f 543 537 534
f 518 541 519
f 524 520 542
f 520 519 542
f 519 541 542
f 543 536 542
f 543 542 541
f 476 481 477
f 477 481 478
f 478 481 479
f 476 491 481
f 479 481 480
f 480 481 482
f 482 481 493
f 481 491 493
f 483 484 486
f 484 485 486
f 485 487 486
f 483 477 484
f 483 486 476
f 484 478 485
f 485 479 487
f 486 491 476
f 484 477 478
f 483 476 477
f 485 478 479
f 479 480 487
f 480 488 487
f 486 488 482
f 486 487 488
f 480 482 488
f 486 482 496
f 490 502 486
f 486 489 491
f 502 489 486
f 482 493 496
f 491 496 493
f 486 496 490
f 496 494 490
f 496 491 494
f 491 497 494
f 489 497 491
f 494 497 495
f 490 494 492
f 494 495 492
f 497 489 495
f 489 507 495
f 492 502 490
f 495 498 492
f 498 508 492
f 501 492 508
f 492 501 508
f 498 499 508
f 500 508 507
f 502 500 489
f 502 503 500
f 492 503 502
f 492 508 503
f 500 507 489
f 503 508 504
f 500 503 504
f 508 500 504
f 495 506 498
f 506 499 498
f 499 495 507
f 506 495 499
f 507 508 499
f 581 587 569
f 570 580 581
f 587 580 569
f 580 587 581
f 581 582 587
f 587 582 586
f 581 585 582
f 587 586 589
f 587 589 585
f 587 585 581
f 584 586 582
f 582 586 583
f 582 583 586
f 586 584 590
f 586 590 589
f 591 585 589
f 582 592 584
f 585 592 582
f 585 591 612
f 601 614 590
f 584 588 590
f 584 604 588
f 584 592 604
f 604 593 595
f 604 595 603
f 604 605 593
f 593 605 594
f 588 601 590
f 593 594 595
f 594 596 595
f 594 597 596
f 594 598 597
f 594 599 598
f 594 600 599
f 594 605 600
f 588 604 603
f 603 601 588
f 603 602 601
f 604 592 605
f 595 596 610
f 592 600 605
f 595 610 603
f 596 606 610
f 596 597 606
f 597 598 607
f 598 599 608
f 599 600 609
f 597 607 606
f 598 608 607
f 599 609 608
f 603 610 602
f 606 607 610
f 610 607 608
f 610 609 600
f 610 608 609
f 589 590 591
f 614 591 590
f 592 585 611
f 592 611 600
f 585 612 613
f 614 612 591
f 613 611 585
f 613 612 611
f 611 612 602
f 614 602 612
f 600 611 610
f 601 602 614
f 610 611 602
f 547 544 550
f 544 545 550
f 545 546 550
f 547 550 559
f 546 548 550
f 548 549 550
f 550 549 560
f 551 554 552
f 552 554 553
f 551 559 554
f 553 554 556
f 551 552 544
f 551 547 559
f 552 553 545
f 553 556 546
f 552 545 544
f 551 544 547
f 553 546 545
f 546 556 548
f 548 556 554
f 548 554 549
f 554 571 549
f 554 555 571
f 559 557 554
f 564 554 557
f 555 554 564
f 561 571 558
f 563 560 549
f 550 560 559
f 549 571 563
f 561 563 571
f 563 559 560
f 561 562 563
f 557 559 563
f 557 563 564
f 561 558 565
f 563 562 567
f 563 568 564
f 565 562 561
f 565 581 562
f 581 576 570
f 562 569 567
f 562 581 569
f 570 574 568
f 576 574 570
f 555 573 571
f 571 573 558
f 555 564 573
f 565 558 572
f 573 574 558
f 572 558 575
f 575 558 581
f 581 575 566
f 566 575 581
f 581 572 575
f 581 558 576
f 565 572 581
f 558 574 576
f 573 564 577
f 573 577 574
f 564 568 577
f 568 574 577
f 567 578 563
f 563 578 568
f 578 567 569
f 569 580 578
f 578 570 568
f 578 580 570
f 580 579 569
f 580 569 579
f 659 644 668
f 659 646 644
f 659 658 646
f 659 654 658
f 670 668 658
f 658 654 670
f 659 668 666
f 666 668 663
f 668 669 663
f 666 663 673
f 659 666 654
f 666 673 667
f 666 667 654
f 668 672 669
f 668 670 672
f 670 673 672
f 654 667 670
f 667 673 670
f 661 660 663
f 660 661 662
f 661 669 662
f 662 664 660
f 661 663 669
f 662 669 664
f 660 664 665
f 664 669 665
f 665 669 672
f 665 672 660
f 660 682 671
f 660 672 673
f 660 673 676
f 660 676 682
f 705 673 663
f 705 674 673
f 674 675 673
f 660 703 663
f 660 681 703
f 660 671 681
f 673 675 676
f 677 671 682
f 677 682 692
f 692 680 677
f 677 680 678
f 678 680 679
f 671 677 681
f 677 678 693
f 678 679 693
f 679 680 683
f 693 679 695
f 679 683 695
f 683 680 684
f 683 684 685
f 683 685 686
f 680 692 694
f 683 686 687
f 683 687 688
f 683 688 689
f 683 689 695
f 682 698 692
f 681 690 703
f 682 706 698
f 677 693 681
f 695 681 693
f 680 694 684
f 684 696 685
f 696 694 697
f 684 694 696
f 685 696 697
f 685 697 686
f 686 700 687
f 687 701 688
f 695 689 699
f 688 702 689
f 686 697 700
f 687 700 701
f 688 701 702
f 689 702 699
f 681 695 691
f 681 691 690
f 692 698 708
f 694 692 708
f 699 708 690
f 699 690 691
f 697 694 700
f 694 701 700
f 694 699 701
f 699 702 701
f 691 695 699
f 708 699 694
f 663 703 705
f 674 705 704
f 674 704 675
f 682 676 706
f 676 675 706
f 706 675 704
f 704 705 706
f 707 706 705
f 690 708 703
f 703 708 705
f 698 706 707
f 708 698 707
f 708 707 705
f 615 621 616
f 616 621 617
f 617 621 618
f 615 620 621
f 618 621 619
f 619 621 622
f 622 621 634
f 621 620 634
f 623 624 629
f 624 625 629
f 625 627 629
f 623 616 624
f 623 629 615
f 624 617 625
f 625 618 627
f 629 632 615
f 624 616 617
f 623 615 616
f 625 617 618
f 618 619 627
f 615 632 620
f 619 628 627
f 626 628 622
f 629 627 628
f 626 629 628
f 619 622 628
f 626 622 639
f 629 626 632
f 620 632 630
f 626 636 631
f 631 649 626
f 626 630 632
f 649 630 626
f 631 636 649
f 622 634 639
f 620 639 634
f 626 639 636
f 639 635 636
f 637 638 655
f 639 620 635
f 620 640 635
f 630 640 620
f 635 640 637
f 636 635 633
f 635 637 633
f 640 630 638
f 640 638 637
f 630 657 638
f 657 630 641
f 649 636 651
f 633 651 636
f 637 643 633
f 643 642 633
f 642 646 633
f 647 633 646
f 633 647 658
f 643 644 642
f 642 644 646
f 645 658 657
f 647 646 658
f 649 648 630
f 649 651 650
f 649 650 648
f 630 648 641
f 633 652 651
f 650 652 633
f 650 651 652
f 633 658 650
f 648 657 641
f 650 658 653
f 648 650 653
f 645 648 653
f 648 645 657
f 658 645 653
f 637 655 643
f 655 644 643
f 655 668 644
f 644 668 656
f 668 644 656
f 668 638 657
f 655 638 668
f 657 658 668
f 747 737 741
f 747 762 737
f 753 747 740
f 740 752 753
f 762 752 737
f 752 762 753
f 747 755 762
f 762 755 760
f 747 753 755
f 753 759 755
f 755 759 758
f 762 760 761
f 762 761 766
f 759 766 758
f 762 766 759
f 762 759 753
f 763 761 755
f 755 761 756
f 755 756 760
f 755 754 763
f 754 755 758
f 756 761 760
f 761 763 765
f 761 765 767
f 761 767 766
f 768 758 766
f 754 773 763
f 763 773 757
f 765 782 767
f 758 773 754
f 758 768 799
f 782 769 767
f 757 764 763
f 763 764 765
f 757 787 764
f 757 770 787
f 787 771 775
f 787 775 786
f 787 772 771
f 771 772 774
f 757 773 770
f 764 782 765
f 770 773 787
f 771 774 775
f 774 776 775
f 774 777 776
f 774 778 777
f 775 788 786
f 774 779 778
f 774 780 779
f 774 781 780
f 774 772 781
f 764 783 782
f 785 784 782
f 764 786 783
f 764 787 786
f 786 782 783
f 786 788 782
f 788 785 782
f 787 773 789
f 787 789 772
f 775 776 788
f 776 777 790
f 773 792 789
f 796 788 790
f 790 791 796
f 776 790 788
f 777 791 790
f 777 778 791
f 778 779 793
f 779 780 794
f 772 792 781
f 780 781 795
f 778 793 791
f 779 794 793
f 780 795 794
f 781 792 795
f 789 792 772
f 788 796 785
f 791 793 796
f 796 793 794
f 796 795 792
f 796 794 795
f 766 767 768
f 768 799 798
f 768 798 799
f 801 768 767
f 773 758 797
f 773 797 792
f 801 767 769
f 758 799 800
f 801 799 768
f 800 797 758
f 800 799 797
f 797 799 784
f 801 784 799
f 792 797 796
f 782 801 769
f 782 784 801
f 796 797 785
f 797 784 785
f 712 709 715
f 709 710 715
f 710 711 715
f 712 715 727
f 711 713 715
f 713 714 715
f 715 714 728
f 716 719 717
f 717 719 718
f 716 727 719
f 718 719 721
f 716 717 709
f 716 712 727
f 717 718 710
f 718 721 711
f 717 710 709
f 716 709 712
f 718 711 710
f 711 721 713
f 713 721 719
f 723 714 719
f 719 720 723
f 713 719 714
f 723 724 714
f 723 720 724
f 727 722 719
f 732 719 722
f 742 724 720
f 720 719 732
f 729 742 725
f 720 732 739
f 726 728 714
f 715 728 727
f 714 724 726
f 729 726 724
f 742 729 724
f 726 727 728
f 729 731 726
f 729 730 731
f 722 727 726
f 726 731 722
f 722 731 732
f 731 739 732
f 729 725 733
f 731 730 735
f 731 736 739
f 730 729 738
f 733 738 729
f 733 730 738
f 733 747 730
f 747 748 740
f 730 737 735
f 737 730 741
f 730 747 741
f 740 745 736
f 748 745 740
f 720 744 742
f 742 744 725
f 720 739 744
f 733 725 743
f 744 745 725
f 743 725 746
f 746 725 747
f 747 746 734
f 734 746 747
f 747 743 746
f 747 725 748
f 733 743 747
f 725 745 748
f 744 739 749
f 744 749 745
f 739 736 749
f 736 745 749
f 735 750 731
f 731 750 736
f 750 735 737
f 737 752 750
f 750 740 736
f 750 752 740
f 752 751 737
f 752 737 751
