v 0.095561 0.050176 0.044420
v 0.095140 0.047730 0.044303
v 0.092215 0.048238 0.044086
v 0.092169 0.046799 0.044001
v 0.091986 0.046890 0.043996
v 0.091803 0.046982 0.043987
v 0.091620 0.047074 0.043974
v 0.090686 0.047541 0.043894
v 0.090743 0.047513 0.043872
v 0.092298 0.046734 0.044018
v 0.089319 0.048215 0.043862
v 0.108315 0.078834 0.044987
v 0.118172 0.076375 0.047460
v 0.091976 0.047161 0.044187
v 0.130639 0.104917 0.049310
v 0.106452 0.098473 0.041650
v 0.089093 0.050196 0.043354
v 0.092491 0.061325 0.043109
v 0.098560 0.076104 0.043433
v 0.110681 0.096979 0.043378
v 0.104126 0.096296 0.041522
v 0.117710 0.133059 0.041844
v 0.090224 0.052829 0.043614
v 0.119664 0.095634 0.047028
v 0.135756 0.129325 0.048638
v 0.114293 0.120619 0.041316
v 0.127119 0.154466 0.042504
v 0.123601 0.131380 0.045884
v 0.131424 0.162906 0.043842
v 0.130241 0.155171 0.043466
v 0.134615 0.161381 0.044149
v 0.131311 0.157822 0.043568
v 0.131775 0.157590 0.043744
v 0.133512 0.161829 0.043887
v 0.133366 0.161875 0.043835
v 0.132943 0.162010 0.043683
v 0.133008 0.162225 0.043683
v 0.133079 0.161967 0.043733
v 0.133539 0.163963 0.043683
v 0.131496 0.152177 0.045273
v 0.136988 0.153069 0.045520
v 0.131879 0.151879 0.044460
v 0.132054 0.116947 0.049599
v 0.131966 0.110807 0.049145
v 0.135384 0.161339 0.051760
v 0.131229 0.165121 0.043033
v 0.132875 0.164296 0.043433
v 0.132484 0.164492 0.043289
v 0.133266 0.164100 0.043580
v 0.143625 0.181641 0.043868
v 0.152616 0.168605 0.049309
v 0.140252 0.183230 0.044195
v 0.143809 0.179560 0.043097
v 0.163355 0.226876 0.040963
v 0.160415 0.251737 0.045557
v 0.155380 0.206027 0.041241
v 0.129461 0.183679 0.045890
v 0.153688 0.216911 0.045607
v 0.142299 0.219231 0.048934
v 0.168667 0.245422 0.041564
v 0.173863 0.256974 0.041971
v 0.168811 0.245232 0.042833
v 0.178759 0.271652 0.042551
v 0.179973 0.275979 0.042646
v 0.184884 0.291556 0.043294
v 0.181473 0.281729 0.043594
v 0.176663 0.277773 0.044803
v 0.182549 0.284748 0.043562
v 0.186381 0.296105 0.043556
v 0.184476 0.297091 0.043845
v 0.183159 0.291087 0.044151
v 0.184445 0.297109 0.043894
v 0.183511 0.297577 0.043974
v 0.183328 0.297668 0.043987
v 0.183145 0.297760 0.043996
v 0.182962 0.297852 0.044001
v 0.184639 0.296996 0.044160
v 0.181141 0.296195 0.044246
v 0.181925 0.298308 0.044141
v 0.176173 0.294122 0.044607
v 0.168783 0.271161 0.046178
v 0.157274 0.257682 0.048086
v 0.147448 0.250606 0.049161
v 0.162795 0.276722 0.046488
v 0.138227 0.181439 0.054912
v 0.142681 0.231077 0.049128
v -0.056448 0.082471 0.044962
v -0.045581 0.075546 0.044091
v -0.047960 0.076270 0.044293
v -0.045038 0.076115 0.044001
v -0.044907 0.076274 0.043996
v -0.044777 0.076432 0.043987
v -0.044647 0.076590 0.043974
v -0.044092 0.077267 0.043894
v -0.043985 0.077397 0.043894
v -0.043908 0.077491 0.043840
v -0.048174 0.076247 0.044403
v -0.043233 0.078261 0.044006
v -0.054722 0.083667 0.044339
v -0.061135 0.099570 0.042554
v -0.088953 0.098319 0.048431
v -0.115573 0.128302 0.049211
v -0.096010 0.117055 0.048399
v -0.043295 0.080192 0.043359
v -0.078596 0.118994 0.041315
v -0.057523 0.093003 0.044159
v -0.094355 0.134897 0.041012
v -0.072158 0.111143 0.042747
v -0.092211 0.128261 0.044485
v -0.116146 0.135603 0.048396
v -0.111281 0.150060 0.042001
v -0.145191 0.161096 0.043790
v -0.126251 0.157581 0.044576
v -0.125953 0.161620 0.043568
v -0.126282 0.161219 0.043744
v -0.129593 0.164385 0.043887
v -0.129479 0.164487 0.043835
v -0.129147 0.164782 0.043683
v -0.129294 0.164952 0.043683
v -0.129254 0.164687 0.043733
v -0.130486 0.166324 0.043683
v -0.130388 0.163543 0.044099
v -0.132787 0.162213 0.044950
v -0.115213 0.138639 0.046692
v -0.128104 0.167361 0.043407
v -0.147536 0.160833 0.047738
v -0.124567 0.156958 0.045230
v -0.099403 0.113668 0.048943
v -0.131102 0.164032 0.051450
v -0.114048 0.154667 0.042206
v -0.123103 0.161270 0.042905
v -0.130015 0.166897 0.043433
v -0.129737 0.167236 0.043289
v -0.130292 0.166560 0.043580
v -0.145394 0.177415 0.043289
v -0.145116 0.177753 0.043433
v -0.145434 0.180453 0.043882
v -0.144839 0.178090 0.043580
v -0.164349 0.192803 0.042229
v -0.137565 0.172325 0.043683
v -0.144645 0.178327 0.043683
v -0.133492 0.185421 0.047036
v -0.154329 0.193313 0.044921
v -0.178247 0.217740 0.044235
v -0.147039 0.178260 0.043646
v -0.144172 0.182036 0.045750
v -0.195177 0.239491 0.045330
v -0.174871 0.215282 0.047194
v -0.154346 0.203437 0.047482
v -0.204658 0.235628 0.043044
v -0.213639 0.245060 0.042298
v -0.231330 0.263811 0.043530
v -0.231838 0.266445 0.043963
v -0.221082 0.256210 0.044334
v -0.231340 0.267018 0.043812
v -0.229418 0.269278 0.044186
v -0.230093 0.268535 0.044001
v -0.227330 0.264098 0.044422
v -0.226069 0.266468 0.044305
v -0.218191 0.265206 0.044767
v -0.196484 0.253005 0.047222
v -0.192713 0.242554 0.047723
v -0.180133 0.240238 0.048951
v -0.171077 0.230425 0.049237
v -0.095561 -0.050176 0.044420
v -0.095140 -0.047730 0.044303
v -0.092215 -0.048238 0.044086
v -0.092169 -0.046799 0.044001
v -0.091986 -0.046890 0.043996
v -0.091803 -0.046982 0.043987
v -0.091620 -0.047074 0.043974
v -0.090686 -0.047541 0.043894
v -0.090743 -0.047513 0.043872
v -0.092298 -0.046734 0.044018
v -0.089319 -0.048215 0.043862
v -0.108390 -0.079832 0.044895
v -0.118172 -0.076375 0.047460
v -0.116048 -0.086706 0.046643
v -0.091976 -0.047161 0.044187
v -0.109883 -0.078925 0.045464
v -0.110276 -0.088663 0.046276
v -0.130639 -0.104917 0.049310
v -0.106452 -0.098473 0.041650
v -0.089093 -0.050196 0.043354
v -0.092491 -0.061325 0.043109
v -0.098560 -0.076104 0.043433
v -0.110681 -0.096979 0.043378
v -0.104126 -0.096296 0.041522
v -0.117710 -0.133059 0.041844
v -0.089896 -0.051454 0.043754
v -0.129699 -0.128383 0.046763
v -0.131530 -0.133249 0.047849
v -0.135756 -0.129325 0.048638
v -0.114293 -0.120619 0.041316
v -0.127119 -0.154466 0.042504
v -0.123601 -0.131380 0.045884
v -0.131424 -0.162906 0.043842
v -0.130241 -0.155171 0.043466
v -0.134615 -0.161381 0.044149
v -0.131311 -0.157822 0.043568
v -0.131775 -0.157590 0.043744
v -0.133512 -0.161829 0.043887
v -0.133366 -0.161875 0.043835
v -0.132943 -0.162010 0.043683
v -0.133008 -0.162225 0.043683
v -0.133079 -0.161967 0.043733
v -0.133539 -0.163963 0.043683
v -0.131496 -0.152177 0.045273
v -0.133904 -0.143281 0.046116
v -0.137110 -0.152967 0.045531
v -0.131879 -0.151879 0.044460
v -0.121156 -0.098702 0.048391
v -0.131966 -0.110807 0.049145
v -0.135384 -0.161339 0.051760
v -0.131229 -0.165121 0.043033
v -0.132875 -0.164296 0.043433
v -0.132484 -0.164492 0.043289
v -0.133266 -0.164100 0.043580
v -0.143625 -0.181641 0.043868
v -0.152616 -0.168605 0.049309
v -0.140252 -0.183230 0.044195
v -0.143809 -0.179560 0.043097
v -0.163355 -0.226876 0.040963
v -0.160415 -0.251737 0.045557
v -0.155380 -0.206027 0.041241
v -0.129461 -0.183679 0.045890
v -0.153688 -0.216911 0.045607
v -0.142299 -0.219231 0.048934
v -0.168667 -0.245422 0.041564
v -0.173863 -0.256974 0.041971
v -0.168811 -0.245232 0.042833
v -0.178759 -0.271652 0.042551
v -0.179973 -0.275979 0.042646
v -0.184884 -0.291556 0.043294
v -0.181473 -0.281729 0.043594
v -0.176663 -0.277773 0.044803
v -0.182549 -0.284748 0.043562
v -0.186381 -0.296105 0.043556
v -0.184476 -0.297091 0.043845
v -0.183159 -0.291087 0.044151
v -0.184445 -0.297109 0.043894
v -0.183511 -0.297577 0.043974
v -0.183328 -0.297668 0.043987
v -0.183145 -0.297760 0.043996
v -0.182962 -0.297852 0.044001
v -0.184639 -0.296996 0.044160
v -0.181141 -0.296195 0.044246
v -0.181925 -0.298308 0.044141
v -0.176173 -0.294122 0.044607
v -0.168783 -0.271161 0.046178
v -0.157274 -0.257682 0.048086
v -0.147448 -0.250606 0.049161
v -0.162795 -0.276722 0.046488
v -0.138227 -0.181439 0.054912
v -0.142681 -0.231077 0.049128
v 0.060386 -0.081206 0.045156
v 0.045581 -0.075546 0.044091
v 0.047960 -0.076270 0.044293
v 0.045038 -0.076115 0.044001
v 0.044907 -0.076274 0.043996
v 0.044777 -0.076432 0.043987
v 0.044647 -0.076590 0.043974
v 0.044092 -0.077267 0.043894
v 0.043985 -0.077397 0.043894
v 0.043940 -0.077452 0.043849
v 0.043362 -0.078155 0.043658
v 0.048174 -0.076247 0.044403
v 0.044690 -0.076567 0.044158
v 0.054722 -0.083667 0.044339
v 0.064640 -0.092581 0.044487
v 0.088953 -0.098319 0.048431
v 0.053944 -0.085249 0.044822
v 0.099901 -0.113643 0.048503
v 0.071285 -0.099930 0.045982
v 0.042942 -0.078652 0.043854
v 0.043295 -0.080192 0.043359
v 0.078596 -0.118994 0.041315
v 0.057523 -0.093003 0.044159
v 0.050144 -0.088028 0.043061
v 0.098621 -0.137478 0.041587
v 0.073817 -0.108616 0.044518
v 0.091454 -0.132246 0.040941
v 0.072158 -0.111143 0.042747
v 0.095407 -0.131964 0.044438
v 0.118624 -0.134656 0.048440
v 0.115657 -0.137351 0.047116
v 0.116146 -0.135603 0.048396
v 0.111281 -0.150060 0.042001
v 0.145191 -0.161096 0.043790
v 0.126251 -0.157581 0.044576
v 0.125953 -0.161620 0.043568
v 0.126282 -0.161219 0.043744
v 0.129593 -0.164385 0.043887
v 0.129479 -0.164487 0.043835
v 0.129147 -0.164782 0.043683
v 0.129294 -0.164952 0.043683
v 0.129254 -0.164687 0.043733
v 0.130486 -0.166324 0.043683
v 0.130388 -0.163543 0.044099
v 0.132787 -0.162213 0.044950
v 0.126217 -0.161262 0.044666
v 0.113645 -0.139102 0.046098
v 0.097463 -0.117441 0.048610
v 0.146610 -0.162610 0.051680
v 0.128070 -0.167403 0.043355
v 0.128898 -0.154615 0.045583
v 0.124567 -0.156958 0.045230
v 0.099403 -0.113668 0.048943
v 0.131042 -0.163016 0.045286
v 0.114048 -0.154667 0.042206
v 0.123103 -0.161270 0.042905
v 0.130015 -0.166897 0.043433
v 0.129737 -0.167236 0.043289
v 0.130292 -0.166560 0.043580
v 0.146175 -0.176506 0.043058
v 0.145394 -0.177415 0.043289
v 0.145116 -0.177753 0.043433
v 0.150395 -0.183872 0.043434
v 0.144839 -0.178090 0.043580
v 0.164349 -0.192803 0.042229
v 0.137565 -0.172325 0.043683
v 0.144645 -0.178327 0.043683
v 0.145325 -0.180545 0.043900
v 0.136189 -0.184973 0.047373
v 0.159250 -0.196994 0.044261
v 0.154329 -0.193313 0.044921
v 0.127973 -0.180864 0.044265
v 0.186051 -0.226358 0.044348
v 0.146290 -0.179490 0.044334
v 0.144172 -0.182036 0.045750
v 0.149687 -0.195867 0.046485
v 0.195177 -0.239491 0.045330
v 0.170209 -0.209658 0.046859
v 0.157604 -0.212453 0.048745
v 0.204658 -0.235628 0.043044
v 0.189980 -0.218539 0.040919
v 0.213224 -0.244540 0.042361
v 0.231330 -0.263811 0.043530
v 0.231838 -0.266445 0.043963
v 0.231340 -0.267018 0.043812
v 0.221082 -0.256210 0.044334
v 0.225585 -0.264074 0.044031
v 0.231146 -0.267253 0.043894
v 0.230777 -0.267701 0.043959
v 0.230093 -0.268535 0.044001
v 0.229055 -0.269387 0.044198
v 0.225967 -0.262813 0.044481
v 0.228421 -0.266321 0.044440
v 0.226309 -0.266761 0.044488
v 0.218191 -0.265206 0.044767
v 0.179698 -0.230020 0.048435
v 0.198885 -0.251057 0.046576
v 0.192713 -0.242554 0.047723
v 0.180133 -0.240238 0.048951
v 0.199685 -0.255604 0.046855
v 0.131163 -0.167497 0.057127
v 0.171077 -0.230425 0.049237
g prop
f 51 31 52
f 31 34 36
f 31 36 37
f 31 37 39
f 35 36 34
f 38 36 35
f 31 39 52
f 52 39 29
f 29 57 52
f 29 45 57
f 51 52 50
f 51 50 57
f 51 57 85
f 45 51 85
f 57 45 85
f 53 50 52
f 53 56 58
f 52 56 53
f 54 62 56
f 56 62 58
f 58 62 67
f 56 55 54
f 53 58 50
f 50 58 59
f 57 50 59
f 56 52 55
f 57 59 55
f 52 57 55
f 54 61 62
f 54 60 61
f 61 66 62
f 55 64 60
f 54 55 60
f 62 66 67
f 61 60 63
f 61 63 66
f 60 64 63
f 63 68 66
f 63 64 68
f 55 65 64
f 66 71 67
f 64 65 68
f 66 68 71
f 68 69 71
f 65 69 68
f 65 70 69
f 71 69 77
f 69 72 77
f 69 70 72
f 72 70 73
f 72 73 74
f 72 74 75
f 72 75 76
f 72 76 79
f 55 80 65
f 71 77 67
f 72 79 77
f 77 79 80
f 70 78 73
f 73 78 74
f 74 78 75
f 80 70 65
f 78 70 80
f 75 78 76
f 76 78 79
f 78 80 79
f 58 82 59
f 58 67 82
f 81 82 67
f 86 83 55
f 80 55 83
f 67 80 81
f 80 82 81
f 77 80 67
f 80 84 82
f 84 83 82
f 80 83 84
f 55 59 86
f 59 83 86
f 82 83 59
f 2 3 1
f 4 3 2
f 10 2 1
f 10 4 2
f 4 5 3
f 10 1 14
f 10 8 4
f 4 8 5
f 5 8 6
f 6 8 7
f 10 14 8
f 7 8 9
f 9 8 11
f 3 5 6
f 3 6 7
f 3 7 9
f 11 8 14
f 24 13 1
f 13 14 1
f 14 23 11
f 1 12 24
f 20 24 12
f 14 43 23
f 16 18 21
f 21 18 19
f 11 17 3
f 9 11 3
f 1 3 17
f 11 23 17
f 18 17 23
f 17 18 16
f 20 1 17
f 17 16 20
f 1 20 12
f 19 18 23
f 21 26 16
f 20 16 26
f 21 19 22
f 26 21 22
f 19 23 28
f 26 22 27
f 22 29 27
f 19 28 22
f 26 27 20
f 27 42 20
f 29 22 28
f 27 30 42
f 30 33 42
f 30 32 33
f 31 51 42
f 30 49 32
f 32 38 33
f 33 38 35
f 33 34 42
f 42 34 31
f 33 35 34
f 32 37 36
f 32 36 38
f 32 49 37
f 49 39 37
f 20 42 24
f 43 28 23
f 40 28 43
f 25 24 41
f 41 43 25
f 24 42 41
f 28 40 29
f 43 41 40
f 41 42 51
f 41 51 45
f 40 41 45
f 29 40 45
f 13 15 14
f 24 15 13
f 14 15 43
f 15 24 44
f 24 25 44
f 44 43 15
f 44 25 43
f 29 46 27
f 27 48 30
f 30 48 47
f 30 47 49
f 47 39 49
f 46 39 48
f 48 39 47
f 27 46 48
f 46 29 39
f 112 140 122
f 112 122 123
f 112 123 126
f 122 118 116
f 122 119 118
f 122 121 119
f 117 116 118
f 120 117 118
f 122 140 121
f 140 125 121
f 125 140 142
f 125 142 129
f 112 126 140
f 126 145 140
f 140 145 141
f 126 146 145
f 126 129 146
f 140 141 137
f 140 137 142
f 129 142 146
f 135 137 136
f 145 135 141
f 135 136 141
f 136 138 141
f 136 137 138
f 135 145 137
f 145 139 137
f 138 137 141
f 137 143 142
f 139 144 137
f 145 148 139
f 149 146 142
f 143 149 142
f 146 149 145
f 145 149 148
f 144 143 137
f 139 148 154
f 144 147 143
f 143 147 149
f 139 150 151
f 139 151 144
f 151 150 152
f 151 152 159
f 150 154 152
f 159 152 153
f 159 153 155
f 152 158 153
f 150 139 154
f 151 147 144
f 155 157 156
f 155 156 157
f 155 153 156
f 155 156 159
f 153 158 159
f 153 159 156
f 156 160 159
f 156 159 160
f 147 163 149
f 154 148 162
f 147 151 163
f 161 163 151
f 161 162 163
f 152 154 158
f 159 161 151
f 158 154 162
f 158 162 159
f 159 162 161
f 149 164 148
f 149 163 164
f 148 163 162
f 148 164 163
f 88 97 89
f 90 88 89
f 97 88 98
f 90 89 91
f 88 90 95
f 88 95 98
f 90 91 95
f 91 92 95
f 92 93 95
f 93 94 95
f 96 95 94
f 96 98 95
f 89 92 91
f 89 93 92
f 97 94 89
f 89 94 93
f 87 94 97
f 87 99 94
f 99 96 94
f 98 87 97
f 96 99 100
f 96 100 104
f 99 87 100
f 87 102 100
f 87 103 101
f 105 108 100
f 96 104 98
f 100 98 104
f 100 106 98
f 87 98 106
f 100 102 105
f 108 106 100
f 102 107 105
f 106 108 109
f 105 107 108
f 87 106 109
f 87 109 103
f 108 107 130
f 107 111 130
f 108 130 109
f 111 131 130
f 113 114 111
f 111 114 131
f 113 115 114
f 131 114 134
f 114 115 120
f 115 117 120
f 115 113 116
f 113 122 116
f 115 116 117
f 114 118 119
f 114 120 118
f 114 119 134
f 134 119 121
f 113 123 122
f 125 129 127
f 107 102 124
f 107 124 111
f 109 125 103
f 111 124 113
f 113 124 126
f 124 102 126
f 110 127 102
f 110 103 127
f 102 127 126
f 103 125 127
f 113 126 123
f 126 127 129
f 87 101 102
f 102 101 128
f 103 128 101
f 102 128 110
f 103 110 128
f 131 125 130
f 109 130 125
f 131 132 133
f 131 134 132
f 132 134 121
f 125 133 121
f 133 132 121
f 131 133 125
f 220 199 221
f 199 202 204
f 199 204 205
f 199 205 207
f 203 204 202
f 206 204 203
f 199 207 221
f 221 207 197
f 197 226 221
f 197 214 226
f 220 221 219
f 220 219 226
f 220 226 254
f 214 220 254
f 226 214 254
f 222 219 221
f 222 225 227
f 221 225 222
f 223 231 225
f 225 231 227
f 227 231 236
f 225 224 223
f 222 227 219
f 219 227 228
f 226 219 228
f 225 221 224
f 226 228 224
f 221 226 224
f 223 230 231
f 223 229 230
f 230 235 231
f 224 233 229
f 223 224 229
f 231 235 236
f 230 229 232
f 230 232 235
f 229 233 232
f 232 237 235
f 232 233 237
f 224 234 233
f 235 240 236
f 233 234 237
f 235 237 240
f 237 238 240
f 234 238 237
f 234 239 238
f 240 238 246
f 238 241 246
f 238 239 241
f 241 239 242
f 241 242 243
f 241 243 244
f 241 244 245
f 241 245 248
f 224 249 234
f 240 246 236
f 241 248 246
f 246 248 249
f 239 247 242
f 242 247 243
f 243 247 244
f 249 239 234
f 247 239 249
f 244 247 245
f 245 247 248
f 247 249 248
f 227 251 228
f 227 236 251
f 250 251 236
f 255 252 224
f 249 224 252
f 236 249 250
f 249 251 250
f 246 249 236
f 249 253 251
f 253 252 251
f 249 252 253
f 224 228 255
f 228 252 255
f 251 252 228
f 166 167 165
f 168 167 166
f 174 166 165
f 174 168 166
f 168 169 167
f 174 165 179
f 174 172 168
f 168 172 169
f 169 172 170
f 170 172 171
f 174 179 172
f 171 172 173
f 173 172 175
f 167 169 170
f 167 170 171
f 167 171 173
f 175 172 179
f 178 177 165
f 177 179 165
f 176 180 165
f 179 190 175
f 179 181 190
f 165 180 178
f 180 176 178
f 187 178 176
f 179 212 181
f 183 185 188
f 188 185 186
f 175 184 167
f 173 175 167
f 165 167 184
f 175 190 184
f 185 184 190
f 184 185 183
f 187 165 184
f 184 183 187
f 165 187 176
f 186 185 190
f 188 194 183
f 187 183 194
f 188 186 189
f 194 188 189
f 190 181 186
f 186 181 196
f 194 189 195
f 189 197 195
f 186 196 189
f 194 195 187
f 195 211 187
f 197 189 196
f 195 198 211
f 198 201 211
f 198 200 201
f 199 220 211
f 198 218 200
f 200 206 201
f 201 206 203
f 201 202 211
f 211 202 199
f 201 203 202
f 200 205 204
f 200 204 206
f 200 218 205
f 218 207 205
f 191 178 187
f 193 178 191
f 187 211 191
f 212 196 181
f 212 192 196
f 208 196 192
f 193 191 209
f 210 192 193
f 210 209 211
f 191 211 209
f 196 208 197
f 193 209 210
f 192 210 208
f 210 211 220
f 210 220 214
f 208 210 214
f 197 208 214
f 177 182 179
f 178 182 177
f 179 182 212
f 182 178 213
f 178 193 213
f 213 192 182
f 213 193 192
f 212 182 192
f 197 215 195
f 195 217 198
f 198 217 216
f 198 216 218
f 216 207 218
f 215 207 217
f 217 207 216
f 195 215 217
f 215 197 207
f 289 321 299
f 289 299 300
f 289 300 304
f 299 295 293
f 299 296 295
f 299 298 296
f 294 293 295
f 297 294 295
f 299 321 298
f 309 356 304
f 321 305 298
f 305 321 327
f 356 309 305
f 305 327 356
f 289 304 321
f 304 329 321
f 321 329 322
f 304 330 329
f 304 356 330
f 321 322 323
f 321 323 324
f 321 324 327
f 356 324 330
f 327 324 356
f 316 318 317
f 315 316 322
f 316 317 322
f 317 319 322
f 317 318 319
f 316 315 318
f 315 322 329
f 315 329 333
f 315 320 318
f 319 323 322
f 319 318 323
f 323 326 324
f 318 325 323
f 320 325 318
f 315 333 320
f 320 328 325
f 331 330 324
f 326 331 324
f 330 331 329
f 329 331 333
f 325 326 323
f 325 328 326
f 320 333 351
f 320 351 341
f 326 334 331
f 328 332 326
f 331 334 333
f 326 332 334
f 320 335 336
f 336 335 337
f 320 336 328
f 336 337 328
f 337 335 338
f 337 338 342
f 335 341 338
f 342 338 339
f 342 339 340
f 338 347 339
f 335 320 341
f 337 332 328
f 339 343 340
f 343 344 340
f 343 345 344
f 343 346 345
f 343 339 346
f 340 344 342
f 344 346 342
f 339 347 348
f 339 348 349
f 339 349 346
f 344 345 346
f 346 350 342
f 346 349 350
f 332 354 334
f 341 351 353
f 332 337 354
f 352 354 337
f 352 355 354
f 355 353 354
f 338 341 347
f 342 352 337
f 347 341 353
f 348 347 349
f 347 353 342
f 342 355 352
f 349 347 342
f 342 353 355
f 349 342 350
f 334 357 333
f 334 354 357
f 351 354 353
f 333 357 354
f 354 351 333
f 257 267 258
f 259 257 258
f 267 257 268
f 259 258 260
f 257 259 264
f 257 264 268
f 259 260 264
f 260 261 264
f 261 262 264
f 262 263 264
f 265 264 263
f 266 264 265
f 266 275 264
f 266 265 276
f 258 261 260
f 258 262 261
f 267 263 258
f 258 263 262
f 256 263 267
f 275 267 268
f 256 269 263
f 269 265 263
f 275 272 267
f 275 268 264
f 265 269 270
f 265 270 276
f 269 256 270
f 256 272 271
f 267 272 256
f 256 273 270
f 272 274 271
f 271 274 303
f 277 283 279
f 266 276 275
f 276 270 279
f 279 275 276
f 279 278 275
f 272 275 278
f 279 270 277
f 270 273 277
f 283 278 279
f 273 280 277
f 277 280 282
f 278 283 281
f 277 282 283
f 272 278 281
f 272 281 274
f 274 281 303
f 303 281 284
f 273 285 286
f 283 282 310
f 282 280 310
f 280 288 310
f 283 310 281
f 310 284 281
f 288 311 310
f 290 291 288
f 288 291 311
f 290 292 291
f 311 291 314
f 291 292 297
f 292 294 297
f 292 290 293
f 290 299 293
f 292 293 294
f 291 295 296
f 291 297 295
f 291 296 314
f 314 296 298
f 290 300 299
f 305 309 301
f 301 309 307
f 280 273 302
f 286 302 273
f 280 302 288
f 284 305 303
f 288 302 290
f 290 302 286
f 290 306 304
f 290 286 306
f 286 285 306
f 287 307 285
f 287 303 307
f 285 307 306
f 303 305 307
f 307 305 301
f 290 304 300
f 306 309 304
f 306 307 309
f 256 271 273
f 273 271 308
f 303 308 271
f 273 308 287
f 273 287 285
f 303 287 308
f 311 305 310
f 284 310 305
f 311 312 313
f 311 314 312
f 312 314 298
f 305 313 298
f 313 312 298
f 311 313 305
