v -0.149910 -0.178190 0.008455
v -0.117100 -0.183774 0.016130
v -0.119046 -0.177241 0.013318
v -0.120935 -0.158095 0.015610
v -0.160493 -0.178804 0.016695
v -0.144231 -0.193543 0.015940
v -0.139796 -0.151163 0.014610
v -0.156425 -0.156346 0.037775
v -0.128294 -0.193438 0.039995
v -0.157728 -0.182899 0.041746
v -0.114679 -0.176974 0.039817
v -0.125955 -0.157124 0.042595
v -0.134416 -0.151208 0.042586
v -0.143989 -0.181144 0.043698
v -0.130679 -0.179599 0.043689
v -0.121392 -0.160123 0.041571
v -0.120993 -0.166796 0.042765
v -0.118062 0.169983 0.013581
v -0.157099 0.165304 0.011125
v -0.132980 0.192439 0.013647
v -0.134961 0.150430 0.014934
v -0.153608 0.189885 0.041054
v -0.140584 0.149628 0.041251
v -0.120184 0.158781 0.041271
v -0.133993 0.194146 0.041053
v -0.118659 0.185596 0.039399
v -0.114462 0.170748 0.036010
v -0.160207 0.169206 0.041266
v -0.143655 0.163659 0.043698
v -0.132520 0.180635 0.043684
v -0.123584 0.182031 0.042968
v 0.120619 -0.170277 0.011180
v 0.128334 -0.193761 0.015510
v 0.131056 -0.154007 0.013321
v 0.152437 -0.182278 0.012424
v 0.156536 -0.161733 0.015015
v 0.116121 -0.161979 0.039483
v 0.135274 -0.195765 0.039708
v 0.137722 -0.148811 0.036038
v 0.155810 -0.186119 0.039982
v 0.159528 -0.178611 0.038299
v 0.120226 -0.183771 0.042588
v 0.136058 -0.154923 0.042903
v 0.152641 -0.178538 0.043193
v 0.143386 -0.164440 0.043685
v 0.146772 -0.169203 0.043684
v 0.156351 -0.159399 0.040123
v 0.116553 0.159913 0.016802
v 0.130126 0.160220 0.008681
v 0.136513 0.192754 0.012697
v 0.156187 0.161475 0.011897
v 0.125407 0.191219 0.038663
v 0.137666 0.194691 0.040597
v 0.147340 0.149730 0.038792
v 0.152359 0.190675 0.042009
v 0.119213 0.161081 0.041812
v 0.117455 0.179236 0.043653
v 0.157793 0.164847 0.040794
g motor
f 49 50 51
f 51 48 49
f 49 48 50
f 48 57 50
f 51 54 48
f 50 55 51
f 57 52 50
f 52 53 50
f 53 55 50
f 58 54 51
f 48 56 57
f 54 56 48
f 55 58 51
f 54 57 56
f 52 57 53
f 58 57 54
f 57 58 55
f 53 57 55
f 19 18 21
f 19 20 18
f 19 22 20
f 18 24 21
f 28 22 19
f 24 23 21
f 22 25 20
f 25 26 20
f 20 26 18
f 27 24 18
f 26 27 18
f 21 23 19
f 23 28 19
f 23 29 28
f 29 22 28
f 24 29 23
f 29 24 31
f 25 31 26
f 29 25 22
f 29 30 25
f 29 31 30
f 26 31 24
f 25 30 31
f 26 24 27
f 1 3 2
f 1 7 4
f 1 4 3
f 6 5 1
f 5 7 1
f 2 6 1
f 5 8 7
f 2 9 6
f 6 10 5
f 10 8 5
f 8 13 7
f 13 4 7
f 4 11 3
f 11 2 3
f 9 10 6
f 13 12 4
f 12 16 4
f 2 11 9
f 4 16 11
f 9 14 10
f 14 13 10
f 10 13 8
f 15 14 9
f 14 15 17
f 11 15 9
f 17 15 11
f 14 12 13
f 14 16 12
f 14 17 16
f 16 17 11
f 32 35 33
f 32 36 35
f 32 34 36
f 32 37 34
f 33 37 32
f 35 40 33
f 36 41 35
f 34 39 36
f 38 42 33
f 37 39 34
f 40 38 33
f 41 40 35
f 39 47 36
f 33 42 37
f 36 47 41
f 44 42 38
f 37 43 39
f 42 43 37
f 42 45 43
f 47 44 41
f 40 44 38
f 42 44 46
f 46 44 47
f 41 44 40
f 43 47 39
f 42 46 45
f 43 45 47
f 45 46 47
