v 0.123082 -0.158074 -0.080857
v 0.126438 -0.154737 -0.081148
v 0.121239 -0.155189 -0.078390
v 0.126372 -0.161047 -0.046604
v 0.125898 -0.158280 -0.055821
v 0.127586 -0.160468 -0.044613
v 0.127899 -0.166520 -0.028332
v 0.129274 -0.162656 -0.033405
v 0.129383 -0.160218 -0.040810
v 0.131678 -0.171682 0.000016
v 0.132106 -0.174679 -0.001862
v 0.131800 -0.173574 -0.014310
v 0.132210 -0.174886 -0.003977
v 0.133083 -0.175903 -0.002998
v 0.133416 -0.176320 -0.003385
v 0.133435 -0.176302 -0.003383
v 0.134892 -0.177802 -0.004893
v 0.134939 -0.177807 -0.004917
v 0.133616 -0.176507 -0.003582
v 0.121194 0.155232 -0.078391
v 0.124037 0.152756 -0.078275
v 0.126004 0.156375 -0.081476
v 0.124255 0.161010 -0.056625
v 0.124041 0.159207 -0.053708
v 0.128214 0.159967 -0.044613
v 0.127146 0.164009 -0.035526
v 0.129974 0.162098 -0.033405
v 0.130546 0.160306 -0.037889
v 0.130081 0.164228 -0.026016
v 0.122211 0.157288 -0.080017
v 0.136196 0.173488 -0.021785
v 0.131117 0.172842 -0.005536
v 0.132770 0.175909 -0.003302
v 0.131127 0.173145 -0.001617
v 0.136537 0.174975 0.000259
v 0.134061 0.177128 -0.001862
v 0.148513 -0.190221 -0.080392
v 0.150679 -0.192063 -0.078369
v 0.144180 -0.174776 -0.058993
v 0.138053 -0.180745 -0.017422
v 0.136245 -0.178391 -0.000168
v 0.142279 -0.167586 -0.002734
v 0.141447 0.181548 -0.048865
v 0.140237 0.182543 -0.038532
v 0.144972 0.187240 -0.056209
v 0.143747 0.179425 -0.049027
v 0.145295 0.187065 -0.051020
v 0.148412 0.189350 -0.080932
v 0.144199 0.182873 -0.059116
v 0.149536 0.191484 -0.079211
v 0.151574 0.186652 -0.081030
v 0.153324 0.187928 -0.079512
v 0.148227 0.179569 -0.050656
v 0.153914 0.189192 -0.078532
v 0.145870 0.182158 -0.059730
v 0.144743 0.178277 -0.048124
v 0.151014 0.191979 -0.078265
v 0.146917 0.184684 -0.044613
v 0.151151 0.186715 -0.056485
v 0.138920 0.180744 -0.037582
v 0.140279 0.182270 -0.023997
v 0.145157 0.182553 -0.033405
v 0.145068 0.185132 -0.041631
v 0.141199 0.169223 -0.015506
v 0.140244 0.166568 -0.000999
v 0.145965 0.175311 -0.027859
v 0.143664 0.171228 -0.005033
v 0.143499 0.170932 -0.004893
v 0.142047 0.168747 -0.002998
v 0.142358 0.169178 -0.003383
v 0.142380 0.169164 -0.003385
v 0.143490 0.170807 -0.001178
v 0.142518 0.169401 -0.003582
v 0.141249 0.167670 -0.003977
v 0.146535 0.181453 -0.033405
v 0.149680 0.183366 -0.048478
v 0.149381 0.181066 -0.045383
v 0.145321 0.176348 -0.015513
g gear
f 60 33 44
f 60 31 33
f 33 36 44
f 36 33 34
f 36 34 35
f 48 60 44
f 43 31 60
f 43 49 31
f 43 48 49
f 60 48 43
f 46 55 56
f 49 55 46
f 49 46 31
f 44 36 45
f 31 46 56
f 61 47 45
f 44 50 48
f 48 50 52
f 49 48 51
f 44 45 50
f 51 55 49
f 50 47 57
f 55 51 56
f 48 52 51
f 50 57 52
f 52 57 54
f 53 51 52
f 59 76 54
f 57 59 54
f 50 45 47
f 47 63 57
f 56 51 64
f 63 58 57
f 51 53 64
f 63 62 58
f 58 75 59
f 58 59 57
f 53 52 66
f 54 77 52
f 54 76 77
f 52 77 66
f 36 61 45
f 61 63 47
f 31 56 64
f 64 53 65
f 63 35 62
f 62 35 75
f 36 35 61
f 61 35 63
f 72 35 69
f 74 65 66
f 77 67 66
f 66 67 74
f 72 69 70
f 72 70 73
f 72 73 67
f 78 72 67
f 78 35 72
f 58 62 75
f 59 75 76
f 65 53 66
f 35 78 75
f 75 78 76
f 76 78 77
f 77 78 67
f 30 22 20
f 20 22 21
f 20 21 24
f 20 24 26
f 30 33 22
f 21 22 28
f 20 23 30
f 20 26 23
f 23 26 32
f 22 65 28
f 21 28 25
f 23 32 30
f 21 25 24
f 24 25 29
f 33 31 22
f 25 28 27
f 31 64 22
f 22 64 65
f 24 29 26
f 25 27 29
f 27 28 35
f 27 35 29
f 26 29 34
f 29 35 34
f 26 34 32
f 32 33 30
f 34 33 32
f 28 65 35
f 65 74 69
f 65 69 35
f 68 74 67
f 71 69 74
f 71 70 69
f 71 73 70
f 68 73 71
f 68 71 74
f 68 67 73
f 41 14 16
f 41 16 19
f 13 39 37
f 37 40 13
f 40 18 13
f 41 19 18
f 41 42 14
f 40 41 18
f 40 38 41
f 37 39 38
f 38 40 37
f 41 38 39
f 39 42 41
f 3 2 1
f 3 1 11
f 4 5 3
f 3 5 2
f 4 6 5
f 5 9 2
f 11 7 3
f 5 6 9
f 2 9 42
f 4 8 6
f 1 2 39
f 3 7 4
f 6 8 9
f 7 10 4
f 4 10 8
f 7 11 10
f 1 39 12
f 8 42 9
f 8 10 42
f 1 12 11
f 12 39 13
f 12 13 11
f 11 13 14
f 15 14 13
f 15 16 14
f 15 19 16
f 17 13 18
f 15 13 17
f 15 17 19
f 17 18 19
f 11 14 42
f 10 11 42
f 39 2 42
