v -0.077211 0.025082 0.012803
v -0.074526 0.031943 0.027418
v -0.078091 -0.005693 0.029708
v -0.065071 -0.022410 0.032431
v -0.078295 -0.035723 0.019230
v -0.055450 0.012436 0.006365
v -0.027544 0.051741 0.032565
v -0.046389 -0.028456 0.036278
v -0.052476 -0.037289 0.008475
v -0.048331 -0.023608 0.005615
v -0.053477 -0.003583 0.006228
v -0.050316 -0.000175 0.005603
v -0.052489 0.030135 0.007011
v -0.069093 0.041880 0.015366
v -0.050311 0.011508 0.036008
v -0.041226 0.029392 0.036886
v -0.035065 -0.016079 0.037742
v -0.037662 -0.046316 0.032651
v -0.027053 -0.024773 0.003596
v -0.040880 -0.045559 0.008147
v -0.019619 0.017341 0.038049
v -0.023377 -0.050519 0.032338
v -0.022136 -0.011930 0.003608
v -0.030985 0.030185 0.004015
v -0.024389 0.053514 0.024685
v -0.009250 -0.046845 0.008972
v -0.007672 -0.001374 0.004353
v -0.016331 0.029162 0.037291
v -0.009651 -0.000164 0.037397
v -0.000115 -0.024171 0.036155
v -0.017312 0.022967 0.003895
v -0.014261 0.048927 0.007953
v -0.000573 0.023514 0.036025
v -0.018499 -0.044204 0.035514
v -0.025211 -0.056646 0.021011
v -0.002171 0.049174 0.031220
v 0.014674 -0.039993 0.030240
v 0.017784 -0.040613 0.013171
v 0.007525 0.013726 0.006524
v 0.001863 0.026085 0.006286
v 0.010274 -0.008839 0.034764
v 0.001751 -0.048215 0.015413
v 0.010027 0.039638 0.009987
v 0.002916 -0.020406 0.005802
v 0.015768 0.041932 0.014894
v 0.032683 0.032056 0.025268
v 0.020355 0.020670 0.032278
v 0.041951 -0.020040 0.014996
v 0.037391 0.025908 0.014561
v 0.036680 -0.016011 0.028442
v 0.019949 -0.028575 0.010192
v 0.036320 0.010625 0.028756
v 0.042291 -0.025437 0.021230
v 0.028349 0.007088 0.010969
v 0.042348 0.015902 0.014715
v 0.042067 0.022841 0.025790
v 0.044033 -0.015975 0.025146
v -0.079683 0.000000 0.020835
g canopy
f 5 4 3
f 1 13 6
f 7 2 3
f 16 7 3
f 15 16 3
f 8 15 3
f 4 8 3
f 5 8 4
f 20 35 5
f 9 20 5
f 10 9 5
f 1 10 5
f 11 10 1
f 12 11 1
f 6 12 1
f 14 13 1
f 11 12 10
f 13 24 6
f 2 7 14
f 8 16 15
f 17 16 8
f 5 18 8
f 10 20 9
f 12 19 10
f 6 19 12
f 14 24 13
f 18 22 8
f 5 22 18
f 35 22 5
f 19 20 10
f 6 24 19
f 7 25 14
f 16 36 7
f 28 36 16
f 21 28 16
f 17 21 16
f 34 17 8
f 22 34 8
f 24 23 19
f 14 32 24
f 14 25 32
f 34 21 17
f 20 26 35
f 24 27 23
f 30 29 21
f 34 30 21
f 19 26 20
f 23 44 19
f 31 27 24
f 24 32 31
f 25 7 32
f 29 33 21
f 22 35 34
f 27 44 23
f 21 33 28
f 30 41 29
f 35 37 34
f 26 42 35
f 44 38 26
f 19 44 26
f 31 39 27
f 32 39 31
f 40 39 32
f 7 36 32
f 28 33 36
f 29 41 33
f 37 30 34
f 32 43 40
f 32 45 43
f 36 45 32
f 47 56 36
f 33 47 36
f 41 47 33
f 38 37 35
f 42 38 35
f 26 38 42
f 44 51 38
f 48 51 44
f 39 44 27
f 43 39 40
f 56 46 36
f 52 47 41
f 55 48 44
f 49 55 39
f 43 49 39
f 45 49 43
f 50 52 41
f 37 50 30
f 54 55 44
f 39 54 44
f 55 54 39
f 36 46 45
f 30 50 41
f 38 53 37
f 48 53 38
f 51 48 38
f 46 49 45
f 52 56 47
f 37 57 50
f 53 57 37
f 46 56 49
f 52 57 56
f 50 57 52
f 56 55 49
f 3 2 58
f 5 3 58
f 1 5 58
f 14 1 58
f 2 14 58
f 57 53 48
f 57 48 55
f 57 55 56
