# sionna2 mesh — m350rtk__motor.obj
# group=motor  verts=1184  tris=2336
v 0.329324 0.262573 0.017438
v 0.326693 0.266331 0.017438
v 0.332028 0.269411 0.013871
v 0.330542 0.272596 0.013871
v 0.324754 0.270489 0.017438
v 0.329633 0.275990 0.013871
v 0.323566 0.274921 0.017438
v 0.329327 0.279491 0.013871
v 0.323167 0.279491 0.017438
v 0.329633 0.282992 0.013871
v 0.323566 0.284062 0.017438
v 0.330542 0.286386 0.013871
v 0.324754 0.288493 0.017438
v 0.332028 0.289571 0.013871
v 0.326693 0.292651 0.017438
v 0.329324 0.296409 0.017438
v 0.334043 0.292450 0.013871
v 0.339588 0.267694 0.010899
v 0.336528 0.264048 0.013871
v 0.337690 0.269592 0.010899
v 0.341787 0.266154 0.010899
v 0.339407 0.262032 0.013871
v 0.344220 0.265020 0.010899
v 0.342592 0.260547 0.013871
v 0.346812 0.264325 0.010899
v 0.345986 0.259637 0.013871
v 0.349487 0.264091 0.010899
v 0.349487 0.259331 0.013871
v 0.352161 0.264325 0.010899
v 0.352987 0.259637 0.013871
v 0.334043 0.266533 0.013871
v 0.356382 0.260547 0.013871
v 0.354754 0.265020 0.010899
v 0.357187 0.266154 0.010899
v 0.359567 0.262032 0.013871
v 0.359386 0.267694 0.010899
v 0.362445 0.264048 0.013871
v 0.361284 0.269592 0.010899
v 0.364930 0.266533 0.013871
v 0.366946 0.269411 0.013871
v 0.340485 0.254759 0.017438
v 0.336327 0.256697 0.017438
v 0.332568 0.259329 0.017438
v 0.344916 0.253571 0.017438
v 0.349487 0.253171 0.017438
v 0.354057 0.253571 0.017438
v 0.358489 0.254759 0.017438
v 0.362647 0.256697 0.017438
v 0.366405 0.259329 0.017438
v 0.369649 0.262573 0.017438
v 0.372280 0.266331 0.017438
v 0.374219 0.270489 0.017438
v 0.349487 0.279491 0.010899
v 0.336150 0.271791 0.010899
v 0.335015 0.274224 0.010899
v 0.334321 0.276817 0.010899
v 0.334087 0.279491 0.010899
v 0.334321 0.282165 0.010899
v 0.335015 0.284758 0.010899
v 0.336150 0.287191 0.010899
v 0.337690 0.289390 0.010899
v 0.339588 0.291288 0.010899
v 0.341787 0.292828 0.010899
v 0.336528 0.294935 0.013871
v 0.339407 0.296950 0.013871
v 0.344220 0.293962 0.010899
v 0.346812 0.294657 0.010899
v 0.349487 0.294891 0.010899
v 0.352161 0.294657 0.010899
v 0.354754 0.293962 0.010899
v 0.357187 0.292828 0.010899
v 0.342592 0.298435 0.013871
v 0.345986 0.299345 0.013871
v 0.349487 0.299651 0.013871
v 0.352987 0.299345 0.013871
v 0.362823 0.271791 0.010899
v 0.363958 0.274224 0.010899
v 0.364653 0.276817 0.010899
v 0.364887 0.279491 0.010899
v 0.368431 0.272596 0.013871
v 0.364653 0.282165 0.010899
v 0.363958 0.284758 0.010899
v 0.359386 0.291288 0.010899
v 0.361284 0.289390 0.010899
v 0.362823 0.287191 0.010899
v 0.368431 0.286386 0.013871
v 0.366946 0.289571 0.013871
v 0.369340 0.275990 0.013871
v 0.369647 0.279491 0.013871
v 0.369340 0.282992 0.013871
v 0.356382 0.298435 0.013871
v 0.359567 0.296950 0.013871
v 0.362445 0.294935 0.013871
v 0.364930 0.292450 0.013871
v 0.332568 0.299654 0.017438
v 0.336327 0.302285 0.017438
v 0.340485 0.304224 0.017438
v 0.344916 0.305411 0.017438
v 0.349487 0.305811 0.017438
v 0.354057 0.305411 0.017438
v 0.375407 0.274921 0.017438
v 0.375807 0.279491 0.017438
v 0.375407 0.284062 0.017438
v 0.374219 0.288493 0.017438
v 0.366405 0.299654 0.017438
v 0.358489 0.304224 0.017438
v 0.362647 0.302285 0.017438
v 0.369649 0.296409 0.017438
v 0.372280 0.292651 0.017438
v 0.328037 0.261493 0.027247
v 0.325238 0.265491 0.027247
v 0.323175 0.269915 0.027247
v 0.331489 0.258042 0.027247
v 0.321912 0.274629 0.027247
v 0.321487 0.279491 0.027247
v 0.321912 0.284353 0.027247
v 0.323175 0.289068 0.027247
v 0.325238 0.293491 0.027247
v 0.328037 0.297489 0.027247
v 0.335487 0.255242 0.027247
v 0.339910 0.253180 0.027247
v 0.344624 0.251917 0.027247
v 0.349487 0.251491 0.027247
v 0.354349 0.251917 0.027247
v 0.359063 0.253180 0.027247
v 0.363487 0.255242 0.027247
v 0.367485 0.258042 0.027247
v 0.370936 0.261493 0.027247
v 0.373735 0.265491 0.027247
v 0.375798 0.269915 0.027247
v 0.331489 0.300940 0.027247
v 0.335487 0.303740 0.027247
v 0.339910 0.305803 0.027247
v 0.344624 0.307066 0.027247
v 0.349487 0.307491 0.027247
v 0.377061 0.274629 0.027247
v 0.377487 0.279491 0.027247
v 0.377061 0.284353 0.027247
v 0.375798 0.289068 0.027247
v 0.354349 0.307066 0.027247
v 0.363487 0.303740 0.027247
v 0.359063 0.305803 0.027247
v 0.370936 0.297489 0.027247
v 0.373735 0.293491 0.027247
v 0.367485 0.300940 0.027247
v 0.328895 0.262213 0.035272
v 0.326208 0.266051 0.035272
v 0.324228 0.270298 0.035272
v 0.323015 0.274824 0.035272
v 0.322607 0.279491 0.035272
v 0.323015 0.284159 0.035272
v 0.324228 0.288685 0.035272
v 0.326208 0.292931 0.035272
v 0.328895 0.296769 0.035272
v 0.336047 0.256212 0.035272
v 0.340293 0.254232 0.035272
v 0.332209 0.258900 0.035272
v 0.344819 0.253020 0.035272
v 0.349487 0.252611 0.035272
v 0.354154 0.253020 0.035272
v 0.358680 0.254232 0.035272
v 0.362927 0.256212 0.035272
v 0.366765 0.258900 0.035272
v 0.370078 0.262213 0.035272
v 0.372765 0.266051 0.035272
v 0.374746 0.270298 0.035272
v 0.332209 0.300082 0.035272
v 0.336047 0.302770 0.035272
v 0.340293 0.304750 0.035272
v 0.344819 0.305963 0.035272
v 0.349487 0.306371 0.035272
v 0.375958 0.274824 0.035272
v 0.376367 0.279491 0.035272
v 0.375958 0.284159 0.035272
v 0.374746 0.288685 0.035272
v 0.354154 0.305963 0.035272
v 0.362927 0.302770 0.035272
v 0.358680 0.304750 0.035272
v 0.370078 0.296769 0.035272
v 0.372765 0.292931 0.035272
v 0.366765 0.300082 0.035272
v 0.330088 0.268291 0.039136
v 0.332327 0.265093 0.039136
v 0.327427 0.275602 0.039136
v 0.328438 0.271830 0.039136
v 0.327087 0.279491 0.039136
v 0.327427 0.283381 0.039136
v 0.328438 0.287152 0.039136
v 0.330088 0.290691 0.039136
v 0.338287 0.260092 0.039136
v 0.341825 0.258442 0.039136
v 0.335088 0.262332 0.039136
v 0.349487 0.257091 0.039136
v 0.345597 0.257432 0.039136
v 0.353376 0.257432 0.039136
v 0.357148 0.258442 0.039136
v 0.360687 0.260092 0.039136
v 0.363885 0.262332 0.039136
v 0.366646 0.265093 0.039136
v 0.368886 0.268291 0.039136
v 0.370536 0.271830 0.039136
v 0.332327 0.293890 0.039136
v 0.335088 0.296651 0.039136
v 0.338287 0.298890 0.039136
v 0.341825 0.300540 0.039136
v 0.345597 0.301551 0.039136
v 0.349487 0.301891 0.039136
v 0.353376 0.301551 0.039136
v 0.371546 0.275602 0.039136
v 0.371887 0.279491 0.039136
v 0.371546 0.283381 0.039136
v 0.370536 0.287152 0.039136
v 0.357148 0.300540 0.039136
v 0.360687 0.298890 0.039136
v 0.363885 0.296651 0.039136
v 0.366646 0.293890 0.039136
v 0.368886 0.290691 0.039136
v 0.340478 0.271932 0.040622
v 0.343607 0.269307 0.040622
v 0.345464 0.268440 0.040622
v 0.341927 0.270483 0.040622
v 0.347445 0.267910 0.040622
v 0.349487 0.267731 0.040622
v 0.351529 0.267910 0.040622
v 0.353509 0.268440 0.040622
v 0.355367 0.269307 0.040622
v 0.357046 0.270483 0.040622
v 0.358495 0.271932 0.040622
v 0.359671 0.273611 0.040622
v 0.339302 0.273611 0.040622
v 0.338436 0.275469 0.040622
v 0.337905 0.277449 0.040622
v 0.349487 0.279491 0.040622
v 0.337727 0.279491 0.040622
v 0.337905 0.281533 0.040622
v 0.338436 0.283513 0.040622
v 0.339302 0.285371 0.040622
v 0.340478 0.287050 0.040622
v 0.341927 0.288500 0.040622
v 0.343607 0.289676 0.040622
v 0.345464 0.290542 0.040622
v 0.347445 0.291073 0.040622
v 0.349487 0.291251 0.040622
v 0.351529 0.291073 0.040622
v 0.353509 0.290542 0.040622
v 0.355367 0.289676 0.040622
v 0.360537 0.275469 0.040622
v 0.361068 0.277449 0.040622
v 0.361247 0.279491 0.040622
v 0.361068 0.281533 0.040622
v 0.360537 0.283513 0.040622
v 0.358495 0.287050 0.040622
v 0.359671 0.285371 0.040622
v 0.357046 0.288500 0.040622
v 0.338906 0.264929 0.046567
v 0.349487 0.279491 0.046567
v 0.343924 0.262372 0.046567
v 0.349487 0.261491 0.046567
v 0.355049 0.262372 0.046567
v 0.360067 0.264929 0.046567
v 0.334924 0.268911 0.046567
v 0.332368 0.273929 0.046567
v 0.331487 0.279491 0.046567
v 0.332368 0.285054 0.046567
v 0.334924 0.290071 0.046567
v 0.338906 0.294054 0.046567
v 0.343924 0.296610 0.046567
v 0.349487 0.297491 0.046567
v 0.355049 0.296610 0.046567
v 0.364049 0.268911 0.046567
v 0.366606 0.273929 0.046567
v 0.367487 0.279491 0.046567
v 0.364049 0.290071 0.046567
v 0.360067 0.294054 0.046567
v 0.366606 0.285054 0.046567
v 0.338906 0.264929 0.068364
v 0.334924 0.268911 0.068364
v 0.343924 0.262372 0.068364
v 0.349487 0.261491 0.068364
v 0.355049 0.262372 0.068364
v 0.360067 0.264929 0.068364
v 0.332368 0.273929 0.068364
v 0.331487 0.279491 0.068364
v 0.332368 0.285054 0.068364
v 0.334924 0.290071 0.068364
v 0.338906 0.294054 0.068364
v 0.343924 0.296610 0.068364
v 0.349487 0.297491 0.068364
v 0.355049 0.296610 0.068364
v 0.364049 0.268911 0.068364
v 0.366606 0.273929 0.068364
v 0.367487 0.279491 0.068364
v 0.366606 0.285054 0.068364
v 0.360067 0.294054 0.068364
v 0.364049 0.290071 0.068364
v 0.349487 0.279491 0.068364
v -0.359386 0.267694 0.010899
v -0.362445 0.264048 0.013871
v -0.361284 0.269592 0.010899
v -0.354754 0.265020 0.010899
v -0.356382 0.260547 0.013871
v -0.357187 0.266154 0.010899
v -0.359567 0.262032 0.013871
v -0.364930 0.266533 0.013871
v -0.352987 0.259637 0.013871
v -0.352161 0.264325 0.010899
v -0.349487 0.264091 0.010899
v -0.349487 0.259331 0.013871
v -0.346812 0.264325 0.010899
v -0.345986 0.259637 0.013871
v -0.344220 0.265020 0.010899
v -0.342592 0.260547 0.013871
v -0.341787 0.266154 0.010899
v -0.339407 0.262032 0.013871
v -0.339588 0.267694 0.010899
v -0.336528 0.264048 0.013871
v -0.337690 0.269592 0.010899
v -0.334043 0.266533 0.013871
v -0.332028 0.269411 0.013871
v -0.369649 0.262573 0.017438
v -0.366946 0.269411 0.013871
v -0.366405 0.259329 0.017438
v -0.372280 0.266331 0.017438
v -0.358489 0.254759 0.017438
v -0.354057 0.253571 0.017438
v -0.362647 0.256697 0.017438
v -0.349487 0.253171 0.017438
v -0.344916 0.253571 0.017438
v -0.340485 0.254759 0.017438
v -0.336327 0.256697 0.017438
v -0.332568 0.259329 0.017438
v -0.329324 0.262573 0.017438
v -0.326693 0.266331 0.017438
v -0.364653 0.276817 0.010899
v -0.369340 0.275990 0.013871
v -0.364887 0.279491 0.010899
v -0.369647 0.279491 0.013871
v -0.364653 0.282165 0.010899
v -0.369340 0.282992 0.013871
v -0.363958 0.284758 0.010899
v -0.349487 0.279491 0.010899
v -0.362823 0.271791 0.010899
v -0.363958 0.274224 0.010899
v -0.368431 0.272596 0.013871
v -0.362823 0.287191 0.010899
v -0.361284 0.289390 0.010899
v -0.359386 0.291288 0.010899
v -0.357187 0.292828 0.010899
v -0.368431 0.286386 0.013871
v -0.366946 0.289571 0.013871
v -0.364930 0.292450 0.013871
v -0.362445 0.294935 0.013871
v -0.359567 0.296950 0.013871
v -0.354754 0.293962 0.010899
v -0.356382 0.298435 0.013871
v -0.352161 0.294657 0.010899
v -0.341787 0.292828 0.010899
v -0.339588 0.291288 0.010899
v -0.337690 0.289390 0.010899
v -0.336150 0.271791 0.010899
v -0.335015 0.274224 0.010899
v -0.334321 0.276817 0.010899
v -0.334087 0.279491 0.010899
v -0.330542 0.272596 0.013871
v -0.329633 0.275990 0.013871
v -0.329327 0.279491 0.013871
v -0.334321 0.282165 0.010899
v -0.335015 0.284758 0.010899
v -0.336150 0.287191 0.010899
v -0.329633 0.282992 0.013871
v -0.330542 0.286386 0.013871
v -0.332028 0.289571 0.013871
v -0.349487 0.294891 0.010899
v -0.346812 0.294657 0.010899
v -0.344220 0.293962 0.010899
v -0.352987 0.299345 0.013871
v -0.349487 0.299651 0.013871
v -0.345986 0.299345 0.013871
v -0.342592 0.298435 0.013871
v -0.336528 0.294935 0.013871
v -0.339407 0.296950 0.013871
v -0.334043 0.292450 0.013871
v -0.374219 0.270489 0.017438
v -0.375407 0.274921 0.017438
v -0.375807 0.279491 0.017438
v -0.375407 0.284062 0.017438
v -0.374219 0.288493 0.017438
v -0.372280 0.292651 0.017438
v -0.369649 0.296409 0.017438
v -0.366405 0.299654 0.017438
v -0.362647 0.302285 0.017438
v -0.358489 0.304224 0.017438
v -0.354057 0.305411 0.017438
v -0.349487 0.305811 0.017438
v -0.344916 0.305411 0.017438
v -0.340485 0.304224 0.017438
v -0.329324 0.296409 0.017438
v -0.332568 0.299654 0.017438
v -0.336327 0.302285 0.017438
v -0.324754 0.270489 0.017438
v -0.323566 0.274921 0.017438
v -0.323167 0.279491 0.017438
v -0.323566 0.284062 0.017438
v -0.324754 0.288493 0.017438
v -0.326693 0.292651 0.017438
v -0.373735 0.265491 0.027247
v -0.370936 0.261493 0.027247
v -0.367485 0.258042 0.027247
v -0.363487 0.255242 0.027247
v -0.359063 0.253180 0.027247
v -0.354349 0.251917 0.027247
v -0.349487 0.251491 0.027247
v -0.344624 0.251917 0.027247
v -0.339910 0.253180 0.027247
v -0.335487 0.255242 0.027247
v -0.331489 0.258042 0.027247
v -0.375798 0.269915 0.027247
v -0.328037 0.261493 0.027247
v -0.377061 0.274629 0.027247
v -0.377487 0.279491 0.027247
v -0.377061 0.284353 0.027247
v -0.375798 0.289068 0.027247
v -0.373735 0.293491 0.027247
v -0.370936 0.297489 0.027247
v -0.367485 0.300940 0.027247
v -0.363487 0.303740 0.027247
v -0.359063 0.305803 0.027247
v -0.354349 0.307066 0.027247
v -0.349487 0.307491 0.027247
v -0.344624 0.307066 0.027247
v -0.339910 0.305803 0.027247
v -0.335487 0.303740 0.027247
v -0.331489 0.300940 0.027247
v -0.325238 0.265491 0.027247
v -0.323175 0.269915 0.027247
v -0.321912 0.274629 0.027247
v -0.321487 0.279491 0.027247
v -0.321912 0.284353 0.027247
v -0.323175 0.289068 0.027247
v -0.325238 0.293491 0.027247
v -0.328037 0.297489 0.027247
v -0.372765 0.266051 0.035272
v -0.370078 0.262213 0.035272
v -0.366765 0.258900 0.035272
v -0.358680 0.254232 0.035272
v -0.362927 0.256212 0.035272
v -0.354154 0.253020 0.035272
v -0.349487 0.252611 0.035272
v -0.344819 0.253020 0.035272
v -0.340293 0.254232 0.035272
v -0.336047 0.256212 0.035272
v -0.332209 0.258900 0.035272
v -0.374746 0.270298 0.035272
v -0.375958 0.274824 0.035272
v -0.376367 0.279491 0.035272
v -0.375958 0.284159 0.035272
v -0.374746 0.288685 0.035272
v -0.372765 0.292931 0.035272
v -0.370078 0.296769 0.035272
v -0.366765 0.300082 0.035272
v -0.362927 0.302770 0.035272
v -0.358680 0.304750 0.035272
v -0.354154 0.305963 0.035272
v -0.349487 0.306371 0.035272
v -0.344819 0.305963 0.035272
v -0.340293 0.304750 0.035272
v -0.336047 0.302770 0.035272
v -0.332209 0.300082 0.035272
v -0.328895 0.262213 0.035272
v -0.326208 0.266051 0.035272
v -0.324228 0.270298 0.035272
v -0.323015 0.274824 0.035272
v -0.322607 0.279491 0.035272
v -0.323015 0.284159 0.035272
v -0.324228 0.288685 0.035272
v -0.326208 0.292931 0.035272
v -0.328895 0.296769 0.035272
v -0.368886 0.268291 0.039136
v -0.363885 0.262332 0.039136
v -0.366646 0.265093 0.039136
v -0.360687 0.260092 0.039136
v -0.357148 0.258442 0.039136
v -0.353376 0.257432 0.039136
v -0.349487 0.257091 0.039136
v -0.345597 0.257432 0.039136
v -0.341825 0.258442 0.039136
v -0.338287 0.260092 0.039136
v -0.335088 0.262332 0.039136
v -0.332327 0.265093 0.039136
v -0.330088 0.268291 0.039136
v -0.370536 0.271830 0.039136
v -0.371546 0.275602 0.039136
v -0.371887 0.279491 0.039136
v -0.371546 0.283381 0.039136
v -0.370536 0.287152 0.039136
v -0.368886 0.290691 0.039136
v -0.366646 0.293890 0.039136
v -0.363885 0.296651 0.039136
v -0.360687 0.298890 0.039136
v -0.357148 0.300540 0.039136
v -0.353376 0.301551 0.039136
v -0.349487 0.301891 0.039136
v -0.345597 0.301551 0.039136
v -0.335088 0.296651 0.039136
v -0.341825 0.300540 0.039136
v -0.338287 0.298890 0.039136
v -0.332327 0.293890 0.039136
v -0.328438 0.271830 0.039136
v -0.327427 0.275602 0.039136
v -0.327087 0.279491 0.039136
v -0.328438 0.287152 0.039136
v -0.327427 0.283381 0.039136
v -0.330088 0.290691 0.039136
v -0.355367 0.269307 0.040622
v -0.358495 0.271932 0.040622
v -0.357046 0.270483 0.040622
v -0.353509 0.268440 0.040622
v -0.351529 0.267910 0.040622
v -0.349487 0.267731 0.040622
v -0.347445 0.267910 0.040622
v -0.345464 0.268440 0.040622
v -0.343607 0.269307 0.040622
v -0.341927 0.270483 0.040622
v -0.340478 0.271932 0.040622
v -0.339302 0.273611 0.040622
v -0.359671 0.273611 0.040622
v -0.360537 0.275469 0.040622
v -0.361068 0.277449 0.040622
v -0.361247 0.279491 0.040622
v -0.361068 0.281533 0.040622
v -0.360537 0.283513 0.040622
v -0.349487 0.279491 0.040622
v -0.359671 0.285371 0.040622
v -0.358495 0.287050 0.040622
v -0.357046 0.288500 0.040622
v -0.355367 0.289676 0.040622
v -0.353509 0.290542 0.040622
v -0.338436 0.275469 0.040622
v -0.351529 0.291073 0.040622
v -0.349487 0.291251 0.040622
v -0.347445 0.291073 0.040622
v -0.338436 0.283513 0.040622
v -0.339302 0.285371 0.040622
v -0.345464 0.290542 0.040622
v -0.343607 0.289676 0.040622
v -0.340478 0.287050 0.040622
v -0.341927 0.288500 0.040622
v -0.337905 0.277449 0.040622
v -0.337727 0.279491 0.040622
v -0.337905 0.281533 0.040622
v -0.360067 0.264929 0.046567
v -0.349487 0.279491 0.046567
v -0.355049 0.262372 0.046567
v -0.349487 0.261491 0.046567
v -0.343924 0.262372 0.046567
v -0.338906 0.264929 0.046567
v -0.366606 0.273929 0.046567
v -0.364049 0.268911 0.046567
v -0.367487 0.279491 0.046567
v -0.366606 0.285054 0.046567
v -0.364049 0.290071 0.046567
v -0.360067 0.294054 0.046567
v -0.355049 0.296610 0.046567
v -0.334924 0.268911 0.046567
v -0.332368 0.273929 0.046567
v -0.331487 0.279491 0.046567
v -0.332368 0.285054 0.046567
v -0.334924 0.290071 0.046567
v -0.338906 0.294054 0.046567
v -0.349487 0.297491 0.046567
v -0.343924 0.296610 0.046567
v -0.364049 0.268911 0.068364
v -0.360067 0.264929 0.068364
v -0.355049 0.262372 0.068364
v -0.349487 0.261491 0.068364
v -0.343924 0.262372 0.068364
v -0.338906 0.264929 0.068364
v -0.366606 0.273929 0.068364
v -0.367487 0.279491 0.068364
v -0.366606 0.285054 0.068364
v -0.364049 0.290071 0.068364
v -0.360067 0.294054 0.068364
v -0.355049 0.296610 0.068364
v -0.334924 0.268911 0.068364
v -0.332368 0.273929 0.068364
v -0.331487 0.279491 0.068364
v -0.332368 0.285054 0.068364
v -0.349487 0.297491 0.068364
v -0.343924 0.296610 0.068364
v -0.334924 0.290071 0.068364
v -0.338906 0.294054 0.068364
v -0.349487 0.279491 0.068364
v -0.361284 -0.289390 0.010899
v -0.364930 -0.292450 0.013871
v -0.362823 -0.287191 0.010899
v -0.359386 -0.291288 0.010899
v -0.362445 -0.294935 0.013871
v -0.357187 -0.292828 0.010899
v -0.359567 -0.296950 0.013871
v -0.354754 -0.293962 0.010899
v -0.356382 -0.298435 0.013871
v -0.366946 -0.289571 0.013871
v -0.352987 -0.299345 0.013871
v -0.364653 -0.282165 0.010899
v -0.369340 -0.282992 0.013871
v -0.364887 -0.279491 0.010899
v -0.369647 -0.279491 0.013871
v -0.364653 -0.276817 0.010899
v -0.369340 -0.275990 0.013871
v -0.363958 -0.274224 0.010899
v -0.349487 -0.279491 0.010899
v -0.363958 -0.284758 0.010899
v -0.368431 -0.286386 0.013871
v -0.362823 -0.271791 0.010899
v -0.361284 -0.269592 0.010899
v -0.359386 -0.267694 0.010899
v -0.357187 -0.266154 0.010899
v -0.368431 -0.272596 0.013871
v -0.366946 -0.269411 0.013871
v -0.352161 -0.294657 0.010899
v -0.349487 -0.294891 0.010899
v -0.346812 -0.294657 0.010899
v -0.344220 -0.293962 0.010899
v -0.341787 -0.292828 0.010899
v -0.349487 -0.299651 0.013871
v -0.345986 -0.299345 0.013871
v -0.342592 -0.298435 0.013871
v -0.339407 -0.296950 0.013871
v -0.339588 -0.291288 0.010899
v -0.336528 -0.294935 0.013871
v -0.337690 -0.289390 0.010899
v -0.334043 -0.292450 0.013871
v -0.336150 -0.287191 0.010899
v -0.332028 -0.289571 0.013871
v -0.354754 -0.265020 0.010899
v -0.352161 -0.264325 0.010899
v -0.349487 -0.264091 0.010899
v -0.346812 -0.264325 0.010899
v -0.344220 -0.265020 0.010899
v -0.341787 -0.266154 0.010899
v -0.339588 -0.267694 0.010899
v -0.337690 -0.269592 0.010899
v -0.335015 -0.284758 0.010899
v -0.334321 -0.282165 0.010899
v -0.334087 -0.279491 0.010899
v -0.330542 -0.286386 0.013871
v -0.329633 -0.282992 0.013871
v -0.329327 -0.279491 0.013871
v -0.334321 -0.276817 0.010899
v -0.335015 -0.274224 0.010899
v -0.336150 -0.271791 0.010899
v -0.330542 -0.272596 0.013871
v -0.329633 -0.275990 0.013871
v -0.332028 -0.269411 0.013871
v -0.334043 -0.266533 0.013871
v -0.372280 -0.292651 0.017438
v -0.369649 -0.296409 0.017438
v -0.374219 -0.288493 0.017438
v -0.366405 -0.299654 0.017438
v -0.362647 -0.302285 0.017438
v -0.358489 -0.304224 0.017438
v -0.354057 -0.305411 0.017438
v -0.375407 -0.284062 0.017438
v -0.375807 -0.279491 0.017438
v -0.375407 -0.274921 0.017438
v -0.374219 -0.270489 0.017438
v -0.349487 -0.305811 0.017438
v -0.344916 -0.305411 0.017438
v -0.340485 -0.304224 0.017438
v -0.336327 -0.302285 0.017438
v -0.332568 -0.299654 0.017438
v -0.329324 -0.296409 0.017438
v -0.326693 -0.292651 0.017438
v -0.364930 -0.266533 0.013871
v -0.362445 -0.264048 0.013871
v -0.359567 -0.262032 0.013871
v -0.356382 -0.260547 0.013871
v -0.352987 -0.259637 0.013871
v -0.349487 -0.259331 0.013871
v -0.345986 -0.259637 0.013871
v -0.342592 -0.260547 0.013871
v -0.339407 -0.262032 0.013871
v -0.336528 -0.264048 0.013871
v -0.372280 -0.266331 0.017438
v -0.369649 -0.262573 0.017438
v -0.366405 -0.259329 0.017438
v -0.362647 -0.256697 0.017438
v -0.358489 -0.254759 0.017438
v -0.354057 -0.253571 0.017438
v -0.349487 -0.253171 0.017438
v -0.344916 -0.253571 0.017438
v -0.340485 -0.254759 0.017438
v -0.336327 -0.256697 0.017438
v -0.329324 -0.262573 0.017438
v -0.332568 -0.259329 0.017438
v -0.324754 -0.288493 0.017438
v -0.323566 -0.284062 0.017438
v -0.323167 -0.279491 0.017438
v -0.323566 -0.274921 0.017438
v -0.324754 -0.270489 0.017438
v -0.326693 -0.266331 0.017438
v -0.367485 -0.300940 0.027247
v -0.373735 -0.293491 0.027247
v -0.370936 -0.297489 0.027247
v -0.359063 -0.305803 0.027247
v -0.363487 -0.303740 0.027247
v -0.354349 -0.307066 0.027247
v -0.375798 -0.289068 0.027247
v -0.377061 -0.284353 0.027247
v -0.377487 -0.279491 0.027247
v -0.377061 -0.274629 0.027247
v -0.349487 -0.307491 0.027247
v -0.344624 -0.307066 0.027247
v -0.339910 -0.305803 0.027247
v -0.335487 -0.303740 0.027247
v -0.331489 -0.300940 0.027247
v -0.375798 -0.269915 0.027247
v -0.328037 -0.297489 0.027247
v -0.373735 -0.265491 0.027247
v -0.370936 -0.261493 0.027247
v -0.367485 -0.258042 0.027247
v -0.363487 -0.255242 0.027247
v -0.359063 -0.253180 0.027247
v -0.354349 -0.251917 0.027247
v -0.349487 -0.251491 0.027247
v -0.344624 -0.251917 0.027247
v -0.331489 -0.258042 0.027247
v -0.339910 -0.253180 0.027247
v -0.335487 -0.255242 0.027247
v -0.325238 -0.293491 0.027247
v -0.323175 -0.289068 0.027247
v -0.321912 -0.284353 0.027247
v -0.321487 -0.279491 0.027247
v -0.321912 -0.274629 0.027247
v -0.323175 -0.269915 0.027247
v -0.325238 -0.265491 0.027247
v -0.328037 -0.261493 0.027247
v -0.366765 -0.300082 0.035272
v -0.372765 -0.292931 0.035272
v -0.370078 -0.296769 0.035272
v -0.358680 -0.304750 0.035272
v -0.362927 -0.302770 0.035272
v -0.354154 -0.305963 0.035272
v -0.374746 -0.288685 0.035272
v -0.375958 -0.284159 0.035272
v -0.376367 -0.279491 0.035272
v -0.375958 -0.274824 0.035272
v -0.349487 -0.306371 0.035272
v -0.344819 -0.305963 0.035272
v -0.340293 -0.304750 0.035272
v -0.336047 -0.302770 0.035272
v -0.332209 -0.300082 0.035272
v -0.374746 -0.270298 0.035272
v -0.372765 -0.266051 0.035272
v -0.370078 -0.262213 0.035272
v -0.366765 -0.258900 0.035272
v -0.362927 -0.256212 0.035272
v -0.358680 -0.254232 0.035272
v -0.354154 -0.253020 0.035272
v -0.349487 -0.252611 0.035272
v -0.344819 -0.253020 0.035272
v -0.332209 -0.258900 0.035272
v -0.340293 -0.254232 0.035272
v -0.336047 -0.256212 0.035272
v -0.328895 -0.296769 0.035272
v -0.326208 -0.292931 0.035272
v -0.324228 -0.288685 0.035272
v -0.323015 -0.284159 0.035272
v -0.322607 -0.279491 0.035272
v -0.323015 -0.274824 0.035272
v -0.324228 -0.270298 0.035272
v -0.326208 -0.266051 0.035272
v -0.328895 -0.262213 0.035272
v -0.368886 -0.290691 0.039136
v -0.366646 -0.293890 0.039136
v -0.363885 -0.296651 0.039136
v -0.360687 -0.298890 0.039136
v -0.357148 -0.300540 0.039136
v -0.353376 -0.301551 0.039136
v -0.370536 -0.287152 0.039136
v -0.371546 -0.283381 0.039136
v -0.371887 -0.279491 0.039136
v -0.371546 -0.275602 0.039136
v -0.370536 -0.271830 0.039136
v -0.349487 -0.301891 0.039136
v -0.345597 -0.301551 0.039136
v -0.341825 -0.300540 0.039136
v -0.338287 -0.298890 0.039136
v -0.335088 -0.296651 0.039136
v -0.332327 -0.293890 0.039136
v -0.330088 -0.290691 0.039136
v -0.368886 -0.268291 0.039136
v -0.366646 -0.265093 0.039136
v -0.363885 -0.262332 0.039136
v -0.360687 -0.260092 0.039136
v -0.357148 -0.258442 0.039136
v -0.353376 -0.257432 0.039136
v -0.345597 -0.257432 0.039136
v -0.349487 -0.257091 0.039136
v -0.335088 -0.262332 0.039136
v -0.341825 -0.258442 0.039136
v -0.338287 -0.260092 0.039136
v -0.332327 -0.265093 0.039136
v -0.328438 -0.287152 0.039136
v -0.327427 -0.283381 0.039136
v -0.327087 -0.279491 0.039136
v -0.328438 -0.271830 0.039136
v -0.327427 -0.275602 0.039136
v -0.330088 -0.268291 0.039136
v -0.355367 -0.289676 0.040622
v -0.358495 -0.287050 0.040622
v -0.357046 -0.288500 0.040622
v -0.353509 -0.290542 0.040622
v -0.351529 -0.291073 0.040622
v -0.359671 -0.285371 0.040622
v -0.360537 -0.283513 0.040622
v -0.361068 -0.281533 0.040622
v -0.361247 -0.279491 0.040622
v -0.361068 -0.277449 0.040622
v -0.360537 -0.275469 0.040622
v -0.349487 -0.279491 0.040622
v -0.359671 -0.273611 0.040622
v -0.358495 -0.271932 0.040622
v -0.357046 -0.270483 0.040622
v -0.355367 -0.269307 0.040622
v -0.349487 -0.291251 0.040622
v -0.347445 -0.291073 0.040622
v -0.345464 -0.290542 0.040622
v -0.343607 -0.289676 0.040622
v -0.341927 -0.288500 0.040622
v -0.340478 -0.287050 0.040622
v -0.339302 -0.285371 0.040622
v -0.338436 -0.283513 0.040622
v -0.353509 -0.268440 0.040622
v -0.351529 -0.267910 0.040622
v -0.349487 -0.267731 0.040622
v -0.347445 -0.267910 0.040622
v -0.340478 -0.271932 0.040622
v -0.341927 -0.270483 0.040622
v -0.338436 -0.275469 0.040622
v -0.339302 -0.273611 0.040622
v -0.345464 -0.268440 0.040622
v -0.343607 -0.269307 0.040622
v -0.337905 -0.281533 0.040622
v -0.337727 -0.279491 0.040622
v -0.337905 -0.277449 0.040622
v -0.360067 -0.294054 0.046567
v -0.349487 -0.279491 0.046567
v -0.355049 -0.296610 0.046567
v -0.366606 -0.285054 0.046567
v -0.364049 -0.290071 0.046567
v -0.367487 -0.279491 0.046567
v -0.366606 -0.273929 0.046567
v -0.364049 -0.268911 0.046567
v -0.360067 -0.264929 0.046567
v -0.349487 -0.297491 0.046567
v -0.343924 -0.296610 0.046567
v -0.338906 -0.294054 0.046567
v -0.334924 -0.290071 0.046567
v -0.332368 -0.285054 0.046567
v -0.331487 -0.279491 0.046567
v -0.332368 -0.273929 0.046567
v -0.334924 -0.268911 0.046567
v -0.338906 -0.264929 0.046567
v -0.355049 -0.262372 0.046567
v -0.349487 -0.261491 0.046567
v -0.343924 -0.262372 0.046567
v -0.364049 -0.290071 0.068364
v -0.360067 -0.294054 0.068364
v -0.366606 -0.285054 0.068364
v -0.367487 -0.279491 0.068364
v -0.366606 -0.273929 0.068364
v -0.364049 -0.268911 0.068364
v -0.355049 -0.296610 0.068364
v -0.349487 -0.297491 0.068364
v -0.343924 -0.296610 0.068364
v -0.338906 -0.294054 0.068364
v -0.334924 -0.290071 0.068364
v -0.332368 -0.285054 0.068364
v -0.331487 -0.279491 0.068364
v -0.332368 -0.273929 0.068364
v -0.360067 -0.264929 0.068364
v -0.355049 -0.262372 0.068364
v -0.349487 -0.261491 0.068364
v -0.343924 -0.262372 0.068364
v -0.334924 -0.268911 0.068364
v -0.338906 -0.264929 0.068364
v -0.349487 -0.279491 0.068364
v 0.332028 -0.289571 0.013871
v 0.326693 -0.292651 0.017438
v 0.330542 -0.286386 0.013871
v 0.324754 -0.288493 0.017438
v 0.329324 -0.296409 0.017438
v 0.329633 -0.282992 0.013871
v 0.323566 -0.284062 0.017438
v 0.329327 -0.279491 0.013871
v 0.323167 -0.279491 0.017438
v 0.329633 -0.275990 0.013871
v 0.323566 -0.274921 0.017438
v 0.330542 -0.272596 0.013871
v 0.324754 -0.270489 0.017438
v 0.332028 -0.269411 0.013871
v 0.326693 -0.266331 0.017438
v 0.329324 -0.262573 0.017438
v 0.334043 -0.266533 0.013871
v 0.337690 -0.289390 0.010899
v 0.334043 -0.292450 0.013871
v 0.336150 -0.287191 0.010899
v 0.341787 -0.292828 0.010899
v 0.339407 -0.296950 0.013871
v 0.339588 -0.291288 0.010899
v 0.336528 -0.294935 0.013871
v 0.349487 -0.279491 0.010899
v 0.344220 -0.293962 0.010899
v 0.346812 -0.294657 0.010899
v 0.349487 -0.294891 0.010899
v 0.352161 -0.294657 0.010899
v 0.354754 -0.293962 0.010899
v 0.357187 -0.292828 0.010899
v 0.342592 -0.298435 0.013871
v 0.345986 -0.299345 0.013871
v 0.349487 -0.299651 0.013871
v 0.352987 -0.299345 0.013871
v 0.356382 -0.298435 0.013871
v 0.335015 -0.284758 0.010899
v 0.334321 -0.282165 0.010899
v 0.334087 -0.279491 0.010899
v 0.334321 -0.276817 0.010899
v 0.335015 -0.274224 0.010899
v 0.336150 -0.271791 0.010899
v 0.337690 -0.269592 0.010899
v 0.339588 -0.267694 0.010899
v 0.341787 -0.266154 0.010899
v 0.344220 -0.265020 0.010899
v 0.346812 -0.264325 0.010899
v 0.349487 -0.264091 0.010899
v 0.352161 -0.264325 0.010899
v 0.354754 -0.265020 0.010899
v 0.357187 -0.266154 0.010899
v 0.359567 -0.296950 0.013871
v 0.359386 -0.291288 0.010899
v 0.362445 -0.294935 0.013871
v 0.361284 -0.289390 0.010899
v 0.364930 -0.292450 0.013871
v 0.362823 -0.287191 0.010899
v 0.366946 -0.289571 0.013871
v 0.363958 -0.284758 0.010899
v 0.364653 -0.282165 0.010899
v 0.364887 -0.279491 0.010899
v 0.368431 -0.286386 0.013871
v 0.364653 -0.276817 0.010899
v 0.363958 -0.274224 0.010899
v 0.362823 -0.271791 0.010899
v 0.359386 -0.267694 0.010899
v 0.361284 -0.269592 0.010899
v 0.368431 -0.272596 0.013871
v 0.366946 -0.269411 0.013871
v 0.364930 -0.266533 0.013871
v 0.369340 -0.282992 0.013871
v 0.369647 -0.279491 0.013871
v 0.369340 -0.275990 0.013871
v 0.336327 -0.302285 0.017438
v 0.340485 -0.304224 0.017438
v 0.332568 -0.299654 0.017438
v 0.344916 -0.305411 0.017438
v 0.349487 -0.305811 0.017438
v 0.354057 -0.305411 0.017438
v 0.358489 -0.304224 0.017438
v 0.362647 -0.302285 0.017438
v 0.366405 -0.299654 0.017438
v 0.369649 -0.296409 0.017438
v 0.372280 -0.292651 0.017438
v 0.374219 -0.288493 0.017438
v 0.375407 -0.284062 0.017438
v 0.375807 -0.279491 0.017438
v 0.375407 -0.274921 0.017438
v 0.374219 -0.270489 0.017438
v 0.372280 -0.266331 0.017438
v 0.336528 -0.264048 0.013871
v 0.339407 -0.262032 0.013871
v 0.342592 -0.260547 0.013871
v 0.345986 -0.259637 0.013871
v 0.349487 -0.259331 0.013871
v 0.352987 -0.259637 0.013871
v 0.359567 -0.262032 0.013871
v 0.356382 -0.260547 0.013871
v 0.362445 -0.264048 0.013871
v 0.332568 -0.259329 0.017438
v 0.336327 -0.256697 0.017438
v 0.340485 -0.254759 0.017438
v 0.344916 -0.253571 0.017438
v 0.349487 -0.253171 0.017438
v 0.354057 -0.253571 0.017438
v 0.362647 -0.256697 0.017438
v 0.366405 -0.259329 0.017438
v 0.358489 -0.254759 0.017438
v 0.369649 -0.262573 0.017438
v 0.328037 -0.297489 0.027247
v 0.325238 -0.293491 0.027247
v 0.323175 -0.289068 0.027247
v 0.321912 -0.284353 0.027247
v 0.321487 -0.279491 0.027247
v 0.321912 -0.274629 0.027247
v 0.331489 -0.300940 0.027247
v 0.323175 -0.269915 0.027247
v 0.325238 -0.265491 0.027247
v 0.328037 -0.261493 0.027247
v 0.335487 -0.303740 0.027247
v 0.339910 -0.305803 0.027247
v 0.344624 -0.307066 0.027247
v 0.349487 -0.307491 0.027247
v 0.354349 -0.307066 0.027247
v 0.359063 -0.305803 0.027247
v 0.363487 -0.303740 0.027247
v 0.367485 -0.300940 0.027247
v 0.370936 -0.297489 0.027247
v 0.373735 -0.293491 0.027247
v 0.375798 -0.289068 0.027247
v 0.377061 -0.284353 0.027247
v 0.377487 -0.279491 0.027247
v 0.377061 -0.274629 0.027247
v 0.375798 -0.269915 0.027247
v 0.331489 -0.258042 0.027247
v 0.335487 -0.255242 0.027247
v 0.339910 -0.253180 0.027247
v 0.344624 -0.251917 0.027247
v 0.349487 -0.251491 0.027247
v 0.354349 -0.251917 0.027247
v 0.359063 -0.253180 0.027247
v 0.363487 -0.255242 0.027247
v 0.367485 -0.258042 0.027247
v 0.370936 -0.261493 0.027247
v 0.373735 -0.265491 0.027247
v 0.328895 -0.296769 0.035272
v 0.326208 -0.292931 0.035272
v 0.324228 -0.288685 0.035272
v 0.323015 -0.284159 0.035272
v 0.322607 -0.279491 0.035272
v 0.323015 -0.274824 0.035272
v 0.324228 -0.270298 0.035272
v 0.326208 -0.266051 0.035272
v 0.328895 -0.262213 0.035272
v 0.332209 -0.300082 0.035272
v 0.336047 -0.302770 0.035272
v 0.340293 -0.304750 0.035272
v 0.344819 -0.305963 0.035272
v 0.349487 -0.306371 0.035272
v 0.354154 -0.305963 0.035272
v 0.358680 -0.304750 0.035272
v 0.362927 -0.302770 0.035272
v 0.366765 -0.300082 0.035272
v 0.370078 -0.296769 0.035272
v 0.372765 -0.292931 0.035272
v 0.374746 -0.288685 0.035272
v 0.375958 -0.284159 0.035272
v 0.376367 -0.279491 0.035272
v 0.375958 -0.274824 0.035272
v 0.374746 -0.270298 0.035272
v 0.332209 -0.258900 0.035272
v 0.336047 -0.256212 0.035272
v 0.340293 -0.254232 0.035272
v 0.344819 -0.253020 0.035272
v 0.349487 -0.252611 0.035272
v 0.354154 -0.253020 0.035272
v 0.362927 -0.256212 0.035272
v 0.358680 -0.254232 0.035272
v 0.366765 -0.258900 0.035272
v 0.370078 -0.262213 0.035272
v 0.372765 -0.266051 0.035272
v 0.332327 -0.293890 0.039136
v 0.330088 -0.290691 0.039136
v 0.328438 -0.287152 0.039136
v 0.327427 -0.283381 0.039136
v 0.327087 -0.279491 0.039136
v 0.327427 -0.275602 0.039136
v 0.328438 -0.271830 0.039136
v 0.330088 -0.268291 0.039136
v 0.338287 -0.298890 0.039136
v 0.341825 -0.300540 0.039136
v 0.335088 -0.296651 0.039136
v 0.345597 -0.301551 0.039136
v 0.349487 -0.301891 0.039136
v 0.353376 -0.301551 0.039136
v 0.357148 -0.300540 0.039136
v 0.360687 -0.298890 0.039136
v 0.363885 -0.296651 0.039136
v 0.366646 -0.293890 0.039136
v 0.368886 -0.290691 0.039136
v 0.370536 -0.287152 0.039136
v 0.371546 -0.283381 0.039136
v 0.371887 -0.279491 0.039136
v 0.371546 -0.275602 0.039136
v 0.370536 -0.271830 0.039136
v 0.368886 -0.268291 0.039136
v 0.332327 -0.265093 0.039136
v 0.335088 -0.262332 0.039136
v 0.338287 -0.260092 0.039136
v 0.341825 -0.258442 0.039136
v 0.345597 -0.257432 0.039136
v 0.349487 -0.257091 0.039136
v 0.353376 -0.257432 0.039136
v 0.357148 -0.258442 0.039136
v 0.360687 -0.260092 0.039136
v 0.366646 -0.265093 0.039136
v 0.363885 -0.262332 0.039136
v 0.340478 -0.287050 0.040622
v 0.343607 -0.289676 0.040622
v 0.345464 -0.290542 0.040622
v 0.341927 -0.288500 0.040622
v 0.349487 -0.291251 0.040622
v 0.351529 -0.291073 0.040622
v 0.347445 -0.291073 0.040622
v 0.353509 -0.290542 0.040622
v 0.339302 -0.285371 0.040622
v 0.338436 -0.283513 0.040622
v 0.337905 -0.281533 0.040622
v 0.337727 -0.279491 0.040622
v 0.349487 -0.279491 0.040622
v 0.337905 -0.277449 0.040622
v 0.338436 -0.275469 0.040622
v 0.339302 -0.273611 0.040622
v 0.340478 -0.271932 0.040622
v 0.355367 -0.289676 0.040622
v 0.341927 -0.270483 0.040622
v 0.343607 -0.269307 0.040622
v 0.345464 -0.268440 0.040622
v 0.347445 -0.267910 0.040622
v 0.349487 -0.267731 0.040622
v 0.351529 -0.267910 0.040622
v 0.353509 -0.268440 0.040622
v 0.355367 -0.269307 0.040622
v 0.357046 -0.288500 0.040622
v 0.358495 -0.287050 0.040622
v 0.359671 -0.285371 0.040622
v 0.360537 -0.283513 0.040622
v 0.361068 -0.281533 0.040622
v 0.361247 -0.279491 0.040622
v 0.361068 -0.277449 0.040622
v 0.360537 -0.275469 0.040622
v 0.357046 -0.270483 0.040622
v 0.358495 -0.271932 0.040622
v 0.359671 -0.273611 0.040622
v 0.338906 -0.294054 0.046567
v 0.349487 -0.279491 0.046567
v 0.343924 -0.296610 0.046567
v 0.349487 -0.297491 0.046567
v 0.355049 -0.296610 0.046567
v 0.332368 -0.285054 0.046567
v 0.334924 -0.290071 0.046567
v 0.331487 -0.279491 0.046567
v 0.332368 -0.273929 0.046567
v 0.334924 -0.268911 0.046567
v 0.338906 -0.264929 0.046567
v 0.360067 -0.294054 0.046567
v 0.364049 -0.290071 0.046567
v 0.366606 -0.285054 0.046567
v 0.367487 -0.279491 0.046567
v 0.364049 -0.268911 0.046567
v 0.360067 -0.264929 0.046567
v 0.366606 -0.273929 0.046567
v 0.343924 -0.262372 0.046567
v 0.349487 -0.261491 0.046567
v 0.355049 -0.262372 0.046567
v 0.338906 -0.294054 0.068364
v 0.334924 -0.290071 0.068364
v 0.343924 -0.296610 0.068364
v 0.349487 -0.297491 0.068364
v 0.332368 -0.285054 0.068364
v 0.331487 -0.279491 0.068364
v 0.332368 -0.273929 0.068364
v 0.334924 -0.268911 0.068364
v 0.355049 -0.296610 0.068364
v 0.360067 -0.294054 0.068364
v 0.364049 -0.290071 0.068364
v 0.366606 -0.285054 0.068364
v 0.367487 -0.279491 0.068364
v 0.366606 -0.273929 0.068364
v 0.338906 -0.264929 0.068364
v 0.343924 -0.262372 0.068364
v 0.349487 -0.261491 0.068364
v 0.355049 -0.262372 0.068364
v 0.360067 -0.264929 0.068364
v 0.364049 -0.268911 0.068364
v 0.349487 -0.279491 0.068364
f 1 2 3
f 3 2 4
f 4 5 6
f 6 7 8
f 2 5 4
f 5 7 6
f 7 9 8
f 8 9 10
f 10 11 12
f 12 13 14
f 9 11 10
f 11 13 12
f 13 15 14
f 15 16 17
f 18 19 20
f 21 22 18
f 23 24 21
f 25 26 23
f 27 28 25
f 29 30 27
f 19 31 20
f 24 22 21
f 22 19 18
f 26 24 23
f 28 26 25
f 30 28 27
f 32 30 29
f 33 32 29
f 34 35 33
f 36 37 34
f 38 39 36
f 35 32 33
f 37 35 34
f 39 37 36
f 40 39 38
f 24 41 22
f 41 42 22
f 19 43 31
f 31 1 3
f 22 42 19
f 43 1 31
f 42 43 19
f 26 44 24
f 28 45 26
f 30 46 28
f 44 41 24
f 45 44 26
f 46 45 28
f 32 47 30
f 47 46 30
f 48 47 32
f 49 48 35
f 35 48 32
f 37 49 35
f 39 50 37
f 40 51 39
f 50 49 37
f 51 50 39
f 52 51 40
f 53 20 54
f 53 54 55
f 53 55 56
f 53 56 57
f 20 31 54
f 54 3 55
f 56 6 57
f 55 4 56
f 53 57 58
f 53 58 59
f 53 59 60
f 53 60 61
f 57 8 58
f 58 10 59
f 59 12 60
f 53 21 18
f 53 18 20
f 53 23 21
f 53 25 23
f 53 27 25
f 53 29 27
f 53 33 29
f 53 34 33
f 53 61 62
f 53 62 63
f 3 4 55
f 31 3 54
f 4 6 56
f 6 8 57
f 8 10 58
f 10 12 59
f 12 14 60
f 60 14 61
f 61 17 62
f 62 64 63
f 63 65 66
f 53 63 66
f 53 66 67
f 53 67 68
f 53 68 69
f 53 69 70
f 53 70 71
f 66 72 67
f 67 73 68
f 68 74 69
f 69 75 70
f 14 17 61
f 17 64 62
f 64 65 63
f 65 72 66
f 72 73 67
f 73 74 68
f 74 75 69
f 53 36 34
f 53 38 36
f 53 76 38
f 53 77 76
f 53 78 77
f 53 79 78
f 76 40 38
f 77 80 76
f 53 81 79
f 53 82 81
f 53 71 83
f 53 83 84
f 53 84 85
f 53 85 82
f 82 86 81
f 85 87 82
f 78 88 77
f 79 89 78
f 81 90 79
f 80 40 76
f 88 80 77
f 89 88 78
f 90 89 79
f 86 90 81
f 87 86 82
f 70 91 71
f 71 92 83
f 83 93 84
f 84 94 85
f 75 91 70
f 91 92 71
f 94 87 85
f 93 94 84
f 92 93 83
f 14 15 17
f 17 16 64
f 64 95 65
f 16 95 64
f 65 96 72
f 95 96 65
f 96 97 72
f 72 97 73
f 73 98 74
f 74 99 75
f 97 98 73
f 98 99 74
f 99 100 75
f 80 52 40
f 88 101 80
f 89 102 88
f 101 52 80
f 102 101 88
f 90 103 89
f 86 104 90
f 103 102 89
f 104 103 90
f 93 105 94
f 75 100 91
f 91 106 92
f 92 107 93
f 100 106 91
f 106 107 92
f 107 105 93
f 94 108 87
f 87 109 86
f 108 109 87
f 105 108 94
f 109 104 86
f 1 110 2
f 2 111 5
f 111 112 5
f 113 110 1
f 110 111 2
f 5 112 7
f 7 114 9
f 9 115 11
f 11 116 13
f 13 117 15
f 15 118 16
f 16 119 95
f 112 114 7
f 114 115 9
f 115 116 11
f 116 117 13
f 117 118 15
f 118 119 16
f 42 120 43
f 41 121 42
f 43 113 1
f 44 122 41
f 45 123 44
f 46 124 45
f 47 125 46
f 48 126 47
f 49 127 48
f 50 128 49
f 51 129 50
f 52 130 51
f 120 113 43
f 122 121 41
f 121 120 42
f 123 122 44
f 124 123 45
f 125 124 46
f 126 125 47
f 127 126 48
f 128 127 49
f 129 128 50
f 130 129 51
f 95 131 96
f 96 132 97
f 97 133 98
f 98 134 99
f 99 135 100
f 101 136 52
f 102 137 101
f 103 138 102
f 104 139 103
f 100 140 106
f 107 141 105
f 106 142 107
f 108 143 109
f 109 144 104
f 105 145 108
f 119 131 95
f 131 132 96
f 132 133 97
f 133 134 98
f 134 135 99
f 135 140 100
f 136 130 52
f 137 136 101
f 138 137 102
f 139 138 103
f 140 142 106
f 142 141 107
f 144 139 104
f 143 144 109
f 141 145 105
f 145 143 108
f 110 146 111
f 111 147 112
f 112 148 114
f 114 149 115
f 115 150 116
f 116 151 117
f 117 152 118
f 118 153 119
f 119 154 131
f 120 155 113
f 121 156 120
f 113 157 110
f 122 158 121
f 123 159 122
f 124 160 123
f 125 161 124
f 126 162 125
f 127 163 126
f 128 164 127
f 129 165 128
f 130 166 129
f 131 167 132
f 132 168 133
f 133 169 134
f 134 170 135
f 135 171 140
f 136 172 130
f 137 173 136
f 138 174 137
f 139 175 138
f 140 176 142
f 141 177 145
f 142 178 141
f 143 179 144
f 144 180 139
f 145 181 143
f 157 146 110
f 146 147 111
f 147 148 112
f 147 182 148
f 146 183 147
f 183 182 147
f 148 149 114
f 149 150 115
f 150 151 116
f 151 152 117
f 152 153 118
f 153 154 119
f 149 184 150
f 148 185 149
f 150 186 151
f 151 187 152
f 182 185 148
f 185 184 149
f 184 186 150
f 186 187 151
f 187 188 152
f 152 188 153
f 153 189 154
f 188 189 153
f 155 157 113
f 158 156 121
f 156 155 120
f 159 158 122
f 160 159 123
f 161 160 124
f 162 161 125
f 163 162 126
f 164 163 127
f 165 164 128
f 166 165 129
f 155 190 157
f 156 191 155
f 157 192 146
f 159 193 158
f 158 194 156
f 160 195 159
f 191 190 155
f 192 183 146
f 190 192 157
f 194 191 156
f 193 194 158
f 195 193 159
f 161 196 160
f 162 197 161
f 163 198 162
f 164 199 163
f 165 200 164
f 196 195 160
f 197 196 161
f 198 197 162
f 199 198 163
f 200 199 164
f 201 200 165
f 154 167 131
f 167 168 132
f 168 169 133
f 169 170 134
f 170 171 135
f 171 176 140
f 172 166 130
f 173 172 136
f 174 173 137
f 175 174 138
f 176 178 142
f 178 177 141
f 180 175 139
f 179 180 144
f 177 181 145
f 181 179 143
f 154 202 167
f 167 203 168
f 168 204 169
f 169 205 170
f 170 206 171
f 171 207 176
f 189 202 154
f 202 203 167
f 203 204 168
f 204 205 169
f 205 206 170
f 206 207 171
f 207 208 176
f 166 201 165
f 172 209 166
f 173 210 172
f 174 211 173
f 175 212 174
f 209 201 166
f 210 209 172
f 211 210 173
f 212 211 174
f 176 208 178
f 178 213 177
f 177 214 181
f 181 215 179
f 179 216 180
f 180 217 175
f 208 213 178
f 213 214 177
f 214 215 181
f 217 212 175
f 216 217 180
f 215 216 179
f 183 218 182
f 190 219 192
f 191 220 190
f 192 221 183
f 219 221 192
f 194 222 191
f 220 219 190
f 222 220 191
f 223 222 194
f 193 223 194
f 195 224 193
f 224 223 193
f 225 224 195
f 196 225 195
f 197 226 196
f 226 225 196
f 227 226 197
f 198 227 197
f 199 228 198
f 200 229 199
f 228 227 198
f 182 230 185
f 230 231 185
f 185 231 184
f 184 232 186
f 231 232 184
f 218 230 182
f 221 218 183
f 233 232 231
f 186 234 187
f 232 234 186
f 234 235 187
f 187 235 188
f 188 236 189
f 235 236 188
f 236 237 189
f 233 234 232
f 233 235 234
f 233 236 235
f 233 221 219
f 233 219 220
f 233 220 222
f 233 230 218
f 233 231 230
f 233 218 221
f 233 222 223
f 233 223 224
f 233 224 225
f 233 225 226
f 233 237 236
f 233 238 237
f 233 239 238
f 233 240 239
f 233 241 240
f 233 242 241
f 233 243 242
f 233 244 243
f 233 245 244
f 233 246 245
f 189 237 202
f 202 238 203
f 237 238 202
f 238 239 203
f 239 240 204
f 203 239 204
f 204 240 205
f 205 241 206
f 240 241 205
f 241 242 206
f 242 243 207
f 243 244 208
f 206 242 207
f 207 243 208
f 229 228 199
f 247 229 200
f 248 247 201
f 249 248 209
f 233 226 227
f 233 227 228
f 233 228 229
f 233 229 247
f 233 247 248
f 250 249 210
f 251 250 211
f 252 253 217
f 253 251 212
f 233 251 253
f 233 248 249
f 233 249 250
f 233 250 251
f 233 252 254
f 233 253 252
f 233 254 246
f 201 247 200
f 209 248 201
f 210 249 209
f 211 250 210
f 212 251 211
f 217 253 212
f 245 246 214
f 246 254 215
f 208 244 213
f 213 245 214
f 244 245 213
f 215 254 216
f 216 252 217
f 254 252 216
f 214 246 215
f 255 256 257
f 257 256 258
f 258 256 259
f 259 256 260
f 261 256 255
f 262 256 261
f 263 256 262
f 264 256 263
f 265 256 264
f 266 256 265
f 267 256 266
f 268 256 267
f 269 256 268
f 260 256 270
f 270 256 271
f 271 256 272
f 273 256 274
f 272 256 275
f 275 256 273
f 274 256 269
f 255 257 276
f 261 255 277
f 257 258 278
f 258 259 279
f 259 260 280
f 260 270 281
f 262 261 282
f 263 262 283
f 264 263 284
f 265 264 285
f 266 265 286
f 267 266 287
f 268 267 288
f 269 268 289
f 270 271 290
f 271 272 291
f 272 275 292
f 275 273 293
f 274 269 294
f 273 274 295
f 277 255 276
f 276 257 278
f 278 258 279
f 279 259 280
f 280 260 281
f 281 270 290
f 282 261 277
f 283 262 282
f 284 263 283
f 285 264 284
f 286 265 285
f 287 266 286
f 288 267 287
f 289 268 288
f 290 271 291
f 291 272 292
f 292 275 293
f 294 269 289
f 295 274 294
f 293 273 295
f 276 278 296
f 278 279 296
f 279 280 296
f 280 281 296
f 277 276 296
f 282 277 296
f 283 282 296
f 284 283 296
f 285 284 296
f 286 285 296
f 287 286 296
f 288 287 296
f 289 288 296
f 281 290 296
f 290 291 296
f 291 292 296
f 295 294 296
f 292 293 296
f 293 295 296
f 294 289 296
f 297 298 299
f 300 301 302
f 302 303 297
f 298 304 299
f 303 298 297
f 301 303 302
f 305 301 300
f 306 305 300
f 307 308 306
f 309 310 307
f 311 312 309
f 313 314 311
f 315 316 313
f 317 318 315
f 308 305 306
f 310 308 307
f 312 310 309
f 314 312 311
f 316 314 313
f 318 316 315
f 319 318 317
f 304 320 321
f 322 320 304
f 320 323 321
f 301 324 303
f 305 325 301
f 324 326 303
f 325 324 301
f 298 322 304
f 303 326 298
f 326 322 298
f 308 327 305
f 310 328 308
f 312 329 310
f 327 325 305
f 328 327 308
f 329 328 310
f 330 329 312
f 331 330 314
f 314 330 312
f 316 331 314
f 318 332 316
f 319 333 318
f 332 331 316
f 334 335 336
f 336 337 338
f 338 339 340
f 341 299 342
f 341 302 297
f 341 297 299
f 341 342 343
f 341 343 334
f 341 334 336
f 299 304 342
f 342 321 343
f 343 344 334
f 341 336 338
f 341 338 340
f 341 340 345
f 341 345 346
f 341 346 347
f 341 347 348
f 340 349 345
f 321 344 343
f 344 335 334
f 335 337 336
f 337 339 338
f 339 349 340
f 349 350 345
f 304 321 342
f 345 350 346
f 346 351 347
f 347 352 348
f 348 353 354
f 354 355 356
f 350 351 346
f 351 352 347
f 352 353 348
f 353 355 354
f 341 300 302
f 341 306 300
f 341 307 306
f 341 309 307
f 341 311 309
f 341 313 311
f 341 315 313
f 341 317 315
f 341 357 358
f 341 358 359
f 341 360 317
f 341 361 360
f 341 362 361
f 341 363 362
f 360 319 317
f 361 364 360
f 362 365 361
f 363 366 362
f 341 367 363
f 341 368 367
f 341 359 369
f 341 369 368
f 367 370 363
f 368 371 367
f 369 372 368
f 364 319 360
f 365 364 361
f 366 365 362
f 370 366 363
f 371 370 367
f 372 371 368
f 341 348 354
f 341 354 356
f 341 356 373
f 341 373 374
f 341 374 375
f 341 375 357
f 356 376 373
f 373 377 374
f 374 378 375
f 375 379 357
f 358 380 359
f 357 381 358
f 359 382 369
f 355 376 356
f 378 379 375
f 376 377 373
f 377 378 374
f 379 381 357
f 381 380 358
f 382 372 369
f 380 382 359
f 321 323 344
f 344 383 335
f 335 384 337
f 323 383 344
f 383 384 335
f 384 385 337
f 337 385 339
f 339 386 349
f 349 387 350
f 385 386 339
f 386 387 349
f 350 388 351
f 387 388 350
f 388 389 351
f 389 390 352
f 351 389 352
f 352 390 353
f 353 391 355
f 355 392 376
f 390 391 353
f 391 392 355
f 392 393 376
f 376 393 377
f 377 394 378
f 378 395 379
f 393 394 377
f 394 395 378
f 395 396 379
f 382 397 372
f 380 398 382
f 398 397 382
f 379 396 381
f 381 399 380
f 396 399 381
f 399 398 380
f 333 332 318
f 400 333 319
f 364 400 319
f 365 401 364
f 366 402 365
f 401 400 364
f 402 401 365
f 370 403 366
f 371 404 370
f 403 402 366
f 404 403 370
f 372 405 371
f 397 405 372
f 405 404 371
f 323 406 383
f 320 407 323
f 322 408 320
f 326 409 322
f 324 410 326
f 325 411 324
f 327 412 325
f 328 413 327
f 329 414 328
f 330 415 329
f 331 416 330
f 409 408 322
f 406 417 383
f 407 406 323
f 408 407 320
f 410 409 326
f 411 410 324
f 412 411 325
f 413 412 327
f 414 413 328
f 415 414 329
f 416 415 330
f 418 416 331
f 383 417 384
f 384 419 385
f 385 420 386
f 386 421 387
f 387 422 388
f 388 423 389
f 389 424 390
f 390 425 391
f 391 426 392
f 392 427 393
f 393 428 394
f 394 429 395
f 395 430 396
f 396 431 399
f 399 432 398
f 398 433 397
f 417 419 384
f 419 420 385
f 420 421 386
f 421 422 387
f 422 423 388
f 423 424 389
f 424 425 390
f 425 426 391
f 426 427 392
f 427 428 393
f 428 429 394
f 429 430 395
f 430 431 396
f 431 432 399
f 432 433 398
f 332 418 331
f 333 434 332
f 400 435 333
f 434 418 332
f 435 434 333
f 401 436 400
f 402 437 401
f 403 438 402
f 404 439 403
f 405 440 404
f 397 441 405
f 436 435 400
f 437 436 401
f 438 437 402
f 439 438 403
f 441 440 405
f 440 439 404
f 433 441 397
f 406 442 417
f 407 443 406
f 408 444 407
f 410 445 409
f 409 446 408
f 411 447 410
f 412 448 411
f 413 449 412
f 414 450 413
f 415 451 414
f 416 452 415
f 417 453 419
f 419 454 420
f 420 455 421
f 421 456 422
f 422 457 423
f 423 458 424
f 424 459 425
f 425 460 426
f 426 461 427
f 427 462 428
f 428 463 429
f 429 464 430
f 430 465 431
f 431 466 432
f 432 467 433
f 433 468 441
f 418 469 416
f 434 470 418
f 435 471 434
f 436 472 435
f 437 473 436
f 438 474 437
f 439 475 438
f 440 476 439
f 441 477 440
f 446 444 408
f 443 442 406
f 442 453 417
f 444 443 407
f 445 446 409
f 447 445 410
f 448 447 411
f 449 448 412
f 450 449 413
f 451 450 414
f 452 451 415
f 469 452 416
f 442 478 453
f 444 479 443
f 443 480 442
f 446 481 444
f 445 482 446
f 447 483 445
f 479 480 443
f 480 478 442
f 482 481 446
f 483 482 445
f 481 479 444
f 448 484 447
f 449 485 448
f 450 486 449
f 451 487 450
f 452 488 451
f 469 489 452
f 484 483 447
f 485 484 448
f 486 485 449
f 487 486 450
f 488 487 451
f 489 488 452
f 490 489 469
f 453 454 419
f 454 455 420
f 455 456 421
f 456 457 422
f 457 458 423
f 458 459 424
f 459 460 425
f 460 461 426
f 461 462 427
f 462 463 428
f 463 464 429
f 464 465 430
f 465 466 431
f 466 467 432
f 467 468 433
f 453 491 454
f 454 492 455
f 455 493 456
f 456 494 457
f 491 492 454
f 492 493 455
f 478 491 453
f 493 494 456
f 494 495 457
f 457 495 458
f 458 496 459
f 459 497 460
f 460 498 461
f 461 499 462
f 462 500 463
f 495 496 458
f 496 497 459
f 497 498 460
f 498 499 461
f 499 500 462
f 500 501 463
f 463 501 464
f 464 502 465
f 465 503 466
f 468 504 477
f 466 505 467
f 467 506 468
f 501 502 464
f 503 505 466
f 502 503 465
f 504 507 477
f 505 506 467
f 506 504 468
f 470 469 418
f 471 470 434
f 470 490 469
f 508 490 470
f 472 471 435
f 473 472 436
f 474 473 437
f 475 474 438
f 476 475 439
f 477 476 440
f 468 477 441
f 471 508 470
f 472 509 471
f 473 510 472
f 475 511 474
f 474 512 473
f 509 508 471
f 510 509 472
f 512 510 473
f 511 512 474
f 476 513 475
f 477 507 476
f 513 511 475
f 507 513 476
f 481 514 479
f 480 515 478
f 479 516 480
f 482 517 481
f 483 518 482
f 514 516 479
f 517 514 481
f 518 517 482
f 484 519 483
f 520 519 484
f 519 518 483
f 485 520 484
f 486 521 485
f 521 520 485
f 522 521 486
f 487 522 486
f 488 523 487
f 523 522 487
f 524 523 488
f 489 524 488
f 490 525 489
f 478 526 491
f 491 527 492
f 492 528 493
f 493 529 494
f 494 530 495
f 495 531 496
f 526 527 491
f 515 526 478
f 516 515 480
f 527 528 492
f 532 516 514
f 532 528 527
f 532 526 515
f 532 527 526
f 532 515 516
f 528 529 493
f 529 530 494
f 530 531 495
f 531 533 496
f 532 529 528
f 532 530 529
f 532 531 530
f 532 533 531
f 532 534 533
f 532 535 534
f 532 536 535
f 496 533 497
f 497 534 498
f 533 534 497
f 534 535 498
f 498 535 499
f 535 536 499
f 499 536 500
f 500 537 501
f 536 537 500
f 532 514 517
f 532 517 518
f 532 518 519
f 532 519 520
f 532 520 521
f 532 521 522
f 532 522 523
f 532 523 524
f 532 524 525
f 532 525 538
f 532 537 536
f 532 539 537
f 532 540 539
f 532 541 540
f 532 542 543
f 532 544 541
f 532 545 544
f 532 546 547
f 532 543 546
f 532 547 545
f 525 524 489
f 508 538 490
f 538 525 490
f 509 548 508
f 510 549 509
f 548 538 508
f 549 548 509
f 532 538 548
f 546 543 513
f 512 550 510
f 550 549 510
f 542 550 512
f 511 542 512
f 513 543 511
f 543 542 511
f 532 548 549
f 532 549 550
f 532 550 542
f 537 539 501
f 539 540 502
f 544 545 506
f 503 541 505
f 540 541 503
f 541 544 505
f 501 539 502
f 502 540 503
f 504 547 507
f 545 547 504
f 547 546 507
f 505 544 506
f 506 545 504
f 507 546 513
f 551 552 553
f 553 552 554
f 554 552 555
f 555 552 556
f 557 552 558
f 559 552 557
f 558 552 551
f 560 552 559
f 561 552 560
f 562 552 561
f 563 552 562
f 556 552 564
f 564 552 565
f 565 552 566
f 566 552 567
f 568 552 569
f 567 552 568
f 570 552 563
f 571 552 570
f 569 552 571
f 558 551 572
f 551 553 573
f 553 554 574
f 554 555 575
f 555 556 576
f 556 564 577
f 557 558 578
f 559 557 579
f 560 559 580
f 561 560 581
f 562 561 582
f 563 562 583
f 564 565 584
f 565 566 585
f 566 567 586
f 567 568 587
f 570 563 588
f 571 570 589
f 568 569 590
f 569 571 591
f 572 551 573
f 573 553 574
f 574 554 575
f 575 555 576
f 576 556 577
f 577 564 584
f 579 557 578
f 580 559 579
f 581 560 580
f 578 558 572
f 582 561 581
f 583 562 582
f 584 565 585
f 585 566 586
f 586 567 587
f 588 563 583
f 589 570 588
f 591 571 589
f 590 569 591
f 587 568 590
f 573 574 592
f 574 575 592
f 575 576 592
f 576 577 592
f 578 572 592
f 579 578 592
f 572 573 592
f 580 579 592
f 581 580 592
f 582 581 592
f 583 582 592
f 577 584 592
f 584 585 592
f 585 586 592
f 586 587 592
f 590 591 592
f 587 590 592
f 588 583 592
f 589 588 592
f 591 589 592
f 593 594 595
f 596 597 593
f 598 599 596
f 600 601 598
f 599 597 596
f 597 594 593
f 594 602 595
f 601 599 598
f 603 601 600
f 604 605 606
f 606 607 608
f 608 609 610
f 611 595 612
f 611 593 595
f 611 596 593
f 611 598 596
f 611 612 604
f 611 604 606
f 595 602 612
f 612 613 604
f 611 606 608
f 611 608 610
f 611 610 614
f 611 614 615
f 611 615 616
f 611 616 617
f 610 618 614
f 614 619 615
f 602 613 612
f 613 605 604
f 605 607 606
f 607 609 608
f 609 618 610
f 618 619 614
f 611 600 598
f 611 620 600
f 611 621 620
f 611 622 621
f 611 623 622
f 611 624 623
f 620 603 600
f 621 625 620
f 622 626 621
f 623 627 622
f 624 628 623
f 629 630 624
f 631 632 629
f 633 634 631
f 625 603 620
f 626 625 621
f 627 626 622
f 628 627 623
f 630 628 624
f 632 630 629
f 634 632 631
f 611 629 624
f 611 631 629
f 611 617 635
f 611 635 636
f 611 636 637
f 611 637 638
f 611 638 639
f 611 639 640
f 611 641 642
f 611 640 641
f 611 633 631
f 611 643 633
f 611 644 643
f 611 645 644
f 643 646 633
f 644 647 643
f 645 648 644
f 611 649 645
f 611 650 649
f 611 651 650
f 611 642 651
f 650 652 649
f 649 653 645
f 651 654 650
f 642 655 651
f 646 634 633
f 647 646 643
f 648 647 644
f 653 648 645
f 652 653 649
f 655 654 651
f 654 652 650
f 602 656 613
f 594 657 602
f 656 658 613
f 659 657 594
f 657 656 602
f 599 660 597
f 601 661 599
f 603 662 601
f 660 659 597
f 661 660 599
f 662 661 601
f 597 659 594
f 613 658 605
f 605 663 607
f 658 663 605
f 663 664 607
f 607 664 609
f 609 665 618
f 618 666 619
f 664 665 609
f 665 666 618
f 625 667 603
f 626 668 625
f 627 669 626
f 667 662 603
f 668 667 625
f 669 668 626
f 628 670 627
f 670 669 627
f 671 670 628
f 630 671 628
f 632 672 630
f 634 673 632
f 672 671 630
f 615 674 616
f 616 675 617
f 617 676 635
f 635 677 636
f 619 674 615
f 674 675 616
f 675 676 617
f 676 677 635
f 636 678 637
f 637 679 638
f 638 680 639
f 639 681 640
f 640 682 641
f 641 683 642
f 677 678 636
f 678 679 637
f 679 680 638
f 680 681 639
f 682 683 641
f 681 682 640
f 683 655 642
f 619 684 674
f 666 684 619
f 684 685 674
f 685 686 675
f 674 685 675
f 675 686 676
f 676 687 677
f 677 688 678
f 686 687 676
f 687 688 677
f 688 689 678
f 678 689 679
f 679 690 680
f 680 691 681
f 689 690 679
f 690 691 680
f 691 692 681
f 682 693 683
f 655 694 654
f 683 695 655
f 693 695 683
f 695 694 655
f 681 692 682
f 692 693 682
f 673 672 632
f 696 673 634
f 646 696 634
f 647 697 646
f 648 698 647
f 697 696 646
f 698 697 647
f 653 699 648
f 652 700 653
f 654 701 652
f 699 698 648
f 700 699 653
f 701 700 652
f 694 701 654
f 659 702 657
f 656 703 658
f 657 704 656
f 661 705 660
f 660 706 659
f 662 707 661
f 658 708 663
f 663 709 664
f 664 710 665
f 665 711 666
f 667 712 662
f 668 713 667
f 669 714 668
f 670 715 669
f 671 716 670
f 702 704 657
f 706 702 659
f 704 703 656
f 703 708 658
f 705 706 660
f 707 705 661
f 708 709 663
f 709 710 664
f 710 711 665
f 711 717 666
f 712 707 662
f 713 712 667
f 714 713 668
f 715 714 669
f 716 715 670
f 718 716 671
f 666 717 684
f 684 719 685
f 685 720 686
f 686 721 687
f 687 722 688
f 688 723 689
f 689 724 690
f 690 725 691
f 691 726 692
f 695 727 694
f 692 728 693
f 693 729 695
f 717 719 684
f 719 720 685
f 720 721 686
f 721 722 687
f 722 723 688
f 723 724 689
f 724 725 690
f 725 726 691
f 728 729 693
f 726 728 692
f 729 727 695
f 672 718 671
f 673 730 672
f 696 731 673
f 697 732 696
f 698 733 697
f 699 734 698
f 700 735 699
f 730 718 672
f 731 730 673
f 732 731 696
f 733 732 697
f 734 733 698
f 735 734 699
f 701 736 700
f 694 737 701
f 737 736 701
f 727 737 694
f 736 735 700
f 702 738 704
f 703 739 708
f 704 740 703
f 705 741 706
f 706 742 702
f 707 743 705
f 708 744 709
f 709 745 710
f 710 746 711
f 711 747 717
f 712 748 707
f 713 749 712
f 714 750 713
f 715 751 714
f 716 752 715
f 717 753 719
f 719 754 720
f 720 755 721
f 721 756 722
f 722 757 723
f 723 758 724
f 724 759 725
f 725 760 726
f 726 761 728
f 727 762 737
f 728 763 729
f 729 764 727
f 718 765 716
f 730 766 718
f 731 767 730
f 732 768 731
f 733 769 732
f 734 770 733
f 735 771 734
f 736 772 735
f 737 773 736
f 738 740 704
f 742 738 702
f 740 739 703
f 739 744 708
f 741 742 706
f 743 741 705
f 744 745 709
f 745 746 710
f 746 747 711
f 747 753 717
f 748 743 707
f 749 748 712
f 750 749 713
f 751 750 714
f 752 751 715
f 765 752 716
f 739 774 744
f 740 775 739
f 738 776 740
f 742 777 738
f 741 778 742
f 743 779 741
f 776 775 740
f 775 774 739
f 774 780 744
f 777 776 738
f 778 777 742
f 779 778 741
f 744 780 745
f 745 781 746
f 746 782 747
f 747 783 753
f 753 784 754
f 780 781 745
f 781 782 746
f 782 783 747
f 783 784 753
f 748 785 743
f 749 786 748
f 750 787 749
f 751 788 750
f 752 789 751
f 765 790 752
f 785 779 743
f 786 785 748
f 787 786 749
f 788 787 750
f 789 788 751
f 790 789 752
f 791 790 765
f 753 754 719
f 754 755 720
f 755 756 721
f 756 757 722
f 757 758 723
f 758 759 724
f 759 760 725
f 760 761 726
f 763 764 729
f 761 763 728
f 764 762 727
f 754 792 755
f 755 793 756
f 756 794 757
f 757 795 758
f 758 796 759
f 784 792 754
f 792 793 755
f 793 794 756
f 794 795 757
f 795 796 758
f 796 797 759
f 759 797 760
f 761 798 763
f 760 799 761
f 762 800 773
f 763 801 764
f 764 802 762
f 797 799 760
f 799 798 761
f 798 801 763
f 802 800 762
f 800 803 773
f 801 802 764
f 766 765 718
f 767 766 730
f 768 767 731
f 769 768 732
f 770 769 733
f 771 770 734
f 766 791 765
f 767 804 766
f 804 791 766
f 768 805 767
f 769 806 768
f 771 807 770
f 770 808 769
f 805 804 767
f 806 805 768
f 808 806 769
f 807 808 770
f 809 807 771
f 772 771 735
f 773 772 736
f 762 773 737
f 773 803 772
f 772 809 771
f 803 809 772
f 777 810 776
f 775 811 774
f 776 812 775
f 812 811 775
f 778 813 777
f 779 814 778
f 814 813 778
f 810 812 776
f 813 810 777
f 774 815 780
f 780 816 781
f 781 817 782
f 782 818 783
f 783 819 784
f 784 820 792
f 815 816 780
f 811 815 774
f 816 817 781
f 817 818 782
f 821 812 810
f 821 815 811
f 821 811 812
f 821 817 816
f 821 818 817
f 821 819 818
f 821 816 815
f 818 819 783
f 819 820 784
f 820 822 792
f 822 823 793
f 821 820 819
f 821 822 820
f 821 823 822
f 821 824 823
f 821 825 824
f 785 826 779
f 786 827 785
f 826 814 779
f 827 826 785
f 787 828 786
f 828 827 786
f 829 828 787
f 788 829 787
f 789 830 788
f 830 829 788
f 831 830 789
f 832 831 790
f 790 831 789
f 791 832 790
f 821 810 813
f 821 813 814
f 821 814 826
f 821 826 827
f 821 827 828
f 821 828 829
f 821 829 830
f 821 830 831
f 821 831 832
f 821 832 833
f 821 834 825
f 821 835 834
f 821 836 835
f 821 837 836
f 821 838 839
f 821 840 841
f 821 841 838
f 821 842 837
f 821 843 842
f 821 839 843
f 804 833 791
f 805 844 804
f 833 832 791
f 844 833 804
f 806 845 805
f 845 844 805
f 846 845 806
f 821 833 844
f 821 844 845
f 821 845 846
f 839 838 803
f 838 841 809
f 808 846 806
f 807 840 808
f 840 846 808
f 809 841 807
f 841 840 807
f 821 846 840
f 792 822 793
f 793 823 794
f 794 824 795
f 823 824 794
f 824 825 795
f 825 834 796
f 795 825 796
f 796 834 797
f 834 835 797
f 797 835 799
f 799 836 798
f 835 836 799
f 836 837 798
f 837 842 801
f 842 843 802
f 798 837 801
f 800 839 803
f 843 839 800
f 801 842 802
f 802 843 800
f 803 838 809
f 847 848 849
f 850 848 851
f 852 848 850
f 851 848 847
f 853 848 852
f 854 848 853
f 855 848 854
f 849 848 856
f 856 848 857
f 857 848 858
f 858 848 859
f 859 848 860
f 860 848 861
f 861 848 862
f 862 848 863
f 863 848 864
f 865 848 855
f 866 848 865
f 867 848 866
f 864 848 867
f 851 847 868
f 847 849 869
f 850 851 870
f 852 850 871
f 853 852 872
f 854 853 873
f 849 856 874
f 856 857 875
f 857 858 876
f 858 859 877
f 859 860 878
f 860 861 879
f 861 862 880
f 862 863 881
f 855 854 882
f 865 855 883
f 866 865 884
f 867 866 885
f 863 864 886
f 864 867 887
f 870 851 868
f 868 847 869
f 869 849 874
f 871 850 870
f 872 852 871
f 873 853 872
f 874 856 875
f 875 857 876
f 876 858 877
f 877 859 878
f 878 860 879
f 879 861 880
f 880 862 881
f 881 863 886
f 882 854 873
f 883 855 882
f 884 865 883
f 885 866 884
f 887 867 885
f 886 864 887
f 869 874 888
f 870 868 888
f 871 870 888
f 868 869 888
f 872 871 888
f 873 872 888
f 882 873 888
f 874 875 888
f 875 876 888
f 876 877 888
f 877 878 888
f 878 879 888
f 879 880 888
f 880 881 888
f 881 886 888
f 886 887 888
f 883 882 888
f 884 883 888
f 885 884 888
f 887 885 888
f 889 890 891
f 890 892 891
f 893 890 889
f 891 892 894
f 894 895 896
f 892 895 894
f 895 897 896
f 896 897 898
f 898 899 900
f 900 901 902
f 897 899 898
f 899 901 900
f 901 903 902
f 903 904 905
f 906 907 908
f 909 910 911
f 911 912 906
f 913 914 909
f 913 915 914
f 913 916 915
f 913 917 916
f 913 918 917
f 913 919 918
f 914 920 909
f 915 921 914
f 916 922 915
f 917 923 916
f 912 907 906
f 907 889 908
f 910 912 911
f 920 910 909
f 922 921 915
f 923 922 916
f 921 920 914
f 924 923 917
f 913 908 925
f 913 906 908
f 913 925 926
f 913 926 927
f 908 889 925
f 925 891 926
f 926 894 927
f 913 927 928
f 913 928 929
f 913 929 930
f 913 930 931
f 927 896 928
f 928 898 929
f 929 900 930
f 930 902 931
f 913 911 906
f 913 909 911
f 913 931 932
f 913 932 933
f 913 933 934
f 913 934 935
f 913 935 936
f 913 936 937
f 913 937 938
f 913 938 939
f 889 891 925
f 891 894 926
f 894 896 927
f 896 898 928
f 898 900 929
f 900 902 930
f 918 924 917
f 919 940 918
f 941 942 919
f 943 944 941
f 945 946 943
f 940 924 918
f 942 940 919
f 944 942 941
f 946 944 943
f 913 941 919
f 913 943 941
f 913 945 943
f 913 947 945
f 913 948 947
f 913 949 948
f 947 950 945
f 913 951 949
f 913 952 951
f 913 953 952
f 913 954 955
f 913 939 954
f 913 955 953
f 952 956 951
f 953 957 952
f 955 958 953
f 948 959 947
f 949 960 948
f 951 961 949
f 958 957 953
f 950 946 945
f 959 950 947
f 960 959 948
f 961 960 949
f 956 961 951
f 957 956 952
f 910 962 912
f 920 963 910
f 962 964 912
f 963 962 910
f 912 964 907
f 907 893 889
f 964 893 907
f 921 965 920
f 922 966 921
f 923 967 922
f 965 963 920
f 966 965 921
f 967 966 922
f 924 968 923
f 940 969 924
f 968 967 923
f 969 968 924
f 970 969 940
f 942 970 940
f 944 971 942
f 946 972 944
f 971 970 942
f 972 971 944
f 973 972 946
f 950 973 946
f 959 974 950
f 960 975 959
f 974 973 950
f 975 974 959
f 961 976 960
f 956 977 961
f 957 978 956
f 976 975 960
f 977 976 961
f 978 977 956
f 931 905 932
f 932 979 933
f 933 980 934
f 934 981 935
f 935 982 936
f 936 983 937
f 937 984 938
f 902 905 931
f 905 979 932
f 979 980 933
f 980 981 934
f 981 982 935
f 982 983 936
f 983 984 937
f 939 985 954
f 938 986 939
f 954 987 955
f 984 986 938
f 986 985 939
f 985 987 954
f 987 958 955
f 902 903 905
f 905 904 979
f 979 988 980
f 980 989 981
f 904 988 979
f 988 989 980
f 989 990 981
f 981 990 982
f 982 991 983
f 983 992 984
f 990 991 982
f 991 992 983
f 992 993 984
f 985 994 987
f 987 995 958
f 994 995 987
f 984 993 986
f 986 996 985
f 993 996 986
f 996 994 985
f 958 997 957
f 997 978 957
f 995 997 958
f 893 998 890
f 890 999 892
f 892 1000 895
f 895 1001 897
f 897 1002 899
f 899 1003 901
f 1004 998 893
f 999 1000 892
f 998 999 890
f 1000 1001 895
f 1001 1002 897
f 1002 1003 899
f 1003 1005 901
f 901 1005 903
f 903 1006 904
f 904 1007 988
f 1005 1006 903
f 1006 1007 904
f 964 1004 893
f 962 1008 964
f 963 1009 962
f 965 1010 963
f 966 1011 965
f 967 1012 966
f 968 1013 967
f 969 1014 968
f 970 1015 969
f 971 1016 970
f 972 1017 971
f 973 1018 972
f 974 1019 973
f 975 1020 974
f 976 1021 975
f 977 1022 976
f 1008 1004 964
f 1009 1008 962
f 1010 1009 963
f 1011 1010 965
f 1012 1011 966
f 1013 1012 967
f 1014 1013 968
f 1015 1014 969
f 1016 1015 970
f 1017 1016 971
f 1018 1017 972
f 1019 1018 973
f 1020 1019 974
f 1021 1020 975
f 1022 1021 976
f 988 1023 989
f 989 1024 990
f 990 1025 991
f 991 1026 992
f 992 1027 993
f 993 1028 996
f 996 1029 994
f 994 1030 995
f 995 1031 997
f 997 1032 978
f 978 1033 977
f 1007 1023 988
f 1023 1024 989
f 1024 1025 990
f 1025 1026 991
f 1026 1027 992
f 1027 1028 993
f 1028 1029 996
f 1029 1030 994
f 1031 1032 997
f 1032 1033 978
f 1033 1022 977
f 1030 1031 995
f 998 1034 999
f 999 1035 1000
f 1000 1036 1001
f 1001 1037 1002
f 1002 1038 1003
f 1003 1039 1005
f 1005 1040 1006
f 1006 1041 1007
f 1007 1042 1023
f 1004 1043 998
f 1008 1044 1004
f 1009 1045 1008
f 1010 1046 1009
f 1011 1047 1010
f 1012 1048 1011
f 1013 1049 1012
f 1014 1050 1013
f 1015 1051 1014
f 1016 1052 1015
f 1017 1053 1016
f 1018 1054 1017
f 1019 1055 1018
f 1020 1056 1019
f 1021 1057 1020
f 1022 1058 1021
f 1023 1059 1024
f 1024 1060 1025
f 1025 1061 1026
f 1026 1062 1027
f 1027 1063 1028
f 1028 1064 1029
f 1030 1065 1031
f 1029 1066 1030
f 1031 1067 1032
f 1032 1068 1033
f 1033 1069 1022
f 1043 1034 998
f 1034 1035 999
f 1035 1036 1000
f 1036 1037 1001
f 1037 1038 1002
f 1038 1039 1003
f 1039 1040 1005
f 1034 1070 1035
f 1035 1071 1036
f 1070 1071 1035
f 1071 1072 1036
f 1037 1073 1038
f 1036 1072 1037
f 1038 1074 1039
f 1039 1075 1040
f 1040 1076 1041
f 1072 1073 1037
f 1073 1074 1038
f 1074 1075 1039
f 1075 1076 1040
f 1040 1041 1006
f 1041 1042 1007
f 1041 1077 1042
f 1076 1077 1041
f 1044 1043 1004
f 1045 1044 1008
f 1046 1045 1009
f 1047 1046 1010
f 1048 1047 1011
f 1049 1048 1012
f 1050 1049 1013
f 1051 1050 1014
f 1052 1051 1015
f 1053 1052 1016
f 1054 1053 1017
f 1055 1054 1018
f 1056 1055 1019
f 1057 1056 1020
f 1058 1057 1021
f 1044 1078 1043
f 1045 1079 1044
f 1043 1080 1034
f 1046 1081 1045
f 1047 1082 1046
f 1048 1083 1047
f 1078 1080 1043
f 1079 1078 1044
f 1080 1070 1034
f 1082 1081 1046
f 1081 1079 1045
f 1083 1082 1047
f 1049 1084 1048
f 1050 1085 1049
f 1051 1086 1050
f 1052 1087 1051
f 1053 1088 1052
f 1054 1089 1053
f 1084 1083 1048
f 1085 1084 1049
f 1086 1085 1050
f 1087 1086 1051
f 1088 1087 1052
f 1089 1088 1053
f 1055 1090 1054
f 1056 1091 1055
f 1057 1092 1056
f 1058 1093 1057
f 1090 1089 1054
f 1091 1090 1055
f 1094 1093 1058
f 1092 1091 1056
f 1093 1092 1057
f 1042 1059 1023
f 1059 1060 1024
f 1060 1061 1025
f 1061 1062 1026
f 1062 1063 1027
f 1063 1064 1028
f 1064 1066 1029
f 1066 1065 1030
f 1067 1068 1032
f 1069 1058 1022
f 1068 1069 1033
f 1065 1067 1031
f 1042 1095 1059
f 1059 1096 1060
f 1060 1097 1061
f 1061 1098 1062
f 1062 1099 1063
f 1063 1100 1064
f 1077 1095 1042
f 1095 1096 1059
f 1096 1097 1060
f 1097 1098 1061
f 1098 1099 1062
f 1099 1100 1063
f 1100 1101 1064
f 1064 1101 1066
f 1066 1102 1065
f 1065 1103 1067
f 1068 1104 1069
f 1067 1105 1068
f 1069 1094 1058
f 1103 1105 1067
f 1101 1102 1066
f 1102 1103 1065
f 1104 1094 1069
f 1105 1104 1068
f 1070 1106 1071
f 1078 1107 1080
f 1079 1108 1078
f 1080 1109 1070
f 1109 1106 1070
f 1107 1109 1080
f 1082 1110 1081
f 1083 1111 1082
f 1081 1112 1079
f 1112 1108 1079
f 1110 1112 1081
f 1108 1107 1078
f 1111 1110 1082
f 1113 1111 1083
f 1071 1114 1072
f 1072 1115 1073
f 1114 1115 1072
f 1073 1116 1074
f 1115 1116 1073
f 1116 1117 1074
f 1106 1114 1071
f 1118 1116 1115
f 1118 1117 1116
f 1118 1119 1117
f 1074 1117 1075
f 1075 1119 1076
f 1117 1119 1075
f 1119 1120 1076
f 1076 1120 1077
f 1120 1121 1077
f 1121 1122 1095
f 1118 1120 1119
f 1118 1109 1107
f 1118 1114 1106
f 1118 1106 1109
f 1118 1107 1108
f 1118 1108 1112
f 1118 1115 1114
f 1118 1112 1110
f 1118 1110 1111
f 1118 1111 1113
f 1118 1113 1123
f 1118 1121 1120
f 1118 1122 1121
f 1118 1124 1122
f 1118 1125 1124
f 1118 1126 1125
f 1118 1127 1126
f 1118 1128 1127
f 1118 1129 1128
f 1118 1130 1129
f 1118 1131 1130
f 1084 1113 1083
f 1085 1123 1084
f 1123 1113 1084
f 1132 1123 1085
f 1086 1132 1085
f 1087 1133 1086
f 1088 1134 1087
f 1133 1132 1086
f 1134 1133 1087
f 1135 1134 1088
f 1136 1135 1089
f 1137 1136 1090
f 1138 1137 1091
f 1118 1123 1132
f 1118 1132 1133
f 1118 1133 1134
f 1118 1134 1135
f 1118 1135 1136
f 1118 1136 1137
f 1118 1137 1138
f 1139 1138 1092
f 1140 1141 1104
f 1141 1142 1094
f 1142 1139 1093
f 1118 1141 1140
f 1118 1139 1142
f 1118 1142 1141
f 1118 1138 1139
f 1118 1140 1131
f 1089 1135 1088
f 1090 1136 1089
f 1091 1137 1090
f 1092 1138 1091
f 1093 1139 1092
f 1094 1142 1093
f 1077 1121 1095
f 1095 1122 1096
f 1096 1124 1097
f 1122 1124 1096
f 1124 1125 1097
f 1097 1125 1098
f 1125 1126 1098
f 1126 1127 1099
f 1098 1126 1099
f 1099 1127 1100
f 1128 1129 1101
f 1100 1128 1101
f 1127 1128 1100
f 1129 1130 1102
f 1130 1131 1103
f 1131 1140 1105
f 1101 1129 1102
f 1102 1130 1103
f 1105 1140 1104
f 1104 1141 1094
f 1103 1131 1105
f 1143 1144 1145
f 1145 1144 1146
f 1146 1144 1147
f 1148 1144 1149
f 1149 1144 1143
f 1150 1144 1148
f 1151 1144 1150
f 1152 1144 1151
f 1153 1144 1152
f 1147 1144 1154
f 1154 1144 1155
f 1155 1144 1156
f 1156 1144 1157
f 1158 1144 1159
f 1157 1144 1160
f 1160 1144 1158
f 1161 1144 1153
f 1162 1144 1161
f 1163 1144 1162
f 1159 1144 1163
f 1143 1145 1164
f 1149 1143 1165
f 1145 1146 1166
f 1146 1147 1167
f 1148 1149 1168
f 1150 1148 1169
f 1151 1150 1170
f 1152 1151 1171
f 1147 1154 1172
f 1154 1155 1173
f 1155 1156 1174
f 1156 1157 1175
f 1157 1160 1176
f 1160 1158 1177
f 1153 1152 1178
f 1161 1153 1179
f 1162 1161 1180
f 1163 1162 1181
f 1159 1163 1182
f 1158 1159 1183
f 1168 1149 1165
f 1165 1143 1164
f 1164 1145 1166
f 1166 1146 1167
f 1167 1147 1172
f 1169 1148 1168
f 1170 1150 1169
f 1171 1151 1170
f 1172 1154 1173
f 1173 1155 1174
f 1177 1158 1183
f 1174 1156 1175
f 1175 1157 1176
f 1176 1160 1177
f 1178 1152 1171
f 1179 1153 1178
f 1180 1161 1179
f 1181 1162 1180
f 1182 1163 1181
f 1183 1159 1182
f 1164 1166 1184
f 1166 1167 1184
f 1167 1172 1184
f 1168 1165 1184
f 1165 1164 1184
f 1169 1168 1184
f 1170 1169 1184
f 1171 1170 1184
f 1178 1171 1184
f 1172 1173 1184
f 1173 1174 1184
f 1174 1175 1184
f 1175 1176 1184
f 1183 1182 1184
f 1176 1177 1184
f 1177 1183 1184
f 1179 1178 1184
f 1180 1179 1184
f 1181 1180 1184
f 1182 1181 1184
