# sionna2 mesh — m350rtk__gear_cf.obj
# group=gear_cf  verts=652  tris=1296
v 0.077673 0.154419 -0.227607
v 0.089661 0.173292 -0.258542
v 0.089987 0.172961 -0.259184
v 0.092715 0.171587 -0.261856
v 0.080173 0.151197 -0.228508
v 0.093599 0.171415 -0.262936
v 0.097823 0.171161 -0.266538
v 0.083508 0.148598 -0.228729
v 0.076529 0.158068 -0.225941
v 0.088288 0.175947 -0.255911
v 0.088284 0.175770 -0.256086
v 0.076912 0.161598 -0.223760
v 0.078457 0.164721 -0.221368
v 0.088780 0.179470 -0.254194
v 0.088741 0.179292 -0.254222
v 0.090674 0.183000 -0.253641
v 0.091087 0.183741 -0.253757
v 0.081044 0.167115 -0.218998
v 0.093767 0.186708 -0.254222
v 0.095085 0.188260 -0.255006
v 0.084614 0.168234 -0.216986
v 0.060673 0.128819 -0.184013
v 0.059529 0.132468 -0.182347
v 0.059912 0.135998 -0.180166
v 0.061457 0.139121 -0.177774
v 0.063173 0.125597 -0.184913
v 0.087369 0.146887 -0.228238
v 0.066508 0.122998 -0.185134
v 0.091386 0.146566 -0.226885
v 0.070369 0.121287 -0.184643
v 0.074386 0.120966 -0.183290
v 0.094956 0.147685 -0.224873
v 0.077956 0.122085 -0.181278
v 0.097543 0.150079 -0.222503
v 0.080543 0.124479 -0.178908
v 0.099088 0.153202 -0.220111
v 0.082088 0.127602 -0.176516
v 0.099471 0.156732 -0.217930
v 0.082471 0.131132 -0.174335
v 0.043673 0.103219 -0.140418
v 0.046173 0.099997 -0.141319
v 0.049508 0.097398 -0.141540
v 0.053369 0.095687 -0.141049
v 0.042529 0.106868 -0.138753
v 0.042912 0.110398 -0.136571
v 0.044457 0.113521 -0.134179
v 0.047044 0.115915 -0.131809
v 0.064044 0.141515 -0.175404
v 0.050614 0.117034 -0.129797
v 0.067614 0.142634 -0.173392
v 0.057386 0.095366 -0.139696
v 0.060956 0.096485 -0.137684
v 0.063543 0.098879 -0.135314
v 0.065088 0.102002 -0.132922
v 0.081327 0.134781 -0.172669
v 0.095827 0.163603 -0.215363
v 0.078827 0.138003 -0.171769
v 0.098327 0.160381 -0.216264
v 0.065471 0.105532 -0.130741
v 0.075492 0.140602 -0.171548
v 0.092492 0.166202 -0.215142
v 0.088631 0.167913 -0.215633
v 0.071631 0.142313 -0.172039
v 0.101510 0.171587 -0.269204
v 0.103172 0.173017 -0.271984
v 0.104369 0.172487 -0.271832
v 0.108386 0.172166 -0.270479
v 0.096917 0.171000 -0.265530
v 0.098581 0.171296 -0.267381
v 0.108515 0.172206 -0.270407
v 0.108212 0.171587 -0.269204
v 0.109750 0.171000 -0.265530
v 0.110258 0.171079 -0.265034
v 0.110518 0.171120 -0.264780
v 0.111404 0.171587 -0.261856
v 0.112322 0.172335 -0.260403
v 0.104390 0.172832 -0.271625
v 0.108366 0.172228 -0.270451
v 0.101614 0.193834 -0.260581
v 0.101199 0.193210 -0.259517
v 0.101255 0.193118 -0.259338
v 0.101634 0.193772 -0.260609
v 0.101485 0.193794 -0.260653
v 0.105631 0.193513 -0.259228
v 0.101502 0.192708 -0.258542
v 0.105610 0.193168 -0.259435
v 0.106828 0.192983 -0.259076
v 0.106509 0.192708 -0.258542
v 0.112718 0.173292 -0.258542
v 0.113469 0.174858 -0.256990
v 0.113490 0.175947 -0.255911
v 0.113813 0.178330 -0.254708
v 0.112940 0.182387 -0.253737
v 0.110961 0.186393 -0.254173
v 0.095888 0.188785 -0.255271
v 0.097827 0.190053 -0.255911
v 0.100753 0.192538 -0.258373
v 0.100992 0.192592 -0.258427
v 0.110640 0.186708 -0.254222
v 0.108581 0.189922 -0.255845
v 0.108497 0.190053 -0.255911
v 0.108473 0.190267 -0.256123
v 0.113490 0.179292 -0.254222
v 0.112518 0.183000 -0.253641
v 0.026673 0.077619 -0.096824
v 0.025529 0.081268 -0.095158
v 0.029173 0.074397 -0.097724
v 0.025912 0.084798 -0.092977
v 0.027457 0.087921 -0.090585
v 0.032508 0.071798 -0.097945
v 0.036369 0.070087 -0.097454
v 0.040386 0.069766 -0.096101
v 0.030044 0.090315 -0.088215
v 0.043956 0.070885 -0.094089
v 0.046543 0.073279 -0.091719
v 0.048088 0.076402 -0.089328
v 0.047327 0.083581 -0.085480
v 0.048471 0.079932 -0.087146
v 0.064327 0.109181 -0.129075
v 0.015508 0.046198 -0.054351
v 0.019369 0.044487 -0.053860
v 0.020000 0.055000 -0.047558
v 0.023386 0.044166 -0.052507
v 0.026956 0.045285 -0.050495
v 0.009673 0.052019 -0.053229
v 0.008529 0.055668 -0.051564
v 0.008912 0.059198 -0.049382
v 0.010457 0.062321 -0.046990
v 0.012173 0.048797 -0.054130
v 0.029543 0.047679 -0.048125
v 0.031088 0.050802 -0.045733
v 0.031471 0.054332 -0.043552
v 0.013044 0.064715 -0.044620
v 0.016614 0.065834 -0.042608
v 0.033614 0.091434 -0.086203
v 0.020631 0.065513 -0.041256
v 0.037631 0.091113 -0.084850
v 0.044827 0.086803 -0.084580
v 0.030327 0.057981 -0.041886
v 0.024492 0.063802 -0.040764
v 0.027827 0.061203 -0.040986
v 0.041492 0.089402 -0.084359
v 0.058492 0.115002 -0.127953
v 0.061827 0.112403 -0.128174
v 0.054631 0.116713 -0.128444
v -0.093066 0.147087 -0.225941
v -0.106927 0.171587 -0.269204
v -0.107162 0.172411 -0.270806
v -0.106258 0.172325 -0.271202
v -0.096171 0.148809 -0.223760
v -0.109380 0.171000 -0.265530
v -0.109188 0.171178 -0.266644
v -0.109111 0.171249 -0.267088
v -0.111239 0.171500 -0.262401
v -0.111350 0.171587 -0.261856
v -0.112953 0.173283 -0.258558
v -0.104330 0.172841 -0.271642
v -0.089258 0.146725 -0.227607
v -0.101926 0.171587 -0.269204
v -0.101107 0.171554 -0.268993
v -0.085319 0.147779 -0.228508
v -0.096870 0.171000 -0.265530
v -0.096506 0.171031 -0.265333
v -0.095743 0.171098 -0.264920
v -0.106232 0.172553 -0.271081
v -0.103742 0.193675 -0.259858
v -0.103768 0.193447 -0.259979
v -0.105669 0.193159 -0.259418
v -0.104806 0.192708 -0.258542
v -0.102586 0.192708 -0.258542
v -0.102838 0.193589 -0.260254
v -0.098450 0.151445 -0.221368
v -0.112954 0.173292 -0.258542
v -0.099653 0.154758 -0.218998
v -0.113827 0.175947 -0.255911
v -0.113973 0.176323 -0.255721
v -0.099299 0.158482 -0.216986
v -0.097445 0.162060 -0.215633
v -0.113761 0.180260 -0.254071
v -0.113727 0.179292 -0.254222
v -0.112685 0.183000 -0.253641
v -0.112359 0.184519 -0.253879
v -0.110693 0.186708 -0.254222
v -0.094370 0.164955 -0.215142
v -0.109944 0.188408 -0.255080
v -0.109680 0.188633 -0.255194
v -0.090681 0.167021 -0.215363
v -0.108010 0.190053 -0.255911
v -0.107107 0.191948 -0.257789
v -0.107212 0.191914 -0.257755
v -0.082934 0.167713 -0.217930
v -0.097735 0.190002 -0.255885
v -0.097866 0.190053 -0.255911
v -0.094035 0.186708 -0.254222
v -0.086742 0.168075 -0.216264
v -0.081450 0.125845 -0.177774
v -0.082653 0.129158 -0.175404
v -0.082299 0.132882 -0.173392
v -0.080445 0.136460 -0.172039
v -0.081630 0.149845 -0.228729
v -0.092475 0.171587 -0.261856
v -0.091348 0.172005 -0.261044
v -0.078555 0.152740 -0.228238
v -0.089536 0.173292 -0.258542
v -0.088651 0.174313 -0.257530
v -0.076701 0.156318 -0.226885
v -0.088247 0.175947 -0.255911
v -0.088098 0.177738 -0.255007
v -0.076347 0.160042 -0.224873
v -0.089768 0.181755 -0.253836
v -0.077550 0.163355 -0.222503
v -0.088703 0.179292 -0.254222
v -0.090773 0.183000 -0.253641
v -0.079829 0.165991 -0.220111
v -0.093085 0.185953 -0.254104
v -0.076066 0.121487 -0.182347
v -0.072258 0.121125 -0.184013
v -0.079171 0.123209 -0.180166
v -0.068319 0.122179 -0.184913
v -0.064630 0.124245 -0.185134
v -0.061555 0.127140 -0.184643
v -0.059701 0.130718 -0.183290
v -0.059347 0.134442 -0.181278
v -0.060550 0.137755 -0.178908
v -0.059066 0.095887 -0.138753
v -0.064450 0.100245 -0.134179
v -0.065653 0.103558 -0.131809
v -0.062171 0.097609 -0.136571
v -0.077370 0.139355 -0.171548
v -0.065299 0.107282 -0.129797
v -0.055258 0.095525 -0.140418
v -0.051319 0.096579 -0.141319
v -0.047630 0.098645 -0.141540
v -0.044555 0.101540 -0.141049
v -0.069742 0.142475 -0.172669
v -0.048934 0.116513 -0.130741
v -0.065934 0.142113 -0.174335
v -0.045829 0.114791 -0.132922
v -0.062829 0.140391 -0.176516
v -0.042701 0.105118 -0.139696
v -0.042347 0.108842 -0.137684
v -0.043550 0.112155 -0.135314
v -0.073681 0.141421 -0.171769
v -0.047450 0.074645 -0.090585
v -0.048653 0.077958 -0.088215
v -0.045171 0.072009 -0.092977
v -0.042066 0.070287 -0.095158
v -0.038258 0.069925 -0.096824
v -0.048299 0.081682 -0.086203
v -0.046445 0.085260 -0.084850
v -0.034319 0.070979 -0.097724
v -0.030630 0.073045 -0.097945
v -0.027555 0.075940 -0.097454
v -0.025701 0.079518 -0.096101
v -0.025347 0.083242 -0.094089
v -0.026550 0.086555 -0.091719
v -0.028829 0.089191 -0.089328
v -0.043370 0.088155 -0.084359
v -0.063445 0.110860 -0.128444
v -0.039681 0.090221 -0.084580
v -0.060370 0.113755 -0.127953
v -0.028171 0.046409 -0.049382
v -0.025066 0.044687 -0.051564
v -0.020000 0.055000 -0.047558
v -0.021258 0.044325 -0.053229
v -0.017319 0.045379 -0.054130
v -0.030450 0.049045 -0.046990
v -0.031653 0.052358 -0.044620
v -0.031299 0.056082 -0.042608
v -0.013630 0.047445 -0.054351
v -0.029445 0.059660 -0.041256
v -0.035742 0.091275 -0.085480
v -0.018742 0.065675 -0.041886
v -0.031934 0.090913 -0.087146
v -0.011829 0.063591 -0.045733
v -0.014934 0.065313 -0.043552
v -0.010555 0.050340 -0.053860
v -0.008701 0.053918 -0.052507
v -0.008347 0.057642 -0.050495
v -0.009550 0.060955 -0.048125
v -0.026370 0.062555 -0.040764
v -0.022681 0.064621 -0.040986
v -0.056681 0.115821 -0.128174
v -0.052742 0.116875 -0.129075
v -0.180000 0.175947 -0.275149
v -0.180000 0.183000 -0.265530
v -0.180000 0.179292 -0.276837
v -0.180000 0.173292 -0.272518
v -0.180000 0.183000 -0.277419
v -0.180000 0.171587 -0.269204
v -0.180000 0.171000 -0.265530
v -0.180000 0.171587 -0.261856
v -0.180000 0.186708 -0.276837
v -0.180000 0.190053 -0.275149
v -0.180000 0.192708 -0.272518
v -0.180000 0.194413 -0.269204
v -0.180000 0.195000 -0.265530
v -0.180000 0.194413 -0.261856
v -0.180000 0.173292 -0.258542
v -0.180000 0.175947 -0.255911
v -0.180000 0.179292 -0.254222
v -0.180000 0.183000 -0.253641
v -0.180000 0.190053 -0.255911
v -0.180000 0.192708 -0.258542
v -0.180000 0.186708 -0.254222
v 0.180000 0.173292 -0.272518
v 0.180000 0.175947 -0.275149
v 0.180000 0.179292 -0.276837
v 0.180000 0.183000 -0.277419
v 0.180000 0.186708 -0.276837
v 0.180000 0.190053 -0.275149
v 0.180000 0.192708 -0.272518
v 0.180000 0.194413 -0.269204
v 0.180000 0.195000 -0.265530
v 0.180000 0.194413 -0.261856
v 0.180000 0.171587 -0.269204
v 0.180000 0.171000 -0.265530
v 0.180000 0.171587 -0.261856
v 0.180000 0.190053 -0.255911
v 0.180000 0.192708 -0.258542
v 0.180000 0.186708 -0.254222
v 0.180000 0.173292 -0.258542
v 0.180000 0.175947 -0.255911
v 0.180000 0.179292 -0.254222
v 0.180000 0.183000 -0.253641
v 0.180000 0.183000 -0.265530
v 0.078555 -0.152740 -0.228238
v 0.089536 -0.173292 -0.258542
v 0.088651 -0.174313 -0.257530
v 0.091348 -0.172005 -0.261044
v 0.081630 -0.149845 -0.228729
v 0.095743 -0.171098 -0.264920
v 0.092475 -0.171587 -0.261856
v 0.077550 -0.163355 -0.222503
v 0.090773 -0.183000 -0.253641
v 0.093085 -0.185953 -0.254104
v 0.079829 -0.165991 -0.220111
v 0.094035 -0.186708 -0.254222
v 0.076347 -0.160042 -0.224873
v 0.088703 -0.179292 -0.254222
v 0.089768 -0.181755 -0.253836
v 0.088098 -0.177738 -0.255007
v 0.097735 -0.190002 -0.255885
v 0.082934 -0.167713 -0.217930
v 0.076701 -0.156318 -0.226885
v 0.088247 -0.175947 -0.255911
v 0.085319 -0.147779 -0.228508
v 0.059701 -0.130718 -0.183290
v 0.060550 -0.137755 -0.178908
v 0.059347 -0.134442 -0.181278
v 0.062829 -0.140391 -0.176516
v 0.086742 -0.168075 -0.216264
v 0.065934 -0.142113 -0.174335
v 0.090681 -0.167021 -0.215363
v 0.069742 -0.142475 -0.172669
v 0.073681 -0.141421 -0.171769
v 0.094370 -0.164955 -0.215142
v 0.077370 -0.139355 -0.171548
v 0.097445 -0.162060 -0.215633
v 0.061555 -0.127140 -0.184643
v 0.064630 -0.124245 -0.185134
v 0.068319 -0.122179 -0.184913
v 0.072258 -0.121125 -0.184013
v 0.089258 -0.146725 -0.227607
v 0.076066 -0.121487 -0.182347
v 0.093066 -0.147087 -0.225941
v 0.079171 -0.123209 -0.180166
v 0.096171 -0.148809 -0.223760
v 0.082653 -0.129158 -0.175404
v 0.082299 -0.132882 -0.173392
v 0.099653 -0.154758 -0.218998
v 0.098450 -0.151445 -0.221368
v 0.081450 -0.125845 -0.177774
v 0.042701 -0.105118 -0.139696
v 0.043550 -0.112155 -0.135314
v 0.042347 -0.108842 -0.137684
v 0.045829 -0.114791 -0.132922
v 0.048934 -0.116513 -0.130741
v 0.044555 -0.101540 -0.141049
v 0.047630 -0.098645 -0.141540
v 0.051319 -0.096579 -0.141319
v 0.055258 -0.095525 -0.140418
v 0.080445 -0.136460 -0.172039
v 0.099299 -0.158482 -0.216986
v 0.065299 -0.107282 -0.129797
v 0.059066 -0.095887 -0.138753
v 0.062171 -0.097609 -0.136571
v 0.064450 -0.100245 -0.134179
v 0.065653 -0.103558 -0.131809
v 0.106258 -0.172325 -0.271202
v 0.106232 -0.172553 -0.271081
v 0.104330 -0.172841 -0.271642
v 0.107162 -0.172411 -0.270806
v 0.103742 -0.193675 -0.259858
v 0.102838 -0.193589 -0.260254
v 0.103768 -0.193447 -0.259979
v 0.102586 -0.192708 -0.258542
v 0.105669 -0.193159 -0.259418
v 0.104806 -0.192708 -0.258542
v 0.101926 -0.171587 -0.269204
v 0.101107 -0.171554 -0.268993
v 0.096506 -0.171031 -0.265333
v 0.096870 -0.171000 -0.265530
v 0.106927 -0.171587 -0.269204
v 0.109111 -0.171249 -0.267088
v 0.109188 -0.171178 -0.266644
v 0.109380 -0.171000 -0.265530
v 0.111239 -0.171500 -0.262401
v 0.111350 -0.171587 -0.261856
v 0.097866 -0.190053 -0.255911
v 0.107107 -0.191948 -0.257789
v 0.107212 -0.191914 -0.257755
v 0.108010 -0.190053 -0.255911
v 0.109680 -0.188633 -0.255194
v 0.109944 -0.188408 -0.255080
v 0.110693 -0.186708 -0.254222
v 0.112359 -0.184519 -0.253879
v 0.112685 -0.183000 -0.253641
v 0.113761 -0.180260 -0.254071
v 0.113727 -0.179292 -0.254222
v 0.113973 -0.176323 -0.255721
v 0.113827 -0.175947 -0.255911
v 0.112954 -0.173292 -0.258542
v 0.112953 -0.173283 -0.258558
v 0.025347 -0.083242 -0.094089
v 0.025701 -0.079518 -0.096101
v 0.026550 -0.086555 -0.091719
v 0.028829 -0.089191 -0.089328
v 0.052742 -0.116875 -0.129075
v 0.031934 -0.090913 -0.087146
v 0.035742 -0.091275 -0.085480
v 0.056681 -0.115821 -0.128174
v 0.060370 -0.113755 -0.127953
v 0.063445 -0.110860 -0.128444
v 0.048299 -0.081682 -0.086203
v 0.039681 -0.090221 -0.084580
v 0.043370 -0.088155 -0.084359
v 0.046445 -0.085260 -0.084850
v 0.027555 -0.075940 -0.097454
v 0.030630 -0.073045 -0.097945
v 0.034319 -0.070979 -0.097724
v 0.038258 -0.069925 -0.096824
v 0.042066 -0.070287 -0.095158
v 0.045171 -0.072009 -0.092977
v 0.048653 -0.077958 -0.088215
v 0.047450 -0.074645 -0.090585
v 0.008347 -0.057642 -0.050495
v 0.009550 -0.060955 -0.048125
v 0.010555 -0.050340 -0.053860
v 0.008701 -0.053918 -0.052507
v 0.011829 -0.063591 -0.045733
v 0.014934 -0.065313 -0.043552
v 0.018742 -0.065675 -0.041886
v 0.029445 -0.059660 -0.041256
v 0.013630 -0.047445 -0.054351
v 0.017319 -0.045379 -0.054130
v 0.021258 -0.044325 -0.053229
v 0.025066 -0.044687 -0.051564
v 0.028171 -0.046409 -0.049382
v 0.031653 -0.052358 -0.044620
v 0.031299 -0.056082 -0.042608
v 0.030450 -0.049045 -0.046990
v 0.020000 -0.055000 -0.047558
v 0.022681 -0.064621 -0.040986
v 0.026370 -0.062555 -0.040764
v -0.108386 -0.172166 -0.270479
v -0.108366 -0.172228 -0.270451
v -0.108515 -0.172206 -0.270407
v -0.108212 -0.171587 -0.269204
v -0.104390 -0.172832 -0.271625
v -0.104369 -0.172487 -0.271832
v -0.103172 -0.173017 -0.271984
v -0.105631 -0.193513 -0.259228
v -0.106509 -0.192708 -0.258542
v -0.106828 -0.192983 -0.259076
v -0.105610 -0.193168 -0.259435
v -0.101614 -0.193834 -0.260581
v -0.101634 -0.193772 -0.260609
v -0.101255 -0.193118 -0.259338
v -0.101502 -0.192708 -0.258542
v -0.101485 -0.193794 -0.260653
v -0.101199 -0.193210 -0.259517
v -0.091386 -0.146566 -0.226885
v -0.094956 -0.147685 -0.224873
v -0.110258 -0.171079 -0.265034
v -0.110518 -0.171120 -0.264780
v -0.109750 -0.171000 -0.265530
v -0.111404 -0.171587 -0.261856
v -0.112322 -0.172335 -0.260403
v -0.083508 -0.148598 -0.228729
v -0.087369 -0.146887 -0.228238
v -0.101510 -0.171587 -0.269204
v -0.080173 -0.151197 -0.228508
v -0.093599 -0.171415 -0.262936
v -0.096917 -0.171000 -0.265530
v -0.098581 -0.171296 -0.267381
v -0.097823 -0.171161 -0.266538
v -0.092492 -0.166202 -0.215142
v -0.108473 -0.190267 -0.256123
v -0.098327 -0.160381 -0.216264
v -0.112940 -0.182387 -0.253737
v -0.112518 -0.183000 -0.253641
v -0.110961 -0.186393 -0.254173
v -0.099471 -0.156732 -0.217930
v -0.113490 -0.179292 -0.254222
v -0.113813 -0.178330 -0.254708
v -0.095827 -0.163603 -0.215363
v -0.108497 -0.190053 -0.255911
v -0.108581 -0.189922 -0.255845
v -0.110640 -0.186708 -0.254222
v -0.088631 -0.167913 -0.215633
v -0.100992 -0.192592 -0.258427
v -0.100753 -0.192538 -0.258373
v -0.084614 -0.168234 -0.216986
v -0.097827 -0.190053 -0.255911
v -0.095888 -0.188785 -0.255271
v -0.095085 -0.188260 -0.255006
v -0.099088 -0.153202 -0.220111
v -0.113469 -0.174858 -0.256990
v -0.113490 -0.175947 -0.255911
v -0.097543 -0.150079 -0.222503
v -0.112718 -0.173292 -0.258542
v -0.081327 -0.134781 -0.172669
v -0.082471 -0.131132 -0.174335
v -0.080543 -0.124479 -0.178908
v -0.082088 -0.127602 -0.176516
v -0.077956 -0.122085 -0.181278
v -0.092715 -0.171587 -0.261856
v -0.077673 -0.154419 -0.227607
v -0.089987 -0.172961 -0.259184
v -0.089661 -0.173292 -0.258542
v -0.081044 -0.167115 -0.218998
v -0.093767 -0.186708 -0.254222
v -0.091087 -0.183741 -0.253757
v -0.078457 -0.164721 -0.221368
v -0.090674 -0.183000 -0.253641
v -0.076912 -0.161598 -0.223760
v -0.088741 -0.179292 -0.254222
v -0.088288 -0.175947 -0.255911
v -0.088780 -0.179470 -0.254194
v -0.076529 -0.158068 -0.225941
v -0.088284 -0.175770 -0.256086
v -0.059529 -0.132468 -0.182347
v -0.064044 -0.141515 -0.175404
v -0.061457 -0.139121 -0.177774
v -0.059912 -0.135998 -0.180166
v -0.071631 -0.142313 -0.172039
v -0.078827 -0.138003 -0.171769
v -0.075492 -0.140602 -0.171548
v -0.067614 -0.142634 -0.173392
v -0.074386 -0.120966 -0.183290
v -0.070369 -0.121287 -0.184643
v -0.066508 -0.122998 -0.185134
v -0.063173 -0.125597 -0.184913
v -0.060673 -0.128819 -0.184013
v -0.065471 -0.105532 -0.130741
v -0.057386 -0.095366 -0.139696
v -0.063543 -0.098879 -0.135314
v -0.065088 -0.102002 -0.132922
v -0.060956 -0.096485 -0.137684
v -0.050614 -0.117034 -0.129797
v -0.047044 -0.115915 -0.131809
v -0.042529 -0.106868 -0.138753
v -0.044457 -0.113521 -0.134179
v -0.042912 -0.110398 -0.136571
v -0.049508 -0.097398 -0.141540
v -0.053369 -0.095687 -0.141049
v -0.046173 -0.099997 -0.141319
v -0.043673 -0.103219 -0.140418
v -0.064327 -0.109181 -0.129075
v -0.061827 -0.112403 -0.128174
v -0.058492 -0.115002 -0.127953
v -0.054631 -0.116713 -0.128444
v -0.048471 -0.079932 -0.087146
v -0.047327 -0.083581 -0.085480
v -0.044827 -0.086803 -0.084580
v -0.041492 -0.089402 -0.084359
v -0.037631 -0.091113 -0.084850
v -0.025912 -0.084798 -0.092977
v -0.033614 -0.091434 -0.086203
v -0.030044 -0.090315 -0.088215
v -0.027457 -0.087921 -0.090585
v -0.048088 -0.076402 -0.089328
v -0.046543 -0.073279 -0.091719
v -0.043956 -0.070885 -0.094089
v -0.040386 -0.069766 -0.096101
v -0.036369 -0.070087 -0.097454
v -0.032508 -0.071798 -0.097945
v -0.029173 -0.074397 -0.097724
v -0.026673 -0.077619 -0.096824
v -0.025529 -0.081268 -0.095158
v -0.030327 -0.057981 -0.041886
v -0.020631 -0.065513 -0.041256
v -0.013044 -0.064715 -0.044620
v -0.016614 -0.065834 -0.042608
v -0.026956 -0.045285 -0.050495
v -0.023386 -0.044166 -0.052507
v -0.031088 -0.050802 -0.045733
v -0.031471 -0.054332 -0.043552
v -0.029543 -0.047679 -0.048125
v -0.019369 -0.044487 -0.053860
v -0.015508 -0.046198 -0.054351
v -0.012173 -0.048797 -0.054130
v -0.008912 -0.059198 -0.049382
v -0.010457 -0.062321 -0.046990
v -0.009673 -0.052019 -0.053229
v -0.008529 -0.055668 -0.051564
v -0.024492 -0.063802 -0.040764
v -0.027827 -0.061203 -0.040986
v -0.020000 -0.055000 -0.047558
v -0.180000 -0.190053 -0.275149
v -0.180000 -0.183000 -0.265530
v -0.180000 -0.186708 -0.276837
v -0.180000 -0.192708 -0.272518
v -0.180000 -0.183000 -0.277419
v -0.180000 -0.194413 -0.269204
v -0.180000 -0.195000 -0.265530
v -0.180000 -0.194413 -0.261856
v -0.180000 -0.179292 -0.276837
v -0.180000 -0.175947 -0.275149
v -0.180000 -0.173292 -0.272518
v -0.180000 -0.171587 -0.269204
v -0.180000 -0.171000 -0.265530
v -0.180000 -0.171587 -0.261856
v -0.180000 -0.192708 -0.258542
v -0.180000 -0.190053 -0.255911
v -0.180000 -0.186708 -0.254222
v -0.180000 -0.183000 -0.253641
v -0.180000 -0.175947 -0.255911
v -0.180000 -0.173292 -0.258542
v -0.180000 -0.179292 -0.254222
v 0.180000 -0.190053 -0.275149
v 0.180000 -0.194413 -0.269204
v 0.180000 -0.192708 -0.272518
v 0.180000 -0.186708 -0.276837
v 0.180000 -0.195000 -0.265530
v 0.180000 -0.194413 -0.261856
v 0.180000 -0.183000 -0.277419
v 0.180000 -0.179292 -0.276837
v 0.180000 -0.175947 -0.275149
v 0.180000 -0.173292 -0.272518
v 0.180000 -0.171587 -0.269204
v 0.180000 -0.171000 -0.265530
v 0.180000 -0.192708 -0.258542
v 0.180000 -0.190053 -0.255911
v 0.180000 -0.186708 -0.254222
v 0.180000 -0.171587 -0.261856
v 0.180000 -0.173292 -0.258542
v 0.180000 -0.175947 -0.255911
v 0.180000 -0.183000 -0.253641
v 0.180000 -0.179292 -0.254222
v 0.180000 -0.183000 -0.265530
f 1 2 3
f 1 3 4
f 5 4 6
f 5 7 8
f 9 10 11
f 9 11 2
f 1 9 2
f 1 4 5
f 9 12 10
f 12 13 14
f 12 15 10
f 12 14 15
f 13 16 14
f 13 17 16
f 18 19 17
f 18 20 19
f 13 18 17
f 18 21 20
f 1 22 23
f 9 23 24
f 12 24 25
f 1 5 22
f 5 8 26
f 8 27 28
f 27 29 30
f 31 29 32
f 8 28 26
f 27 30 28
f 30 29 31
f 5 26 22
f 31 32 33
f 33 34 35
f 35 36 37
f 37 38 39
f 22 26 40
f 28 41 26
f 28 30 42
f 30 31 43
f 22 44 23
f 23 45 24
f 24 46 25
f 25 47 48
f 48 49 50
f 31 33 51
f 33 35 52
f 35 37 53
f 37 39 54
f 55 56 57
f 39 58 55
f 39 55 59
f 1 23 9
f 9 24 12
f 12 25 13
f 13 48 18
f 13 25 48
f 18 48 50
f 18 50 21
f 60 61 62
f 57 56 61
f 63 62 21
f 50 63 21
f 63 60 62
f 60 57 61
f 8 64 65
f 27 66 67
f 8 65 66
f 5 68 7
f 8 7 69
f 8 69 64
f 5 6 68
f 67 70 29
f 29 70 71
f 29 71 72
f 29 72 73
f 32 73 74
f 32 74 75
f 32 75 76
f 66 65 77
f 66 77 67
f 67 77 78
f 67 78 70
f 79 80 81
f 79 82 83
f 79 83 80
f 84 81 85
f 79 86 82
f 79 81 84
f 79 84 86
f 84 87 86
f 84 88 87
f 8 66 27
f 27 67 29
f 29 73 32
f 32 76 34
f 34 76 89
f 34 89 90
f 36 90 91
f 36 91 92
f 34 90 36
f 36 92 38
f 38 93 58
f 58 94 56
f 21 95 20
f 21 96 95
f 21 97 96
f 62 98 97
f 62 85 98
f 62 84 85
f 56 94 99
f 56 100 101
f 56 101 102
f 56 99 100
f 38 92 103
f 38 103 93
f 58 104 94
f 58 93 104
f 84 61 88
f 61 102 88
f 21 62 97
f 62 61 84
f 61 56 102
f 33 32 34
f 35 34 36
f 37 36 38
f 39 38 58
f 55 58 56
f 105 40 41
f 106 44 40
f 107 41 42
f 105 106 40
f 106 108 44
f 108 109 45
f 105 41 107
f 110 107 42
f 43 111 110
f 51 112 111
f 109 113 46
f 43 110 42
f 43 51 111
f 51 52 112
f 52 53 114
f 115 53 54
f 116 54 59
f 52 114 112
f 114 53 115
f 115 54 116
f 117 118 119
f 116 59 118
f 120 121 122
f 121 123 122
f 123 124 122
f 105 107 125
f 105 126 106
f 106 127 108
f 108 128 109
f 110 129 107
f 120 110 111
f 121 111 112
f 123 112 114
f 124 114 115
f 130 115 116
f 131 116 118
f 132 118 117
f 109 133 113
f 113 134 135
f 135 136 137
f 138 139 117
f 107 129 125
f 120 129 110
f 105 125 126
f 106 126 127
f 108 127 128
f 109 128 133
f 120 122 129
f 125 129 122
f 125 122 126
f 126 122 127
f 127 122 128
f 128 122 133
f 122 134 133
f 122 136 134
f 122 140 136
f 113 133 134
f 120 111 121
f 121 112 123
f 123 114 124
f 124 115 130
f 130 116 131
f 139 132 117
f 131 118 132
f 138 141 139
f 124 130 122
f 130 131 122
f 122 131 132
f 122 141 140
f 122 132 139
f 122 139 141
f 142 140 141
f 135 134 136
f 137 136 140
f 142 141 138
f 137 140 142
f 142 138 143
f 138 117 144
f 108 45 44
f 109 46 45
f 113 47 46
f 135 49 47
f 113 135 47
f 135 137 49
f 26 41 40
f 28 42 41
f 22 40 44
f 23 44 45
f 24 45 46
f 30 43 42
f 31 51 43
f 33 52 51
f 25 46 47
f 48 47 49
f 50 145 63
f 50 49 145
f 63 145 143
f 60 143 144
f 35 53 52
f 37 54 53
f 39 59 54
f 57 144 119
f 55 119 59
f 63 143 60
f 60 144 57
f 55 57 119
f 118 59 119
f 137 145 49
f 142 143 145
f 138 144 143
f 117 119 144
f 137 142 145
f 146 147 148
f 149 146 148
f 150 151 152
f 146 153 147
f 146 152 153
f 150 154 151
f 150 155 154
f 150 156 155
f 149 157 158
f 158 157 159
f 158 159 160
f 161 160 162
f 161 162 163
f 161 163 164
f 149 148 165
f 149 165 157
f 166 167 168
f 166 168 169
f 166 170 171
f 166 171 167
f 150 172 156
f 172 173 156
f 174 175 173
f 174 176 175
f 149 158 146
f 158 160 161
f 146 150 152
f 174 177 176
f 172 174 173
f 177 178 179
f 177 180 176
f 177 179 180
f 178 181 179
f 178 182 181
f 178 183 182
f 184 185 183
f 184 186 185
f 187 188 186
f 187 189 190
f 187 190 188
f 191 192 193
f 191 194 192
f 195 169 189
f 166 169 195
f 166 191 170
f 191 193 170
f 178 184 183
f 184 187 186
f 187 195 189
f 166 195 191
f 150 196 172
f 172 197 174
f 174 198 177
f 177 199 178
f 200 164 201
f 200 201 202
f 203 202 204
f 203 204 205
f 161 164 200
f 200 202 203
f 206 205 207
f 206 207 208
f 203 205 206
f 206 208 209
f 209 210 211
f 209 208 212
f 209 212 210
f 211 210 213
f 214 215 194
f 211 213 215
f 214 194 191
f 214 211 215
f 146 158 216
f 158 161 217
f 146 218 150
f 161 200 219
f 200 203 220
f 203 206 221
f 146 216 218
f 158 217 216
f 150 218 196
f 172 196 197
f 174 197 198
f 161 219 217
f 200 220 219
f 203 221 220
f 206 222 221
f 209 223 222
f 211 224 223
f 216 217 225
f 218 226 196
f 196 227 197
f 218 216 228
f 177 198 199
f 178 199 229
f 197 230 198
f 217 219 231
f 219 220 232
f 220 221 233
f 221 222 234
f 235 236 237
f 237 238 239
f 222 223 240
f 223 224 241
f 239 242 224
f 206 209 222
f 214 191 239
f 209 211 223
f 214 224 211
f 178 229 184
f 184 243 187
f 187 235 195
f 237 239 191
f 214 239 224
f 237 191 195
f 184 229 243
f 187 243 235
f 235 237 195
f 244 226 228
f 245 227 226
f 225 246 228
f 225 231 247
f 232 248 231
f 231 248 247
f 225 247 246
f 244 245 226
f 246 244 228
f 245 249 227
f 249 250 230
f 232 233 251
f 252 233 234
f 253 234 240
f 232 251 248
f 251 233 252
f 252 234 253
f 253 240 254
f 254 241 255
f 255 242 256
f 257 256 238
f 250 258 259
f 258 260 261
f 262 263 264
f 263 265 264
f 265 266 264
f 246 247 262
f 263 247 248
f 246 267 244
f 244 268 245
f 245 269 249
f 265 248 251
f 266 251 252
f 270 252 253
f 249 271 250
f 272 260 273
f 257 274 275
f 272 276 274
f 253 254 277
f 254 255 278
f 255 256 279
f 257 280 256
f 246 262 267
f 244 267 268
f 245 268 269
f 249 269 271
f 250 271 281
f 263 248 265
f 262 247 263
f 265 251 266
f 262 264 267
f 268 267 264
f 268 264 269
f 269 264 271
f 271 264 281
f 281 264 282
f 258 281 282
f 250 281 258
f 258 282 260
f 260 282 273
f 272 273 276
f 266 252 270
f 270 253 277
f 254 278 277
f 255 279 278
f 256 280 279
f 257 275 280
f 266 270 264
f 270 277 264
f 264 277 278
f 264 278 279
f 264 279 280
f 264 280 275
f 282 264 273
f 264 276 273
f 264 275 276
f 274 276 275
f 218 228 226
f 196 226 227
f 197 227 230
f 198 230 259
f 199 259 261
f 198 259 199
f 199 261 229
f 229 283 243
f 216 225 228
f 217 231 225
f 219 232 231
f 220 233 232
f 221 234 233
f 222 240 234
f 223 241 240
f 224 242 241
f 243 284 235
f 239 238 242
f 237 236 238
f 229 261 283
f 243 283 284
f 235 284 236
f 249 230 227
f 250 259 230
f 258 261 259
f 260 283 261
f 272 284 283
f 254 240 241
f 255 241 242
f 274 236 284
f 257 238 236
f 256 242 238
f 272 274 284
f 257 236 274
f 272 283 260
f 285 286 287
f 285 288 286
f 287 286 289
f 288 290 286
f 290 291 286
f 291 292 286
f 289 286 293
f 293 286 294
f 294 286 295
f 295 286 296
f 286 297 296
f 286 298 297
f 286 292 299
f 286 299 300
f 286 300 301
f 286 301 302
f 286 303 304
f 286 302 305
f 286 305 303
f 286 304 298
f 292 173 299
f 299 175 300
f 300 176 301
f 301 179 302
f 288 148 290
f 290 151 291
f 291 155 292
f 298 304 168
f 303 190 304
f 302 182 305
f 303 305 185
f 292 156 173
f 299 173 175
f 300 175 176
f 301 176 180
f 301 180 179
f 302 179 181
f 302 181 182
f 288 165 148
f 288 157 165
f 290 153 152
f 290 152 151
f 290 148 147
f 290 147 153
f 291 151 154
f 291 154 155
f 292 155 156
f 298 168 167
f 303 185 186
f 303 186 188
f 303 188 190
f 304 190 189
f 304 189 169
f 304 169 168
f 298 167 171
f 305 182 183
f 305 183 185
f 288 65 157
f 285 306 288
f 285 287 307
f 287 289 308
f 289 293 309
f 293 294 310
f 294 295 311
f 295 296 312
f 296 297 313
f 297 298 314
f 65 159 157
f 159 69 160
f 160 68 162
f 162 6 163
f 163 6 164
f 164 4 201
f 298 171 315
f 3 202 201
f 202 3 204
f 11 205 204
f 11 207 205
f 207 10 208
f 212 208 15
f 213 210 16
f 212 16 210
f 193 85 170
f 193 192 96
f 96 192 194
f 194 215 19
f 213 19 215
f 315 171 170
f 159 64 69
f 160 69 7
f 160 7 68
f 164 6 4
f 162 68 6
f 288 306 65
f 65 64 159
f 201 4 3
f 204 3 2
f 11 204 2
f 207 11 10
f 208 10 15
f 212 15 14
f 212 14 16
f 170 80 83
f 170 81 80
f 193 96 97
f 170 85 81
f 213 16 17
f 213 17 19
f 194 19 20
f 194 20 95
f 194 95 96
f 193 97 98
f 193 98 85
f 285 307 306
f 287 308 307
f 289 309 308
f 293 310 309
f 294 311 310
f 295 312 311
f 296 313 312
f 297 314 313
f 298 315 314
f 315 170 83
f 306 77 65
f 306 78 77
f 306 70 78
f 316 71 70
f 317 72 71
f 317 73 72
f 317 74 73
f 318 75 74
f 318 76 75
f 315 83 82
f 315 82 86
f 319 100 99
f 315 86 87
f 320 88 102
f 320 87 88
f 319 101 100
f 320 102 101
f 321 94 104
f 321 99 94
f 306 316 70
f 316 317 71
f 317 318 74
f 322 89 76
f 322 90 89
f 323 91 90
f 323 92 91
f 324 103 92
f 325 93 103
f 325 104 93
f 318 322 76
f 315 87 320
f 319 320 101
f 319 99 321
f 307 308 326
f 307 326 306
f 308 309 326
f 306 326 316
f 316 326 317
f 317 326 318
f 309 310 326
f 310 311 326
f 311 312 326
f 312 313 326
f 326 313 314
f 326 314 315
f 322 323 90
f 323 324 92
f 324 325 103
f 325 321 104
f 326 322 318
f 326 323 322
f 326 324 323
f 326 325 324
f 326 320 319
f 326 321 325
f 326 319 321
f 326 315 320
f 327 328 329
f 327 330 328
f 331 332 333
f 331 333 330
f 334 335 336
f 337 336 338
f 339 340 341
f 339 342 340
f 334 341 335
f 334 336 337
f 337 343 344
f 345 346 342
f 345 329 346
f 334 339 341
f 339 345 342
f 345 327 329
f 331 347 332
f 327 331 330
f 339 348 345
f 334 337 349
f 334 350 339
f 337 344 351
f 344 352 353
f 337 351 349
f 344 353 351
f 352 354 355
f 356 354 357
f 358 357 359
f 352 355 353
f 355 354 356
f 356 357 358
f 339 350 348
f 345 348 360
f 334 349 350
f 345 360 327
f 327 361 331
f 331 362 347
f 347 363 364
f 364 365 366
f 367 368 366
f 327 360 361
f 331 361 362
f 347 362 363
f 369 370 371
f 369 372 373
f 364 363 365
f 365 367 366
f 373 368 367
f 350 374 348
f 349 351 375
f 350 349 376
f 351 353 377
f 353 355 378
f 348 379 360
f 360 380 361
f 361 381 362
f 362 382 363
f 358 359 383
f 383 384 370
f 369 385 370
f 363 386 365
f 365 387 367
f 373 367 388
f 369 373 389
f 390 391 392
f 390 393 391
f 394 395 396
f 394 397 395
f 394 396 398
f 394 398 399
f 364 400 401
f 364 392 400
f 364 390 392
f 347 402 332
f 347 401 403
f 347 403 402
f 390 366 393
f 366 404 393
f 366 405 404
f 366 406 405
f 368 407 406
f 368 408 407
f 368 409 408
f 344 410 397
f 344 397 394
f 352 394 399
f 352 399 411
f 337 338 343
f 344 343 410
f 354 411 412
f 354 412 413
f 354 413 414
f 357 414 415
f 357 415 416
f 357 416 417
f 359 417 418
f 359 418 419
f 384 420 421
f 384 419 420
f 344 394 352
f 352 411 354
f 354 414 357
f 347 364 401
f 364 366 390
f 366 368 406
f 371 422 423
f 372 424 409
f 372 423 424
f 371 421 422
f 372 409 368
f 357 417 359
f 359 419 384
f 371 423 372
f 371 384 421
f 383 359 384
f 370 384 371
f 373 372 368
f 369 371 372
f 376 375 425
f 376 426 374
f 375 377 427
f 378 428 377
f 378 429 430
f 378 430 428
f 429 431 430
f 351 377 375
f 353 378 377
f 355 356 429
f 355 429 378
f 356 432 429
f 358 433 432
f 350 376 374
f 348 374 379
f 349 375 376
f 360 379 380
f 361 380 381
f 362 381 382
f 363 382 386
f 365 386 387
f 356 358 432
f 358 383 433
f 383 370 434
f 369 389 385
f 373 388 389
f 367 387 388
f 383 434 433
f 370 385 434
f 385 389 435
f 429 432 431
f 432 433 436
f 433 434 437
f 385 438 434
f 432 436 431
f 374 439 379
f 379 440 380
f 380 441 381
f 374 426 439
f 376 425 426
f 377 428 427
f 375 427 425
f 379 439 440
f 380 440 441
f 381 441 442
f 381 442 382
f 382 443 386
f 387 386 444
f 389 388 445
f 388 387 446
f 385 435 438
f 389 445 435
f 386 443 444
f 382 442 443
f 387 444 446
f 388 446 445
f 427 447 425
f 427 428 448
f 426 449 439
f 425 450 426
f 430 451 428
f 430 431 452
f 431 436 453
f 454 438 435
f 439 455 440
f 440 456 441
f 441 457 442
f 442 458 443
f 443 459 444
f 460 445 446
f 461 435 445
f 462 446 444
f 430 452 451
f 427 448 447
f 426 450 449
f 425 447 450
f 428 451 448
f 439 449 455
f 440 455 456
f 451 452 463
f 452 453 463
f 453 464 463
f 447 463 450
f 448 463 447
f 449 463 455
f 450 463 449
f 463 456 455
f 448 451 463
f 431 453 452
f 436 464 453
f 436 437 464
f 437 438 465
f 441 456 457
f 442 457 458
f 443 458 459
f 465 438 454
f 454 435 461
f 461 445 460
f 462 444 459
f 462 460 446
f 437 465 464
f 463 464 465
f 463 465 454
f 463 454 461
f 463 460 462
f 463 461 460
f 463 462 459
f 463 457 456
f 463 458 457
f 463 459 458
f 433 437 436
f 434 438 437
f 466 467 468
f 466 468 469
f 466 470 467
f 466 471 470
f 471 472 470
f 473 474 475
f 473 475 476
f 473 476 477
f 477 476 478
f 473 477 479
f 473 479 480
f 477 478 481
f 477 481 482
f 477 482 479
f 466 469 483
f 484 485 486
f 483 469 487
f 483 487 485
f 484 486 488
f 484 488 489
f 471 490 472
f 466 491 471
f 490 492 472
f 493 494 495
f 490 496 492
f 490 497 496
f 493 495 497
f 473 498 474
f 498 499 474
f 500 501 502
f 500 502 503
f 504 505 501
f 504 506 505
f 507 508 499
f 507 509 508
f 507 510 509
f 507 503 510
f 473 480 511
f 511 480 512
f 511 512 513
f 514 513 515
f 514 515 516
f 514 516 517
f 507 499 498
f 473 511 498
f 511 513 514
f 518 519 520
f 521 522 519
f 521 489 522
f 518 520 506
f 518 521 519
f 521 484 489
f 466 483 491
f 471 491 490
f 483 485 484
f 507 500 503
f 500 504 501
f 518 506 504
f 507 523 500
f 500 524 504
f 518 525 521
f 518 504 526
f 521 527 484
f 493 528 494
f 529 530 528
f 529 531 530
f 532 517 533
f 532 533 534
f 535 534 536
f 537 538 539
f 535 536 540
f 537 540 538
f 532 514 517
f 532 534 535
f 541 542 531
f 541 539 542
f 535 540 537
f 541 537 539
f 493 529 528
f 541 531 529
f 490 493 497
f 541 529 543
f 532 535 544
f 535 537 545
f 541 546 537
f 511 514 547
f 507 498 548
f 498 511 549
f 532 550 514
f 532 544 550
f 535 545 544
f 498 549 548
f 511 547 549
f 514 550 547
f 483 484 551
f 483 552 491
f 491 553 490
f 490 554 493
f 493 555 529
f 504 524 526
f 518 526 525
f 484 527 551
f 521 525 527
f 493 554 555
f 483 551 552
f 491 552 553
f 490 553 554
f 541 543 546
f 529 555 543
f 537 546 545
f 500 523 524
f 507 548 523
f 524 523 556
f 527 557 551
f 526 558 525
f 524 559 526
f 525 560 527
f 550 544 561
f 544 545 562
f 543 555 563
f 545 546 564
f 546 543 565
f 552 566 553
f 551 567 552
f 553 568 554
f 554 569 555
f 548 570 523
f 548 549 571
f 549 547 572
f 524 556 559
f 526 559 558
f 525 558 560
f 523 570 556
f 548 571 570
f 547 550 573
f 544 562 561
f 545 564 562
f 549 572 571
f 547 573 572
f 550 561 573
f 527 560 557
f 552 567 566
f 551 557 567
f 543 563 565
f 555 569 563
f 546 565 564
f 553 566 568
f 554 568 569
f 556 570 574
f 570 571 575
f 572 576 571
f 572 573 577
f 561 578 573
f 565 563 579
f 561 562 580
f 562 564 581
f 564 565 582
f 561 580 578
f 562 581 580
f 573 578 577
f 556 583 559
f 558 559 584
f 558 585 560
f 560 586 557
f 557 587 567
f 566 567 588
f 556 574 583
f 570 575 574
f 560 585 586
f 559 583 584
f 558 584 585
f 566 589 568
f 568 590 569
f 563 569 591
f 564 582 581
f 557 586 587
f 567 587 588
f 566 588 589
f 568 589 590
f 563 591 579
f 569 590 591
f 565 579 582
f 571 576 575
f 572 577 576
f 575 576 592
f 580 593 578
f 581 582 594
f 580 581 595
f 584 596 585
f 585 597 586
f 574 598 583
f 574 575 599
f 583 600 584
f 586 601 587
f 587 602 588
f 589 588 603
f 579 591 604
f 579 605 582
f 589 606 590
f 591 590 607
f 577 578 608
f 576 577 609
f 578 593 608
f 580 595 593
f 576 609 592
f 574 599 598
f 575 592 599
f 584 600 596
f 583 598 600
f 585 596 597
f 586 597 601
f 587 601 602
f 577 608 609
f 610 596 600
f 609 610 592
f 599 592 610
f 609 608 610
f 599 610 598
f 598 610 600
f 581 594 595
f 579 604 605
f 590 606 607
f 591 607 604
f 582 605 594
f 588 602 603
f 589 603 606
f 608 593 610
f 593 595 610
f 594 610 595
f 610 604 607
f 603 602 610
f 610 607 606
f 603 610 606
f 594 605 610
f 610 605 604
f 610 597 596
f 610 602 601
f 610 601 597
f 611 612 613
f 611 614 612
f 613 612 615
f 614 616 612
f 616 617 612
f 617 618 612
f 615 612 619
f 612 620 619
f 612 621 620
f 612 622 621
f 612 623 622
f 612 624 623
f 612 618 625
f 612 625 626
f 612 626 627
f 612 627 628
f 612 629 630
f 612 628 631
f 612 631 629
f 612 630 624
f 627 502 628
f 624 630 522
f 629 520 630
f 628 505 631
f 629 631 506
f 621 622 468
f 622 623 487
f 623 624 488
f 618 475 625
f 625 508 626
f 626 510 627
f 629 506 520
f 624 522 489
f 630 519 522
f 630 520 519
f 628 502 501
f 628 501 505
f 631 505 506
f 621 468 467
f 621 467 470
f 621 470 472
f 622 469 468
f 622 487 469
f 623 485 487
f 623 486 485
f 623 488 486
f 618 476 475
f 625 499 508
f 626 508 509
f 625 475 474
f 625 474 499
f 626 509 510
f 618 481 478
f 618 478 476
f 627 510 503
f 627 503 502
f 624 489 488
f 611 613 632
f 614 633 616
f 611 634 614
f 613 615 635
f 616 636 617
f 617 637 618
f 615 619 638
f 619 620 639
f 620 621 640
f 618 395 481
f 621 472 641
f 472 492 400
f 496 400 492
f 497 401 496
f 497 495 403
f 494 403 495
f 481 395 482
f 479 482 397
f 479 397 480
f 512 480 397
f 512 397 513
f 513 397 515
f 516 515 343
f 516 343 517
f 517 343 533
f 336 534 533
f 534 335 536
f 494 528 333
f 530 328 528
f 542 346 531
f 542 539 346
f 530 531 328
f 341 540 536
f 540 340 538
f 342 539 538
f 497 403 401
f 494 402 403
f 494 333 332
f 494 332 402
f 392 472 400
f 496 401 400
f 343 515 410
f 534 336 335
f 336 533 338
f 343 338 533
f 330 333 528
f 330 528 328
f 329 531 346
f 342 346 539
f 329 328 531
f 341 536 335
f 540 341 340
f 342 538 340
f 618 637 395
f 482 395 397
f 397 410 515
f 611 632 634
f 614 634 633
f 613 635 632
f 615 638 635
f 616 633 636
f 617 636 637
f 619 639 638
f 620 640 639
f 621 641 640
f 641 472 392
f 641 392 391
f 641 391 393
f 642 393 404
f 642 404 405
f 642 405 406
f 642 406 407
f 643 407 408
f 643 408 409
f 637 396 395
f 637 398 396
f 644 399 398
f 644 411 399
f 644 412 411
f 644 413 412
f 645 414 413
f 645 415 414
f 645 416 415
f 646 417 416
f 647 409 424
f 641 393 642
f 642 407 643
f 643 409 647
f 646 418 417
f 647 424 423
f 648 423 422
f 649 422 421
f 650 419 418
f 651 421 420
f 651 420 419
f 637 644 398
f 644 645 413
f 645 646 416
f 632 635 652
f 632 652 634
f 635 638 652
f 634 652 633
f 633 652 636
f 636 652 637
f 638 639 652
f 652 639 640
f 652 640 641
f 652 641 642
f 652 642 643
f 652 643 647
f 646 650 418
f 649 421 651
f 647 423 648
f 649 648 422
f 650 651 419
f 652 644 637
f 652 645 644
f 652 646 645
f 652 650 646
f 652 648 649
f 652 651 650
f 652 649 651
f 652 647 648
