# sionna2 mesh — m350rtk__camera.obj
# group=camera  verts=496  tris=944
v 0.137500 -0.011591 0.030609
v 0.137500 -0.012000 0.033687
v 0.137500 0.000000 0.033687
v 0.137500 -0.011591 0.036764
v 0.137500 -0.010392 0.027742
v 0.137500 -0.008485 0.025280
v 0.137500 -0.010392 0.039631
v 0.147500 -0.010392 0.027742
v 0.147500 -0.011591 0.030609
v 0.147500 -0.012000 0.033687
v 0.147500 -0.011591 0.036764
v 0.137500 -0.006000 0.023390
v 0.147500 -0.008485 0.025280
v 0.147500 -0.006000 0.023390
v 0.147500 0.000000 0.033687
v 0.147500 -0.010392 0.039631
v 0.137500 -0.008485 0.042094
v 0.147500 -0.008485 0.042094
v 0.147500 -0.006000 0.043983
v 0.137500 -0.006000 0.043983
v 0.137500 -0.003106 0.022202
v 0.137500 0.000000 0.021797
v 0.147500 -0.003106 0.022202
v 0.147500 0.000000 0.021797
v 0.137500 -0.003106 0.045171
v 0.137500 0.000000 0.045576
v 0.147500 -0.003106 0.045171
v 0.147500 0.000000 0.045576
v 0.137500 0.003106 0.022202
v 0.137500 0.006000 0.023390
v 0.137500 0.008485 0.025280
v 0.147500 0.003106 0.022202
v 0.147500 0.006000 0.023390
v 0.147500 0.008485 0.025280
v 0.137500 0.003106 0.045171
v 0.137500 0.006000 0.043983
v 0.137500 0.008485 0.042094
v 0.147500 0.003106 0.045171
v 0.147500 0.006000 0.043983
v 0.147500 0.008485 0.042094
v 0.137500 0.010392 0.027742
v 0.137500 0.011591 0.030609
v 0.137500 0.010392 0.039631
v 0.137500 0.011591 0.036764
v 0.137500 0.012000 0.033687
v 0.147500 0.010392 0.027742
v 0.147500 0.011591 0.030609
v 0.147500 0.011591 0.036764
v 0.147500 0.010392 0.039631
v 0.147500 0.012000 0.033687
v 0.138500 0.030489 0.012791
v 0.138500 0.031910 0.010029
v 0.146500 0.030489 0.012791
v 0.146500 0.030000 0.015853
v 0.138500 0.030000 0.015853
v 0.146500 0.030489 0.018914
v 0.138500 0.030489 0.018914
v 0.146500 0.031910 0.021676
v 0.138500 0.034122 0.007837
v 0.146500 0.031910 0.010029
v 0.146500 0.034122 0.007837
v 0.138500 0.031910 0.021676
v 0.138500 0.040000 0.015853
v 0.146500 0.040000 0.015853
v 0.138500 0.036910 0.006430
v 0.146500 0.036910 0.006430
v 0.138500 0.034122 0.023868
v 0.146500 0.034122 0.023868
v 0.138500 0.040000 0.005945
v 0.146500 0.040000 0.005945
v 0.138500 0.043090 0.006430
v 0.138500 0.045878 0.007837
v 0.146500 0.043090 0.006430
v 0.146500 0.045878 0.007837
v 0.138500 0.048090 0.010029
v 0.146500 0.048090 0.010029
v 0.138500 0.045878 0.023868
v 0.138500 0.048090 0.021676
v 0.138500 0.049511 0.012791
v 0.138500 0.050000 0.015853
v 0.138500 0.049511 0.018914
v 0.146500 0.048090 0.021676
v 0.146500 0.045878 0.023868
v 0.146500 0.049511 0.012791
v 0.146500 0.050000 0.015853
v 0.146500 0.049511 0.018914
v 0.138500 0.036910 0.025275
v 0.146500 0.036910 0.025275
v 0.138500 0.040000 0.025760
v 0.146500 0.040000 0.025760
v 0.138500 0.043090 0.025275
v 0.146500 0.043090 0.025275
v 0.139500 0.010150 0.050198
v 0.145500 0.010150 0.052844
v 0.139500 0.010150 0.052844
v 0.139500 0.011309 0.047814
v 0.145500 0.010150 0.050198
v 0.139500 0.013397 0.046165
v 0.145500 0.011309 0.047814
v 0.139500 0.016000 0.051521
v 0.145500 0.016000 0.051521
v 0.145500 0.011309 0.055227
v 0.139500 0.011309 0.055227
v 0.145500 0.013397 0.056877
v 0.139500 0.016000 0.045576
v 0.145500 0.013397 0.046165
v 0.145500 0.016000 0.045576
v 0.139500 0.018603 0.046165
v 0.139500 0.020691 0.047814
v 0.145500 0.018603 0.046165
v 0.145500 0.020691 0.047814
v 0.139500 0.021850 0.050198
v 0.139500 0.021850 0.052844
v 0.145500 0.021850 0.050198
v 0.145500 0.021850 0.052844
v 0.139500 0.013397 0.056877
v 0.139500 0.016000 0.057465
v 0.145500 0.016000 0.057465
v 0.139500 0.018603 0.056877
v 0.139500 0.020691 0.055227
v 0.145500 0.018603 0.056877
v 0.145500 0.020691 0.055227
v 0.138500 -0.049511 0.012791
v 0.138500 -0.048090 0.010029
v 0.146500 -0.049511 0.012791
v 0.138500 -0.045878 0.007837
v 0.146500 -0.048090 0.010029
v 0.146500 -0.050000 0.015853
v 0.138500 -0.050000 0.015853
v 0.146500 -0.049511 0.018914
v 0.138500 -0.049511 0.018914
v 0.146500 -0.048090 0.021676
v 0.138500 -0.048090 0.021676
v 0.138500 -0.043090 0.006430
v 0.146500 -0.045878 0.007837
v 0.138500 -0.040000 0.015853
v 0.146500 -0.043090 0.006430
v 0.146500 -0.040000 0.015853
v 0.138500 -0.045878 0.023868
v 0.146500 -0.045878 0.023868
v 0.138500 -0.040000 0.005945
v 0.146500 -0.040000 0.005945
v 0.138500 -0.036910 0.006430
v 0.146500 -0.036910 0.006430
v 0.138500 -0.034122 0.007837
v 0.138500 -0.031910 0.010029
v 0.146500 -0.034122 0.007837
v 0.146500 -0.031910 0.010029
v 0.138500 -0.034122 0.023868
v 0.138500 -0.031910 0.021676
v 0.146500 -0.031910 0.021676
v 0.146500 -0.034122 0.023868
v 0.138500 -0.030489 0.012791
v 0.138500 -0.030000 0.015853
v 0.138500 -0.030489 0.018914
v 0.146500 -0.030489 0.012791
v 0.146500 -0.030000 0.015853
v 0.146500 -0.030489 0.018914
v 0.146500 -0.043090 0.025275
v 0.138500 -0.043090 0.025275
v 0.138500 -0.040000 0.025760
v 0.146500 -0.040000 0.025760
v 0.138500 -0.036910 0.025275
v 0.146500 -0.036910 0.025275
v 0.139500 -0.020691 0.047814
v 0.145500 -0.021850 0.050198
v 0.139500 -0.021850 0.050198
v 0.145500 -0.021850 0.052844
v 0.139500 -0.021850 0.052844
v 0.139500 -0.018603 0.046165
v 0.145500 -0.020691 0.047814
v 0.139500 -0.016000 0.051521
v 0.145500 -0.018603 0.046165
v 0.145500 -0.016000 0.051521
v 0.139500 -0.016000 0.045576
v 0.145500 -0.016000 0.045576
v 0.139500 -0.013397 0.046165
v 0.139500 -0.011309 0.047814
v 0.145500 -0.013397 0.046165
v 0.145500 -0.011309 0.047814
v 0.145500 -0.020691 0.055227
v 0.139500 -0.020691 0.055227
v 0.145500 -0.018603 0.056877
v 0.139500 -0.018603 0.056877
v 0.139500 -0.016000 0.057465
v 0.145500 -0.016000 0.057465
v 0.139500 -0.013397 0.056877
v 0.145500 -0.013397 0.056877
v 0.139500 -0.011309 0.055227
v 0.145500 -0.011309 0.055227
v 0.139500 -0.010150 0.050198
v 0.139500 -0.010150 0.052844
v 0.145500 -0.010150 0.050198
v 0.145500 -0.010150 0.052844
v -0.146500 0.030489 0.052422
v -0.146500 0.031910 0.049660
v -0.138500 0.030489 0.052422
v -0.146500 0.034122 0.047468
v -0.138500 0.031910 0.049660
v -0.146500 0.040000 0.055484
v -0.138500 0.034122 0.047468
v -0.138500 0.040000 0.055484
v -0.146500 0.036910 0.046061
v -0.138500 0.036910 0.046061
v -0.138500 0.030000 0.055484
v -0.146500 0.030000 0.055484
v -0.138500 0.030489 0.058546
v -0.146500 0.030489 0.058546
v -0.138500 0.031910 0.061308
v -0.146500 0.031910 0.061308
v -0.138500 0.034122 0.063499
v -0.146500 0.034122 0.063499
v -0.146500 0.036910 0.064907
v -0.138500 0.036910 0.064907
v -0.146500 0.040000 0.045576
v -0.138500 0.040000 0.045576
v -0.146500 0.043090 0.046061
v -0.146500 0.045878 0.047468
v -0.138500 0.043090 0.046061
v -0.138500 0.045878 0.047468
v -0.146500 0.048090 0.049660
v -0.146500 0.049511 0.052422
v -0.138500 0.048090 0.049660
v -0.138500 0.049511 0.052422
v -0.146500 0.040000 0.065392
v -0.138500 0.040000 0.065392
v -0.146500 0.043090 0.064907
v -0.138500 0.043090 0.064907
v -0.146500 0.045878 0.063499
v -0.138500 0.045878 0.063499
v -0.146500 0.048090 0.061308
v -0.146500 0.050000 0.055484
v -0.146500 0.049511 0.058546
v -0.138500 0.048090 0.061308
v -0.138500 0.050000 0.055484
v -0.138500 0.049511 0.058546
v 0.027219 0.029440 -0.057465
v 0.024710 0.030719 -0.049539
v 0.024710 0.030719 -0.057465
v 0.027219 0.029440 -0.049539
v 0.030000 0.029000 -0.057465
v 0.030000 0.029000 -0.049539
v 0.032781 0.029440 -0.057465
v 0.032781 0.029440 -0.049539
v 0.035290 0.030719 -0.057465
v 0.035290 0.030719 -0.049539
v 0.022719 0.032710 -0.049539
v 0.022719 0.032710 -0.057465
v 0.021440 0.035219 -0.049539
v 0.030000 0.038000 -0.057465
v 0.030000 0.038000 -0.049539
v 0.021440 0.035219 -0.057465
v 0.021000 0.038000 -0.049539
v 0.021000 0.038000 -0.057465
v 0.037281 0.032710 -0.057465
v 0.037281 0.032710 -0.049539
v 0.038560 0.035219 -0.057465
v 0.039000 0.038000 -0.057465
v 0.038560 0.035219 -0.049539
v 0.039000 0.038000 -0.049539
v 0.021440 0.040781 -0.049539
v 0.021440 0.040781 -0.057465
v 0.022719 0.043290 -0.049539
v 0.022719 0.043290 -0.057465
v 0.024710 0.045281 -0.057465
v 0.027219 0.046560 -0.057465
v 0.024710 0.045281 -0.049539
v 0.027219 0.046560 -0.049539
v 0.038560 0.040781 -0.057465
v 0.038560 0.040781 -0.049539
v 0.037281 0.043290 -0.057465
v 0.035290 0.045281 -0.057465
v 0.032781 0.046560 -0.057465
v 0.037281 0.043290 -0.049539
v 0.035290 0.045281 -0.049539
v 0.032781 0.046560 -0.049539
v 0.030000 0.047000 -0.057465
v 0.030000 0.047000 -0.049539
v -0.037281 0.032710 0.140691
v -0.035290 0.030719 0.140691
v -0.037281 0.032710 0.148618
v -0.038560 0.035219 0.148618
v -0.038560 0.035219 0.140691
v -0.039000 0.038000 0.148618
v -0.039000 0.038000 0.140691
v -0.038560 0.040781 0.148618
v -0.038560 0.040781 0.140691
v -0.037281 0.043290 0.148618
v -0.037281 0.043290 0.140691
v -0.035290 0.045281 0.148618
v -0.032781 0.029440 0.140691
v -0.030000 0.029000 0.140691
v -0.032781 0.029440 0.148618
v -0.035290 0.030719 0.148618
v -0.027219 0.029440 0.140691
v -0.030000 0.029000 0.148618
v -0.027219 0.029440 0.148618
v -0.024710 0.030719 0.140691
v -0.024710 0.030719 0.148618
v -0.030000 0.038000 0.140691
v -0.030000 0.038000 0.148618
v -0.022719 0.032710 0.140691
v -0.022719 0.032710 0.148618
v -0.021440 0.035219 0.140691
v -0.021440 0.035219 0.148618
v -0.021000 0.038000 0.140691
v -0.021000 0.038000 0.148618
v -0.035290 0.045281 0.140691
v -0.032781 0.046560 0.140691
v -0.032781 0.046560 0.148618
v -0.027219 0.046560 0.140691
v -0.024710 0.045281 0.140691
v -0.024710 0.045281 0.148618
v -0.027219 0.046560 0.148618
v -0.021440 0.040781 0.140691
v -0.021440 0.040781 0.148618
v -0.022719 0.043290 0.140691
v -0.022719 0.043290 0.148618
v -0.030000 0.047000 0.148618
v -0.030000 0.047000 0.140691
v -0.146500 -0.049511 0.052422
v -0.146500 -0.048090 0.049660
v -0.138500 -0.049511 0.052422
v -0.146500 -0.045878 0.047468
v -0.138500 -0.048090 0.049660
v -0.146500 -0.040000 0.055484
v -0.146500 -0.043090 0.046061
v -0.138500 -0.045878 0.047468
v -0.138500 -0.040000 0.055484
v -0.138500 -0.043090 0.046061
v -0.146500 -0.040000 0.045576
v -0.138500 -0.040000 0.045576
v -0.146500 -0.036910 0.046061
v -0.138500 -0.036910 0.046061
v -0.138500 -0.050000 0.055484
v -0.146500 -0.050000 0.055484
v -0.138500 -0.049511 0.058546
v -0.146500 -0.049511 0.058546
v -0.138500 -0.048090 0.061308
v -0.146500 -0.048090 0.061308
v -0.138500 -0.045878 0.063499
v -0.146500 -0.045878 0.063499
v -0.138500 -0.043090 0.064907
v -0.146500 -0.043090 0.064907
v -0.146500 -0.040000 0.065392
v -0.138500 -0.040000 0.065392
v -0.146500 -0.036910 0.064907
v -0.138500 -0.036910 0.064907
v -0.146500 -0.034122 0.047468
v -0.146500 -0.031910 0.049660
v -0.138500 -0.034122 0.047468
v -0.138500 -0.031910 0.049660
v -0.146500 -0.030489 0.052422
v -0.138500 -0.030489 0.052422
v -0.146500 -0.034122 0.063499
v -0.146500 -0.031910 0.061308
v -0.138500 -0.031910 0.061308
v -0.138500 -0.034122 0.063499
v -0.146500 -0.030000 0.055484
v -0.146500 -0.030489 0.058546
v -0.138500 -0.030000 0.055484
v -0.138500 -0.030489 0.058546
v 0.024710 -0.045281 -0.057465
v 0.022719 -0.043290 -0.049539
v 0.022719 -0.043290 -0.057465
v 0.027219 -0.046560 -0.057465
v 0.024710 -0.045281 -0.049539
v 0.027219 -0.046560 -0.049539
v 0.030000 -0.047000 -0.057465
v 0.030000 -0.047000 -0.049539
v 0.032781 -0.046560 -0.057465
v 0.032781 -0.046560 -0.049539
v 0.030000 -0.038000 -0.057465
v 0.035290 -0.045281 -0.057465
v 0.035290 -0.045281 -0.049539
v 0.037281 -0.043290 -0.057465
v 0.037281 -0.043290 -0.049539
v 0.030000 -0.038000 -0.049539
v 0.021440 -0.040781 -0.049539
v 0.021440 -0.040781 -0.057465
v 0.021000 -0.038000 -0.049539
v 0.021000 -0.038000 -0.057465
v 0.038560 -0.040781 -0.057465
v 0.038560 -0.040781 -0.049539
v 0.039000 -0.038000 -0.057465
v 0.039000 -0.038000 -0.049539
v 0.021440 -0.035219 -0.049539
v 0.021440 -0.035219 -0.057465
v 0.022719 -0.032710 -0.049539
v 0.022719 -0.032710 -0.057465
v 0.024710 -0.030719 -0.049539
v 0.024710 -0.030719 -0.057465
v 0.027219 -0.029440 -0.057465
v 0.027219 -0.029440 -0.049539
v 0.038560 -0.035219 -0.057465
v 0.037281 -0.032710 -0.057465
v 0.038560 -0.035219 -0.049539
v 0.037281 -0.032710 -0.049539
v 0.030000 -0.029000 -0.057465
v 0.032781 -0.029440 -0.057465
v 0.035290 -0.030719 -0.057465
v 0.035290 -0.030719 -0.049539
v 0.030000 -0.029000 -0.049539
v 0.032781 -0.029440 -0.049539
v -0.037281 -0.043290 0.140691
v -0.035290 -0.045281 0.140691
v -0.037281 -0.043290 0.148618
v -0.038560 -0.040781 0.148618
v -0.038560 -0.040781 0.140691
v -0.039000 -0.038000 0.148618
v -0.039000 -0.038000 0.140691
v -0.038560 -0.035219 0.148618
v -0.038560 -0.035219 0.140691
v -0.037281 -0.032710 0.148618
v -0.037281 -0.032710 0.140691
v -0.035290 -0.030719 0.148618
v -0.032781 -0.046560 0.140691
v -0.035290 -0.045281 0.148618
v -0.030000 -0.047000 0.140691
v -0.032781 -0.046560 0.148618
v -0.027219 -0.046560 0.140691
v -0.030000 -0.047000 0.148618
v -0.027219 -0.046560 0.148618
v -0.030000 -0.038000 0.140691
v -0.030000 -0.038000 0.148618
v -0.024710 -0.045281 0.140691
v -0.024710 -0.045281 0.148618
v -0.022719 -0.043290 0.140691
v -0.022719 -0.043290 0.148618
v -0.021440 -0.040781 0.140691
v -0.021440 -0.040781 0.148618
v -0.021000 -0.038000 0.140691
v -0.021000 -0.038000 0.148618
v -0.035290 -0.030719 0.140691
v -0.032781 -0.029440 0.140691
v -0.032781 -0.029440 0.148618
v -0.030000 -0.029000 0.140691
v -0.027219 -0.029440 0.140691
v -0.024710 -0.030719 0.140691
v -0.030000 -0.029000 0.148618
v -0.027219 -0.029440 0.148618
v -0.024710 -0.030719 0.148618
v -0.021440 -0.035219 0.140691
v -0.021440 -0.035219 0.148618
v -0.022719 -0.032710 0.140691
v -0.022719 -0.032710 0.148618
v 0.035546 -0.009500 -0.107005
v 0.038565 -0.013435 -0.107005
v 0.035546 -0.009500 -0.083226
v 0.033647 -0.004918 -0.083226
v 0.033647 -0.004918 -0.107005
v 0.033000 0.000000 -0.083226
v 0.033000 0.000000 -0.107005
v 0.052000 -0.019000 -0.107005
v 0.056918 -0.018353 -0.107005
v 0.052000 -0.019000 -0.083226
v 0.047082 -0.018353 -0.083226
v 0.042500 -0.016454 -0.107005
v 0.047082 -0.018353 -0.107005
v 0.042500 -0.016454 -0.083226
v 0.038565 -0.013435 -0.083226
v 0.056918 -0.018353 -0.083226
v 0.061500 -0.016454 -0.107005
v 0.061500 -0.016454 -0.083226
v 0.065435 -0.013435 -0.107005
v 0.065435 -0.013435 -0.083226
v 0.052000 0.000000 -0.107005
v 0.052000 0.000000 -0.083226
v 0.068454 -0.009500 -0.107005
v 0.068454 -0.009500 -0.083226
v 0.070353 -0.004918 -0.107005
v 0.070353 -0.004918 -0.083226
v 0.071000 0.000000 -0.107005
v 0.071000 0.000000 -0.083226
v 0.033647 0.004918 -0.083226
v 0.033647 0.004918 -0.107005
v 0.035546 0.009500 -0.083226
v 0.035546 0.009500 -0.107005
v 0.038565 0.013435 -0.083226
v 0.038565 0.013435 -0.107005
v 0.042500 0.016454 -0.107005
v 0.047082 0.018353 -0.107005
v 0.052000 0.019000 -0.107005
v 0.056918 0.018353 -0.107005
v 0.042500 0.016454 -0.083226
v 0.047082 0.018353 -0.083226
v 0.052000 0.019000 -0.083226
v 0.056918 0.018353 -0.083226
v 0.070353 0.004918 -0.107005
v 0.068454 0.009500 -0.107005
v 0.070353 0.004918 -0.083226
v 0.068454 0.009500 -0.083226
v 0.065435 0.013435 -0.107005
v 0.061500 0.016454 -0.107005
v 0.065435 0.013435 -0.083226
v 0.061500 0.016454 -0.083226
f 1 2 3
f 2 4 3
f 1 3 5
f 6 5 3
f 4 7 3
f 6 8 5
f 5 8 9
f 1 10 2
f 1 5 9
f 2 11 4
f 1 9 10
f 2 10 11
f 6 12 13
f 6 13 8
f 12 14 13
f 9 15 10
f 10 15 11
f 9 8 15
f 13 15 8
f 11 15 16
f 7 17 3
f 4 16 7
f 4 11 16
f 7 16 18
f 7 18 17
f 17 19 20
f 16 15 18
f 17 18 19
f 6 3 12
f 12 3 21
f 21 3 22
f 12 21 14
f 13 14 15
f 21 23 14
f 21 22 23
f 14 23 15
f 22 24 23
f 23 24 15
f 17 20 3
f 20 25 3
f 25 26 3
f 18 15 19
f 20 19 27
f 20 27 25
f 19 15 27
f 27 15 28
f 25 28 26
f 25 27 28
f 22 3 29
f 29 3 30
f 30 3 31
f 22 29 24
f 24 32 15
f 29 32 24
f 32 33 15
f 29 30 32
f 30 33 32
f 33 34 15
f 3 26 35
f 3 35 36
f 3 36 37
f 15 38 28
f 15 39 38
f 26 38 35
f 26 28 38
f 35 39 36
f 15 40 39
f 35 38 39
f 31 3 41
f 41 3 42
f 3 43 44
f 42 3 45
f 3 44 45
f 30 31 33
f 31 41 34
f 31 34 33
f 34 46 15
f 46 47 15
f 15 48 49
f 47 50 15
f 15 50 48
f 41 42 46
f 41 46 34
f 42 45 47
f 45 44 50
f 42 47 46
f 45 50 47
f 44 48 50
f 3 37 43
f 37 36 40
f 15 49 40
f 36 39 40
f 37 40 49
f 43 37 49
f 43 48 44
f 43 49 48
f 51 52 53
f 51 54 55
f 55 56 57
f 51 53 54
f 55 54 56
f 57 56 58
f 52 59 60
f 53 52 60
f 59 61 60
f 57 58 62
f 51 55 63
f 51 63 52
f 55 57 63
f 57 62 63
f 53 64 54
f 53 60 64
f 54 64 56
f 56 64 58
f 59 65 61
f 52 63 59
f 59 63 65
f 60 61 64
f 61 65 66
f 61 66 64
f 63 62 67
f 64 68 58
f 65 69 66
f 65 63 69
f 66 69 70
f 66 70 64
f 69 71 70
f 69 63 71
f 63 72 71
f 70 71 73
f 70 73 64
f 64 73 74
f 71 72 73
f 63 75 72
f 72 75 74
f 73 72 74
f 64 74 76
f 63 77 78
f 63 79 75
f 63 80 79
f 63 78 81
f 63 81 80
f 64 82 83
f 64 76 84
f 64 84 85
f 64 86 82
f 64 85 86
f 75 79 76
f 74 75 76
f 79 84 76
f 79 80 84
f 81 78 86
f 80 81 85
f 84 80 85
f 86 78 82
f 81 86 85
f 62 68 67
f 62 58 68
f 63 67 87
f 67 88 87
f 67 68 88
f 64 88 68
f 63 87 89
f 87 90 89
f 64 90 88
f 87 88 90
f 63 89 91
f 89 92 91
f 63 91 77
f 64 92 90
f 89 90 92
f 64 83 92
f 91 83 77
f 91 92 83
f 77 83 82
f 77 82 78
f 93 94 95
f 93 96 97
f 96 98 99
f 93 100 96
f 93 95 100
f 96 99 97
f 93 97 94
f 97 99 101
f 97 101 94
f 95 102 103
f 95 103 100
f 95 94 102
f 103 102 104
f 94 101 102
f 96 100 98
f 98 100 105
f 98 105 106
f 99 98 106
f 99 106 101
f 106 105 107
f 106 107 101
f 105 100 108
f 105 108 107
f 100 109 108
f 107 110 101
f 108 110 107
f 101 110 111
f 108 109 110
f 100 112 109
f 100 113 112
f 109 112 111
f 112 113 114
f 110 109 111
f 101 111 114
f 101 114 115
f 112 114 111
f 114 113 115
f 103 116 100
f 103 104 116
f 100 116 117
f 116 118 117
f 102 101 104
f 101 118 104
f 116 104 118
f 100 117 119
f 100 119 120
f 117 121 119
f 101 121 118
f 117 118 121
f 101 122 121
f 100 120 113
f 119 122 120
f 120 115 113
f 119 121 122
f 101 115 122
f 120 122 115
f 123 124 125
f 124 126 127
f 124 127 125
f 123 128 129
f 129 130 131
f 131 132 133
f 123 125 128
f 129 128 130
f 131 130 132
f 126 134 135
f 124 136 126
f 127 126 135
f 135 134 137
f 127 135 138
f 123 129 136
f 123 136 124
f 129 131 136
f 131 133 136
f 136 133 139
f 125 138 128
f 125 127 138
f 128 138 130
f 130 138 132
f 138 140 132
f 126 136 134
f 134 141 137
f 134 136 141
f 135 137 138
f 137 141 142
f 137 142 138
f 141 143 142
f 141 136 143
f 142 143 144
f 142 144 138
f 143 145 144
f 136 145 143
f 136 146 145
f 138 144 147
f 144 145 147
f 138 147 148
f 136 149 150
f 138 151 152
f 145 146 147
f 146 153 148
f 146 148 147
f 136 153 146
f 136 154 153
f 136 150 155
f 136 155 154
f 138 148 156
f 138 156 157
f 138 158 151
f 138 157 158
f 158 150 151
f 148 153 156
f 153 154 156
f 155 150 158
f 154 155 157
f 156 154 157
f 155 158 157
f 133 132 140
f 133 140 139
f 139 159 160
f 139 140 159
f 136 139 160
f 136 160 161
f 160 162 161
f 138 159 140
f 138 162 159
f 160 159 162
f 136 161 163
f 161 164 163
f 138 164 162
f 161 162 164
f 136 163 149
f 163 152 149
f 138 152 164
f 163 164 152
f 149 151 150
f 149 152 151
f 165 166 167
f 167 168 169
f 165 170 171
f 167 169 172
f 165 167 172
f 165 171 166
f 167 166 168
f 171 170 173
f 166 174 168
f 171 174 166
f 165 172 170
f 170 175 173
f 170 172 175
f 171 173 174
f 175 176 173
f 173 176 174
f 175 172 177
f 175 177 176
f 172 178 177
f 177 178 179
f 176 177 179
f 176 179 174
f 174 179 180
f 169 181 182
f 172 169 182
f 182 183 184
f 169 168 181
f 182 181 183
f 174 181 168
f 172 182 184
f 172 184 185
f 184 186 185
f 174 183 181
f 184 183 186
f 174 186 183
f 172 185 187
f 185 188 187
f 172 187 189
f 174 188 186
f 185 186 188
f 187 188 190
f 174 190 188
f 172 191 178
f 172 192 191
f 178 191 180
f 191 192 193
f 179 178 180
f 174 180 193
f 174 193 194
f 191 193 180
f 193 192 194
f 172 189 192
f 187 190 189
f 189 194 192
f 174 194 190
f 189 190 194
f 195 196 197
f 196 198 199
f 195 200 196
f 197 196 199
f 198 201 199
f 197 199 202
f 198 203 201
f 196 200 198
f 198 200 203
f 199 201 202
f 201 203 204
f 201 204 202
f 195 205 206
f 206 207 208
f 195 197 205
f 206 205 207
f 208 207 209
f 208 209 210
f 195 206 200
f 206 208 200
f 208 210 200
f 197 202 205
f 205 202 207
f 207 202 209
f 210 211 212
f 210 209 211
f 210 212 200
f 209 202 211
f 212 213 200
f 212 214 213
f 212 211 214
f 211 202 214
f 203 215 204
f 203 200 215
f 204 215 216
f 204 216 202
f 215 217 216
f 215 200 217
f 217 200 218
f 216 217 219
f 216 219 202
f 219 220 202
f 217 218 219
f 218 200 221
f 218 221 220
f 221 200 222
f 219 218 220
f 220 223 202
f 223 224 202
f 221 222 223
f 220 221 223
f 222 224 223
f 213 225 200
f 213 226 225
f 214 202 226
f 213 214 226
f 200 225 227
f 225 228 227
f 200 227 229
f 202 228 226
f 225 226 228
f 202 230 228
f 200 229 231
f 222 200 232
f 200 233 232
f 200 231 233
f 202 234 230
f 224 235 202
f 202 235 236
f 202 236 234
f 227 230 229
f 227 228 230
f 229 230 234
f 222 232 224
f 232 233 235
f 233 231 236
f 224 232 235
f 236 231 234
f 233 236 235
f 229 234 231
f 237 238 239
f 237 240 238
f 237 241 240
f 240 241 242
f 241 243 242
f 243 244 242
f 243 245 244
f 245 246 244
f 239 247 248
f 248 247 249
f 237 239 250
f 239 238 247
f 239 248 250
f 240 251 238
f 238 251 247
f 248 249 252
f 252 253 254
f 252 249 253
f 248 252 250
f 252 254 250
f 247 251 249
f 249 251 253
f 237 250 241
f 241 250 243
f 243 250 245
f 245 255 246
f 246 255 256
f 245 250 255
f 240 242 251
f 242 244 251
f 244 246 251
f 246 256 251
f 250 257 255
f 250 258 257
f 251 256 259
f 251 259 260
f 254 253 261
f 254 261 262
f 254 262 250
f 253 251 261
f 262 261 263
f 262 263 264
f 262 264 250
f 264 265 250
f 250 265 266
f 261 251 263
f 263 251 267
f 251 268 267
f 250 269 258
f 251 260 270
f 250 271 269
f 250 272 271
f 250 273 272
f 251 270 274
f 251 274 275
f 251 275 276
f 264 263 267
f 264 267 265
f 265 267 268
f 265 268 266
f 250 266 277
f 250 277 273
f 266 278 277
f 266 268 278
f 273 277 276
f 276 277 278
f 272 274 271
f 272 275 274
f 272 273 275
f 273 276 275
f 251 278 268
f 251 276 278
f 255 257 256
f 256 257 259
f 257 258 259
f 259 258 260
f 258 269 260
f 260 269 270
f 269 271 270
f 271 274 270
f 279 280 281
f 279 281 282
f 279 282 283
f 283 284 285
f 283 282 284
f 285 284 286
f 285 286 287
f 287 286 288
f 287 288 289
f 289 288 290
f 291 292 293
f 291 294 280
f 291 293 294
f 292 295 296
f 293 292 296
f 296 295 297
f 295 298 297
f 297 298 299
f 291 280 300
f 281 280 294
f 293 301 294
f 279 300 280
f 281 294 301
f 291 300 292
f 292 300 295
f 295 300 298
f 293 296 301
f 296 297 301
f 297 299 301
f 279 283 300
f 281 301 282
f 283 285 300
f 282 301 284
f 298 302 299
f 299 302 303
f 298 300 302
f 299 303 301
f 302 304 303
f 302 300 304
f 303 305 301
f 304 300 306
f 305 307 301
f 303 304 305
f 304 306 305
f 305 306 307
f 285 287 300
f 284 301 286
f 287 289 300
f 286 301 288
f 289 308 300
f 300 308 309
f 288 301 290
f 301 310 290
f 300 311 312
f 301 313 314
f 300 315 306
f 301 307 316
f 306 315 307
f 307 315 316
f 300 317 315
f 301 316 318
f 300 312 317
f 301 318 313
f 315 317 316
f 316 317 318
f 289 290 308
f 308 310 309
f 308 290 310
f 309 310 319
f 300 309 320
f 300 320 311
f 301 319 310
f 301 314 319
f 309 319 320
f 320 314 311
f 320 319 314
f 317 312 318
f 318 312 313
f 312 311 313
f 313 311 314
f 321 322 323
f 322 324 325
f 322 325 323
f 321 326 322
f 324 327 328
f 322 326 324
f 325 324 328
f 323 325 329
f 328 327 330
f 325 328 329
f 324 326 327
f 327 331 330
f 327 326 331
f 328 330 329
f 330 331 332
f 330 332 329
f 331 333 332
f 331 326 333
f 332 333 334
f 332 334 329
f 321 335 336
f 336 337 338
f 338 339 340
f 321 323 335
f 336 335 337
f 338 337 339
f 340 339 341
f 321 336 326
f 336 338 326
f 338 340 326
f 340 342 326
f 323 329 335
f 335 329 337
f 337 329 339
f 339 329 341
f 340 341 342
f 342 343 344
f 342 341 343
f 342 344 326
f 344 345 326
f 344 346 345
f 341 329 343
f 343 329 346
f 344 343 346
f 326 345 347
f 345 348 347
f 329 348 346
f 345 346 348
f 333 349 334
f 326 349 333
f 326 350 349
f 329 334 351
f 334 349 351
f 329 351 352
f 349 350 351
f 326 353 350
f 350 353 352
f 329 352 354
f 350 352 351
f 352 353 354
f 326 355 356
f 329 357 358
f 326 347 355
f 347 358 355
f 347 348 358
f 329 358 348
f 326 359 353
f 326 360 359
f 326 356 360
f 329 354 361
f 329 361 362
f 329 362 357
f 356 357 362
f 355 357 356
f 355 358 357
f 353 359 354
f 359 360 361
f 356 362 360
f 354 359 361
f 360 362 361
f 363 364 365
f 366 367 363
f 366 368 367
f 363 367 364
f 366 369 368
f 368 369 370
f 369 371 370
f 370 371 372
f 366 373 369
f 369 373 371
f 371 374 372
f 374 375 372
f 374 376 375
f 375 376 377
f 368 370 378
f 370 372 378
f 365 364 379
f 365 379 380
f 366 363 373
f 363 365 373
f 365 380 373
f 368 378 367
f 367 378 364
f 364 378 379
f 380 379 381
f 380 381 382
f 380 382 373
f 379 378 381
f 371 373 374
f 374 373 376
f 373 383 376
f 372 375 378
f 375 377 378
f 378 377 384
f 373 385 383
f 378 384 386
f 382 381 387
f 382 387 388
f 388 387 389
f 382 388 373
f 373 388 390
f 381 378 387
f 378 389 387
f 388 389 390
f 390 389 391
f 373 390 392
f 373 392 393
f 390 391 392
f 378 391 389
f 378 394 391
f 373 395 385
f 373 396 395
f 378 386 397
f 378 397 398
f 373 393 399
f 373 399 400
f 373 401 396
f 373 400 401
f 401 398 396
f 401 402 398
f 378 403 394
f 378 404 403
f 378 398 402
f 378 402 404
f 392 391 394
f 392 394 393
f 393 403 399
f 393 394 403
f 399 404 400
f 399 403 404
f 401 400 402
f 400 404 402
f 376 383 377
f 383 384 377
f 383 385 384
f 384 385 386
f 385 395 386
f 386 395 397
f 395 396 397
f 397 396 398
f 405 406 407
f 405 407 408
f 405 408 409
f 409 408 410
f 409 410 411
f 411 412 413
f 411 410 412
f 413 412 414
f 413 414 415
f 415 414 416
f 417 418 406
f 419 420 417
f 417 420 418
f 407 406 418
f 419 421 422
f 419 422 420
f 422 421 423
f 419 417 424
f 419 424 421
f 422 425 420
f 422 423 425
f 421 426 423
f 423 426 427
f 426 428 427
f 427 428 429
f 405 424 406
f 417 406 424
f 407 418 425
f 420 425 418
f 405 409 424
f 407 425 408
f 421 424 426
f 423 427 425
f 409 411 424
f 408 425 410
f 426 424 428
f 427 429 425
f 424 430 428
f 425 429 431
f 428 430 429
f 429 430 431
f 424 432 430
f 425 431 433
f 430 432 431
f 431 432 433
f 411 413 424
f 410 425 412
f 413 415 424
f 412 425 414
f 415 434 424
f 414 425 416
f 415 416 434
f 424 434 435
f 425 436 416
f 424 435 437
f 424 437 438
f 424 438 439
f 425 440 436
f 425 441 440
f 425 442 441
f 424 443 432
f 425 433 444
f 424 445 443
f 425 444 446
f 432 443 433
f 433 443 444
f 443 445 444
f 424 439 445
f 425 446 442
f 445 439 446
f 446 439 442
f 444 445 446
f 434 436 435
f 434 416 436
f 435 436 440
f 435 440 437
f 437 441 438
f 437 440 441
f 439 438 442
f 442 438 441
f 447 448 449
f 447 450 451
f 447 449 450
f 451 450 452
f 451 452 453
f 454 455 456
f 454 456 457
f 458 459 460
f 459 457 460
f 458 461 448
f 458 460 461
f 454 457 459
f 456 455 462
f 455 463 462
f 463 464 462
f 463 465 464
f 465 466 464
f 458 448 467
f 449 448 461
f 447 467 448
f 458 467 459
f 454 459 467
f 454 467 455
f 460 468 461
f 449 461 468
f 460 457 468
f 456 468 457
f 456 462 468
f 447 451 467
f 451 453 467
f 449 468 450
f 450 468 452
f 455 467 463
f 463 467 465
f 465 467 469
f 465 469 466
f 466 469 470
f 469 471 470
f 470 471 472
f 462 464 468
f 464 466 468
f 466 470 468
f 469 467 471
f 471 467 473
f 471 473 472
f 472 473 474
f 470 472 468
f 472 474 468
f 453 452 475
f 453 475 476
f 476 477 478
f 476 475 477
f 478 477 479
f 453 476 467
f 476 478 467
f 452 468 475
f 475 468 477
f 478 480 467
f 478 479 480
f 467 480 481
f 467 481 482
f 467 482 483
f 467 483 484
f 477 468 479
f 468 485 479
f 468 486 485
f 468 487 486
f 468 488 487
f 467 489 473
f 467 490 489
f 473 489 474
f 489 491 474
f 468 474 491
f 468 491 492
f 467 493 490
f 467 494 493
f 467 484 494
f 489 490 491
f 491 490 492
f 490 493 492
f 492 493 495
f 468 492 495
f 468 495 496
f 468 496 488
f 480 485 481
f 480 479 485
f 481 486 482
f 481 485 486
f 483 488 484
f 482 486 487
f 482 487 483
f 483 487 488
f 494 495 493
f 494 496 495
f 484 496 494
f 484 488 496
