# sionna2 mesh — m350rtk__battery.obj
# group=battery  verts=16  tris=24
v -0.137000 0.004000 0.005945
v -0.137000 0.082000 0.105023
v -0.137000 0.082000 0.005945
v 0.013000 0.004000 0.005945
v -0.137000 0.004000 0.105023
v 0.013000 0.082000 0.105023
v 0.013000 0.082000 0.005945
v 0.013000 0.004000 0.105023
v -0.137000 -0.082000 0.005945
v -0.137000 -0.004000 0.105023
v -0.137000 -0.004000 0.005945
v 0.013000 -0.082000 0.005945
v -0.137000 -0.082000 0.105023
v 0.013000 -0.004000 0.105023
v 0.013000 -0.004000 0.005945
v 0.013000 -0.082000 0.105023
f 1 2 3
f 3 4 1
f 4 5 1
f 5 2 1
f 2 6 3
f 5 6 2
f 7 4 3
f 3 6 7
f 7 8 4
f 8 5 4
f 8 6 5
f 6 8 7
f 9 10 11
f 11 12 9
f 12 13 9
f 13 10 9
f 10 14 11
f 13 14 10
f 15 12 11
f 11 14 15
f 15 16 12
f 16 13 12
f 16 14 13
f 14 16 15
