# sionna2 mesh — m350rtk__gear.obj
# group=gear  verts=168  tris=320
v 0.124500 0.178056 -0.280607
v 0.124500 0.183000 -0.265530
v 0.124500 0.183000 -0.281382
v 0.124500 0.187944 -0.280607
v 0.124500 0.173595 -0.278355
v 0.124500 0.192405 -0.278355
v 0.179500 0.178056 -0.280607
v 0.179500 0.183000 -0.281382
v 0.179500 0.187944 -0.280607
v 0.179500 0.173595 -0.278355
v 0.179500 0.192405 -0.278355
v 0.124500 0.170056 -0.274848
v 0.179500 0.170056 -0.274848
v 0.124500 0.195944 -0.274848
v 0.179500 0.195944 -0.274848
v 0.179500 0.183000 -0.265530
v 0.124500 0.167783 -0.270429
v 0.124500 0.198217 -0.270429
v 0.124500 0.167000 -0.265530
v 0.124500 0.199000 -0.265530
v 0.179500 0.167783 -0.270429
v 0.179500 0.198217 -0.270429
v 0.179500 0.167000 -0.265530
v 0.179500 0.199000 -0.265530
v 0.124500 0.167783 -0.260631
v 0.124500 0.198217 -0.260631
v 0.124500 0.170056 -0.256212
v 0.124500 0.195944 -0.256212
v 0.124500 0.173595 -0.252705
v 0.124500 0.192405 -0.252705
v 0.179500 0.167783 -0.260631
v 0.179500 0.198217 -0.260631
v 0.179500 0.170056 -0.256212
v 0.179500 0.195944 -0.256212
v 0.179500 0.173595 -0.252705
v 0.179500 0.192405 -0.252705
v 0.124500 0.178056 -0.250453
v 0.124500 0.187944 -0.250453
v 0.124500 0.183000 -0.249677
v 0.179500 0.178056 -0.250453
v 0.179500 0.187944 -0.250453
v 0.179500 0.183000 -0.249677
v -0.179500 0.178056 -0.280607
v -0.179500 0.183000 -0.281382
v -0.124500 0.178056 -0.280607
v -0.179500 0.187944 -0.280607
v -0.124500 0.183000 -0.281382
v -0.179500 0.192405 -0.278355
v -0.124500 0.187944 -0.280607
v -0.179500 0.173595 -0.278355
v -0.124500 0.173595 -0.278355
v -0.124500 0.192405 -0.278355
v -0.179500 0.170056 -0.274848
v -0.124500 0.170056 -0.274848
v -0.179500 0.183000 -0.265530
v -0.179500 0.195944 -0.274848
v -0.124500 0.195944 -0.274848
v -0.124500 0.183000 -0.265530
v -0.179500 0.167783 -0.270429
v -0.124500 0.167783 -0.270429
v -0.179500 0.198217 -0.270429
v -0.124500 0.198217 -0.270429
v -0.179500 0.167000 -0.265530
v -0.124500 0.167000 -0.265530
v -0.179500 0.199000 -0.265530
v -0.124500 0.199000 -0.265530
v -0.179500 0.167783 -0.260631
v -0.124500 0.167783 -0.260631
v -0.179500 0.198217 -0.260631
v -0.124500 0.198217 -0.260631
v -0.179500 0.170056 -0.256212
v -0.124500 0.170056 -0.256212
v -0.179500 0.195944 -0.256212
v -0.179500 0.173595 -0.252705
v -0.179500 0.192405 -0.252705
v -0.124500 0.195944 -0.256212
v -0.124500 0.173595 -0.252705
v -0.124500 0.192405 -0.252705
v -0.179500 0.178056 -0.250453
v -0.179500 0.187944 -0.250453
v -0.179500 0.183000 -0.249677
v -0.124500 0.178056 -0.250453
v -0.124500 0.187944 -0.250453
v -0.124500 0.183000 -0.249677
v 0.124500 -0.187944 -0.280607
v 0.124500 -0.183000 -0.265530
v 0.124500 -0.183000 -0.281382
v 0.124500 -0.178056 -0.280607
v 0.124500 -0.192405 -0.278355
v 0.124500 -0.173595 -0.278355
v 0.179500 -0.183000 -0.281382
v 0.179500 -0.187944 -0.280607
v 0.179500 -0.178056 -0.280607
v 0.179500 -0.192405 -0.278355
v 0.179500 -0.173595 -0.278355
v 0.124500 -0.195944 -0.274848
v 0.179500 -0.195944 -0.274848
v 0.124500 -0.170056 -0.274848
v 0.179500 -0.183000 -0.265530
v 0.179500 -0.170056 -0.274848
v 0.124500 -0.198217 -0.270429
v 0.124500 -0.167783 -0.270429
v 0.124500 -0.199000 -0.265530
v 0.124500 -0.167000 -0.265530
v 0.179500 -0.198217 -0.270429
v 0.179500 -0.167783 -0.270429
v 0.179500 -0.199000 -0.265530
v 0.179500 -0.167000 -0.265530
v 0.124500 -0.198217 -0.260631
v 0.124500 -0.167783 -0.260631
v 0.124500 -0.195944 -0.256212
v 0.124500 -0.192405 -0.252705
v 0.124500 -0.170056 -0.256212
v 0.124500 -0.173595 -0.252705
v 0.179500 -0.198217 -0.260631
v 0.179500 -0.167783 -0.260631
v 0.179500 -0.195944 -0.256212
v 0.179500 -0.192405 -0.252705
v 0.179500 -0.170056 -0.256212
v 0.179500 -0.173595 -0.252705
v 0.124500 -0.187944 -0.250453
v 0.124500 -0.178056 -0.250453
v 0.124500 -0.183000 -0.249677
v 0.179500 -0.187944 -0.250453
v 0.179500 -0.178056 -0.250453
v 0.179500 -0.183000 -0.249677
v -0.179500 -0.183000 -0.281382
v -0.179500 -0.178056 -0.280607
v -0.124500 -0.183000 -0.281382
v -0.179500 -0.187944 -0.280607
v -0.124500 -0.187944 -0.280607
v -0.179500 -0.173595 -0.278355
v -0.124500 -0.178056 -0.280607
v -0.179500 -0.192405 -0.278355
v -0.124500 -0.192405 -0.278355
v -0.124500 -0.173595 -0.278355
v -0.179500 -0.183000 -0.265530
v -0.179500 -0.195944 -0.274848
v -0.124500 -0.195944 -0.274848
v -0.179500 -0.170056 -0.274848
v -0.124500 -0.170056 -0.274848
v -0.124500 -0.183000 -0.265530
v -0.179500 -0.198217 -0.270429
v -0.124500 -0.198217 -0.270429
v -0.179500 -0.167783 -0.270429
v -0.124500 -0.167783 -0.270429
v -0.179500 -0.199000 -0.265530
v -0.124500 -0.199000 -0.265530
v -0.179500 -0.167000 -0.265530
v -0.124500 -0.167000 -0.265530
v -0.179500 -0.198217 -0.260631
v -0.124500 -0.198217 -0.260631
v -0.179500 -0.167783 -0.260631
v -0.124500 -0.167783 -0.260631
v -0.179500 -0.195944 -0.256212
v -0.179500 -0.192405 -0.252705
v -0.179500 -0.170056 -0.256212
v -0.179500 -0.173595 -0.252705
v -0.124500 -0.195944 -0.256212
v -0.124500 -0.170056 -0.256212
v -0.124500 -0.192405 -0.252705
v -0.124500 -0.173595 -0.252705
v -0.179500 -0.187944 -0.250453
v -0.179500 -0.178056 -0.250453
v -0.179500 -0.183000 -0.249677
v -0.124500 -0.187944 -0.250453
v -0.124500 -0.183000 -0.249677
v -0.124500 -0.178056 -0.250453
f 1 2 3
f 3 2 4
f 5 2 1
f 4 2 6
f 1 3 7
f 3 4 8
f 4 6 9
f 5 1 10
f 7 3 8
f 8 4 9
f 10 1 7
f 9 6 11
f 12 5 13
f 6 14 11
f 13 5 10
f 11 14 15
f 7 8 16
f 8 9 16
f 10 7 16
f 9 11 16
f 17 2 12
f 12 2 5
f 6 2 14
f 14 2 18
f 19 2 17
f 18 2 20
f 17 12 21
f 14 18 15
f 21 12 13
f 21 13 16
f 15 18 22
f 13 10 16
f 11 15 16
f 15 22 16
f 19 17 23
f 18 20 22
f 23 17 21
f 23 21 16
f 22 20 24
f 22 24 16
f 25 2 19
f 20 2 26
f 27 2 25
f 26 2 28
f 29 2 27
f 28 2 30
f 25 19 31
f 20 26 24
f 31 19 23
f 31 23 16
f 24 32 16
f 24 26 32
f 27 25 33
f 26 28 32
f 33 31 16
f 33 25 31
f 32 34 16
f 32 28 34
f 35 33 16
f 34 36 16
f 37 2 29
f 30 2 38
f 39 2 37
f 38 2 39
f 29 27 35
f 28 30 34
f 35 27 33
f 40 35 16
f 36 41 16
f 34 30 36
f 42 40 16
f 41 42 16
f 30 38 36
f 37 29 40
f 38 39 41
f 39 37 42
f 40 29 35
f 42 37 40
f 41 39 42
f 36 38 41
f 43 44 45
f 44 46 47
f 46 48 49
f 50 43 51
f 45 44 47
f 47 46 49
f 51 43 45
f 49 48 52
f 53 50 54
f 43 55 44
f 44 55 46
f 48 56 52
f 50 55 43
f 46 55 48
f 54 50 51
f 52 56 57
f 45 47 58
f 47 49 58
f 51 45 58
f 49 52 58
f 59 53 60
f 59 55 53
f 53 55 50
f 48 55 56
f 56 61 57
f 56 55 61
f 60 53 54
f 57 61 62
f 63 55 59
f 63 59 64
f 61 65 62
f 61 55 65
f 64 59 60
f 62 65 66
f 60 54 58
f 54 51 58
f 52 57 58
f 57 62 58
f 64 60 58
f 62 66 58
f 67 55 63
f 67 63 68
f 65 55 69
f 65 69 66
f 68 63 64
f 66 69 70
f 71 55 67
f 71 67 72
f 69 55 73
f 74 55 71
f 73 55 75
f 69 73 70
f 72 67 68
f 70 73 76
f 68 64 58
f 66 70 58
f 72 68 58
f 70 76 58
f 77 72 58
f 76 78 58
f 74 71 77
f 79 55 74
f 75 55 80
f 81 55 79
f 80 55 81
f 73 75 76
f 77 71 72
f 76 75 78
f 75 80 78
f 79 74 82
f 80 81 83
f 81 79 84
f 82 74 77
f 84 79 82
f 83 81 84
f 78 80 83
f 82 77 58
f 78 83 58
f 84 82 58
f 83 84 58
f 85 86 87
f 87 86 88
f 89 86 85
f 88 86 90
f 87 88 91
f 85 87 92
f 88 90 93
f 89 85 94
f 94 85 92
f 92 87 91
f 91 88 93
f 93 90 95
f 96 89 97
f 90 98 95
f 97 89 94
f 92 91 99
f 91 93 99
f 94 92 99
f 93 95 99
f 95 98 100
f 96 86 89
f 90 86 98
f 101 86 96
f 98 86 102
f 103 86 101
f 102 86 104
f 101 96 105
f 98 102 100
f 105 96 97
f 97 94 99
f 95 100 99
f 105 97 99
f 100 102 106
f 100 106 99
f 103 101 107
f 102 104 106
f 107 101 105
f 107 105 99
f 106 104 108
f 106 108 99
f 109 86 103
f 104 86 110
f 111 86 109
f 112 86 111
f 113 86 114
f 110 86 113
f 109 103 115
f 104 110 108
f 115 103 107
f 115 107 99
f 108 116 99
f 108 110 116
f 111 109 117
f 110 113 116
f 117 115 99
f 117 109 115
f 118 117 99
f 119 120 99
f 116 119 99
f 116 113 119
f 121 86 112
f 114 86 122
f 123 86 121
f 122 86 123
f 112 111 118
f 113 114 119
f 124 118 99
f 120 125 99
f 118 111 117
f 126 124 99
f 125 126 99
f 119 114 120
f 114 122 120
f 121 112 124
f 123 121 126
f 122 123 125
f 124 112 118
f 120 122 125
f 126 121 124
f 125 123 126
f 127 128 129
f 130 127 131
f 128 132 133
f 134 130 135
f 135 130 131
f 131 127 129
f 129 128 133
f 133 132 136
f 130 137 127
f 127 137 128
f 138 134 139
f 134 137 130
f 128 137 132
f 132 140 136
f 139 134 135
f 136 140 141
f 131 129 142
f 129 133 142
f 135 131 142
f 133 136 142
f 138 137 134
f 132 137 140
f 143 138 144
f 143 137 138
f 140 145 141
f 140 137 145
f 144 138 139
f 141 145 146
f 147 137 143
f 147 143 148
f 145 149 146
f 145 137 149
f 148 143 144
f 146 149 150
f 139 135 142
f 136 141 142
f 144 139 142
f 141 146 142
f 148 144 142
f 146 150 142
f 151 137 147
f 151 147 152
f 149 137 153
f 149 153 150
f 152 147 148
f 150 153 154
f 155 137 151
f 156 137 155
f 157 137 158
f 155 151 159
f 153 137 157
f 153 157 154
f 159 151 152
f 154 157 160
f 152 148 142
f 150 154 142
f 159 152 142
f 161 159 142
f 160 162 142
f 154 160 142
f 163 137 156
f 158 137 164
f 165 137 163
f 164 137 165
f 156 155 161
f 157 158 160
f 161 155 159
f 160 158 162
f 158 164 162
f 163 156 166
f 165 163 167
f 164 165 168
f 166 156 161
f 162 164 168
f 167 163 166
f 168 165 167
f 166 161 142
f 162 168 142
f 167 166 142
f 168 167 142
