# sionna2 mesh — m350rtk__arm.obj
# group=arm  verts=488  tris=960
v 0.146262 0.121321 -0.010365
v 0.182436 0.145898 -0.010899
v 0.148385 0.118667 -0.010899
v 0.184559 0.143243 -0.010365
v 0.150508 0.116012 -0.010365
v 0.144347 0.123716 -0.008817
v 0.180313 0.148552 -0.010365
v 0.148385 0.118667 -0.000000
v 0.152424 0.113617 -0.008817
v 0.153943 0.111717 -0.006406
v 0.142827 0.125617 -0.006406
v 0.154919 0.110496 -0.003368
v 0.141851 0.126837 -0.003368
v 0.155256 0.110076 0.000000
v 0.141515 0.127257 0.000000
v 0.178398 0.150947 -0.008817
v 0.176878 0.152848 -0.006406
v 0.175902 0.154068 -0.003368
v 0.186474 0.140848 -0.008817
v 0.187994 0.138947 -0.006406
v 0.188970 0.137727 -0.003368
v 0.189306 0.137307 0.000000
v 0.216486 0.173128 -0.010899
v 0.218609 0.170474 -0.010365
v 0.214363 0.175783 -0.010365
v 0.220525 0.168079 -0.008817
v 0.212448 0.178178 -0.008817
v 0.252660 0.197705 -0.010365
v 0.250537 0.200359 -0.010899
v 0.248414 0.203014 -0.010365
v 0.254575 0.195310 -0.008817
v 0.246499 0.205409 -0.008817
v 0.222045 0.166178 -0.006406
v 0.210928 0.180078 -0.006406
v 0.256095 0.193409 -0.006406
v 0.244979 0.207309 -0.006406
v 0.284588 0.227590 -0.010899
v 0.286711 0.224935 -0.010365
v 0.282465 0.230245 -0.010365
v 0.288626 0.222541 -0.008817
v 0.280549 0.232640 -0.008817
v 0.318638 0.254821 -0.010899
v 0.320761 0.252166 -0.010365
v 0.316515 0.257476 -0.010365
v 0.322676 0.249772 -0.008817
v 0.314600 0.259871 -0.008817
v 0.290146 0.220640 -0.006406
v 0.279029 0.234540 -0.006406
v 0.324196 0.247871 -0.006406
v 0.313080 0.261771 -0.006406
v 0.318638 0.254821 0.000000
v 0.223020 0.164958 -0.003368
v 0.209953 0.181299 -0.003368
v 0.257071 0.192189 -0.003368
v 0.175566 0.154488 0.000000
v 0.223357 0.164538 0.000000
v 0.209616 0.181719 0.000000
v 0.244003 0.208530 -0.003368
v 0.257407 0.191769 0.000000
v 0.243667 0.208950 0.000000
v 0.291121 0.219420 -0.003368
v 0.278054 0.235760 -0.003368
v 0.325172 0.246651 -0.003368
v 0.312104 0.262991 -0.003368
v 0.291458 0.218999 0.000000
v 0.277717 0.236181 0.000000
v 0.325508 0.246230 0.000000
v 0.311768 0.263412 0.000000
v 0.154919 0.110496 0.003368
v 0.141851 0.126837 0.003368
v 0.153943 0.111717 0.006406
v 0.142827 0.125617 0.006406
v 0.152424 0.113617 0.008817
v 0.144347 0.123716 0.008817
v 0.146262 0.121321 0.010365
v 0.150508 0.116012 0.010365
v 0.148385 0.118667 0.010899
v 0.184559 0.143243 0.010365
v 0.180313 0.148552 0.010365
v 0.182436 0.145898 0.010899
v 0.175902 0.154068 0.003368
v 0.176878 0.152848 0.006406
v 0.178398 0.150947 0.008817
v 0.188970 0.137727 0.003368
v 0.187994 0.138947 0.006406
v 0.186474 0.140848 0.008817
v 0.223020 0.164958 0.003368
v 0.209953 0.181299 0.003368
v 0.257071 0.192189 0.003368
v 0.222045 0.166178 0.006406
v 0.210928 0.180078 0.006406
v 0.244003 0.208530 0.003368
v 0.256095 0.193409 0.006406
v 0.244979 0.207309 0.006406
v 0.291121 0.219420 0.003368
v 0.278054 0.235760 0.003368
v 0.325172 0.246651 0.003368
v 0.312104 0.262991 0.003368
v 0.290146 0.220640 0.006406
v 0.279029 0.234540 0.006406
v 0.324196 0.247871 0.006406
v 0.313080 0.261771 0.006406
v 0.322676 0.249772 0.008817
v 0.314600 0.259871 0.008817
v 0.220525 0.168079 0.008817
v 0.212448 0.178178 0.008817
v 0.254575 0.195310 0.008817
v 0.246499 0.205409 0.008817
v 0.218609 0.170474 0.010365
v 0.214363 0.175783 0.010365
v 0.216486 0.173128 0.010899
v 0.252660 0.197705 0.010365
v 0.248414 0.203014 0.010365
v 0.250537 0.200359 0.010899
v 0.288626 0.222541 0.008817
v 0.280549 0.232640 0.008817
v 0.320761 0.252166 0.010365
v 0.316515 0.257476 0.010365
v 0.318638 0.254821 0.010899
v 0.286711 0.224935 0.010365
v 0.282465 0.230245 0.010365
v 0.284588 0.227590 0.010899
v -0.153943 0.111717 -0.006406
v -0.186474 0.140848 -0.008817
v -0.152424 0.113617 -0.008817
v -0.187994 0.138947 -0.006406
v -0.154919 0.110496 -0.003368
v -0.188970 0.137727 -0.003368
v -0.155256 0.110076 0.000000
v -0.189306 0.137307 0.000000
v -0.222045 0.166178 -0.006406
v -0.256095 0.193409 -0.006406
v -0.254575 0.195310 -0.008817
v -0.284588 0.227590 -0.010899
v -0.318638 0.254821 -0.010899
v -0.316515 0.257476 -0.010365
v -0.286711 0.224935 -0.010365
v -0.320761 0.252166 -0.010365
v -0.282465 0.230245 -0.010365
v -0.288626 0.222541 -0.008817
v -0.314600 0.259871 -0.008817
v -0.322676 0.249772 -0.008817
v -0.280549 0.232640 -0.008817
v -0.252660 0.197705 -0.010365
v -0.250537 0.200359 -0.010899
v -0.248414 0.203014 -0.010365
v -0.246499 0.205409 -0.008817
v -0.290146 0.220640 -0.006406
v -0.324196 0.247871 -0.006406
v -0.318638 0.254821 -0.000000
v -0.313080 0.261771 -0.006406
v -0.279029 0.234540 -0.006406
v -0.244979 0.207309 -0.006406
v -0.184559 0.143243 -0.010365
v -0.218609 0.170474 -0.010365
v -0.216486 0.173128 -0.010899
v -0.220525 0.168079 -0.008817
v -0.214363 0.175783 -0.010365
v -0.182436 0.145898 -0.010899
v -0.212448 0.178178 -0.008817
v -0.180313 0.148552 -0.010365
v -0.148385 0.118667 -0.010899
v -0.150508 0.116012 -0.010365
v -0.146262 0.121321 -0.010365
v -0.178398 0.150947 -0.008817
v -0.210928 0.180078 -0.006406
v -0.176878 0.152848 -0.006406
v -0.144347 0.123716 -0.008817
v -0.223020 0.164958 -0.003368
v -0.257071 0.192189 -0.003368
v -0.223357 0.164538 0.000000
v -0.257407 0.191769 0.000000
v -0.291121 0.219420 -0.003368
v -0.325172 0.246651 -0.003368
v -0.312104 0.262991 -0.003368
v -0.278054 0.235760 -0.003368
v -0.244003 0.208530 -0.003368
v -0.291458 0.218999 0.000000
v -0.311768 0.263412 0.000000
v -0.325508 0.246230 0.000000
v -0.277717 0.236181 0.000000
v -0.243667 0.208950 0.000000
v -0.209953 0.181299 -0.003368
v -0.175902 0.154068 -0.003368
v -0.142827 0.125617 -0.006406
v -0.209616 0.181719 0.000000
v -0.141851 0.126837 -0.003368
v -0.175566 0.154488 0.000000
v -0.148385 0.118667 -0.000000
v -0.141515 0.127257 0.000000
v -0.154919 0.110496 0.003368
v -0.188970 0.137727 0.003368
v -0.153943 0.111717 0.006406
v -0.187994 0.138947 0.006406
v -0.152424 0.113617 0.008817
v -0.186474 0.140848 0.008817
v -0.150508 0.116012 0.010365
v -0.223020 0.164958 0.003368
v -0.257071 0.192189 0.003368
v -0.222045 0.166178 0.006406
v -0.256095 0.193409 0.006406
v -0.291121 0.219420 0.003368
v -0.325172 0.246651 0.003368
v -0.312104 0.262991 0.003368
v -0.278054 0.235760 0.003368
v -0.244003 0.208530 0.003368
v -0.290146 0.220640 0.006406
v -0.324196 0.247871 0.006406
v -0.313080 0.261771 0.006406
v -0.322676 0.249772 0.008817
v -0.314600 0.259871 0.008817
v -0.279029 0.234540 0.006406
v -0.244979 0.207309 0.006406
v -0.209953 0.181299 0.003368
v -0.175902 0.154068 0.003368
v -0.210928 0.180078 0.006406
v -0.176878 0.152848 0.006406
v -0.141851 0.126837 0.003368
v -0.288626 0.222541 0.008817
v -0.320761 0.252166 0.010365
v -0.316515 0.257476 0.010365
v -0.318638 0.254821 0.010899
v -0.280549 0.232640 0.008817
v -0.254575 0.195310 0.008817
v -0.246499 0.205409 0.008817
v -0.286711 0.224935 0.010365
v -0.284588 0.227590 0.010899
v -0.282465 0.230245 0.010365
v -0.252660 0.197705 0.010365
v -0.248414 0.203014 0.010365
v -0.250537 0.200359 0.010899
v -0.220525 0.168079 0.008817
v -0.212448 0.178178 0.008817
v -0.178398 0.150947 0.008817
v -0.142827 0.125617 0.006406
v -0.184559 0.143243 0.010365
v -0.218609 0.170474 0.010365
v -0.182436 0.145898 0.010899
v -0.216486 0.173128 0.010899
v -0.214363 0.175783 0.010365
v -0.180313 0.148552 0.010365
v -0.144347 0.123716 0.008817
v -0.146262 0.121321 0.010365
v -0.148385 0.118667 0.010899
v -0.282465 -0.230245 -0.010365
v -0.316515 -0.257476 -0.010365
v -0.318638 -0.254821 -0.010899
v -0.284588 -0.227590 -0.010899
v -0.320761 -0.252166 -0.010365
v -0.286711 -0.224935 -0.010365
v -0.322676 -0.249772 -0.008817
v -0.280549 -0.232640 -0.008817
v -0.314600 -0.259871 -0.008817
v -0.288626 -0.222541 -0.008817
v -0.250537 -0.200359 -0.010899
v -0.248414 -0.203014 -0.010365
v -0.252660 -0.197705 -0.010365
v -0.246499 -0.205409 -0.008817
v -0.254575 -0.195310 -0.008817
v -0.318638 -0.254821 0.000000
v -0.324196 -0.247871 -0.006406
v -0.279029 -0.234540 -0.006406
v -0.313080 -0.261771 -0.006406
v -0.290146 -0.220640 -0.006406
v -0.244979 -0.207309 -0.006406
v -0.256095 -0.193409 -0.006406
v -0.210928 -0.180078 -0.006406
v -0.216486 -0.173128 -0.010899
v -0.214363 -0.175783 -0.010365
v -0.218609 -0.170474 -0.010365
v -0.212448 -0.178178 -0.008817
v -0.180313 -0.148552 -0.010365
v -0.220525 -0.168079 -0.008817
v -0.182436 -0.145898 -0.010899
v -0.184559 -0.143243 -0.010365
v -0.178398 -0.150947 -0.008817
v -0.148385 -0.118667 -0.010899
v -0.146262 -0.121321 -0.010365
v -0.150508 -0.116012 -0.010365
v -0.186474 -0.140848 -0.008817
v -0.144347 -0.123716 -0.008817
v -0.222045 -0.166178 -0.006406
v -0.176878 -0.152848 -0.006406
v -0.187994 -0.138947 -0.006406
v -0.142827 -0.125617 -0.006406
v -0.325172 -0.246651 -0.003368
v -0.278054 -0.235760 -0.003368
v -0.312104 -0.262991 -0.003368
v -0.291121 -0.219420 -0.003368
v -0.244003 -0.208530 -0.003368
v -0.257071 -0.192189 -0.003368
v -0.325508 -0.246230 0.000000
v -0.277717 -0.236181 0.000000
v -0.311768 -0.263412 0.000000
v -0.291458 -0.218999 0.000000
v -0.243667 -0.208950 0.000000
v -0.257407 -0.191769 0.000000
v -0.223020 -0.164958 -0.003368
v -0.209953 -0.181299 -0.003368
v -0.209616 -0.181719 0.000000
v -0.175902 -0.154068 -0.003368
v -0.188970 -0.137727 -0.003368
v -0.141851 -0.126837 -0.003368
v -0.223357 -0.164538 0.000000
v -0.175566 -0.154488 0.000000
v -0.189306 -0.137307 0.000000
v -0.141515 -0.127257 0.000000
v -0.152424 -0.113617 -0.008817
v -0.153943 -0.111717 -0.006406
v -0.154919 -0.110496 -0.003368
v -0.155256 -0.110076 0.000000
v -0.148385 -0.118667 0.000000
v -0.325172 -0.246651 0.003368
v -0.312104 -0.262991 0.003368
v -0.278054 -0.235760 0.003368
v -0.291121 -0.219420 0.003368
v -0.244003 -0.208530 0.003368
v -0.257071 -0.192189 0.003368
v -0.324196 -0.247871 0.006406
v -0.313080 -0.261771 0.006406
v -0.314600 -0.259871 0.008817
v -0.322676 -0.249772 0.008817
v -0.279029 -0.234540 0.006406
v -0.290146 -0.220640 0.006406
v -0.244979 -0.207309 0.006406
v -0.256095 -0.193409 0.006406
v -0.223020 -0.164958 0.003368
v -0.209953 -0.181299 0.003368
v -0.210928 -0.180078 0.006406
v -0.175902 -0.154068 0.003368
v -0.188970 -0.137727 0.003368
v -0.141851 -0.126837 0.003368
v -0.222045 -0.166178 0.006406
v -0.176878 -0.152848 0.006406
v -0.187994 -0.138947 0.006406
v -0.142827 -0.125617 0.006406
v -0.316515 -0.257476 0.010365
v -0.320761 -0.252166 0.010365
v -0.318638 -0.254821 0.010899
v -0.280549 -0.232640 0.008817
v -0.288626 -0.222541 0.008817
v -0.246499 -0.205409 0.008817
v -0.254575 -0.195310 0.008817
v -0.282465 -0.230245 0.010365
v -0.286711 -0.224935 0.010365
v -0.284588 -0.227590 0.010899
v -0.248414 -0.203014 0.010365
v -0.252660 -0.197705 0.010365
v -0.250537 -0.200359 0.010899
v -0.212448 -0.178178 0.008817
v -0.220525 -0.168079 0.008817
v -0.178398 -0.150947 0.008817
v -0.186474 -0.140848 0.008817
v -0.144347 -0.123716 0.008817
v -0.214363 -0.175783 0.010365
v -0.218609 -0.170474 0.010365
v -0.216486 -0.173128 0.010899
v -0.182436 -0.145898 0.010899
v -0.184559 -0.143243 0.010365
v -0.180313 -0.148552 0.010365
v -0.152424 -0.113617 0.008817
v -0.146262 -0.121321 0.010365
v -0.150508 -0.116012 0.010365
v -0.148385 -0.118667 0.010899
v -0.154919 -0.110496 0.003368
v -0.153943 -0.111717 0.006406
v 0.146262 -0.121321 -0.010365
v 0.178398 -0.150947 -0.008817
v 0.144347 -0.123716 -0.008817
v 0.176878 -0.152848 -0.006406
v 0.142827 -0.125617 -0.006406
v 0.175902 -0.154068 -0.003368
v 0.141851 -0.126837 -0.003368
v 0.175566 -0.154488 0.000000
v 0.141515 -0.127257 0.000000
v 0.150508 -0.116012 -0.010365
v 0.182436 -0.145898 -0.010899
v 0.148385 -0.118667 -0.010899
v 0.180313 -0.148552 -0.010365
v 0.152424 -0.113617 -0.008817
v 0.184559 -0.143243 -0.010365
v 0.148385 -0.118667 -0.000000
v 0.153943 -0.111717 -0.006406
v 0.154919 -0.110496 -0.003368
v 0.155256 -0.110076 0.000000
v 0.214363 -0.175783 -0.010365
v 0.212448 -0.178178 -0.008817
v 0.216486 -0.173128 -0.010899
v 0.186474 -0.140848 -0.008817
v 0.218609 -0.170474 -0.010365
v 0.250537 -0.200359 -0.010899
v 0.248414 -0.203014 -0.010365
v 0.252660 -0.197705 -0.010365
v 0.246499 -0.205409 -0.008817
v 0.220525 -0.168079 -0.008817
v 0.254575 -0.195310 -0.008817
v 0.210928 -0.180078 -0.006406
v 0.187994 -0.138947 -0.006406
v 0.244979 -0.207309 -0.006406
v 0.222045 -0.166178 -0.006406
v 0.284588 -0.227590 -0.010899
v 0.282465 -0.230245 -0.010365
v 0.286711 -0.224935 -0.010365
v 0.280549 -0.232640 -0.008817
v 0.288626 -0.222541 -0.008817
v 0.316515 -0.257476 -0.010365
v 0.314600 -0.259871 -0.008817
v 0.318638 -0.254821 -0.010899
v 0.320761 -0.252166 -0.010365
v 0.322676 -0.249772 -0.008817
v 0.279029 -0.234540 -0.006406
v 0.256095 -0.193409 -0.006406
v 0.290146 -0.220640 -0.006406
v 0.313080 -0.261771 -0.006406
v 0.318638 -0.254821 0.000000
v 0.324196 -0.247871 -0.006406
v 0.244003 -0.208530 -0.003368
v 0.209953 -0.181299 -0.003368
v 0.243667 -0.208950 0.000000
v 0.188970 -0.137727 -0.003368
v 0.223020 -0.164958 -0.003368
v 0.209616 -0.181719 0.000000
v 0.189306 -0.137307 0.000000
v 0.223357 -0.164538 0.000000
v 0.257071 -0.192189 -0.003368
v 0.278054 -0.235760 -0.003368
v 0.291121 -0.219420 -0.003368
v 0.312104 -0.262991 -0.003368
v 0.325172 -0.246651 -0.003368
v 0.277717 -0.236181 0.000000
v 0.257407 -0.191769 0.000000
v 0.291458 -0.218999 0.000000
v 0.311768 -0.263412 0.000000
v 0.325508 -0.246230 0.000000
v 0.175902 -0.154068 0.003368
v 0.141851 -0.126837 0.003368
v 0.176878 -0.152848 0.006406
v 0.142827 -0.125617 0.006406
v 0.178398 -0.150947 0.008817
v 0.144347 -0.123716 0.008817
v 0.154919 -0.110496 0.003368
v 0.153943 -0.111717 0.006406
v 0.152424 -0.113617 0.008817
v 0.146262 -0.121321 0.010365
v 0.150508 -0.116012 0.010365
v 0.148385 -0.118667 0.010899
v 0.180313 -0.148552 0.010365
v 0.184559 -0.143243 0.010365
v 0.182436 -0.145898 0.010899
v 0.244003 -0.208530 0.003368
v 0.209953 -0.181299 0.003368
v 0.244979 -0.207309 0.006406
v 0.188970 -0.137727 0.003368
v 0.223020 -0.164958 0.003368
v 0.210928 -0.180078 0.006406
v 0.187994 -0.138947 0.006406
v 0.222045 -0.166178 0.006406
v 0.257071 -0.192189 0.003368
v 0.278054 -0.235760 0.003368
v 0.291121 -0.219420 0.003368
v 0.312104 -0.262991 0.003368
v 0.325172 -0.246651 0.003368
v 0.279029 -0.234540 0.006406
v 0.256095 -0.193409 0.006406
v 0.290146 -0.220640 0.006406
v 0.313080 -0.261771 0.006406
v 0.324196 -0.247871 0.006406
v 0.314600 -0.259871 0.008817
v 0.322676 -0.249772 0.008817
v 0.246499 -0.205409 0.008817
v 0.212448 -0.178178 0.008817
v 0.186474 -0.140848 0.008817
v 0.220525 -0.168079 0.008817
v 0.254575 -0.195310 0.008817
v 0.214363 -0.175783 0.010365
v 0.216486 -0.173128 0.010899
v 0.218609 -0.170474 0.010365
v 0.248414 -0.203014 0.010365
v 0.252660 -0.197705 0.010365
v 0.250537 -0.200359 0.010899
v 0.280549 -0.232640 0.008817
v 0.288626 -0.222541 0.008817
v 0.316515 -0.257476 0.010365
v 0.320761 -0.252166 0.010365
v 0.318638 -0.254821 0.010899
v 0.282465 -0.230245 0.010365
v 0.286711 -0.224935 0.010365
v 0.284588 -0.227590 0.010899
f 1 2 3
f 3 4 5
f 6 7 1
f 8 3 5
f 8 1 3
f 8 6 1
f 8 5 9
f 8 9 10
f 8 11 6
f 8 10 12
f 8 13 11
f 8 12 14
f 8 15 13
f 11 16 6
f 13 17 11
f 15 18 13
f 5 19 9
f 9 19 20
f 9 20 10
f 10 20 21
f 10 21 12
f 12 21 22
f 12 22 14
f 3 2 4
f 1 7 2
f 5 4 19
f 7 23 2
f 2 24 4
f 16 25 7
f 6 16 7
f 4 26 19
f 16 27 25
f 2 23 24
f 4 24 26
f 7 25 23
f 23 28 24
f 25 29 23
f 23 29 28
f 25 30 29
f 27 30 25
f 24 28 31
f 24 31 26
f 27 32 30
f 11 17 16
f 17 27 16
f 19 33 20
f 17 34 27
f 19 26 33
f 34 32 27
f 26 35 33
f 26 31 35
f 34 36 32
f 30 37 29
f 29 38 28
f 32 39 30
f 29 37 38
f 30 39 37
f 28 38 40
f 28 40 31
f 32 41 39
f 39 42 37
f 37 43 38
f 41 44 39
f 37 42 43
f 38 43 45
f 39 44 42
f 38 45 40
f 41 46 44
f 36 41 32
f 31 40 47
f 31 47 35
f 36 48 41
f 40 49 47
f 48 46 41
f 48 50 46
f 40 45 49
f 43 42 51
f 42 44 51
f 45 43 51
f 44 46 51
f 13 18 17
f 20 52 21
f 18 34 17
f 18 53 34
f 20 33 52
f 53 36 34
f 33 54 52
f 55 53 18
f 15 55 18
f 21 56 22
f 55 57 53
f 21 52 56
f 57 58 53
f 52 59 56
f 53 58 36
f 57 60 58
f 33 35 54
f 52 54 59
f 58 48 36
f 35 47 61
f 35 61 54
f 58 62 48
f 47 63 61
f 62 50 48
f 62 64 50
f 47 49 63
f 49 45 51
f 46 50 51
f 50 64 51
f 63 49 51
f 60 62 58
f 54 61 65
f 54 65 59
f 60 66 62
f 61 67 65
f 66 64 62
f 61 63 67
f 66 68 64
f 64 68 51
f 67 63 51
f 8 14 69
f 8 70 15
f 8 69 71
f 8 72 70
f 8 71 73
f 8 74 72
f 8 75 74
f 8 73 76
f 8 76 77
f 8 77 75
f 73 78 76
f 77 79 75
f 76 80 77
f 70 55 15
f 72 81 70
f 74 82 72
f 75 83 74
f 14 22 84
f 14 84 69
f 69 84 85
f 69 85 71
f 71 85 86
f 71 86 73
f 81 57 55
f 70 81 55
f 22 87 84
f 81 88 57
f 22 56 87
f 88 60 57
f 56 89 87
f 72 82 81
f 84 90 85
f 82 88 81
f 82 91 88
f 84 87 90
f 91 92 88
f 87 93 90
f 88 92 60
f 91 94 92
f 56 59 89
f 87 89 93
f 92 66 60
f 59 65 95
f 59 95 89
f 92 96 66
f 65 97 95
f 96 68 66
f 65 67 97
f 68 98 51
f 97 67 51
f 96 98 68
f 94 96 92
f 89 95 99
f 89 99 93
f 94 100 96
f 95 101 99
f 98 102 51
f 101 97 51
f 100 98 96
f 100 102 98
f 95 97 101
f 103 101 51
f 102 104 51
f 74 83 82
f 83 91 82
f 85 105 86
f 83 106 91
f 85 90 105
f 106 94 91
f 90 107 105
f 106 108 94
f 73 86 78
f 79 106 83
f 75 79 83
f 76 78 80
f 77 80 79
f 86 109 78
f 80 110 79
f 78 111 80
f 79 110 106
f 86 105 109
f 78 109 111
f 110 108 106
f 105 107 112
f 80 111 110
f 105 112 109
f 110 113 108
f 111 113 110
f 109 114 111
f 109 112 114
f 111 114 113
f 90 93 107
f 108 100 94
f 93 99 115
f 93 115 107
f 108 116 100
f 117 103 51
f 104 118 51
f 116 102 100
f 99 103 115
f 116 104 102
f 99 101 103
f 119 117 51
f 118 119 51
f 113 116 108
f 107 115 120
f 114 121 113
f 112 122 114
f 107 120 112
f 113 121 116
f 114 122 121
f 112 120 122
f 121 104 116
f 115 103 117
f 115 117 120
f 122 118 121
f 120 119 122
f 121 118 104
f 120 117 119
f 122 119 118
f 123 124 125
f 123 126 124
f 127 126 123
f 127 128 126
f 129 128 127
f 129 130 128
f 131 132 133
f 134 135 136
f 137 138 135
f 137 135 134
f 134 136 139
f 140 138 137
f 139 136 141
f 140 142 138
f 139 141 143
f 133 137 144
f 144 137 134
f 145 134 139
f 146 139 143
f 144 134 145
f 145 139 146
f 133 140 137
f 146 143 147
f 148 149 142
f 135 138 150
f 136 135 150
f 148 142 140
f 143 151 152
f 143 141 151
f 138 142 150
f 141 136 150
f 132 140 133
f 132 148 140
f 147 143 152
f 147 152 153
f 154 155 156
f 124 157 155
f 157 144 155
f 156 145 146
f 155 144 145
f 155 145 156
f 156 146 158
f 158 146 147
f 159 156 158
f 157 133 144
f 158 147 160
f 154 156 159
f 159 158 161
f 124 155 154
f 162 159 161
f 163 154 159
f 164 161 165
f 161 160 165
f 125 124 154
f 161 158 160
f 126 131 157
f 131 133 157
f 160 147 153
f 160 153 166
f 126 157 124
f 165 166 167
f 168 165 167
f 165 160 166
f 169 170 132
f 171 172 170
f 173 149 148
f 173 174 149
f 142 149 150
f 151 141 150
f 152 175 176
f 152 151 175
f 149 174 150
f 175 151 150
f 170 148 132
f 170 173 148
f 153 152 176
f 153 176 177
f 178 174 173
f 176 175 179
f 178 180 174
f 174 180 150
f 179 175 150
f 176 179 181
f 172 173 170
f 177 176 181
f 172 178 173
f 177 181 182
f 128 169 131
f 169 132 131
f 166 177 183
f 128 131 126
f 167 183 184
f 185 167 184
f 167 166 183
f 130 171 169
f 171 170 169
f 183 182 186
f 130 169 128
f 187 184 188
f 184 186 188
f 184 183 186
f 166 153 177
f 183 177 182
f 163 159 162
f 162 161 164
f 125 154 163
f 189 163 162
f 189 162 164
f 189 125 163
f 189 164 168
f 189 123 125
f 189 168 185
f 189 127 123
f 189 185 187
f 189 129 127
f 189 187 190
f 164 165 168
f 168 167 185
f 185 184 187
f 187 188 190
f 191 130 129
f 191 192 130
f 193 192 191
f 193 194 192
f 195 194 193
f 195 196 194
f 197 196 195
f 198 199 172
f 200 201 199
f 202 180 178
f 180 203 150
f 204 179 150
f 181 179 204
f 202 203 180
f 181 204 205
f 199 178 172
f 182 181 205
f 199 202 178
f 182 205 206
f 207 203 202
f 203 208 150
f 209 204 150
f 207 208 203
f 208 210 150
f 211 209 150
f 205 209 212
f 205 204 209
f 201 202 199
f 201 207 202
f 206 205 212
f 206 212 213
f 192 198 171
f 198 172 171
f 186 206 214
f 192 171 130
f 190 188 215
f 188 214 215
f 188 186 214
f 194 200 198
f 200 199 198
f 214 213 216
f 194 198 192
f 215 216 217
f 218 215 217
f 215 214 216
f 186 182 206
f 214 206 213
f 219 208 207
f 210 220 150
f 221 211 150
f 219 210 208
f 220 222 150
f 222 221 150
f 212 211 223
f 212 209 211
f 224 207 201
f 224 219 207
f 213 212 223
f 213 223 225
f 226 210 219
f 223 211 221
f 226 220 210
f 227 222 220
f 228 221 222
f 223 221 228
f 227 220 226
f 228 222 227
f 229 219 224
f 225 223 228
f 229 226 219
f 230 228 227
f 231 227 226
f 225 228 230
f 231 226 229
f 230 227 231
f 196 232 200
f 232 201 200
f 232 224 201
f 216 225 233
f 196 200 194
f 217 233 234
f 235 217 234
f 217 216 233
f 236 237 232
f 238 239 237
f 237 224 232
f 233 225 230
f 239 229 237
f 237 229 224
f 233 230 240
f 240 230 231
f 239 231 229
f 240 231 239
f 241 240 239
f 236 232 196
f 242 234 241
f 234 240 241
f 238 237 236
f 241 239 238
f 197 236 196
f 243 241 238
f 244 238 236
f 234 233 240
f 216 213 225
f 189 191 129
f 189 190 218
f 189 193 191
f 189 218 235
f 189 195 193
f 189 235 242
f 189 197 195
f 189 242 243
f 189 244 197
f 189 243 244
f 242 241 243
f 244 236 197
f 243 238 244
f 190 215 218
f 218 217 235
f 235 234 242
f 245 246 247
f 248 247 249
f 250 249 251
f 245 247 248
f 248 249 250
f 252 246 245
f 252 253 246
f 250 251 254
f 255 248 250
f 256 245 248
f 257 250 254
f 256 248 255
f 255 250 257
f 258 245 256
f 258 252 245
f 257 254 259
f 247 246 260
f 249 247 260
f 254 251 261
f 262 263 253
f 262 253 252
f 246 253 260
f 251 249 260
f 254 261 264
f 265 262 252
f 259 254 264
f 259 264 266
f 265 252 258
f 267 265 258
f 268 255 257
f 269 256 255
f 269 255 268
f 270 257 259
f 271 256 269
f 268 257 270
f 272 269 268
f 271 258 256
f 270 259 273
f 274 268 270
f 275 270 273
f 276 271 269
f 274 270 275
f 272 268 274
f 276 269 272
f 277 274 275
f 278 272 274
f 279 275 280
f 275 273 280
f 281 276 272
f 273 259 266
f 273 266 282
f 267 258 271
f 280 273 282
f 283 267 271
f 283 271 276
f 280 282 284
f 285 283 276
f 253 263 260
f 261 251 260
f 264 261 286
f 287 288 263
f 287 263 262
f 286 261 260
f 263 288 260
f 264 286 289
f 290 287 262
f 266 264 289
f 266 289 291
f 290 262 265
f 289 286 292
f 293 288 287
f 292 286 260
f 288 294 260
f 293 294 288
f 289 292 295
f 291 289 295
f 296 287 290
f 296 293 287
f 291 295 297
f 282 266 291
f 298 291 297
f 299 290 265
f 300 296 290
f 282 291 298
f 299 265 267
f 284 282 298
f 301 299 267
f 301 267 283
f 284 298 302
f 303 301 283
f 300 290 299
f 298 297 304
f 302 298 304
f 305 300 299
f 305 299 301
f 302 304 306
f 307 305 301
f 279 280 308
f 308 280 284
f 308 284 309
f 309 284 302
f 309 302 310
f 310 302 306
f 310 306 311
f 285 276 281
f 303 283 285
f 307 301 303
f 278 274 277
f 277 275 279
f 281 272 278
f 312 278 277
f 312 277 279
f 312 279 308
f 312 281 278
f 312 285 281
f 312 308 309
f 312 303 285
f 312 309 310
f 312 307 303
f 312 310 311
f 313 292 260
f 294 314 260
f 295 292 313
f 315 294 293
f 315 314 294
f 295 313 316
f 297 295 316
f 317 293 296
f 317 315 293
f 297 316 318
f 319 313 260
f 314 320 260
f 320 321 260
f 322 319 260
f 316 313 319
f 323 320 314
f 323 314 315
f 316 319 324
f 325 323 315
f 318 316 324
f 318 324 326
f 325 315 317
f 304 297 318
f 327 318 326
f 328 317 296
f 329 325 317
f 328 296 300
f 304 318 327
f 306 304 327
f 330 328 300
f 330 300 305
f 306 327 331
f 332 330 305
f 327 326 333
f 329 317 328
f 331 327 333
f 334 329 328
f 334 328 330
f 331 333 335
f 336 334 330
f 321 337 260
f 338 322 260
f 337 339 260
f 339 338 260
f 324 319 322
f 340 321 320
f 340 320 323
f 324 322 341
f 342 340 323
f 326 324 341
f 326 341 343
f 342 323 325
f 341 322 338
f 344 321 340
f 345 338 339
f 346 339 337
f 344 337 321
f 341 338 345
f 345 339 346
f 346 337 344
f 343 341 345
f 347 340 342
f 347 344 340
f 348 345 346
f 349 346 344
f 343 345 348
f 349 344 347
f 348 346 349
f 333 326 343
f 350 342 325
f 333 343 351
f 350 325 329
f 335 333 351
f 352 350 329
f 352 329 334
f 335 351 353
f 354 352 334
f 351 343 348
f 355 342 350
f 355 347 342
f 356 348 349
f 357 349 347
f 357 347 355
f 356 349 357
f 351 348 356
f 358 357 355
f 353 351 356
f 359 356 357
f 360 355 350
f 360 350 352
f 361 353 359
f 353 356 359
f 359 357 358
f 358 355 360
f 362 360 352
f 363 359 358
f 364 358 360
f 311 306 331
f 311 331 365
f 365 331 335
f 365 335 366
f 366 335 353
f 366 353 361
f 332 305 307
f 336 330 332
f 354 334 336
f 362 352 354
f 312 332 307
f 312 311 365
f 312 336 332
f 312 365 366
f 312 354 336
f 312 366 361
f 312 361 363
f 312 362 354
f 312 364 362
f 312 363 364
f 361 359 363
f 364 360 362
f 363 358 364
f 367 368 369
f 369 370 371
f 371 372 373
f 373 374 375
f 376 377 378
f 378 379 367
f 380 381 376
f 382 378 367
f 382 376 378
f 382 367 369
f 382 380 376
f 382 369 371
f 382 383 380
f 382 371 373
f 382 384 383
f 382 373 375
f 382 385 384
f 379 386 387
f 378 377 379
f 376 381 377
f 367 379 368
f 377 386 379
f 381 388 377
f 389 390 381
f 380 389 381
f 379 387 368
f 377 388 386
f 390 391 388
f 388 392 386
f 388 391 392
f 390 393 391
f 386 392 394
f 395 393 390
f 386 394 387
f 395 396 393
f 381 390 388
f 389 395 390
f 368 387 397
f 369 368 370
f 398 395 389
f 368 397 370
f 387 399 397
f 387 394 399
f 400 396 395
f 398 400 395
f 393 401 391
f 391 402 392
f 391 401 402
f 393 403 401
f 392 402 404
f 396 403 393
f 392 404 394
f 396 405 403
f 402 406 407
f 401 406 402
f 403 408 401
f 405 409 403
f 401 408 406
f 403 409 408
f 402 407 404
f 405 410 409
f 394 411 399
f 394 404 411
f 412 405 396
f 412 413 405
f 404 407 414
f 413 410 405
f 404 414 411
f 406 408 415
f 408 409 415
f 413 416 410
f 407 406 415
f 409 410 415
f 400 412 396
f 397 399 417
f 418 417 419
f 370 397 418
f 371 370 372
f 370 418 372
f 420 400 398
f 397 417 418
f 421 412 400
f 420 421 400
f 372 418 422
f 373 372 374
f 423 421 420
f 372 422 374
f 424 425 421
f 418 419 422
f 423 424 421
f 399 426 417
f 399 411 426
f 425 413 412
f 425 427 413
f 411 414 428
f 411 428 426
f 414 407 415
f 410 416 415
f 427 429 416
f 428 414 415
f 416 429 415
f 427 416 413
f 417 426 430
f 431 427 425
f 417 430 419
f 431 432 427
f 426 428 433
f 426 433 430
f 433 428 415
f 429 434 415
f 432 434 429
f 432 429 427
f 421 425 412
f 424 431 425
f 383 389 380
f 383 398 389
f 384 398 383
f 384 420 398
f 385 420 384
f 385 423 420
f 375 435 436
f 436 437 438
f 438 439 440
f 382 375 436
f 382 441 385
f 382 436 438
f 382 442 441
f 382 438 440
f 382 443 442
f 382 440 444
f 382 445 443
f 382 444 446
f 382 446 445
f 440 447 444
f 446 448 445
f 444 449 446
f 422 419 450
f 451 450 452
f 374 422 451
f 375 374 435
f 453 424 423
f 374 451 435
f 454 431 424
f 422 450 451
f 453 454 424
f 435 451 455
f 436 435 437
f 435 455 437
f 456 454 453
f 451 452 455
f 457 458 454
f 456 457 454
f 419 430 459
f 458 432 431
f 419 459 450
f 458 460 432
f 430 433 461
f 461 433 415
f 434 462 415
f 430 461 459
f 460 462 434
f 460 434 432
f 450 463 452
f 450 459 463
f 464 460 458
f 464 465 460
f 466 461 415
f 462 467 415
f 459 461 466
f 459 466 463
f 468 466 415
f 467 469 415
f 465 467 462
f 465 462 460
f 454 458 431
f 457 464 458
f 455 452 470
f 437 455 471
f 438 437 439
f 472 457 456
f 437 471 439
f 455 470 471
f 473 474 464
f 473 464 457
f 472 473 457
f 439 471 475
f 440 439 447
f 448 473 472
f 445 448 472
f 444 447 449
f 446 449 448
f 439 475 447
f 447 476 449
f 449 477 448
f 471 470 478
f 477 474 473
f 447 475 476
f 471 478 475
f 477 479 474
f 475 480 476
f 475 478 480
f 476 480 479
f 476 479 477
f 448 477 473
f 449 476 477
f 452 481 470
f 452 463 481
f 474 465 464
f 474 482 465
f 483 468 415
f 469 484 415
f 463 466 468
f 463 468 481
f 485 483 415
f 484 485 415
f 482 469 467
f 482 467 465
f 470 481 486
f 479 482 474
f 470 486 478
f 480 487 479
f 478 488 480
f 479 487 482
f 478 486 488
f 480 488 487
f 481 468 483
f 487 469 482
f 481 483 486
f 488 484 487
f 486 485 488
f 486 483 485
f 487 484 469
f 488 485 484
f 441 423 385
f 441 453 423
f 442 453 441
f 442 456 453
f 443 456 442
f 443 472 456
f 445 472 443
