# sionna2 mesh — mavic4pro__camera.obj
# group=camera  verts=926  tris=1848
v 0.073053 -0.029330 -0.044802
v 0.071927 -0.023420 -0.049800
v 0.075479 -0.026769 -0.052146
v 0.070942 -0.031114 -0.036561
v 0.069628 -0.025622 -0.041903
v 0.066329 -0.027375 -0.025504
v 0.065512 -0.027890 -0.016221
v 0.064145 -0.023418 -0.020794
v 0.067859 -0.027210 -0.033492
v 0.069218 -0.031675 -0.028893
v 0.072594 -0.035329 -0.031750
v 0.074368 -0.034255 -0.039001
v 0.070977 -0.035668 -0.023854
v 0.074499 -0.038823 -0.026516
v 0.067816 -0.031590 -0.020859
v 0.069630 -0.035203 -0.016028
v 0.067302 -0.031916 -0.011290
v 0.073004 -0.038855 -0.018883
v 0.071737 -0.038145 -0.011101
v 0.066077 -0.009955 -0.045604
v 0.066378 -0.004082 -0.048296
v 0.068565 -0.007679 -0.052859
v 0.066208 -0.015875 -0.042257
v 0.064079 -0.011975 -0.037451
v 0.068474 -0.013705 -0.050041
v 0.064114 -0.006250 -0.040517
v 0.064546 -0.000409 -0.043021
v 0.073827 -0.014374 -0.059516
v 0.071103 -0.017123 -0.053493
v 0.071063 -0.011132 -0.056623
v 0.074525 -0.020826 -0.056389
v 0.066735 -0.021307 -0.038486
v 0.068720 -0.019453 -0.046425
v 0.070768 -0.004173 -0.057981
v 0.073402 -0.007571 -0.061449
v 0.073261 -0.000585 -0.062142
v 0.068351 -0.000505 -0.053475
v 0.064442 -0.017473 -0.033879
v 0.062501 -0.012091 -0.029585
v 0.063020 -0.017514 -0.025787
v 0.065197 -0.022640 -0.029871
v 0.062192 -0.018029 -0.016480
v 0.061382 -0.011961 -0.021340
v 0.060773 -0.012031 -0.011666
v 0.063604 -0.023622 -0.011476
v 0.062402 -0.006202 -0.033040
v 0.061102 -0.006178 -0.024840
v 0.062716 -0.000342 -0.035776
v 0.061310 -0.000272 -0.028058
v 0.060324 -0.006116 -0.016639
v 0.060356 -0.000198 -0.020015
v 0.059871 -0.000123 -0.011801
v 0.078742 -0.029442 -0.052866
v 0.077632 -0.023617 -0.057793
v 0.080981 -0.026087 -0.058219
v 0.076665 -0.032055 -0.046891
v 0.078054 -0.036555 -0.040754
v 0.080046 -0.034362 -0.047087
v 0.084269 -0.028066 -0.057578
v 0.082131 -0.031514 -0.052731
v 0.088330 -0.028066 -0.057456
v 0.086169 -0.031927 -0.053157
v 0.086419 -0.024083 -0.061535
v 0.083974 -0.035333 -0.047761
v 0.081909 -0.037959 -0.041775
v 0.088038 -0.035333 -0.047639
v 0.085837 -0.038430 -0.042039
v 0.076193 -0.038052 -0.033853
v 0.077827 -0.041220 -0.026645
v 0.079612 -0.040158 -0.033885
v 0.076165 -0.041509 -0.018792
v 0.074801 -0.041023 -0.010983
v 0.080917 -0.042816 -0.025263
v 0.079137 -0.042719 -0.021358
v 0.079081 -0.042734 -0.021130
v 0.078498 -0.042778 -0.018757
v 0.077921 -0.042638 -0.016406
v 0.077579 -0.042713 -0.012869
v 0.077388 -0.042689 -0.010891
v 0.083551 -0.041148 -0.034559
v 0.081082 -0.042856 -0.025451
v 0.081300 -0.042776 -0.026454
v 0.081437 -0.042896 -0.025855
v 0.081973 -0.042870 -0.026468
v 0.087674 -0.041148 -0.034436
v 0.083087 -0.042726 -0.027741
v 0.084956 -0.042844 -0.028381
v 0.085435 -0.042794 -0.028546
v 0.076803 -0.017344 -0.061481
v 0.076824 -0.011275 -0.064345
v 0.079934 -0.019985 -0.062483
v 0.079926 -0.014086 -0.065733
v 0.076529 -0.004298 -0.065729
v 0.080020 -0.007901 -0.067863
v 0.079956 -0.000646 -0.068695
v 0.083160 -0.022246 -0.062501
v 0.083256 -0.016636 -0.066091
v 0.083304 -0.010486 -0.068656
v 0.086535 -0.018648 -0.065422
v 0.086620 -0.012859 -0.068270
v 0.083336 -0.004335 -0.069981
v 0.086673 -0.006827 -0.070023
v 0.086692 -0.000666 -0.070649
v 0.065223 -0.027802 -0.006549
v 0.065485 -0.027118 0.002755
v 0.063588 -0.023248 -0.002148
v 0.069342 -0.035115 -0.006363
v 0.067245 -0.031416 -0.001715
v 0.070219 -0.035437 0.001537
v 0.068165 -0.031354 0.006388
v 0.072537 -0.038712 -0.003245
v 0.073574 -0.038541 0.004461
v 0.066537 -0.026807 0.010817
v 0.069428 -0.030653 0.014134
v 0.067801 -0.025066 0.019287
v 0.071362 -0.034954 0.009508
v 0.072701 -0.033747 0.016831
v 0.071045 -0.028718 0.022452
v 0.073030 -0.026023 0.029880
v 0.069626 -0.022719 0.027266
v 0.061899 -0.017940 -0.006668
v 0.062171 -0.017256 0.002661
v 0.060804 -0.011785 -0.001976
v 0.061429 -0.011764 0.006322
v 0.064097 -0.022305 0.006961
v 0.063108 -0.017067 0.010822
v 0.062535 -0.011505 0.014265
v 0.065119 -0.020815 0.015626
v 0.064371 -0.015316 0.019260
v 0.060031 -0.006027 -0.006837
v 0.060319 -0.005940 0.001396
v 0.059865 -0.000049 -0.003573
v 0.060338 0.000025 0.004513
v 0.061127 -0.005814 0.009658
v 0.062390 -0.005725 0.017224
v 0.061281 0.000095 0.012300
v 0.062675 0.000162 0.019642
v 0.064044 -0.009335 0.022484
v 0.066170 -0.013003 0.027124
v 0.066096 -0.006927 0.029833
v 0.064187 -0.003414 0.025083
v 0.066628 -0.018816 0.023634
v 0.068587 -0.016356 0.030788
v 0.068364 -0.010309 0.033801
v 0.071828 -0.020005 0.033950
v 0.070948 -0.013497 0.036912
v 0.067991 -0.003327 0.035012
v 0.065850 0.000258 0.030305
v 0.070413 -0.006660 0.038693
v 0.070234 0.000338 0.039248
v 0.075696 -0.041366 -0.003100
v 0.077461 -0.042676 -0.008905
v 0.077591 -0.042537 -0.005356
v 0.078027 -0.042634 -0.002973
v 0.076887 -0.040934 0.004832
v 0.078467 -0.042547 -0.000570
v 0.078509 -0.042528 -0.000340
v 0.080053 -0.042553 0.003666
v 0.074828 -0.037636 0.011870
v 0.078238 -0.039740 0.012145
v 0.076275 -0.036013 0.018842
v 0.080207 -0.042589 0.003864
v 0.080365 -0.042491 0.004877
v 0.080537 -0.042622 0.004289
v 0.081036 -0.042585 0.004933
v 0.082129 -0.040715 0.013071
v 0.080061 -0.037396 0.020116
v 0.082072 -0.042417 0.006266
v 0.083899 -0.042522 0.007019
v 0.084367 -0.042469 0.007211
v 0.086252 -0.040715 0.013194
v 0.083967 -0.037860 0.020623
v 0.074524 -0.031403 0.024802
v 0.077886 -0.033704 0.025241
v 0.076242 -0.028680 0.030843
v 0.074844 -0.022768 0.035587
v 0.078161 -0.025227 0.036258
v 0.081767 -0.034660 0.026166
v 0.079633 -0.030753 0.030947
v 0.085831 -0.034660 0.026287
v 0.083638 -0.031156 0.031621
v 0.081480 -0.027216 0.035849
v 0.085541 -0.027216 0.035971
v 0.083392 -0.023161 0.039855
v 0.073800 -0.016429 0.039105
v 0.073653 -0.010309 0.041855
v 0.076864 -0.019049 0.040340
v 0.076665 -0.013092 0.043475
v 0.073280 -0.003308 0.043091
v 0.076636 -0.006869 0.045495
v 0.076526 0.000399 0.046189
v 0.080082 -0.021308 0.040591
v 0.079966 -0.015634 0.044078
v 0.079865 -0.009438 0.046529
v 0.083279 -0.017656 0.043643
v 0.083197 -0.011816 0.046385
v 0.079822 -0.003264 0.047742
v 0.083148 -0.005753 0.048028
v 0.083133 0.000419 0.048542
v 0.066380 0.003167 -0.048362
v 0.064117 0.005478 -0.040624
v 0.066082 0.009088 -0.045777
v 0.068568 0.006680 -0.052990
v 0.064085 0.011258 -0.037662
v 0.066216 0.015069 -0.042538
v 0.068481 0.012756 -0.050282
v 0.070770 0.003080 -0.058047
v 0.073406 0.006413 -0.061576
v 0.071069 0.010062 -0.056816
v 0.073835 0.013250 -0.059767
v 0.071112 0.016109 -0.053795
v 0.074536 0.019758 -0.056758
v 0.068730 0.018569 -0.046770
v 0.066746 0.020568 -0.038866
v 0.069641 0.024819 -0.042361
v 0.071939 0.022472 -0.050217
v 0.073068 0.028471 -0.045327
v 0.062405 0.005567 -0.033147
v 0.061106 0.005693 -0.024948
v 0.062507 0.011517 -0.029800
v 0.060327 0.005780 -0.016747
v 0.061389 0.011538 -0.021553
v 0.060779 0.011784 -0.011882
v 0.064451 0.016820 -0.034191
v 0.063030 0.017009 -0.026101
v 0.065209 0.022058 -0.030278
v 0.067874 0.026560 -0.033981
v 0.066344 0.026871 -0.025997
v 0.062201 0.017693 -0.016805
v 0.064158 0.023001 -0.021215
v 0.063617 0.023375 -0.011903
v 0.065527 0.027555 -0.016725
v 0.075493 0.025776 -0.052623
v 0.070958 0.030406 -0.037120
v 0.069235 0.031107 -0.029463
v 0.074386 0.033500 -0.039617
v 0.072613 0.034707 -0.032387
v 0.070996 0.035190 -0.024498
v 0.074520 0.038294 -0.027217
v 0.067833 0.031169 -0.021430
v 0.067319 0.031669 -0.011868
v 0.069650 0.034868 -0.016665
v 0.073025 0.038465 -0.019586
v 0.071758 0.037898 -0.011792
v 0.076531 0.003061 -0.065795
v 0.076830 0.010062 -0.064539
v 0.080024 0.006622 -0.067995
v 0.079933 0.012845 -0.065977
v 0.076812 0.016182 -0.061786
v 0.077644 0.022521 -0.058212
v 0.079944 0.018802 -0.062835
v 0.080995 0.024980 -0.058683
v 0.083338 0.003017 -0.070048
v 0.083309 0.009191 -0.068835
v 0.086676 0.005506 -0.070135
v 0.083264 0.015387 -0.066382
v 0.086627 0.011569 -0.068492
v 0.083172 0.021061 -0.062894
v 0.084284 0.026969 -0.058078
v 0.086545 0.017409 -0.065750
v 0.086432 0.022914 -0.061962
v 0.078757 0.028433 -0.053392
v 0.076682 0.031156 -0.047465
v 0.078073 0.035766 -0.041411
v 0.080064 0.033457 -0.047703
v 0.082148 0.030506 -0.053294
v 0.088345 0.026969 -0.057957
v 0.086186 0.030909 -0.053728
v 0.083993 0.034413 -0.048395
v 0.081929 0.037149 -0.042457
v 0.088057 0.034413 -0.048273
v 0.085858 0.037613 -0.042730
v 0.076214 0.037389 -0.034538
v 0.079633 0.039493 -0.034609
v 0.077849 0.040687 -0.027389
v 0.076187 0.041119 -0.019543
v 0.074823 0.040776 -0.011727
v 0.079104 0.042300 -0.021903
v 0.079160 0.042281 -0.022130
v 0.080940 0.042306 -0.026036
v 0.078521 0.042387 -0.019531
v 0.077602 0.042429 -0.013643
v 0.077944 0.042290 -0.017178
v 0.077411 0.042442 -0.011665
v 0.083573 0.040468 -0.035301
v 0.081323 0.042244 -0.027227
v 0.081106 0.042342 -0.026226
v 0.081460 0.042375 -0.026630
v 0.081996 0.042338 -0.027243
v 0.087696 0.040468 -0.035178
v 0.083110 0.042170 -0.028512
v 0.084979 0.042275 -0.029155
v 0.085458 0.042222 -0.029319
v 0.060034 0.005869 -0.006945
v 0.060322 0.005931 0.001288
v 0.060811 0.011714 -0.002190
v 0.061435 0.011844 0.006108
v 0.061131 0.005955 0.009551
v 0.062393 0.006003 0.017117
v 0.062541 0.011728 0.014054
v 0.064049 0.009708 0.022311
v 0.061908 0.017782 -0.006992
v 0.062180 0.017267 0.002347
v 0.063601 0.023171 -0.002570
v 0.065238 0.027643 -0.007053
v 0.064110 0.022393 0.006554
v 0.065500 0.027128 0.002262
v 0.063117 0.017226 0.010510
v 0.064379 0.015628 0.018979
v 0.065130 0.021060 0.015245
v 0.066551 0.026963 0.010328
v 0.067814 0.025375 0.018829
v 0.064189 0.003835 0.025017
v 0.066177 0.013458 0.026884
v 0.066100 0.007432 0.029702
v 0.067993 0.003926 0.034946
v 0.068370 0.010885 0.033609
v 0.070416 0.007324 0.038565
v 0.070956 0.014127 0.036661
v 0.066638 0.019206 0.023288
v 0.068596 0.016876 0.030486
v 0.069638 0.023173 0.026849
v 0.071061 0.029083 0.021927
v 0.071839 0.020579 0.033581
v 0.067262 0.031343 -0.002285
v 0.068182 0.031428 0.005818
v 0.069361 0.034956 -0.007000
v 0.070238 0.035421 0.000893
v 0.072558 0.038608 -0.003948
v 0.073595 0.038576 0.003760
v 0.069445 0.030867 0.013575
v 0.072719 0.034008 0.016215
v 0.071381 0.035082 0.008871
v 0.073044 0.026522 0.029403
v 0.073282 0.004051 0.043024
v 0.073659 0.011028 0.041661
v 0.076640 0.007654 0.045363
v 0.076673 0.013839 0.043231
v 0.074856 0.023370 0.035168
v 0.073809 0.017097 0.038801
v 0.076875 0.019738 0.039987
v 0.078174 0.025840 0.035793
v 0.079824 0.004088 0.047675
v 0.079870 0.010239 0.046350
v 0.083152 0.006580 0.047916
v 0.083204 0.012612 0.046163
v 0.079975 0.016389 0.043787
v 0.080094 0.021999 0.040197
v 0.081495 0.027819 0.035349
v 0.083289 0.018401 0.043315
v 0.083405 0.023836 0.039428
v 0.074848 0.037805 0.011185
v 0.076294 0.036308 0.018184
v 0.078259 0.039911 0.011421
v 0.075719 0.041262 -0.003851
v 0.077484 0.042466 -0.009679
v 0.077614 0.042391 -0.006128
v 0.078050 0.042531 -0.003747
v 0.076910 0.040973 0.004087
v 0.078490 0.042487 -0.001343
v 0.078532 0.042472 -0.001112
v 0.080076 0.042569 0.002892
v 0.080081 0.037712 0.019434
v 0.080388 0.042529 0.004104
v 0.080230 0.042609 0.003090
v 0.082151 0.040901 0.012329
v 0.080560 0.042649 0.003514
v 0.081059 0.042623 0.004158
v 0.082095 0.042479 0.005495
v 0.083922 0.042597 0.006246
v 0.084390 0.042547 0.006439
v 0.086274 0.040901 0.012452
v 0.083987 0.038183 0.019932
v 0.074542 0.031808 0.024228
v 0.076258 0.029195 0.030317
v 0.077905 0.034115 0.024625
v 0.079649 0.031267 0.030383
v 0.081786 0.035086 0.025532
v 0.083655 0.031680 0.031050
v 0.085850 0.035086 0.025654
v 0.085556 0.027819 0.035470
v 0.091650 -0.026087 -0.057901
v 0.090175 -0.031514 -0.052490
v 0.089743 -0.037959 -0.041541
v 0.091920 -0.034362 -0.046732
v 0.093530 -0.036555 -0.040292
v 0.093566 -0.029442 -0.052424
v 0.094968 -0.023617 -0.057275
v 0.095283 -0.032055 -0.046335
v 0.097105 -0.034255 -0.038323
v 0.096780 -0.026769 -0.051510
v 0.100186 -0.023420 -0.048956
v 0.098764 -0.029330 -0.044034
v 0.085903 -0.042844 -0.028353
v 0.087730 -0.042726 -0.027602
v 0.088766 -0.042870 -0.026265
v 0.089437 -0.042776 -0.026211
v 0.091565 -0.040158 -0.033528
v 0.089265 -0.042896 -0.025622
v 0.089594 -0.042856 -0.025197
v 0.092915 -0.041220 -0.026194
v 0.089748 -0.042816 -0.024999
v 0.091292 -0.042719 -0.020995
v 0.091334 -0.042734 -0.020765
v 0.094976 -0.038052 -0.033292
v 0.096229 -0.038823 -0.025867
v 0.094106 -0.041509 -0.018256
v 0.091774 -0.042778 -0.018360
v 0.092210 -0.042638 -0.015979
v 0.092340 -0.042713 -0.012429
v 0.095002 -0.041023 -0.010380
v 0.092413 -0.042689 -0.010442
v 0.097266 -0.038855 -0.018159
v 0.098067 -0.038145 -0.010315
v 0.098443 -0.035329 -0.030979
v 0.100380 -0.031114 -0.035682
v 0.099587 -0.035668 -0.023000
v 0.089731 -0.022246 -0.062305
v 0.089849 -0.016636 -0.065894
v 0.092950 -0.019985 -0.062094
v 0.089954 -0.010486 -0.068458
v 0.093152 -0.014086 -0.065338
v 0.090001 -0.004335 -0.069782
v 0.093185 -0.007901 -0.067470
v 0.093298 -0.000646 -0.068296
v 0.096015 -0.017344 -0.060908
v 0.096165 -0.011275 -0.063768
v 0.097985 -0.020826 -0.055688
v 0.098869 -0.014374 -0.058768
v 0.096542 -0.004298 -0.065131
v 0.099408 -0.007571 -0.060673
v 0.099591 -0.000585 -0.061355
v 0.101119 -0.026640 -0.041787
v 0.100996 -0.029039 -0.037667
v 0.101169 -0.025390 -0.043485
v 0.100850 -0.031323 -0.032792
v 0.100731 -0.032716 -0.028795
v 0.100633 -0.033637 -0.025505
v 0.100918 -0.030387 -0.035078
v 0.100464 -0.035203 -0.015107
v 0.100546 -0.034251 -0.022598
v 0.100796 -0.034011 -0.021709
v 0.100865 -0.033938 -0.021436
v 0.101997 -0.032564 -0.018551
v 0.102020 -0.032527 -0.018474
v 0.102548 -0.031674 -0.017342
v 0.102505 -0.031916 -0.010239
v 0.103101 -0.030664 -0.016003
v 0.104236 -0.028568 -0.014243
v 0.104292 -0.028444 -0.014139
v 0.104298 -0.027802 -0.005383
v 0.104551 -0.027880 -0.013874
v 0.105254 -0.026133 -0.013057
v 0.101228 -0.017123 -0.052593
v 0.101455 -0.011132 -0.055716
v 0.103186 -0.019453 -0.045396
v 0.101414 -0.024903 -0.043556
v 0.101897 -0.023670 -0.043738
v 0.102684 -0.022087 -0.043492
v 0.103647 -0.013705 -0.048991
v 0.103121 -0.021080 -0.043336
v 0.103664 -0.020041 -0.042846
v 0.104292 -0.018613 -0.042177
v 0.105445 -0.015875 -0.041086
v 0.105336 -0.016666 -0.040542
v 0.101831 -0.004173 -0.057054
v 0.103725 -0.007679 -0.051810
v 0.105775 -0.009955 -0.044418
v 0.105635 -0.004082 -0.047124
v 0.103974 -0.000505 -0.052412
v 0.105457 -0.016393 -0.040314
v 0.105619 -0.016095 -0.039920
v 0.107284 -0.011975 -0.036161
v 0.107432 -0.006250 -0.039224
v 0.107149 -0.000409 -0.041749
v 0.106375 -0.014531 -0.037848
v 0.107143 -0.013313 -0.035299
v 0.105312 -0.025977 -0.012984
v 0.106207 -0.023622 -0.010204
v 0.106212 -0.023569 -0.012618
v 0.106268 -0.023388 -0.012591
v 0.107067 -0.020805 -0.012979
v 0.107169 -0.020476 -0.012966
v 0.107022 -0.020684 -0.010206
v 0.107172 -0.020463 -0.013139
v 0.107239 -0.013119 -0.034894
v 0.107741 -0.012423 -0.032318
v 0.107771 -0.012026 -0.032656
v 0.107785 -0.009269 -0.035011
v 0.107801 -0.009857 -0.034508
v 0.107893 -0.006233 -0.036459
v 0.107858 -0.004942 -0.037077
v 0.107887 -0.003833 -0.037253
v 0.107898 -0.000373 -0.037806
v 0.090720 -0.042547 -0.000204
v 0.091975 -0.040934 0.005282
v 0.090665 -0.042528 0.000023
v 0.088885 -0.042553 0.003929
v 0.084846 -0.042522 0.007047
v 0.086715 -0.042417 0.006405
v 0.087828 -0.042585 0.005135
v 0.088501 -0.042491 0.005120
v 0.087896 -0.037396 0.020350
v 0.088365 -0.042622 0.004523
v 0.088719 -0.042589 0.004119
v 0.090191 -0.039740 0.012502
v 0.091751 -0.036013 0.019304
v 0.092222 -0.042676 -0.008464
v 0.093637 -0.041366 -0.002564
v 0.091881 -0.042537 -0.004930
v 0.091303 -0.042634 -0.002577
v 0.095305 -0.038541 0.005110
v 0.096799 -0.038712 -0.002521
v 0.093611 -0.037636 0.012431
v 0.098829 -0.035437 0.002391
v 0.095438 -0.033747 0.017510
v 0.097211 -0.034954 0.010280
v 0.098866 -0.030653 0.015013
v 0.096756 -0.028718 0.023220
v 0.087677 -0.030753 0.031187
v 0.089760 -0.033704 0.025596
v 0.091067 -0.028680 0.031285
v 0.088829 -0.025227 0.036576
v 0.093143 -0.031403 0.025358
v 0.094331 -0.026023 0.030516
v 0.092180 -0.022768 0.036105
v 0.097885 -0.022719 0.028110
v 0.086653 -0.021308 0.040787
v 0.086560 -0.015634 0.044275
v 0.089880 -0.019049 0.040728
v 0.089891 -0.013092 0.043870
v 0.086515 -0.009438 0.046728
v 0.086486 -0.003264 0.047941
v 0.089801 -0.006869 0.045888
v 0.089868 0.000399 0.046587
v 0.095288 -0.020005 0.034651
v 0.093012 -0.016429 0.039679
v 0.092995 -0.010309 0.042432
v 0.095990 -0.013497 0.037660
v 0.093294 -0.003308 0.043688
v 0.096418 -0.006660 0.039469
v 0.096564 0.000338 0.040034
v 0.100175 -0.035115 -0.005443
v 0.101991 -0.031416 -0.000677
v 0.100589 -0.031354 0.007356
v 0.103481 -0.027118 0.003889
v 0.101950 -0.026807 0.011874
v 0.100183 -0.025066 0.020254
v 0.105667 -0.023248 -0.000892
v 0.104615 -0.022305 0.008170
v 0.103079 -0.020815 0.016759
v 0.107004 -0.020426 -0.007447
v 0.106866 -0.020113 -0.004110
v 0.106872 -0.019977 -0.003610
v 0.106693 -0.018540 0.001670
v 0.106744 -0.017528 0.003772
v 0.105373 -0.017067 0.012084
v 0.106744 -0.017374 0.004091
v 0.106732 -0.017247 0.004353
v 0.106542 -0.016043 0.006846
v 0.106501 -0.013989 0.009535
v 0.106408 -0.012748 0.011157
v 0.103608 -0.015316 0.020431
v 0.105740 -0.011505 0.015555
v 0.106435 -0.011619 0.012087
v 0.106356 -0.009416 0.013898
v 0.106310 -0.008820 0.014388
v 0.105708 -0.005725 0.018517
v 0.103742 -0.009335 0.023670
v 0.106333 -0.005758 0.015784
v 0.106262 -0.004456 0.016376
v 0.106281 -0.003344 0.016533
v 0.105278 0.000162 0.020914
v 0.106261 0.000126 0.017022
v 0.101095 -0.018816 0.024663
v 0.098712 -0.016356 0.031687
v 0.101344 -0.013003 0.028175
v 0.098755 -0.010309 0.034709
v 0.101256 -0.006927 0.030883
v 0.099055 -0.003327 0.035940
v 0.103444 -0.003414 0.026255
v 0.101473 0.000258 0.031368
v 0.090003 0.003017 -0.069849
v 0.089960 0.009191 -0.068636
v 0.089858 0.015387 -0.066185
v 0.093189 0.006622 -0.067602
v 0.093159 0.012845 -0.065583
v 0.089743 0.021061 -0.062698
v 0.091664 0.024980 -0.058365
v 0.092961 0.018802 -0.062447
v 0.096544 0.003061 -0.065198
v 0.096171 0.010062 -0.063962
v 0.099412 0.006413 -0.060800
v 0.098876 0.013250 -0.059019
v 0.096025 0.016182 -0.061212
v 0.094981 0.022521 -0.057695
v 0.097996 0.019758 -0.056057
v 0.096795 0.025776 -0.051987
v 0.100199 0.022472 -0.049373
v 0.090192 0.030506 -0.053054
v 0.089764 0.037149 -0.042223
v 0.093582 0.028433 -0.052950
v 0.091938 0.033457 -0.047349
v 0.093550 0.035766 -0.040949
v 0.095300 0.031156 -0.046910
v 0.097123 0.033500 -0.038938
v 0.098780 0.028471 -0.044559
v 0.091587 0.039493 -0.034252
v 0.085926 0.042275 -0.029126
v 0.087753 0.042170 -0.028374
v 0.088789 0.042338 -0.027040
v 0.089460 0.042244 -0.026984
v 0.089288 0.042375 -0.026397
v 0.089617 0.042342 -0.025972
v 0.092937 0.040687 -0.026939
v 0.089771 0.042306 -0.025773
v 0.091315 0.042281 -0.021767
v 0.091357 0.042300 -0.021537
v 0.094997 0.037389 -0.033978
v 0.100396 0.030406 -0.036241
v 0.098462 0.034707 -0.031615
v 0.096250 0.038294 -0.026568
v 0.099606 0.035190 -0.023644
v 0.097287 0.038465 -0.018862
v 0.094128 0.041119 -0.019007
v 0.091797 0.042387 -0.019134
v 0.092233 0.042290 -0.016751
v 0.092363 0.042429 -0.013202
v 0.095024 0.040776 -0.011124
v 0.092436 0.042442 -0.011216
v 0.098088 0.037898 -0.011006
v 0.101833 0.003080 -0.057119
v 0.101461 0.010062 -0.055908
v 0.103729 0.006680 -0.051940
v 0.105637 0.003167 -0.047190
v 0.103655 0.012756 -0.049232
v 0.105780 0.009088 -0.044592
v 0.105454 0.015069 -0.041367
v 0.101237 0.016109 -0.052895
v 0.103197 0.018569 -0.045741
v 0.102435 0.022625 -0.042920
v 0.101138 0.025688 -0.042439
v 0.101315 0.025217 -0.042648
v 0.101714 0.024420 -0.042749
v 0.102335 0.022826 -0.042955
v 0.103888 0.019485 -0.042070
v 0.104464 0.018185 -0.041431
v 0.105218 0.016798 -0.040224
v 0.103384 0.020443 -0.042543
v 0.107435 0.005478 -0.039331
v 0.107290 0.011258 -0.036372
v 0.105503 0.016166 -0.039676
v 0.107889 0.003097 -0.037316
v 0.107860 0.004209 -0.037160
v 0.107896 0.005511 -0.036566
v 0.107790 0.008573 -0.035173
v 0.107163 0.013235 -0.034619
v 0.107778 0.011372 -0.032869
v 0.107806 0.009169 -0.034681
v 0.107694 0.012501 -0.031942
v 0.105826 0.015585 -0.038877
v 0.106369 0.014488 -0.037368
v 0.107067 0.013423 -0.035031
v 0.107694 0.012548 -0.031881
v 0.105389 0.025470 -0.014613
v 0.104620 0.027503 -0.015608
v 0.106220 0.023375 -0.010631
v 0.106226 0.023231 -0.014231
v 0.107007 0.020696 -0.014521
v 0.107180 0.020179 -0.013336
v 0.107207 0.020040 -0.014814
v 0.107033 0.020437 -0.010580
v 0.106271 0.023087 -0.014206
v 0.101133 0.025822 -0.042263
v 0.101011 0.028295 -0.038188
v 0.100935 0.029690 -0.035624
v 0.100867 0.030667 -0.033355
v 0.100748 0.032133 -0.029384
v 0.100651 0.033113 -0.026112
v 0.100483 0.034868 -0.015744
v 0.100622 0.033332 -0.025159
v 0.101353 0.032678 -0.022545
v 0.101959 0.032008 -0.021071
v 0.102574 0.031216 -0.019499
v 0.102523 0.031669 -0.010817
v 0.103398 0.029747 -0.017476
v 0.104507 0.027728 -0.015719
v 0.104551 0.027645 -0.015678
v 0.104602 0.027555 -0.015558
v 0.102442 0.031425 -0.019787
v 0.102388 0.031507 -0.019968
v 0.104600 0.027550 -0.015631
v 0.086488 0.004088 0.047874
v 0.086521 0.010239 0.046549
v 0.086569 0.016389 0.043984
v 0.089805 0.007654 0.045756
v 0.089899 0.013839 0.043625
v 0.086665 0.021999 0.040394
v 0.088843 0.025840 0.036112
v 0.089891 0.019738 0.040376
v 0.093296 0.004051 0.043621
v 0.093000 0.011028 0.042238
v 0.096422 0.007324 0.039342
v 0.095997 0.014127 0.037408
v 0.092193 0.023370 0.035686
v 0.095299 0.020579 0.034282
v 0.094346 0.026522 0.030039
v 0.097898 0.023173 0.027693
v 0.093021 0.017097 0.039374
v 0.090213 0.039911 0.011778
v 0.087916 0.037712 0.019668
v 0.091771 0.036308 0.018647
v 0.090743 0.042487 -0.000977
v 0.090688 0.042472 -0.000750
v 0.091997 0.040973 0.004538
v 0.088908 0.042569 0.003156
v 0.084869 0.042597 0.006274
v 0.086738 0.042479 0.005634
v 0.087851 0.042623 0.004361
v 0.088524 0.042529 0.004347
v 0.088388 0.042649 0.003748
v 0.088742 0.042609 0.003344
v 0.096820 0.038608 -0.003224
v 0.095325 0.038576 0.004409
v 0.098848 0.035421 0.001747
v 0.093631 0.037805 0.011746
v 0.095457 0.034008 0.016894
v 0.096772 0.029083 0.022695
v 0.098883 0.030867 0.014454
v 0.097230 0.035082 0.009643
v 0.092245 0.042466 -0.009238
v 0.091904 0.042391 -0.005701
v 0.093660 0.041262 -0.003315
v 0.091326 0.042531 -0.003351
v 0.087694 0.031267 0.030623
v 0.091083 0.029195 0.030759
v 0.089779 0.034115 0.024980
v 0.093160 0.031808 0.024784
v 0.104627 0.022393 0.007764
v 0.103496 0.027128 0.003396
v 0.101965 0.026963 0.011385
v 0.103090 0.021060 0.016379
v 0.100197 0.025375 0.019795
v 0.105711 0.006003 0.018410
v 0.106283 0.003586 0.016470
v 0.106264 0.004695 0.016293
v 0.106336 0.005986 0.015678
v 0.106315 0.009022 0.014225
v 0.105746 0.011728 0.015344
v 0.103747 0.009708 0.023497
v 0.106361 0.009610 0.013725
v 0.106442 0.011779 0.011874
v 0.106415 0.012891 0.010924
v 0.104313 0.027643 -0.005887
v 0.105679 0.023171 -0.001314
v 0.107015 0.020229 -0.007816
v 0.106876 0.019977 -0.004475
v 0.106883 0.019850 -0.003972
v 0.106703 0.018509 0.001334
v 0.106753 0.017535 0.003453
v 0.105382 0.017226 0.011772
v 0.106509 0.014102 0.009280
v 0.106551 0.016107 0.006554
v 0.106753 0.017387 0.003775
v 0.106741 0.017266 0.004040
v 0.103617 0.015628 0.020150
v 0.101260 0.007432 0.030752
v 0.098761 0.010885 0.034516
v 0.099057 0.003926 0.035874
v 0.103446 0.003835 0.026189
v 0.101351 0.013458 0.027934
v 0.098721 0.016876 0.031385
v 0.101105 0.019206 0.024317
v 0.100194 0.034956 -0.006079
v 0.102008 0.031343 -0.001248
v 0.100606 0.031428 0.006786
v 0.111341 -0.013138 -0.031600
v 0.111235 -0.015182 -0.028027
v 0.111244 -0.015533 -0.028345
v 0.110787 -0.020463 -0.013032
v 0.110699 -0.020684 -0.010097
v 0.111066 -0.014698 -0.022394
v 0.111048 -0.018383 -0.021775
v 0.111074 -0.018458 -0.022657
v 0.110882 -0.020224 -0.016202
v 0.110932 -0.019795 -0.017900
v 0.110919 -0.017122 -0.017456
v 0.110705 -0.000123 -0.010284
v 0.111360 -0.012423 -0.032210
v 0.111440 -0.009269 -0.034902
v 0.111502 -0.004942 -0.036969
v 0.111523 -0.000373 -0.037697
v 0.111149 -0.014099 -0.025175
v 0.111136 -0.013948 -0.024718
v 0.110517 -0.020113 -0.004001
v 0.110345 -0.018540 0.001779
v 0.110190 -0.016043 0.006955
v 0.110062 -0.012748 0.011266
v 0.109965 -0.008820 0.014497
v 0.109906 -0.004456 0.016485
v 0.109886 0.000126 0.017130
v 0.111504 0.004209 -0.037052
v 0.111445 0.008573 -0.035064
v 0.111348 0.012501 -0.031833
v 0.111346 0.012548 -0.031772
v 0.111337 0.012469 -0.031461
v 0.111242 0.012229 -0.028276
v 0.111147 0.012527 -0.025096
v 0.111129 0.012981 -0.024473
v 0.111059 0.017974 -0.022137
v 0.111010 0.018336 -0.020487
v 0.110873 0.017833 -0.015927
v 0.110859 0.018419 -0.015445
v 0.111141 0.017060 -0.024903
v 0.111084 0.017983 -0.022988
v 0.110892 0.019866 -0.016566
v 0.111026 0.018652 -0.021026
v 0.110837 0.020040 -0.014706
v 0.110710 0.020437 -0.010470
v 0.110199 0.016107 0.006663
v 0.110068 0.012891 0.011033
v 0.110355 0.018509 0.001443
v 0.109908 0.004695 0.016401
v 0.109970 0.009022 0.014334
v 0.110528 0.019977 -0.004366
v 0.101130 -0.028698 -0.042179
v 0.101165 -0.026252 -0.043348
v 0.101075 -0.030885 -0.040313
v 0.111592 -0.030885 -0.039999
v 0.111648 -0.028698 -0.041865
v 0.111683 -0.026252 -0.043034
v 0.100913 -0.034060 -0.034893
v 0.100815 -0.034890 -0.031610
v 0.100712 -0.035150 -0.028159
v 0.101001 -0.032702 -0.037843
v 0.111332 -0.034890 -0.031296
v 0.111430 -0.034060 -0.034579
v 0.111229 -0.035150 -0.027845
v 0.111126 -0.034827 -0.024400
v 0.100609 -0.034827 -0.024714
v 0.111518 -0.032702 -0.037529
v 0.111029 -0.033938 -0.021133
v 0.111232 -0.023529 -0.027951
v 0.110941 -0.032527 -0.018207
v 0.110869 -0.030664 -0.015771
v 0.110814 -0.028444 -0.013945
v 0.110781 -0.025977 -0.012821
v 0.111695 -0.023670 -0.043446
v 0.111684 -0.021080 -0.043081
v 0.111651 -0.018613 -0.041957
v 0.111596 -0.016393 -0.040131
v 0.111523 -0.014531 -0.037694
v 0.111436 -0.013119 -0.034769
v 0.110770 -0.023388 -0.012456
v 0.110782 -0.020805 -0.012868
v 0.111672 0.022826 -0.042676
v 0.111662 0.025217 -0.042339
v 0.111628 0.018185 -0.041218
v 0.111661 0.020443 -0.042296
v 0.111577 0.016166 -0.039495
v 0.111509 0.014488 -0.037215
v 0.111428 0.013235 -0.034491
v 0.111245 0.022956 -0.028373
v 0.111631 0.027494 -0.041302
v 0.110829 0.025470 -0.014451
v 0.110828 0.020696 -0.014407
v 0.110818 0.023087 -0.014070
v 0.110862 0.027728 -0.015529
v 0.101114 0.027494 -0.041616
v 0.101063 0.029543 -0.039931
v 0.100996 0.031262 -0.037681
v 0.100916 0.032565 -0.034981
v 0.100825 0.033386 -0.031965
v 0.100731 0.033684 -0.028785
v 0.100635 0.033444 -0.025600
v 0.111581 0.029543 -0.039617
v 0.111514 0.031262 -0.037367
v 0.111433 0.032565 -0.034667
v 0.111343 0.033386 -0.031651
v 0.111248 0.033684 -0.028471
v 0.111153 0.033444 -0.025286
v 0.111062 0.032678 -0.022255
v 0.110981 0.031425 -0.019532
v 0.110913 0.029747 -0.017252
v 0.079134 -0.051621 -0.021277
v 0.077919 -0.051576 -0.016325
v 0.077386 -0.051525 -0.010811
v 0.083085 -0.051680 -0.027659
v 0.080914 -0.051657 -0.025182
v 0.085432 -0.051688 -0.028465
v 0.084898 -0.051525 -0.010586
v 0.077589 -0.051475 -0.005275
v 0.078507 -0.051430 -0.000259
v 0.080051 -0.051394 0.003746
v 0.082069 -0.051371 0.006348
v 0.084365 -0.051363 0.007292
v 0.079162 0.051183 -0.022211
v 0.077946 0.051228 -0.017259
v 0.077414 0.051278 -0.011745
v 0.080942 0.051147 -0.026117
v 0.083112 0.051124 -0.028594
v 0.085460 0.051116 -0.029399
v 0.084926 0.051278 -0.011521
v 0.077617 0.051329 -0.006209
v 0.078535 0.051374 -0.001193
v 0.080079 0.051410 0.002812
v 0.082097 0.051433 0.005414
v 0.084392 0.051441 0.006358
v 0.087727 -0.051680 -0.027521
v 0.089746 -0.051657 -0.024919
v 0.091290 -0.051621 -0.020914
v 0.092208 -0.051576 -0.015898
v 0.092411 -0.051525 -0.010362
v 0.086712 -0.051371 0.006486
v 0.088882 -0.051394 0.004010
v 0.090662 -0.051430 0.000104
v 0.091878 -0.051475 -0.004848
v 0.087755 0.051124 -0.028455
v 0.089774 0.051147 -0.025853
v 0.091318 0.051183 -0.021848
v 0.092236 0.051228 -0.016832
v 0.092439 0.051278 -0.011296
v 0.086740 0.051433 0.005552
v 0.088910 0.051410 0.003075
v 0.090690 0.051374 -0.000830
v 0.091906 0.051329 -0.005783
f 1 2 3
f 1 4 5
f 6 7 8
f 9 5 4
f 6 9 10
f 9 4 10
f 11 4 12
f 10 4 11
f 10 11 13
f 11 14 13
f 1 12 4
f 10 13 15
f 15 13 16
f 15 16 17
f 6 10 15
f 6 15 7
f 7 15 17
f 13 18 16
f 13 14 18
f 16 18 19
f 20 21 22
f 23 24 20
f 23 20 25
f 20 26 21
f 21 26 27
f 28 29 30
f 28 31 29
f 5 32 33
f 5 33 2
f 25 29 33
f 25 30 29
f 23 33 32
f 23 25 33
f 33 29 2
f 2 29 31
f 1 5 2
f 34 35 30
f 28 30 35
f 34 36 35
f 20 22 25
f 25 22 30
f 34 30 22
f 21 37 22
f 34 22 37
f 38 39 24
f 38 40 39
f 9 41 32
f 32 41 38
f 6 41 9
f 23 38 24
f 23 32 38
f 41 40 38
f 40 8 42
f 40 43 39
f 40 42 43
f 42 44 43
f 41 8 40
f 6 8 41
f 7 45 8
f 42 8 45
f 46 26 24
f 39 46 24
f 39 47 46
f 46 48 26
f 26 48 27
f 46 47 49
f 46 49 48
f 20 24 26
f 39 43 47
f 43 50 47
f 43 44 50
f 47 50 51
f 47 51 49
f 50 52 51
f 9 32 5
f 53 54 55
f 56 57 12
f 1 3 56
f 1 56 12
f 56 58 57
f 3 53 56
f 3 54 53
f 56 53 58
f 59 60 55
f 59 61 62
f 59 63 61
f 58 60 64
f 57 58 65
f 58 64 65
f 53 60 58
f 53 55 60
f 60 62 64
f 64 62 66
f 65 64 67
f 64 66 67
f 59 62 60
f 14 68 69
f 69 68 70
f 14 71 18
f 18 72 19
f 18 71 72
f 14 69 71
f 69 73 74
f 69 74 75
f 71 75 76
f 69 75 71
f 71 76 77
f 71 77 78
f 78 79 72
f 71 78 72
f 11 12 68
f 57 68 12
f 11 68 14
f 57 70 68
f 65 80 70
f 69 81 73
f 69 82 81
f 69 70 82
f 82 83 81
f 82 84 83
f 82 80 84
f 70 80 82
f 65 67 80
f 67 85 80
f 84 80 86
f 80 87 86
f 80 88 87
f 80 85 88
f 57 65 70
f 31 89 54
f 28 89 31
f 28 90 89
f 89 91 54
f 54 91 55
f 89 90 92
f 89 92 91
f 2 31 3
f 3 31 54
f 35 93 90
f 28 35 90
f 35 36 93
f 92 90 94
f 90 93 94
f 93 95 94
f 91 96 55
f 59 55 96
f 91 92 97
f 92 98 97
f 91 97 96
f 96 99 63
f 59 96 63
f 96 97 99
f 97 100 99
f 92 94 98
f 94 101 98
f 94 95 101
f 97 98 100
f 98 101 102
f 98 102 100
f 101 103 102
f 7 17 104
f 7 104 45
f 104 105 106
f 16 107 17
f 17 107 108
f 108 107 109
f 108 109 110
f 104 17 108
f 105 108 110
f 104 108 105
f 16 19 107
f 107 19 111
f 107 111 109
f 109 111 112
f 105 110 113
f 113 110 114
f 113 114 115
f 109 116 110
f 110 116 114
f 109 112 116
f 116 117 114
f 114 117 118
f 114 118 115
f 118 119 120
f 42 45 121
f 121 106 122
f 121 123 44
f 42 121 44
f 121 122 123
f 122 124 123
f 104 106 45
f 121 45 106
f 122 106 125
f 105 125 106
f 122 126 124
f 126 127 124
f 105 113 125
f 113 128 125
f 125 128 126
f 122 125 126
f 126 129 127
f 128 129 126
f 44 123 130
f 50 44 130
f 123 124 131
f 123 131 130
f 50 130 52
f 130 132 52
f 130 131 132
f 131 133 132
f 124 127 134
f 131 124 134
f 134 127 135
f 131 134 133
f 134 136 133
f 134 135 136
f 135 137 136
f 127 138 135
f 113 115 128
f 127 129 138
f 129 139 138
f 138 140 141
f 135 138 141
f 135 141 137
f 128 115 142
f 115 120 142
f 128 142 129
f 129 142 139
f 142 143 139
f 139 143 144
f 118 120 115
f 142 120 143
f 120 145 143
f 143 146 144
f 143 145 146
f 138 139 140
f 139 144 140
f 140 144 147
f 141 140 148
f 140 147 148
f 147 144 149
f 146 149 144
f 147 149 150
f 19 72 111
f 72 151 111
f 111 151 112
f 72 79 152
f 152 153 151
f 153 154 151
f 72 152 151
f 151 155 112
f 151 154 156
f 156 157 155
f 157 158 155
f 151 156 155
f 112 155 159
f 155 160 159
f 116 112 159
f 116 159 117
f 117 159 161
f 159 160 161
f 155 158 162
f 155 162 163
f 155 163 160
f 162 164 163
f 163 164 165
f 163 165 166
f 163 166 160
f 160 166 167
f 165 168 166
f 168 169 166
f 169 170 166
f 170 171 166
f 166 172 167
f 166 171 172
f 160 167 161
f 117 161 173
f 118 117 173
f 118 173 119
f 173 161 174
f 173 175 119
f 119 175 176
f 173 174 175
f 175 177 176
f 161 167 174
f 174 167 178
f 174 178 179
f 175 174 179
f 175 179 177
f 167 172 178
f 178 172 180
f 179 178 181
f 178 180 181
f 179 181 182
f 179 182 177
f 181 183 182
f 182 183 184
f 120 119 145
f 119 176 145
f 145 176 185
f 146 145 185
f 146 185 186
f 185 176 187
f 176 177 187
f 185 187 188
f 185 188 186
f 146 186 149
f 149 186 189
f 149 189 150
f 188 190 186
f 186 190 189
f 189 190 191
f 187 177 192
f 182 192 177
f 187 193 188
f 188 193 194
f 187 192 193
f 182 184 192
f 192 184 195
f 192 195 193
f 193 195 196
f 188 194 190
f 190 194 197
f 190 197 191
f 193 196 194
f 194 198 197
f 194 196 198
f 197 198 199
f 21 200 37
f 27 201 200
f 200 201 202
f 21 27 200
f 200 202 203
f 202 204 205
f 202 205 206
f 34 37 207
f 34 207 36
f 207 208 36
f 207 209 208
f 209 210 208
f 200 203 37
f 207 37 203
f 202 206 203
f 207 203 209
f 209 203 206
f 209 211 210
f 210 211 212
f 209 206 211
f 206 213 211
f 205 213 206
f 205 214 213
f 213 214 215
f 213 215 216
f 213 216 211
f 211 216 212
f 215 217 216
f 27 48 201
f 48 218 201
f 49 219 218
f 48 49 218
f 218 204 201
f 218 219 220
f 218 220 204
f 202 201 204
f 49 51 219
f 51 221 219
f 51 52 221
f 219 221 222
f 220 219 222
f 221 223 222
f 220 224 204
f 220 225 224
f 205 204 224
f 205 224 214
f 224 225 226
f 224 226 214
f 214 226 227
f 226 228 227
f 220 222 225
f 222 229 225
f 222 223 229
f 225 229 230
f 226 225 230
f 226 230 228
f 229 231 230
f 230 231 232
f 215 214 227
f 216 217 233
f 215 234 217
f 230 232 228
f 215 227 234
f 228 235 227
f 227 235 234
f 217 234 236
f 234 237 236
f 235 237 234
f 235 238 237
f 237 238 239
f 228 232 240
f 228 240 235
f 232 241 240
f 235 240 238
f 240 242 238
f 240 241 242
f 238 242 243
f 238 243 239
f 242 244 243
f 93 36 245
f 36 208 245
f 208 246 245
f 208 210 246
f 93 245 95
f 245 247 95
f 245 246 247
f 246 248 247
f 210 212 249
f 210 249 246
f 249 212 250
f 246 249 248
f 249 251 248
f 249 250 251
f 250 252 251
f 216 233 212
f 212 233 250
f 101 95 253
f 95 247 253
f 247 254 253
f 247 248 254
f 101 253 103
f 253 255 103
f 253 254 255
f 254 256 257
f 254 257 255
f 248 256 254
f 248 251 256
f 251 258 256
f 251 252 258
f 252 259 258
f 256 258 260
f 257 256 260
f 258 261 260
f 258 259 261
f 250 262 252
f 217 263 233
f 217 236 263
f 263 236 264
f 250 233 262
f 233 263 262
f 263 265 262
f 263 264 265
f 252 266 259
f 261 259 267
f 259 268 267
f 252 262 266
f 262 265 266
f 266 265 269
f 264 270 265
f 265 270 269
f 259 266 268
f 266 269 268
f 268 269 271
f 270 272 269
f 269 272 271
f 237 273 236
f 264 236 273
f 237 239 273
f 264 273 274
f 273 239 275
f 273 275 274
f 239 243 276
f 243 244 277
f 243 277 276
f 239 276 275
f 275 276 278
f 275 279 280
f 275 278 279
f 276 281 278
f 276 277 282
f 276 283 281
f 276 282 283
f 282 277 284
f 264 274 270
f 270 274 285
f 275 286 274
f 275 280 287
f 275 287 286
f 274 286 285
f 286 287 288
f 286 288 289
f 286 289 285
f 270 285 272
f 272 285 290
f 289 291 285
f 285 291 292
f 285 293 290
f 285 292 293
f 52 132 294
f 221 52 294
f 132 133 295
f 294 132 295
f 221 294 223
f 294 296 223
f 294 295 296
f 295 297 296
f 295 133 298
f 133 136 298
f 136 137 299
f 298 136 299
f 295 298 297
f 298 300 297
f 298 299 300
f 299 301 300
f 223 296 302
f 229 223 302
f 296 303 302
f 296 297 303
f 229 302 231
f 302 303 304
f 302 304 231
f 231 304 305
f 303 306 304
f 304 306 307
f 297 308 303
f 297 300 308
f 303 308 306
f 300 309 308
f 308 309 310
f 306 311 307
f 308 310 306
f 306 310 311
f 310 312 311
f 299 137 313
f 299 313 301
f 141 313 137
f 141 148 313
f 300 301 309
f 301 314 309
f 313 315 301
f 313 148 315
f 148 316 315
f 301 315 314
f 315 316 317
f 315 317 314
f 147 316 148
f 147 150 316
f 316 150 318
f 316 318 317
f 317 318 319
f 309 314 320
f 310 309 320
f 317 321 314
f 320 314 321
f 310 320 312
f 320 322 312
f 312 322 323
f 320 321 322
f 321 324 322
f 317 319 321
f 321 319 324
f 232 231 305
f 232 305 241
f 304 307 305
f 305 325 241
f 305 307 325
f 307 326 325
f 242 241 327
f 241 325 327
f 325 328 327
f 325 326 328
f 242 327 244
f 327 329 244
f 327 328 329
f 328 330 329
f 307 311 326
f 311 331 326
f 312 331 311
f 331 323 332
f 328 326 333
f 326 331 333
f 328 333 330
f 331 332 333
f 312 323 331
f 322 334 323
f 150 335 318
f 189 335 150
f 318 336 319
f 318 335 336
f 189 191 335
f 335 191 337
f 335 337 336
f 336 337 338
f 322 324 334
f 324 339 334
f 319 340 324
f 319 336 340
f 340 339 324
f 340 338 341
f 336 338 340
f 340 341 339
f 339 341 342
f 197 343 191
f 191 343 337
f 337 343 344
f 337 344 338
f 197 199 343
f 343 199 345
f 343 345 344
f 344 346 347
f 344 345 346
f 338 344 347
f 338 347 341
f 341 347 348
f 341 348 342
f 342 348 349
f 347 350 348
f 346 350 347
f 348 351 349
f 348 350 351
f 333 352 330
f 333 332 352
f 332 353 352
f 352 353 354
f 244 329 277
f 277 329 355
f 329 330 355
f 277 355 356
f 277 356 284
f 356 355 357
f 357 355 358
f 355 330 359
f 355 359 360
f 355 360 358
f 360 359 361
f 361 359 362
f 352 359 330
f 352 354 359
f 354 353 363
f 359 354 364
f 359 365 362
f 359 364 365
f 364 354 366
f 365 364 367
f 364 368 367
f 364 366 368
f 354 363 366
f 368 366 369
f 369 366 370
f 371 366 372
f 370 366 371
f 366 363 373
f 366 373 372
f 323 374 332
f 323 334 374
f 332 374 353
f 339 375 334
f 374 334 375
f 374 375 376
f 374 376 353
f 339 342 375
f 342 377 375
f 375 377 376
f 353 376 363
f 376 378 363
f 377 378 376
f 377 349 379
f 363 378 373
f 378 380 373
f 377 379 378
f 379 380 378
f 342 349 377
f 351 381 349
f 379 349 381
f 61 382 383
f 62 383 66
f 67 66 384
f 62 61 383
f 66 383 385
f 66 385 384
f 384 385 386
f 385 383 387
f 383 382 387
f 387 382 388
f 385 389 386
f 386 389 390
f 385 387 389
f 387 391 389
f 387 388 391
f 391 392 393
f 389 391 393
f 389 393 390
f 67 384 85
f 88 85 394
f 85 395 394
f 85 396 395
f 85 397 396
f 384 398 85
f 396 397 399
f 399 397 400
f 85 398 397
f 397 401 400
f 400 401 402
f 398 401 397
f 402 401 403
f 403 401 404
f 384 386 398
f 398 405 401
f 401 405 406
f 404 407 408
f 404 401 407
f 401 406 407
f 408 407 409
f 407 410 409
f 410 411 412
f 407 411 410
f 406 413 407
f 407 413 411
f 413 414 411
f 386 405 398
f 386 390 405
f 405 390 415
f 390 416 415
f 406 405 415
f 406 415 417
f 393 416 390
f 406 417 413
f 63 99 418
f 63 418 61
f 61 418 382
f 99 100 419
f 99 419 418
f 418 420 382
f 418 419 420
f 419 421 422
f 419 422 420
f 100 102 421
f 100 421 419
f 102 423 421
f 102 103 423
f 421 423 424
f 422 421 424
f 423 425 424
f 382 420 388
f 420 426 388
f 422 427 426
f 420 422 426
f 388 426 428
f 426 429 428
f 426 427 429
f 391 388 428
f 391 428 392
f 422 424 427
f 424 430 427
f 424 425 430
f 427 430 431
f 429 427 431
f 431 430 432
f 393 433 434
f 393 435 433
f 415 416 436
f 415 436 437
f 415 438 417
f 415 437 438
f 393 434 416
f 416 439 436
f 416 434 439
f 413 417 440
f 438 441 417
f 417 441 442
f 417 442 440
f 442 443 440
f 443 444 440
f 413 440 414
f 440 444 445
f 440 445 446
f 440 446 447
f 446 448 447
f 448 449 447
f 449 450 451
f 450 452 451
f 452 453 451
f 428 429 454
f 429 455 454
f 428 454 392
f 392 454 456
f 393 392 435
f 392 457 435
f 392 458 457
f 392 459 458
f 392 456 459
f 454 455 460
f 459 456 461
f 461 456 462
f 454 460 456
f 462 456 463
f 456 464 463
f 463 464 465
f 460 464 456
f 429 431 455
f 431 466 455
f 431 432 466
f 455 466 467
f 460 455 467
f 460 467 468
f 467 469 468
f 460 468 464
f 466 470 467
f 467 470 469
f 465 464 471
f 464 472 471
f 464 468 473
f 468 469 474
f 469 475 474
f 464 473 472
f 472 473 476
f 476 473 477
f 453 478 479
f 478 480 479
f 480 481 479
f 481 482 479
f 482 483 479
f 479 483 484
f 482 485 483
f 477 473 486
f 486 473 487
f 473 488 487
f 473 489 490
f 473 490 488
f 468 474 473
f 473 474 489
f 474 491 489
f 474 492 491
f 474 493 492
f 474 475 493
f 475 494 493
f 495 496 497
f 498 497 496
f 170 499 171
f 499 500 171
f 501 502 171
f 500 501 171
f 172 171 503
f 501 504 502
f 505 502 504
f 171 502 506
f 505 496 502
f 505 498 496
f 502 496 506
f 171 506 503
f 506 507 503
f 508 509 510
f 511 510 509
f 412 411 508
f 508 411 509
f 511 509 495
f 495 509 496
f 509 512 496
f 509 411 513
f 411 414 513
f 509 513 512
f 506 496 514
f 496 512 514
f 513 515 512
f 506 514 507
f 514 516 507
f 512 517 514
f 512 515 517
f 514 517 516
f 517 518 516
f 516 518 519
f 172 503 180
f 181 180 520
f 181 520 183
f 180 503 521
f 503 507 521
f 180 521 520
f 521 522 520
f 520 522 523
f 520 523 183
f 521 507 524
f 516 524 507
f 521 524 522
f 524 525 522
f 522 525 526
f 516 519 524
f 524 519 525
f 519 527 525
f 522 526 523
f 184 183 528
f 183 523 528
f 184 528 195
f 195 529 196
f 195 528 529
f 528 523 530
f 528 530 529
f 529 531 532
f 529 530 531
f 196 532 198
f 196 529 532
f 198 532 533
f 198 533 199
f 532 534 533
f 531 534 532
f 533 534 535
f 525 536 526
f 525 527 536
f 523 526 530
f 530 526 537
f 530 537 531
f 531 537 538
f 526 536 537
f 537 536 539
f 537 539 538
f 531 538 534
f 534 538 540
f 534 540 535
f 539 541 538
f 538 541 540
f 541 542 540
f 440 543 414
f 513 414 543
f 440 447 543
f 513 543 515
f 543 544 515
f 515 544 545
f 543 447 544
f 449 451 447
f 447 451 544
f 544 546 545
f 544 451 546
f 517 515 545
f 517 545 518
f 545 547 518
f 518 547 548
f 546 547 545
f 453 479 451
f 546 451 549
f 519 518 548
f 546 550 547
f 547 551 548
f 547 550 551
f 451 479 549
f 479 484 552
f 479 552 553
f 479 553 549
f 549 553 554
f 546 549 550
f 549 554 555
f 549 556 550
f 549 555 556
f 551 550 557
f 550 556 558
f 550 558 557
f 557 558 559
f 557 559 560
f 557 560 561
f 557 561 562
f 551 557 563
f 557 564 563
f 557 562 564
f 564 562 565
f 564 565 566
f 564 566 567
f 564 567 568
f 564 568 569
f 568 567 570
f 568 570 571
f 568 571 572
f 568 572 573
f 573 572 574
f 519 548 527
f 548 575 527
f 536 527 576
f 527 575 576
f 576 577 578
f 551 575 548
f 551 563 575
f 575 563 577
f 576 575 577
f 536 576 539
f 539 576 578
f 579 580 578
f 577 563 569
f 577 579 578
f 577 569 579
f 579 569 581
f 579 582 580
f 579 581 582
f 539 578 541
f 541 578 580
f 541 580 542
f 564 569 563
f 568 581 569
f 568 573 581
f 103 255 583
f 103 583 423
f 255 257 584
f 255 584 583
f 257 585 584
f 423 583 425
f 583 586 425
f 583 584 586
f 584 587 586
f 257 260 585
f 260 588 585
f 260 261 588
f 261 267 588
f 588 267 589
f 584 585 587
f 585 588 590
f 585 590 587
f 588 589 590
f 425 586 591
f 430 425 591
f 586 587 592
f 586 592 591
f 430 591 432
f 591 593 432
f 592 593 591
f 592 594 593
f 587 595 592
f 587 590 595
f 590 596 595
f 590 589 596
f 592 595 594
f 595 597 594
f 595 596 597
f 596 598 597
f 597 598 599
f 589 267 600
f 268 600 267
f 268 271 600
f 272 601 271
f 589 600 602
f 600 603 602
f 271 603 600
f 271 601 603
f 601 604 603
f 589 602 596
f 603 605 602
f 596 602 598
f 602 605 598
f 603 604 605
f 605 604 606
f 598 607 599
f 605 607 598
f 605 606 607
f 601 608 604
f 272 290 601
f 293 609 290
f 290 609 610
f 290 610 611
f 290 611 612
f 601 290 608
f 290 612 608
f 611 613 612
f 613 614 612
f 608 612 615
f 612 614 615
f 614 616 615
f 616 617 615
f 617 618 615
f 604 608 619
f 604 619 606
f 607 606 620
f 619 621 606
f 606 621 620
f 619 622 621
f 621 622 623
f 622 624 623
f 608 615 619
f 619 615 622
f 618 625 615
f 618 626 625
f 615 625 622
f 626 627 625
f 625 627 628
f 625 628 629
f 628 630 629
f 622 625 624
f 625 629 624
f 624 629 631
f 593 632 432
f 466 432 632
f 593 633 632
f 593 594 633
f 466 632 470
f 632 633 634
f 632 634 470
f 469 470 635
f 470 634 635
f 633 636 634
f 634 637 635
f 634 636 637
f 636 638 637
f 594 639 633
f 594 597 639
f 633 639 636
f 597 599 639
f 639 599 640
f 599 641 640
f 599 642 643
f 599 643 644
f 599 645 641
f 599 644 645
f 639 640 636
f 636 640 638
f 640 646 647
f 640 647 648
f 640 648 638
f 640 649 646
f 640 641 649
f 469 635 475
f 635 650 475
f 635 637 650
f 637 638 651
f 638 648 652
f 475 650 653
f 475 653 494
f 650 654 653
f 650 655 654
f 637 651 650
f 650 651 656
f 650 656 655
f 651 657 658
f 651 659 656
f 651 658 659
f 657 660 658
f 638 652 661
f 638 661 662
f 638 662 651
f 651 662 663
f 651 663 657
f 657 664 660
f 665 666 667
f 665 667 668
f 669 667 670
f 669 670 671
f 667 672 670
f 673 668 667
f 669 673 667
f 607 642 599
f 607 674 642
f 607 675 674
f 607 620 675
f 675 620 676
f 676 620 677
f 621 677 620
f 621 678 677
f 621 679 678
f 621 623 679
f 624 680 623
f 679 623 681
f 623 682 681
f 623 683 682
f 623 680 683
f 624 631 680
f 684 685 686
f 687 686 685
f 687 685 688
f 688 685 689
f 680 690 691
f 680 691 683
f 680 684 690
f 680 685 684
f 666 692 689
f 688 689 692
f 666 689 667
f 199 693 345
f 199 533 693
f 345 694 346
f 345 693 694
f 346 694 695
f 533 535 693
f 693 535 696
f 693 696 694
f 694 696 697
f 346 695 350
f 350 695 698
f 351 698 381
f 698 699 381
f 350 698 351
f 694 697 695
f 695 700 698
f 695 697 700
f 698 700 699
f 535 701 696
f 540 701 535
f 696 702 697
f 696 701 702
f 701 542 703
f 540 542 701
f 702 703 704
f 702 701 703
f 705 706 707
f 706 708 707
f 697 709 700
f 697 702 709
f 700 709 705
f 700 705 699
f 702 704 709
f 709 704 706
f 709 706 705
f 710 711 712
f 713 714 715
f 716 715 714
f 371 372 717
f 717 372 718
f 719 372 720
f 718 372 719
f 373 711 372
f 372 710 720
f 719 720 721
f 722 721 720
f 720 710 715
f 722 720 715
f 722 715 716
f 372 711 710
f 723 724 725
f 710 712 726
f 726 712 727
f 727 728 729
f 726 730 724
f 730 725 724
f 726 727 730
f 730 727 729
f 731 732 733
f 734 733 732
f 731 733 629
f 630 731 629
f 713 715 733
f 734 713 733
f 733 715 724
f 733 723 629
f 629 723 631
f 733 724 723
f 710 726 715
f 726 724 715
f 379 381 735
f 373 380 711
f 379 735 380
f 699 736 735
f 735 736 737
f 380 737 711
f 711 737 712
f 380 735 737
f 699 735 381
f 737 736 738
f 705 707 736
f 738 736 707
f 737 738 712
f 727 712 738
f 727 738 728
f 738 707 728
f 728 707 708
f 699 705 736
f 739 740 741
f 742 741 743
f 742 739 741
f 744 573 745
f 573 574 745
f 744 745 746
f 744 746 747
f 744 748 749
f 744 749 750
f 744 747 748
f 749 751 752
f 749 748 751
f 749 752 753
f 667 754 755
f 667 756 672
f 667 755 756
f 755 757 756
f 755 758 757
f 755 740 739
f 755 759 758
f 755 760 759
f 755 739 760
f 761 762 763
f 761 753 762
f 739 764 760
f 761 764 739
f 761 763 765
f 761 765 764
f 749 761 766
f 742 766 761
f 749 753 761
f 742 761 739
f 767 768 769
f 582 767 769
f 581 770 582
f 582 770 767
f 771 750 766
f 767 771 768
f 767 770 750
f 767 750 771
f 703 542 769
f 580 769 542
f 703 769 768
f 703 768 704
f 580 582 769
f 768 771 772
f 728 708 743
f 743 708 773
f 706 772 708
f 772 773 708
f 773 771 766
f 742 773 766
f 772 771 773
f 742 743 773
f 704 768 772
f 704 772 706
f 744 770 573
f 581 573 770
f 744 750 770
f 749 766 750
f 680 631 774
f 723 774 631
f 680 774 685
f 723 725 774
f 774 725 775
f 725 776 775
f 689 685 754
f 685 775 754
f 775 776 740
f 775 740 754
f 774 775 685
f 776 729 741
f 743 741 729
f 730 776 725
f 730 729 776
f 740 776 741
f 689 754 667
f 755 754 740
f 728 743 729
f 777 778 779
f 485 780 483
f 483 780 484
f 781 484 780
f 782 783 784
f 785 786 787
f 785 788 780
f 781 780 788
f 490 789 488
f 790 490 489
f 790 489 491
f 790 789 490
f 790 491 791
f 487 488 789
f 789 790 788
f 791 491 492
f 791 492 493
f 792 493 494
f 791 493 792
f 790 791 788
f 791 792 788
f 788 783 782
f 777 788 778
f 788 777 789
f 788 793 778
f 788 794 793
f 788 782 794
f 788 787 783
f 785 787 788
f 781 552 484
f 795 553 552
f 795 554 553
f 781 795 552
f 795 555 554
f 781 788 795
f 795 788 796
f 796 556 555
f 795 796 555
f 796 797 556
f 797 560 559
f 797 558 556
f 797 559 558
f 797 561 560
f 798 562 561
f 797 798 561
f 796 788 797
f 797 788 798
f 798 565 562
f 798 788 799
f 799 566 565
f 799 567 566
f 799 570 567
f 798 799 565
f 799 800 570
f 799 788 800
f 800 788 801
f 800 571 570
f 800 572 571
f 800 574 572
f 800 801 574
f 802 494 653
f 802 653 654
f 802 654 655
f 792 494 802
f 792 802 788
f 802 803 788
f 803 655 656
f 803 656 659
f 803 659 658
f 802 655 803
f 803 658 804
f 804 658 660
f 804 660 664
f 803 804 788
f 804 664 805
f 804 805 806
f 804 806 788
f 788 806 807
f 788 807 808
f 788 808 809
f 788 809 810
f 788 810 811
f 812 788 811
f 788 812 813
f 809 814 815
f 809 815 810
f 816 811 817
f 788 813 818
f 788 818 819
f 811 816 812
f 670 818 671
f 819 670 672
f 819 818 670
f 788 820 821
f 788 822 820
f 788 823 801
f 788 824 823
f 801 745 574
f 823 746 745
f 823 747 746
f 801 823 745
f 821 753 752
f 788 821 824
f 824 748 747
f 824 751 748
f 824 752 751
f 823 824 747
f 824 821 752
f 788 819 825
f 788 825 822
f 822 758 759
f 822 759 760
f 822 760 764
f 822 764 765
f 822 765 820
f 819 672 756
f 825 756 757
f 825 757 758
f 819 756 825
f 825 758 822
f 820 763 762
f 821 762 753
f 820 765 763
f 821 820 762
f 826 434 433
f 826 433 827
f 828 826 829
f 826 827 830
f 826 830 829
f 827 831 830
f 832 833 437
f 832 437 436
f 833 834 438
f 834 441 438
f 833 438 437
f 828 835 439
f 828 434 826
f 828 439 434
f 835 832 439
f 832 436 439
f 832 836 833
f 835 837 832
f 833 838 834
f 834 839 840
f 828 841 835
f 834 840 441
f 840 842 441
f 441 842 442
f 442 842 443
f 443 842 444
f 835 841 837
f 832 837 836
f 833 836 838
f 834 838 839
f 828 829 841
f 841 843 837
f 829 830 843
f 830 831 843
f 829 843 841
f 836 843 838
f 837 843 836
f 838 843 839
f 444 844 445
f 840 839 842
f 445 844 446
f 446 845 448
f 448 845 449
f 449 846 450
f 450 846 452
f 452 846 453
f 453 847 478
f 444 842 844
f 839 843 842
f 842 843 844
f 844 843 845
f 845 843 846
f 846 843 847
f 446 844 845
f 449 845 846
f 453 846 847
f 827 433 435
f 827 435 831
f 831 435 457
f 457 458 848
f 458 459 848
f 459 461 848
f 461 462 849
f 462 463 849
f 831 457 848
f 463 465 850
f 465 471 850
f 471 472 851
f 461 849 848
f 463 850 849
f 471 851 850
f 851 472 476
f 831 848 843
f 848 849 843
f 849 850 843
f 476 477 852
f 851 476 852
f 477 486 852
f 850 851 843
f 851 852 843
f 843 852 853
f 852 486 853
f 843 853 777
f 843 777 779
f 843 779 778
f 843 778 793
f 843 793 782
f 478 847 480
f 847 843 854
f 843 784 783
f 843 783 787
f 843 786 785
f 843 855 854
f 843 785 855
f 843 787 786
f 480 854 481
f 481 854 482
f 482 780 485
f 847 854 480
f 855 785 780
f 482 854 855
f 482 855 780
f 843 782 784
f 782 793 794
f 486 487 789
f 486 789 853
f 853 789 777
f 644 856 645
f 643 857 644
f 647 646 858
f 647 858 648
f 649 641 856
f 649 859 646
f 645 856 641
f 644 857 856
f 858 860 648
f 646 859 858
f 649 856 859
f 661 860 662
f 648 860 652
f 661 652 860
f 662 860 861
f 663 862 657
f 657 862 664
f 662 861 663
f 663 861 862
f 861 863 862
f 861 860 863
f 862 805 664
f 862 863 805
f 863 806 805
f 863 807 806
f 863 808 807
f 863 814 808
f 858 859 863
f 859 856 863
f 858 863 860
f 856 857 863
f 857 864 863
f 863 815 814
f 665 668 865
f 808 814 809
f 817 811 810
f 813 812 816
f 863 810 815
f 863 817 810
f 863 816 817
f 863 866 816
f 863 867 866
f 863 865 867
f 863 868 865
f 669 671 818
f 669 867 673
f 673 865 668
f 669 818 866
f 669 866 867
f 813 816 818
f 816 866 818
f 673 867 865
f 643 642 869
f 642 674 869
f 674 870 869
f 643 869 857
f 869 870 864
f 857 869 864
f 674 675 870
f 675 871 870
f 675 676 871
f 871 676 872
f 676 677 872
f 677 873 872
f 677 678 873
f 873 678 874
f 678 679 874
f 679 875 874
f 870 871 876
f 871 872 877
f 872 873 878
f 873 874 879
f 874 875 880
f 679 681 875
f 875 681 881
f 681 682 882
f 864 870 876
f 871 877 876
f 872 878 877
f 873 879 878
f 874 880 879
f 875 881 880
f 863 864 876
f 863 876 877
f 863 877 878
f 863 878 879
f 863 879 880
f 863 880 881
f 691 690 882
f 690 684 883
f 684 686 883
f 687 688 868
f 688 692 868
f 666 868 692
f 665 868 666
f 687 884 686
f 682 683 882
f 691 882 683
f 681 882 881
f 686 884 883
f 690 883 882
f 863 883 884
f 863 884 868
f 863 881 882
f 863 882 883
f 665 865 868
f 687 868 884
f 885 886 76
f 885 75 74
f 885 76 75
f 886 887 78
f 886 77 76
f 886 78 77
f 78 887 79
f 84 888 889
f 83 84 889
f 84 86 888
f 888 86 87
f 888 87 890
f 890 87 88
f 890 88 394
f 885 73 889
f 885 74 73
f 885 889 891
f 889 73 81
f 83 889 81
f 885 891 886
f 886 891 887
f 888 891 889
f 888 890 891
f 887 892 152
f 887 152 79
f 892 153 152
f 892 154 153
f 892 893 154
f 893 156 154
f 893 157 156
f 887 891 892
f 892 891 893
f 893 894 158
f 893 158 157
f 893 891 894
f 894 162 158
f 894 164 162
f 894 891 895
f 891 896 895
f 894 895 165
f 894 165 164
f 165 895 168
f 895 169 168
f 895 896 169
f 896 170 169
f 896 499 170
f 278 897 279
f 278 281 897
f 281 898 897
f 281 283 898
f 283 282 898
f 282 284 899
f 282 899 898
f 288 900 289
f 289 900 901
f 289 901 291
f 291 901 292
f 292 902 293
f 293 902 609
f 292 901 902
f 279 897 280
f 897 900 280
f 280 900 287
f 288 287 900
f 897 903 900
f 897 898 903
f 898 899 903
f 901 900 903
f 901 903 902
f 284 356 899
f 356 357 904
f 357 358 904
f 356 904 899
f 358 360 905
f 360 361 905
f 358 905 904
f 899 904 903
f 904 905 903
f 361 362 905
f 905 362 906
f 362 365 906
f 365 367 906
f 905 906 903
f 906 907 903
f 903 907 908
f 906 367 368
f 906 368 907
f 368 369 907
f 369 370 907
f 370 371 908
f 371 717 908
f 370 908 907
f 890 394 909
f 909 394 395
f 909 396 910
f 909 395 396
f 396 399 910
f 890 909 891
f 891 909 910
f 891 910 911
f 910 402 911
f 399 400 910
f 910 400 402
f 911 408 912
f 911 402 403
f 911 403 404
f 911 404 408
f 891 911 912
f 891 912 913
f 912 410 913
f 408 409 912
f 912 409 410
f 410 412 913
f 891 914 896
f 891 915 914
f 891 916 915
f 891 913 917
f 891 917 916
f 915 916 498
f 915 505 504
f 915 498 505
f 916 917 511
f 916 511 495
f 916 495 497
f 916 497 498
f 896 914 499
f 914 500 499
f 915 501 914
f 914 501 500
f 915 504 501
f 913 508 917
f 913 412 508
f 917 508 510
f 511 917 510
f 609 918 610
f 902 918 609
f 610 918 611
f 611 918 919
f 611 919 613
f 902 903 918
f 903 919 918
f 903 920 919
f 613 919 614
f 614 919 616
f 616 919 920
f 616 920 617
f 617 920 618
f 618 920 626
f 626 920 921
f 903 921 920
f 903 922 921
f 626 921 627
f 627 921 628
f 628 922 630
f 628 921 922
f 903 908 923
f 903 923 924
f 903 924 925
f 903 926 922
f 903 925 926
f 722 924 721
f 722 716 924
f 716 925 924
f 734 925 713
f 713 925 714
f 716 714 925
f 734 926 925
f 717 718 923
f 908 717 923
f 718 719 923
f 924 923 719
f 924 719 721
f 630 922 731
f 731 926 732
f 734 732 926
f 731 922 926
