# sionna2 mesh — mavic4pro__battery.obj
# group=battery  verts=16  tris=24
v -0.050483 -0.067423 0.032019
v -0.050447 0.068021 0.030788
v -0.048653 -0.067980 -0.029285
v 0.031159 -0.067980 -0.026902
v -0.048616 0.067463 -0.030515
v 0.029365 0.068021 0.033171
v 0.029328 -0.067423 0.034402
v 0.031195 0.067463 -0.028133
v -0.049503 -0.074276 -0.000802
v -0.049463 0.074276 -0.002152
v -0.049237 -0.074357 -0.009719
v 0.043344 -0.074357 -0.006955
v -0.049197 0.074194 -0.011069
v 0.043118 0.074276 0.000612
v 0.043078 -0.074276 0.001962
v 0.043385 0.074194 -0.008305
f 1 2 3
f 4 1 3
f 3 2 5
f 5 4 3
f 1 6 2
f 7 1 4
f 7 6 1
f 2 6 5
f 8 4 5
f 5 6 8
f 8 7 4
f 6 7 8
f 9 10 11
f 12 9 11
f 11 10 13
f 13 12 11
f 9 14 10
f 15 9 12
f 15 14 9
f 10 14 13
f 16 12 13
f 13 14 16
f 16 15 12
f 14 15 16
