# sionna2 mesh — mavic4pro__canopy.obj
# group=canopy  verts=1122  tris=2240
v -0.055480 0.061680 0.036987
v -0.055314 0.062919 0.031442
v -0.058988 0.048716 0.031992
v -0.059106 0.047373 0.035960
v -0.055589 0.058090 0.040652
v -0.059178 0.044351 0.038365
v -0.055650 0.053536 0.042682
v -0.059217 0.040780 0.039676
v -0.055687 0.048779 0.043918
v -0.059242 0.037106 0.040499
v -0.055712 0.043972 0.044770
v -0.059259 0.033402 0.041073
v -0.055730 0.039142 0.045379
v -0.059271 0.029685 0.041484
v -0.055744 0.034300 0.045819
v -0.059280 0.025960 0.041782
v -0.055753 0.029453 0.046143
v -0.059287 0.022232 0.042003
v -0.055760 0.024602 0.046377
v -0.059291 0.018502 0.042162
v -0.055765 0.019748 0.046534
v -0.059295 0.014771 0.042271
v -0.055768 0.014894 0.046644
v -0.059297 0.011039 0.042347
v -0.055770 0.010039 0.046716
v -0.059298 0.007307 0.042399
v -0.055772 0.005184 0.046778
v -0.059300 0.003575 0.042446
v -0.055774 0.000329 0.046832
v -0.059301 -0.000158 0.042485
v -0.055775 -0.004526 0.046865
v -0.059302 -0.003890 0.042509
v -0.055776 -0.009381 0.046892
v -0.059302 -0.007623 0.042531
v -0.055776 -0.014237 0.046906
v -0.059303 -0.011355 0.042541
v -0.055775 -0.019092 0.046880
v -0.059302 -0.015088 0.042523
v -0.055773 -0.023947 0.046807
v -0.059300 -0.018821 0.042468
v -0.055768 -0.028802 0.046652
v -0.059297 -0.022553 0.042356
v -0.055761 -0.033654 0.046408
v -0.059292 -0.026283 0.042182
v -0.055750 -0.038502 0.046044
v -0.059284 -0.030011 0.041920
v -0.055734 -0.043341 0.045508
v -0.059272 -0.033733 0.041533
v -0.055711 -0.048163 0.044723
v -0.059256 -0.037444 0.040966
v -0.055675 -0.052940 0.043526
v -0.059230 -0.041132 0.040099
v -0.055614 -0.057488 0.041470
v -0.059184 -0.044649 0.038571
v -0.055503 -0.061021 0.037754
v -0.059098 -0.047308 0.035692
v -0.055337 -0.062311 0.032191
v -0.058971 -0.048107 0.031422
v -0.055171 -0.061072 0.026646
v -0.058852 -0.046764 0.027455
v -0.055062 -0.057481 0.022981
v -0.058780 -0.043742 0.025050
v -0.055001 -0.052928 0.020951
v -0.058741 -0.040172 0.023739
v -0.054964 -0.048171 0.019715
v -0.058717 -0.036497 0.022916
v -0.054939 -0.043364 0.018863
v -0.058700 -0.032793 0.022342
v -0.054921 -0.038534 0.018254
v -0.058687 -0.029076 0.021931
v -0.054907 -0.033692 0.017814
v -0.058678 -0.025352 0.021633
v -0.054898 -0.028845 0.017490
v -0.058672 -0.021624 0.021412
v -0.054891 -0.023993 0.017255
v -0.058667 -0.017894 0.021252
v -0.054886 -0.019140 0.017099
v -0.058664 -0.014163 0.021144
v -0.054883 -0.014286 0.016989
v -0.058661 -0.010431 0.021067
v -0.054881 -0.009431 0.016916
v -0.058660 -0.006699 0.021016
v -0.054879 -0.004576 0.016854
v -0.058659 -0.002966 0.020969
v -0.054877 0.000279 0.016801
v -0.058657 0.000766 0.020930
v -0.054876 0.005134 0.016768
v -0.058657 0.004499 0.020905
v -0.054875 0.009990 0.016741
v -0.058656 0.008231 0.020884
v -0.054875 0.014845 0.016727
v -0.058656 0.011964 0.020874
v -0.054876 0.019700 0.016753
v -0.058656 0.015696 0.020892
v -0.054878 0.024556 0.016826
v -0.058658 0.019429 0.020947
v -0.054883 0.029410 0.016981
v -0.058661 0.023161 0.021059
v -0.054890 0.034263 0.017225
v -0.058666 0.026892 0.021233
v -0.054901 0.039111 0.017588
v -0.058674 0.030620 0.021495
v -0.054917 0.043950 0.018125
v -0.058686 0.034342 0.021882
v -0.054940 0.048771 0.018910
v -0.058703 0.038053 0.022449
v -0.054976 0.053548 0.020106
v -0.058729 0.041740 0.023316
v -0.055037 0.058096 0.022163
v -0.058774 0.045258 0.024844
v -0.055148 0.061629 0.025879
v -0.058860 0.047916 0.027723
v -0.050683 0.070776 0.038036
v -0.050487 0.072079 0.031461
v -0.050818 0.066834 0.042570
v -0.050895 0.061665 0.045155
v -0.050942 0.056204 0.046717
v -0.050974 0.050672 0.047787
v -0.050997 0.045109 0.048551
v -0.051013 0.039531 0.049102
v -0.051025 0.033944 0.049506
v -0.051034 0.028352 0.049798
v -0.051040 0.022758 0.049989
v -0.051044 0.017162 0.050124
v -0.051046 0.011565 0.050210
v -0.051048 0.005968 0.050283
v -0.051050 0.000371 0.050346
v -0.051051 -0.005226 0.050383
v -0.051052 -0.010823 0.050413
v -0.051053 -0.016420 0.050426
v -0.051052 -0.022018 0.050391
v -0.051049 -0.027615 0.050296
v -0.051043 -0.033210 0.050099
v -0.051034 -0.038803 0.049790
v -0.051020 -0.044390 0.049329
v -0.051000 -0.049965 0.048653
v -0.050970 -0.055515 0.047667
v -0.050925 -0.061000 0.046161
v -0.050848 -0.066167 0.043571
v -0.050712 -0.070091 0.039027
v -0.050516 -0.071470 0.032460
v -0.050320 -0.070167 0.025885
v -0.050185 -0.066225 0.021351
v -0.050108 -0.061057 0.018766
v -0.050061 -0.055595 0.017204
v -0.050029 -0.050063 0.016134
v -0.050006 -0.044501 0.015370
v -0.049990 -0.038922 0.014819
v -0.049978 -0.033335 0.014414
v -0.049969 -0.027744 0.014123
v -0.049963 -0.022149 0.013932
v -0.049959 -0.016553 0.013797
v -0.049957 -0.010957 0.013711
v -0.049954 -0.005360 0.013638
v -0.049953 0.000237 0.013575
v -0.049951 0.005834 0.013537
v -0.049951 0.011431 0.013508
v -0.049950 0.017029 0.013495
v -0.049951 0.022626 0.013530
v -0.049954 0.028223 0.013625
v -0.049960 0.033819 0.013822
v -0.049969 0.039412 0.014131
v -0.049983 0.044999 0.014591
v -0.050003 0.050573 0.015268
v -0.050033 0.056124 0.016254
v -0.050077 0.061609 0.017760
v -0.050155 0.066775 0.020350
v -0.050290 0.070700 0.024894
v -0.045886 0.078451 0.038924
v -0.045665 0.079830 0.031514
v -0.046043 0.074215 0.044177
v -0.046134 0.068535 0.047229
v -0.046189 0.062479 0.049066
v -0.046227 0.056334 0.050317
v -0.046253 0.050152 0.051212
v -0.046272 0.043950 0.051857
v -0.046287 0.037737 0.052328
v -0.046297 0.031519 0.052667
v -0.046303 0.025298 0.052888
v -0.046308 0.019074 0.053043
v -0.046311 0.012850 0.053141
v -0.046313 0.006626 0.053223
v -0.046315 0.000401 0.053294
v -0.046317 -0.005824 0.053335
v -0.046318 -0.012049 0.053367
v -0.046318 -0.018274 0.053380
v -0.046317 -0.024499 0.053336
v -0.046313 -0.030724 0.053224
v -0.046306 -0.036947 0.052992
v -0.046296 -0.043166 0.052627
v -0.046279 -0.049379 0.052086
v -0.046256 -0.055576 0.051293
v -0.046221 -0.061743 0.050139
v -0.046169 -0.067826 0.048374
v -0.046078 -0.073515 0.045338
v -0.045921 -0.077761 0.040092
v -0.045700 -0.079222 0.032695
v -0.045479 -0.077842 0.025284
v -0.045322 -0.073607 0.020032
v -0.045231 -0.067927 0.016979
v -0.045176 -0.061871 0.015143
v -0.045139 -0.055726 0.013891
v -0.045112 -0.049544 0.012997
v -0.045093 -0.043341 0.012352
v -0.045079 -0.037129 0.011880
v -0.045069 -0.030911 0.011541
v -0.045062 -0.024689 0.011320
v -0.045058 -0.018466 0.011165
v -0.045055 -0.012242 0.011067
v -0.045052 -0.006017 0.010985
v -0.045050 0.000207 0.010914
v -0.045049 0.006432 0.010873
v -0.045048 0.012657 0.010842
v -0.045048 0.018882 0.010829
v -0.045049 0.025107 0.010873
v -0.045052 0.031332 0.010984
v -0.045059 0.037555 0.011216
v -0.045070 0.043775 0.011581
v -0.045086 0.049987 0.012122
v -0.045110 0.056184 0.012916
v -0.045144 0.062351 0.014070
v -0.045197 0.068435 0.015835
v -0.045288 0.074123 0.018871
v -0.045444 0.078369 0.024117
v -0.041112 0.084837 0.039657
v -0.040871 0.086278 0.031573
v -0.041286 0.080356 0.045492
v -0.041389 0.074256 0.048928
v -0.041450 0.067707 0.050989
v -0.041492 0.061052 0.052389
v -0.041522 0.054355 0.053389
v -0.041543 0.047635 0.054110
v -0.041559 0.040903 0.054637
v -0.041570 0.034165 0.055015
v -0.041578 0.027422 0.055260
v -0.041583 0.020677 0.055432
v -0.041586 0.013932 0.055540
v -0.041589 0.007186 0.055629
v -0.041591 0.000440 0.055706
v -0.041592 -0.006306 0.055751
v -0.041593 -0.013053 0.055784
v -0.041594 -0.019799 0.055797
v -0.041592 -0.026545 0.055747
v -0.041589 -0.033292 0.055621
v -0.041581 -0.040036 0.055361
v -0.041569 -0.046776 0.054952
v -0.041550 -0.053508 0.054346
v -0.041524 -0.060221 0.053458
v -0.041485 -0.066901 0.052168
v -0.041427 -0.073483 0.050197
v -0.041325 -0.079609 0.046804
v -0.041152 -0.084129 0.040993
v -0.040911 -0.085670 0.032922
v -0.040669 -0.084229 0.024838
v -0.040495 -0.079747 0.019003
v -0.040393 -0.073648 0.015566
v -0.040331 -0.067099 0.013506
v -0.040289 -0.060444 0.012106
v -0.040260 -0.053747 0.011106
v -0.040238 -0.047027 0.010384
v -0.040222 -0.040295 0.009858
v -0.040211 -0.033556 0.009480
v -0.040204 -0.026813 0.009234
v -0.040199 -0.020069 0.009063
v -0.040195 -0.013323 0.008955
v -0.040193 -0.006578 0.008866
v -0.040190 0.000168 0.008788
v -0.040189 0.006915 0.008744
v -0.040188 0.013661 0.008710
v -0.040188 0.020407 0.008697
v -0.040189 0.027154 0.008748
v -0.040193 0.033900 0.008874
v -0.040201 0.040644 0.009134
v -0.040213 0.047384 0.009543
v -0.040231 0.054116 0.010149
v -0.040257 0.060830 0.011036
v -0.040296 0.067509 0.012326
v -0.040355 0.074091 0.014298
v -0.040456 0.080217 0.017691
v -0.040630 0.084737 0.023502
v -0.036334 0.089902 0.040257
v -0.036076 0.091394 0.031645
v -0.036521 0.085220 0.046540
v -0.036633 0.078785 0.050272
v -0.036699 0.071845 0.052507
v -0.036744 0.064787 0.054020
v -0.036777 0.057683 0.055102
v -0.036800 0.050553 0.055883
v -0.036817 0.043410 0.056452
v -0.036829 0.036260 0.056859
v -0.036837 0.029105 0.057124
v -0.036843 0.021948 0.057308
v -0.036846 0.014790 0.057424
v -0.036849 0.007632 0.057519
v -0.036851 0.000474 0.057602
v -0.036853 -0.006685 0.057649
v -0.036854 -0.013844 0.057684
v -0.036854 -0.021002 0.057697
v -0.036853 -0.028161 0.057641
v -0.036848 -0.035320 0.057505
v -0.036840 -0.042476 0.057224
v -0.036827 -0.049628 0.056781
v -0.036807 -0.056770 0.056125
v -0.036779 -0.063893 0.055166
v -0.036737 -0.070978 0.053771
v -0.036673 -0.077955 0.051642
v -0.036564 -0.084431 0.047978
v -0.036378 -0.089177 0.041734
v -0.036121 -0.090786 0.033136
v -0.035864 -0.089294 0.024524
v -0.035676 -0.084611 0.018240
v -0.035565 -0.078177 0.014509
v -0.035498 -0.071237 0.012274
v -0.035453 -0.064179 0.010760
v -0.035421 -0.057074 0.009678
v -0.035397 -0.049945 0.008898
v -0.035380 -0.042802 0.008329
v -0.035368 -0.035652 0.007921
v -0.035360 -0.028497 0.007657
v -0.035355 -0.021340 0.007473
v -0.035351 -0.014182 0.007357
v -0.035348 -0.007024 0.007262
v -0.035346 0.000134 0.007179
v -0.035345 0.007293 0.007132
v -0.035344 0.014452 0.007097
v -0.035343 0.021611 0.007084
v -0.035345 0.028770 0.007140
v -0.035349 0.035928 0.007276
v -0.035357 0.043084 0.007557
v -0.035370 0.050236 0.008000
v -0.035390 0.057379 0.008656
v -0.035419 0.064502 0.009615
v -0.035460 0.071586 0.011010
v -0.035524 0.078563 0.013139
v -0.035633 0.085040 0.016802
v -0.035820 0.089785 0.023047
v -0.031551 0.093683 0.040729
v -0.031283 0.095217 0.031729
v -0.031749 0.088844 0.047336
v -0.031866 0.082158 0.051277
v -0.031937 0.074927 0.053637
v -0.031984 0.067568 0.055233
v -0.032018 0.060160 0.056374
v -0.032043 0.052726 0.057196
v -0.032061 0.045278 0.057795
v -0.032074 0.037821 0.058224
v -0.032082 0.030360 0.058503
v -0.032088 0.022897 0.058697
v -0.032091 0.015432 0.058818
v -0.032094 0.007968 0.058918
v -0.032097 0.000503 0.059004
v -0.032098 -0.006963 0.059053
v -0.032099 -0.014428 0.059089
v -0.032100 -0.021893 0.059103
v -0.032098 -0.029359 0.059044
v -0.032094 -0.036824 0.058899
v -0.032085 -0.044287 0.058604
v -0.032071 -0.051745 0.058137
v -0.032050 -0.059193 0.057447
v -0.032020 -0.066620 0.056436
v -0.031976 -0.074006 0.054968
v -0.031909 -0.081278 0.052726
v -0.031794 -0.088020 0.048875
v -0.031599 -0.092943 0.042322
v -0.031331 -0.094609 0.033338
v -0.031062 -0.093075 0.024338
v -0.030865 -0.088236 0.017731
v -0.030747 -0.081550 0.013790
v -0.030677 -0.074318 0.011430
v -0.030629 -0.066960 0.009834
v -0.030595 -0.059552 0.008693
v -0.030570 -0.052118 0.007871
v -0.030552 -0.044669 0.007272
v -0.030540 -0.037213 0.006843
v -0.030531 -0.029752 0.006564
v -0.030525 -0.022288 0.006370
v -0.030522 -0.014824 0.006249
v -0.030519 -0.007359 0.006149
v -0.030516 0.000106 0.006063
v -0.030515 0.007571 0.006014
v -0.030514 0.015036 0.005978
v -0.030513 0.022502 0.005964
v -0.030515 0.029967 0.006023
v -0.030519 0.037432 0.006168
v -0.030528 0.044895 0.006463
v -0.030542 0.052353 0.006930
v -0.030563 0.059801 0.007620
v -0.030593 0.067228 0.008631
v -0.030637 0.074614 0.010099
v -0.030704 0.081886 0.012341
v -0.030819 0.088628 0.016192
v -0.031014 0.093551 0.022745
v -0.026765 0.096217 0.041080
v -0.026489 0.097781 0.031826
v -0.026969 0.091267 0.047890
v -0.027090 0.084409 0.051962
v -0.027163 0.076983 0.054400
v -0.027212 0.069424 0.056047
v -0.027247 0.061814 0.057224
v -0.027273 0.054177 0.058073
v -0.027291 0.046525 0.058691
v -0.027304 0.038865 0.059134
v -0.027313 0.031200 0.059421
v -0.027319 0.023533 0.059621
v -0.027323 0.015864 0.059746
v -0.027326 0.008196 0.059848
v -0.027328 0.000527 0.059937
v -0.027330 -0.007143 0.059987
v -0.027331 -0.014812 0.060025
v -0.027331 -0.022481 0.060039
v -0.027330 -0.030151 0.059978
v -0.027325 -0.037820 0.059829
v -0.027316 -0.045487 0.059524
v -0.027302 -0.053149 0.059044
v -0.027281 -0.060800 0.058332
v -0.027249 -0.068430 0.057292
v -0.027204 -0.076017 0.055779
v -0.027135 -0.083487 0.053469
v -0.027017 -0.090411 0.049506
v -0.026816 -0.095463 0.042763
v -0.026540 -0.097173 0.033527
v -0.026264 -0.095609 0.024273
v -0.026060 -0.090659 0.017463
v -0.025939 -0.083801 0.013391
v -0.025866 -0.076375 0.010953
v -0.025817 -0.068816 0.009306
v -0.025782 -0.061206 0.008129
v -0.025756 -0.053569 0.007281
v -0.025738 -0.045917 0.006662
v -0.025725 -0.038257 0.006219
v -0.025716 -0.030592 0.005932
v -0.025710 -0.022925 0.005732
v -0.025706 -0.015256 0.005607
v -0.025703 -0.007587 0.005505
v -0.025701 0.000082 0.005416
v -0.025699 0.007751 0.005366
v -0.025698 0.015420 0.005329
v -0.025698 0.023090 0.005315
v -0.025699 0.030759 0.005376
v -0.025704 0.038428 0.005524
v -0.025713 0.046095 0.005829
v -0.025727 0.053757 0.006309
v -0.025749 0.061409 0.007021
v -0.025780 0.069038 0.008062
v -0.025825 0.076626 0.009574
v -0.025894 0.084095 0.011884
v -0.026012 0.091019 0.015847
v -0.026213 0.096072 0.022590
v -0.021976 0.097540 0.041313
v -0.021696 0.099124 0.031934
v -0.022182 0.092525 0.048216
v -0.022305 0.085575 0.052344
v -0.022379 0.078047 0.054814
v -0.022429 0.070385 0.056483
v -0.022465 0.062671 0.057676
v -0.022490 0.054929 0.058535
v -0.022509 0.047173 0.059162
v -0.022522 0.039408 0.059611
v -0.022531 0.031638 0.059902
v -0.022537 0.023866 0.060105
v -0.022541 0.016093 0.060231
v -0.022544 0.008320 0.060335
v -0.022547 0.000546 0.060425
v -0.022548 -0.007228 0.060476
v -0.022549 -0.015002 0.060514
v -0.022550 -0.022776 0.060528
v -0.022548 -0.030550 0.060467
v -0.022543 -0.038324 0.060317
v -0.022534 -0.046096 0.060009
v -0.022520 -0.053862 0.059523
v -0.022498 -0.061618 0.058804
v -0.022467 -0.069353 0.057752
v -0.022421 -0.077044 0.056223
v -0.022352 -0.084616 0.053889
v -0.022232 -0.091642 0.049884
v -0.022028 -0.096776 0.043063
v -0.021749 -0.098516 0.033705
v -0.021469 -0.096932 0.024326
v -0.021263 -0.091916 0.017424
v -0.021140 -0.084967 0.013295
v -0.021066 -0.077438 0.010825
v -0.021016 -0.069776 0.009156
v -0.020980 -0.062062 0.007964
v -0.020955 -0.054321 0.007104
v -0.020936 -0.046564 0.006477
v -0.020923 -0.038800 0.006028
v -0.020914 -0.031030 0.005737
v -0.020908 -0.023258 0.005535
v -0.020904 -0.015485 0.005408
v -0.020901 -0.007711 0.005304
v -0.020898 0.000062 0.005214
v -0.020897 0.007836 0.005163
v -0.020896 0.015610 0.005125
v -0.020895 0.023385 0.005111
v -0.020897 0.031159 0.005172
v -0.020902 0.038933 0.005322
v -0.020911 0.046704 0.005630
v -0.020925 0.054471 0.006116
v -0.020947 0.062227 0.006835
v -0.020978 0.069961 0.007887
v -0.021024 0.077652 0.009417
v -0.021093 0.085225 0.011750
v -0.021213 0.092250 0.015755
v -0.021417 0.097384 0.022576
v -0.017183 0.097690 0.041434
v -0.016903 0.099281 0.032054
v -0.017389 0.092655 0.048322
v -0.017512 0.085690 0.052439
v -0.017585 0.078151 0.054899
v -0.017635 0.070479 0.056562
v -0.017670 0.062756 0.057750
v -0.017696 0.055005 0.058606
v -0.017715 0.047240 0.059231
v -0.017728 0.039467 0.059679
v -0.017737 0.031688 0.059969
v -0.017743 0.023908 0.060172
v -0.017747 0.016126 0.060298
v -0.017750 0.008343 0.060402
v -0.017752 0.000561 0.060492
v -0.017754 -0.007222 0.060544
v -0.017755 -0.015004 0.060581
v -0.017755 -0.022787 0.060596
v -0.017754 -0.030570 0.060536
v -0.017749 -0.038353 0.060387
v -0.017740 -0.046133 0.060082
v -0.017726 -0.053908 0.059599
v -0.017704 -0.061673 0.058884
v -0.017673 -0.069417 0.057838
v -0.017628 -0.077118 0.056318
v -0.017559 -0.084702 0.054001
v -0.017440 -0.091749 0.050022
v -0.017237 -0.096916 0.043227
v -0.016958 -0.098673 0.033871
v -0.016678 -0.097081 0.024492
v -0.016472 -0.092046 0.017603
v -0.016349 -0.085082 0.013486
v -0.016275 -0.077542 0.011026
v -0.016226 -0.069870 0.009364
v -0.016190 -0.062147 0.008176
v -0.016165 -0.054397 0.007319
v -0.016146 -0.046632 0.006694
v -0.016133 -0.038858 0.006247
v -0.016124 -0.031080 0.005956
v -0.016118 -0.023299 0.005754
v -0.016114 -0.015517 0.005627
v -0.016111 -0.007735 0.005523
v -0.016109 0.000047 0.005433
v -0.016107 0.007830 0.005382
v -0.016106 0.015613 0.005344
v -0.016105 0.023396 0.005329
v -0.016107 0.031178 0.005390
v -0.016112 0.038961 0.005538
v -0.016121 0.046741 0.005844
v -0.016135 0.054516 0.006326
v -0.016157 0.062281 0.007041
v -0.016188 0.070025 0.008087
v -0.016233 0.077726 0.009607
v -0.016302 0.085310 0.011924
v -0.016421 0.092357 0.015903
v -0.016624 0.097524 0.022698
v -0.012387 0.096702 0.041447
v -0.012111 0.098288 0.032185
v -0.012590 0.091693 0.048221
v -0.012710 0.084790 0.052259
v -0.012782 0.077327 0.054672
v -0.012831 0.069736 0.056302
v -0.012866 0.062095 0.057467
v -0.012891 0.054428 0.058308
v -0.012909 0.046747 0.058921
v -0.012922 0.039057 0.059361
v -0.012931 0.031363 0.059647
v -0.012937 0.023666 0.059846
v -0.012940 0.015968 0.059971
v -0.012943 0.008270 0.060073
v -0.012946 0.000572 0.060162
v -0.012948 -0.007127 0.060213
v -0.012949 -0.014825 0.060251
v -0.012949 -0.022524 0.060266
v -0.012948 -0.030223 0.060208
v -0.012943 -0.037921 0.060063
v -0.012934 -0.045617 0.059765
v -0.012920 -0.053309 0.059293
v -0.012899 -0.060991 0.058594
v -0.012869 -0.068651 0.057571
v -0.012824 -0.076271 0.056084
v -0.012757 -0.083778 0.053819
v -0.012641 -0.090769 0.049931
v -0.012442 -0.095920 0.043261
v -0.012166 -0.097680 0.034026
v -0.011889 -0.096094 0.024764
v -0.011687 -0.091085 0.017991
v -0.011567 -0.084182 0.013952
v -0.011494 -0.076719 0.011540
v -0.011446 -0.069128 0.009910
v -0.011411 -0.061487 0.008744
v -0.011386 -0.053820 0.007904
v -0.011368 -0.046138 0.007290
v -0.011354 -0.038449 0.006850
v -0.011346 -0.030754 0.006565
v -0.011340 -0.023058 0.006366
v -0.011336 -0.015360 0.006241
v -0.011333 -0.007662 0.006139
v -0.011331 0.000036 0.006050
v -0.011329 0.007735 0.005998
v -0.011328 0.015434 0.005961
v -0.011327 0.023132 0.005945
v -0.011329 0.030831 0.006004
v -0.011334 0.038530 0.006148
v -0.011342 0.046226 0.006447
v -0.011357 0.053917 0.006919
v -0.011377 0.061599 0.007617
v -0.011408 0.069260 0.008640
v -0.011452 0.076879 0.010128
v -0.011520 0.084387 0.012393
v -0.011636 0.091378 0.016281
v -0.011835 0.096529 0.022950
v -0.007588 0.094613 0.041357
v -0.007319 0.096182 0.032327
v -0.007784 0.089677 0.047921
v -0.007901 0.082909 0.051820
v -0.007970 0.075609 0.054150
v -0.008017 0.068186 0.055724
v -0.008051 0.060716 0.056850
v -0.008075 0.053221 0.057662
v -0.008093 0.045713 0.058255
v -0.008106 0.038196 0.058681
v -0.008114 0.030675 0.058958
v -0.008120 0.023152 0.059150
v -0.008123 0.015628 0.059272
v -0.008126 0.008104 0.059372
v -0.008129 0.000579 0.059459
v -0.008130 -0.006946 0.059509
v -0.008131 -0.014471 0.059546
v -0.008132 -0.021996 0.059562
v -0.008130 -0.029522 0.059507
v -0.008126 -0.037046 0.059368
v -0.008118 -0.044569 0.059081
v -0.008104 -0.052087 0.058628
v -0.008084 -0.059596 0.057956
v -0.008055 -0.067086 0.056971
v -0.008012 -0.074535 0.055538
v -0.007947 -0.081880 0.053359
v -0.007835 -0.088739 0.049620
v -0.007643 -0.093826 0.043170
v -0.007374 -0.095573 0.034170
v -0.007104 -0.094005 0.025140
v -0.006908 -0.089069 0.018576
v -0.006792 -0.082301 0.014677
v -0.006722 -0.075000 0.012348
v -0.006675 -0.067578 0.010774
v -0.006642 -0.060108 0.009648
v -0.006617 -0.052613 0.008836
v -0.006600 -0.045104 0.008243
v -0.006587 -0.037588 0.007817
v -0.006579 -0.030067 0.007540
v -0.006573 -0.022544 0.007347
v -0.006569 -0.015020 0.007226
v -0.006566 -0.007495 0.007126
v -0.006564 0.000029 0.007039
v -0.006562 0.007554 0.006989
v -0.006561 0.015079 0.006952
v -0.006561 0.022605 0.006936
v -0.006562 0.030130 0.006991
v -0.006566 0.037655 0.007129
v -0.006575 0.045178 0.007416
v -0.006589 0.052696 0.007870
v -0.006609 0.060205 0.008542
v -0.006638 0.067694 0.009527
v -0.006681 0.075144 0.010960
v -0.006746 0.082488 0.013139
v -0.006858 0.089347 0.016878
v -0.007050 0.094434 0.023328
v -0.002786 0.091460 0.041169
v -0.002527 0.092997 0.032480
v -0.002974 0.086644 0.047435
v -0.003084 0.080084 0.051138
v -0.003150 0.073028 0.053352
v -0.003195 0.065858 0.054848
v -0.003227 0.058645 0.055919
v -0.003250 0.051408 0.056691
v -0.003267 0.044158 0.057255
v -0.003279 0.036901 0.057661
v -0.003287 0.029640 0.057926
v -0.003292 0.022376 0.058110
v -0.003296 0.015112 0.058227
v -0.003299 0.007847 0.058323
v -0.003301 0.000582 0.058406
v -0.003303 -0.006683 0.058455
v -0.003304 -0.013948 0.058491
v -0.003304 -0.021214 0.058508
v -0.003303 -0.028479 0.058456
v -0.003299 -0.035744 0.058326
v -0.003291 -0.043007 0.058055
v -0.003278 -0.050266 0.057626
v -0.003259 -0.057517 0.056991
v -0.003231 -0.064749 0.056058
v -0.003190 -0.071944 0.054700
v -0.003129 -0.079042 0.052637
v -0.003023 -0.085695 0.049101
v -0.002840 -0.090668 0.042960
v -0.002581 -0.092389 0.034304
v -0.002322 -0.090851 0.025614
v -0.002135 -0.086036 0.019349
v -0.002024 -0.079476 0.015645
v -0.001958 -0.072419 0.013432
v -0.001914 -0.065250 0.011936
v -0.001882 -0.058037 0.010865
v -0.001859 -0.050799 0.010093
v -0.001842 -0.043550 0.009529
v -0.001830 -0.036293 0.009123
v -0.001822 -0.029031 0.008858
v -0.001816 -0.021768 0.008674
v -0.001813 -0.014504 0.008557
v -0.001810 -0.007239 0.008461
v -0.001807 0.000026 0.008377
v -0.001806 0.007291 0.008329
v -0.001805 0.014557 0.008292
v -0.001804 0.021822 0.008276
v -0.001806 0.029087 0.008327
v -0.001810 0.036353 0.008458
v -0.001818 0.043616 0.008729
v -0.001831 0.050875 0.009158
v -0.001850 0.058125 0.009793
v -0.001878 0.065357 0.010726
v -0.001918 0.072552 0.012084
v -0.001980 0.079651 0.014147
v -0.002085 0.086303 0.017682
v -0.002269 0.091276 0.023824
v 0.002018 0.087278 0.040888
v 0.002264 0.088771 0.032642
v 0.001843 0.082631 0.046773
v 0.001739 0.076349 0.050229
v 0.001678 0.069617 0.052295
v 0.001636 0.062782 0.053694
v 0.001606 0.055908 0.054695
v 0.001585 0.049011 0.055417
v 0.001569 0.042102 0.055945
v 0.001557 0.035188 0.056326
v 0.001550 0.028269 0.056574
v 0.001545 0.021348 0.056748
v 0.001541 0.014426 0.056858
v 0.001539 0.007504 0.056949
v 0.001536 0.000582 0.057029
v 0.001535 -0.006341 0.057076
v 0.001534 -0.013263 0.057111
v 0.001533 -0.020186 0.057127
v 0.001535 -0.027108 0.057081
v 0.001538 -0.034031 0.056961
v 0.001546 -0.040952 0.056709
v 0.001558 -0.047869 0.056311
v 0.001575 -0.054778 0.055720
v 0.001601 -0.061670 0.054853
v 0.001639 -0.068529 0.053588
v 0.001696 -0.075301 0.051670
v 0.001794 -0.081674 0.048387
v 0.001966 -0.086484 0.042635
v 0.002211 -0.088163 0.034428
v 0.002457 -0.086670 0.026182
v 0.002633 -0.082022 0.020297
v 0.002736 -0.075741 0.016841
v 0.002798 -0.069009 0.014775
v 0.002840 -0.062174 0.013376
v 0.002870 -0.055299 0.012375
v 0.002891 -0.048402 0.011653
v 0.002907 -0.041494 0.011125
v 0.002918 -0.034579 0.010744
v 0.002926 -0.027660 0.010496
v 0.002931 -0.020740 0.010322
v 0.002934 -0.013818 0.010212
v 0.002937 -0.006896 0.010121
v 0.002939 0.000026 0.010041
v 0.002941 0.006949 0.009994
v 0.002942 0.013871 0.009959
v 0.002942 0.020794 0.009943
v 0.002941 0.027717 0.009989
v 0.002937 0.034639 0.010109
v 0.002930 0.041560 0.010361
v 0.002918 0.048477 0.010759
v 0.002900 0.055386 0.011350
v 0.002874 0.062278 0.012217
v 0.002837 0.069137 0.013482
v 0.002779 0.075909 0.015400
v 0.002681 0.082282 0.018683
v 0.002510 0.087092 0.024435
v 0.006826 0.082105 0.040517
v 0.007056 0.083539 0.032815
v 0.006664 0.077673 0.045944
v 0.006569 0.071741 0.049106
v 0.006513 0.065409 0.050999
v 0.006474 0.058988 0.052282
v 0.006447 0.052531 0.053200
v 0.006427 0.046053 0.053862
v 0.006413 0.039566 0.054347
v 0.006402 0.033073 0.054697
v 0.006395 0.026576 0.054927
v 0.006391 0.020077 0.055088
v 0.006388 0.013578 0.055191
v 0.006385 0.007078 0.055276
v 0.006383 0.000578 0.055350
v 0.006382 -0.005922 0.055395
v 0.006381 -0.012422 0.055428
v 0.006380 -0.018922 0.055445
v 0.006381 -0.025423 0.055404
v 0.006384 -0.031923 0.055295
v 0.006391 -0.038421 0.055067
v 0.006402 -0.044917 0.054705
v 0.006418 -0.051405 0.054167
v 0.006442 -0.057879 0.053376
v 0.006476 -0.064322 0.052222
v 0.006528 -0.070690 0.050473
v 0.006618 -0.076712 0.047487
v 0.006775 -0.081309 0.042201
v 0.007004 -0.082930 0.034541
v 0.007234 -0.081496 0.026839
v 0.007396 -0.077065 0.021412
v 0.007491 -0.071132 0.018250
v 0.007547 -0.064801 0.016357
v 0.007585 -0.058380 0.015074
v 0.007613 -0.051922 0.014157
v 0.007632 -0.045445 0.013494
v 0.007647 -0.038958 0.013009
v 0.007657 -0.032465 0.012659
v 0.007664 -0.025968 0.012429
v 0.007669 -0.019469 0.012268
v 0.007672 -0.012970 0.012165
v 0.007675 -0.006470 0.012080
v 0.007677 0.000030 0.012006
v 0.007678 0.006530 0.011961
v 0.007679 0.013030 0.011928
v 0.007680 0.019531 0.011912
v 0.007679 0.026031 0.011952
v 0.007675 0.032531 0.012061
v 0.007668 0.039030 0.012289
v 0.007658 0.045525 0.012651
v 0.007642 0.052013 0.013189
v 0.007618 0.058487 0.013980
v 0.007584 0.064930 0.015134
v 0.007531 0.071298 0.016883
v 0.007442 0.077321 0.019869
v 0.007284 0.081917 0.025155
v 0.011636 0.075973 0.040059
v 0.011847 0.077333 0.032994
v 0.011489 0.071809 0.044960
v 0.011405 0.066294 0.047786
v 0.011354 0.060437 0.049481
v 0.011320 0.054504 0.050631
v 0.011295 0.048540 0.051454
v 0.011278 0.042559 0.052049
v 0.011265 0.036569 0.052484
v 0.011255 0.030573 0.052800
v 0.011249 0.024575 0.053008
v 0.011245 0.018575 0.053154
v 0.011242 0.012574 0.053248
v 0.011240 0.006573 0.053326
v 0.011238 0.000572 0.053394
v 0.011236 -0.005430 0.053436
v 0.011235 -0.011431 0.053467
v 0.011235 -0.017433 0.053484
v 0.011236 -0.023434 0.053449
v 0.011239 -0.029436 0.053353
v 0.011245 -0.035436 0.053152
v 0.011254 -0.041433 0.052830
v 0.011269 -0.047425 0.052352
v 0.011290 -0.053404 0.051648
v 0.011320 -0.059356 0.050618
v 0.011367 -0.065245 0.049062
v 0.011446 -0.070844 0.046410
v 0.011588 -0.075177 0.041661
v 0.011797 -0.076724 0.034648
v 0.012008 -0.075364 0.027583
v 0.012155 -0.071200 0.022682
v 0.012239 -0.065685 0.019856
v 0.012289 -0.059829 0.018161
v 0.012324 -0.053896 0.017011
v 0.012348 -0.047932 0.016188
v 0.012366 -0.041951 0.015594
v 0.012379 -0.035960 0.015158
v 0.012389 -0.029965 0.014842
v 0.012395 -0.023966 0.014634
v 0.012399 -0.017966 0.014488
v 0.012402 -0.011966 0.014394
v 0.012404 -0.005965 0.014316
v 0.012406 0.000037 0.014248
v 0.012408 0.006038 0.014206
v 0.012408 0.012040 0.014175
v 0.012409 0.018041 0.014159
v 0.012408 0.024043 0.014193
v 0.012405 0.030044 0.014289
v 0.012399 0.036044 0.014491
v 0.012389 0.042042 0.014812
v 0.012375 0.048033 0.015290
v 0.012354 0.054012 0.015995
v 0.012323 0.059965 0.017024
v 0.012277 0.065854 0.018580
v 0.012198 0.071452 0.021232
v 0.012056 0.075785 0.025982
v 0.016448 0.068909 0.039509
v 0.016637 0.070185 0.033181
v 0.016320 0.065071 0.043828
v 0.016246 0.060043 0.046284
v 0.016202 0.054733 0.047759
v 0.016172 0.049362 0.048762
v 0.016151 0.043963 0.049480
v 0.016135 0.038551 0.049999
v 0.016124 0.033130 0.050380
v 0.016116 0.027706 0.050657
v 0.016110 0.022279 0.050841
v 0.016106 0.016850 0.050970
v 0.016104 0.011421 0.051054
v 0.016102 0.005992 0.051124
v 0.016100 0.000562 0.051185
v 0.016099 -0.004867 0.051223
v 0.016098 -0.010297 0.051252
v 0.016097 -0.015727 0.051269
v 0.016098 -0.021157 0.051241
v 0.016101 -0.026587 0.051159
v 0.016106 -0.032015 0.050986
v 0.016114 -0.037442 0.050709
v 0.016126 -0.042863 0.050297
v 0.016145 -0.048274 0.049688
v 0.016171 -0.053664 0.048797
v 0.016211 -0.059002 0.047453
v 0.016280 -0.064104 0.045166
v 0.016404 -0.068115 0.041010
v 0.016591 -0.069577 0.034747
v 0.016780 -0.068301 0.028420
v 0.016909 -0.064463 0.024100
v 0.016982 -0.059435 0.021644
v 0.017026 -0.054125 0.020170
v 0.017056 -0.048753 0.019166
v 0.017077 -0.043355 0.018448
v 0.017093 -0.037942 0.017929
v 0.017104 -0.032522 0.017549
v 0.017112 -0.027098 0.017271
v 0.017118 -0.021670 0.017087
v 0.017122 -0.016242 0.016958
v 0.017124 -0.010813 0.016874
v 0.017126 -0.005383 0.016805
v 0.017128 0.000046 0.016743
v 0.017129 0.005476 0.016705
v 0.017130 0.010906 0.016676
v 0.017131 0.016335 0.016660
v 0.017130 0.021765 0.016688
v 0.017127 0.027195 0.016769
v 0.017122 0.032624 0.016942
v 0.017114 0.038050 0.017219
v 0.017102 0.043472 0.017631
v 0.017083 0.048883 0.018240
v 0.017057 0.054272 0.019131
v 0.017017 0.059610 0.020475
v 0.016948 0.064712 0.022762
v 0.016824 0.068723 0.026919
v 0.021290 0.061004 0.038884
v 0.021454 0.062190 0.033390
v 0.021180 0.057540 0.042565
v 0.021119 0.053065 0.044622
v 0.021082 0.048365 0.045858
v 0.021057 0.043619 0.046702
v 0.021039 0.038851 0.047306
v 0.021026 0.034072 0.047743
v 0.021016 0.029287 0.048065
v 0.021009 0.024498 0.048300
v 0.021004 0.019707 0.048457
v 0.021001 0.014916 0.048568
v 0.020999 0.010123 0.048641
v 0.020997 0.005331 0.048701
v 0.020995 0.000538 0.048755
v 0.020994 -0.004255 0.048789
v 0.020994 -0.009048 0.048816
v 0.020993 -0.013841 0.048832
v 0.020994 -0.018634 0.048810
v 0.020996 -0.023427 0.048744
v 0.021000 -0.028219 0.048602
v 0.021007 -0.033010 0.048373
v 0.021017 -0.037796 0.048031
v 0.021032 -0.042575 0.047525
v 0.021054 -0.047336 0.046782
v 0.021088 -0.052057 0.045664
v 0.021144 -0.056597 0.043766
v 0.021249 -0.060225 0.040251
v 0.021411 -0.061582 0.034827
v 0.021575 -0.060396 0.029332
v 0.021685 -0.056932 0.025652
v 0.021747 -0.052456 0.023595
v 0.021783 -0.047757 0.022358
v 0.021809 -0.043010 0.021514
v 0.021827 -0.038243 0.020910
v 0.021840 -0.033464 0.020473
v 0.021849 -0.028679 0.020151
v 0.021856 -0.023890 0.019916
v 0.021861 -0.019099 0.019759
v 0.021864 -0.014307 0.019648
v 0.021867 -0.009515 0.019575
v 0.021868 -0.004722 0.019515
v 0.021870 0.000071 0.019461
v 0.021871 0.004863 0.019427
v 0.021872 0.009656 0.019401
v 0.021872 0.014449 0.019384
v 0.021872 0.019242 0.019406
v 0.021870 0.024035 0.019472
v 0.021865 0.028828 0.019614
v 0.021859 0.033618 0.019843
v 0.021848 0.038405 0.020185
v 0.021833 0.043183 0.020691
v 0.021811 0.047944 0.021435
v 0.021778 0.052666 0.022553
v 0.021721 0.057205 0.024450
v 0.021616 0.060833 0.027965
v 0.026139 0.052270 0.038182
v 0.026276 0.053344 0.033597
v 0.026050 0.049229 0.041175
v 0.026001 0.045369 0.042807
v 0.025972 0.041345 0.043789
v 0.025952 0.037289 0.044463
v 0.025937 0.033218 0.044946
v 0.025927 0.029138 0.045296
v 0.025919 0.025053 0.045555
v 0.025914 0.020966 0.045745
v 0.025910 0.016877 0.045873
v 0.025907 0.012787 0.045964
v 0.025905 0.008697 0.046025
v 0.025904 0.004607 0.046076
v 0.025902 0.000516 0.046122
v 0.025901 -0.003574 0.046151
v 0.025901 -0.007665 0.046174
v 0.025900 -0.011755 0.046190
v 0.025901 -0.015846 0.046176
v 0.025902 -0.019936 0.046125
v 0.025905 -0.024027 0.046015
v 0.025911 -0.028115 0.045837
v 0.025919 -0.032202 0.045570
v 0.025931 -0.036282 0.045172
v 0.025948 -0.040349 0.044586
v 0.025974 -0.044388 0.043707
v 0.026019 -0.048298 0.042225
v 0.026103 -0.051494 0.039409
v 0.026237 -0.052736 0.034907
v 0.026374 -0.051661 0.030322
v 0.026463 -0.048621 0.027330
v 0.026512 -0.044760 0.025698
v 0.026541 -0.040737 0.024715
v 0.026562 -0.036681 0.024041
v 0.026576 -0.032610 0.023558
v 0.026586 -0.028529 0.023208
v 0.026594 -0.024445 0.022950
v 0.026600 -0.020358 0.022759
v 0.026604 -0.016269 0.022631
v 0.026606 -0.012179 0.022540
v 0.026608 -0.008089 0.022479
v 0.026610 -0.003998 0.022428
v 0.026611 0.000092 0.022382
v 0.026612 0.004182 0.022353
v 0.026613 0.008273 0.022330
v 0.026613 0.012364 0.022314
v 0.026613 0.016454 0.022329
v 0.026611 0.020545 0.022379
v 0.026608 0.024635 0.022489
v 0.026603 0.028724 0.022667
v 0.026595 0.032810 0.022934
v 0.026583 0.036890 0.023332
v 0.026565 0.040958 0.023918
v 0.026539 0.044996 0.024797
v 0.026495 0.048906 0.026279
v 0.026411 0.052102 0.029096
v 0.029835 0.040169 0.036898
v 0.029939 0.040796 0.033397
v 0.029765 0.037928 0.039238
v 0.029728 0.034984 0.040469
v 0.029706 0.031914 0.041192
v 0.029692 0.028826 0.041689
v 0.029681 0.025728 0.042045
v 0.029673 0.022624 0.042304
v 0.029668 0.019516 0.042494
v 0.029663 0.016407 0.042636
v 0.029660 0.013297 0.042734
v 0.029658 0.010186 0.042803
v 0.029657 0.007074 0.042850
v 0.029656 0.003963 0.042888
v 0.029655 0.000851 0.042924
v 0.029654 -0.002260 0.042948
v 0.029653 -0.005372 0.042966
v 0.029653 -0.008484 0.042980
v 0.029653 -0.011595 0.042975
v 0.029654 -0.014707 0.042945
v 0.029656 -0.017818 0.042874
v 0.029660 -0.020929 0.042756
v 0.029665 -0.024038 0.042578
v 0.029673 -0.027144 0.042312
v 0.029685 -0.030242 0.041918
v 0.029702 -0.033323 0.041330
v 0.029731 -0.036335 0.040366
v 0.029786 -0.038942 0.038520
v 0.029882 -0.040188 0.035325
v 0.029986 -0.039560 0.031825
v 0.030056 -0.037320 0.029485
v 0.030093 -0.034376 0.028253
v 0.030114 -0.031306 0.027530
v 0.030129 -0.028218 0.027033
v 0.030140 -0.025120 0.026677
v 0.030148 -0.022016 0.026419
v 0.030153 -0.018908 0.026228
v 0.030157 -0.015799 0.026086
v 0.030160 -0.012688 0.025988
v 0.030162 -0.009577 0.025919
v 0.030164 -0.006466 0.025872
v 0.030165 -0.003355 0.025834
v 0.030166 -0.000243 0.025799
v 0.030167 0.002869 0.025775
v 0.030167 0.005980 0.025756
v 0.030168 0.009092 0.025742
v 0.030168 0.012204 0.025747
v 0.030167 0.015315 0.025778
v 0.030165 0.018427 0.025848
v 0.030161 0.021538 0.025966
v 0.030156 0.024647 0.026144
v 0.030148 0.027753 0.026410
v 0.030136 0.030850 0.026804
v 0.030118 0.033931 0.027392
v 0.030090 0.036944 0.028356
v 0.030035 0.039550 0.030202
v -0.060155 0.000304 0.031672
v 0.031086 0.000304 0.034396
f 1 2 3
f 4 1 3
f 5 1 4
f 6 5 4
f 7 5 6
f 8 7 6
f 9 7 8
f 10 9 8
f 11 9 10
f 12 11 10
f 13 11 12
f 14 13 12
f 15 13 14
f 16 15 14
f 17 15 16
f 18 17 16
f 19 17 18
f 20 19 18
f 21 19 20
f 22 21 20
f 23 21 22
f 24 23 22
f 25 23 24
f 26 25 24
f 27 25 26
f 28 27 26
f 29 27 28
f 30 29 28
f 31 29 30
f 32 31 30
f 33 31 32
f 34 33 32
f 35 33 34
f 36 35 34
f 37 35 36
f 38 37 36
f 39 37 38
f 40 39 38
f 41 39 40
f 42 41 40
f 43 41 42
f 44 43 42
f 45 43 44
f 46 45 44
f 47 45 46
f 48 47 46
f 49 47 48
f 50 49 48
f 51 49 50
f 52 51 50
f 53 51 52
f 54 53 52
f 55 53 54
f 56 55 54
f 57 55 56
f 58 57 56
f 59 57 58
f 60 59 58
f 61 59 60
f 62 61 60
f 63 61 62
f 64 63 62
f 65 63 64
f 66 65 64
f 67 65 66
f 68 67 66
f 69 67 68
f 70 69 68
f 71 69 70
f 72 71 70
f 73 71 72
f 74 73 72
f 75 73 74
f 76 75 74
f 77 75 76
f 78 77 76
f 79 77 78
f 80 79 78
f 81 79 80
f 82 81 80
f 83 81 82
f 84 83 82
f 85 83 84
f 86 85 84
f 87 85 86
f 88 87 86
f 89 87 88
f 90 89 88
f 91 89 90
f 92 91 90
f 93 91 92
f 94 93 92
f 95 93 94
f 96 95 94
f 97 95 96
f 98 97 96
f 99 97 98
f 100 99 98
f 101 99 100
f 102 101 100
f 103 101 102
f 104 103 102
f 105 103 104
f 106 105 104
f 107 105 106
f 108 107 106
f 109 107 108
f 110 109 108
f 111 109 110
f 112 111 110
f 2 111 112
f 3 2 112
f 113 114 2
f 1 113 2
f 115 113 1
f 5 115 1
f 116 115 5
f 7 116 5
f 117 116 7
f 9 117 7
f 118 117 9
f 11 118 9
f 119 118 11
f 13 119 11
f 120 119 13
f 15 120 13
f 121 120 15
f 17 121 15
f 122 121 17
f 19 122 17
f 123 122 19
f 21 123 19
f 124 123 21
f 23 124 21
f 125 124 23
f 25 125 23
f 126 125 25
f 27 126 25
f 127 126 27
f 29 127 27
f 128 127 29
f 31 128 29
f 129 128 31
f 33 129 31
f 130 129 33
f 35 130 33
f 131 130 35
f 37 131 35
f 132 131 37
f 39 132 37
f 133 132 39
f 41 133 39
f 134 133 41
f 43 134 41
f 135 134 43
f 45 135 43
f 136 135 45
f 47 136 45
f 137 136 47
f 49 137 47
f 138 137 49
f 51 138 49
f 139 138 51
f 53 139 51
f 140 139 53
f 55 140 53
f 141 140 55
f 57 141 55
f 142 141 57
f 59 142 57
f 143 142 59
f 61 143 59
f 144 143 61
f 63 144 61
f 145 144 63
f 65 145 63
f 146 145 65
f 67 146 65
f 147 146 67
f 69 147 67
f 148 147 69
f 71 148 69
f 149 148 71
f 73 149 71
f 150 149 73
f 75 150 73
f 151 150 75
f 77 151 75
f 152 151 77
f 79 152 77
f 153 152 79
f 81 153 79
f 154 153 81
f 83 154 81
f 155 154 83
f 85 155 83
f 156 155 85
f 87 156 85
f 157 156 87
f 89 157 87
f 158 157 89
f 91 158 89
f 159 158 91
f 93 159 91
f 160 159 93
f 95 160 93
f 161 160 95
f 97 161 95
f 162 161 97
f 99 162 97
f 163 162 99
f 101 163 99
f 164 163 101
f 103 164 101
f 165 164 103
f 105 165 103
f 166 165 105
f 107 166 105
f 167 166 107
f 109 167 107
f 168 167 109
f 111 168 109
f 114 168 111
f 2 114 111
f 169 170 114
f 113 169 114
f 171 169 113
f 115 171 113
f 172 171 115
f 116 172 115
f 173 172 116
f 117 173 116
f 174 173 117
f 118 174 117
f 175 174 118
f 119 175 118
f 176 175 119
f 120 176 119
f 177 176 120
f 121 177 120
f 178 177 121
f 122 178 121
f 179 178 122
f 123 179 122
f 180 179 123
f 124 180 123
f 181 180 124
f 125 181 124
f 182 181 125
f 126 182 125
f 183 182 126
f 127 183 126
f 184 183 127
f 128 184 127
f 185 184 128
f 129 185 128
f 186 185 129
f 130 186 129
f 187 186 130
f 131 187 130
f 188 187 131
f 132 188 131
f 189 188 132
f 133 189 132
f 190 189 133
f 134 190 133
f 191 190 134
f 135 191 134
f 192 191 135
f 136 192 135
f 193 192 136
f 137 193 136
f 194 193 137
f 138 194 137
f 195 194 138
f 139 195 138
f 196 195 139
f 140 196 139
f 197 196 140
f 141 197 140
f 198 197 141
f 142 198 141
f 199 198 142
f 143 199 142
f 200 199 143
f 144 200 143
f 201 200 144
f 145 201 144
f 202 201 145
f 146 202 145
f 203 202 146
f 147 203 146
f 204 203 147
f 148 204 147
f 205 204 148
f 149 205 148
f 206 205 149
f 150 206 149
f 207 206 150
f 151 207 150
f 208 207 151
f 152 208 151
f 209 208 152
f 153 209 152
f 210 209 153
f 154 210 153
f 211 210 154
f 155 211 154
f 212 211 155
f 156 212 155
f 213 212 156
f 157 213 156
f 214 213 157
f 158 214 157
f 215 214 158
f 159 215 158
f 216 215 159
f 160 216 159
f 217 216 160
f 161 217 160
f 218 217 161
f 162 218 161
f 219 218 162
f 163 219 162
f 220 219 163
f 164 220 163
f 221 220 164
f 165 221 164
f 222 221 165
f 166 222 165
f 223 222 166
f 167 223 166
f 224 223 167
f 168 224 167
f 170 224 168
f 114 170 168
f 225 226 170
f 169 225 170
f 227 225 169
f 171 227 169
f 228 227 171
f 172 228 171
f 229 228 172
f 173 229 172
f 230 229 173
f 174 230 173
f 231 230 174
f 175 231 174
f 232 231 175
f 176 232 175
f 233 232 176
f 177 233 176
f 234 233 177
f 178 234 177
f 235 234 178
f 179 235 178
f 236 235 179
f 180 236 179
f 237 236 180
f 181 237 180
f 238 237 181
f 182 238 181
f 239 238 182
f 183 239 182
f 240 239 183
f 184 240 183
f 241 240 184
f 185 241 184
f 242 241 185
f 186 242 185
f 243 242 186
f 187 243 186
f 244 243 187
f 188 244 187
f 245 244 188
f 189 245 188
f 246 245 189
f 190 246 189
f 247 246 190
f 191 247 190
f 248 247 191
f 192 248 191
f 249 248 192
f 193 249 192
f 250 249 193
f 194 250 193
f 251 250 194
f 195 251 194
f 252 251 195
f 196 252 195
f 253 252 196
f 197 253 196
f 254 253 197
f 198 254 197
f 255 254 198
f 199 255 198
f 256 255 199
f 200 256 199
f 257 256 200
f 201 257 200
f 258 257 201
f 202 258 201
f 259 258 202
f 203 259 202
f 260 259 203
f 204 260 203
f 261 260 204
f 205 261 204
f 262 261 205
f 206 262 205
f 263 262 206
f 207 263 206
f 264 263 207
f 208 264 207
f 265 264 208
f 209 265 208
f 266 265 209
f 210 266 209
f 267 266 210
f 211 267 210
f 268 267 211
f 212 268 211
f 269 268 212
f 213 269 212
f 270 269 213
f 214 270 213
f 271 270 214
f 215 271 214
f 272 271 215
f 216 272 215
f 273 272 216
f 217 273 216
f 274 273 217
f 218 274 217
f 275 274 218
f 219 275 218
f 276 275 219
f 220 276 219
f 277 276 220
f 221 277 220
f 278 277 221
f 222 278 221
f 279 278 222
f 223 279 222
f 280 279 223
f 224 280 223
f 226 280 224
f 170 226 224
f 281 282 226
f 225 281 226
f 283 281 225
f 227 283 225
f 284 283 227
f 228 284 227
f 285 284 228
f 229 285 228
f 286 285 229
f 230 286 229
f 287 286 230
f 231 287 230
f 288 287 231
f 232 288 231
f 289 288 232
f 233 289 232
f 290 289 233
f 234 290 233
f 291 290 234
f 235 291 234
f 292 291 235
f 236 292 235
f 293 292 236
f 237 293 236
f 294 293 237
f 238 294 237
f 295 294 238
f 239 295 238
f 296 295 239
f 240 296 239
f 297 296 240
f 241 297 240
f 298 297 241
f 242 298 241
f 299 298 242
f 243 299 242
f 300 299 243
f 244 300 243
f 301 300 244
f 245 301 244
f 302 301 245
f 246 302 245
f 303 302 246
f 247 303 246
f 304 303 247
f 248 304 247
f 305 304 248
f 249 305 248
f 306 305 249
f 250 306 249
f 307 306 250
f 251 307 250
f 308 307 251
f 252 308 251
f 309 308 252
f 253 309 252
f 310 309 253
f 254 310 253
f 311 310 254
f 255 311 254
f 312 311 255
f 256 312 255
f 313 312 256
f 257 313 256
f 314 313 257
f 258 314 257
f 315 314 258
f 259 315 258
f 316 315 259
f 260 316 259
f 317 316 260
f 261 317 260
f 318 317 261
f 262 318 261
f 319 318 262
f 263 319 262
f 320 319 263
f 264 320 263
f 321 320 264
f 265 321 264
f 322 321 265
f 266 322 265
f 323 322 266
f 267 323 266
f 324 323 267
f 268 324 267
f 325 324 268
f 269 325 268
f 326 325 269
f 270 326 269
f 327 326 270
f 271 327 270
f 328 327 271
f 272 328 271
f 329 328 272
f 273 329 272
f 330 329 273
f 274 330 273
f 331 330 274
f 275 331 274
f 332 331 275
f 276 332 275
f 333 332 276
f 277 333 276
f 334 333 277
f 278 334 277
f 335 334 278
f 279 335 278
f 336 335 279
f 280 336 279
f 282 336 280
f 226 282 280
f 337 338 282
f 281 337 282
f 339 337 281
f 283 339 281
f 340 339 283
f 284 340 283
f 341 340 284
f 285 341 284
f 342 341 285
f 286 342 285
f 343 342 286
f 287 343 286
f 344 343 287
f 288 344 287
f 345 344 288
f 289 345 288
f 346 345 289
f 290 346 289
f 347 346 290
f 291 347 290
f 348 347 291
f 292 348 291
f 349 348 292
f 293 349 292
f 350 349 293
f 294 350 293
f 351 350 294
f 295 351 294
f 352 351 295
f 296 352 295
f 353 352 296
f 297 353 296
f 354 353 297
f 298 354 297
f 355 354 298
f 299 355 298
f 356 355 299
f 300 356 299
f 357 356 300
f 301 357 300
f 358 357 301
f 302 358 301
f 359 358 302
f 303 359 302
f 360 359 303
f 304 360 303
f 361 360 304
f 305 361 304
f 362 361 305
f 306 362 305
f 363 362 306
f 307 363 306
f 364 363 307
f 308 364 307
f 365 364 308
f 309 365 308
f 366 365 309
f 310 366 309
f 367 366 310
f 311 367 310
f 368 367 311
f 312 368 311
f 369 368 312
f 313 369 312
f 370 369 313
f 314 370 313
f 371 370 314
f 315 371 314
f 372 371 315
f 316 372 315
f 373 372 316
f 317 373 316
f 374 373 317
f 318 374 317
f 375 374 318
f 319 375 318
f 376 375 319
f 320 376 319
f 377 376 320
f 321 377 320
f 378 377 321
f 322 378 321
f 379 378 322
f 323 379 322
f 380 379 323
f 324 380 323
f 381 380 324
f 325 381 324
f 382 381 325
f 326 382 325
f 383 382 326
f 327 383 326
f 384 383 327
f 328 384 327
f 385 384 328
f 329 385 328
f 386 385 329
f 330 386 329
f 387 386 330
f 331 387 330
f 388 387 331
f 332 388 331
f 389 388 332
f 333 389 332
f 390 389 333
f 334 390 333
f 391 390 334
f 335 391 334
f 392 391 335
f 336 392 335
f 338 392 336
f 282 338 336
f 393 394 338
f 337 393 338
f 395 393 337
f 339 395 337
f 396 395 339
f 340 396 339
f 397 396 340
f 341 397 340
f 398 397 341
f 342 398 341
f 399 398 342
f 343 399 342
f 400 399 343
f 344 400 343
f 401 400 344
f 345 401 344
f 402 401 345
f 346 402 345
f 403 402 346
f 347 403 346
f 404 403 347
f 348 404 347
f 405 404 348
f 349 405 348
f 406 405 349
f 350 406 349
f 407 406 350
f 351 407 350
f 408 407 351
f 352 408 351
f 409 408 352
f 353 409 352
f 410 409 353
f 354 410 353
f 411 410 354
f 355 411 354
f 412 411 355
f 356 412 355
f 413 412 356
f 357 413 356
f 414 413 357
f 358 414 357
f 415 414 358
f 359 415 358
f 416 415 359
f 360 416 359
f 417 416 360
f 361 417 360
f 418 417 361
f 362 418 361
f 419 418 362
f 363 419 362
f 420 419 363
f 364 420 363
f 421 420 364
f 365 421 364
f 422 421 365
f 366 422 365
f 423 422 366
f 367 423 366
f 424 423 367
f 368 424 367
f 425 424 368
f 369 425 368
f 426 425 369
f 370 426 369
f 427 426 370
f 371 427 370
f 428 427 371
f 372 428 371
f 429 428 372
f 373 429 372
f 430 429 373
f 374 430 373
f 431 430 374
f 375 431 374
f 432 431 375
f 376 432 375
f 433 432 376
f 377 433 376
f 434 433 377
f 378 434 377
f 435 434 378
f 379 435 378
f 436 435 379
f 380 436 379
f 437 436 380
f 381 437 380
f 438 437 381
f 382 438 381
f 439 438 382
f 383 439 382
f 440 439 383
f 384 440 383
f 441 440 384
f 385 441 384
f 442 441 385
f 386 442 385
f 443 442 386
f 387 443 386
f 444 443 387
f 388 444 387
f 445 444 388
f 389 445 388
f 446 445 389
f 390 446 389
f 447 446 390
f 391 447 390
f 448 447 391
f 392 448 391
f 394 448 392
f 338 394 392
f 449 450 394
f 393 449 394
f 451 449 393
f 395 451 393
f 452 451 395
f 396 452 395
f 453 452 396
f 397 453 396
f 454 453 397
f 398 454 397
f 455 454 398
f 399 455 398
f 456 455 399
f 400 456 399
f 457 456 400
f 401 457 400
f 458 457 401
f 402 458 401
f 459 458 402
f 403 459 402
f 460 459 403
f 404 460 403
f 461 460 404
f 405 461 404
f 462 461 405
f 406 462 405
f 463 462 406
f 407 463 406
f 464 463 407
f 408 464 407
f 465 464 408
f 409 465 408
f 466 465 409
f 410 466 409
f 467 466 410
f 411 467 410
f 468 467 411
f 412 468 411
f 469 468 412
f 413 469 412
f 470 469 413
f 414 470 413
f 471 470 414
f 415 471 414
f 472 471 415
f 416 472 415
f 473 472 416
f 417 473 416
f 474 473 417
f 418 474 417
f 475 474 418
f 419 475 418
f 476 475 419
f 420 476 419
f 477 476 420
f 421 477 420
f 478 477 421
f 422 478 421
f 479 478 422
f 423 479 422
f 480 479 423
f 424 480 423
f 481 480 424
f 425 481 424
f 482 481 425
f 426 482 425
f 483 482 426
f 427 483 426
f 484 483 427
f 428 484 427
f 485 484 428
f 429 485 428
f 486 485 429
f 430 486 429
f 487 486 430
f 431 487 430
f 488 487 431
f 432 488 431
f 489 488 432
f 433 489 432
f 490 489 433
f 434 490 433
f 491 490 434
f 435 491 434
f 492 491 435
f 436 492 435
f 493 492 436
f 437 493 436
f 494 493 437
f 438 494 437
f 495 494 438
f 439 495 438
f 496 495 439
f 440 496 439
f 497 496 440
f 441 497 440
f 498 497 441
f 442 498 441
f 499 498 442
f 443 499 442
f 500 499 443
f 444 500 443
f 501 500 444
f 445 501 444
f 502 501 445
f 446 502 445
f 503 502 446
f 447 503 446
f 504 503 447
f 448 504 447
f 450 504 448
f 394 450 448
f 505 506 450
f 449 505 450
f 507 505 449
f 451 507 449
f 508 507 451
f 452 508 451
f 509 508 452
f 453 509 452
f 510 509 453
f 454 510 453
f 511 510 454
f 455 511 454
f 512 511 455
f 456 512 455
f 513 512 456
f 457 513 456
f 514 513 457
f 458 514 457
f 515 514 458
f 459 515 458
f 516 515 459
f 460 516 459
f 517 516 460
f 461 517 460
f 518 517 461
f 462 518 461
f 519 518 462
f 463 519 462
f 520 519 463
f 464 520 463
f 521 520 464
f 465 521 464
f 522 521 465
f 466 522 465
f 523 522 466
f 467 523 466
f 524 523 467
f 468 524 467
f 525 524 468
f 469 525 468
f 526 525 469
f 470 526 469
f 527 526 470
f 471 527 470
f 528 527 471
f 472 528 471
f 529 528 472
f 473 529 472
f 530 529 473
f 474 530 473
f 531 530 474
f 475 531 474
f 532 531 475
f 476 532 475
f 533 532 476
f 477 533 476
f 534 533 477
f 478 534 477
f 535 534 478
f 479 535 478
f 536 535 479
f 480 536 479
f 537 536 480
f 481 537 480
f 538 537 481
f 482 538 481
f 539 538 482
f 483 539 482
f 540 539 483
f 484 540 483
f 541 540 484
f 485 541 484
f 542 541 485
f 486 542 485
f 543 542 486
f 487 543 486
f 544 543 487
f 488 544 487
f 545 544 488
f 489 545 488
f 546 545 489
f 490 546 489
f 547 546 490
f 491 547 490
f 548 547 491
f 492 548 491
f 549 548 492
f 493 549 492
f 550 549 493
f 494 550 493
f 551 550 494
f 495 551 494
f 552 551 495
f 496 552 495
f 553 552 496
f 497 553 496
f 554 553 497
f 498 554 497
f 555 554 498
f 499 555 498
f 556 555 499
f 500 556 499
f 557 556 500
f 501 557 500
f 558 557 501
f 502 558 501
f 559 558 502
f 503 559 502
f 560 559 503
f 504 560 503
f 506 560 504
f 450 506 504
f 561 562 506
f 505 561 506
f 563 561 505
f 507 563 505
f 564 563 507
f 508 564 507
f 565 564 508
f 509 565 508
f 566 565 509
f 510 566 509
f 567 566 510
f 511 567 510
f 568 567 511
f 512 568 511
f 569 568 512
f 513 569 512
f 570 569 513
f 514 570 513
f 571 570 514
f 515 571 514
f 572 571 515
f 516 572 515
f 573 572 516
f 517 573 516
f 574 573 517
f 518 574 517
f 575 574 518
f 519 575 518
f 576 575 519
f 520 576 519
f 577 576 520
f 521 577 520
f 578 577 521
f 522 578 521
f 579 578 522
f 523 579 522
f 580 579 523
f 524 580 523
f 581 580 524
f 525 581 524
f 582 581 525
f 526 582 525
f 583 582 526
f 527 583 526
f 584 583 527
f 528 584 527
f 585 584 528
f 529 585 528
f 586 585 529
f 530 586 529
f 587 586 530
f 531 587 530
f 588 587 531
f 532 588 531
f 589 588 532
f 533 589 532
f 590 589 533
f 534 590 533
f 591 590 534
f 535 591 534
f 592 591 535
f 536 592 535
f 593 592 536
f 537 593 536
f 594 593 537
f 538 594 537
f 595 594 538
f 539 595 538
f 596 595 539
f 540 596 539
f 597 596 540
f 541 597 540
f 598 597 541
f 542 598 541
f 599 598 542
f 543 599 542
f 600 599 543
f 544 600 543
f 601 600 544
f 545 601 544
f 602 601 545
f 546 602 545
f 603 602 546
f 547 603 546
f 604 603 547
f 548 604 547
f 605 604 548
f 549 605 548
f 606 605 549
f 550 606 549
f 607 606 550
f 551 607 550
f 608 607 551
f 552 608 551
f 609 608 552
f 553 609 552
f 610 609 553
f 554 610 553
f 611 610 554
f 555 611 554
f 612 611 555
f 556 612 555
f 613 612 556
f 557 613 556
f 614 613 557
f 558 614 557
f 615 614 558
f 559 615 558
f 616 615 559
f 560 616 559
f 562 616 560
f 506 562 560
f 617 618 562
f 561 617 562
f 619 617 561
f 563 619 561
f 620 619 563
f 564 620 563
f 621 620 564
f 565 621 564
f 622 621 565
f 566 622 565
f 623 622 566
f 567 623 566
f 624 623 567
f 568 624 567
f 625 624 568
f 569 625 568
f 626 625 569
f 570 626 569
f 627 626 570
f 571 627 570
f 628 627 571
f 572 628 571
f 629 628 572
f 573 629 572
f 630 629 573
f 574 630 573
f 631 630 574
f 575 631 574
f 632 631 575
f 576 632 575
f 633 632 576
f 577 633 576
f 634 633 577
f 578 634 577
f 635 634 578
f 579 635 578
f 636 635 579
f 580 636 579
f 637 636 580
f 581 637 580
f 638 637 581
f 582 638 581
f 639 638 582
f 583 639 582
f 640 639 583
f 584 640 583
f 641 640 584
f 585 641 584
f 642 641 585
f 586 642 585
f 643 642 586
f 587 643 586
f 644 643 587
f 588 644 587
f 645 644 588
f 589 645 588
f 646 645 589
f 590 646 589
f 647 646 590
f 591 647 590
f 648 647 591
f 592 648 591
f 649 648 592
f 593 649 592
f 650 649 593
f 594 650 593
f 651 650 594
f 595 651 594
f 652 651 595
f 596 652 595
f 653 652 596
f 597 653 596
f 654 653 597
f 598 654 597
f 655 654 598
f 599 655 598
f 656 655 599
f 600 656 599
f 657 656 600
f 601 657 600
f 658 657 601
f 602 658 601
f 659 658 602
f 603 659 602
f 660 659 603
f 604 660 603
f 661 660 604
f 605 661 604
f 662 661 605
f 606 662 605
f 663 662 606
f 607 663 606
f 664 663 607
f 608 664 607
f 665 664 608
f 609 665 608
f 666 665 609
f 610 666 609
f 667 666 610
f 611 667 610
f 668 667 611
f 612 668 611
f 669 668 612
f 613 669 612
f 670 669 613
f 614 670 613
f 671 670 614
f 615 671 614
f 672 671 615
f 616 672 615
f 618 672 616
f 562 618 616
f 673 674 618
f 617 673 618
f 675 673 617
f 619 675 617
f 676 675 619
f 620 676 619
f 677 676 620
f 621 677 620
f 678 677 621
f 622 678 621
f 679 678 622
f 623 679 622
f 680 679 623
f 624 680 623
f 681 680 624
f 625 681 624
f 682 681 625
f 626 682 625
f 683 682 626
f 627 683 626
f 684 683 627
f 628 684 627
f 685 684 628
f 629 685 628
f 686 685 629
f 630 686 629
f 687 686 630
f 631 687 630
f 688 687 631
f 632 688 631
f 689 688 632
f 633 689 632
f 690 689 633
f 634 690 633
f 691 690 634
f 635 691 634
f 692 691 635
f 636 692 635
f 693 692 636
f 637 693 636
f 694 693 637
f 638 694 637
f 695 694 638
f 639 695 638
f 696 695 639
f 640 696 639
f 697 696 640
f 641 697 640
f 698 697 641
f 642 698 641
f 699 698 642
f 643 699 642
f 700 699 643
f 644 700 643
f 701 700 644
f 645 701 644
f 702 701 645
f 646 702 645
f 703 702 646
f 647 703 646
f 704 703 647
f 648 704 647
f 705 704 648
f 649 705 648
f 706 705 649
f 650 706 649
f 707 706 650
f 651 707 650
f 708 707 651
f 652 708 651
f 709 708 652
f 653 709 652
f 710 709 653
f 654 710 653
f 711 710 654
f 655 711 654
f 712 711 655
f 656 712 655
f 713 712 656
f 657 713 656
f 714 713 657
f 658 714 657
f 715 714 658
f 659 715 658
f 716 715 659
f 660 716 659
f 717 716 660
f 661 717 660
f 718 717 661
f 662 718 661
f 719 718 662
f 663 719 662
f 720 719 663
f 664 720 663
f 721 720 664
f 665 721 664
f 722 721 665
f 666 722 665
f 723 722 666
f 667 723 666
f 724 723 667
f 668 724 667
f 725 724 668
f 669 725 668
f 726 725 669
f 670 726 669
f 727 726 670
f 671 727 670
f 728 727 671
f 672 728 671
f 674 728 672
f 618 674 672
f 729 730 674
f 673 729 674
f 731 729 673
f 675 731 673
f 732 731 675
f 676 732 675
f 733 732 676
f 677 733 676
f 734 733 677
f 678 734 677
f 735 734 678
f 679 735 678
f 736 735 679
f 680 736 679
f 737 736 680
f 681 737 680
f 738 737 681
f 682 738 681
f 739 738 682
f 683 739 682
f 740 739 683
f 684 740 683
f 741 740 684
f 685 741 684
f 742 741 685
f 686 742 685
f 743 742 686
f 687 743 686
f 744 743 687
f 688 744 687
f 745 744 688
f 689 745 688
f 746 745 689
f 690 746 689
f 747 746 690
f 691 747 690
f 748 747 691
f 692 748 691
f 749 748 692
f 693 749 692
f 750 749 693
f 694 750 693
f 751 750 694
f 695 751 694
f 752 751 695
f 696 752 695
f 753 752 696
f 697 753 696
f 754 753 697
f 698 754 697
f 755 754 698
f 699 755 698
f 756 755 699
f 700 756 699
f 757 756 700
f 701 757 700
f 758 757 701
f 702 758 701
f 759 758 702
f 703 759 702
f 760 759 703
f 704 760 703
f 761 760 704
f 705 761 704
f 762 761 705
f 706 762 705
f 763 762 706
f 707 763 706
f 764 763 707
f 708 764 707
f 765 764 708
f 709 765 708
f 766 765 709
f 710 766 709
f 767 766 710
f 711 767 710
f 768 767 711
f 712 768 711
f 769 768 712
f 713 769 712
f 770 769 713
f 714 770 713
f 771 770 714
f 715 771 714
f 772 771 715
f 716 772 715
f 773 772 716
f 717 773 716
f 774 773 717
f 718 774 717
f 775 774 718
f 719 775 718
f 776 775 719
f 720 776 719
f 777 776 720
f 721 777 720
f 778 777 721
f 722 778 721
f 779 778 722
f 723 779 722
f 780 779 723
f 724 780 723
f 781 780 724
f 725 781 724
f 782 781 725
f 726 782 725
f 783 782 726
f 727 783 726
f 784 783 727
f 728 784 727
f 730 784 728
f 674 730 728
f 785 786 730
f 729 785 730
f 787 785 729
f 731 787 729
f 788 787 731
f 732 788 731
f 789 788 732
f 733 789 732
f 790 789 733
f 734 790 733
f 791 790 734
f 735 791 734
f 792 791 735
f 736 792 735
f 793 792 736
f 737 793 736
f 794 793 737
f 738 794 737
f 795 794 738
f 739 795 738
f 796 795 739
f 740 796 739
f 797 796 740
f 741 797 740
f 798 797 741
f 742 798 741
f 799 798 742
f 743 799 742
f 800 799 743
f 744 800 743
f 801 800 744
f 745 801 744
f 802 801 745
f 746 802 745
f 803 802 746
f 747 803 746
f 804 803 747
f 748 804 747
f 805 804 748
f 749 805 748
f 806 805 749
f 750 806 749
f 807 806 750
f 751 807 750
f 808 807 751
f 752 808 751
f 809 808 752
f 753 809 752
f 810 809 753
f 754 810 753
f 811 810 754
f 755 811 754
f 812 811 755
f 756 812 755
f 813 812 756
f 757 813 756
f 814 813 757
f 758 814 757
f 815 814 758
f 759 815 758
f 816 815 759
f 760 816 759
f 817 816 760
f 761 817 760
f 818 817 761
f 762 818 761
f 819 818 762
f 763 819 762
f 820 819 763
f 764 820 763
f 821 820 764
f 765 821 764
f 822 821 765
f 766 822 765
f 823 822 766
f 767 823 766
f 824 823 767
f 768 824 767
f 825 824 768
f 769 825 768
f 826 825 769
f 770 826 769
f 827 826 770
f 771 827 770
f 828 827 771
f 772 828 771
f 829 828 772
f 773 829 772
f 830 829 773
f 774 830 773
f 831 830 774
f 775 831 774
f 832 831 775
f 776 832 775
f 833 832 776
f 777 833 776
f 834 833 777
f 778 834 777
f 835 834 778
f 779 835 778
f 836 835 779
f 780 836 779
f 837 836 780
f 781 837 780
f 838 837 781
f 782 838 781
f 839 838 782
f 783 839 782
f 840 839 783
f 784 840 783
f 786 840 784
f 730 786 784
f 841 842 786
f 785 841 786
f 843 841 785
f 787 843 785
f 844 843 787
f 788 844 787
f 845 844 788
f 789 845 788
f 846 845 789
f 790 846 789
f 847 846 790
f 791 847 790
f 848 847 791
f 792 848 791
f 849 848 792
f 793 849 792
f 850 849 793
f 794 850 793
f 851 850 794
f 795 851 794
f 852 851 795
f 796 852 795
f 853 852 796
f 797 853 796
f 854 853 797
f 798 854 797
f 855 854 798
f 799 855 798
f 856 855 799
f 800 856 799
f 857 856 800
f 801 857 800
f 858 857 801
f 802 858 801
f 859 858 802
f 803 859 802
f 860 859 803
f 804 860 803
f 861 860 804
f 805 861 804
f 862 861 805
f 806 862 805
f 863 862 806
f 807 863 806
f 864 863 807
f 808 864 807
f 865 864 808
f 809 865 808
f 866 865 809
f 810 866 809
f 867 866 810
f 811 867 810
f 868 867 811
f 812 868 811
f 869 868 812
f 813 869 812
f 870 869 813
f 814 870 813
f 871 870 814
f 815 871 814
f 872 871 815
f 816 872 815
f 873 872 816
f 817 873 816
f 874 873 817
f 818 874 817
f 875 874 818
f 819 875 818
f 876 875 819
f 820 876 819
f 877 876 820
f 821 877 820
f 878 877 821
f 822 878 821
f 879 878 822
f 823 879 822
f 880 879 823
f 824 880 823
f 881 880 824
f 825 881 824
f 882 881 825
f 826 882 825
f 883 882 826
f 827 883 826
f 884 883 827
f 828 884 827
f 885 884 828
f 829 885 828
f 886 885 829
f 830 886 829
f 887 886 830
f 831 887 830
f 888 887 831
f 832 888 831
f 889 888 832
f 833 889 832
f 890 889 833
f 834 890 833
f 891 890 834
f 835 891 834
f 892 891 835
f 836 892 835
f 893 892 836
f 837 893 836
f 894 893 837
f 838 894 837
f 895 894 838
f 839 895 838
f 896 895 839
f 840 896 839
f 842 896 840
f 786 842 840
f 897 898 842
f 841 897 842
f 899 897 841
f 843 899 841
f 900 899 843
f 844 900 843
f 901 900 844
f 845 901 844
f 902 901 845
f 846 902 845
f 903 902 846
f 847 903 846
f 904 903 847
f 848 904 847
f 905 904 848
f 849 905 848
f 906 905 849
f 850 906 849
f 907 906 850
f 851 907 850
f 908 907 851
f 852 908 851
f 909 908 852
f 853 909 852
f 910 909 853
f 854 910 853
f 911 910 854
f 855 911 854
f 912 911 855
f 856 912 855
f 913 912 856
f 857 913 856
f 914 913 857
f 858 914 857
f 915 914 858
f 859 915 858
f 916 915 859
f 860 916 859
f 917 916 860
f 861 917 860
f 918 917 861
f 862 918 861
f 919 918 862
f 863 919 862
f 920 919 863
f 864 920 863
f 921 920 864
f 865 921 864
f 922 921 865
f 866 922 865
f 923 922 866
f 867 923 866
f 924 923 867
f 868 924 867
f 925 924 868
f 869 925 868
f 926 925 869
f 870 926 869
f 927 926 870
f 871 927 870
f 928 927 871
f 872 928 871
f 929 928 872
f 873 929 872
f 930 929 873
f 874 930 873
f 931 930 874
f 875 931 874
f 932 931 875
f 876 932 875
f 933 932 876
f 877 933 876
f 934 933 877
f 878 934 877
f 935 934 878
f 879 935 878
f 936 935 879
f 880 936 879
f 937 936 880
f 881 937 880
f 938 937 881
f 882 938 881
f 939 938 882
f 883 939 882
f 940 939 883
f 884 940 883
f 941 940 884
f 885 941 884
f 942 941 885
f 886 942 885
f 943 942 886
f 887 943 886
f 944 943 887
f 888 944 887
f 945 944 888
f 889 945 888
f 946 945 889
f 890 946 889
f 947 946 890
f 891 947 890
f 948 947 891
f 892 948 891
f 949 948 892
f 893 949 892
f 950 949 893
f 894 950 893
f 951 950 894
f 895 951 894
f 952 951 895
f 896 952 895
f 898 952 896
f 842 898 896
f 953 954 898
f 897 953 898
f 955 953 897
f 899 955 897
f 956 955 899
f 900 956 899
f 957 956 900
f 901 957 900
f 958 957 901
f 902 958 901
f 959 958 902
f 903 959 902
f 960 959 903
f 904 960 903
f 961 960 904
f 905 961 904
f 962 961 905
f 906 962 905
f 963 962 906
f 907 963 906
f 964 963 907
f 908 964 907
f 965 964 908
f 909 965 908
f 966 965 909
f 910 966 909
f 967 966 910
f 911 967 910
f 968 967 911
f 912 968 911
f 969 968 912
f 913 969 912
f 970 969 913
f 914 970 913
f 971 970 914
f 915 971 914
f 972 971 915
f 916 972 915
f 973 972 916
f 917 973 916
f 974 973 917
f 918 974 917
f 975 974 918
f 919 975 918
f 976 975 919
f 920 976 919
f 977 976 920
f 921 977 920
f 978 977 921
f 922 978 921
f 979 978 922
f 923 979 922
f 980 979 923
f 924 980 923
f 981 980 924
f 925 981 924
f 982 981 925
f 926 982 925
f 983 982 926
f 927 983 926
f 984 983 927
f 928 984 927
f 985 984 928
f 929 985 928
f 986 985 929
f 930 986 929
f 987 986 930
f 931 987 930
f 988 987 931
f 932 988 931
f 989 988 932
f 933 989 932
f 990 989 933
f 934 990 933
f 991 990 934
f 935 991 934
f 992 991 935
f 936 992 935
f 993 992 936
f 937 993 936
f 994 993 937
f 938 994 937
f 995 994 938
f 939 995 938
f 996 995 939
f 940 996 939
f 997 996 940
f 941 997 940
f 998 997 941
f 942 998 941
f 999 998 942
f 943 999 942
f 1000 999 943
f 944 1000 943
f 1001 1000 944
f 945 1001 944
f 1002 1001 945
f 946 1002 945
f 1003 1002 946
f 947 1003 946
f 1004 1003 947
f 948 1004 947
f 1005 1004 948
f 949 1005 948
f 1006 1005 949
f 950 1006 949
f 1007 1006 950
f 951 1007 950
f 1008 1007 951
f 952 1008 951
f 954 1008 952
f 898 954 952
f 1009 1010 954
f 953 1009 954
f 1011 1009 953
f 955 1011 953
f 1012 1011 955
f 956 1012 955
f 1013 1012 956
f 957 1013 956
f 1014 1013 957
f 958 1014 957
f 1015 1014 958
f 959 1015 958
f 1016 1015 959
f 960 1016 959
f 1017 1016 960
f 961 1017 960
f 1018 1017 961
f 962 1018 961
f 1019 1018 962
f 963 1019 962
f 1020 1019 963
f 964 1020 963
f 1021 1020 964
f 965 1021 964
f 1022 1021 965
f 966 1022 965
f 1023 1022 966
f 967 1023 966
f 1024 1023 967
f 968 1024 967
f 1025 1024 968
f 969 1025 968
f 1026 1025 969
f 970 1026 969
f 1027 1026 970
f 971 1027 970
f 1028 1027 971
f 972 1028 971
f 1029 1028 972
f 973 1029 972
f 1030 1029 973
f 974 1030 973
f 1031 1030 974
f 975 1031 974
f 1032 1031 975
f 976 1032 975
f 1033 1032 976
f 977 1033 976
f 1034 1033 977
f 978 1034 977
f 1035 1034 978
f 979 1035 978
f 1036 1035 979
f 980 1036 979
f 1037 1036 980
f 981 1037 980
f 1038 1037 981
f 982 1038 981
f 1039 1038 982
f 983 1039 982
f 1040 1039 983
f 984 1040 983
f 1041 1040 984
f 985 1041 984
f 1042 1041 985
f 986 1042 985
f 1043 1042 986
f 987 1043 986
f 1044 1043 987
f 988 1044 987
f 1045 1044 988
f 989 1045 988
f 1046 1045 989
f 990 1046 989
f 1047 1046 990
f 991 1047 990
f 1048 1047 991
f 992 1048 991
f 1049 1048 992
f 993 1049 992
f 1050 1049 993
f 994 1050 993
f 1051 1050 994
f 995 1051 994
f 1052 1051 995
f 996 1052 995
f 1053 1052 996
f 997 1053 996
f 1054 1053 997
f 998 1054 997
f 1055 1054 998
f 999 1055 998
f 1056 1055 999
f 1000 1056 999
f 1057 1056 1000
f 1001 1057 1000
f 1058 1057 1001
f 1002 1058 1001
f 1059 1058 1002
f 1003 1059 1002
f 1060 1059 1003
f 1004 1060 1003
f 1061 1060 1004
f 1005 1061 1004
f 1062 1061 1005
f 1006 1062 1005
f 1063 1062 1006
f 1007 1063 1006
f 1064 1063 1007
f 1008 1064 1007
f 1010 1064 1008
f 954 1010 1008
f 1065 1066 1010
f 1009 1065 1010
f 1067 1065 1009
f 1011 1067 1009
f 1068 1067 1011
f 1012 1068 1011
f 1069 1068 1012
f 1013 1069 1012
f 1070 1069 1013
f 1014 1070 1013
f 1071 1070 1014
f 1015 1071 1014
f 1072 1071 1015
f 1016 1072 1015
f 1073 1072 1016
f 1017 1073 1016
f 1074 1073 1017
f 1018 1074 1017
f 1075 1074 1018
f 1019 1075 1018
f 1076 1075 1019
f 1020 1076 1019
f 1077 1076 1020
f 1021 1077 1020
f 1078 1077 1021
f 1022 1078 1021
f 1079 1078 1022
f 1023 1079 1022
f 1080 1079 1023
f 1024 1080 1023
f 1081 1080 1024
f 1025 1081 1024
f 1082 1081 1025
f 1026 1082 1025
f 1083 1082 1026
f 1027 1083 1026
f 1084 1083 1027
f 1028 1084 1027
f 1085 1084 1028
f 1029 1085 1028
f 1086 1085 1029
f 1030 1086 1029
f 1087 1086 1030
f 1031 1087 1030
f 1088 1087 1031
f 1032 1088 1031
f 1089 1088 1032
f 1033 1089 1032
f 1090 1089 1033
f 1034 1090 1033
f 1091 1090 1034
f 1035 1091 1034
f 1092 1091 1035
f 1036 1092 1035
f 1093 1092 1036
f 1037 1093 1036
f 1094 1093 1037
f 1038 1094 1037
f 1095 1094 1038
f 1039 1095 1038
f 1096 1095 1039
f 1040 1096 1039
f 1097 1096 1040
f 1041 1097 1040
f 1098 1097 1041
f 1042 1098 1041
f 1099 1098 1042
f 1043 1099 1042
f 1100 1099 1043
f 1044 1100 1043
f 1101 1100 1044
f 1045 1101 1044
f 1102 1101 1045
f 1046 1102 1045
f 1103 1102 1046
f 1047 1103 1046
f 1104 1103 1047
f 1048 1104 1047
f 1105 1104 1048
f 1049 1105 1048
f 1106 1105 1049
f 1050 1106 1049
f 1107 1106 1050
f 1051 1107 1050
f 1108 1107 1051
f 1052 1108 1051
f 1109 1108 1052
f 1053 1109 1052
f 1110 1109 1053
f 1054 1110 1053
f 1111 1110 1054
f 1055 1111 1054
f 1112 1111 1055
f 1056 1112 1055
f 1113 1112 1056
f 1057 1113 1056
f 1114 1113 1057
f 1058 1114 1057
f 1115 1114 1058
f 1059 1115 1058
f 1116 1115 1059
f 1060 1116 1059
f 1117 1116 1060
f 1061 1117 1060
f 1118 1117 1061
f 1062 1118 1061
f 1119 1118 1062
f 1063 1119 1062
f 1120 1119 1063
f 1064 1120 1063
f 1066 1120 1064
f 1010 1066 1064
f 4 3 1121
f 6 4 1121
f 8 6 1121
f 10 8 1121
f 12 10 1121
f 14 12 1121
f 16 14 1121
f 18 16 1121
f 20 18 1121
f 22 20 1121
f 24 22 1121
f 26 24 1121
f 28 26 1121
f 30 28 1121
f 32 30 1121
f 34 32 1121
f 36 34 1121
f 38 36 1121
f 40 38 1121
f 42 40 1121
f 44 42 1121
f 46 44 1121
f 48 46 1121
f 50 48 1121
f 52 50 1121
f 54 52 1121
f 56 54 1121
f 58 56 1121
f 60 58 1121
f 62 60 1121
f 64 62 1121
f 66 64 1121
f 68 66 1121
f 70 68 1121
f 72 70 1121
f 74 72 1121
f 76 74 1121
f 78 76 1121
f 80 78 1121
f 82 80 1121
f 84 82 1121
f 86 84 1121
f 88 86 1121
f 90 88 1121
f 92 90 1121
f 94 92 1121
f 96 94 1121
f 98 96 1121
f 100 98 1121
f 102 100 1121
f 104 102 1121
f 106 104 1121
f 108 106 1121
f 110 108 1121
f 112 110 1121
f 3 112 1121
f 1122 1066 1065
f 1122 1065 1067
f 1122 1067 1068
f 1122 1068 1069
f 1122 1069 1070
f 1122 1070 1071
f 1122 1071 1072
f 1122 1072 1073
f 1122 1073 1074
f 1122 1074 1075
f 1122 1075 1076
f 1122 1076 1077
f 1122 1077 1078
f 1122 1078 1079
f 1122 1079 1080
f 1122 1080 1081
f 1122 1081 1082
f 1122 1082 1083
f 1122 1083 1084
f 1122 1084 1085
f 1122 1085 1086
f 1122 1086 1087
f 1122 1087 1088
f 1122 1088 1089
f 1122 1089 1090
f 1122 1090 1091
f 1122 1091 1092
f 1122 1092 1093
f 1122 1093 1094
f 1122 1094 1095
f 1122 1095 1096
f 1122 1096 1097
f 1122 1097 1098
f 1122 1098 1099
f 1122 1099 1100
f 1122 1100 1101
f 1122 1101 1102
f 1122 1102 1103
f 1122 1103 1104
f 1122 1104 1105
f 1122 1105 1106
f 1122 1106 1107
f 1122 1107 1108
f 1122 1108 1109
f 1122 1109 1110
f 1122 1110 1111
f 1122 1111 1112
f 1122 1112 1113
f 1122 1113 1114
f 1122 1114 1115
f 1122 1115 1116
f 1122 1116 1117
f 1122 1117 1118
f 1122 1118 1119
f 1122 1119 1120
f 1122 1120 1066
